<svg xmlns="http://www.w3.org/2000/svg" width="1000" height="760" style="max-width: 100%;" viewBox="0 0 1000 760">

<defs>
  <linearGradient id="areaGrad" x1="0" y1="0" x2="0" y2="1">
    <stop offset="0%" stop-color="#58a6ff" stop-opacity="0.35"/>
    <stop offset="100%" stop-color="#58a6ff" stop-opacity="0.02"/>
  </linearGradient>
  <linearGradient id="addGrad" x1="0" y1="0" x2="0" y2="1">
    <stop offset="0%" stop-color="#3fb950" stop-opacity="0.35"/>
    <stop offset="100%" stop-color="#3fb950" stop-opacity="0.02"/>
  </linearGradient>
  <linearGradient id="delGrad" x1="0" y1="0" x2="0" y2="1">
    <stop offset="0%" stop-color="#f85149" stop-opacity="0.25"/>
    <stop offset="100%" stop-color="#f85149" stop-opacity="0.02"/>
  </linearGradient>
</defs>
<style>
  .title { font: bold 28px 'Segoe UI', Ubuntu, Sans-Serif; fill: #c9d1d9; }
  .subtitle { font: 600 20px 'Segoe UI', Ubuntu, Sans-Serif; fill: #c9d1d9; opacity: 0.8; }
  .axis-label { font: 18px 'Segoe UI', Ubuntu, Sans-Serif; fill: #c9d1d9; opacity: 0.7; }
  .legend-text { font: 14px 'Segoe UI', Ubuntu, Sans-Serif; fill: #c9d1d9; }
  .value-text { font: bold 18px 'Segoe UI', Ubuntu, Sans-Serif; fill: #c9d1d9; }
  .stat-value { font: bold 22px 'Segoe UI', Ubuntu, Sans-Serif; fill: #c9d1d9; }
  .stat-label { font: 18px 'Segoe UI', Ubuntu, Sans-Serif; fill: #c9d1d9; opacity: 0.7; }
  @keyframes fadeIn { from { opacity: 0; } to { opacity: 1; } }
  .anim { animation: fadeIn 0.6s ease-in-out forwards; opacity: 0; }
</style>

<rect x="0.5" y="0.5" rx="4.5" width="999" height="759" fill="#161b22" stroke="#21262d"/>
<text x="90" y="45" class="title">Activity History</text>
<text x="90" y="72" class="subtitle">Lines added vs deleted &amp; activity trends over time</text>
<line x1="90" y1="340.0" x2="780" y2="340.0" stroke="#21262d" stroke-width="1"/>
<text x="82" y="344.0" text-anchor="end" class="axis-label">0</text>
<line x1="90" y1="280.0" x2="780" y2="280.0" stroke="#21262d" stroke-width="1"/>
<text x="82" y="284.0" text-anchor="end" class="axis-label">452K</text>
<line x1="90" y1="220.0" x2="780" y2="220.0" stroke="#21262d" stroke-width="1"/>
<text x="82" y="224.0" text-anchor="end" class="axis-label">905K</text>
<line x1="90" y1="160.0" x2="780" y2="160.0" stroke="#21262d" stroke-width="1"/>
<text x="82" y="164.0" text-anchor="end" class="axis-label">1.4M</text>
<line x1="90" y1="100.0" x2="780" y2="100.0" stroke="#21262d" stroke-width="1"/>
<text x="82" y="104.0" text-anchor="end" class="axis-label">1.8M</text>
<polygon points="90.0,340.0 90.0,291.6 96.8,293.3 103.7,291.6 110.5,293.3 117.3,304.5 124.2,282.3 131.0,282.3 137.8,273.9 144.7,273.6 151.5,273.1 158.3,273.0 165.1,258.1 172.0,258.1 178.8,258.1 185.6,236.0 192.5,235.7 199.3,235.4 206.1,235.4 213.0,235.4 219.8,235.4 226.6,235.4 233.5,234.9 240.3,220.1 247.1,220.1 254.0,220.1 260.8,220.1 267.6,219.7 274.5,219.7 281.3,219.1 288.1,219.1 295.0,219.0 301.8,219.0 308.6,219.0 315.4,219.0 322.3,219.1 329.1,219.0 335.9,219.0 342.8,219.0 349.6,219.0 356.4,219.0 363.3,219.0 370.1,218.4 376.9,218.6 383.8,218.0 390.6,217.6 397.4,217.6 404.3,217.6 411.1,217.6 417.9,217.6 424.8,217.6 431.6,217.6 438.4,217.6 445.2,217.6 452.1,217.6 458.9,217.9 465.7,219.4 472.6,218.0 479.4,216.7 486.2,216.6 493.1,216.6 499.9,216.6 506.7,216.6 513.6,209.0 520.4,202.1 527.2,202.1 534.1,202.1 540.9,202.1 547.7,202.1 554.6,202.1 561.4,202.1 568.2,202.1 575.0,202.0 581.9,202.0 588.7,202.0 595.5,202.0 602.4,202.0 609.2,202.0 616.0,202.0 622.9,202.0 629.7,202.0 636.5,202.0 643.4,202.0 650.2,202.0 657.0,202.0 663.9,202.0 670.7,202.0 677.5,202.0 684.4,202.0 691.2,202.0 698.0,202.0 704.9,202.0 711.7,202.0 718.5,202.0 725.3,202.0 732.2,202.0 739.0,202.0 745.8,202.0 752.7,202.0 759.5,202.0 766.3,202.0 773.2,194.4 780.0,186.9 780.0,340.0" fill="url(#addGrad)" class="anim" style="animation-delay:200ms;"/>
<polyline points="90.0,291.6 96.8,293.3 103.7,291.6 110.5,293.3 117.3,304.5 124.2,282.3 131.0,282.3 137.8,273.9 144.7,273.6 151.5,273.1 158.3,273.0 165.1,258.1 172.0,258.1 178.8,258.1 185.6,236.0 192.5,235.7 199.3,235.4 206.1,235.4 213.0,235.4 219.8,235.4 226.6,235.4 233.5,234.9 240.3,220.1 247.1,220.1 254.0,220.1 260.8,220.1 267.6,219.7 274.5,219.7 281.3,219.1 288.1,219.1 295.0,219.0 301.8,219.0 308.6,219.0 315.4,219.0 322.3,219.1 329.1,219.0 335.9,219.0 342.8,219.0 349.6,219.0 356.4,219.0 363.3,219.0 370.1,218.4 376.9,218.6 383.8,218.0 390.6,217.6 397.4,217.6 404.3,217.6 411.1,217.6 417.9,217.6 424.8,217.6 431.6,217.6 438.4,217.6 445.2,217.6 452.1,217.6 458.9,217.9 465.7,219.4 472.6,218.0 479.4,216.7 486.2,216.6 493.1,216.6 499.9,216.6 506.7,216.6 513.6,209.0 520.4,202.1 527.2,202.1 534.1,202.1 540.9,202.1 547.7,202.1 554.6,202.1 561.4,202.1 568.2,202.1 575.0,202.0 581.9,202.0 588.7,202.0 595.5,202.0 602.4,202.0 609.2,202.0 616.0,202.0 622.9,202.0 629.7,202.0 636.5,202.0 643.4,202.0 650.2,202.0 657.0,202.0 663.9,202.0 670.7,202.0 677.5,202.0 684.4,202.0 691.2,202.0 698.0,202.0 704.9,202.0 711.7,202.0 718.5,202.0 725.3,202.0 732.2,202.0 739.0,202.0 745.8,202.0 752.7,202.0 759.5,202.0 766.3,202.0" fill="none" stroke="#3fb950" stroke-width="2" stroke-linejoin="round" class="anim" style="animation-delay:250ms;"/>
<polyline points="766.3,202.0 773.2,194.4 780.0,186.9" fill="none" stroke="#3fb950" stroke-width="1.5" stroke-dasharray="5,4" stroke-linejoin="round" opacity="0.6" class="anim" style="animation-delay:250ms;"/>
<polygon points="90.0,340.0 90.0,326.4 96.8,327.8 103.7,326.4 110.5,327.8 117.3,333.6 124.2,324.7 131.0,324.7 137.8,323.7 144.7,323.4 151.5,323.1 158.3,323.1 165.1,307.1 172.0,307.1 178.8,307.0 185.6,288.8 192.5,288.7 199.3,288.7 206.1,288.7 213.0,288.7 219.8,288.7 226.6,288.7 233.5,279.2 240.3,264.7 247.1,264.6 254.0,264.6 260.8,264.6 267.6,264.6 274.5,264.6 281.3,264.5 288.1,264.5 295.0,264.4 301.8,264.4 308.6,264.4 315.4,264.4 322.3,264.5 329.1,264.4 335.9,264.4 342.8,264.4 349.6,264.4 356.4,264.4 363.3,264.4 370.1,264.4 376.9,264.5 383.8,264.0 390.6,264.0 397.4,264.0 404.3,264.0 411.1,264.0 417.9,264.0 424.8,264.0 431.6,264.0 438.4,264.0 445.2,264.0 452.1,264.0 458.9,264.1 465.7,264.9 472.6,264.4 479.4,263.6 486.2,263.5 493.1,263.5 499.9,263.5 506.7,263.5 513.6,263.5 520.4,263.5 527.2,263.5 534.1,263.5 540.9,263.5 547.7,263.5 554.6,263.5 561.4,263.5 568.2,263.5 575.0,263.5 581.9,263.5 588.7,263.5 595.5,263.5 602.4,263.5 609.2,263.5 616.0,263.5 622.9,263.5 629.7,263.5 636.5,263.5 643.4,263.5 650.2,263.5 657.0,263.5 663.9,263.5 670.7,263.5 677.5,263.5 684.4,263.5 691.2,263.5 698.0,263.5 704.9,263.5 711.7,263.5 718.5,263.5 725.3,263.5 732.2,263.5 739.0,263.5 745.8,263.5 752.7,263.5 759.5,263.5 766.3,263.5 773.2,258.3 780.0,253.1 780.0,340.0" fill="url(#delGrad)" class="anim" style="animation-delay:300ms;"/>
<polyline points="90.0,326.4 96.8,327.8 103.7,326.4 110.5,327.8 117.3,333.6 124.2,324.7 131.0,324.7 137.8,323.7 144.7,323.4 151.5,323.1 158.3,323.1 165.1,307.1 172.0,307.1 178.8,307.0 185.6,288.8 192.5,288.7 199.3,288.7 206.1,288.7 213.0,288.7 219.8,288.7 226.6,288.7 233.5,279.2 240.3,264.7 247.1,264.6 254.0,264.6 260.8,264.6 267.6,264.6 274.5,264.6 281.3,264.5 288.1,264.5 295.0,264.4 301.8,264.4 308.6,264.4 315.4,264.4 322.3,264.5 329.1,264.4 335.9,264.4 342.8,264.4 349.6,264.4 356.4,264.4 363.3,264.4 370.1,264.4 376.9,264.5 383.8,264.0 390.6,264.0 397.4,264.0 404.3,264.0 411.1,264.0 417.9,264.0 424.8,264.0 431.6,264.0 438.4,264.0 445.2,264.0 452.1,264.0 458.9,264.1 465.7,264.9 472.6,264.4 479.4,263.6 486.2,263.5 493.1,263.5 499.9,263.5 506.7,263.5 513.6,263.5 520.4,263.5 527.2,263.5 534.1,263.5 540.9,263.5 547.7,263.5 554.6,263.5 561.4,263.5 568.2,263.5 575.0,263.5 581.9,263.5 588.7,263.5 595.5,263.5 602.4,263.5 609.2,263.5 616.0,263.5 622.9,263.5 629.7,263.5 636.5,263.5 643.4,263.5 650.2,263.5 657.0,263.5 663.9,263.5 670.7,263.5 677.5,263.5 684.4,263.5 691.2,263.5 698.0,263.5 704.9,263.5 711.7,263.5 718.5,263.5 725.3,263.5 732.2,263.5 739.0,263.5 745.8,263.5 752.7,263.5 759.5,263.5 766.3,263.5" fill="none" stroke="#f85149" stroke-width="1.5" stroke-linejoin="round" class="anim" style="animation-delay:350ms;"/>
<polyline points="766.3,263.5 773.2,258.3 780.0,253.1" fill="none" stroke="#f85149" stroke-width="1" stroke-dasharray="5,4" stroke-linejoin="round" opacity="0.6" class="anim" style="animation-delay:350ms;"/>
<polyline points="90.0,340.0 96.8,340.0 103.7,340.0 110.5,340.0 117.3,340.0 124.2,340.0 131.0,340.0 137.8,340.0 144.7,308.0 151.5,308.0 158.3,308.0 165.1,308.0 172.0,308.0 178.8,308.0 185.6,308.0 192.5,308.0 199.3,308.0 206.1,308.0 213.0,308.0 219.8,308.0 226.6,308.0 233.5,308.0 240.3,308.0 247.1,308.0 254.0,308.0 260.8,308.0 267.6,308.0 274.5,308.0 281.3,308.0 288.1,308.0 295.0,308.0 301.8,308.0 308.6,308.0 315.4,308.0 322.3,276.0 329.1,276.0 335.9,276.0 342.8,276.0 349.6,276.0 356.4,276.0 363.3,276.0 370.1,276.0 376.9,244.0 383.8,244.0 390.6,244.0 397.4,244.0 404.3,244.0 411.1,244.0 417.9,244.0 424.8,244.0 431.6,244.0 438.4,244.0 445.2,244.0 452.1,244.0 458.9,244.0 465.7,244.0 472.6,244.0 479.4,244.0 486.2,180.0 493.1,180.0 499.9,180.0 506.7,180.0 513.6,180.0 520.4,180.0 527.2,180.0 534.1,180.0 540.9,180.0 547.7,180.0 554.6,180.0 561.4,180.0 568.2,180.0 575.0,180.0 581.9,180.0 588.7,180.0 595.5,180.0 602.4,180.0 609.2,180.0 616.0,180.0 622.9,180.0 629.7,180.0 636.5,180.0 643.4,180.0 650.2,180.0 657.0,180.0 663.9,180.0 670.7,180.0 677.5,180.0 684.4,180.0 691.2,180.0 698.0,180.0 704.9,180.0 711.7,180.0 718.5,180.0 725.3,180.0 732.2,180.0 739.0,180.0 745.8,180.0 752.7,180.0 759.5,180.0 766.3,180.0" fill="none" stroke="#e3b341" stroke-width="1.5" stroke-dasharray="4,3" stroke-linejoin="round" class="anim" style="animation-delay:400ms;"/>
<polyline points="766.3,180.0 773.2,180.0 780.0,148.0" fill="none" stroke="#e3b341" stroke-width="1" stroke-dasharray="3,5" stroke-linejoin="round" opacity="0.5" class="anim" style="animation-delay:400ms;"/>
<text x="90" y="90" class="subtitle">Lines Added vs Deleted (per snapshot)</text>
<text x="90" y="400" class="subtitle">Programming Language Development (%)</text>
<line x1="90" y1="650.0" x2="780" y2="650.0" stroke="#21262d" stroke-width="1"/>
<text x="82" y="654.0" text-anchor="end" class="axis-label">0%</text>
<line x1="90" y1="590.0" x2="780" y2="590.0" stroke="#21262d" stroke-width="1"/>
<text x="82" y="594.0" text-anchor="end" class="axis-label">25%</text>
<line x1="90" y1="530.0" x2="780" y2="530.0" stroke="#21262d" stroke-width="1"/>
<text x="82" y="534.0" text-anchor="end" class="axis-label">50%</text>
<line x1="90" y1="470.0" x2="780" y2="470.0" stroke="#21262d" stroke-width="1"/>
<text x="82" y="474.0" text-anchor="end" class="axis-label">75%</text>
<line x1="90" y1="410.0" x2="780" y2="410.0" stroke="#21262d" stroke-width="1"/>
<text x="82" y="414.0" text-anchor="end" class="axis-label">100%</text>
<polygon points="90.0,650.0 96.8,650.0 103.7,650.0 110.5,650.0 117.3,650.0 124.2,650.0 131.0,650.0 137.8,650.0 144.7,528.2 151.5,528.5 158.3,529.7 165.1,499.3 172.0,499.3 178.8,502.9 185.6,485.0 192.5,485.1 199.3,485.4 206.1,485.4 213.0,485.4 219.8,485.4 226.6,485.4 233.5,496.4 240.3,496.7 247.1,491.0 254.0,491.0 260.8,491.0 267.6,491.7 274.5,491.8 281.3,494.0 288.1,494.0 295.0,494.4 301.8,494.4 308.6,494.4 315.4,494.4 322.3,507.6 329.1,507.6 335.9,507.9 342.8,507.9 349.6,507.9 356.4,506.3 363.3,506.4 370.1,506.8 376.9,506.9 383.8,506.8 390.6,507.5 397.4,507.5 404.3,507.5 411.1,507.5 417.9,507.5 424.8,507.5 431.6,507.5 438.4,507.5 445.2,507.5 452.1,507.5 458.9,507.5 465.7,507.5 472.6,507.5 479.4,508.6 486.2,508.6 493.1,508.6 499.9,508.6 506.7,508.6 513.6,509.5 520.4,509.8 527.2,509.8 534.1,509.8 540.9,509.8 547.7,509.8 554.6,509.8 561.4,509.8 568.2,509.8 575.0,510.9 581.9,510.9 588.7,510.9 595.5,510.9 602.4,510.9 609.2,510.9 616.0,510.9 622.9,510.9 629.7,510.9 636.5,510.9 643.4,510.9 650.2,510.9 657.0,510.9 663.9,510.9 670.7,510.9 677.5,510.9 684.4,510.9 691.2,510.9 698.0,510.9 704.9,510.9 711.7,510.9 718.5,510.9 725.3,510.9 732.2,510.9 739.0,510.9 745.8,510.9 752.7,510.9 759.5,510.9 766.3,510.9 773.2,512.9 780.0,514.9 780.0,650.0 773.2,650.0 766.3,650.0 759.5,650.0 752.7,650.0 745.8,650.0 739.0,650.0 732.2,650.0 725.3,650.0 718.5,650.0 711.7,650.0 704.9,650.0 698.0,650.0 691.2,650.0 684.4,650.0 677.5,650.0 670.7,650.0 663.9,650.0 657.0,650.0 650.2,650.0 643.4,650.0 636.5,650.0 629.7,650.0 622.9,650.0 616.0,650.0 609.2,650.0 602.4,650.0 595.5,650.0 588.7,650.0 581.9,650.0 575.0,650.0 568.2,650.0 561.4,650.0 554.6,650.0 547.7,650.0 540.9,650.0 534.1,650.0 527.2,650.0 520.4,650.0 513.6,650.0 506.7,650.0 499.9,650.0 493.1,650.0 486.2,650.0 479.4,650.0 472.6,650.0 465.7,650.0 458.9,650.0 452.1,650.0 445.2,650.0 438.4,650.0 431.6,650.0 424.8,650.0 417.9,650.0 411.1,650.0 404.3,650.0 397.4,650.0 390.6,650.0 383.8,650.0 376.9,650.0 370.1,650.0 363.3,650.0 356.4,650.0 349.6,650.0 342.8,650.0 335.9,650.0 329.1,650.0 322.3,650.0 315.4,650.0 308.6,650.0 301.8,650.0 295.0,650.0 288.1,650.0 281.3,650.0 274.5,650.0 267.6,650.0 260.8,650.0 254.0,650.0 247.1,650.0 240.3,650.0 233.5,650.0 226.6,650.0 219.8,650.0 213.0,650.0 206.1,650.0 199.3,650.0 192.5,650.0 185.6,650.0 178.8,650.0 172.0,650.0 165.1,650.0 158.3,650.0 151.5,650.0 144.7,650.0 137.8,650.0 131.0,650.0 124.2,650.0 117.3,650.0 110.5,650.0 103.7,650.0 96.8,650.0 90.0,650.0" fill="#e34c26" opacity="0.6" class="anim" style="animation-delay:500ms;"/>
<polygon points="90.0,650.0 96.8,650.0 103.7,650.0 110.5,650.0 117.3,650.0 124.2,650.0 131.0,650.0 137.8,650.0 144.7,488.4 151.5,488.0 158.3,489.0 165.1,476.0 172.0,476.0 178.8,477.2 185.6,460.1 192.5,460.2 199.3,460.6 206.1,460.6 213.0,460.6 219.8,460.6 226.6,460.6 233.5,473.0 240.3,473.5 247.1,469.5 254.0,469.5 260.8,469.5 267.6,469.7 274.5,469.7 281.3,469.7 288.1,469.7 295.0,469.7 301.8,469.7 308.6,469.7 315.4,469.7 322.3,455.6 329.1,455.6 335.9,455.4 342.8,455.4 349.6,455.4 356.4,454.3 363.3,454.3 370.1,455.0 376.9,455.1 383.8,454.9 390.6,455.9 397.4,455.9 404.3,455.9 411.1,455.9 417.9,455.9 424.8,455.9 431.6,455.9 438.4,455.9 445.2,455.9 452.1,455.9 458.9,455.9 465.7,455.9 472.6,455.9 479.4,455.8 486.2,455.8 493.1,455.8 499.9,455.8 506.7,455.8 513.6,457.0 520.4,457.4 527.2,457.4 534.1,457.4 540.9,457.4 547.7,457.4 554.6,457.4 561.4,457.4 568.2,457.4 575.0,458.2 581.9,458.2 588.7,458.2 595.5,458.2 602.4,458.2 609.2,458.2 616.0,458.2 622.9,458.2 629.7,458.2 636.5,458.2 643.4,458.2 650.2,458.2 657.0,458.2 663.9,458.2 670.7,458.2 677.5,458.2 684.4,458.2 691.2,458.2 698.0,458.2 704.9,458.2 711.7,458.2 718.5,458.2 725.3,458.2 732.2,458.2 739.0,458.2 745.8,458.2 752.7,458.2 759.5,458.2 766.3,458.2 773.2,456.6 780.0,455.1 780.0,514.9 773.2,512.9 766.3,510.9 759.5,510.9 752.7,510.9 745.8,510.9 739.0,510.9 732.2,510.9 725.3,510.9 718.5,510.9 711.7,510.9 704.9,510.9 698.0,510.9 691.2,510.9 684.4,510.9 677.5,510.9 670.7,510.9 663.9,510.9 657.0,510.9 650.2,510.9 643.4,510.9 636.5,510.9 629.7,510.9 622.9,510.9 616.0,510.9 609.2,510.9 602.4,510.9 595.5,510.9 588.7,510.9 581.9,510.9 575.0,510.9 568.2,509.8 561.4,509.8 554.6,509.8 547.7,509.8 540.9,509.8 534.1,509.8 527.2,509.8 520.4,509.8 513.6,509.5 506.7,508.6 499.9,508.6 493.1,508.6 486.2,508.6 479.4,508.6 472.6,507.5 465.7,507.5 458.9,507.5 452.1,507.5 445.2,507.5 438.4,507.5 431.6,507.5 424.8,507.5 417.9,507.5 411.1,507.5 404.3,507.5 397.4,507.5 390.6,507.5 383.8,506.8 376.9,506.9 370.1,506.8 363.3,506.4 356.4,506.3 349.6,507.9 342.8,507.9 335.9,507.9 329.1,507.6 322.3,507.6 315.4,494.4 308.6,494.4 301.8,494.4 295.0,494.4 288.1,494.0 281.3,494.0 274.5,491.8 267.6,491.7 260.8,491.0 254.0,491.0 247.1,491.0 240.3,496.7 233.5,496.4 226.6,485.4 219.8,485.4 213.0,485.4 206.1,485.4 199.3,485.4 192.5,485.1 185.6,485.0 178.8,502.9 172.0,499.3 165.1,499.3 158.3,529.7 151.5,528.5 144.7,528.2 137.8,650.0 131.0,650.0 124.2,650.0 117.3,650.0 110.5,650.0 103.7,650.0 96.8,650.0 90.0,650.0" fill="#f1e05a" opacity="0.6" class="anim" style="animation-delay:600ms;"/>
<polygon points="90.0,650.0 96.8,650.0 103.7,650.0 110.5,650.0 117.3,650.0 124.2,650.0 131.0,650.0 137.8,650.0 144.7,455.5 151.5,455.4 158.3,455.1 165.1,447.0 172.0,447.0 178.8,448.2 185.6,438.9 192.5,439.0 199.3,439.6 206.1,439.6 213.0,439.6 219.8,439.6 226.6,439.6 233.5,445.6 240.3,445.6 247.1,443.3 254.0,443.3 260.8,443.3 267.6,443.6 274.5,443.6 281.3,444.1 288.1,444.1 295.0,444.1 301.8,444.1 308.6,444.1 315.4,444.1 322.3,437.5 329.1,437.5 335.9,437.5 342.8,437.5 349.6,437.5 356.4,437.5 363.3,437.5 370.1,438.4 376.9,438.5 383.8,438.3 390.6,439.3 397.4,439.3 404.3,439.3 411.1,439.3 417.9,439.3 424.8,439.3 431.6,439.3 438.4,439.3 445.2,439.3 452.1,439.3 458.9,439.3 465.7,439.3 472.6,439.3 479.4,439.4 486.2,439.4 493.1,439.4 499.9,439.4 506.7,439.4 513.6,440.7 520.4,441.1 527.2,441.1 534.1,441.1 540.9,441.1 547.7,441.1 554.6,441.1 561.4,441.1 568.2,441.1 575.0,442.0 581.9,442.0 588.7,442.0 595.5,442.0 602.4,442.0 609.2,442.0 616.0,442.0 622.9,442.0 629.7,442.0 636.5,442.0 643.4,442.0 650.2,442.0 657.0,442.0 663.9,442.0 670.7,442.0 677.5,442.0 684.4,442.0 691.2,442.0 698.0,442.0 704.9,442.0 711.7,442.0 718.5,442.0 725.3,442.0 732.2,442.0 739.0,442.0 745.8,442.0 752.7,442.0 759.5,442.0 766.3,442.0 773.2,441.9 780.0,441.8 780.0,455.1 773.2,456.6 766.3,458.2 759.5,458.2 752.7,458.2 745.8,458.2 739.0,458.2 732.2,458.2 725.3,458.2 718.5,458.2 711.7,458.2 704.9,458.2 698.0,458.2 691.2,458.2 684.4,458.2 677.5,458.2 670.7,458.2 663.9,458.2 657.0,458.2 650.2,458.2 643.4,458.2 636.5,458.2 629.7,458.2 622.9,458.2 616.0,458.2 609.2,458.2 602.4,458.2 595.5,458.2 588.7,458.2 581.9,458.2 575.0,458.2 568.2,457.4 561.4,457.4 554.6,457.4 547.7,457.4 540.9,457.4 534.1,457.4 527.2,457.4 520.4,457.4 513.6,457.0 506.7,455.8 499.9,455.8 493.1,455.8 486.2,455.8 479.4,455.8 472.6,455.9 465.7,455.9 458.9,455.9 452.1,455.9 445.2,455.9 438.4,455.9 431.6,455.9 424.8,455.9 417.9,455.9 411.1,455.9 404.3,455.9 397.4,455.9 390.6,455.9 383.8,454.9 376.9,455.1 370.1,455.0 363.3,454.3 356.4,454.3 349.6,455.4 342.8,455.4 335.9,455.4 329.1,455.6 322.3,455.6 315.4,469.7 308.6,469.7 301.8,469.7 295.0,469.7 288.1,469.7 281.3,469.7 274.5,469.7 267.6,469.7 260.8,469.5 254.0,469.5 247.1,469.5 240.3,473.5 233.5,473.0 226.6,460.6 219.8,460.6 213.0,460.6 206.1,460.6 199.3,460.6 192.5,460.2 185.6,460.1 178.8,477.2 172.0,476.0 165.1,476.0 158.3,489.0 151.5,488.0 144.7,488.4 137.8,650.0 131.0,650.0 124.2,650.0 117.3,650.0 110.5,650.0 103.7,650.0 96.8,650.0 90.0,650.0" fill="#3572A5" opacity="0.6" class="anim" style="animation-delay:700ms;"/>
<polygon points="90.0,650.0 96.8,650.0 103.7,650.0 110.5,650.0 117.3,650.0 124.2,650.0 131.0,650.0 137.8,650.0 144.7,442.3 151.5,442.0 158.3,441.6 165.1,439.5 172.0,439.5 178.8,439.4 185.6,432.3 192.5,432.2 199.3,432.6 206.1,432.6 213.0,432.6 219.8,432.6 226.6,432.6 233.5,439.3 240.3,439.3 247.1,437.4 254.0,437.4 260.8,437.4 267.6,437.3 274.5,437.3 281.3,437.1 288.1,437.1 295.0,437.1 301.8,437.1 308.6,437.1 315.4,437.1 322.3,428.7 329.1,428.6 335.9,428.5 342.8,428.5 349.6,428.5 356.4,427.3 363.3,427.3 370.1,427.1 376.9,427.1 383.8,427.1 390.6,427.0 397.4,427.0 404.3,427.0 411.1,427.0 417.9,427.0 424.8,427.0 431.6,427.0 438.4,427.0 445.2,427.0 452.1,427.0 458.9,427.0 465.7,427.0 472.6,427.0 479.4,427.0 486.2,427.1 493.1,427.1 499.9,427.1 506.7,427.1 513.6,428.4 520.4,428.9 527.2,428.9 534.1,428.9 540.9,428.9 547.7,428.9 554.6,428.9 561.4,428.9 568.2,428.9 575.0,428.7 581.9,428.7 588.7,428.7 595.5,428.7 602.4,428.7 609.2,428.7 616.0,428.7 622.9,428.7 629.7,428.7 636.5,428.7 643.4,428.7 650.2,428.7 657.0,428.7 663.9,428.7 670.7,428.7 677.5,428.7 684.4,428.7 691.2,428.7 698.0,428.7 704.9,428.7 711.7,428.7 718.5,428.7 725.3,428.7 732.2,428.7 739.0,428.7 745.8,428.7 752.7,428.7 759.5,428.7 766.3,428.7 773.2,427.8 780.0,426.9 780.0,441.8 773.2,441.9 766.3,442.0 759.5,442.0 752.7,442.0 745.8,442.0 739.0,442.0 732.2,442.0 725.3,442.0 718.5,442.0 711.7,442.0 704.9,442.0 698.0,442.0 691.2,442.0 684.4,442.0 677.5,442.0 670.7,442.0 663.9,442.0 657.0,442.0 650.2,442.0 643.4,442.0 636.5,442.0 629.7,442.0 622.9,442.0 616.0,442.0 609.2,442.0 602.4,442.0 595.5,442.0 588.7,442.0 581.9,442.0 575.0,442.0 568.2,441.1 561.4,441.1 554.6,441.1 547.7,441.1 540.9,441.1 534.1,441.1 527.2,441.1 520.4,441.1 513.6,440.7 506.7,439.4 499.9,439.4 493.1,439.4 486.2,439.4 479.4,439.4 472.6,439.3 465.7,439.3 458.9,439.3 452.1,439.3 445.2,439.3 438.4,439.3 431.6,439.3 424.8,439.3 417.9,439.3 411.1,439.3 404.3,439.3 397.4,439.3 390.6,439.3 383.8,438.3 376.9,438.5 370.1,438.4 363.3,437.5 356.4,437.5 349.6,437.5 342.8,437.5 335.9,437.5 329.1,437.5 322.3,437.5 315.4,444.1 308.6,444.1 301.8,444.1 295.0,444.1 288.1,444.1 281.3,444.1 274.5,443.6 267.6,443.6 260.8,443.3 254.0,443.3 247.1,443.3 240.3,445.6 233.5,445.6 226.6,439.6 219.8,439.6 213.0,439.6 206.1,439.6 199.3,439.6 192.5,439.0 185.6,438.9 178.8,448.2 172.0,447.0 165.1,447.0 158.3,455.1 151.5,455.4 144.7,455.5 137.8,650.0 131.0,650.0 124.2,650.0 117.3,650.0 110.5,650.0 103.7,650.0 96.8,650.0 90.0,650.0" fill="#663399" opacity="0.6" class="anim" style="animation-delay:800ms;"/>
<polygon points="90.0,650.0 96.8,650.0 103.7,650.0 110.5,650.0 117.3,650.0 124.2,650.0 131.0,650.0 137.8,650.0 144.7,436.6 151.5,436.3 158.3,435.9 165.1,432.2 172.0,432.2 178.8,432.2 185.6,426.2 192.5,426.1 199.3,426.0 206.1,426.0 213.0,426.0 219.8,426.0 226.6,426.0 233.5,430.8 240.3,430.7 247.1,429.3 254.0,429.3 260.8,429.3 267.6,429.2 274.5,429.2 281.3,428.9 288.1,428.9 295.0,428.8 301.8,428.8 308.6,428.8 315.4,428.8 322.3,423.0 329.1,422.9 335.9,422.9 342.8,422.9 349.6,422.9 356.4,422.0 363.3,422.0 370.1,421.9 376.9,421.9 383.8,421.9 390.6,421.8 397.4,421.8 404.3,421.8 411.1,421.8 417.9,421.8 424.8,421.8 431.6,421.8 438.4,421.8 445.2,421.8 452.1,421.8 458.9,421.8 465.7,421.8 472.6,421.8 479.4,421.7 486.2,421.8 493.1,421.8 499.9,421.8 506.7,421.8 513.6,423.2 520.4,423.6 527.2,423.6 534.1,423.6 540.9,423.6 547.7,423.6 554.6,423.6 561.4,423.6 568.2,423.6 575.0,423.5 581.9,423.5 588.7,423.5 595.5,423.5 602.4,423.5 609.2,423.5 616.0,423.5 622.9,423.5 629.7,423.5 636.5,423.5 643.4,423.5 650.2,423.5 657.0,423.5 663.9,423.5 670.7,423.5 677.5,423.5 684.4,423.5 691.2,423.5 698.0,423.5 704.9,423.5 711.7,423.5 718.5,423.5 725.3,423.5 732.2,423.5 739.0,423.5 745.8,423.5 752.7,423.5 759.5,423.5 766.3,423.5 773.2,422.9 780.0,422.2 780.0,426.9 773.2,427.8 766.3,428.7 759.5,428.7 752.7,428.7 745.8,428.7 739.0,428.7 732.2,428.7 725.3,428.7 718.5,428.7 711.7,428.7 704.9,428.7 698.0,428.7 691.2,428.7 684.4,428.7 677.5,428.7 670.7,428.7 663.9,428.7 657.0,428.7 650.2,428.7 643.4,428.7 636.5,428.7 629.7,428.7 622.9,428.7 616.0,428.7 609.2,428.7 602.4,428.7 595.5,428.7 588.7,428.7 581.9,428.7 575.0,428.7 568.2,428.9 561.4,428.9 554.6,428.9 547.7,428.9 540.9,428.9 534.1,428.9 527.2,428.9 520.4,428.9 513.6,428.4 506.7,427.1 499.9,427.1 493.1,427.1 486.2,427.1 479.4,427.0 472.6,427.0 465.7,427.0 458.9,427.0 452.1,427.0 445.2,427.0 438.4,427.0 431.6,427.0 424.8,427.0 417.9,427.0 411.1,427.0 404.3,427.0 397.4,427.0 390.6,427.0 383.8,427.1 376.9,427.1 370.1,427.1 363.3,427.3 356.4,427.3 349.6,428.5 342.8,428.5 335.9,428.5 329.1,428.6 322.3,428.7 315.4,437.1 308.6,437.1 301.8,437.1 295.0,437.1 288.1,437.1 281.3,437.1 274.5,437.3 267.6,437.3 260.8,437.4 254.0,437.4 247.1,437.4 240.3,439.3 233.5,439.3 226.6,432.6 219.8,432.6 213.0,432.6 206.1,432.6 199.3,432.6 192.5,432.2 185.6,432.3 178.8,439.4 172.0,439.5 165.1,439.5 158.3,441.6 151.5,442.0 144.7,442.3 137.8,650.0 131.0,650.0 124.2,650.0 117.3,650.0 110.5,650.0 103.7,650.0 96.8,650.0 90.0,650.0" fill="#083fa1" opacity="0.6" class="anim" style="animation-delay:900ms;"/>
<polygon points="90.0,650.0 96.8,650.0 103.7,650.0 110.5,650.0 117.3,650.0 124.2,650.0 131.0,650.0 137.8,650.0 144.7,428.3 151.5,428.1 158.3,427.8 165.1,425.3 172.0,425.3 178.8,425.2 185.6,421.1 192.5,421.1 199.3,421.0 206.1,421.0 213.0,421.0 219.8,421.0 226.6,421.0 233.5,424.3 240.3,424.2 247.1,423.3 254.0,423.3 260.8,423.3 267.6,423.2 274.5,423.2 281.3,423.0 288.1,423.0 295.0,422.9 301.8,422.9 308.6,422.9 315.4,422.9 322.3,418.9 329.1,418.9 335.9,418.8 342.8,418.8 349.6,418.8 356.4,418.3 363.3,418.3 370.1,418.2 376.9,418.2 383.8,418.2 390.6,418.1 397.4,418.1 404.3,418.1 411.1,418.1 417.9,418.1 424.8,418.1 431.6,418.1 438.4,418.1 445.2,418.1 452.1,418.1 458.9,418.1 465.7,418.1 472.6,418.1 479.4,418.1 486.2,418.1 493.1,418.1 499.9,418.1 506.7,418.1 513.6,418.0 520.4,418.0 527.2,418.0 534.1,418.0 540.9,418.0 547.7,418.0 554.6,418.0 561.4,418.0 568.2,418.0 575.0,417.9 581.9,417.9 588.7,417.9 595.5,417.9 602.4,417.9 609.2,417.9 616.0,417.9 622.9,417.9 629.7,417.9 636.5,417.9 643.4,417.9 650.2,417.9 657.0,417.9 663.9,417.9 670.7,417.9 677.5,417.9 684.4,417.9 691.2,417.9 698.0,417.9 704.9,417.9 711.7,417.9 718.5,417.9 725.3,417.9 732.2,417.9 739.0,417.9 745.8,417.9 752.7,417.9 759.5,417.9 766.3,417.9 773.2,417.3 780.0,416.7 780.0,422.2 773.2,422.9 766.3,423.5 759.5,423.5 752.7,423.5 745.8,423.5 739.0,423.5 732.2,423.5 725.3,423.5 718.5,423.5 711.7,423.5 704.9,423.5 698.0,423.5 691.2,423.5 684.4,423.5 677.5,423.5 670.7,423.5 663.9,423.5 657.0,423.5 650.2,423.5 643.4,423.5 636.5,423.5 629.7,423.5 622.9,423.5 616.0,423.5 609.2,423.5 602.4,423.5 595.5,423.5 588.7,423.5 581.9,423.5 575.0,423.5 568.2,423.6 561.4,423.6 554.6,423.6 547.7,423.6 540.9,423.6 534.1,423.6 527.2,423.6 520.4,423.6 513.6,423.2 506.7,421.8 499.9,421.8 493.1,421.8 486.2,421.8 479.4,421.7 472.6,421.8 465.7,421.8 458.9,421.8 452.1,421.8 445.2,421.8 438.4,421.8 431.6,421.8 424.8,421.8 417.9,421.8 411.1,421.8 404.3,421.8 397.4,421.8 390.6,421.8 383.8,421.9 376.9,421.9 370.1,421.9 363.3,422.0 356.4,422.0 349.6,422.9 342.8,422.9 335.9,422.9 329.1,422.9 322.3,423.0 315.4,428.8 308.6,428.8 301.8,428.8 295.0,428.8 288.1,428.9 281.3,428.9 274.5,429.2 267.6,429.2 260.8,429.3 254.0,429.3 247.1,429.3 240.3,430.7 233.5,430.8 226.6,426.0 219.8,426.0 213.0,426.0 206.1,426.0 199.3,426.0 192.5,426.1 185.6,426.2 178.8,432.2 172.0,432.2 165.1,432.2 158.3,435.9 151.5,436.3 144.7,436.6 137.8,650.0 131.0,650.0 124.2,650.0 117.3,650.0 110.5,650.0 103.7,650.0 96.8,650.0 90.0,650.0" fill="#F05138" opacity="0.6" class="anim" style="animation-delay:1000ms;"/>
<polygon points="90.0,650.0 96.8,650.0 103.7,650.0 110.5,650.0 117.3,650.0 124.2,650.0 131.0,650.0 137.8,650.0 144.7,418.7 151.5,418.6 158.3,418.5 165.1,417.3 172.0,417.3 178.8,417.2 185.6,415.3 192.5,415.3 199.3,415.2 206.1,415.2 213.0,415.2 219.8,415.2 226.6,415.2 233.5,416.8 240.3,416.8 247.1,416.3 254.0,416.3 260.8,416.3 267.6,416.3 274.5,416.3 281.3,416.2 288.1,416.2 295.0,416.2 301.8,416.2 308.6,416.2 315.4,416.2 322.3,414.2 329.1,414.2 335.9,414.2 342.8,414.2 349.6,414.2 356.4,413.9 363.3,413.9 370.1,413.9 376.9,413.9 383.8,413.9 390.6,413.9 397.4,413.9 404.3,413.9 411.1,413.9 417.9,413.9 424.8,413.9 431.6,413.9 438.4,413.9 445.2,413.9 452.1,413.9 458.9,413.9 465.7,413.9 472.6,413.9 479.4,413.8 486.2,413.8 493.1,413.8 499.9,413.8 506.7,413.8 513.6,413.8 520.4,413.8 527.2,413.8 534.1,413.8 540.9,413.8 547.7,413.8 554.6,413.8 561.4,413.8 568.2,413.8 575.0,413.8 581.9,413.8 588.7,413.8 595.5,413.8 602.4,413.8 609.2,413.8 616.0,413.8 622.9,413.8 629.7,413.8 636.5,413.8 643.4,413.8 650.2,413.8 657.0,413.8 663.9,413.8 670.7,413.8 677.5,413.8 684.4,413.8 691.2,413.8 698.0,413.8 704.9,413.8 711.7,413.8 718.5,413.8 725.3,413.8 732.2,413.8 739.0,413.8 745.8,413.8 752.7,413.8 759.5,413.8 766.3,413.8 773.2,413.6 780.0,413.4 780.0,416.7 773.2,417.3 766.3,417.9 759.5,417.9 752.7,417.9 745.8,417.9 739.0,417.9 732.2,417.9 725.3,417.9 718.5,417.9 711.7,417.9 704.9,417.9 698.0,417.9 691.2,417.9 684.4,417.9 677.5,417.9 670.7,417.9 663.9,417.9 657.0,417.9 650.2,417.9 643.4,417.9 636.5,417.9 629.7,417.9 622.9,417.9 616.0,417.9 609.2,417.9 602.4,417.9 595.5,417.9 588.7,417.9 581.9,417.9 575.0,417.9 568.2,418.0 561.4,418.0 554.6,418.0 547.7,418.0 540.9,418.0 534.1,418.0 527.2,418.0 520.4,418.0 513.6,418.0 506.7,418.1 499.9,418.1 493.1,418.1 486.2,418.1 479.4,418.1 472.6,418.1 465.7,418.1 458.9,418.1 452.1,418.1 445.2,418.1 438.4,418.1 431.6,418.1 424.8,418.1 417.9,418.1 411.1,418.1 404.3,418.1 397.4,418.1 390.6,418.1 383.8,418.2 376.9,418.2 370.1,418.2 363.3,418.3 356.4,418.3 349.6,418.8 342.8,418.8 335.9,418.8 329.1,418.9 322.3,418.9 315.4,422.9 308.6,422.9 301.8,422.9 295.0,422.9 288.1,423.0 281.3,423.0 274.5,423.2 267.6,423.2 260.8,423.3 254.0,423.3 247.1,423.3 240.3,424.2 233.5,424.3 226.6,421.0 219.8,421.0 213.0,421.0 206.1,421.0 199.3,421.0 192.5,421.1 185.6,421.1 178.8,425.2 172.0,425.3 165.1,425.3 158.3,427.8 151.5,428.1 144.7,428.3 137.8,650.0 131.0,650.0 124.2,650.0 117.3,650.0 110.5,650.0 103.7,650.0 96.8,650.0 90.0,650.0" fill="#6E4C13" opacity="0.6" class="anim" style="animation-delay:1100ms;"/>
<polygon points="90.0,650.0 96.8,650.0 103.7,650.0 110.5,650.0 117.3,650.0 124.2,650.0 131.0,650.0 137.8,650.0 144.7,414.4 151.5,414.4 158.3,414.3 165.1,413.7 172.0,413.7 178.8,413.7 185.6,412.7 192.5,412.7 199.3,412.7 206.1,412.7 213.0,412.7 219.8,412.7 226.6,412.7 233.5,413.5 240.3,413.4 247.1,413.2 254.0,413.2 260.8,413.2 267.6,413.2 274.5,413.2 281.3,413.1 288.1,413.1 295.0,413.1 301.8,413.1 308.6,413.1 315.4,413.1 322.3,412.2 329.1,412.1 335.9,412.1 342.8,412.1 349.6,412.1 356.4,412.0 363.3,412.0 370.1,412.0 376.9,412.0 383.8,412.0 390.6,412.0 397.4,412.0 404.3,412.0 411.1,412.0 417.9,412.0 424.8,412.0 431.6,412.0 438.4,412.0 445.2,412.0 452.1,412.0 458.9,412.0 465.7,412.0 472.6,412.0 479.4,411.9 486.2,411.9 493.1,411.9 499.9,411.9 506.7,411.9 513.6,411.9 520.4,411.9 527.2,411.9 534.1,411.9 540.9,411.9 547.7,411.9 554.6,411.9 561.4,411.9 568.2,411.9 575.0,411.9 581.9,411.9 588.7,411.9 595.5,411.9 602.4,411.9 609.2,411.9 616.0,411.9 622.9,411.9 629.7,411.9 636.5,411.9 643.4,411.9 650.2,411.9 657.0,411.9 663.9,411.9 670.7,411.9 677.5,411.9 684.4,411.9 691.2,411.9 698.0,411.9 704.9,411.9 711.7,411.9 718.5,411.9 725.3,411.9 732.2,411.9 739.0,411.9 745.8,411.9 752.7,411.9 759.5,411.9 766.3,411.9 773.2,411.9 780.0,411.9 780.0,413.4 773.2,413.6 766.3,413.8 759.5,413.8 752.7,413.8 745.8,413.8 739.0,413.8 732.2,413.8 725.3,413.8 718.5,413.8 711.7,413.8 704.9,413.8 698.0,413.8 691.2,413.8 684.4,413.8 677.5,413.8 670.7,413.8 663.9,413.8 657.0,413.8 650.2,413.8 643.4,413.8 636.5,413.8 629.7,413.8 622.9,413.8 616.0,413.8 609.2,413.8 602.4,413.8 595.5,413.8 588.7,413.8 581.9,413.8 575.0,413.8 568.2,413.8 561.4,413.8 554.6,413.8 547.7,413.8 540.9,413.8 534.1,413.8 527.2,413.8 520.4,413.8 513.6,413.8 506.7,413.8 499.9,413.8 493.1,413.8 486.2,413.8 479.4,413.8 472.6,413.9 465.7,413.9 458.9,413.9 452.1,413.9 445.2,413.9 438.4,413.9 431.6,413.9 424.8,413.9 417.9,413.9 411.1,413.9 404.3,413.9 397.4,413.9 390.6,413.9 383.8,413.9 376.9,413.9 370.1,413.9 363.3,413.9 356.4,413.9 349.6,414.2 342.8,414.2 335.9,414.2 329.1,414.2 322.3,414.2 315.4,416.2 308.6,416.2 301.8,416.2 295.0,416.2 288.1,416.2 281.3,416.2 274.5,416.3 267.6,416.3 260.8,416.3 254.0,416.3 247.1,416.3 240.3,416.8 233.5,416.8 226.6,415.2 219.8,415.2 213.0,415.2 206.1,415.2 199.3,415.2 192.5,415.3 185.6,415.3 178.8,417.2 172.0,417.3 165.1,417.3 158.3,418.5 151.5,418.6 144.7,418.7 137.8,650.0 131.0,650.0 124.2,650.0 117.3,650.0 110.5,650.0 103.7,650.0 96.8,650.0 90.0,650.0" fill="#b07219" opacity="0.6" class="anim" style="animation-delay:1200ms;"/>
<line x1="766.3" y1="100" x2="766.3" y2="650" stroke="#c9d1d9" stroke-width="1" stroke-dasharray="4,3" opacity="0.35"/>
<text x="773.2" y="112" text-anchor="middle" class="axis-label" opacity="0.6">Aug 02, 2026</text>
<text x="90.0" y="668" text-anchor="middle" class="axis-label" transform="rotate(-35 90.0 668)">2026-02</text>
<text x="315.4" y="668" text-anchor="middle" class="axis-label" transform="rotate(-35 315.4 668)">2026-03</text>
<text x="465.7" y="668" text-anchor="middle" class="axis-label" transform="rotate(-35 465.7 668)">2026-04</text>
<text x="540.9" y="668" text-anchor="middle" class="axis-label" transform="rotate(-35 540.9 668)">2026-06</text>
<text x="691.2" y="668" text-anchor="middle" class="axis-label" transform="rotate(-35 691.2 668)">2026-07</text>
<text x="773.2" y="668" text-anchor="middle" class="axis-label" transform="rotate(-35 773.2 668)">Aug 02, 2026</text>
<line x1="796" y1="110" x2="824" y2="110" stroke="#3fb950" stroke-width="2"/>
<text x="832" y="116" class="legend-text">Lines Added</text>
<line x1="796" y1="140" x2="824" y2="140" stroke="#f85149" stroke-width="1.5"/>
<text x="832" y="146" class="legend-text">Lines Deleted</text>
<line x1="796" y1="170" x2="824" y2="170" stroke="#e3b341" stroke-width="1.5" stroke-dasharray="4,3"/>
<text x="832" y="176" class="legend-text">&#x2605; Stars</text>
<text x="796" y="200" class="subtitle">Languages</text>
<rect x="796" y="212" width="12" height="12" rx="2" fill="#e34c26" opacity="0.8" class="anim" style="animation-delay:800ms;"/>
<text x="814" y="223" class="legend-text">HTML (58%→56%)</text>
<rect x="796" y="234" width="12" height="12" rx="2" fill="#f1e05a" opacity="0.8" class="anim" style="animation-delay:880ms;"/>
<text x="814" y="245" class="legend-text">JavaScript (22%→25%)</text>
<rect x="796" y="256" width="12" height="12" rx="2" fill="#3572A5" opacity="0.8" class="anim" style="animation-delay:960ms;"/>
<text x="814" y="267" class="legend-text">Python (7%→6%)</text>
<rect x="796" y="278" width="12" height="12" rx="2" fill="#663399" opacity="0.8" class="anim" style="animation-delay:1040ms;"/>
<text x="814" y="289" class="legend-text">CSS (6%→6%)</text>
<rect x="796" y="300" width="12" height="12" rx="2" fill="#083fa1" opacity="0.8" class="anim" style="animation-delay:1120ms;"/>
<text x="814" y="311" class="legend-text">Markdown (2%→2%)</text>
<rect x="796" y="322" width="12" height="12" rx="2" fill="#F05138" opacity="0.8" class="anim" style="animation-delay:1200ms;"/>
<text x="814" y="333" class="legend-text">Swift (2%)</text>
<rect x="796" y="344" width="12" height="12" rx="2" fill="#6E4C13" opacity="0.8" class="anim" style="animation-delay:1280ms;"/>
<text x="814" y="355" class="legend-text">Assembly (2%→1%)</text>
<rect x="796" y="366" width="12" height="12" rx="2" fill="#b07219" opacity="0.8" class="anim" style="animation-delay:1360ms;"/>
<text x="814" y="377" class="legend-text">Java (1%→1%)</text>
<text x="796" y="412" class="subtitle">Contributions</text>
<text x="796" y="432" class="axis-label">2023: 39</text>
<text x="796" y="452" class="axis-label">2024: 646</text>
<text x="796" y="472" class="axis-label">2025: 1,780</text>
<text x="796" y="492" class="axis-label">2026: 491</text>
<text x="796" y="522" class="subtitle">Statistics</text>
<text x="796" y="542" class="axis-label">Active weeks: 88</text>
<text x="796" y="562" class="axis-label">Add/Del ratio: 1.8x</text>
<text x="796" y="582" class="axis-label">Avg lines/wk: 18K</text>
<text x="796" y="602" class="axis-label">Peak: 2026-02-15</text>
<text x="796" y="622" class="axis-label">  (543K lines)</text>
<text x="90" y="742" class="axis-label">Total: +1,040,332 / -576,819 lines &#xb7; 2,956 contributions &#xb7; 80 repos &#xb7; &#x2605; 37</text>
</svg>