<svg xmlns="http://www.w3.org/2000/svg" width="900" height="680" viewBox="0 0 900 680">

<defs>
  <linearGradient id="areaGrad" x1="0" y1="0" x2="0" y2="1">
    <stop offset="0%" stop-color="#58a6ff" stop-opacity="0.35"/>
    <stop offset="100%" stop-color="#58a6ff" stop-opacity="0.02"/>
  </linearGradient>
  <linearGradient id="addGrad" x1="0" y1="0" x2="0" y2="1">
    <stop offset="0%" stop-color="#3fb950" stop-opacity="0.35"/>
    <stop offset="100%" stop-color="#3fb950" stop-opacity="0.02"/>
  </linearGradient>
  <linearGradient id="delGrad" x1="0" y1="0" x2="0" y2="1">
    <stop offset="0%" stop-color="#f85149" stop-opacity="0.25"/>
    <stop offset="100%" stop-color="#f85149" stop-opacity="0.02"/>
  </linearGradient>
</defs>
<style>
  .title { font: bold 16px 'Segoe UI', Ubuntu, Sans-Serif; fill: #c9d1d9; }
  .subtitle { font: 600 12px 'Segoe UI', Ubuntu, Sans-Serif; fill: #c9d1d9; opacity: 0.8; }
  .axis-label { font: 11px 'Segoe UI', Ubuntu, Sans-Serif; fill: #c9d1d9; opacity: 0.7; }
  .legend-text { font: 12px 'Segoe UI', Ubuntu, Sans-Serif; fill: #c9d1d9; }
  .value-text { font: bold 11px 'Segoe UI', Ubuntu, Sans-Serif; fill: #c9d1d9; }
  .stat-value { font: bold 13px 'Segoe UI', Ubuntu, Sans-Serif; fill: #c9d1d9; }
  .stat-label { font: 11px 'Segoe UI', Ubuntu, Sans-Serif; fill: #c9d1d9; opacity: 0.7; }
  @keyframes fadeIn { from { opacity: 0; } to { opacity: 1; } }
  .anim { animation: fadeIn 0.6s ease-in-out forwards; opacity: 0; }
</style>

<rect x="0.5" y="0.5" rx="4.5" width="899" height="679" fill="#161b22" stroke="#21262d"/>
<text x="65" y="30" class="title">Activity History</text>
<text x="65" y="48" class="subtitle">Lines added vs deleted &amp; activity trends over time</text>
<line x1="65" y1="240.0" x2="720" y2="240.0" stroke="#21262d" stroke-width="1"/>
<text x="57" y="244.0" text-anchor="end" class="axis-label">0</text>
<line x1="65" y1="195.0" x2="720" y2="195.0" stroke="#21262d" stroke-width="1"/>
<text x="57" y="199.0" text-anchor="end" class="axis-label">292,436</text>
<line x1="65" y1="150.0" x2="720" y2="150.0" stroke="#21262d" stroke-width="1"/>
<text x="57" y="154.0" text-anchor="end" class="axis-label">584,871</text>
<line x1="65" y1="105.0" x2="720" y2="105.0" stroke="#21262d" stroke-width="1"/>
<text x="57" y="109.0" text-anchor="end" class="axis-label">877,306</text>
<line x1="65" y1="60.0" x2="720" y2="60.0" stroke="#21262d" stroke-width="1"/>
<text x="57" y="64.0" text-anchor="end" class="axis-label">1,169,742</text>
<polygon points="65.0,240.0 65.0,183.8 111.8,185.9 158.6,183.9 205.4,185.9 252.1,198.8 298.9,173.1 345.7,173.1 392.5,163.4 439.3,163.0 486.1,162.4 532.9,162.3 579.6,145.0 626.4,145.0 673.2,145.0 720.0,119.3 720.0,240.0" fill="url(#addGrad)" class="anim" style="animation-delay:200ms;"/>
<polyline points="65.0,183.8 111.8,185.9 158.6,183.9 205.4,185.9 252.1,198.8 298.9,173.1 345.7,173.1 392.5,163.4 439.3,163.0 486.1,162.4 532.9,162.3 579.6,145.0 626.4,145.0 673.2,145.0 720.0,119.3" fill="none" stroke="#3fb950" stroke-width="2" stroke-linejoin="round" class="anim" style="animation-delay:250ms;"/>
<polygon points="65.0,240.0 65.0,224.2 111.8,225.8 158.6,224.2 205.4,225.8 252.1,232.6 298.9,222.3 345.7,222.3 392.5,221.1 439.3,220.8 486.1,220.5 532.9,220.4 579.6,201.8 626.4,201.8 673.2,201.7 720.0,180.7 720.0,240.0" fill="url(#delGrad)" class="anim" style="animation-delay:300ms;"/>
<polyline points="65.0,224.2 111.8,225.8 158.6,224.2 205.4,225.8 252.1,232.6 298.9,222.3 345.7,222.3 392.5,221.1 439.3,220.8 486.1,220.5 532.9,220.4 579.6,201.8 626.4,201.8 673.2,201.7 720.0,180.7" fill="none" stroke="#f85149" stroke-width="1.5" stroke-linejoin="round" class="anim" style="animation-delay:350ms;"/>
<polyline points="65.0,240.0 111.8,240.0 158.6,240.0 205.4,240.0 252.1,240.0 298.9,240.0 345.7,240.0 392.5,240.0 439.3,96.0 486.1,96.0 532.9,96.0 579.6,96.0 626.4,96.0 673.2,96.0 720.0,96.0" fill="none" stroke="#e3b341" stroke-width="1.5" stroke-dasharray="4,3" stroke-linejoin="round" class="anim" style="animation-delay:400ms;"/>
<text x="65" y="54" class="subtitle">Lines Added vs Deleted (per snapshot)</text>
<text x="65" y="294" class="subtitle">Programming Language Development (%)</text>
<line x1="65" y1="480.0" x2="720" y2="480.0" stroke="#21262d" stroke-width="1"/>
<text x="57" y="484.0" text-anchor="end" class="axis-label">0%</text>
<line x1="65" y1="435.0" x2="720" y2="435.0" stroke="#21262d" stroke-width="1"/>
<text x="57" y="439.0" text-anchor="end" class="axis-label">25%</text>
<line x1="65" y1="390.0" x2="720" y2="390.0" stroke="#21262d" stroke-width="1"/>
<text x="57" y="394.0" text-anchor="end" class="axis-label">50%</text>
<line x1="65" y1="345.0" x2="720" y2="345.0" stroke="#21262d" stroke-width="1"/>
<text x="57" y="349.0" text-anchor="end" class="axis-label">75%</text>
<line x1="65" y1="300.0" x2="720" y2="300.0" stroke="#21262d" stroke-width="1"/>
<text x="57" y="304.0" text-anchor="end" class="axis-label">100%</text>
<polygon points="65.0,480.0 111.8,480.0 158.6,480.0 205.4,480.0 252.1,480.0 298.9,480.0 345.7,480.0 392.5,480.0 439.3,388.6 486.1,388.8 532.9,389.8 579.6,366.9 626.4,366.9 673.2,369.6 720.0,356.3 720.0,480.0 673.2,480.0 626.4,480.0 579.6,480.0 532.9,480.0 486.1,480.0 439.3,480.0 392.5,480.0 345.7,480.0 298.9,480.0 252.1,480.0 205.4,480.0 158.6,480.0 111.8,480.0 65.0,480.0" fill="#e34c26" opacity="0.6" class="anim" style="animation-delay:500ms;"/>
<polygon points="65.0,480.0 111.8,480.0 158.6,480.0 205.4,480.0 252.1,480.0 298.9,480.0 345.7,480.0 392.5,480.0 439.3,358.8 486.1,358.5 532.9,359.2 579.6,349.5 626.4,349.5 673.2,350.4 720.0,337.6 720.0,356.3 673.2,369.6 626.4,366.9 579.6,366.9 532.9,389.8 486.1,388.8 439.3,388.6 392.5,480.0 345.7,480.0 298.9,480.0 252.1,480.0 205.4,480.0 158.6,480.0 111.8,480.0 65.0,480.0" fill="#f1e05a" opacity="0.6" class="anim" style="animation-delay:600ms;"/>
<polygon points="65.0,480.0 111.8,480.0 158.6,480.0 205.4,480.0 252.1,480.0 298.9,480.0 345.7,480.0 392.5,480.0 439.3,334.2 486.1,334.0 532.9,333.9 579.6,327.7 626.4,327.7 673.2,328.6 720.0,321.7 720.0,337.6 673.2,350.4 626.4,349.5 579.6,349.5 532.9,359.2 486.1,358.5 439.3,358.8 392.5,480.0 345.7,480.0 298.9,480.0 252.1,480.0 205.4,480.0 158.6,480.0 111.8,480.0 65.0,480.0" fill="#3572A5" opacity="0.6" class="anim" style="animation-delay:700ms;"/>
<polygon points="65.0,480.0 111.8,480.0 158.6,480.0 205.4,480.0 252.1,480.0 298.9,480.0 345.7,480.0 392.5,480.0 439.3,324.2 486.1,324.0 532.9,323.7 579.6,322.1 626.4,322.1 673.2,322.1 720.0,316.7 720.0,321.7 673.2,328.6 626.4,327.7 579.6,327.7 532.9,333.9 486.1,334.0 439.3,334.2 392.5,480.0 345.7,480.0 298.9,480.0 252.1,480.0 205.4,480.0 158.6,480.0 111.8,480.0 65.0,480.0" fill="#663399" opacity="0.6" class="anim" style="animation-delay:800ms;"/>
<polygon points="65.0,480.0 111.8,480.0 158.6,480.0 205.4,480.0 252.1,480.0 298.9,480.0 345.7,480.0 392.5,480.0 439.3,317.0 486.1,316.9 532.9,316.7 579.6,316.1 626.4,316.1 673.2,316.1 720.0,312.3 720.0,316.7 673.2,322.1 626.4,322.1 579.6,322.1 532.9,323.7 486.1,324.0 439.3,324.2 392.5,480.0 345.7,480.0 298.9,480.0 252.1,480.0 205.4,480.0 158.6,480.0 111.8,480.0 65.0,480.0" fill="#6E4C13" opacity="0.6" class="anim" style="animation-delay:900ms;"/>
<polygon points="65.0,480.0 111.8,480.0 158.6,480.0 205.4,480.0 252.1,480.0 298.9,480.0 345.7,480.0 392.5,480.0 439.3,310.8 486.1,310.7 532.9,310.6 579.6,310.9 626.4,310.9 673.2,310.9 720.0,308.5 720.0,312.3 673.2,316.1 626.4,316.1 579.6,316.1 532.9,316.7 486.1,316.9 439.3,317.0 392.5,480.0 345.7,480.0 298.9,480.0 252.1,480.0 205.4,480.0 158.6,480.0 111.8,480.0 65.0,480.0" fill="#F05138" opacity="0.6" class="anim" style="animation-delay:1000ms;"/>
<polygon points="65.0,480.0 111.8,480.0 158.6,480.0 205.4,480.0 252.1,480.0 298.9,480.0 345.7,480.0 392.5,480.0 439.3,306.5 486.1,306.5 532.9,306.4 579.6,305.4 626.4,305.4 673.2,305.4 720.0,304.0 720.0,308.5 673.2,310.9 626.4,310.9 579.6,310.9 532.9,310.6 486.1,310.7 439.3,310.8 392.5,480.0 345.7,480.0 298.9,480.0 252.1,480.0 205.4,480.0 158.6,480.0 111.8,480.0 65.0,480.0" fill="#083fa1" opacity="0.6" class="anim" style="animation-delay:1100ms;"/>
<polygon points="65.0,480.0 111.8,480.0 158.6,480.0 205.4,480.0 252.1,480.0 298.9,480.0 345.7,480.0 392.5,480.0 439.3,303.3 486.1,303.3 532.9,303.2 579.6,302.8 626.4,302.8 673.2,302.8 720.0,302.0 720.0,304.0 673.2,305.4 626.4,305.4 579.6,305.4 532.9,306.4 486.1,306.5 439.3,306.5 392.5,480.0 345.7,480.0 298.9,480.0 252.1,480.0 205.4,480.0 158.6,480.0 111.8,480.0 65.0,480.0" fill="#b07219" opacity="0.6" class="anim" style="animation-delay:1200ms;"/>
<text x="65.0" y="498" text-anchor="middle" class="axis-label" transform="rotate(-35 65.0 498)">2026-02-06</text>
<text x="111.8" y="498" text-anchor="middle" class="axis-label" transform="rotate(-35 111.8 498)">2026-02-07</text>
<text x="158.6" y="498" text-anchor="middle" class="axis-label" transform="rotate(-35 158.6 498)">2026-02-08</text>
<text x="205.4" y="498" text-anchor="middle" class="axis-label" transform="rotate(-35 205.4 498)">2026-02-09</text>
<text x="252.1" y="498" text-anchor="middle" class="axis-label" transform="rotate(-35 252.1 498)">2026-02-10</text>
<text x="298.9" y="498" text-anchor="middle" class="axis-label" transform="rotate(-35 298.9 498)">2026-02-11</text>
<text x="345.7" y="498" text-anchor="middle" class="axis-label" transform="rotate(-35 345.7 498)">2026-02-12</text>
<text x="392.5" y="498" text-anchor="middle" class="axis-label" transform="rotate(-35 392.5 498)">2026-02-13</text>
<text x="439.3" y="498" text-anchor="middle" class="axis-label" transform="rotate(-35 439.3 498)">2026-02-14</text>
<text x="486.1" y="498" text-anchor="middle" class="axis-label" transform="rotate(-35 486.1 498)">2026-02-15</text>
<text x="532.9" y="498" text-anchor="middle" class="axis-label" transform="rotate(-35 532.9 498)">2026-02-16</text>
<text x="579.6" y="498" text-anchor="middle" class="axis-label" transform="rotate(-35 579.6 498)">2026-02-17</text>
<text x="626.4" y="498" text-anchor="middle" class="axis-label" transform="rotate(-35 626.4 498)">2026-02-18</text>
<text x="673.2" y="498" text-anchor="middle" class="axis-label" transform="rotate(-35 673.2 498)">2026-02-19</text>
<text x="720.0" y="498" text-anchor="middle" class="axis-label" transform="rotate(-35 720.0 498)">2026-02-20</text>
<line x1="736" y1="70" x2="756" y2="70" stroke="#3fb950" stroke-width="2"/>
<text x="762" y="74" class="legend-text">Lines Added</text>
<line x1="736" y1="88" x2="756" y2="88" stroke="#f85149" stroke-width="1.5"/>
<text x="762" y="92" class="legend-text">Lines Deleted</text>
<line x1="736" y1="108" x2="756" y2="108" stroke="#e3b341" stroke-width="1.5" stroke-dasharray="4,3"/>
<text x="762" y="112" class="legend-text">&#x2605; Stars</text>
<text x="736" y="142" class="subtitle">Languages</text>
<rect x="736" y="153" width="12" height="12" rx="2" fill="#e34c26" opacity="0.8" class="anim" style="animation-delay:800ms;"/>
<text x="754" y="163" class="legend-text">HTML (68.7%)</text>
<rect x="736" y="175" width="12" height="12" rx="2" fill="#f1e05a" opacity="0.8" class="anim" style="animation-delay:880ms;"/>
<text x="754" y="185" class="legend-text">JavaScript (10.4%)</text>
<rect x="736" y="197" width="12" height="12" rx="2" fill="#3572A5" opacity="0.8" class="anim" style="animation-delay:960ms;"/>
<text x="754" y="207" class="legend-text">Python (8.8%)</text>
<rect x="736" y="219" width="12" height="12" rx="2" fill="#663399" opacity="0.8" class="anim" style="animation-delay:1040ms;"/>
<text x="754" y="229" class="legend-text">CSS (2.8%)</text>
<rect x="736" y="241" width="12" height="12" rx="2" fill="#6E4C13" opacity="0.8" class="anim" style="animation-delay:1120ms;"/>
<text x="754" y="251" class="legend-text">Assembly (2.4%)</text>
<rect x="736" y="263" width="12" height="12" rx="2" fill="#F05138" opacity="0.8" class="anim" style="animation-delay:1200ms;"/>
<text x="754" y="273" class="legend-text">Swift (2.1%)</text>
<rect x="736" y="285" width="12" height="12" rx="2" fill="#083fa1" opacity="0.8" class="anim" style="animation-delay:1280ms;"/>
<text x="754" y="295" class="legend-text">Markdown (2.5%)</text>
<rect x="736" y="307" width="12" height="12" rx="2" fill="#b07219" opacity="0.8" class="anim" style="animation-delay:1360ms;"/>
<text x="754" y="317" class="legend-text">Java (1.1%)</text>
<text x="736" y="358" class="subtitle">Contributions</text>
<text x="736" y="376" class="axis-label">2023: 39</text>
<text x="736" y="392" class="axis-label">2024: 646</text>
<text x="736" y="408" class="axis-label">2025: 1,780</text>
<text x="736" y="424" class="axis-label">2026: 266</text>
<text x="736" y="450" class="subtitle">Statistics</text>
<text x="736" y="468" class="axis-label">Active weeks: 75</text>
<text x="736" y="483" class="axis-label">Add/Del ratio: 2.0x</text>
<text x="736" y="498" class="axis-label">Avg lines/week: 15,597</text>
<text x="736" y="513" class="axis-label">Peak: 2026-02-15</text>
<text x="736" y="528" class="axis-label">  (537,627 lines)</text>
<text x="65" y="666" class="axis-label">Total: +784,112 / -385,630 lines &#xb7; 2,731 contributions &#xb7; 71 repos &#xb7; &#x2605; 33</text>
</svg>