<svg xmlns="http://www.w3.org/2000/svg" width="1000" height="760" style="max-width: 100%;" viewBox="0 0 1000 760">

<defs>
  <linearGradient id="areaGrad" x1="0" y1="0" x2="0" y2="1">
    <stop offset="0%" stop-color="#58a6ff" stop-opacity="0.35"/>
    <stop offset="100%" stop-color="#58a6ff" stop-opacity="0.02"/>
  </linearGradient>
  <linearGradient id="addGrad" x1="0" y1="0" x2="0" y2="1">
    <stop offset="0%" stop-color="#3fb950" stop-opacity="0.35"/>
    <stop offset="100%" stop-color="#3fb950" stop-opacity="0.02"/>
  </linearGradient>
  <linearGradient id="delGrad" x1="0" y1="0" x2="0" y2="1">
    <stop offset="0%" stop-color="#f85149" stop-opacity="0.25"/>
    <stop offset="100%" stop-color="#f85149" stop-opacity="0.02"/>
  </linearGradient>
</defs>
<style>
  .title { font: bold 28px 'Segoe UI', Ubuntu, Sans-Serif; fill: #c9d1d9; }
  .subtitle { font: 600 20px 'Segoe UI', Ubuntu, Sans-Serif; fill: #c9d1d9; opacity: 0.8; }
  .axis-label { font: 18px 'Segoe UI', Ubuntu, Sans-Serif; fill: #c9d1d9; opacity: 0.7; }
  .legend-text { font: 14px 'Segoe UI', Ubuntu, Sans-Serif; fill: #c9d1d9; }
  .value-text { font: bold 18px 'Segoe UI', Ubuntu, Sans-Serif; fill: #c9d1d9; }
  .stat-value { font: bold 22px 'Segoe UI', Ubuntu, Sans-Serif; fill: #c9d1d9; }
  .stat-label { font: 18px 'Segoe UI', Ubuntu, Sans-Serif; fill: #c9d1d9; opacity: 0.7; }
  @keyframes fadeIn { from { opacity: 0; } to { opacity: 1; } }
  .anim { animation: fadeIn 0.6s ease-in-out forwards; opacity: 0; }
</style>

<rect x="0.5" y="0.5" rx="4.5" width="999" height="759" fill="#161b22" stroke="#21262d"/>
<text x="90" y="45" class="title">Activity History</text>
<text x="90" y="72" class="subtitle">Lines added vs deleted &amp; activity trends over time</text>
<line x1="90" y1="340.0" x2="780" y2="340.0" stroke="#21262d" stroke-width="1"/>
<text x="82" y="344.0" text-anchor="end" class="axis-label">0</text>
<line x1="90" y1="280.0" x2="780" y2="280.0" stroke="#21262d" stroke-width="1"/>
<text x="82" y="284.0" text-anchor="end" class="axis-label">463K</text>
<line x1="90" y1="220.0" x2="780" y2="220.0" stroke="#21262d" stroke-width="1"/>
<text x="82" y="224.0" text-anchor="end" class="axis-label">925K</text>
<line x1="90" y1="160.0" x2="780" y2="160.0" stroke="#21262d" stroke-width="1"/>
<text x="82" y="164.0" text-anchor="end" class="axis-label">1.4M</text>
<line x1="90" y1="100.0" x2="780" y2="100.0" stroke="#21262d" stroke-width="1"/>
<text x="82" y="104.0" text-anchor="end" class="axis-label">1.9M</text>
<polygon points="90.0,340.0 90.0,292.7 100.5,294.4 110.9,292.7 121.4,294.4 131.8,305.3 142.3,283.6 152.7,283.6 163.2,275.4 173.6,275.1 184.1,274.6 194.5,274.5 205.0,259.9 215.5,259.9 225.9,259.9 236.4,238.3 246.8,238.0 257.3,237.8 267.7,237.8 278.2,237.8 288.6,237.8 299.1,237.8 309.5,237.2 320.0,222.8 330.5,222.7 340.9,222.7 351.4,222.7 361.8,222.4 372.3,222.4 382.7,221.8 393.2,221.8 403.6,221.7 414.1,221.7 424.5,221.7 435.0,221.7 445.5,221.8 455.9,221.7 466.4,221.7 476.8,221.7 487.3,221.7 497.7,221.7 508.2,221.7 518.6,221.1 529.1,221.3 539.5,220.7 550.0,220.4 560.5,220.4 570.9,220.4 581.4,220.4 591.8,220.4 602.3,220.4 612.7,220.3 623.2,220.3 633.6,220.3 644.1,220.4 654.5,220.7 665.0,222.1 675.5,220.7 685.9,219.4 696.4,219.4 706.8,219.4 717.3,219.4 727.7,219.4 738.2,211.9 748.6,205.2 759.1,205.2 769.5,197.3 780.0,189.3 780.0,340.0" fill="url(#addGrad)" class="anim" style="animation-delay:200ms;"/>
<polyline points="90.0,292.7 100.5,294.4 110.9,292.7 121.4,294.4 131.8,305.3 142.3,283.6 152.7,283.6 163.2,275.4 173.6,275.1 184.1,274.6 194.5,274.5 205.0,259.9 215.5,259.9 225.9,259.9 236.4,238.3 246.8,238.0 257.3,237.8 267.7,237.8 278.2,237.8 288.6,237.8 299.1,237.8 309.5,237.2 320.0,222.8 330.5,222.7 340.9,222.7 351.4,222.7 361.8,222.4 372.3,222.4 382.7,221.8 393.2,221.8 403.6,221.7 414.1,221.7 424.5,221.7 435.0,221.7 445.5,221.8 455.9,221.7 466.4,221.7 476.8,221.7 487.3,221.7 497.7,221.7 508.2,221.7 518.6,221.1 529.1,221.3 539.5,220.7 550.0,220.4 560.5,220.4 570.9,220.4 581.4,220.4 591.8,220.4 602.3,220.4 612.7,220.3 623.2,220.3 633.6,220.3 644.1,220.4 654.5,220.7 665.0,222.1 675.5,220.7 685.9,219.4 696.4,219.4 706.8,219.4 717.3,219.4 727.7,219.4 738.2,211.9 748.6,205.2 759.1,205.2" fill="none" stroke="#3fb950" stroke-width="2" stroke-linejoin="round" class="anim" style="animation-delay:250ms;"/>
<polyline points="759.1,205.2 769.5,197.3 780.0,189.3" fill="none" stroke="#3fb950" stroke-width="1.5" stroke-dasharray="5,4" stroke-linejoin="round" opacity="0.6" class="anim" style="animation-delay:250ms;"/>
<polygon points="90.0,340.0 90.0,326.7 100.5,328.1 110.9,326.7 121.4,328.0 131.8,333.7 142.3,325.1 152.7,325.1 163.2,324.1 173.6,323.8 184.1,323.5 194.5,323.5 205.0,307.8 215.5,307.8 225.9,307.7 236.4,290.0 246.8,289.9 257.3,289.8 267.7,289.8 278.2,289.8 288.6,289.8 299.1,289.8 309.5,280.5 320.0,266.4 330.5,266.3 340.9,266.3 351.4,266.3 361.8,266.2 372.3,266.2 382.7,266.2 393.2,266.1 403.6,266.1 414.1,266.1 424.5,266.1 435.0,266.1 445.5,266.2 455.9,266.1 466.4,266.1 476.8,266.1 487.3,266.1 497.7,266.1 508.2,266.1 518.6,266.1 529.1,266.2 539.5,265.7 550.0,265.7 560.5,265.7 570.9,265.7 581.4,265.7 591.8,265.7 602.3,265.7 612.7,265.7 623.2,265.7 633.6,265.7 644.1,265.7 654.5,265.8 665.0,266.6 675.5,266.1 685.9,265.3 696.4,265.2 706.8,265.2 717.3,265.2 727.7,265.2 738.2,265.2 748.6,265.2 759.1,265.2 769.5,257.9 780.0,250.7 780.0,340.0" fill="url(#delGrad)" class="anim" style="animation-delay:300ms;"/>
<polyline points="90.0,326.7 100.5,328.1 110.9,326.7 121.4,328.0 131.8,333.7 142.3,325.1 152.7,325.1 163.2,324.1 173.6,323.8 184.1,323.5 194.5,323.5 205.0,307.8 215.5,307.8 225.9,307.7 236.4,290.0 246.8,289.9 257.3,289.8 267.7,289.8 278.2,289.8 288.6,289.8 299.1,289.8 309.5,280.5 320.0,266.4 330.5,266.3 340.9,266.3 351.4,266.3 361.8,266.2 372.3,266.2 382.7,266.2 393.2,266.1 403.6,266.1 414.1,266.1 424.5,266.1 435.0,266.1 445.5,266.2 455.9,266.1 466.4,266.1 476.8,266.1 487.3,266.1 497.7,266.1 508.2,266.1 518.6,266.1 529.1,266.2 539.5,265.7 550.0,265.7 560.5,265.7 570.9,265.7 581.4,265.7 591.8,265.7 602.3,265.7 612.7,265.7 623.2,265.7 633.6,265.7 644.1,265.7 654.5,265.8 665.0,266.6 675.5,266.1 685.9,265.3 696.4,265.2 706.8,265.2 717.3,265.2 727.7,265.2 738.2,265.2 748.6,265.2 759.1,265.2" fill="none" stroke="#f85149" stroke-width="1.5" stroke-linejoin="round" class="anim" style="animation-delay:350ms;"/>
<polyline points="759.1,265.2 769.5,257.9 780.0,250.7" fill="none" stroke="#f85149" stroke-width="1" stroke-dasharray="5,4" stroke-linejoin="round" opacity="0.6" class="anim" style="animation-delay:350ms;"/>
<polyline points="90.0,340.0 100.5,340.0 110.9,340.0 121.4,340.0 131.8,340.0 142.3,340.0 152.7,340.0 163.2,340.0 173.6,308.0 184.1,308.0 194.5,308.0 205.0,308.0 215.5,308.0 225.9,308.0 236.4,308.0 246.8,308.0 257.3,308.0 267.7,308.0 278.2,308.0 288.6,308.0 299.1,308.0 309.5,308.0 320.0,308.0 330.5,308.0 340.9,308.0 351.4,308.0 361.8,308.0 372.3,308.0 382.7,308.0 393.2,308.0 403.6,308.0 414.1,308.0 424.5,308.0 435.0,308.0 445.5,276.0 455.9,276.0 466.4,276.0 476.8,276.0 487.3,276.0 497.7,276.0 508.2,276.0 518.6,276.0 529.1,244.0 539.5,244.0 550.0,244.0 560.5,244.0 570.9,244.0 581.4,244.0 591.8,244.0 602.3,244.0 612.7,244.0 623.2,244.0 633.6,244.0 644.1,244.0 654.5,244.0 665.0,244.0 675.5,244.0 685.9,244.0 696.4,180.0 706.8,180.0 717.3,180.0 727.7,180.0 738.2,180.0 748.6,180.0 759.1,180.0" fill="none" stroke="#e3b341" stroke-width="1.5" stroke-dasharray="4,3" stroke-linejoin="round" class="anim" style="animation-delay:400ms;"/>
<polyline points="759.1,180.0 769.5,180.0 780.0,148.0" fill="none" stroke="#e3b341" stroke-width="1" stroke-dasharray="3,5" stroke-linejoin="round" opacity="0.5" class="anim" style="animation-delay:400ms;"/>
<text x="90" y="90" class="subtitle">Lines Added vs Deleted (per snapshot)</text>
<text x="90" y="400" class="subtitle">Programming Language Development (%)</text>
<line x1="90" y1="650.0" x2="780" y2="650.0" stroke="#21262d" stroke-width="1"/>
<text x="82" y="654.0" text-anchor="end" class="axis-label">0%</text>
<line x1="90" y1="590.0" x2="780" y2="590.0" stroke="#21262d" stroke-width="1"/>
<text x="82" y="594.0" text-anchor="end" class="axis-label">25%</text>
<line x1="90" y1="530.0" x2="780" y2="530.0" stroke="#21262d" stroke-width="1"/>
<text x="82" y="534.0" text-anchor="end" class="axis-label">50%</text>
<line x1="90" y1="470.0" x2="780" y2="470.0" stroke="#21262d" stroke-width="1"/>
<text x="82" y="474.0" text-anchor="end" class="axis-label">75%</text>
<line x1="90" y1="410.0" x2="780" y2="410.0" stroke="#21262d" stroke-width="1"/>
<text x="82" y="414.0" text-anchor="end" class="axis-label">100%</text>
<polygon points="90.0,650.0 100.5,650.0 110.9,650.0 121.4,650.0 131.8,650.0 142.3,650.0 152.7,650.0 163.2,650.0 173.6,528.2 184.1,528.5 194.5,529.7 205.0,499.3 215.5,499.3 225.9,502.9 236.4,485.0 246.8,485.1 257.3,485.4 267.7,485.4 278.2,485.4 288.6,485.4 299.1,485.4 309.5,496.4 320.0,496.7 330.5,491.0 340.9,491.0 351.4,491.0 361.8,491.7 372.3,491.8 382.7,494.0 393.2,494.0 403.6,494.4 414.1,494.4 424.5,494.4 435.0,494.4 445.5,507.6 455.9,507.6 466.4,507.9 476.8,507.9 487.3,507.9 497.7,506.3 508.2,506.4 518.6,506.8 529.1,506.9 539.5,506.8 550.0,507.5 560.5,507.5 570.9,507.5 581.4,507.5 591.8,507.5 602.3,507.5 612.7,507.5 623.2,507.5 633.6,507.5 644.1,507.5 654.5,507.5 665.0,507.5 675.5,507.5 685.9,508.6 696.4,508.6 706.8,508.6 717.3,508.6 727.7,508.6 738.2,509.5 748.6,509.8 759.1,509.8 769.5,511.6 780.0,513.5 780.0,650.0 769.5,650.0 759.1,650.0 748.6,650.0 738.2,650.0 727.7,650.0 717.3,650.0 706.8,650.0 696.4,650.0 685.9,650.0 675.5,650.0 665.0,650.0 654.5,650.0 644.1,650.0 633.6,650.0 623.2,650.0 612.7,650.0 602.3,650.0 591.8,650.0 581.4,650.0 570.9,650.0 560.5,650.0 550.0,650.0 539.5,650.0 529.1,650.0 518.6,650.0 508.2,650.0 497.7,650.0 487.3,650.0 476.8,650.0 466.4,650.0 455.9,650.0 445.5,650.0 435.0,650.0 424.5,650.0 414.1,650.0 403.6,650.0 393.2,650.0 382.7,650.0 372.3,650.0 361.8,650.0 351.4,650.0 340.9,650.0 330.5,650.0 320.0,650.0 309.5,650.0 299.1,650.0 288.6,650.0 278.2,650.0 267.7,650.0 257.3,650.0 246.8,650.0 236.4,650.0 225.9,650.0 215.5,650.0 205.0,650.0 194.5,650.0 184.1,650.0 173.6,650.0 163.2,650.0 152.7,650.0 142.3,650.0 131.8,650.0 121.4,650.0 110.9,650.0 100.5,650.0 90.0,650.0" fill="#e34c26" opacity="0.6" class="anim" style="animation-delay:500ms;"/>
<polygon points="90.0,650.0 100.5,650.0 110.9,650.0 121.4,650.0 131.8,650.0 142.3,650.0 152.7,650.0 163.2,650.0 173.6,488.4 184.1,488.0 194.5,489.0 205.0,476.0 215.5,476.0 225.9,477.2 236.4,460.1 246.8,460.2 257.3,460.6 267.7,460.6 278.2,460.6 288.6,460.6 299.1,460.6 309.5,473.0 320.0,473.5 330.5,469.5 340.9,469.5 351.4,469.5 361.8,469.7 372.3,469.7 382.7,469.7 393.2,469.7 403.6,469.7 414.1,469.7 424.5,469.7 435.0,469.7 445.5,455.6 455.9,455.6 466.4,455.4 476.8,455.4 487.3,455.4 497.7,454.3 508.2,454.3 518.6,455.0 529.1,455.1 539.5,454.9 550.0,455.9 560.5,455.9 570.9,455.9 581.4,455.9 591.8,455.9 602.3,455.9 612.7,455.9 623.2,455.9 633.6,455.9 644.1,455.9 654.5,455.9 665.0,455.9 675.5,455.9 685.9,455.8 696.4,455.8 706.8,455.8 717.3,455.8 727.7,455.8 738.2,457.0 748.6,457.4 759.1,457.4 769.5,454.7 780.0,452.0 780.0,513.5 769.5,511.6 759.1,509.8 748.6,509.8 738.2,509.5 727.7,508.6 717.3,508.6 706.8,508.6 696.4,508.6 685.9,508.6 675.5,507.5 665.0,507.5 654.5,507.5 644.1,507.5 633.6,507.5 623.2,507.5 612.7,507.5 602.3,507.5 591.8,507.5 581.4,507.5 570.9,507.5 560.5,507.5 550.0,507.5 539.5,506.8 529.1,506.9 518.6,506.8 508.2,506.4 497.7,506.3 487.3,507.9 476.8,507.9 466.4,507.9 455.9,507.6 445.5,507.6 435.0,494.4 424.5,494.4 414.1,494.4 403.6,494.4 393.2,494.0 382.7,494.0 372.3,491.8 361.8,491.7 351.4,491.0 340.9,491.0 330.5,491.0 320.0,496.7 309.5,496.4 299.1,485.4 288.6,485.4 278.2,485.4 267.7,485.4 257.3,485.4 246.8,485.1 236.4,485.0 225.9,502.9 215.5,499.3 205.0,499.3 194.5,529.7 184.1,528.5 173.6,528.2 163.2,650.0 152.7,650.0 142.3,650.0 131.8,650.0 121.4,650.0 110.9,650.0 100.5,650.0 90.0,650.0" fill="#f1e05a" opacity="0.6" class="anim" style="animation-delay:600ms;"/>
<polygon points="90.0,650.0 100.5,650.0 110.9,650.0 121.4,650.0 131.8,650.0 142.3,650.0 152.7,650.0 163.2,650.0 173.6,455.5 184.1,455.4 194.5,455.1 205.0,447.0 215.5,447.0 225.9,448.2 236.4,438.9 246.8,439.0 257.3,439.6 267.7,439.6 278.2,439.6 288.6,439.6 299.1,439.6 309.5,445.6 320.0,445.6 330.5,443.3 340.9,443.3 351.4,443.3 361.8,443.6 372.3,443.6 382.7,444.1 393.2,444.1 403.6,444.1 414.1,444.1 424.5,444.1 435.0,444.1 445.5,437.5 455.9,437.5 466.4,437.5 476.8,437.5 487.3,437.5 497.7,437.5 508.2,437.5 518.6,438.4 529.1,438.5 539.5,438.3 550.0,439.3 560.5,439.3 570.9,439.3 581.4,439.3 591.8,439.3 602.3,439.3 612.7,439.3 623.2,439.3 633.6,439.3 644.1,439.3 654.5,439.3 665.0,439.3 675.5,439.3 685.9,439.4 696.4,439.4 706.8,439.4 717.3,439.4 727.7,439.4 738.2,440.7 748.6,441.1 759.1,441.1 769.5,440.3 780.0,439.5 780.0,452.0 769.5,454.7 759.1,457.4 748.6,457.4 738.2,457.0 727.7,455.8 717.3,455.8 706.8,455.8 696.4,455.8 685.9,455.8 675.5,455.9 665.0,455.9 654.5,455.9 644.1,455.9 633.6,455.9 623.2,455.9 612.7,455.9 602.3,455.9 591.8,455.9 581.4,455.9 570.9,455.9 560.5,455.9 550.0,455.9 539.5,454.9 529.1,455.1 518.6,455.0 508.2,454.3 497.7,454.3 487.3,455.4 476.8,455.4 466.4,455.4 455.9,455.6 445.5,455.6 435.0,469.7 424.5,469.7 414.1,469.7 403.6,469.7 393.2,469.7 382.7,469.7 372.3,469.7 361.8,469.7 351.4,469.5 340.9,469.5 330.5,469.5 320.0,473.5 309.5,473.0 299.1,460.6 288.6,460.6 278.2,460.6 267.7,460.6 257.3,460.6 246.8,460.2 236.4,460.1 225.9,477.2 215.5,476.0 205.0,476.0 194.5,489.0 184.1,488.0 173.6,488.4 163.2,650.0 152.7,650.0 142.3,650.0 131.8,650.0 121.4,650.0 110.9,650.0 100.5,650.0 90.0,650.0" fill="#3572A5" opacity="0.6" class="anim" style="animation-delay:700ms;"/>
<polygon points="90.0,650.0 100.5,650.0 110.9,650.0 121.4,650.0 131.8,650.0 142.3,650.0 152.7,650.0 163.2,650.0 173.6,442.3 184.1,442.0 194.5,441.6 205.0,439.5 215.5,439.5 225.9,439.4 236.4,432.3 246.8,432.2 257.3,432.6 267.7,432.6 278.2,432.6 288.6,432.6 299.1,432.6 309.5,439.3 320.0,439.3 330.5,437.4 340.9,437.4 351.4,437.4 361.8,437.3 372.3,437.3 382.7,437.1 393.2,437.1 403.6,437.1 414.1,437.1 424.5,437.1 435.0,437.1 445.5,428.7 455.9,428.6 466.4,428.5 476.8,428.5 487.3,428.5 497.7,427.3 508.2,427.3 518.6,427.1 529.1,427.1 539.5,427.1 550.0,427.0 560.5,427.0 570.9,427.0 581.4,427.0 591.8,427.0 602.3,427.0 612.7,427.0 623.2,427.0 633.6,427.0 644.1,427.0 654.5,427.0 665.0,427.0 675.5,427.0 685.9,427.0 696.4,427.1 706.8,427.1 717.3,427.1 727.7,427.1 738.2,428.4 748.6,428.9 759.1,428.9 769.5,427.3 780.0,425.8 780.0,439.5 769.5,440.3 759.1,441.1 748.6,441.1 738.2,440.7 727.7,439.4 717.3,439.4 706.8,439.4 696.4,439.4 685.9,439.4 675.5,439.3 665.0,439.3 654.5,439.3 644.1,439.3 633.6,439.3 623.2,439.3 612.7,439.3 602.3,439.3 591.8,439.3 581.4,439.3 570.9,439.3 560.5,439.3 550.0,439.3 539.5,438.3 529.1,438.5 518.6,438.4 508.2,437.5 497.7,437.5 487.3,437.5 476.8,437.5 466.4,437.5 455.9,437.5 445.5,437.5 435.0,444.1 424.5,444.1 414.1,444.1 403.6,444.1 393.2,444.1 382.7,444.1 372.3,443.6 361.8,443.6 351.4,443.3 340.9,443.3 330.5,443.3 320.0,445.6 309.5,445.6 299.1,439.6 288.6,439.6 278.2,439.6 267.7,439.6 257.3,439.6 246.8,439.0 236.4,438.9 225.9,448.2 215.5,447.0 205.0,447.0 194.5,455.1 184.1,455.4 173.6,455.5 163.2,650.0 152.7,650.0 142.3,650.0 131.8,650.0 121.4,650.0 110.9,650.0 100.5,650.0 90.0,650.0" fill="#663399" opacity="0.6" class="anim" style="animation-delay:800ms;"/>
<polygon points="90.0,650.0 100.5,650.0 110.9,650.0 121.4,650.0 131.8,650.0 142.3,650.0 152.7,650.0 163.2,650.0 173.6,436.6 184.1,436.3 194.5,435.9 205.0,432.2 215.5,432.2 225.9,432.2 236.4,426.2 246.8,426.1 257.3,426.0 267.7,426.0 278.2,426.0 288.6,426.0 299.1,426.0 309.5,430.8 320.0,430.7 330.5,429.3 340.9,429.3 351.4,429.3 361.8,429.2 372.3,429.2 382.7,428.9 393.2,428.9 403.6,428.8 414.1,428.8 424.5,428.8 435.0,428.8 445.5,423.0 455.9,422.9 466.4,422.9 476.8,422.9 487.3,422.9 497.7,422.0 508.2,422.0 518.6,421.9 529.1,421.9 539.5,421.9 550.0,421.8 560.5,421.8 570.9,421.8 581.4,421.8 591.8,421.8 602.3,421.8 612.7,421.8 623.2,421.8 633.6,421.8 644.1,421.8 654.5,421.8 665.0,421.8 675.5,421.8 685.9,421.7 696.4,421.8 706.8,421.8 717.3,421.8 727.7,421.8 738.2,423.2 748.6,423.6 759.1,423.6 769.5,422.4 780.0,421.2 780.0,425.8 769.5,427.3 759.1,428.9 748.6,428.9 738.2,428.4 727.7,427.1 717.3,427.1 706.8,427.1 696.4,427.1 685.9,427.0 675.5,427.0 665.0,427.0 654.5,427.0 644.1,427.0 633.6,427.0 623.2,427.0 612.7,427.0 602.3,427.0 591.8,427.0 581.4,427.0 570.9,427.0 560.5,427.0 550.0,427.0 539.5,427.1 529.1,427.1 518.6,427.1 508.2,427.3 497.7,427.3 487.3,428.5 476.8,428.5 466.4,428.5 455.9,428.6 445.5,428.7 435.0,437.1 424.5,437.1 414.1,437.1 403.6,437.1 393.2,437.1 382.7,437.1 372.3,437.3 361.8,437.3 351.4,437.4 340.9,437.4 330.5,437.4 320.0,439.3 309.5,439.3 299.1,432.6 288.6,432.6 278.2,432.6 267.7,432.6 257.3,432.6 246.8,432.2 236.4,432.3 225.9,439.4 215.5,439.5 205.0,439.5 194.5,441.6 184.1,442.0 173.6,442.3 163.2,650.0 152.7,650.0 142.3,650.0 131.8,650.0 121.4,650.0 110.9,650.0 100.5,650.0 90.0,650.0" fill="#083fa1" opacity="0.6" class="anim" style="animation-delay:900ms;"/>
<polygon points="90.0,650.0 100.5,650.0 110.9,650.0 121.4,650.0 131.8,650.0 142.3,650.0 152.7,650.0 163.2,650.0 173.6,427.0 184.1,426.8 194.5,426.6 205.0,424.2 215.5,424.2 225.9,424.2 236.4,420.4 246.8,420.3 257.3,420.3 267.7,420.3 278.2,420.3 288.6,420.3 299.1,420.3 309.5,423.3 320.0,423.2 330.5,422.4 340.9,422.4 351.4,422.4 361.8,422.3 372.3,422.3 382.7,422.1 393.2,422.1 403.6,422.1 414.1,422.1 424.5,422.1 435.0,422.1 445.5,418.3 455.9,418.3 466.4,418.2 476.8,418.2 487.3,418.2 497.7,417.7 508.2,417.7 518.6,417.6 529.1,417.6 539.5,417.6 550.0,417.6 560.5,417.6 570.9,417.6 581.4,417.6 591.8,417.6 602.3,417.6 612.7,417.6 623.2,417.6 633.6,417.6 644.1,417.6 654.5,417.6 665.0,417.6 675.5,417.6 685.9,417.5 696.4,417.6 706.8,417.6 717.3,417.6 727.7,417.6 738.2,419.0 748.6,419.5 759.1,419.5 769.5,418.8 780.0,418.1 780.0,421.2 769.5,422.4 759.1,423.6 748.6,423.6 738.2,423.2 727.7,421.8 717.3,421.8 706.8,421.8 696.4,421.8 685.9,421.7 675.5,421.8 665.0,421.8 654.5,421.8 644.1,421.8 633.6,421.8 623.2,421.8 612.7,421.8 602.3,421.8 591.8,421.8 581.4,421.8 570.9,421.8 560.5,421.8 550.0,421.8 539.5,421.9 529.1,421.9 518.6,421.9 508.2,422.0 497.7,422.0 487.3,422.9 476.8,422.9 466.4,422.9 455.9,422.9 445.5,423.0 435.0,428.8 424.5,428.8 414.1,428.8 403.6,428.8 393.2,428.9 382.7,428.9 372.3,429.2 361.8,429.2 351.4,429.3 340.9,429.3 330.5,429.3 320.0,430.7 309.5,430.8 299.1,426.0 288.6,426.0 278.2,426.0 267.7,426.0 257.3,426.0 246.8,426.1 236.4,426.2 225.9,432.2 215.5,432.2 205.0,432.2 194.5,435.9 184.1,436.3 173.6,436.6 163.2,650.0 152.7,650.0 142.3,650.0 131.8,650.0 121.4,650.0 110.9,650.0 100.5,650.0 90.0,650.0" fill="#6E4C13" opacity="0.6" class="anim" style="animation-delay:1000ms;"/>
<polygon points="90.0,650.0 100.5,650.0 110.9,650.0 121.4,650.0 131.8,650.0 142.3,650.0 152.7,650.0 163.2,650.0 173.6,418.7 184.1,418.6 194.5,418.5 205.0,417.3 215.5,417.3 225.9,417.2 236.4,415.3 246.8,415.3 257.3,415.2 267.7,415.2 278.2,415.2 288.6,415.2 299.1,415.2 309.5,416.8 320.0,416.8 330.5,416.3 340.9,416.3 351.4,416.3 361.8,416.3 372.3,416.3 382.7,416.2 393.2,416.2 403.6,416.2 414.1,416.2 424.5,416.2 435.0,416.2 445.5,414.2 455.9,414.2 466.4,414.2 476.8,414.2 487.3,414.2 497.7,413.9 508.2,413.9 518.6,413.9 529.1,413.9 539.5,413.9 550.0,413.9 560.5,413.9 570.9,413.9 581.4,413.9 591.8,413.9 602.3,413.9 612.7,413.9 623.2,413.9 633.6,413.9 644.1,413.9 654.5,413.9 665.0,413.9 675.5,413.9 685.9,413.8 696.4,413.8 706.8,413.8 717.3,413.8 727.7,413.8 738.2,413.8 748.6,413.8 759.1,413.8 769.5,413.6 780.0,413.3 780.0,418.1 769.5,418.8 759.1,419.5 748.6,419.5 738.2,419.0 727.7,417.6 717.3,417.6 706.8,417.6 696.4,417.6 685.9,417.5 675.5,417.6 665.0,417.6 654.5,417.6 644.1,417.6 633.6,417.6 623.2,417.6 612.7,417.6 602.3,417.6 591.8,417.6 581.4,417.6 570.9,417.6 560.5,417.6 550.0,417.6 539.5,417.6 529.1,417.6 518.6,417.6 508.2,417.7 497.7,417.7 487.3,418.2 476.8,418.2 466.4,418.2 455.9,418.3 445.5,418.3 435.0,422.1 424.5,422.1 414.1,422.1 403.6,422.1 393.2,422.1 382.7,422.1 372.3,422.3 361.8,422.3 351.4,422.4 340.9,422.4 330.5,422.4 320.0,423.2 309.5,423.3 299.1,420.3 288.6,420.3 278.2,420.3 267.7,420.3 257.3,420.3 246.8,420.3 236.4,420.4 225.9,424.2 215.5,424.2 205.0,424.2 194.5,426.6 184.1,426.8 173.6,427.0 163.2,650.0 152.7,650.0 142.3,650.0 131.8,650.0 121.4,650.0 110.9,650.0 100.5,650.0 90.0,650.0" fill="#F05138" opacity="0.6" class="anim" style="animation-delay:1100ms;"/>
<polygon points="90.0,650.0 100.5,650.0 110.9,650.0 121.4,650.0 131.8,650.0 142.3,650.0 152.7,650.0 163.2,650.0 173.6,414.4 184.1,414.4 194.5,414.3 205.0,413.7 215.5,413.7 225.9,413.7 236.4,412.7 246.8,412.7 257.3,412.7 267.7,412.7 278.2,412.7 288.6,412.7 299.1,412.7 309.5,413.5 320.0,413.4 330.5,413.2 340.9,413.2 351.4,413.2 361.8,413.2 372.3,413.2 382.7,413.1 393.2,413.1 403.6,413.1 414.1,413.1 424.5,413.1 435.0,413.1 445.5,412.2 455.9,412.1 466.4,412.1 476.8,412.1 487.3,412.1 497.7,412.0 508.2,412.0 518.6,412.0 529.1,412.0 539.5,412.0 550.0,412.0 560.5,412.0 570.9,412.0 581.4,412.0 591.8,412.0 602.3,412.0 612.7,412.0 623.2,412.0 633.6,412.0 644.1,412.0 654.5,412.0 665.0,412.0 675.5,412.0 685.9,411.9 696.4,411.9 706.8,411.9 717.3,411.9 727.7,411.9 738.2,411.9 748.6,411.9 759.1,411.9 769.5,411.9 780.0,411.9 780.0,413.3 769.5,413.6 759.1,413.8 748.6,413.8 738.2,413.8 727.7,413.8 717.3,413.8 706.8,413.8 696.4,413.8 685.9,413.8 675.5,413.9 665.0,413.9 654.5,413.9 644.1,413.9 633.6,413.9 623.2,413.9 612.7,413.9 602.3,413.9 591.8,413.9 581.4,413.9 570.9,413.9 560.5,413.9 550.0,413.9 539.5,413.9 529.1,413.9 518.6,413.9 508.2,413.9 497.7,413.9 487.3,414.2 476.8,414.2 466.4,414.2 455.9,414.2 445.5,414.2 435.0,416.2 424.5,416.2 414.1,416.2 403.6,416.2 393.2,416.2 382.7,416.2 372.3,416.3 361.8,416.3 351.4,416.3 340.9,416.3 330.5,416.3 320.0,416.8 309.5,416.8 299.1,415.2 288.6,415.2 278.2,415.2 267.7,415.2 257.3,415.2 246.8,415.3 236.4,415.3 225.9,417.2 215.5,417.3 205.0,417.3 194.5,418.5 184.1,418.6 173.6,418.7 163.2,650.0 152.7,650.0 142.3,650.0 131.8,650.0 121.4,650.0 110.9,650.0 100.5,650.0 90.0,650.0" fill="#b07219" opacity="0.6" class="anim" style="animation-delay:1200ms;"/>
<line x1="759.1" y1="100" x2="759.1" y2="650" stroke="#c9d1d9" stroke-width="1" stroke-dasharray="4,3" opacity="0.35"/>
<text x="769.5" y="112" text-anchor="middle" class="axis-label" opacity="0.6">Jun 26, 2026</text>
<text x="90.0" y="668" text-anchor="middle" class="axis-label" transform="rotate(-35 90.0 668)">2026-02</text>
<text x="382.7" y="668" text-anchor="middle" class="axis-label" transform="rotate(-35 382.7 668)">2026-03</text>
<text x="675.5" y="668" text-anchor="middle" class="axis-label" transform="rotate(-35 675.5 668)">2026-04</text>
<text x="748.6" y="668" text-anchor="middle" class="axis-label" transform="rotate(-35 748.6 668)">2026-06</text>
<line x1="796" y1="110" x2="824" y2="110" stroke="#3fb950" stroke-width="2"/>
<text x="832" y="116" class="legend-text">Lines Added</text>
<line x1="796" y1="140" x2="824" y2="140" stroke="#f85149" stroke-width="1.5"/>
<text x="832" y="146" class="legend-text">Lines Deleted</text>
<line x1="796" y1="170" x2="824" y2="170" stroke="#e3b341" stroke-width="1.5" stroke-dasharray="4,3"/>
<text x="832" y="176" class="legend-text">&#x2605; Stars</text>
<text x="796" y="200" class="subtitle">Languages</text>
<rect x="796" y="212" width="12" height="12" rx="2" fill="#e34c26" opacity="0.8" class="anim" style="animation-delay:800ms;"/>
<text x="814" y="223" class="legend-text">HTML (58%→57%)</text>
<rect x="796" y="234" width="12" height="12" rx="2" fill="#f1e05a" opacity="0.8" class="anim" style="animation-delay:880ms;"/>
<text x="814" y="245" class="legend-text">JavaScript (22%→26%)</text>
<rect x="796" y="256" width="12" height="12" rx="2" fill="#3572A5" opacity="0.8" class="anim" style="animation-delay:960ms;"/>
<text x="814" y="267" class="legend-text">Python (7%→5%)</text>
<rect x="796" y="278" width="12" height="12" rx="2" fill="#663399" opacity="0.8" class="anim" style="animation-delay:1040ms;"/>
<text x="814" y="289" class="legend-text">CSS (5%→6%)</text>
<rect x="796" y="300" width="12" height="12" rx="2" fill="#083fa1" opacity="0.8" class="anim" style="animation-delay:1120ms;"/>
<text x="814" y="311" class="legend-text">Markdown (2%→2%)</text>
<rect x="796" y="322" width="12" height="12" rx="2" fill="#6E4C13" opacity="0.8" class="anim" style="animation-delay:1200ms;"/>
<text x="814" y="333" class="legend-text">Assembly (2%→1%)</text>
<rect x="796" y="344" width="12" height="12" rx="2" fill="#F05138" opacity="0.8" class="anim" style="animation-delay:1280ms;"/>
<text x="814" y="355" class="legend-text">Swift (2%→2%)</text>
<rect x="796" y="366" width="12" height="12" rx="2" fill="#b07219" opacity="0.8" class="anim" style="animation-delay:1360ms;"/>
<text x="814" y="377" class="legend-text">Java (1%→1%)</text>
<text x="796" y="412" class="subtitle">Contributions</text>
<text x="796" y="432" class="axis-label">2023: 39</text>
<text x="796" y="452" class="axis-label">2024: 646</text>
<text x="796" y="472" class="axis-label">2025: 1,780</text>
<text x="796" y="492" class="axis-label">2026: 483</text>
<text x="796" y="522" class="subtitle">Statistics</text>
<text x="796" y="542" class="axis-label">Active weeks: 87</text>
<text x="796" y="562" class="axis-label">Add/Del ratio: 1.8x</text>
<text x="796" y="582" class="axis-label">Avg lines/wk: 19K</text>
<text x="796" y="602" class="axis-label">Peak: 2026-02-15</text>
<text x="796" y="622" class="axis-label">  (543K lines)</text>
<text x="90" y="742" class="axis-label">Total: +1,039,435 / -576,819 lines &#xb7; 2,948 contributions &#xb7; 79 repos &#xb7; &#x2605; 37</text>
</svg>