<svg xmlns="http://www.w3.org/2000/svg" width="1000" height="760" viewBox="0 0 1000 760">

<defs>
  <linearGradient id="areaGrad" x1="0" y1="0" x2="0" y2="1">
    <stop offset="0%" stop-color="#58a6ff" stop-opacity="0.35"/>
    <stop offset="100%" stop-color="#58a6ff" stop-opacity="0.02"/>
  </linearGradient>
  <linearGradient id="addGrad" x1="0" y1="0" x2="0" y2="1">
    <stop offset="0%" stop-color="#3fb950" stop-opacity="0.35"/>
    <stop offset="100%" stop-color="#3fb950" stop-opacity="0.02"/>
  </linearGradient>
  <linearGradient id="delGrad" x1="0" y1="0" x2="0" y2="1">
    <stop offset="0%" stop-color="#f85149" stop-opacity="0.25"/>
    <stop offset="100%" stop-color="#f85149" stop-opacity="0.02"/>
  </linearGradient>
</defs>
<style>
  .title { font: bold 16px 'Segoe UI', Ubuntu, Sans-Serif; fill: #c9d1d9; }
  .subtitle { font: 600 12px 'Segoe UI', Ubuntu, Sans-Serif; fill: #c9d1d9; opacity: 0.8; }
  .axis-label { font: 11px 'Segoe UI', Ubuntu, Sans-Serif; fill: #c9d1d9; opacity: 0.7; }
  .legend-text { font: 12px 'Segoe UI', Ubuntu, Sans-Serif; fill: #c9d1d9; }
  .value-text { font: bold 11px 'Segoe UI', Ubuntu, Sans-Serif; fill: #c9d1d9; }
  .stat-value { font: bold 13px 'Segoe UI', Ubuntu, Sans-Serif; fill: #c9d1d9; }
  .stat-label { font: 11px 'Segoe UI', Ubuntu, Sans-Serif; fill: #c9d1d9; opacity: 0.7; }
  @keyframes fadeIn { from { opacity: 0; } to { opacity: 1; } }
  .anim { animation: fadeIn 0.6s ease-in-out forwards; opacity: 0; }
</style>

<rect x="0.5" y="0.5" rx="4.5" width="999" height="759" fill="#161b22" stroke="#21262d"/>
<text x="65" y="30" class="title">Activity History</text>
<text x="65" y="48" class="subtitle">Lines added vs deleted &amp; activity trends over time</text>
<line x1="65" y1="240.0" x2="820" y2="240.0" stroke="#21262d" stroke-width="1"/>
<text x="57" y="244.0" text-anchor="end" class="axis-label">0</text>
<line x1="65" y1="195.0" x2="820" y2="195.0" stroke="#21262d" stroke-width="1"/>
<text x="57" y="199.0" text-anchor="end" class="axis-label">293,761</text>
<line x1="65" y1="150.0" x2="820" y2="150.0" stroke="#21262d" stroke-width="1"/>
<text x="57" y="154.0" text-anchor="end" class="axis-label">587,522</text>
<line x1="65" y1="105.0" x2="820" y2="105.0" stroke="#21262d" stroke-width="1"/>
<text x="57" y="109.0" text-anchor="end" class="axis-label">881,283</text>
<line x1="65" y1="60.0" x2="820" y2="60.0" stroke="#21262d" stroke-width="1"/>
<text x="57" y="64.0" text-anchor="end" class="axis-label">1,175,044</text>
<polygon points="65.0,240.0 65.0,184.1 106.9,186.1 148.9,184.1 190.8,186.1 232.8,199.0 274.7,173.4 316.7,173.4 358.6,163.7 400.6,163.3 442.5,162.7 484.4,162.7 526.4,145.5 568.3,145.4 610.3,145.4 652.2,119.9 694.2,119.6 736.1,119.3 778.1,119.3 820.0,119.3 820.0,240.0" fill="url(#addGrad)" class="anim" style="animation-delay:200ms;"/>
<polyline points="65.0,184.1 106.9,186.1 148.9,184.1 190.8,186.1 232.8,199.0 274.7,173.4 316.7,173.4 358.6,163.7 400.6,163.3 442.5,162.7 484.4,162.7 526.4,145.5 568.3,145.4 610.3,145.4 652.2,119.9 694.2,119.6 736.1,119.3 778.1,119.3 820.0,119.3" fill="none" stroke="#3fb950" stroke-width="2" stroke-linejoin="round" class="anim" style="animation-delay:250ms;"/>
<polygon points="65.0,240.0 65.0,224.3 106.9,225.9 148.9,224.3 190.8,225.9 232.8,232.6 274.7,222.4 316.7,222.4 358.6,221.2 400.6,220.9 442.5,220.5 484.4,220.5 526.4,202.0 568.3,202.0 610.3,201.9 652.2,180.9 694.2,180.8 736.1,180.7 778.1,180.7 820.0,180.7 820.0,240.0" fill="url(#delGrad)" class="anim" style="animation-delay:300ms;"/>
<polyline points="65.0,224.3 106.9,225.9 148.9,224.3 190.8,225.9 232.8,232.6 274.7,222.4 316.7,222.4 358.6,221.2 400.6,220.9 442.5,220.5 484.4,220.5 526.4,202.0 568.3,202.0 610.3,201.9 652.2,180.9 694.2,180.8 736.1,180.7 778.1,180.7 820.0,180.7" fill="none" stroke="#f85149" stroke-width="1.5" stroke-linejoin="round" class="anim" style="animation-delay:350ms;"/>
<polyline points="65.0,240.0 106.9,240.0 148.9,240.0 190.8,240.0 232.8,240.0 274.7,240.0 316.7,240.0 358.6,240.0 400.6,96.0 442.5,96.0 484.4,96.0 526.4,96.0 568.3,96.0 610.3,96.0 652.2,96.0 694.2,96.0 736.1,96.0 778.1,96.0 820.0,96.0" fill="none" stroke="#e3b341" stroke-width="1.5" stroke-dasharray="4,3" stroke-linejoin="round" class="anim" style="animation-delay:400ms;"/>
<text x="65" y="54" class="subtitle">Lines Added vs Deleted (per snapshot)</text>
<text x="65" y="294" class="subtitle">Programming Language Development (%)</text>
<line x1="65" y1="480.0" x2="820" y2="480.0" stroke="#21262d" stroke-width="1"/>
<text x="57" y="484.0" text-anchor="end" class="axis-label">0%</text>
<line x1="65" y1="435.0" x2="820" y2="435.0" stroke="#21262d" stroke-width="1"/>
<text x="57" y="439.0" text-anchor="end" class="axis-label">25%</text>
<line x1="65" y1="390.0" x2="820" y2="390.0" stroke="#21262d" stroke-width="1"/>
<text x="57" y="394.0" text-anchor="end" class="axis-label">50%</text>
<line x1="65" y1="345.0" x2="820" y2="345.0" stroke="#21262d" stroke-width="1"/>
<text x="57" y="349.0" text-anchor="end" class="axis-label">75%</text>
<line x1="65" y1="300.0" x2="820" y2="300.0" stroke="#21262d" stroke-width="1"/>
<text x="57" y="304.0" text-anchor="end" class="axis-label">100%</text>
<polygon points="65.0,480.0 106.9,480.0 148.9,480.0 190.8,480.0 232.8,480.0 274.7,480.0 316.7,480.0 358.6,480.0 400.6,388.6 442.5,388.8 484.4,389.8 526.4,366.9 568.3,366.9 610.3,369.6 652.2,356.3 694.2,356.3 736.1,356.5 778.1,356.5 820.0,356.5 820.0,480.0 778.1,480.0 736.1,480.0 694.2,480.0 652.2,480.0 610.3,480.0 568.3,480.0 526.4,480.0 484.4,480.0 442.5,480.0 400.6,480.0 358.6,480.0 316.7,480.0 274.7,480.0 232.8,480.0 190.8,480.0 148.9,480.0 106.9,480.0 65.0,480.0" fill="#e34c26" opacity="0.6" class="anim" style="animation-delay:500ms;"/>
<polygon points="65.0,480.0 106.9,480.0 148.9,480.0 190.8,480.0 232.8,480.0 274.7,480.0 316.7,480.0 358.6,480.0 400.6,358.8 442.5,358.5 484.4,359.2 526.4,349.5 568.3,349.5 610.3,350.4 652.2,337.6 694.2,337.6 736.1,338.0 778.1,338.0 820.0,338.0 820.0,356.5 778.1,356.5 736.1,356.5 694.2,356.3 652.2,356.3 610.3,369.6 568.3,366.9 526.4,366.9 484.4,389.8 442.5,388.8 400.6,388.6 358.6,480.0 316.7,480.0 274.7,480.0 232.8,480.0 190.8,480.0 148.9,480.0 106.9,480.0 65.0,480.0" fill="#f1e05a" opacity="0.6" class="anim" style="animation-delay:600ms;"/>
<polygon points="65.0,480.0 106.9,480.0 148.9,480.0 190.8,480.0 232.8,480.0 274.7,480.0 316.7,480.0 358.6,480.0 400.6,334.2 442.5,334.0 484.4,333.9 526.4,327.7 568.3,327.7 610.3,328.6 652.2,321.7 694.2,321.7 736.1,322.2 778.1,322.2 820.0,322.2 820.0,338.0 778.1,338.0 736.1,338.0 694.2,337.6 652.2,337.6 610.3,350.4 568.3,349.5 526.4,349.5 484.4,359.2 442.5,358.5 400.6,358.8 358.6,480.0 316.7,480.0 274.7,480.0 232.8,480.0 190.8,480.0 148.9,480.0 106.9,480.0 65.0,480.0" fill="#3572A5" opacity="0.6" class="anim" style="animation-delay:700ms;"/>
<polygon points="65.0,480.0 106.9,480.0 148.9,480.0 190.8,480.0 232.8,480.0 274.7,480.0 316.7,480.0 358.6,480.0 400.6,324.2 442.5,324.0 484.4,323.7 526.4,322.1 568.3,322.1 610.3,322.1 652.2,316.7 694.2,316.6 736.1,316.9 778.1,316.9 820.0,316.9 820.0,322.2 778.1,322.2 736.1,322.2 694.2,321.7 652.2,321.7 610.3,328.6 568.3,327.7 526.4,327.7 484.4,333.9 442.5,334.0 400.6,334.2 358.6,480.0 316.7,480.0 274.7,480.0 232.8,480.0 190.8,480.0 148.9,480.0 106.9,480.0 65.0,480.0" fill="#663399" opacity="0.6" class="anim" style="animation-delay:800ms;"/>
<polygon points="65.0,480.0 106.9,480.0 148.9,480.0 190.8,480.0 232.8,480.0 274.7,480.0 316.7,480.0 358.6,480.0 400.6,317.0 442.5,316.9 484.4,316.7 526.4,316.1 568.3,316.1 610.3,316.1 652.2,312.3 694.2,312.3 736.1,312.6 778.1,312.6 820.0,312.6 820.0,316.9 778.1,316.9 736.1,316.9 694.2,316.6 652.2,316.7 610.3,322.1 568.3,322.1 526.4,322.1 484.4,323.7 442.5,324.0 400.6,324.2 358.6,480.0 316.7,480.0 274.7,480.0 232.8,480.0 190.8,480.0 148.9,480.0 106.9,480.0 65.0,480.0" fill="#6E4C13" opacity="0.6" class="anim" style="animation-delay:900ms;"/>
<polygon points="65.0,480.0 106.9,480.0 148.9,480.0 190.8,480.0 232.8,480.0 274.7,480.0 316.7,480.0 358.6,480.0 400.6,312.7 442.5,312.6 484.4,312.4 526.4,310.7 568.3,310.7 610.3,310.6 652.2,307.8 694.2,307.7 736.1,307.7 778.1,307.7 820.0,307.7 820.0,312.6 778.1,312.6 736.1,312.6 694.2,312.3 652.2,312.3 610.3,316.1 568.3,316.1 526.4,316.1 484.4,316.7 442.5,316.9 400.6,317.0 358.6,480.0 316.7,480.0 274.7,480.0 232.8,480.0 190.8,480.0 148.9,480.0 106.9,480.0 65.0,480.0" fill="#083fa1" opacity="0.6" class="anim" style="animation-delay:1000ms;"/>
<polygon points="65.0,480.0 106.9,480.0 148.9,480.0 190.8,480.0 232.8,480.0 274.7,480.0 316.7,480.0 358.6,480.0 400.6,306.5 442.5,306.5 484.4,306.4 526.4,305.4 568.3,305.4 610.3,305.4 652.2,304.0 694.2,304.0 736.1,303.9 778.1,303.9 820.0,303.9 820.0,307.7 778.1,307.7 736.1,307.7 694.2,307.7 652.2,307.8 610.3,310.6 568.3,310.7 526.4,310.7 484.4,312.4 442.5,312.6 400.6,312.7 358.6,480.0 316.7,480.0 274.7,480.0 232.8,480.0 190.8,480.0 148.9,480.0 106.9,480.0 65.0,480.0" fill="#F05138" opacity="0.6" class="anim" style="animation-delay:1100ms;"/>
<polygon points="65.0,480.0 106.9,480.0 148.9,480.0 190.8,480.0 232.8,480.0 274.7,480.0 316.7,480.0 358.6,480.0 400.6,303.3 442.5,303.3 484.4,303.2 526.4,302.8 568.3,302.8 610.3,302.8 652.2,302.0 694.2,302.0 736.1,302.0 778.1,302.0 820.0,302.0 820.0,303.9 778.1,303.9 736.1,303.9 694.2,304.0 652.2,304.0 610.3,305.4 568.3,305.4 526.4,305.4 484.4,306.4 442.5,306.5 400.6,306.5 358.6,480.0 316.7,480.0 274.7,480.0 232.8,480.0 190.8,480.0 148.9,480.0 106.9,480.0 65.0,480.0" fill="#b07219" opacity="0.6" class="anim" style="animation-delay:1200ms;"/>
<text x="65.0" y="498" text-anchor="middle" class="axis-label" transform="rotate(-35 65.0 498)">2026-02-06</text>
<text x="106.9" y="498" text-anchor="middle" class="axis-label" transform="rotate(-35 106.9 498)">2026-02-07</text>
<text x="148.9" y="498" text-anchor="middle" class="axis-label" transform="rotate(-35 148.9 498)">2026-02-08</text>
<text x="190.8" y="498" text-anchor="middle" class="axis-label" transform="rotate(-35 190.8 498)">2026-02-09</text>
<text x="232.8" y="498" text-anchor="middle" class="axis-label" transform="rotate(-35 232.8 498)">2026-02-10</text>
<text x="274.7" y="498" text-anchor="middle" class="axis-label" transform="rotate(-35 274.7 498)">2026-02-11</text>
<text x="316.7" y="498" text-anchor="middle" class="axis-label" transform="rotate(-35 316.7 498)">2026-02-12</text>
<text x="358.6" y="498" text-anchor="middle" class="axis-label" transform="rotate(-35 358.6 498)">2026-02-13</text>
<text x="400.6" y="498" text-anchor="middle" class="axis-label" transform="rotate(-35 400.6 498)">2026-02-14</text>
<text x="442.5" y="498" text-anchor="middle" class="axis-label" transform="rotate(-35 442.5 498)">2026-02-15</text>
<text x="484.4" y="498" text-anchor="middle" class="axis-label" transform="rotate(-35 484.4 498)">2026-02-16</text>
<text x="526.4" y="498" text-anchor="middle" class="axis-label" transform="rotate(-35 526.4 498)">2026-02-17</text>
<text x="568.3" y="498" text-anchor="middle" class="axis-label" transform="rotate(-35 568.3 498)">2026-02-18</text>
<text x="610.3" y="498" text-anchor="middle" class="axis-label" transform="rotate(-35 610.3 498)">2026-02-19</text>
<text x="652.2" y="498" text-anchor="middle" class="axis-label" transform="rotate(-35 652.2 498)">2026-02-20</text>
<text x="694.2" y="498" text-anchor="middle" class="axis-label" transform="rotate(-35 694.2 498)">2026-02-21</text>
<text x="736.1" y="498" text-anchor="middle" class="axis-label" transform="rotate(-35 736.1 498)">2026-02-22</text>
<text x="778.1" y="498" text-anchor="middle" class="axis-label" transform="rotate(-35 778.1 498)">2026-02-23</text>
<text x="820.0" y="498" text-anchor="middle" class="axis-label" transform="rotate(-35 820.0 498)">2026-02-24</text>
<line x1="836" y1="70" x2="856" y2="70" stroke="#3fb950" stroke-width="2"/>
<text x="862" y="74" class="legend-text">Lines Added</text>
<line x1="836" y1="88" x2="856" y2="88" stroke="#f85149" stroke-width="1.5"/>
<text x="862" y="92" class="legend-text">Lines Deleted</text>
<line x1="836" y1="108" x2="856" y2="108" stroke="#e3b341" stroke-width="1.5" stroke-dasharray="4,3"/>
<text x="862" y="112" class="legend-text">&#x2605; Stars</text>
<text x="836" y="142" class="subtitle">Languages</text>
<rect x="836" y="153" width="12" height="12" rx="2" fill="#e34c26" opacity="0.8" class="anim" style="animation-delay:800ms;"/>
<text x="854" y="163" class="legend-text">HTML (68.6%)</text>
<rect x="836" y="175" width="12" height="12" rx="2" fill="#f1e05a" opacity="0.8" class="anim" style="animation-delay:880ms;"/>
<text x="854" y="185" class="legend-text">JavaScript (10.3%)</text>
<rect x="836" y="197" width="12" height="12" rx="2" fill="#3572A5" opacity="0.8" class="anim" style="animation-delay:960ms;"/>
<text x="854" y="207" class="legend-text">Python (8.8%)</text>
<rect x="836" y="219" width="12" height="12" rx="2" fill="#663399" opacity="0.8" class="anim" style="animation-delay:1040ms;"/>
<text x="854" y="229" class="legend-text">CSS (2.9%)</text>
<rect x="836" y="241" width="12" height="12" rx="2" fill="#6E4C13" opacity="0.8" class="anim" style="animation-delay:1120ms;"/>
<text x="854" y="251" class="legend-text">Assembly (2.4%)</text>
<rect x="836" y="263" width="12" height="12" rx="2" fill="#083fa1" opacity="0.8" class="anim" style="animation-delay:1200ms;"/>
<text x="854" y="273" class="legend-text">Markdown (2.7%)</text>
<rect x="836" y="285" width="12" height="12" rx="2" fill="#F05138" opacity="0.8" class="anim" style="animation-delay:1280ms;"/>
<text x="854" y="295" class="legend-text">Swift (2.1%)</text>
<rect x="836" y="307" width="12" height="12" rx="2" fill="#b07219" opacity="0.8" class="anim" style="animation-delay:1360ms;"/>
<text x="854" y="317" class="legend-text">Java (1.1%)</text>
<text x="836" y="358" class="subtitle">Contributions</text>
<text x="836" y="376" class="axis-label">2023: 39</text>
<text x="836" y="392" class="axis-label">2024: 646</text>
<text x="836" y="408" class="axis-label">2025: 1,780</text>
<text x="836" y="424" class="axis-label">2026: 292</text>
<text x="836" y="450" class="subtitle">Statistics</text>
<text x="836" y="468" class="axis-label">Active weeks: 75</text>
<text x="836" y="483" class="axis-label">Add/Del ratio: 2.0x</text>
<text x="836" y="498" class="axis-label">Avg lines/week: 15,667</text>
<text x="836" y="513" class="axis-label">Peak: 2026-02-15</text>
<text x="836" y="528" class="axis-label">  (542,929 lines)</text>
<text x="65" y="746" class="axis-label">Total: +788,255 / -386,789 lines &#xb7; 2,757 contributions &#xb7; 71 repos &#xb7; &#x2605; 33</text>
</svg>