<svg xmlns="http://www.w3.org/2000/svg" width="1000" height="760" style="max-width: 100%;" viewBox="0 0 1000 760">

<defs>
  <linearGradient id="areaGrad" x1="0" y1="0" x2="0" y2="1">
    <stop offset="0%" stop-color="#58a6ff" stop-opacity="0.35"/>
    <stop offset="100%" stop-color="#58a6ff" stop-opacity="0.02"/>
  </linearGradient>
  <linearGradient id="addGrad" x1="0" y1="0" x2="0" y2="1">
    <stop offset="0%" stop-color="#3fb950" stop-opacity="0.35"/>
    <stop offset="100%" stop-color="#3fb950" stop-opacity="0.02"/>
  </linearGradient>
  <linearGradient id="delGrad" x1="0" y1="0" x2="0" y2="1">
    <stop offset="0%" stop-color="#f85149" stop-opacity="0.25"/>
    <stop offset="100%" stop-color="#f85149" stop-opacity="0.02"/>
  </linearGradient>
</defs>
<style>
  .title { font: bold 28px 'Segoe UI', Ubuntu, Sans-Serif; fill: #c9d1d9; }
  .subtitle { font: 600 20px 'Segoe UI', Ubuntu, Sans-Serif; fill: #c9d1d9; opacity: 0.8; }
  .axis-label { font: 18px 'Segoe UI', Ubuntu, Sans-Serif; fill: #c9d1d9; opacity: 0.7; }
  .legend-text { font: 14px 'Segoe UI', Ubuntu, Sans-Serif; fill: #c9d1d9; }
  .value-text { font: bold 18px 'Segoe UI', Ubuntu, Sans-Serif; fill: #c9d1d9; }
  .stat-value { font: bold 22px 'Segoe UI', Ubuntu, Sans-Serif; fill: #c9d1d9; }
  .stat-label { font: 18px 'Segoe UI', Ubuntu, Sans-Serif; fill: #c9d1d9; opacity: 0.7; }
  @keyframes fadeIn { from { opacity: 0; } to { opacity: 1; } }
  .anim { animation: fadeIn 0.6s ease-in-out forwards; opacity: 0; }
</style>

<rect x="0.5" y="0.5" rx="4.5" width="999" height="759" fill="#161b22" stroke="#21262d"/>
<text x="90" y="45" class="title">Activity History</text>
<text x="90" y="72" class="subtitle">Lines added vs deleted &amp; activity trends over time</text>
<line x1="90" y1="340.0" x2="780" y2="340.0" stroke="#21262d" stroke-width="1"/>
<text x="82" y="344.0" text-anchor="end" class="axis-label">0</text>
<line x1="90" y1="280.0" x2="780" y2="280.0" stroke="#21262d" stroke-width="1"/>
<text x="82" y="284.0" text-anchor="end" class="axis-label">706K</text>
<line x1="90" y1="220.0" x2="780" y2="220.0" stroke="#21262d" stroke-width="1"/>
<text x="82" y="224.0" text-anchor="end" class="axis-label">1.4M</text>
<line x1="90" y1="160.0" x2="780" y2="160.0" stroke="#21262d" stroke-width="1"/>
<text x="82" y="164.0" text-anchor="end" class="axis-label">2.1M</text>
<line x1="90" y1="100.0" x2="780" y2="100.0" stroke="#21262d" stroke-width="1"/>
<text x="82" y="104.0" text-anchor="end" class="axis-label">2.8M</text>
<polygon points="90.0,340.0 90.0,309.0 115.6,310.1 141.1,309.0 166.7,310.1 192.2,317.3 217.8,303.0 243.3,303.0 268.9,297.7 294.4,297.5 320.0,297.1 345.6,297.1 371.1,287.6 396.7,287.5 422.2,287.5 447.8,273.4 473.3,273.2 498.9,273.0 524.4,273.0 550.0,273.0 575.6,273.0 601.1,273.0 626.7,272.7 652.2,263.2 677.8,263.2 703.3,263.2 728.9,263.2 754.4,232.1 780.0,201.0 780.0,340.0" fill="url(#addGrad)" class="anim" style="animation-delay:200ms;"/>
<polyline points="90.0,309.0 115.6,310.1 141.1,309.0 166.7,310.1 192.2,317.3 217.8,303.0 243.3,303.0 268.9,297.7 294.4,297.5 320.0,297.1 345.6,297.1 371.1,287.6 396.7,287.5 422.2,287.5 447.8,273.4 473.3,273.2 498.9,273.0 524.4,273.0 550.0,273.0 575.6,273.0 601.1,273.0 626.7,272.7 652.2,263.2 677.8,263.2 703.3,263.2 728.9,263.2" fill="none" stroke="#3fb950" stroke-width="2" stroke-linejoin="round" class="anim" style="animation-delay:250ms;"/>
<polyline points="728.9,263.2 754.4,232.1 780.0,201.0" fill="none" stroke="#3fb950" stroke-width="1.5" stroke-dasharray="5,4" stroke-linejoin="round" opacity="0.6" class="anim" style="animation-delay:250ms;"/>
<polygon points="90.0,340.0 90.0,331.3 115.6,332.2 141.1,331.3 166.7,332.2 192.2,335.9 217.8,330.2 243.3,330.2 268.9,329.6 294.4,329.4 320.0,329.2 345.6,329.2 371.1,318.9 396.7,318.9 422.2,318.9 447.8,307.2 473.3,307.1 498.9,307.1 524.4,307.1 550.0,307.1 575.6,307.1 601.1,307.1 626.7,301.0 652.2,291.8 677.8,291.7 703.3,291.7 728.9,291.7 754.4,265.4 780.0,239.0 780.0,340.0" fill="url(#delGrad)" class="anim" style="animation-delay:300ms;"/>
<polyline points="90.0,331.3 115.6,332.2 141.1,331.3 166.7,332.2 192.2,335.9 217.8,330.2 243.3,330.2 268.9,329.6 294.4,329.4 320.0,329.2 345.6,329.2 371.1,318.9 396.7,318.9 422.2,318.9 447.8,307.2 473.3,307.1 498.9,307.1 524.4,307.1 550.0,307.1 575.6,307.1 601.1,307.1 626.7,301.0 652.2,291.8 677.8,291.7 703.3,291.7 728.9,291.7" fill="none" stroke="#f85149" stroke-width="1.5" stroke-linejoin="round" class="anim" style="animation-delay:350ms;"/>
<polyline points="728.9,291.7 754.4,265.4 780.0,239.0" fill="none" stroke="#f85149" stroke-width="1" stroke-dasharray="5,4" stroke-linejoin="round" opacity="0.6" class="anim" style="animation-delay:350ms;"/>
<polyline points="90.0,340.0 115.6,340.0 141.1,340.0 166.7,340.0 192.2,340.0 217.8,340.0 243.3,340.0 268.9,340.0 294.4,244.0 320.0,244.0 345.6,244.0 371.1,244.0 396.7,244.0 422.2,244.0 447.8,244.0 473.3,244.0 498.9,244.0 524.4,244.0 550.0,244.0 575.6,244.0 601.1,244.0 626.7,244.0 652.2,244.0 677.8,244.0 703.3,244.0 728.9,244.0" fill="none" stroke="#e3b341" stroke-width="1.5" stroke-dasharray="4,3" stroke-linejoin="round" class="anim" style="animation-delay:400ms;"/>
<polyline points="728.9,244.0 754.4,244.0 780.0,148.0" fill="none" stroke="#e3b341" stroke-width="1" stroke-dasharray="3,5" stroke-linejoin="round" opacity="0.5" class="anim" style="animation-delay:400ms;"/>
<text x="90" y="90" class="subtitle">Lines Added vs Deleted (per snapshot)</text>
<text x="90" y="400" class="subtitle">Programming Language Development (%)</text>
<line x1="90" y1="650.0" x2="780" y2="650.0" stroke="#21262d" stroke-width="1"/>
<text x="82" y="654.0" text-anchor="end" class="axis-label">0%</text>
<line x1="90" y1="590.0" x2="780" y2="590.0" stroke="#21262d" stroke-width="1"/>
<text x="82" y="594.0" text-anchor="end" class="axis-label">25%</text>
<line x1="90" y1="530.0" x2="780" y2="530.0" stroke="#21262d" stroke-width="1"/>
<text x="82" y="534.0" text-anchor="end" class="axis-label">50%</text>
<line x1="90" y1="470.0" x2="780" y2="470.0" stroke="#21262d" stroke-width="1"/>
<text x="82" y="474.0" text-anchor="end" class="axis-label">75%</text>
<line x1="90" y1="410.0" x2="780" y2="410.0" stroke="#21262d" stroke-width="1"/>
<text x="82" y="414.0" text-anchor="end" class="axis-label">100%</text>
<polygon points="90.0,650.0 115.6,650.0 141.1,650.0 166.7,650.0 192.2,650.0 217.8,650.0 243.3,650.0 268.9,650.0 294.4,528.2 320.0,528.5 345.6,529.7 371.1,499.3 396.7,499.3 422.2,502.9 447.8,485.0 473.3,485.1 498.9,485.4 524.4,485.4 550.0,485.4 575.6,485.4 601.1,485.4 626.7,496.4 652.2,496.7 677.8,491.0 703.3,491.0 728.9,491.0 754.4,464.7 780.0,445.4 780.0,650.0 754.4,650.0 728.9,650.0 703.3,650.0 677.8,650.0 652.2,650.0 626.7,650.0 601.1,650.0 575.6,650.0 550.0,650.0 524.4,650.0 498.9,650.0 473.3,650.0 447.8,650.0 422.2,650.0 396.7,650.0 371.1,650.0 345.6,650.0 320.0,650.0 294.4,650.0 268.9,650.0 243.3,650.0 217.8,650.0 192.2,650.0 166.7,650.0 141.1,650.0 115.6,650.0 90.0,650.0" fill="#e34c26" opacity="0.6" class="anim" style="animation-delay:500ms;"/>
<polygon points="90.0,650.0 115.6,650.0 141.1,650.0 166.7,650.0 192.2,650.0 217.8,650.0 243.3,650.0 268.9,650.0 294.4,488.4 320.0,488.0 345.6,489.0 371.1,476.0 396.7,476.0 422.2,477.2 447.8,460.1 473.3,460.2 498.9,460.6 524.4,460.6 550.0,460.6 575.6,460.6 601.1,460.6 626.7,473.0 652.2,473.5 677.8,469.5 703.3,469.5 728.9,469.5 754.4,455.5 780.0,445.4 780.0,445.4 754.4,464.7 728.9,491.0 703.3,491.0 677.8,491.0 652.2,496.7 626.7,496.4 601.1,485.4 575.6,485.4 550.0,485.4 524.4,485.4 498.9,485.4 473.3,485.1 447.8,485.0 422.2,502.9 396.7,499.3 371.1,499.3 345.6,529.7 320.0,528.5 294.4,528.2 268.9,650.0 243.3,650.0 217.8,650.0 192.2,650.0 166.7,650.0 141.1,650.0 115.6,650.0 90.0,650.0" fill="#f1e05a" opacity="0.6" class="anim" style="animation-delay:600ms;"/>
<polygon points="90.0,650.0 115.6,650.0 141.1,650.0 166.7,650.0 192.2,650.0 217.8,650.0 243.3,650.0 268.9,650.0 294.4,455.5 320.0,455.4 345.6,455.1 371.1,447.0 396.7,447.0 422.2,448.2 447.8,438.9 473.3,439.0 498.9,439.6 524.4,439.6 550.0,439.6 575.6,439.6 601.1,439.6 626.7,445.6 652.2,445.6 677.8,443.3 703.3,443.3 728.9,443.3 754.4,435.0 780.0,431.1 780.0,445.4 754.4,455.5 728.9,469.5 703.3,469.5 677.8,469.5 652.2,473.5 626.7,473.0 601.1,460.6 575.6,460.6 550.0,460.6 524.4,460.6 498.9,460.6 473.3,460.2 447.8,460.1 422.2,477.2 396.7,476.0 371.1,476.0 345.6,489.0 320.0,488.0 294.4,488.4 268.9,650.0 243.3,650.0 217.8,650.0 192.2,650.0 166.7,650.0 141.1,650.0 115.6,650.0 90.0,650.0" fill="#3572A5" opacity="0.6" class="anim" style="animation-delay:700ms;"/>
<polygon points="90.0,650.0 115.6,650.0 141.1,650.0 166.7,650.0 192.2,650.0 217.8,650.0 243.3,650.0 268.9,650.0 294.4,442.3 320.0,442.0 345.6,441.6 371.1,439.5 396.7,439.5 422.2,439.4 447.8,432.3 473.3,432.2 498.9,432.6 524.4,432.6 550.0,432.6 575.6,432.6 601.1,432.6 626.7,439.3 652.2,439.3 677.8,437.4 703.3,437.4 728.9,437.4 754.4,434.5 780.0,431.1 780.0,431.1 754.4,435.0 728.9,443.3 703.3,443.3 677.8,443.3 652.2,445.6 626.7,445.6 601.1,439.6 575.6,439.6 550.0,439.6 524.4,439.6 498.9,439.6 473.3,439.0 447.8,438.9 422.2,448.2 396.7,447.0 371.1,447.0 345.6,455.1 320.0,455.4 294.4,455.5 268.9,650.0 243.3,650.0 217.8,650.0 192.2,650.0 166.7,650.0 141.1,650.0 115.6,650.0 90.0,650.0" fill="#663399" opacity="0.6" class="anim" style="animation-delay:800ms;"/>
<polygon points="90.0,650.0 115.6,650.0 141.1,650.0 166.7,650.0 192.2,650.0 217.8,650.0 243.3,650.0 268.9,650.0 294.4,436.6 320.0,436.3 345.6,435.9 371.1,432.2 396.7,432.2 422.2,432.2 447.8,426.2 473.3,426.1 498.9,426.0 524.4,426.0 550.0,426.0 575.6,426.0 601.1,426.0 626.7,430.8 652.2,430.7 677.8,429.3 703.3,429.3 728.9,429.3 754.4,424.6 780.0,419.7 780.0,431.1 754.4,434.5 728.9,437.4 703.3,437.4 677.8,437.4 652.2,439.3 626.7,439.3 601.1,432.6 575.6,432.6 550.0,432.6 524.4,432.6 498.9,432.6 473.3,432.2 447.8,432.3 422.2,439.4 396.7,439.5 371.1,439.5 345.6,441.6 320.0,442.0 294.4,442.3 268.9,650.0 243.3,650.0 217.8,650.0 192.2,650.0 166.7,650.0 141.1,650.0 115.6,650.0 90.0,650.0" fill="#083fa1" opacity="0.6" class="anim" style="animation-delay:900ms;"/>
<polygon points="90.0,650.0 115.6,650.0 141.1,650.0 166.7,650.0 192.2,650.0 217.8,650.0 243.3,650.0 268.9,650.0 294.4,427.0 320.0,426.8 345.6,426.6 371.1,424.2 396.7,424.2 422.2,424.2 447.8,420.4 473.3,420.3 498.9,420.3 524.4,420.3 550.0,420.3 575.6,420.3 601.1,420.3 626.7,423.3 652.2,423.2 677.8,422.4 703.3,422.4 728.9,422.4 754.4,419.7 780.0,416.9 780.0,419.7 754.4,424.6 728.9,429.3 703.3,429.3 677.8,429.3 652.2,430.7 626.7,430.8 601.1,426.0 575.6,426.0 550.0,426.0 524.4,426.0 498.9,426.0 473.3,426.1 447.8,426.2 422.2,432.2 396.7,432.2 371.1,432.2 345.6,435.9 320.0,436.3 294.4,436.6 268.9,650.0 243.3,650.0 217.8,650.0 192.2,650.0 166.7,650.0 141.1,650.0 115.6,650.0 90.0,650.0" fill="#6E4C13" opacity="0.6" class="anim" style="animation-delay:1000ms;"/>
<polygon points="90.0,650.0 115.6,650.0 141.1,650.0 166.7,650.0 192.2,650.0 217.8,650.0 243.3,650.0 268.9,650.0 294.4,418.7 320.0,418.6 345.6,418.5 371.1,417.3 396.7,417.3 422.2,417.2 447.8,415.3 473.3,415.3 498.9,415.2 524.4,415.2 550.0,415.2 575.6,415.2 601.1,415.2 626.7,416.8 652.2,416.8 677.8,416.3 703.3,416.3 728.9,416.3 754.4,415.4 780.0,414.5 780.0,416.9 754.4,419.7 728.9,422.4 703.3,422.4 677.8,422.4 652.2,423.2 626.7,423.3 601.1,420.3 575.6,420.3 550.0,420.3 524.4,420.3 498.9,420.3 473.3,420.3 447.8,420.4 422.2,424.2 396.7,424.2 371.1,424.2 345.6,426.6 320.0,426.8 294.4,427.0 268.9,650.0 243.3,650.0 217.8,650.0 192.2,650.0 166.7,650.0 141.1,650.0 115.6,650.0 90.0,650.0" fill="#F05138" opacity="0.6" class="anim" style="animation-delay:1100ms;"/>
<polygon points="90.0,650.0 115.6,650.0 141.1,650.0 166.7,650.0 192.2,650.0 217.8,650.0 243.3,650.0 268.9,650.0 294.4,414.4 320.0,414.4 345.6,414.3 371.1,413.7 396.7,413.7 422.2,413.7 447.8,412.7 473.3,412.7 498.9,412.7 524.4,412.7 550.0,412.7 575.6,412.7 601.1,412.7 626.7,413.5 652.2,413.4 677.8,413.2 703.3,413.2 728.9,413.2 754.4,413.2 780.0,413.2 780.0,414.5 754.4,415.4 728.9,416.3 703.3,416.3 677.8,416.3 652.2,416.8 626.7,416.8 601.1,415.2 575.6,415.2 550.0,415.2 524.4,415.2 498.9,415.2 473.3,415.3 447.8,415.3 422.2,417.2 396.7,417.3 371.1,417.3 345.6,418.5 320.0,418.6 294.4,418.7 268.9,650.0 243.3,650.0 217.8,650.0 192.2,650.0 166.7,650.0 141.1,650.0 115.6,650.0 90.0,650.0" fill="#b07219" opacity="0.6" class="anim" style="animation-delay:1200ms;"/>
<line x1="728.9" y1="100" x2="728.9" y2="650" stroke="#c9d1d9" stroke-width="1" stroke-dasharray="4,3" opacity="0.35"/>
<text x="754.4" y="112" text-anchor="middle" class="axis-label" opacity="0.6">Mar 17, 2026</text>
<text x="90.0" y="668" text-anchor="middle" class="axis-label" transform="rotate(-35 90.0 668)">2026-02</text>
<text x="703.3" y="668" text-anchor="middle" class="axis-label" transform="rotate(-35 703.3 668)">2026-03</text>
<text x="780.0" y="668" text-anchor="middle" class="axis-label" transform="rotate(-35 780.0 668)">Mar 31, 2026</text>
<line x1="796" y1="110" x2="824" y2="110" stroke="#3fb950" stroke-width="2"/>
<text x="832" y="116" class="legend-text">Lines Added</text>
<line x1="796" y1="140" x2="824" y2="140" stroke="#f85149" stroke-width="1.5"/>
<text x="832" y="146" class="legend-text">Lines Deleted</text>
<line x1="796" y1="170" x2="824" y2="170" stroke="#e3b341" stroke-width="1.5" stroke-dasharray="4,3"/>
<text x="832" y="176" class="legend-text">&#x2605; Stars</text>
<text x="796" y="200" class="subtitle">Languages</text>
<rect x="796" y="212" width="12" height="12" rx="2" fill="#e34c26" opacity="0.8" class="anim" style="animation-delay:800ms;"/>
<text x="814" y="223" class="legend-text">HTML (66%→85%)</text>
<rect x="796" y="234" width="12" height="12" rx="2" fill="#f1e05a" opacity="0.8" class="anim" style="animation-delay:880ms;"/>
<text x="814" y="245" class="legend-text">JavaScript (9%→0%)</text>
<rect x="796" y="256" width="12" height="12" rx="2" fill="#3572A5" opacity="0.8" class="anim" style="animation-delay:960ms;"/>
<text x="814" y="267" class="legend-text">Python (11%→6%)</text>
<rect x="796" y="278" width="12" height="12" rx="2" fill="#663399" opacity="0.8" class="anim" style="animation-delay:1040ms;"/>
<text x="814" y="289" class="legend-text">CSS (2%→0%)</text>
<rect x="796" y="300" width="12" height="12" rx="2" fill="#083fa1" opacity="0.8" class="anim" style="animation-delay:1120ms;"/>
<text x="814" y="311" class="legend-text">Markdown (3%→5%)</text>
<rect x="796" y="322" width="12" height="12" rx="2" fill="#6E4C13" opacity="0.8" class="anim" style="animation-delay:1200ms;"/>
<text x="814" y="333" class="legend-text">Assembly (3%→1%)</text>
<rect x="796" y="344" width="12" height="12" rx="2" fill="#F05138" opacity="0.8" class="anim" style="animation-delay:1280ms;"/>
<text x="814" y="355" class="legend-text">Swift (3%→1%)</text>
<rect x="796" y="366" width="12" height="12" rx="2" fill="#b07219" opacity="0.8" class="anim" style="animation-delay:1360ms;"/>
<text x="814" y="377" class="legend-text">Java (1%→1%)</text>
<text x="796" y="412" class="subtitle">Contributions</text>
<text x="796" y="432" class="axis-label">2023: 39</text>
<text x="796" y="452" class="axis-label">2024: 646</text>
<text x="796" y="472" class="axis-label">2025: 1,780</text>
<text x="796" y="492" class="axis-label">2026: 326</text>
<text x="796" y="522" class="subtitle">Statistics</text>
<text x="796" y="542" class="axis-label">Active weeks: 77</text>
<text x="796" y="562" class="axis-label">Add/Del ratio: 1.6x</text>
<text x="796" y="582" class="axis-label">Avg lines/wk: 19K</text>
<text x="796" y="602" class="axis-label">Peak: 2026-02-15</text>
<text x="796" y="622" class="axis-label">  (543K lines)</text>
<text x="90" y="742" class="axis-label">Total: +904,099 / -568,078 lines &#xb7; 2,791 contributions &#xb7; 71 repos &#xb7; &#x2605; 33</text>
</svg>