<svg xmlns="http://www.w3.org/2000/svg" width="1000" height="760" style="max-width: 100%;" viewBox="0 0 1000 760">

<defs>
  <linearGradient id="areaGrad" x1="0" y1="0" x2="0" y2="1">
    <stop offset="0%" stop-color="#58a6ff" stop-opacity="0.35"/>
    <stop offset="100%" stop-color="#58a6ff" stop-opacity="0.02"/>
  </linearGradient>
  <linearGradient id="addGrad" x1="0" y1="0" x2="0" y2="1">
    <stop offset="0%" stop-color="#3fb950" stop-opacity="0.35"/>
    <stop offset="100%" stop-color="#3fb950" stop-opacity="0.02"/>
  </linearGradient>
  <linearGradient id="delGrad" x1="0" y1="0" x2="0" y2="1">
    <stop offset="0%" stop-color="#f85149" stop-opacity="0.25"/>
    <stop offset="100%" stop-color="#f85149" stop-opacity="0.02"/>
  </linearGradient>
</defs>
<style>
  .title { font: bold 28px 'Segoe UI', Ubuntu, Sans-Serif; fill: #c9d1d9; }
  .subtitle { font: 600 20px 'Segoe UI', Ubuntu, Sans-Serif; fill: #c9d1d9; opacity: 0.8; }
  .axis-label { font: 18px 'Segoe UI', Ubuntu, Sans-Serif; fill: #c9d1d9; opacity: 0.7; }
  .legend-text { font: 14px 'Segoe UI', Ubuntu, Sans-Serif; fill: #c9d1d9; }
  .value-text { font: bold 18px 'Segoe UI', Ubuntu, Sans-Serif; fill: #c9d1d9; }
  .stat-value { font: bold 22px 'Segoe UI', Ubuntu, Sans-Serif; fill: #c9d1d9; }
  .stat-label { font: 18px 'Segoe UI', Ubuntu, Sans-Serif; fill: #c9d1d9; opacity: 0.7; }
  @keyframes fadeIn { from { opacity: 0; } to { opacity: 1; } }
  .anim { animation: fadeIn 0.6s ease-in-out forwards; opacity: 0; }
</style>

<rect x="0.5" y="0.5" rx="4.5" width="999" height="759" fill="#161b22" stroke="#21262d"/>
<text x="90" y="45" class="title">Activity History</text>
<text x="90" y="72" class="subtitle">Lines added vs deleted &amp; activity trends over time</text>
<line x1="90" y1="340.0" x2="780" y2="340.0" stroke="#21262d" stroke-width="1"/>
<text x="82" y="344.0" text-anchor="end" class="axis-label">0</text>
<line x1="90" y1="280.0" x2="780" y2="280.0" stroke="#21262d" stroke-width="1"/>
<text x="82" y="284.0" text-anchor="end" class="axis-label">575K</text>
<line x1="90" y1="220.0" x2="780" y2="220.0" stroke="#21262d" stroke-width="1"/>
<text x="82" y="224.0" text-anchor="end" class="axis-label">1.1M</text>
<line x1="90" y1="160.0" x2="780" y2="160.0" stroke="#21262d" stroke-width="1"/>
<text x="82" y="164.0" text-anchor="end" class="axis-label">1.7M</text>
<line x1="90" y1="100.0" x2="780" y2="100.0" stroke="#21262d" stroke-width="1"/>
<text x="82" y="104.0" text-anchor="end" class="axis-label">2.3M</text>
<polygon points="90.0,340.0 90.0,301.9 105.3,303.3 120.7,301.9 136.0,303.3 151.3,312.1 166.7,294.6 182.0,294.6 197.3,288.0 212.7,287.8 228.0,287.3 243.3,287.3 258.7,275.6 274.0,275.6 289.3,275.5 304.7,258.1 320.0,257.9 335.3,257.7 350.7,257.7 366.0,257.7 381.3,257.7 396.7,257.7 412.0,257.3 427.3,245.7 442.7,245.6 458.0,245.6 473.3,245.6 488.7,245.3 504.0,245.3 519.3,244.8 534.7,244.8 550.0,244.8 565.3,244.8 580.7,244.8 596.0,244.8 611.3,244.8 626.7,244.8 642.0,244.8 657.3,244.8 672.7,244.8 688.0,244.8 703.3,244.8 718.7,244.3 734.0,244.5 749.3,244.0 764.7,222.4 780.0,200.8 780.0,340.0" fill="url(#addGrad)" class="anim" style="animation-delay:200ms;"/>
<polyline points="90.0,301.9 105.3,303.3 120.7,301.9 136.0,303.3 151.3,312.1 166.7,294.6 182.0,294.6 197.3,288.0 212.7,287.8 228.0,287.3 243.3,287.3 258.7,275.6 274.0,275.6 289.3,275.5 304.7,258.1 320.0,257.9 335.3,257.7 350.7,257.7 366.0,257.7 381.3,257.7 396.7,257.7 412.0,257.3 427.3,245.7 442.7,245.6 458.0,245.6 473.3,245.6 488.7,245.3 504.0,245.3 519.3,244.8 534.7,244.8 550.0,244.8 565.3,244.8 580.7,244.8 596.0,244.8 611.3,244.8 626.7,244.8 642.0,244.8 657.3,244.8 672.7,244.8 688.0,244.8 703.3,244.8 718.7,244.3 734.0,244.5 749.3,244.0" fill="none" stroke="#3fb950" stroke-width="2" stroke-linejoin="round" class="anim" style="animation-delay:250ms;"/>
<polyline points="749.3,244.0 764.7,222.4 780.0,200.8" fill="none" stroke="#3fb950" stroke-width="1.5" stroke-dasharray="5,4" stroke-linejoin="round" opacity="0.6" class="anim" style="animation-delay:250ms;"/>
<polygon points="90.0,340.0 90.0,329.3 105.3,330.4 120.7,329.3 136.0,330.4 151.3,335.0 166.7,328.0 182.0,328.0 197.3,327.2 212.7,327.0 228.0,326.7 243.3,326.7 258.7,314.1 274.0,314.1 289.3,314.0 304.7,299.7 320.0,299.6 335.3,299.6 350.7,299.6 366.0,299.6 381.3,299.6 396.7,299.6 412.0,292.1 427.3,280.7 442.7,280.7 458.0,280.7 473.3,280.7 488.7,280.6 504.0,280.6 519.3,280.6 534.7,280.5 550.0,280.5 565.3,280.5 580.7,280.5 596.0,280.5 611.3,280.6 626.7,280.5 642.0,280.5 657.3,280.5 672.7,280.5 688.0,280.5 703.3,280.5 718.7,280.5 734.0,280.6 749.3,280.2 764.7,259.7 780.0,239.2 780.0,340.0" fill="url(#delGrad)" class="anim" style="animation-delay:300ms;"/>
<polyline points="90.0,329.3 105.3,330.4 120.7,329.3 136.0,330.4 151.3,335.0 166.7,328.0 182.0,328.0 197.3,327.2 212.7,327.0 228.0,326.7 243.3,326.7 258.7,314.1 274.0,314.1 289.3,314.0 304.7,299.7 320.0,299.6 335.3,299.6 350.7,299.6 366.0,299.6 381.3,299.6 396.7,299.6 412.0,292.1 427.3,280.7 442.7,280.7 458.0,280.7 473.3,280.7 488.7,280.6 504.0,280.6 519.3,280.6 534.7,280.5 550.0,280.5 565.3,280.5 580.7,280.5 596.0,280.5 611.3,280.6 626.7,280.5 642.0,280.5 657.3,280.5 672.7,280.5 688.0,280.5 703.3,280.5 718.7,280.5 734.0,280.6 749.3,280.2" fill="none" stroke="#f85149" stroke-width="1.5" stroke-linejoin="round" class="anim" style="animation-delay:350ms;"/>
<polyline points="749.3,280.2 764.7,259.7 780.0,239.2" fill="none" stroke="#f85149" stroke-width="1" stroke-dasharray="5,4" stroke-linejoin="round" opacity="0.6" class="anim" style="animation-delay:350ms;"/>
<polyline points="90.0,340.0 105.3,340.0 120.7,340.0 136.0,340.0 151.3,340.0 166.7,340.0 182.0,340.0 197.3,340.0 212.7,292.0 228.0,292.0 243.3,292.0 258.7,292.0 274.0,292.0 289.3,292.0 304.7,292.0 320.0,292.0 335.3,292.0 350.7,292.0 366.0,292.0 381.3,292.0 396.7,292.0 412.0,292.0 427.3,292.0 442.7,292.0 458.0,292.0 473.3,292.0 488.7,292.0 504.0,292.0 519.3,292.0 534.7,292.0 550.0,292.0 565.3,292.0 580.7,292.0 596.0,292.0 611.3,244.0 626.7,244.0 642.0,244.0 657.3,244.0 672.7,244.0 688.0,244.0 703.3,244.0 718.7,244.0 734.0,196.0 749.3,196.0" fill="none" stroke="#e3b341" stroke-width="1.5" stroke-dasharray="4,3" stroke-linejoin="round" class="anim" style="animation-delay:400ms;"/>
<polyline points="749.3,196.0 764.7,196.0 780.0,148.0" fill="none" stroke="#e3b341" stroke-width="1" stroke-dasharray="3,5" stroke-linejoin="round" opacity="0.5" class="anim" style="animation-delay:400ms;"/>
<text x="90" y="90" class="subtitle">Lines Added vs Deleted (per snapshot)</text>
<text x="90" y="400" class="subtitle">Programming Language Development (%)</text>
<line x1="90" y1="650.0" x2="780" y2="650.0" stroke="#21262d" stroke-width="1"/>
<text x="82" y="654.0" text-anchor="end" class="axis-label">0%</text>
<line x1="90" y1="590.0" x2="780" y2="590.0" stroke="#21262d" stroke-width="1"/>
<text x="82" y="594.0" text-anchor="end" class="axis-label">25%</text>
<line x1="90" y1="530.0" x2="780" y2="530.0" stroke="#21262d" stroke-width="1"/>
<text x="82" y="534.0" text-anchor="end" class="axis-label">50%</text>
<line x1="90" y1="470.0" x2="780" y2="470.0" stroke="#21262d" stroke-width="1"/>
<text x="82" y="474.0" text-anchor="end" class="axis-label">75%</text>
<line x1="90" y1="410.0" x2="780" y2="410.0" stroke="#21262d" stroke-width="1"/>
<text x="82" y="414.0" text-anchor="end" class="axis-label">100%</text>
<polygon points="90.0,650.0 105.3,650.0 120.7,650.0 136.0,650.0 151.3,650.0 166.7,650.0 182.0,650.0 197.3,650.0 212.7,528.2 228.0,528.5 243.3,529.7 258.7,499.3 274.0,499.3 289.3,502.9 304.7,485.0 320.0,485.1 335.3,485.4 350.7,485.4 366.0,485.4 381.3,485.4 396.7,485.4 412.0,496.4 427.3,496.7 442.7,491.0 458.0,491.0 473.3,491.0 488.7,491.7 504.0,491.8 519.3,494.0 534.7,494.0 550.0,494.4 565.3,494.4 580.7,494.4 596.0,494.4 611.3,507.6 626.7,507.6 642.0,507.9 657.3,507.9 672.7,507.9 688.0,506.3 703.3,506.4 718.7,506.8 734.0,506.9 749.3,506.8 764.7,508.1 780.0,509.4 780.0,650.0 764.7,650.0 749.3,650.0 734.0,650.0 718.7,650.0 703.3,650.0 688.0,650.0 672.7,650.0 657.3,650.0 642.0,650.0 626.7,650.0 611.3,650.0 596.0,650.0 580.7,650.0 565.3,650.0 550.0,650.0 534.7,650.0 519.3,650.0 504.0,650.0 488.7,650.0 473.3,650.0 458.0,650.0 442.7,650.0 427.3,650.0 412.0,650.0 396.7,650.0 381.3,650.0 366.0,650.0 350.7,650.0 335.3,650.0 320.0,650.0 304.7,650.0 289.3,650.0 274.0,650.0 258.7,650.0 243.3,650.0 228.0,650.0 212.7,650.0 197.3,650.0 182.0,650.0 166.7,650.0 151.3,650.0 136.0,650.0 120.7,650.0 105.3,650.0 90.0,650.0" fill="#e34c26" opacity="0.6" class="anim" style="animation-delay:500ms;"/>
<polygon points="90.0,650.0 105.3,650.0 120.7,650.0 136.0,650.0 151.3,650.0 166.7,650.0 182.0,650.0 197.3,650.0 212.7,488.4 228.0,488.0 243.3,489.0 258.7,476.0 274.0,476.0 289.3,477.2 304.7,460.1 320.0,460.2 335.3,460.6 350.7,460.6 366.0,460.6 381.3,460.6 396.7,460.6 412.0,473.0 427.3,473.5 442.7,469.5 458.0,469.5 473.3,469.5 488.7,469.7 504.0,469.7 519.3,469.7 534.7,469.7 550.0,469.7 565.3,469.7 580.7,469.7 596.0,469.7 611.3,455.6 626.7,455.6 642.0,455.4 657.3,455.4 672.7,455.4 688.0,454.3 703.3,454.3 718.7,455.0 734.0,455.1 749.3,454.9 764.7,446.2 780.0,437.6 780.0,509.4 764.7,508.1 749.3,506.8 734.0,506.9 718.7,506.8 703.3,506.4 688.0,506.3 672.7,507.9 657.3,507.9 642.0,507.9 626.7,507.6 611.3,507.6 596.0,494.4 580.7,494.4 565.3,494.4 550.0,494.4 534.7,494.0 519.3,494.0 504.0,491.8 488.7,491.7 473.3,491.0 458.0,491.0 442.7,491.0 427.3,496.7 412.0,496.4 396.7,485.4 381.3,485.4 366.0,485.4 350.7,485.4 335.3,485.4 320.0,485.1 304.7,485.0 289.3,502.9 274.0,499.3 258.7,499.3 243.3,529.7 228.0,528.5 212.7,528.2 197.3,650.0 182.0,650.0 166.7,650.0 151.3,650.0 136.0,650.0 120.7,650.0 105.3,650.0 90.0,650.0" fill="#f1e05a" opacity="0.6" class="anim" style="animation-delay:600ms;"/>
<polygon points="90.0,650.0 105.3,650.0 120.7,650.0 136.0,650.0 151.3,650.0 166.7,650.0 182.0,650.0 197.3,650.0 212.7,455.5 228.0,455.4 243.3,455.1 258.7,447.0 274.0,447.0 289.3,448.2 304.7,438.9 320.0,439.0 335.3,439.6 350.7,439.6 366.0,439.6 381.3,439.6 396.7,439.6 412.0,445.6 427.3,445.6 442.7,443.3 458.0,443.3 473.3,443.3 488.7,443.6 504.0,443.6 519.3,444.1 534.7,444.1 550.0,444.1 565.3,444.1 580.7,444.1 596.0,444.1 611.3,437.5 626.7,437.5 642.0,437.5 657.3,437.5 672.7,437.5 688.0,437.5 703.3,437.5 718.7,438.4 734.0,438.5 749.3,438.3 764.7,434.6 780.0,430.8 780.0,437.6 764.7,446.2 749.3,454.9 734.0,455.1 718.7,455.0 703.3,454.3 688.0,454.3 672.7,455.4 657.3,455.4 642.0,455.4 626.7,455.6 611.3,455.6 596.0,469.7 580.7,469.7 565.3,469.7 550.0,469.7 534.7,469.7 519.3,469.7 504.0,469.7 488.7,469.7 473.3,469.5 458.0,469.5 442.7,469.5 427.3,473.5 412.0,473.0 396.7,460.6 381.3,460.6 366.0,460.6 350.7,460.6 335.3,460.6 320.0,460.2 304.7,460.1 289.3,477.2 274.0,476.0 258.7,476.0 243.3,489.0 228.0,488.0 212.7,488.4 197.3,650.0 182.0,650.0 166.7,650.0 151.3,650.0 136.0,650.0 120.7,650.0 105.3,650.0 90.0,650.0" fill="#3572A5" opacity="0.6" class="anim" style="animation-delay:700ms;"/>
<polygon points="90.0,650.0 105.3,650.0 120.7,650.0 136.0,650.0 151.3,650.0 166.7,650.0 182.0,650.0 197.3,650.0 212.7,442.3 228.0,442.0 243.3,441.6 258.7,439.5 274.0,439.5 289.3,439.4 304.7,432.3 320.0,432.2 335.3,432.6 350.7,432.6 366.0,432.6 381.3,432.6 396.7,432.6 412.0,439.3 427.3,439.3 442.7,437.4 458.0,437.4 473.3,437.4 488.7,437.3 504.0,437.3 519.3,437.1 534.7,437.1 550.0,437.1 565.3,437.1 580.7,437.1 596.0,437.1 611.3,428.7 626.7,428.6 642.0,428.5 657.3,428.5 672.7,428.5 688.0,427.3 703.3,427.3 718.7,427.1 734.0,427.1 749.3,427.1 764.7,423.1 780.0,419.2 780.0,430.8 764.7,434.6 749.3,438.3 734.0,438.5 718.7,438.4 703.3,437.5 688.0,437.5 672.7,437.5 657.3,437.5 642.0,437.5 626.7,437.5 611.3,437.5 596.0,444.1 580.7,444.1 565.3,444.1 550.0,444.1 534.7,444.1 519.3,444.1 504.0,443.6 488.7,443.6 473.3,443.3 458.0,443.3 442.7,443.3 427.3,445.6 412.0,445.6 396.7,439.6 381.3,439.6 366.0,439.6 350.7,439.6 335.3,439.6 320.0,439.0 304.7,438.9 289.3,448.2 274.0,447.0 258.7,447.0 243.3,455.1 228.0,455.4 212.7,455.5 197.3,650.0 182.0,650.0 166.7,650.0 151.3,650.0 136.0,650.0 120.7,650.0 105.3,650.0 90.0,650.0" fill="#663399" opacity="0.6" class="anim" style="animation-delay:800ms;"/>
<polygon points="90.0,650.0 105.3,650.0 120.7,650.0 136.0,650.0 151.3,650.0 166.7,650.0 182.0,650.0 197.3,650.0 212.7,436.6 228.0,436.3 243.3,435.9 258.7,432.2 274.0,432.2 289.3,432.2 304.7,426.2 320.0,426.1 335.3,426.0 350.7,426.0 366.0,426.0 381.3,426.0 396.7,426.0 412.0,430.8 427.3,430.7 442.7,429.3 458.0,429.3 473.3,429.3 488.7,429.2 504.0,429.2 519.3,428.9 534.7,428.9 550.0,428.8 565.3,428.8 580.7,428.8 596.0,428.8 611.3,423.0 626.7,422.9 642.0,422.9 657.3,422.9 672.7,422.9 688.0,422.0 703.3,422.0 718.7,421.9 734.0,421.9 749.3,421.9 764.7,418.3 780.0,414.7 780.0,419.2 764.7,423.1 749.3,427.1 734.0,427.1 718.7,427.1 703.3,427.3 688.0,427.3 672.7,428.5 657.3,428.5 642.0,428.5 626.7,428.6 611.3,428.7 596.0,437.1 580.7,437.1 565.3,437.1 550.0,437.1 534.7,437.1 519.3,437.1 504.0,437.3 488.7,437.3 473.3,437.4 458.0,437.4 442.7,437.4 427.3,439.3 412.0,439.3 396.7,432.6 381.3,432.6 366.0,432.6 350.7,432.6 335.3,432.6 320.0,432.2 304.7,432.3 289.3,439.4 274.0,439.5 258.7,439.5 243.3,441.6 228.0,442.0 212.7,442.3 197.3,650.0 182.0,650.0 166.7,650.0 151.3,650.0 136.0,650.0 120.7,650.0 105.3,650.0 90.0,650.0" fill="#083fa1" opacity="0.6" class="anim" style="animation-delay:900ms;"/>
<polygon points="90.0,650.0 105.3,650.0 120.7,650.0 136.0,650.0 151.3,650.0 166.7,650.0 182.0,650.0 197.3,650.0 212.7,427.0 228.0,426.8 243.3,426.6 258.7,424.2 274.0,424.2 289.3,424.2 304.7,420.4 320.0,420.3 335.3,420.3 350.7,420.3 366.0,420.3 381.3,420.3 396.7,420.3 412.0,423.3 427.3,423.2 442.7,422.4 458.0,422.4 473.3,422.4 488.7,422.3 504.0,422.3 519.3,422.1 534.7,422.1 550.0,422.1 565.3,422.1 580.7,422.1 596.0,422.1 611.3,418.3 626.7,418.3 642.0,418.2 657.3,418.2 672.7,418.2 688.0,417.7 703.3,417.7 718.7,417.6 734.0,417.6 749.3,417.6 764.7,415.6 780.0,413.5 780.0,414.7 764.7,418.3 749.3,421.9 734.0,421.9 718.7,421.9 703.3,422.0 688.0,422.0 672.7,422.9 657.3,422.9 642.0,422.9 626.7,422.9 611.3,423.0 596.0,428.8 580.7,428.8 565.3,428.8 550.0,428.8 534.7,428.9 519.3,428.9 504.0,429.2 488.7,429.2 473.3,429.3 458.0,429.3 442.7,429.3 427.3,430.7 412.0,430.8 396.7,426.0 381.3,426.0 366.0,426.0 350.7,426.0 335.3,426.0 320.0,426.1 304.7,426.2 289.3,432.2 274.0,432.2 258.7,432.2 243.3,435.9 228.0,436.3 212.7,436.6 197.3,650.0 182.0,650.0 166.7,650.0 151.3,650.0 136.0,650.0 120.7,650.0 105.3,650.0 90.0,650.0" fill="#6E4C13" opacity="0.6" class="anim" style="animation-delay:1000ms;"/>
<polygon points="90.0,650.0 105.3,650.0 120.7,650.0 136.0,650.0 151.3,650.0 166.7,650.0 182.0,650.0 197.3,650.0 212.7,418.7 228.0,418.6 243.3,418.5 258.7,417.3 274.0,417.3 289.3,417.2 304.7,415.3 320.0,415.3 335.3,415.2 350.7,415.2 366.0,415.2 381.3,415.2 396.7,415.2 412.0,416.8 427.3,416.8 442.7,416.3 458.0,416.3 473.3,416.3 488.7,416.3 504.0,416.3 519.3,416.2 534.7,416.2 550.0,416.2 565.3,416.2 580.7,416.2 596.0,416.2 611.3,414.2 626.7,414.2 642.0,414.2 657.3,414.2 672.7,414.2 688.0,413.9 703.3,413.9 718.7,413.9 734.0,413.9 749.3,413.9 764.7,413.2 780.0,412.5 780.0,413.5 764.7,415.6 749.3,417.6 734.0,417.6 718.7,417.6 703.3,417.7 688.0,417.7 672.7,418.2 657.3,418.2 642.0,418.2 626.7,418.3 611.3,418.3 596.0,422.1 580.7,422.1 565.3,422.1 550.0,422.1 534.7,422.1 519.3,422.1 504.0,422.3 488.7,422.3 473.3,422.4 458.0,422.4 442.7,422.4 427.3,423.2 412.0,423.3 396.7,420.3 381.3,420.3 366.0,420.3 350.7,420.3 335.3,420.3 320.0,420.3 304.7,420.4 289.3,424.2 274.0,424.2 258.7,424.2 243.3,426.6 228.0,426.8 212.7,427.0 197.3,650.0 182.0,650.0 166.7,650.0 151.3,650.0 136.0,650.0 120.7,650.0 105.3,650.0 90.0,650.0" fill="#F05138" opacity="0.6" class="anim" style="animation-delay:1100ms;"/>
<polygon points="90.0,650.0 105.3,650.0 120.7,650.0 136.0,650.0 151.3,650.0 166.7,650.0 182.0,650.0 197.3,650.0 212.7,414.4 228.0,414.4 243.3,414.3 258.7,413.7 274.0,413.7 289.3,413.7 304.7,412.7 320.0,412.7 335.3,412.7 350.7,412.7 366.0,412.7 381.3,412.7 396.7,412.7 412.0,413.5 427.3,413.4 442.7,413.2 458.0,413.2 473.3,413.2 488.7,413.2 504.0,413.2 519.3,413.1 534.7,413.1 550.0,413.1 565.3,413.1 580.7,413.1 596.0,413.1 611.3,412.2 626.7,412.1 642.0,412.1 657.3,412.1 672.7,412.1 688.0,412.0 703.3,412.0 718.7,412.0 734.0,412.0 749.3,412.0 764.7,412.0 780.0,412.0 780.0,412.5 764.7,413.2 749.3,413.9 734.0,413.9 718.7,413.9 703.3,413.9 688.0,413.9 672.7,414.2 657.3,414.2 642.0,414.2 626.7,414.2 611.3,414.2 596.0,416.2 580.7,416.2 565.3,416.2 550.0,416.2 534.7,416.2 519.3,416.2 504.0,416.3 488.7,416.3 473.3,416.3 458.0,416.3 442.7,416.3 427.3,416.8 412.0,416.8 396.7,415.2 381.3,415.2 366.0,415.2 350.7,415.2 335.3,415.2 320.0,415.3 304.7,415.3 289.3,417.2 274.0,417.3 258.7,417.3 243.3,418.5 228.0,418.6 212.7,418.7 197.3,650.0 182.0,650.0 166.7,650.0 151.3,650.0 136.0,650.0 120.7,650.0 105.3,650.0 90.0,650.0" fill="#b07219" opacity="0.6" class="anim" style="animation-delay:1200ms;"/>
<line x1="749.3" y1="100" x2="749.3" y2="650" stroke="#c9d1d9" stroke-width="1" stroke-dasharray="4,3" opacity="0.35"/>
<text x="764.7" y="112" text-anchor="middle" class="axis-label" opacity="0.6">Apr 04, 2026</text>
<text x="90.0" y="668" text-anchor="middle" class="axis-label" transform="rotate(-35 90.0 668)">2026-02</text>
<text x="473.3" y="668" text-anchor="middle" class="axis-label" transform="rotate(-35 473.3 668)">2026-03</text>
<text x="764.7" y="668" text-anchor="middle" class="axis-label" transform="rotate(-35 764.7 668)">Apr 04, 2026</text>
<line x1="796" y1="110" x2="824" y2="110" stroke="#3fb950" stroke-width="2"/>
<text x="832" y="116" class="legend-text">Lines Added</text>
<line x1="796" y1="140" x2="824" y2="140" stroke="#f85149" stroke-width="1.5"/>
<text x="832" y="146" class="legend-text">Lines Deleted</text>
<line x1="796" y1="170" x2="824" y2="170" stroke="#e3b341" stroke-width="1.5" stroke-dasharray="4,3"/>
<text x="832" y="176" class="legend-text">&#x2605; Stars</text>
<text x="796" y="200" class="subtitle">Languages</text>
<rect x="796" y="212" width="12" height="12" rx="2" fill="#e34c26" opacity="0.8" class="anim" style="animation-delay:800ms;"/>
<text x="814" y="223" class="legend-text">HTML (60%→59%)</text>
<rect x="796" y="234" width="12" height="12" rx="2" fill="#f1e05a" opacity="0.8" class="anim" style="animation-delay:880ms;"/>
<text x="814" y="245" class="legend-text">JavaScript (22%→30%)</text>
<rect x="796" y="256" width="12" height="12" rx="2" fill="#3572A5" opacity="0.8" class="anim" style="animation-delay:960ms;"/>
<text x="814" y="267" class="legend-text">Python (7%→3%)</text>
<rect x="796" y="278" width="12" height="12" rx="2" fill="#663399" opacity="0.8" class="anim" style="animation-delay:1040ms;"/>
<text x="814" y="289" class="legend-text">CSS (5%→5%)</text>
<rect x="796" y="300" width="12" height="12" rx="2" fill="#083fa1" opacity="0.8" class="anim" style="animation-delay:1120ms;"/>
<text x="814" y="311" class="legend-text">Markdown (2%→2%)</text>
<rect x="796" y="322" width="12" height="12" rx="2" fill="#6E4C13" opacity="0.8" class="anim" style="animation-delay:1200ms;"/>
<text x="814" y="333" class="legend-text">Assembly (2%→0%)</text>
<rect x="796" y="344" width="12" height="12" rx="2" fill="#F05138" opacity="0.8" class="anim" style="animation-delay:1280ms;"/>
<text x="814" y="355" class="legend-text">Swift (2%→0%)</text>
<rect x="796" y="366" width="12" height="12" rx="2" fill="#b07219" opacity="0.8" class="anim" style="animation-delay:1360ms;"/>
<text x="814" y="377" class="legend-text">Java (1%→0%)</text>
<text x="796" y="412" class="subtitle">Contributions</text>
<text x="796" y="432" class="axis-label">2023: 39</text>
<text x="796" y="452" class="axis-label">2024: 646</text>
<text x="796" y="472" class="axis-label">2025: 1,780</text>
<text x="796" y="492" class="axis-label">2026: 394</text>
<text x="796" y="522" class="subtitle">Statistics</text>
<text x="796" y="542" class="axis-label">Active weeks: 79</text>
<text x="796" y="562" class="axis-label">Add/Del ratio: 1.6x</text>
<text x="796" y="582" class="axis-label">Avg lines/wk: 19K</text>
<text x="796" y="602" class="axis-label">Peak: 2026-02-15</text>
<text x="796" y="622" class="axis-label">  (543K lines)</text>
<text x="90" y="742" class="axis-label">Total: +919,896 / -572,771 lines &#xb7; 2,859 contributions &#xb7; 76 repos &#xb7; &#x2605; 35</text>
</svg>