<svg xmlns="http://www.w3.org/2000/svg" width="1000" height="760" style="max-width: 100%;" viewBox="0 0 1000 760">

<defs>
  <linearGradient id="areaGrad" x1="0" y1="0" x2="0" y2="1">
    <stop offset="0%" stop-color="#58a6ff" stop-opacity="0.35"/>
    <stop offset="100%" stop-color="#58a6ff" stop-opacity="0.02"/>
  </linearGradient>
  <linearGradient id="addGrad" x1="0" y1="0" x2="0" y2="1">
    <stop offset="0%" stop-color="#3fb950" stop-opacity="0.35"/>
    <stop offset="100%" stop-color="#3fb950" stop-opacity="0.02"/>
  </linearGradient>
  <linearGradient id="delGrad" x1="0" y1="0" x2="0" y2="1">
    <stop offset="0%" stop-color="#f85149" stop-opacity="0.25"/>
    <stop offset="100%" stop-color="#f85149" stop-opacity="0.02"/>
  </linearGradient>
</defs>
<style>
  .title { font: bold 28px 'Segoe UI', Ubuntu, Sans-Serif; fill: #c9d1d9; }
  .subtitle { font: 600 20px 'Segoe UI', Ubuntu, Sans-Serif; fill: #c9d1d9; opacity: 0.8; }
  .axis-label { font: 18px 'Segoe UI', Ubuntu, Sans-Serif; fill: #c9d1d9; opacity: 0.7; }
  .legend-text { font: 14px 'Segoe UI', Ubuntu, Sans-Serif; fill: #c9d1d9; }
  .value-text { font: bold 18px 'Segoe UI', Ubuntu, Sans-Serif; fill: #c9d1d9; }
  .stat-value { font: bold 22px 'Segoe UI', Ubuntu, Sans-Serif; fill: #c9d1d9; }
  .stat-label { font: 18px 'Segoe UI', Ubuntu, Sans-Serif; fill: #c9d1d9; opacity: 0.7; }
  @keyframes fadeIn { from { opacity: 0; } to { opacity: 1; } }
  .anim { animation: fadeIn 0.6s ease-in-out forwards; opacity: 0; }
</style>

<rect x="0.5" y="0.5" rx="4.5" width="999" height="759" fill="#161b22" stroke="#21262d"/>
<text x="90" y="45" class="title">Activity History</text>
<text x="90" y="72" class="subtitle">Lines added vs deleted &amp; activity trends over time</text>
<line x1="90" y1="340.0" x2="780" y2="340.0" stroke="#21262d" stroke-width="1"/>
<text x="82" y="344.0" text-anchor="end" class="axis-label">0</text>
<line x1="90" y1="280.0" x2="780" y2="280.0" stroke="#21262d" stroke-width="1"/>
<text x="82" y="284.0" text-anchor="end" class="axis-label">452K</text>
<line x1="90" y1="220.0" x2="780" y2="220.0" stroke="#21262d" stroke-width="1"/>
<text x="82" y="224.0" text-anchor="end" class="axis-label">904K</text>
<line x1="90" y1="160.0" x2="780" y2="160.0" stroke="#21262d" stroke-width="1"/>
<text x="82" y="164.0" text-anchor="end" class="axis-label">1.4M</text>
<line x1="90" y1="100.0" x2="780" y2="100.0" stroke="#21262d" stroke-width="1"/>
<text x="82" y="104.0" text-anchor="end" class="axis-label">1.8M</text>
<polygon points="90.0,340.0 90.0,291.6 96.9,293.3 103.8,291.6 110.7,293.3 117.6,304.5 124.5,282.3 131.4,282.3 138.3,273.9 145.2,273.6 152.1,273.1 159.0,273.0 165.9,258.1 172.8,258.1 179.7,258.1 186.6,236.0 193.5,235.7 200.4,235.4 207.3,235.4 214.2,235.4 221.1,235.4 228.0,235.4 234.9,234.9 241.8,220.1 248.7,220.0 255.6,220.0 262.5,220.0 269.4,219.7 276.3,219.7 283.2,219.1 290.1,219.1 297.0,219.0 303.9,219.0 310.8,219.0 317.7,219.0 324.6,219.0 331.5,219.0 338.4,219.0 345.3,219.0 352.2,219.0 359.1,219.0 366.0,219.0 372.9,218.4 379.8,218.6 386.7,217.9 393.6,217.6 400.5,217.6 407.4,217.6 414.3,217.6 421.2,217.6 428.1,217.6 435.0,217.6 441.9,217.6 448.8,217.6 455.7,217.6 462.6,217.9 469.5,219.4 476.4,217.9 483.3,216.7 490.2,216.6 497.1,216.6 504.0,216.6 510.9,216.6 517.8,209.0 524.7,202.1 531.6,202.1 538.5,202.1 545.4,202.1 552.3,202.1 559.2,202.1 566.1,202.1 573.0,202.1 579.9,202.0 586.8,202.0 593.7,202.0 600.6,202.0 607.5,202.0 614.4,202.0 621.3,202.0 628.2,202.0 635.1,202.0 642.0,202.0 648.9,202.0 655.8,202.0 662.7,202.0 669.6,202.0 676.5,202.0 683.4,202.0 690.3,202.0 697.2,202.0 704.1,202.0 711.0,202.0 717.9,202.0 724.8,202.0 731.7,202.0 738.6,202.0 745.5,202.0 752.4,202.0 759.3,202.0 766.2,202.0 773.1,194.4 780.0,186.9 780.0,340.0" fill="url(#addGrad)" class="anim" style="animation-delay:200ms;"/>
<polyline points="90.0,291.6 96.9,293.3 103.8,291.6 110.7,293.3 117.6,304.5 124.5,282.3 131.4,282.3 138.3,273.9 145.2,273.6 152.1,273.1 159.0,273.0 165.9,258.1 172.8,258.1 179.7,258.1 186.6,236.0 193.5,235.7 200.4,235.4 207.3,235.4 214.2,235.4 221.1,235.4 228.0,235.4 234.9,234.9 241.8,220.1 248.7,220.0 255.6,220.0 262.5,220.0 269.4,219.7 276.3,219.7 283.2,219.1 290.1,219.1 297.0,219.0 303.9,219.0 310.8,219.0 317.7,219.0 324.6,219.0 331.5,219.0 338.4,219.0 345.3,219.0 352.2,219.0 359.1,219.0 366.0,219.0 372.9,218.4 379.8,218.6 386.7,217.9 393.6,217.6 400.5,217.6 407.4,217.6 414.3,217.6 421.2,217.6 428.1,217.6 435.0,217.6 441.9,217.6 448.8,217.6 455.7,217.6 462.6,217.9 469.5,219.4 476.4,217.9 483.3,216.7 490.2,216.6 497.1,216.6 504.0,216.6 510.9,216.6 517.8,209.0 524.7,202.1 531.6,202.1 538.5,202.1 545.4,202.1 552.3,202.1 559.2,202.1 566.1,202.1 573.0,202.1 579.9,202.0 586.8,202.0 593.7,202.0 600.6,202.0 607.5,202.0 614.4,202.0 621.3,202.0 628.2,202.0 635.1,202.0 642.0,202.0 648.9,202.0 655.8,202.0 662.7,202.0 669.6,202.0 676.5,202.0 683.4,202.0 690.3,202.0 697.2,202.0 704.1,202.0 711.0,202.0 717.9,202.0 724.8,202.0 731.7,202.0 738.6,202.0 745.5,202.0 752.4,202.0 759.3,202.0 766.2,202.0" fill="none" stroke="#3fb950" stroke-width="2" stroke-linejoin="round" class="anim" style="animation-delay:250ms;"/>
<polyline points="766.2,202.0 773.1,194.4 780.0,186.9" fill="none" stroke="#3fb950" stroke-width="1.5" stroke-dasharray="5,4" stroke-linejoin="round" opacity="0.6" class="anim" style="animation-delay:250ms;"/>
<polygon points="90.0,340.0 90.0,326.4 96.9,327.8 103.8,326.4 110.7,327.8 117.6,333.6 124.5,324.7 131.4,324.7 138.3,323.7 145.2,323.4 152.1,323.1 159.0,323.1 165.9,307.1 172.8,307.1 179.7,307.0 186.6,288.8 193.5,288.7 200.4,288.7 207.3,288.7 214.2,288.7 221.1,288.7 228.0,288.7 234.9,279.2 241.8,264.7 248.7,264.6 255.6,264.6 262.5,264.6 269.4,264.6 276.3,264.6 283.2,264.5 290.1,264.4 297.0,264.4 303.9,264.4 310.8,264.4 317.7,264.4 324.6,264.5 331.5,264.4 338.4,264.4 345.3,264.4 352.2,264.4 359.1,264.4 366.0,264.4 372.9,264.4 379.8,264.5 386.7,264.0 393.6,264.0 400.5,264.0 407.4,264.0 414.3,264.0 421.2,264.0 428.1,264.0 435.0,264.0 441.9,264.0 448.8,264.0 455.7,264.0 462.6,264.1 469.5,264.9 476.4,264.4 483.3,263.6 490.2,263.5 497.1,263.5 504.0,263.5 510.9,263.5 517.8,263.5 524.7,263.5 531.6,263.5 538.5,263.5 545.4,263.5 552.3,263.5 559.2,263.5 566.1,263.5 573.0,263.5 579.9,263.5 586.8,263.5 593.7,263.5 600.6,263.5 607.5,263.5 614.4,263.5 621.3,263.5 628.2,263.5 635.1,263.5 642.0,263.5 648.9,263.5 655.8,263.5 662.7,263.5 669.6,263.5 676.5,263.5 683.4,263.5 690.3,263.5 697.2,263.5 704.1,263.5 711.0,263.5 717.9,263.5 724.8,263.5 731.7,263.5 738.6,263.5 745.5,263.5 752.4,263.5 759.3,263.5 766.2,263.5 773.1,258.3 780.0,253.1 780.0,340.0" fill="url(#delGrad)" class="anim" style="animation-delay:300ms;"/>
<polyline points="90.0,326.4 96.9,327.8 103.8,326.4 110.7,327.8 117.6,333.6 124.5,324.7 131.4,324.7 138.3,323.7 145.2,323.4 152.1,323.1 159.0,323.1 165.9,307.1 172.8,307.1 179.7,307.0 186.6,288.8 193.5,288.7 200.4,288.7 207.3,288.7 214.2,288.7 221.1,288.7 228.0,288.7 234.9,279.2 241.8,264.7 248.7,264.6 255.6,264.6 262.5,264.6 269.4,264.6 276.3,264.6 283.2,264.5 290.1,264.4 297.0,264.4 303.9,264.4 310.8,264.4 317.7,264.4 324.6,264.5 331.5,264.4 338.4,264.4 345.3,264.4 352.2,264.4 359.1,264.4 366.0,264.4 372.9,264.4 379.8,264.5 386.7,264.0 393.6,264.0 400.5,264.0 407.4,264.0 414.3,264.0 421.2,264.0 428.1,264.0 435.0,264.0 441.9,264.0 448.8,264.0 455.7,264.0 462.6,264.1 469.5,264.9 476.4,264.4 483.3,263.6 490.2,263.5 497.1,263.5 504.0,263.5 510.9,263.5 517.8,263.5 524.7,263.5 531.6,263.5 538.5,263.5 545.4,263.5 552.3,263.5 559.2,263.5 566.1,263.5 573.0,263.5 579.9,263.5 586.8,263.5 593.7,263.5 600.6,263.5 607.5,263.5 614.4,263.5 621.3,263.5 628.2,263.5 635.1,263.5 642.0,263.5 648.9,263.5 655.8,263.5 662.7,263.5 669.6,263.5 676.5,263.5 683.4,263.5 690.3,263.5 697.2,263.5 704.1,263.5 711.0,263.5 717.9,263.5 724.8,263.5 731.7,263.5 738.6,263.5 745.5,263.5 752.4,263.5 759.3,263.5 766.2,263.5" fill="none" stroke="#f85149" stroke-width="1.5" stroke-linejoin="round" class="anim" style="animation-delay:350ms;"/>
<polyline points="766.2,263.5 773.1,258.3 780.0,253.1" fill="none" stroke="#f85149" stroke-width="1" stroke-dasharray="5,4" stroke-linejoin="round" opacity="0.6" class="anim" style="animation-delay:350ms;"/>
<polyline points="90.0,340.0 96.9,340.0 103.8,340.0 110.7,340.0 117.6,340.0 124.5,340.0 131.4,340.0 138.3,340.0 145.2,308.0 152.1,308.0 159.0,308.0 165.9,308.0 172.8,308.0 179.7,308.0 186.6,308.0 193.5,308.0 200.4,308.0 207.3,308.0 214.2,308.0 221.1,308.0 228.0,308.0 234.9,308.0 241.8,308.0 248.7,308.0 255.6,308.0 262.5,308.0 269.4,308.0 276.3,308.0 283.2,308.0 290.1,308.0 297.0,308.0 303.9,308.0 310.8,308.0 317.7,308.0 324.6,276.0 331.5,276.0 338.4,276.0 345.3,276.0 352.2,276.0 359.1,276.0 366.0,276.0 372.9,276.0 379.8,244.0 386.7,244.0 393.6,244.0 400.5,244.0 407.4,244.0 414.3,244.0 421.2,244.0 428.1,244.0 435.0,244.0 441.9,244.0 448.8,244.0 455.7,244.0 462.6,244.0 469.5,244.0 476.4,244.0 483.3,244.0 490.2,180.0 497.1,180.0 504.0,180.0 510.9,180.0 517.8,180.0 524.7,180.0 531.6,180.0 538.5,180.0 545.4,180.0 552.3,180.0 559.2,180.0 566.1,180.0 573.0,180.0 579.9,180.0 586.8,180.0 593.7,180.0 600.6,180.0 607.5,180.0 614.4,180.0 621.3,180.0 628.2,180.0 635.1,180.0 642.0,180.0 648.9,180.0 655.8,180.0 662.7,180.0 669.6,180.0 676.5,180.0 683.4,180.0 690.3,180.0 697.2,180.0 704.1,180.0 711.0,180.0 717.9,180.0 724.8,180.0 731.7,180.0 738.6,180.0 745.5,180.0 752.4,180.0 759.3,180.0 766.2,180.0" fill="none" stroke="#e3b341" stroke-width="1.5" stroke-dasharray="4,3" stroke-linejoin="round" class="anim" style="animation-delay:400ms;"/>
<polyline points="766.2,180.0 773.1,180.0 780.0,148.0" fill="none" stroke="#e3b341" stroke-width="1" stroke-dasharray="3,5" stroke-linejoin="round" opacity="0.5" class="anim" style="animation-delay:400ms;"/>
<text x="90" y="90" class="subtitle">Lines Added vs Deleted (per snapshot)</text>
<text x="90" y="400" class="subtitle">Programming Language Development (%)</text>
<line x1="90" y1="650.0" x2="780" y2="650.0" stroke="#21262d" stroke-width="1"/>
<text x="82" y="654.0" text-anchor="end" class="axis-label">0%</text>
<line x1="90" y1="590.0" x2="780" y2="590.0" stroke="#21262d" stroke-width="1"/>
<text x="82" y="594.0" text-anchor="end" class="axis-label">25%</text>
<line x1="90" y1="530.0" x2="780" y2="530.0" stroke="#21262d" stroke-width="1"/>
<text x="82" y="534.0" text-anchor="end" class="axis-label">50%</text>
<line x1="90" y1="470.0" x2="780" y2="470.0" stroke="#21262d" stroke-width="1"/>
<text x="82" y="474.0" text-anchor="end" class="axis-label">75%</text>
<line x1="90" y1="410.0" x2="780" y2="410.0" stroke="#21262d" stroke-width="1"/>
<text x="82" y="414.0" text-anchor="end" class="axis-label">100%</text>
<polygon points="90.0,650.0 96.9,650.0 103.8,650.0 110.7,650.0 117.6,650.0 124.5,650.0 131.4,650.0 138.3,650.0 145.2,528.2 152.1,528.5 159.0,529.7 165.9,499.3 172.8,499.3 179.7,502.9 186.6,485.0 193.5,485.1 200.4,485.4 207.3,485.4 214.2,485.4 221.1,485.4 228.0,485.4 234.9,496.4 241.8,496.7 248.7,491.0 255.6,491.0 262.5,491.0 269.4,491.7 276.3,491.8 283.2,494.0 290.1,494.0 297.0,494.4 303.9,494.4 310.8,494.4 317.7,494.4 324.6,507.6 331.5,507.6 338.4,507.9 345.3,507.9 352.2,507.9 359.1,506.3 366.0,506.4 372.9,506.8 379.8,506.9 386.7,506.8 393.6,507.5 400.5,507.5 407.4,507.5 414.3,507.5 421.2,507.5 428.1,507.5 435.0,507.5 441.9,507.5 448.8,507.5 455.7,507.5 462.6,507.5 469.5,507.5 476.4,507.5 483.3,508.6 490.2,508.6 497.1,508.6 504.0,508.6 510.9,508.6 517.8,509.5 524.7,509.8 531.6,509.8 538.5,509.8 545.4,509.8 552.3,509.8 559.2,509.8 566.1,509.8 573.0,509.8 579.9,510.9 586.8,510.9 593.7,510.9 600.6,510.9 607.5,510.9 614.4,510.9 621.3,510.9 628.2,510.9 635.1,510.9 642.0,510.9 648.9,510.9 655.8,510.9 662.7,510.9 669.6,510.9 676.5,510.9 683.4,510.9 690.3,510.9 697.2,510.9 704.1,510.9 711.0,510.9 717.9,510.9 724.8,510.9 731.7,510.9 738.6,510.9 745.5,510.9 752.4,510.9 759.3,510.9 766.2,510.9 773.1,512.9 780.0,514.9 780.0,650.0 773.1,650.0 766.2,650.0 759.3,650.0 752.4,650.0 745.5,650.0 738.6,650.0 731.7,650.0 724.8,650.0 717.9,650.0 711.0,650.0 704.1,650.0 697.2,650.0 690.3,650.0 683.4,650.0 676.5,650.0 669.6,650.0 662.7,650.0 655.8,650.0 648.9,650.0 642.0,650.0 635.1,650.0 628.2,650.0 621.3,650.0 614.4,650.0 607.5,650.0 600.6,650.0 593.7,650.0 586.8,650.0 579.9,650.0 573.0,650.0 566.1,650.0 559.2,650.0 552.3,650.0 545.4,650.0 538.5,650.0 531.6,650.0 524.7,650.0 517.8,650.0 510.9,650.0 504.0,650.0 497.1,650.0 490.2,650.0 483.3,650.0 476.4,650.0 469.5,650.0 462.6,650.0 455.7,650.0 448.8,650.0 441.9,650.0 435.0,650.0 428.1,650.0 421.2,650.0 414.3,650.0 407.4,650.0 400.5,650.0 393.6,650.0 386.7,650.0 379.8,650.0 372.9,650.0 366.0,650.0 359.1,650.0 352.2,650.0 345.3,650.0 338.4,650.0 331.5,650.0 324.6,650.0 317.7,650.0 310.8,650.0 303.9,650.0 297.0,650.0 290.1,650.0 283.2,650.0 276.3,650.0 269.4,650.0 262.5,650.0 255.6,650.0 248.7,650.0 241.8,650.0 234.9,650.0 228.0,650.0 221.1,650.0 214.2,650.0 207.3,650.0 200.4,650.0 193.5,650.0 186.6,650.0 179.7,650.0 172.8,650.0 165.9,650.0 159.0,650.0 152.1,650.0 145.2,650.0 138.3,650.0 131.4,650.0 124.5,650.0 117.6,650.0 110.7,650.0 103.8,650.0 96.9,650.0 90.0,650.0" fill="#e34c26" opacity="0.6" class="anim" style="animation-delay:500ms;"/>
<polygon points="90.0,650.0 96.9,650.0 103.8,650.0 110.7,650.0 117.6,650.0 124.5,650.0 131.4,650.0 138.3,650.0 145.2,488.4 152.1,488.0 159.0,489.0 165.9,476.0 172.8,476.0 179.7,477.2 186.6,460.1 193.5,460.2 200.4,460.6 207.3,460.6 214.2,460.6 221.1,460.6 228.0,460.6 234.9,473.0 241.8,473.5 248.7,469.5 255.6,469.5 262.5,469.5 269.4,469.7 276.3,469.7 283.2,469.7 290.1,469.7 297.0,469.7 303.9,469.7 310.8,469.7 317.7,469.7 324.6,455.6 331.5,455.6 338.4,455.4 345.3,455.4 352.2,455.4 359.1,454.3 366.0,454.3 372.9,455.0 379.8,455.1 386.7,454.9 393.6,455.9 400.5,455.9 407.4,455.9 414.3,455.9 421.2,455.9 428.1,455.9 435.0,455.9 441.9,455.9 448.8,455.9 455.7,455.9 462.6,455.9 469.5,455.9 476.4,455.9 483.3,455.8 490.2,455.8 497.1,455.8 504.0,455.8 510.9,455.8 517.8,457.0 524.7,457.4 531.6,457.4 538.5,457.4 545.4,457.4 552.3,457.4 559.2,457.4 566.1,457.4 573.0,457.4 579.9,458.2 586.8,458.2 593.7,458.2 600.6,458.2 607.5,458.2 614.4,458.2 621.3,458.2 628.2,458.2 635.1,458.2 642.0,458.2 648.9,458.2 655.8,458.2 662.7,458.2 669.6,458.2 676.5,458.2 683.4,458.2 690.3,458.2 697.2,458.2 704.1,458.2 711.0,458.2 717.9,458.2 724.8,458.2 731.7,458.2 738.6,458.2 745.5,458.2 752.4,458.2 759.3,458.2 766.2,458.2 773.1,456.6 780.0,455.1 780.0,514.9 773.1,512.9 766.2,510.9 759.3,510.9 752.4,510.9 745.5,510.9 738.6,510.9 731.7,510.9 724.8,510.9 717.9,510.9 711.0,510.9 704.1,510.9 697.2,510.9 690.3,510.9 683.4,510.9 676.5,510.9 669.6,510.9 662.7,510.9 655.8,510.9 648.9,510.9 642.0,510.9 635.1,510.9 628.2,510.9 621.3,510.9 614.4,510.9 607.5,510.9 600.6,510.9 593.7,510.9 586.8,510.9 579.9,510.9 573.0,509.8 566.1,509.8 559.2,509.8 552.3,509.8 545.4,509.8 538.5,509.8 531.6,509.8 524.7,509.8 517.8,509.5 510.9,508.6 504.0,508.6 497.1,508.6 490.2,508.6 483.3,508.6 476.4,507.5 469.5,507.5 462.6,507.5 455.7,507.5 448.8,507.5 441.9,507.5 435.0,507.5 428.1,507.5 421.2,507.5 414.3,507.5 407.4,507.5 400.5,507.5 393.6,507.5 386.7,506.8 379.8,506.9 372.9,506.8 366.0,506.4 359.1,506.3 352.2,507.9 345.3,507.9 338.4,507.9 331.5,507.6 324.6,507.6 317.7,494.4 310.8,494.4 303.9,494.4 297.0,494.4 290.1,494.0 283.2,494.0 276.3,491.8 269.4,491.7 262.5,491.0 255.6,491.0 248.7,491.0 241.8,496.7 234.9,496.4 228.0,485.4 221.1,485.4 214.2,485.4 207.3,485.4 200.4,485.4 193.5,485.1 186.6,485.0 179.7,502.9 172.8,499.3 165.9,499.3 159.0,529.7 152.1,528.5 145.2,528.2 138.3,650.0 131.4,650.0 124.5,650.0 117.6,650.0 110.7,650.0 103.8,650.0 96.9,650.0 90.0,650.0" fill="#f1e05a" opacity="0.6" class="anim" style="animation-delay:600ms;"/>
<polygon points="90.0,650.0 96.9,650.0 103.8,650.0 110.7,650.0 117.6,650.0 124.5,650.0 131.4,650.0 138.3,650.0 145.2,455.5 152.1,455.4 159.0,455.1 165.9,447.0 172.8,447.0 179.7,448.2 186.6,438.9 193.5,439.0 200.4,439.6 207.3,439.6 214.2,439.6 221.1,439.6 228.0,439.6 234.9,445.6 241.8,445.6 248.7,443.3 255.6,443.3 262.5,443.3 269.4,443.6 276.3,443.6 283.2,444.1 290.1,444.1 297.0,444.1 303.9,444.1 310.8,444.1 317.7,444.1 324.6,437.5 331.5,437.5 338.4,437.5 345.3,437.5 352.2,437.5 359.1,437.5 366.0,437.5 372.9,438.4 379.8,438.5 386.7,438.3 393.6,439.3 400.5,439.3 407.4,439.3 414.3,439.3 421.2,439.3 428.1,439.3 435.0,439.3 441.9,439.3 448.8,439.3 455.7,439.3 462.6,439.3 469.5,439.3 476.4,439.3 483.3,439.4 490.2,439.4 497.1,439.4 504.0,439.4 510.9,439.4 517.8,440.7 524.7,441.1 531.6,441.1 538.5,441.1 545.4,441.1 552.3,441.1 559.2,441.1 566.1,441.1 573.0,441.1 579.9,442.0 586.8,442.0 593.7,442.0 600.6,442.0 607.5,442.0 614.4,442.0 621.3,442.0 628.2,442.0 635.1,442.0 642.0,442.0 648.9,442.0 655.8,442.0 662.7,442.0 669.6,442.0 676.5,442.0 683.4,442.0 690.3,442.0 697.2,442.0 704.1,442.0 711.0,442.0 717.9,442.0 724.8,442.0 731.7,442.0 738.6,442.0 745.5,442.0 752.4,442.0 759.3,442.0 766.2,442.0 773.1,441.9 780.0,441.7 780.0,455.1 773.1,456.6 766.2,458.2 759.3,458.2 752.4,458.2 745.5,458.2 738.6,458.2 731.7,458.2 724.8,458.2 717.9,458.2 711.0,458.2 704.1,458.2 697.2,458.2 690.3,458.2 683.4,458.2 676.5,458.2 669.6,458.2 662.7,458.2 655.8,458.2 648.9,458.2 642.0,458.2 635.1,458.2 628.2,458.2 621.3,458.2 614.4,458.2 607.5,458.2 600.6,458.2 593.7,458.2 586.8,458.2 579.9,458.2 573.0,457.4 566.1,457.4 559.2,457.4 552.3,457.4 545.4,457.4 538.5,457.4 531.6,457.4 524.7,457.4 517.8,457.0 510.9,455.8 504.0,455.8 497.1,455.8 490.2,455.8 483.3,455.8 476.4,455.9 469.5,455.9 462.6,455.9 455.7,455.9 448.8,455.9 441.9,455.9 435.0,455.9 428.1,455.9 421.2,455.9 414.3,455.9 407.4,455.9 400.5,455.9 393.6,455.9 386.7,454.9 379.8,455.1 372.9,455.0 366.0,454.3 359.1,454.3 352.2,455.4 345.3,455.4 338.4,455.4 331.5,455.6 324.6,455.6 317.7,469.7 310.8,469.7 303.9,469.7 297.0,469.7 290.1,469.7 283.2,469.7 276.3,469.7 269.4,469.7 262.5,469.5 255.6,469.5 248.7,469.5 241.8,473.5 234.9,473.0 228.0,460.6 221.1,460.6 214.2,460.6 207.3,460.6 200.4,460.6 193.5,460.2 186.6,460.1 179.7,477.2 172.8,476.0 165.9,476.0 159.0,489.0 152.1,488.0 145.2,488.4 138.3,650.0 131.4,650.0 124.5,650.0 117.6,650.0 110.7,650.0 103.8,650.0 96.9,650.0 90.0,650.0" fill="#3572A5" opacity="0.6" class="anim" style="animation-delay:700ms;"/>
<polygon points="90.0,650.0 96.9,650.0 103.8,650.0 110.7,650.0 117.6,650.0 124.5,650.0 131.4,650.0 138.3,650.0 145.2,442.3 152.1,442.0 159.0,441.6 165.9,439.5 172.8,439.5 179.7,439.4 186.6,432.3 193.5,432.2 200.4,432.6 207.3,432.6 214.2,432.6 221.1,432.6 228.0,432.6 234.9,439.3 241.8,439.3 248.7,437.4 255.6,437.4 262.5,437.4 269.4,437.3 276.3,437.3 283.2,437.1 290.1,437.1 297.0,437.1 303.9,437.1 310.8,437.1 317.7,437.1 324.6,428.7 331.5,428.6 338.4,428.5 345.3,428.5 352.2,428.5 359.1,427.3 366.0,427.3 372.9,427.1 379.8,427.1 386.7,427.1 393.6,427.0 400.5,427.0 407.4,427.0 414.3,427.0 421.2,427.0 428.1,427.0 435.0,427.0 441.9,427.0 448.8,427.0 455.7,427.0 462.6,427.0 469.5,427.0 476.4,427.0 483.3,427.0 490.2,427.1 497.1,427.1 504.0,427.1 510.9,427.1 517.8,428.4 524.7,428.9 531.6,428.9 538.5,428.9 545.4,428.9 552.3,428.9 559.2,428.9 566.1,428.9 573.0,428.9 579.9,428.7 586.8,428.7 593.7,428.7 600.6,428.7 607.5,428.7 614.4,428.7 621.3,428.7 628.2,428.7 635.1,428.7 642.0,428.7 648.9,428.7 655.8,428.7 662.7,428.7 669.6,428.7 676.5,428.7 683.4,428.7 690.3,428.7 697.2,428.7 704.1,428.7 711.0,428.7 717.9,428.7 724.8,428.7 731.7,428.7 738.6,428.7 745.5,428.7 752.4,428.7 759.3,428.7 766.2,428.7 773.1,427.8 780.0,426.9 780.0,441.7 773.1,441.9 766.2,442.0 759.3,442.0 752.4,442.0 745.5,442.0 738.6,442.0 731.7,442.0 724.8,442.0 717.9,442.0 711.0,442.0 704.1,442.0 697.2,442.0 690.3,442.0 683.4,442.0 676.5,442.0 669.6,442.0 662.7,442.0 655.8,442.0 648.9,442.0 642.0,442.0 635.1,442.0 628.2,442.0 621.3,442.0 614.4,442.0 607.5,442.0 600.6,442.0 593.7,442.0 586.8,442.0 579.9,442.0 573.0,441.1 566.1,441.1 559.2,441.1 552.3,441.1 545.4,441.1 538.5,441.1 531.6,441.1 524.7,441.1 517.8,440.7 510.9,439.4 504.0,439.4 497.1,439.4 490.2,439.4 483.3,439.4 476.4,439.3 469.5,439.3 462.6,439.3 455.7,439.3 448.8,439.3 441.9,439.3 435.0,439.3 428.1,439.3 421.2,439.3 414.3,439.3 407.4,439.3 400.5,439.3 393.6,439.3 386.7,438.3 379.8,438.5 372.9,438.4 366.0,437.5 359.1,437.5 352.2,437.5 345.3,437.5 338.4,437.5 331.5,437.5 324.6,437.5 317.7,444.1 310.8,444.1 303.9,444.1 297.0,444.1 290.1,444.1 283.2,444.1 276.3,443.6 269.4,443.6 262.5,443.3 255.6,443.3 248.7,443.3 241.8,445.6 234.9,445.6 228.0,439.6 221.1,439.6 214.2,439.6 207.3,439.6 200.4,439.6 193.5,439.0 186.6,438.9 179.7,448.2 172.8,447.0 165.9,447.0 159.0,455.1 152.1,455.4 145.2,455.5 138.3,650.0 131.4,650.0 124.5,650.0 117.6,650.0 110.7,650.0 103.8,650.0 96.9,650.0 90.0,650.0" fill="#663399" opacity="0.6" class="anim" style="animation-delay:800ms;"/>
<polygon points="90.0,650.0 96.9,650.0 103.8,650.0 110.7,650.0 117.6,650.0 124.5,650.0 131.4,650.0 138.3,650.0 145.2,436.6 152.1,436.3 159.0,435.9 165.9,432.2 172.8,432.2 179.7,432.2 186.6,426.2 193.5,426.1 200.4,426.0 207.3,426.0 214.2,426.0 221.1,426.0 228.0,426.0 234.9,430.8 241.8,430.7 248.7,429.3 255.6,429.3 262.5,429.3 269.4,429.2 276.3,429.2 283.2,428.9 290.1,428.9 297.0,428.8 303.9,428.8 310.8,428.8 317.7,428.8 324.6,423.0 331.5,422.9 338.4,422.9 345.3,422.9 352.2,422.9 359.1,422.0 366.0,422.0 372.9,421.9 379.8,421.9 386.7,421.9 393.6,421.8 400.5,421.8 407.4,421.8 414.3,421.8 421.2,421.8 428.1,421.8 435.0,421.8 441.9,421.8 448.8,421.8 455.7,421.8 462.6,421.8 469.5,421.8 476.4,421.8 483.3,421.7 490.2,421.8 497.1,421.8 504.0,421.8 510.9,421.8 517.8,423.2 524.7,423.6 531.6,423.6 538.5,423.6 545.4,423.6 552.3,423.6 559.2,423.6 566.1,423.6 573.0,423.6 579.9,423.5 586.8,423.5 593.7,423.5 600.6,423.5 607.5,423.5 614.4,423.5 621.3,423.5 628.2,423.5 635.1,423.5 642.0,423.5 648.9,423.5 655.8,423.5 662.7,423.5 669.6,423.5 676.5,423.5 683.4,423.5 690.3,423.5 697.2,423.5 704.1,423.5 711.0,423.5 717.9,423.5 724.8,423.5 731.7,423.5 738.6,423.5 745.5,423.5 752.4,423.5 759.3,423.5 766.2,423.5 773.1,422.9 780.0,422.2 780.0,426.9 773.1,427.8 766.2,428.7 759.3,428.7 752.4,428.7 745.5,428.7 738.6,428.7 731.7,428.7 724.8,428.7 717.9,428.7 711.0,428.7 704.1,428.7 697.2,428.7 690.3,428.7 683.4,428.7 676.5,428.7 669.6,428.7 662.7,428.7 655.8,428.7 648.9,428.7 642.0,428.7 635.1,428.7 628.2,428.7 621.3,428.7 614.4,428.7 607.5,428.7 600.6,428.7 593.7,428.7 586.8,428.7 579.9,428.7 573.0,428.9 566.1,428.9 559.2,428.9 552.3,428.9 545.4,428.9 538.5,428.9 531.6,428.9 524.7,428.9 517.8,428.4 510.9,427.1 504.0,427.1 497.1,427.1 490.2,427.1 483.3,427.0 476.4,427.0 469.5,427.0 462.6,427.0 455.7,427.0 448.8,427.0 441.9,427.0 435.0,427.0 428.1,427.0 421.2,427.0 414.3,427.0 407.4,427.0 400.5,427.0 393.6,427.0 386.7,427.1 379.8,427.1 372.9,427.1 366.0,427.3 359.1,427.3 352.2,428.5 345.3,428.5 338.4,428.5 331.5,428.6 324.6,428.7 317.7,437.1 310.8,437.1 303.9,437.1 297.0,437.1 290.1,437.1 283.2,437.1 276.3,437.3 269.4,437.3 262.5,437.4 255.6,437.4 248.7,437.4 241.8,439.3 234.9,439.3 228.0,432.6 221.1,432.6 214.2,432.6 207.3,432.6 200.4,432.6 193.5,432.2 186.6,432.3 179.7,439.4 172.8,439.5 165.9,439.5 159.0,441.6 152.1,442.0 145.2,442.3 138.3,650.0 131.4,650.0 124.5,650.0 117.6,650.0 110.7,650.0 103.8,650.0 96.9,650.0 90.0,650.0" fill="#083fa1" opacity="0.6" class="anim" style="animation-delay:900ms;"/>
<polygon points="90.0,650.0 96.9,650.0 103.8,650.0 110.7,650.0 117.6,650.0 124.5,650.0 131.4,650.0 138.3,650.0 145.2,428.3 152.1,428.1 159.0,427.8 165.9,425.3 172.8,425.3 179.7,425.2 186.6,421.1 193.5,421.1 200.4,421.0 207.3,421.0 214.2,421.0 221.1,421.0 228.0,421.0 234.9,424.3 241.8,424.2 248.7,423.3 255.6,423.3 262.5,423.3 269.4,423.2 276.3,423.2 283.2,423.0 290.1,423.0 297.0,422.9 303.9,422.9 310.8,422.9 317.7,422.9 324.6,418.9 331.5,418.9 338.4,418.8 345.3,418.8 352.2,418.8 359.1,418.3 366.0,418.3 372.9,418.2 379.8,418.2 386.7,418.2 393.6,418.1 400.5,418.1 407.4,418.1 414.3,418.1 421.2,418.1 428.1,418.1 435.0,418.1 441.9,418.1 448.8,418.1 455.7,418.1 462.6,418.1 469.5,418.1 476.4,418.1 483.3,418.1 490.2,418.1 497.1,418.1 504.0,418.1 510.9,418.1 517.8,418.0 524.7,418.0 531.6,418.0 538.5,418.0 545.4,418.0 552.3,418.0 559.2,418.0 566.1,418.0 573.0,418.0 579.9,417.9 586.8,417.9 593.7,417.9 600.6,417.9 607.5,417.9 614.4,417.9 621.3,417.9 628.2,417.9 635.1,417.9 642.0,417.9 648.9,417.9 655.8,417.9 662.7,417.9 669.6,417.9 676.5,417.9 683.4,417.9 690.3,417.9 697.2,417.9 704.1,417.9 711.0,417.9 717.9,417.9 724.8,417.9 731.7,417.9 738.6,417.9 745.5,417.9 752.4,417.9 759.3,417.9 766.2,417.9 773.1,417.3 780.0,416.7 780.0,422.2 773.1,422.9 766.2,423.5 759.3,423.5 752.4,423.5 745.5,423.5 738.6,423.5 731.7,423.5 724.8,423.5 717.9,423.5 711.0,423.5 704.1,423.5 697.2,423.5 690.3,423.5 683.4,423.5 676.5,423.5 669.6,423.5 662.7,423.5 655.8,423.5 648.9,423.5 642.0,423.5 635.1,423.5 628.2,423.5 621.3,423.5 614.4,423.5 607.5,423.5 600.6,423.5 593.7,423.5 586.8,423.5 579.9,423.5 573.0,423.6 566.1,423.6 559.2,423.6 552.3,423.6 545.4,423.6 538.5,423.6 531.6,423.6 524.7,423.6 517.8,423.2 510.9,421.8 504.0,421.8 497.1,421.8 490.2,421.8 483.3,421.7 476.4,421.8 469.5,421.8 462.6,421.8 455.7,421.8 448.8,421.8 441.9,421.8 435.0,421.8 428.1,421.8 421.2,421.8 414.3,421.8 407.4,421.8 400.5,421.8 393.6,421.8 386.7,421.9 379.8,421.9 372.9,421.9 366.0,422.0 359.1,422.0 352.2,422.9 345.3,422.9 338.4,422.9 331.5,422.9 324.6,423.0 317.7,428.8 310.8,428.8 303.9,428.8 297.0,428.8 290.1,428.9 283.2,428.9 276.3,429.2 269.4,429.2 262.5,429.3 255.6,429.3 248.7,429.3 241.8,430.7 234.9,430.8 228.0,426.0 221.1,426.0 214.2,426.0 207.3,426.0 200.4,426.0 193.5,426.1 186.6,426.2 179.7,432.2 172.8,432.2 165.9,432.2 159.0,435.9 152.1,436.3 145.2,436.6 138.3,650.0 131.4,650.0 124.5,650.0 117.6,650.0 110.7,650.0 103.8,650.0 96.9,650.0 90.0,650.0" fill="#F05138" opacity="0.6" class="anim" style="animation-delay:1000ms;"/>
<polygon points="90.0,650.0 96.9,650.0 103.8,650.0 110.7,650.0 117.6,650.0 124.5,650.0 131.4,650.0 138.3,650.0 145.2,418.7 152.1,418.6 159.0,418.5 165.9,417.3 172.8,417.3 179.7,417.2 186.6,415.3 193.5,415.3 200.4,415.2 207.3,415.2 214.2,415.2 221.1,415.2 228.0,415.2 234.9,416.8 241.8,416.8 248.7,416.3 255.6,416.3 262.5,416.3 269.4,416.3 276.3,416.3 283.2,416.2 290.1,416.2 297.0,416.2 303.9,416.2 310.8,416.2 317.7,416.2 324.6,414.2 331.5,414.2 338.4,414.2 345.3,414.2 352.2,414.2 359.1,413.9 366.0,413.9 372.9,413.9 379.8,413.9 386.7,413.9 393.6,413.9 400.5,413.9 407.4,413.9 414.3,413.9 421.2,413.9 428.1,413.9 435.0,413.9 441.9,413.9 448.8,413.9 455.7,413.9 462.6,413.9 469.5,413.9 476.4,413.9 483.3,413.8 490.2,413.8 497.1,413.8 504.0,413.8 510.9,413.8 517.8,413.8 524.7,413.8 531.6,413.8 538.5,413.8 545.4,413.8 552.3,413.8 559.2,413.8 566.1,413.8 573.0,413.8 579.9,413.8 586.8,413.8 593.7,413.8 600.6,413.8 607.5,413.8 614.4,413.8 621.3,413.8 628.2,413.8 635.1,413.8 642.0,413.8 648.9,413.8 655.8,413.8 662.7,413.8 669.6,413.8 676.5,413.8 683.4,413.8 690.3,413.8 697.2,413.8 704.1,413.8 711.0,413.8 717.9,413.8 724.8,413.8 731.7,413.8 738.6,413.8 745.5,413.8 752.4,413.8 759.3,413.8 766.2,413.8 773.1,413.6 780.0,413.4 780.0,416.7 773.1,417.3 766.2,417.9 759.3,417.9 752.4,417.9 745.5,417.9 738.6,417.9 731.7,417.9 724.8,417.9 717.9,417.9 711.0,417.9 704.1,417.9 697.2,417.9 690.3,417.9 683.4,417.9 676.5,417.9 669.6,417.9 662.7,417.9 655.8,417.9 648.9,417.9 642.0,417.9 635.1,417.9 628.2,417.9 621.3,417.9 614.4,417.9 607.5,417.9 600.6,417.9 593.7,417.9 586.8,417.9 579.9,417.9 573.0,418.0 566.1,418.0 559.2,418.0 552.3,418.0 545.4,418.0 538.5,418.0 531.6,418.0 524.7,418.0 517.8,418.0 510.9,418.1 504.0,418.1 497.1,418.1 490.2,418.1 483.3,418.1 476.4,418.1 469.5,418.1 462.6,418.1 455.7,418.1 448.8,418.1 441.9,418.1 435.0,418.1 428.1,418.1 421.2,418.1 414.3,418.1 407.4,418.1 400.5,418.1 393.6,418.1 386.7,418.2 379.8,418.2 372.9,418.2 366.0,418.3 359.1,418.3 352.2,418.8 345.3,418.8 338.4,418.8 331.5,418.9 324.6,418.9 317.7,422.9 310.8,422.9 303.9,422.9 297.0,422.9 290.1,423.0 283.2,423.0 276.3,423.2 269.4,423.2 262.5,423.3 255.6,423.3 248.7,423.3 241.8,424.2 234.9,424.3 228.0,421.0 221.1,421.0 214.2,421.0 207.3,421.0 200.4,421.0 193.5,421.1 186.6,421.1 179.7,425.2 172.8,425.3 165.9,425.3 159.0,427.8 152.1,428.1 145.2,428.3 138.3,650.0 131.4,650.0 124.5,650.0 117.6,650.0 110.7,650.0 103.8,650.0 96.9,650.0 90.0,650.0" fill="#6E4C13" opacity="0.6" class="anim" style="animation-delay:1100ms;"/>
<polygon points="90.0,650.0 96.9,650.0 103.8,650.0 110.7,650.0 117.6,650.0 124.5,650.0 131.4,650.0 138.3,650.0 145.2,414.4 152.1,414.4 159.0,414.3 165.9,413.7 172.8,413.7 179.7,413.7 186.6,412.7 193.5,412.7 200.4,412.7 207.3,412.7 214.2,412.7 221.1,412.7 228.0,412.7 234.9,413.5 241.8,413.4 248.7,413.2 255.6,413.2 262.5,413.2 269.4,413.2 276.3,413.2 283.2,413.1 290.1,413.1 297.0,413.1 303.9,413.1 310.8,413.1 317.7,413.1 324.6,412.2 331.5,412.1 338.4,412.1 345.3,412.1 352.2,412.1 359.1,412.0 366.0,412.0 372.9,412.0 379.8,412.0 386.7,412.0 393.6,412.0 400.5,412.0 407.4,412.0 414.3,412.0 421.2,412.0 428.1,412.0 435.0,412.0 441.9,412.0 448.8,412.0 455.7,412.0 462.6,412.0 469.5,412.0 476.4,412.0 483.3,411.9 490.2,411.9 497.1,411.9 504.0,411.9 510.9,411.9 517.8,411.9 524.7,411.9 531.6,411.9 538.5,411.9 545.4,411.9 552.3,411.9 559.2,411.9 566.1,411.9 573.0,411.9 579.9,411.9 586.8,411.9 593.7,411.9 600.6,411.9 607.5,411.9 614.4,411.9 621.3,411.9 628.2,411.9 635.1,411.9 642.0,411.9 648.9,411.9 655.8,411.9 662.7,411.9 669.6,411.9 676.5,411.9 683.4,411.9 690.3,411.9 697.2,411.9 704.1,411.9 711.0,411.9 717.9,411.9 724.8,411.9 731.7,411.9 738.6,411.9 745.5,411.9 752.4,411.9 759.3,411.9 766.2,411.9 773.1,411.9 780.0,411.9 780.0,413.4 773.1,413.6 766.2,413.8 759.3,413.8 752.4,413.8 745.5,413.8 738.6,413.8 731.7,413.8 724.8,413.8 717.9,413.8 711.0,413.8 704.1,413.8 697.2,413.8 690.3,413.8 683.4,413.8 676.5,413.8 669.6,413.8 662.7,413.8 655.8,413.8 648.9,413.8 642.0,413.8 635.1,413.8 628.2,413.8 621.3,413.8 614.4,413.8 607.5,413.8 600.6,413.8 593.7,413.8 586.8,413.8 579.9,413.8 573.0,413.8 566.1,413.8 559.2,413.8 552.3,413.8 545.4,413.8 538.5,413.8 531.6,413.8 524.7,413.8 517.8,413.8 510.9,413.8 504.0,413.8 497.1,413.8 490.2,413.8 483.3,413.8 476.4,413.9 469.5,413.9 462.6,413.9 455.7,413.9 448.8,413.9 441.9,413.9 435.0,413.9 428.1,413.9 421.2,413.9 414.3,413.9 407.4,413.9 400.5,413.9 393.6,413.9 386.7,413.9 379.8,413.9 372.9,413.9 366.0,413.9 359.1,413.9 352.2,414.2 345.3,414.2 338.4,414.2 331.5,414.2 324.6,414.2 317.7,416.2 310.8,416.2 303.9,416.2 297.0,416.2 290.1,416.2 283.2,416.2 276.3,416.3 269.4,416.3 262.5,416.3 255.6,416.3 248.7,416.3 241.8,416.8 234.9,416.8 228.0,415.2 221.1,415.2 214.2,415.2 207.3,415.2 200.4,415.2 193.5,415.3 186.6,415.3 179.7,417.2 172.8,417.3 165.9,417.3 159.0,418.5 152.1,418.6 145.2,418.7 138.3,650.0 131.4,650.0 124.5,650.0 117.6,650.0 110.7,650.0 103.8,650.0 96.9,650.0 90.0,650.0" fill="#b07219" opacity="0.6" class="anim" style="animation-delay:1200ms;"/>
<line x1="766.2" y1="100" x2="766.2" y2="650" stroke="#c9d1d9" stroke-width="1" stroke-dasharray="4,3" opacity="0.35"/>
<text x="773.1" y="112" text-anchor="middle" class="axis-label" opacity="0.6">Aug 01, 2026</text>
<text x="90.0" y="668" text-anchor="middle" class="axis-label" transform="rotate(-35 90.0 668)">2026-02</text>
<text x="317.7" y="668" text-anchor="middle" class="axis-label" transform="rotate(-35 317.7 668)">2026-03</text>
<text x="469.5" y="668" text-anchor="middle" class="axis-label" transform="rotate(-35 469.5 668)">2026-04</text>
<text x="545.4" y="668" text-anchor="middle" class="axis-label" transform="rotate(-35 545.4 668)">2026-06</text>
<text x="697.2" y="668" text-anchor="middle" class="axis-label" transform="rotate(-35 697.2 668)">2026-07</text>
<text x="773.1" y="668" text-anchor="middle" class="axis-label" transform="rotate(-35 773.1 668)">Aug 01, 2026</text>
<line x1="796" y1="110" x2="824" y2="110" stroke="#3fb950" stroke-width="2"/>
<text x="832" y="116" class="legend-text">Lines Added</text>
<line x1="796" y1="140" x2="824" y2="140" stroke="#f85149" stroke-width="1.5"/>
<text x="832" y="146" class="legend-text">Lines Deleted</text>
<line x1="796" y1="170" x2="824" y2="170" stroke="#e3b341" stroke-width="1.5" stroke-dasharray="4,3"/>
<text x="832" y="176" class="legend-text">&#x2605; Stars</text>
<text x="796" y="200" class="subtitle">Languages</text>
<rect x="796" y="212" width="12" height="12" rx="2" fill="#e34c26" opacity="0.8" class="anim" style="animation-delay:800ms;"/>
<text x="814" y="223" class="legend-text">HTML (58%→56%)</text>
<rect x="796" y="234" width="12" height="12" rx="2" fill="#f1e05a" opacity="0.8" class="anim" style="animation-delay:880ms;"/>
<text x="814" y="245" class="legend-text">JavaScript (22%→25%)</text>
<rect x="796" y="256" width="12" height="12" rx="2" fill="#3572A5" opacity="0.8" class="anim" style="animation-delay:960ms;"/>
<text x="814" y="267" class="legend-text">Python (7%→6%)</text>
<rect x="796" y="278" width="12" height="12" rx="2" fill="#663399" opacity="0.8" class="anim" style="animation-delay:1040ms;"/>
<text x="814" y="289" class="legend-text">CSS (6%→6%)</text>
<rect x="796" y="300" width="12" height="12" rx="2" fill="#083fa1" opacity="0.8" class="anim" style="animation-delay:1120ms;"/>
<text x="814" y="311" class="legend-text">Markdown (2%→2%)</text>
<rect x="796" y="322" width="12" height="12" rx="2" fill="#F05138" opacity="0.8" class="anim" style="animation-delay:1200ms;"/>
<text x="814" y="333" class="legend-text">Swift (2%)</text>
<rect x="796" y="344" width="12" height="12" rx="2" fill="#6E4C13" opacity="0.8" class="anim" style="animation-delay:1280ms;"/>
<text x="814" y="355" class="legend-text">Assembly (2%→1%)</text>
<rect x="796" y="366" width="12" height="12" rx="2" fill="#b07219" opacity="0.8" class="anim" style="animation-delay:1360ms;"/>
<text x="814" y="377" class="legend-text">Java (1%→1%)</text>
<text x="796" y="412" class="subtitle">Contributions</text>
<text x="796" y="432" class="axis-label">2023: 39</text>
<text x="796" y="452" class="axis-label">2024: 646</text>
<text x="796" y="472" class="axis-label">2025: 1,780</text>
<text x="796" y="492" class="axis-label">2026: 491</text>
<text x="796" y="522" class="subtitle">Statistics</text>
<text x="796" y="542" class="axis-label">Active weeks: 88</text>
<text x="796" y="562" class="axis-label">Add/Del ratio: 1.8x</text>
<text x="796" y="582" class="axis-label">Avg lines/wk: 18K</text>
<text x="796" y="602" class="axis-label">Peak: 2026-02-15</text>
<text x="796" y="622" class="axis-label">  (543K lines)</text>
<text x="90" y="742" class="axis-label">Total: +1,040,332 / -576,819 lines &#xb7; 2,956 contributions &#xb7; 80 repos &#xb7; &#x2605; 37</text>
</svg>