<svg xmlns="http://www.w3.org/2000/svg" width="1000" height="760" style="max-width: 100%;" viewBox="0 0 1000 760">

<defs>
  <linearGradient id="areaGrad" x1="0" y1="0" x2="0" y2="1">
    <stop offset="0%" stop-color="#58a6ff" stop-opacity="0.35"/>
    <stop offset="100%" stop-color="#58a6ff" stop-opacity="0.02"/>
  </linearGradient>
  <linearGradient id="addGrad" x1="0" y1="0" x2="0" y2="1">
    <stop offset="0%" stop-color="#3fb950" stop-opacity="0.35"/>
    <stop offset="100%" stop-color="#3fb950" stop-opacity="0.02"/>
  </linearGradient>
  <linearGradient id="delGrad" x1="0" y1="0" x2="0" y2="1">
    <stop offset="0%" stop-color="#f85149" stop-opacity="0.25"/>
    <stop offset="100%" stop-color="#f85149" stop-opacity="0.02"/>
  </linearGradient>
</defs>
<style>
  .title { font: bold 28px 'Segoe UI', Ubuntu, Sans-Serif; fill: #c9d1d9; }
  .subtitle { font: 600 20px 'Segoe UI', Ubuntu, Sans-Serif; fill: #c9d1d9; opacity: 0.8; }
  .axis-label { font: 18px 'Segoe UI', Ubuntu, Sans-Serif; fill: #c9d1d9; opacity: 0.7; }
  .legend-text { font: 14px 'Segoe UI', Ubuntu, Sans-Serif; fill: #c9d1d9; }
  .value-text { font: bold 18px 'Segoe UI', Ubuntu, Sans-Serif; fill: #c9d1d9; }
  .stat-value { font: bold 22px 'Segoe UI', Ubuntu, Sans-Serif; fill: #c9d1d9; }
  .stat-label { font: 18px 'Segoe UI', Ubuntu, Sans-Serif; fill: #c9d1d9; opacity: 0.7; }
  @keyframes fadeIn { from { opacity: 0; } to { opacity: 1; } }
  .anim { animation: fadeIn 0.6s ease-in-out forwards; opacity: 0; }
</style>

<rect x="0.5" y="0.5" rx="4.5" width="999" height="759" fill="#161b22" stroke="#21262d"/>
<text x="90" y="45" class="title">Activity History</text>
<text x="90" y="72" class="subtitle">Lines added vs deleted &amp; activity trends over time</text>
<line x1="90" y1="340.0" x2="780" y2="340.0" stroke="#21262d" stroke-width="1"/>
<text x="82" y="344.0" text-anchor="end" class="axis-label">0</text>
<line x1="90" y1="280.0" x2="780" y2="280.0" stroke="#21262d" stroke-width="1"/>
<text x="82" y="284.0" text-anchor="end" class="axis-label">441K</text>
<line x1="90" y1="220.0" x2="780" y2="220.0" stroke="#21262d" stroke-width="1"/>
<text x="82" y="224.0" text-anchor="end" class="axis-label">881K</text>
<line x1="90" y1="160.0" x2="780" y2="160.0" stroke="#21262d" stroke-width="1"/>
<text x="82" y="164.0" text-anchor="end" class="axis-label">1.3M</text>
<line x1="90" y1="100.0" x2="780" y2="100.0" stroke="#21262d" stroke-width="1"/>
<text x="82" y="104.0" text-anchor="end" class="axis-label">1.8M</text>
<polygon points="90.0,340.0 90.0,290.3 101.7,292.1 113.4,290.3 125.1,292.1 136.8,303.6 148.5,280.8 160.2,280.8 171.9,272.2 183.6,271.9 195.3,271.3 206.9,271.3 218.6,256.0 230.3,256.0 242.0,255.9 253.7,233.2 265.4,233.0 277.1,232.7 288.8,232.7 300.5,232.7 312.2,232.7 323.9,232.7 335.6,232.1 347.3,217.0 359.0,216.9 370.7,216.9 382.4,216.9 394.1,216.6 405.8,216.6 417.5,215.9 429.2,215.9 440.8,215.8 452.5,215.8 464.2,215.8 475.9,215.8 487.6,215.9 499.3,215.8 511.0,215.8 522.7,215.8 534.4,215.8 546.1,215.8 557.8,215.8 569.5,215.2 581.2,215.4 592.9,214.8 604.6,214.4 616.3,214.4 628.0,214.4 639.7,214.4 651.4,214.4 663.1,214.4 674.7,214.4 686.4,214.4 698.1,214.4 709.8,214.4 721.5,214.7 733.2,216.2 744.9,214.7 756.6,213.4 768.3,204.5 780.0,195.5 780.0,340.0" fill="url(#addGrad)" class="anim" style="animation-delay:200ms;"/>
<polyline points="90.0,290.3 101.7,292.1 113.4,290.3 125.1,292.1 136.8,303.6 148.5,280.8 160.2,280.8 171.9,272.2 183.6,271.9 195.3,271.3 206.9,271.3 218.6,256.0 230.3,256.0 242.0,255.9 253.7,233.2 265.4,233.0 277.1,232.7 288.8,232.7 300.5,232.7 312.2,232.7 323.9,232.7 335.6,232.1 347.3,217.0 359.0,216.9 370.7,216.9 382.4,216.9 394.1,216.6 405.8,216.6 417.5,215.9 429.2,215.9 440.8,215.8 452.5,215.8 464.2,215.8 475.9,215.8 487.6,215.9 499.3,215.8 511.0,215.8 522.7,215.8 534.4,215.8 546.1,215.8 557.8,215.8 569.5,215.2 581.2,215.4 592.9,214.8 604.6,214.4 616.3,214.4 628.0,214.4 639.7,214.4 651.4,214.4 663.1,214.4 674.7,214.4 686.4,214.4 698.1,214.4 709.8,214.4 721.5,214.7 733.2,216.2 744.9,214.7 756.6,213.4" fill="none" stroke="#3fb950" stroke-width="2" stroke-linejoin="round" class="anim" style="animation-delay:250ms;"/>
<polyline points="756.6,213.4 768.3,204.5 780.0,195.5" fill="none" stroke="#3fb950" stroke-width="1.5" stroke-dasharray="5,4" stroke-linejoin="round" opacity="0.6" class="anim" style="animation-delay:250ms;"/>
<polygon points="90.0,340.0 90.0,326.0 101.7,327.5 113.4,326.0 125.1,327.5 136.8,333.4 148.5,324.3 160.2,324.3 171.9,323.3 183.6,323.0 195.3,322.7 206.9,322.7 218.6,306.2 230.3,306.2 242.0,306.1 253.7,287.5 265.4,287.4 277.1,287.3 288.8,287.3 300.5,287.3 312.2,287.3 323.9,287.3 335.6,277.6 347.3,262.7 359.0,262.7 370.7,262.7 382.4,262.7 394.1,262.6 405.8,262.6 417.5,262.5 429.2,262.5 440.8,262.5 452.5,262.5 464.2,262.5 475.9,262.5 487.6,262.5 499.3,262.5 511.0,262.5 522.7,262.5 534.4,262.5 546.1,262.5 557.8,262.5 569.5,262.5 581.2,262.5 592.9,262.0 604.6,262.0 616.3,262.0 628.0,262.0 639.7,262.0 651.4,262.0 663.1,262.0 674.7,262.0 686.4,262.0 698.1,262.0 709.8,262.0 721.5,262.1 733.2,263.0 744.9,262.4 756.6,261.6 768.3,253.0 780.0,244.5 780.0,340.0" fill="url(#delGrad)" class="anim" style="animation-delay:300ms;"/>
<polyline points="90.0,326.0 101.7,327.5 113.4,326.0 125.1,327.5 136.8,333.4 148.5,324.3 160.2,324.3 171.9,323.3 183.6,323.0 195.3,322.7 206.9,322.7 218.6,306.2 230.3,306.2 242.0,306.1 253.7,287.5 265.4,287.4 277.1,287.3 288.8,287.3 300.5,287.3 312.2,287.3 323.9,287.3 335.6,277.6 347.3,262.7 359.0,262.7 370.7,262.7 382.4,262.7 394.1,262.6 405.8,262.6 417.5,262.5 429.2,262.5 440.8,262.5 452.5,262.5 464.2,262.5 475.9,262.5 487.6,262.5 499.3,262.5 511.0,262.5 522.7,262.5 534.4,262.5 546.1,262.5 557.8,262.5 569.5,262.5 581.2,262.5 592.9,262.0 604.6,262.0 616.3,262.0 628.0,262.0 639.7,262.0 651.4,262.0 663.1,262.0 674.7,262.0 686.4,262.0 698.1,262.0 709.8,262.0 721.5,262.1 733.2,263.0 744.9,262.4 756.6,261.6" fill="none" stroke="#f85149" stroke-width="1.5" stroke-linejoin="round" class="anim" style="animation-delay:350ms;"/>
<polyline points="756.6,261.6 768.3,253.0 780.0,244.5" fill="none" stroke="#f85149" stroke-width="1" stroke-dasharray="5,4" stroke-linejoin="round" opacity="0.6" class="anim" style="animation-delay:350ms;"/>
<polyline points="90.0,340.0 101.7,340.0 113.4,340.0 125.1,340.0 136.8,340.0 148.5,340.0 160.2,340.0 171.9,340.0 183.6,276.0 195.3,276.0 206.9,276.0 218.6,276.0 230.3,276.0 242.0,276.0 253.7,276.0 265.4,276.0 277.1,276.0 288.8,276.0 300.5,276.0 312.2,276.0 323.9,276.0 335.6,276.0 347.3,276.0 359.0,276.0 370.7,276.0 382.4,276.0 394.1,276.0 405.8,276.0 417.5,276.0 429.2,276.0 440.8,276.0 452.5,276.0 464.2,276.0 475.9,276.0 487.6,212.0 499.3,212.0 511.0,212.0 522.7,212.0 534.4,212.0 546.1,212.0 557.8,212.0 569.5,212.0 581.2,148.0 592.9,148.0 604.6,148.0 616.3,148.0 628.0,148.0 639.7,148.0 651.4,148.0 663.1,148.0 674.7,148.0 686.4,148.0 698.1,148.0 709.8,148.0 721.5,148.0 733.2,148.0 744.9,148.0 756.6,148.0" fill="none" stroke="#e3b341" stroke-width="1.5" stroke-dasharray="4,3" stroke-linejoin="round" class="anim" style="animation-delay:400ms;"/>
<polyline points="756.6,148.0 768.3,148.0 780.0,148.0" fill="none" stroke="#e3b341" stroke-width="1" stroke-dasharray="3,5" stroke-linejoin="round" opacity="0.5" class="anim" style="animation-delay:400ms;"/>
<text x="90" y="90" class="subtitle">Lines Added vs Deleted (per snapshot)</text>
<text x="90" y="400" class="subtitle">Programming Language Development (%)</text>
<line x1="90" y1="650.0" x2="780" y2="650.0" stroke="#21262d" stroke-width="1"/>
<text x="82" y="654.0" text-anchor="end" class="axis-label">0%</text>
<line x1="90" y1="590.0" x2="780" y2="590.0" stroke="#21262d" stroke-width="1"/>
<text x="82" y="594.0" text-anchor="end" class="axis-label">25%</text>
<line x1="90" y1="530.0" x2="780" y2="530.0" stroke="#21262d" stroke-width="1"/>
<text x="82" y="534.0" text-anchor="end" class="axis-label">50%</text>
<line x1="90" y1="470.0" x2="780" y2="470.0" stroke="#21262d" stroke-width="1"/>
<text x="82" y="474.0" text-anchor="end" class="axis-label">75%</text>
<line x1="90" y1="410.0" x2="780" y2="410.0" stroke="#21262d" stroke-width="1"/>
<text x="82" y="414.0" text-anchor="end" class="axis-label">100%</text>
<polygon points="90.0,650.0 101.7,650.0 113.4,650.0 125.1,650.0 136.8,650.0 148.5,650.0 160.2,650.0 171.9,650.0 183.6,528.2 195.3,528.5 206.9,529.7 218.6,499.3 230.3,499.3 242.0,502.9 253.7,485.0 265.4,485.1 277.1,485.4 288.8,485.4 300.5,485.4 312.2,485.4 323.9,485.4 335.6,496.4 347.3,496.7 359.0,491.0 370.7,491.0 382.4,491.0 394.1,491.7 405.8,491.8 417.5,494.0 429.2,494.0 440.8,494.4 452.5,494.4 464.2,494.4 475.9,494.4 487.6,507.6 499.3,507.6 511.0,507.9 522.7,507.9 534.4,507.9 546.1,506.3 557.8,506.4 569.5,506.8 581.2,506.9 592.9,506.8 604.6,507.5 616.3,507.5 628.0,507.5 639.7,507.5 651.4,507.5 663.1,507.5 674.7,507.5 686.4,507.5 698.1,507.5 709.8,507.5 721.5,507.5 733.2,507.5 744.9,507.5 756.6,508.6 768.3,510.3 780.0,511.9 780.0,650.0 768.3,650.0 756.6,650.0 744.9,650.0 733.2,650.0 721.5,650.0 709.8,650.0 698.1,650.0 686.4,650.0 674.7,650.0 663.1,650.0 651.4,650.0 639.7,650.0 628.0,650.0 616.3,650.0 604.6,650.0 592.9,650.0 581.2,650.0 569.5,650.0 557.8,650.0 546.1,650.0 534.4,650.0 522.7,650.0 511.0,650.0 499.3,650.0 487.6,650.0 475.9,650.0 464.2,650.0 452.5,650.0 440.8,650.0 429.2,650.0 417.5,650.0 405.8,650.0 394.1,650.0 382.4,650.0 370.7,650.0 359.0,650.0 347.3,650.0 335.6,650.0 323.9,650.0 312.2,650.0 300.5,650.0 288.8,650.0 277.1,650.0 265.4,650.0 253.7,650.0 242.0,650.0 230.3,650.0 218.6,650.0 206.9,650.0 195.3,650.0 183.6,650.0 171.9,650.0 160.2,650.0 148.5,650.0 136.8,650.0 125.1,650.0 113.4,650.0 101.7,650.0 90.0,650.0" fill="#e34c26" opacity="0.6" class="anim" style="animation-delay:500ms;"/>
<polygon points="90.0,650.0 101.7,650.0 113.4,650.0 125.1,650.0 136.8,650.0 148.5,650.0 160.2,650.0 171.9,650.0 183.6,488.4 195.3,488.0 206.9,489.0 218.6,476.0 230.3,476.0 242.0,477.2 253.7,460.1 265.4,460.2 277.1,460.6 288.8,460.6 300.5,460.6 312.2,460.6 323.9,460.6 335.6,473.0 347.3,473.5 359.0,469.5 370.7,469.5 382.4,469.5 394.1,469.7 405.8,469.7 417.5,469.7 429.2,469.7 440.8,469.7 452.5,469.7 464.2,469.7 475.9,469.7 487.6,455.6 499.3,455.6 511.0,455.4 522.7,455.4 534.4,455.4 546.1,454.3 557.8,454.3 569.5,455.0 581.2,455.1 592.9,454.9 604.6,455.9 616.3,455.9 628.0,455.9 639.7,455.9 651.4,455.9 663.1,455.9 674.7,455.9 686.4,455.9 698.1,455.9 709.8,455.9 721.5,455.9 733.2,455.9 744.9,455.9 756.6,455.8 768.3,452.7 780.0,449.6 780.0,511.9 768.3,510.3 756.6,508.6 744.9,507.5 733.2,507.5 721.5,507.5 709.8,507.5 698.1,507.5 686.4,507.5 674.7,507.5 663.1,507.5 651.4,507.5 639.7,507.5 628.0,507.5 616.3,507.5 604.6,507.5 592.9,506.8 581.2,506.9 569.5,506.8 557.8,506.4 546.1,506.3 534.4,507.9 522.7,507.9 511.0,507.9 499.3,507.6 487.6,507.6 475.9,494.4 464.2,494.4 452.5,494.4 440.8,494.4 429.2,494.0 417.5,494.0 405.8,491.8 394.1,491.7 382.4,491.0 370.7,491.0 359.0,491.0 347.3,496.7 335.6,496.4 323.9,485.4 312.2,485.4 300.5,485.4 288.8,485.4 277.1,485.4 265.4,485.1 253.7,485.0 242.0,502.9 230.3,499.3 218.6,499.3 206.9,529.7 195.3,528.5 183.6,528.2 171.9,650.0 160.2,650.0 148.5,650.0 136.8,650.0 125.1,650.0 113.4,650.0 101.7,650.0 90.0,650.0" fill="#f1e05a" opacity="0.6" class="anim" style="animation-delay:600ms;"/>
<polygon points="90.0,650.0 101.7,650.0 113.4,650.0 125.1,650.0 136.8,650.0 148.5,650.0 160.2,650.0 171.9,650.0 183.6,455.5 195.3,455.4 206.9,455.1 218.6,447.0 230.3,447.0 242.0,448.2 253.7,438.9 265.4,439.0 277.1,439.6 288.8,439.6 300.5,439.6 312.2,439.6 323.9,439.6 335.6,445.6 347.3,445.6 359.0,443.3 370.7,443.3 382.4,443.3 394.1,443.6 405.8,443.6 417.5,444.1 429.2,444.1 440.8,444.1 452.5,444.1 464.2,444.1 475.9,444.1 487.6,437.5 499.3,437.5 511.0,437.5 522.7,437.5 534.4,437.5 546.1,437.5 557.8,437.5 569.5,438.4 581.2,438.5 592.9,438.3 604.6,439.3 616.3,439.3 628.0,439.3 639.7,439.3 651.4,439.3 663.1,439.3 674.7,439.3 686.4,439.3 698.1,439.3 709.8,439.3 721.5,439.3 733.2,439.3 744.9,439.3 756.6,439.4 768.3,438.3 780.0,437.2 780.0,449.6 768.3,452.7 756.6,455.8 744.9,455.9 733.2,455.9 721.5,455.9 709.8,455.9 698.1,455.9 686.4,455.9 674.7,455.9 663.1,455.9 651.4,455.9 639.7,455.9 628.0,455.9 616.3,455.9 604.6,455.9 592.9,454.9 581.2,455.1 569.5,455.0 557.8,454.3 546.1,454.3 534.4,455.4 522.7,455.4 511.0,455.4 499.3,455.6 487.6,455.6 475.9,469.7 464.2,469.7 452.5,469.7 440.8,469.7 429.2,469.7 417.5,469.7 405.8,469.7 394.1,469.7 382.4,469.5 370.7,469.5 359.0,469.5 347.3,473.5 335.6,473.0 323.9,460.6 312.2,460.6 300.5,460.6 288.8,460.6 277.1,460.6 265.4,460.2 253.7,460.1 242.0,477.2 230.3,476.0 218.6,476.0 206.9,489.0 195.3,488.0 183.6,488.4 171.9,650.0 160.2,650.0 148.5,650.0 136.8,650.0 125.1,650.0 113.4,650.0 101.7,650.0 90.0,650.0" fill="#3572A5" opacity="0.6" class="anim" style="animation-delay:700ms;"/>
<polygon points="90.0,650.0 101.7,650.0 113.4,650.0 125.1,650.0 136.8,650.0 148.5,650.0 160.2,650.0 171.9,650.0 183.6,442.3 195.3,442.0 206.9,441.6 218.6,439.5 230.3,439.5 242.0,439.4 253.7,432.3 265.4,432.2 277.1,432.6 288.8,432.6 300.5,432.6 312.2,432.6 323.9,432.6 335.6,439.3 347.3,439.3 359.0,437.4 370.7,437.4 382.4,437.4 394.1,437.3 405.8,437.3 417.5,437.1 429.2,437.1 440.8,437.1 452.5,437.1 464.2,437.1 475.9,437.1 487.6,428.7 499.3,428.6 511.0,428.5 522.7,428.5 534.4,428.5 546.1,427.3 557.8,427.3 569.5,427.1 581.2,427.1 592.9,427.1 604.6,427.0 616.3,427.0 628.0,427.0 639.7,427.0 651.4,427.0 663.1,427.0 674.7,427.0 686.4,427.0 698.1,427.0 709.8,427.0 721.5,427.0 733.2,427.0 744.9,427.0 756.6,427.0 768.3,425.3 780.0,423.5 780.0,437.2 768.3,438.3 756.6,439.4 744.9,439.3 733.2,439.3 721.5,439.3 709.8,439.3 698.1,439.3 686.4,439.3 674.7,439.3 663.1,439.3 651.4,439.3 639.7,439.3 628.0,439.3 616.3,439.3 604.6,439.3 592.9,438.3 581.2,438.5 569.5,438.4 557.8,437.5 546.1,437.5 534.4,437.5 522.7,437.5 511.0,437.5 499.3,437.5 487.6,437.5 475.9,444.1 464.2,444.1 452.5,444.1 440.8,444.1 429.2,444.1 417.5,444.1 405.8,443.6 394.1,443.6 382.4,443.3 370.7,443.3 359.0,443.3 347.3,445.6 335.6,445.6 323.9,439.6 312.2,439.6 300.5,439.6 288.8,439.6 277.1,439.6 265.4,439.0 253.7,438.9 242.0,448.2 230.3,447.0 218.6,447.0 206.9,455.1 195.3,455.4 183.6,455.5 171.9,650.0 160.2,650.0 148.5,650.0 136.8,650.0 125.1,650.0 113.4,650.0 101.7,650.0 90.0,650.0" fill="#663399" opacity="0.6" class="anim" style="animation-delay:800ms;"/>
<polygon points="90.0,650.0 101.7,650.0 113.4,650.0 125.1,650.0 136.8,650.0 148.5,650.0 160.2,650.0 171.9,650.0 183.6,436.6 195.3,436.3 206.9,435.9 218.6,432.2 230.3,432.2 242.0,432.2 253.7,426.2 265.4,426.1 277.1,426.0 288.8,426.0 300.5,426.0 312.2,426.0 323.9,426.0 335.6,430.8 347.3,430.7 359.0,429.3 370.7,429.3 382.4,429.3 394.1,429.2 405.8,429.2 417.5,428.9 429.2,428.9 440.8,428.8 452.5,428.8 464.2,428.8 475.9,428.8 487.6,423.0 499.3,422.9 511.0,422.9 522.7,422.9 534.4,422.9 546.1,422.0 557.8,422.0 569.5,421.9 581.2,421.9 592.9,421.9 604.6,421.8 616.3,421.8 628.0,421.8 639.7,421.8 651.4,421.8 663.1,421.8 674.7,421.8 686.4,421.8 698.1,421.8 709.8,421.8 721.5,421.8 733.2,421.8 744.9,421.8 756.6,421.7 768.3,420.3 780.0,418.9 780.0,423.5 768.3,425.3 756.6,427.0 744.9,427.0 733.2,427.0 721.5,427.0 709.8,427.0 698.1,427.0 686.4,427.0 674.7,427.0 663.1,427.0 651.4,427.0 639.7,427.0 628.0,427.0 616.3,427.0 604.6,427.0 592.9,427.1 581.2,427.1 569.5,427.1 557.8,427.3 546.1,427.3 534.4,428.5 522.7,428.5 511.0,428.5 499.3,428.6 487.6,428.7 475.9,437.1 464.2,437.1 452.5,437.1 440.8,437.1 429.2,437.1 417.5,437.1 405.8,437.3 394.1,437.3 382.4,437.4 370.7,437.4 359.0,437.4 347.3,439.3 335.6,439.3 323.9,432.6 312.2,432.6 300.5,432.6 288.8,432.6 277.1,432.6 265.4,432.2 253.7,432.3 242.0,439.4 230.3,439.5 218.6,439.5 206.9,441.6 195.3,442.0 183.6,442.3 171.9,650.0 160.2,650.0 148.5,650.0 136.8,650.0 125.1,650.0 113.4,650.0 101.7,650.0 90.0,650.0" fill="#083fa1" opacity="0.6" class="anim" style="animation-delay:900ms;"/>
<polygon points="90.0,650.0 101.7,650.0 113.4,650.0 125.1,650.0 136.8,650.0 148.5,650.0 160.2,650.0 171.9,650.0 183.6,427.0 195.3,426.8 206.9,426.6 218.6,424.2 230.3,424.2 242.0,424.2 253.7,420.4 265.4,420.3 277.1,420.3 288.8,420.3 300.5,420.3 312.2,420.3 323.9,420.3 335.6,423.3 347.3,423.2 359.0,422.4 370.7,422.4 382.4,422.4 394.1,422.3 405.8,422.3 417.5,422.1 429.2,422.1 440.8,422.1 452.5,422.1 464.2,422.1 475.9,422.1 487.6,418.3 499.3,418.3 511.0,418.2 522.7,418.2 534.4,418.2 546.1,417.7 557.8,417.7 569.5,417.6 581.2,417.6 592.9,417.6 604.6,417.6 616.3,417.6 628.0,417.6 639.7,417.6 651.4,417.6 663.1,417.6 674.7,417.6 686.4,417.6 698.1,417.6 709.8,417.6 721.5,417.6 733.2,417.6 744.9,417.6 756.6,417.5 768.3,416.7 780.0,415.9 780.0,418.9 768.3,420.3 756.6,421.7 744.9,421.8 733.2,421.8 721.5,421.8 709.8,421.8 698.1,421.8 686.4,421.8 674.7,421.8 663.1,421.8 651.4,421.8 639.7,421.8 628.0,421.8 616.3,421.8 604.6,421.8 592.9,421.9 581.2,421.9 569.5,421.9 557.8,422.0 546.1,422.0 534.4,422.9 522.7,422.9 511.0,422.9 499.3,422.9 487.6,423.0 475.9,428.8 464.2,428.8 452.5,428.8 440.8,428.8 429.2,428.9 417.5,428.9 405.8,429.2 394.1,429.2 382.4,429.3 370.7,429.3 359.0,429.3 347.3,430.7 335.6,430.8 323.9,426.0 312.2,426.0 300.5,426.0 288.8,426.0 277.1,426.0 265.4,426.1 253.7,426.2 242.0,432.2 230.3,432.2 218.6,432.2 206.9,435.9 195.3,436.3 183.6,436.6 171.9,650.0 160.2,650.0 148.5,650.0 136.8,650.0 125.1,650.0 113.4,650.0 101.7,650.0 90.0,650.0" fill="#6E4C13" opacity="0.6" class="anim" style="animation-delay:1000ms;"/>
<polygon points="90.0,650.0 101.7,650.0 113.4,650.0 125.1,650.0 136.8,650.0 148.5,650.0 160.2,650.0 171.9,650.0 183.6,418.7 195.3,418.6 206.9,418.5 218.6,417.3 230.3,417.3 242.0,417.2 253.7,415.3 265.4,415.3 277.1,415.2 288.8,415.2 300.5,415.2 312.2,415.2 323.9,415.2 335.6,416.8 347.3,416.8 359.0,416.3 370.7,416.3 382.4,416.3 394.1,416.3 405.8,416.3 417.5,416.2 429.2,416.2 440.8,416.2 452.5,416.2 464.2,416.2 475.9,416.2 487.6,414.2 499.3,414.2 511.0,414.2 522.7,414.2 534.4,414.2 546.1,413.9 557.8,413.9 569.5,413.9 581.2,413.9 592.9,413.9 604.6,413.9 616.3,413.9 628.0,413.9 639.7,413.9 651.4,413.9 663.1,413.9 674.7,413.9 686.4,413.9 698.1,413.9 709.8,413.9 721.5,413.9 733.2,413.9 744.9,413.9 756.6,413.8 768.3,413.6 780.0,413.3 780.0,415.9 768.3,416.7 756.6,417.5 744.9,417.6 733.2,417.6 721.5,417.6 709.8,417.6 698.1,417.6 686.4,417.6 674.7,417.6 663.1,417.6 651.4,417.6 639.7,417.6 628.0,417.6 616.3,417.6 604.6,417.6 592.9,417.6 581.2,417.6 569.5,417.6 557.8,417.7 546.1,417.7 534.4,418.2 522.7,418.2 511.0,418.2 499.3,418.3 487.6,418.3 475.9,422.1 464.2,422.1 452.5,422.1 440.8,422.1 429.2,422.1 417.5,422.1 405.8,422.3 394.1,422.3 382.4,422.4 370.7,422.4 359.0,422.4 347.3,423.2 335.6,423.3 323.9,420.3 312.2,420.3 300.5,420.3 288.8,420.3 277.1,420.3 265.4,420.3 253.7,420.4 242.0,424.2 230.3,424.2 218.6,424.2 206.9,426.6 195.3,426.8 183.6,427.0 171.9,650.0 160.2,650.0 148.5,650.0 136.8,650.0 125.1,650.0 113.4,650.0 101.7,650.0 90.0,650.0" fill="#F05138" opacity="0.6" class="anim" style="animation-delay:1100ms;"/>
<polygon points="90.0,650.0 101.7,650.0 113.4,650.0 125.1,650.0 136.8,650.0 148.5,650.0 160.2,650.0 171.9,650.0 183.6,414.4 195.3,414.4 206.9,414.3 218.6,413.7 230.3,413.7 242.0,413.7 253.7,412.7 265.4,412.7 277.1,412.7 288.8,412.7 300.5,412.7 312.2,412.7 323.9,412.7 335.6,413.5 347.3,413.4 359.0,413.2 370.7,413.2 382.4,413.2 394.1,413.2 405.8,413.2 417.5,413.1 429.2,413.1 440.8,413.1 452.5,413.1 464.2,413.1 475.9,413.1 487.6,412.2 499.3,412.1 511.0,412.1 522.7,412.1 534.4,412.1 546.1,412.0 557.8,412.0 569.5,412.0 581.2,412.0 592.9,412.0 604.6,412.0 616.3,412.0 628.0,412.0 639.7,412.0 651.4,412.0 663.1,412.0 674.7,412.0 686.4,412.0 698.1,412.0 709.8,412.0 721.5,412.0 733.2,412.0 744.9,412.0 756.6,411.9 768.3,411.9 780.0,411.9 780.0,413.3 768.3,413.6 756.6,413.8 744.9,413.9 733.2,413.9 721.5,413.9 709.8,413.9 698.1,413.9 686.4,413.9 674.7,413.9 663.1,413.9 651.4,413.9 639.7,413.9 628.0,413.9 616.3,413.9 604.6,413.9 592.9,413.9 581.2,413.9 569.5,413.9 557.8,413.9 546.1,413.9 534.4,414.2 522.7,414.2 511.0,414.2 499.3,414.2 487.6,414.2 475.9,416.2 464.2,416.2 452.5,416.2 440.8,416.2 429.2,416.2 417.5,416.2 405.8,416.3 394.1,416.3 382.4,416.3 370.7,416.3 359.0,416.3 347.3,416.8 335.6,416.8 323.9,415.2 312.2,415.2 300.5,415.2 288.8,415.2 277.1,415.2 265.4,415.3 253.7,415.3 242.0,417.2 230.3,417.3 218.6,417.3 206.9,418.5 195.3,418.6 183.6,418.7 171.9,650.0 160.2,650.0 148.5,650.0 136.8,650.0 125.1,650.0 113.4,650.0 101.7,650.0 90.0,650.0" fill="#b07219" opacity="0.6" class="anim" style="animation-delay:1200ms;"/>
<line x1="756.6" y1="100" x2="756.6" y2="650" stroke="#c9d1d9" stroke-width="1" stroke-dasharray="4,3" opacity="0.35"/>
<text x="768.3" y="112" text-anchor="middle" class="axis-label" opacity="0.6">Jun 19, 2026</text>
<text x="90.0" y="668" text-anchor="middle" class="axis-label" transform="rotate(-35 90.0 668)">2026-02</text>
<text x="370.7" y="668" text-anchor="middle" class="axis-label" transform="rotate(-35 370.7 668)">2026-03</text>
<text x="721.5" y="668" text-anchor="middle" class="axis-label" transform="rotate(-35 721.5 668)">2026-04</text>
<line x1="796" y1="110" x2="824" y2="110" stroke="#3fb950" stroke-width="2"/>
<text x="832" y="116" class="legend-text">Lines Added</text>
<line x1="796" y1="140" x2="824" y2="140" stroke="#f85149" stroke-width="1.5"/>
<text x="832" y="146" class="legend-text">Lines Deleted</text>
<line x1="796" y1="170" x2="824" y2="170" stroke="#e3b341" stroke-width="1.5" stroke-dasharray="4,3"/>
<text x="832" y="176" class="legend-text">&#x2605; Stars</text>
<text x="796" y="200" class="subtitle">Languages</text>
<rect x="796" y="212" width="12" height="12" rx="2" fill="#e34c26" opacity="0.8" class="anim" style="animation-delay:800ms;"/>
<text x="814" y="223" class="legend-text">HTML (59%→58%)</text>
<rect x="796" y="234" width="12" height="12" rx="2" fill="#f1e05a" opacity="0.8" class="anim" style="animation-delay:880ms;"/>
<text x="814" y="245" class="legend-text">JavaScript (22%→26%)</text>
<rect x="796" y="256" width="12" height="12" rx="2" fill="#3572A5" opacity="0.8" class="anim" style="animation-delay:960ms;"/>
<text x="814" y="267" class="legend-text">Python (7%→5%)</text>
<rect x="796" y="278" width="12" height="12" rx="2" fill="#663399" opacity="0.8" class="anim" style="animation-delay:1040ms;"/>
<text x="814" y="289" class="legend-text">CSS (5%→6%)</text>
<rect x="796" y="300" width="12" height="12" rx="2" fill="#083fa1" opacity="0.8" class="anim" style="animation-delay:1120ms;"/>
<text x="814" y="311" class="legend-text">Markdown (2%→2%)</text>
<rect x="796" y="322" width="12" height="12" rx="2" fill="#6E4C13" opacity="0.8" class="anim" style="animation-delay:1200ms;"/>
<text x="814" y="333" class="legend-text">Assembly (2%→1%)</text>
<rect x="796" y="344" width="12" height="12" rx="2" fill="#F05138" opacity="0.8" class="anim" style="animation-delay:1280ms;"/>
<text x="814" y="355" class="legend-text">Swift (2%→1%)</text>
<rect x="796" y="366" width="12" height="12" rx="2" fill="#b07219" opacity="0.8" class="anim" style="animation-delay:1360ms;"/>
<text x="814" y="377" class="legend-text">Java (1%→1%)</text>
<text x="796" y="412" class="subtitle">Contributions</text>
<text x="796" y="432" class="axis-label">2023: 39</text>
<text x="796" y="452" class="axis-label">2024: 646</text>
<text x="796" y="472" class="axis-label">2025: 1,780</text>
<text x="796" y="492" class="axis-label">2026: 468</text>
<text x="796" y="522" class="subtitle">Statistics</text>
<text x="796" y="542" class="axis-label">Active weeks: 86</text>
<text x="796" y="562" class="axis-label">Add/Del ratio: 1.6x</text>
<text x="796" y="582" class="axis-label">Avg lines/wk: 18K</text>
<text x="796" y="602" class="axis-label">Peak: 2026-02-15</text>
<text x="796" y="622" class="axis-label">  (543K lines)</text>
<text x="90" y="742" class="axis-label">Total: +929,636 / -575,946 lines &#xb7; 2,933 contributions &#xb7; 78 repos &#xb7; &#x2605; 35</text>
</svg>