<svg xmlns="http://www.w3.org/2000/svg" width="1000" height="760" style="max-width: 100%;" viewBox="0 0 1000 760">

<defs>
  <linearGradient id="areaGrad" x1="0" y1="0" x2="0" y2="1">
    <stop offset="0%" stop-color="#58a6ff" stop-opacity="0.35"/>
    <stop offset="100%" stop-color="#58a6ff" stop-opacity="0.02"/>
  </linearGradient>
  <linearGradient id="addGrad" x1="0" y1="0" x2="0" y2="1">
    <stop offset="0%" stop-color="#3fb950" stop-opacity="0.35"/>
    <stop offset="100%" stop-color="#3fb950" stop-opacity="0.02"/>
  </linearGradient>
  <linearGradient id="delGrad" x1="0" y1="0" x2="0" y2="1">
    <stop offset="0%" stop-color="#f85149" stop-opacity="0.25"/>
    <stop offset="100%" stop-color="#f85149" stop-opacity="0.02"/>
  </linearGradient>
</defs>
<style>
  .title { font: bold 28px 'Segoe UI', Ubuntu, Sans-Serif; fill: #c9d1d9; }
  .subtitle { font: 600 20px 'Segoe UI', Ubuntu, Sans-Serif; fill: #c9d1d9; opacity: 0.8; }
  .axis-label { font: 18px 'Segoe UI', Ubuntu, Sans-Serif; fill: #c9d1d9; opacity: 0.7; }
  .legend-text { font: 14px 'Segoe UI', Ubuntu, Sans-Serif; fill: #c9d1d9; }
  .value-text { font: bold 18px 'Segoe UI', Ubuntu, Sans-Serif; fill: #c9d1d9; }
  .stat-value { font: bold 22px 'Segoe UI', Ubuntu, Sans-Serif; fill: #c9d1d9; }
  .stat-label { font: 18px 'Segoe UI', Ubuntu, Sans-Serif; fill: #c9d1d9; opacity: 0.7; }
  @keyframes fadeIn { from { opacity: 0; } to { opacity: 1; } }
  .anim { animation: fadeIn 0.6s ease-in-out forwards; opacity: 0; }
</style>

<rect x="0.5" y="0.5" rx="4.5" width="999" height="759" fill="#161b22" stroke="#21262d"/>
<text x="90" y="45" class="title">Activity History</text>
<text x="90" y="72" class="subtitle">Lines added vs deleted &amp; activity trends over time</text>
<line x1="90" y1="340.0" x2="780" y2="340.0" stroke="#21262d" stroke-width="1"/>
<text x="82" y="344.0" text-anchor="end" class="axis-label">0</text>
<line x1="90" y1="280.0" x2="780" y2="280.0" stroke="#21262d" stroke-width="1"/>
<text x="82" y="284.0" text-anchor="end" class="axis-label">648K</text>
<line x1="90" y1="220.0" x2="780" y2="220.0" stroke="#21262d" stroke-width="1"/>
<text x="82" y="224.0" text-anchor="end" class="axis-label">1.3M</text>
<line x1="90" y1="160.0" x2="780" y2="160.0" stroke="#21262d" stroke-width="1"/>
<text x="82" y="164.0" text-anchor="end" class="axis-label">1.9M</text>
<line x1="90" y1="100.0" x2="780" y2="100.0" stroke="#21262d" stroke-width="1"/>
<text x="82" y="104.0" text-anchor="end" class="axis-label">2.6M</text>
<polygon points="90.0,340.0 90.0,306.2 109.7,307.4 129.4,306.2 149.1,307.4 168.9,315.2 188.6,299.7 208.3,299.7 228.0,293.9 247.7,293.7 267.4,293.3 287.1,293.3 306.9,282.8 326.6,282.8 346.3,282.8 366.0,267.4 385.7,267.2 405.4,267.0 425.1,267.0 444.9,267.0 464.6,267.0 484.3,267.0 504.0,266.6 523.7,256.3 543.4,256.3 563.1,256.3 582.9,256.3 602.6,256.0 622.3,256.0 642.0,255.6 661.7,255.6 681.4,255.5 701.1,255.5 720.9,255.5 740.6,255.5 760.3,228.8 780.0,202.0 780.0,340.0" fill="url(#addGrad)" class="anim" style="animation-delay:200ms;"/>
<polyline points="90.0,306.2 109.7,307.4 129.4,306.2 149.1,307.4 168.9,315.2 188.6,299.7 208.3,299.7 228.0,293.9 247.7,293.7 267.4,293.3 287.1,293.3 306.9,282.8 326.6,282.8 346.3,282.8 366.0,267.4 385.7,267.2 405.4,267.0 425.1,267.0 444.9,267.0 464.6,267.0 484.3,267.0 504.0,266.6 523.7,256.3 543.4,256.3 563.1,256.3 582.9,256.3 602.6,256.0 622.3,256.0 642.0,255.6 661.7,255.6 681.4,255.5 701.1,255.5 720.9,255.5 740.6,255.5" fill="none" stroke="#3fb950" stroke-width="2" stroke-linejoin="round" class="anim" style="animation-delay:250ms;"/>
<polyline points="740.6,255.5 760.3,228.8 780.0,202.0" fill="none" stroke="#3fb950" stroke-width="1.5" stroke-dasharray="5,4" stroke-linejoin="round" opacity="0.6" class="anim" style="animation-delay:250ms;"/>
<polygon points="90.0,340.0 90.0,330.5 109.7,331.5 129.4,330.5 149.1,331.5 168.9,335.5 188.6,329.3 208.3,329.3 228.0,328.7 247.7,328.4 267.4,328.2 287.1,328.2 306.9,317.0 326.6,317.0 346.3,317.0 366.0,304.3 385.7,304.2 405.4,304.2 425.1,304.2 444.9,304.2 464.6,304.2 484.3,304.2 504.0,297.6 523.7,287.4 543.4,287.4 563.1,287.4 582.9,287.4 602.6,287.3 622.3,287.3 642.0,287.3 661.7,287.3 681.4,287.3 701.1,287.3 720.9,287.3 740.6,287.3 760.3,262.6 780.0,238.0 780.0,340.0" fill="url(#delGrad)" class="anim" style="animation-delay:300ms;"/>
<polyline points="90.0,330.5 109.7,331.5 129.4,330.5 149.1,331.5 168.9,335.5 188.6,329.3 208.3,329.3 228.0,328.7 247.7,328.4 267.4,328.2 287.1,328.2 306.9,317.0 326.6,317.0 346.3,317.0 366.0,304.3 385.7,304.2 405.4,304.2 425.1,304.2 444.9,304.2 464.6,304.2 484.3,304.2 504.0,297.6 523.7,287.4 543.4,287.4 563.1,287.4 582.9,287.4 602.6,287.3 622.3,287.3 642.0,287.3 661.7,287.3 681.4,287.3 701.1,287.3 720.9,287.3 740.6,287.3" fill="none" stroke="#f85149" stroke-width="1.5" stroke-linejoin="round" class="anim" style="animation-delay:350ms;"/>
<polyline points="740.6,287.3 760.3,262.6 780.0,238.0" fill="none" stroke="#f85149" stroke-width="1" stroke-dasharray="5,4" stroke-linejoin="round" opacity="0.6" class="anim" style="animation-delay:350ms;"/>
<polyline points="90.0,340.0 109.7,340.0 129.4,340.0 149.1,340.0 168.9,340.0 188.6,340.0 208.3,340.0 228.0,340.0 247.7,148.0 267.4,148.0 287.1,148.0 306.9,148.0 326.6,148.0 346.3,148.0 366.0,148.0 385.7,148.0 405.4,148.0 425.1,148.0 444.9,148.0 464.6,148.0 484.3,148.0 504.0,148.0 523.7,148.0 543.4,148.0 563.1,148.0 582.9,148.0 602.6,148.0 622.3,148.0 642.0,148.0 661.7,148.0 681.4,148.0 701.1,148.0 720.9,148.0 740.6,148.0" fill="none" stroke="#e3b341" stroke-width="1.5" stroke-dasharray="4,3" stroke-linejoin="round" class="anim" style="animation-delay:400ms;"/>
<polyline points="740.6,148.0 760.3,148.0 780.0,148.0" fill="none" stroke="#e3b341" stroke-width="1" stroke-dasharray="3,5" stroke-linejoin="round" opacity="0.5" class="anim" style="animation-delay:400ms;"/>
<text x="90" y="90" class="subtitle">Lines Added vs Deleted (per snapshot)</text>
<text x="90" y="400" class="subtitle">Programming Language Development (%)</text>
<line x1="90" y1="650.0" x2="780" y2="650.0" stroke="#21262d" stroke-width="1"/>
<text x="82" y="654.0" text-anchor="end" class="axis-label">0%</text>
<line x1="90" y1="590.0" x2="780" y2="590.0" stroke="#21262d" stroke-width="1"/>
<text x="82" y="594.0" text-anchor="end" class="axis-label">25%</text>
<line x1="90" y1="530.0" x2="780" y2="530.0" stroke="#21262d" stroke-width="1"/>
<text x="82" y="534.0" text-anchor="end" class="axis-label">50%</text>
<line x1="90" y1="470.0" x2="780" y2="470.0" stroke="#21262d" stroke-width="1"/>
<text x="82" y="474.0" text-anchor="end" class="axis-label">75%</text>
<line x1="90" y1="410.0" x2="780" y2="410.0" stroke="#21262d" stroke-width="1"/>
<text x="82" y="414.0" text-anchor="end" class="axis-label">100%</text>
<polygon points="90.0,650.0 109.7,650.0 129.4,650.0 149.1,650.0 168.9,650.0 188.6,650.0 208.3,650.0 228.0,650.0 247.7,528.2 267.4,528.5 287.1,529.7 306.9,499.3 326.6,499.3 346.3,502.9 366.0,485.0 385.7,485.1 405.4,485.4 425.1,485.4 444.9,485.4 464.6,485.4 484.3,485.4 504.0,496.4 523.7,496.7 543.4,491.0 563.1,491.0 582.9,491.0 602.6,491.7 622.3,491.8 642.0,494.0 661.7,494.0 681.4,494.4 701.1,494.4 720.9,494.4 740.6,494.4 760.3,483.3 780.0,472.4 780.0,650.0 760.3,650.0 740.6,650.0 720.9,650.0 701.1,650.0 681.4,650.0 661.7,650.0 642.0,650.0 622.3,650.0 602.6,650.0 582.9,650.0 563.1,650.0 543.4,650.0 523.7,650.0 504.0,650.0 484.3,650.0 464.6,650.0 444.9,650.0 425.1,650.0 405.4,650.0 385.7,650.0 366.0,650.0 346.3,650.0 326.6,650.0 306.9,650.0 287.1,650.0 267.4,650.0 247.7,650.0 228.0,650.0 208.3,650.0 188.6,650.0 168.9,650.0 149.1,650.0 129.4,650.0 109.7,650.0 90.0,650.0" fill="#e34c26" opacity="0.6" class="anim" style="animation-delay:500ms;"/>
<polygon points="90.0,650.0 109.7,650.0 129.4,650.0 149.1,650.0 168.9,650.0 188.6,650.0 208.3,650.0 228.0,650.0 247.7,495.2 267.4,495.9 287.1,495.9 306.9,470.2 326.6,470.2 346.3,473.9 366.0,463.8 385.7,463.9 405.4,464.3 425.1,464.3 444.9,464.3 464.6,464.3 484.3,464.3 504.0,469.0 523.7,468.8 543.4,464.8 563.1,464.8 582.9,464.8 602.6,465.7 622.3,465.7 642.0,468.4 661.7,468.4 681.4,468.8 701.1,468.8 720.9,468.8 740.6,468.8 760.3,459.9 780.0,451.1 780.0,472.4 760.3,483.3 740.6,494.4 720.9,494.4 701.1,494.4 681.4,494.4 661.7,494.0 642.0,494.0 622.3,491.8 602.6,491.7 582.9,491.0 563.1,491.0 543.4,491.0 523.7,496.7 504.0,496.4 484.3,485.4 464.6,485.4 444.9,485.4 425.1,485.4 405.4,485.4 385.7,485.1 366.0,485.0 346.3,502.9 326.6,499.3 306.9,499.3 287.1,529.7 267.4,528.5 247.7,528.2 228.0,650.0 208.3,650.0 188.6,650.0 168.9,650.0 149.1,650.0 129.4,650.0 109.7,650.0 90.0,650.0" fill="#3572A5" opacity="0.6" class="anim" style="animation-delay:600ms;"/>
<polygon points="90.0,650.0 109.7,650.0 129.4,650.0 149.1,650.0 168.9,650.0 188.6,650.0 208.3,650.0 228.0,650.0 247.7,455.5 267.4,455.4 287.1,455.1 306.9,447.0 326.6,447.0 346.3,448.2 366.0,438.9 385.7,439.0 405.4,439.6 425.1,439.6 444.9,439.6 464.6,439.6 484.3,439.6 504.0,445.6 523.7,445.6 543.4,443.3 563.1,443.3 582.9,443.3 602.6,443.6 622.3,443.6 642.0,444.1 661.7,444.1 681.4,444.1 701.1,444.1 720.9,444.1 740.6,444.1 760.3,441.0 780.0,437.9 780.0,451.1 760.3,459.9 740.6,468.8 720.9,468.8 701.1,468.8 681.4,468.8 661.7,468.4 642.0,468.4 622.3,465.7 602.6,465.7 582.9,464.8 563.1,464.8 543.4,464.8 523.7,468.8 504.0,469.0 484.3,464.3 464.6,464.3 444.9,464.3 425.1,464.3 405.4,464.3 385.7,463.9 366.0,463.8 346.3,473.9 326.6,470.2 306.9,470.2 287.1,495.9 267.4,495.9 247.7,495.2 228.0,650.0 208.3,650.0 188.6,650.0 168.9,650.0 149.1,650.0 129.4,650.0 109.7,650.0 90.0,650.0" fill="#f1e05a" opacity="0.6" class="anim" style="animation-delay:700ms;"/>
<polygon points="90.0,650.0 109.7,650.0 129.4,650.0 149.1,650.0 168.9,650.0 188.6,650.0 208.3,650.0 228.0,650.0 247.7,442.3 267.4,442.0 287.1,441.6 306.9,439.5 326.6,439.5 346.3,439.4 366.0,432.3 385.7,432.2 405.4,432.6 425.1,432.6 444.9,432.6 464.6,432.6 484.3,432.6 504.0,439.3 523.7,439.3 543.4,437.4 563.1,437.4 582.9,437.4 602.6,437.3 622.3,437.3 642.0,437.1 661.7,437.1 681.4,437.1 701.1,437.1 720.9,437.1 740.6,437.1 760.3,436.4 780.0,435.8 780.0,437.9 760.3,441.0 740.6,444.1 720.9,444.1 701.1,444.1 681.4,444.1 661.7,444.1 642.0,444.1 622.3,443.6 602.6,443.6 582.9,443.3 563.1,443.3 543.4,443.3 523.7,445.6 504.0,445.6 484.3,439.6 464.6,439.6 444.9,439.6 425.1,439.6 405.4,439.6 385.7,439.0 366.0,438.9 346.3,448.2 326.6,447.0 306.9,447.0 287.1,455.1 267.4,455.4 247.7,455.5 228.0,650.0 208.3,650.0 188.6,650.0 168.9,650.0 149.1,650.0 129.4,650.0 109.7,650.0 90.0,650.0" fill="#663399" opacity="0.6" class="anim" style="animation-delay:800ms;"/>
<polygon points="90.0,650.0 109.7,650.0 129.4,650.0 149.1,650.0 168.9,650.0 188.6,650.0 208.3,650.0 228.0,650.0 247.7,436.6 267.4,436.3 287.1,435.9 306.9,432.2 326.6,432.2 346.3,432.2 366.0,426.2 385.7,426.1 405.4,426.0 425.1,426.0 444.9,426.0 464.6,426.0 484.3,426.0 504.0,430.8 523.7,430.7 543.4,429.3 563.1,429.3 582.9,429.3 602.6,429.2 622.3,429.2 642.0,428.9 661.7,428.9 681.4,428.8 701.1,428.8 720.9,428.8 740.6,428.8 760.3,426.7 780.0,424.6 780.0,435.8 760.3,436.4 740.6,437.1 720.9,437.1 701.1,437.1 681.4,437.1 661.7,437.1 642.0,437.1 622.3,437.3 602.6,437.3 582.9,437.4 563.1,437.4 543.4,437.4 523.7,439.3 504.0,439.3 484.3,432.6 464.6,432.6 444.9,432.6 425.1,432.6 405.4,432.6 385.7,432.2 366.0,432.3 346.3,439.4 326.6,439.5 306.9,439.5 287.1,441.6 267.4,442.0 247.7,442.3 228.0,650.0 208.3,650.0 188.6,650.0 168.9,650.0 149.1,650.0 129.4,650.0 109.7,650.0 90.0,650.0" fill="#083fa1" opacity="0.6" class="anim" style="animation-delay:900ms;"/>
<polygon points="90.0,650.0 109.7,650.0 129.4,650.0 149.1,650.0 168.9,650.0 188.6,650.0 208.3,650.0 228.0,650.0 247.7,427.0 267.4,426.8 287.1,426.6 306.9,424.2 326.6,424.2 346.3,424.2 366.0,420.4 385.7,420.3 405.4,420.3 425.1,420.3 444.9,420.3 464.6,420.3 484.3,420.3 504.0,423.3 523.7,423.2 543.4,422.4 563.1,422.4 582.9,422.4 602.6,422.3 622.3,422.3 642.0,422.1 661.7,422.1 681.4,422.1 701.1,422.1 720.9,422.1 740.6,422.1 760.3,420.9 780.0,419.7 780.0,424.6 760.3,426.7 740.6,428.8 720.9,428.8 701.1,428.8 681.4,428.8 661.7,428.9 642.0,428.9 622.3,429.2 602.6,429.2 582.9,429.3 563.1,429.3 543.4,429.3 523.7,430.7 504.0,430.8 484.3,426.0 464.6,426.0 444.9,426.0 425.1,426.0 405.4,426.0 385.7,426.1 366.0,426.2 346.3,432.2 326.6,432.2 306.9,432.2 287.1,435.9 267.4,436.3 247.7,436.6 228.0,650.0 208.3,650.0 188.6,650.0 168.9,650.0 149.1,650.0 129.4,650.0 109.7,650.0 90.0,650.0" fill="#6E4C13" opacity="0.6" class="anim" style="animation-delay:1000ms;"/>
<polygon points="90.0,650.0 109.7,650.0 129.4,650.0 149.1,650.0 168.9,650.0 188.6,650.0 208.3,650.0 228.0,650.0 247.7,418.7 267.4,418.6 287.1,418.5 306.9,417.3 326.6,417.3 346.3,417.2 366.0,415.3 385.7,415.3 405.4,415.2 425.1,415.2 444.9,415.2 464.6,415.2 484.3,415.2 504.0,416.8 523.7,416.8 543.4,416.3 563.1,416.3 582.9,416.3 602.6,416.3 622.3,416.3 642.0,416.2 661.7,416.2 681.4,416.2 701.1,416.2 720.9,416.2 740.6,416.2 760.3,415.8 780.0,415.3 780.0,419.7 760.3,420.9 740.6,422.1 720.9,422.1 701.1,422.1 681.4,422.1 661.7,422.1 642.0,422.1 622.3,422.3 602.6,422.3 582.9,422.4 563.1,422.4 543.4,422.4 523.7,423.2 504.0,423.3 484.3,420.3 464.6,420.3 444.9,420.3 425.1,420.3 405.4,420.3 385.7,420.3 366.0,420.4 346.3,424.2 326.6,424.2 306.9,424.2 287.1,426.6 267.4,426.8 247.7,427.0 228.0,650.0 208.3,650.0 188.6,650.0 168.9,650.0 149.1,650.0 129.4,650.0 109.7,650.0 90.0,650.0" fill="#F05138" opacity="0.6" class="anim" style="animation-delay:1100ms;"/>
<polygon points="90.0,650.0 109.7,650.0 129.4,650.0 149.1,650.0 168.9,650.0 188.6,650.0 208.3,650.0 228.0,650.0 247.7,414.4 267.4,414.4 287.1,414.3 306.9,413.7 326.6,413.7 346.3,413.7 366.0,412.7 385.7,412.7 405.4,412.7 425.1,412.7 444.9,412.7 464.6,412.7 484.3,412.7 504.0,413.5 523.7,413.4 543.4,413.2 563.1,413.2 582.9,413.2 602.6,413.2 622.3,413.2 642.0,413.1 661.7,413.1 681.4,413.1 701.1,413.1 720.9,413.1 740.6,413.1 760.3,413.1 780.0,413.1 780.0,415.3 760.3,415.8 740.6,416.2 720.9,416.2 701.1,416.2 681.4,416.2 661.7,416.2 642.0,416.2 622.3,416.3 602.6,416.3 582.9,416.3 563.1,416.3 543.4,416.3 523.7,416.8 504.0,416.8 484.3,415.2 464.6,415.2 444.9,415.2 425.1,415.2 405.4,415.2 385.7,415.3 366.0,415.3 346.3,417.2 326.6,417.3 306.9,417.3 287.1,418.5 267.4,418.6 247.7,418.7 228.0,650.0 208.3,650.0 188.6,650.0 168.9,650.0 149.1,650.0 129.4,650.0 109.7,650.0 90.0,650.0" fill="#b07219" opacity="0.6" class="anim" style="animation-delay:1200ms;"/>
<line x1="740.6" y1="100" x2="740.6" y2="650" stroke="#c9d1d9" stroke-width="1" stroke-dasharray="4,3" opacity="0.35"/>
<text x="760.3" y="112" text-anchor="middle" class="axis-label" opacity="0.6">Mar 25, 2026</text>
<text x="90.0" y="668" text-anchor="middle" class="axis-label" transform="rotate(-35 90.0 668)">2026-02</text>
<text x="563.1" y="668" text-anchor="middle" class="axis-label" transform="rotate(-35 563.1 668)">2026-03</text>
<text x="760.3" y="668" text-anchor="middle" class="axis-label" transform="rotate(-35 760.3 668)">Mar 25, 2026</text>
<line x1="796" y1="110" x2="824" y2="110" stroke="#3fb950" stroke-width="2"/>
<text x="832" y="116" class="legend-text">Lines Added</text>
<line x1="796" y1="140" x2="824" y2="140" stroke="#f85149" stroke-width="1.5"/>
<text x="832" y="146" class="legend-text">Lines Deleted</text>
<line x1="796" y1="170" x2="824" y2="170" stroke="#e3b341" stroke-width="1.5" stroke-dasharray="4,3"/>
<text x="832" y="176" class="legend-text">&#x2605; Stars</text>
<text x="796" y="200" class="subtitle">Languages</text>
<rect x="796" y="212" width="12" height="12" rx="2" fill="#e34c26" opacity="0.8" class="anim" style="animation-delay:800ms;"/>
<text x="814" y="223" class="legend-text">HTML (65%→74%)</text>
<rect x="796" y="234" width="12" height="12" rx="2" fill="#3572A5" opacity="0.8" class="anim" style="animation-delay:880ms;"/>
<text x="814" y="245" class="legend-text">Python (11%→9%)</text>
<rect x="796" y="256" width="12" height="12" rx="2" fill="#f1e05a" opacity="0.8" class="anim" style="animation-delay:960ms;"/>
<text x="814" y="267" class="legend-text">JavaScript (10%→5%)</text>
<rect x="796" y="278" width="12" height="12" rx="2" fill="#663399" opacity="0.8" class="anim" style="animation-delay:1040ms;"/>
<text x="814" y="289" class="legend-text">CSS (3%→1%)</text>
<rect x="796" y="300" width="12" height="12" rx="2" fill="#083fa1" opacity="0.8" class="anim" style="animation-delay:1120ms;"/>
<text x="814" y="311" class="legend-text">Markdown (3%→5%)</text>
<rect x="796" y="322" width="12" height="12" rx="2" fill="#6E4C13" opacity="0.8" class="anim" style="animation-delay:1200ms;"/>
<text x="814" y="333" class="legend-text">Assembly (3%→2%)</text>
<rect x="796" y="344" width="12" height="12" rx="2" fill="#F05138" opacity="0.8" class="anim" style="animation-delay:1280ms;"/>
<text x="814" y="355" class="legend-text">Swift (2%→2%)</text>
<rect x="796" y="366" width="12" height="12" rx="2" fill="#b07219" opacity="0.8" class="anim" style="animation-delay:1360ms;"/>
<text x="814" y="377" class="legend-text">Java (1%→1%)</text>
<text x="796" y="412" class="subtitle">Contributions</text>
<text x="796" y="432" class="axis-label">2023: 39</text>
<text x="796" y="452" class="axis-label">2024: 646</text>
<text x="796" y="472" class="axis-label">2025: 1,780</text>
<text x="796" y="492" class="axis-label">2026: 368</text>
<text x="796" y="522" class="subtitle">Statistics</text>
<text x="796" y="542" class="axis-label">Active weeks: 78</text>
<text x="796" y="562" class="axis-label">Add/Del ratio: 1.6x</text>
<text x="796" y="582" class="axis-label">Avg lines/wk: 19K</text>
<text x="796" y="602" class="axis-label">Peak: 2026-02-15</text>
<text x="796" y="622" class="axis-label">  (543K lines)</text>
<text x="90" y="742" class="axis-label">Total: +911,996 / -569,547 lines &#xb7; 2,833 contributions &#xb7; 74 repos &#xb7; &#x2605; 33</text>
</svg>