<svg xmlns="http://www.w3.org/2000/svg" width="1000" height="760" style="max-width: 100%;" viewBox="0 0 1000 760">

<defs>
  <linearGradient id="areaGrad" x1="0" y1="0" x2="0" y2="1">
    <stop offset="0%" stop-color="#58a6ff" stop-opacity="0.35"/>
    <stop offset="100%" stop-color="#58a6ff" stop-opacity="0.02"/>
  </linearGradient>
  <linearGradient id="addGrad" x1="0" y1="0" x2="0" y2="1">
    <stop offset="0%" stop-color="#3fb950" stop-opacity="0.35"/>
    <stop offset="100%" stop-color="#3fb950" stop-opacity="0.02"/>
  </linearGradient>
  <linearGradient id="delGrad" x1="0" y1="0" x2="0" y2="1">
    <stop offset="0%" stop-color="#f85149" stop-opacity="0.25"/>
    <stop offset="100%" stop-color="#f85149" stop-opacity="0.02"/>
  </linearGradient>
</defs>
<style>
  .title { font: bold 28px 'Segoe UI', Ubuntu, Sans-Serif; fill: #c9d1d9; }
  .subtitle { font: 600 20px 'Segoe UI', Ubuntu, Sans-Serif; fill: #c9d1d9; opacity: 0.8; }
  .axis-label { font: 18px 'Segoe UI', Ubuntu, Sans-Serif; fill: #c9d1d9; opacity: 0.7; }
  .legend-text { font: 14px 'Segoe UI', Ubuntu, Sans-Serif; fill: #c9d1d9; }
  .value-text { font: bold 18px 'Segoe UI', Ubuntu, Sans-Serif; fill: #c9d1d9; }
  .stat-value { font: bold 22px 'Segoe UI', Ubuntu, Sans-Serif; fill: #c9d1d9; }
  .stat-label { font: 18px 'Segoe UI', Ubuntu, Sans-Serif; fill: #c9d1d9; opacity: 0.7; }
  @keyframes fadeIn { from { opacity: 0; } to { opacity: 1; } }
  .anim { animation: fadeIn 0.6s ease-in-out forwards; opacity: 0; }
</style>

<rect x="0.5" y="0.5" rx="4.5" width="999" height="759" fill="#161b22" stroke="#21262d"/>
<text x="90" y="45" class="title">Activity History</text>
<text x="90" y="72" class="subtitle">Lines added vs deleted &amp; activity trends over time</text>
<line x1="90" y1="340.0" x2="780" y2="340.0" stroke="#21262d" stroke-width="1"/>
<text x="82" y="344.0" text-anchor="end" class="axis-label">0</text>
<line x1="90" y1="280.0" x2="780" y2="280.0" stroke="#21262d" stroke-width="1"/>
<text x="82" y="284.0" text-anchor="end" class="axis-label">586K</text>
<line x1="90" y1="220.0" x2="780" y2="220.0" stroke="#21262d" stroke-width="1"/>
<text x="82" y="224.0" text-anchor="end" class="axis-label">1.2M</text>
<line x1="90" y1="160.0" x2="780" y2="160.0" stroke="#21262d" stroke-width="1"/>
<text x="82" y="164.0" text-anchor="end" class="axis-label">1.8M</text>
<line x1="90" y1="100.0" x2="780" y2="100.0" stroke="#21262d" stroke-width="1"/>
<text x="82" y="104.0" text-anchor="end" class="axis-label">2.3M</text>
<polygon points="90.0,340.0 90.0,302.6 106.0,304.0 122.1,302.7 138.1,304.0 154.2,312.6 170.2,295.5 186.3,295.5 202.3,289.0 218.4,288.8 234.4,288.4 250.5,288.3 266.5,276.8 282.6,276.8 298.6,276.8 314.7,259.7 330.7,259.5 346.7,259.3 362.8,259.3 378.8,259.3 394.9,259.3 410.9,259.3 427.0,258.9 443.0,247.5 459.1,247.5 475.1,247.5 491.2,247.5 507.2,247.2 523.3,247.2 539.3,246.7 555.3,246.7 571.4,246.7 587.4,246.7 603.5,246.7 619.5,246.7 635.6,246.7 651.6,246.7 667.7,246.7 683.7,246.7 699.8,246.7 715.8,246.7 731.9,246.6 747.9,246.2 764.0,223.6 780.0,201.0 780.0,340.0" fill="url(#addGrad)" class="anim" style="animation-delay:200ms;"/>
<polyline points="90.0,302.6 106.0,304.0 122.1,302.7 138.1,304.0 154.2,312.6 170.2,295.5 186.3,295.5 202.3,289.0 218.4,288.8 234.4,288.4 250.5,288.3 266.5,276.8 282.6,276.8 298.6,276.8 314.7,259.7 330.7,259.5 346.7,259.3 362.8,259.3 378.8,259.3 394.9,259.3 410.9,259.3 427.0,258.9 443.0,247.5 459.1,247.5 475.1,247.5 491.2,247.5 507.2,247.2 523.3,247.2 539.3,246.7 555.3,246.7 571.4,246.7 587.4,246.7 603.5,246.7 619.5,246.7 635.6,246.7 651.6,246.7 667.7,246.7 683.7,246.7 699.8,246.7 715.8,246.7 731.9,246.6 747.9,246.2" fill="none" stroke="#3fb950" stroke-width="2" stroke-linejoin="round" class="anim" style="animation-delay:250ms;"/>
<polyline points="747.9,246.2 764.0,223.6 780.0,201.0" fill="none" stroke="#3fb950" stroke-width="1.5" stroke-dasharray="5,4" stroke-linejoin="round" opacity="0.6" class="anim" style="animation-delay:250ms;"/>
<polygon points="90.0,340.0 90.0,329.5 106.0,330.6 122.1,329.5 138.1,330.6 154.2,335.1 170.2,328.2 186.3,328.2 202.3,327.5 218.4,327.2 234.4,327.0 250.5,327.0 266.5,314.6 282.6,314.6 298.6,314.5 314.7,300.5 330.7,300.4 346.7,300.4 362.8,300.4 378.8,300.4 394.9,300.4 410.9,300.4 427.0,293.1 443.0,281.9 459.1,281.9 475.1,281.9 491.2,281.9 507.2,281.8 523.3,281.8 539.3,281.8 555.3,281.7 571.4,281.7 587.4,281.7 603.5,281.7 619.5,281.7 635.6,281.7 651.6,281.7 667.7,281.7 683.7,281.7 699.8,281.7 715.8,281.7 731.9,281.7 747.9,281.7 764.0,260.3 780.0,239.0 780.0,340.0" fill="url(#delGrad)" class="anim" style="animation-delay:300ms;"/>
<polyline points="90.0,329.5 106.0,330.6 122.1,329.5 138.1,330.6 154.2,335.1 170.2,328.2 186.3,328.2 202.3,327.5 218.4,327.2 234.4,327.0 250.5,327.0 266.5,314.6 282.6,314.6 298.6,314.5 314.7,300.5 330.7,300.4 346.7,300.4 362.8,300.4 378.8,300.4 394.9,300.4 410.9,300.4 427.0,293.1 443.0,281.9 459.1,281.9 475.1,281.9 491.2,281.9 507.2,281.8 523.3,281.8 539.3,281.8 555.3,281.7 571.4,281.7 587.4,281.7 603.5,281.7 619.5,281.7 635.6,281.7 651.6,281.7 667.7,281.7 683.7,281.7 699.8,281.7 715.8,281.7 731.9,281.7 747.9,281.7" fill="none" stroke="#f85149" stroke-width="1.5" stroke-linejoin="round" class="anim" style="animation-delay:350ms;"/>
<polyline points="747.9,281.7 764.0,260.3 780.0,239.0" fill="none" stroke="#f85149" stroke-width="1" stroke-dasharray="5,4" stroke-linejoin="round" opacity="0.6" class="anim" style="animation-delay:350ms;"/>
<polyline points="90.0,340.0 106.0,340.0 122.1,340.0 138.1,340.0 154.2,340.0 170.2,340.0 186.3,340.0 202.3,340.0 218.4,276.0 234.4,276.0 250.5,276.0 266.5,276.0 282.6,276.0 298.6,276.0 314.7,276.0 330.7,276.0 346.7,276.0 362.8,276.0 378.8,276.0 394.9,276.0 410.9,276.0 427.0,276.0 443.0,276.0 459.1,276.0 475.1,276.0 491.2,276.0 507.2,276.0 523.3,276.0 539.3,276.0 555.3,276.0 571.4,276.0 587.4,276.0 603.5,276.0 619.5,276.0 635.6,212.0 651.6,212.0 667.7,212.0 683.7,212.0 699.8,212.0 715.8,212.0 731.9,212.0 747.9,212.0" fill="none" stroke="#e3b341" stroke-width="1.5" stroke-dasharray="4,3" stroke-linejoin="round" class="anim" style="animation-delay:400ms;"/>
<polyline points="747.9,212.0 764.0,212.0 780.0,148.0" fill="none" stroke="#e3b341" stroke-width="1" stroke-dasharray="3,5" stroke-linejoin="round" opacity="0.5" class="anim" style="animation-delay:400ms;"/>
<text x="90" y="90" class="subtitle">Lines Added vs Deleted (per snapshot)</text>
<text x="90" y="400" class="subtitle">Programming Language Development (%)</text>
<line x1="90" y1="650.0" x2="780" y2="650.0" stroke="#21262d" stroke-width="1"/>
<text x="82" y="654.0" text-anchor="end" class="axis-label">0%</text>
<line x1="90" y1="590.0" x2="780" y2="590.0" stroke="#21262d" stroke-width="1"/>
<text x="82" y="594.0" text-anchor="end" class="axis-label">25%</text>
<line x1="90" y1="530.0" x2="780" y2="530.0" stroke="#21262d" stroke-width="1"/>
<text x="82" y="534.0" text-anchor="end" class="axis-label">50%</text>
<line x1="90" y1="470.0" x2="780" y2="470.0" stroke="#21262d" stroke-width="1"/>
<text x="82" y="474.0" text-anchor="end" class="axis-label">75%</text>
<line x1="90" y1="410.0" x2="780" y2="410.0" stroke="#21262d" stroke-width="1"/>
<text x="82" y="414.0" text-anchor="end" class="axis-label">100%</text>
<polygon points="90.0,650.0 106.0,650.0 122.1,650.0 138.1,650.0 154.2,650.0 170.2,650.0 186.3,650.0 202.3,650.0 218.4,528.2 234.4,528.5 250.5,529.7 266.5,499.3 282.6,499.3 298.6,502.9 314.7,485.0 330.7,485.1 346.7,485.4 362.8,485.4 378.8,485.4 394.9,485.4 410.9,485.4 427.0,496.4 443.0,496.7 459.1,491.0 475.1,491.0 491.2,491.0 507.2,491.7 523.3,491.8 539.3,494.0 555.3,494.0 571.4,494.4 587.4,494.4 603.5,494.4 619.5,494.4 635.6,507.6 651.6,507.6 667.7,507.9 683.7,507.9 699.8,507.9 715.8,506.3 731.9,506.4 747.9,506.8 764.0,507.1 780.0,507.4 780.0,650.0 764.0,650.0 747.9,650.0 731.9,650.0 715.8,650.0 699.8,650.0 683.7,650.0 667.7,650.0 651.6,650.0 635.6,650.0 619.5,650.0 603.5,650.0 587.4,650.0 571.4,650.0 555.3,650.0 539.3,650.0 523.3,650.0 507.2,650.0 491.2,650.0 475.1,650.0 459.1,650.0 443.0,650.0 427.0,650.0 410.9,650.0 394.9,650.0 378.8,650.0 362.8,650.0 346.7,650.0 330.7,650.0 314.7,650.0 298.6,650.0 282.6,650.0 266.5,650.0 250.5,650.0 234.4,650.0 218.4,650.0 202.3,650.0 186.3,650.0 170.2,650.0 154.2,650.0 138.1,650.0 122.1,650.0 106.0,650.0 90.0,650.0" fill="#e34c26" opacity="0.6" class="anim" style="animation-delay:500ms;"/>
<polygon points="90.0,650.0 106.0,650.0 122.1,650.0 138.1,650.0 154.2,650.0 170.2,650.0 186.3,650.0 202.3,650.0 218.4,488.4 234.4,488.0 250.5,489.0 266.5,476.0 282.6,476.0 298.6,477.2 314.7,460.1 330.7,460.2 346.7,460.6 362.8,460.6 378.8,460.6 394.9,460.6 410.9,460.6 427.0,473.0 443.0,473.5 459.1,469.5 475.1,469.5 491.2,469.5 507.2,469.7 523.3,469.7 539.3,469.7 555.3,469.7 571.4,469.7 587.4,469.7 603.5,469.7 619.5,469.7 635.6,455.6 651.6,455.6 667.7,455.4 683.7,455.4 699.8,455.4 715.8,454.3 731.9,454.3 747.9,455.0 764.0,446.3 780.0,437.6 780.0,507.4 764.0,507.1 747.9,506.8 731.9,506.4 715.8,506.3 699.8,507.9 683.7,507.9 667.7,507.9 651.6,507.6 635.6,507.6 619.5,494.4 603.5,494.4 587.4,494.4 571.4,494.4 555.3,494.0 539.3,494.0 523.3,491.8 507.2,491.7 491.2,491.0 475.1,491.0 459.1,491.0 443.0,496.7 427.0,496.4 410.9,485.4 394.9,485.4 378.8,485.4 362.8,485.4 346.7,485.4 330.7,485.1 314.7,485.0 298.6,502.9 282.6,499.3 266.5,499.3 250.5,529.7 234.4,528.5 218.4,528.2 202.3,650.0 186.3,650.0 170.2,650.0 154.2,650.0 138.1,650.0 122.1,650.0 106.0,650.0 90.0,650.0" fill="#f1e05a" opacity="0.6" class="anim" style="animation-delay:600ms;"/>
<polygon points="90.0,650.0 106.0,650.0 122.1,650.0 138.1,650.0 154.2,650.0 170.2,650.0 186.3,650.0 202.3,650.0 218.4,455.5 234.4,455.4 250.5,455.1 266.5,447.0 282.6,447.0 298.6,448.2 314.7,438.9 330.7,439.0 346.7,439.6 362.8,439.6 378.8,439.6 394.9,439.6 410.9,439.6 427.0,445.6 443.0,445.6 459.1,443.3 475.1,443.3 491.2,443.3 507.2,443.6 523.3,443.6 539.3,444.1 555.3,444.1 571.4,444.1 587.4,444.1 603.5,444.1 619.5,444.1 635.6,437.5 651.6,437.5 667.7,437.5 683.7,437.5 699.8,437.5 715.8,437.5 731.9,437.5 747.9,438.4 764.0,434.4 780.0,430.5 780.0,437.6 764.0,446.3 747.9,455.0 731.9,454.3 715.8,454.3 699.8,455.4 683.7,455.4 667.7,455.4 651.6,455.6 635.6,455.6 619.5,469.7 603.5,469.7 587.4,469.7 571.4,469.7 555.3,469.7 539.3,469.7 523.3,469.7 507.2,469.7 491.2,469.5 475.1,469.5 459.1,469.5 443.0,473.5 427.0,473.0 410.9,460.6 394.9,460.6 378.8,460.6 362.8,460.6 346.7,460.6 330.7,460.2 314.7,460.1 298.6,477.2 282.6,476.0 266.5,476.0 250.5,489.0 234.4,488.0 218.4,488.4 202.3,650.0 186.3,650.0 170.2,650.0 154.2,650.0 138.1,650.0 122.1,650.0 106.0,650.0 90.0,650.0" fill="#3572A5" opacity="0.6" class="anim" style="animation-delay:700ms;"/>
<polygon points="90.0,650.0 106.0,650.0 122.1,650.0 138.1,650.0 154.2,650.0 170.2,650.0 186.3,650.0 202.3,650.0 218.4,442.3 234.4,442.0 250.5,441.6 266.5,439.5 282.6,439.5 298.6,439.4 314.7,432.3 330.7,432.2 346.7,432.6 362.8,432.6 378.8,432.6 394.9,432.6 410.9,432.6 427.0,439.3 443.0,439.3 459.1,437.4 475.1,437.4 491.2,437.4 507.2,437.3 523.3,437.3 539.3,437.1 555.3,437.1 571.4,437.1 587.4,437.1 603.5,437.1 619.5,437.1 635.6,428.7 651.6,428.6 667.7,428.5 683.7,428.5 699.8,428.5 715.8,427.3 731.9,427.3 747.9,427.1 764.0,423.4 780.0,419.6 780.0,430.5 764.0,434.4 747.9,438.4 731.9,437.5 715.8,437.5 699.8,437.5 683.7,437.5 667.7,437.5 651.6,437.5 635.6,437.5 619.5,444.1 603.5,444.1 587.4,444.1 571.4,444.1 555.3,444.1 539.3,444.1 523.3,443.6 507.2,443.6 491.2,443.3 475.1,443.3 459.1,443.3 443.0,445.6 427.0,445.6 410.9,439.6 394.9,439.6 378.8,439.6 362.8,439.6 346.7,439.6 330.7,439.0 314.7,438.9 298.6,448.2 282.6,447.0 266.5,447.0 250.5,455.1 234.4,455.4 218.4,455.5 202.3,650.0 186.3,650.0 170.2,650.0 154.2,650.0 138.1,650.0 122.1,650.0 106.0,650.0 90.0,650.0" fill="#663399" opacity="0.6" class="anim" style="animation-delay:800ms;"/>
<polygon points="90.0,650.0 106.0,650.0 122.1,650.0 138.1,650.0 154.2,650.0 170.2,650.0 186.3,650.0 202.3,650.0 218.4,436.6 234.4,436.3 250.5,435.9 266.5,432.2 282.6,432.2 298.6,432.2 314.7,426.2 330.7,426.1 346.7,426.0 362.8,426.0 378.8,426.0 394.9,426.0 410.9,426.0 427.0,430.8 443.0,430.7 459.1,429.3 475.1,429.3 491.2,429.3 507.2,429.2 523.3,429.2 539.3,428.9 555.3,428.9 571.4,428.8 587.4,428.8 603.5,428.8 619.5,428.8 635.6,423.0 651.6,422.9 667.7,422.9 683.7,422.9 699.8,422.9 715.8,422.0 731.9,422.0 747.9,421.9 764.0,418.3 780.0,414.8 780.0,419.6 764.0,423.4 747.9,427.1 731.9,427.3 715.8,427.3 699.8,428.5 683.7,428.5 667.7,428.5 651.6,428.6 635.6,428.7 619.5,437.1 603.5,437.1 587.4,437.1 571.4,437.1 555.3,437.1 539.3,437.1 523.3,437.3 507.2,437.3 491.2,437.4 475.1,437.4 459.1,437.4 443.0,439.3 427.0,439.3 410.9,432.6 394.9,432.6 378.8,432.6 362.8,432.6 346.7,432.6 330.7,432.2 314.7,432.3 298.6,439.4 282.6,439.5 266.5,439.5 250.5,441.6 234.4,442.0 218.4,442.3 202.3,650.0 186.3,650.0 170.2,650.0 154.2,650.0 138.1,650.0 122.1,650.0 106.0,650.0 90.0,650.0" fill="#083fa1" opacity="0.6" class="anim" style="animation-delay:900ms;"/>
<polygon points="90.0,650.0 106.0,650.0 122.1,650.0 138.1,650.0 154.2,650.0 170.2,650.0 186.3,650.0 202.3,650.0 218.4,427.0 234.4,426.8 250.5,426.6 266.5,424.2 282.6,424.2 298.6,424.2 314.7,420.4 330.7,420.3 346.7,420.3 362.8,420.3 378.8,420.3 394.9,420.3 410.9,420.3 427.0,423.3 443.0,423.2 459.1,422.4 475.1,422.4 491.2,422.4 507.2,422.3 523.3,422.3 539.3,422.1 555.3,422.1 571.4,422.1 587.4,422.1 603.5,422.1 619.5,422.1 635.6,418.3 651.6,418.3 667.7,418.2 683.7,418.2 699.8,418.2 715.8,417.7 731.9,417.7 747.9,417.6 764.0,415.6 780.0,413.6 780.0,414.8 764.0,418.3 747.9,421.9 731.9,422.0 715.8,422.0 699.8,422.9 683.7,422.9 667.7,422.9 651.6,422.9 635.6,423.0 619.5,428.8 603.5,428.8 587.4,428.8 571.4,428.8 555.3,428.9 539.3,428.9 523.3,429.2 507.2,429.2 491.2,429.3 475.1,429.3 459.1,429.3 443.0,430.7 427.0,430.8 410.9,426.0 394.9,426.0 378.8,426.0 362.8,426.0 346.7,426.0 330.7,426.1 314.7,426.2 298.6,432.2 282.6,432.2 266.5,432.2 250.5,435.9 234.4,436.3 218.4,436.6 202.3,650.0 186.3,650.0 170.2,650.0 154.2,650.0 138.1,650.0 122.1,650.0 106.0,650.0 90.0,650.0" fill="#6E4C13" opacity="0.6" class="anim" style="animation-delay:1000ms;"/>
<polygon points="90.0,650.0 106.0,650.0 122.1,650.0 138.1,650.0 154.2,650.0 170.2,650.0 186.3,650.0 202.3,650.0 218.4,418.7 234.4,418.6 250.5,418.5 266.5,417.3 282.6,417.3 298.6,417.2 314.7,415.3 330.7,415.3 346.7,415.2 362.8,415.2 378.8,415.2 394.9,415.2 410.9,415.2 427.0,416.8 443.0,416.8 459.1,416.3 475.1,416.3 491.2,416.3 507.2,416.3 523.3,416.3 539.3,416.2 555.3,416.2 571.4,416.2 587.4,416.2 603.5,416.2 619.5,416.2 635.6,414.2 651.6,414.2 667.7,414.2 683.7,414.2 699.8,414.2 715.8,413.9 731.9,413.9 747.9,413.9 764.0,413.2 780.0,412.5 780.0,413.6 764.0,415.6 747.9,417.6 731.9,417.7 715.8,417.7 699.8,418.2 683.7,418.2 667.7,418.2 651.6,418.3 635.6,418.3 619.5,422.1 603.5,422.1 587.4,422.1 571.4,422.1 555.3,422.1 539.3,422.1 523.3,422.3 507.2,422.3 491.2,422.4 475.1,422.4 459.1,422.4 443.0,423.2 427.0,423.3 410.9,420.3 394.9,420.3 378.8,420.3 362.8,420.3 346.7,420.3 330.7,420.3 314.7,420.4 298.6,424.2 282.6,424.2 266.5,424.2 250.5,426.6 234.4,426.8 218.4,427.0 202.3,650.0 186.3,650.0 170.2,650.0 154.2,650.0 138.1,650.0 122.1,650.0 106.0,650.0 90.0,650.0" fill="#F05138" opacity="0.6" class="anim" style="animation-delay:1100ms;"/>
<polygon points="90.0,650.0 106.0,650.0 122.1,650.0 138.1,650.0 154.2,650.0 170.2,650.0 186.3,650.0 202.3,650.0 218.4,414.4 234.4,414.4 250.5,414.3 266.5,413.7 282.6,413.7 298.6,413.7 314.7,412.7 330.7,412.7 346.7,412.7 362.8,412.7 378.8,412.7 394.9,412.7 410.9,412.7 427.0,413.5 443.0,413.4 459.1,413.2 475.1,413.2 491.2,413.2 507.2,413.2 523.3,413.2 539.3,413.1 555.3,413.1 571.4,413.1 587.4,413.1 603.5,413.1 619.5,413.1 635.6,412.2 651.6,412.1 667.7,412.1 683.7,412.1 699.8,412.1 715.8,412.0 731.9,412.0 747.9,412.0 764.0,412.0 780.0,412.0 780.0,412.5 764.0,413.2 747.9,413.9 731.9,413.9 715.8,413.9 699.8,414.2 683.7,414.2 667.7,414.2 651.6,414.2 635.6,414.2 619.5,416.2 603.5,416.2 587.4,416.2 571.4,416.2 555.3,416.2 539.3,416.2 523.3,416.3 507.2,416.3 491.2,416.3 475.1,416.3 459.1,416.3 443.0,416.8 427.0,416.8 410.9,415.2 394.9,415.2 378.8,415.2 362.8,415.2 346.7,415.2 330.7,415.3 314.7,415.3 298.6,417.2 282.6,417.3 266.5,417.3 250.5,418.5 234.4,418.6 218.4,418.7 202.3,650.0 186.3,650.0 170.2,650.0 154.2,650.0 138.1,650.0 122.1,650.0 106.0,650.0 90.0,650.0" fill="#b07219" opacity="0.6" class="anim" style="animation-delay:1200ms;"/>
<line x1="747.9" y1="100" x2="747.9" y2="650" stroke="#c9d1d9" stroke-width="1" stroke-dasharray="4,3" opacity="0.35"/>
<text x="764.0" y="112" text-anchor="middle" class="axis-label" opacity="0.6">Apr 02, 2026</text>
<text x="90.0" y="668" text-anchor="middle" class="axis-label" transform="rotate(-35 90.0 668)">2026-02</text>
<text x="491.2" y="668" text-anchor="middle" class="axis-label" transform="rotate(-35 491.2 668)">2026-03</text>
<text x="764.0" y="668" text-anchor="middle" class="axis-label" transform="rotate(-35 764.0 668)">Apr 02, 2026</text>
<line x1="796" y1="110" x2="824" y2="110" stroke="#3fb950" stroke-width="2"/>
<text x="832" y="116" class="legend-text">Lines Added</text>
<line x1="796" y1="140" x2="824" y2="140" stroke="#f85149" stroke-width="1.5"/>
<text x="832" y="146" class="legend-text">Lines Deleted</text>
<line x1="796" y1="170" x2="824" y2="170" stroke="#e3b341" stroke-width="1.5" stroke-dasharray="4,3"/>
<text x="832" y="176" class="legend-text">&#x2605; Stars</text>
<text x="796" y="200" class="subtitle">Languages</text>
<rect x="796" y="212" width="12" height="12" rx="2" fill="#e34c26" opacity="0.8" class="anim" style="animation-delay:800ms;"/>
<text x="814" y="223" class="legend-text">HTML (60%→59%)</text>
<rect x="796" y="234" width="12" height="12" rx="2" fill="#f1e05a" opacity="0.8" class="anim" style="animation-delay:880ms;"/>
<text x="814" y="245" class="legend-text">JavaScript (22%→29%)</text>
<rect x="796" y="256" width="12" height="12" rx="2" fill="#3572A5" opacity="0.8" class="anim" style="animation-delay:960ms;"/>
<text x="814" y="267" class="legend-text">Python (7%→3%)</text>
<rect x="796" y="278" width="12" height="12" rx="2" fill="#663399" opacity="0.8" class="anim" style="animation-delay:1040ms;"/>
<text x="814" y="289" class="legend-text">CSS (5%→5%)</text>
<rect x="796" y="300" width="12" height="12" rx="2" fill="#083fa1" opacity="0.8" class="anim" style="animation-delay:1120ms;"/>
<text x="814" y="311" class="legend-text">Markdown (2%→2%)</text>
<rect x="796" y="322" width="12" height="12" rx="2" fill="#6E4C13" opacity="0.8" class="anim" style="animation-delay:1200ms;"/>
<text x="814" y="333" class="legend-text">Assembly (2%→1%)</text>
<rect x="796" y="344" width="12" height="12" rx="2" fill="#F05138" opacity="0.8" class="anim" style="animation-delay:1280ms;"/>
<text x="814" y="355" class="legend-text">Swift (2%→0%)</text>
<rect x="796" y="366" width="12" height="12" rx="2" fill="#b07219" opacity="0.8" class="anim" style="animation-delay:1360ms;"/>
<text x="814" y="377" class="legend-text">Java (1%→0%)</text>
<text x="796" y="412" class="subtitle">Contributions</text>
<text x="796" y="432" class="axis-label">2023: 39</text>
<text x="796" y="452" class="axis-label">2024: 646</text>
<text x="796" y="472" class="axis-label">2025: 1,780</text>
<text x="796" y="492" class="axis-label">2026: 387</text>
<text x="796" y="522" class="subtitle">Statistics</text>
<text x="796" y="542" class="axis-label">Active weeks: 79</text>
<text x="796" y="562" class="axis-label">Add/Del ratio: 1.6x</text>
<text x="796" y="582" class="axis-label">Avg lines/wk: 19K</text>
<text x="796" y="602" class="axis-label">Peak: 2026-02-15</text>
<text x="796" y="622" class="axis-label">  (543K lines)</text>
<text x="90" y="742" class="axis-label">Total: +916,815 / -569,551 lines &#xb7; 2,852 contributions &#xb7; 76 repos &#xb7; &#x2605; 34</text>
</svg>