<svg xmlns="http://www.w3.org/2000/svg" width="1000" height="760" style="max-width: 100%;" viewBox="0 0 1000 760">

<defs>
  <linearGradient id="areaGrad" x1="0" y1="0" x2="0" y2="1">
    <stop offset="0%" stop-color="#58a6ff" stop-opacity="0.35"/>
    <stop offset="100%" stop-color="#58a6ff" stop-opacity="0.02"/>
  </linearGradient>
  <linearGradient id="addGrad" x1="0" y1="0" x2="0" y2="1">
    <stop offset="0%" stop-color="#3fb950" stop-opacity="0.35"/>
    <stop offset="100%" stop-color="#3fb950" stop-opacity="0.02"/>
  </linearGradient>
  <linearGradient id="delGrad" x1="0" y1="0" x2="0" y2="1">
    <stop offset="0%" stop-color="#f85149" stop-opacity="0.25"/>
    <stop offset="100%" stop-color="#f85149" stop-opacity="0.02"/>
  </linearGradient>
</defs>
<style>
  .title { font: bold 28px 'Segoe UI', Ubuntu, Sans-Serif; fill: #c9d1d9; }
  .subtitle { font: 600 20px 'Segoe UI', Ubuntu, Sans-Serif; fill: #c9d1d9; opacity: 0.8; }
  .axis-label { font: 18px 'Segoe UI', Ubuntu, Sans-Serif; fill: #c9d1d9; opacity: 0.7; }
  .legend-text { font: 14px 'Segoe UI', Ubuntu, Sans-Serif; fill: #c9d1d9; }
  .value-text { font: bold 18px 'Segoe UI', Ubuntu, Sans-Serif; fill: #c9d1d9; }
  .stat-value { font: bold 22px 'Segoe UI', Ubuntu, Sans-Serif; fill: #c9d1d9; }
  .stat-label { font: 18px 'Segoe UI', Ubuntu, Sans-Serif; fill: #c9d1d9; opacity: 0.7; }
  @keyframes fadeIn { from { opacity: 0; } to { opacity: 1; } }
  .anim { animation: fadeIn 0.6s ease-in-out forwards; opacity: 0; }
</style>

<rect x="0.5" y="0.5" rx="4.5" width="999" height="759" fill="#161b22" stroke="#21262d"/>
<text x="90" y="45" class="title">Activity History</text>
<text x="90" y="72" class="subtitle">Lines added vs deleted &amp; activity trends over time</text>
<line x1="90" y1="340.0" x2="780" y2="340.0" stroke="#21262d" stroke-width="1"/>
<text x="82" y="344.0" text-anchor="end" class="axis-label">0</text>
<line x1="90" y1="280.0" x2="780" y2="280.0" stroke="#21262d" stroke-width="1"/>
<text x="82" y="284.0" text-anchor="end" class="axis-label">623K</text>
<line x1="90" y1="220.0" x2="780" y2="220.0" stroke="#21262d" stroke-width="1"/>
<text x="82" y="224.0" text-anchor="end" class="axis-label">1.2M</text>
<line x1="90" y1="160.0" x2="780" y2="160.0" stroke="#21262d" stroke-width="1"/>
<text x="82" y="164.0" text-anchor="end" class="axis-label">1.9M</text>
<line x1="90" y1="100.0" x2="780" y2="100.0" stroke="#21262d" stroke-width="1"/>
<text x="82" y="104.0" text-anchor="end" class="axis-label">2.5M</text>
<polygon points="90.0,340.0 90.0,304.8 108.2,306.1 126.3,304.8 144.5,306.1 162.6,314.2 180.8,298.1 198.9,298.1 217.1,292.0 235.3,291.8 253.4,291.4 271.6,291.4 289.7,280.5 307.9,280.5 326.1,280.5 344.2,264.4 362.4,264.2 380.5,264.0 398.7,264.0 416.8,264.0 435.0,264.0 453.2,264.0 471.3,263.6 489.5,252.9 507.6,252.9 525.8,252.9 543.9,252.9 562.1,252.6 580.3,252.6 598.4,252.2 616.6,252.2 634.7,252.1 652.9,252.1 671.1,252.1 689.2,252.1 707.4,252.2 725.5,252.1 743.7,252.1 761.8,227.0 780.0,201.8 780.0,340.0" fill="url(#addGrad)" class="anim" style="animation-delay:200ms;"/>
<polyline points="90.0,304.8 108.2,306.1 126.3,304.8 144.5,306.1 162.6,314.2 180.8,298.1 198.9,298.1 217.1,292.0 235.3,291.8 253.4,291.4 271.6,291.4 289.7,280.5 307.9,280.5 326.1,280.5 344.2,264.4 362.4,264.2 380.5,264.0 398.7,264.0 416.8,264.0 435.0,264.0 453.2,264.0 471.3,263.6 489.5,252.9 507.6,252.9 525.8,252.9 543.9,252.9 562.1,252.6 580.3,252.6 598.4,252.2 616.6,252.2 634.7,252.1 652.9,252.1 671.1,252.1 689.2,252.1 707.4,252.2 725.5,252.1 743.7,252.1" fill="none" stroke="#3fb950" stroke-width="2" stroke-linejoin="round" class="anim" style="animation-delay:250ms;"/>
<polyline points="743.7,252.1 761.8,227.0 780.0,201.8" fill="none" stroke="#3fb950" stroke-width="1.5" stroke-dasharray="5,4" stroke-linejoin="round" opacity="0.6" class="anim" style="animation-delay:250ms;"/>
<polygon points="90.0,340.0 90.0,330.1 108.2,331.1 126.3,330.1 144.5,331.1 162.6,335.3 180.8,328.9 198.9,328.9 217.1,328.2 235.3,328.0 253.4,327.8 271.6,327.7 289.7,316.1 307.9,316.1 326.1,316.0 344.2,302.8 362.4,302.7 380.5,302.7 398.7,302.7 416.8,302.7 435.0,302.7 453.2,302.7 471.3,295.8 489.5,285.3 507.6,285.3 525.8,285.3 543.9,285.3 562.1,285.2 580.3,285.2 598.4,285.2 616.6,285.1 634.7,285.1 652.9,285.1 671.1,285.1 689.2,285.1 707.4,285.1 725.5,285.1 743.7,285.1 761.8,261.6 780.0,238.2 780.0,340.0" fill="url(#delGrad)" class="anim" style="animation-delay:300ms;"/>
<polyline points="90.0,330.1 108.2,331.1 126.3,330.1 144.5,331.1 162.6,335.3 180.8,328.9 198.9,328.9 217.1,328.2 235.3,328.0 253.4,327.8 271.6,327.7 289.7,316.1 307.9,316.1 326.1,316.0 344.2,302.8 362.4,302.7 380.5,302.7 398.7,302.7 416.8,302.7 435.0,302.7 453.2,302.7 471.3,295.8 489.5,285.3 507.6,285.3 525.8,285.3 543.9,285.3 562.1,285.2 580.3,285.2 598.4,285.2 616.6,285.1 634.7,285.1 652.9,285.1 671.1,285.1 689.2,285.1 707.4,285.1 725.5,285.1 743.7,285.1" fill="none" stroke="#f85149" stroke-width="1.5" stroke-linejoin="round" class="anim" style="animation-delay:350ms;"/>
<polyline points="743.7,285.1 761.8,261.6 780.0,238.2" fill="none" stroke="#f85149" stroke-width="1" stroke-dasharray="5,4" stroke-linejoin="round" opacity="0.6" class="anim" style="animation-delay:350ms;"/>
<polyline points="90.0,340.0 108.2,340.0 126.3,340.0 144.5,340.0 162.6,340.0 180.8,340.0 198.9,340.0 217.1,340.0 235.3,276.0 253.4,276.0 271.6,276.0 289.7,276.0 307.9,276.0 326.1,276.0 344.2,276.0 362.4,276.0 380.5,276.0 398.7,276.0 416.8,276.0 435.0,276.0 453.2,276.0 471.3,276.0 489.5,276.0 507.6,276.0 525.8,276.0 543.9,276.0 562.1,276.0 580.3,276.0 598.4,276.0 616.6,276.0 634.7,276.0 652.9,276.0 671.1,276.0 689.2,276.0 707.4,212.0 725.5,212.0 743.7,212.0" fill="none" stroke="#e3b341" stroke-width="1.5" stroke-dasharray="4,3" stroke-linejoin="round" class="anim" style="animation-delay:400ms;"/>
<polyline points="743.7,212.0 761.8,212.0 780.0,148.0" fill="none" stroke="#e3b341" stroke-width="1" stroke-dasharray="3,5" stroke-linejoin="round" opacity="0.5" class="anim" style="animation-delay:400ms;"/>
<text x="90" y="90" class="subtitle">Lines Added vs Deleted (per snapshot)</text>
<text x="90" y="400" class="subtitle">Programming Language Development (%)</text>
<line x1="90" y1="650.0" x2="780" y2="650.0" stroke="#21262d" stroke-width="1"/>
<text x="82" y="654.0" text-anchor="end" class="axis-label">0%</text>
<line x1="90" y1="590.0" x2="780" y2="590.0" stroke="#21262d" stroke-width="1"/>
<text x="82" y="594.0" text-anchor="end" class="axis-label">25%</text>
<line x1="90" y1="530.0" x2="780" y2="530.0" stroke="#21262d" stroke-width="1"/>
<text x="82" y="534.0" text-anchor="end" class="axis-label">50%</text>
<line x1="90" y1="470.0" x2="780" y2="470.0" stroke="#21262d" stroke-width="1"/>
<text x="82" y="474.0" text-anchor="end" class="axis-label">75%</text>
<line x1="90" y1="410.0" x2="780" y2="410.0" stroke="#21262d" stroke-width="1"/>
<text x="82" y="414.0" text-anchor="end" class="axis-label">100%</text>
<polygon points="90.0,650.0 108.2,650.0 126.3,650.0 144.5,650.0 162.6,650.0 180.8,650.0 198.9,650.0 217.1,650.0 235.3,528.2 253.4,528.5 271.6,529.7 289.7,499.3 307.9,499.3 326.1,502.9 344.2,485.0 362.4,485.1 380.5,485.4 398.7,485.4 416.8,485.4 435.0,485.4 453.2,485.4 471.3,496.4 489.5,496.7 507.6,491.0 525.8,491.0 543.9,491.0 562.1,491.7 580.3,491.8 598.4,494.0 616.6,494.0 634.7,494.4 652.9,494.4 671.1,494.4 689.2,494.4 707.4,507.6 725.5,507.6 743.7,507.9 761.8,503.2 780.0,498.5 780.0,650.0 761.8,650.0 743.7,650.0 725.5,650.0 707.4,650.0 689.2,650.0 671.1,650.0 652.9,650.0 634.7,650.0 616.6,650.0 598.4,650.0 580.3,650.0 562.1,650.0 543.9,650.0 525.8,650.0 507.6,650.0 489.5,650.0 471.3,650.0 453.2,650.0 435.0,650.0 416.8,650.0 398.7,650.0 380.5,650.0 362.4,650.0 344.2,650.0 326.1,650.0 307.9,650.0 289.7,650.0 271.6,650.0 253.4,650.0 235.3,650.0 217.1,650.0 198.9,650.0 180.8,650.0 162.6,650.0 144.5,650.0 126.3,650.0 108.2,650.0 90.0,650.0" fill="#e34c26" opacity="0.6" class="anim" style="animation-delay:500ms;"/>
<polygon points="90.0,650.0 108.2,650.0 126.3,650.0 144.5,650.0 162.6,650.0 180.8,650.0 198.9,650.0 217.1,650.0 235.3,488.4 253.4,488.0 271.6,489.0 289.7,476.0 307.9,476.0 326.1,477.2 344.2,460.1 362.4,460.2 380.5,460.6 398.7,460.6 416.8,460.6 435.0,460.6 453.2,460.6 471.3,473.0 489.5,473.5 507.6,469.5 525.8,469.5 543.9,469.5 562.1,469.7 580.3,469.7 598.4,469.7 616.6,469.7 634.7,469.7 652.9,469.7 671.1,469.7 689.2,469.7 707.4,455.6 725.5,455.6 743.7,455.4 761.8,447.9 780.0,440.4 780.0,498.5 761.8,503.2 743.7,507.9 725.5,507.6 707.4,507.6 689.2,494.4 671.1,494.4 652.9,494.4 634.7,494.4 616.6,494.0 598.4,494.0 580.3,491.8 562.1,491.7 543.9,491.0 525.8,491.0 507.6,491.0 489.5,496.7 471.3,496.4 453.2,485.4 435.0,485.4 416.8,485.4 398.7,485.4 380.5,485.4 362.4,485.1 344.2,485.0 326.1,502.9 307.9,499.3 289.7,499.3 271.6,529.7 253.4,528.5 235.3,528.2 217.1,650.0 198.9,650.0 180.8,650.0 162.6,650.0 144.5,650.0 126.3,650.0 108.2,650.0 90.0,650.0" fill="#f1e05a" opacity="0.6" class="anim" style="animation-delay:600ms;"/>
<polygon points="90.0,650.0 108.2,650.0 126.3,650.0 144.5,650.0 162.6,650.0 180.8,650.0 198.9,650.0 217.1,650.0 235.3,455.5 253.4,455.4 271.6,455.1 289.7,447.0 307.9,447.0 326.1,448.2 344.2,438.9 362.4,439.0 380.5,439.6 398.7,439.6 416.8,439.6 435.0,439.6 453.2,439.6 471.3,445.6 489.5,445.6 507.6,443.3 525.8,443.3 543.9,443.3 562.1,443.6 580.3,443.6 598.4,444.1 616.6,444.1 634.7,444.1 652.9,444.1 671.1,444.1 689.2,444.1 707.4,437.5 725.5,437.5 743.7,437.5 761.8,433.7 780.0,429.9 780.0,440.4 761.8,447.9 743.7,455.4 725.5,455.6 707.4,455.6 689.2,469.7 671.1,469.7 652.9,469.7 634.7,469.7 616.6,469.7 598.4,469.7 580.3,469.7 562.1,469.7 543.9,469.5 525.8,469.5 507.6,469.5 489.5,473.5 471.3,473.0 453.2,460.6 435.0,460.6 416.8,460.6 398.7,460.6 380.5,460.6 362.4,460.2 344.2,460.1 326.1,477.2 307.9,476.0 289.7,476.0 271.6,489.0 253.4,488.0 235.3,488.4 217.1,650.0 198.9,650.0 180.8,650.0 162.6,650.0 144.5,650.0 126.3,650.0 108.2,650.0 90.0,650.0" fill="#3572A5" opacity="0.6" class="anim" style="animation-delay:700ms;"/>
<polygon points="90.0,650.0 108.2,650.0 126.3,650.0 144.5,650.0 162.6,650.0 180.8,650.0 198.9,650.0 217.1,650.0 235.3,442.3 253.4,442.0 271.6,441.6 289.7,439.5 307.9,439.5 326.1,439.4 344.2,432.3 362.4,432.2 380.5,432.6 398.7,432.6 416.8,432.6 435.0,432.6 453.2,432.6 471.3,439.3 489.5,439.3 507.6,437.4 525.8,437.4 543.9,437.4 562.1,437.3 580.3,437.3 598.4,437.1 616.6,437.1 634.7,437.1 652.9,437.1 671.1,437.1 689.2,437.1 707.4,428.7 725.5,428.6 743.7,428.5 761.8,426.1 780.0,423.7 780.0,429.9 761.8,433.7 743.7,437.5 725.5,437.5 707.4,437.5 689.2,444.1 671.1,444.1 652.9,444.1 634.7,444.1 616.6,444.1 598.4,444.1 580.3,443.6 562.1,443.6 543.9,443.3 525.8,443.3 507.6,443.3 489.5,445.6 471.3,445.6 453.2,439.6 435.0,439.6 416.8,439.6 398.7,439.6 380.5,439.6 362.4,439.0 344.2,438.9 326.1,448.2 307.9,447.0 289.7,447.0 271.6,455.1 253.4,455.4 235.3,455.5 217.1,650.0 198.9,650.0 180.8,650.0 162.6,650.0 144.5,650.0 126.3,650.0 108.2,650.0 90.0,650.0" fill="#663399" opacity="0.6" class="anim" style="animation-delay:800ms;"/>
<polygon points="90.0,650.0 108.2,650.0 126.3,650.0 144.5,650.0 162.6,650.0 180.8,650.0 198.9,650.0 217.1,650.0 235.3,436.6 253.4,436.3 271.6,435.9 289.7,432.2 307.9,432.2 326.1,432.2 344.2,426.2 362.4,426.1 380.5,426.0 398.7,426.0 416.8,426.0 435.0,426.0 453.2,426.0 471.3,430.8 489.5,430.7 507.6,429.3 525.8,429.3 543.9,429.3 562.1,429.2 580.3,429.2 598.4,428.9 616.6,428.9 634.7,428.8 652.9,428.8 671.1,428.8 689.2,428.8 707.4,423.0 725.5,422.9 743.7,422.9 761.8,419.8 780.0,416.8 780.0,423.7 761.8,426.1 743.7,428.5 725.5,428.6 707.4,428.7 689.2,437.1 671.1,437.1 652.9,437.1 634.7,437.1 616.6,437.1 598.4,437.1 580.3,437.3 562.1,437.3 543.9,437.4 525.8,437.4 507.6,437.4 489.5,439.3 471.3,439.3 453.2,432.6 435.0,432.6 416.8,432.6 398.7,432.6 380.5,432.6 362.4,432.2 344.2,432.3 326.1,439.4 307.9,439.5 289.7,439.5 271.6,441.6 253.4,442.0 235.3,442.3 217.1,650.0 198.9,650.0 180.8,650.0 162.6,650.0 144.5,650.0 126.3,650.0 108.2,650.0 90.0,650.0" fill="#083fa1" opacity="0.6" class="anim" style="animation-delay:900ms;"/>
<polygon points="90.0,650.0 108.2,650.0 126.3,650.0 144.5,650.0 162.6,650.0 180.8,650.0 198.9,650.0 217.1,650.0 235.3,427.0 253.4,426.8 271.6,426.6 289.7,424.2 307.9,424.2 326.1,424.2 344.2,420.4 362.4,420.3 380.5,420.3 398.7,420.3 416.8,420.3 435.0,420.3 453.2,420.3 471.3,423.3 489.5,423.2 507.6,422.4 525.8,422.4 543.9,422.4 562.1,422.3 580.3,422.3 598.4,422.1 616.6,422.1 634.7,422.1 652.9,422.1 671.1,422.1 689.2,422.1 707.4,418.3 725.5,418.3 743.7,418.2 761.8,416.5 780.0,414.8 780.0,416.8 761.8,419.8 743.7,422.9 725.5,422.9 707.4,423.0 689.2,428.8 671.1,428.8 652.9,428.8 634.7,428.8 616.6,428.9 598.4,428.9 580.3,429.2 562.1,429.2 543.9,429.3 525.8,429.3 507.6,429.3 489.5,430.7 471.3,430.8 453.2,426.0 435.0,426.0 416.8,426.0 398.7,426.0 380.5,426.0 362.4,426.1 344.2,426.2 326.1,432.2 307.9,432.2 289.7,432.2 271.6,435.9 253.4,436.3 235.3,436.6 217.1,650.0 198.9,650.0 180.8,650.0 162.6,650.0 144.5,650.0 126.3,650.0 108.2,650.0 90.0,650.0" fill="#6E4C13" opacity="0.6" class="anim" style="animation-delay:1000ms;"/>
<polygon points="90.0,650.0 108.2,650.0 126.3,650.0 144.5,650.0 162.6,650.0 180.8,650.0 198.9,650.0 217.1,650.0 235.3,418.7 253.4,418.6 271.6,418.5 289.7,417.3 307.9,417.3 326.1,417.2 344.2,415.3 362.4,415.3 380.5,415.2 398.7,415.2 416.8,415.2 435.0,415.2 453.2,415.2 471.3,416.8 489.5,416.8 507.6,416.3 525.8,416.3 543.9,416.3 562.1,416.3 580.3,416.3 598.4,416.2 616.6,416.2 634.7,416.2 652.9,416.2 671.1,416.2 689.2,416.2 707.4,414.2 725.5,414.2 743.7,414.2 761.8,413.6 780.0,413.0 780.0,414.8 761.8,416.5 743.7,418.2 725.5,418.3 707.4,418.3 689.2,422.1 671.1,422.1 652.9,422.1 634.7,422.1 616.6,422.1 598.4,422.1 580.3,422.3 562.1,422.3 543.9,422.4 525.8,422.4 507.6,422.4 489.5,423.2 471.3,423.3 453.2,420.3 435.0,420.3 416.8,420.3 398.7,420.3 380.5,420.3 362.4,420.3 344.2,420.4 326.1,424.2 307.9,424.2 289.7,424.2 271.6,426.6 253.4,426.8 235.3,427.0 217.1,650.0 198.9,650.0 180.8,650.0 162.6,650.0 144.5,650.0 126.3,650.0 108.2,650.0 90.0,650.0" fill="#F05138" opacity="0.6" class="anim" style="animation-delay:1100ms;"/>
<polygon points="90.0,650.0 108.2,650.0 126.3,650.0 144.5,650.0 162.6,650.0 180.8,650.0 198.9,650.0 217.1,650.0 235.3,414.4 253.4,414.4 271.6,414.3 289.7,413.7 307.9,413.7 326.1,413.7 344.2,412.7 362.4,412.7 380.5,412.7 398.7,412.7 416.8,412.7 435.0,412.7 453.2,412.7 471.3,413.5 489.5,413.4 507.6,413.2 525.8,413.2 543.9,413.2 562.1,413.2 580.3,413.2 598.4,413.1 616.6,413.1 634.7,413.1 652.9,413.1 671.1,413.1 689.2,413.1 707.4,412.2 725.5,412.1 743.7,412.1 761.8,412.1 780.0,412.1 780.0,413.0 761.8,413.6 743.7,414.2 725.5,414.2 707.4,414.2 689.2,416.2 671.1,416.2 652.9,416.2 634.7,416.2 616.6,416.2 598.4,416.2 580.3,416.3 562.1,416.3 543.9,416.3 525.8,416.3 507.6,416.3 489.5,416.8 471.3,416.8 453.2,415.2 435.0,415.2 416.8,415.2 398.7,415.2 380.5,415.2 362.4,415.3 344.2,415.3 326.1,417.2 307.9,417.3 289.7,417.3 271.6,418.5 253.4,418.6 235.3,418.7 217.1,650.0 198.9,650.0 180.8,650.0 162.6,650.0 144.5,650.0 126.3,650.0 108.2,650.0 90.0,650.0" fill="#b07219" opacity="0.6" class="anim" style="animation-delay:1200ms;"/>
<line x1="743.7" y1="100" x2="743.7" y2="650" stroke="#c9d1d9" stroke-width="1" stroke-dasharray="4,3" opacity="0.35"/>
<text x="761.8" y="112" text-anchor="middle" class="axis-label" opacity="0.6">Mar 28, 2026</text>
<text x="90.0" y="668" text-anchor="middle" class="axis-label" transform="rotate(-35 90.0 668)">2026-02</text>
<text x="525.8" y="668" text-anchor="middle" class="axis-label" transform="rotate(-35 525.8 668)">2026-03</text>
<text x="761.8" y="668" text-anchor="middle" class="axis-label" transform="rotate(-35 761.8 668)">Mar 28, 2026</text>
<line x1="796" y1="110" x2="824" y2="110" stroke="#3fb950" stroke-width="2"/>
<text x="832" y="116" class="legend-text">Lines Added</text>
<line x1="796" y1="140" x2="824" y2="140" stroke="#f85149" stroke-width="1.5"/>
<text x="832" y="146" class="legend-text">Lines Deleted</text>
<line x1="796" y1="170" x2="824" y2="170" stroke="#e3b341" stroke-width="1.5" stroke-dasharray="4,3"/>
<text x="832" y="176" class="legend-text">&#x2605; Stars</text>
<text x="796" y="200" class="subtitle">Languages</text>
<rect x="796" y="212" width="12" height="12" rx="2" fill="#e34c26" opacity="0.8" class="anim" style="animation-delay:800ms;"/>
<text x="814" y="223" class="legend-text">HTML (59%→63%)</text>
<rect x="796" y="234" width="12" height="12" rx="2" fill="#f1e05a" opacity="0.8" class="anim" style="animation-delay:880ms;"/>
<text x="814" y="245" class="legend-text">JavaScript (22%→24%)</text>
<rect x="796" y="256" width="12" height="12" rx="2" fill="#3572A5" opacity="0.8" class="anim" style="animation-delay:960ms;"/>
<text x="814" y="267" class="legend-text">Python (7%→4%)</text>
<rect x="796" y="278" width="12" height="12" rx="2" fill="#663399" opacity="0.8" class="anim" style="animation-delay:1040ms;"/>
<text x="814" y="289" class="legend-text">CSS (4%→3%)</text>
<rect x="796" y="300" width="12" height="12" rx="2" fill="#083fa1" opacity="0.8" class="anim" style="animation-delay:1120ms;"/>
<text x="814" y="311" class="legend-text">Markdown (2%→3%)</text>
<rect x="796" y="322" width="12" height="12" rx="2" fill="#6E4C13" opacity="0.8" class="anim" style="animation-delay:1200ms;"/>
<text x="814" y="333" class="legend-text">Assembly (2%→1%)</text>
<rect x="796" y="344" width="12" height="12" rx="2" fill="#F05138" opacity="0.8" class="anim" style="animation-delay:1280ms;"/>
<text x="814" y="355" class="legend-text">Swift (2%→1%)</text>
<rect x="796" y="366" width="12" height="12" rx="2" fill="#b07219" opacity="0.8" class="anim" style="animation-delay:1360ms;"/>
<text x="814" y="377" class="legend-text">Java (1%→0%)</text>
<text x="796" y="412" class="subtitle">Contributions</text>
<text x="796" y="432" class="axis-label">2023: 39</text>
<text x="796" y="452" class="axis-label">2024: 646</text>
<text x="796" y="472" class="axis-label">2025: 1,780</text>
<text x="796" y="492" class="axis-label">2026: 378</text>
<text x="796" y="522" class="subtitle">Statistics</text>
<text x="796" y="542" class="axis-label">Active weeks: 78</text>
<text x="796" y="562" class="axis-label">Add/Del ratio: 1.6x</text>
<text x="796" y="582" class="axis-label">Avg lines/wk: 19K</text>
<text x="796" y="602" class="axis-label">Peak: 2026-02-15</text>
<text x="796" y="622" class="axis-label">  (543K lines)</text>
<text x="90" y="742" class="axis-label">Total: +912,015 / -569,548 lines &#xb7; 2,843 contributions &#xb7; 75 repos &#xb7; &#x2605; 34</text>
</svg>