<svg xmlns="http://www.w3.org/2000/svg" width="1000" height="760" style="max-width: 100%;" viewBox="0 0 1000 760">

<defs>
  <linearGradient id="areaGrad" x1="0" y1="0" x2="0" y2="1">
    <stop offset="0%" stop-color="#58a6ff" stop-opacity="0.35"/>
    <stop offset="100%" stop-color="#58a6ff" stop-opacity="0.02"/>
  </linearGradient>
  <linearGradient id="addGrad" x1="0" y1="0" x2="0" y2="1">
    <stop offset="0%" stop-color="#3fb950" stop-opacity="0.35"/>
    <stop offset="100%" stop-color="#3fb950" stop-opacity="0.02"/>
  </linearGradient>
  <linearGradient id="delGrad" x1="0" y1="0" x2="0" y2="1">
    <stop offset="0%" stop-color="#f85149" stop-opacity="0.25"/>
    <stop offset="100%" stop-color="#f85149" stop-opacity="0.02"/>
  </linearGradient>
</defs>
<style>
  .title { font: bold 28px 'Segoe UI', Ubuntu, Sans-Serif; fill: #c9d1d9; }
  .subtitle { font: 600 20px 'Segoe UI', Ubuntu, Sans-Serif; fill: #c9d1d9; opacity: 0.8; }
  .axis-label { font: 18px 'Segoe UI', Ubuntu, Sans-Serif; fill: #c9d1d9; opacity: 0.7; }
  .legend-text { font: 14px 'Segoe UI', Ubuntu, Sans-Serif; fill: #c9d1d9; }
  .value-text { font: bold 18px 'Segoe UI', Ubuntu, Sans-Serif; fill: #c9d1d9; }
  .stat-value { font: bold 22px 'Segoe UI', Ubuntu, Sans-Serif; fill: #c9d1d9; }
  .stat-label { font: 18px 'Segoe UI', Ubuntu, Sans-Serif; fill: #c9d1d9; opacity: 0.7; }
  @keyframes fadeIn { from { opacity: 0; } to { opacity: 1; } }
  .anim { animation: fadeIn 0.6s ease-in-out forwards; opacity: 0; }
</style>

<rect x="0.5" y="0.5" rx="4.5" width="999" height="759" fill="#161b22" stroke="#21262d"/>
<text x="90" y="45" class="title">Activity History</text>
<text x="90" y="72" class="subtitle">Lines added vs deleted &amp; activity trends over time</text>
<line x1="90" y1="340.0" x2="780" y2="340.0" stroke="#21262d" stroke-width="1"/>
<text x="82" y="344.0" text-anchor="end" class="axis-label">0</text>
<line x1="90" y1="280.0" x2="780" y2="280.0" stroke="#21262d" stroke-width="1"/>
<text x="82" y="284.0" text-anchor="end" class="axis-label">709K</text>
<line x1="90" y1="220.0" x2="780" y2="220.0" stroke="#21262d" stroke-width="1"/>
<text x="82" y="224.0" text-anchor="end" class="axis-label">1.4M</text>
<line x1="90" y1="160.0" x2="780" y2="160.0" stroke="#21262d" stroke-width="1"/>
<text x="82" y="164.0" text-anchor="end" class="axis-label">2.1M</text>
<line x1="90" y1="100.0" x2="780" y2="100.0" stroke="#21262d" stroke-width="1"/>
<text x="82" y="104.0" text-anchor="end" class="axis-label">2.8M</text>
<polygon points="90.0,340.0 90.0,309.1 117.6,310.2 145.2,309.1 172.8,310.2 200.4,317.4 228.0,303.2 255.6,303.2 283.2,297.9 310.8,297.7 338.4,297.3 366.0,297.3 393.6,287.8 421.2,287.8 448.8,287.7 476.4,273.7 504.0,273.5 531.6,273.3 559.2,273.3 586.8,273.3 614.4,273.3 642.0,273.3 669.6,273.0 697.2,263.5 724.8,263.5 752.4,231.5 780.0,199.5 780.0,340.0" fill="url(#addGrad)" class="anim" style="animation-delay:200ms;"/>
<polyline points="90.0,309.1 117.6,310.2 145.2,309.1 172.8,310.2 200.4,317.4 228.0,303.2 255.6,303.2 283.2,297.9 310.8,297.7 338.4,297.3 366.0,297.3 393.6,287.8 421.2,287.8 448.8,287.7 476.4,273.7 504.0,273.5 531.6,273.3 559.2,273.3 586.8,273.3 614.4,273.3 642.0,273.3 669.6,273.0 697.2,263.5 724.8,263.5" fill="none" stroke="#3fb950" stroke-width="2" stroke-linejoin="round" class="anim" style="animation-delay:250ms;"/>
<polyline points="724.8,263.5 752.4,231.5 780.0,199.5" fill="none" stroke="#3fb950" stroke-width="1.5" stroke-dasharray="5,4" stroke-linejoin="round" opacity="0.6" class="anim" style="animation-delay:250ms;"/>
<polygon points="90.0,340.0 90.0,331.3 117.6,332.2 145.2,331.3 172.8,332.2 200.4,335.9 228.0,330.3 255.6,330.3 283.2,329.6 310.8,329.4 338.4,329.3 366.0,329.2 393.6,319.0 421.2,319.0 448.8,319.0 476.4,307.4 504.0,307.3 531.6,307.3 559.2,307.3 586.8,307.3 614.4,307.3 642.0,307.3 669.6,301.2 697.2,292.0 724.8,291.9 752.4,266.2 780.0,240.5 780.0,340.0" fill="url(#delGrad)" class="anim" style="animation-delay:300ms;"/>
<polyline points="90.0,331.3 117.6,332.2 145.2,331.3 172.8,332.2 200.4,335.9 228.0,330.3 255.6,330.3 283.2,329.6 310.8,329.4 338.4,329.3 366.0,329.2 393.6,319.0 421.2,319.0 448.8,319.0 476.4,307.4 504.0,307.3 531.6,307.3 559.2,307.3 586.8,307.3 614.4,307.3 642.0,307.3 669.6,301.2 697.2,292.0 724.8,291.9" fill="none" stroke="#f85149" stroke-width="1.5" stroke-linejoin="round" class="anim" style="animation-delay:350ms;"/>
<polyline points="724.8,291.9 752.4,266.2 780.0,240.5" fill="none" stroke="#f85149" stroke-width="1" stroke-dasharray="5,4" stroke-linejoin="round" opacity="0.6" class="anim" style="animation-delay:350ms;"/>
<polyline points="90.0,340.0 117.6,340.0 145.2,340.0 172.8,340.0 200.4,340.0 228.0,340.0 255.6,340.0 283.2,340.0 310.8,244.0 338.4,244.0 366.0,244.0 393.6,244.0 421.2,244.0 448.8,244.0 476.4,244.0 504.0,244.0 531.6,244.0 559.2,244.0 586.8,244.0 614.4,244.0 642.0,244.0 669.6,244.0 697.2,244.0 724.8,244.0" fill="none" stroke="#e3b341" stroke-width="1.5" stroke-dasharray="4,3" stroke-linejoin="round" class="anim" style="animation-delay:400ms;"/>
<polyline points="724.8,244.0 752.4,244.0 780.0,148.0" fill="none" stroke="#e3b341" stroke-width="1" stroke-dasharray="3,5" stroke-linejoin="round" opacity="0.5" class="anim" style="animation-delay:400ms;"/>
<text x="90" y="90" class="subtitle">Lines Added vs Deleted (per snapshot)</text>
<text x="90" y="400" class="subtitle">Programming Language Development (%)</text>
<line x1="90" y1="650.0" x2="780" y2="650.0" stroke="#21262d" stroke-width="1"/>
<text x="82" y="654.0" text-anchor="end" class="axis-label">0%</text>
<line x1="90" y1="590.0" x2="780" y2="590.0" stroke="#21262d" stroke-width="1"/>
<text x="82" y="594.0" text-anchor="end" class="axis-label">25%</text>
<line x1="90" y1="530.0" x2="780" y2="530.0" stroke="#21262d" stroke-width="1"/>
<text x="82" y="534.0" text-anchor="end" class="axis-label">50%</text>
<line x1="90" y1="470.0" x2="780" y2="470.0" stroke="#21262d" stroke-width="1"/>
<text x="82" y="474.0" text-anchor="end" class="axis-label">75%</text>
<line x1="90" y1="410.0" x2="780" y2="410.0" stroke="#21262d" stroke-width="1"/>
<text x="82" y="414.0" text-anchor="end" class="axis-label">100%</text>
<polygon points="90.0,650.0 117.6,650.0 145.2,650.0 172.8,650.0 200.4,650.0 228.0,650.0 255.6,650.0 283.2,650.0 310.8,528.2 338.4,528.5 366.0,529.7 393.6,499.3 421.2,499.3 448.8,502.9 476.4,485.0 504.0,485.1 531.6,485.4 559.2,485.4 586.8,485.4 614.4,485.4 642.0,485.4 669.6,496.4 697.2,496.7 724.8,491.0 752.4,458.3 780.0,436.8 780.0,650.0 752.4,650.0 724.8,650.0 697.2,650.0 669.6,650.0 642.0,650.0 614.4,650.0 586.8,650.0 559.2,650.0 531.6,650.0 504.0,650.0 476.4,650.0 448.8,650.0 421.2,650.0 393.6,650.0 366.0,650.0 338.4,650.0 310.8,650.0 283.2,650.0 255.6,650.0 228.0,650.0 200.4,650.0 172.8,650.0 145.2,650.0 117.6,650.0 90.0,650.0" fill="#e34c26" opacity="0.6" class="anim" style="animation-delay:500ms;"/>
<polygon points="90.0,650.0 117.6,650.0 145.2,650.0 172.8,650.0 200.4,650.0 228.0,650.0 255.6,650.0 283.2,650.0 310.8,488.4 338.4,488.0 366.0,489.0 393.6,476.0 421.2,476.0 448.8,477.2 476.4,460.1 504.0,460.2 531.6,460.6 559.2,460.6 586.8,460.6 614.4,460.6 642.0,460.6 669.6,473.0 697.2,473.5 724.8,469.5 752.4,450.7 780.0,436.8 780.0,436.8 752.4,458.3 724.8,491.0 697.2,496.7 669.6,496.4 642.0,485.4 614.4,485.4 586.8,485.4 559.2,485.4 531.6,485.4 504.0,485.1 476.4,485.0 448.8,502.9 421.2,499.3 393.6,499.3 366.0,529.7 338.4,528.5 310.8,528.2 283.2,650.0 255.6,650.0 228.0,650.0 200.4,650.0 172.8,650.0 145.2,650.0 117.6,650.0 90.0,650.0" fill="#f1e05a" opacity="0.6" class="anim" style="animation-delay:600ms;"/>
<polygon points="90.0,650.0 117.6,650.0 145.2,650.0 172.8,650.0 200.4,650.0 228.0,650.0 255.6,650.0 283.2,650.0 310.8,455.5 338.4,455.4 366.0,455.1 393.6,447.0 421.2,447.0 448.8,448.2 476.4,438.9 504.0,439.0 531.6,439.6 559.2,439.6 586.8,439.6 614.4,439.6 642.0,439.6 669.6,445.6 697.2,445.6 724.8,443.3 752.4,432.8 780.0,427.6 780.0,436.8 752.4,450.7 724.8,469.5 697.2,473.5 669.6,473.0 642.0,460.6 614.4,460.6 586.8,460.6 559.2,460.6 531.6,460.6 504.0,460.2 476.4,460.1 448.8,477.2 421.2,476.0 393.6,476.0 366.0,489.0 338.4,488.0 310.8,488.4 283.2,650.0 255.6,650.0 228.0,650.0 200.4,650.0 172.8,650.0 145.2,650.0 117.6,650.0 90.0,650.0" fill="#3572A5" opacity="0.6" class="anim" style="animation-delay:700ms;"/>
<polygon points="90.0,650.0 117.6,650.0 145.2,650.0 172.8,650.0 200.4,650.0 228.0,650.0 255.6,650.0 283.2,650.0 310.8,442.3 338.4,442.0 366.0,441.6 393.6,439.5 421.2,439.5 448.8,439.4 476.4,432.3 504.0,432.2 531.6,432.6 559.2,432.6 586.8,432.6 614.4,432.6 642.0,432.6 669.6,439.3 697.2,439.3 724.8,437.4 752.4,432.8 780.0,427.6 780.0,427.6 752.4,432.8 724.8,443.3 697.2,445.6 669.6,445.6 642.0,439.6 614.4,439.6 586.8,439.6 559.2,439.6 531.6,439.6 504.0,439.0 476.4,438.9 448.8,448.2 421.2,447.0 393.6,447.0 366.0,455.1 338.4,455.4 310.8,455.5 283.2,650.0 255.6,650.0 228.0,650.0 200.4,650.0 172.8,650.0 145.2,650.0 117.6,650.0 90.0,650.0" fill="#663399" opacity="0.6" class="anim" style="animation-delay:800ms;"/>
<polygon points="90.0,650.0 117.6,650.0 145.2,650.0 172.8,650.0 200.4,650.0 228.0,650.0 255.6,650.0 283.2,650.0 310.8,432.7 338.4,432.5 366.0,432.2 393.6,431.5 421.2,431.5 448.8,431.4 476.4,426.4 504.0,426.4 531.6,426.8 559.2,426.8 586.8,426.8 614.4,426.8 642.0,426.8 669.6,431.8 697.2,431.8 724.8,430.4 752.4,428.6 780.0,426.2 780.0,427.6 752.4,432.8 724.8,437.4 697.2,439.3 669.6,439.3 642.0,432.6 614.4,432.6 586.8,432.6 559.2,432.6 531.6,432.6 504.0,432.2 476.4,432.3 448.8,439.4 421.2,439.5 393.6,439.5 366.0,441.6 338.4,442.0 310.8,442.3 283.2,650.0 255.6,650.0 228.0,650.0 200.4,650.0 172.8,650.0 145.2,650.0 117.6,650.0 90.0,650.0" fill="#6E4C13" opacity="0.6" class="anim" style="animation-delay:900ms;"/>
<polygon points="90.0,650.0 117.6,650.0 145.2,650.0 172.8,650.0 200.4,650.0 228.0,650.0 255.6,650.0 283.2,650.0 310.8,427.0 338.4,426.8 366.0,426.6 393.6,424.2 421.2,424.2 448.8,424.2 476.4,420.4 504.0,420.3 531.6,420.3 559.2,420.3 586.8,420.3 614.4,420.3 642.0,420.3 669.6,423.3 697.2,423.2 724.8,422.4 752.4,418.7 780.0,415.1 780.0,426.2 752.4,428.6 724.8,430.4 697.2,431.8 669.6,431.8 642.0,426.8 614.4,426.8 586.8,426.8 559.2,426.8 531.6,426.8 504.0,426.4 476.4,426.4 448.8,431.4 421.2,431.5 393.6,431.5 366.0,432.2 338.4,432.5 310.8,432.7 283.2,650.0 255.6,650.0 228.0,650.0 200.4,650.0 172.8,650.0 145.2,650.0 117.6,650.0 90.0,650.0" fill="#083fa1" opacity="0.6" class="anim" style="animation-delay:1000ms;"/>
<polygon points="90.0,650.0 117.6,650.0 145.2,650.0 172.8,650.0 200.4,650.0 228.0,650.0 255.6,650.0 283.2,650.0 310.8,418.7 338.4,418.6 366.0,418.5 393.6,417.3 421.2,417.3 448.8,417.2 476.4,415.3 504.0,415.3 531.6,415.2 559.2,415.2 586.8,415.2 614.4,415.2 642.0,415.2 669.6,416.8 697.2,416.8 724.8,416.3 752.4,415.1 780.0,413.8 780.0,415.1 752.4,418.7 724.8,422.4 697.2,423.2 669.6,423.3 642.0,420.3 614.4,420.3 586.8,420.3 559.2,420.3 531.6,420.3 504.0,420.3 476.4,420.4 448.8,424.2 421.2,424.2 393.6,424.2 366.0,426.6 338.4,426.8 310.8,427.0 283.2,650.0 255.6,650.0 228.0,650.0 200.4,650.0 172.8,650.0 145.2,650.0 117.6,650.0 90.0,650.0" fill="#F05138" opacity="0.6" class="anim" style="animation-delay:1100ms;"/>
<polygon points="90.0,650.0 117.6,650.0 145.2,650.0 172.8,650.0 200.4,650.0 228.0,650.0 255.6,650.0 283.2,650.0 310.8,414.4 338.4,414.4 366.0,414.3 393.6,413.7 421.2,413.7 448.8,413.7 476.4,412.7 504.0,412.7 531.6,412.7 559.2,412.7 586.8,412.7 614.4,412.7 642.0,412.7 669.6,413.5 697.2,413.4 724.8,413.2 752.4,413.2 780.0,413.2 780.0,413.8 752.4,415.1 724.8,416.3 697.2,416.8 669.6,416.8 642.0,415.2 614.4,415.2 586.8,415.2 559.2,415.2 531.6,415.2 504.0,415.3 476.4,415.3 448.8,417.2 421.2,417.3 393.6,417.3 366.0,418.5 338.4,418.6 310.8,418.7 283.2,650.0 255.6,650.0 228.0,650.0 200.4,650.0 172.8,650.0 145.2,650.0 117.6,650.0 90.0,650.0" fill="#b07219" opacity="0.6" class="anim" style="animation-delay:1200ms;"/>
<line x1="724.8" y1="100" x2="724.8" y2="650" stroke="#c9d1d9" stroke-width="1" stroke-dasharray="4,3" opacity="0.35"/>
<text x="752.4" y="112" text-anchor="middle" class="axis-label" opacity="0.6">Mar 15, 2026</text>
<text x="90.0" y="668" text-anchor="middle" class="axis-label" transform="rotate(-35 90.0 668)">2026-02</text>
<text x="724.8" y="668" text-anchor="middle" class="axis-label" transform="rotate(-35 724.8 668)">2026-03</text>
<line x1="796" y1="110" x2="824" y2="110" stroke="#3fb950" stroke-width="2"/>
<text x="832" y="116" class="legend-text">Lines Added</text>
<line x1="796" y1="140" x2="824" y2="140" stroke="#f85149" stroke-width="1.5"/>
<text x="832" y="146" class="legend-text">Lines Deleted</text>
<line x1="796" y1="170" x2="824" y2="170" stroke="#e3b341" stroke-width="1.5" stroke-dasharray="4,3"/>
<text x="832" y="176" class="legend-text">&#x2605; Stars</text>
<text x="796" y="200" class="subtitle">Languages</text>
<rect x="796" y="212" width="12" height="12" rx="2" fill="#e34c26" opacity="0.8" class="anim" style="animation-delay:800ms;"/>
<text x="814" y="223" class="legend-text">HTML (66%→89%)</text>
<rect x="796" y="234" width="12" height="12" rx="2" fill="#f1e05a" opacity="0.8" class="anim" style="animation-delay:880ms;"/>
<text x="814" y="245" class="legend-text">JavaScript (9%→0%)</text>
<rect x="796" y="256" width="12" height="12" rx="2" fill="#3572A5" opacity="0.8" class="anim" style="animation-delay:960ms;"/>
<text x="814" y="267" class="legend-text">Python (11%→4%)</text>
<rect x="796" y="278" width="12" height="12" rx="2" fill="#663399" opacity="0.8" class="anim" style="animation-delay:1040ms;"/>
<text x="814" y="289" class="legend-text">CSS (2%→0%)</text>
<rect x="796" y="300" width="12" height="12" rx="2" fill="#6E4C13" opacity="0.8" class="anim" style="animation-delay:1120ms;"/>
<text x="814" y="311" class="legend-text">Assembly (3%→1%)</text>
<rect x="796" y="322" width="12" height="12" rx="2" fill="#083fa1" opacity="0.8" class="anim" style="animation-delay:1200ms;"/>
<text x="814" y="333" class="legend-text">Markdown (3%→5%)</text>
<rect x="796" y="344" width="12" height="12" rx="2" fill="#F05138" opacity="0.8" class="anim" style="animation-delay:1280ms;"/>
<text x="814" y="355" class="legend-text">Swift (3%→1%)</text>
<rect x="796" y="366" width="12" height="12" rx="2" fill="#b07219" opacity="0.8" class="anim" style="animation-delay:1360ms;"/>
<text x="814" y="377" class="legend-text">Java (1%→0%)</text>
<text x="796" y="412" class="subtitle">Contributions</text>
<text x="796" y="432" class="axis-label">2023: 39</text>
<text x="796" y="452" class="axis-label">2024: 646</text>
<text x="796" y="472" class="axis-label">2025: 1,780</text>
<text x="796" y="492" class="axis-label">2026: 325</text>
<text x="796" y="522" class="subtitle">Statistics</text>
<text x="796" y="542" class="axis-label">Active weeks: 77</text>
<text x="796" y="562" class="axis-label">Add/Del ratio: 1.6x</text>
<text x="796" y="582" class="axis-label">Avg lines/wk: 19K</text>
<text x="796" y="602" class="axis-label">Peak: 2026-02-15</text>
<text x="796" y="622" class="axis-label">  (543K lines)</text>
<text x="90" y="742" class="axis-label">Total: +904,099 / -568,078 lines &#xb7; 2,790 contributions &#xb7; 71 repos &#xb7; &#x2605; 33</text>
</svg>