<svg xmlns="http://www.w3.org/2000/svg" width="1000" height="760" style="max-width: 100%;" viewBox="0 0 1000 760">

<defs>
  <linearGradient id="areaGrad" x1="0" y1="0" x2="0" y2="1">
    <stop offset="0%" stop-color="#58a6ff" stop-opacity="0.35"/>
    <stop offset="100%" stop-color="#58a6ff" stop-opacity="0.02"/>
  </linearGradient>
  <linearGradient id="addGrad" x1="0" y1="0" x2="0" y2="1">
    <stop offset="0%" stop-color="#3fb950" stop-opacity="0.35"/>
    <stop offset="100%" stop-color="#3fb950" stop-opacity="0.02"/>
  </linearGradient>
  <linearGradient id="delGrad" x1="0" y1="0" x2="0" y2="1">
    <stop offset="0%" stop-color="#f85149" stop-opacity="0.25"/>
    <stop offset="100%" stop-color="#f85149" stop-opacity="0.02"/>
  </linearGradient>
</defs>
<style>
  .title { font: bold 28px 'Segoe UI', Ubuntu, Sans-Serif; fill: #c9d1d9; }
  .subtitle { font: 600 20px 'Segoe UI', Ubuntu, Sans-Serif; fill: #c9d1d9; opacity: 0.8; }
  .axis-label { font: 18px 'Segoe UI', Ubuntu, Sans-Serif; fill: #c9d1d9; opacity: 0.7; }
  .legend-text { font: 14px 'Segoe UI', Ubuntu, Sans-Serif; fill: #c9d1d9; }
  .value-text { font: bold 18px 'Segoe UI', Ubuntu, Sans-Serif; fill: #c9d1d9; }
  .stat-value { font: bold 22px 'Segoe UI', Ubuntu, Sans-Serif; fill: #c9d1d9; }
  .stat-label { font: 18px 'Segoe UI', Ubuntu, Sans-Serif; fill: #c9d1d9; opacity: 0.7; }
  @keyframes fadeIn { from { opacity: 0; } to { opacity: 1; } }
  .anim { animation: fadeIn 0.6s ease-in-out forwards; opacity: 0; }
</style>

<rect x="0.5" y="0.5" rx="4.5" width="999" height="759" fill="#161b22" stroke="#21262d"/>
<text x="90" y="45" class="title">Activity History</text>
<text x="90" y="72" class="subtitle">Lines added vs deleted &amp; activity trends over time</text>
<line x1="90" y1="340.0" x2="780" y2="340.0" stroke="#21262d" stroke-width="1"/>
<text x="82" y="344.0" text-anchor="end" class="axis-label">0</text>
<line x1="90" y1="280.0" x2="780" y2="280.0" stroke="#21262d" stroke-width="1"/>
<text x="82" y="284.0" text-anchor="end" class="axis-label">453K</text>
<line x1="90" y1="220.0" x2="780" y2="220.0" stroke="#21262d" stroke-width="1"/>
<text x="82" y="224.0" text-anchor="end" class="axis-label">905K</text>
<line x1="90" y1="160.0" x2="780" y2="160.0" stroke="#21262d" stroke-width="1"/>
<text x="82" y="164.0" text-anchor="end" class="axis-label">1.4M</text>
<line x1="90" y1="100.0" x2="780" y2="100.0" stroke="#21262d" stroke-width="1"/>
<text x="82" y="104.0" text-anchor="end" class="axis-label">1.8M</text>
<polygon points="90.0,340.0 90.0,291.6 96.6,293.4 103.1,291.6 109.7,293.4 116.3,304.5 122.9,282.4 129.4,282.3 136.0,274.0 142.6,273.7 149.1,273.1 155.7,273.1 162.3,258.2 168.9,258.2 175.4,258.1 182.0,236.1 188.6,235.8 195.1,235.5 201.7,235.5 208.3,235.5 214.9,235.5 221.4,235.5 228.0,235.0 234.6,220.2 241.1,220.2 247.7,220.2 254.3,220.2 260.9,219.8 267.4,219.8 274.0,219.2 280.6,219.2 287.1,219.1 293.7,219.1 300.3,219.1 306.9,219.1 313.4,219.2 320.0,219.1 326.6,219.1 333.1,219.1 339.7,219.1 346.3,219.1 352.9,219.1 359.4,218.5 366.0,218.7 372.6,218.1 379.1,217.7 385.7,217.7 392.3,217.7 398.9,217.7 405.4,217.7 412.0,217.7 418.6,217.7 425.1,217.7 431.7,217.7 438.3,217.7 444.9,218.0 451.4,219.5 458.0,218.1 464.6,216.8 471.1,216.7 477.7,216.7 484.3,216.7 490.9,216.7 497.4,209.1 504.0,202.2 510.6,202.2 517.1,202.2 523.7,202.2 530.3,202.2 536.9,202.2 543.4,202.2 550.0,202.2 556.6,202.1 563.1,202.1 569.7,202.1 576.3,202.1 582.9,202.1 589.4,202.1 596.0,202.1 602.6,202.1 609.1,202.1 615.7,202.1 622.3,202.1 628.9,202.1 635.4,202.1 642.0,202.1 648.6,202.1 655.1,202.1 661.7,202.1 668.3,202.1 674.9,202.1 681.4,202.1 688.0,202.1 694.6,202.1 701.1,202.1 707.7,202.1 714.3,202.1 720.9,202.1 727.4,202.1 734.0,202.1 740.6,202.1 747.1,202.1 753.7,202.1 760.3,202.1 766.9,202.1 773.4,194.5 780.0,186.8 780.0,340.0" fill="url(#addGrad)" class="anim" style="animation-delay:200ms;"/>
<polyline points="90.0,291.6 96.6,293.4 103.1,291.6 109.7,293.4 116.3,304.5 122.9,282.4 129.4,282.3 136.0,274.0 142.6,273.7 149.1,273.1 155.7,273.1 162.3,258.2 168.9,258.2 175.4,258.1 182.0,236.1 188.6,235.8 195.1,235.5 201.7,235.5 208.3,235.5 214.9,235.5 221.4,235.5 228.0,235.0 234.6,220.2 241.1,220.2 247.7,220.2 254.3,220.2 260.9,219.8 267.4,219.8 274.0,219.2 280.6,219.2 287.1,219.1 293.7,219.1 300.3,219.1 306.9,219.1 313.4,219.2 320.0,219.1 326.6,219.1 333.1,219.1 339.7,219.1 346.3,219.1 352.9,219.1 359.4,218.5 366.0,218.7 372.6,218.1 379.1,217.7 385.7,217.7 392.3,217.7 398.9,217.7 405.4,217.7 412.0,217.7 418.6,217.7 425.1,217.7 431.7,217.7 438.3,217.7 444.9,218.0 451.4,219.5 458.0,218.1 464.6,216.8 471.1,216.7 477.7,216.7 484.3,216.7 490.9,216.7 497.4,209.1 504.0,202.2 510.6,202.2 517.1,202.2 523.7,202.2 530.3,202.2 536.9,202.2 543.4,202.2 550.0,202.2 556.6,202.1 563.1,202.1 569.7,202.1 576.3,202.1 582.9,202.1 589.4,202.1 596.0,202.1 602.6,202.1 609.1,202.1 615.7,202.1 622.3,202.1 628.9,202.1 635.4,202.1 642.0,202.1 648.6,202.1 655.1,202.1 661.7,202.1 668.3,202.1 674.9,202.1 681.4,202.1 688.0,202.1 694.6,202.1 701.1,202.1 707.7,202.1 714.3,202.1 720.9,202.1 727.4,202.1 734.0,202.1 740.6,202.1 747.1,202.1 753.7,202.1 760.3,202.1 766.9,202.1" fill="none" stroke="#3fb950" stroke-width="2" stroke-linejoin="round" class="anim" style="animation-delay:250ms;"/>
<polyline points="766.9,202.1 773.4,194.5 780.0,186.8" fill="none" stroke="#3fb950" stroke-width="1.5" stroke-dasharray="5,4" stroke-linejoin="round" opacity="0.6" class="anim" style="animation-delay:250ms;"/>
<polygon points="90.0,340.0 90.0,326.4 96.6,327.8 103.1,326.4 109.7,327.8 116.3,333.6 122.9,324.7 129.4,324.7 136.0,323.8 142.6,323.4 149.1,323.2 155.7,323.1 162.3,307.1 168.9,307.1 175.4,307.0 182.0,288.9 188.6,288.8 195.1,288.7 201.7,288.7 208.3,288.7 214.9,288.7 221.4,288.7 228.0,279.2 234.6,264.8 241.1,264.7 247.7,264.7 254.3,264.7 260.9,264.6 267.4,264.6 274.0,264.6 280.6,264.5 287.1,264.5 293.7,264.5 300.3,264.5 306.9,264.5 313.4,264.5 320.0,264.5 326.6,264.5 333.1,264.5 339.7,264.5 346.3,264.5 352.9,264.5 359.4,264.5 366.0,264.6 372.6,264.1 379.1,264.1 385.7,264.1 392.3,264.1 398.9,264.1 405.4,264.1 412.0,264.1 418.6,264.1 425.1,264.1 431.7,264.1 438.3,264.1 444.9,264.2 451.4,265.0 458.0,264.5 464.6,263.7 471.1,263.6 477.7,263.6 484.3,263.6 490.9,263.6 497.4,263.5 504.0,263.5 510.6,263.5 517.1,263.5 523.7,263.5 530.3,263.5 536.9,263.5 543.4,263.5 550.0,263.5 556.6,263.5 563.1,263.5 569.7,263.5 576.3,263.5 582.9,263.5 589.4,263.5 596.0,263.5 602.6,263.5 609.1,263.5 615.7,263.5 622.3,263.5 628.9,263.5 635.4,263.5 642.0,263.5 648.6,263.5 655.1,263.5 661.7,263.5 668.3,263.5 674.9,263.5 681.4,263.5 688.0,263.5 694.6,263.5 701.1,263.5 707.7,263.5 714.3,263.5 720.9,263.5 727.4,263.5 734.0,263.5 740.6,263.5 747.1,263.5 753.7,263.5 760.3,263.5 766.9,263.5 773.4,258.4 780.0,253.2 780.0,340.0" fill="url(#delGrad)" class="anim" style="animation-delay:300ms;"/>
<polyline points="90.0,326.4 96.6,327.8 103.1,326.4 109.7,327.8 116.3,333.6 122.9,324.7 129.4,324.7 136.0,323.8 142.6,323.4 149.1,323.2 155.7,323.1 162.3,307.1 168.9,307.1 175.4,307.0 182.0,288.9 188.6,288.8 195.1,288.7 201.7,288.7 208.3,288.7 214.9,288.7 221.4,288.7 228.0,279.2 234.6,264.8 241.1,264.7 247.7,264.7 254.3,264.7 260.9,264.6 267.4,264.6 274.0,264.6 280.6,264.5 287.1,264.5 293.7,264.5 300.3,264.5 306.9,264.5 313.4,264.5 320.0,264.5 326.6,264.5 333.1,264.5 339.7,264.5 346.3,264.5 352.9,264.5 359.4,264.5 366.0,264.6 372.6,264.1 379.1,264.1 385.7,264.1 392.3,264.1 398.9,264.1 405.4,264.1 412.0,264.1 418.6,264.1 425.1,264.1 431.7,264.1 438.3,264.1 444.9,264.2 451.4,265.0 458.0,264.5 464.6,263.7 471.1,263.6 477.7,263.6 484.3,263.6 490.9,263.6 497.4,263.5 504.0,263.5 510.6,263.5 517.1,263.5 523.7,263.5 530.3,263.5 536.9,263.5 543.4,263.5 550.0,263.5 556.6,263.5 563.1,263.5 569.7,263.5 576.3,263.5 582.9,263.5 589.4,263.5 596.0,263.5 602.6,263.5 609.1,263.5 615.7,263.5 622.3,263.5 628.9,263.5 635.4,263.5 642.0,263.5 648.6,263.5 655.1,263.5 661.7,263.5 668.3,263.5 674.9,263.5 681.4,263.5 688.0,263.5 694.6,263.5 701.1,263.5 707.7,263.5 714.3,263.5 720.9,263.5 727.4,263.5 734.0,263.5 740.6,263.5 747.1,263.5 753.7,263.5 760.3,263.5 766.9,263.5" fill="none" stroke="#f85149" stroke-width="1.5" stroke-linejoin="round" class="anim" style="animation-delay:350ms;"/>
<polyline points="766.9,263.5 773.4,258.4 780.0,253.2" fill="none" stroke="#f85149" stroke-width="1" stroke-dasharray="5,4" stroke-linejoin="round" opacity="0.6" class="anim" style="animation-delay:350ms;"/>
<polyline points="90.0,340.0 96.6,340.0 103.1,340.0 109.7,340.0 116.3,340.0 122.9,340.0 129.4,340.0 136.0,340.0 142.6,308.0 149.1,308.0 155.7,308.0 162.3,308.0 168.9,308.0 175.4,308.0 182.0,308.0 188.6,308.0 195.1,308.0 201.7,308.0 208.3,308.0 214.9,308.0 221.4,308.0 228.0,308.0 234.6,308.0 241.1,308.0 247.7,308.0 254.3,308.0 260.9,308.0 267.4,308.0 274.0,308.0 280.6,308.0 287.1,308.0 293.7,308.0 300.3,308.0 306.9,308.0 313.4,276.0 320.0,276.0 326.6,276.0 333.1,276.0 339.7,276.0 346.3,276.0 352.9,276.0 359.4,276.0 366.0,244.0 372.6,244.0 379.1,244.0 385.7,244.0 392.3,244.0 398.9,244.0 405.4,244.0 412.0,244.0 418.6,244.0 425.1,244.0 431.7,244.0 438.3,244.0 444.9,244.0 451.4,244.0 458.0,244.0 464.6,244.0 471.1,180.0 477.7,180.0 484.3,180.0 490.9,180.0 497.4,180.0 504.0,180.0 510.6,180.0 517.1,180.0 523.7,180.0 530.3,180.0 536.9,180.0 543.4,180.0 550.0,180.0 556.6,180.0 563.1,180.0 569.7,180.0 576.3,180.0 582.9,180.0 589.4,180.0 596.0,180.0 602.6,180.0 609.1,180.0 615.7,180.0 622.3,180.0 628.9,180.0 635.4,180.0 642.0,180.0 648.6,180.0 655.1,180.0 661.7,180.0 668.3,180.0 674.9,180.0 681.4,180.0 688.0,180.0 694.6,180.0 701.1,180.0 707.7,180.0 714.3,180.0 720.9,180.0 727.4,180.0 734.0,180.0 740.6,180.0 747.1,180.0 753.7,180.0 760.3,180.0 766.9,180.0" fill="none" stroke="#e3b341" stroke-width="1.5" stroke-dasharray="4,3" stroke-linejoin="round" class="anim" style="animation-delay:400ms;"/>
<polyline points="766.9,180.0 773.4,180.0 780.0,148.0" fill="none" stroke="#e3b341" stroke-width="1" stroke-dasharray="3,5" stroke-linejoin="round" opacity="0.5" class="anim" style="animation-delay:400ms;"/>
<text x="90" y="90" class="subtitle">Lines Added vs Deleted (per snapshot)</text>
<text x="90" y="400" class="subtitle">Programming Language Development (%)</text>
<line x1="90" y1="650.0" x2="780" y2="650.0" stroke="#21262d" stroke-width="1"/>
<text x="82" y="654.0" text-anchor="end" class="axis-label">0%</text>
<line x1="90" y1="590.0" x2="780" y2="590.0" stroke="#21262d" stroke-width="1"/>
<text x="82" y="594.0" text-anchor="end" class="axis-label">25%</text>
<line x1="90" y1="530.0" x2="780" y2="530.0" stroke="#21262d" stroke-width="1"/>
<text x="82" y="534.0" text-anchor="end" class="axis-label">50%</text>
<line x1="90" y1="470.0" x2="780" y2="470.0" stroke="#21262d" stroke-width="1"/>
<text x="82" y="474.0" text-anchor="end" class="axis-label">75%</text>
<line x1="90" y1="410.0" x2="780" y2="410.0" stroke="#21262d" stroke-width="1"/>
<text x="82" y="414.0" text-anchor="end" class="axis-label">100%</text>
<polygon points="90.0,650.0 96.6,650.0 103.1,650.0 109.7,650.0 116.3,650.0 122.9,650.0 129.4,650.0 136.0,650.0 142.6,528.2 149.1,528.5 155.7,529.7 162.3,499.3 168.9,499.3 175.4,502.9 182.0,485.0 188.6,485.1 195.1,485.4 201.7,485.4 208.3,485.4 214.9,485.4 221.4,485.4 228.0,496.4 234.6,496.7 241.1,491.0 247.7,491.0 254.3,491.0 260.9,491.7 267.4,491.8 274.0,494.0 280.6,494.0 287.1,494.4 293.7,494.4 300.3,494.4 306.9,494.4 313.4,507.6 320.0,507.6 326.6,507.9 333.1,507.9 339.7,507.9 346.3,506.3 352.9,506.4 359.4,506.8 366.0,506.9 372.6,506.8 379.1,507.5 385.7,507.5 392.3,507.5 398.9,507.5 405.4,507.5 412.0,507.5 418.6,507.5 425.1,507.5 431.7,507.5 438.3,507.5 444.9,507.5 451.4,507.5 458.0,507.5 464.6,508.6 471.1,508.6 477.7,508.6 484.3,508.6 490.9,508.6 497.4,509.5 504.0,509.8 510.6,509.8 517.1,509.8 523.7,509.8 530.3,509.8 536.9,509.8 543.4,509.8 550.0,509.8 556.6,510.9 563.1,510.9 569.7,510.9 576.3,510.9 582.9,510.9 589.4,510.9 596.0,510.9 602.6,510.9 609.1,510.9 615.7,510.9 622.3,510.9 628.9,510.9 635.4,510.9 642.0,510.9 648.6,510.9 655.1,510.9 661.7,510.9 668.3,510.9 674.9,510.9 681.4,510.9 688.0,510.9 694.6,510.9 701.1,510.9 707.7,510.9 714.3,510.9 720.9,510.9 727.4,510.9 734.0,510.9 740.6,510.9 747.1,510.9 753.7,510.9 760.3,510.9 766.9,510.9 773.4,513.0 780.0,515.0 780.0,650.0 773.4,650.0 766.9,650.0 760.3,650.0 753.7,650.0 747.1,650.0 740.6,650.0 734.0,650.0 727.4,650.0 720.9,650.0 714.3,650.0 707.7,650.0 701.1,650.0 694.6,650.0 688.0,650.0 681.4,650.0 674.9,650.0 668.3,650.0 661.7,650.0 655.1,650.0 648.6,650.0 642.0,650.0 635.4,650.0 628.9,650.0 622.3,650.0 615.7,650.0 609.1,650.0 602.6,650.0 596.0,650.0 589.4,650.0 582.9,650.0 576.3,650.0 569.7,650.0 563.1,650.0 556.6,650.0 550.0,650.0 543.4,650.0 536.9,650.0 530.3,650.0 523.7,650.0 517.1,650.0 510.6,650.0 504.0,650.0 497.4,650.0 490.9,650.0 484.3,650.0 477.7,650.0 471.1,650.0 464.6,650.0 458.0,650.0 451.4,650.0 444.9,650.0 438.3,650.0 431.7,650.0 425.1,650.0 418.6,650.0 412.0,650.0 405.4,650.0 398.9,650.0 392.3,650.0 385.7,650.0 379.1,650.0 372.6,650.0 366.0,650.0 359.4,650.0 352.9,650.0 346.3,650.0 339.7,650.0 333.1,650.0 326.6,650.0 320.0,650.0 313.4,650.0 306.9,650.0 300.3,650.0 293.7,650.0 287.1,650.0 280.6,650.0 274.0,650.0 267.4,650.0 260.9,650.0 254.3,650.0 247.7,650.0 241.1,650.0 234.6,650.0 228.0,650.0 221.4,650.0 214.9,650.0 208.3,650.0 201.7,650.0 195.1,650.0 188.6,650.0 182.0,650.0 175.4,650.0 168.9,650.0 162.3,650.0 155.7,650.0 149.1,650.0 142.6,650.0 136.0,650.0 129.4,650.0 122.9,650.0 116.3,650.0 109.7,650.0 103.1,650.0 96.6,650.0 90.0,650.0" fill="#e34c26" opacity="0.6" class="anim" style="animation-delay:500ms;"/>
<polygon points="90.0,650.0 96.6,650.0 103.1,650.0 109.7,650.0 116.3,650.0 122.9,650.0 129.4,650.0 136.0,650.0 142.6,488.4 149.1,488.0 155.7,489.0 162.3,476.0 168.9,476.0 175.4,477.2 182.0,460.1 188.6,460.2 195.1,460.6 201.7,460.6 208.3,460.6 214.9,460.6 221.4,460.6 228.0,473.0 234.6,473.5 241.1,469.5 247.7,469.5 254.3,469.5 260.9,469.7 267.4,469.7 274.0,469.7 280.6,469.7 287.1,469.7 293.7,469.7 300.3,469.7 306.9,469.7 313.4,455.6 320.0,455.6 326.6,455.4 333.1,455.4 339.7,455.4 346.3,454.3 352.9,454.3 359.4,455.0 366.0,455.1 372.6,454.9 379.1,455.9 385.7,455.9 392.3,455.9 398.9,455.9 405.4,455.9 412.0,455.9 418.6,455.9 425.1,455.9 431.7,455.9 438.3,455.9 444.9,455.9 451.4,455.9 458.0,455.9 464.6,455.8 471.1,455.8 477.7,455.8 484.3,455.8 490.9,455.8 497.4,457.0 504.0,457.4 510.6,457.4 517.1,457.4 523.7,457.4 530.3,457.4 536.9,457.4 543.4,457.4 550.0,457.4 556.6,458.2 563.1,458.2 569.7,458.2 576.3,458.2 582.9,458.2 589.4,458.2 596.0,458.2 602.6,458.2 609.1,458.2 615.7,458.2 622.3,458.2 628.9,458.2 635.4,458.2 642.0,458.2 648.6,458.2 655.1,458.2 661.7,458.2 668.3,458.2 674.9,458.2 681.4,458.2 688.0,458.2 694.6,458.2 701.1,458.2 707.7,458.2 714.3,458.2 720.9,458.2 727.4,458.2 734.0,458.2 740.6,458.2 747.1,458.2 753.7,458.2 760.3,458.2 766.9,458.2 773.4,456.6 780.0,455.1 780.0,515.0 773.4,513.0 766.9,510.9 760.3,510.9 753.7,510.9 747.1,510.9 740.6,510.9 734.0,510.9 727.4,510.9 720.9,510.9 714.3,510.9 707.7,510.9 701.1,510.9 694.6,510.9 688.0,510.9 681.4,510.9 674.9,510.9 668.3,510.9 661.7,510.9 655.1,510.9 648.6,510.9 642.0,510.9 635.4,510.9 628.9,510.9 622.3,510.9 615.7,510.9 609.1,510.9 602.6,510.9 596.0,510.9 589.4,510.9 582.9,510.9 576.3,510.9 569.7,510.9 563.1,510.9 556.6,510.9 550.0,509.8 543.4,509.8 536.9,509.8 530.3,509.8 523.7,509.8 517.1,509.8 510.6,509.8 504.0,509.8 497.4,509.5 490.9,508.6 484.3,508.6 477.7,508.6 471.1,508.6 464.6,508.6 458.0,507.5 451.4,507.5 444.9,507.5 438.3,507.5 431.7,507.5 425.1,507.5 418.6,507.5 412.0,507.5 405.4,507.5 398.9,507.5 392.3,507.5 385.7,507.5 379.1,507.5 372.6,506.8 366.0,506.9 359.4,506.8 352.9,506.4 346.3,506.3 339.7,507.9 333.1,507.9 326.6,507.9 320.0,507.6 313.4,507.6 306.9,494.4 300.3,494.4 293.7,494.4 287.1,494.4 280.6,494.0 274.0,494.0 267.4,491.8 260.9,491.7 254.3,491.0 247.7,491.0 241.1,491.0 234.6,496.7 228.0,496.4 221.4,485.4 214.9,485.4 208.3,485.4 201.7,485.4 195.1,485.4 188.6,485.1 182.0,485.0 175.4,502.9 168.9,499.3 162.3,499.3 155.7,529.7 149.1,528.5 142.6,528.2 136.0,650.0 129.4,650.0 122.9,650.0 116.3,650.0 109.7,650.0 103.1,650.0 96.6,650.0 90.0,650.0" fill="#f1e05a" opacity="0.6" class="anim" style="animation-delay:600ms;"/>
<polygon points="90.0,650.0 96.6,650.0 103.1,650.0 109.7,650.0 116.3,650.0 122.9,650.0 129.4,650.0 136.0,650.0 142.6,455.5 149.1,455.4 155.7,455.1 162.3,447.0 168.9,447.0 175.4,448.2 182.0,438.9 188.6,439.0 195.1,439.6 201.7,439.6 208.3,439.6 214.9,439.6 221.4,439.6 228.0,445.6 234.6,445.6 241.1,443.3 247.7,443.3 254.3,443.3 260.9,443.6 267.4,443.6 274.0,444.1 280.6,444.1 287.1,444.1 293.7,444.1 300.3,444.1 306.9,444.1 313.4,437.5 320.0,437.5 326.6,437.5 333.1,437.5 339.7,437.5 346.3,437.5 352.9,437.5 359.4,438.4 366.0,438.5 372.6,438.3 379.1,439.3 385.7,439.3 392.3,439.3 398.9,439.3 405.4,439.3 412.0,439.3 418.6,439.3 425.1,439.3 431.7,439.3 438.3,439.3 444.9,439.3 451.4,439.3 458.0,439.3 464.6,439.4 471.1,439.4 477.7,439.4 484.3,439.4 490.9,439.4 497.4,440.7 504.0,441.1 510.6,441.1 517.1,441.1 523.7,441.1 530.3,441.1 536.9,441.1 543.4,441.1 550.0,441.1 556.6,442.0 563.1,442.0 569.7,442.0 576.3,442.0 582.9,442.0 589.4,442.0 596.0,442.0 602.6,442.0 609.1,442.0 615.7,442.0 622.3,442.0 628.9,442.0 635.4,442.0 642.0,442.0 648.6,442.0 655.1,442.0 661.7,442.0 668.3,442.0 674.9,442.0 681.4,442.0 688.0,442.0 694.6,442.0 701.1,442.0 707.7,442.0 714.3,442.0 720.9,442.0 727.4,442.0 734.0,442.0 740.6,442.0 747.1,442.0 753.7,442.0 760.3,442.0 766.9,442.0 773.4,441.9 780.0,441.8 780.0,455.1 773.4,456.6 766.9,458.2 760.3,458.2 753.7,458.2 747.1,458.2 740.6,458.2 734.0,458.2 727.4,458.2 720.9,458.2 714.3,458.2 707.7,458.2 701.1,458.2 694.6,458.2 688.0,458.2 681.4,458.2 674.9,458.2 668.3,458.2 661.7,458.2 655.1,458.2 648.6,458.2 642.0,458.2 635.4,458.2 628.9,458.2 622.3,458.2 615.7,458.2 609.1,458.2 602.6,458.2 596.0,458.2 589.4,458.2 582.9,458.2 576.3,458.2 569.7,458.2 563.1,458.2 556.6,458.2 550.0,457.4 543.4,457.4 536.9,457.4 530.3,457.4 523.7,457.4 517.1,457.4 510.6,457.4 504.0,457.4 497.4,457.0 490.9,455.8 484.3,455.8 477.7,455.8 471.1,455.8 464.6,455.8 458.0,455.9 451.4,455.9 444.9,455.9 438.3,455.9 431.7,455.9 425.1,455.9 418.6,455.9 412.0,455.9 405.4,455.9 398.9,455.9 392.3,455.9 385.7,455.9 379.1,455.9 372.6,454.9 366.0,455.1 359.4,455.0 352.9,454.3 346.3,454.3 339.7,455.4 333.1,455.4 326.6,455.4 320.0,455.6 313.4,455.6 306.9,469.7 300.3,469.7 293.7,469.7 287.1,469.7 280.6,469.7 274.0,469.7 267.4,469.7 260.9,469.7 254.3,469.5 247.7,469.5 241.1,469.5 234.6,473.5 228.0,473.0 221.4,460.6 214.9,460.6 208.3,460.6 201.7,460.6 195.1,460.6 188.6,460.2 182.0,460.1 175.4,477.2 168.9,476.0 162.3,476.0 155.7,489.0 149.1,488.0 142.6,488.4 136.0,650.0 129.4,650.0 122.9,650.0 116.3,650.0 109.7,650.0 103.1,650.0 96.6,650.0 90.0,650.0" fill="#3572A5" opacity="0.6" class="anim" style="animation-delay:700ms;"/>
<polygon points="90.0,650.0 96.6,650.0 103.1,650.0 109.7,650.0 116.3,650.0 122.9,650.0 129.4,650.0 136.0,650.0 142.6,442.3 149.1,442.0 155.7,441.6 162.3,439.5 168.9,439.5 175.4,439.4 182.0,432.3 188.6,432.2 195.1,432.6 201.7,432.6 208.3,432.6 214.9,432.6 221.4,432.6 228.0,439.3 234.6,439.3 241.1,437.4 247.7,437.4 254.3,437.4 260.9,437.3 267.4,437.3 274.0,437.1 280.6,437.1 287.1,437.1 293.7,437.1 300.3,437.1 306.9,437.1 313.4,428.7 320.0,428.6 326.6,428.5 333.1,428.5 339.7,428.5 346.3,427.3 352.9,427.3 359.4,427.1 366.0,427.1 372.6,427.1 379.1,427.0 385.7,427.0 392.3,427.0 398.9,427.0 405.4,427.0 412.0,427.0 418.6,427.0 425.1,427.0 431.7,427.0 438.3,427.0 444.9,427.0 451.4,427.0 458.0,427.0 464.6,427.0 471.1,427.1 477.7,427.1 484.3,427.1 490.9,427.1 497.4,428.4 504.0,428.9 510.6,428.9 517.1,428.9 523.7,428.9 530.3,428.9 536.9,428.9 543.4,428.9 550.0,428.9 556.6,428.7 563.1,428.7 569.7,428.7 576.3,428.7 582.9,428.7 589.4,428.7 596.0,428.7 602.6,428.7 609.1,428.7 615.7,428.7 622.3,428.7 628.9,428.7 635.4,428.7 642.0,428.7 648.6,428.7 655.1,428.7 661.7,428.7 668.3,428.7 674.9,428.7 681.4,428.7 688.0,428.7 694.6,428.7 701.1,428.7 707.7,428.7 714.3,428.7 720.9,428.7 727.4,428.7 734.0,428.7 740.6,428.7 747.1,428.7 753.7,428.7 760.3,428.7 766.9,428.7 773.4,427.8 780.0,426.9 780.0,441.8 773.4,441.9 766.9,442.0 760.3,442.0 753.7,442.0 747.1,442.0 740.6,442.0 734.0,442.0 727.4,442.0 720.9,442.0 714.3,442.0 707.7,442.0 701.1,442.0 694.6,442.0 688.0,442.0 681.4,442.0 674.9,442.0 668.3,442.0 661.7,442.0 655.1,442.0 648.6,442.0 642.0,442.0 635.4,442.0 628.9,442.0 622.3,442.0 615.7,442.0 609.1,442.0 602.6,442.0 596.0,442.0 589.4,442.0 582.9,442.0 576.3,442.0 569.7,442.0 563.1,442.0 556.6,442.0 550.0,441.1 543.4,441.1 536.9,441.1 530.3,441.1 523.7,441.1 517.1,441.1 510.6,441.1 504.0,441.1 497.4,440.7 490.9,439.4 484.3,439.4 477.7,439.4 471.1,439.4 464.6,439.4 458.0,439.3 451.4,439.3 444.9,439.3 438.3,439.3 431.7,439.3 425.1,439.3 418.6,439.3 412.0,439.3 405.4,439.3 398.9,439.3 392.3,439.3 385.7,439.3 379.1,439.3 372.6,438.3 366.0,438.5 359.4,438.4 352.9,437.5 346.3,437.5 339.7,437.5 333.1,437.5 326.6,437.5 320.0,437.5 313.4,437.5 306.9,444.1 300.3,444.1 293.7,444.1 287.1,444.1 280.6,444.1 274.0,444.1 267.4,443.6 260.9,443.6 254.3,443.3 247.7,443.3 241.1,443.3 234.6,445.6 228.0,445.6 221.4,439.6 214.9,439.6 208.3,439.6 201.7,439.6 195.1,439.6 188.6,439.0 182.0,438.9 175.4,448.2 168.9,447.0 162.3,447.0 155.7,455.1 149.1,455.4 142.6,455.5 136.0,650.0 129.4,650.0 122.9,650.0 116.3,650.0 109.7,650.0 103.1,650.0 96.6,650.0 90.0,650.0" fill="#663399" opacity="0.6" class="anim" style="animation-delay:800ms;"/>
<polygon points="90.0,650.0 96.6,650.0 103.1,650.0 109.7,650.0 116.3,650.0 122.9,650.0 129.4,650.0 136.0,650.0 142.6,436.6 149.1,436.3 155.7,435.9 162.3,432.2 168.9,432.2 175.4,432.2 182.0,426.2 188.6,426.1 195.1,426.0 201.7,426.0 208.3,426.0 214.9,426.0 221.4,426.0 228.0,430.8 234.6,430.7 241.1,429.3 247.7,429.3 254.3,429.3 260.9,429.2 267.4,429.2 274.0,428.9 280.6,428.9 287.1,428.8 293.7,428.8 300.3,428.8 306.9,428.8 313.4,423.0 320.0,422.9 326.6,422.9 333.1,422.9 339.7,422.9 346.3,422.0 352.9,422.0 359.4,421.9 366.0,421.9 372.6,421.9 379.1,421.8 385.7,421.8 392.3,421.8 398.9,421.8 405.4,421.8 412.0,421.8 418.6,421.8 425.1,421.8 431.7,421.8 438.3,421.8 444.9,421.8 451.4,421.8 458.0,421.8 464.6,421.7 471.1,421.8 477.7,421.8 484.3,421.8 490.9,421.8 497.4,423.2 504.0,423.6 510.6,423.6 517.1,423.6 523.7,423.6 530.3,423.6 536.9,423.6 543.4,423.6 550.0,423.6 556.6,423.5 563.1,423.5 569.7,423.5 576.3,423.5 582.9,423.5 589.4,423.5 596.0,423.5 602.6,423.5 609.1,423.5 615.7,423.5 622.3,423.5 628.9,423.5 635.4,423.5 642.0,423.5 648.6,423.5 655.1,423.5 661.7,423.5 668.3,423.5 674.9,423.5 681.4,423.5 688.0,423.5 694.6,423.5 701.1,423.5 707.7,423.5 714.3,423.5 720.9,423.5 727.4,423.5 734.0,423.5 740.6,423.5 747.1,423.5 753.7,423.5 760.3,423.5 766.9,423.5 773.4,422.9 780.0,422.3 780.0,426.9 773.4,427.8 766.9,428.7 760.3,428.7 753.7,428.7 747.1,428.7 740.6,428.7 734.0,428.7 727.4,428.7 720.9,428.7 714.3,428.7 707.7,428.7 701.1,428.7 694.6,428.7 688.0,428.7 681.4,428.7 674.9,428.7 668.3,428.7 661.7,428.7 655.1,428.7 648.6,428.7 642.0,428.7 635.4,428.7 628.9,428.7 622.3,428.7 615.7,428.7 609.1,428.7 602.6,428.7 596.0,428.7 589.4,428.7 582.9,428.7 576.3,428.7 569.7,428.7 563.1,428.7 556.6,428.7 550.0,428.9 543.4,428.9 536.9,428.9 530.3,428.9 523.7,428.9 517.1,428.9 510.6,428.9 504.0,428.9 497.4,428.4 490.9,427.1 484.3,427.1 477.7,427.1 471.1,427.1 464.6,427.0 458.0,427.0 451.4,427.0 444.9,427.0 438.3,427.0 431.7,427.0 425.1,427.0 418.6,427.0 412.0,427.0 405.4,427.0 398.9,427.0 392.3,427.0 385.7,427.0 379.1,427.0 372.6,427.1 366.0,427.1 359.4,427.1 352.9,427.3 346.3,427.3 339.7,428.5 333.1,428.5 326.6,428.5 320.0,428.6 313.4,428.7 306.9,437.1 300.3,437.1 293.7,437.1 287.1,437.1 280.6,437.1 274.0,437.1 267.4,437.3 260.9,437.3 254.3,437.4 247.7,437.4 241.1,437.4 234.6,439.3 228.0,439.3 221.4,432.6 214.9,432.6 208.3,432.6 201.7,432.6 195.1,432.6 188.6,432.2 182.0,432.3 175.4,439.4 168.9,439.5 162.3,439.5 155.7,441.6 149.1,442.0 142.6,442.3 136.0,650.0 129.4,650.0 122.9,650.0 116.3,650.0 109.7,650.0 103.1,650.0 96.6,650.0 90.0,650.0" fill="#083fa1" opacity="0.6" class="anim" style="animation-delay:900ms;"/>
<polygon points="90.0,650.0 96.6,650.0 103.1,650.0 109.7,650.0 116.3,650.0 122.9,650.0 129.4,650.0 136.0,650.0 142.6,428.3 149.1,428.1 155.7,427.8 162.3,425.3 168.9,425.3 175.4,425.2 182.0,421.1 188.6,421.1 195.1,421.0 201.7,421.0 208.3,421.0 214.9,421.0 221.4,421.0 228.0,424.3 234.6,424.2 241.1,423.3 247.7,423.3 254.3,423.3 260.9,423.2 267.4,423.2 274.0,423.0 280.6,423.0 287.1,422.9 293.7,422.9 300.3,422.9 306.9,422.9 313.4,418.9 320.0,418.9 326.6,418.8 333.1,418.8 339.7,418.8 346.3,418.3 352.9,418.3 359.4,418.2 366.0,418.2 372.6,418.2 379.1,418.1 385.7,418.1 392.3,418.1 398.9,418.1 405.4,418.1 412.0,418.1 418.6,418.1 425.1,418.1 431.7,418.1 438.3,418.1 444.9,418.1 451.4,418.1 458.0,418.1 464.6,418.1 471.1,418.1 477.7,418.1 484.3,418.1 490.9,418.1 497.4,418.0 504.0,418.0 510.6,418.0 517.1,418.0 523.7,418.0 530.3,418.0 536.9,418.0 543.4,418.0 550.0,418.0 556.6,417.9 563.1,417.9 569.7,417.9 576.3,417.9 582.9,417.9 589.4,417.9 596.0,417.9 602.6,417.9 609.1,417.9 615.7,417.9 622.3,417.9 628.9,417.9 635.4,417.9 642.0,417.9 648.6,417.9 655.1,417.9 661.7,417.9 668.3,417.9 674.9,417.9 681.4,417.9 688.0,417.9 694.6,417.9 701.1,417.9 707.7,417.9 714.3,417.9 720.9,417.9 727.4,417.9 734.0,417.9 740.6,417.9 747.1,417.9 753.7,417.9 760.3,417.9 766.9,417.9 773.4,417.3 780.0,416.7 780.0,422.3 773.4,422.9 766.9,423.5 760.3,423.5 753.7,423.5 747.1,423.5 740.6,423.5 734.0,423.5 727.4,423.5 720.9,423.5 714.3,423.5 707.7,423.5 701.1,423.5 694.6,423.5 688.0,423.5 681.4,423.5 674.9,423.5 668.3,423.5 661.7,423.5 655.1,423.5 648.6,423.5 642.0,423.5 635.4,423.5 628.9,423.5 622.3,423.5 615.7,423.5 609.1,423.5 602.6,423.5 596.0,423.5 589.4,423.5 582.9,423.5 576.3,423.5 569.7,423.5 563.1,423.5 556.6,423.5 550.0,423.6 543.4,423.6 536.9,423.6 530.3,423.6 523.7,423.6 517.1,423.6 510.6,423.6 504.0,423.6 497.4,423.2 490.9,421.8 484.3,421.8 477.7,421.8 471.1,421.8 464.6,421.7 458.0,421.8 451.4,421.8 444.9,421.8 438.3,421.8 431.7,421.8 425.1,421.8 418.6,421.8 412.0,421.8 405.4,421.8 398.9,421.8 392.3,421.8 385.7,421.8 379.1,421.8 372.6,421.9 366.0,421.9 359.4,421.9 352.9,422.0 346.3,422.0 339.7,422.9 333.1,422.9 326.6,422.9 320.0,422.9 313.4,423.0 306.9,428.8 300.3,428.8 293.7,428.8 287.1,428.8 280.6,428.9 274.0,428.9 267.4,429.2 260.9,429.2 254.3,429.3 247.7,429.3 241.1,429.3 234.6,430.7 228.0,430.8 221.4,426.0 214.9,426.0 208.3,426.0 201.7,426.0 195.1,426.0 188.6,426.1 182.0,426.2 175.4,432.2 168.9,432.2 162.3,432.2 155.7,435.9 149.1,436.3 142.6,436.6 136.0,650.0 129.4,650.0 122.9,650.0 116.3,650.0 109.7,650.0 103.1,650.0 96.6,650.0 90.0,650.0" fill="#F05138" opacity="0.6" class="anim" style="animation-delay:1000ms;"/>
<polygon points="90.0,650.0 96.6,650.0 103.1,650.0 109.7,650.0 116.3,650.0 122.9,650.0 129.4,650.0 136.0,650.0 142.6,418.7 149.1,418.6 155.7,418.5 162.3,417.3 168.9,417.3 175.4,417.2 182.0,415.3 188.6,415.3 195.1,415.2 201.7,415.2 208.3,415.2 214.9,415.2 221.4,415.2 228.0,416.8 234.6,416.8 241.1,416.3 247.7,416.3 254.3,416.3 260.9,416.3 267.4,416.3 274.0,416.2 280.6,416.2 287.1,416.2 293.7,416.2 300.3,416.2 306.9,416.2 313.4,414.2 320.0,414.2 326.6,414.2 333.1,414.2 339.7,414.2 346.3,413.9 352.9,413.9 359.4,413.9 366.0,413.9 372.6,413.9 379.1,413.9 385.7,413.9 392.3,413.9 398.9,413.9 405.4,413.9 412.0,413.9 418.6,413.9 425.1,413.9 431.7,413.9 438.3,413.9 444.9,413.9 451.4,413.9 458.0,413.9 464.6,413.8 471.1,413.8 477.7,413.8 484.3,413.8 490.9,413.8 497.4,413.8 504.0,413.8 510.6,413.8 517.1,413.8 523.7,413.8 530.3,413.8 536.9,413.8 543.4,413.8 550.0,413.8 556.6,413.8 563.1,413.8 569.7,413.8 576.3,413.8 582.9,413.8 589.4,413.8 596.0,413.8 602.6,413.8 609.1,413.8 615.7,413.8 622.3,413.8 628.9,413.8 635.4,413.8 642.0,413.8 648.6,413.8 655.1,413.8 661.7,413.8 668.3,413.8 674.9,413.8 681.4,413.8 688.0,413.8 694.6,413.8 701.1,413.8 707.7,413.8 714.3,413.8 720.9,413.8 727.4,413.8 734.0,413.8 740.6,413.8 747.1,413.8 753.7,413.8 760.3,413.8 766.9,413.8 773.4,413.6 780.0,413.4 780.0,416.7 773.4,417.3 766.9,417.9 760.3,417.9 753.7,417.9 747.1,417.9 740.6,417.9 734.0,417.9 727.4,417.9 720.9,417.9 714.3,417.9 707.7,417.9 701.1,417.9 694.6,417.9 688.0,417.9 681.4,417.9 674.9,417.9 668.3,417.9 661.7,417.9 655.1,417.9 648.6,417.9 642.0,417.9 635.4,417.9 628.9,417.9 622.3,417.9 615.7,417.9 609.1,417.9 602.6,417.9 596.0,417.9 589.4,417.9 582.9,417.9 576.3,417.9 569.7,417.9 563.1,417.9 556.6,417.9 550.0,418.0 543.4,418.0 536.9,418.0 530.3,418.0 523.7,418.0 517.1,418.0 510.6,418.0 504.0,418.0 497.4,418.0 490.9,418.1 484.3,418.1 477.7,418.1 471.1,418.1 464.6,418.1 458.0,418.1 451.4,418.1 444.9,418.1 438.3,418.1 431.7,418.1 425.1,418.1 418.6,418.1 412.0,418.1 405.4,418.1 398.9,418.1 392.3,418.1 385.7,418.1 379.1,418.1 372.6,418.2 366.0,418.2 359.4,418.2 352.9,418.3 346.3,418.3 339.7,418.8 333.1,418.8 326.6,418.8 320.0,418.9 313.4,418.9 306.9,422.9 300.3,422.9 293.7,422.9 287.1,422.9 280.6,423.0 274.0,423.0 267.4,423.2 260.9,423.2 254.3,423.3 247.7,423.3 241.1,423.3 234.6,424.2 228.0,424.3 221.4,421.0 214.9,421.0 208.3,421.0 201.7,421.0 195.1,421.0 188.6,421.1 182.0,421.1 175.4,425.2 168.9,425.3 162.3,425.3 155.7,427.8 149.1,428.1 142.6,428.3 136.0,650.0 129.4,650.0 122.9,650.0 116.3,650.0 109.7,650.0 103.1,650.0 96.6,650.0 90.0,650.0" fill="#6E4C13" opacity="0.6" class="anim" style="animation-delay:1100ms;"/>
<polygon points="90.0,650.0 96.6,650.0 103.1,650.0 109.7,650.0 116.3,650.0 122.9,650.0 129.4,650.0 136.0,650.0 142.6,414.4 149.1,414.4 155.7,414.3 162.3,413.7 168.9,413.7 175.4,413.7 182.0,412.7 188.6,412.7 195.1,412.7 201.7,412.7 208.3,412.7 214.9,412.7 221.4,412.7 228.0,413.5 234.6,413.4 241.1,413.2 247.7,413.2 254.3,413.2 260.9,413.2 267.4,413.2 274.0,413.1 280.6,413.1 287.1,413.1 293.7,413.1 300.3,413.1 306.9,413.1 313.4,412.2 320.0,412.1 326.6,412.1 333.1,412.1 339.7,412.1 346.3,412.0 352.9,412.0 359.4,412.0 366.0,412.0 372.6,412.0 379.1,412.0 385.7,412.0 392.3,412.0 398.9,412.0 405.4,412.0 412.0,412.0 418.6,412.0 425.1,412.0 431.7,412.0 438.3,412.0 444.9,412.0 451.4,412.0 458.0,412.0 464.6,411.9 471.1,411.9 477.7,411.9 484.3,411.9 490.9,411.9 497.4,411.9 504.0,411.9 510.6,411.9 517.1,411.9 523.7,411.9 530.3,411.9 536.9,411.9 543.4,411.9 550.0,411.9 556.6,411.9 563.1,411.9 569.7,411.9 576.3,411.9 582.9,411.9 589.4,411.9 596.0,411.9 602.6,411.9 609.1,411.9 615.7,411.9 622.3,411.9 628.9,411.9 635.4,411.9 642.0,411.9 648.6,411.9 655.1,411.9 661.7,411.9 668.3,411.9 674.9,411.9 681.4,411.9 688.0,411.9 694.6,411.9 701.1,411.9 707.7,411.9 714.3,411.9 720.9,411.9 727.4,411.9 734.0,411.9 740.6,411.9 747.1,411.9 753.7,411.9 760.3,411.9 766.9,411.9 773.4,411.9 780.0,411.9 780.0,413.4 773.4,413.6 766.9,413.8 760.3,413.8 753.7,413.8 747.1,413.8 740.6,413.8 734.0,413.8 727.4,413.8 720.9,413.8 714.3,413.8 707.7,413.8 701.1,413.8 694.6,413.8 688.0,413.8 681.4,413.8 674.9,413.8 668.3,413.8 661.7,413.8 655.1,413.8 648.6,413.8 642.0,413.8 635.4,413.8 628.9,413.8 622.3,413.8 615.7,413.8 609.1,413.8 602.6,413.8 596.0,413.8 589.4,413.8 582.9,413.8 576.3,413.8 569.7,413.8 563.1,413.8 556.6,413.8 550.0,413.8 543.4,413.8 536.9,413.8 530.3,413.8 523.7,413.8 517.1,413.8 510.6,413.8 504.0,413.8 497.4,413.8 490.9,413.8 484.3,413.8 477.7,413.8 471.1,413.8 464.6,413.8 458.0,413.9 451.4,413.9 444.9,413.9 438.3,413.9 431.7,413.9 425.1,413.9 418.6,413.9 412.0,413.9 405.4,413.9 398.9,413.9 392.3,413.9 385.7,413.9 379.1,413.9 372.6,413.9 366.0,413.9 359.4,413.9 352.9,413.9 346.3,413.9 339.7,414.2 333.1,414.2 326.6,414.2 320.0,414.2 313.4,414.2 306.9,416.2 300.3,416.2 293.7,416.2 287.1,416.2 280.6,416.2 274.0,416.2 267.4,416.3 260.9,416.3 254.3,416.3 247.7,416.3 241.1,416.3 234.6,416.8 228.0,416.8 221.4,415.2 214.9,415.2 208.3,415.2 201.7,415.2 195.1,415.2 188.6,415.3 182.0,415.3 175.4,417.2 168.9,417.3 162.3,417.3 155.7,418.5 149.1,418.6 142.6,418.7 136.0,650.0 129.4,650.0 122.9,650.0 116.3,650.0 109.7,650.0 103.1,650.0 96.6,650.0 90.0,650.0" fill="#b07219" opacity="0.6" class="anim" style="animation-delay:1200ms;"/>
<line x1="766.9" y1="100" x2="766.9" y2="650" stroke="#c9d1d9" stroke-width="1" stroke-dasharray="4,3" opacity="0.35"/>
<text x="773.4" y="112" text-anchor="middle" class="axis-label" opacity="0.6">Aug 07, 2026</text>
<text x="90.0" y="668" text-anchor="middle" class="axis-label" transform="rotate(-35 90.0 668)">2026-02</text>
<text x="306.9" y="668" text-anchor="middle" class="axis-label" transform="rotate(-35 306.9 668)">2026-03</text>
<text x="451.4" y="668" text-anchor="middle" class="axis-label" transform="rotate(-35 451.4 668)">2026-04</text>
<text x="523.7" y="668" text-anchor="middle" class="axis-label" transform="rotate(-35 523.7 668)">2026-06</text>
<text x="668.3" y="668" text-anchor="middle" class="axis-label" transform="rotate(-35 668.3 668)">2026-07</text>
<text x="773.4" y="668" text-anchor="middle" class="axis-label" transform="rotate(-35 773.4 668)">Aug 07, 2026</text>
<line x1="796" y1="110" x2="824" y2="110" stroke="#3fb950" stroke-width="2"/>
<text x="832" y="116" class="legend-text">Lines Added</text>
<line x1="796" y1="140" x2="824" y2="140" stroke="#f85149" stroke-width="1.5"/>
<text x="832" y="146" class="legend-text">Lines Deleted</text>
<line x1="796" y1="170" x2="824" y2="170" stroke="#e3b341" stroke-width="1.5" stroke-dasharray="4,3"/>
<text x="832" y="176" class="legend-text">&#x2605; Stars</text>
<text x="796" y="200" class="subtitle">Languages</text>
<rect x="796" y="212" width="12" height="12" rx="2" fill="#e34c26" opacity="0.8" class="anim" style="animation-delay:800ms;"/>
<text x="814" y="223" class="legend-text">HTML (58%→56%)</text>
<rect x="796" y="234" width="12" height="12" rx="2" fill="#f1e05a" opacity="0.8" class="anim" style="animation-delay:880ms;"/>
<text x="814" y="245" class="legend-text">JavaScript (22%→25%)</text>
<rect x="796" y="256" width="12" height="12" rx="2" fill="#3572A5" opacity="0.8" class="anim" style="animation-delay:960ms;"/>
<text x="814" y="267" class="legend-text">Python (7%→6%)</text>
<rect x="796" y="278" width="12" height="12" rx="2" fill="#663399" opacity="0.8" class="anim" style="animation-delay:1040ms;"/>
<text x="814" y="289" class="legend-text">CSS (6%→6%)</text>
<rect x="796" y="300" width="12" height="12" rx="2" fill="#083fa1" opacity="0.8" class="anim" style="animation-delay:1120ms;"/>
<text x="814" y="311" class="legend-text">Markdown (2%→2%)</text>
<rect x="796" y="322" width="12" height="12" rx="2" fill="#F05138" opacity="0.8" class="anim" style="animation-delay:1200ms;"/>
<text x="814" y="333" class="legend-text">Swift (2%)</text>
<rect x="796" y="344" width="12" height="12" rx="2" fill="#6E4C13" opacity="0.8" class="anim" style="animation-delay:1280ms;"/>
<text x="814" y="355" class="legend-text">Assembly (2%→1%)</text>
<rect x="796" y="366" width="12" height="12" rx="2" fill="#b07219" opacity="0.8" class="anim" style="animation-delay:1360ms;"/>
<text x="814" y="377" class="legend-text">Java (1%→1%)</text>
<text x="796" y="412" class="subtitle">Contributions</text>
<text x="796" y="432" class="axis-label">2023: 39</text>
<text x="796" y="452" class="axis-label">2024: 646</text>
<text x="796" y="472" class="axis-label">2025: 1,780</text>
<text x="796" y="492" class="axis-label">2026: 491</text>
<text x="796" y="522" class="subtitle">Statistics</text>
<text x="796" y="542" class="axis-label">Active weeks: 88</text>
<text x="796" y="562" class="axis-label">Add/Del ratio: 1.8x</text>
<text x="796" y="582" class="axis-label">Avg lines/wk: 18K</text>
<text x="796" y="602" class="axis-label">Peak: 2026-02-15</text>
<text x="796" y="622" class="axis-label">  (543K lines)</text>
<text x="90" y="742" class="axis-label">Total: +1,040,332 / -576,819 lines &#xb7; 2,956 contributions &#xb7; 80 repos &#xb7; &#x2605; 37</text>
</svg>