<svg xmlns="http://www.w3.org/2000/svg" width="1000" height="760" style="max-width: 100%;" viewBox="0 0 1000 760">

<defs>
  <linearGradient id="areaGrad" x1="0" y1="0" x2="0" y2="1">
    <stop offset="0%" stop-color="#58a6ff" stop-opacity="0.35"/>
    <stop offset="100%" stop-color="#58a6ff" stop-opacity="0.02"/>
  </linearGradient>
  <linearGradient id="addGrad" x1="0" y1="0" x2="0" y2="1">
    <stop offset="0%" stop-color="#3fb950" stop-opacity="0.35"/>
    <stop offset="100%" stop-color="#3fb950" stop-opacity="0.02"/>
  </linearGradient>
  <linearGradient id="delGrad" x1="0" y1="0" x2="0" y2="1">
    <stop offset="0%" stop-color="#f85149" stop-opacity="0.25"/>
    <stop offset="100%" stop-color="#f85149" stop-opacity="0.02"/>
  </linearGradient>
</defs>
<style>
  .title { font: bold 28px 'Segoe UI', Ubuntu, Sans-Serif; fill: #c9d1d9; }
  .subtitle { font: 600 20px 'Segoe UI', Ubuntu, Sans-Serif; fill: #c9d1d9; opacity: 0.8; }
  .axis-label { font: 18px 'Segoe UI', Ubuntu, Sans-Serif; fill: #c9d1d9; opacity: 0.7; }
  .legend-text { font: 14px 'Segoe UI', Ubuntu, Sans-Serif; fill: #c9d1d9; }
  .value-text { font: bold 18px 'Segoe UI', Ubuntu, Sans-Serif; fill: #c9d1d9; }
  .stat-value { font: bold 22px 'Segoe UI', Ubuntu, Sans-Serif; fill: #c9d1d9; }
  .stat-label { font: 18px 'Segoe UI', Ubuntu, Sans-Serif; fill: #c9d1d9; opacity: 0.7; }
  @keyframes fadeIn { from { opacity: 0; } to { opacity: 1; } }
  .anim { animation: fadeIn 0.6s ease-in-out forwards; opacity: 0; }
</style>

<rect x="0.5" y="0.5" rx="4.5" width="999" height="759" fill="#161b22" stroke="#21262d"/>
<text x="90" y="45" class="title">Activity History</text>
<text x="90" y="72" class="subtitle">Lines added vs deleted &amp; activity trends over time</text>
<line x1="90" y1="340.0" x2="780" y2="340.0" stroke="#21262d" stroke-width="1"/>
<text x="82" y="344.0" text-anchor="end" class="axis-label">0</text>
<line x1="90" y1="280.0" x2="780" y2="280.0" stroke="#21262d" stroke-width="1"/>
<text x="82" y="284.0" text-anchor="end" class="axis-label">458K</text>
<line x1="90" y1="220.0" x2="780" y2="220.0" stroke="#21262d" stroke-width="1"/>
<text x="82" y="224.0" text-anchor="end" class="axis-label">915K</text>
<line x1="90" y1="160.0" x2="780" y2="160.0" stroke="#21262d" stroke-width="1"/>
<text x="82" y="164.0" text-anchor="end" class="axis-label">1.4M</text>
<line x1="90" y1="100.0" x2="780" y2="100.0" stroke="#21262d" stroke-width="1"/>
<text x="82" y="104.0" text-anchor="end" class="axis-label">1.8M</text>
<polygon points="90.0,340.0 90.0,292.1 99.1,293.9 108.2,292.2 117.2,293.9 126.3,304.9 135.4,283.0 144.5,283.0 153.6,274.7 162.6,274.4 171.7,273.9 180.8,273.8 189.9,259.1 198.9,259.1 208.0,259.0 217.1,237.2 226.2,236.9 235.3,236.6 244.3,236.6 253.4,236.6 262.5,236.6 271.6,236.6 280.7,236.1 289.7,221.5 298.8,221.4 307.9,221.4 317.0,221.4 326.1,221.1 335.1,221.1 344.2,220.5 353.3,220.5 362.4,220.4 371.4,220.4 380.5,220.4 389.6,220.4 398.7,220.5 407.8,220.4 416.8,220.4 425.9,220.4 435.0,220.4 444.1,220.4 453.2,220.4 462.2,219.8 471.3,220.0 480.4,219.4 489.5,219.0 498.6,219.0 507.6,219.0 516.7,219.0 525.8,219.0 534.9,219.0 543.9,219.0 553.0,219.0 562.1,219.0 571.2,219.0 580.3,219.3 589.3,220.8 598.4,219.4 607.5,218.1 616.6,218.0 625.7,218.0 634.7,218.0 643.8,218.0 652.9,210.5 662.0,203.7 671.1,203.7 680.1,203.7 689.2,203.7 698.3,203.7 707.4,203.7 716.4,203.7 725.5,203.7 734.6,203.6 743.7,203.6 752.8,203.6 761.8,203.6 770.9,195.8 780.0,188.1 780.0,340.0" fill="url(#addGrad)" class="anim" style="animation-delay:200ms;"/>
<polyline points="90.0,292.1 99.1,293.9 108.2,292.2 117.2,293.9 126.3,304.9 135.4,283.0 144.5,283.0 153.6,274.7 162.6,274.4 171.7,273.9 180.8,273.8 189.9,259.1 198.9,259.1 208.0,259.0 217.1,237.2 226.2,236.9 235.3,236.6 244.3,236.6 253.4,236.6 262.5,236.6 271.6,236.6 280.7,236.1 289.7,221.5 298.8,221.4 307.9,221.4 317.0,221.4 326.1,221.1 335.1,221.1 344.2,220.5 353.3,220.5 362.4,220.4 371.4,220.4 380.5,220.4 389.6,220.4 398.7,220.5 407.8,220.4 416.8,220.4 425.9,220.4 435.0,220.4 444.1,220.4 453.2,220.4 462.2,219.8 471.3,220.0 480.4,219.4 489.5,219.0 498.6,219.0 507.6,219.0 516.7,219.0 525.8,219.0 534.9,219.0 543.9,219.0 553.0,219.0 562.1,219.0 571.2,219.0 580.3,219.3 589.3,220.8 598.4,219.4 607.5,218.1 616.6,218.0 625.7,218.0 634.7,218.0 643.8,218.0 652.9,210.5 662.0,203.7 671.1,203.7 680.1,203.7 689.2,203.7 698.3,203.7 707.4,203.7 716.4,203.7 725.5,203.7 734.6,203.6 743.7,203.6 752.8,203.6 761.8,203.6" fill="none" stroke="#3fb950" stroke-width="2" stroke-linejoin="round" class="anim" style="animation-delay:250ms;"/>
<polyline points="761.8,203.6 770.9,195.8 780.0,188.1" fill="none" stroke="#3fb950" stroke-width="1.5" stroke-dasharray="5,4" stroke-linejoin="round" opacity="0.6" class="anim" style="animation-delay:250ms;"/>
<polygon points="90.0,340.0 90.0,326.5 99.1,327.9 108.2,326.6 117.2,327.9 126.3,333.7 135.4,324.9 144.5,324.9 153.6,323.9 162.6,323.6 171.7,323.3 180.8,323.3 189.9,307.4 198.9,307.4 208.0,307.4 217.1,289.4 226.2,289.3 235.3,289.3 244.3,289.3 253.4,289.3 262.5,289.3 271.6,289.3 280.7,279.9 289.7,265.6 298.8,265.5 307.9,265.5 317.0,265.5 326.1,265.4 335.1,265.4 344.2,265.4 353.3,265.3 362.4,265.3 371.4,265.3 380.5,265.3 389.6,265.3 398.7,265.3 407.8,265.3 416.8,265.3 425.9,265.3 435.0,265.3 444.1,265.3 453.2,265.3 462.2,265.3 471.3,265.4 480.4,264.9 489.5,264.9 498.6,264.9 507.6,264.9 516.7,264.9 525.8,264.9 534.9,264.9 543.9,264.9 553.0,264.9 562.1,264.9 571.2,264.9 580.3,265.0 589.3,265.8 598.4,265.3 607.5,264.5 616.6,264.4 625.7,264.4 634.7,264.4 643.8,264.4 652.9,264.4 662.0,264.4 671.1,264.4 680.1,264.4 689.2,264.4 698.3,264.4 707.4,264.4 716.4,264.4 725.5,264.4 734.6,264.4 743.7,264.4 752.8,264.4 761.8,264.4 770.9,258.1 780.0,251.9 780.0,340.0" fill="url(#delGrad)" class="anim" style="animation-delay:300ms;"/>
<polyline points="90.0,326.5 99.1,327.9 108.2,326.6 117.2,327.9 126.3,333.7 135.4,324.9 144.5,324.9 153.6,323.9 162.6,323.6 171.7,323.3 180.8,323.3 189.9,307.4 198.9,307.4 208.0,307.4 217.1,289.4 226.2,289.3 235.3,289.3 244.3,289.3 253.4,289.3 262.5,289.3 271.6,289.3 280.7,279.9 289.7,265.6 298.8,265.5 307.9,265.5 317.0,265.5 326.1,265.4 335.1,265.4 344.2,265.4 353.3,265.3 362.4,265.3 371.4,265.3 380.5,265.3 389.6,265.3 398.7,265.3 407.8,265.3 416.8,265.3 425.9,265.3 435.0,265.3 444.1,265.3 453.2,265.3 462.2,265.3 471.3,265.4 480.4,264.9 489.5,264.9 498.6,264.9 507.6,264.9 516.7,264.9 525.8,264.9 534.9,264.9 543.9,264.9 553.0,264.9 562.1,264.9 571.2,264.9 580.3,265.0 589.3,265.8 598.4,265.3 607.5,264.5 616.6,264.4 625.7,264.4 634.7,264.4 643.8,264.4 652.9,264.4 662.0,264.4 671.1,264.4 680.1,264.4 689.2,264.4 698.3,264.4 707.4,264.4 716.4,264.4 725.5,264.4 734.6,264.4 743.7,264.4 752.8,264.4 761.8,264.4" fill="none" stroke="#f85149" stroke-width="1.5" stroke-linejoin="round" class="anim" style="animation-delay:350ms;"/>
<polyline points="761.8,264.4 770.9,258.1 780.0,251.9" fill="none" stroke="#f85149" stroke-width="1" stroke-dasharray="5,4" stroke-linejoin="round" opacity="0.6" class="anim" style="animation-delay:350ms;"/>
<polyline points="90.0,340.0 99.1,340.0 108.2,340.0 117.2,340.0 126.3,340.0 135.4,340.0 144.5,340.0 153.6,340.0 162.6,308.0 171.7,308.0 180.8,308.0 189.9,308.0 198.9,308.0 208.0,308.0 217.1,308.0 226.2,308.0 235.3,308.0 244.3,308.0 253.4,308.0 262.5,308.0 271.6,308.0 280.7,308.0 289.7,308.0 298.8,308.0 307.9,308.0 317.0,308.0 326.1,308.0 335.1,308.0 344.2,308.0 353.3,308.0 362.4,308.0 371.4,308.0 380.5,308.0 389.6,308.0 398.7,276.0 407.8,276.0 416.8,276.0 425.9,276.0 435.0,276.0 444.1,276.0 453.2,276.0 462.2,276.0 471.3,244.0 480.4,244.0 489.5,244.0 498.6,244.0 507.6,244.0 516.7,244.0 525.8,244.0 534.9,244.0 543.9,244.0 553.0,244.0 562.1,244.0 571.2,244.0 580.3,244.0 589.3,244.0 598.4,244.0 607.5,244.0 616.6,180.0 625.7,180.0 634.7,180.0 643.8,180.0 652.9,180.0 662.0,180.0 671.1,180.0 680.1,180.0 689.2,180.0 698.3,180.0 707.4,180.0 716.4,180.0 725.5,180.0 734.6,180.0 743.7,180.0 752.8,180.0 761.8,180.0" fill="none" stroke="#e3b341" stroke-width="1.5" stroke-dasharray="4,3" stroke-linejoin="round" class="anim" style="animation-delay:400ms;"/>
<polyline points="761.8,180.0 770.9,180.0 780.0,148.0" fill="none" stroke="#e3b341" stroke-width="1" stroke-dasharray="3,5" stroke-linejoin="round" opacity="0.5" class="anim" style="animation-delay:400ms;"/>
<text x="90" y="90" class="subtitle">Lines Added vs Deleted (per snapshot)</text>
<text x="90" y="400" class="subtitle">Programming Language Development (%)</text>
<line x1="90" y1="650.0" x2="780" y2="650.0" stroke="#21262d" stroke-width="1"/>
<text x="82" y="654.0" text-anchor="end" class="axis-label">0%</text>
<line x1="90" y1="590.0" x2="780" y2="590.0" stroke="#21262d" stroke-width="1"/>
<text x="82" y="594.0" text-anchor="end" class="axis-label">25%</text>
<line x1="90" y1="530.0" x2="780" y2="530.0" stroke="#21262d" stroke-width="1"/>
<text x="82" y="534.0" text-anchor="end" class="axis-label">50%</text>
<line x1="90" y1="470.0" x2="780" y2="470.0" stroke="#21262d" stroke-width="1"/>
<text x="82" y="474.0" text-anchor="end" class="axis-label">75%</text>
<line x1="90" y1="410.0" x2="780" y2="410.0" stroke="#21262d" stroke-width="1"/>
<text x="82" y="414.0" text-anchor="end" class="axis-label">100%</text>
<polygon points="90.0,650.0 99.1,650.0 108.2,650.0 117.2,650.0 126.3,650.0 135.4,650.0 144.5,650.0 153.6,650.0 162.6,528.2 171.7,528.5 180.8,529.7 189.9,499.3 198.9,499.3 208.0,502.9 217.1,485.0 226.2,485.1 235.3,485.4 244.3,485.4 253.4,485.4 262.5,485.4 271.6,485.4 280.7,496.4 289.7,496.7 298.8,491.0 307.9,491.0 317.0,491.0 326.1,491.7 335.1,491.8 344.2,494.0 353.3,494.0 362.4,494.4 371.4,494.4 380.5,494.4 389.6,494.4 398.7,507.6 407.8,507.6 416.8,507.9 425.9,507.9 435.0,507.9 444.1,506.3 453.2,506.4 462.2,506.8 471.3,506.9 480.4,506.8 489.5,507.5 498.6,507.5 507.6,507.5 516.7,507.5 525.8,507.5 534.9,507.5 543.9,507.5 553.0,507.5 562.1,507.5 571.2,507.5 580.3,507.5 589.3,507.5 598.4,507.5 607.5,508.6 616.6,508.6 625.7,508.6 634.7,508.6 643.8,508.6 652.9,509.5 662.0,509.8 671.1,509.8 680.1,509.8 689.2,509.8 698.3,509.8 707.4,509.8 716.4,509.8 725.5,509.8 734.6,510.9 743.7,510.9 752.8,510.9 761.8,510.9 770.9,512.8 780.0,514.8 780.0,650.0 770.9,650.0 761.8,650.0 752.8,650.0 743.7,650.0 734.6,650.0 725.5,650.0 716.4,650.0 707.4,650.0 698.3,650.0 689.2,650.0 680.1,650.0 671.1,650.0 662.0,650.0 652.9,650.0 643.8,650.0 634.7,650.0 625.7,650.0 616.6,650.0 607.5,650.0 598.4,650.0 589.3,650.0 580.3,650.0 571.2,650.0 562.1,650.0 553.0,650.0 543.9,650.0 534.9,650.0 525.8,650.0 516.7,650.0 507.6,650.0 498.6,650.0 489.5,650.0 480.4,650.0 471.3,650.0 462.2,650.0 453.2,650.0 444.1,650.0 435.0,650.0 425.9,650.0 416.8,650.0 407.8,650.0 398.7,650.0 389.6,650.0 380.5,650.0 371.4,650.0 362.4,650.0 353.3,650.0 344.2,650.0 335.1,650.0 326.1,650.0 317.0,650.0 307.9,650.0 298.8,650.0 289.7,650.0 280.7,650.0 271.6,650.0 262.5,650.0 253.4,650.0 244.3,650.0 235.3,650.0 226.2,650.0 217.1,650.0 208.0,650.0 198.9,650.0 189.9,650.0 180.8,650.0 171.7,650.0 162.6,650.0 153.6,650.0 144.5,650.0 135.4,650.0 126.3,650.0 117.2,650.0 108.2,650.0 99.1,650.0 90.0,650.0" fill="#e34c26" opacity="0.6" class="anim" style="animation-delay:500ms;"/>
<polygon points="90.0,650.0 99.1,650.0 108.2,650.0 117.2,650.0 126.3,650.0 135.4,650.0 144.5,650.0 153.6,650.0 162.6,488.4 171.7,488.0 180.8,489.0 189.9,476.0 198.9,476.0 208.0,477.2 217.1,460.1 226.2,460.2 235.3,460.6 244.3,460.6 253.4,460.6 262.5,460.6 271.6,460.6 280.7,473.0 289.7,473.5 298.8,469.5 307.9,469.5 317.0,469.5 326.1,469.7 335.1,469.7 344.2,469.7 353.3,469.7 362.4,469.7 371.4,469.7 380.5,469.7 389.6,469.7 398.7,455.6 407.8,455.6 416.8,455.4 425.9,455.4 435.0,455.4 444.1,454.3 453.2,454.3 462.2,455.0 471.3,455.1 480.4,454.9 489.5,455.9 498.6,455.9 507.6,455.9 516.7,455.9 525.8,455.9 534.9,455.9 543.9,455.9 553.0,455.9 562.1,455.9 571.2,455.9 580.3,455.9 589.3,455.9 598.4,455.9 607.5,455.8 616.6,455.8 625.7,455.8 634.7,455.8 643.8,455.8 652.9,457.0 662.0,457.4 671.1,457.4 680.1,457.4 689.2,457.4 698.3,457.4 707.4,457.4 716.4,457.4 725.5,457.4 734.6,458.2 743.7,458.2 752.8,458.2 761.8,458.2 770.9,456.0 780.0,453.8 780.0,514.8 770.9,512.8 761.8,510.9 752.8,510.9 743.7,510.9 734.6,510.9 725.5,509.8 716.4,509.8 707.4,509.8 698.3,509.8 689.2,509.8 680.1,509.8 671.1,509.8 662.0,509.8 652.9,509.5 643.8,508.6 634.7,508.6 625.7,508.6 616.6,508.6 607.5,508.6 598.4,507.5 589.3,507.5 580.3,507.5 571.2,507.5 562.1,507.5 553.0,507.5 543.9,507.5 534.9,507.5 525.8,507.5 516.7,507.5 507.6,507.5 498.6,507.5 489.5,507.5 480.4,506.8 471.3,506.9 462.2,506.8 453.2,506.4 444.1,506.3 435.0,507.9 425.9,507.9 416.8,507.9 407.8,507.6 398.7,507.6 389.6,494.4 380.5,494.4 371.4,494.4 362.4,494.4 353.3,494.0 344.2,494.0 335.1,491.8 326.1,491.7 317.0,491.0 307.9,491.0 298.8,491.0 289.7,496.7 280.7,496.4 271.6,485.4 262.5,485.4 253.4,485.4 244.3,485.4 235.3,485.4 226.2,485.1 217.1,485.0 208.0,502.9 198.9,499.3 189.9,499.3 180.8,529.7 171.7,528.5 162.6,528.2 153.6,650.0 144.5,650.0 135.4,650.0 126.3,650.0 117.2,650.0 108.2,650.0 99.1,650.0 90.0,650.0" fill="#f1e05a" opacity="0.6" class="anim" style="animation-delay:600ms;"/>
<polygon points="90.0,650.0 99.1,650.0 108.2,650.0 117.2,650.0 126.3,650.0 135.4,650.0 144.5,650.0 153.6,650.0 162.6,455.5 171.7,455.4 180.8,455.1 189.9,447.0 198.9,447.0 208.0,448.2 217.1,438.9 226.2,439.0 235.3,439.6 244.3,439.6 253.4,439.6 262.5,439.6 271.6,439.6 280.7,445.6 289.7,445.6 298.8,443.3 307.9,443.3 317.0,443.3 326.1,443.6 335.1,443.6 344.2,444.1 353.3,444.1 362.4,444.1 371.4,444.1 380.5,444.1 389.6,444.1 398.7,437.5 407.8,437.5 416.8,437.5 425.9,437.5 435.0,437.5 444.1,437.5 453.2,437.5 462.2,438.4 471.3,438.5 480.4,438.3 489.5,439.3 498.6,439.3 507.6,439.3 516.7,439.3 525.8,439.3 534.9,439.3 543.9,439.3 553.0,439.3 562.1,439.3 571.2,439.3 580.3,439.3 589.3,439.3 598.4,439.3 607.5,439.4 616.6,439.4 625.7,439.4 634.7,439.4 643.8,439.4 652.9,440.7 662.0,441.1 671.1,441.1 680.1,441.1 689.2,441.1 698.3,441.1 707.4,441.1 716.4,441.1 725.5,441.1 734.6,442.0 743.7,442.0 752.8,442.0 761.8,442.0 770.9,441.5 780.0,441.0 780.0,453.8 770.9,456.0 761.8,458.2 752.8,458.2 743.7,458.2 734.6,458.2 725.5,457.4 716.4,457.4 707.4,457.4 698.3,457.4 689.2,457.4 680.1,457.4 671.1,457.4 662.0,457.4 652.9,457.0 643.8,455.8 634.7,455.8 625.7,455.8 616.6,455.8 607.5,455.8 598.4,455.9 589.3,455.9 580.3,455.9 571.2,455.9 562.1,455.9 553.0,455.9 543.9,455.9 534.9,455.9 525.8,455.9 516.7,455.9 507.6,455.9 498.6,455.9 489.5,455.9 480.4,454.9 471.3,455.1 462.2,455.0 453.2,454.3 444.1,454.3 435.0,455.4 425.9,455.4 416.8,455.4 407.8,455.6 398.7,455.6 389.6,469.7 380.5,469.7 371.4,469.7 362.4,469.7 353.3,469.7 344.2,469.7 335.1,469.7 326.1,469.7 317.0,469.5 307.9,469.5 298.8,469.5 289.7,473.5 280.7,473.0 271.6,460.6 262.5,460.6 253.4,460.6 244.3,460.6 235.3,460.6 226.2,460.2 217.1,460.1 208.0,477.2 198.9,476.0 189.9,476.0 180.8,489.0 171.7,488.0 162.6,488.4 153.6,650.0 144.5,650.0 135.4,650.0 126.3,650.0 117.2,650.0 108.2,650.0 99.1,650.0 90.0,650.0" fill="#3572A5" opacity="0.6" class="anim" style="animation-delay:700ms;"/>
<polygon points="90.0,650.0 99.1,650.0 108.2,650.0 117.2,650.0 126.3,650.0 135.4,650.0 144.5,650.0 153.6,650.0 162.6,442.3 171.7,442.0 180.8,441.6 189.9,439.5 198.9,439.5 208.0,439.4 217.1,432.3 226.2,432.2 235.3,432.6 244.3,432.6 253.4,432.6 262.5,432.6 271.6,432.6 280.7,439.3 289.7,439.3 298.8,437.4 307.9,437.4 317.0,437.4 326.1,437.3 335.1,437.3 344.2,437.1 353.3,437.1 362.4,437.1 371.4,437.1 380.5,437.1 389.6,437.1 398.7,428.7 407.8,428.6 416.8,428.5 425.9,428.5 435.0,428.5 444.1,427.3 453.2,427.3 462.2,427.1 471.3,427.1 480.4,427.1 489.5,427.0 498.6,427.0 507.6,427.0 516.7,427.0 525.8,427.0 534.9,427.0 543.9,427.0 553.0,427.0 562.1,427.0 571.2,427.0 580.3,427.0 589.3,427.0 598.4,427.0 607.5,427.0 616.6,427.1 625.7,427.1 634.7,427.1 643.8,427.1 652.9,428.4 662.0,428.9 671.1,428.9 680.1,428.9 689.2,428.9 698.3,428.9 707.4,428.9 716.4,428.9 725.5,428.9 734.6,428.7 743.7,428.7 752.8,428.7 761.8,428.7 770.9,427.5 780.0,426.3 780.0,441.0 770.9,441.5 761.8,442.0 752.8,442.0 743.7,442.0 734.6,442.0 725.5,441.1 716.4,441.1 707.4,441.1 698.3,441.1 689.2,441.1 680.1,441.1 671.1,441.1 662.0,441.1 652.9,440.7 643.8,439.4 634.7,439.4 625.7,439.4 616.6,439.4 607.5,439.4 598.4,439.3 589.3,439.3 580.3,439.3 571.2,439.3 562.1,439.3 553.0,439.3 543.9,439.3 534.9,439.3 525.8,439.3 516.7,439.3 507.6,439.3 498.6,439.3 489.5,439.3 480.4,438.3 471.3,438.5 462.2,438.4 453.2,437.5 444.1,437.5 435.0,437.5 425.9,437.5 416.8,437.5 407.8,437.5 398.7,437.5 389.6,444.1 380.5,444.1 371.4,444.1 362.4,444.1 353.3,444.1 344.2,444.1 335.1,443.6 326.1,443.6 317.0,443.3 307.9,443.3 298.8,443.3 289.7,445.6 280.7,445.6 271.6,439.6 262.5,439.6 253.4,439.6 244.3,439.6 235.3,439.6 226.2,439.0 217.1,438.9 208.0,448.2 198.9,447.0 189.9,447.0 180.8,455.1 171.7,455.4 162.6,455.5 153.6,650.0 144.5,650.0 135.4,650.0 126.3,650.0 117.2,650.0 108.2,650.0 99.1,650.0 90.0,650.0" fill="#663399" opacity="0.6" class="anim" style="animation-delay:800ms;"/>
<polygon points="90.0,650.0 99.1,650.0 108.2,650.0 117.2,650.0 126.3,650.0 135.4,650.0 144.5,650.0 153.6,650.0 162.6,436.6 171.7,436.3 180.8,435.9 189.9,432.2 198.9,432.2 208.0,432.2 217.1,426.2 226.2,426.1 235.3,426.0 244.3,426.0 253.4,426.0 262.5,426.0 271.6,426.0 280.7,430.8 289.7,430.7 298.8,429.3 307.9,429.3 317.0,429.3 326.1,429.2 335.1,429.2 344.2,428.9 353.3,428.9 362.4,428.8 371.4,428.8 380.5,428.8 389.6,428.8 398.7,423.0 407.8,422.9 416.8,422.9 425.9,422.9 435.0,422.9 444.1,422.0 453.2,422.0 462.2,421.9 471.3,421.9 480.4,421.9 489.5,421.8 498.6,421.8 507.6,421.8 516.7,421.8 525.8,421.8 534.9,421.8 543.9,421.8 553.0,421.8 562.1,421.8 571.2,421.8 580.3,421.8 589.3,421.8 598.4,421.8 607.5,421.7 616.6,421.8 625.7,421.8 634.7,421.8 643.8,421.8 652.9,423.2 662.0,423.6 671.1,423.6 680.1,423.6 689.2,423.6 698.3,423.6 707.4,423.6 716.4,423.6 725.5,423.6 734.6,423.5 743.7,423.5 752.8,423.5 761.8,423.5 770.9,422.6 780.0,421.7 780.0,426.3 770.9,427.5 761.8,428.7 752.8,428.7 743.7,428.7 734.6,428.7 725.5,428.9 716.4,428.9 707.4,428.9 698.3,428.9 689.2,428.9 680.1,428.9 671.1,428.9 662.0,428.9 652.9,428.4 643.8,427.1 634.7,427.1 625.7,427.1 616.6,427.1 607.5,427.0 598.4,427.0 589.3,427.0 580.3,427.0 571.2,427.0 562.1,427.0 553.0,427.0 543.9,427.0 534.9,427.0 525.8,427.0 516.7,427.0 507.6,427.0 498.6,427.0 489.5,427.0 480.4,427.1 471.3,427.1 462.2,427.1 453.2,427.3 444.1,427.3 435.0,428.5 425.9,428.5 416.8,428.5 407.8,428.6 398.7,428.7 389.6,437.1 380.5,437.1 371.4,437.1 362.4,437.1 353.3,437.1 344.2,437.1 335.1,437.3 326.1,437.3 317.0,437.4 307.9,437.4 298.8,437.4 289.7,439.3 280.7,439.3 271.6,432.6 262.5,432.6 253.4,432.6 244.3,432.6 235.3,432.6 226.2,432.2 217.1,432.3 208.0,439.4 198.9,439.5 189.9,439.5 180.8,441.6 171.7,442.0 162.6,442.3 153.6,650.0 144.5,650.0 135.4,650.0 126.3,650.0 117.2,650.0 108.2,650.0 99.1,650.0 90.0,650.0" fill="#083fa1" opacity="0.6" class="anim" style="animation-delay:900ms;"/>
<polygon points="90.0,650.0 99.1,650.0 108.2,650.0 117.2,650.0 126.3,650.0 135.4,650.0 144.5,650.0 153.6,650.0 162.6,427.0 171.7,426.8 180.8,426.6 189.9,424.2 198.9,424.2 208.0,424.2 217.1,420.4 226.2,420.3 235.3,420.3 244.3,420.3 253.4,420.3 262.5,420.3 271.6,420.3 280.7,423.3 289.7,423.2 298.8,422.4 307.9,422.4 317.0,422.4 326.1,422.3 335.1,422.3 344.2,422.1 353.3,422.1 362.4,422.1 371.4,422.1 380.5,422.1 389.6,422.1 398.7,418.3 407.8,418.3 416.8,418.2 425.9,418.2 435.0,418.2 444.1,417.7 453.2,417.7 462.2,417.6 471.3,417.6 480.4,417.6 489.5,417.6 498.6,417.6 507.6,417.6 516.7,417.6 525.8,417.6 534.9,417.6 543.9,417.6 553.0,417.6 562.1,417.6 571.2,417.6 580.3,417.6 589.3,417.6 598.4,417.6 607.5,417.5 616.6,417.6 625.7,417.6 634.7,417.6 643.8,417.6 652.9,419.0 662.0,419.5 671.1,419.5 680.1,419.5 689.2,419.5 698.3,419.5 707.4,419.5 716.4,419.5 725.5,419.5 734.6,419.4 743.7,419.4 752.8,419.4 761.8,419.4 770.9,418.9 780.0,418.5 780.0,421.7 770.9,422.6 761.8,423.5 752.8,423.5 743.7,423.5 734.6,423.5 725.5,423.6 716.4,423.6 707.4,423.6 698.3,423.6 689.2,423.6 680.1,423.6 671.1,423.6 662.0,423.6 652.9,423.2 643.8,421.8 634.7,421.8 625.7,421.8 616.6,421.8 607.5,421.7 598.4,421.8 589.3,421.8 580.3,421.8 571.2,421.8 562.1,421.8 553.0,421.8 543.9,421.8 534.9,421.8 525.8,421.8 516.7,421.8 507.6,421.8 498.6,421.8 489.5,421.8 480.4,421.9 471.3,421.9 462.2,421.9 453.2,422.0 444.1,422.0 435.0,422.9 425.9,422.9 416.8,422.9 407.8,422.9 398.7,423.0 389.6,428.8 380.5,428.8 371.4,428.8 362.4,428.8 353.3,428.9 344.2,428.9 335.1,429.2 326.1,429.2 317.0,429.3 307.9,429.3 298.8,429.3 289.7,430.7 280.7,430.8 271.6,426.0 262.5,426.0 253.4,426.0 244.3,426.0 235.3,426.0 226.2,426.1 217.1,426.2 208.0,432.2 198.9,432.2 189.9,432.2 180.8,435.9 171.7,436.3 162.6,436.6 153.6,650.0 144.5,650.0 135.4,650.0 126.3,650.0 117.2,650.0 108.2,650.0 99.1,650.0 90.0,650.0" fill="#6E4C13" opacity="0.6" class="anim" style="animation-delay:1000ms;"/>
<polygon points="90.0,650.0 99.1,650.0 108.2,650.0 117.2,650.0 126.3,650.0 135.4,650.0 144.5,650.0 153.6,650.0 162.6,418.7 171.7,418.6 180.8,418.5 189.9,417.3 198.9,417.3 208.0,417.2 217.1,415.3 226.2,415.3 235.3,415.2 244.3,415.2 253.4,415.2 262.5,415.2 271.6,415.2 280.7,416.8 289.7,416.8 298.8,416.3 307.9,416.3 317.0,416.3 326.1,416.3 335.1,416.3 344.2,416.2 353.3,416.2 362.4,416.2 371.4,416.2 380.5,416.2 389.6,416.2 398.7,414.2 407.8,414.2 416.8,414.2 425.9,414.2 435.0,414.2 444.1,413.9 453.2,413.9 462.2,413.9 471.3,413.9 480.4,413.9 489.5,413.9 498.6,413.9 507.6,413.9 516.7,413.9 525.8,413.9 534.9,413.9 543.9,413.9 553.0,413.9 562.1,413.9 571.2,413.9 580.3,413.9 589.3,413.9 598.4,413.9 607.5,413.8 616.6,413.8 625.7,413.8 634.7,413.8 643.8,413.8 652.9,413.8 662.0,413.8 671.1,413.8 680.1,413.8 689.2,413.8 698.3,413.8 707.4,413.8 716.4,413.8 725.5,413.8 734.6,413.8 743.7,413.8 752.8,413.8 761.8,413.8 770.9,413.6 780.0,413.3 780.0,418.5 770.9,418.9 761.8,419.4 752.8,419.4 743.7,419.4 734.6,419.4 725.5,419.5 716.4,419.5 707.4,419.5 698.3,419.5 689.2,419.5 680.1,419.5 671.1,419.5 662.0,419.5 652.9,419.0 643.8,417.6 634.7,417.6 625.7,417.6 616.6,417.6 607.5,417.5 598.4,417.6 589.3,417.6 580.3,417.6 571.2,417.6 562.1,417.6 553.0,417.6 543.9,417.6 534.9,417.6 525.8,417.6 516.7,417.6 507.6,417.6 498.6,417.6 489.5,417.6 480.4,417.6 471.3,417.6 462.2,417.6 453.2,417.7 444.1,417.7 435.0,418.2 425.9,418.2 416.8,418.2 407.8,418.3 398.7,418.3 389.6,422.1 380.5,422.1 371.4,422.1 362.4,422.1 353.3,422.1 344.2,422.1 335.1,422.3 326.1,422.3 317.0,422.4 307.9,422.4 298.8,422.4 289.7,423.2 280.7,423.3 271.6,420.3 262.5,420.3 253.4,420.3 244.3,420.3 235.3,420.3 226.2,420.3 217.1,420.4 208.0,424.2 198.9,424.2 189.9,424.2 180.8,426.6 171.7,426.8 162.6,427.0 153.6,650.0 144.5,650.0 135.4,650.0 126.3,650.0 117.2,650.0 108.2,650.0 99.1,650.0 90.0,650.0" fill="#F05138" opacity="0.6" class="anim" style="animation-delay:1100ms;"/>
<polygon points="90.0,650.0 99.1,650.0 108.2,650.0 117.2,650.0 126.3,650.0 135.4,650.0 144.5,650.0 153.6,650.0 162.6,414.4 171.7,414.4 180.8,414.3 189.9,413.7 198.9,413.7 208.0,413.7 217.1,412.7 226.2,412.7 235.3,412.7 244.3,412.7 253.4,412.7 262.5,412.7 271.6,412.7 280.7,413.5 289.7,413.4 298.8,413.2 307.9,413.2 317.0,413.2 326.1,413.2 335.1,413.2 344.2,413.1 353.3,413.1 362.4,413.1 371.4,413.1 380.5,413.1 389.6,413.1 398.7,412.2 407.8,412.1 416.8,412.1 425.9,412.1 435.0,412.1 444.1,412.0 453.2,412.0 462.2,412.0 471.3,412.0 480.4,412.0 489.5,412.0 498.6,412.0 507.6,412.0 516.7,412.0 525.8,412.0 534.9,412.0 543.9,412.0 553.0,412.0 562.1,412.0 571.2,412.0 580.3,412.0 589.3,412.0 598.4,412.0 607.5,411.9 616.6,411.9 625.7,411.9 634.7,411.9 643.8,411.9 652.9,411.9 662.0,411.9 671.1,411.9 680.1,411.9 689.2,411.9 698.3,411.9 707.4,411.9 716.4,411.9 725.5,411.9 734.6,411.9 743.7,411.9 752.8,411.9 761.8,411.9 770.9,411.9 780.0,411.9 780.0,413.3 770.9,413.6 761.8,413.8 752.8,413.8 743.7,413.8 734.6,413.8 725.5,413.8 716.4,413.8 707.4,413.8 698.3,413.8 689.2,413.8 680.1,413.8 671.1,413.8 662.0,413.8 652.9,413.8 643.8,413.8 634.7,413.8 625.7,413.8 616.6,413.8 607.5,413.8 598.4,413.9 589.3,413.9 580.3,413.9 571.2,413.9 562.1,413.9 553.0,413.9 543.9,413.9 534.9,413.9 525.8,413.9 516.7,413.9 507.6,413.9 498.6,413.9 489.5,413.9 480.4,413.9 471.3,413.9 462.2,413.9 453.2,413.9 444.1,413.9 435.0,414.2 425.9,414.2 416.8,414.2 407.8,414.2 398.7,414.2 389.6,416.2 380.5,416.2 371.4,416.2 362.4,416.2 353.3,416.2 344.2,416.2 335.1,416.3 326.1,416.3 317.0,416.3 307.9,416.3 298.8,416.3 289.7,416.8 280.7,416.8 271.6,415.2 262.5,415.2 253.4,415.2 244.3,415.2 235.3,415.2 226.2,415.3 217.1,415.3 208.0,417.2 198.9,417.3 189.9,417.3 180.8,418.5 171.7,418.6 162.6,418.7 153.6,650.0 144.5,650.0 135.4,650.0 126.3,650.0 117.2,650.0 108.2,650.0 99.1,650.0 90.0,650.0" fill="#b07219" opacity="0.6" class="anim" style="animation-delay:1200ms;"/>
<line x1="761.8" y1="100" x2="761.8" y2="650" stroke="#c9d1d9" stroke-width="1" stroke-dasharray="4,3" opacity="0.35"/>
<text x="770.9" y="112" text-anchor="middle" class="axis-label" opacity="0.6">Jul 06, 2026</text>
<text x="90.0" y="668" text-anchor="middle" class="axis-label" transform="rotate(-35 90.0 668)">2026-02</text>
<text x="307.9" y="668" text-anchor="middle" class="axis-label" transform="rotate(-35 307.9 668)">2026-03</text>
<text x="598.4" y="668" text-anchor="middle" class="axis-label" transform="rotate(-35 598.4 668)">2026-04</text>
<text x="671.1" y="668" text-anchor="middle" class="axis-label" transform="rotate(-35 671.1 668)">2026-06</text>
<text x="770.9" y="668" text-anchor="middle" class="axis-label" transform="rotate(-35 770.9 668)">Jul 06, 2026</text>
<line x1="796" y1="110" x2="824" y2="110" stroke="#3fb950" stroke-width="2"/>
<text x="832" y="116" class="legend-text">Lines Added</text>
<line x1="796" y1="140" x2="824" y2="140" stroke="#f85149" stroke-width="1.5"/>
<text x="832" y="146" class="legend-text">Lines Deleted</text>
<line x1="796" y1="170" x2="824" y2="170" stroke="#e3b341" stroke-width="1.5" stroke-dasharray="4,3"/>
<text x="832" y="176" class="legend-text">&#x2605; Stars</text>
<text x="796" y="200" class="subtitle">Languages</text>
<rect x="796" y="212" width="12" height="12" rx="2" fill="#e34c26" opacity="0.8" class="anim" style="animation-delay:800ms;"/>
<text x="814" y="223" class="legend-text">HTML (58%→56%)</text>
<rect x="796" y="234" width="12" height="12" rx="2" fill="#f1e05a" opacity="0.8" class="anim" style="animation-delay:880ms;"/>
<text x="814" y="245" class="legend-text">JavaScript (22%→25%)</text>
<rect x="796" y="256" width="12" height="12" rx="2" fill="#3572A5" opacity="0.8" class="anim" style="animation-delay:960ms;"/>
<text x="814" y="267" class="legend-text">Python (7%→5%)</text>
<rect x="796" y="278" width="12" height="12" rx="2" fill="#663399" opacity="0.8" class="anim" style="animation-delay:1040ms;"/>
<text x="814" y="289" class="legend-text">CSS (6%→6%)</text>
<rect x="796" y="300" width="12" height="12" rx="2" fill="#083fa1" opacity="0.8" class="anim" style="animation-delay:1120ms;"/>
<text x="814" y="311" class="legend-text">Markdown (2%→2%)</text>
<rect x="796" y="322" width="12" height="12" rx="2" fill="#6E4C13" opacity="0.8" class="anim" style="animation-delay:1200ms;"/>
<text x="814" y="333" class="legend-text">Assembly (2%→1%)</text>
<rect x="796" y="344" width="12" height="12" rx="2" fill="#F05138" opacity="0.8" class="anim" style="animation-delay:1280ms;"/>
<text x="814" y="355" class="legend-text">Swift (2%→2%)</text>
<rect x="796" y="366" width="12" height="12" rx="2" fill="#b07219" opacity="0.8" class="anim" style="animation-delay:1360ms;"/>
<text x="814" y="377" class="legend-text">Java (1%→1%)</text>
<text x="796" y="412" class="subtitle">Contributions</text>
<text x="796" y="432" class="axis-label">2023: 39</text>
<text x="796" y="452" class="axis-label">2024: 646</text>
<text x="796" y="472" class="axis-label">2025: 1,780</text>
<text x="796" y="492" class="axis-label">2026: 491</text>
<text x="796" y="522" class="subtitle">Statistics</text>
<text x="796" y="542" class="axis-label">Active weeks: 88</text>
<text x="796" y="562" class="axis-label">Add/Del ratio: 1.8x</text>
<text x="796" y="582" class="axis-label">Avg lines/wk: 18K</text>
<text x="796" y="602" class="axis-label">Peak: 2026-02-15</text>
<text x="796" y="622" class="axis-label">  (543K lines)</text>
<text x="90" y="742" class="axis-label">Total: +1,040,332 / -576,819 lines &#xb7; 2,956 contributions &#xb7; 80 repos &#xb7; &#x2605; 37</text>
</svg>