<svg xmlns="http://www.w3.org/2000/svg" width="1000" height="760" style="max-width: 100%;" viewBox="0 0 1000 760">

<defs>
  <linearGradient id="areaGrad" x1="0" y1="0" x2="0" y2="1">
    <stop offset="0%" stop-color="#58a6ff" stop-opacity="0.35"/>
    <stop offset="100%" stop-color="#58a6ff" stop-opacity="0.02"/>
  </linearGradient>
  <linearGradient id="addGrad" x1="0" y1="0" x2="0" y2="1">
    <stop offset="0%" stop-color="#3fb950" stop-opacity="0.35"/>
    <stop offset="100%" stop-color="#3fb950" stop-opacity="0.02"/>
  </linearGradient>
  <linearGradient id="delGrad" x1="0" y1="0" x2="0" y2="1">
    <stop offset="0%" stop-color="#f85149" stop-opacity="0.25"/>
    <stop offset="100%" stop-color="#f85149" stop-opacity="0.02"/>
  </linearGradient>
</defs>
<style>
  .title { font: bold 28px 'Segoe UI', Ubuntu, Sans-Serif; fill: #c9d1d9; }
  .subtitle { font: 600 20px 'Segoe UI', Ubuntu, Sans-Serif; fill: #c9d1d9; opacity: 0.8; }
  .axis-label { font: 18px 'Segoe UI', Ubuntu, Sans-Serif; fill: #c9d1d9; opacity: 0.7; }
  .legend-text { font: 14px 'Segoe UI', Ubuntu, Sans-Serif; fill: #c9d1d9; }
  .value-text { font: bold 18px 'Segoe UI', Ubuntu, Sans-Serif; fill: #c9d1d9; }
  .stat-value { font: bold 22px 'Segoe UI', Ubuntu, Sans-Serif; fill: #c9d1d9; }
  .stat-label { font: 18px 'Segoe UI', Ubuntu, Sans-Serif; fill: #c9d1d9; opacity: 0.7; }
  @keyframes fadeIn { from { opacity: 0; } to { opacity: 1; } }
  .anim { animation: fadeIn 0.6s ease-in-out forwards; opacity: 0; }
</style>

<rect x="0.5" y="0.5" rx="4.5" width="999" height="759" fill="#161b22" stroke="#21262d"/>
<text x="90" y="45" class="title">Activity History</text>
<text x="90" y="72" class="subtitle">Lines added vs deleted &amp; activity trends over time</text>
<line x1="90" y1="340.0" x2="780" y2="340.0" stroke="#21262d" stroke-width="1"/>
<text x="82" y="344.0" text-anchor="end" class="axis-label">0</text>
<line x1="90" y1="280.0" x2="780" y2="280.0" stroke="#21262d" stroke-width="1"/>
<text x="82" y="284.0" text-anchor="end" class="axis-label">607K</text>
<line x1="90" y1="220.0" x2="780" y2="220.0" stroke="#21262d" stroke-width="1"/>
<text x="82" y="224.0" text-anchor="end" class="axis-label">1.2M</text>
<line x1="90" y1="160.0" x2="780" y2="160.0" stroke="#21262d" stroke-width="1"/>
<text x="82" y="164.0" text-anchor="end" class="axis-label">1.8M</text>
<line x1="90" y1="100.0" x2="780" y2="100.0" stroke="#21262d" stroke-width="1"/>
<text x="82" y="104.0" text-anchor="end" class="axis-label">2.4M</text>
<polygon points="90.0,340.0 90.0,303.9 107.2,305.2 124.5,303.9 141.8,305.2 159.0,313.5 176.2,297.0 193.5,297.0 210.8,290.8 228.0,290.5 245.2,290.1 262.5,290.1 279.8,279.0 297.0,279.0 314.2,278.9 331.5,262.5 348.8,262.3 366.0,262.1 383.2,262.1 400.5,262.1 417.8,262.1 435.0,262.1 452.2,261.6 469.5,250.6 486.8,250.6 504.0,250.6 521.2,250.6 538.5,250.3 555.8,250.3 573.0,249.9 590.2,249.9 607.5,249.8 624.8,249.8 642.0,249.8 659.2,249.8 676.5,249.9 693.8,249.8 711.0,249.8 728.2,249.8 745.5,249.8 762.8,225.7 780.0,201.6 780.0,340.0" fill="url(#addGrad)" class="anim" style="animation-delay:200ms;"/>
<polyline points="90.0,303.9 107.2,305.2 124.5,303.9 141.8,305.2 159.0,313.5 176.2,297.0 193.5,297.0 210.8,290.8 228.0,290.5 245.2,290.1 262.5,290.1 279.8,279.0 297.0,279.0 314.2,278.9 331.5,262.5 348.8,262.3 366.0,262.1 383.2,262.1 400.5,262.1 417.8,262.1 435.0,262.1 452.2,261.6 469.5,250.6 486.8,250.6 504.0,250.6 521.2,250.6 538.5,250.3 555.8,250.3 573.0,249.9 590.2,249.9 607.5,249.8 624.8,249.8 642.0,249.8 659.2,249.8 676.5,249.9 693.8,249.8 711.0,249.8 728.2,249.8 745.5,249.8" fill="none" stroke="#3fb950" stroke-width="2" stroke-linejoin="round" class="anim" style="animation-delay:250ms;"/>
<polyline points="745.5,249.8 762.8,225.7 780.0,201.6" fill="none" stroke="#3fb950" stroke-width="1.5" stroke-dasharray="5,4" stroke-linejoin="round" opacity="0.6" class="anim" style="animation-delay:250ms;"/>
<polygon points="90.0,340.0 90.0,329.9 107.2,330.9 124.5,329.9 141.8,330.9 159.0,335.2 176.2,328.6 193.5,328.6 210.8,327.9 228.0,327.6 245.2,327.4 262.5,327.4 279.8,315.4 297.0,315.4 314.2,315.4 331.5,301.9 348.8,301.8 366.0,301.8 383.2,301.8 400.5,301.8 417.8,301.8 435.0,301.8 452.2,294.7 469.5,283.9 486.8,283.8 504.0,283.8 521.2,283.8 538.5,283.8 555.8,283.8 573.0,283.7 590.2,283.7 607.5,283.7 624.8,283.7 642.0,283.7 659.2,283.7 676.5,283.7 693.8,283.7 711.0,283.7 728.2,283.7 745.5,283.7 762.8,261.0 780.0,238.4 780.0,340.0" fill="url(#delGrad)" class="anim" style="animation-delay:300ms;"/>
<polyline points="90.0,329.9 107.2,330.9 124.5,329.9 141.8,330.9 159.0,335.2 176.2,328.6 193.5,328.6 210.8,327.9 228.0,327.6 245.2,327.4 262.5,327.4 279.8,315.4 297.0,315.4 314.2,315.4 331.5,301.9 348.8,301.8 366.0,301.8 383.2,301.8 400.5,301.8 417.8,301.8 435.0,301.8 452.2,294.7 469.5,283.9 486.8,283.8 504.0,283.8 521.2,283.8 538.5,283.8 555.8,283.8 573.0,283.7 590.2,283.7 607.5,283.7 624.8,283.7 642.0,283.7 659.2,283.7 676.5,283.7 693.8,283.7 711.0,283.7 728.2,283.7 745.5,283.7" fill="none" stroke="#f85149" stroke-width="1.5" stroke-linejoin="round" class="anim" style="animation-delay:350ms;"/>
<polyline points="745.5,283.7 762.8,261.0 780.0,238.4" fill="none" stroke="#f85149" stroke-width="1" stroke-dasharray="5,4" stroke-linejoin="round" opacity="0.6" class="anim" style="animation-delay:350ms;"/>
<polyline points="90.0,340.0 107.2,340.0 124.5,340.0 141.8,340.0 159.0,340.0 176.2,340.0 193.5,340.0 210.8,340.0 228.0,276.0 245.2,276.0 262.5,276.0 279.8,276.0 297.0,276.0 314.2,276.0 331.5,276.0 348.8,276.0 366.0,276.0 383.2,276.0 400.5,276.0 417.8,276.0 435.0,276.0 452.2,276.0 469.5,276.0 486.8,276.0 504.0,276.0 521.2,276.0 538.5,276.0 555.8,276.0 573.0,276.0 590.2,276.0 607.5,276.0 624.8,276.0 642.0,276.0 659.2,276.0 676.5,212.0 693.8,212.0 711.0,212.0 728.2,212.0 745.5,212.0" fill="none" stroke="#e3b341" stroke-width="1.5" stroke-dasharray="4,3" stroke-linejoin="round" class="anim" style="animation-delay:400ms;"/>
<polyline points="745.5,212.0 762.8,212.0 780.0,148.0" fill="none" stroke="#e3b341" stroke-width="1" stroke-dasharray="3,5" stroke-linejoin="round" opacity="0.5" class="anim" style="animation-delay:400ms;"/>
<text x="90" y="90" class="subtitle">Lines Added vs Deleted (per snapshot)</text>
<text x="90" y="400" class="subtitle">Programming Language Development (%)</text>
<line x1="90" y1="650.0" x2="780" y2="650.0" stroke="#21262d" stroke-width="1"/>
<text x="82" y="654.0" text-anchor="end" class="axis-label">0%</text>
<line x1="90" y1="590.0" x2="780" y2="590.0" stroke="#21262d" stroke-width="1"/>
<text x="82" y="594.0" text-anchor="end" class="axis-label">25%</text>
<line x1="90" y1="530.0" x2="780" y2="530.0" stroke="#21262d" stroke-width="1"/>
<text x="82" y="534.0" text-anchor="end" class="axis-label">50%</text>
<line x1="90" y1="470.0" x2="780" y2="470.0" stroke="#21262d" stroke-width="1"/>
<text x="82" y="474.0" text-anchor="end" class="axis-label">75%</text>
<line x1="90" y1="410.0" x2="780" y2="410.0" stroke="#21262d" stroke-width="1"/>
<text x="82" y="414.0" text-anchor="end" class="axis-label">100%</text>
<polygon points="90.0,650.0 107.2,650.0 124.5,650.0 141.8,650.0 159.0,650.0 176.2,650.0 193.5,650.0 210.8,650.0 228.0,528.2 245.2,528.5 262.5,529.7 279.8,499.3 297.0,499.3 314.2,502.9 331.5,485.0 348.8,485.1 366.0,485.4 383.2,485.4 400.5,485.4 417.8,485.4 435.0,485.4 452.2,496.4 469.5,496.7 486.8,491.0 504.0,491.0 521.2,491.0 538.5,491.7 555.8,491.8 573.0,494.0 590.2,494.0 607.5,494.4 624.8,494.4 642.0,494.4 659.2,494.4 676.5,507.6 693.8,507.6 711.0,507.9 728.2,507.9 745.5,507.9 762.8,505.9 780.0,503.9 780.0,650.0 762.8,650.0 745.5,650.0 728.2,650.0 711.0,650.0 693.8,650.0 676.5,650.0 659.2,650.0 642.0,650.0 624.8,650.0 607.5,650.0 590.2,650.0 573.0,650.0 555.8,650.0 538.5,650.0 521.2,650.0 504.0,650.0 486.8,650.0 469.5,650.0 452.2,650.0 435.0,650.0 417.8,650.0 400.5,650.0 383.2,650.0 366.0,650.0 348.8,650.0 331.5,650.0 314.2,650.0 297.0,650.0 279.8,650.0 262.5,650.0 245.2,650.0 228.0,650.0 210.8,650.0 193.5,650.0 176.2,650.0 159.0,650.0 141.8,650.0 124.5,650.0 107.2,650.0 90.0,650.0" fill="#e34c26" opacity="0.6" class="anim" style="animation-delay:500ms;"/>
<polygon points="90.0,650.0 107.2,650.0 124.5,650.0 141.8,650.0 159.0,650.0 176.2,650.0 193.5,650.0 210.8,650.0 228.0,488.4 245.2,488.0 262.5,489.0 279.8,476.0 297.0,476.0 314.2,477.2 331.5,460.1 348.8,460.2 366.0,460.6 383.2,460.6 400.5,460.6 417.8,460.6 435.0,460.6 452.2,473.0 469.5,473.5 486.8,469.5 504.0,469.5 521.2,469.5 538.5,469.7 555.8,469.7 573.0,469.7 590.2,469.7 607.5,469.7 624.8,469.7 642.0,469.7 659.2,469.7 676.5,455.6 693.8,455.6 711.0,455.4 728.2,455.4 745.5,455.4 762.8,447.2 780.0,439.1 780.0,503.9 762.8,505.9 745.5,507.9 728.2,507.9 711.0,507.9 693.8,507.6 676.5,507.6 659.2,494.4 642.0,494.4 624.8,494.4 607.5,494.4 590.2,494.0 573.0,494.0 555.8,491.8 538.5,491.7 521.2,491.0 504.0,491.0 486.8,491.0 469.5,496.7 452.2,496.4 435.0,485.4 417.8,485.4 400.5,485.4 383.2,485.4 366.0,485.4 348.8,485.1 331.5,485.0 314.2,502.9 297.0,499.3 279.8,499.3 262.5,529.7 245.2,528.5 228.0,528.2 210.8,650.0 193.5,650.0 176.2,650.0 159.0,650.0 141.8,650.0 124.5,650.0 107.2,650.0 90.0,650.0" fill="#f1e05a" opacity="0.6" class="anim" style="animation-delay:600ms;"/>
<polygon points="90.0,650.0 107.2,650.0 124.5,650.0 141.8,650.0 159.0,650.0 176.2,650.0 193.5,650.0 210.8,650.0 228.0,455.5 245.2,455.4 262.5,455.1 279.8,447.0 297.0,447.0 314.2,448.2 331.5,438.9 348.8,439.0 366.0,439.6 383.2,439.6 400.5,439.6 417.8,439.6 435.0,439.6 452.2,445.6 469.5,445.6 486.8,443.3 504.0,443.3 521.2,443.3 538.5,443.6 555.8,443.6 573.0,444.1 590.2,444.1 607.5,444.1 624.8,444.1 642.0,444.1 659.2,444.1 676.5,437.5 693.8,437.5 711.0,437.5 728.2,437.5 745.5,437.5 762.8,433.5 780.0,429.5 780.0,439.1 762.8,447.2 745.5,455.4 728.2,455.4 711.0,455.4 693.8,455.6 676.5,455.6 659.2,469.7 642.0,469.7 624.8,469.7 607.5,469.7 590.2,469.7 573.0,469.7 555.8,469.7 538.5,469.7 521.2,469.5 504.0,469.5 486.8,469.5 469.5,473.5 452.2,473.0 435.0,460.6 417.8,460.6 400.5,460.6 383.2,460.6 366.0,460.6 348.8,460.2 331.5,460.1 314.2,477.2 297.0,476.0 279.8,476.0 262.5,489.0 245.2,488.0 228.0,488.4 210.8,650.0 193.5,650.0 176.2,650.0 159.0,650.0 141.8,650.0 124.5,650.0 107.2,650.0 90.0,650.0" fill="#3572A5" opacity="0.6" class="anim" style="animation-delay:700ms;"/>
<polygon points="90.0,650.0 107.2,650.0 124.5,650.0 141.8,650.0 159.0,650.0 176.2,650.0 193.5,650.0 210.8,650.0 228.0,442.3 245.2,442.0 262.5,441.6 279.8,439.5 297.0,439.5 314.2,439.4 331.5,432.3 348.8,432.2 366.0,432.6 383.2,432.6 400.5,432.6 417.8,432.6 435.0,432.6 452.2,439.3 469.5,439.3 486.8,437.4 504.0,437.4 521.2,437.4 538.5,437.3 555.8,437.3 573.0,437.1 590.2,437.1 607.5,437.1 624.8,437.1 642.0,437.1 659.2,437.1 676.5,428.7 693.8,428.6 711.0,428.5 728.2,428.5 745.5,428.5 762.8,425.4 780.0,422.4 780.0,429.5 762.8,433.5 745.5,437.5 728.2,437.5 711.0,437.5 693.8,437.5 676.5,437.5 659.2,444.1 642.0,444.1 624.8,444.1 607.5,444.1 590.2,444.1 573.0,444.1 555.8,443.6 538.5,443.6 521.2,443.3 504.0,443.3 486.8,443.3 469.5,445.6 452.2,445.6 435.0,439.6 417.8,439.6 400.5,439.6 383.2,439.6 366.0,439.6 348.8,439.0 331.5,438.9 314.2,448.2 297.0,447.0 279.8,447.0 262.5,455.1 245.2,455.4 228.0,455.5 210.8,650.0 193.5,650.0 176.2,650.0 159.0,650.0 141.8,650.0 124.5,650.0 107.2,650.0 90.0,650.0" fill="#663399" opacity="0.6" class="anim" style="animation-delay:800ms;"/>
<polygon points="90.0,650.0 107.2,650.0 124.5,650.0 141.8,650.0 159.0,650.0 176.2,650.0 193.5,650.0 210.8,650.0 228.0,436.6 245.2,436.3 262.5,435.9 279.8,432.2 297.0,432.2 314.2,432.2 331.5,426.2 348.8,426.1 366.0,426.0 383.2,426.0 400.5,426.0 417.8,426.0 435.0,426.0 452.2,430.8 469.5,430.7 486.8,429.3 504.0,429.3 521.2,429.3 538.5,429.2 555.8,429.2 573.0,428.9 590.2,428.9 607.5,428.8 624.8,428.8 642.0,428.8 659.2,428.8 676.5,423.0 693.8,422.9 711.0,422.9 728.2,422.9 745.5,422.9 762.8,419.6 780.0,416.3 780.0,422.4 762.8,425.4 745.5,428.5 728.2,428.5 711.0,428.5 693.8,428.6 676.5,428.7 659.2,437.1 642.0,437.1 624.8,437.1 607.5,437.1 590.2,437.1 573.0,437.1 555.8,437.3 538.5,437.3 521.2,437.4 504.0,437.4 486.8,437.4 469.5,439.3 452.2,439.3 435.0,432.6 417.8,432.6 400.5,432.6 383.2,432.6 366.0,432.6 348.8,432.2 331.5,432.3 314.2,439.4 297.0,439.5 279.8,439.5 262.5,441.6 245.2,442.0 228.0,442.3 210.8,650.0 193.5,650.0 176.2,650.0 159.0,650.0 141.8,650.0 124.5,650.0 107.2,650.0 90.0,650.0" fill="#083fa1" opacity="0.6" class="anim" style="animation-delay:900ms;"/>
<polygon points="90.0,650.0 107.2,650.0 124.5,650.0 141.8,650.0 159.0,650.0 176.2,650.0 193.5,650.0 210.8,650.0 228.0,427.0 245.2,426.8 262.5,426.6 279.8,424.2 297.0,424.2 314.2,424.2 331.5,420.4 348.8,420.3 366.0,420.3 383.2,420.3 400.5,420.3 417.8,420.3 435.0,420.3 452.2,423.3 469.5,423.2 486.8,422.4 504.0,422.4 521.2,422.4 538.5,422.3 555.8,422.3 573.0,422.1 590.2,422.1 607.5,422.1 624.8,422.1 642.0,422.1 659.2,422.1 676.5,418.3 693.8,418.3 711.0,418.2 728.2,418.2 745.5,418.2 762.8,416.4 780.0,414.5 780.0,416.3 762.8,419.6 745.5,422.9 728.2,422.9 711.0,422.9 693.8,422.9 676.5,423.0 659.2,428.8 642.0,428.8 624.8,428.8 607.5,428.8 590.2,428.9 573.0,428.9 555.8,429.2 538.5,429.2 521.2,429.3 504.0,429.3 486.8,429.3 469.5,430.7 452.2,430.8 435.0,426.0 417.8,426.0 400.5,426.0 383.2,426.0 366.0,426.0 348.8,426.1 331.5,426.2 314.2,432.2 297.0,432.2 279.8,432.2 262.5,435.9 245.2,436.3 228.0,436.6 210.8,650.0 193.5,650.0 176.2,650.0 159.0,650.0 141.8,650.0 124.5,650.0 107.2,650.0 90.0,650.0" fill="#6E4C13" opacity="0.6" class="anim" style="animation-delay:1000ms;"/>
<polygon points="90.0,650.0 107.2,650.0 124.5,650.0 141.8,650.0 159.0,650.0 176.2,650.0 193.5,650.0 210.8,650.0 228.0,418.7 245.2,418.6 262.5,418.5 279.8,417.3 297.0,417.3 314.2,417.2 331.5,415.3 348.8,415.3 366.0,415.2 383.2,415.2 400.5,415.2 417.8,415.2 435.0,415.2 452.2,416.8 469.5,416.8 486.8,416.3 504.0,416.3 521.2,416.3 538.5,416.3 555.8,416.3 573.0,416.2 590.2,416.2 607.5,416.2 624.8,416.2 642.0,416.2 659.2,416.2 676.5,414.2 693.8,414.2 711.0,414.2 728.2,414.2 745.5,414.2 762.8,413.6 780.0,412.9 780.0,414.5 762.8,416.4 745.5,418.2 728.2,418.2 711.0,418.2 693.8,418.3 676.5,418.3 659.2,422.1 642.0,422.1 624.8,422.1 607.5,422.1 590.2,422.1 573.0,422.1 555.8,422.3 538.5,422.3 521.2,422.4 504.0,422.4 486.8,422.4 469.5,423.2 452.2,423.3 435.0,420.3 417.8,420.3 400.5,420.3 383.2,420.3 366.0,420.3 348.8,420.3 331.5,420.4 314.2,424.2 297.0,424.2 279.8,424.2 262.5,426.6 245.2,426.8 228.0,427.0 210.8,650.0 193.5,650.0 176.2,650.0 159.0,650.0 141.8,650.0 124.5,650.0 107.2,650.0 90.0,650.0" fill="#F05138" opacity="0.6" class="anim" style="animation-delay:1100ms;"/>
<polygon points="90.0,650.0 107.2,650.0 124.5,650.0 141.8,650.0 159.0,650.0 176.2,650.0 193.5,650.0 210.8,650.0 228.0,414.4 245.2,414.4 262.5,414.3 279.8,413.7 297.0,413.7 314.2,413.7 331.5,412.7 348.8,412.7 366.0,412.7 383.2,412.7 400.5,412.7 417.8,412.7 435.0,412.7 452.2,413.5 469.5,413.4 486.8,413.2 504.0,413.2 521.2,413.2 538.5,413.2 555.8,413.2 573.0,413.1 590.2,413.1 607.5,413.1 624.8,413.1 642.0,413.1 659.2,413.1 676.5,412.2 693.8,412.1 711.0,412.1 728.2,412.1 745.5,412.1 762.8,412.1 780.0,412.1 780.0,412.9 762.8,413.6 745.5,414.2 728.2,414.2 711.0,414.2 693.8,414.2 676.5,414.2 659.2,416.2 642.0,416.2 624.8,416.2 607.5,416.2 590.2,416.2 573.0,416.2 555.8,416.3 538.5,416.3 521.2,416.3 504.0,416.3 486.8,416.3 469.5,416.8 452.2,416.8 435.0,415.2 417.8,415.2 400.5,415.2 383.2,415.2 366.0,415.2 348.8,415.3 331.5,415.3 314.2,417.2 297.0,417.3 279.8,417.3 262.5,418.5 245.2,418.6 228.0,418.7 210.8,650.0 193.5,650.0 176.2,650.0 159.0,650.0 141.8,650.0 124.5,650.0 107.2,650.0 90.0,650.0" fill="#b07219" opacity="0.6" class="anim" style="animation-delay:1200ms;"/>
<line x1="745.5" y1="100" x2="745.5" y2="650" stroke="#c9d1d9" stroke-width="1" stroke-dasharray="4,3" opacity="0.35"/>
<text x="762.8" y="112" text-anchor="middle" class="axis-label" opacity="0.6">Mar 30, 2026</text>
<text x="90.0" y="668" text-anchor="middle" class="axis-label" transform="rotate(-35 90.0 668)">2026-02</text>
<text x="521.2" y="668" text-anchor="middle" class="axis-label" transform="rotate(-35 521.2 668)">2026-03</text>
<text x="762.8" y="668" text-anchor="middle" class="axis-label" transform="rotate(-35 762.8 668)">Mar 30, 2026</text>
<line x1="796" y1="110" x2="824" y2="110" stroke="#3fb950" stroke-width="2"/>
<text x="832" y="116" class="legend-text">Lines Added</text>
<line x1="796" y1="140" x2="824" y2="140" stroke="#f85149" stroke-width="1.5"/>
<text x="832" y="146" class="legend-text">Lines Deleted</text>
<line x1="796" y1="170" x2="824" y2="170" stroke="#e3b341" stroke-width="1.5" stroke-dasharray="4,3"/>
<text x="832" y="176" class="legend-text">&#x2605; Stars</text>
<text x="796" y="200" class="subtitle">Languages</text>
<rect x="796" y="212" width="12" height="12" rx="2" fill="#e34c26" opacity="0.8" class="anim" style="animation-delay:800ms;"/>
<text x="814" y="223" class="legend-text">HTML (59%→61%)</text>
<rect x="796" y="234" width="12" height="12" rx="2" fill="#f1e05a" opacity="0.8" class="anim" style="animation-delay:880ms;"/>
<text x="814" y="245" class="legend-text">JavaScript (22%→27%)</text>
<rect x="796" y="256" width="12" height="12" rx="2" fill="#3572A5" opacity="0.8" class="anim" style="animation-delay:960ms;"/>
<text x="814" y="267" class="legend-text">Python (7%→4%)</text>
<rect x="796" y="278" width="12" height="12" rx="2" fill="#663399" opacity="0.8" class="anim" style="animation-delay:1040ms;"/>
<text x="814" y="289" class="legend-text">CSS (4%→3%)</text>
<rect x="796" y="300" width="12" height="12" rx="2" fill="#083fa1" opacity="0.8" class="anim" style="animation-delay:1120ms;"/>
<text x="814" y="311" class="legend-text">Markdown (2%→3%)</text>
<rect x="796" y="322" width="12" height="12" rx="2" fill="#6E4C13" opacity="0.8" class="anim" style="animation-delay:1200ms;"/>
<text x="814" y="333" class="legend-text">Assembly (2%→1%)</text>
<rect x="796" y="344" width="12" height="12" rx="2" fill="#F05138" opacity="0.8" class="anim" style="animation-delay:1280ms;"/>
<text x="814" y="355" class="legend-text">Swift (2%→1%)</text>
<rect x="796" y="366" width="12" height="12" rx="2" fill="#b07219" opacity="0.8" class="anim" style="animation-delay:1360ms;"/>
<text x="814" y="377" class="legend-text">Java (1%→0%)</text>
<text x="796" y="412" class="subtitle">Contributions</text>
<text x="796" y="432" class="axis-label">2023: 39</text>
<text x="796" y="452" class="axis-label">2024: 646</text>
<text x="796" y="472" class="axis-label">2025: 1,780</text>
<text x="796" y="492" class="axis-label">2026: 378</text>
<text x="796" y="522" class="subtitle">Statistics</text>
<text x="796" y="542" class="axis-label">Active weeks: 78</text>
<text x="796" y="562" class="axis-label">Add/Del ratio: 1.6x</text>
<text x="796" y="582" class="axis-label">Avg lines/wk: 19K</text>
<text x="796" y="602" class="axis-label">Peak: 2026-02-15</text>
<text x="796" y="622" class="axis-label">  (543K lines)</text>
<text x="90" y="742" class="axis-label">Total: +912,015 / -569,548 lines &#xb7; 2,843 contributions &#xb7; 75 repos &#xb7; &#x2605; 34</text>
</svg>