<svg xmlns="http://www.w3.org/2000/svg" width="1000" height="760" style="max-width: 100%;" viewBox="0 0 1000 760">

<defs>
  <linearGradient id="areaGrad" x1="0" y1="0" x2="0" y2="1">
    <stop offset="0%" stop-color="#58a6ff" stop-opacity="0.35"/>
    <stop offset="100%" stop-color="#58a6ff" stop-opacity="0.02"/>
  </linearGradient>
  <linearGradient id="addGrad" x1="0" y1="0" x2="0" y2="1">
    <stop offset="0%" stop-color="#3fb950" stop-opacity="0.35"/>
    <stop offset="100%" stop-color="#3fb950" stop-opacity="0.02"/>
  </linearGradient>
  <linearGradient id="delGrad" x1="0" y1="0" x2="0" y2="1">
    <stop offset="0%" stop-color="#f85149" stop-opacity="0.25"/>
    <stop offset="100%" stop-color="#f85149" stop-opacity="0.02"/>
  </linearGradient>
</defs>
<style>
  .title { font: bold 28px 'Segoe UI', Ubuntu, Sans-Serif; fill: #c9d1d9; }
  .subtitle { font: 600 20px 'Segoe UI', Ubuntu, Sans-Serif; fill: #c9d1d9; opacity: 0.8; }
  .axis-label { font: 18px 'Segoe UI', Ubuntu, Sans-Serif; fill: #c9d1d9; opacity: 0.7; }
  .legend-text { font: 14px 'Segoe UI', Ubuntu, Sans-Serif; fill: #c9d1d9; }
  .value-text { font: bold 18px 'Segoe UI', Ubuntu, Sans-Serif; fill: #c9d1d9; }
  .stat-value { font: bold 22px 'Segoe UI', Ubuntu, Sans-Serif; fill: #c9d1d9; }
  .stat-label { font: 18px 'Segoe UI', Ubuntu, Sans-Serif; fill: #c9d1d9; opacity: 0.7; }
  @keyframes fadeIn { from { opacity: 0; } to { opacity: 1; } }
  .anim { animation: fadeIn 0.6s ease-in-out forwards; opacity: 0; }
</style>

<rect x="0.5" y="0.5" rx="4.5" width="999" height="759" fill="#161b22" stroke="#21262d"/>
<text x="90" y="45" class="title">Activity History</text>
<text x="90" y="72" class="subtitle">Lines added vs deleted &amp; activity trends over time</text>
<line x1="90" y1="340.0" x2="780" y2="340.0" stroke="#21262d" stroke-width="1"/>
<text x="82" y="344.0" text-anchor="end" class="axis-label">0</text>
<line x1="90" y1="280.0" x2="780" y2="280.0" stroke="#21262d" stroke-width="1"/>
<text x="82" y="284.0" text-anchor="end" class="axis-label">508K</text>
<line x1="90" y1="220.0" x2="780" y2="220.0" stroke="#21262d" stroke-width="1"/>
<text x="82" y="224.0" text-anchor="end" class="axis-label">1.0M</text>
<line x1="90" y1="160.0" x2="780" y2="160.0" stroke="#21262d" stroke-width="1"/>
<text x="82" y="164.0" text-anchor="end" class="axis-label">1.5M</text>
<line x1="90" y1="100.0" x2="780" y2="100.0" stroke="#21262d" stroke-width="1"/>
<text x="82" y="104.0" text-anchor="end" class="axis-label">2.0M</text>
<polygon points="90.0,340.0 90.0,296.9 102.1,298.4 114.2,296.9 126.3,298.4 138.4,308.4 150.5,288.6 162.6,288.6 174.7,281.2 186.8,280.9 198.9,280.4 211.1,280.4 223.2,267.1 235.3,267.1 247.4,267.0 259.5,247.4 271.6,247.1 283.7,246.9 295.8,246.9 307.9,246.9 320.0,246.9 332.1,246.9 344.2,246.4 356.3,233.3 368.4,233.2 380.5,233.2 392.6,233.2 404.7,232.9 416.8,232.9 428.9,232.3 441.1,232.3 453.2,232.3 465.3,232.3 477.4,232.3 489.5,232.3 501.6,232.3 513.7,232.3 525.8,232.3 537.9,232.3 550.0,232.3 562.1,232.3 574.2,232.3 586.3,231.7 598.4,231.9 610.5,231.3 622.6,231.1 634.7,231.1 646.8,231.1 658.9,231.1 671.1,231.1 683.2,231.1 695.3,231.0 707.4,231.0 719.5,231.0 731.6,231.0 743.7,231.3 755.8,232.6 767.9,215.8 780.0,199.0 780.0,340.0" fill="url(#addGrad)" class="anim" style="animation-delay:200ms;"/>
<polyline points="90.0,296.9 102.1,298.4 114.2,296.9 126.3,298.4 138.4,308.4 150.5,288.6 162.6,288.6 174.7,281.2 186.8,280.9 198.9,280.4 211.1,280.4 223.2,267.1 235.3,267.1 247.4,267.0 259.5,247.4 271.6,247.1 283.7,246.9 295.8,246.9 307.9,246.9 320.0,246.9 332.1,246.9 344.2,246.4 356.3,233.3 368.4,233.2 380.5,233.2 392.6,233.2 404.7,232.9 416.8,232.9 428.9,232.3 441.1,232.3 453.2,232.3 465.3,232.3 477.4,232.3 489.5,232.3 501.6,232.3 513.7,232.3 525.8,232.3 537.9,232.3 550.0,232.3 562.1,232.3 574.2,232.3 586.3,231.7 598.4,231.9 610.5,231.3 622.6,231.1 634.7,231.1 646.8,231.1 658.9,231.1 671.1,231.1 683.2,231.1 695.3,231.0 707.4,231.0 719.5,231.0 731.6,231.0 743.7,231.3 755.8,232.6" fill="none" stroke="#3fb950" stroke-width="2" stroke-linejoin="round" class="anim" style="animation-delay:250ms;"/>
<polyline points="755.8,232.6 767.9,215.8 780.0,199.0" fill="none" stroke="#3fb950" stroke-width="1.5" stroke-dasharray="5,4" stroke-linejoin="round" opacity="0.6" class="anim" style="animation-delay:250ms;"/>
<polygon points="90.0,340.0 90.0,327.9 102.1,329.1 114.2,327.9 126.3,329.1 138.4,334.3 150.5,326.4 162.6,326.4 174.7,325.5 186.8,325.2 198.9,325.0 211.1,325.0 223.2,310.7 235.3,310.7 247.4,310.6 259.5,294.4 271.6,294.3 283.7,294.3 295.8,294.3 307.9,294.3 320.0,294.3 332.1,294.3 344.2,285.9 356.3,272.9 368.4,272.9 380.5,272.9 392.6,272.9 404.7,272.8 416.8,272.8 428.9,272.8 441.1,272.7 453.2,272.7 465.3,272.7 477.4,272.7 489.5,272.7 501.6,272.8 513.7,272.7 525.8,272.7 537.9,272.7 550.0,272.7 562.1,272.7 574.2,272.7 586.3,272.7 598.4,272.8 610.5,272.3 622.6,272.3 634.7,272.3 646.8,272.3 658.9,272.3 671.1,272.3 683.2,272.3 695.3,272.3 707.4,272.3 719.5,272.3 731.6,272.4 743.7,272.4 755.8,273.2 767.9,257.1 780.0,241.0 780.0,340.0" fill="url(#delGrad)" class="anim" style="animation-delay:300ms;"/>
<polyline points="90.0,327.9 102.1,329.1 114.2,327.9 126.3,329.1 138.4,334.3 150.5,326.4 162.6,326.4 174.7,325.5 186.8,325.2 198.9,325.0 211.1,325.0 223.2,310.7 235.3,310.7 247.4,310.6 259.5,294.4 271.6,294.3 283.7,294.3 295.8,294.3 307.9,294.3 320.0,294.3 332.1,294.3 344.2,285.9 356.3,272.9 368.4,272.9 380.5,272.9 392.6,272.9 404.7,272.8 416.8,272.8 428.9,272.8 441.1,272.7 453.2,272.7 465.3,272.7 477.4,272.7 489.5,272.7 501.6,272.8 513.7,272.7 525.8,272.7 537.9,272.7 550.0,272.7 562.1,272.7 574.2,272.7 586.3,272.7 598.4,272.8 610.5,272.3 622.6,272.3 634.7,272.3 646.8,272.3 658.9,272.3 671.1,272.3 683.2,272.3 695.3,272.3 707.4,272.3 719.5,272.3 731.6,272.4 743.7,272.4 755.8,273.2" fill="none" stroke="#f85149" stroke-width="1.5" stroke-linejoin="round" class="anim" style="animation-delay:350ms;"/>
<polyline points="755.8,273.2 767.9,257.1 780.0,241.0" fill="none" stroke="#f85149" stroke-width="1" stroke-dasharray="5,4" stroke-linejoin="round" opacity="0.6" class="anim" style="animation-delay:350ms;"/>
<polyline points="90.0,340.0 102.1,340.0 114.2,340.0 126.3,340.0 138.4,340.0 150.5,340.0 162.6,340.0 174.7,340.0 186.8,292.0 198.9,292.0 211.1,292.0 223.2,292.0 235.3,292.0 247.4,292.0 259.5,292.0 271.6,292.0 283.7,292.0 295.8,292.0 307.9,292.0 320.0,292.0 332.1,292.0 344.2,292.0 356.3,292.0 368.4,292.0 380.5,292.0 392.6,292.0 404.7,292.0 416.8,292.0 428.9,292.0 441.1,292.0 453.2,292.0 465.3,292.0 477.4,292.0 489.5,292.0 501.6,244.0 513.7,244.0 525.8,244.0 537.9,244.0 550.0,244.0 562.1,244.0 574.2,244.0 586.3,244.0 598.4,196.0 610.5,196.0 622.6,196.0 634.7,196.0 646.8,196.0 658.9,196.0 671.1,196.0 683.2,196.0 695.3,196.0 707.4,196.0 719.5,196.0 731.6,196.0 743.7,196.0 755.8,196.0" fill="none" stroke="#e3b341" stroke-width="1.5" stroke-dasharray="4,3" stroke-linejoin="round" class="anim" style="animation-delay:400ms;"/>
<polyline points="755.8,196.0 767.9,196.0 780.0,148.0" fill="none" stroke="#e3b341" stroke-width="1" stroke-dasharray="3,5" stroke-linejoin="round" opacity="0.5" class="anim" style="animation-delay:400ms;"/>
<text x="90" y="90" class="subtitle">Lines Added vs Deleted (per snapshot)</text>
<text x="90" y="400" class="subtitle">Programming Language Development (%)</text>
<line x1="90" y1="650.0" x2="780" y2="650.0" stroke="#21262d" stroke-width="1"/>
<text x="82" y="654.0" text-anchor="end" class="axis-label">0%</text>
<line x1="90" y1="590.0" x2="780" y2="590.0" stroke="#21262d" stroke-width="1"/>
<text x="82" y="594.0" text-anchor="end" class="axis-label">25%</text>
<line x1="90" y1="530.0" x2="780" y2="530.0" stroke="#21262d" stroke-width="1"/>
<text x="82" y="534.0" text-anchor="end" class="axis-label">50%</text>
<line x1="90" y1="470.0" x2="780" y2="470.0" stroke="#21262d" stroke-width="1"/>
<text x="82" y="474.0" text-anchor="end" class="axis-label">75%</text>
<line x1="90" y1="410.0" x2="780" y2="410.0" stroke="#21262d" stroke-width="1"/>
<text x="82" y="414.0" text-anchor="end" class="axis-label">100%</text>
<polygon points="90.0,650.0 102.1,650.0 114.2,650.0 126.3,650.0 138.4,650.0 150.5,650.0 162.6,650.0 174.7,650.0 186.8,528.2 198.9,528.5 211.1,529.7 223.2,499.3 235.3,499.3 247.4,502.9 259.5,485.0 271.6,485.1 283.7,485.4 295.8,485.4 307.9,485.4 320.0,485.4 332.1,485.4 344.2,496.4 356.3,496.7 368.4,491.0 380.5,491.0 392.6,491.0 404.7,491.7 416.8,491.8 428.9,494.0 441.1,494.0 453.2,494.4 465.3,494.4 477.4,494.4 489.5,494.4 501.6,507.6 513.7,507.6 525.8,507.9 537.9,507.9 550.0,507.9 562.1,506.3 574.2,506.4 586.3,506.8 598.4,506.9 610.5,506.8 622.6,507.5 634.7,507.5 646.8,507.5 658.9,507.5 671.1,507.5 683.2,507.5 695.3,507.5 707.4,507.5 719.5,507.5 731.6,507.5 743.7,507.5 755.8,507.5 767.9,510.9 780.0,514.2 780.0,650.0 767.9,650.0 755.8,650.0 743.7,650.0 731.6,650.0 719.5,650.0 707.4,650.0 695.3,650.0 683.2,650.0 671.1,650.0 658.9,650.0 646.8,650.0 634.7,650.0 622.6,650.0 610.5,650.0 598.4,650.0 586.3,650.0 574.2,650.0 562.1,650.0 550.0,650.0 537.9,650.0 525.8,650.0 513.7,650.0 501.6,650.0 489.5,650.0 477.4,650.0 465.3,650.0 453.2,650.0 441.1,650.0 428.9,650.0 416.8,650.0 404.7,650.0 392.6,650.0 380.5,650.0 368.4,650.0 356.3,650.0 344.2,650.0 332.1,650.0 320.0,650.0 307.9,650.0 295.8,650.0 283.7,650.0 271.6,650.0 259.5,650.0 247.4,650.0 235.3,650.0 223.2,650.0 211.1,650.0 198.9,650.0 186.8,650.0 174.7,650.0 162.6,650.0 150.5,650.0 138.4,650.0 126.3,650.0 114.2,650.0 102.1,650.0 90.0,650.0" fill="#e34c26" opacity="0.6" class="anim" style="animation-delay:500ms;"/>
<polygon points="90.0,650.0 102.1,650.0 114.2,650.0 126.3,650.0 138.4,650.0 150.5,650.0 162.6,650.0 174.7,650.0 186.8,488.4 198.9,488.0 211.1,489.0 223.2,476.0 235.3,476.0 247.4,477.2 259.5,460.1 271.6,460.2 283.7,460.6 295.8,460.6 307.9,460.6 320.0,460.6 332.1,460.6 344.2,473.0 356.3,473.5 368.4,469.5 380.5,469.5 392.6,469.5 404.7,469.7 416.8,469.7 428.9,469.7 441.1,469.7 453.2,469.7 465.3,469.7 477.4,469.7 489.5,469.7 501.6,455.6 513.7,455.6 525.8,455.4 537.9,455.4 550.0,455.4 562.1,454.3 574.2,454.3 586.3,455.0 598.4,455.1 610.5,454.9 622.6,455.9 634.7,455.9 646.8,455.9 658.9,455.9 671.1,455.9 683.2,455.9 695.3,455.9 707.4,455.9 719.5,455.9 731.6,455.9 743.7,455.9 755.8,455.9 767.9,449.2 780.0,442.6 780.0,514.2 767.9,510.9 755.8,507.5 743.7,507.5 731.6,507.5 719.5,507.5 707.4,507.5 695.3,507.5 683.2,507.5 671.1,507.5 658.9,507.5 646.8,507.5 634.7,507.5 622.6,507.5 610.5,506.8 598.4,506.9 586.3,506.8 574.2,506.4 562.1,506.3 550.0,507.9 537.9,507.9 525.8,507.9 513.7,507.6 501.6,507.6 489.5,494.4 477.4,494.4 465.3,494.4 453.2,494.4 441.1,494.0 428.9,494.0 416.8,491.8 404.7,491.7 392.6,491.0 380.5,491.0 368.4,491.0 356.3,496.7 344.2,496.4 332.1,485.4 320.0,485.4 307.9,485.4 295.8,485.4 283.7,485.4 271.6,485.1 259.5,485.0 247.4,502.9 235.3,499.3 223.2,499.3 211.1,529.7 198.9,528.5 186.8,528.2 174.7,650.0 162.6,650.0 150.5,650.0 138.4,650.0 126.3,650.0 114.2,650.0 102.1,650.0 90.0,650.0" fill="#f1e05a" opacity="0.6" class="anim" style="animation-delay:600ms;"/>
<polygon points="90.0,650.0 102.1,650.0 114.2,650.0 126.3,650.0 138.4,650.0 150.5,650.0 162.6,650.0 174.7,650.0 186.8,455.5 198.9,455.4 211.1,455.1 223.2,447.0 235.3,447.0 247.4,448.2 259.5,438.9 271.6,439.0 283.7,439.6 295.8,439.6 307.9,439.6 320.0,439.6 332.1,439.6 344.2,445.6 356.3,445.6 368.4,443.3 380.5,443.3 392.6,443.3 404.7,443.6 416.8,443.6 428.9,444.1 441.1,444.1 453.2,444.1 465.3,444.1 477.4,444.1 489.5,444.1 501.6,437.5 513.7,437.5 525.8,437.5 537.9,437.5 550.0,437.5 562.1,437.5 574.2,437.5 586.3,438.4 598.4,438.5 610.5,438.3 622.6,439.3 634.7,439.3 646.8,439.3 658.9,439.3 671.1,439.3 683.2,439.3 695.3,439.3 707.4,439.3 719.5,439.3 731.6,439.3 743.7,439.3 755.8,439.3 767.9,437.0 780.0,434.6 780.0,442.6 767.9,449.2 755.8,455.9 743.7,455.9 731.6,455.9 719.5,455.9 707.4,455.9 695.3,455.9 683.2,455.9 671.1,455.9 658.9,455.9 646.8,455.9 634.7,455.9 622.6,455.9 610.5,454.9 598.4,455.1 586.3,455.0 574.2,454.3 562.1,454.3 550.0,455.4 537.9,455.4 525.8,455.4 513.7,455.6 501.6,455.6 489.5,469.7 477.4,469.7 465.3,469.7 453.2,469.7 441.1,469.7 428.9,469.7 416.8,469.7 404.7,469.7 392.6,469.5 380.5,469.5 368.4,469.5 356.3,473.5 344.2,473.0 332.1,460.6 320.0,460.6 307.9,460.6 295.8,460.6 283.7,460.6 271.6,460.2 259.5,460.1 247.4,477.2 235.3,476.0 223.2,476.0 211.1,489.0 198.9,488.0 186.8,488.4 174.7,650.0 162.6,650.0 150.5,650.0 138.4,650.0 126.3,650.0 114.2,650.0 102.1,650.0 90.0,650.0" fill="#3572A5" opacity="0.6" class="anim" style="animation-delay:700ms;"/>
<polygon points="90.0,650.0 102.1,650.0 114.2,650.0 126.3,650.0 138.4,650.0 150.5,650.0 162.6,650.0 174.7,650.0 186.8,442.3 198.9,442.0 211.1,441.6 223.2,439.5 235.3,439.5 247.4,439.4 259.5,432.3 271.6,432.2 283.7,432.6 295.8,432.6 307.9,432.6 320.0,432.6 332.1,432.6 344.2,439.3 356.3,439.3 368.4,437.4 380.5,437.4 392.6,437.4 404.7,437.3 416.8,437.3 428.9,437.1 441.1,437.1 453.2,437.1 465.3,437.1 477.4,437.1 489.5,437.1 501.6,428.7 513.7,428.6 525.8,428.5 537.9,428.5 550.0,428.5 562.1,427.3 574.2,427.3 586.3,427.1 598.4,427.1 610.5,427.1 622.6,427.0 634.7,427.0 646.8,427.0 658.9,427.0 671.1,427.0 683.2,427.0 695.3,427.0 707.4,427.0 719.5,427.0 731.6,427.0 743.7,427.0 755.8,427.0 767.9,423.3 780.0,419.6 780.0,434.6 767.9,437.0 755.8,439.3 743.7,439.3 731.6,439.3 719.5,439.3 707.4,439.3 695.3,439.3 683.2,439.3 671.1,439.3 658.9,439.3 646.8,439.3 634.7,439.3 622.6,439.3 610.5,438.3 598.4,438.5 586.3,438.4 574.2,437.5 562.1,437.5 550.0,437.5 537.9,437.5 525.8,437.5 513.7,437.5 501.6,437.5 489.5,444.1 477.4,444.1 465.3,444.1 453.2,444.1 441.1,444.1 428.9,444.1 416.8,443.6 404.7,443.6 392.6,443.3 380.5,443.3 368.4,443.3 356.3,445.6 344.2,445.6 332.1,439.6 320.0,439.6 307.9,439.6 295.8,439.6 283.7,439.6 271.6,439.0 259.5,438.9 247.4,448.2 235.3,447.0 223.2,447.0 211.1,455.1 198.9,455.4 186.8,455.5 174.7,650.0 162.6,650.0 150.5,650.0 138.4,650.0 126.3,650.0 114.2,650.0 102.1,650.0 90.0,650.0" fill="#663399" opacity="0.6" class="anim" style="animation-delay:800ms;"/>
<polygon points="90.0,650.0 102.1,650.0 114.2,650.0 126.3,650.0 138.4,650.0 150.5,650.0 162.6,650.0 174.7,650.0 186.8,436.6 198.9,436.3 211.1,435.9 223.2,432.2 235.3,432.2 247.4,432.2 259.5,426.2 271.6,426.1 283.7,426.0 295.8,426.0 307.9,426.0 320.0,426.0 332.1,426.0 344.2,430.8 356.3,430.7 368.4,429.3 380.5,429.3 392.6,429.3 404.7,429.2 416.8,429.2 428.9,428.9 441.1,428.9 453.2,428.8 465.3,428.8 477.4,428.8 489.5,428.8 501.6,423.0 513.7,422.9 525.8,422.9 537.9,422.9 550.0,422.9 562.1,422.0 574.2,422.0 586.3,421.9 598.4,421.9 610.5,421.9 622.6,421.8 634.7,421.8 646.8,421.8 658.9,421.8 671.1,421.8 683.2,421.8 695.3,421.8 707.4,421.8 719.5,421.8 731.6,421.8 743.7,421.8 755.8,421.8 767.9,418.8 780.0,415.7 780.0,419.6 767.9,423.3 755.8,427.0 743.7,427.0 731.6,427.0 719.5,427.0 707.4,427.0 695.3,427.0 683.2,427.0 671.1,427.0 658.9,427.0 646.8,427.0 634.7,427.0 622.6,427.0 610.5,427.1 598.4,427.1 586.3,427.1 574.2,427.3 562.1,427.3 550.0,428.5 537.9,428.5 525.8,428.5 513.7,428.6 501.6,428.7 489.5,437.1 477.4,437.1 465.3,437.1 453.2,437.1 441.1,437.1 428.9,437.1 416.8,437.3 404.7,437.3 392.6,437.4 380.5,437.4 368.4,437.4 356.3,439.3 344.2,439.3 332.1,432.6 320.0,432.6 307.9,432.6 295.8,432.6 283.7,432.6 271.6,432.2 259.5,432.3 247.4,439.4 235.3,439.5 223.2,439.5 211.1,441.6 198.9,442.0 186.8,442.3 174.7,650.0 162.6,650.0 150.5,650.0 138.4,650.0 126.3,650.0 114.2,650.0 102.1,650.0 90.0,650.0" fill="#083fa1" opacity="0.6" class="anim" style="animation-delay:900ms;"/>
<polygon points="90.0,650.0 102.1,650.0 114.2,650.0 126.3,650.0 138.4,650.0 150.5,650.0 162.6,650.0 174.7,650.0 186.8,427.0 198.9,426.8 211.1,426.6 223.2,424.2 235.3,424.2 247.4,424.2 259.5,420.4 271.6,420.3 283.7,420.3 295.8,420.3 307.9,420.3 320.0,420.3 332.1,420.3 344.2,423.3 356.3,423.2 368.4,422.4 380.5,422.4 392.6,422.4 404.7,422.3 416.8,422.3 428.9,422.1 441.1,422.1 453.2,422.1 465.3,422.1 477.4,422.1 489.5,422.1 501.6,418.3 513.7,418.3 525.8,418.2 537.9,418.2 550.0,418.2 562.1,417.7 574.2,417.7 586.3,417.6 598.4,417.6 610.5,417.6 622.6,417.6 634.7,417.6 646.8,417.6 658.9,417.6 671.1,417.6 683.2,417.6 695.3,417.6 707.4,417.6 719.5,417.6 731.6,417.6 743.7,417.6 755.8,417.6 767.9,415.8 780.0,414.1 780.0,415.7 767.9,418.8 755.8,421.8 743.7,421.8 731.6,421.8 719.5,421.8 707.4,421.8 695.3,421.8 683.2,421.8 671.1,421.8 658.9,421.8 646.8,421.8 634.7,421.8 622.6,421.8 610.5,421.9 598.4,421.9 586.3,421.9 574.2,422.0 562.1,422.0 550.0,422.9 537.9,422.9 525.8,422.9 513.7,422.9 501.6,423.0 489.5,428.8 477.4,428.8 465.3,428.8 453.2,428.8 441.1,428.9 428.9,428.9 416.8,429.2 404.7,429.2 392.6,429.3 380.5,429.3 368.4,429.3 356.3,430.7 344.2,430.8 332.1,426.0 320.0,426.0 307.9,426.0 295.8,426.0 283.7,426.0 271.6,426.1 259.5,426.2 247.4,432.2 235.3,432.2 223.2,432.2 211.1,435.9 198.9,436.3 186.8,436.6 174.7,650.0 162.6,650.0 150.5,650.0 138.4,650.0 126.3,650.0 114.2,650.0 102.1,650.0 90.0,650.0" fill="#6E4C13" opacity="0.6" class="anim" style="animation-delay:1000ms;"/>
<polygon points="90.0,650.0 102.1,650.0 114.2,650.0 126.3,650.0 138.4,650.0 150.5,650.0 162.6,650.0 174.7,650.0 186.8,418.7 198.9,418.6 211.1,418.5 223.2,417.3 235.3,417.3 247.4,417.2 259.5,415.3 271.6,415.3 283.7,415.2 295.8,415.2 307.9,415.2 320.0,415.2 332.1,415.2 344.2,416.8 356.3,416.8 368.4,416.3 380.5,416.3 392.6,416.3 404.7,416.3 416.8,416.3 428.9,416.2 441.1,416.2 453.2,416.2 465.3,416.2 477.4,416.2 489.5,416.2 501.6,414.2 513.7,414.2 525.8,414.2 537.9,414.2 550.0,414.2 562.1,413.9 574.2,413.9 586.3,413.9 598.4,413.9 610.5,413.9 622.6,413.9 634.7,413.9 646.8,413.9 658.9,413.9 671.1,413.9 683.2,413.9 695.3,413.9 707.4,413.9 719.5,413.9 731.6,413.9 743.7,413.9 755.8,413.9 767.9,413.3 780.0,412.7 780.0,414.1 767.9,415.8 755.8,417.6 743.7,417.6 731.6,417.6 719.5,417.6 707.4,417.6 695.3,417.6 683.2,417.6 671.1,417.6 658.9,417.6 646.8,417.6 634.7,417.6 622.6,417.6 610.5,417.6 598.4,417.6 586.3,417.6 574.2,417.7 562.1,417.7 550.0,418.2 537.9,418.2 525.8,418.2 513.7,418.3 501.6,418.3 489.5,422.1 477.4,422.1 465.3,422.1 453.2,422.1 441.1,422.1 428.9,422.1 416.8,422.3 404.7,422.3 392.6,422.4 380.5,422.4 368.4,422.4 356.3,423.2 344.2,423.3 332.1,420.3 320.0,420.3 307.9,420.3 295.8,420.3 283.7,420.3 271.6,420.3 259.5,420.4 247.4,424.2 235.3,424.2 223.2,424.2 211.1,426.6 198.9,426.8 186.8,427.0 174.7,650.0 162.6,650.0 150.5,650.0 138.4,650.0 126.3,650.0 114.2,650.0 102.1,650.0 90.0,650.0" fill="#F05138" opacity="0.6" class="anim" style="animation-delay:1100ms;"/>
<polygon points="90.0,650.0 102.1,650.0 114.2,650.0 126.3,650.0 138.4,650.0 150.5,650.0 162.6,650.0 174.7,650.0 186.8,414.4 198.9,414.4 211.1,414.3 223.2,413.7 235.3,413.7 247.4,413.7 259.5,412.7 271.6,412.7 283.7,412.7 295.8,412.7 307.9,412.7 320.0,412.7 332.1,412.7 344.2,413.5 356.3,413.4 368.4,413.2 380.5,413.2 392.6,413.2 404.7,413.2 416.8,413.2 428.9,413.1 441.1,413.1 453.2,413.1 465.3,413.1 477.4,413.1 489.5,413.1 501.6,412.2 513.7,412.1 525.8,412.1 537.9,412.1 550.0,412.1 562.1,412.0 574.2,412.0 586.3,412.0 598.4,412.0 610.5,412.0 622.6,412.0 634.7,412.0 646.8,412.0 658.9,412.0 671.1,412.0 683.2,412.0 695.3,412.0 707.4,412.0 719.5,412.0 731.6,412.0 743.7,412.0 755.8,412.0 767.9,412.0 780.0,412.0 780.0,412.7 767.9,413.3 755.8,413.9 743.7,413.9 731.6,413.9 719.5,413.9 707.4,413.9 695.3,413.9 683.2,413.9 671.1,413.9 658.9,413.9 646.8,413.9 634.7,413.9 622.6,413.9 610.5,413.9 598.4,413.9 586.3,413.9 574.2,413.9 562.1,413.9 550.0,414.2 537.9,414.2 525.8,414.2 513.7,414.2 501.6,414.2 489.5,416.2 477.4,416.2 465.3,416.2 453.2,416.2 441.1,416.2 428.9,416.2 416.8,416.3 404.7,416.3 392.6,416.3 380.5,416.3 368.4,416.3 356.3,416.8 344.2,416.8 332.1,415.2 320.0,415.2 307.9,415.2 295.8,415.2 283.7,415.2 271.6,415.3 259.5,415.3 247.4,417.2 235.3,417.3 223.2,417.3 211.1,418.5 198.9,418.6 186.8,418.7 174.7,650.0 162.6,650.0 150.5,650.0 138.4,650.0 126.3,650.0 114.2,650.0 102.1,650.0 90.0,650.0" fill="#b07219" opacity="0.6" class="anim" style="animation-delay:1200ms;"/>
<line x1="755.8" y1="100" x2="755.8" y2="650" stroke="#c9d1d9" stroke-width="1" stroke-dasharray="4,3" opacity="0.35"/>
<text x="767.9" y="112" text-anchor="middle" class="axis-label" opacity="0.6">Apr 17, 2026</text>
<text x="90.0" y="668" text-anchor="middle" class="axis-label" transform="rotate(-35 90.0 668)">2026-02</text>
<text x="380.5" y="668" text-anchor="middle" class="axis-label" transform="rotate(-35 380.5 668)">2026-03</text>
<text x="743.7" y="668" text-anchor="middle" class="axis-label" transform="rotate(-35 743.7 668)">2026-04</text>
<line x1="796" y1="110" x2="824" y2="110" stroke="#3fb950" stroke-width="2"/>
<text x="832" y="116" class="legend-text">Lines Added</text>
<line x1="796" y1="140" x2="824" y2="140" stroke="#f85149" stroke-width="1.5"/>
<text x="832" y="146" class="legend-text">Lines Deleted</text>
<line x1="796" y1="170" x2="824" y2="170" stroke="#e3b341" stroke-width="1.5" stroke-dasharray="4,3"/>
<text x="832" y="176" class="legend-text">&#x2605; Stars</text>
<text x="796" y="200" class="subtitle">Languages</text>
<rect x="796" y="212" width="12" height="12" rx="2" fill="#e34c26" opacity="0.8" class="anim" style="animation-delay:800ms;"/>
<text x="814" y="223" class="legend-text">HTML (59%→57%)</text>
<rect x="796" y="234" width="12" height="12" rx="2" fill="#f1e05a" opacity="0.8" class="anim" style="animation-delay:880ms;"/>
<text x="814" y="245" class="legend-text">JavaScript (22%→30%)</text>
<rect x="796" y="256" width="12" height="12" rx="2" fill="#3572A5" opacity="0.8" class="anim" style="animation-delay:960ms;"/>
<text x="814" y="267" class="legend-text">Python (7%→3%)</text>
<rect x="796" y="278" width="12" height="12" rx="2" fill="#663399" opacity="0.8" class="anim" style="animation-delay:1040ms;"/>
<text x="814" y="289" class="legend-text">CSS (5%→6%)</text>
<rect x="796" y="300" width="12" height="12" rx="2" fill="#083fa1" opacity="0.8" class="anim" style="animation-delay:1120ms;"/>
<text x="814" y="311" class="legend-text">Markdown (2%→2%)</text>
<rect x="796" y="322" width="12" height="12" rx="2" fill="#6E4C13" opacity="0.8" class="anim" style="animation-delay:1200ms;"/>
<text x="814" y="333" class="legend-text">Assembly (2%→1%)</text>
<rect x="796" y="344" width="12" height="12" rx="2" fill="#F05138" opacity="0.8" class="anim" style="animation-delay:1280ms;"/>
<text x="814" y="355" class="legend-text">Swift (2%→1%)</text>
<rect x="796" y="366" width="12" height="12" rx="2" fill="#b07219" opacity="0.8" class="anim" style="animation-delay:1360ms;"/>
<text x="814" y="377" class="legend-text">Java (1%→0%)</text>
<text x="796" y="412" class="subtitle">Contributions</text>
<text x="796" y="432" class="axis-label">2023: 39</text>
<text x="796" y="452" class="axis-label">2024: 646</text>
<text x="796" y="472" class="axis-label">2025: 1,780</text>
<text x="796" y="492" class="axis-label">2026: 402</text>
<text x="796" y="522" class="subtitle">Statistics</text>
<text x="796" y="542" class="axis-label">Active weeks: 55</text>
<text x="796" y="562" class="axis-label">Add/Del ratio: 1.6x</text>
<text x="796" y="582" class="axis-label">Avg lines/wk: 24K</text>
<text x="796" y="602" class="axis-label">Peak: 2026-02-15</text>
<text x="796" y="622" class="axis-label">  (543K lines)</text>
<text x="90" y="742" class="axis-label">Total: +803,344 / -504,858 lines &#xb7; 2,867 contributions &#xb7; 77 repos &#xb7; &#x2605; 35</text>
</svg>