<svg xmlns="http://www.w3.org/2000/svg" width="1000" height="760" style="max-width: 100%;" viewBox="0 0 1000 760">

<defs>
  <linearGradient id="areaGrad" x1="0" y1="0" x2="0" y2="1">
    <stop offset="0%" stop-color="#58a6ff" stop-opacity="0.35"/>
    <stop offset="100%" stop-color="#58a6ff" stop-opacity="0.02"/>
  </linearGradient>
  <linearGradient id="addGrad" x1="0" y1="0" x2="0" y2="1">
    <stop offset="0%" stop-color="#3fb950" stop-opacity="0.35"/>
    <stop offset="100%" stop-color="#3fb950" stop-opacity="0.02"/>
  </linearGradient>
  <linearGradient id="delGrad" x1="0" y1="0" x2="0" y2="1">
    <stop offset="0%" stop-color="#f85149" stop-opacity="0.25"/>
    <stop offset="100%" stop-color="#f85149" stop-opacity="0.02"/>
  </linearGradient>
</defs>
<style>
  .title { font: bold 28px 'Segoe UI', Ubuntu, Sans-Serif; fill: #c9d1d9; }
  .subtitle { font: 600 20px 'Segoe UI', Ubuntu, Sans-Serif; fill: #c9d1d9; opacity: 0.8; }
  .axis-label { font: 18px 'Segoe UI', Ubuntu, Sans-Serif; fill: #c9d1d9; opacity: 0.7; }
  .legend-text { font: 14px 'Segoe UI', Ubuntu, Sans-Serif; fill: #c9d1d9; }
  .value-text { font: bold 18px 'Segoe UI', Ubuntu, Sans-Serif; fill: #c9d1d9; }
  .stat-value { font: bold 22px 'Segoe UI', Ubuntu, Sans-Serif; fill: #c9d1d9; }
  .stat-label { font: 18px 'Segoe UI', Ubuntu, Sans-Serif; fill: #c9d1d9; opacity: 0.7; }
  @keyframes fadeIn { from { opacity: 0; } to { opacity: 1; } }
  .anim { animation: fadeIn 0.6s ease-in-out forwards; opacity: 0; }
</style>

<rect x="0.5" y="0.5" rx="4.5" width="999" height="759" fill="#161b22" stroke="#21262d"/>
<text x="90" y="45" class="title">Activity History</text>
<text x="90" y="72" class="subtitle">Lines added vs deleted &amp; activity trends over time</text>
<line x1="90" y1="340.0" x2="780" y2="340.0" stroke="#21262d" stroke-width="1"/>
<text x="82" y="344.0" text-anchor="end" class="axis-label">0</text>
<line x1="90" y1="280.0" x2="780" y2="280.0" stroke="#21262d" stroke-width="1"/>
<text x="82" y="284.0" text-anchor="end" class="axis-label">459K</text>
<line x1="90" y1="220.0" x2="780" y2="220.0" stroke="#21262d" stroke-width="1"/>
<text x="82" y="224.0" text-anchor="end" class="axis-label">918K</text>
<line x1="90" y1="160.0" x2="780" y2="160.0" stroke="#21262d" stroke-width="1"/>
<text x="82" y="164.0" text-anchor="end" class="axis-label">1.4M</text>
<line x1="90" y1="100.0" x2="780" y2="100.0" stroke="#21262d" stroke-width="1"/>
<text x="82" y="104.0" text-anchor="end" class="axis-label">1.8M</text>
<polygon points="90.0,340.0 90.0,292.3 94.4,294.0 98.8,292.3 103.2,294.0 107.6,305.0 112.0,283.1 116.4,283.1 120.8,274.9 125.2,274.6 129.6,274.1 133.9,274.0 138.3,259.3 142.7,259.3 147.1,259.3 151.5,237.5 155.9,237.2 160.3,237.0 164.7,237.0 169.1,237.0 173.5,237.0 177.9,237.0 182.3,236.4 186.7,221.9 191.1,221.8 195.5,221.8 199.9,221.8 204.3,221.5 208.7,221.5 213.1,220.8 217.5,220.8 221.8,220.8 226.2,220.8 230.6,220.8 235.0,220.8 239.4,220.8 243.8,220.8 248.2,220.8 252.6,220.8 257.0,220.8 261.4,220.8 265.8,220.8 270.2,220.1 274.6,220.4 279.0,219.7 283.4,219.4 287.8,219.4 292.2,219.4 296.6,219.4 301.0,219.4 305.4,219.4 309.7,219.4 314.1,219.4 318.5,219.4 322.9,219.4 327.3,219.7 331.7,221.1 336.1,219.7 340.5,218.5 344.9,218.4 349.3,218.4 353.7,218.4 358.1,218.4 362.5,210.9 366.9,204.1 371.3,204.1 375.7,204.1 380.1,204.1 384.5,204.1 388.9,204.1 393.2,204.1 397.6,204.1 402.0,204.0 406.4,204.0 410.8,204.0 415.2,204.0 419.6,204.0 424.0,204.0 428.4,204.0 432.8,204.0 437.2,204.0 441.6,204.0 446.0,204.0 450.4,204.0 454.8,204.0 459.2,204.0 463.6,204.0 468.0,204.0 472.4,204.0 476.8,204.0 481.1,204.0 485.5,204.0 489.9,204.0 494.3,204.0 498.7,204.0 503.1,204.0 507.5,204.0 511.9,204.0 516.3,204.0 520.7,204.0 525.1,204.0 529.5,204.0 533.9,204.0 538.3,204.0 542.7,204.0 547.1,204.0 551.5,204.0 555.9,204.0 560.3,204.0 564.6,204.0 569.0,204.0 573.4,204.0 577.8,204.0 582.2,204.0 586.6,204.0 591.0,204.0 595.4,204.0 599.8,204.0 604.2,204.0 608.6,204.0 613.0,204.0 617.4,204.0 621.8,204.0 626.2,204.0 630.6,204.0 635.0,204.0 639.4,204.0 643.8,204.0 648.2,204.0 652.5,204.0 656.9,204.0 661.3,204.0 665.7,204.0 670.1,204.0 674.5,204.0 678.9,204.0 683.3,204.0 687.7,204.0 692.1,204.0 696.5,204.0 700.9,204.0 705.3,203.6 709.7,203.4 714.1,203.1 718.5,203.0 722.9,203.0 727.3,203.0 731.7,203.0 736.1,203.0 740.4,203.0 744.8,203.0 749.2,203.0 753.6,203.0 758.0,203.0 762.4,203.0 766.8,203.0 771.2,203.0 775.6,194.6 780.0,186.2 780.0,340.0" fill="url(#addGrad)" class="anim" style="animation-delay:200ms;"/>
<polyline points="90.0,292.3 94.4,294.0 98.8,292.3 103.2,294.0 107.6,305.0 112.0,283.1 116.4,283.1 120.8,274.9 125.2,274.6 129.6,274.1 133.9,274.0 138.3,259.3 142.7,259.3 147.1,259.3 151.5,237.5 155.9,237.2 160.3,237.0 164.7,237.0 169.1,237.0 173.5,237.0 177.9,237.0 182.3,236.4 186.7,221.9 191.1,221.8 195.5,221.8 199.9,221.8 204.3,221.5 208.7,221.5 213.1,220.8 217.5,220.8 221.8,220.8 226.2,220.8 230.6,220.8 235.0,220.8 239.4,220.8 243.8,220.8 248.2,220.8 252.6,220.8 257.0,220.8 261.4,220.8 265.8,220.8 270.2,220.1 274.6,220.4 279.0,219.7 283.4,219.4 287.8,219.4 292.2,219.4 296.6,219.4 301.0,219.4 305.4,219.4 309.7,219.4 314.1,219.4 318.5,219.4 322.9,219.4 327.3,219.7 331.7,221.1 336.1,219.7 340.5,218.5 344.9,218.4 349.3,218.4 353.7,218.4 358.1,218.4 362.5,210.9 366.9,204.1 371.3,204.1 375.7,204.1 380.1,204.1 384.5,204.1 388.9,204.1 393.2,204.1 397.6,204.1 402.0,204.0 406.4,204.0 410.8,204.0 415.2,204.0 419.6,204.0 424.0,204.0 428.4,204.0 432.8,204.0 437.2,204.0 441.6,204.0 446.0,204.0 450.4,204.0 454.8,204.0 459.2,204.0 463.6,204.0 468.0,204.0 472.4,204.0 476.8,204.0 481.1,204.0 485.5,204.0 489.9,204.0 494.3,204.0 498.7,204.0 503.1,204.0 507.5,204.0 511.9,204.0 516.3,204.0 520.7,204.0 525.1,204.0 529.5,204.0 533.9,204.0 538.3,204.0 542.7,204.0 547.1,204.0 551.5,204.0 555.9,204.0 560.3,204.0 564.6,204.0 569.0,204.0 573.4,204.0 577.8,204.0 582.2,204.0 586.6,204.0 591.0,204.0 595.4,204.0 599.8,204.0 604.2,204.0 608.6,204.0 613.0,204.0 617.4,204.0 621.8,204.0 626.2,204.0 630.6,204.0 635.0,204.0 639.4,204.0 643.8,204.0 648.2,204.0 652.5,204.0 656.9,204.0 661.3,204.0 665.7,204.0 670.1,204.0 674.5,204.0 678.9,204.0 683.3,204.0 687.7,204.0 692.1,204.0 696.5,204.0 700.9,204.0 705.3,203.6 709.7,203.4 714.1,203.1 718.5,203.0 722.9,203.0 727.3,203.0 731.7,203.0 736.1,203.0 740.4,203.0 744.8,203.0 749.2,203.0 753.6,203.0 758.0,203.0 762.4,203.0 766.8,203.0 771.2,203.0" fill="none" stroke="#3fb950" stroke-width="2" stroke-linejoin="round" class="anim" style="animation-delay:250ms;"/>
<polyline points="771.2,203.0 775.6,194.6 780.0,186.2" fill="none" stroke="#3fb950" stroke-width="1.5" stroke-dasharray="5,4" stroke-linejoin="round" opacity="0.6" class="anim" style="animation-delay:250ms;"/>
<polygon points="90.0,340.0 90.0,326.6 94.4,328.0 98.8,326.6 103.2,328.0 107.6,333.7 112.0,325.0 116.4,324.9 120.8,324.0 125.2,323.7 129.6,323.4 133.9,323.4 138.3,307.5 142.7,307.5 147.1,307.5 151.5,289.6 155.9,289.5 160.3,289.4 164.7,289.4 169.1,289.4 173.5,289.4 177.9,289.4 182.3,280.1 186.7,265.8 191.1,265.7 195.5,265.7 199.9,265.7 204.3,265.7 208.7,265.7 213.1,265.6 217.5,265.6 221.8,265.5 226.2,265.5 230.6,265.5 235.0,265.5 239.4,265.6 243.8,265.5 248.2,265.5 252.6,265.5 257.0,265.5 261.4,265.5 265.8,265.5 270.2,265.5 274.6,265.6 279.0,265.1 283.4,265.1 287.8,265.1 292.2,265.1 296.6,265.1 301.0,265.1 305.4,265.1 309.7,265.1 314.1,265.1 318.5,265.1 322.9,265.2 327.3,265.2 331.7,266.0 336.1,265.5 340.5,264.7 344.9,264.7 349.3,264.7 353.7,264.7 358.1,264.7 362.5,264.6 366.9,264.6 371.3,264.6 375.7,264.6 380.1,264.6 384.5,264.6 388.9,264.6 393.2,264.6 397.6,264.6 402.0,264.6 406.4,264.6 410.8,264.6 415.2,264.6 419.6,264.6 424.0,264.6 428.4,264.6 432.8,264.6 437.2,264.6 441.6,264.6 446.0,264.6 450.4,264.6 454.8,264.6 459.2,264.6 463.6,264.6 468.0,264.6 472.4,264.6 476.8,264.6 481.1,264.6 485.5,264.6 489.9,264.6 494.3,264.6 498.7,264.6 503.1,264.6 507.5,264.6 511.9,264.6 516.3,264.6 520.7,264.6 525.1,264.6 529.5,264.6 533.9,264.6 538.3,264.6 542.7,264.6 547.1,264.6 551.5,264.6 555.9,264.6 560.3,264.6 564.6,264.6 569.0,264.6 573.4,264.6 577.8,264.6 582.2,264.6 586.6,264.6 591.0,264.6 595.4,264.6 599.8,264.6 604.2,264.6 608.6,264.6 613.0,264.6 617.4,264.6 621.8,264.6 626.2,264.6 630.6,264.6 635.0,264.6 639.4,264.6 643.8,264.6 648.2,264.6 652.5,264.6 656.9,264.6 661.3,264.6 665.7,264.6 670.1,264.6 674.5,264.6 678.9,264.6 683.3,264.6 687.7,264.6 692.1,264.6 696.5,264.6 700.9,264.5 705.3,264.2 709.7,264.1 714.1,264.1 718.5,264.0 722.9,264.0 727.3,264.0 731.7,264.0 736.1,264.0 740.4,264.0 744.8,263.9 749.2,263.9 753.6,263.9 758.0,263.9 762.4,263.9 766.8,263.9 771.2,263.9 775.6,258.9 780.0,253.8 780.0,340.0" fill="url(#delGrad)" class="anim" style="animation-delay:300ms;"/>
<polyline points="90.0,326.6 94.4,328.0 98.8,326.6 103.2,328.0 107.6,333.7 112.0,325.0 116.4,324.9 120.8,324.0 125.2,323.7 129.6,323.4 133.9,323.4 138.3,307.5 142.7,307.5 147.1,307.5 151.5,289.6 155.9,289.5 160.3,289.4 164.7,289.4 169.1,289.4 173.5,289.4 177.9,289.4 182.3,280.1 186.7,265.8 191.1,265.7 195.5,265.7 199.9,265.7 204.3,265.7 208.7,265.7 213.1,265.6 217.5,265.6 221.8,265.5 226.2,265.5 230.6,265.5 235.0,265.5 239.4,265.6 243.8,265.5 248.2,265.5 252.6,265.5 257.0,265.5 261.4,265.5 265.8,265.5 270.2,265.5 274.6,265.6 279.0,265.1 283.4,265.1 287.8,265.1 292.2,265.1 296.6,265.1 301.0,265.1 305.4,265.1 309.7,265.1 314.1,265.1 318.5,265.1 322.9,265.2 327.3,265.2 331.7,266.0 336.1,265.5 340.5,264.7 344.9,264.7 349.3,264.7 353.7,264.7 358.1,264.7 362.5,264.6 366.9,264.6 371.3,264.6 375.7,264.6 380.1,264.6 384.5,264.6 388.9,264.6 393.2,264.6 397.6,264.6 402.0,264.6 406.4,264.6 410.8,264.6 415.2,264.6 419.6,264.6 424.0,264.6 428.4,264.6 432.8,264.6 437.2,264.6 441.6,264.6 446.0,264.6 450.4,264.6 454.8,264.6 459.2,264.6 463.6,264.6 468.0,264.6 472.4,264.6 476.8,264.6 481.1,264.6 485.5,264.6 489.9,264.6 494.3,264.6 498.7,264.6 503.1,264.6 507.5,264.6 511.9,264.6 516.3,264.6 520.7,264.6 525.1,264.6 529.5,264.6 533.9,264.6 538.3,264.6 542.7,264.6 547.1,264.6 551.5,264.6 555.9,264.6 560.3,264.6 564.6,264.6 569.0,264.6 573.4,264.6 577.8,264.6 582.2,264.6 586.6,264.6 591.0,264.6 595.4,264.6 599.8,264.6 604.2,264.6 608.6,264.6 613.0,264.6 617.4,264.6 621.8,264.6 626.2,264.6 630.6,264.6 635.0,264.6 639.4,264.6 643.8,264.6 648.2,264.6 652.5,264.6 656.9,264.6 661.3,264.6 665.7,264.6 670.1,264.6 674.5,264.6 678.9,264.6 683.3,264.6 687.7,264.6 692.1,264.6 696.5,264.6 700.9,264.5 705.3,264.2 709.7,264.1 714.1,264.1 718.5,264.0 722.9,264.0 727.3,264.0 731.7,264.0 736.1,264.0 740.4,264.0 744.8,263.9 749.2,263.9 753.6,263.9 758.0,263.9 762.4,263.9 766.8,263.9 771.2,263.9" fill="none" stroke="#f85149" stroke-width="1.5" stroke-linejoin="round" class="anim" style="animation-delay:350ms;"/>
<polyline points="771.2,263.9 775.6,258.9 780.0,253.8" fill="none" stroke="#f85149" stroke-width="1" stroke-dasharray="5,4" stroke-linejoin="round" opacity="0.6" class="anim" style="animation-delay:350ms;"/>
<polyline points="90.0,340.0 94.4,340.0 98.8,340.0 103.2,340.0 107.6,340.0 112.0,340.0 116.4,340.0 120.8,340.0 125.2,308.0 129.6,308.0 133.9,308.0 138.3,308.0 142.7,308.0 147.1,308.0 151.5,308.0 155.9,308.0 160.3,308.0 164.7,308.0 169.1,308.0 173.5,308.0 177.9,308.0 182.3,308.0 186.7,308.0 191.1,308.0 195.5,308.0 199.9,308.0 204.3,308.0 208.7,308.0 213.1,308.0 217.5,308.0 221.8,308.0 226.2,308.0 230.6,308.0 235.0,308.0 239.4,276.0 243.8,276.0 248.2,276.0 252.6,276.0 257.0,276.0 261.4,276.0 265.8,276.0 270.2,276.0 274.6,244.0 279.0,244.0 283.4,244.0 287.8,244.0 292.2,244.0 296.6,244.0 301.0,244.0 305.4,244.0 309.7,244.0 314.1,244.0 318.5,244.0 322.9,244.0 327.3,244.0 331.7,244.0 336.1,244.0 340.5,244.0 344.9,180.0 349.3,180.0 353.7,180.0 358.1,180.0 362.5,180.0 366.9,180.0 371.3,180.0 375.7,180.0 380.1,180.0 384.5,180.0 388.9,180.0 393.2,180.0 397.6,180.0 402.0,180.0 406.4,180.0 410.8,180.0 415.2,180.0 419.6,180.0 424.0,180.0 428.4,180.0 432.8,180.0 437.2,180.0 441.6,180.0 446.0,180.0 450.4,180.0 454.8,180.0 459.2,180.0 463.6,180.0 468.0,180.0 472.4,180.0 476.8,180.0 481.1,180.0 485.5,180.0 489.9,180.0 494.3,180.0 498.7,180.0 503.1,180.0 507.5,180.0 511.9,180.0 516.3,180.0 520.7,180.0 525.1,180.0 529.5,180.0 533.9,180.0 538.3,180.0 542.7,180.0 547.1,180.0 551.5,180.0 555.9,180.0 560.3,180.0 564.6,180.0 569.0,180.0 573.4,180.0 577.8,180.0 582.2,180.0 586.6,180.0 591.0,180.0 595.4,180.0 599.8,180.0 604.2,180.0 608.6,180.0 613.0,180.0 617.4,180.0 621.8,180.0 626.2,180.0 630.6,180.0 635.0,180.0 639.4,180.0 643.8,180.0 648.2,180.0 652.5,180.0 656.9,180.0 661.3,180.0 665.7,180.0 670.1,180.0 674.5,180.0 678.9,180.0 683.3,180.0 687.7,180.0 692.1,180.0 696.5,180.0 700.9,180.0 705.3,180.0 709.7,180.0 714.1,180.0 718.5,180.0 722.9,180.0 727.3,180.0 731.7,180.0 736.1,180.0 740.4,180.0 744.8,180.0 749.2,180.0 753.6,180.0 758.0,180.0 762.4,180.0 766.8,180.0 771.2,180.0" fill="none" stroke="#e3b341" stroke-width="1.5" stroke-dasharray="4,3" stroke-linejoin="round" class="anim" style="animation-delay:400ms;"/>
<polyline points="771.2,180.0 775.6,180.0 780.0,148.0" fill="none" stroke="#e3b341" stroke-width="1" stroke-dasharray="3,5" stroke-linejoin="round" opacity="0.5" class="anim" style="animation-delay:400ms;"/>
<text x="90" y="90" class="subtitle">Lines Added vs Deleted (per snapshot)</text>
<text x="90" y="400" class="subtitle">Programming Language Development (%)</text>
<line x1="90" y1="650.0" x2="780" y2="650.0" stroke="#21262d" stroke-width="1"/>
<text x="82" y="654.0" text-anchor="end" class="axis-label">0%</text>
<line x1="90" y1="590.0" x2="780" y2="590.0" stroke="#21262d" stroke-width="1"/>
<text x="82" y="594.0" text-anchor="end" class="axis-label">25%</text>
<line x1="90" y1="530.0" x2="780" y2="530.0" stroke="#21262d" stroke-width="1"/>
<text x="82" y="534.0" text-anchor="end" class="axis-label">50%</text>
<line x1="90" y1="470.0" x2="780" y2="470.0" stroke="#21262d" stroke-width="1"/>
<text x="82" y="474.0" text-anchor="end" class="axis-label">75%</text>
<line x1="90" y1="410.0" x2="780" y2="410.0" stroke="#21262d" stroke-width="1"/>
<text x="82" y="414.0" text-anchor="end" class="axis-label">100%</text>
<polygon points="90.0,650.0 94.4,650.0 98.8,650.0 103.2,650.0 107.6,650.0 112.0,650.0 116.4,650.0 120.8,650.0 125.2,528.2 129.6,528.5 133.9,529.7 138.3,499.3 142.7,499.3 147.1,502.9 151.5,485.0 155.9,485.1 160.3,485.4 164.7,485.4 169.1,485.4 173.5,485.4 177.9,485.4 182.3,496.4 186.7,496.7 191.1,491.0 195.5,491.0 199.9,491.0 204.3,491.7 208.7,491.8 213.1,494.0 217.5,494.0 221.8,494.4 226.2,494.4 230.6,494.4 235.0,494.4 239.4,507.6 243.8,507.6 248.2,507.9 252.6,507.9 257.0,507.9 261.4,506.3 265.8,506.4 270.2,506.8 274.6,506.9 279.0,506.8 283.4,507.5 287.8,507.5 292.2,507.5 296.6,507.5 301.0,507.5 305.4,507.5 309.7,507.5 314.1,507.5 318.5,507.5 322.9,507.5 327.3,507.5 331.7,507.5 336.1,507.5 340.5,508.6 344.9,508.6 349.3,508.6 353.7,508.6 358.1,508.6 362.5,509.5 366.9,509.8 371.3,509.8 375.7,509.8 380.1,509.8 384.5,509.8 388.9,509.8 393.2,509.8 397.6,509.8 402.0,510.9 406.4,510.9 410.8,510.9 415.2,510.9 419.6,510.9 424.0,510.9 428.4,510.9 432.8,510.9 437.2,510.9 441.6,510.9 446.0,510.9 450.4,510.9 454.8,510.9 459.2,510.9 463.6,510.9 468.0,510.9 472.4,510.9 476.8,510.9 481.1,510.9 485.5,510.9 489.9,510.9 494.3,510.9 498.7,510.9 503.1,510.9 507.5,510.9 511.9,510.9 516.3,510.9 520.7,510.9 525.1,510.9 529.5,510.9 533.9,510.9 538.3,510.9 542.7,510.9 547.1,510.9 551.5,510.9 555.9,510.9 560.3,510.9 564.6,510.9 569.0,510.9 573.4,510.9 577.8,510.9 582.2,510.9 586.6,510.9 591.0,510.9 595.4,510.9 599.8,510.9 604.2,510.9 608.6,510.9 613.0,510.9 617.4,510.9 621.8,510.9 626.2,510.9 630.6,510.9 635.0,510.9 639.4,510.9 643.8,510.9 648.2,510.9 652.5,510.9 656.9,510.9 661.3,510.9 665.7,510.9 670.1,510.9 674.5,510.9 678.9,510.9 683.3,510.9 687.7,510.9 692.1,510.9 696.5,510.9 700.9,510.9 705.3,511.1 709.7,511.1 714.1,512.0 718.5,512.1 722.9,512.1 727.3,512.1 731.7,512.1 736.1,512.1 740.4,512.1 744.8,512.1 749.2,512.1 753.6,512.1 758.0,512.1 762.4,512.1 766.8,512.1 771.2,512.1 775.6,514.5 780.0,516.8 780.0,650.0 775.6,650.0 771.2,650.0 766.8,650.0 762.4,650.0 758.0,650.0 753.6,650.0 749.2,650.0 744.8,650.0 740.4,650.0 736.1,650.0 731.7,650.0 727.3,650.0 722.9,650.0 718.5,650.0 714.1,650.0 709.7,650.0 705.3,650.0 700.9,650.0 696.5,650.0 692.1,650.0 687.7,650.0 683.3,650.0 678.9,650.0 674.5,650.0 670.1,650.0 665.7,650.0 661.3,650.0 656.9,650.0 652.5,650.0 648.2,650.0 643.8,650.0 639.4,650.0 635.0,650.0 630.6,650.0 626.2,650.0 621.8,650.0 617.4,650.0 613.0,650.0 608.6,650.0 604.2,650.0 599.8,650.0 595.4,650.0 591.0,650.0 586.6,650.0 582.2,650.0 577.8,650.0 573.4,650.0 569.0,650.0 564.6,650.0 560.3,650.0 555.9,650.0 551.5,650.0 547.1,650.0 542.7,650.0 538.3,650.0 533.9,650.0 529.5,650.0 525.1,650.0 520.7,650.0 516.3,650.0 511.9,650.0 507.5,650.0 503.1,650.0 498.7,650.0 494.3,650.0 489.9,650.0 485.5,650.0 481.1,650.0 476.8,650.0 472.4,650.0 468.0,650.0 463.6,650.0 459.2,650.0 454.8,650.0 450.4,650.0 446.0,650.0 441.6,650.0 437.2,650.0 432.8,650.0 428.4,650.0 424.0,650.0 419.6,650.0 415.2,650.0 410.8,650.0 406.4,650.0 402.0,650.0 397.6,650.0 393.2,650.0 388.9,650.0 384.5,650.0 380.1,650.0 375.7,650.0 371.3,650.0 366.9,650.0 362.5,650.0 358.1,650.0 353.7,650.0 349.3,650.0 344.9,650.0 340.5,650.0 336.1,650.0 331.7,650.0 327.3,650.0 322.9,650.0 318.5,650.0 314.1,650.0 309.7,650.0 305.4,650.0 301.0,650.0 296.6,650.0 292.2,650.0 287.8,650.0 283.4,650.0 279.0,650.0 274.6,650.0 270.2,650.0 265.8,650.0 261.4,650.0 257.0,650.0 252.6,650.0 248.2,650.0 243.8,650.0 239.4,650.0 235.0,650.0 230.6,650.0 226.2,650.0 221.8,650.0 217.5,650.0 213.1,650.0 208.7,650.0 204.3,650.0 199.9,650.0 195.5,650.0 191.1,650.0 186.7,650.0 182.3,650.0 177.9,650.0 173.5,650.0 169.1,650.0 164.7,650.0 160.3,650.0 155.9,650.0 151.5,650.0 147.1,650.0 142.7,650.0 138.3,650.0 133.9,650.0 129.6,650.0 125.2,650.0 120.8,650.0 116.4,650.0 112.0,650.0 107.6,650.0 103.2,650.0 98.8,650.0 94.4,650.0 90.0,650.0" fill="#e34c26" opacity="0.6" class="anim" style="animation-delay:500ms;"/>
<polygon points="90.0,650.0 94.4,650.0 98.8,650.0 103.2,650.0 107.6,650.0 112.0,650.0 116.4,650.0 120.8,650.0 125.2,488.4 129.6,488.0 133.9,489.0 138.3,476.0 142.7,476.0 147.1,477.2 151.5,460.1 155.9,460.2 160.3,460.6 164.7,460.6 169.1,460.6 173.5,460.6 177.9,460.6 182.3,473.0 186.7,473.5 191.1,469.5 195.5,469.5 199.9,469.5 204.3,469.7 208.7,469.7 213.1,469.7 217.5,469.7 221.8,469.7 226.2,469.7 230.6,469.7 235.0,469.7 239.4,455.6 243.8,455.6 248.2,455.4 252.6,455.4 257.0,455.4 261.4,454.3 265.8,454.3 270.2,455.0 274.6,455.1 279.0,454.9 283.4,455.9 287.8,455.9 292.2,455.9 296.6,455.9 301.0,455.9 305.4,455.9 309.7,455.9 314.1,455.9 318.5,455.9 322.9,455.9 327.3,455.9 331.7,455.9 336.1,455.9 340.5,455.8 344.9,455.8 349.3,455.8 353.7,455.8 358.1,455.8 362.5,457.0 366.9,457.4 371.3,457.4 375.7,457.4 380.1,457.4 384.5,457.4 388.9,457.4 393.2,457.4 397.6,457.4 402.0,458.2 406.4,458.2 410.8,458.2 415.2,458.2 419.6,458.2 424.0,458.2 428.4,458.2 432.8,458.2 437.2,458.2 441.6,458.2 446.0,458.2 450.4,458.2 454.8,458.2 459.2,458.2 463.6,458.2 468.0,458.2 472.4,458.2 476.8,458.2 481.1,458.2 485.5,458.2 489.9,458.2 494.3,458.2 498.7,458.2 503.1,458.2 507.5,458.2 511.9,458.2 516.3,458.2 520.7,458.2 525.1,458.2 529.5,458.2 533.9,458.2 538.3,458.2 542.7,458.2 547.1,458.2 551.5,458.2 555.9,458.2 560.3,458.2 564.6,458.2 569.0,458.2 573.4,458.2 577.8,458.2 582.2,458.2 586.6,458.2 591.0,458.2 595.4,458.2 599.8,458.2 604.2,458.2 608.6,458.2 613.0,458.2 617.4,458.2 621.8,458.2 626.2,458.2 630.6,458.2 635.0,458.2 639.4,458.2 643.8,458.2 648.2,458.2 652.5,458.2 656.9,458.2 661.3,458.2 665.7,458.2 670.1,458.2 674.5,458.2 678.9,458.2 683.3,458.2 687.7,458.2 692.1,458.2 696.5,458.2 700.9,458.1 705.3,458.4 709.7,458.4 714.1,459.7 718.5,459.8 722.9,459.8 727.3,459.8 731.7,459.8 736.1,459.8 740.4,459.8 744.8,459.8 749.2,459.8 753.6,459.8 758.0,459.8 762.4,459.8 766.8,459.8 771.2,459.8 775.6,458.6 780.0,457.4 780.0,516.8 775.6,514.5 771.2,512.1 766.8,512.1 762.4,512.1 758.0,512.1 753.6,512.1 749.2,512.1 744.8,512.1 740.4,512.1 736.1,512.1 731.7,512.1 727.3,512.1 722.9,512.1 718.5,512.1 714.1,512.0 709.7,511.1 705.3,511.1 700.9,510.9 696.5,510.9 692.1,510.9 687.7,510.9 683.3,510.9 678.9,510.9 674.5,510.9 670.1,510.9 665.7,510.9 661.3,510.9 656.9,510.9 652.5,510.9 648.2,510.9 643.8,510.9 639.4,510.9 635.0,510.9 630.6,510.9 626.2,510.9 621.8,510.9 617.4,510.9 613.0,510.9 608.6,510.9 604.2,510.9 599.8,510.9 595.4,510.9 591.0,510.9 586.6,510.9 582.2,510.9 577.8,510.9 573.4,510.9 569.0,510.9 564.6,510.9 560.3,510.9 555.9,510.9 551.5,510.9 547.1,510.9 542.7,510.9 538.3,510.9 533.9,510.9 529.5,510.9 525.1,510.9 520.7,510.9 516.3,510.9 511.9,510.9 507.5,510.9 503.1,510.9 498.7,510.9 494.3,510.9 489.9,510.9 485.5,510.9 481.1,510.9 476.8,510.9 472.4,510.9 468.0,510.9 463.6,510.9 459.2,510.9 454.8,510.9 450.4,510.9 446.0,510.9 441.6,510.9 437.2,510.9 432.8,510.9 428.4,510.9 424.0,510.9 419.6,510.9 415.2,510.9 410.8,510.9 406.4,510.9 402.0,510.9 397.6,509.8 393.2,509.8 388.9,509.8 384.5,509.8 380.1,509.8 375.7,509.8 371.3,509.8 366.9,509.8 362.5,509.5 358.1,508.6 353.7,508.6 349.3,508.6 344.9,508.6 340.5,508.6 336.1,507.5 331.7,507.5 327.3,507.5 322.9,507.5 318.5,507.5 314.1,507.5 309.7,507.5 305.4,507.5 301.0,507.5 296.6,507.5 292.2,507.5 287.8,507.5 283.4,507.5 279.0,506.8 274.6,506.9 270.2,506.8 265.8,506.4 261.4,506.3 257.0,507.9 252.6,507.9 248.2,507.9 243.8,507.6 239.4,507.6 235.0,494.4 230.6,494.4 226.2,494.4 221.8,494.4 217.5,494.0 213.1,494.0 208.7,491.8 204.3,491.7 199.9,491.0 195.5,491.0 191.1,491.0 186.7,496.7 182.3,496.4 177.9,485.4 173.5,485.4 169.1,485.4 164.7,485.4 160.3,485.4 155.9,485.1 151.5,485.0 147.1,502.9 142.7,499.3 138.3,499.3 133.9,529.7 129.6,528.5 125.2,528.2 120.8,650.0 116.4,650.0 112.0,650.0 107.6,650.0 103.2,650.0 98.8,650.0 94.4,650.0 90.0,650.0" fill="#f1e05a" opacity="0.6" class="anim" style="animation-delay:600ms;"/>
<polygon points="90.0,650.0 94.4,650.0 98.8,650.0 103.2,650.0 107.6,650.0 112.0,650.0 116.4,650.0 120.8,650.0 125.2,455.5 129.6,455.4 133.9,455.1 138.3,447.0 142.7,447.0 147.1,448.2 151.5,438.9 155.9,439.0 160.3,439.6 164.7,439.6 169.1,439.6 173.5,439.6 177.9,439.6 182.3,445.6 186.7,445.6 191.1,443.3 195.5,443.3 199.9,443.3 204.3,443.6 208.7,443.6 213.1,444.1 217.5,444.1 221.8,444.1 226.2,444.1 230.6,444.1 235.0,444.1 239.4,437.5 243.8,437.5 248.2,437.5 252.6,437.5 257.0,437.5 261.4,437.5 265.8,437.5 270.2,438.4 274.6,438.5 279.0,438.3 283.4,439.3 287.8,439.3 292.2,439.3 296.6,439.3 301.0,439.3 305.4,439.3 309.7,439.3 314.1,439.3 318.5,439.3 322.9,439.3 327.3,439.3 331.7,439.3 336.1,439.3 340.5,439.4 344.9,439.4 349.3,439.4 353.7,439.4 358.1,439.4 362.5,440.7 366.9,441.1 371.3,441.1 375.7,441.1 380.1,441.1 384.5,441.1 388.9,441.1 393.2,441.1 397.6,441.1 402.0,442.0 406.4,442.0 410.8,442.0 415.2,442.0 419.6,442.0 424.0,442.0 428.4,442.0 432.8,442.0 437.2,442.0 441.6,442.0 446.0,442.0 450.4,442.0 454.8,442.0 459.2,442.0 463.6,442.0 468.0,442.0 472.4,442.0 476.8,442.0 481.1,442.0 485.5,442.0 489.9,442.0 494.3,442.0 498.7,442.0 503.1,442.0 507.5,442.0 511.9,442.0 516.3,442.0 520.7,442.0 525.1,442.0 529.5,442.0 533.9,442.0 538.3,442.0 542.7,442.0 547.1,442.0 551.5,442.0 555.9,442.0 560.3,442.0 564.6,442.0 569.0,442.0 573.4,442.0 577.8,442.0 582.2,442.0 586.6,442.0 591.0,442.0 595.4,442.0 599.8,442.0 604.2,442.0 608.6,442.0 613.0,442.0 617.4,442.0 621.8,442.0 626.2,442.0 630.6,442.0 635.0,442.0 639.4,442.0 643.8,442.0 648.2,442.0 652.5,442.0 656.9,442.0 661.3,442.0 665.7,442.0 670.1,442.0 674.5,442.0 678.9,442.0 683.3,442.0 687.7,442.0 692.1,442.0 696.5,442.0 700.9,442.0 705.3,442.0 709.7,442.0 714.1,441.8 718.5,441.8 722.9,441.8 727.3,441.8 731.7,441.8 736.1,441.8 740.4,441.8 744.8,441.8 749.2,441.8 753.6,441.8 758.0,441.8 762.4,441.8 766.8,441.8 771.2,441.8 775.6,441.8 780.0,441.9 780.0,457.4 775.6,458.6 771.2,459.8 766.8,459.8 762.4,459.8 758.0,459.8 753.6,459.8 749.2,459.8 744.8,459.8 740.4,459.8 736.1,459.8 731.7,459.8 727.3,459.8 722.9,459.8 718.5,459.8 714.1,459.7 709.7,458.4 705.3,458.4 700.9,458.1 696.5,458.2 692.1,458.2 687.7,458.2 683.3,458.2 678.9,458.2 674.5,458.2 670.1,458.2 665.7,458.2 661.3,458.2 656.9,458.2 652.5,458.2 648.2,458.2 643.8,458.2 639.4,458.2 635.0,458.2 630.6,458.2 626.2,458.2 621.8,458.2 617.4,458.2 613.0,458.2 608.6,458.2 604.2,458.2 599.8,458.2 595.4,458.2 591.0,458.2 586.6,458.2 582.2,458.2 577.8,458.2 573.4,458.2 569.0,458.2 564.6,458.2 560.3,458.2 555.9,458.2 551.5,458.2 547.1,458.2 542.7,458.2 538.3,458.2 533.9,458.2 529.5,458.2 525.1,458.2 520.7,458.2 516.3,458.2 511.9,458.2 507.5,458.2 503.1,458.2 498.7,458.2 494.3,458.2 489.9,458.2 485.5,458.2 481.1,458.2 476.8,458.2 472.4,458.2 468.0,458.2 463.6,458.2 459.2,458.2 454.8,458.2 450.4,458.2 446.0,458.2 441.6,458.2 437.2,458.2 432.8,458.2 428.4,458.2 424.0,458.2 419.6,458.2 415.2,458.2 410.8,458.2 406.4,458.2 402.0,458.2 397.6,457.4 393.2,457.4 388.9,457.4 384.5,457.4 380.1,457.4 375.7,457.4 371.3,457.4 366.9,457.4 362.5,457.0 358.1,455.8 353.7,455.8 349.3,455.8 344.9,455.8 340.5,455.8 336.1,455.9 331.7,455.9 327.3,455.9 322.9,455.9 318.5,455.9 314.1,455.9 309.7,455.9 305.4,455.9 301.0,455.9 296.6,455.9 292.2,455.9 287.8,455.9 283.4,455.9 279.0,454.9 274.6,455.1 270.2,455.0 265.8,454.3 261.4,454.3 257.0,455.4 252.6,455.4 248.2,455.4 243.8,455.6 239.4,455.6 235.0,469.7 230.6,469.7 226.2,469.7 221.8,469.7 217.5,469.7 213.1,469.7 208.7,469.7 204.3,469.7 199.9,469.5 195.5,469.5 191.1,469.5 186.7,473.5 182.3,473.0 177.9,460.6 173.5,460.6 169.1,460.6 164.7,460.6 160.3,460.6 155.9,460.2 151.5,460.1 147.1,477.2 142.7,476.0 138.3,476.0 133.9,489.0 129.6,488.0 125.2,488.4 120.8,650.0 116.4,650.0 112.0,650.0 107.6,650.0 103.2,650.0 98.8,650.0 94.4,650.0 90.0,650.0" fill="#3572A5" opacity="0.6" class="anim" style="animation-delay:700ms;"/>
<polygon points="90.0,650.0 94.4,650.0 98.8,650.0 103.2,650.0 107.6,650.0 112.0,650.0 116.4,650.0 120.8,650.0 125.2,442.3 129.6,442.0 133.9,441.6 138.3,439.5 142.7,439.5 147.1,439.4 151.5,432.3 155.9,432.2 160.3,432.6 164.7,432.6 169.1,432.6 173.5,432.6 177.9,432.6 182.3,439.3 186.7,439.3 191.1,437.4 195.5,437.4 199.9,437.4 204.3,437.3 208.7,437.3 213.1,437.1 217.5,437.1 221.8,437.1 226.2,437.1 230.6,437.1 235.0,437.1 239.4,428.7 243.8,428.6 248.2,428.5 252.6,428.5 257.0,428.5 261.4,427.3 265.8,427.3 270.2,427.1 274.6,427.1 279.0,427.1 283.4,427.0 287.8,427.0 292.2,427.0 296.6,427.0 301.0,427.0 305.4,427.0 309.7,427.0 314.1,427.0 318.5,427.0 322.9,427.0 327.3,427.0 331.7,427.0 336.1,427.0 340.5,427.0 344.9,427.1 349.3,427.1 353.7,427.1 358.1,427.1 362.5,428.4 366.9,428.9 371.3,428.9 375.7,428.9 380.1,428.9 384.5,428.9 388.9,428.9 393.2,428.9 397.6,428.9 402.0,428.7 406.4,428.7 410.8,428.7 415.2,428.7 419.6,428.7 424.0,428.7 428.4,428.7 432.8,428.7 437.2,428.7 441.6,428.7 446.0,428.7 450.4,428.7 454.8,428.7 459.2,428.7 463.6,428.7 468.0,428.7 472.4,428.7 476.8,428.7 481.1,428.7 485.5,428.7 489.9,428.7 494.3,428.7 498.7,428.7 503.1,428.7 507.5,428.7 511.9,428.7 516.3,428.7 520.7,428.7 525.1,428.7 529.5,428.7 533.9,428.7 538.3,428.7 542.7,428.7 547.1,428.7 551.5,428.7 555.9,428.7 560.3,428.7 564.6,428.7 569.0,428.7 573.4,428.7 577.8,428.7 582.2,428.7 586.6,428.7 591.0,428.7 595.4,428.7 599.8,428.7 604.2,428.7 608.6,428.7 613.0,428.7 617.4,428.7 621.8,428.7 626.2,428.7 630.6,428.7 635.0,428.7 639.4,428.7 643.8,428.7 648.2,428.7 652.5,428.7 656.9,428.7 661.3,428.7 665.7,428.7 670.1,428.7 674.5,428.7 678.9,428.7 683.3,428.7 687.7,428.7 692.1,428.7 696.5,428.7 700.9,428.7 705.3,428.7 709.7,428.7 714.1,428.6 718.5,428.6 722.9,428.6 727.3,428.6 731.7,428.6 736.1,428.6 740.4,428.6 744.8,428.6 749.2,428.6 753.6,428.6 758.0,428.6 762.4,428.6 766.8,428.6 771.2,428.6 775.6,427.8 780.0,426.9 780.0,441.9 775.6,441.8 771.2,441.8 766.8,441.8 762.4,441.8 758.0,441.8 753.6,441.8 749.2,441.8 744.8,441.8 740.4,441.8 736.1,441.8 731.7,441.8 727.3,441.8 722.9,441.8 718.5,441.8 714.1,441.8 709.7,442.0 705.3,442.0 700.9,442.0 696.5,442.0 692.1,442.0 687.7,442.0 683.3,442.0 678.9,442.0 674.5,442.0 670.1,442.0 665.7,442.0 661.3,442.0 656.9,442.0 652.5,442.0 648.2,442.0 643.8,442.0 639.4,442.0 635.0,442.0 630.6,442.0 626.2,442.0 621.8,442.0 617.4,442.0 613.0,442.0 608.6,442.0 604.2,442.0 599.8,442.0 595.4,442.0 591.0,442.0 586.6,442.0 582.2,442.0 577.8,442.0 573.4,442.0 569.0,442.0 564.6,442.0 560.3,442.0 555.9,442.0 551.5,442.0 547.1,442.0 542.7,442.0 538.3,442.0 533.9,442.0 529.5,442.0 525.1,442.0 520.7,442.0 516.3,442.0 511.9,442.0 507.5,442.0 503.1,442.0 498.7,442.0 494.3,442.0 489.9,442.0 485.5,442.0 481.1,442.0 476.8,442.0 472.4,442.0 468.0,442.0 463.6,442.0 459.2,442.0 454.8,442.0 450.4,442.0 446.0,442.0 441.6,442.0 437.2,442.0 432.8,442.0 428.4,442.0 424.0,442.0 419.6,442.0 415.2,442.0 410.8,442.0 406.4,442.0 402.0,442.0 397.6,441.1 393.2,441.1 388.9,441.1 384.5,441.1 380.1,441.1 375.7,441.1 371.3,441.1 366.9,441.1 362.5,440.7 358.1,439.4 353.7,439.4 349.3,439.4 344.9,439.4 340.5,439.4 336.1,439.3 331.7,439.3 327.3,439.3 322.9,439.3 318.5,439.3 314.1,439.3 309.7,439.3 305.4,439.3 301.0,439.3 296.6,439.3 292.2,439.3 287.8,439.3 283.4,439.3 279.0,438.3 274.6,438.5 270.2,438.4 265.8,437.5 261.4,437.5 257.0,437.5 252.6,437.5 248.2,437.5 243.8,437.5 239.4,437.5 235.0,444.1 230.6,444.1 226.2,444.1 221.8,444.1 217.5,444.1 213.1,444.1 208.7,443.6 204.3,443.6 199.9,443.3 195.5,443.3 191.1,443.3 186.7,445.6 182.3,445.6 177.9,439.6 173.5,439.6 169.1,439.6 164.7,439.6 160.3,439.6 155.9,439.0 151.5,438.9 147.1,448.2 142.7,447.0 138.3,447.0 133.9,455.1 129.6,455.4 125.2,455.5 120.8,650.0 116.4,650.0 112.0,650.0 107.6,650.0 103.2,650.0 98.8,650.0 94.4,650.0 90.0,650.0" fill="#663399" opacity="0.6" class="anim" style="animation-delay:800ms;"/>
<polygon points="90.0,650.0 94.4,650.0 98.8,650.0 103.2,650.0 107.6,650.0 112.0,650.0 116.4,650.0 120.8,650.0 125.2,436.6 129.6,436.3 133.9,435.9 138.3,432.2 142.7,432.2 147.1,432.2 151.5,426.2 155.9,426.1 160.3,426.0 164.7,426.0 169.1,426.0 173.5,426.0 177.9,426.0 182.3,430.8 186.7,430.7 191.1,429.3 195.5,429.3 199.9,429.3 204.3,429.2 208.7,429.2 213.1,428.9 217.5,428.9 221.8,428.8 226.2,428.8 230.6,428.8 235.0,428.8 239.4,423.0 243.8,422.9 248.2,422.9 252.6,422.9 257.0,422.9 261.4,422.0 265.8,422.0 270.2,421.9 274.6,421.9 279.0,421.9 283.4,421.8 287.8,421.8 292.2,421.8 296.6,421.8 301.0,421.8 305.4,421.8 309.7,421.8 314.1,421.8 318.5,421.8 322.9,421.8 327.3,421.8 331.7,421.8 336.1,421.8 340.5,421.7 344.9,421.8 349.3,421.8 353.7,421.8 358.1,421.8 362.5,423.2 366.9,423.6 371.3,423.6 375.7,423.6 380.1,423.6 384.5,423.6 388.9,423.6 393.2,423.6 397.6,423.6 402.0,423.5 406.4,423.5 410.8,423.5 415.2,423.5 419.6,423.5 424.0,423.5 428.4,423.5 432.8,423.5 437.2,423.5 441.6,423.5 446.0,423.5 450.4,423.5 454.8,423.5 459.2,423.5 463.6,423.5 468.0,423.5 472.4,423.5 476.8,423.5 481.1,423.5 485.5,423.5 489.9,423.5 494.3,423.5 498.7,423.5 503.1,423.5 507.5,423.5 511.9,423.5 516.3,423.5 520.7,423.5 525.1,423.5 529.5,423.5 533.9,423.5 538.3,423.5 542.7,423.5 547.1,423.5 551.5,423.5 555.9,423.5 560.3,423.5 564.6,423.5 569.0,423.5 573.4,423.5 577.8,423.5 582.2,423.5 586.6,423.5 591.0,423.5 595.4,423.5 599.8,423.5 604.2,423.5 608.6,423.5 613.0,423.5 617.4,423.5 621.8,423.5 626.2,423.5 630.6,423.5 635.0,423.5 639.4,423.5 643.8,423.5 648.2,423.5 652.5,423.5 656.9,423.5 661.3,423.5 665.7,423.5 670.1,423.5 674.5,423.5 678.9,423.5 683.3,423.5 687.7,423.5 692.1,423.5 696.5,423.5 700.9,423.5 705.3,423.5 709.7,423.5 714.1,423.4 718.5,423.4 722.9,423.4 727.3,423.4 731.7,423.4 736.1,423.4 740.4,423.4 744.8,423.4 749.2,423.4 753.6,423.4 758.0,423.4 762.4,423.4 766.8,423.4 771.2,423.4 775.6,422.9 780.0,422.3 780.0,426.9 775.6,427.8 771.2,428.6 766.8,428.6 762.4,428.6 758.0,428.6 753.6,428.6 749.2,428.6 744.8,428.6 740.4,428.6 736.1,428.6 731.7,428.6 727.3,428.6 722.9,428.6 718.5,428.6 714.1,428.6 709.7,428.7 705.3,428.7 700.9,428.7 696.5,428.7 692.1,428.7 687.7,428.7 683.3,428.7 678.9,428.7 674.5,428.7 670.1,428.7 665.7,428.7 661.3,428.7 656.9,428.7 652.5,428.7 648.2,428.7 643.8,428.7 639.4,428.7 635.0,428.7 630.6,428.7 626.2,428.7 621.8,428.7 617.4,428.7 613.0,428.7 608.6,428.7 604.2,428.7 599.8,428.7 595.4,428.7 591.0,428.7 586.6,428.7 582.2,428.7 577.8,428.7 573.4,428.7 569.0,428.7 564.6,428.7 560.3,428.7 555.9,428.7 551.5,428.7 547.1,428.7 542.7,428.7 538.3,428.7 533.9,428.7 529.5,428.7 525.1,428.7 520.7,428.7 516.3,428.7 511.9,428.7 507.5,428.7 503.1,428.7 498.7,428.7 494.3,428.7 489.9,428.7 485.5,428.7 481.1,428.7 476.8,428.7 472.4,428.7 468.0,428.7 463.6,428.7 459.2,428.7 454.8,428.7 450.4,428.7 446.0,428.7 441.6,428.7 437.2,428.7 432.8,428.7 428.4,428.7 424.0,428.7 419.6,428.7 415.2,428.7 410.8,428.7 406.4,428.7 402.0,428.7 397.6,428.9 393.2,428.9 388.9,428.9 384.5,428.9 380.1,428.9 375.7,428.9 371.3,428.9 366.9,428.9 362.5,428.4 358.1,427.1 353.7,427.1 349.3,427.1 344.9,427.1 340.5,427.0 336.1,427.0 331.7,427.0 327.3,427.0 322.9,427.0 318.5,427.0 314.1,427.0 309.7,427.0 305.4,427.0 301.0,427.0 296.6,427.0 292.2,427.0 287.8,427.0 283.4,427.0 279.0,427.1 274.6,427.1 270.2,427.1 265.8,427.3 261.4,427.3 257.0,428.5 252.6,428.5 248.2,428.5 243.8,428.6 239.4,428.7 235.0,437.1 230.6,437.1 226.2,437.1 221.8,437.1 217.5,437.1 213.1,437.1 208.7,437.3 204.3,437.3 199.9,437.4 195.5,437.4 191.1,437.4 186.7,439.3 182.3,439.3 177.9,432.6 173.5,432.6 169.1,432.6 164.7,432.6 160.3,432.6 155.9,432.2 151.5,432.3 147.1,439.4 142.7,439.5 138.3,439.5 133.9,441.6 129.6,442.0 125.2,442.3 120.8,650.0 116.4,650.0 112.0,650.0 107.6,650.0 103.2,650.0 98.8,650.0 94.4,650.0 90.0,650.0" fill="#083fa1" opacity="0.6" class="anim" style="animation-delay:900ms;"/>
<polygon points="90.0,650.0 94.4,650.0 98.8,650.0 103.2,650.0 107.6,650.0 112.0,650.0 116.4,650.0 120.8,650.0 125.2,428.3 129.6,428.1 133.9,427.8 138.3,425.3 142.7,425.3 147.1,425.2 151.5,421.1 155.9,421.1 160.3,421.0 164.7,421.0 169.1,421.0 173.5,421.0 177.9,421.0 182.3,424.3 186.7,424.2 191.1,423.3 195.5,423.3 199.9,423.3 204.3,423.2 208.7,423.2 213.1,423.0 217.5,423.0 221.8,422.9 226.2,422.9 230.6,422.9 235.0,422.9 239.4,418.9 243.8,418.9 248.2,418.8 252.6,418.8 257.0,418.8 261.4,418.3 265.8,418.3 270.2,418.2 274.6,418.2 279.0,418.2 283.4,418.1 287.8,418.1 292.2,418.1 296.6,418.1 301.0,418.1 305.4,418.1 309.7,418.1 314.1,418.1 318.5,418.1 322.9,418.1 327.3,418.1 331.7,418.1 336.1,418.1 340.5,418.1 344.9,418.1 349.3,418.1 353.7,418.1 358.1,418.1 362.5,418.0 366.9,418.0 371.3,418.0 375.7,418.0 380.1,418.0 384.5,418.0 388.9,418.0 393.2,418.0 397.6,418.0 402.0,417.9 406.4,417.9 410.8,417.9 415.2,417.9 419.6,417.9 424.0,417.9 428.4,417.9 432.8,417.9 437.2,417.9 441.6,417.9 446.0,417.9 450.4,417.9 454.8,417.9 459.2,417.9 463.6,417.9 468.0,417.9 472.4,417.9 476.8,417.9 481.1,417.9 485.5,417.9 489.9,417.9 494.3,417.9 498.7,417.9 503.1,417.9 507.5,417.9 511.9,417.9 516.3,417.9 520.7,417.9 525.1,417.9 529.5,417.9 533.9,417.9 538.3,417.9 542.7,417.9 547.1,417.9 551.5,417.9 555.9,417.9 560.3,417.9 564.6,417.9 569.0,417.9 573.4,417.9 577.8,417.9 582.2,417.9 586.6,417.9 591.0,417.9 595.4,417.9 599.8,417.9 604.2,417.9 608.6,417.9 613.0,417.9 617.4,417.9 621.8,417.9 626.2,417.9 630.6,417.9 635.0,417.9 639.4,417.9 643.8,417.9 648.2,417.9 652.5,417.9 656.9,417.9 661.3,417.9 665.7,417.9 670.1,417.9 674.5,417.9 678.9,417.9 683.3,417.9 687.7,417.9 692.1,417.9 696.5,417.9 700.9,417.9 705.3,417.9 709.7,417.9 714.1,417.9 718.5,417.9 722.9,417.9 727.3,417.9 731.7,417.9 736.1,417.9 740.4,417.9 744.8,417.9 749.2,417.9 753.6,417.9 758.0,417.9 762.4,417.9 766.8,417.9 771.2,417.9 775.6,417.3 780.0,416.7 780.0,422.3 775.6,422.9 771.2,423.4 766.8,423.4 762.4,423.4 758.0,423.4 753.6,423.4 749.2,423.4 744.8,423.4 740.4,423.4 736.1,423.4 731.7,423.4 727.3,423.4 722.9,423.4 718.5,423.4 714.1,423.4 709.7,423.5 705.3,423.5 700.9,423.5 696.5,423.5 692.1,423.5 687.7,423.5 683.3,423.5 678.9,423.5 674.5,423.5 670.1,423.5 665.7,423.5 661.3,423.5 656.9,423.5 652.5,423.5 648.2,423.5 643.8,423.5 639.4,423.5 635.0,423.5 630.6,423.5 626.2,423.5 621.8,423.5 617.4,423.5 613.0,423.5 608.6,423.5 604.2,423.5 599.8,423.5 595.4,423.5 591.0,423.5 586.6,423.5 582.2,423.5 577.8,423.5 573.4,423.5 569.0,423.5 564.6,423.5 560.3,423.5 555.9,423.5 551.5,423.5 547.1,423.5 542.7,423.5 538.3,423.5 533.9,423.5 529.5,423.5 525.1,423.5 520.7,423.5 516.3,423.5 511.9,423.5 507.5,423.5 503.1,423.5 498.7,423.5 494.3,423.5 489.9,423.5 485.5,423.5 481.1,423.5 476.8,423.5 472.4,423.5 468.0,423.5 463.6,423.5 459.2,423.5 454.8,423.5 450.4,423.5 446.0,423.5 441.6,423.5 437.2,423.5 432.8,423.5 428.4,423.5 424.0,423.5 419.6,423.5 415.2,423.5 410.8,423.5 406.4,423.5 402.0,423.5 397.6,423.6 393.2,423.6 388.9,423.6 384.5,423.6 380.1,423.6 375.7,423.6 371.3,423.6 366.9,423.6 362.5,423.2 358.1,421.8 353.7,421.8 349.3,421.8 344.9,421.8 340.5,421.7 336.1,421.8 331.7,421.8 327.3,421.8 322.9,421.8 318.5,421.8 314.1,421.8 309.7,421.8 305.4,421.8 301.0,421.8 296.6,421.8 292.2,421.8 287.8,421.8 283.4,421.8 279.0,421.9 274.6,421.9 270.2,421.9 265.8,422.0 261.4,422.0 257.0,422.9 252.6,422.9 248.2,422.9 243.8,422.9 239.4,423.0 235.0,428.8 230.6,428.8 226.2,428.8 221.8,428.8 217.5,428.9 213.1,428.9 208.7,429.2 204.3,429.2 199.9,429.3 195.5,429.3 191.1,429.3 186.7,430.7 182.3,430.8 177.9,426.0 173.5,426.0 169.1,426.0 164.7,426.0 160.3,426.0 155.9,426.1 151.5,426.2 147.1,432.2 142.7,432.2 138.3,432.2 133.9,435.9 129.6,436.3 125.2,436.6 120.8,650.0 116.4,650.0 112.0,650.0 107.6,650.0 103.2,650.0 98.8,650.0 94.4,650.0 90.0,650.0" fill="#F05138" opacity="0.6" class="anim" style="animation-delay:1000ms;"/>
<polygon points="90.0,650.0 94.4,650.0 98.8,650.0 103.2,650.0 107.6,650.0 112.0,650.0 116.4,650.0 120.8,650.0 125.2,418.7 129.6,418.6 133.9,418.5 138.3,417.3 142.7,417.3 147.1,417.2 151.5,415.3 155.9,415.3 160.3,415.2 164.7,415.2 169.1,415.2 173.5,415.2 177.9,415.2 182.3,416.8 186.7,416.8 191.1,416.3 195.5,416.3 199.9,416.3 204.3,416.3 208.7,416.3 213.1,416.2 217.5,416.2 221.8,416.2 226.2,416.2 230.6,416.2 235.0,416.2 239.4,414.2 243.8,414.2 248.2,414.2 252.6,414.2 257.0,414.2 261.4,413.9 265.8,413.9 270.2,413.9 274.6,413.9 279.0,413.9 283.4,413.9 287.8,413.9 292.2,413.9 296.6,413.9 301.0,413.9 305.4,413.9 309.7,413.9 314.1,413.9 318.5,413.9 322.9,413.9 327.3,413.9 331.7,413.9 336.1,413.9 340.5,413.8 344.9,413.8 349.3,413.8 353.7,413.8 358.1,413.8 362.5,413.8 366.9,413.8 371.3,413.8 375.7,413.8 380.1,413.8 384.5,413.8 388.9,413.8 393.2,413.8 397.6,413.8 402.0,413.8 406.4,413.8 410.8,413.8 415.2,413.8 419.6,413.8 424.0,413.8 428.4,413.8 432.8,413.8 437.2,413.8 441.6,413.8 446.0,413.8 450.4,413.8 454.8,413.8 459.2,413.8 463.6,413.8 468.0,413.8 472.4,413.8 476.8,413.8 481.1,413.8 485.5,413.8 489.9,413.8 494.3,413.8 498.7,413.8 503.1,413.8 507.5,413.8 511.9,413.8 516.3,413.8 520.7,413.8 525.1,413.8 529.5,413.8 533.9,413.8 538.3,413.8 542.7,413.8 547.1,413.8 551.5,413.8 555.9,413.8 560.3,413.8 564.6,413.8 569.0,413.8 573.4,413.8 577.8,413.8 582.2,413.8 586.6,413.8 591.0,413.8 595.4,413.8 599.8,413.8 604.2,413.8 608.6,413.8 613.0,413.8 617.4,413.8 621.8,413.8 626.2,413.8 630.6,413.8 635.0,413.8 639.4,413.8 643.8,413.8 648.2,413.8 652.5,413.8 656.9,413.8 661.3,413.8 665.7,413.8 670.1,413.8 674.5,413.8 678.9,413.8 683.3,413.8 687.7,413.8 692.1,413.8 696.5,413.8 700.9,413.8 705.3,413.8 709.7,413.8 714.1,413.7 718.5,413.7 722.9,413.7 727.3,413.7 731.7,413.7 736.1,413.7 740.4,413.7 744.8,413.7 749.2,413.7 753.6,413.7 758.0,413.7 762.4,413.7 766.8,413.7 771.2,413.7 775.6,413.6 780.0,413.4 780.0,416.7 775.6,417.3 771.2,417.9 766.8,417.9 762.4,417.9 758.0,417.9 753.6,417.9 749.2,417.9 744.8,417.9 740.4,417.9 736.1,417.9 731.7,417.9 727.3,417.9 722.9,417.9 718.5,417.9 714.1,417.9 709.7,417.9 705.3,417.9 700.9,417.9 696.5,417.9 692.1,417.9 687.7,417.9 683.3,417.9 678.9,417.9 674.5,417.9 670.1,417.9 665.7,417.9 661.3,417.9 656.9,417.9 652.5,417.9 648.2,417.9 643.8,417.9 639.4,417.9 635.0,417.9 630.6,417.9 626.2,417.9 621.8,417.9 617.4,417.9 613.0,417.9 608.6,417.9 604.2,417.9 599.8,417.9 595.4,417.9 591.0,417.9 586.6,417.9 582.2,417.9 577.8,417.9 573.4,417.9 569.0,417.9 564.6,417.9 560.3,417.9 555.9,417.9 551.5,417.9 547.1,417.9 542.7,417.9 538.3,417.9 533.9,417.9 529.5,417.9 525.1,417.9 520.7,417.9 516.3,417.9 511.9,417.9 507.5,417.9 503.1,417.9 498.7,417.9 494.3,417.9 489.9,417.9 485.5,417.9 481.1,417.9 476.8,417.9 472.4,417.9 468.0,417.9 463.6,417.9 459.2,417.9 454.8,417.9 450.4,417.9 446.0,417.9 441.6,417.9 437.2,417.9 432.8,417.9 428.4,417.9 424.0,417.9 419.6,417.9 415.2,417.9 410.8,417.9 406.4,417.9 402.0,417.9 397.6,418.0 393.2,418.0 388.9,418.0 384.5,418.0 380.1,418.0 375.7,418.0 371.3,418.0 366.9,418.0 362.5,418.0 358.1,418.1 353.7,418.1 349.3,418.1 344.9,418.1 340.5,418.1 336.1,418.1 331.7,418.1 327.3,418.1 322.9,418.1 318.5,418.1 314.1,418.1 309.7,418.1 305.4,418.1 301.0,418.1 296.6,418.1 292.2,418.1 287.8,418.1 283.4,418.1 279.0,418.2 274.6,418.2 270.2,418.2 265.8,418.3 261.4,418.3 257.0,418.8 252.6,418.8 248.2,418.8 243.8,418.9 239.4,418.9 235.0,422.9 230.6,422.9 226.2,422.9 221.8,422.9 217.5,423.0 213.1,423.0 208.7,423.2 204.3,423.2 199.9,423.3 195.5,423.3 191.1,423.3 186.7,424.2 182.3,424.3 177.9,421.0 173.5,421.0 169.1,421.0 164.7,421.0 160.3,421.0 155.9,421.1 151.5,421.1 147.1,425.2 142.7,425.3 138.3,425.3 133.9,427.8 129.6,428.1 125.2,428.3 120.8,650.0 116.4,650.0 112.0,650.0 107.6,650.0 103.2,650.0 98.8,650.0 94.4,650.0 90.0,650.0" fill="#6E4C13" opacity="0.6" class="anim" style="animation-delay:1100ms;"/>
<polygon points="90.0,650.0 94.4,650.0 98.8,650.0 103.2,650.0 107.6,650.0 112.0,650.0 116.4,650.0 120.8,650.0 125.2,414.4 129.6,414.4 133.9,414.3 138.3,413.7 142.7,413.7 147.1,413.7 151.5,412.7 155.9,412.7 160.3,412.7 164.7,412.7 169.1,412.7 173.5,412.7 177.9,412.7 182.3,413.5 186.7,413.4 191.1,413.2 195.5,413.2 199.9,413.2 204.3,413.2 208.7,413.2 213.1,413.1 217.5,413.1 221.8,413.1 226.2,413.1 230.6,413.1 235.0,413.1 239.4,412.2 243.8,412.1 248.2,412.1 252.6,412.1 257.0,412.1 261.4,412.0 265.8,412.0 270.2,412.0 274.6,412.0 279.0,412.0 283.4,412.0 287.8,412.0 292.2,412.0 296.6,412.0 301.0,412.0 305.4,412.0 309.7,412.0 314.1,412.0 318.5,412.0 322.9,412.0 327.3,412.0 331.7,412.0 336.1,412.0 340.5,411.9 344.9,411.9 349.3,411.9 353.7,411.9 358.1,411.9 362.5,411.9 366.9,411.9 371.3,411.9 375.7,411.9 380.1,411.9 384.5,411.9 388.9,411.9 393.2,411.9 397.6,411.9 402.0,411.9 406.4,411.9 410.8,411.9 415.2,411.9 419.6,411.9 424.0,411.9 428.4,411.9 432.8,411.9 437.2,411.9 441.6,411.9 446.0,411.9 450.4,411.9 454.8,411.9 459.2,411.9 463.6,411.9 468.0,411.9 472.4,411.9 476.8,411.9 481.1,411.9 485.5,411.9 489.9,411.9 494.3,411.9 498.7,411.9 503.1,411.9 507.5,411.9 511.9,411.9 516.3,411.9 520.7,411.9 525.1,411.9 529.5,411.9 533.9,411.9 538.3,411.9 542.7,411.9 547.1,411.9 551.5,411.9 555.9,411.9 560.3,411.9 564.6,411.9 569.0,411.9 573.4,411.9 577.8,411.9 582.2,411.9 586.6,411.9 591.0,411.9 595.4,411.9 599.8,411.9 604.2,411.9 608.6,411.9 613.0,411.9 617.4,411.9 621.8,411.9 626.2,411.9 630.6,411.9 635.0,411.9 639.4,411.9 643.8,411.9 648.2,411.9 652.5,411.9 656.9,411.9 661.3,411.9 665.7,411.9 670.1,411.9 674.5,411.9 678.9,411.9 683.3,411.9 687.7,411.9 692.1,411.9 696.5,411.9 700.9,411.9 705.3,411.9 709.7,411.9 714.1,411.9 718.5,411.9 722.9,411.9 727.3,411.9 731.7,411.9 736.1,411.9 740.4,411.9 744.8,411.9 749.2,411.9 753.6,411.9 758.0,411.9 762.4,411.9 766.8,411.9 771.2,411.9 775.6,411.9 780.0,411.9 780.0,413.4 775.6,413.6 771.2,413.7 766.8,413.7 762.4,413.7 758.0,413.7 753.6,413.7 749.2,413.7 744.8,413.7 740.4,413.7 736.1,413.7 731.7,413.7 727.3,413.7 722.9,413.7 718.5,413.7 714.1,413.7 709.7,413.8 705.3,413.8 700.9,413.8 696.5,413.8 692.1,413.8 687.7,413.8 683.3,413.8 678.9,413.8 674.5,413.8 670.1,413.8 665.7,413.8 661.3,413.8 656.9,413.8 652.5,413.8 648.2,413.8 643.8,413.8 639.4,413.8 635.0,413.8 630.6,413.8 626.2,413.8 621.8,413.8 617.4,413.8 613.0,413.8 608.6,413.8 604.2,413.8 599.8,413.8 595.4,413.8 591.0,413.8 586.6,413.8 582.2,413.8 577.8,413.8 573.4,413.8 569.0,413.8 564.6,413.8 560.3,413.8 555.9,413.8 551.5,413.8 547.1,413.8 542.7,413.8 538.3,413.8 533.9,413.8 529.5,413.8 525.1,413.8 520.7,413.8 516.3,413.8 511.9,413.8 507.5,413.8 503.1,413.8 498.7,413.8 494.3,413.8 489.9,413.8 485.5,413.8 481.1,413.8 476.8,413.8 472.4,413.8 468.0,413.8 463.6,413.8 459.2,413.8 454.8,413.8 450.4,413.8 446.0,413.8 441.6,413.8 437.2,413.8 432.8,413.8 428.4,413.8 424.0,413.8 419.6,413.8 415.2,413.8 410.8,413.8 406.4,413.8 402.0,413.8 397.6,413.8 393.2,413.8 388.9,413.8 384.5,413.8 380.1,413.8 375.7,413.8 371.3,413.8 366.9,413.8 362.5,413.8 358.1,413.8 353.7,413.8 349.3,413.8 344.9,413.8 340.5,413.8 336.1,413.9 331.7,413.9 327.3,413.9 322.9,413.9 318.5,413.9 314.1,413.9 309.7,413.9 305.4,413.9 301.0,413.9 296.6,413.9 292.2,413.9 287.8,413.9 283.4,413.9 279.0,413.9 274.6,413.9 270.2,413.9 265.8,413.9 261.4,413.9 257.0,414.2 252.6,414.2 248.2,414.2 243.8,414.2 239.4,414.2 235.0,416.2 230.6,416.2 226.2,416.2 221.8,416.2 217.5,416.2 213.1,416.2 208.7,416.3 204.3,416.3 199.9,416.3 195.5,416.3 191.1,416.3 186.7,416.8 182.3,416.8 177.9,415.2 173.5,415.2 169.1,415.2 164.7,415.2 160.3,415.2 155.9,415.3 151.5,415.3 147.1,417.2 142.7,417.3 138.3,417.3 133.9,418.5 129.6,418.6 125.2,418.7 120.8,650.0 116.4,650.0 112.0,650.0 107.6,650.0 103.2,650.0 98.8,650.0 94.4,650.0 90.0,650.0" fill="#b07219" opacity="0.6" class="anim" style="animation-delay:1200ms;"/>
<line x1="771.2" y1="100" x2="771.2" y2="650" stroke="#c9d1d9" stroke-width="1" stroke-dasharray="4,3" opacity="0.35"/>
<text x="775.6" y="112" text-anchor="middle" class="axis-label" opacity="0.6">Oct 12, 2026</text>
<text x="90.0" y="668" text-anchor="middle" class="axis-label" transform="rotate(-35 90.0 668)">2026-02</text>
<text x="230.6" y="668" text-anchor="middle" class="axis-label" transform="rotate(-35 230.6 668)">2026-03</text>
<text x="371.3" y="668" text-anchor="middle" class="axis-label" transform="rotate(-35 371.3 668)">2026-06</text>
<text x="511.9" y="668" text-anchor="middle" class="axis-label" transform="rotate(-35 511.9 668)">2026-07</text>
<text x="652.5" y="668" text-anchor="middle" class="axis-label" transform="rotate(-35 652.5 668)">2026-08</text>
<text x="771.2" y="668" text-anchor="middle" class="axis-label" transform="rotate(-35 771.2 668)">2026-09</text>
<line x1="796" y1="110" x2="824" y2="110" stroke="#3fb950" stroke-width="2"/>
<text x="832" y="116" class="legend-text">Lines Added</text>
<line x1="796" y1="140" x2="824" y2="140" stroke="#f85149" stroke-width="1.5"/>
<text x="832" y="146" class="legend-text">Lines Deleted</text>
<line x1="796" y1="170" x2="824" y2="170" stroke="#e3b341" stroke-width="1.5" stroke-dasharray="4,3"/>
<text x="832" y="176" class="legend-text">&#x2605; Stars</text>
<text x="796" y="200" class="subtitle">Languages</text>
<rect x="796" y="212" width="12" height="12" rx="2" fill="#e34c26" opacity="0.8" class="anim" style="animation-delay:800ms;"/>
<text x="814" y="223" class="legend-text">HTML (57%→55%)</text>
<rect x="796" y="234" width="12" height="12" rx="2" fill="#f1e05a" opacity="0.8" class="anim" style="animation-delay:880ms;"/>
<text x="814" y="245" class="legend-text">JavaScript (22%→25%)</text>
<rect x="796" y="256" width="12" height="12" rx="2" fill="#3572A5" opacity="0.8" class="anim" style="animation-delay:960ms;"/>
<text x="814" y="267" class="legend-text">Python (8%→6%)</text>
<rect x="796" y="278" width="12" height="12" rx="2" fill="#663399" opacity="0.8" class="anim" style="animation-delay:1040ms;"/>
<text x="814" y="289" class="legend-text">CSS (5%→6%)</text>
<rect x="796" y="300" width="12" height="12" rx="2" fill="#083fa1" opacity="0.8" class="anim" style="animation-delay:1120ms;"/>
<text x="814" y="311" class="legend-text">Markdown (2%→2%)</text>
<rect x="796" y="322" width="12" height="12" rx="2" fill="#F05138" opacity="0.8" class="anim" style="animation-delay:1200ms;"/>
<text x="814" y="333" class="legend-text">Swift (2%)</text>
<rect x="796" y="344" width="12" height="12" rx="2" fill="#6E4C13" opacity="0.8" class="anim" style="animation-delay:1280ms;"/>
<text x="814" y="355" class="legend-text">Assembly (2%→1%)</text>
<rect x="796" y="366" width="12" height="12" rx="2" fill="#b07219" opacity="0.8" class="anim" style="animation-delay:1360ms;"/>
<text x="814" y="377" class="legend-text">Java (1%→1%)</text>
<text x="796" y="412" class="subtitle">Contributions</text>
<text x="796" y="432" class="axis-label">2023: 39</text>
<text x="796" y="452" class="axis-label">2024: 646</text>
<text x="796" y="472" class="axis-label">2025: 1,780</text>
<text x="796" y="492" class="axis-label">2026: 575</text>
<text x="796" y="522" class="subtitle">Statistics</text>
<text x="796" y="542" class="axis-label">Active weeks: 91</text>
<text x="796" y="562" class="axis-label">Add/Del ratio: 1.8x</text>
<text x="796" y="582" class="axis-label">Avg lines/wk: 18K</text>
<text x="796" y="602" class="axis-label">Peak: 2026-02-15</text>
<text x="796" y="622" class="axis-label">  (543K lines)</text>
<text x="90" y="742" class="axis-label">Total: +1,048,231 / -581,807 lines &#xb7; 3,040 contributions &#xb7; 82 repos &#xb7; &#x2605; 37</text>
</svg>