<svg xmlns="http://www.w3.org/2000/svg" width="1000" height="760" style="max-width: 100%;" viewBox="0 0 1000 760">

<defs>
  <linearGradient id="areaGrad" x1="0" y1="0" x2="0" y2="1">
    <stop offset="0%" stop-color="#58a6ff" stop-opacity="0.35"/>
    <stop offset="100%" stop-color="#58a6ff" stop-opacity="0.02"/>
  </linearGradient>
  <linearGradient id="addGrad" x1="0" y1="0" x2="0" y2="1">
    <stop offset="0%" stop-color="#3fb950" stop-opacity="0.35"/>
    <stop offset="100%" stop-color="#3fb950" stop-opacity="0.02"/>
  </linearGradient>
  <linearGradient id="delGrad" x1="0" y1="0" x2="0" y2="1">
    <stop offset="0%" stop-color="#f85149" stop-opacity="0.25"/>
    <stop offset="100%" stop-color="#f85149" stop-opacity="0.02"/>
  </linearGradient>
</defs>
<style>
  .title { font: bold 28px 'Segoe UI', Ubuntu, Sans-Serif; fill: #c9d1d9; }
  .subtitle { font: 600 20px 'Segoe UI', Ubuntu, Sans-Serif; fill: #c9d1d9; opacity: 0.8; }
  .axis-label { font: 18px 'Segoe UI', Ubuntu, Sans-Serif; fill: #c9d1d9; opacity: 0.7; }
  .legend-text { font: 14px 'Segoe UI', Ubuntu, Sans-Serif; fill: #c9d1d9; }
  .value-text { font: bold 18px 'Segoe UI', Ubuntu, Sans-Serif; fill: #c9d1d9; }
  .stat-value { font: bold 22px 'Segoe UI', Ubuntu, Sans-Serif; fill: #c9d1d9; }
  .stat-label { font: 18px 'Segoe UI', Ubuntu, Sans-Serif; fill: #c9d1d9; opacity: 0.7; }
  @keyframes fadeIn { from { opacity: 0; } to { opacity: 1; } }
  .anim { animation: fadeIn 0.6s ease-in-out forwards; opacity: 0; }
</style>

<rect x="0.5" y="0.5" rx="4.5" width="999" height="759" fill="#161b22" stroke="#21262d"/>
<text x="90" y="45" class="title">Activity History</text>
<text x="90" y="72" class="subtitle">Lines added vs deleted &amp; activity trends over time</text>
<line x1="90" y1="340.0" x2="780" y2="340.0" stroke="#21262d" stroke-width="1"/>
<text x="82" y="344.0" text-anchor="end" class="axis-label">0</text>
<line x1="90" y1="280.0" x2="780" y2="280.0" stroke="#21262d" stroke-width="1"/>
<text x="82" y="284.0" text-anchor="end" class="axis-label">451K</text>
<line x1="90" y1="220.0" x2="780" y2="220.0" stroke="#21262d" stroke-width="1"/>
<text x="82" y="224.0" text-anchor="end" class="axis-label">903K</text>
<line x1="90" y1="160.0" x2="780" y2="160.0" stroke="#21262d" stroke-width="1"/>
<text x="82" y="164.0" text-anchor="end" class="axis-label">1.4M</text>
<line x1="90" y1="100.0" x2="780" y2="100.0" stroke="#21262d" stroke-width="1"/>
<text x="82" y="104.0" text-anchor="end" class="axis-label">1.8M</text>
<polygon points="90.0,340.0 90.0,291.5 97.9,293.2 105.9,291.5 113.8,293.3 121.7,304.4 129.7,282.2 137.6,282.2 145.5,273.8 153.4,273.5 161.4,273.0 169.3,272.9 177.2,258.0 185.2,258.0 193.1,257.9 201.0,235.8 209.0,235.5 216.9,235.2 224.8,235.2 232.8,235.2 240.7,235.2 248.6,235.2 256.6,234.7 264.5,219.9 272.4,219.9 280.3,219.9 288.3,219.9 296.2,219.5 304.1,219.5 312.1,218.9 320.0,218.9 327.9,218.8 335.9,218.8 343.8,218.8 351.7,218.8 359.7,218.9 367.6,218.8 375.5,218.8 383.4,218.8 391.4,218.8 399.3,218.8 407.2,218.8 415.2,218.2 423.1,218.4 431.0,217.8 439.0,217.4 446.9,217.4 454.8,217.4 462.8,217.4 470.7,217.4 478.6,217.4 486.6,217.4 494.5,217.4 502.4,217.4 510.3,217.4 518.3,217.7 526.2,219.2 534.1,217.7 542.1,216.5 550.0,216.4 557.9,216.4 565.9,216.4 573.8,216.4 581.7,208.8 589.7,201.9 597.6,201.9 605.5,201.9 613.4,201.9 621.4,201.9 629.3,201.9 637.2,201.9 645.2,201.9 653.1,201.7 661.0,201.7 669.0,201.7 676.9,201.7 684.8,201.7 692.8,201.7 700.7,201.7 708.6,201.7 716.6,201.7 724.5,201.7 732.4,201.7 740.3,201.7 748.3,201.7 756.2,201.7 764.1,201.7 772.1,194.5 780.0,187.3 780.0,340.0" fill="url(#addGrad)" class="anim" style="animation-delay:200ms;"/>
<polyline points="90.0,291.5 97.9,293.2 105.9,291.5 113.8,293.3 121.7,304.4 129.7,282.2 137.6,282.2 145.5,273.8 153.4,273.5 161.4,273.0 169.3,272.9 177.2,258.0 185.2,258.0 193.1,257.9 201.0,235.8 209.0,235.5 216.9,235.2 224.8,235.2 232.8,235.2 240.7,235.2 248.6,235.2 256.6,234.7 264.5,219.9 272.4,219.9 280.3,219.9 288.3,219.9 296.2,219.5 304.1,219.5 312.1,218.9 320.0,218.9 327.9,218.8 335.9,218.8 343.8,218.8 351.7,218.8 359.7,218.9 367.6,218.8 375.5,218.8 383.4,218.8 391.4,218.8 399.3,218.8 407.2,218.8 415.2,218.2 423.1,218.4 431.0,217.8 439.0,217.4 446.9,217.4 454.8,217.4 462.8,217.4 470.7,217.4 478.6,217.4 486.6,217.4 494.5,217.4 502.4,217.4 510.3,217.4 518.3,217.7 526.2,219.2 534.1,217.7 542.1,216.5 550.0,216.4 557.9,216.4 565.9,216.4 573.8,216.4 581.7,208.8 589.7,201.9 597.6,201.9 605.5,201.9 613.4,201.9 621.4,201.9 629.3,201.9 637.2,201.9 645.2,201.9 653.1,201.7 661.0,201.7 669.0,201.7 676.9,201.7 684.8,201.7 692.8,201.7 700.7,201.7 708.6,201.7 716.6,201.7 724.5,201.7 732.4,201.7 740.3,201.7 748.3,201.7 756.2,201.7 764.1,201.7" fill="none" stroke="#3fb950" stroke-width="2" stroke-linejoin="round" class="anim" style="animation-delay:250ms;"/>
<polyline points="764.1,201.7 772.1,194.5 780.0,187.3" fill="none" stroke="#3fb950" stroke-width="1.5" stroke-dasharray="5,4" stroke-linejoin="round" opacity="0.6" class="anim" style="animation-delay:250ms;"/>
<polygon points="90.0,340.0 90.0,326.4 97.9,327.8 105.9,326.4 113.8,327.8 121.7,333.6 129.7,324.7 137.6,324.7 145.5,323.7 153.4,323.4 161.4,323.1 169.3,323.1 177.2,307.0 185.2,307.0 193.1,307.0 201.0,288.8 209.0,288.6 216.9,288.6 224.8,288.6 232.8,288.6 240.7,288.6 248.6,288.6 256.6,279.1 264.5,264.6 272.4,264.5 280.3,264.5 288.3,264.5 296.2,264.4 304.1,264.4 312.1,264.4 320.0,264.3 327.9,264.3 335.9,264.3 343.8,264.3 351.7,264.3 359.7,264.3 367.6,264.3 375.5,264.3 383.4,264.3 391.4,264.3 399.3,264.3 407.2,264.3 415.2,264.3 423.1,264.4 431.0,263.9 439.0,263.9 446.9,263.9 454.8,263.9 462.8,263.9 470.7,263.9 478.6,263.9 486.6,263.9 494.5,263.9 502.4,263.9 510.3,263.9 518.3,264.0 526.2,264.8 534.1,264.3 542.1,263.5 550.0,263.4 557.9,263.4 565.9,263.4 573.8,263.4 581.7,263.3 589.7,263.3 597.6,263.3 605.5,263.3 613.4,263.3 621.4,263.3 629.3,263.3 637.2,263.3 645.2,263.3 653.1,263.3 661.0,263.3 669.0,263.3 676.9,263.3 684.8,263.3 692.8,263.3 700.7,263.3 708.6,263.3 716.6,263.3 724.5,263.3 732.4,263.3 740.3,263.3 748.3,263.3 756.2,263.3 764.1,263.3 772.1,258.0 780.0,252.7 780.0,340.0" fill="url(#delGrad)" class="anim" style="animation-delay:300ms;"/>
<polyline points="90.0,326.4 97.9,327.8 105.9,326.4 113.8,327.8 121.7,333.6 129.7,324.7 137.6,324.7 145.5,323.7 153.4,323.4 161.4,323.1 169.3,323.1 177.2,307.0 185.2,307.0 193.1,307.0 201.0,288.8 209.0,288.6 216.9,288.6 224.8,288.6 232.8,288.6 240.7,288.6 248.6,288.6 256.6,279.1 264.5,264.6 272.4,264.5 280.3,264.5 288.3,264.5 296.2,264.4 304.1,264.4 312.1,264.4 320.0,264.3 327.9,264.3 335.9,264.3 343.8,264.3 351.7,264.3 359.7,264.3 367.6,264.3 375.5,264.3 383.4,264.3 391.4,264.3 399.3,264.3 407.2,264.3 415.2,264.3 423.1,264.4 431.0,263.9 439.0,263.9 446.9,263.9 454.8,263.9 462.8,263.9 470.7,263.9 478.6,263.9 486.6,263.9 494.5,263.9 502.4,263.9 510.3,263.9 518.3,264.0 526.2,264.8 534.1,264.3 542.1,263.5 550.0,263.4 557.9,263.4 565.9,263.4 573.8,263.4 581.7,263.3 589.7,263.3 597.6,263.3 605.5,263.3 613.4,263.3 621.4,263.3 629.3,263.3 637.2,263.3 645.2,263.3 653.1,263.3 661.0,263.3 669.0,263.3 676.9,263.3 684.8,263.3 692.8,263.3 700.7,263.3 708.6,263.3 716.6,263.3 724.5,263.3 732.4,263.3 740.3,263.3 748.3,263.3 756.2,263.3 764.1,263.3" fill="none" stroke="#f85149" stroke-width="1.5" stroke-linejoin="round" class="anim" style="animation-delay:350ms;"/>
<polyline points="764.1,263.3 772.1,258.0 780.0,252.7" fill="none" stroke="#f85149" stroke-width="1" stroke-dasharray="5,4" stroke-linejoin="round" opacity="0.6" class="anim" style="animation-delay:350ms;"/>
<polyline points="90.0,340.0 97.9,340.0 105.9,340.0 113.8,340.0 121.7,340.0 129.7,340.0 137.6,340.0 145.5,340.0 153.4,308.0 161.4,308.0 169.3,308.0 177.2,308.0 185.2,308.0 193.1,308.0 201.0,308.0 209.0,308.0 216.9,308.0 224.8,308.0 232.8,308.0 240.7,308.0 248.6,308.0 256.6,308.0 264.5,308.0 272.4,308.0 280.3,308.0 288.3,308.0 296.2,308.0 304.1,308.0 312.1,308.0 320.0,308.0 327.9,308.0 335.9,308.0 343.8,308.0 351.7,308.0 359.7,276.0 367.6,276.0 375.5,276.0 383.4,276.0 391.4,276.0 399.3,276.0 407.2,276.0 415.2,276.0 423.1,244.0 431.0,244.0 439.0,244.0 446.9,244.0 454.8,244.0 462.8,244.0 470.7,244.0 478.6,244.0 486.6,244.0 494.5,244.0 502.4,244.0 510.3,244.0 518.3,244.0 526.2,244.0 534.1,244.0 542.1,244.0 550.0,180.0 557.9,180.0 565.9,180.0 573.8,180.0 581.7,180.0 589.7,180.0 597.6,180.0 605.5,180.0 613.4,180.0 621.4,180.0 629.3,180.0 637.2,180.0 645.2,180.0 653.1,180.0 661.0,180.0 669.0,180.0 676.9,180.0 684.8,180.0 692.8,180.0 700.7,180.0 708.6,180.0 716.6,180.0 724.5,180.0 732.4,180.0 740.3,180.0 748.3,180.0 756.2,180.0 764.1,180.0" fill="none" stroke="#e3b341" stroke-width="1.5" stroke-dasharray="4,3" stroke-linejoin="round" class="anim" style="animation-delay:400ms;"/>
<polyline points="764.1,180.0 772.1,180.0 780.0,148.0" fill="none" stroke="#e3b341" stroke-width="1" stroke-dasharray="3,5" stroke-linejoin="round" opacity="0.5" class="anim" style="animation-delay:400ms;"/>
<text x="90" y="90" class="subtitle">Lines Added vs Deleted (per snapshot)</text>
<text x="90" y="400" class="subtitle">Programming Language Development (%)</text>
<line x1="90" y1="650.0" x2="780" y2="650.0" stroke="#21262d" stroke-width="1"/>
<text x="82" y="654.0" text-anchor="end" class="axis-label">0%</text>
<line x1="90" y1="590.0" x2="780" y2="590.0" stroke="#21262d" stroke-width="1"/>
<text x="82" y="594.0" text-anchor="end" class="axis-label">25%</text>
<line x1="90" y1="530.0" x2="780" y2="530.0" stroke="#21262d" stroke-width="1"/>
<text x="82" y="534.0" text-anchor="end" class="axis-label">50%</text>
<line x1="90" y1="470.0" x2="780" y2="470.0" stroke="#21262d" stroke-width="1"/>
<text x="82" y="474.0" text-anchor="end" class="axis-label">75%</text>
<line x1="90" y1="410.0" x2="780" y2="410.0" stroke="#21262d" stroke-width="1"/>
<text x="82" y="414.0" text-anchor="end" class="axis-label">100%</text>
<polygon points="90.0,650.0 97.9,650.0 105.9,650.0 113.8,650.0 121.7,650.0 129.7,650.0 137.6,650.0 145.5,650.0 153.4,528.2 161.4,528.5 169.3,529.7 177.2,499.3 185.2,499.3 193.1,502.9 201.0,485.0 209.0,485.1 216.9,485.4 224.8,485.4 232.8,485.4 240.7,485.4 248.6,485.4 256.6,496.4 264.5,496.7 272.4,491.0 280.3,491.0 288.3,491.0 296.2,491.7 304.1,491.8 312.1,494.0 320.0,494.0 327.9,494.4 335.9,494.4 343.8,494.4 351.7,494.4 359.7,507.6 367.6,507.6 375.5,507.9 383.4,507.9 391.4,507.9 399.3,506.3 407.2,506.4 415.2,506.8 423.1,506.9 431.0,506.8 439.0,507.5 446.9,507.5 454.8,507.5 462.8,507.5 470.7,507.5 478.6,507.5 486.6,507.5 494.5,507.5 502.4,507.5 510.3,507.5 518.3,507.5 526.2,507.5 534.1,507.5 542.1,508.6 550.0,508.6 557.9,508.6 565.9,508.6 573.8,508.6 581.7,509.5 589.7,509.8 597.6,509.8 605.5,509.8 613.4,509.8 621.4,509.8 629.3,509.8 637.2,509.8 645.2,509.8 653.1,510.9 661.0,510.9 669.0,510.9 676.9,510.9 684.8,510.9 692.8,510.9 700.7,510.9 708.6,510.9 716.6,510.9 724.5,510.9 732.4,510.9 740.3,510.9 748.3,510.9 756.2,510.9 764.1,510.9 772.1,512.8 780.0,514.7 780.0,650.0 772.1,650.0 764.1,650.0 756.2,650.0 748.3,650.0 740.3,650.0 732.4,650.0 724.5,650.0 716.6,650.0 708.6,650.0 700.7,650.0 692.8,650.0 684.8,650.0 676.9,650.0 669.0,650.0 661.0,650.0 653.1,650.0 645.2,650.0 637.2,650.0 629.3,650.0 621.4,650.0 613.4,650.0 605.5,650.0 597.6,650.0 589.7,650.0 581.7,650.0 573.8,650.0 565.9,650.0 557.9,650.0 550.0,650.0 542.1,650.0 534.1,650.0 526.2,650.0 518.3,650.0 510.3,650.0 502.4,650.0 494.5,650.0 486.6,650.0 478.6,650.0 470.7,650.0 462.8,650.0 454.8,650.0 446.9,650.0 439.0,650.0 431.0,650.0 423.1,650.0 415.2,650.0 407.2,650.0 399.3,650.0 391.4,650.0 383.4,650.0 375.5,650.0 367.6,650.0 359.7,650.0 351.7,650.0 343.8,650.0 335.9,650.0 327.9,650.0 320.0,650.0 312.1,650.0 304.1,650.0 296.2,650.0 288.3,650.0 280.3,650.0 272.4,650.0 264.5,650.0 256.6,650.0 248.6,650.0 240.7,650.0 232.8,650.0 224.8,650.0 216.9,650.0 209.0,650.0 201.0,650.0 193.1,650.0 185.2,650.0 177.2,650.0 169.3,650.0 161.4,650.0 153.4,650.0 145.5,650.0 137.6,650.0 129.7,650.0 121.7,650.0 113.8,650.0 105.9,650.0 97.9,650.0 90.0,650.0" fill="#e34c26" opacity="0.6" class="anim" style="animation-delay:500ms;"/>
<polygon points="90.0,650.0 97.9,650.0 105.9,650.0 113.8,650.0 121.7,650.0 129.7,650.0 137.6,650.0 145.5,650.0 153.4,488.4 161.4,488.0 169.3,489.0 177.2,476.0 185.2,476.0 193.1,477.2 201.0,460.1 209.0,460.2 216.9,460.6 224.8,460.6 232.8,460.6 240.7,460.6 248.6,460.6 256.6,473.0 264.5,473.5 272.4,469.5 280.3,469.5 288.3,469.5 296.2,469.7 304.1,469.7 312.1,469.7 320.0,469.7 327.9,469.7 335.9,469.7 343.8,469.7 351.7,469.7 359.7,455.6 367.6,455.6 375.5,455.4 383.4,455.4 391.4,455.4 399.3,454.3 407.2,454.3 415.2,455.0 423.1,455.1 431.0,454.9 439.0,455.9 446.9,455.9 454.8,455.9 462.8,455.9 470.7,455.9 478.6,455.9 486.6,455.9 494.5,455.9 502.4,455.9 510.3,455.9 518.3,455.9 526.2,455.9 534.1,455.9 542.1,455.8 550.0,455.8 557.9,455.8 565.9,455.8 573.8,455.8 581.7,457.0 589.7,457.4 597.6,457.4 605.5,457.4 613.4,457.4 621.4,457.4 629.3,457.4 637.2,457.4 645.2,457.4 653.1,458.2 661.0,458.2 669.0,458.2 676.9,458.2 684.8,458.2 692.8,458.2 700.7,458.2 708.6,458.2 716.6,458.2 724.5,458.2 732.4,458.2 740.3,458.2 748.3,458.2 756.2,458.2 764.1,458.2 772.1,456.5 780.0,454.8 780.0,514.7 772.1,512.8 764.1,510.9 756.2,510.9 748.3,510.9 740.3,510.9 732.4,510.9 724.5,510.9 716.6,510.9 708.6,510.9 700.7,510.9 692.8,510.9 684.8,510.9 676.9,510.9 669.0,510.9 661.0,510.9 653.1,510.9 645.2,509.8 637.2,509.8 629.3,509.8 621.4,509.8 613.4,509.8 605.5,509.8 597.6,509.8 589.7,509.8 581.7,509.5 573.8,508.6 565.9,508.6 557.9,508.6 550.0,508.6 542.1,508.6 534.1,507.5 526.2,507.5 518.3,507.5 510.3,507.5 502.4,507.5 494.5,507.5 486.6,507.5 478.6,507.5 470.7,507.5 462.8,507.5 454.8,507.5 446.9,507.5 439.0,507.5 431.0,506.8 423.1,506.9 415.2,506.8 407.2,506.4 399.3,506.3 391.4,507.9 383.4,507.9 375.5,507.9 367.6,507.6 359.7,507.6 351.7,494.4 343.8,494.4 335.9,494.4 327.9,494.4 320.0,494.0 312.1,494.0 304.1,491.8 296.2,491.7 288.3,491.0 280.3,491.0 272.4,491.0 264.5,496.7 256.6,496.4 248.6,485.4 240.7,485.4 232.8,485.4 224.8,485.4 216.9,485.4 209.0,485.1 201.0,485.0 193.1,502.9 185.2,499.3 177.2,499.3 169.3,529.7 161.4,528.5 153.4,528.2 145.5,650.0 137.6,650.0 129.7,650.0 121.7,650.0 113.8,650.0 105.9,650.0 97.9,650.0 90.0,650.0" fill="#f1e05a" opacity="0.6" class="anim" style="animation-delay:600ms;"/>
<polygon points="90.0,650.0 97.9,650.0 105.9,650.0 113.8,650.0 121.7,650.0 129.7,650.0 137.6,650.0 145.5,650.0 153.4,455.5 161.4,455.4 169.3,455.1 177.2,447.0 185.2,447.0 193.1,448.2 201.0,438.9 209.0,439.0 216.9,439.6 224.8,439.6 232.8,439.6 240.7,439.6 248.6,439.6 256.6,445.6 264.5,445.6 272.4,443.3 280.3,443.3 288.3,443.3 296.2,443.6 304.1,443.6 312.1,444.1 320.0,444.1 327.9,444.1 335.9,444.1 343.8,444.1 351.7,444.1 359.7,437.5 367.6,437.5 375.5,437.5 383.4,437.5 391.4,437.5 399.3,437.5 407.2,437.5 415.2,438.4 423.1,438.5 431.0,438.3 439.0,439.3 446.9,439.3 454.8,439.3 462.8,439.3 470.7,439.3 478.6,439.3 486.6,439.3 494.5,439.3 502.4,439.3 510.3,439.3 518.3,439.3 526.2,439.3 534.1,439.3 542.1,439.4 550.0,439.4 557.9,439.4 565.9,439.4 573.8,439.4 581.7,440.7 589.7,441.1 597.6,441.1 605.5,441.1 613.4,441.1 621.4,441.1 629.3,441.1 637.2,441.1 645.2,441.1 653.1,442.0 661.0,442.0 669.0,442.0 676.9,442.0 684.8,442.0 692.8,442.0 700.7,442.0 708.6,442.0 716.6,442.0 724.5,442.0 732.4,442.0 740.3,442.0 748.3,442.0 756.2,442.0 764.1,442.0 772.1,441.8 780.0,441.5 780.0,454.8 772.1,456.5 764.1,458.2 756.2,458.2 748.3,458.2 740.3,458.2 732.4,458.2 724.5,458.2 716.6,458.2 708.6,458.2 700.7,458.2 692.8,458.2 684.8,458.2 676.9,458.2 669.0,458.2 661.0,458.2 653.1,458.2 645.2,457.4 637.2,457.4 629.3,457.4 621.4,457.4 613.4,457.4 605.5,457.4 597.6,457.4 589.7,457.4 581.7,457.0 573.8,455.8 565.9,455.8 557.9,455.8 550.0,455.8 542.1,455.8 534.1,455.9 526.2,455.9 518.3,455.9 510.3,455.9 502.4,455.9 494.5,455.9 486.6,455.9 478.6,455.9 470.7,455.9 462.8,455.9 454.8,455.9 446.9,455.9 439.0,455.9 431.0,454.9 423.1,455.1 415.2,455.0 407.2,454.3 399.3,454.3 391.4,455.4 383.4,455.4 375.5,455.4 367.6,455.6 359.7,455.6 351.7,469.7 343.8,469.7 335.9,469.7 327.9,469.7 320.0,469.7 312.1,469.7 304.1,469.7 296.2,469.7 288.3,469.5 280.3,469.5 272.4,469.5 264.5,473.5 256.6,473.0 248.6,460.6 240.7,460.6 232.8,460.6 224.8,460.6 216.9,460.6 209.0,460.2 201.0,460.1 193.1,477.2 185.2,476.0 177.2,476.0 169.3,489.0 161.4,488.0 153.4,488.4 145.5,650.0 137.6,650.0 129.7,650.0 121.7,650.0 113.8,650.0 105.9,650.0 97.9,650.0 90.0,650.0" fill="#3572A5" opacity="0.6" class="anim" style="animation-delay:700ms;"/>
<polygon points="90.0,650.0 97.9,650.0 105.9,650.0 113.8,650.0 121.7,650.0 129.7,650.0 137.6,650.0 145.5,650.0 153.4,442.3 161.4,442.0 169.3,441.6 177.2,439.5 185.2,439.5 193.1,439.4 201.0,432.3 209.0,432.2 216.9,432.6 224.8,432.6 232.8,432.6 240.7,432.6 248.6,432.6 256.6,439.3 264.5,439.3 272.4,437.4 280.3,437.4 288.3,437.4 296.2,437.3 304.1,437.3 312.1,437.1 320.0,437.1 327.9,437.1 335.9,437.1 343.8,437.1 351.7,437.1 359.7,428.7 367.6,428.6 375.5,428.5 383.4,428.5 391.4,428.5 399.3,427.3 407.2,427.3 415.2,427.1 423.1,427.1 431.0,427.1 439.0,427.0 446.9,427.0 454.8,427.0 462.8,427.0 470.7,427.0 478.6,427.0 486.6,427.0 494.5,427.0 502.4,427.0 510.3,427.0 518.3,427.0 526.2,427.0 534.1,427.0 542.1,427.0 550.0,427.1 557.9,427.1 565.9,427.1 573.8,427.1 581.7,428.4 589.7,428.9 597.6,428.9 605.5,428.9 613.4,428.9 621.4,428.9 629.3,428.9 637.2,428.9 645.2,428.9 653.1,428.7 661.0,428.7 669.0,428.7 676.9,428.7 684.8,428.7 692.8,428.7 700.7,428.7 708.6,428.7 716.6,428.7 724.5,428.7 732.4,428.7 740.3,428.7 748.3,428.7 756.2,428.7 764.1,428.7 772.1,427.7 780.0,426.8 780.0,441.5 772.1,441.8 764.1,442.0 756.2,442.0 748.3,442.0 740.3,442.0 732.4,442.0 724.5,442.0 716.6,442.0 708.6,442.0 700.7,442.0 692.8,442.0 684.8,442.0 676.9,442.0 669.0,442.0 661.0,442.0 653.1,442.0 645.2,441.1 637.2,441.1 629.3,441.1 621.4,441.1 613.4,441.1 605.5,441.1 597.6,441.1 589.7,441.1 581.7,440.7 573.8,439.4 565.9,439.4 557.9,439.4 550.0,439.4 542.1,439.4 534.1,439.3 526.2,439.3 518.3,439.3 510.3,439.3 502.4,439.3 494.5,439.3 486.6,439.3 478.6,439.3 470.7,439.3 462.8,439.3 454.8,439.3 446.9,439.3 439.0,439.3 431.0,438.3 423.1,438.5 415.2,438.4 407.2,437.5 399.3,437.5 391.4,437.5 383.4,437.5 375.5,437.5 367.6,437.5 359.7,437.5 351.7,444.1 343.8,444.1 335.9,444.1 327.9,444.1 320.0,444.1 312.1,444.1 304.1,443.6 296.2,443.6 288.3,443.3 280.3,443.3 272.4,443.3 264.5,445.6 256.6,445.6 248.6,439.6 240.7,439.6 232.8,439.6 224.8,439.6 216.9,439.6 209.0,439.0 201.0,438.9 193.1,448.2 185.2,447.0 177.2,447.0 169.3,455.1 161.4,455.4 153.4,455.5 145.5,650.0 137.6,650.0 129.7,650.0 121.7,650.0 113.8,650.0 105.9,650.0 97.9,650.0 90.0,650.0" fill="#663399" opacity="0.6" class="anim" style="animation-delay:800ms;"/>
<polygon points="90.0,650.0 97.9,650.0 105.9,650.0 113.8,650.0 121.7,650.0 129.7,650.0 137.6,650.0 145.5,650.0 153.4,436.6 161.4,436.3 169.3,435.9 177.2,432.2 185.2,432.2 193.1,432.2 201.0,426.2 209.0,426.1 216.9,426.0 224.8,426.0 232.8,426.0 240.7,426.0 248.6,426.0 256.6,430.8 264.5,430.7 272.4,429.3 280.3,429.3 288.3,429.3 296.2,429.2 304.1,429.2 312.1,428.9 320.0,428.9 327.9,428.8 335.9,428.8 343.8,428.8 351.7,428.8 359.7,423.0 367.6,422.9 375.5,422.9 383.4,422.9 391.4,422.9 399.3,422.0 407.2,422.0 415.2,421.9 423.1,421.9 431.0,421.9 439.0,421.8 446.9,421.8 454.8,421.8 462.8,421.8 470.7,421.8 478.6,421.8 486.6,421.8 494.5,421.8 502.4,421.8 510.3,421.8 518.3,421.8 526.2,421.8 534.1,421.8 542.1,421.7 550.0,421.8 557.9,421.8 565.9,421.8 573.8,421.8 581.7,423.2 589.7,423.6 597.6,423.6 605.5,423.6 613.4,423.6 621.4,423.6 629.3,423.6 637.2,423.6 645.2,423.6 653.1,423.5 661.0,423.5 669.0,423.5 676.9,423.5 684.8,423.5 692.8,423.5 700.7,423.5 708.6,423.5 716.6,423.5 724.5,423.5 732.4,423.5 740.3,423.5 748.3,423.5 756.2,423.5 764.1,423.5 772.1,422.8 780.0,422.1 780.0,426.8 772.1,427.7 764.1,428.7 756.2,428.7 748.3,428.7 740.3,428.7 732.4,428.7 724.5,428.7 716.6,428.7 708.6,428.7 700.7,428.7 692.8,428.7 684.8,428.7 676.9,428.7 669.0,428.7 661.0,428.7 653.1,428.7 645.2,428.9 637.2,428.9 629.3,428.9 621.4,428.9 613.4,428.9 605.5,428.9 597.6,428.9 589.7,428.9 581.7,428.4 573.8,427.1 565.9,427.1 557.9,427.1 550.0,427.1 542.1,427.0 534.1,427.0 526.2,427.0 518.3,427.0 510.3,427.0 502.4,427.0 494.5,427.0 486.6,427.0 478.6,427.0 470.7,427.0 462.8,427.0 454.8,427.0 446.9,427.0 439.0,427.0 431.0,427.1 423.1,427.1 415.2,427.1 407.2,427.3 399.3,427.3 391.4,428.5 383.4,428.5 375.5,428.5 367.6,428.6 359.7,428.7 351.7,437.1 343.8,437.1 335.9,437.1 327.9,437.1 320.0,437.1 312.1,437.1 304.1,437.3 296.2,437.3 288.3,437.4 280.3,437.4 272.4,437.4 264.5,439.3 256.6,439.3 248.6,432.6 240.7,432.6 232.8,432.6 224.8,432.6 216.9,432.6 209.0,432.2 201.0,432.3 193.1,439.4 185.2,439.5 177.2,439.5 169.3,441.6 161.4,442.0 153.4,442.3 145.5,650.0 137.6,650.0 129.7,650.0 121.7,650.0 113.8,650.0 105.9,650.0 97.9,650.0 90.0,650.0" fill="#083fa1" opacity="0.6" class="anim" style="animation-delay:900ms;"/>
<polygon points="90.0,650.0 97.9,650.0 105.9,650.0 113.8,650.0 121.7,650.0 129.7,650.0 137.6,650.0 145.5,650.0 153.4,428.3 161.4,428.1 169.3,427.8 177.2,425.3 185.2,425.3 193.1,425.2 201.0,421.1 209.0,421.1 216.9,421.0 224.8,421.0 232.8,421.0 240.7,421.0 248.6,421.0 256.6,424.3 264.5,424.2 272.4,423.3 280.3,423.3 288.3,423.3 296.2,423.2 304.1,423.2 312.1,423.0 320.0,423.0 327.9,422.9 335.9,422.9 343.8,422.9 351.7,422.9 359.7,418.9 367.6,418.9 375.5,418.8 383.4,418.8 391.4,418.8 399.3,418.3 407.2,418.3 415.2,418.2 423.1,418.2 431.0,418.2 439.0,418.1 446.9,418.1 454.8,418.1 462.8,418.1 470.7,418.1 478.6,418.1 486.6,418.1 494.5,418.1 502.4,418.1 510.3,418.1 518.3,418.1 526.2,418.1 534.1,418.1 542.1,418.1 550.0,418.1 557.9,418.1 565.9,418.1 573.8,418.1 581.7,418.0 589.7,418.0 597.6,418.0 605.5,418.0 613.4,418.0 621.4,418.0 629.3,418.0 637.2,418.0 645.2,418.0 653.1,417.9 661.0,417.9 669.0,417.9 676.9,417.9 684.8,417.9 692.8,417.9 700.7,417.9 708.6,417.9 716.6,417.9 724.5,417.9 732.4,417.9 740.3,417.9 748.3,417.9 756.2,417.9 764.1,417.9 772.1,417.3 780.0,416.7 780.0,422.1 772.1,422.8 764.1,423.5 756.2,423.5 748.3,423.5 740.3,423.5 732.4,423.5 724.5,423.5 716.6,423.5 708.6,423.5 700.7,423.5 692.8,423.5 684.8,423.5 676.9,423.5 669.0,423.5 661.0,423.5 653.1,423.5 645.2,423.6 637.2,423.6 629.3,423.6 621.4,423.6 613.4,423.6 605.5,423.6 597.6,423.6 589.7,423.6 581.7,423.2 573.8,421.8 565.9,421.8 557.9,421.8 550.0,421.8 542.1,421.7 534.1,421.8 526.2,421.8 518.3,421.8 510.3,421.8 502.4,421.8 494.5,421.8 486.6,421.8 478.6,421.8 470.7,421.8 462.8,421.8 454.8,421.8 446.9,421.8 439.0,421.8 431.0,421.9 423.1,421.9 415.2,421.9 407.2,422.0 399.3,422.0 391.4,422.9 383.4,422.9 375.5,422.9 367.6,422.9 359.7,423.0 351.7,428.8 343.8,428.8 335.9,428.8 327.9,428.8 320.0,428.9 312.1,428.9 304.1,429.2 296.2,429.2 288.3,429.3 280.3,429.3 272.4,429.3 264.5,430.7 256.6,430.8 248.6,426.0 240.7,426.0 232.8,426.0 224.8,426.0 216.9,426.0 209.0,426.1 201.0,426.2 193.1,432.2 185.2,432.2 177.2,432.2 169.3,435.9 161.4,436.3 153.4,436.6 145.5,650.0 137.6,650.0 129.7,650.0 121.7,650.0 113.8,650.0 105.9,650.0 97.9,650.0 90.0,650.0" fill="#F05138" opacity="0.6" class="anim" style="animation-delay:1000ms;"/>
<polygon points="90.0,650.0 97.9,650.0 105.9,650.0 113.8,650.0 121.7,650.0 129.7,650.0 137.6,650.0 145.5,650.0 153.4,418.7 161.4,418.6 169.3,418.5 177.2,417.3 185.2,417.3 193.1,417.2 201.0,415.3 209.0,415.3 216.9,415.2 224.8,415.2 232.8,415.2 240.7,415.2 248.6,415.2 256.6,416.8 264.5,416.8 272.4,416.3 280.3,416.3 288.3,416.3 296.2,416.3 304.1,416.3 312.1,416.2 320.0,416.2 327.9,416.2 335.9,416.2 343.8,416.2 351.7,416.2 359.7,414.2 367.6,414.2 375.5,414.2 383.4,414.2 391.4,414.2 399.3,413.9 407.2,413.9 415.2,413.9 423.1,413.9 431.0,413.9 439.0,413.9 446.9,413.9 454.8,413.9 462.8,413.9 470.7,413.9 478.6,413.9 486.6,413.9 494.5,413.9 502.4,413.9 510.3,413.9 518.3,413.9 526.2,413.9 534.1,413.9 542.1,413.8 550.0,413.8 557.9,413.8 565.9,413.8 573.8,413.8 581.7,413.8 589.7,413.8 597.6,413.8 605.5,413.8 613.4,413.8 621.4,413.8 629.3,413.8 637.2,413.8 645.2,413.8 653.1,413.8 661.0,413.8 669.0,413.8 676.9,413.8 684.8,413.8 692.8,413.8 700.7,413.8 708.6,413.8 716.6,413.8 724.5,413.8 732.4,413.8 740.3,413.8 748.3,413.8 756.2,413.8 764.1,413.8 772.1,413.6 780.0,413.4 780.0,416.7 772.1,417.3 764.1,417.9 756.2,417.9 748.3,417.9 740.3,417.9 732.4,417.9 724.5,417.9 716.6,417.9 708.6,417.9 700.7,417.9 692.8,417.9 684.8,417.9 676.9,417.9 669.0,417.9 661.0,417.9 653.1,417.9 645.2,418.0 637.2,418.0 629.3,418.0 621.4,418.0 613.4,418.0 605.5,418.0 597.6,418.0 589.7,418.0 581.7,418.0 573.8,418.1 565.9,418.1 557.9,418.1 550.0,418.1 542.1,418.1 534.1,418.1 526.2,418.1 518.3,418.1 510.3,418.1 502.4,418.1 494.5,418.1 486.6,418.1 478.6,418.1 470.7,418.1 462.8,418.1 454.8,418.1 446.9,418.1 439.0,418.1 431.0,418.2 423.1,418.2 415.2,418.2 407.2,418.3 399.3,418.3 391.4,418.8 383.4,418.8 375.5,418.8 367.6,418.9 359.7,418.9 351.7,422.9 343.8,422.9 335.9,422.9 327.9,422.9 320.0,423.0 312.1,423.0 304.1,423.2 296.2,423.2 288.3,423.3 280.3,423.3 272.4,423.3 264.5,424.2 256.6,424.3 248.6,421.0 240.7,421.0 232.8,421.0 224.8,421.0 216.9,421.0 209.0,421.1 201.0,421.1 193.1,425.2 185.2,425.3 177.2,425.3 169.3,427.8 161.4,428.1 153.4,428.3 145.5,650.0 137.6,650.0 129.7,650.0 121.7,650.0 113.8,650.0 105.9,650.0 97.9,650.0 90.0,650.0" fill="#6E4C13" opacity="0.6" class="anim" style="animation-delay:1100ms;"/>
<polygon points="90.0,650.0 97.9,650.0 105.9,650.0 113.8,650.0 121.7,650.0 129.7,650.0 137.6,650.0 145.5,650.0 153.4,414.4 161.4,414.4 169.3,414.3 177.2,413.7 185.2,413.7 193.1,413.7 201.0,412.7 209.0,412.7 216.9,412.7 224.8,412.7 232.8,412.7 240.7,412.7 248.6,412.7 256.6,413.5 264.5,413.4 272.4,413.2 280.3,413.2 288.3,413.2 296.2,413.2 304.1,413.2 312.1,413.1 320.0,413.1 327.9,413.1 335.9,413.1 343.8,413.1 351.7,413.1 359.7,412.2 367.6,412.1 375.5,412.1 383.4,412.1 391.4,412.1 399.3,412.0 407.2,412.0 415.2,412.0 423.1,412.0 431.0,412.0 439.0,412.0 446.9,412.0 454.8,412.0 462.8,412.0 470.7,412.0 478.6,412.0 486.6,412.0 494.5,412.0 502.4,412.0 510.3,412.0 518.3,412.0 526.2,412.0 534.1,412.0 542.1,411.9 550.0,411.9 557.9,411.9 565.9,411.9 573.8,411.9 581.7,411.9 589.7,411.9 597.6,411.9 605.5,411.9 613.4,411.9 621.4,411.9 629.3,411.9 637.2,411.9 645.2,411.9 653.1,411.9 661.0,411.9 669.0,411.9 676.9,411.9 684.8,411.9 692.8,411.9 700.7,411.9 708.6,411.9 716.6,411.9 724.5,411.9 732.4,411.9 740.3,411.9 748.3,411.9 756.2,411.9 764.1,411.9 772.1,411.9 780.0,411.9 780.0,413.4 772.1,413.6 764.1,413.8 756.2,413.8 748.3,413.8 740.3,413.8 732.4,413.8 724.5,413.8 716.6,413.8 708.6,413.8 700.7,413.8 692.8,413.8 684.8,413.8 676.9,413.8 669.0,413.8 661.0,413.8 653.1,413.8 645.2,413.8 637.2,413.8 629.3,413.8 621.4,413.8 613.4,413.8 605.5,413.8 597.6,413.8 589.7,413.8 581.7,413.8 573.8,413.8 565.9,413.8 557.9,413.8 550.0,413.8 542.1,413.8 534.1,413.9 526.2,413.9 518.3,413.9 510.3,413.9 502.4,413.9 494.5,413.9 486.6,413.9 478.6,413.9 470.7,413.9 462.8,413.9 454.8,413.9 446.9,413.9 439.0,413.9 431.0,413.9 423.1,413.9 415.2,413.9 407.2,413.9 399.3,413.9 391.4,414.2 383.4,414.2 375.5,414.2 367.6,414.2 359.7,414.2 351.7,416.2 343.8,416.2 335.9,416.2 327.9,416.2 320.0,416.2 312.1,416.2 304.1,416.3 296.2,416.3 288.3,416.3 280.3,416.3 272.4,416.3 264.5,416.8 256.6,416.8 248.6,415.2 240.7,415.2 232.8,415.2 224.8,415.2 216.9,415.2 209.0,415.3 201.0,415.3 193.1,417.2 185.2,417.3 177.2,417.3 169.3,418.5 161.4,418.6 153.4,418.7 145.5,650.0 137.6,650.0 129.7,650.0 121.7,650.0 113.8,650.0 105.9,650.0 97.9,650.0 90.0,650.0" fill="#b07219" opacity="0.6" class="anim" style="animation-delay:1200ms;"/>
<line x1="764.1" y1="100" x2="764.1" y2="650" stroke="#c9d1d9" stroke-width="1" stroke-dasharray="4,3" opacity="0.35"/>
<text x="772.1" y="112" text-anchor="middle" class="axis-label" opacity="0.6">Jul 17, 2026</text>
<text x="90.0" y="668" text-anchor="middle" class="axis-label" transform="rotate(-35 90.0 668)">2026-02</text>
<text x="304.1" y="668" text-anchor="middle" class="axis-label" transform="rotate(-35 304.1 668)">2026-03</text>
<text x="518.3" y="668" text-anchor="middle" class="axis-label" transform="rotate(-35 518.3 668)">2026-04</text>
<text x="589.7" y="668" text-anchor="middle" class="axis-label" transform="rotate(-35 589.7 668)">2026-06</text>
<text x="764.1" y="668" text-anchor="middle" class="axis-label" transform="rotate(-35 764.1 668)">2026-07</text>
<line x1="796" y1="110" x2="824" y2="110" stroke="#3fb950" stroke-width="2"/>
<text x="832" y="116" class="legend-text">Lines Added</text>
<line x1="796" y1="140" x2="824" y2="140" stroke="#f85149" stroke-width="1.5"/>
<text x="832" y="146" class="legend-text">Lines Deleted</text>
<line x1="796" y1="170" x2="824" y2="170" stroke="#e3b341" stroke-width="1.5" stroke-dasharray="4,3"/>
<text x="832" y="176" class="legend-text">&#x2605; Stars</text>
<text x="796" y="200" class="subtitle">Languages</text>
<rect x="796" y="212" width="12" height="12" rx="2" fill="#e34c26" opacity="0.8" class="anim" style="animation-delay:800ms;"/>
<text x="814" y="223" class="legend-text">HTML (58%→56%)</text>
<rect x="796" y="234" width="12" height="12" rx="2" fill="#f1e05a" opacity="0.8" class="anim" style="animation-delay:880ms;"/>
<text x="814" y="245" class="legend-text">JavaScript (22%→25%)</text>
<rect x="796" y="256" width="12" height="12" rx="2" fill="#3572A5" opacity="0.8" class="anim" style="animation-delay:960ms;"/>
<text x="814" y="267" class="legend-text">Python (7%→6%)</text>
<rect x="796" y="278" width="12" height="12" rx="2" fill="#663399" opacity="0.8" class="anim" style="animation-delay:1040ms;"/>
<text x="814" y="289" class="legend-text">CSS (6%→6%)</text>
<rect x="796" y="300" width="12" height="12" rx="2" fill="#083fa1" opacity="0.8" class="anim" style="animation-delay:1120ms;"/>
<text x="814" y="311" class="legend-text">Markdown (2%→2%)</text>
<rect x="796" y="322" width="12" height="12" rx="2" fill="#F05138" opacity="0.8" class="anim" style="animation-delay:1200ms;"/>
<text x="814" y="333" class="legend-text">Swift (2%→2%)</text>
<rect x="796" y="344" width="12" height="12" rx="2" fill="#6E4C13" opacity="0.8" class="anim" style="animation-delay:1280ms;"/>
<text x="814" y="355" class="legend-text">Assembly (2%→1%)</text>
<rect x="796" y="366" width="12" height="12" rx="2" fill="#b07219" opacity="0.8" class="anim" style="animation-delay:1360ms;"/>
<text x="814" y="377" class="legend-text">Java (1%→1%)</text>
<text x="796" y="412" class="subtitle">Contributions</text>
<text x="796" y="432" class="axis-label">2023: 39</text>
<text x="796" y="452" class="axis-label">2024: 646</text>
<text x="796" y="472" class="axis-label">2025: 1,780</text>
<text x="796" y="492" class="axis-label">2026: 491</text>
<text x="796" y="522" class="subtitle">Statistics</text>
<text x="796" y="542" class="axis-label">Active weeks: 88</text>
<text x="796" y="562" class="axis-label">Add/Del ratio: 1.8x</text>
<text x="796" y="582" class="axis-label">Avg lines/wk: 18K</text>
<text x="796" y="602" class="axis-label">Peak: 2026-02-15</text>
<text x="796" y="622" class="axis-label">  (543K lines)</text>
<text x="90" y="742" class="axis-label">Total: +1,040,332 / -576,819 lines &#xb7; 2,956 contributions &#xb7; 80 repos &#xb7; &#x2605; 37</text>
</svg>