<svg xmlns="http://www.w3.org/2000/svg" width="1000" height="760" style="max-width: 100%;" viewBox="0 0 1000 760">

<defs>
  <linearGradient id="areaGrad" x1="0" y1="0" x2="0" y2="1">
    <stop offset="0%" stop-color="#58a6ff" stop-opacity="0.35"/>
    <stop offset="100%" stop-color="#58a6ff" stop-opacity="0.02"/>
  </linearGradient>
  <linearGradient id="addGrad" x1="0" y1="0" x2="0" y2="1">
    <stop offset="0%" stop-color="#3fb950" stop-opacity="0.35"/>
    <stop offset="100%" stop-color="#3fb950" stop-opacity="0.02"/>
  </linearGradient>
  <linearGradient id="delGrad" x1="0" y1="0" x2="0" y2="1">
    <stop offset="0%" stop-color="#f85149" stop-opacity="0.25"/>
    <stop offset="100%" stop-color="#f85149" stop-opacity="0.02"/>
  </linearGradient>
</defs>
<style>
  .title { font: bold 28px 'Segoe UI', Ubuntu, Sans-Serif; fill: #c9d1d9; }
  .subtitle { font: 600 20px 'Segoe UI', Ubuntu, Sans-Serif; fill: #c9d1d9; opacity: 0.8; }
  .axis-label { font: 18px 'Segoe UI', Ubuntu, Sans-Serif; fill: #c9d1d9; opacity: 0.7; }
  .legend-text { font: 14px 'Segoe UI', Ubuntu, Sans-Serif; fill: #c9d1d9; }
  .value-text { font: bold 18px 'Segoe UI', Ubuntu, Sans-Serif; fill: #c9d1d9; }
  .stat-value { font: bold 22px 'Segoe UI', Ubuntu, Sans-Serif; fill: #c9d1d9; }
  .stat-label { font: 18px 'Segoe UI', Ubuntu, Sans-Serif; fill: #c9d1d9; opacity: 0.7; }
  @keyframes fadeIn { from { opacity: 0; } to { opacity: 1; } }
  .anim { animation: fadeIn 0.6s ease-in-out forwards; opacity: 0; }
</style>

<rect x="0.5" y="0.5" rx="4.5" width="999" height="759" fill="#161b22" stroke="#21262d"/>
<text x="90" y="45" class="title">Activity History</text>
<text x="90" y="72" class="subtitle">Lines added vs deleted &amp; activity trends over time</text>
<line x1="90" y1="340.0" x2="780" y2="340.0" stroke="#21262d" stroke-width="1"/>
<text x="82" y="344.0" text-anchor="end" class="axis-label">0</text>
<line x1="90" y1="280.0" x2="780" y2="280.0" stroke="#21262d" stroke-width="1"/>
<text x="82" y="284.0" text-anchor="end" class="axis-label">547K</text>
<line x1="90" y1="220.0" x2="780" y2="220.0" stroke="#21262d" stroke-width="1"/>
<text x="82" y="224.0" text-anchor="end" class="axis-label">1.1M</text>
<line x1="90" y1="160.0" x2="780" y2="160.0" stroke="#21262d" stroke-width="1"/>
<text x="82" y="164.0" text-anchor="end" class="axis-label">1.6M</text>
<line x1="90" y1="100.0" x2="780" y2="100.0" stroke="#21262d" stroke-width="1"/>
<text x="82" y="104.0" text-anchor="end" class="axis-label">2.2M</text>
<polygon points="90.0,340.0 90.0,300.0 103.8,301.4 117.6,300.0 131.4,301.4 145.2,310.7 159.0,292.3 172.8,292.3 186.6,285.4 200.4,285.1 214.2,284.7 228.0,284.6 241.8,272.3 255.6,272.3 269.4,272.3 283.2,254.0 297.0,253.8 310.8,253.6 324.6,253.6 338.4,253.6 352.2,253.6 366.0,253.6 379.8,253.1 393.6,240.9 407.4,240.9 421.2,240.9 435.0,240.9 448.8,240.6 462.6,240.6 476.4,240.1 490.2,240.1 504.0,240.0 517.8,240.0 531.6,240.0 545.4,240.0 559.2,240.1 573.0,240.0 586.8,240.0 600.6,240.0 614.4,240.0 628.2,240.0 642.0,240.0 655.8,239.5 669.6,239.7 683.4,239.1 697.2,238.9 711.0,238.9 724.8,238.9 738.6,238.9 752.4,238.9 766.2,219.4 780.0,199.9 780.0,340.0" fill="url(#addGrad)" class="anim" style="animation-delay:200ms;"/>
<polyline points="90.0,300.0 103.8,301.4 117.6,300.0 131.4,301.4 145.2,310.7 159.0,292.3 172.8,292.3 186.6,285.4 200.4,285.1 214.2,284.7 228.0,284.6 241.8,272.3 255.6,272.3 269.4,272.3 283.2,254.0 297.0,253.8 310.8,253.6 324.6,253.6 338.4,253.6 352.2,253.6 366.0,253.6 379.8,253.1 393.6,240.9 407.4,240.9 421.2,240.9 435.0,240.9 448.8,240.6 462.6,240.6 476.4,240.1 490.2,240.1 504.0,240.0 517.8,240.0 531.6,240.0 545.4,240.0 559.2,240.1 573.0,240.0 586.8,240.0 600.6,240.0 614.4,240.0 628.2,240.0 642.0,240.0 655.8,239.5 669.6,239.7 683.4,239.1 697.2,238.9 711.0,238.9 724.8,238.9 738.6,238.9 752.4,238.9" fill="none" stroke="#3fb950" stroke-width="2" stroke-linejoin="round" class="anim" style="animation-delay:250ms;"/>
<polyline points="752.4,238.9 766.2,219.4 780.0,199.9" fill="none" stroke="#3fb950" stroke-width="1.5" stroke-dasharray="5,4" stroke-linejoin="round" opacity="0.6" class="anim" style="animation-delay:250ms;"/>
<polygon points="90.0,340.0 90.0,328.7 103.8,329.9 117.6,328.8 131.4,329.9 145.2,334.7 159.0,327.4 172.8,327.4 186.6,326.6 200.4,326.3 214.2,326.1 228.0,326.0 241.8,312.8 255.6,312.8 269.4,312.7 283.2,297.7 297.0,297.6 310.8,297.6 324.6,297.6 338.4,297.6 352.2,297.6 366.0,297.6 379.8,289.7 393.6,277.8 407.4,277.7 421.2,277.7 435.0,277.7 448.8,277.7 462.6,277.7 476.4,277.6 490.2,277.6 504.0,277.6 517.8,277.6 531.6,277.6 545.4,277.6 559.2,277.6 573.0,277.6 586.8,277.6 600.6,277.6 614.4,277.6 628.2,277.6 642.0,277.6 655.8,277.6 669.6,277.6 683.4,277.2 697.2,277.2 711.0,277.2 724.8,277.2 738.6,277.2 752.4,277.2 766.2,258.6 780.0,240.1 780.0,340.0" fill="url(#delGrad)" class="anim" style="animation-delay:300ms;"/>
<polyline points="90.0,328.7 103.8,329.9 117.6,328.8 131.4,329.9 145.2,334.7 159.0,327.4 172.8,327.4 186.6,326.6 200.4,326.3 214.2,326.1 228.0,326.0 241.8,312.8 255.6,312.8 269.4,312.7 283.2,297.7 297.0,297.6 310.8,297.6 324.6,297.6 338.4,297.6 352.2,297.6 366.0,297.6 379.8,289.7 393.6,277.8 407.4,277.7 421.2,277.7 435.0,277.7 448.8,277.7 462.6,277.7 476.4,277.6 490.2,277.6 504.0,277.6 517.8,277.6 531.6,277.6 545.4,277.6 559.2,277.6 573.0,277.6 586.8,277.6 600.6,277.6 614.4,277.6 628.2,277.6 642.0,277.6 655.8,277.6 669.6,277.6 683.4,277.2 697.2,277.2 711.0,277.2 724.8,277.2 738.6,277.2 752.4,277.2" fill="none" stroke="#f85149" stroke-width="1.5" stroke-linejoin="round" class="anim" style="animation-delay:350ms;"/>
<polyline points="752.4,277.2 766.2,258.6 780.0,240.1" fill="none" stroke="#f85149" stroke-width="1" stroke-dasharray="5,4" stroke-linejoin="round" opacity="0.6" class="anim" style="animation-delay:350ms;"/>
<polyline points="90.0,340.0 103.8,340.0 117.6,340.0 131.4,340.0 145.2,340.0 159.0,340.0 172.8,340.0 186.6,340.0 200.4,292.0 214.2,292.0 228.0,292.0 241.8,292.0 255.6,292.0 269.4,292.0 283.2,292.0 297.0,292.0 310.8,292.0 324.6,292.0 338.4,292.0 352.2,292.0 366.0,292.0 379.8,292.0 393.6,292.0 407.4,292.0 421.2,292.0 435.0,292.0 448.8,292.0 462.6,292.0 476.4,292.0 490.2,292.0 504.0,292.0 517.8,292.0 531.6,292.0 545.4,292.0 559.2,244.0 573.0,244.0 586.8,244.0 600.6,244.0 614.4,244.0 628.2,244.0 642.0,244.0 655.8,244.0 669.6,196.0 683.4,196.0 697.2,196.0 711.0,196.0 724.8,196.0 738.6,196.0 752.4,196.0" fill="none" stroke="#e3b341" stroke-width="1.5" stroke-dasharray="4,3" stroke-linejoin="round" class="anim" style="animation-delay:400ms;"/>
<polyline points="752.4,196.0 766.2,196.0 780.0,148.0" fill="none" stroke="#e3b341" stroke-width="1" stroke-dasharray="3,5" stroke-linejoin="round" opacity="0.5" class="anim" style="animation-delay:400ms;"/>
<text x="90" y="90" class="subtitle">Lines Added vs Deleted (per snapshot)</text>
<text x="90" y="400" class="subtitle">Programming Language Development (%)</text>
<line x1="90" y1="650.0" x2="780" y2="650.0" stroke="#21262d" stroke-width="1"/>
<text x="82" y="654.0" text-anchor="end" class="axis-label">0%</text>
<line x1="90" y1="590.0" x2="780" y2="590.0" stroke="#21262d" stroke-width="1"/>
<text x="82" y="594.0" text-anchor="end" class="axis-label">25%</text>
<line x1="90" y1="530.0" x2="780" y2="530.0" stroke="#21262d" stroke-width="1"/>
<text x="82" y="534.0" text-anchor="end" class="axis-label">50%</text>
<line x1="90" y1="470.0" x2="780" y2="470.0" stroke="#21262d" stroke-width="1"/>
<text x="82" y="474.0" text-anchor="end" class="axis-label">75%</text>
<line x1="90" y1="410.0" x2="780" y2="410.0" stroke="#21262d" stroke-width="1"/>
<text x="82" y="414.0" text-anchor="end" class="axis-label">100%</text>
<polygon points="90.0,650.0 103.8,650.0 117.6,650.0 131.4,650.0 145.2,650.0 159.0,650.0 172.8,650.0 186.6,650.0 200.4,528.2 214.2,528.5 228.0,529.7 241.8,499.3 255.6,499.3 269.4,502.9 283.2,485.0 297.0,485.1 310.8,485.4 324.6,485.4 338.4,485.4 352.2,485.4 366.0,485.4 379.8,496.4 393.6,496.7 407.4,491.0 421.2,491.0 435.0,491.0 448.8,491.7 462.6,491.8 476.4,494.0 490.2,494.0 504.0,494.4 517.8,494.4 531.6,494.4 545.4,494.4 559.2,507.6 573.0,507.6 586.8,507.9 600.6,507.9 614.4,507.9 628.2,506.3 642.0,506.4 655.8,506.8 669.6,506.9 683.4,506.8 697.2,507.5 711.0,507.5 724.8,507.5 738.6,507.5 752.4,507.5 766.2,510.3 780.0,513.1 780.0,650.0 766.2,650.0 752.4,650.0 738.6,650.0 724.8,650.0 711.0,650.0 697.2,650.0 683.4,650.0 669.6,650.0 655.8,650.0 642.0,650.0 628.2,650.0 614.4,650.0 600.6,650.0 586.8,650.0 573.0,650.0 559.2,650.0 545.4,650.0 531.6,650.0 517.8,650.0 504.0,650.0 490.2,650.0 476.4,650.0 462.6,650.0 448.8,650.0 435.0,650.0 421.2,650.0 407.4,650.0 393.6,650.0 379.8,650.0 366.0,650.0 352.2,650.0 338.4,650.0 324.6,650.0 310.8,650.0 297.0,650.0 283.2,650.0 269.4,650.0 255.6,650.0 241.8,650.0 228.0,650.0 214.2,650.0 200.4,650.0 186.6,650.0 172.8,650.0 159.0,650.0 145.2,650.0 131.4,650.0 117.6,650.0 103.8,650.0 90.0,650.0" fill="#e34c26" opacity="0.6" class="anim" style="animation-delay:500ms;"/>
<polygon points="90.0,650.0 103.8,650.0 117.6,650.0 131.4,650.0 145.2,650.0 159.0,650.0 172.8,650.0 186.6,650.0 200.4,488.4 214.2,488.0 228.0,489.0 241.8,476.0 255.6,476.0 269.4,477.2 283.2,460.1 297.0,460.2 310.8,460.6 324.6,460.6 338.4,460.6 352.2,460.6 366.0,460.6 379.8,473.0 393.6,473.5 407.4,469.5 421.2,469.5 435.0,469.5 448.8,469.7 462.6,469.7 476.4,469.7 490.2,469.7 504.0,469.7 517.8,469.7 531.6,469.7 545.4,469.7 559.2,455.6 573.0,455.6 586.8,455.4 600.6,455.4 614.4,455.4 628.2,454.3 642.0,454.3 655.8,455.0 669.6,455.1 683.4,454.9 697.2,455.9 711.0,455.9 724.8,455.9 738.6,455.9 752.4,455.9 766.2,447.9 780.0,440.0 780.0,513.1 766.2,510.3 752.4,507.5 738.6,507.5 724.8,507.5 711.0,507.5 697.2,507.5 683.4,506.8 669.6,506.9 655.8,506.8 642.0,506.4 628.2,506.3 614.4,507.9 600.6,507.9 586.8,507.9 573.0,507.6 559.2,507.6 545.4,494.4 531.6,494.4 517.8,494.4 504.0,494.4 490.2,494.0 476.4,494.0 462.6,491.8 448.8,491.7 435.0,491.0 421.2,491.0 407.4,491.0 393.6,496.7 379.8,496.4 366.0,485.4 352.2,485.4 338.4,485.4 324.6,485.4 310.8,485.4 297.0,485.1 283.2,485.0 269.4,502.9 255.6,499.3 241.8,499.3 228.0,529.7 214.2,528.5 200.4,528.2 186.6,650.0 172.8,650.0 159.0,650.0 145.2,650.0 131.4,650.0 117.6,650.0 103.8,650.0 90.0,650.0" fill="#f1e05a" opacity="0.6" class="anim" style="animation-delay:600ms;"/>
<polygon points="90.0,650.0 103.8,650.0 117.6,650.0 131.4,650.0 145.2,650.0 159.0,650.0 172.8,650.0 186.6,650.0 200.4,455.5 214.2,455.4 228.0,455.1 241.8,447.0 255.6,447.0 269.4,448.2 283.2,438.9 297.0,439.0 310.8,439.6 324.6,439.6 338.4,439.6 352.2,439.6 366.0,439.6 379.8,445.6 393.6,445.6 407.4,443.3 421.2,443.3 435.0,443.3 448.8,443.6 462.6,443.6 476.4,444.1 490.2,444.1 504.0,444.1 517.8,444.1 531.6,444.1 545.4,444.1 559.2,437.5 573.0,437.5 586.8,437.5 600.6,437.5 614.4,437.5 628.2,437.5 642.0,437.5 655.8,438.4 669.6,438.5 683.4,438.3 697.2,439.3 711.0,439.3 724.8,439.3 738.6,439.3 752.4,439.3 766.2,436.2 780.0,433.2 780.0,440.0 766.2,447.9 752.4,455.9 738.6,455.9 724.8,455.9 711.0,455.9 697.2,455.9 683.4,454.9 669.6,455.1 655.8,455.0 642.0,454.3 628.2,454.3 614.4,455.4 600.6,455.4 586.8,455.4 573.0,455.6 559.2,455.6 545.4,469.7 531.6,469.7 517.8,469.7 504.0,469.7 490.2,469.7 476.4,469.7 462.6,469.7 448.8,469.7 435.0,469.5 421.2,469.5 407.4,469.5 393.6,473.5 379.8,473.0 366.0,460.6 352.2,460.6 338.4,460.6 324.6,460.6 310.8,460.6 297.0,460.2 283.2,460.1 269.4,477.2 255.6,476.0 241.8,476.0 228.0,489.0 214.2,488.0 200.4,488.4 186.6,650.0 172.8,650.0 159.0,650.0 145.2,650.0 131.4,650.0 117.6,650.0 103.8,650.0 90.0,650.0" fill="#3572A5" opacity="0.6" class="anim" style="animation-delay:700ms;"/>
<polygon points="90.0,650.0 103.8,650.0 117.6,650.0 131.4,650.0 145.2,650.0 159.0,650.0 172.8,650.0 186.6,650.0 200.4,442.3 214.2,442.0 228.0,441.6 241.8,439.5 255.6,439.5 269.4,439.4 283.2,432.3 297.0,432.2 310.8,432.6 324.6,432.6 338.4,432.6 352.2,432.6 366.0,432.6 379.8,439.3 393.6,439.3 407.4,437.4 421.2,437.4 435.0,437.4 448.8,437.3 462.6,437.3 476.4,437.1 490.2,437.1 504.0,437.1 517.8,437.1 531.6,437.1 545.4,437.1 559.2,428.7 573.0,428.6 586.8,428.5 600.6,428.5 614.4,428.5 628.2,427.3 642.0,427.3 655.8,427.1 669.6,427.1 683.4,427.1 697.2,427.0 711.0,427.0 724.8,427.0 738.6,427.0 752.4,427.0 766.2,422.9 780.0,418.8 780.0,433.2 766.2,436.2 752.4,439.3 738.6,439.3 724.8,439.3 711.0,439.3 697.2,439.3 683.4,438.3 669.6,438.5 655.8,438.4 642.0,437.5 628.2,437.5 614.4,437.5 600.6,437.5 586.8,437.5 573.0,437.5 559.2,437.5 545.4,444.1 531.6,444.1 517.8,444.1 504.0,444.1 490.2,444.1 476.4,444.1 462.6,443.6 448.8,443.6 435.0,443.3 421.2,443.3 407.4,443.3 393.6,445.6 379.8,445.6 366.0,439.6 352.2,439.6 338.4,439.6 324.6,439.6 310.8,439.6 297.0,439.0 283.2,438.9 269.4,448.2 255.6,447.0 241.8,447.0 228.0,455.1 214.2,455.4 200.4,455.5 186.6,650.0 172.8,650.0 159.0,650.0 145.2,650.0 131.4,650.0 117.6,650.0 103.8,650.0 90.0,650.0" fill="#663399" opacity="0.6" class="anim" style="animation-delay:800ms;"/>
<polygon points="90.0,650.0 103.8,650.0 117.6,650.0 131.4,650.0 145.2,650.0 159.0,650.0 172.8,650.0 186.6,650.0 200.4,436.6 214.2,436.3 228.0,435.9 241.8,432.2 255.6,432.2 269.4,432.2 283.2,426.2 297.0,426.1 310.8,426.0 324.6,426.0 338.4,426.0 352.2,426.0 366.0,426.0 379.8,430.8 393.6,430.7 407.4,429.3 421.2,429.3 435.0,429.3 448.8,429.2 462.6,429.2 476.4,428.9 490.2,428.9 504.0,428.8 517.8,428.8 531.6,428.8 545.4,428.8 559.2,423.0 573.0,422.9 586.8,422.9 600.6,422.9 614.4,422.9 628.2,422.0 642.0,422.0 655.8,421.9 669.6,421.9 683.4,421.9 697.2,421.8 711.0,421.8 724.8,421.8 738.6,421.8 752.4,421.8 766.2,418.3 780.0,414.8 780.0,418.8 766.2,422.9 752.4,427.0 738.6,427.0 724.8,427.0 711.0,427.0 697.2,427.0 683.4,427.1 669.6,427.1 655.8,427.1 642.0,427.3 628.2,427.3 614.4,428.5 600.6,428.5 586.8,428.5 573.0,428.6 559.2,428.7 545.4,437.1 531.6,437.1 517.8,437.1 504.0,437.1 490.2,437.1 476.4,437.1 462.6,437.3 448.8,437.3 435.0,437.4 421.2,437.4 407.4,437.4 393.6,439.3 379.8,439.3 366.0,432.6 352.2,432.6 338.4,432.6 324.6,432.6 310.8,432.6 297.0,432.2 283.2,432.3 269.4,439.4 255.6,439.5 241.8,439.5 228.0,441.6 214.2,442.0 200.4,442.3 186.6,650.0 172.8,650.0 159.0,650.0 145.2,650.0 131.4,650.0 117.6,650.0 103.8,650.0 90.0,650.0" fill="#083fa1" opacity="0.6" class="anim" style="animation-delay:900ms;"/>
<polygon points="90.0,650.0 103.8,650.0 117.6,650.0 131.4,650.0 145.2,650.0 159.0,650.0 172.8,650.0 186.6,650.0 200.4,427.0 214.2,426.8 228.0,426.6 241.8,424.2 255.6,424.2 269.4,424.2 283.2,420.4 297.0,420.3 310.8,420.3 324.6,420.3 338.4,420.3 352.2,420.3 366.0,420.3 379.8,423.3 393.6,423.2 407.4,422.4 421.2,422.4 435.0,422.4 448.8,422.3 462.6,422.3 476.4,422.1 490.2,422.1 504.0,422.1 517.8,422.1 531.6,422.1 545.4,422.1 559.2,418.3 573.0,418.3 586.8,418.2 600.6,418.2 614.4,418.2 628.2,417.7 642.0,417.7 655.8,417.6 669.6,417.6 683.4,417.6 697.2,417.6 711.0,417.6 724.8,417.6 738.6,417.6 752.4,417.6 766.2,415.6 780.0,413.6 780.0,414.8 766.2,418.3 752.4,421.8 738.6,421.8 724.8,421.8 711.0,421.8 697.2,421.8 683.4,421.9 669.6,421.9 655.8,421.9 642.0,422.0 628.2,422.0 614.4,422.9 600.6,422.9 586.8,422.9 573.0,422.9 559.2,423.0 545.4,428.8 531.6,428.8 517.8,428.8 504.0,428.8 490.2,428.9 476.4,428.9 462.6,429.2 448.8,429.2 435.0,429.3 421.2,429.3 407.4,429.3 393.6,430.7 379.8,430.8 366.0,426.0 352.2,426.0 338.4,426.0 324.6,426.0 310.8,426.0 297.0,426.1 283.2,426.2 269.4,432.2 255.6,432.2 241.8,432.2 228.0,435.9 214.2,436.3 200.4,436.6 186.6,650.0 172.8,650.0 159.0,650.0 145.2,650.0 131.4,650.0 117.6,650.0 103.8,650.0 90.0,650.0" fill="#6E4C13" opacity="0.6" class="anim" style="animation-delay:1000ms;"/>
<polygon points="90.0,650.0 103.8,650.0 117.6,650.0 131.4,650.0 145.2,650.0 159.0,650.0 172.8,650.0 186.6,650.0 200.4,418.7 214.2,418.6 228.0,418.5 241.8,417.3 255.6,417.3 269.4,417.2 283.2,415.3 297.0,415.3 310.8,415.2 324.6,415.2 338.4,415.2 352.2,415.2 366.0,415.2 379.8,416.8 393.6,416.8 407.4,416.3 421.2,416.3 435.0,416.3 448.8,416.3 462.6,416.3 476.4,416.2 490.2,416.2 504.0,416.2 517.8,416.2 531.6,416.2 545.4,416.2 559.2,414.2 573.0,414.2 586.8,414.2 600.6,414.2 614.4,414.2 628.2,413.9 642.0,413.9 655.8,413.9 669.6,413.9 683.4,413.9 697.2,413.9 711.0,413.9 724.8,413.9 738.6,413.9 752.4,413.9 766.2,413.2 780.0,412.5 780.0,413.6 766.2,415.6 752.4,417.6 738.6,417.6 724.8,417.6 711.0,417.6 697.2,417.6 683.4,417.6 669.6,417.6 655.8,417.6 642.0,417.7 628.2,417.7 614.4,418.2 600.6,418.2 586.8,418.2 573.0,418.3 559.2,418.3 545.4,422.1 531.6,422.1 517.8,422.1 504.0,422.1 490.2,422.1 476.4,422.1 462.6,422.3 448.8,422.3 435.0,422.4 421.2,422.4 407.4,422.4 393.6,423.2 379.8,423.3 366.0,420.3 352.2,420.3 338.4,420.3 324.6,420.3 310.8,420.3 297.0,420.3 283.2,420.4 269.4,424.2 255.6,424.2 241.8,424.2 228.0,426.6 214.2,426.8 200.4,427.0 186.6,650.0 172.8,650.0 159.0,650.0 145.2,650.0 131.4,650.0 117.6,650.0 103.8,650.0 90.0,650.0" fill="#F05138" opacity="0.6" class="anim" style="animation-delay:1100ms;"/>
<polygon points="90.0,650.0 103.8,650.0 117.6,650.0 131.4,650.0 145.2,650.0 159.0,650.0 172.8,650.0 186.6,650.0 200.4,414.4 214.2,414.4 228.0,414.3 241.8,413.7 255.6,413.7 269.4,413.7 283.2,412.7 297.0,412.7 310.8,412.7 324.6,412.7 338.4,412.7 352.2,412.7 366.0,412.7 379.8,413.5 393.6,413.4 407.4,413.2 421.2,413.2 435.0,413.2 448.8,413.2 462.6,413.2 476.4,413.1 490.2,413.1 504.0,413.1 517.8,413.1 531.6,413.1 545.4,413.1 559.2,412.2 573.0,412.1 586.8,412.1 600.6,412.1 614.4,412.1 628.2,412.0 642.0,412.0 655.8,412.0 669.6,412.0 683.4,412.0 697.2,412.0 711.0,412.0 724.8,412.0 738.6,412.0 752.4,412.0 766.2,412.0 780.0,412.0 780.0,412.5 766.2,413.2 752.4,413.9 738.6,413.9 724.8,413.9 711.0,413.9 697.2,413.9 683.4,413.9 669.6,413.9 655.8,413.9 642.0,413.9 628.2,413.9 614.4,414.2 600.6,414.2 586.8,414.2 573.0,414.2 559.2,414.2 545.4,416.2 531.6,416.2 517.8,416.2 504.0,416.2 490.2,416.2 476.4,416.2 462.6,416.3 448.8,416.3 435.0,416.3 421.2,416.3 407.4,416.3 393.6,416.8 379.8,416.8 366.0,415.2 352.2,415.2 338.4,415.2 324.6,415.2 310.8,415.2 297.0,415.3 283.2,415.3 269.4,417.2 255.6,417.3 241.8,417.3 228.0,418.5 214.2,418.6 200.4,418.7 186.6,650.0 172.8,650.0 159.0,650.0 145.2,650.0 131.4,650.0 117.6,650.0 103.8,650.0 90.0,650.0" fill="#b07219" opacity="0.6" class="anim" style="animation-delay:1200ms;"/>
<line x1="752.4" y1="100" x2="752.4" y2="650" stroke="#c9d1d9" stroke-width="1" stroke-dasharray="4,3" opacity="0.35"/>
<text x="766.2" y="112" text-anchor="middle" class="axis-label" opacity="0.6">Apr 09, 2026</text>
<text x="90.0" y="668" text-anchor="middle" class="axis-label" transform="rotate(-35 90.0 668)">2026-02</text>
<text x="421.2" y="668" text-anchor="middle" class="axis-label" transform="rotate(-35 421.2 668)">2026-03</text>
<text x="766.2" y="668" text-anchor="middle" class="axis-label" transform="rotate(-35 766.2 668)">Apr 09, 2026</text>
<line x1="796" y1="110" x2="824" y2="110" stroke="#3fb950" stroke-width="2"/>
<text x="832" y="116" class="legend-text">Lines Added</text>
<line x1="796" y1="140" x2="824" y2="140" stroke="#f85149" stroke-width="1.5"/>
<text x="832" y="146" class="legend-text">Lines Deleted</text>
<line x1="796" y1="170" x2="824" y2="170" stroke="#e3b341" stroke-width="1.5" stroke-dasharray="4,3"/>
<text x="832" y="176" class="legend-text">&#x2605; Stars</text>
<text x="796" y="200" class="subtitle">Languages</text>
<rect x="796" y="212" width="12" height="12" rx="2" fill="#e34c26" opacity="0.8" class="anim" style="animation-delay:800ms;"/>
<text x="814" y="223" class="legend-text">HTML (59%→57%)</text>
<rect x="796" y="234" width="12" height="12" rx="2" fill="#f1e05a" opacity="0.8" class="anim" style="animation-delay:880ms;"/>
<text x="814" y="245" class="legend-text">JavaScript (22%→30%)</text>
<rect x="796" y="256" width="12" height="12" rx="2" fill="#3572A5" opacity="0.8" class="anim" style="animation-delay:960ms;"/>
<text x="814" y="267" class="legend-text">Python (7%→3%)</text>
<rect x="796" y="278" width="12" height="12" rx="2" fill="#663399" opacity="0.8" class="anim" style="animation-delay:1040ms;"/>
<text x="814" y="289" class="legend-text">CSS (5%→6%)</text>
<rect x="796" y="300" width="12" height="12" rx="2" fill="#083fa1" opacity="0.8" class="anim" style="animation-delay:1120ms;"/>
<text x="814" y="311" class="legend-text">Markdown (2%→2%)</text>
<rect x="796" y="322" width="12" height="12" rx="2" fill="#6E4C13" opacity="0.8" class="anim" style="animation-delay:1200ms;"/>
<text x="814" y="333" class="legend-text">Assembly (2%→1%)</text>
<rect x="796" y="344" width="12" height="12" rx="2" fill="#F05138" opacity="0.8" class="anim" style="animation-delay:1280ms;"/>
<text x="814" y="355" class="legend-text">Swift (2%→0%)</text>
<rect x="796" y="366" width="12" height="12" rx="2" fill="#b07219" opacity="0.8" class="anim" style="animation-delay:1360ms;"/>
<text x="814" y="377" class="legend-text">Java (1%→0%)</text>
<text x="796" y="412" class="subtitle">Contributions</text>
<text x="796" y="432" class="axis-label">2023: 39</text>
<text x="796" y="452" class="axis-label">2024: 646</text>
<text x="796" y="472" class="axis-label">2025: 1,780</text>
<text x="796" y="492" class="axis-label">2026: 397</text>
<text x="796" y="522" class="subtitle">Statistics</text>
<text x="796" y="542" class="axis-label">Active weeks: 79</text>
<text x="796" y="562" class="axis-label">Add/Del ratio: 1.6x</text>
<text x="796" y="582" class="axis-label">Avg lines/wk: 19K</text>
<text x="796" y="602" class="axis-label">Peak: 2026-02-15</text>
<text x="796" y="622" class="axis-label">  (543K lines)</text>
<text x="90" y="742" class="axis-label">Total: +922,355 / -572,795 lines &#xb7; 2,862 contributions &#xb7; 76 repos &#xb7; &#x2605; 35</text>
</svg>