<svg xmlns="http://www.w3.org/2000/svg" width="1000" height="760" style="max-width: 100%;" viewBox="0 0 1000 760">

<defs>
  <linearGradient id="areaGrad" x1="0" y1="0" x2="0" y2="1">
    <stop offset="0%" stop-color="#58a6ff" stop-opacity="0.35"/>
    <stop offset="100%" stop-color="#58a6ff" stop-opacity="0.02"/>
  </linearGradient>
  <linearGradient id="addGrad" x1="0" y1="0" x2="0" y2="1">
    <stop offset="0%" stop-color="#3fb950" stop-opacity="0.35"/>
    <stop offset="100%" stop-color="#3fb950" stop-opacity="0.02"/>
  </linearGradient>
  <linearGradient id="delGrad" x1="0" y1="0" x2="0" y2="1">
    <stop offset="0%" stop-color="#f85149" stop-opacity="0.25"/>
    <stop offset="100%" stop-color="#f85149" stop-opacity="0.02"/>
  </linearGradient>
</defs>
<style>
  .title { font: bold 28px 'Segoe UI', Ubuntu, Sans-Serif; fill: #c9d1d9; }
  .subtitle { font: 600 20px 'Segoe UI', Ubuntu, Sans-Serif; fill: #c9d1d9; opacity: 0.8; }
  .axis-label { font: 18px 'Segoe UI', Ubuntu, Sans-Serif; fill: #c9d1d9; opacity: 0.7; }
  .legend-text { font: 14px 'Segoe UI', Ubuntu, Sans-Serif; fill: #c9d1d9; }
  .value-text { font: bold 18px 'Segoe UI', Ubuntu, Sans-Serif; fill: #c9d1d9; }
  .stat-value { font: bold 22px 'Segoe UI', Ubuntu, Sans-Serif; fill: #c9d1d9; }
  .stat-label { font: 18px 'Segoe UI', Ubuntu, Sans-Serif; fill: #c9d1d9; opacity: 0.7; }
  @keyframes fadeIn { from { opacity: 0; } to { opacity: 1; } }
  .anim { animation: fadeIn 0.6s ease-in-out forwards; opacity: 0; }
</style>

<rect x="0.5" y="0.5" rx="4.5" width="999" height="759" fill="#161b22" stroke="#21262d"/>
<text x="90" y="45" class="title">Activity History</text>
<text x="90" y="72" class="subtitle">Lines added vs deleted &amp; activity trends over time</text>
<line x1="90" y1="340.0" x2="780" y2="340.0" stroke="#21262d" stroke-width="1"/>
<text x="82" y="344.0" text-anchor="end" class="axis-label">0</text>
<line x1="90" y1="280.0" x2="780" y2="280.0" stroke="#21262d" stroke-width="1"/>
<text x="82" y="284.0" text-anchor="end" class="axis-label">451K</text>
<line x1="90" y1="220.0" x2="780" y2="220.0" stroke="#21262d" stroke-width="1"/>
<text x="82" y="224.0" text-anchor="end" class="axis-label">903K</text>
<line x1="90" y1="160.0" x2="780" y2="160.0" stroke="#21262d" stroke-width="1"/>
<text x="82" y="164.0" text-anchor="end" class="axis-label">1.4M</text>
<line x1="90" y1="100.0" x2="780" y2="100.0" stroke="#21262d" stroke-width="1"/>
<text x="82" y="104.0" text-anchor="end" class="axis-label">1.8M</text>
<polygon points="90.0,340.0 90.0,291.5 97.5,293.2 105.0,291.5 112.5,293.2 120.0,304.4 127.5,282.2 135.0,282.2 142.5,273.8 150.0,273.5 157.5,272.9 165.0,272.9 172.5,258.0 180.0,257.9 187.5,257.9 195.0,235.8 202.5,235.5 210.0,235.2 217.5,235.2 225.0,235.2 232.5,235.2 240.0,235.2 247.5,234.7 255.0,219.9 262.5,219.8 270.0,219.8 277.5,219.8 285.0,219.5 292.5,219.5 300.0,218.8 307.5,218.8 315.0,218.8 322.5,218.8 330.0,218.8 337.5,218.8 345.0,218.8 352.5,218.8 360.0,218.8 367.5,218.8 375.0,218.8 382.5,218.8 390.0,218.8 397.5,218.1 405.0,218.4 412.5,217.7 420.0,217.4 427.5,217.4 435.0,217.4 442.5,217.4 450.0,217.4 457.5,217.4 465.0,217.3 472.5,217.3 480.0,217.3 487.5,217.4 495.0,217.7 502.5,219.1 510.0,217.7 517.5,216.4 525.0,216.3 532.5,216.3 540.0,216.3 547.5,216.3 555.0,208.7 562.5,201.8 570.0,201.8 577.5,201.8 585.0,201.8 592.5,201.8 600.0,201.8 607.5,201.8 615.0,201.8 622.5,201.7 630.0,201.7 637.5,201.7 645.0,201.7 652.5,201.7 660.0,201.7 667.5,201.7 675.0,201.7 682.5,201.7 690.0,201.7 697.5,201.7 705.0,201.7 712.5,201.7 720.0,201.7 727.5,201.7 735.0,201.7 742.5,201.7 750.0,201.7 757.5,201.7 765.0,201.7 772.5,194.4 780.0,187.1 780.0,340.0" fill="url(#addGrad)" class="anim" style="animation-delay:200ms;"/>
<polyline points="90.0,291.5 97.5,293.2 105.0,291.5 112.5,293.2 120.0,304.4 127.5,282.2 135.0,282.2 142.5,273.8 150.0,273.5 157.5,272.9 165.0,272.9 172.5,258.0 180.0,257.9 187.5,257.9 195.0,235.8 202.5,235.5 210.0,235.2 217.5,235.2 225.0,235.2 232.5,235.2 240.0,235.2 247.5,234.7 255.0,219.9 262.5,219.8 270.0,219.8 277.5,219.8 285.0,219.5 292.5,219.5 300.0,218.8 307.5,218.8 315.0,218.8 322.5,218.8 330.0,218.8 337.5,218.8 345.0,218.8 352.5,218.8 360.0,218.8 367.5,218.8 375.0,218.8 382.5,218.8 390.0,218.8 397.5,218.1 405.0,218.4 412.5,217.7 420.0,217.4 427.5,217.4 435.0,217.4 442.5,217.4 450.0,217.4 457.5,217.4 465.0,217.3 472.5,217.3 480.0,217.3 487.5,217.4 495.0,217.7 502.5,219.1 510.0,217.7 517.5,216.4 525.0,216.3 532.5,216.3 540.0,216.3 547.5,216.3 555.0,208.7 562.5,201.8 570.0,201.8 577.5,201.8 585.0,201.8 592.5,201.8 600.0,201.8 607.5,201.8 615.0,201.8 622.5,201.7 630.0,201.7 637.5,201.7 645.0,201.7 652.5,201.7 660.0,201.7 667.5,201.7 675.0,201.7 682.5,201.7 690.0,201.7 697.5,201.7 705.0,201.7 712.5,201.7 720.0,201.7 727.5,201.7 735.0,201.7 742.5,201.7 750.0,201.7 757.5,201.7 765.0,201.7" fill="none" stroke="#3fb950" stroke-width="2" stroke-linejoin="round" class="anim" style="animation-delay:250ms;"/>
<polyline points="765.0,201.7 772.5,194.4 780.0,187.1" fill="none" stroke="#3fb950" stroke-width="1.5" stroke-dasharray="5,4" stroke-linejoin="round" opacity="0.6" class="anim" style="animation-delay:250ms;"/>
<polygon points="90.0,340.0 90.0,326.4 97.5,327.8 105.0,326.4 112.5,327.7 120.0,333.6 127.5,324.7 135.0,324.7 142.5,323.7 150.0,323.4 157.5,323.1 165.0,323.1 172.5,307.0 180.0,307.0 187.5,306.9 195.0,288.7 202.5,288.6 210.0,288.6 217.5,288.6 225.0,288.6 232.5,288.6 240.0,288.6 247.5,279.1 255.0,264.5 262.5,264.5 270.0,264.5 277.5,264.5 285.0,264.4 292.5,264.4 300.0,264.3 307.5,264.3 315.0,264.3 322.5,264.3 330.0,264.3 337.5,264.3 345.0,264.3 352.5,264.3 360.0,264.3 367.5,264.3 375.0,264.3 382.5,264.3 390.0,264.3 397.5,264.3 405.0,264.4 412.5,263.9 420.0,263.9 427.5,263.9 435.0,263.9 442.5,263.9 450.0,263.9 457.5,263.9 465.0,263.9 472.5,263.9 480.0,263.9 487.5,263.9 495.0,264.0 502.5,264.8 510.0,264.3 517.5,263.4 525.0,263.4 532.5,263.4 540.0,263.4 547.5,263.4 555.0,263.3 562.5,263.3 570.0,263.3 577.5,263.3 585.0,263.3 592.5,263.3 600.0,263.3 607.5,263.3 615.0,263.3 622.5,263.3 630.0,263.3 637.5,263.3 645.0,263.3 652.5,263.3 660.0,263.3 667.5,263.3 675.0,263.3 682.5,263.3 690.0,263.3 697.5,263.3 705.0,263.3 712.5,263.3 720.0,263.3 727.5,263.3 735.0,263.3 742.5,263.3 750.0,263.3 757.5,263.3 765.0,263.3 772.5,258.1 780.0,252.9 780.0,340.0" fill="url(#delGrad)" class="anim" style="animation-delay:300ms;"/>
<polyline points="90.0,326.4 97.5,327.8 105.0,326.4 112.5,327.7 120.0,333.6 127.5,324.7 135.0,324.7 142.5,323.7 150.0,323.4 157.5,323.1 165.0,323.1 172.5,307.0 180.0,307.0 187.5,306.9 195.0,288.7 202.5,288.6 210.0,288.6 217.5,288.6 225.0,288.6 232.5,288.6 240.0,288.6 247.5,279.1 255.0,264.5 262.5,264.5 270.0,264.5 277.5,264.5 285.0,264.4 292.5,264.4 300.0,264.3 307.5,264.3 315.0,264.3 322.5,264.3 330.0,264.3 337.5,264.3 345.0,264.3 352.5,264.3 360.0,264.3 367.5,264.3 375.0,264.3 382.5,264.3 390.0,264.3 397.5,264.3 405.0,264.4 412.5,263.9 420.0,263.9 427.5,263.9 435.0,263.9 442.5,263.9 450.0,263.9 457.5,263.9 465.0,263.9 472.5,263.9 480.0,263.9 487.5,263.9 495.0,264.0 502.5,264.8 510.0,264.3 517.5,263.4 525.0,263.4 532.5,263.4 540.0,263.4 547.5,263.4 555.0,263.3 562.5,263.3 570.0,263.3 577.5,263.3 585.0,263.3 592.5,263.3 600.0,263.3 607.5,263.3 615.0,263.3 622.5,263.3 630.0,263.3 637.5,263.3 645.0,263.3 652.5,263.3 660.0,263.3 667.5,263.3 675.0,263.3 682.5,263.3 690.0,263.3 697.5,263.3 705.0,263.3 712.5,263.3 720.0,263.3 727.5,263.3 735.0,263.3 742.5,263.3 750.0,263.3 757.5,263.3 765.0,263.3" fill="none" stroke="#f85149" stroke-width="1.5" stroke-linejoin="round" class="anim" style="animation-delay:350ms;"/>
<polyline points="765.0,263.3 772.5,258.1 780.0,252.9" fill="none" stroke="#f85149" stroke-width="1" stroke-dasharray="5,4" stroke-linejoin="round" opacity="0.6" class="anim" style="animation-delay:350ms;"/>
<polyline points="90.0,340.0 97.5,340.0 105.0,340.0 112.5,340.0 120.0,340.0 127.5,340.0 135.0,340.0 142.5,340.0 150.0,308.0 157.5,308.0 165.0,308.0 172.5,308.0 180.0,308.0 187.5,308.0 195.0,308.0 202.5,308.0 210.0,308.0 217.5,308.0 225.0,308.0 232.5,308.0 240.0,308.0 247.5,308.0 255.0,308.0 262.5,308.0 270.0,308.0 277.5,308.0 285.0,308.0 292.5,308.0 300.0,308.0 307.5,308.0 315.0,308.0 322.5,308.0 330.0,308.0 337.5,308.0 345.0,276.0 352.5,276.0 360.0,276.0 367.5,276.0 375.0,276.0 382.5,276.0 390.0,276.0 397.5,276.0 405.0,244.0 412.5,244.0 420.0,244.0 427.5,244.0 435.0,244.0 442.5,244.0 450.0,244.0 457.5,244.0 465.0,244.0 472.5,244.0 480.0,244.0 487.5,244.0 495.0,244.0 502.5,244.0 510.0,244.0 517.5,244.0 525.0,180.0 532.5,180.0 540.0,180.0 547.5,180.0 555.0,180.0 562.5,180.0 570.0,180.0 577.5,180.0 585.0,180.0 592.5,180.0 600.0,180.0 607.5,180.0 615.0,180.0 622.5,180.0 630.0,180.0 637.5,180.0 645.0,180.0 652.5,180.0 660.0,180.0 667.5,180.0 675.0,180.0 682.5,180.0 690.0,180.0 697.5,180.0 705.0,180.0 712.5,180.0 720.0,180.0 727.5,180.0 735.0,180.0 742.5,180.0 750.0,180.0 757.5,180.0 765.0,180.0" fill="none" stroke="#e3b341" stroke-width="1.5" stroke-dasharray="4,3" stroke-linejoin="round" class="anim" style="animation-delay:400ms;"/>
<polyline points="765.0,180.0 772.5,180.0 780.0,148.0" fill="none" stroke="#e3b341" stroke-width="1" stroke-dasharray="3,5" stroke-linejoin="round" opacity="0.5" class="anim" style="animation-delay:400ms;"/>
<text x="90" y="90" class="subtitle">Lines Added vs Deleted (per snapshot)</text>
<text x="90" y="400" class="subtitle">Programming Language Development (%)</text>
<line x1="90" y1="650.0" x2="780" y2="650.0" stroke="#21262d" stroke-width="1"/>
<text x="82" y="654.0" text-anchor="end" class="axis-label">0%</text>
<line x1="90" y1="590.0" x2="780" y2="590.0" stroke="#21262d" stroke-width="1"/>
<text x="82" y="594.0" text-anchor="end" class="axis-label">25%</text>
<line x1="90" y1="530.0" x2="780" y2="530.0" stroke="#21262d" stroke-width="1"/>
<text x="82" y="534.0" text-anchor="end" class="axis-label">50%</text>
<line x1="90" y1="470.0" x2="780" y2="470.0" stroke="#21262d" stroke-width="1"/>
<text x="82" y="474.0" text-anchor="end" class="axis-label">75%</text>
<line x1="90" y1="410.0" x2="780" y2="410.0" stroke="#21262d" stroke-width="1"/>
<text x="82" y="414.0" text-anchor="end" class="axis-label">100%</text>
<polygon points="90.0,650.0 97.5,650.0 105.0,650.0 112.5,650.0 120.0,650.0 127.5,650.0 135.0,650.0 142.5,650.0 150.0,528.2 157.5,528.5 165.0,529.7 172.5,499.3 180.0,499.3 187.5,502.9 195.0,485.0 202.5,485.1 210.0,485.4 217.5,485.4 225.0,485.4 232.5,485.4 240.0,485.4 247.5,496.4 255.0,496.7 262.5,491.0 270.0,491.0 277.5,491.0 285.0,491.7 292.5,491.8 300.0,494.0 307.5,494.0 315.0,494.4 322.5,494.4 330.0,494.4 337.5,494.4 345.0,507.6 352.5,507.6 360.0,507.9 367.5,507.9 375.0,507.9 382.5,506.3 390.0,506.4 397.5,506.8 405.0,506.9 412.5,506.8 420.0,507.5 427.5,507.5 435.0,507.5 442.5,507.5 450.0,507.5 457.5,507.5 465.0,507.5 472.5,507.5 480.0,507.5 487.5,507.5 495.0,507.5 502.5,507.5 510.0,507.5 517.5,508.6 525.0,508.6 532.5,508.6 540.0,508.6 547.5,508.6 555.0,509.5 562.5,509.8 570.0,509.8 577.5,509.8 585.0,509.8 592.5,509.8 600.0,509.8 607.5,509.8 615.0,509.8 622.5,510.9 630.0,510.9 637.5,510.9 645.0,510.9 652.5,510.9 660.0,510.9 667.5,510.9 675.0,510.9 682.5,510.9 690.0,510.9 697.5,510.9 705.0,510.9 712.5,510.9 720.0,510.9 727.5,510.9 735.0,510.9 742.5,510.9 750.0,510.9 757.5,510.9 765.0,510.9 772.5,512.8 780.0,514.7 780.0,650.0 772.5,650.0 765.0,650.0 757.5,650.0 750.0,650.0 742.5,650.0 735.0,650.0 727.5,650.0 720.0,650.0 712.5,650.0 705.0,650.0 697.5,650.0 690.0,650.0 682.5,650.0 675.0,650.0 667.5,650.0 660.0,650.0 652.5,650.0 645.0,650.0 637.5,650.0 630.0,650.0 622.5,650.0 615.0,650.0 607.5,650.0 600.0,650.0 592.5,650.0 585.0,650.0 577.5,650.0 570.0,650.0 562.5,650.0 555.0,650.0 547.5,650.0 540.0,650.0 532.5,650.0 525.0,650.0 517.5,650.0 510.0,650.0 502.5,650.0 495.0,650.0 487.5,650.0 480.0,650.0 472.5,650.0 465.0,650.0 457.5,650.0 450.0,650.0 442.5,650.0 435.0,650.0 427.5,650.0 420.0,650.0 412.5,650.0 405.0,650.0 397.5,650.0 390.0,650.0 382.5,650.0 375.0,650.0 367.5,650.0 360.0,650.0 352.5,650.0 345.0,650.0 337.5,650.0 330.0,650.0 322.5,650.0 315.0,650.0 307.5,650.0 300.0,650.0 292.5,650.0 285.0,650.0 277.5,650.0 270.0,650.0 262.5,650.0 255.0,650.0 247.5,650.0 240.0,650.0 232.5,650.0 225.0,650.0 217.5,650.0 210.0,650.0 202.5,650.0 195.0,650.0 187.5,650.0 180.0,650.0 172.5,650.0 165.0,650.0 157.5,650.0 150.0,650.0 142.5,650.0 135.0,650.0 127.5,650.0 120.0,650.0 112.5,650.0 105.0,650.0 97.5,650.0 90.0,650.0" fill="#e34c26" opacity="0.6" class="anim" style="animation-delay:500ms;"/>
<polygon points="90.0,650.0 97.5,650.0 105.0,650.0 112.5,650.0 120.0,650.0 127.5,650.0 135.0,650.0 142.5,650.0 150.0,488.4 157.5,488.0 165.0,489.0 172.5,476.0 180.0,476.0 187.5,477.2 195.0,460.1 202.5,460.2 210.0,460.6 217.5,460.6 225.0,460.6 232.5,460.6 240.0,460.6 247.5,473.0 255.0,473.5 262.5,469.5 270.0,469.5 277.5,469.5 285.0,469.7 292.5,469.7 300.0,469.7 307.5,469.7 315.0,469.7 322.5,469.7 330.0,469.7 337.5,469.7 345.0,455.6 352.5,455.6 360.0,455.4 367.5,455.4 375.0,455.4 382.5,454.3 390.0,454.3 397.5,455.0 405.0,455.1 412.5,454.9 420.0,455.9 427.5,455.9 435.0,455.9 442.5,455.9 450.0,455.9 457.5,455.9 465.0,455.9 472.5,455.9 480.0,455.9 487.5,455.9 495.0,455.9 502.5,455.9 510.0,455.9 517.5,455.8 525.0,455.8 532.5,455.8 540.0,455.8 547.5,455.8 555.0,457.0 562.5,457.4 570.0,457.4 577.5,457.4 585.0,457.4 592.5,457.4 600.0,457.4 607.5,457.4 615.0,457.4 622.5,458.2 630.0,458.2 637.5,458.2 645.0,458.2 652.5,458.2 660.0,458.2 667.5,458.2 675.0,458.2 682.5,458.2 690.0,458.2 697.5,458.2 705.0,458.2 712.5,458.2 720.0,458.2 727.5,458.2 735.0,458.2 742.5,458.2 750.0,458.2 757.5,458.2 765.0,458.2 772.5,456.5 780.0,454.9 780.0,514.7 772.5,512.8 765.0,510.9 757.5,510.9 750.0,510.9 742.5,510.9 735.0,510.9 727.5,510.9 720.0,510.9 712.5,510.9 705.0,510.9 697.5,510.9 690.0,510.9 682.5,510.9 675.0,510.9 667.5,510.9 660.0,510.9 652.5,510.9 645.0,510.9 637.5,510.9 630.0,510.9 622.5,510.9 615.0,509.8 607.5,509.8 600.0,509.8 592.5,509.8 585.0,509.8 577.5,509.8 570.0,509.8 562.5,509.8 555.0,509.5 547.5,508.6 540.0,508.6 532.5,508.6 525.0,508.6 517.5,508.6 510.0,507.5 502.5,507.5 495.0,507.5 487.5,507.5 480.0,507.5 472.5,507.5 465.0,507.5 457.5,507.5 450.0,507.5 442.5,507.5 435.0,507.5 427.5,507.5 420.0,507.5 412.5,506.8 405.0,506.9 397.5,506.8 390.0,506.4 382.5,506.3 375.0,507.9 367.5,507.9 360.0,507.9 352.5,507.6 345.0,507.6 337.5,494.4 330.0,494.4 322.5,494.4 315.0,494.4 307.5,494.0 300.0,494.0 292.5,491.8 285.0,491.7 277.5,491.0 270.0,491.0 262.5,491.0 255.0,496.7 247.5,496.4 240.0,485.4 232.5,485.4 225.0,485.4 217.5,485.4 210.0,485.4 202.5,485.1 195.0,485.0 187.5,502.9 180.0,499.3 172.5,499.3 165.0,529.7 157.5,528.5 150.0,528.2 142.5,650.0 135.0,650.0 127.5,650.0 120.0,650.0 112.5,650.0 105.0,650.0 97.5,650.0 90.0,650.0" fill="#f1e05a" opacity="0.6" class="anim" style="animation-delay:600ms;"/>
<polygon points="90.0,650.0 97.5,650.0 105.0,650.0 112.5,650.0 120.0,650.0 127.5,650.0 135.0,650.0 142.5,650.0 150.0,455.5 157.5,455.4 165.0,455.1 172.5,447.0 180.0,447.0 187.5,448.2 195.0,438.9 202.5,439.0 210.0,439.6 217.5,439.6 225.0,439.6 232.5,439.6 240.0,439.6 247.5,445.6 255.0,445.6 262.5,443.3 270.0,443.3 277.5,443.3 285.0,443.6 292.5,443.6 300.0,444.1 307.5,444.1 315.0,444.1 322.5,444.1 330.0,444.1 337.5,444.1 345.0,437.5 352.5,437.5 360.0,437.5 367.5,437.5 375.0,437.5 382.5,437.5 390.0,437.5 397.5,438.4 405.0,438.5 412.5,438.3 420.0,439.3 427.5,439.3 435.0,439.3 442.5,439.3 450.0,439.3 457.5,439.3 465.0,439.3 472.5,439.3 480.0,439.3 487.5,439.3 495.0,439.3 502.5,439.3 510.0,439.3 517.5,439.4 525.0,439.4 532.5,439.4 540.0,439.4 547.5,439.4 555.0,440.7 562.5,441.1 570.0,441.1 577.5,441.1 585.0,441.1 592.5,441.1 600.0,441.1 607.5,441.1 615.0,441.1 622.5,442.0 630.0,442.0 637.5,442.0 645.0,442.0 652.5,442.0 660.0,442.0 667.5,442.0 675.0,442.0 682.5,442.0 690.0,442.0 697.5,442.0 705.0,442.0 712.5,442.0 720.0,442.0 727.5,442.0 735.0,442.0 742.5,442.0 750.0,442.0 757.5,442.0 765.0,442.0 772.5,441.8 780.0,441.6 780.0,454.9 772.5,456.5 765.0,458.2 757.5,458.2 750.0,458.2 742.5,458.2 735.0,458.2 727.5,458.2 720.0,458.2 712.5,458.2 705.0,458.2 697.5,458.2 690.0,458.2 682.5,458.2 675.0,458.2 667.5,458.2 660.0,458.2 652.5,458.2 645.0,458.2 637.5,458.2 630.0,458.2 622.5,458.2 615.0,457.4 607.5,457.4 600.0,457.4 592.5,457.4 585.0,457.4 577.5,457.4 570.0,457.4 562.5,457.4 555.0,457.0 547.5,455.8 540.0,455.8 532.5,455.8 525.0,455.8 517.5,455.8 510.0,455.9 502.5,455.9 495.0,455.9 487.5,455.9 480.0,455.9 472.5,455.9 465.0,455.9 457.5,455.9 450.0,455.9 442.5,455.9 435.0,455.9 427.5,455.9 420.0,455.9 412.5,454.9 405.0,455.1 397.5,455.0 390.0,454.3 382.5,454.3 375.0,455.4 367.5,455.4 360.0,455.4 352.5,455.6 345.0,455.6 337.5,469.7 330.0,469.7 322.5,469.7 315.0,469.7 307.5,469.7 300.0,469.7 292.5,469.7 285.0,469.7 277.5,469.5 270.0,469.5 262.5,469.5 255.0,473.5 247.5,473.0 240.0,460.6 232.5,460.6 225.0,460.6 217.5,460.6 210.0,460.6 202.5,460.2 195.0,460.1 187.5,477.2 180.0,476.0 172.5,476.0 165.0,489.0 157.5,488.0 150.0,488.4 142.5,650.0 135.0,650.0 127.5,650.0 120.0,650.0 112.5,650.0 105.0,650.0 97.5,650.0 90.0,650.0" fill="#3572A5" opacity="0.6" class="anim" style="animation-delay:700ms;"/>
<polygon points="90.0,650.0 97.5,650.0 105.0,650.0 112.5,650.0 120.0,650.0 127.5,650.0 135.0,650.0 142.5,650.0 150.0,442.3 157.5,442.0 165.0,441.6 172.5,439.5 180.0,439.5 187.5,439.4 195.0,432.3 202.5,432.2 210.0,432.6 217.5,432.6 225.0,432.6 232.5,432.6 240.0,432.6 247.5,439.3 255.0,439.3 262.5,437.4 270.0,437.4 277.5,437.4 285.0,437.3 292.5,437.3 300.0,437.1 307.5,437.1 315.0,437.1 322.5,437.1 330.0,437.1 337.5,437.1 345.0,428.7 352.5,428.6 360.0,428.5 367.5,428.5 375.0,428.5 382.5,427.3 390.0,427.3 397.5,427.1 405.0,427.1 412.5,427.1 420.0,427.0 427.5,427.0 435.0,427.0 442.5,427.0 450.0,427.0 457.5,427.0 465.0,427.0 472.5,427.0 480.0,427.0 487.5,427.0 495.0,427.0 502.5,427.0 510.0,427.0 517.5,427.0 525.0,427.1 532.5,427.1 540.0,427.1 547.5,427.1 555.0,428.4 562.5,428.9 570.0,428.9 577.5,428.9 585.0,428.9 592.5,428.9 600.0,428.9 607.5,428.9 615.0,428.9 622.5,428.7 630.0,428.7 637.5,428.7 645.0,428.7 652.5,428.7 660.0,428.7 667.5,428.7 675.0,428.7 682.5,428.7 690.0,428.7 697.5,428.7 705.0,428.7 712.5,428.7 720.0,428.7 727.5,428.7 735.0,428.7 742.5,428.7 750.0,428.7 757.5,428.7 765.0,428.7 772.5,427.8 780.0,426.8 780.0,441.6 772.5,441.8 765.0,442.0 757.5,442.0 750.0,442.0 742.5,442.0 735.0,442.0 727.5,442.0 720.0,442.0 712.5,442.0 705.0,442.0 697.5,442.0 690.0,442.0 682.5,442.0 675.0,442.0 667.5,442.0 660.0,442.0 652.5,442.0 645.0,442.0 637.5,442.0 630.0,442.0 622.5,442.0 615.0,441.1 607.5,441.1 600.0,441.1 592.5,441.1 585.0,441.1 577.5,441.1 570.0,441.1 562.5,441.1 555.0,440.7 547.5,439.4 540.0,439.4 532.5,439.4 525.0,439.4 517.5,439.4 510.0,439.3 502.5,439.3 495.0,439.3 487.5,439.3 480.0,439.3 472.5,439.3 465.0,439.3 457.5,439.3 450.0,439.3 442.5,439.3 435.0,439.3 427.5,439.3 420.0,439.3 412.5,438.3 405.0,438.5 397.5,438.4 390.0,437.5 382.5,437.5 375.0,437.5 367.5,437.5 360.0,437.5 352.5,437.5 345.0,437.5 337.5,444.1 330.0,444.1 322.5,444.1 315.0,444.1 307.5,444.1 300.0,444.1 292.5,443.6 285.0,443.6 277.5,443.3 270.0,443.3 262.5,443.3 255.0,445.6 247.5,445.6 240.0,439.6 232.5,439.6 225.0,439.6 217.5,439.6 210.0,439.6 202.5,439.0 195.0,438.9 187.5,448.2 180.0,447.0 172.5,447.0 165.0,455.1 157.5,455.4 150.0,455.5 142.5,650.0 135.0,650.0 127.5,650.0 120.0,650.0 112.5,650.0 105.0,650.0 97.5,650.0 90.0,650.0" fill="#663399" opacity="0.6" class="anim" style="animation-delay:800ms;"/>
<polygon points="90.0,650.0 97.5,650.0 105.0,650.0 112.5,650.0 120.0,650.0 127.5,650.0 135.0,650.0 142.5,650.0 150.0,436.6 157.5,436.3 165.0,435.9 172.5,432.2 180.0,432.2 187.5,432.2 195.0,426.2 202.5,426.1 210.0,426.0 217.5,426.0 225.0,426.0 232.5,426.0 240.0,426.0 247.5,430.8 255.0,430.7 262.5,429.3 270.0,429.3 277.5,429.3 285.0,429.2 292.5,429.2 300.0,428.9 307.5,428.9 315.0,428.8 322.5,428.8 330.0,428.8 337.5,428.8 345.0,423.0 352.5,422.9 360.0,422.9 367.5,422.9 375.0,422.9 382.5,422.0 390.0,422.0 397.5,421.9 405.0,421.9 412.5,421.9 420.0,421.8 427.5,421.8 435.0,421.8 442.5,421.8 450.0,421.8 457.5,421.8 465.0,421.8 472.5,421.8 480.0,421.8 487.5,421.8 495.0,421.8 502.5,421.8 510.0,421.8 517.5,421.7 525.0,421.8 532.5,421.8 540.0,421.8 547.5,421.8 555.0,423.2 562.5,423.6 570.0,423.6 577.5,423.6 585.0,423.6 592.5,423.6 600.0,423.6 607.5,423.6 615.0,423.6 622.5,423.5 630.0,423.5 637.5,423.5 645.0,423.5 652.5,423.5 660.0,423.5 667.5,423.5 675.0,423.5 682.5,423.5 690.0,423.5 697.5,423.5 705.0,423.5 712.5,423.5 720.0,423.5 727.5,423.5 735.0,423.5 742.5,423.5 750.0,423.5 757.5,423.5 765.0,423.5 772.5,422.8 780.0,422.2 780.0,426.8 772.5,427.8 765.0,428.7 757.5,428.7 750.0,428.7 742.5,428.7 735.0,428.7 727.5,428.7 720.0,428.7 712.5,428.7 705.0,428.7 697.5,428.7 690.0,428.7 682.5,428.7 675.0,428.7 667.5,428.7 660.0,428.7 652.5,428.7 645.0,428.7 637.5,428.7 630.0,428.7 622.5,428.7 615.0,428.9 607.5,428.9 600.0,428.9 592.5,428.9 585.0,428.9 577.5,428.9 570.0,428.9 562.5,428.9 555.0,428.4 547.5,427.1 540.0,427.1 532.5,427.1 525.0,427.1 517.5,427.0 510.0,427.0 502.5,427.0 495.0,427.0 487.5,427.0 480.0,427.0 472.5,427.0 465.0,427.0 457.5,427.0 450.0,427.0 442.5,427.0 435.0,427.0 427.5,427.0 420.0,427.0 412.5,427.1 405.0,427.1 397.5,427.1 390.0,427.3 382.5,427.3 375.0,428.5 367.5,428.5 360.0,428.5 352.5,428.6 345.0,428.7 337.5,437.1 330.0,437.1 322.5,437.1 315.0,437.1 307.5,437.1 300.0,437.1 292.5,437.3 285.0,437.3 277.5,437.4 270.0,437.4 262.5,437.4 255.0,439.3 247.5,439.3 240.0,432.6 232.5,432.6 225.0,432.6 217.5,432.6 210.0,432.6 202.5,432.2 195.0,432.3 187.5,439.4 180.0,439.5 172.5,439.5 165.0,441.6 157.5,442.0 150.0,442.3 142.5,650.0 135.0,650.0 127.5,650.0 120.0,650.0 112.5,650.0 105.0,650.0 97.5,650.0 90.0,650.0" fill="#083fa1" opacity="0.6" class="anim" style="animation-delay:900ms;"/>
<polygon points="90.0,650.0 97.5,650.0 105.0,650.0 112.5,650.0 120.0,650.0 127.5,650.0 135.0,650.0 142.5,650.0 150.0,428.3 157.5,428.1 165.0,427.8 172.5,425.3 180.0,425.3 187.5,425.2 195.0,421.1 202.5,421.1 210.0,421.0 217.5,421.0 225.0,421.0 232.5,421.0 240.0,421.0 247.5,424.3 255.0,424.2 262.5,423.3 270.0,423.3 277.5,423.3 285.0,423.2 292.5,423.2 300.0,423.0 307.5,423.0 315.0,422.9 322.5,422.9 330.0,422.9 337.5,422.9 345.0,418.9 352.5,418.9 360.0,418.8 367.5,418.8 375.0,418.8 382.5,418.3 390.0,418.3 397.5,418.2 405.0,418.2 412.5,418.2 420.0,418.1 427.5,418.1 435.0,418.1 442.5,418.1 450.0,418.1 457.5,418.1 465.0,418.1 472.5,418.1 480.0,418.1 487.5,418.1 495.0,418.1 502.5,418.1 510.0,418.1 517.5,418.1 525.0,418.1 532.5,418.1 540.0,418.1 547.5,418.1 555.0,418.0 562.5,418.0 570.0,418.0 577.5,418.0 585.0,418.0 592.5,418.0 600.0,418.0 607.5,418.0 615.0,418.0 622.5,417.9 630.0,417.9 637.5,417.9 645.0,417.9 652.5,417.9 660.0,417.9 667.5,417.9 675.0,417.9 682.5,417.9 690.0,417.9 697.5,417.9 705.0,417.9 712.5,417.9 720.0,417.9 727.5,417.9 735.0,417.9 742.5,417.9 750.0,417.9 757.5,417.9 765.0,417.9 772.5,417.3 780.0,416.7 780.0,422.2 772.5,422.8 765.0,423.5 757.5,423.5 750.0,423.5 742.5,423.5 735.0,423.5 727.5,423.5 720.0,423.5 712.5,423.5 705.0,423.5 697.5,423.5 690.0,423.5 682.5,423.5 675.0,423.5 667.5,423.5 660.0,423.5 652.5,423.5 645.0,423.5 637.5,423.5 630.0,423.5 622.5,423.5 615.0,423.6 607.5,423.6 600.0,423.6 592.5,423.6 585.0,423.6 577.5,423.6 570.0,423.6 562.5,423.6 555.0,423.2 547.5,421.8 540.0,421.8 532.5,421.8 525.0,421.8 517.5,421.7 510.0,421.8 502.5,421.8 495.0,421.8 487.5,421.8 480.0,421.8 472.5,421.8 465.0,421.8 457.5,421.8 450.0,421.8 442.5,421.8 435.0,421.8 427.5,421.8 420.0,421.8 412.5,421.9 405.0,421.9 397.5,421.9 390.0,422.0 382.5,422.0 375.0,422.9 367.5,422.9 360.0,422.9 352.5,422.9 345.0,423.0 337.5,428.8 330.0,428.8 322.5,428.8 315.0,428.8 307.5,428.9 300.0,428.9 292.5,429.2 285.0,429.2 277.5,429.3 270.0,429.3 262.5,429.3 255.0,430.7 247.5,430.8 240.0,426.0 232.5,426.0 225.0,426.0 217.5,426.0 210.0,426.0 202.5,426.1 195.0,426.2 187.5,432.2 180.0,432.2 172.5,432.2 165.0,435.9 157.5,436.3 150.0,436.6 142.5,650.0 135.0,650.0 127.5,650.0 120.0,650.0 112.5,650.0 105.0,650.0 97.5,650.0 90.0,650.0" fill="#F05138" opacity="0.6" class="anim" style="animation-delay:1000ms;"/>
<polygon points="90.0,650.0 97.5,650.0 105.0,650.0 112.5,650.0 120.0,650.0 127.5,650.0 135.0,650.0 142.5,650.0 150.0,418.7 157.5,418.6 165.0,418.5 172.5,417.3 180.0,417.3 187.5,417.2 195.0,415.3 202.5,415.3 210.0,415.2 217.5,415.2 225.0,415.2 232.5,415.2 240.0,415.2 247.5,416.8 255.0,416.8 262.5,416.3 270.0,416.3 277.5,416.3 285.0,416.3 292.5,416.3 300.0,416.2 307.5,416.2 315.0,416.2 322.5,416.2 330.0,416.2 337.5,416.2 345.0,414.2 352.5,414.2 360.0,414.2 367.5,414.2 375.0,414.2 382.5,413.9 390.0,413.9 397.5,413.9 405.0,413.9 412.5,413.9 420.0,413.9 427.5,413.9 435.0,413.9 442.5,413.9 450.0,413.9 457.5,413.9 465.0,413.9 472.5,413.9 480.0,413.9 487.5,413.9 495.0,413.9 502.5,413.9 510.0,413.9 517.5,413.8 525.0,413.8 532.5,413.8 540.0,413.8 547.5,413.8 555.0,413.8 562.5,413.8 570.0,413.8 577.5,413.8 585.0,413.8 592.5,413.8 600.0,413.8 607.5,413.8 615.0,413.8 622.5,413.8 630.0,413.8 637.5,413.8 645.0,413.8 652.5,413.8 660.0,413.8 667.5,413.8 675.0,413.8 682.5,413.8 690.0,413.8 697.5,413.8 705.0,413.8 712.5,413.8 720.0,413.8 727.5,413.8 735.0,413.8 742.5,413.8 750.0,413.8 757.5,413.8 765.0,413.8 772.5,413.6 780.0,413.4 780.0,416.7 772.5,417.3 765.0,417.9 757.5,417.9 750.0,417.9 742.5,417.9 735.0,417.9 727.5,417.9 720.0,417.9 712.5,417.9 705.0,417.9 697.5,417.9 690.0,417.9 682.5,417.9 675.0,417.9 667.5,417.9 660.0,417.9 652.5,417.9 645.0,417.9 637.5,417.9 630.0,417.9 622.5,417.9 615.0,418.0 607.5,418.0 600.0,418.0 592.5,418.0 585.0,418.0 577.5,418.0 570.0,418.0 562.5,418.0 555.0,418.0 547.5,418.1 540.0,418.1 532.5,418.1 525.0,418.1 517.5,418.1 510.0,418.1 502.5,418.1 495.0,418.1 487.5,418.1 480.0,418.1 472.5,418.1 465.0,418.1 457.5,418.1 450.0,418.1 442.5,418.1 435.0,418.1 427.5,418.1 420.0,418.1 412.5,418.2 405.0,418.2 397.5,418.2 390.0,418.3 382.5,418.3 375.0,418.8 367.5,418.8 360.0,418.8 352.5,418.9 345.0,418.9 337.5,422.9 330.0,422.9 322.5,422.9 315.0,422.9 307.5,423.0 300.0,423.0 292.5,423.2 285.0,423.2 277.5,423.3 270.0,423.3 262.5,423.3 255.0,424.2 247.5,424.3 240.0,421.0 232.5,421.0 225.0,421.0 217.5,421.0 210.0,421.0 202.5,421.1 195.0,421.1 187.5,425.2 180.0,425.3 172.5,425.3 165.0,427.8 157.5,428.1 150.0,428.3 142.5,650.0 135.0,650.0 127.5,650.0 120.0,650.0 112.5,650.0 105.0,650.0 97.5,650.0 90.0,650.0" fill="#6E4C13" opacity="0.6" class="anim" style="animation-delay:1100ms;"/>
<polygon points="90.0,650.0 97.5,650.0 105.0,650.0 112.5,650.0 120.0,650.0 127.5,650.0 135.0,650.0 142.5,650.0 150.0,414.4 157.5,414.4 165.0,414.3 172.5,413.7 180.0,413.7 187.5,413.7 195.0,412.7 202.5,412.7 210.0,412.7 217.5,412.7 225.0,412.7 232.5,412.7 240.0,412.7 247.5,413.5 255.0,413.4 262.5,413.2 270.0,413.2 277.5,413.2 285.0,413.2 292.5,413.2 300.0,413.1 307.5,413.1 315.0,413.1 322.5,413.1 330.0,413.1 337.5,413.1 345.0,412.2 352.5,412.1 360.0,412.1 367.5,412.1 375.0,412.1 382.5,412.0 390.0,412.0 397.5,412.0 405.0,412.0 412.5,412.0 420.0,412.0 427.5,412.0 435.0,412.0 442.5,412.0 450.0,412.0 457.5,412.0 465.0,412.0 472.5,412.0 480.0,412.0 487.5,412.0 495.0,412.0 502.5,412.0 510.0,412.0 517.5,411.9 525.0,411.9 532.5,411.9 540.0,411.9 547.5,411.9 555.0,411.9 562.5,411.9 570.0,411.9 577.5,411.9 585.0,411.9 592.5,411.9 600.0,411.9 607.5,411.9 615.0,411.9 622.5,411.9 630.0,411.9 637.5,411.9 645.0,411.9 652.5,411.9 660.0,411.9 667.5,411.9 675.0,411.9 682.5,411.9 690.0,411.9 697.5,411.9 705.0,411.9 712.5,411.9 720.0,411.9 727.5,411.9 735.0,411.9 742.5,411.9 750.0,411.9 757.5,411.9 765.0,411.9 772.5,411.9 780.0,411.9 780.0,413.4 772.5,413.6 765.0,413.8 757.5,413.8 750.0,413.8 742.5,413.8 735.0,413.8 727.5,413.8 720.0,413.8 712.5,413.8 705.0,413.8 697.5,413.8 690.0,413.8 682.5,413.8 675.0,413.8 667.5,413.8 660.0,413.8 652.5,413.8 645.0,413.8 637.5,413.8 630.0,413.8 622.5,413.8 615.0,413.8 607.5,413.8 600.0,413.8 592.5,413.8 585.0,413.8 577.5,413.8 570.0,413.8 562.5,413.8 555.0,413.8 547.5,413.8 540.0,413.8 532.5,413.8 525.0,413.8 517.5,413.8 510.0,413.9 502.5,413.9 495.0,413.9 487.5,413.9 480.0,413.9 472.5,413.9 465.0,413.9 457.5,413.9 450.0,413.9 442.5,413.9 435.0,413.9 427.5,413.9 420.0,413.9 412.5,413.9 405.0,413.9 397.5,413.9 390.0,413.9 382.5,413.9 375.0,414.2 367.5,414.2 360.0,414.2 352.5,414.2 345.0,414.2 337.5,416.2 330.0,416.2 322.5,416.2 315.0,416.2 307.5,416.2 300.0,416.2 292.5,416.3 285.0,416.3 277.5,416.3 270.0,416.3 262.5,416.3 255.0,416.8 247.5,416.8 240.0,415.2 232.5,415.2 225.0,415.2 217.5,415.2 210.0,415.2 202.5,415.3 195.0,415.3 187.5,417.2 180.0,417.3 172.5,417.3 165.0,418.5 157.5,418.6 150.0,418.7 142.5,650.0 135.0,650.0 127.5,650.0 120.0,650.0 112.5,650.0 105.0,650.0 97.5,650.0 90.0,650.0" fill="#b07219" opacity="0.6" class="anim" style="animation-delay:1200ms;"/>
<line x1="765.0" y1="100" x2="765.0" y2="650" stroke="#c9d1d9" stroke-width="1" stroke-dasharray="4,3" opacity="0.35"/>
<text x="772.5" y="112" text-anchor="middle" class="axis-label" opacity="0.6">Jul 22, 2026</text>
<text x="90.0" y="668" text-anchor="middle" class="axis-label" transform="rotate(-35 90.0 668)">2026-02</text>
<text x="315.0" y="668" text-anchor="middle" class="axis-label" transform="rotate(-35 315.0 668)">2026-03</text>
<text x="540.0" y="668" text-anchor="middle" class="axis-label" transform="rotate(-35 540.0 668)">2026-06</text>
<text x="765.0" y="668" text-anchor="middle" class="axis-label" transform="rotate(-35 765.0 668)">2026-07</text>
<line x1="796" y1="110" x2="824" y2="110" stroke="#3fb950" stroke-width="2"/>
<text x="832" y="116" class="legend-text">Lines Added</text>
<line x1="796" y1="140" x2="824" y2="140" stroke="#f85149" stroke-width="1.5"/>
<text x="832" y="146" class="legend-text">Lines Deleted</text>
<line x1="796" y1="170" x2="824" y2="170" stroke="#e3b341" stroke-width="1.5" stroke-dasharray="4,3"/>
<text x="832" y="176" class="legend-text">&#x2605; Stars</text>
<text x="796" y="200" class="subtitle">Languages</text>
<rect x="796" y="212" width="12" height="12" rx="2" fill="#e34c26" opacity="0.8" class="anim" style="animation-delay:800ms;"/>
<text x="814" y="223" class="legend-text">HTML (58%→56%)</text>
<rect x="796" y="234" width="12" height="12" rx="2" fill="#f1e05a" opacity="0.8" class="anim" style="animation-delay:880ms;"/>
<text x="814" y="245" class="legend-text">JavaScript (22%→25%)</text>
<rect x="796" y="256" width="12" height="12" rx="2" fill="#3572A5" opacity="0.8" class="anim" style="animation-delay:960ms;"/>
<text x="814" y="267" class="legend-text">Python (7%→6%)</text>
<rect x="796" y="278" width="12" height="12" rx="2" fill="#663399" opacity="0.8" class="anim" style="animation-delay:1040ms;"/>
<text x="814" y="289" class="legend-text">CSS (6%→6%)</text>
<rect x="796" y="300" width="12" height="12" rx="2" fill="#083fa1" opacity="0.8" class="anim" style="animation-delay:1120ms;"/>
<text x="814" y="311" class="legend-text">Markdown (2%→2%)</text>
<rect x="796" y="322" width="12" height="12" rx="2" fill="#F05138" opacity="0.8" class="anim" style="animation-delay:1200ms;"/>
<text x="814" y="333" class="legend-text">Swift (2%→2%)</text>
<rect x="796" y="344" width="12" height="12" rx="2" fill="#6E4C13" opacity="0.8" class="anim" style="animation-delay:1280ms;"/>
<text x="814" y="355" class="legend-text">Assembly (2%→1%)</text>
<rect x="796" y="366" width="12" height="12" rx="2" fill="#b07219" opacity="0.8" class="anim" style="animation-delay:1360ms;"/>
<text x="814" y="377" class="legend-text">Java (1%→1%)</text>
<text x="796" y="412" class="subtitle">Contributions</text>
<text x="796" y="432" class="axis-label">2023: 39</text>
<text x="796" y="452" class="axis-label">2024: 646</text>
<text x="796" y="472" class="axis-label">2025: 1,780</text>
<text x="796" y="492" class="axis-label">2026: 491</text>
<text x="796" y="522" class="subtitle">Statistics</text>
<text x="796" y="542" class="axis-label">Active weeks: 88</text>
<text x="796" y="562" class="axis-label">Add/Del ratio: 1.8x</text>
<text x="796" y="582" class="axis-label">Avg lines/wk: 18K</text>
<text x="796" y="602" class="axis-label">Peak: 2026-02-15</text>
<text x="796" y="622" class="axis-label">  (543K lines)</text>
<text x="90" y="742" class="axis-label">Total: +1,040,332 / -576,819 lines &#xb7; 2,956 contributions &#xb7; 80 repos &#xb7; &#x2605; 37</text>
</svg>