<svg xmlns="http://www.w3.org/2000/svg" width="1000" height="760" style="max-width: 100%;" viewBox="0 0 1000 760">

<defs>
  <linearGradient id="areaGrad" x1="0" y1="0" x2="0" y2="1">
    <stop offset="0%" stop-color="#58a6ff" stop-opacity="0.35"/>
    <stop offset="100%" stop-color="#58a6ff" stop-opacity="0.02"/>
  </linearGradient>
  <linearGradient id="addGrad" x1="0" y1="0" x2="0" y2="1">
    <stop offset="0%" stop-color="#3fb950" stop-opacity="0.35"/>
    <stop offset="100%" stop-color="#3fb950" stop-opacity="0.02"/>
  </linearGradient>
  <linearGradient id="delGrad" x1="0" y1="0" x2="0" y2="1">
    <stop offset="0%" stop-color="#f85149" stop-opacity="0.25"/>
    <stop offset="100%" stop-color="#f85149" stop-opacity="0.02"/>
  </linearGradient>
</defs>
<style>
  .title { font: bold 28px 'Segoe UI', Ubuntu, Sans-Serif; fill: #c9d1d9; }
  .subtitle { font: 600 20px 'Segoe UI', Ubuntu, Sans-Serif; fill: #c9d1d9; opacity: 0.8; }
  .axis-label { font: 18px 'Segoe UI', Ubuntu, Sans-Serif; fill: #c9d1d9; opacity: 0.7; }
  .legend-text { font: 14px 'Segoe UI', Ubuntu, Sans-Serif; fill: #c9d1d9; }
  .value-text { font: bold 18px 'Segoe UI', Ubuntu, Sans-Serif; fill: #c9d1d9; }
  .stat-value { font: bold 22px 'Segoe UI', Ubuntu, Sans-Serif; fill: #c9d1d9; }
  .stat-label { font: 18px 'Segoe UI', Ubuntu, Sans-Serif; fill: #c9d1d9; opacity: 0.7; }
  @keyframes fadeIn { from { opacity: 0; } to { opacity: 1; } }
  .anim { animation: fadeIn 0.6s ease-in-out forwards; opacity: 0; }
</style>

<rect x="0.5" y="0.5" rx="4.5" width="999" height="759" fill="#161b22" stroke="#21262d"/>
<text x="90" y="45" class="title">Activity History</text>
<text x="90" y="72" class="subtitle">Lines added vs deleted &amp; activity trends over time</text>
<line x1="90" y1="340.0" x2="780" y2="340.0" stroke="#21262d" stroke-width="1"/>
<text x="82" y="344.0" text-anchor="end" class="axis-label">0</text>
<line x1="90" y1="280.0" x2="780" y2="280.0" stroke="#21262d" stroke-width="1"/>
<text x="82" y="284.0" text-anchor="end" class="axis-label">569K</text>
<line x1="90" y1="220.0" x2="780" y2="220.0" stroke="#21262d" stroke-width="1"/>
<text x="82" y="224.0" text-anchor="end" class="axis-label">1.1M</text>
<line x1="90" y1="160.0" x2="780" y2="160.0" stroke="#21262d" stroke-width="1"/>
<text x="82" y="164.0" text-anchor="end" class="axis-label">1.7M</text>
<line x1="90" y1="100.0" x2="780" y2="100.0" stroke="#21262d" stroke-width="1"/>
<text x="82" y="104.0" text-anchor="end" class="axis-label">2.3M</text>
<polygon points="90.0,340.0 90.0,301.5 105.0,302.9 120.0,301.5 135.0,302.9 150.0,311.8 165.0,294.2 180.0,294.2 195.0,287.5 210.0,287.3 225.0,286.8 240.0,286.8 255.0,275.0 270.0,274.9 285.0,274.9 300.0,257.4 315.0,257.1 330.0,256.9 345.0,256.9 360.0,256.9 375.0,256.9 390.0,256.9 405.0,256.5 420.0,244.8 435.0,244.7 450.0,244.7 465.0,244.7 480.0,244.4 495.0,244.4 510.0,243.9 525.0,243.9 540.0,243.9 555.0,243.9 570.0,243.9 585.0,243.9 600.0,243.9 615.0,243.9 630.0,243.9 645.0,243.9 660.0,243.9 675.0,243.9 690.0,243.9 705.0,243.4 720.0,243.6 735.0,243.0 750.0,242.8 765.0,221.7 780.0,200.5 780.0,340.0" fill="url(#addGrad)" class="anim" style="animation-delay:200ms;"/>
<polyline points="90.0,301.5 105.0,302.9 120.0,301.5 135.0,302.9 150.0,311.8 165.0,294.2 180.0,294.2 195.0,287.5 210.0,287.3 225.0,286.8 240.0,286.8 255.0,275.0 270.0,274.9 285.0,274.9 300.0,257.4 315.0,257.1 330.0,256.9 345.0,256.9 360.0,256.9 375.0,256.9 390.0,256.9 405.0,256.5 420.0,244.8 435.0,244.7 450.0,244.7 465.0,244.7 480.0,244.4 495.0,244.4 510.0,243.9 525.0,243.9 540.0,243.9 555.0,243.9 570.0,243.9 585.0,243.9 600.0,243.9 615.0,243.9 630.0,243.9 645.0,243.9 660.0,243.9 675.0,243.9 690.0,243.9 705.0,243.4 720.0,243.6 735.0,243.0 750.0,242.8" fill="none" stroke="#3fb950" stroke-width="2" stroke-linejoin="round" class="anim" style="animation-delay:250ms;"/>
<polyline points="750.0,242.8 765.0,221.7 780.0,200.5" fill="none" stroke="#3fb950" stroke-width="1.5" stroke-dasharray="5,4" stroke-linejoin="round" opacity="0.6" class="anim" style="animation-delay:250ms;"/>
<polygon points="90.0,340.0 90.0,329.2 105.0,330.3 120.0,329.2 135.0,330.3 150.0,334.9 165.0,327.9 180.0,327.9 195.0,327.1 210.0,326.8 225.0,326.6 240.0,326.6 255.0,313.8 270.0,313.8 285.0,313.8 300.0,299.4 315.0,299.3 330.0,299.2 345.0,299.2 360.0,299.2 375.0,299.2 390.0,299.2 405.0,291.7 420.0,280.2 435.0,280.1 450.0,280.1 465.0,280.1 480.0,280.1 495.0,280.1 510.0,280.0 525.0,280.0 540.0,280.0 555.0,280.0 570.0,280.0 585.0,280.0 600.0,280.0 615.0,280.0 630.0,280.0 645.0,280.0 660.0,280.0 675.0,280.0 690.0,280.0 705.0,280.0 720.0,280.0 735.0,279.6 750.0,279.6 765.0,259.5 780.0,239.5 780.0,340.0" fill="url(#delGrad)" class="anim" style="animation-delay:300ms;"/>
<polyline points="90.0,329.2 105.0,330.3 120.0,329.2 135.0,330.3 150.0,334.9 165.0,327.9 180.0,327.9 195.0,327.1 210.0,326.8 225.0,326.6 240.0,326.6 255.0,313.8 270.0,313.8 285.0,313.8 300.0,299.4 315.0,299.3 330.0,299.2 345.0,299.2 360.0,299.2 375.0,299.2 390.0,299.2 405.0,291.7 420.0,280.2 435.0,280.1 450.0,280.1 465.0,280.1 480.0,280.1 495.0,280.1 510.0,280.0 525.0,280.0 540.0,280.0 555.0,280.0 570.0,280.0 585.0,280.0 600.0,280.0 615.0,280.0 630.0,280.0 645.0,280.0 660.0,280.0 675.0,280.0 690.0,280.0 705.0,280.0 720.0,280.0 735.0,279.6 750.0,279.6" fill="none" stroke="#f85149" stroke-width="1.5" stroke-linejoin="round" class="anim" style="animation-delay:350ms;"/>
<polyline points="750.0,279.6 765.0,259.5 780.0,239.5" fill="none" stroke="#f85149" stroke-width="1" stroke-dasharray="5,4" stroke-linejoin="round" opacity="0.6" class="anim" style="animation-delay:350ms;"/>
<polyline points="90.0,340.0 105.0,340.0 120.0,340.0 135.0,340.0 150.0,340.0 165.0,340.0 180.0,340.0 195.0,340.0 210.0,292.0 225.0,292.0 240.0,292.0 255.0,292.0 270.0,292.0 285.0,292.0 300.0,292.0 315.0,292.0 330.0,292.0 345.0,292.0 360.0,292.0 375.0,292.0 390.0,292.0 405.0,292.0 420.0,292.0 435.0,292.0 450.0,292.0 465.0,292.0 480.0,292.0 495.0,292.0 510.0,292.0 525.0,292.0 540.0,292.0 555.0,292.0 570.0,292.0 585.0,292.0 600.0,244.0 615.0,244.0 630.0,244.0 645.0,244.0 660.0,244.0 675.0,244.0 690.0,244.0 705.0,244.0 720.0,196.0 735.0,196.0 750.0,196.0" fill="none" stroke="#e3b341" stroke-width="1.5" stroke-dasharray="4,3" stroke-linejoin="round" class="anim" style="animation-delay:400ms;"/>
<polyline points="750.0,196.0 765.0,196.0 780.0,148.0" fill="none" stroke="#e3b341" stroke-width="1" stroke-dasharray="3,5" stroke-linejoin="round" opacity="0.5" class="anim" style="animation-delay:400ms;"/>
<text x="90" y="90" class="subtitle">Lines Added vs Deleted (per snapshot)</text>
<text x="90" y="400" class="subtitle">Programming Language Development (%)</text>
<line x1="90" y1="650.0" x2="780" y2="650.0" stroke="#21262d" stroke-width="1"/>
<text x="82" y="654.0" text-anchor="end" class="axis-label">0%</text>
<line x1="90" y1="590.0" x2="780" y2="590.0" stroke="#21262d" stroke-width="1"/>
<text x="82" y="594.0" text-anchor="end" class="axis-label">25%</text>
<line x1="90" y1="530.0" x2="780" y2="530.0" stroke="#21262d" stroke-width="1"/>
<text x="82" y="534.0" text-anchor="end" class="axis-label">50%</text>
<line x1="90" y1="470.0" x2="780" y2="470.0" stroke="#21262d" stroke-width="1"/>
<text x="82" y="474.0" text-anchor="end" class="axis-label">75%</text>
<line x1="90" y1="410.0" x2="780" y2="410.0" stroke="#21262d" stroke-width="1"/>
<text x="82" y="414.0" text-anchor="end" class="axis-label">100%</text>
<polygon points="90.0,650.0 105.0,650.0 120.0,650.0 135.0,650.0 150.0,650.0 165.0,650.0 180.0,650.0 195.0,650.0 210.0,528.2 225.0,528.5 240.0,529.7 255.0,499.3 270.0,499.3 285.0,502.9 300.0,485.0 315.0,485.1 330.0,485.4 345.0,485.4 360.0,485.4 375.0,485.4 390.0,485.4 405.0,496.4 420.0,496.7 435.0,491.0 450.0,491.0 465.0,491.0 480.0,491.7 495.0,491.8 510.0,494.0 525.0,494.0 540.0,494.4 555.0,494.4 570.0,494.4 585.0,494.4 600.0,507.6 615.0,507.6 630.0,507.9 645.0,507.9 660.0,507.9 675.0,506.3 690.0,506.4 705.0,506.8 720.0,506.9 735.0,506.8 750.0,507.5 765.0,509.2 780.0,510.9 780.0,650.0 765.0,650.0 750.0,650.0 735.0,650.0 720.0,650.0 705.0,650.0 690.0,650.0 675.0,650.0 660.0,650.0 645.0,650.0 630.0,650.0 615.0,650.0 600.0,650.0 585.0,650.0 570.0,650.0 555.0,650.0 540.0,650.0 525.0,650.0 510.0,650.0 495.0,650.0 480.0,650.0 465.0,650.0 450.0,650.0 435.0,650.0 420.0,650.0 405.0,650.0 390.0,650.0 375.0,650.0 360.0,650.0 345.0,650.0 330.0,650.0 315.0,650.0 300.0,650.0 285.0,650.0 270.0,650.0 255.0,650.0 240.0,650.0 225.0,650.0 210.0,650.0 195.0,650.0 180.0,650.0 165.0,650.0 150.0,650.0 135.0,650.0 120.0,650.0 105.0,650.0 90.0,650.0" fill="#e34c26" opacity="0.6" class="anim" style="animation-delay:500ms;"/>
<polygon points="90.0,650.0 105.0,650.0 120.0,650.0 135.0,650.0 150.0,650.0 165.0,650.0 180.0,650.0 195.0,650.0 210.0,488.4 225.0,488.0 240.0,489.0 255.0,476.0 270.0,476.0 285.0,477.2 300.0,460.1 315.0,460.2 330.0,460.6 345.0,460.6 360.0,460.6 375.0,460.6 390.0,460.6 405.0,473.0 420.0,473.5 435.0,469.5 450.0,469.5 465.0,469.5 480.0,469.7 495.0,469.7 510.0,469.7 525.0,469.7 540.0,469.7 555.0,469.7 570.0,469.7 585.0,469.7 600.0,455.6 615.0,455.6 630.0,455.4 645.0,455.4 660.0,455.4 675.0,454.3 690.0,454.3 705.0,455.0 720.0,455.1 735.0,454.9 750.0,455.9 765.0,447.3 780.0,438.8 780.0,510.9 765.0,509.2 750.0,507.5 735.0,506.8 720.0,506.9 705.0,506.8 690.0,506.4 675.0,506.3 660.0,507.9 645.0,507.9 630.0,507.9 615.0,507.6 600.0,507.6 585.0,494.4 570.0,494.4 555.0,494.4 540.0,494.4 525.0,494.0 510.0,494.0 495.0,491.8 480.0,491.7 465.0,491.0 450.0,491.0 435.0,491.0 420.0,496.7 405.0,496.4 390.0,485.4 375.0,485.4 360.0,485.4 345.0,485.4 330.0,485.4 315.0,485.1 300.0,485.0 285.0,502.9 270.0,499.3 255.0,499.3 240.0,529.7 225.0,528.5 210.0,528.2 195.0,650.0 180.0,650.0 165.0,650.0 150.0,650.0 135.0,650.0 120.0,650.0 105.0,650.0 90.0,650.0" fill="#f1e05a" opacity="0.6" class="anim" style="animation-delay:600ms;"/>
<polygon points="90.0,650.0 105.0,650.0 120.0,650.0 135.0,650.0 150.0,650.0 165.0,650.0 180.0,650.0 195.0,650.0 210.0,455.5 225.0,455.4 240.0,455.1 255.0,447.0 270.0,447.0 285.0,448.2 300.0,438.9 315.0,439.0 330.0,439.6 345.0,439.6 360.0,439.6 375.0,439.6 390.0,439.6 405.0,445.6 420.0,445.6 435.0,443.3 450.0,443.3 465.0,443.3 480.0,443.6 495.0,443.6 510.0,444.1 525.0,444.1 540.0,444.1 555.0,444.1 570.0,444.1 585.0,444.1 600.0,437.5 615.0,437.5 630.0,437.5 645.0,437.5 660.0,437.5 675.0,437.5 690.0,437.5 705.0,438.4 720.0,438.5 735.0,438.3 750.0,439.3 765.0,435.7 780.0,432.1 780.0,438.8 765.0,447.3 750.0,455.9 735.0,454.9 720.0,455.1 705.0,455.0 690.0,454.3 675.0,454.3 660.0,455.4 645.0,455.4 630.0,455.4 615.0,455.6 600.0,455.6 585.0,469.7 570.0,469.7 555.0,469.7 540.0,469.7 525.0,469.7 510.0,469.7 495.0,469.7 480.0,469.7 465.0,469.5 450.0,469.5 435.0,469.5 420.0,473.5 405.0,473.0 390.0,460.6 375.0,460.6 360.0,460.6 345.0,460.6 330.0,460.6 315.0,460.2 300.0,460.1 285.0,477.2 270.0,476.0 255.0,476.0 240.0,489.0 225.0,488.0 210.0,488.4 195.0,650.0 180.0,650.0 165.0,650.0 150.0,650.0 135.0,650.0 120.0,650.0 105.0,650.0 90.0,650.0" fill="#3572A5" opacity="0.6" class="anim" style="animation-delay:700ms;"/>
<polygon points="90.0,650.0 105.0,650.0 120.0,650.0 135.0,650.0 150.0,650.0 165.0,650.0 180.0,650.0 195.0,650.0 210.0,442.3 225.0,442.0 240.0,441.6 255.0,439.5 270.0,439.5 285.0,439.4 300.0,432.3 315.0,432.2 330.0,432.6 345.0,432.6 360.0,432.6 375.0,432.6 390.0,432.6 405.0,439.3 420.0,439.3 435.0,437.4 450.0,437.4 465.0,437.4 480.0,437.3 495.0,437.3 510.0,437.1 525.0,437.1 540.0,437.1 555.0,437.1 570.0,437.1 585.0,437.1 600.0,428.7 615.0,428.6 630.0,428.5 645.0,428.5 660.0,428.5 675.0,427.3 690.0,427.3 705.0,427.1 720.0,427.1 735.0,427.1 750.0,427.0 765.0,423.0 780.0,418.9 780.0,432.1 765.0,435.7 750.0,439.3 735.0,438.3 720.0,438.5 705.0,438.4 690.0,437.5 675.0,437.5 660.0,437.5 645.0,437.5 630.0,437.5 615.0,437.5 600.0,437.5 585.0,444.1 570.0,444.1 555.0,444.1 540.0,444.1 525.0,444.1 510.0,444.1 495.0,443.6 480.0,443.6 465.0,443.3 450.0,443.3 435.0,443.3 420.0,445.6 405.0,445.6 390.0,439.6 375.0,439.6 360.0,439.6 345.0,439.6 330.0,439.6 315.0,439.0 300.0,438.9 285.0,448.2 270.0,447.0 255.0,447.0 240.0,455.1 225.0,455.4 210.0,455.5 195.0,650.0 180.0,650.0 165.0,650.0 150.0,650.0 135.0,650.0 120.0,650.0 105.0,650.0 90.0,650.0" fill="#663399" opacity="0.6" class="anim" style="animation-delay:800ms;"/>
<polygon points="90.0,650.0 105.0,650.0 120.0,650.0 135.0,650.0 150.0,650.0 165.0,650.0 180.0,650.0 195.0,650.0 210.0,436.6 225.0,436.3 240.0,435.9 255.0,432.2 270.0,432.2 285.0,432.2 300.0,426.2 315.0,426.1 330.0,426.0 345.0,426.0 360.0,426.0 375.0,426.0 390.0,426.0 405.0,430.8 420.0,430.7 435.0,429.3 450.0,429.3 465.0,429.3 480.0,429.2 495.0,429.2 510.0,428.9 525.0,428.9 540.0,428.8 555.0,428.8 570.0,428.8 585.0,428.8 600.0,423.0 615.0,422.9 630.0,422.9 645.0,422.9 660.0,422.9 675.0,422.0 690.0,422.0 705.0,421.9 720.0,421.9 735.0,421.9 750.0,421.8 765.0,418.2 780.0,414.6 780.0,418.9 765.0,423.0 750.0,427.0 735.0,427.1 720.0,427.1 705.0,427.1 690.0,427.3 675.0,427.3 660.0,428.5 645.0,428.5 630.0,428.5 615.0,428.6 600.0,428.7 585.0,437.1 570.0,437.1 555.0,437.1 540.0,437.1 525.0,437.1 510.0,437.1 495.0,437.3 480.0,437.3 465.0,437.4 450.0,437.4 435.0,437.4 420.0,439.3 405.0,439.3 390.0,432.6 375.0,432.6 360.0,432.6 345.0,432.6 330.0,432.6 315.0,432.2 300.0,432.3 285.0,439.4 270.0,439.5 255.0,439.5 240.0,441.6 225.0,442.0 210.0,442.3 195.0,650.0 180.0,650.0 165.0,650.0 150.0,650.0 135.0,650.0 120.0,650.0 105.0,650.0 90.0,650.0" fill="#083fa1" opacity="0.6" class="anim" style="animation-delay:900ms;"/>
<polygon points="90.0,650.0 105.0,650.0 120.0,650.0 135.0,650.0 150.0,650.0 165.0,650.0 180.0,650.0 195.0,650.0 210.0,427.0 225.0,426.8 240.0,426.6 255.0,424.2 270.0,424.2 285.0,424.2 300.0,420.4 315.0,420.3 330.0,420.3 345.0,420.3 360.0,420.3 375.0,420.3 390.0,420.3 405.0,423.3 420.0,423.2 435.0,422.4 450.0,422.4 465.0,422.4 480.0,422.3 495.0,422.3 510.0,422.1 525.0,422.1 540.0,422.1 555.0,422.1 570.0,422.1 585.0,422.1 600.0,418.3 615.0,418.3 630.0,418.2 645.0,418.2 660.0,418.2 675.0,417.7 690.0,417.7 705.0,417.6 720.0,417.6 735.0,417.6 750.0,417.6 765.0,415.5 780.0,413.5 780.0,414.6 765.0,418.2 750.0,421.8 735.0,421.9 720.0,421.9 705.0,421.9 690.0,422.0 675.0,422.0 660.0,422.9 645.0,422.9 630.0,422.9 615.0,422.9 600.0,423.0 585.0,428.8 570.0,428.8 555.0,428.8 540.0,428.8 525.0,428.9 510.0,428.9 495.0,429.2 480.0,429.2 465.0,429.3 450.0,429.3 435.0,429.3 420.0,430.7 405.0,430.8 390.0,426.0 375.0,426.0 360.0,426.0 345.0,426.0 330.0,426.0 315.0,426.1 300.0,426.2 285.0,432.2 270.0,432.2 255.0,432.2 240.0,435.9 225.0,436.3 210.0,436.6 195.0,650.0 180.0,650.0 165.0,650.0 150.0,650.0 135.0,650.0 120.0,650.0 105.0,650.0 90.0,650.0" fill="#6E4C13" opacity="0.6" class="anim" style="animation-delay:1000ms;"/>
<polygon points="90.0,650.0 105.0,650.0 120.0,650.0 135.0,650.0 150.0,650.0 165.0,650.0 180.0,650.0 195.0,650.0 210.0,418.7 225.0,418.6 240.0,418.5 255.0,417.3 270.0,417.3 285.0,417.2 300.0,415.3 315.0,415.3 330.0,415.2 345.0,415.2 360.0,415.2 375.0,415.2 390.0,415.2 405.0,416.8 420.0,416.8 435.0,416.3 450.0,416.3 465.0,416.3 480.0,416.3 495.0,416.3 510.0,416.2 525.0,416.2 540.0,416.2 555.0,416.2 570.0,416.2 585.0,416.2 600.0,414.2 615.0,414.2 630.0,414.2 645.0,414.2 660.0,414.2 675.0,413.9 690.0,413.9 705.0,413.9 720.0,413.9 735.0,413.9 750.0,413.9 765.0,413.2 780.0,412.5 780.0,413.5 765.0,415.5 750.0,417.6 735.0,417.6 720.0,417.6 705.0,417.6 690.0,417.7 675.0,417.7 660.0,418.2 645.0,418.2 630.0,418.2 615.0,418.3 600.0,418.3 585.0,422.1 570.0,422.1 555.0,422.1 540.0,422.1 525.0,422.1 510.0,422.1 495.0,422.3 480.0,422.3 465.0,422.4 450.0,422.4 435.0,422.4 420.0,423.2 405.0,423.3 390.0,420.3 375.0,420.3 360.0,420.3 345.0,420.3 330.0,420.3 315.0,420.3 300.0,420.4 285.0,424.2 270.0,424.2 255.0,424.2 240.0,426.6 225.0,426.8 210.0,427.0 195.0,650.0 180.0,650.0 165.0,650.0 150.0,650.0 135.0,650.0 120.0,650.0 105.0,650.0 90.0,650.0" fill="#F05138" opacity="0.6" class="anim" style="animation-delay:1100ms;"/>
<polygon points="90.0,650.0 105.0,650.0 120.0,650.0 135.0,650.0 150.0,650.0 165.0,650.0 180.0,650.0 195.0,650.0 210.0,414.4 225.0,414.4 240.0,414.3 255.0,413.7 270.0,413.7 285.0,413.7 300.0,412.7 315.0,412.7 330.0,412.7 345.0,412.7 360.0,412.7 375.0,412.7 390.0,412.7 405.0,413.5 420.0,413.4 435.0,413.2 450.0,413.2 465.0,413.2 480.0,413.2 495.0,413.2 510.0,413.1 525.0,413.1 540.0,413.1 555.0,413.1 570.0,413.1 585.0,413.1 600.0,412.2 615.0,412.1 630.0,412.1 645.0,412.1 660.0,412.1 675.0,412.0 690.0,412.0 705.0,412.0 720.0,412.0 735.0,412.0 750.0,412.0 765.0,412.0 780.0,412.0 780.0,412.5 765.0,413.2 750.0,413.9 735.0,413.9 720.0,413.9 705.0,413.9 690.0,413.9 675.0,413.9 660.0,414.2 645.0,414.2 630.0,414.2 615.0,414.2 600.0,414.2 585.0,416.2 570.0,416.2 555.0,416.2 540.0,416.2 525.0,416.2 510.0,416.2 495.0,416.3 480.0,416.3 465.0,416.3 450.0,416.3 435.0,416.3 420.0,416.8 405.0,416.8 390.0,415.2 375.0,415.2 360.0,415.2 345.0,415.2 330.0,415.2 315.0,415.3 300.0,415.3 285.0,417.2 270.0,417.3 255.0,417.3 240.0,418.5 225.0,418.6 210.0,418.7 195.0,650.0 180.0,650.0 165.0,650.0 150.0,650.0 135.0,650.0 120.0,650.0 105.0,650.0 90.0,650.0" fill="#b07219" opacity="0.6" class="anim" style="animation-delay:1200ms;"/>
<line x1="750.0" y1="100" x2="750.0" y2="650" stroke="#c9d1d9" stroke-width="1" stroke-dasharray="4,3" opacity="0.35"/>
<text x="765.0" y="112" text-anchor="middle" class="axis-label" opacity="0.6">Apr 05, 2026</text>
<text x="90.0" y="668" text-anchor="middle" class="axis-label" transform="rotate(-35 90.0 668)">2026-02</text>
<text x="465.0" y="668" text-anchor="middle" class="axis-label" transform="rotate(-35 465.0 668)">2026-03</text>
<text x="765.0" y="668" text-anchor="middle" class="axis-label" transform="rotate(-35 765.0 668)">Apr 05, 2026</text>
<line x1="796" y1="110" x2="824" y2="110" stroke="#3fb950" stroke-width="2"/>
<text x="832" y="116" class="legend-text">Lines Added</text>
<line x1="796" y1="140" x2="824" y2="140" stroke="#f85149" stroke-width="1.5"/>
<text x="832" y="146" class="legend-text">Lines Deleted</text>
<line x1="796" y1="170" x2="824" y2="170" stroke="#e3b341" stroke-width="1.5" stroke-dasharray="4,3"/>
<text x="832" y="176" class="legend-text">&#x2605; Stars</text>
<text x="796" y="200" class="subtitle">Languages</text>
<rect x="796" y="212" width="12" height="12" rx="2" fill="#e34c26" opacity="0.8" class="anim" style="animation-delay:800ms;"/>
<text x="814" y="223" class="legend-text">HTML (59%→58%)</text>
<rect x="796" y="234" width="12" height="12" rx="2" fill="#f1e05a" opacity="0.8" class="anim" style="animation-delay:880ms;"/>
<text x="814" y="245" class="legend-text">JavaScript (22%→30%)</text>
<rect x="796" y="256" width="12" height="12" rx="2" fill="#3572A5" opacity="0.8" class="anim" style="animation-delay:960ms;"/>
<text x="814" y="267" class="legend-text">Python (7%→3%)</text>
<rect x="796" y="278" width="12" height="12" rx="2" fill="#663399" opacity="0.8" class="anim" style="animation-delay:1040ms;"/>
<text x="814" y="289" class="legend-text">CSS (5%→5%)</text>
<rect x="796" y="300" width="12" height="12" rx="2" fill="#083fa1" opacity="0.8" class="anim" style="animation-delay:1120ms;"/>
<text x="814" y="311" class="legend-text">Markdown (2%→2%)</text>
<rect x="796" y="322" width="12" height="12" rx="2" fill="#6E4C13" opacity="0.8" class="anim" style="animation-delay:1200ms;"/>
<text x="814" y="333" class="legend-text">Assembly (2%→0%)</text>
<rect x="796" y="344" width="12" height="12" rx="2" fill="#F05138" opacity="0.8" class="anim" style="animation-delay:1280ms;"/>
<text x="814" y="355" class="legend-text">Swift (2%→0%)</text>
<rect x="796" y="366" width="12" height="12" rx="2" fill="#b07219" opacity="0.8" class="anim" style="animation-delay:1360ms;"/>
<text x="814" y="377" class="legend-text">Java (1%→0%)</text>
<text x="796" y="412" class="subtitle">Contributions</text>
<text x="796" y="432" class="axis-label">2023: 39</text>
<text x="796" y="452" class="axis-label">2024: 646</text>
<text x="796" y="472" class="axis-label">2025: 1,780</text>
<text x="796" y="492" class="axis-label">2026: 397</text>
<text x="796" y="522" class="subtitle">Statistics</text>
<text x="796" y="542" class="axis-label">Active weeks: 79</text>
<text x="796" y="562" class="axis-label">Add/Del ratio: 1.6x</text>
<text x="796" y="582" class="axis-label">Avg lines/wk: 19K</text>
<text x="796" y="602" class="axis-label">Peak: 2026-02-15</text>
<text x="796" y="622" class="axis-label">  (543K lines)</text>
<text x="90" y="742" class="axis-label">Total: +922,355 / -572,795 lines &#xb7; 2,862 contributions &#xb7; 76 repos &#xb7; &#x2605; 35</text>
</svg>