<svg xmlns="http://www.w3.org/2000/svg" width="1000" height="760" style="max-width: 100%;" viewBox="0 0 1000 760">

<defs>
  <linearGradient id="areaGrad" x1="0" y1="0" x2="0" y2="1">
    <stop offset="0%" stop-color="#58a6ff" stop-opacity="0.35"/>
    <stop offset="100%" stop-color="#58a6ff" stop-opacity="0.02"/>
  </linearGradient>
  <linearGradient id="addGrad" x1="0" y1="0" x2="0" y2="1">
    <stop offset="0%" stop-color="#3fb950" stop-opacity="0.35"/>
    <stop offset="100%" stop-color="#3fb950" stop-opacity="0.02"/>
  </linearGradient>
  <linearGradient id="delGrad" x1="0" y1="0" x2="0" y2="1">
    <stop offset="0%" stop-color="#f85149" stop-opacity="0.25"/>
    <stop offset="100%" stop-color="#f85149" stop-opacity="0.02"/>
  </linearGradient>
</defs>
<style>
  .title { font: bold 28px 'Segoe UI', Ubuntu, Sans-Serif; fill: #c9d1d9; }
  .subtitle { font: 600 20px 'Segoe UI', Ubuntu, Sans-Serif; fill: #c9d1d9; opacity: 0.8; }
  .axis-label { font: 18px 'Segoe UI', Ubuntu, Sans-Serif; fill: #c9d1d9; opacity: 0.7; }
  .legend-text { font: 14px 'Segoe UI', Ubuntu, Sans-Serif; fill: #c9d1d9; }
  .value-text { font: bold 18px 'Segoe UI', Ubuntu, Sans-Serif; fill: #c9d1d9; }
  .stat-value { font: bold 22px 'Segoe UI', Ubuntu, Sans-Serif; fill: #c9d1d9; }
  .stat-label { font: 18px 'Segoe UI', Ubuntu, Sans-Serif; fill: #c9d1d9; opacity: 0.7; }
  @keyframes fadeIn { from { opacity: 0; } to { opacity: 1; } }
  .anim { animation: fadeIn 0.6s ease-in-out forwards; opacity: 0; }
</style>

<rect x="0.5" y="0.5" rx="4.5" width="999" height="759" fill="#161b22" stroke="#21262d"/>
<text x="90" y="45" class="title">Activity History</text>
<text x="90" y="72" class="subtitle">Lines added vs deleted &amp; activity trends over time</text>
<line x1="90" y1="340.0" x2="780" y2="340.0" stroke="#21262d" stroke-width="1"/>
<text x="82" y="344.0" text-anchor="end" class="axis-label">0</text>
<line x1="90" y1="280.0" x2="780" y2="280.0" stroke="#21262d" stroke-width="1"/>
<text x="82" y="284.0" text-anchor="end" class="axis-label">452K</text>
<line x1="90" y1="220.0" x2="780" y2="220.0" stroke="#21262d" stroke-width="1"/>
<text x="82" y="224.0" text-anchor="end" class="axis-label">904K</text>
<line x1="90" y1="160.0" x2="780" y2="160.0" stroke="#21262d" stroke-width="1"/>
<text x="82" y="164.0" text-anchor="end" class="axis-label">1.4M</text>
<line x1="90" y1="100.0" x2="780" y2="100.0" stroke="#21262d" stroke-width="1"/>
<text x="82" y="104.0" text-anchor="end" class="axis-label">1.8M</text>
<polygon points="90.0,340.0 90.0,291.5 98.0,293.3 106.0,291.6 114.1,293.3 122.1,304.5 130.1,282.3 138.1,282.3 146.2,273.9 154.2,273.6 162.2,273.0 170.2,273.0 178.3,258.1 186.3,258.1 194.3,258.0 202.3,235.9 210.3,235.6 218.4,235.4 226.4,235.4 234.4,235.4 242.4,235.4 250.5,235.4 258.5,234.8 266.5,220.0 274.5,220.0 282.6,220.0 290.6,220.0 298.6,219.7 306.6,219.7 314.7,219.0 322.7,219.0 330.7,218.9 338.7,218.9 346.7,218.9 354.8,218.9 362.8,219.0 370.8,218.9 378.8,218.9 386.9,218.9 394.9,218.9 402.9,218.9 410.9,218.9 419.0,218.3 427.0,218.6 435.0,217.9 443.0,217.6 451.0,217.6 459.1,217.6 467.1,217.6 475.1,217.6 483.1,217.6 491.2,217.5 499.2,217.5 507.2,217.5 515.2,217.6 523.3,217.9 531.3,219.3 539.3,217.9 547.3,216.6 555.3,216.5 563.4,216.5 571.4,216.5 579.4,216.5 587.4,208.9 595.5,202.0 603.5,202.0 611.5,202.0 619.5,202.0 627.6,202.0 635.6,202.0 643.6,202.0 651.6,202.0 659.7,201.9 667.7,201.9 675.7,201.9 683.7,201.9 691.7,201.9 699.8,201.9 707.8,201.9 715.8,201.9 723.8,201.9 731.9,201.9 739.9,201.9 747.9,201.9 755.9,201.9 764.0,201.9 772.0,194.6 780.0,187.4 780.0,340.0" fill="url(#addGrad)" class="anim" style="animation-delay:200ms;"/>
<polyline points="90.0,291.5 98.0,293.3 106.0,291.6 114.1,293.3 122.1,304.5 130.1,282.3 138.1,282.3 146.2,273.9 154.2,273.6 162.2,273.0 170.2,273.0 178.3,258.1 186.3,258.1 194.3,258.0 202.3,235.9 210.3,235.6 218.4,235.4 226.4,235.4 234.4,235.4 242.4,235.4 250.5,235.4 258.5,234.8 266.5,220.0 274.5,220.0 282.6,220.0 290.6,220.0 298.6,219.7 306.6,219.7 314.7,219.0 322.7,219.0 330.7,218.9 338.7,218.9 346.7,218.9 354.8,218.9 362.8,219.0 370.8,218.9 378.8,218.9 386.9,218.9 394.9,218.9 402.9,218.9 410.9,218.9 419.0,218.3 427.0,218.6 435.0,217.9 443.0,217.6 451.0,217.6 459.1,217.6 467.1,217.6 475.1,217.6 483.1,217.6 491.2,217.5 499.2,217.5 507.2,217.5 515.2,217.6 523.3,217.9 531.3,219.3 539.3,217.9 547.3,216.6 555.3,216.5 563.4,216.5 571.4,216.5 579.4,216.5 587.4,208.9 595.5,202.0 603.5,202.0 611.5,202.0 619.5,202.0 627.6,202.0 635.6,202.0 643.6,202.0 651.6,202.0 659.7,201.9 667.7,201.9 675.7,201.9 683.7,201.9 691.7,201.9 699.8,201.9 707.8,201.9 715.8,201.9 723.8,201.9 731.9,201.9 739.9,201.9 747.9,201.9 755.9,201.9 764.0,201.9" fill="none" stroke="#3fb950" stroke-width="2" stroke-linejoin="round" class="anim" style="animation-delay:250ms;"/>
<polyline points="764.0,201.9 772.0,194.6 780.0,187.4" fill="none" stroke="#3fb950" stroke-width="1.5" stroke-dasharray="5,4" stroke-linejoin="round" opacity="0.6" class="anim" style="animation-delay:250ms;"/>
<polygon points="90.0,340.0 90.0,326.4 98.0,327.8 106.0,326.4 114.1,327.8 122.1,333.6 130.1,324.7 138.1,324.7 146.2,323.7 154.2,323.4 162.2,323.1 170.2,323.1 178.3,307.0 186.3,307.0 194.3,307.0 202.3,288.8 210.3,288.7 218.4,288.7 226.4,288.7 234.4,288.7 242.4,288.7 250.5,288.7 258.5,279.2 266.5,264.6 274.5,264.6 282.6,264.6 290.6,264.6 298.6,264.5 306.6,264.5 314.7,264.5 322.7,264.4 330.7,264.4 338.7,264.4 346.7,264.4 354.8,264.4 362.8,264.4 370.8,264.4 378.8,264.4 386.9,264.4 394.9,264.4 402.9,264.4 410.9,264.4 419.0,264.4 427.0,264.5 435.0,264.0 443.0,264.0 451.0,264.0 459.1,264.0 467.1,264.0 475.1,264.0 483.1,264.0 491.2,264.0 499.2,264.0 507.2,264.0 515.2,264.0 523.3,264.1 531.3,264.9 539.3,264.4 547.3,263.6 555.3,263.5 563.4,263.5 571.4,263.5 579.4,263.5 587.4,263.4 595.5,263.4 603.5,263.4 611.5,263.4 619.5,263.4 627.6,263.4 635.6,263.4 643.6,263.4 651.6,263.4 659.7,263.4 667.7,263.4 675.7,263.4 683.7,263.4 691.7,263.4 699.8,263.4 707.8,263.4 715.8,263.4 723.8,263.4 731.9,263.4 739.9,263.4 747.9,263.4 755.9,263.4 764.0,263.4 772.0,258.0 780.0,252.6 780.0,340.0" fill="url(#delGrad)" class="anim" style="animation-delay:300ms;"/>
<polyline points="90.0,326.4 98.0,327.8 106.0,326.4 114.1,327.8 122.1,333.6 130.1,324.7 138.1,324.7 146.2,323.7 154.2,323.4 162.2,323.1 170.2,323.1 178.3,307.0 186.3,307.0 194.3,307.0 202.3,288.8 210.3,288.7 218.4,288.7 226.4,288.7 234.4,288.7 242.4,288.7 250.5,288.7 258.5,279.2 266.5,264.6 274.5,264.6 282.6,264.6 290.6,264.6 298.6,264.5 306.6,264.5 314.7,264.5 322.7,264.4 330.7,264.4 338.7,264.4 346.7,264.4 354.8,264.4 362.8,264.4 370.8,264.4 378.8,264.4 386.9,264.4 394.9,264.4 402.9,264.4 410.9,264.4 419.0,264.4 427.0,264.5 435.0,264.0 443.0,264.0 451.0,264.0 459.1,264.0 467.1,264.0 475.1,264.0 483.1,264.0 491.2,264.0 499.2,264.0 507.2,264.0 515.2,264.0 523.3,264.1 531.3,264.9 539.3,264.4 547.3,263.6 555.3,263.5 563.4,263.5 571.4,263.5 579.4,263.5 587.4,263.4 595.5,263.4 603.5,263.4 611.5,263.4 619.5,263.4 627.6,263.4 635.6,263.4 643.6,263.4 651.6,263.4 659.7,263.4 667.7,263.4 675.7,263.4 683.7,263.4 691.7,263.4 699.8,263.4 707.8,263.4 715.8,263.4 723.8,263.4 731.9,263.4 739.9,263.4 747.9,263.4 755.9,263.4 764.0,263.4" fill="none" stroke="#f85149" stroke-width="1.5" stroke-linejoin="round" class="anim" style="animation-delay:350ms;"/>
<polyline points="764.0,263.4 772.0,258.0 780.0,252.6" fill="none" stroke="#f85149" stroke-width="1" stroke-dasharray="5,4" stroke-linejoin="round" opacity="0.6" class="anim" style="animation-delay:350ms;"/>
<polyline points="90.0,340.0 98.0,340.0 106.0,340.0 114.1,340.0 122.1,340.0 130.1,340.0 138.1,340.0 146.2,340.0 154.2,308.0 162.2,308.0 170.2,308.0 178.3,308.0 186.3,308.0 194.3,308.0 202.3,308.0 210.3,308.0 218.4,308.0 226.4,308.0 234.4,308.0 242.4,308.0 250.5,308.0 258.5,308.0 266.5,308.0 274.5,308.0 282.6,308.0 290.6,308.0 298.6,308.0 306.6,308.0 314.7,308.0 322.7,308.0 330.7,308.0 338.7,308.0 346.7,308.0 354.8,308.0 362.8,276.0 370.8,276.0 378.8,276.0 386.9,276.0 394.9,276.0 402.9,276.0 410.9,276.0 419.0,276.0 427.0,244.0 435.0,244.0 443.0,244.0 451.0,244.0 459.1,244.0 467.1,244.0 475.1,244.0 483.1,244.0 491.2,244.0 499.2,244.0 507.2,244.0 515.2,244.0 523.3,244.0 531.3,244.0 539.3,244.0 547.3,244.0 555.3,180.0 563.4,180.0 571.4,180.0 579.4,180.0 587.4,180.0 595.5,180.0 603.5,180.0 611.5,180.0 619.5,180.0 627.6,180.0 635.6,180.0 643.6,180.0 651.6,180.0 659.7,180.0 667.7,180.0 675.7,180.0 683.7,180.0 691.7,180.0 699.8,180.0 707.8,180.0 715.8,180.0 723.8,180.0 731.9,180.0 739.9,180.0 747.9,180.0 755.9,180.0 764.0,180.0" fill="none" stroke="#e3b341" stroke-width="1.5" stroke-dasharray="4,3" stroke-linejoin="round" class="anim" style="animation-delay:400ms;"/>
<polyline points="764.0,180.0 772.0,180.0 780.0,148.0" fill="none" stroke="#e3b341" stroke-width="1" stroke-dasharray="3,5" stroke-linejoin="round" opacity="0.5" class="anim" style="animation-delay:400ms;"/>
<text x="90" y="90" class="subtitle">Lines Added vs Deleted (per snapshot)</text>
<text x="90" y="400" class="subtitle">Programming Language Development (%)</text>
<line x1="90" y1="650.0" x2="780" y2="650.0" stroke="#21262d" stroke-width="1"/>
<text x="82" y="654.0" text-anchor="end" class="axis-label">0%</text>
<line x1="90" y1="590.0" x2="780" y2="590.0" stroke="#21262d" stroke-width="1"/>
<text x="82" y="594.0" text-anchor="end" class="axis-label">25%</text>
<line x1="90" y1="530.0" x2="780" y2="530.0" stroke="#21262d" stroke-width="1"/>
<text x="82" y="534.0" text-anchor="end" class="axis-label">50%</text>
<line x1="90" y1="470.0" x2="780" y2="470.0" stroke="#21262d" stroke-width="1"/>
<text x="82" y="474.0" text-anchor="end" class="axis-label">75%</text>
<line x1="90" y1="410.0" x2="780" y2="410.0" stroke="#21262d" stroke-width="1"/>
<text x="82" y="414.0" text-anchor="end" class="axis-label">100%</text>
<polygon points="90.0,650.0 98.0,650.0 106.0,650.0 114.1,650.0 122.1,650.0 130.1,650.0 138.1,650.0 146.2,650.0 154.2,528.2 162.2,528.5 170.2,529.7 178.3,499.3 186.3,499.3 194.3,502.9 202.3,485.0 210.3,485.1 218.4,485.4 226.4,485.4 234.4,485.4 242.4,485.4 250.5,485.4 258.5,496.4 266.5,496.7 274.5,491.0 282.6,491.0 290.6,491.0 298.6,491.7 306.6,491.8 314.7,494.0 322.7,494.0 330.7,494.4 338.7,494.4 346.7,494.4 354.8,494.4 362.8,507.6 370.8,507.6 378.8,507.9 386.9,507.9 394.9,507.9 402.9,506.3 410.9,506.4 419.0,506.8 427.0,506.9 435.0,506.8 443.0,507.5 451.0,507.5 459.1,507.5 467.1,507.5 475.1,507.5 483.1,507.5 491.2,507.5 499.2,507.5 507.2,507.5 515.2,507.5 523.3,507.5 531.3,507.5 539.3,507.5 547.3,508.6 555.3,508.6 563.4,508.6 571.4,508.6 579.4,508.6 587.4,509.5 595.5,509.8 603.5,509.8 611.5,509.8 619.5,509.8 627.6,509.8 635.6,509.8 643.6,509.8 651.6,509.8 659.7,510.9 667.7,510.9 675.7,510.9 683.7,510.9 691.7,510.9 699.8,510.9 707.8,510.9 715.8,510.9 723.8,510.9 731.9,510.9 739.9,510.9 747.9,510.9 755.9,510.9 764.0,510.9 772.0,512.8 780.0,514.7 780.0,650.0 772.0,650.0 764.0,650.0 755.9,650.0 747.9,650.0 739.9,650.0 731.9,650.0 723.8,650.0 715.8,650.0 707.8,650.0 699.8,650.0 691.7,650.0 683.7,650.0 675.7,650.0 667.7,650.0 659.7,650.0 651.6,650.0 643.6,650.0 635.6,650.0 627.6,650.0 619.5,650.0 611.5,650.0 603.5,650.0 595.5,650.0 587.4,650.0 579.4,650.0 571.4,650.0 563.4,650.0 555.3,650.0 547.3,650.0 539.3,650.0 531.3,650.0 523.3,650.0 515.2,650.0 507.2,650.0 499.2,650.0 491.2,650.0 483.1,650.0 475.1,650.0 467.1,650.0 459.1,650.0 451.0,650.0 443.0,650.0 435.0,650.0 427.0,650.0 419.0,650.0 410.9,650.0 402.9,650.0 394.9,650.0 386.9,650.0 378.8,650.0 370.8,650.0 362.8,650.0 354.8,650.0 346.7,650.0 338.7,650.0 330.7,650.0 322.7,650.0 314.7,650.0 306.6,650.0 298.6,650.0 290.6,650.0 282.6,650.0 274.5,650.0 266.5,650.0 258.5,650.0 250.5,650.0 242.4,650.0 234.4,650.0 226.4,650.0 218.4,650.0 210.3,650.0 202.3,650.0 194.3,650.0 186.3,650.0 178.3,650.0 170.2,650.0 162.2,650.0 154.2,650.0 146.2,650.0 138.1,650.0 130.1,650.0 122.1,650.0 114.1,650.0 106.0,650.0 98.0,650.0 90.0,650.0" fill="#e34c26" opacity="0.6" class="anim" style="animation-delay:500ms;"/>
<polygon points="90.0,650.0 98.0,650.0 106.0,650.0 114.1,650.0 122.1,650.0 130.1,650.0 138.1,650.0 146.2,650.0 154.2,488.4 162.2,488.0 170.2,489.0 178.3,476.0 186.3,476.0 194.3,477.2 202.3,460.1 210.3,460.2 218.4,460.6 226.4,460.6 234.4,460.6 242.4,460.6 250.5,460.6 258.5,473.0 266.5,473.5 274.5,469.5 282.6,469.5 290.6,469.5 298.6,469.7 306.6,469.7 314.7,469.7 322.7,469.7 330.7,469.7 338.7,469.7 346.7,469.7 354.8,469.7 362.8,455.6 370.8,455.6 378.8,455.4 386.9,455.4 394.9,455.4 402.9,454.3 410.9,454.3 419.0,455.0 427.0,455.1 435.0,454.9 443.0,455.9 451.0,455.9 459.1,455.9 467.1,455.9 475.1,455.9 483.1,455.9 491.2,455.9 499.2,455.9 507.2,455.9 515.2,455.9 523.3,455.9 531.3,455.9 539.3,455.9 547.3,455.8 555.3,455.8 563.4,455.8 571.4,455.8 579.4,455.8 587.4,457.0 595.5,457.4 603.5,457.4 611.5,457.4 619.5,457.4 627.6,457.4 635.6,457.4 643.6,457.4 651.6,457.4 659.7,458.2 667.7,458.2 675.7,458.2 683.7,458.2 691.7,458.2 699.8,458.2 707.8,458.2 715.8,458.2 723.8,458.2 731.9,458.2 739.9,458.2 747.9,458.2 755.9,458.2 764.0,458.2 772.0,456.4 780.0,454.7 780.0,514.7 772.0,512.8 764.0,510.9 755.9,510.9 747.9,510.9 739.9,510.9 731.9,510.9 723.8,510.9 715.8,510.9 707.8,510.9 699.8,510.9 691.7,510.9 683.7,510.9 675.7,510.9 667.7,510.9 659.7,510.9 651.6,509.8 643.6,509.8 635.6,509.8 627.6,509.8 619.5,509.8 611.5,509.8 603.5,509.8 595.5,509.8 587.4,509.5 579.4,508.6 571.4,508.6 563.4,508.6 555.3,508.6 547.3,508.6 539.3,507.5 531.3,507.5 523.3,507.5 515.2,507.5 507.2,507.5 499.2,507.5 491.2,507.5 483.1,507.5 475.1,507.5 467.1,507.5 459.1,507.5 451.0,507.5 443.0,507.5 435.0,506.8 427.0,506.9 419.0,506.8 410.9,506.4 402.9,506.3 394.9,507.9 386.9,507.9 378.8,507.9 370.8,507.6 362.8,507.6 354.8,494.4 346.7,494.4 338.7,494.4 330.7,494.4 322.7,494.0 314.7,494.0 306.6,491.8 298.6,491.7 290.6,491.0 282.6,491.0 274.5,491.0 266.5,496.7 258.5,496.4 250.5,485.4 242.4,485.4 234.4,485.4 226.4,485.4 218.4,485.4 210.3,485.1 202.3,485.0 194.3,502.9 186.3,499.3 178.3,499.3 170.2,529.7 162.2,528.5 154.2,528.2 146.2,650.0 138.1,650.0 130.1,650.0 122.1,650.0 114.1,650.0 106.0,650.0 98.0,650.0 90.0,650.0" fill="#f1e05a" opacity="0.6" class="anim" style="animation-delay:600ms;"/>
<polygon points="90.0,650.0 98.0,650.0 106.0,650.0 114.1,650.0 122.1,650.0 130.1,650.0 138.1,650.0 146.2,650.0 154.2,455.5 162.2,455.4 170.2,455.1 178.3,447.0 186.3,447.0 194.3,448.2 202.3,438.9 210.3,439.0 218.4,439.6 226.4,439.6 234.4,439.6 242.4,439.6 250.5,439.6 258.5,445.6 266.5,445.6 274.5,443.3 282.6,443.3 290.6,443.3 298.6,443.6 306.6,443.6 314.7,444.1 322.7,444.1 330.7,444.1 338.7,444.1 346.7,444.1 354.8,444.1 362.8,437.5 370.8,437.5 378.8,437.5 386.9,437.5 394.9,437.5 402.9,437.5 410.9,437.5 419.0,438.4 427.0,438.5 435.0,438.3 443.0,439.3 451.0,439.3 459.1,439.3 467.1,439.3 475.1,439.3 483.1,439.3 491.2,439.3 499.2,439.3 507.2,439.3 515.2,439.3 523.3,439.3 531.3,439.3 539.3,439.3 547.3,439.4 555.3,439.4 563.4,439.4 571.4,439.4 579.4,439.4 587.4,440.7 595.5,441.1 603.5,441.1 611.5,441.1 619.5,441.1 627.6,441.1 635.6,441.1 643.6,441.1 651.6,441.1 659.7,442.0 667.7,442.0 675.7,442.0 683.7,442.0 691.7,442.0 699.8,442.0 707.8,442.0 715.8,442.0 723.8,442.0 731.9,442.0 739.9,442.0 747.9,442.0 755.9,442.0 764.0,442.0 772.0,441.7 780.0,441.5 780.0,454.7 772.0,456.4 764.0,458.2 755.9,458.2 747.9,458.2 739.9,458.2 731.9,458.2 723.8,458.2 715.8,458.2 707.8,458.2 699.8,458.2 691.7,458.2 683.7,458.2 675.7,458.2 667.7,458.2 659.7,458.2 651.6,457.4 643.6,457.4 635.6,457.4 627.6,457.4 619.5,457.4 611.5,457.4 603.5,457.4 595.5,457.4 587.4,457.0 579.4,455.8 571.4,455.8 563.4,455.8 555.3,455.8 547.3,455.8 539.3,455.9 531.3,455.9 523.3,455.9 515.2,455.9 507.2,455.9 499.2,455.9 491.2,455.9 483.1,455.9 475.1,455.9 467.1,455.9 459.1,455.9 451.0,455.9 443.0,455.9 435.0,454.9 427.0,455.1 419.0,455.0 410.9,454.3 402.9,454.3 394.9,455.4 386.9,455.4 378.8,455.4 370.8,455.6 362.8,455.6 354.8,469.7 346.7,469.7 338.7,469.7 330.7,469.7 322.7,469.7 314.7,469.7 306.6,469.7 298.6,469.7 290.6,469.5 282.6,469.5 274.5,469.5 266.5,473.5 258.5,473.0 250.5,460.6 242.4,460.6 234.4,460.6 226.4,460.6 218.4,460.6 210.3,460.2 202.3,460.1 194.3,477.2 186.3,476.0 178.3,476.0 170.2,489.0 162.2,488.0 154.2,488.4 146.2,650.0 138.1,650.0 130.1,650.0 122.1,650.0 114.1,650.0 106.0,650.0 98.0,650.0 90.0,650.0" fill="#3572A5" opacity="0.6" class="anim" style="animation-delay:700ms;"/>
<polygon points="90.0,650.0 98.0,650.0 106.0,650.0 114.1,650.0 122.1,650.0 130.1,650.0 138.1,650.0 146.2,650.0 154.2,442.3 162.2,442.0 170.2,441.6 178.3,439.5 186.3,439.5 194.3,439.4 202.3,432.3 210.3,432.2 218.4,432.6 226.4,432.6 234.4,432.6 242.4,432.6 250.5,432.6 258.5,439.3 266.5,439.3 274.5,437.4 282.6,437.4 290.6,437.4 298.6,437.3 306.6,437.3 314.7,437.1 322.7,437.1 330.7,437.1 338.7,437.1 346.7,437.1 354.8,437.1 362.8,428.7 370.8,428.6 378.8,428.5 386.9,428.5 394.9,428.5 402.9,427.3 410.9,427.3 419.0,427.1 427.0,427.1 435.0,427.1 443.0,427.0 451.0,427.0 459.1,427.0 467.1,427.0 475.1,427.0 483.1,427.0 491.2,427.0 499.2,427.0 507.2,427.0 515.2,427.0 523.3,427.0 531.3,427.0 539.3,427.0 547.3,427.0 555.3,427.1 563.4,427.1 571.4,427.1 579.4,427.1 587.4,428.4 595.5,428.9 603.5,428.9 611.5,428.9 619.5,428.9 627.6,428.9 635.6,428.9 643.6,428.9 651.6,428.9 659.7,428.7 667.7,428.7 675.7,428.7 683.7,428.7 691.7,428.7 699.8,428.7 707.8,428.7 715.8,428.7 723.8,428.7 731.9,428.7 739.9,428.7 747.9,428.7 755.9,428.7 764.0,428.7 772.0,427.7 780.0,426.7 780.0,441.5 772.0,441.7 764.0,442.0 755.9,442.0 747.9,442.0 739.9,442.0 731.9,442.0 723.8,442.0 715.8,442.0 707.8,442.0 699.8,442.0 691.7,442.0 683.7,442.0 675.7,442.0 667.7,442.0 659.7,442.0 651.6,441.1 643.6,441.1 635.6,441.1 627.6,441.1 619.5,441.1 611.5,441.1 603.5,441.1 595.5,441.1 587.4,440.7 579.4,439.4 571.4,439.4 563.4,439.4 555.3,439.4 547.3,439.4 539.3,439.3 531.3,439.3 523.3,439.3 515.2,439.3 507.2,439.3 499.2,439.3 491.2,439.3 483.1,439.3 475.1,439.3 467.1,439.3 459.1,439.3 451.0,439.3 443.0,439.3 435.0,438.3 427.0,438.5 419.0,438.4 410.9,437.5 402.9,437.5 394.9,437.5 386.9,437.5 378.8,437.5 370.8,437.5 362.8,437.5 354.8,444.1 346.7,444.1 338.7,444.1 330.7,444.1 322.7,444.1 314.7,444.1 306.6,443.6 298.6,443.6 290.6,443.3 282.6,443.3 274.5,443.3 266.5,445.6 258.5,445.6 250.5,439.6 242.4,439.6 234.4,439.6 226.4,439.6 218.4,439.6 210.3,439.0 202.3,438.9 194.3,448.2 186.3,447.0 178.3,447.0 170.2,455.1 162.2,455.4 154.2,455.5 146.2,650.0 138.1,650.0 130.1,650.0 122.1,650.0 114.1,650.0 106.0,650.0 98.0,650.0 90.0,650.0" fill="#663399" opacity="0.6" class="anim" style="animation-delay:800ms;"/>
<polygon points="90.0,650.0 98.0,650.0 106.0,650.0 114.1,650.0 122.1,650.0 130.1,650.0 138.1,650.0 146.2,650.0 154.2,436.6 162.2,436.3 170.2,435.9 178.3,432.2 186.3,432.2 194.3,432.2 202.3,426.2 210.3,426.1 218.4,426.0 226.4,426.0 234.4,426.0 242.4,426.0 250.5,426.0 258.5,430.8 266.5,430.7 274.5,429.3 282.6,429.3 290.6,429.3 298.6,429.2 306.6,429.2 314.7,428.9 322.7,428.9 330.7,428.8 338.7,428.8 346.7,428.8 354.8,428.8 362.8,423.0 370.8,422.9 378.8,422.9 386.9,422.9 394.9,422.9 402.9,422.0 410.9,422.0 419.0,421.9 427.0,421.9 435.0,421.9 443.0,421.8 451.0,421.8 459.1,421.8 467.1,421.8 475.1,421.8 483.1,421.8 491.2,421.8 499.2,421.8 507.2,421.8 515.2,421.8 523.3,421.8 531.3,421.8 539.3,421.8 547.3,421.7 555.3,421.8 563.4,421.8 571.4,421.8 579.4,421.8 587.4,423.2 595.5,423.6 603.5,423.6 611.5,423.6 619.5,423.6 627.6,423.6 635.6,423.6 643.6,423.6 651.6,423.6 659.7,423.5 667.7,423.5 675.7,423.5 683.7,423.5 691.7,423.5 699.8,423.5 707.8,423.5 715.8,423.5 723.8,423.5 731.9,423.5 739.9,423.5 747.9,423.5 755.9,423.5 764.0,423.5 772.0,422.8 780.0,422.0 780.0,426.7 772.0,427.7 764.0,428.7 755.9,428.7 747.9,428.7 739.9,428.7 731.9,428.7 723.8,428.7 715.8,428.7 707.8,428.7 699.8,428.7 691.7,428.7 683.7,428.7 675.7,428.7 667.7,428.7 659.7,428.7 651.6,428.9 643.6,428.9 635.6,428.9 627.6,428.9 619.5,428.9 611.5,428.9 603.5,428.9 595.5,428.9 587.4,428.4 579.4,427.1 571.4,427.1 563.4,427.1 555.3,427.1 547.3,427.0 539.3,427.0 531.3,427.0 523.3,427.0 515.2,427.0 507.2,427.0 499.2,427.0 491.2,427.0 483.1,427.0 475.1,427.0 467.1,427.0 459.1,427.0 451.0,427.0 443.0,427.0 435.0,427.1 427.0,427.1 419.0,427.1 410.9,427.3 402.9,427.3 394.9,428.5 386.9,428.5 378.8,428.5 370.8,428.6 362.8,428.7 354.8,437.1 346.7,437.1 338.7,437.1 330.7,437.1 322.7,437.1 314.7,437.1 306.6,437.3 298.6,437.3 290.6,437.4 282.6,437.4 274.5,437.4 266.5,439.3 258.5,439.3 250.5,432.6 242.4,432.6 234.4,432.6 226.4,432.6 218.4,432.6 210.3,432.2 202.3,432.3 194.3,439.4 186.3,439.5 178.3,439.5 170.2,441.6 162.2,442.0 154.2,442.3 146.2,650.0 138.1,650.0 130.1,650.0 122.1,650.0 114.1,650.0 106.0,650.0 98.0,650.0 90.0,650.0" fill="#083fa1" opacity="0.6" class="anim" style="animation-delay:900ms;"/>
<polygon points="90.0,650.0 98.0,650.0 106.0,650.0 114.1,650.0 122.1,650.0 130.1,650.0 138.1,650.0 146.2,650.0 154.2,428.3 162.2,428.1 170.2,427.8 178.3,425.3 186.3,425.3 194.3,425.2 202.3,421.1 210.3,421.1 218.4,421.0 226.4,421.0 234.4,421.0 242.4,421.0 250.5,421.0 258.5,424.3 266.5,424.2 274.5,423.3 282.6,423.3 290.6,423.3 298.6,423.2 306.6,423.2 314.7,423.0 322.7,423.0 330.7,422.9 338.7,422.9 346.7,422.9 354.8,422.9 362.8,418.9 370.8,418.9 378.8,418.8 386.9,418.8 394.9,418.8 402.9,418.3 410.9,418.3 419.0,418.2 427.0,418.2 435.0,418.2 443.0,418.1 451.0,418.1 459.1,418.1 467.1,418.1 475.1,418.1 483.1,418.1 491.2,418.1 499.2,418.1 507.2,418.1 515.2,418.1 523.3,418.1 531.3,418.1 539.3,418.1 547.3,418.1 555.3,418.1 563.4,418.1 571.4,418.1 579.4,418.1 587.4,418.0 595.5,418.0 603.5,418.0 611.5,418.0 619.5,418.0 627.6,418.0 635.6,418.0 643.6,418.0 651.6,418.0 659.7,417.9 667.7,417.9 675.7,417.9 683.7,417.9 691.7,417.9 699.8,417.9 707.8,417.9 715.8,417.9 723.8,417.9 731.9,417.9 739.9,417.9 747.9,417.9 755.9,417.9 764.0,417.9 772.0,417.3 780.0,416.7 780.0,422.0 772.0,422.8 764.0,423.5 755.9,423.5 747.9,423.5 739.9,423.5 731.9,423.5 723.8,423.5 715.8,423.5 707.8,423.5 699.8,423.5 691.7,423.5 683.7,423.5 675.7,423.5 667.7,423.5 659.7,423.5 651.6,423.6 643.6,423.6 635.6,423.6 627.6,423.6 619.5,423.6 611.5,423.6 603.5,423.6 595.5,423.6 587.4,423.2 579.4,421.8 571.4,421.8 563.4,421.8 555.3,421.8 547.3,421.7 539.3,421.8 531.3,421.8 523.3,421.8 515.2,421.8 507.2,421.8 499.2,421.8 491.2,421.8 483.1,421.8 475.1,421.8 467.1,421.8 459.1,421.8 451.0,421.8 443.0,421.8 435.0,421.9 427.0,421.9 419.0,421.9 410.9,422.0 402.9,422.0 394.9,422.9 386.9,422.9 378.8,422.9 370.8,422.9 362.8,423.0 354.8,428.8 346.7,428.8 338.7,428.8 330.7,428.8 322.7,428.9 314.7,428.9 306.6,429.2 298.6,429.2 290.6,429.3 282.6,429.3 274.5,429.3 266.5,430.7 258.5,430.8 250.5,426.0 242.4,426.0 234.4,426.0 226.4,426.0 218.4,426.0 210.3,426.1 202.3,426.2 194.3,432.2 186.3,432.2 178.3,432.2 170.2,435.9 162.2,436.3 154.2,436.6 146.2,650.0 138.1,650.0 130.1,650.0 122.1,650.0 114.1,650.0 106.0,650.0 98.0,650.0 90.0,650.0" fill="#F05138" opacity="0.6" class="anim" style="animation-delay:1000ms;"/>
<polygon points="90.0,650.0 98.0,650.0 106.0,650.0 114.1,650.0 122.1,650.0 130.1,650.0 138.1,650.0 146.2,650.0 154.2,418.7 162.2,418.6 170.2,418.5 178.3,417.3 186.3,417.3 194.3,417.2 202.3,415.3 210.3,415.3 218.4,415.2 226.4,415.2 234.4,415.2 242.4,415.2 250.5,415.2 258.5,416.8 266.5,416.8 274.5,416.3 282.6,416.3 290.6,416.3 298.6,416.3 306.6,416.3 314.7,416.2 322.7,416.2 330.7,416.2 338.7,416.2 346.7,416.2 354.8,416.2 362.8,414.2 370.8,414.2 378.8,414.2 386.9,414.2 394.9,414.2 402.9,413.9 410.9,413.9 419.0,413.9 427.0,413.9 435.0,413.9 443.0,413.9 451.0,413.9 459.1,413.9 467.1,413.9 475.1,413.9 483.1,413.9 491.2,413.9 499.2,413.9 507.2,413.9 515.2,413.9 523.3,413.9 531.3,413.9 539.3,413.9 547.3,413.8 555.3,413.8 563.4,413.8 571.4,413.8 579.4,413.8 587.4,413.8 595.5,413.8 603.5,413.8 611.5,413.8 619.5,413.8 627.6,413.8 635.6,413.8 643.6,413.8 651.6,413.8 659.7,413.8 667.7,413.8 675.7,413.8 683.7,413.8 691.7,413.8 699.8,413.8 707.8,413.8 715.8,413.8 723.8,413.8 731.9,413.8 739.9,413.8 747.9,413.8 755.9,413.8 764.0,413.8 772.0,413.6 780.0,413.4 780.0,416.7 772.0,417.3 764.0,417.9 755.9,417.9 747.9,417.9 739.9,417.9 731.9,417.9 723.8,417.9 715.8,417.9 707.8,417.9 699.8,417.9 691.7,417.9 683.7,417.9 675.7,417.9 667.7,417.9 659.7,417.9 651.6,418.0 643.6,418.0 635.6,418.0 627.6,418.0 619.5,418.0 611.5,418.0 603.5,418.0 595.5,418.0 587.4,418.0 579.4,418.1 571.4,418.1 563.4,418.1 555.3,418.1 547.3,418.1 539.3,418.1 531.3,418.1 523.3,418.1 515.2,418.1 507.2,418.1 499.2,418.1 491.2,418.1 483.1,418.1 475.1,418.1 467.1,418.1 459.1,418.1 451.0,418.1 443.0,418.1 435.0,418.2 427.0,418.2 419.0,418.2 410.9,418.3 402.9,418.3 394.9,418.8 386.9,418.8 378.8,418.8 370.8,418.9 362.8,418.9 354.8,422.9 346.7,422.9 338.7,422.9 330.7,422.9 322.7,423.0 314.7,423.0 306.6,423.2 298.6,423.2 290.6,423.3 282.6,423.3 274.5,423.3 266.5,424.2 258.5,424.3 250.5,421.0 242.4,421.0 234.4,421.0 226.4,421.0 218.4,421.0 210.3,421.1 202.3,421.1 194.3,425.2 186.3,425.3 178.3,425.3 170.2,427.8 162.2,428.1 154.2,428.3 146.2,650.0 138.1,650.0 130.1,650.0 122.1,650.0 114.1,650.0 106.0,650.0 98.0,650.0 90.0,650.0" fill="#6E4C13" opacity="0.6" class="anim" style="animation-delay:1100ms;"/>
<polygon points="90.0,650.0 98.0,650.0 106.0,650.0 114.1,650.0 122.1,650.0 130.1,650.0 138.1,650.0 146.2,650.0 154.2,414.4 162.2,414.4 170.2,414.3 178.3,413.7 186.3,413.7 194.3,413.7 202.3,412.7 210.3,412.7 218.4,412.7 226.4,412.7 234.4,412.7 242.4,412.7 250.5,412.7 258.5,413.5 266.5,413.4 274.5,413.2 282.6,413.2 290.6,413.2 298.6,413.2 306.6,413.2 314.7,413.1 322.7,413.1 330.7,413.1 338.7,413.1 346.7,413.1 354.8,413.1 362.8,412.2 370.8,412.1 378.8,412.1 386.9,412.1 394.9,412.1 402.9,412.0 410.9,412.0 419.0,412.0 427.0,412.0 435.0,412.0 443.0,412.0 451.0,412.0 459.1,412.0 467.1,412.0 475.1,412.0 483.1,412.0 491.2,412.0 499.2,412.0 507.2,412.0 515.2,412.0 523.3,412.0 531.3,412.0 539.3,412.0 547.3,411.9 555.3,411.9 563.4,411.9 571.4,411.9 579.4,411.9 587.4,411.9 595.5,411.9 603.5,411.9 611.5,411.9 619.5,411.9 627.6,411.9 635.6,411.9 643.6,411.9 651.6,411.9 659.7,411.9 667.7,411.9 675.7,411.9 683.7,411.9 691.7,411.9 699.8,411.9 707.8,411.9 715.8,411.9 723.8,411.9 731.9,411.9 739.9,411.9 747.9,411.9 755.9,411.9 764.0,411.9 772.0,411.9 780.0,411.9 780.0,413.4 772.0,413.6 764.0,413.8 755.9,413.8 747.9,413.8 739.9,413.8 731.9,413.8 723.8,413.8 715.8,413.8 707.8,413.8 699.8,413.8 691.7,413.8 683.7,413.8 675.7,413.8 667.7,413.8 659.7,413.8 651.6,413.8 643.6,413.8 635.6,413.8 627.6,413.8 619.5,413.8 611.5,413.8 603.5,413.8 595.5,413.8 587.4,413.8 579.4,413.8 571.4,413.8 563.4,413.8 555.3,413.8 547.3,413.8 539.3,413.9 531.3,413.9 523.3,413.9 515.2,413.9 507.2,413.9 499.2,413.9 491.2,413.9 483.1,413.9 475.1,413.9 467.1,413.9 459.1,413.9 451.0,413.9 443.0,413.9 435.0,413.9 427.0,413.9 419.0,413.9 410.9,413.9 402.9,413.9 394.9,414.2 386.9,414.2 378.8,414.2 370.8,414.2 362.8,414.2 354.8,416.2 346.7,416.2 338.7,416.2 330.7,416.2 322.7,416.2 314.7,416.2 306.6,416.3 298.6,416.3 290.6,416.3 282.6,416.3 274.5,416.3 266.5,416.8 258.5,416.8 250.5,415.2 242.4,415.2 234.4,415.2 226.4,415.2 218.4,415.2 210.3,415.3 202.3,415.3 194.3,417.2 186.3,417.3 178.3,417.3 170.2,418.5 162.2,418.6 154.2,418.7 146.2,650.0 138.1,650.0 130.1,650.0 122.1,650.0 114.1,650.0 106.0,650.0 98.0,650.0 90.0,650.0" fill="#b07219" opacity="0.6" class="anim" style="animation-delay:1200ms;"/>
<line x1="764.0" y1="100" x2="764.0" y2="650" stroke="#c9d1d9" stroke-width="1" stroke-dasharray="4,3" opacity="0.35"/>
<text x="772.0" y="112" text-anchor="middle" class="axis-label" opacity="0.6">Jul 16, 2026</text>
<text x="90.0" y="668" text-anchor="middle" class="axis-label" transform="rotate(-35 90.0 668)">2026-02</text>
<text x="306.6" y="668" text-anchor="middle" class="axis-label" transform="rotate(-35 306.6 668)">2026-03</text>
<text x="523.3" y="668" text-anchor="middle" class="axis-label" transform="rotate(-35 523.3 668)">2026-04</text>
<text x="595.5" y="668" text-anchor="middle" class="axis-label" transform="rotate(-35 595.5 668)">2026-06</text>
<text x="764.0" y="668" text-anchor="middle" class="axis-label" transform="rotate(-35 764.0 668)">2026-07</text>
<line x1="796" y1="110" x2="824" y2="110" stroke="#3fb950" stroke-width="2"/>
<text x="832" y="116" class="legend-text">Lines Added</text>
<line x1="796" y1="140" x2="824" y2="140" stroke="#f85149" stroke-width="1.5"/>
<text x="832" y="146" class="legend-text">Lines Deleted</text>
<line x1="796" y1="170" x2="824" y2="170" stroke="#e3b341" stroke-width="1.5" stroke-dasharray="4,3"/>
<text x="832" y="176" class="legend-text">&#x2605; Stars</text>
<text x="796" y="200" class="subtitle">Languages</text>
<rect x="796" y="212" width="12" height="12" rx="2" fill="#e34c26" opacity="0.8" class="anim" style="animation-delay:800ms;"/>
<text x="814" y="223" class="legend-text">HTML (58%→56%)</text>
<rect x="796" y="234" width="12" height="12" rx="2" fill="#f1e05a" opacity="0.8" class="anim" style="animation-delay:880ms;"/>
<text x="814" y="245" class="legend-text">JavaScript (22%→25%)</text>
<rect x="796" y="256" width="12" height="12" rx="2" fill="#3572A5" opacity="0.8" class="anim" style="animation-delay:960ms;"/>
<text x="814" y="267" class="legend-text">Python (7%→6%)</text>
<rect x="796" y="278" width="12" height="12" rx="2" fill="#663399" opacity="0.8" class="anim" style="animation-delay:1040ms;"/>
<text x="814" y="289" class="legend-text">CSS (6%→6%)</text>
<rect x="796" y="300" width="12" height="12" rx="2" fill="#083fa1" opacity="0.8" class="anim" style="animation-delay:1120ms;"/>
<text x="814" y="311" class="legend-text">Markdown (2%→2%)</text>
<rect x="796" y="322" width="12" height="12" rx="2" fill="#F05138" opacity="0.8" class="anim" style="animation-delay:1200ms;"/>
<text x="814" y="333" class="legend-text">Swift (2%→2%)</text>
<rect x="796" y="344" width="12" height="12" rx="2" fill="#6E4C13" opacity="0.8" class="anim" style="animation-delay:1280ms;"/>
<text x="814" y="355" class="legend-text">Assembly (2%→1%)</text>
<rect x="796" y="366" width="12" height="12" rx="2" fill="#b07219" opacity="0.8" class="anim" style="animation-delay:1360ms;"/>
<text x="814" y="377" class="legend-text">Java (1%→1%)</text>
<text x="796" y="412" class="subtitle">Contributions</text>
<text x="796" y="432" class="axis-label">2023: 39</text>
<text x="796" y="452" class="axis-label">2024: 646</text>
<text x="796" y="472" class="axis-label">2025: 1,780</text>
<text x="796" y="492" class="axis-label">2026: 491</text>
<text x="796" y="522" class="subtitle">Statistics</text>
<text x="796" y="542" class="axis-label">Active weeks: 88</text>
<text x="796" y="562" class="axis-label">Add/Del ratio: 1.8x</text>
<text x="796" y="582" class="axis-label">Avg lines/wk: 18K</text>
<text x="796" y="602" class="axis-label">Peak: 2026-02-15</text>
<text x="796" y="622" class="axis-label">  (543K lines)</text>
<text x="90" y="742" class="axis-label">Total: +1,040,332 / -576,819 lines &#xb7; 2,956 contributions &#xb7; 80 repos &#xb7; &#x2605; 37</text>
</svg>