<svg xmlns="http://www.w3.org/2000/svg" width="1000" height="760" style="max-width: 100%;" viewBox="0 0 1000 760">

<defs>
  <linearGradient id="areaGrad" x1="0" y1="0" x2="0" y2="1">
    <stop offset="0%" stop-color="#58a6ff" stop-opacity="0.35"/>
    <stop offset="100%" stop-color="#58a6ff" stop-opacity="0.02"/>
  </linearGradient>
  <linearGradient id="addGrad" x1="0" y1="0" x2="0" y2="1">
    <stop offset="0%" stop-color="#3fb950" stop-opacity="0.35"/>
    <stop offset="100%" stop-color="#3fb950" stop-opacity="0.02"/>
  </linearGradient>
  <linearGradient id="delGrad" x1="0" y1="0" x2="0" y2="1">
    <stop offset="0%" stop-color="#f85149" stop-opacity="0.25"/>
    <stop offset="100%" stop-color="#f85149" stop-opacity="0.02"/>
  </linearGradient>
</defs>
<style>
  .title { font: bold 28px 'Segoe UI', Ubuntu, Sans-Serif; fill: #c9d1d9; }
  .subtitle { font: 600 20px 'Segoe UI', Ubuntu, Sans-Serif; fill: #c9d1d9; opacity: 0.8; }
  .axis-label { font: 18px 'Segoe UI', Ubuntu, Sans-Serif; fill: #c9d1d9; opacity: 0.7; }
  .legend-text { font: 14px 'Segoe UI', Ubuntu, Sans-Serif; fill: #c9d1d9; }
  .value-text { font: bold 18px 'Segoe UI', Ubuntu, Sans-Serif; fill: #c9d1d9; }
  .stat-value { font: bold 22px 'Segoe UI', Ubuntu, Sans-Serif; fill: #c9d1d9; }
  .stat-label { font: 18px 'Segoe UI', Ubuntu, Sans-Serif; fill: #c9d1d9; opacity: 0.7; }
  @keyframes fadeIn { from { opacity: 0; } to { opacity: 1; } }
  .anim { animation: fadeIn 0.6s ease-in-out forwards; opacity: 0; }
</style>

<rect x="0.5" y="0.5" rx="4.5" width="999" height="759" fill="#161b22" stroke="#21262d"/>
<text x="90" y="45" class="title">Activity History</text>
<text x="90" y="72" class="subtitle">Lines added vs deleted &amp; activity trends over time</text>
<line x1="90" y1="340.0" x2="780" y2="340.0" stroke="#21262d" stroke-width="1"/>
<text x="82" y="344.0" text-anchor="end" class="axis-label">0</text>
<line x1="90" y1="280.0" x2="780" y2="280.0" stroke="#21262d" stroke-width="1"/>
<text x="82" y="284.0" text-anchor="end" class="axis-label">454K</text>
<line x1="90" y1="220.0" x2="780" y2="220.0" stroke="#21262d" stroke-width="1"/>
<text x="82" y="224.0" text-anchor="end" class="axis-label">908K</text>
<line x1="90" y1="160.0" x2="780" y2="160.0" stroke="#21262d" stroke-width="1"/>
<text x="82" y="164.0" text-anchor="end" class="axis-label">1.4M</text>
<line x1="90" y1="100.0" x2="780" y2="100.0" stroke="#21262d" stroke-width="1"/>
<text x="82" y="104.0" text-anchor="end" class="axis-label">1.8M</text>
<polygon points="90.0,340.0 90.0,291.8 98.4,293.5 106.8,291.8 115.2,293.5 123.7,304.6 132.1,282.6 140.5,282.5 148.9,274.2 157.3,273.9 165.7,273.4 174.1,273.3 182.6,258.5 191.0,258.5 199.4,258.4 207.8,236.4 216.2,236.1 224.6,235.9 233.0,235.9 241.5,235.9 249.9,235.9 258.3,235.9 266.7,235.3 275.1,220.6 283.5,220.6 292.0,220.6 300.4,220.6 308.8,220.2 317.2,220.2 325.6,219.6 334.0,219.6 342.4,219.5 350.9,219.5 359.3,219.5 367.7,219.5 376.1,219.6 384.5,219.5 392.9,219.5 401.3,219.5 409.8,219.5 418.2,219.5 426.6,219.5 435.0,218.9 443.4,219.2 451.8,218.5 460.2,218.2 468.7,218.2 477.1,218.2 485.5,218.2 493.9,218.2 502.3,218.2 510.7,218.1 519.1,218.1 527.6,218.1 536.0,218.2 544.4,218.5 552.8,219.9 561.2,218.5 569.6,217.2 578.0,217.1 586.5,217.1 594.9,217.1 603.3,217.1 611.7,209.6 620.1,202.7 628.5,202.7 637.0,202.7 645.4,202.7 653.8,202.7 662.2,202.7 670.6,202.7 679.0,202.7 687.4,202.6 695.9,202.6 704.3,202.6 712.7,202.6 721.1,202.6 729.5,202.6 737.9,202.6 746.3,202.6 754.8,202.6 763.2,202.6 771.6,195.1 780.0,187.6 780.0,340.0" fill="url(#addGrad)" class="anim" style="animation-delay:200ms;"/>
<polyline points="90.0,291.8 98.4,293.5 106.8,291.8 115.2,293.5 123.7,304.6 132.1,282.6 140.5,282.5 148.9,274.2 157.3,273.9 165.7,273.4 174.1,273.3 182.6,258.5 191.0,258.5 199.4,258.4 207.8,236.4 216.2,236.1 224.6,235.9 233.0,235.9 241.5,235.9 249.9,235.9 258.3,235.9 266.7,235.3 275.1,220.6 283.5,220.6 292.0,220.6 300.4,220.6 308.8,220.2 317.2,220.2 325.6,219.6 334.0,219.6 342.4,219.5 350.9,219.5 359.3,219.5 367.7,219.5 376.1,219.6 384.5,219.5 392.9,219.5 401.3,219.5 409.8,219.5 418.2,219.5 426.6,219.5 435.0,218.9 443.4,219.2 451.8,218.5 460.2,218.2 468.7,218.2 477.1,218.2 485.5,218.2 493.9,218.2 502.3,218.2 510.7,218.1 519.1,218.1 527.6,218.1 536.0,218.2 544.4,218.5 552.8,219.9 561.2,218.5 569.6,217.2 578.0,217.1 586.5,217.1 594.9,217.1 603.3,217.1 611.7,209.6 620.1,202.7 628.5,202.7 637.0,202.7 645.4,202.7 653.8,202.7 662.2,202.7 670.6,202.7 679.0,202.7 687.4,202.6 695.9,202.6 704.3,202.6 712.7,202.6 721.1,202.6 729.5,202.6 737.9,202.6 746.3,202.6 754.8,202.6 763.2,202.6" fill="none" stroke="#3fb950" stroke-width="2" stroke-linejoin="round" class="anim" style="animation-delay:250ms;"/>
<polyline points="763.2,202.6 771.6,195.1 780.0,187.6" fill="none" stroke="#3fb950" stroke-width="1.5" stroke-dasharray="5,4" stroke-linejoin="round" opacity="0.6" class="anim" style="animation-delay:250ms;"/>
<polygon points="90.0,340.0 90.0,326.4 98.4,327.9 106.8,326.5 115.2,327.8 123.7,333.6 132.1,324.8 140.5,324.8 148.9,323.8 157.3,323.5 165.7,323.2 174.1,323.2 182.6,307.2 191.0,307.2 199.4,307.2 207.8,289.1 216.2,288.9 224.6,288.9 233.0,288.9 241.5,288.9 249.9,288.9 258.3,288.9 266.7,279.4 275.1,265.0 283.5,265.0 292.0,265.0 300.4,265.0 308.8,264.9 317.2,264.9 325.6,264.8 334.0,264.8 342.4,264.8 350.9,264.8 359.3,264.8 367.7,264.8 376.1,264.8 384.5,264.8 392.9,264.8 401.3,264.8 409.8,264.8 418.2,264.8 426.6,264.8 435.0,264.8 443.4,264.8 451.8,264.3 460.2,264.3 468.7,264.3 477.1,264.3 485.5,264.3 493.9,264.3 502.3,264.3 510.7,264.3 519.1,264.3 527.6,264.3 536.0,264.4 544.4,264.4 552.8,265.3 561.2,264.7 569.6,263.9 578.0,263.9 586.5,263.9 594.9,263.9 603.3,263.9 611.7,263.8 620.1,263.8 628.5,263.8 637.0,263.8 645.4,263.8 653.8,263.8 662.2,263.8 670.6,263.8 679.0,263.8 687.4,263.8 695.9,263.8 704.3,263.8 712.7,263.8 721.1,263.8 729.5,263.8 737.9,263.8 746.3,263.8 754.8,263.8 763.2,263.8 771.6,258.1 780.0,252.4 780.0,340.0" fill="url(#delGrad)" class="anim" style="animation-delay:300ms;"/>
<polyline points="90.0,326.4 98.4,327.9 106.8,326.5 115.2,327.8 123.7,333.6 132.1,324.8 140.5,324.8 148.9,323.8 157.3,323.5 165.7,323.2 174.1,323.2 182.6,307.2 191.0,307.2 199.4,307.2 207.8,289.1 216.2,288.9 224.6,288.9 233.0,288.9 241.5,288.9 249.9,288.9 258.3,288.9 266.7,279.4 275.1,265.0 283.5,265.0 292.0,265.0 300.4,265.0 308.8,264.9 317.2,264.9 325.6,264.8 334.0,264.8 342.4,264.8 350.9,264.8 359.3,264.8 367.7,264.8 376.1,264.8 384.5,264.8 392.9,264.8 401.3,264.8 409.8,264.8 418.2,264.8 426.6,264.8 435.0,264.8 443.4,264.8 451.8,264.3 460.2,264.3 468.7,264.3 477.1,264.3 485.5,264.3 493.9,264.3 502.3,264.3 510.7,264.3 519.1,264.3 527.6,264.3 536.0,264.4 544.4,264.4 552.8,265.3 561.2,264.7 569.6,263.9 578.0,263.9 586.5,263.9 594.9,263.9 603.3,263.9 611.7,263.8 620.1,263.8 628.5,263.8 637.0,263.8 645.4,263.8 653.8,263.8 662.2,263.8 670.6,263.8 679.0,263.8 687.4,263.8 695.9,263.8 704.3,263.8 712.7,263.8 721.1,263.8 729.5,263.8 737.9,263.8 746.3,263.8 754.8,263.8 763.2,263.8" fill="none" stroke="#f85149" stroke-width="1.5" stroke-linejoin="round" class="anim" style="animation-delay:350ms;"/>
<polyline points="763.2,263.8 771.6,258.1 780.0,252.4" fill="none" stroke="#f85149" stroke-width="1" stroke-dasharray="5,4" stroke-linejoin="round" opacity="0.6" class="anim" style="animation-delay:350ms;"/>
<polyline points="90.0,340.0 98.4,340.0 106.8,340.0 115.2,340.0 123.7,340.0 132.1,340.0 140.5,340.0 148.9,340.0 157.3,308.0 165.7,308.0 174.1,308.0 182.6,308.0 191.0,308.0 199.4,308.0 207.8,308.0 216.2,308.0 224.6,308.0 233.0,308.0 241.5,308.0 249.9,308.0 258.3,308.0 266.7,308.0 275.1,308.0 283.5,308.0 292.0,308.0 300.4,308.0 308.8,308.0 317.2,308.0 325.6,308.0 334.0,308.0 342.4,308.0 350.9,308.0 359.3,308.0 367.7,308.0 376.1,276.0 384.5,276.0 392.9,276.0 401.3,276.0 409.8,276.0 418.2,276.0 426.6,276.0 435.0,276.0 443.4,244.0 451.8,244.0 460.2,244.0 468.7,244.0 477.1,244.0 485.5,244.0 493.9,244.0 502.3,244.0 510.7,244.0 519.1,244.0 527.6,244.0 536.0,244.0 544.4,244.0 552.8,244.0 561.2,244.0 569.6,244.0 578.0,180.0 586.5,180.0 594.9,180.0 603.3,180.0 611.7,180.0 620.1,180.0 628.5,180.0 637.0,180.0 645.4,180.0 653.8,180.0 662.2,180.0 670.6,180.0 679.0,180.0 687.4,180.0 695.9,180.0 704.3,180.0 712.7,180.0 721.1,180.0 729.5,180.0 737.9,180.0 746.3,180.0 754.8,180.0 763.2,180.0" fill="none" stroke="#e3b341" stroke-width="1.5" stroke-dasharray="4,3" stroke-linejoin="round" class="anim" style="animation-delay:400ms;"/>
<polyline points="763.2,180.0 771.6,180.0 780.0,148.0" fill="none" stroke="#e3b341" stroke-width="1" stroke-dasharray="3,5" stroke-linejoin="round" opacity="0.5" class="anim" style="animation-delay:400ms;"/>
<text x="90" y="90" class="subtitle">Lines Added vs Deleted (per snapshot)</text>
<text x="90" y="400" class="subtitle">Programming Language Development (%)</text>
<line x1="90" y1="650.0" x2="780" y2="650.0" stroke="#21262d" stroke-width="1"/>
<text x="82" y="654.0" text-anchor="end" class="axis-label">0%</text>
<line x1="90" y1="590.0" x2="780" y2="590.0" stroke="#21262d" stroke-width="1"/>
<text x="82" y="594.0" text-anchor="end" class="axis-label">25%</text>
<line x1="90" y1="530.0" x2="780" y2="530.0" stroke="#21262d" stroke-width="1"/>
<text x="82" y="534.0" text-anchor="end" class="axis-label">50%</text>
<line x1="90" y1="470.0" x2="780" y2="470.0" stroke="#21262d" stroke-width="1"/>
<text x="82" y="474.0" text-anchor="end" class="axis-label">75%</text>
<line x1="90" y1="410.0" x2="780" y2="410.0" stroke="#21262d" stroke-width="1"/>
<text x="82" y="414.0" text-anchor="end" class="axis-label">100%</text>
<polygon points="90.0,650.0 98.4,650.0 106.8,650.0 115.2,650.0 123.7,650.0 132.1,650.0 140.5,650.0 148.9,650.0 157.3,528.2 165.7,528.5 174.1,529.7 182.6,499.3 191.0,499.3 199.4,502.9 207.8,485.0 216.2,485.1 224.6,485.4 233.0,485.4 241.5,485.4 249.9,485.4 258.3,485.4 266.7,496.4 275.1,496.7 283.5,491.0 292.0,491.0 300.4,491.0 308.8,491.7 317.2,491.8 325.6,494.0 334.0,494.0 342.4,494.4 350.9,494.4 359.3,494.4 367.7,494.4 376.1,507.6 384.5,507.6 392.9,507.9 401.3,507.9 409.8,507.9 418.2,506.3 426.6,506.4 435.0,506.8 443.4,506.9 451.8,506.8 460.2,507.5 468.7,507.5 477.1,507.5 485.5,507.5 493.9,507.5 502.3,507.5 510.7,507.5 519.1,507.5 527.6,507.5 536.0,507.5 544.4,507.5 552.8,507.5 561.2,507.5 569.6,508.6 578.0,508.6 586.5,508.6 594.9,508.6 603.3,508.6 611.7,509.5 620.1,509.8 628.5,509.8 637.0,509.8 645.4,509.8 653.8,509.8 662.2,509.8 670.6,509.8 679.0,509.8 687.4,510.9 695.9,510.9 704.3,510.9 712.7,510.9 721.1,510.9 729.5,510.9 737.9,510.9 746.3,510.9 754.8,510.9 763.2,510.9 771.6,512.8 780.0,514.7 780.0,650.0 771.6,650.0 763.2,650.0 754.8,650.0 746.3,650.0 737.9,650.0 729.5,650.0 721.1,650.0 712.7,650.0 704.3,650.0 695.9,650.0 687.4,650.0 679.0,650.0 670.6,650.0 662.2,650.0 653.8,650.0 645.4,650.0 637.0,650.0 628.5,650.0 620.1,650.0 611.7,650.0 603.3,650.0 594.9,650.0 586.5,650.0 578.0,650.0 569.6,650.0 561.2,650.0 552.8,650.0 544.4,650.0 536.0,650.0 527.6,650.0 519.1,650.0 510.7,650.0 502.3,650.0 493.9,650.0 485.5,650.0 477.1,650.0 468.7,650.0 460.2,650.0 451.8,650.0 443.4,650.0 435.0,650.0 426.6,650.0 418.2,650.0 409.8,650.0 401.3,650.0 392.9,650.0 384.5,650.0 376.1,650.0 367.7,650.0 359.3,650.0 350.9,650.0 342.4,650.0 334.0,650.0 325.6,650.0 317.2,650.0 308.8,650.0 300.4,650.0 292.0,650.0 283.5,650.0 275.1,650.0 266.7,650.0 258.3,650.0 249.9,650.0 241.5,650.0 233.0,650.0 224.6,650.0 216.2,650.0 207.8,650.0 199.4,650.0 191.0,650.0 182.6,650.0 174.1,650.0 165.7,650.0 157.3,650.0 148.9,650.0 140.5,650.0 132.1,650.0 123.7,650.0 115.2,650.0 106.8,650.0 98.4,650.0 90.0,650.0" fill="#e34c26" opacity="0.6" class="anim" style="animation-delay:500ms;"/>
<polygon points="90.0,650.0 98.4,650.0 106.8,650.0 115.2,650.0 123.7,650.0 132.1,650.0 140.5,650.0 148.9,650.0 157.3,488.4 165.7,488.0 174.1,489.0 182.6,476.0 191.0,476.0 199.4,477.2 207.8,460.1 216.2,460.2 224.6,460.6 233.0,460.6 241.5,460.6 249.9,460.6 258.3,460.6 266.7,473.0 275.1,473.5 283.5,469.5 292.0,469.5 300.4,469.5 308.8,469.7 317.2,469.7 325.6,469.7 334.0,469.7 342.4,469.7 350.9,469.7 359.3,469.7 367.7,469.7 376.1,455.6 384.5,455.6 392.9,455.4 401.3,455.4 409.8,455.4 418.2,454.3 426.6,454.3 435.0,455.0 443.4,455.1 451.8,454.9 460.2,455.9 468.7,455.9 477.1,455.9 485.5,455.9 493.9,455.9 502.3,455.9 510.7,455.9 519.1,455.9 527.6,455.9 536.0,455.9 544.4,455.9 552.8,455.9 561.2,455.9 569.6,455.8 578.0,455.8 586.5,455.8 594.9,455.8 603.3,455.8 611.7,457.0 620.1,457.4 628.5,457.4 637.0,457.4 645.4,457.4 653.8,457.4 662.2,457.4 670.6,457.4 679.0,457.4 687.4,458.2 695.9,458.2 704.3,458.2 712.7,458.2 721.1,458.2 729.5,458.2 737.9,458.2 746.3,458.2 754.8,458.2 763.2,458.2 771.6,456.3 780.0,454.4 780.0,514.7 771.6,512.8 763.2,510.9 754.8,510.9 746.3,510.9 737.9,510.9 729.5,510.9 721.1,510.9 712.7,510.9 704.3,510.9 695.9,510.9 687.4,510.9 679.0,509.8 670.6,509.8 662.2,509.8 653.8,509.8 645.4,509.8 637.0,509.8 628.5,509.8 620.1,509.8 611.7,509.5 603.3,508.6 594.9,508.6 586.5,508.6 578.0,508.6 569.6,508.6 561.2,507.5 552.8,507.5 544.4,507.5 536.0,507.5 527.6,507.5 519.1,507.5 510.7,507.5 502.3,507.5 493.9,507.5 485.5,507.5 477.1,507.5 468.7,507.5 460.2,507.5 451.8,506.8 443.4,506.9 435.0,506.8 426.6,506.4 418.2,506.3 409.8,507.9 401.3,507.9 392.9,507.9 384.5,507.6 376.1,507.6 367.7,494.4 359.3,494.4 350.9,494.4 342.4,494.4 334.0,494.0 325.6,494.0 317.2,491.8 308.8,491.7 300.4,491.0 292.0,491.0 283.5,491.0 275.1,496.7 266.7,496.4 258.3,485.4 249.9,485.4 241.5,485.4 233.0,485.4 224.6,485.4 216.2,485.1 207.8,485.0 199.4,502.9 191.0,499.3 182.6,499.3 174.1,529.7 165.7,528.5 157.3,528.2 148.9,650.0 140.5,650.0 132.1,650.0 123.7,650.0 115.2,650.0 106.8,650.0 98.4,650.0 90.0,650.0" fill="#f1e05a" opacity="0.6" class="anim" style="animation-delay:600ms;"/>
<polygon points="90.0,650.0 98.4,650.0 106.8,650.0 115.2,650.0 123.7,650.0 132.1,650.0 140.5,650.0 148.9,650.0 157.3,455.5 165.7,455.4 174.1,455.1 182.6,447.0 191.0,447.0 199.4,448.2 207.8,438.9 216.2,439.0 224.6,439.6 233.0,439.6 241.5,439.6 249.9,439.6 258.3,439.6 266.7,445.6 275.1,445.6 283.5,443.3 292.0,443.3 300.4,443.3 308.8,443.6 317.2,443.6 325.6,444.1 334.0,444.1 342.4,444.1 350.9,444.1 359.3,444.1 367.7,444.1 376.1,437.5 384.5,437.5 392.9,437.5 401.3,437.5 409.8,437.5 418.2,437.5 426.6,437.5 435.0,438.4 443.4,438.5 451.8,438.3 460.2,439.3 468.7,439.3 477.1,439.3 485.5,439.3 493.9,439.3 502.3,439.3 510.7,439.3 519.1,439.3 527.6,439.3 536.0,439.3 544.4,439.3 552.8,439.3 561.2,439.3 569.6,439.4 578.0,439.4 586.5,439.4 594.9,439.4 603.3,439.4 611.7,440.7 620.1,441.1 628.5,441.1 637.0,441.1 645.4,441.1 653.8,441.1 662.2,441.1 670.6,441.1 679.0,441.1 687.4,442.0 695.9,442.0 704.3,442.0 712.7,442.0 721.1,442.0 729.5,442.0 737.9,442.0 746.3,442.0 754.8,442.0 763.2,442.0 771.6,441.7 780.0,441.3 780.0,454.4 771.6,456.3 763.2,458.2 754.8,458.2 746.3,458.2 737.9,458.2 729.5,458.2 721.1,458.2 712.7,458.2 704.3,458.2 695.9,458.2 687.4,458.2 679.0,457.4 670.6,457.4 662.2,457.4 653.8,457.4 645.4,457.4 637.0,457.4 628.5,457.4 620.1,457.4 611.7,457.0 603.3,455.8 594.9,455.8 586.5,455.8 578.0,455.8 569.6,455.8 561.2,455.9 552.8,455.9 544.4,455.9 536.0,455.9 527.6,455.9 519.1,455.9 510.7,455.9 502.3,455.9 493.9,455.9 485.5,455.9 477.1,455.9 468.7,455.9 460.2,455.9 451.8,454.9 443.4,455.1 435.0,455.0 426.6,454.3 418.2,454.3 409.8,455.4 401.3,455.4 392.9,455.4 384.5,455.6 376.1,455.6 367.7,469.7 359.3,469.7 350.9,469.7 342.4,469.7 334.0,469.7 325.6,469.7 317.2,469.7 308.8,469.7 300.4,469.5 292.0,469.5 283.5,469.5 275.1,473.5 266.7,473.0 258.3,460.6 249.9,460.6 241.5,460.6 233.0,460.6 224.6,460.6 216.2,460.2 207.8,460.1 199.4,477.2 191.0,476.0 182.6,476.0 174.1,489.0 165.7,488.0 157.3,488.4 148.9,650.0 140.5,650.0 132.1,650.0 123.7,650.0 115.2,650.0 106.8,650.0 98.4,650.0 90.0,650.0" fill="#3572A5" opacity="0.6" class="anim" style="animation-delay:700ms;"/>
<polygon points="90.0,650.0 98.4,650.0 106.8,650.0 115.2,650.0 123.7,650.0 132.1,650.0 140.5,650.0 148.9,650.0 157.3,442.3 165.7,442.0 174.1,441.6 182.6,439.5 191.0,439.5 199.4,439.4 207.8,432.3 216.2,432.2 224.6,432.6 233.0,432.6 241.5,432.6 249.9,432.6 258.3,432.6 266.7,439.3 275.1,439.3 283.5,437.4 292.0,437.4 300.4,437.4 308.8,437.3 317.2,437.3 325.6,437.1 334.0,437.1 342.4,437.1 350.9,437.1 359.3,437.1 367.7,437.1 376.1,428.7 384.5,428.6 392.9,428.5 401.3,428.5 409.8,428.5 418.2,427.3 426.6,427.3 435.0,427.1 443.4,427.1 451.8,427.1 460.2,427.0 468.7,427.0 477.1,427.0 485.5,427.0 493.9,427.0 502.3,427.0 510.7,427.0 519.1,427.0 527.6,427.0 536.0,427.0 544.4,427.0 552.8,427.0 561.2,427.0 569.6,427.0 578.0,427.1 586.5,427.1 594.9,427.1 603.3,427.1 611.7,428.4 620.1,428.9 628.5,428.9 637.0,428.9 645.4,428.9 653.8,428.9 662.2,428.9 670.6,428.9 679.0,428.9 687.4,428.7 695.9,428.7 704.3,428.7 712.7,428.7 721.1,428.7 729.5,428.7 737.9,428.7 746.3,428.7 754.8,428.7 763.2,428.7 771.6,427.6 780.0,426.5 780.0,441.3 771.6,441.7 763.2,442.0 754.8,442.0 746.3,442.0 737.9,442.0 729.5,442.0 721.1,442.0 712.7,442.0 704.3,442.0 695.9,442.0 687.4,442.0 679.0,441.1 670.6,441.1 662.2,441.1 653.8,441.1 645.4,441.1 637.0,441.1 628.5,441.1 620.1,441.1 611.7,440.7 603.3,439.4 594.9,439.4 586.5,439.4 578.0,439.4 569.6,439.4 561.2,439.3 552.8,439.3 544.4,439.3 536.0,439.3 527.6,439.3 519.1,439.3 510.7,439.3 502.3,439.3 493.9,439.3 485.5,439.3 477.1,439.3 468.7,439.3 460.2,439.3 451.8,438.3 443.4,438.5 435.0,438.4 426.6,437.5 418.2,437.5 409.8,437.5 401.3,437.5 392.9,437.5 384.5,437.5 376.1,437.5 367.7,444.1 359.3,444.1 350.9,444.1 342.4,444.1 334.0,444.1 325.6,444.1 317.2,443.6 308.8,443.6 300.4,443.3 292.0,443.3 283.5,443.3 275.1,445.6 266.7,445.6 258.3,439.6 249.9,439.6 241.5,439.6 233.0,439.6 224.6,439.6 216.2,439.0 207.8,438.9 199.4,448.2 191.0,447.0 182.6,447.0 174.1,455.1 165.7,455.4 157.3,455.5 148.9,650.0 140.5,650.0 132.1,650.0 123.7,650.0 115.2,650.0 106.8,650.0 98.4,650.0 90.0,650.0" fill="#663399" opacity="0.6" class="anim" style="animation-delay:800ms;"/>
<polygon points="90.0,650.0 98.4,650.0 106.8,650.0 115.2,650.0 123.7,650.0 132.1,650.0 140.5,650.0 148.9,650.0 157.3,436.6 165.7,436.3 174.1,435.9 182.6,432.2 191.0,432.2 199.4,432.2 207.8,426.2 216.2,426.1 224.6,426.0 233.0,426.0 241.5,426.0 249.9,426.0 258.3,426.0 266.7,430.8 275.1,430.7 283.5,429.3 292.0,429.3 300.4,429.3 308.8,429.2 317.2,429.2 325.6,428.9 334.0,428.9 342.4,428.8 350.9,428.8 359.3,428.8 367.7,428.8 376.1,423.0 384.5,422.9 392.9,422.9 401.3,422.9 409.8,422.9 418.2,422.0 426.6,422.0 435.0,421.9 443.4,421.9 451.8,421.9 460.2,421.8 468.7,421.8 477.1,421.8 485.5,421.8 493.9,421.8 502.3,421.8 510.7,421.8 519.1,421.8 527.6,421.8 536.0,421.8 544.4,421.8 552.8,421.8 561.2,421.8 569.6,421.7 578.0,421.8 586.5,421.8 594.9,421.8 603.3,421.8 611.7,423.2 620.1,423.6 628.5,423.6 637.0,423.6 645.4,423.6 653.8,423.6 662.2,423.6 670.6,423.6 679.0,423.6 687.4,423.5 695.9,423.5 704.3,423.5 712.7,423.5 721.1,423.5 729.5,423.5 737.9,423.5 746.3,423.5 754.8,423.5 763.2,423.5 771.6,422.7 780.0,421.9 780.0,426.5 771.6,427.6 763.2,428.7 754.8,428.7 746.3,428.7 737.9,428.7 729.5,428.7 721.1,428.7 712.7,428.7 704.3,428.7 695.9,428.7 687.4,428.7 679.0,428.9 670.6,428.9 662.2,428.9 653.8,428.9 645.4,428.9 637.0,428.9 628.5,428.9 620.1,428.9 611.7,428.4 603.3,427.1 594.9,427.1 586.5,427.1 578.0,427.1 569.6,427.0 561.2,427.0 552.8,427.0 544.4,427.0 536.0,427.0 527.6,427.0 519.1,427.0 510.7,427.0 502.3,427.0 493.9,427.0 485.5,427.0 477.1,427.0 468.7,427.0 460.2,427.0 451.8,427.1 443.4,427.1 435.0,427.1 426.6,427.3 418.2,427.3 409.8,428.5 401.3,428.5 392.9,428.5 384.5,428.6 376.1,428.7 367.7,437.1 359.3,437.1 350.9,437.1 342.4,437.1 334.0,437.1 325.6,437.1 317.2,437.3 308.8,437.3 300.4,437.4 292.0,437.4 283.5,437.4 275.1,439.3 266.7,439.3 258.3,432.6 249.9,432.6 241.5,432.6 233.0,432.6 224.6,432.6 216.2,432.2 207.8,432.3 199.4,439.4 191.0,439.5 182.6,439.5 174.1,441.6 165.7,442.0 157.3,442.3 148.9,650.0 140.5,650.0 132.1,650.0 123.7,650.0 115.2,650.0 106.8,650.0 98.4,650.0 90.0,650.0" fill="#083fa1" opacity="0.6" class="anim" style="animation-delay:900ms;"/>
<polygon points="90.0,650.0 98.4,650.0 106.8,650.0 115.2,650.0 123.7,650.0 132.1,650.0 140.5,650.0 148.9,650.0 157.3,427.0 165.7,426.8 174.1,426.6 182.6,424.2 191.0,424.2 199.4,424.2 207.8,420.4 216.2,420.3 224.6,420.3 233.0,420.3 241.5,420.3 249.9,420.3 258.3,420.3 266.7,423.3 275.1,423.2 283.5,422.4 292.0,422.4 300.4,422.4 308.8,422.3 317.2,422.3 325.6,422.1 334.0,422.1 342.4,422.1 350.9,422.1 359.3,422.1 367.7,422.1 376.1,418.3 384.5,418.3 392.9,418.2 401.3,418.2 409.8,418.2 418.2,417.7 426.6,417.7 435.0,417.6 443.4,417.6 451.8,417.6 460.2,417.6 468.7,417.6 477.1,417.6 485.5,417.6 493.9,417.6 502.3,417.6 510.7,417.6 519.1,417.6 527.6,417.6 536.0,417.6 544.4,417.6 552.8,417.6 561.2,417.6 569.6,417.5 578.0,417.6 586.5,417.6 594.9,417.6 603.3,417.6 611.7,419.0 620.1,419.5 628.5,419.5 637.0,419.5 645.4,419.5 653.8,419.5 662.2,419.5 670.6,419.5 679.0,419.5 687.4,419.4 695.9,419.4 704.3,419.4 712.7,419.4 721.1,419.4 729.5,419.4 737.9,419.4 746.3,419.4 754.8,419.4 763.2,419.4 771.6,419.0 780.0,418.7 780.0,421.9 771.6,422.7 763.2,423.5 754.8,423.5 746.3,423.5 737.9,423.5 729.5,423.5 721.1,423.5 712.7,423.5 704.3,423.5 695.9,423.5 687.4,423.5 679.0,423.6 670.6,423.6 662.2,423.6 653.8,423.6 645.4,423.6 637.0,423.6 628.5,423.6 620.1,423.6 611.7,423.2 603.3,421.8 594.9,421.8 586.5,421.8 578.0,421.8 569.6,421.7 561.2,421.8 552.8,421.8 544.4,421.8 536.0,421.8 527.6,421.8 519.1,421.8 510.7,421.8 502.3,421.8 493.9,421.8 485.5,421.8 477.1,421.8 468.7,421.8 460.2,421.8 451.8,421.9 443.4,421.9 435.0,421.9 426.6,422.0 418.2,422.0 409.8,422.9 401.3,422.9 392.9,422.9 384.5,422.9 376.1,423.0 367.7,428.8 359.3,428.8 350.9,428.8 342.4,428.8 334.0,428.9 325.6,428.9 317.2,429.2 308.8,429.2 300.4,429.3 292.0,429.3 283.5,429.3 275.1,430.7 266.7,430.8 258.3,426.0 249.9,426.0 241.5,426.0 233.0,426.0 224.6,426.0 216.2,426.1 207.8,426.2 199.4,432.2 191.0,432.2 182.6,432.2 174.1,435.9 165.7,436.3 157.3,436.6 148.9,650.0 140.5,650.0 132.1,650.0 123.7,650.0 115.2,650.0 106.8,650.0 98.4,650.0 90.0,650.0" fill="#6E4C13" opacity="0.6" class="anim" style="animation-delay:1000ms;"/>
<polygon points="90.0,650.0 98.4,650.0 106.8,650.0 115.2,650.0 123.7,650.0 132.1,650.0 140.5,650.0 148.9,650.0 157.3,418.7 165.7,418.6 174.1,418.5 182.6,417.3 191.0,417.3 199.4,417.2 207.8,415.3 216.2,415.3 224.6,415.2 233.0,415.2 241.5,415.2 249.9,415.2 258.3,415.2 266.7,416.8 275.1,416.8 283.5,416.3 292.0,416.3 300.4,416.3 308.8,416.3 317.2,416.3 325.6,416.2 334.0,416.2 342.4,416.2 350.9,416.2 359.3,416.2 367.7,416.2 376.1,414.2 384.5,414.2 392.9,414.2 401.3,414.2 409.8,414.2 418.2,413.9 426.6,413.9 435.0,413.9 443.4,413.9 451.8,413.9 460.2,413.9 468.7,413.9 477.1,413.9 485.5,413.9 493.9,413.9 502.3,413.9 510.7,413.9 519.1,413.9 527.6,413.9 536.0,413.9 544.4,413.9 552.8,413.9 561.2,413.9 569.6,413.8 578.0,413.8 586.5,413.8 594.9,413.8 603.3,413.8 611.7,413.8 620.1,413.8 628.5,413.8 637.0,413.8 645.4,413.8 653.8,413.8 662.2,413.8 670.6,413.8 679.0,413.8 687.4,413.8 695.9,413.8 704.3,413.8 712.7,413.8 721.1,413.8 729.5,413.8 737.9,413.8 746.3,413.8 754.8,413.8 763.2,413.8 771.6,413.6 780.0,413.4 780.0,418.7 771.6,419.0 763.2,419.4 754.8,419.4 746.3,419.4 737.9,419.4 729.5,419.4 721.1,419.4 712.7,419.4 704.3,419.4 695.9,419.4 687.4,419.4 679.0,419.5 670.6,419.5 662.2,419.5 653.8,419.5 645.4,419.5 637.0,419.5 628.5,419.5 620.1,419.5 611.7,419.0 603.3,417.6 594.9,417.6 586.5,417.6 578.0,417.6 569.6,417.5 561.2,417.6 552.8,417.6 544.4,417.6 536.0,417.6 527.6,417.6 519.1,417.6 510.7,417.6 502.3,417.6 493.9,417.6 485.5,417.6 477.1,417.6 468.7,417.6 460.2,417.6 451.8,417.6 443.4,417.6 435.0,417.6 426.6,417.7 418.2,417.7 409.8,418.2 401.3,418.2 392.9,418.2 384.5,418.3 376.1,418.3 367.7,422.1 359.3,422.1 350.9,422.1 342.4,422.1 334.0,422.1 325.6,422.1 317.2,422.3 308.8,422.3 300.4,422.4 292.0,422.4 283.5,422.4 275.1,423.2 266.7,423.3 258.3,420.3 249.9,420.3 241.5,420.3 233.0,420.3 224.6,420.3 216.2,420.3 207.8,420.4 199.4,424.2 191.0,424.2 182.6,424.2 174.1,426.6 165.7,426.8 157.3,427.0 148.9,650.0 140.5,650.0 132.1,650.0 123.7,650.0 115.2,650.0 106.8,650.0 98.4,650.0 90.0,650.0" fill="#F05138" opacity="0.6" class="anim" style="animation-delay:1100ms;"/>
<polygon points="90.0,650.0 98.4,650.0 106.8,650.0 115.2,650.0 123.7,650.0 132.1,650.0 140.5,650.0 148.9,650.0 157.3,414.4 165.7,414.4 174.1,414.3 182.6,413.7 191.0,413.7 199.4,413.7 207.8,412.7 216.2,412.7 224.6,412.7 233.0,412.7 241.5,412.7 249.9,412.7 258.3,412.7 266.7,413.5 275.1,413.4 283.5,413.2 292.0,413.2 300.4,413.2 308.8,413.2 317.2,413.2 325.6,413.1 334.0,413.1 342.4,413.1 350.9,413.1 359.3,413.1 367.7,413.1 376.1,412.2 384.5,412.1 392.9,412.1 401.3,412.1 409.8,412.1 418.2,412.0 426.6,412.0 435.0,412.0 443.4,412.0 451.8,412.0 460.2,412.0 468.7,412.0 477.1,412.0 485.5,412.0 493.9,412.0 502.3,412.0 510.7,412.0 519.1,412.0 527.6,412.0 536.0,412.0 544.4,412.0 552.8,412.0 561.2,412.0 569.6,411.9 578.0,411.9 586.5,411.9 594.9,411.9 603.3,411.9 611.7,411.9 620.1,411.9 628.5,411.9 637.0,411.9 645.4,411.9 653.8,411.9 662.2,411.9 670.6,411.9 679.0,411.9 687.4,411.9 695.9,411.9 704.3,411.9 712.7,411.9 721.1,411.9 729.5,411.9 737.9,411.9 746.3,411.9 754.8,411.9 763.2,411.9 771.6,411.9 780.0,411.9 780.0,413.4 771.6,413.6 763.2,413.8 754.8,413.8 746.3,413.8 737.9,413.8 729.5,413.8 721.1,413.8 712.7,413.8 704.3,413.8 695.9,413.8 687.4,413.8 679.0,413.8 670.6,413.8 662.2,413.8 653.8,413.8 645.4,413.8 637.0,413.8 628.5,413.8 620.1,413.8 611.7,413.8 603.3,413.8 594.9,413.8 586.5,413.8 578.0,413.8 569.6,413.8 561.2,413.9 552.8,413.9 544.4,413.9 536.0,413.9 527.6,413.9 519.1,413.9 510.7,413.9 502.3,413.9 493.9,413.9 485.5,413.9 477.1,413.9 468.7,413.9 460.2,413.9 451.8,413.9 443.4,413.9 435.0,413.9 426.6,413.9 418.2,413.9 409.8,414.2 401.3,414.2 392.9,414.2 384.5,414.2 376.1,414.2 367.7,416.2 359.3,416.2 350.9,416.2 342.4,416.2 334.0,416.2 325.6,416.2 317.2,416.3 308.8,416.3 300.4,416.3 292.0,416.3 283.5,416.3 275.1,416.8 266.7,416.8 258.3,415.2 249.9,415.2 241.5,415.2 233.0,415.2 224.6,415.2 216.2,415.3 207.8,415.3 199.4,417.2 191.0,417.3 182.6,417.3 174.1,418.5 165.7,418.6 157.3,418.7 148.9,650.0 140.5,650.0 132.1,650.0 123.7,650.0 115.2,650.0 106.8,650.0 98.4,650.0 90.0,650.0" fill="#b07219" opacity="0.6" class="anim" style="animation-delay:1200ms;"/>
<line x1="763.2" y1="100" x2="763.2" y2="650" stroke="#c9d1d9" stroke-width="1" stroke-dasharray="4,3" opacity="0.35"/>
<text x="771.6" y="112" text-anchor="middle" class="axis-label" opacity="0.6">Jul 12, 2026</text>
<text x="90.0" y="668" text-anchor="middle" class="axis-label" transform="rotate(-35 90.0 668)">2026-02</text>
<text x="317.2" y="668" text-anchor="middle" class="axis-label" transform="rotate(-35 317.2 668)">2026-03</text>
<text x="544.4" y="668" text-anchor="middle" class="axis-label" transform="rotate(-35 544.4 668)">2026-04</text>
<text x="620.1" y="668" text-anchor="middle" class="axis-label" transform="rotate(-35 620.1 668)">2026-06</text>
<text x="771.6" y="668" text-anchor="middle" class="axis-label" transform="rotate(-35 771.6 668)">Jul 12, 2026</text>
<line x1="796" y1="110" x2="824" y2="110" stroke="#3fb950" stroke-width="2"/>
<text x="832" y="116" class="legend-text">Lines Added</text>
<line x1="796" y1="140" x2="824" y2="140" stroke="#f85149" stroke-width="1.5"/>
<text x="832" y="146" class="legend-text">Lines Deleted</text>
<line x1="796" y1="170" x2="824" y2="170" stroke="#e3b341" stroke-width="1.5" stroke-dasharray="4,3"/>
<text x="832" y="176" class="legend-text">&#x2605; Stars</text>
<text x="796" y="200" class="subtitle">Languages</text>
<rect x="796" y="212" width="12" height="12" rx="2" fill="#e34c26" opacity="0.8" class="anim" style="animation-delay:800ms;"/>
<text x="814" y="223" class="legend-text">HTML (58%→56%)</text>
<rect x="796" y="234" width="12" height="12" rx="2" fill="#f1e05a" opacity="0.8" class="anim" style="animation-delay:880ms;"/>
<text x="814" y="245" class="legend-text">JavaScript (22%→25%)</text>
<rect x="796" y="256" width="12" height="12" rx="2" fill="#3572A5" opacity="0.8" class="anim" style="animation-delay:960ms;"/>
<text x="814" y="267" class="legend-text">Python (7%→5%)</text>
<rect x="796" y="278" width="12" height="12" rx="2" fill="#663399" opacity="0.8" class="anim" style="animation-delay:1040ms;"/>
<text x="814" y="289" class="legend-text">CSS (6%→6%)</text>
<rect x="796" y="300" width="12" height="12" rx="2" fill="#083fa1" opacity="0.8" class="anim" style="animation-delay:1120ms;"/>
<text x="814" y="311" class="legend-text">Markdown (2%→2%)</text>
<rect x="796" y="322" width="12" height="12" rx="2" fill="#6E4C13" opacity="0.8" class="anim" style="animation-delay:1200ms;"/>
<text x="814" y="333" class="legend-text">Assembly (2%→1%)</text>
<rect x="796" y="344" width="12" height="12" rx="2" fill="#F05138" opacity="0.8" class="anim" style="animation-delay:1280ms;"/>
<text x="814" y="355" class="legend-text">Swift (2%→2%)</text>
<rect x="796" y="366" width="12" height="12" rx="2" fill="#b07219" opacity="0.8" class="anim" style="animation-delay:1360ms;"/>
<text x="814" y="377" class="legend-text">Java (1%→1%)</text>
<text x="796" y="412" class="subtitle">Contributions</text>
<text x="796" y="432" class="axis-label">2023: 39</text>
<text x="796" y="452" class="axis-label">2024: 646</text>
<text x="796" y="472" class="axis-label">2025: 1,780</text>
<text x="796" y="492" class="axis-label">2026: 491</text>
<text x="796" y="522" class="subtitle">Statistics</text>
<text x="796" y="542" class="axis-label">Active weeks: 88</text>
<text x="796" y="562" class="axis-label">Add/Del ratio: 1.8x</text>
<text x="796" y="582" class="axis-label">Avg lines/wk: 18K</text>
<text x="796" y="602" class="axis-label">Peak: 2026-02-15</text>
<text x="796" y="622" class="axis-label">  (543K lines)</text>
<text x="90" y="742" class="axis-label">Total: +1,040,332 / -576,819 lines &#xb7; 2,956 contributions &#xb7; 80 repos &#xb7; &#x2605; 37</text>
</svg>