<svg xmlns="http://www.w3.org/2000/svg" width="1000" height="760" style="max-width: 100%;" viewBox="0 0 1000 760">

<defs>
  <linearGradient id="areaGrad" x1="0" y1="0" x2="0" y2="1">
    <stop offset="0%" stop-color="#58a6ff" stop-opacity="0.35"/>
    <stop offset="100%" stop-color="#58a6ff" stop-opacity="0.02"/>
  </linearGradient>
  <linearGradient id="addGrad" x1="0" y1="0" x2="0" y2="1">
    <stop offset="0%" stop-color="#3fb950" stop-opacity="0.35"/>
    <stop offset="100%" stop-color="#3fb950" stop-opacity="0.02"/>
  </linearGradient>
  <linearGradient id="delGrad" x1="0" y1="0" x2="0" y2="1">
    <stop offset="0%" stop-color="#f85149" stop-opacity="0.25"/>
    <stop offset="100%" stop-color="#f85149" stop-opacity="0.02"/>
  </linearGradient>
</defs>
<style>
  .title { font: bold 28px 'Segoe UI', Ubuntu, Sans-Serif; fill: #c9d1d9; }
  .subtitle { font: 600 20px 'Segoe UI', Ubuntu, Sans-Serif; fill: #c9d1d9; opacity: 0.8; }
  .axis-label { font: 18px 'Segoe UI', Ubuntu, Sans-Serif; fill: #c9d1d9; opacity: 0.7; }
  .legend-text { font: 14px 'Segoe UI', Ubuntu, Sans-Serif; fill: #c9d1d9; }
  .value-text { font: bold 18px 'Segoe UI', Ubuntu, Sans-Serif; fill: #c9d1d9; }
  .stat-value { font: bold 22px 'Segoe UI', Ubuntu, Sans-Serif; fill: #c9d1d9; }
  .stat-label { font: 18px 'Segoe UI', Ubuntu, Sans-Serif; fill: #c9d1d9; opacity: 0.7; }
  @keyframes fadeIn { from { opacity: 0; } to { opacity: 1; } }
  .anim { animation: fadeIn 0.6s ease-in-out forwards; opacity: 0; }
</style>

<rect x="0.5" y="0.5" rx="4.5" width="999" height="759" fill="#161b22" stroke="#21262d"/>
<text x="90" y="45" class="title">Activity History</text>
<text x="90" y="72" class="subtitle">Lines added vs deleted &amp; activity trends over time</text>
<line x1="90" y1="340.0" x2="780" y2="340.0" stroke="#21262d" stroke-width="1"/>
<text x="82" y="344.0" text-anchor="end" class="axis-label">0</text>
<line x1="90" y1="280.0" x2="780" y2="280.0" stroke="#21262d" stroke-width="1"/>
<text x="82" y="284.0" text-anchor="end" class="axis-label">439K</text>
<line x1="90" y1="220.0" x2="780" y2="220.0" stroke="#21262d" stroke-width="1"/>
<text x="82" y="224.0" text-anchor="end" class="axis-label">878K</text>
<line x1="90" y1="160.0" x2="780" y2="160.0" stroke="#21262d" stroke-width="1"/>
<text x="82" y="164.0" text-anchor="end" class="axis-label">1.3M</text>
<line x1="90" y1="100.0" x2="780" y2="100.0" stroke="#21262d" stroke-width="1"/>
<text x="82" y="104.0" text-anchor="end" class="axis-label">1.8M</text>
<polygon points="90.0,340.0 90.0,290.1 101.3,291.9 112.6,290.1 123.9,291.9 135.2,303.4 146.6,280.5 157.9,280.5 169.2,271.9 180.5,271.6 191.8,271.0 203.1,271.0 214.4,255.6 225.7,255.6 237.0,255.6 248.4,232.8 259.7,232.5 271.0,232.2 282.3,232.2 293.6,232.2 304.9,232.2 316.2,232.2 327.5,231.6 338.9,216.4 350.2,216.4 361.5,216.4 372.8,216.4 384.1,216.0 395.4,216.0 406.7,215.4 418.0,215.4 429.3,215.3 440.7,215.3 452.0,215.3 463.3,215.3 474.6,215.4 485.9,215.3 497.2,215.3 508.5,215.3 519.8,215.3 531.1,215.3 542.5,215.3 553.8,214.6 565.1,214.9 576.4,214.2 587.7,213.9 599.0,213.9 610.3,213.9 621.6,213.9 633.0,213.9 644.3,213.9 655.6,213.8 666.9,213.8 678.2,213.8 689.5,213.9 700.8,214.2 712.1,215.7 723.4,214.2 734.8,212.9 746.1,212.8 757.4,212.8 768.7,204.1 780.0,195.4 780.0,340.0" fill="url(#addGrad)" class="anim" style="animation-delay:200ms;"/>
<polyline points="90.0,290.1 101.3,291.9 112.6,290.1 123.9,291.9 135.2,303.4 146.6,280.5 157.9,280.5 169.2,271.9 180.5,271.6 191.8,271.0 203.1,271.0 214.4,255.6 225.7,255.6 237.0,255.6 248.4,232.8 259.7,232.5 271.0,232.2 282.3,232.2 293.6,232.2 304.9,232.2 316.2,232.2 327.5,231.6 338.9,216.4 350.2,216.4 361.5,216.4 372.8,216.4 384.1,216.0 395.4,216.0 406.7,215.4 418.0,215.4 429.3,215.3 440.7,215.3 452.0,215.3 463.3,215.3 474.6,215.4 485.9,215.3 497.2,215.3 508.5,215.3 519.8,215.3 531.1,215.3 542.5,215.3 553.8,214.6 565.1,214.9 576.4,214.2 587.7,213.9 599.0,213.9 610.3,213.9 621.6,213.9 633.0,213.9 644.3,213.9 655.6,213.8 666.9,213.8 678.2,213.8 689.5,213.9 700.8,214.2 712.1,215.7 723.4,214.2 734.8,212.9 746.1,212.8 757.4,212.8" fill="none" stroke="#3fb950" stroke-width="2" stroke-linejoin="round" class="anim" style="animation-delay:250ms;"/>
<polyline points="757.4,212.8 768.7,204.1 780.0,195.4" fill="none" stroke="#3fb950" stroke-width="1.5" stroke-dasharray="5,4" stroke-linejoin="round" opacity="0.6" class="anim" style="animation-delay:250ms;"/>
<polygon points="90.0,340.0 90.0,326.0 101.3,327.4 112.6,326.0 123.9,327.4 135.2,333.4 146.6,324.3 157.9,324.3 169.2,323.2 180.5,322.9 191.8,322.6 203.1,322.6 214.4,306.1 225.7,306.0 237.0,306.0 248.4,287.3 259.7,287.1 271.0,287.1 282.3,287.1 293.6,287.1 304.9,287.1 316.2,287.1 327.5,277.3 338.9,262.4 350.2,262.3 361.5,262.3 372.8,262.3 384.1,262.3 395.4,262.3 406.7,262.2 418.0,262.1 429.3,262.1 440.7,262.1 452.0,262.1 463.3,262.1 474.6,262.2 485.9,262.1 497.2,262.1 508.5,262.1 519.8,262.1 531.1,262.1 542.5,262.1 553.8,262.1 565.1,262.2 576.4,261.7 587.7,261.7 599.0,261.7 610.3,261.7 621.6,261.7 633.0,261.7 644.3,261.7 655.6,261.7 666.9,261.7 678.2,261.7 689.5,261.7 700.8,261.8 712.1,262.6 723.4,262.1 734.8,261.3 746.1,261.2 757.4,261.2 768.7,252.9 780.0,244.6 780.0,340.0" fill="url(#delGrad)" class="anim" style="animation-delay:300ms;"/>
<polyline points="90.0,326.0 101.3,327.4 112.6,326.0 123.9,327.4 135.2,333.4 146.6,324.3 157.9,324.3 169.2,323.2 180.5,322.9 191.8,322.6 203.1,322.6 214.4,306.1 225.7,306.0 237.0,306.0 248.4,287.3 259.7,287.1 271.0,287.1 282.3,287.1 293.6,287.1 304.9,287.1 316.2,287.1 327.5,277.3 338.9,262.4 350.2,262.3 361.5,262.3 372.8,262.3 384.1,262.3 395.4,262.3 406.7,262.2 418.0,262.1 429.3,262.1 440.7,262.1 452.0,262.1 463.3,262.1 474.6,262.2 485.9,262.1 497.2,262.1 508.5,262.1 519.8,262.1 531.1,262.1 542.5,262.1 553.8,262.1 565.1,262.2 576.4,261.7 587.7,261.7 599.0,261.7 610.3,261.7 621.6,261.7 633.0,261.7 644.3,261.7 655.6,261.7 666.9,261.7 678.2,261.7 689.5,261.7 700.8,261.8 712.1,262.6 723.4,262.1 734.8,261.3 746.1,261.2 757.4,261.2" fill="none" stroke="#f85149" stroke-width="1.5" stroke-linejoin="round" class="anim" style="animation-delay:350ms;"/>
<polyline points="757.4,261.2 768.7,252.9 780.0,244.6" fill="none" stroke="#f85149" stroke-width="1" stroke-dasharray="5,4" stroke-linejoin="round" opacity="0.6" class="anim" style="animation-delay:350ms;"/>
<polyline points="90.0,340.0 101.3,340.0 112.6,340.0 123.9,340.0 135.2,340.0 146.6,340.0 157.9,340.0 169.2,340.0 180.5,301.6 191.8,301.6 203.1,301.6 214.4,301.6 225.7,301.6 237.0,301.6 248.4,301.6 259.7,301.6 271.0,301.6 282.3,301.6 293.6,301.6 304.9,301.6 316.2,301.6 327.5,301.6 338.9,301.6 350.2,301.6 361.5,301.6 372.8,301.6 384.1,301.6 395.4,301.6 406.7,301.6 418.0,301.6 429.3,301.6 440.7,301.6 452.0,301.6 463.3,301.6 474.6,263.2 485.9,263.2 497.2,263.2 508.5,263.2 519.8,263.2 531.1,263.2 542.5,263.2 553.8,263.2 565.1,224.8 576.4,224.8 587.7,224.8 599.0,224.8 610.3,224.8 621.6,224.8 633.0,224.8 644.3,224.8 655.6,224.8 666.9,224.8 678.2,224.8 689.5,224.8 700.8,224.8 712.1,224.8 723.4,224.8 734.8,224.8 746.1,148.0 757.4,148.0" fill="none" stroke="#e3b341" stroke-width="1.5" stroke-dasharray="4,3" stroke-linejoin="round" class="anim" style="animation-delay:400ms;"/>
<polyline points="757.4,148.0 768.7,148.0 780.0,148.0" fill="none" stroke="#e3b341" stroke-width="1" stroke-dasharray="3,5" stroke-linejoin="round" opacity="0.5" class="anim" style="animation-delay:400ms;"/>
<text x="90" y="90" class="subtitle">Lines Added vs Deleted (per snapshot)</text>
<text x="90" y="400" class="subtitle">Programming Language Development (%)</text>
<line x1="90" y1="650.0" x2="780" y2="650.0" stroke="#21262d" stroke-width="1"/>
<text x="82" y="654.0" text-anchor="end" class="axis-label">0%</text>
<line x1="90" y1="590.0" x2="780" y2="590.0" stroke="#21262d" stroke-width="1"/>
<text x="82" y="594.0" text-anchor="end" class="axis-label">25%</text>
<line x1="90" y1="530.0" x2="780" y2="530.0" stroke="#21262d" stroke-width="1"/>
<text x="82" y="534.0" text-anchor="end" class="axis-label">50%</text>
<line x1="90" y1="470.0" x2="780" y2="470.0" stroke="#21262d" stroke-width="1"/>
<text x="82" y="474.0" text-anchor="end" class="axis-label">75%</text>
<line x1="90" y1="410.0" x2="780" y2="410.0" stroke="#21262d" stroke-width="1"/>
<text x="82" y="414.0" text-anchor="end" class="axis-label">100%</text>
<polygon points="90.0,650.0 101.3,650.0 112.6,650.0 123.9,650.0 135.2,650.0 146.6,650.0 157.9,650.0 169.2,650.0 180.5,528.2 191.8,528.5 203.1,529.7 214.4,499.3 225.7,499.3 237.0,502.9 248.4,485.0 259.7,485.1 271.0,485.4 282.3,485.4 293.6,485.4 304.9,485.4 316.2,485.4 327.5,496.4 338.9,496.7 350.2,491.0 361.5,491.0 372.8,491.0 384.1,491.7 395.4,491.8 406.7,494.0 418.0,494.0 429.3,494.4 440.7,494.4 452.0,494.4 463.3,494.4 474.6,507.6 485.9,507.6 497.2,507.9 508.5,507.9 519.8,507.9 531.1,506.3 542.5,506.4 553.8,506.8 565.1,506.9 576.4,506.8 587.7,507.5 599.0,507.5 610.3,507.5 621.6,507.5 633.0,507.5 644.3,507.5 655.6,507.5 666.9,507.5 678.2,507.5 689.5,507.5 700.8,507.5 712.1,507.5 723.4,507.5 734.8,508.6 746.1,508.6 757.4,508.6 768.7,510.4 780.0,512.1 780.0,650.0 768.7,650.0 757.4,650.0 746.1,650.0 734.8,650.0 723.4,650.0 712.1,650.0 700.8,650.0 689.5,650.0 678.2,650.0 666.9,650.0 655.6,650.0 644.3,650.0 633.0,650.0 621.6,650.0 610.3,650.0 599.0,650.0 587.7,650.0 576.4,650.0 565.1,650.0 553.8,650.0 542.5,650.0 531.1,650.0 519.8,650.0 508.5,650.0 497.2,650.0 485.9,650.0 474.6,650.0 463.3,650.0 452.0,650.0 440.7,650.0 429.3,650.0 418.0,650.0 406.7,650.0 395.4,650.0 384.1,650.0 372.8,650.0 361.5,650.0 350.2,650.0 338.9,650.0 327.5,650.0 316.2,650.0 304.9,650.0 293.6,650.0 282.3,650.0 271.0,650.0 259.7,650.0 248.4,650.0 237.0,650.0 225.7,650.0 214.4,650.0 203.1,650.0 191.8,650.0 180.5,650.0 169.2,650.0 157.9,650.0 146.6,650.0 135.2,650.0 123.9,650.0 112.6,650.0 101.3,650.0 90.0,650.0" fill="#e34c26" opacity="0.6" class="anim" style="animation-delay:500ms;"/>
<polygon points="90.0,650.0 101.3,650.0 112.6,650.0 123.9,650.0 135.2,650.0 146.6,650.0 157.9,650.0 169.2,650.0 180.5,488.4 191.8,488.0 203.1,489.0 214.4,476.0 225.7,476.0 237.0,477.2 248.4,460.1 259.7,460.2 271.0,460.6 282.3,460.6 293.6,460.6 304.9,460.6 316.2,460.6 327.5,473.0 338.9,473.5 350.2,469.5 361.5,469.5 372.8,469.5 384.1,469.7 395.4,469.7 406.7,469.7 418.0,469.7 429.3,469.7 440.7,469.7 452.0,469.7 463.3,469.7 474.6,455.6 485.9,455.6 497.2,455.4 508.5,455.4 519.8,455.4 531.1,454.3 542.5,454.3 553.8,455.0 565.1,455.1 576.4,454.9 587.7,455.9 599.0,455.9 610.3,455.9 621.6,455.9 633.0,455.9 644.3,455.9 655.6,455.9 666.9,455.9 678.2,455.9 689.5,455.9 700.8,455.9 712.1,455.9 723.4,455.9 734.8,455.8 746.1,455.8 757.4,455.8 768.7,452.8 780.0,449.8 780.0,512.1 768.7,510.4 757.4,508.6 746.1,508.6 734.8,508.6 723.4,507.5 712.1,507.5 700.8,507.5 689.5,507.5 678.2,507.5 666.9,507.5 655.6,507.5 644.3,507.5 633.0,507.5 621.6,507.5 610.3,507.5 599.0,507.5 587.7,507.5 576.4,506.8 565.1,506.9 553.8,506.8 542.5,506.4 531.1,506.3 519.8,507.9 508.5,507.9 497.2,507.9 485.9,507.6 474.6,507.6 463.3,494.4 452.0,494.4 440.7,494.4 429.3,494.4 418.0,494.0 406.7,494.0 395.4,491.8 384.1,491.7 372.8,491.0 361.5,491.0 350.2,491.0 338.9,496.7 327.5,496.4 316.2,485.4 304.9,485.4 293.6,485.4 282.3,485.4 271.0,485.4 259.7,485.1 248.4,485.0 237.0,502.9 225.7,499.3 214.4,499.3 203.1,529.7 191.8,528.5 180.5,528.2 169.2,650.0 157.9,650.0 146.6,650.0 135.2,650.0 123.9,650.0 112.6,650.0 101.3,650.0 90.0,650.0" fill="#f1e05a" opacity="0.6" class="anim" style="animation-delay:600ms;"/>
<polygon points="90.0,650.0 101.3,650.0 112.6,650.0 123.9,650.0 135.2,650.0 146.6,650.0 157.9,650.0 169.2,650.0 180.5,455.5 191.8,455.4 203.1,455.1 214.4,447.0 225.7,447.0 237.0,448.2 248.4,438.9 259.7,439.0 271.0,439.6 282.3,439.6 293.6,439.6 304.9,439.6 316.2,439.6 327.5,445.6 338.9,445.6 350.2,443.3 361.5,443.3 372.8,443.3 384.1,443.6 395.4,443.6 406.7,444.1 418.0,444.1 429.3,444.1 440.7,444.1 452.0,444.1 463.3,444.1 474.6,437.5 485.9,437.5 497.2,437.5 508.5,437.5 519.8,437.5 531.1,437.5 542.5,437.5 553.8,438.4 565.1,438.5 576.4,438.3 587.7,439.3 599.0,439.3 610.3,439.3 621.6,439.3 633.0,439.3 644.3,439.3 655.6,439.3 666.9,439.3 678.2,439.3 689.5,439.3 700.8,439.3 712.1,439.3 723.4,439.3 734.8,439.4 746.1,439.4 757.4,439.4 768.7,438.4 780.0,437.4 780.0,449.8 768.7,452.8 757.4,455.8 746.1,455.8 734.8,455.8 723.4,455.9 712.1,455.9 700.8,455.9 689.5,455.9 678.2,455.9 666.9,455.9 655.6,455.9 644.3,455.9 633.0,455.9 621.6,455.9 610.3,455.9 599.0,455.9 587.7,455.9 576.4,454.9 565.1,455.1 553.8,455.0 542.5,454.3 531.1,454.3 519.8,455.4 508.5,455.4 497.2,455.4 485.9,455.6 474.6,455.6 463.3,469.7 452.0,469.7 440.7,469.7 429.3,469.7 418.0,469.7 406.7,469.7 395.4,469.7 384.1,469.7 372.8,469.5 361.5,469.5 350.2,469.5 338.9,473.5 327.5,473.0 316.2,460.6 304.9,460.6 293.6,460.6 282.3,460.6 271.0,460.6 259.7,460.2 248.4,460.1 237.0,477.2 225.7,476.0 214.4,476.0 203.1,489.0 191.8,488.0 180.5,488.4 169.2,650.0 157.9,650.0 146.6,650.0 135.2,650.0 123.9,650.0 112.6,650.0 101.3,650.0 90.0,650.0" fill="#3572A5" opacity="0.6" class="anim" style="animation-delay:700ms;"/>
<polygon points="90.0,650.0 101.3,650.0 112.6,650.0 123.9,650.0 135.2,650.0 146.6,650.0 157.9,650.0 169.2,650.0 180.5,442.3 191.8,442.0 203.1,441.6 214.4,439.5 225.7,439.5 237.0,439.4 248.4,432.3 259.7,432.2 271.0,432.6 282.3,432.6 293.6,432.6 304.9,432.6 316.2,432.6 327.5,439.3 338.9,439.3 350.2,437.4 361.5,437.4 372.8,437.4 384.1,437.3 395.4,437.3 406.7,437.1 418.0,437.1 429.3,437.1 440.7,437.1 452.0,437.1 463.3,437.1 474.6,428.7 485.9,428.6 497.2,428.5 508.5,428.5 519.8,428.5 531.1,427.3 542.5,427.3 553.8,427.1 565.1,427.1 576.4,427.1 587.7,427.0 599.0,427.0 610.3,427.0 621.6,427.0 633.0,427.0 644.3,427.0 655.6,427.0 666.9,427.0 678.2,427.0 689.5,427.0 700.8,427.0 712.1,427.0 723.4,427.0 734.8,427.0 746.1,427.1 757.4,427.1 768.7,425.4 780.0,423.6 780.0,437.4 768.7,438.4 757.4,439.4 746.1,439.4 734.8,439.4 723.4,439.3 712.1,439.3 700.8,439.3 689.5,439.3 678.2,439.3 666.9,439.3 655.6,439.3 644.3,439.3 633.0,439.3 621.6,439.3 610.3,439.3 599.0,439.3 587.7,439.3 576.4,438.3 565.1,438.5 553.8,438.4 542.5,437.5 531.1,437.5 519.8,437.5 508.5,437.5 497.2,437.5 485.9,437.5 474.6,437.5 463.3,444.1 452.0,444.1 440.7,444.1 429.3,444.1 418.0,444.1 406.7,444.1 395.4,443.6 384.1,443.6 372.8,443.3 361.5,443.3 350.2,443.3 338.9,445.6 327.5,445.6 316.2,439.6 304.9,439.6 293.6,439.6 282.3,439.6 271.0,439.6 259.7,439.0 248.4,438.9 237.0,448.2 225.7,447.0 214.4,447.0 203.1,455.1 191.8,455.4 180.5,455.5 169.2,650.0 157.9,650.0 146.6,650.0 135.2,650.0 123.9,650.0 112.6,650.0 101.3,650.0 90.0,650.0" fill="#663399" opacity="0.6" class="anim" style="animation-delay:800ms;"/>
<polygon points="90.0,650.0 101.3,650.0 112.6,650.0 123.9,650.0 135.2,650.0 146.6,650.0 157.9,650.0 169.2,650.0 180.5,436.6 191.8,436.3 203.1,435.9 214.4,432.2 225.7,432.2 237.0,432.2 248.4,426.2 259.7,426.1 271.0,426.0 282.3,426.0 293.6,426.0 304.9,426.0 316.2,426.0 327.5,430.8 338.9,430.7 350.2,429.3 361.5,429.3 372.8,429.3 384.1,429.2 395.4,429.2 406.7,428.9 418.0,428.9 429.3,428.8 440.7,428.8 452.0,428.8 463.3,428.8 474.6,423.0 485.9,422.9 497.2,422.9 508.5,422.9 519.8,422.9 531.1,422.0 542.5,422.0 553.8,421.9 565.1,421.9 576.4,421.9 587.7,421.8 599.0,421.8 610.3,421.8 621.6,421.8 633.0,421.8 644.3,421.8 655.6,421.8 666.9,421.8 678.2,421.8 689.5,421.8 700.8,421.8 712.1,421.8 723.4,421.8 734.8,421.7 746.1,421.8 757.4,421.8 768.7,420.4 780.0,419.0 780.0,423.6 768.7,425.4 757.4,427.1 746.1,427.1 734.8,427.0 723.4,427.0 712.1,427.0 700.8,427.0 689.5,427.0 678.2,427.0 666.9,427.0 655.6,427.0 644.3,427.0 633.0,427.0 621.6,427.0 610.3,427.0 599.0,427.0 587.7,427.0 576.4,427.1 565.1,427.1 553.8,427.1 542.5,427.3 531.1,427.3 519.8,428.5 508.5,428.5 497.2,428.5 485.9,428.6 474.6,428.7 463.3,437.1 452.0,437.1 440.7,437.1 429.3,437.1 418.0,437.1 406.7,437.1 395.4,437.3 384.1,437.3 372.8,437.4 361.5,437.4 350.2,437.4 338.9,439.3 327.5,439.3 316.2,432.6 304.9,432.6 293.6,432.6 282.3,432.6 271.0,432.6 259.7,432.2 248.4,432.3 237.0,439.4 225.7,439.5 214.4,439.5 203.1,441.6 191.8,442.0 180.5,442.3 169.2,650.0 157.9,650.0 146.6,650.0 135.2,650.0 123.9,650.0 112.6,650.0 101.3,650.0 90.0,650.0" fill="#083fa1" opacity="0.6" class="anim" style="animation-delay:900ms;"/>
<polygon points="90.0,650.0 101.3,650.0 112.6,650.0 123.9,650.0 135.2,650.0 146.6,650.0 157.9,650.0 169.2,650.0 180.5,427.0 191.8,426.8 203.1,426.6 214.4,424.2 225.7,424.2 237.0,424.2 248.4,420.4 259.7,420.3 271.0,420.3 282.3,420.3 293.6,420.3 304.9,420.3 316.2,420.3 327.5,423.3 338.9,423.2 350.2,422.4 361.5,422.4 372.8,422.4 384.1,422.3 395.4,422.3 406.7,422.1 418.0,422.1 429.3,422.1 440.7,422.1 452.0,422.1 463.3,422.1 474.6,418.3 485.9,418.3 497.2,418.2 508.5,418.2 519.8,418.2 531.1,417.7 542.5,417.7 553.8,417.6 565.1,417.6 576.4,417.6 587.7,417.6 599.0,417.6 610.3,417.6 621.6,417.6 633.0,417.6 644.3,417.6 655.6,417.6 666.9,417.6 678.2,417.6 689.5,417.6 700.8,417.6 712.1,417.6 723.4,417.6 734.8,417.5 746.1,417.6 757.4,417.6 768.7,416.8 780.0,416.0 780.0,419.0 768.7,420.4 757.4,421.8 746.1,421.8 734.8,421.7 723.4,421.8 712.1,421.8 700.8,421.8 689.5,421.8 678.2,421.8 666.9,421.8 655.6,421.8 644.3,421.8 633.0,421.8 621.6,421.8 610.3,421.8 599.0,421.8 587.7,421.8 576.4,421.9 565.1,421.9 553.8,421.9 542.5,422.0 531.1,422.0 519.8,422.9 508.5,422.9 497.2,422.9 485.9,422.9 474.6,423.0 463.3,428.8 452.0,428.8 440.7,428.8 429.3,428.8 418.0,428.9 406.7,428.9 395.4,429.2 384.1,429.2 372.8,429.3 361.5,429.3 350.2,429.3 338.9,430.7 327.5,430.8 316.2,426.0 304.9,426.0 293.6,426.0 282.3,426.0 271.0,426.0 259.7,426.1 248.4,426.2 237.0,432.2 225.7,432.2 214.4,432.2 203.1,435.9 191.8,436.3 180.5,436.6 169.2,650.0 157.9,650.0 146.6,650.0 135.2,650.0 123.9,650.0 112.6,650.0 101.3,650.0 90.0,650.0" fill="#6E4C13" opacity="0.6" class="anim" style="animation-delay:1000ms;"/>
<polygon points="90.0,650.0 101.3,650.0 112.6,650.0 123.9,650.0 135.2,650.0 146.6,650.0 157.9,650.0 169.2,650.0 180.5,418.7 191.8,418.6 203.1,418.5 214.4,417.3 225.7,417.3 237.0,417.2 248.4,415.3 259.7,415.3 271.0,415.2 282.3,415.2 293.6,415.2 304.9,415.2 316.2,415.2 327.5,416.8 338.9,416.8 350.2,416.3 361.5,416.3 372.8,416.3 384.1,416.3 395.4,416.3 406.7,416.2 418.0,416.2 429.3,416.2 440.7,416.2 452.0,416.2 463.3,416.2 474.6,414.2 485.9,414.2 497.2,414.2 508.5,414.2 519.8,414.2 531.1,413.9 542.5,413.9 553.8,413.9 565.1,413.9 576.4,413.9 587.7,413.9 599.0,413.9 610.3,413.9 621.6,413.9 633.0,413.9 644.3,413.9 655.6,413.9 666.9,413.9 678.2,413.9 689.5,413.9 700.8,413.9 712.1,413.9 723.4,413.9 734.8,413.8 746.1,413.8 757.4,413.8 768.7,413.6 780.0,413.3 780.0,416.0 768.7,416.8 757.4,417.6 746.1,417.6 734.8,417.5 723.4,417.6 712.1,417.6 700.8,417.6 689.5,417.6 678.2,417.6 666.9,417.6 655.6,417.6 644.3,417.6 633.0,417.6 621.6,417.6 610.3,417.6 599.0,417.6 587.7,417.6 576.4,417.6 565.1,417.6 553.8,417.6 542.5,417.7 531.1,417.7 519.8,418.2 508.5,418.2 497.2,418.2 485.9,418.3 474.6,418.3 463.3,422.1 452.0,422.1 440.7,422.1 429.3,422.1 418.0,422.1 406.7,422.1 395.4,422.3 384.1,422.3 372.8,422.4 361.5,422.4 350.2,422.4 338.9,423.2 327.5,423.3 316.2,420.3 304.9,420.3 293.6,420.3 282.3,420.3 271.0,420.3 259.7,420.3 248.4,420.4 237.0,424.2 225.7,424.2 214.4,424.2 203.1,426.6 191.8,426.8 180.5,427.0 169.2,650.0 157.9,650.0 146.6,650.0 135.2,650.0 123.9,650.0 112.6,650.0 101.3,650.0 90.0,650.0" fill="#F05138" opacity="0.6" class="anim" style="animation-delay:1100ms;"/>
<polygon points="90.0,650.0 101.3,650.0 112.6,650.0 123.9,650.0 135.2,650.0 146.6,650.0 157.9,650.0 169.2,650.0 180.5,414.4 191.8,414.4 203.1,414.3 214.4,413.7 225.7,413.7 237.0,413.7 248.4,412.7 259.7,412.7 271.0,412.7 282.3,412.7 293.6,412.7 304.9,412.7 316.2,412.7 327.5,413.5 338.9,413.4 350.2,413.2 361.5,413.2 372.8,413.2 384.1,413.2 395.4,413.2 406.7,413.1 418.0,413.1 429.3,413.1 440.7,413.1 452.0,413.1 463.3,413.1 474.6,412.2 485.9,412.1 497.2,412.1 508.5,412.1 519.8,412.1 531.1,412.0 542.5,412.0 553.8,412.0 565.1,412.0 576.4,412.0 587.7,412.0 599.0,412.0 610.3,412.0 621.6,412.0 633.0,412.0 644.3,412.0 655.6,412.0 666.9,412.0 678.2,412.0 689.5,412.0 700.8,412.0 712.1,412.0 723.4,412.0 734.8,411.9 746.1,411.9 757.4,411.9 768.7,411.9 780.0,411.9 780.0,413.3 768.7,413.6 757.4,413.8 746.1,413.8 734.8,413.8 723.4,413.9 712.1,413.9 700.8,413.9 689.5,413.9 678.2,413.9 666.9,413.9 655.6,413.9 644.3,413.9 633.0,413.9 621.6,413.9 610.3,413.9 599.0,413.9 587.7,413.9 576.4,413.9 565.1,413.9 553.8,413.9 542.5,413.9 531.1,413.9 519.8,414.2 508.5,414.2 497.2,414.2 485.9,414.2 474.6,414.2 463.3,416.2 452.0,416.2 440.7,416.2 429.3,416.2 418.0,416.2 406.7,416.2 395.4,416.3 384.1,416.3 372.8,416.3 361.5,416.3 350.2,416.3 338.9,416.8 327.5,416.8 316.2,415.2 304.9,415.2 293.6,415.2 282.3,415.2 271.0,415.2 259.7,415.3 248.4,415.3 237.0,417.2 225.7,417.3 214.4,417.3 203.1,418.5 191.8,418.6 180.5,418.7 169.2,650.0 157.9,650.0 146.6,650.0 135.2,650.0 123.9,650.0 112.6,650.0 101.3,650.0 90.0,650.0" fill="#b07219" opacity="0.6" class="anim" style="animation-delay:1200ms;"/>
<line x1="757.4" y1="100" x2="757.4" y2="650" stroke="#c9d1d9" stroke-width="1" stroke-dasharray="4,3" opacity="0.35"/>
<text x="768.7" y="112" text-anchor="middle" class="axis-label" opacity="0.6">Jun 21, 2026</text>
<text x="90.0" y="668" text-anchor="middle" class="axis-label" transform="rotate(-35 90.0 668)">2026-02</text>
<text x="406.7" y="668" text-anchor="middle" class="axis-label" transform="rotate(-35 406.7 668)">2026-03</text>
<text x="723.4" y="668" text-anchor="middle" class="axis-label" transform="rotate(-35 723.4 668)">2026-04</text>
<line x1="796" y1="110" x2="824" y2="110" stroke="#3fb950" stroke-width="2"/>
<text x="832" y="116" class="legend-text">Lines Added</text>
<line x1="796" y1="140" x2="824" y2="140" stroke="#f85149" stroke-width="1.5"/>
<text x="832" y="146" class="legend-text">Lines Deleted</text>
<line x1="796" y1="170" x2="824" y2="170" stroke="#e3b341" stroke-width="1.5" stroke-dasharray="4,3"/>
<text x="832" y="176" class="legend-text">&#x2605; Stars</text>
<text x="796" y="200" class="subtitle">Languages</text>
<rect x="796" y="212" width="12" height="12" rx="2" fill="#e34c26" opacity="0.8" class="anim" style="animation-delay:800ms;"/>
<text x="814" y="223" class="legend-text">HTML (59%→57%)</text>
<rect x="796" y="234" width="12" height="12" rx="2" fill="#f1e05a" opacity="0.8" class="anim" style="animation-delay:880ms;"/>
<text x="814" y="245" class="legend-text">JavaScript (22%→26%)</text>
<rect x="796" y="256" width="12" height="12" rx="2" fill="#3572A5" opacity="0.8" class="anim" style="animation-delay:960ms;"/>
<text x="814" y="267" class="legend-text">Python (7%→5%)</text>
<rect x="796" y="278" width="12" height="12" rx="2" fill="#663399" opacity="0.8" class="anim" style="animation-delay:1040ms;"/>
<text x="814" y="289" class="legend-text">CSS (5%→6%)</text>
<rect x="796" y="300" width="12" height="12" rx="2" fill="#083fa1" opacity="0.8" class="anim" style="animation-delay:1120ms;"/>
<text x="814" y="311" class="legend-text">Markdown (2%→2%)</text>
<rect x="796" y="322" width="12" height="12" rx="2" fill="#6E4C13" opacity="0.8" class="anim" style="animation-delay:1200ms;"/>
<text x="814" y="333" class="legend-text">Assembly (2%→1%)</text>
<rect x="796" y="344" width="12" height="12" rx="2" fill="#F05138" opacity="0.8" class="anim" style="animation-delay:1280ms;"/>
<text x="814" y="355" class="legend-text">Swift (2%→1%)</text>
<rect x="796" y="366" width="12" height="12" rx="2" fill="#b07219" opacity="0.8" class="anim" style="animation-delay:1360ms;"/>
<text x="814" y="377" class="legend-text">Java (1%→1%)</text>
<text x="796" y="412" class="subtitle">Contributions</text>
<text x="796" y="432" class="axis-label">2023: 39</text>
<text x="796" y="452" class="axis-label">2024: 646</text>
<text x="796" y="472" class="axis-label">2025: 1,780</text>
<text x="796" y="492" class="axis-label">2026: 479</text>
<text x="796" y="522" class="subtitle">Statistics</text>
<text x="796" y="542" class="axis-label">Active weeks: 86</text>
<text x="796" y="562" class="axis-label">Add/Del ratio: 1.6x</text>
<text x="796" y="582" class="axis-label">Avg lines/wk: 18K</text>
<text x="796" y="602" class="axis-label">Peak: 2026-02-15</text>
<text x="796" y="622" class="axis-label">  (543K lines)</text>
<text x="90" y="742" class="axis-label">Total: +930,187 / -576,375 lines &#xb7; 2,944 contributions &#xb7; 79 repos &#xb7; &#x2605; 37</text>
</svg>