<svg xmlns="http://www.w3.org/2000/svg" width="1000" height="760" style="max-width: 100%;" viewBox="0 0 1000 760">

<defs>
  <linearGradient id="areaGrad" x1="0" y1="0" x2="0" y2="1">
    <stop offset="0%" stop-color="#58a6ff" stop-opacity="0.35"/>
    <stop offset="100%" stop-color="#58a6ff" stop-opacity="0.02"/>
  </linearGradient>
  <linearGradient id="addGrad" x1="0" y1="0" x2="0" y2="1">
    <stop offset="0%" stop-color="#3fb950" stop-opacity="0.35"/>
    <stop offset="100%" stop-color="#3fb950" stop-opacity="0.02"/>
  </linearGradient>
  <linearGradient id="delGrad" x1="0" y1="0" x2="0" y2="1">
    <stop offset="0%" stop-color="#f85149" stop-opacity="0.25"/>
    <stop offset="100%" stop-color="#f85149" stop-opacity="0.02"/>
  </linearGradient>
</defs>
<style>
  .title { font: bold 28px 'Segoe UI', Ubuntu, Sans-Serif; fill: #c9d1d9; }
  .subtitle { font: 600 20px 'Segoe UI', Ubuntu, Sans-Serif; fill: #c9d1d9; opacity: 0.8; }
  .axis-label { font: 18px 'Segoe UI', Ubuntu, Sans-Serif; fill: #c9d1d9; opacity: 0.7; }
  .legend-text { font: 14px 'Segoe UI', Ubuntu, Sans-Serif; fill: #c9d1d9; }
  .value-text { font: bold 18px 'Segoe UI', Ubuntu, Sans-Serif; fill: #c9d1d9; }
  .stat-value { font: bold 22px 'Segoe UI', Ubuntu, Sans-Serif; fill: #c9d1d9; }
  .stat-label { font: 18px 'Segoe UI', Ubuntu, Sans-Serif; fill: #c9d1d9; opacity: 0.7; }
  @keyframes fadeIn { from { opacity: 0; } to { opacity: 1; } }
  .anim { animation: fadeIn 0.6s ease-in-out forwards; opacity: 0; }
</style>

<rect x="0.5" y="0.5" rx="4.5" width="999" height="759" fill="#161b22" stroke="#21262d"/>
<text x="90" y="45" class="title">Activity History</text>
<text x="90" y="72" class="subtitle">Lines added vs deleted &amp; activity trends over time</text>
<line x1="90" y1="340.0" x2="780" y2="340.0" stroke="#21262d" stroke-width="1"/>
<text x="82" y="344.0" text-anchor="end" class="axis-label">0</text>
<line x1="90" y1="280.0" x2="780" y2="280.0" stroke="#21262d" stroke-width="1"/>
<text x="82" y="284.0" text-anchor="end" class="axis-label">657K</text>
<line x1="90" y1="220.0" x2="780" y2="220.0" stroke="#21262d" stroke-width="1"/>
<text x="82" y="224.0" text-anchor="end" class="axis-label">1.3M</text>
<line x1="90" y1="160.0" x2="780" y2="160.0" stroke="#21262d" stroke-width="1"/>
<text x="82" y="164.0" text-anchor="end" class="axis-label">2.0M</text>
<line x1="90" y1="100.0" x2="780" y2="100.0" stroke="#21262d" stroke-width="1"/>
<text x="82" y="104.0" text-anchor="end" class="axis-label">2.6M</text>
<polygon points="90.0,340.0 90.0,306.6 110.3,307.9 130.6,306.7 150.9,307.9 171.2,315.5 191.5,300.3 211.8,300.3 232.1,294.5 252.4,294.3 272.6,293.9 292.9,293.9 313.2,283.6 333.5,283.6 353.8,283.6 374.1,268.3 394.4,268.2 414.7,268.0 435.0,268.0 455.3,268.0 475.6,268.0 495.9,268.0 516.2,267.6 536.5,257.4 556.8,257.4 577.1,257.4 597.4,257.4 617.6,257.1 637.9,257.1 658.2,256.7 678.5,256.7 698.8,256.7 719.1,256.7 739.4,256.7 759.7,229.3 780.0,202.0 780.0,340.0" fill="url(#addGrad)" class="anim" style="animation-delay:200ms;"/>
<polyline points="90.0,306.6 110.3,307.9 130.6,306.7 150.9,307.9 171.2,315.5 191.5,300.3 211.8,300.3 232.1,294.5 252.4,294.3 272.6,293.9 292.9,293.9 313.2,283.6 333.5,283.6 353.8,283.6 374.1,268.3 394.4,268.2 414.7,268.0 435.0,268.0 455.3,268.0 475.6,268.0 495.9,268.0 516.2,267.6 536.5,257.4 556.8,257.4 577.1,257.4 597.4,257.4 617.6,257.1 637.9,257.1 658.2,256.7 678.5,256.7 698.8,256.7 719.1,256.7 739.4,256.7" fill="none" stroke="#3fb950" stroke-width="2" stroke-linejoin="round" class="anim" style="animation-delay:250ms;"/>
<polyline points="739.4,256.7 759.7,229.3 780.0,202.0" fill="none" stroke="#3fb950" stroke-width="1.5" stroke-dasharray="5,4" stroke-linejoin="round" opacity="0.6" class="anim" style="animation-delay:250ms;"/>
<polygon points="90.0,340.0 90.0,330.6 110.3,331.6 130.6,330.6 150.9,331.6 171.2,335.6 191.5,329.5 211.8,329.5 232.1,328.8 252.4,328.6 272.6,328.4 292.9,328.4 313.2,317.3 333.5,317.3 353.8,317.3 374.1,304.8 394.4,304.7 414.7,304.7 435.0,304.7 455.3,304.7 475.6,304.7 495.9,304.7 516.2,298.1 536.5,288.1 556.8,288.1 577.1,288.1 597.4,288.1 617.6,288.0 637.9,288.0 658.2,288.0 678.5,288.0 698.8,288.0 719.1,288.0 739.4,288.0 759.7,263.0 780.0,238.0 780.0,340.0" fill="url(#delGrad)" class="anim" style="animation-delay:300ms;"/>
<polyline points="90.0,330.6 110.3,331.6 130.6,330.6 150.9,331.6 171.2,335.6 191.5,329.5 211.8,329.5 232.1,328.8 252.4,328.6 272.6,328.4 292.9,328.4 313.2,317.3 333.5,317.3 353.8,317.3 374.1,304.8 394.4,304.7 414.7,304.7 435.0,304.7 455.3,304.7 475.6,304.7 495.9,304.7 516.2,298.1 536.5,288.1 556.8,288.1 577.1,288.1 597.4,288.1 617.6,288.0 637.9,288.0 658.2,288.0 678.5,288.0 698.8,288.0 719.1,288.0 739.4,288.0" fill="none" stroke="#f85149" stroke-width="1.5" stroke-linejoin="round" class="anim" style="animation-delay:350ms;"/>
<polyline points="739.4,288.0 759.7,263.0 780.0,238.0" fill="none" stroke="#f85149" stroke-width="1" stroke-dasharray="5,4" stroke-linejoin="round" opacity="0.6" class="anim" style="animation-delay:350ms;"/>
<polyline points="90.0,340.0 110.3,340.0 130.6,340.0 150.9,340.0 171.2,340.0 191.5,340.0 211.8,340.0 232.1,340.0 252.4,148.0 272.6,148.0 292.9,148.0 313.2,148.0 333.5,148.0 353.8,148.0 374.1,148.0 394.4,148.0 414.7,148.0 435.0,148.0 455.3,148.0 475.6,148.0 495.9,148.0 516.2,148.0 536.5,148.0 556.8,148.0 577.1,148.0 597.4,148.0 617.6,148.0 637.9,148.0 658.2,148.0 678.5,148.0 698.8,148.0 719.1,148.0 739.4,148.0" fill="none" stroke="#e3b341" stroke-width="1.5" stroke-dasharray="4,3" stroke-linejoin="round" class="anim" style="animation-delay:400ms;"/>
<polyline points="739.4,148.0 759.7,148.0 780.0,148.0" fill="none" stroke="#e3b341" stroke-width="1" stroke-dasharray="3,5" stroke-linejoin="round" opacity="0.5" class="anim" style="animation-delay:400ms;"/>
<text x="90" y="90" class="subtitle">Lines Added vs Deleted (per snapshot)</text>
<text x="90" y="400" class="subtitle">Programming Language Development (%)</text>
<line x1="90" y1="650.0" x2="780" y2="650.0" stroke="#21262d" stroke-width="1"/>
<text x="82" y="654.0" text-anchor="end" class="axis-label">0%</text>
<line x1="90" y1="590.0" x2="780" y2="590.0" stroke="#21262d" stroke-width="1"/>
<text x="82" y="594.0" text-anchor="end" class="axis-label">25%</text>
<line x1="90" y1="530.0" x2="780" y2="530.0" stroke="#21262d" stroke-width="1"/>
<text x="82" y="534.0" text-anchor="end" class="axis-label">50%</text>
<line x1="90" y1="470.0" x2="780" y2="470.0" stroke="#21262d" stroke-width="1"/>
<text x="82" y="474.0" text-anchor="end" class="axis-label">75%</text>
<line x1="90" y1="410.0" x2="780" y2="410.0" stroke="#21262d" stroke-width="1"/>
<text x="82" y="414.0" text-anchor="end" class="axis-label">100%</text>
<polygon points="90.0,650.0 110.3,650.0 130.6,650.0 150.9,650.0 171.2,650.0 191.5,650.0 211.8,650.0 232.1,650.0 252.4,528.2 272.6,528.5 292.9,529.7 313.2,499.3 333.5,499.3 353.8,502.9 374.1,485.0 394.4,485.1 414.7,485.4 435.0,485.4 455.3,485.4 475.6,485.4 495.9,485.4 516.2,496.4 536.5,496.7 556.8,491.0 577.1,491.0 597.4,491.0 617.6,491.7 637.9,491.8 658.2,494.0 678.5,494.0 698.8,494.4 719.1,494.4 739.4,494.4 759.7,482.2 780.0,470.1 780.0,650.0 759.7,650.0 739.4,650.0 719.1,650.0 698.8,650.0 678.5,650.0 658.2,650.0 637.9,650.0 617.6,650.0 597.4,650.0 577.1,650.0 556.8,650.0 536.5,650.0 516.2,650.0 495.9,650.0 475.6,650.0 455.3,650.0 435.0,650.0 414.7,650.0 394.4,650.0 374.1,650.0 353.8,650.0 333.5,650.0 313.2,650.0 292.9,650.0 272.6,650.0 252.4,650.0 232.1,650.0 211.8,650.0 191.5,650.0 171.2,650.0 150.9,650.0 130.6,650.0 110.3,650.0 90.0,650.0" fill="#e34c26" opacity="0.6" class="anim" style="animation-delay:500ms;"/>
<polygon points="90.0,650.0 110.3,650.0 130.6,650.0 150.9,650.0 171.2,650.0 191.5,650.0 211.8,650.0 232.1,650.0 252.4,495.2 272.6,495.9 292.9,495.9 313.2,470.2 333.5,470.2 353.8,473.9 374.1,463.8 394.4,463.9 414.7,464.3 435.0,464.3 455.3,464.3 475.6,464.3 495.9,464.3 516.2,469.0 536.5,468.8 556.8,464.8 577.1,464.8 597.4,464.8 617.6,465.7 637.9,465.7 658.2,468.4 678.5,468.4 698.8,468.8 719.1,468.8 739.4,468.8 759.7,459.0 780.0,449.2 780.0,470.1 759.7,482.2 739.4,494.4 719.1,494.4 698.8,494.4 678.5,494.0 658.2,494.0 637.9,491.8 617.6,491.7 597.4,491.0 577.1,491.0 556.8,491.0 536.5,496.7 516.2,496.4 495.9,485.4 475.6,485.4 455.3,485.4 435.0,485.4 414.7,485.4 394.4,485.1 374.1,485.0 353.8,502.9 333.5,499.3 313.2,499.3 292.9,529.7 272.6,528.5 252.4,528.2 232.1,650.0 211.8,650.0 191.5,650.0 171.2,650.0 150.9,650.0 130.6,650.0 110.3,650.0 90.0,650.0" fill="#3572A5" opacity="0.6" class="anim" style="animation-delay:600ms;"/>
<polygon points="90.0,650.0 110.3,650.0 130.6,650.0 150.9,650.0 171.2,650.0 191.5,650.0 211.8,650.0 232.1,650.0 252.4,455.5 272.6,455.4 292.9,455.1 313.2,447.0 333.5,447.0 353.8,448.2 374.1,438.9 394.4,439.0 414.7,439.6 435.0,439.6 455.3,439.6 475.6,439.6 495.9,439.6 516.2,445.6 536.5,445.6 556.8,443.3 577.1,443.3 597.4,443.3 617.6,443.6 637.9,443.6 658.2,444.1 678.5,444.1 698.8,444.1 719.1,444.1 739.4,444.1 759.7,440.7 780.0,437.2 780.0,449.2 759.7,459.0 739.4,468.8 719.1,468.8 698.8,468.8 678.5,468.4 658.2,468.4 637.9,465.7 617.6,465.7 597.4,464.8 577.1,464.8 556.8,464.8 536.5,468.8 516.2,469.0 495.9,464.3 475.6,464.3 455.3,464.3 435.0,464.3 414.7,464.3 394.4,463.9 374.1,463.8 353.8,473.9 333.5,470.2 313.2,470.2 292.9,495.9 272.6,495.9 252.4,495.2 232.1,650.0 211.8,650.0 191.5,650.0 171.2,650.0 150.9,650.0 130.6,650.0 110.3,650.0 90.0,650.0" fill="#f1e05a" opacity="0.6" class="anim" style="animation-delay:700ms;"/>
<polygon points="90.0,650.0 110.3,650.0 130.6,650.0 150.9,650.0 171.2,650.0 191.5,650.0 211.8,650.0 232.1,650.0 252.4,442.3 272.6,442.0 292.9,441.6 313.2,439.5 333.5,439.5 353.8,439.4 374.1,432.3 394.4,432.2 414.7,432.6 435.0,432.6 455.3,432.6 475.6,432.6 495.9,432.6 516.2,439.3 536.5,439.3 556.8,437.4 577.1,437.4 597.4,437.4 617.6,437.3 637.9,437.3 658.2,437.1 678.5,437.1 698.8,437.1 719.1,437.1 739.4,437.1 759.7,436.3 780.0,435.6 780.0,437.2 759.7,440.7 739.4,444.1 719.1,444.1 698.8,444.1 678.5,444.1 658.2,444.1 637.9,443.6 617.6,443.6 597.4,443.3 577.1,443.3 556.8,443.3 536.5,445.6 516.2,445.6 495.9,439.6 475.6,439.6 455.3,439.6 435.0,439.6 414.7,439.6 394.4,439.0 374.1,438.9 353.8,448.2 333.5,447.0 313.2,447.0 292.9,455.1 272.6,455.4 252.4,455.5 232.1,650.0 211.8,650.0 191.5,650.0 171.2,650.0 150.9,650.0 130.6,650.0 110.3,650.0 90.0,650.0" fill="#663399" opacity="0.6" class="anim" style="animation-delay:800ms;"/>
<polygon points="90.0,650.0 110.3,650.0 130.6,650.0 150.9,650.0 171.2,650.0 191.5,650.0 211.8,650.0 232.1,650.0 252.4,436.6 272.6,436.3 292.9,435.9 313.2,432.2 333.5,432.2 353.8,432.2 374.1,426.2 394.4,426.1 414.7,426.0 435.0,426.0 455.3,426.0 475.6,426.0 495.9,426.0 516.2,430.8 536.5,430.7 556.8,429.3 577.1,429.3 597.4,429.3 617.6,429.2 637.9,429.2 658.2,428.9 678.5,428.9 698.8,428.8 719.1,428.8 739.4,428.8 759.7,426.5 780.0,424.3 780.0,435.6 759.7,436.3 739.4,437.1 719.1,437.1 698.8,437.1 678.5,437.1 658.2,437.1 637.9,437.3 617.6,437.3 597.4,437.4 577.1,437.4 556.8,437.4 536.5,439.3 516.2,439.3 495.9,432.6 475.6,432.6 455.3,432.6 435.0,432.6 414.7,432.6 394.4,432.2 374.1,432.3 353.8,439.4 333.5,439.5 313.2,439.5 292.9,441.6 272.6,442.0 252.4,442.3 232.1,650.0 211.8,650.0 191.5,650.0 171.2,650.0 150.9,650.0 130.6,650.0 110.3,650.0 90.0,650.0" fill="#083fa1" opacity="0.6" class="anim" style="animation-delay:900ms;"/>
<polygon points="90.0,650.0 110.3,650.0 130.6,650.0 150.9,650.0 171.2,650.0 191.5,650.0 211.8,650.0 232.1,650.0 252.4,427.0 272.6,426.8 292.9,426.6 313.2,424.2 333.5,424.2 353.8,424.2 374.1,420.4 394.4,420.3 414.7,420.3 435.0,420.3 455.3,420.3 475.6,420.3 495.9,420.3 516.2,423.3 536.5,423.2 556.8,422.4 577.1,422.4 597.4,422.4 617.6,422.3 637.9,422.3 658.2,422.1 678.5,422.1 698.8,422.1 719.1,422.1 739.4,422.1 759.7,420.8 780.0,419.5 780.0,424.3 759.7,426.5 739.4,428.8 719.1,428.8 698.8,428.8 678.5,428.9 658.2,428.9 637.9,429.2 617.6,429.2 597.4,429.3 577.1,429.3 556.8,429.3 536.5,430.7 516.2,430.8 495.9,426.0 475.6,426.0 455.3,426.0 435.0,426.0 414.7,426.0 394.4,426.1 374.1,426.2 353.8,432.2 333.5,432.2 313.2,432.2 292.9,435.9 272.6,436.3 252.4,436.6 232.1,650.0 211.8,650.0 191.5,650.0 171.2,650.0 150.9,650.0 130.6,650.0 110.3,650.0 90.0,650.0" fill="#6E4C13" opacity="0.6" class="anim" style="animation-delay:1000ms;"/>
<polygon points="90.0,650.0 110.3,650.0 130.6,650.0 150.9,650.0 171.2,650.0 191.5,650.0 211.8,650.0 232.1,650.0 252.4,418.7 272.6,418.6 292.9,418.5 313.2,417.3 333.5,417.3 353.8,417.2 374.1,415.3 394.4,415.3 414.7,415.2 435.0,415.2 455.3,415.2 475.6,415.2 495.9,415.2 516.2,416.8 536.5,416.8 556.8,416.3 577.1,416.3 597.4,416.3 617.6,416.3 637.9,416.3 658.2,416.2 678.5,416.2 698.8,416.2 719.1,416.2 739.4,416.2 759.7,415.7 780.0,415.3 780.0,419.5 759.7,420.8 739.4,422.1 719.1,422.1 698.8,422.1 678.5,422.1 658.2,422.1 637.9,422.3 617.6,422.3 597.4,422.4 577.1,422.4 556.8,422.4 536.5,423.2 516.2,423.3 495.9,420.3 475.6,420.3 455.3,420.3 435.0,420.3 414.7,420.3 394.4,420.3 374.1,420.4 353.8,424.2 333.5,424.2 313.2,424.2 292.9,426.6 272.6,426.8 252.4,427.0 232.1,650.0 211.8,650.0 191.5,650.0 171.2,650.0 150.9,650.0 130.6,650.0 110.3,650.0 90.0,650.0" fill="#F05138" opacity="0.6" class="anim" style="animation-delay:1100ms;"/>
<polygon points="90.0,650.0 110.3,650.0 130.6,650.0 150.9,650.0 171.2,650.0 191.5,650.0 211.8,650.0 232.1,650.0 252.4,414.4 272.6,414.4 292.9,414.3 313.2,413.7 333.5,413.7 353.8,413.7 374.1,412.7 394.4,412.7 414.7,412.7 435.0,412.7 455.3,412.7 475.6,412.7 495.9,412.7 516.2,413.5 536.5,413.4 556.8,413.2 577.1,413.2 597.4,413.2 617.6,413.2 637.9,413.2 658.2,413.1 678.5,413.1 698.8,413.1 719.1,413.1 739.4,413.1 759.7,413.1 780.0,413.1 780.0,415.3 759.7,415.7 739.4,416.2 719.1,416.2 698.8,416.2 678.5,416.2 658.2,416.2 637.9,416.3 617.6,416.3 597.4,416.3 577.1,416.3 556.8,416.3 536.5,416.8 516.2,416.8 495.9,415.2 475.6,415.2 455.3,415.2 435.0,415.2 414.7,415.2 394.4,415.3 374.1,415.3 353.8,417.2 333.5,417.3 313.2,417.3 292.9,418.5 272.6,418.6 252.4,418.7 232.1,650.0 211.8,650.0 191.5,650.0 171.2,650.0 150.9,650.0 130.6,650.0 110.3,650.0 90.0,650.0" fill="#b07219" opacity="0.6" class="anim" style="animation-delay:1200ms;"/>
<line x1="739.4" y1="100" x2="739.4" y2="650" stroke="#c9d1d9" stroke-width="1" stroke-dasharray="4,3" opacity="0.35"/>
<text x="759.7" y="112" text-anchor="middle" class="axis-label" opacity="0.6">Mar 24, 2026</text>
<text x="90.0" y="668" text-anchor="middle" class="axis-label" transform="rotate(-35 90.0 668)">2026-02</text>
<text x="577.1" y="668" text-anchor="middle" class="axis-label" transform="rotate(-35 577.1 668)">2026-03</text>
<text x="759.7" y="668" text-anchor="middle" class="axis-label" transform="rotate(-35 759.7 668)">Mar 24, 2026</text>
<line x1="796" y1="110" x2="824" y2="110" stroke="#3fb950" stroke-width="2"/>
<text x="832" y="116" class="legend-text">Lines Added</text>
<line x1="796" y1="140" x2="824" y2="140" stroke="#f85149" stroke-width="1.5"/>
<text x="832" y="146" class="legend-text">Lines Deleted</text>
<line x1="796" y1="170" x2="824" y2="170" stroke="#e3b341" stroke-width="1.5" stroke-dasharray="4,3"/>
<text x="832" y="176" class="legend-text">&#x2605; Stars</text>
<text x="796" y="200" class="subtitle">Languages</text>
<rect x="796" y="212" width="12" height="12" rx="2" fill="#e34c26" opacity="0.8" class="anim" style="animation-delay:800ms;"/>
<text x="814" y="223" class="legend-text">HTML (65%→75%)</text>
<rect x="796" y="234" width="12" height="12" rx="2" fill="#3572A5" opacity="0.8" class="anim" style="animation-delay:880ms;"/>
<text x="814" y="245" class="legend-text">Python (11%→9%)</text>
<rect x="796" y="256" width="12" height="12" rx="2" fill="#f1e05a" opacity="0.8" class="anim" style="animation-delay:960ms;"/>
<text x="814" y="267" class="legend-text">JavaScript (10%→5%)</text>
<rect x="796" y="278" width="12" height="12" rx="2" fill="#663399" opacity="0.8" class="anim" style="animation-delay:1040ms;"/>
<text x="814" y="289" class="legend-text">CSS (3%→1%)</text>
<rect x="796" y="300" width="12" height="12" rx="2" fill="#083fa1" opacity="0.8" class="anim" style="animation-delay:1120ms;"/>
<text x="814" y="311" class="legend-text">Markdown (3%→5%)</text>
<rect x="796" y="322" width="12" height="12" rx="2" fill="#6E4C13" opacity="0.8" class="anim" style="animation-delay:1200ms;"/>
<text x="814" y="333" class="legend-text">Assembly (3%→2%)</text>
<rect x="796" y="344" width="12" height="12" rx="2" fill="#F05138" opacity="0.8" class="anim" style="animation-delay:1280ms;"/>
<text x="814" y="355" class="legend-text">Swift (2%→2%)</text>
<rect x="796" y="366" width="12" height="12" rx="2" fill="#b07219" opacity="0.8" class="anim" style="animation-delay:1360ms;"/>
<text x="814" y="377" class="legend-text">Java (1%→1%)</text>
<text x="796" y="412" class="subtitle">Contributions</text>
<text x="796" y="432" class="axis-label">2023: 39</text>
<text x="796" y="452" class="axis-label">2024: 646</text>
<text x="796" y="472" class="axis-label">2025: 1,780</text>
<text x="796" y="492" class="axis-label">2026: 358</text>
<text x="796" y="522" class="subtitle">Statistics</text>
<text x="796" y="542" class="axis-label">Active weeks: 78</text>
<text x="796" y="562" class="axis-label">Add/Del ratio: 1.6x</text>
<text x="796" y="582" class="axis-label">Avg lines/wk: 19K</text>
<text x="796" y="602" class="axis-label">Peak: 2026-02-15</text>
<text x="796" y="622" class="axis-label">  (543K lines)</text>
<text x="90" y="742" class="axis-label">Total: +911,975 / -569,547 lines &#xb7; 2,823 contributions &#xb7; 74 repos &#xb7; &#x2605; 33</text>
</svg>