<svg xmlns="http://www.w3.org/2000/svg" width="1000" height="760" style="max-width: 100%;" viewBox="0 0 1000 760">

<defs>
  <linearGradient id="areaGrad" x1="0" y1="0" x2="0" y2="1">
    <stop offset="0%" stop-color="#58a6ff" stop-opacity="0.35"/>
    <stop offset="100%" stop-color="#58a6ff" stop-opacity="0.02"/>
  </linearGradient>
  <linearGradient id="addGrad" x1="0" y1="0" x2="0" y2="1">
    <stop offset="0%" stop-color="#3fb950" stop-opacity="0.35"/>
    <stop offset="100%" stop-color="#3fb950" stop-opacity="0.02"/>
  </linearGradient>
  <linearGradient id="delGrad" x1="0" y1="0" x2="0" y2="1">
    <stop offset="0%" stop-color="#f85149" stop-opacity="0.25"/>
    <stop offset="100%" stop-color="#f85149" stop-opacity="0.02"/>
  </linearGradient>
</defs>
<style>
  .title { font: bold 28px 'Segoe UI', Ubuntu, Sans-Serif; fill: #c9d1d9; }
  .subtitle { font: 600 20px 'Segoe UI', Ubuntu, Sans-Serif; fill: #c9d1d9; opacity: 0.8; }
  .axis-label { font: 18px 'Segoe UI', Ubuntu, Sans-Serif; fill: #c9d1d9; opacity: 0.7; }
  .legend-text { font: 14px 'Segoe UI', Ubuntu, Sans-Serif; fill: #c9d1d9; }
  .value-text { font: bold 18px 'Segoe UI', Ubuntu, Sans-Serif; fill: #c9d1d9; }
  .stat-value { font: bold 22px 'Segoe UI', Ubuntu, Sans-Serif; fill: #c9d1d9; }
  .stat-label { font: 18px 'Segoe UI', Ubuntu, Sans-Serif; fill: #c9d1d9; opacity: 0.7; }
  @keyframes fadeIn { from { opacity: 0; } to { opacity: 1; } }
  .anim { animation: fadeIn 0.6s ease-in-out forwards; opacity: 0; }
</style>

<rect x="0.5" y="0.5" rx="4.5" width="999" height="759" fill="#161b22" stroke="#21262d"/>
<text x="90" y="45" class="title">Activity History</text>
<text x="90" y="72" class="subtitle">Lines added vs deleted &amp; activity trends over time</text>
<line x1="90" y1="340.0" x2="780" y2="340.0" stroke="#21262d" stroke-width="1"/>
<text x="82" y="344.0" text-anchor="end" class="axis-label">0</text>
<line x1="90" y1="280.0" x2="780" y2="280.0" stroke="#21262d" stroke-width="1"/>
<text x="82" y="284.0" text-anchor="end" class="axis-label">460K</text>
<line x1="90" y1="220.0" x2="780" y2="220.0" stroke="#21262d" stroke-width="1"/>
<text x="82" y="224.0" text-anchor="end" class="axis-label">920K</text>
<line x1="90" y1="160.0" x2="780" y2="160.0" stroke="#21262d" stroke-width="1"/>
<text x="82" y="164.0" text-anchor="end" class="axis-label">1.4M</text>
<line x1="90" y1="100.0" x2="780" y2="100.0" stroke="#21262d" stroke-width="1"/>
<text x="82" y="104.0" text-anchor="end" class="axis-label">1.8M</text>
<polygon points="90.0,340.0 90.0,292.4 99.7,294.1 109.4,292.4 119.2,294.1 128.9,305.1 138.6,283.3 148.3,283.3 158.0,275.0 167.7,274.7 177.5,274.2 187.2,274.2 196.9,259.5 206.6,259.5 216.3,259.5 226.1,237.7 235.8,237.5 245.5,237.2 255.2,237.2 264.9,237.2 274.6,237.2 284.4,237.2 294.1,236.7 303.8,222.1 313.5,222.1 323.2,222.1 333.0,222.1 342.7,221.8 352.4,221.8 362.1,221.1 371.8,221.1 381.5,221.1 391.3,221.1 401.0,221.1 410.7,221.1 420.4,221.1 430.1,221.1 439.9,221.1 449.6,221.1 459.3,221.1 469.0,221.1 478.7,221.1 488.5,220.4 498.2,220.7 507.9,220.0 517.6,219.7 527.3,219.7 537.0,219.7 546.8,219.7 556.5,219.7 566.2,219.7 575.9,219.7 585.6,219.7 595.4,219.7 605.1,219.7 614.8,220.0 624.5,221.4 634.2,220.0 643.9,218.8 653.7,218.7 663.4,218.7 673.1,218.7 682.8,218.7 692.5,211.2 702.3,204.4 712.0,204.4 721.7,204.4 731.4,204.4 741.1,204.4 750.8,204.4 760.6,204.4 770.3,196.5 780.0,188.7 780.0,340.0" fill="url(#addGrad)" class="anim" style="animation-delay:200ms;"/>
<polyline points="90.0,292.4 99.7,294.1 109.4,292.4 119.2,294.1 128.9,305.1 138.6,283.3 148.3,283.3 158.0,275.0 167.7,274.7 177.5,274.2 187.2,274.2 196.9,259.5 206.6,259.5 216.3,259.5 226.1,237.7 235.8,237.5 245.5,237.2 255.2,237.2 264.9,237.2 274.6,237.2 284.4,237.2 294.1,236.7 303.8,222.1 313.5,222.1 323.2,222.1 333.0,222.1 342.7,221.8 352.4,221.8 362.1,221.1 371.8,221.1 381.5,221.1 391.3,221.1 401.0,221.1 410.7,221.1 420.4,221.1 430.1,221.1 439.9,221.1 449.6,221.1 459.3,221.1 469.0,221.1 478.7,221.1 488.5,220.4 498.2,220.7 507.9,220.0 517.6,219.7 527.3,219.7 537.0,219.7 546.8,219.7 556.5,219.7 566.2,219.7 575.9,219.7 585.6,219.7 595.4,219.7 605.1,219.7 614.8,220.0 624.5,221.4 634.2,220.0 643.9,218.8 653.7,218.7 663.4,218.7 673.1,218.7 682.8,218.7 692.5,211.2 702.3,204.4 712.0,204.4 721.7,204.4 731.4,204.4 741.1,204.4 750.8,204.4 760.6,204.4" fill="none" stroke="#3fb950" stroke-width="2" stroke-linejoin="round" class="anim" style="animation-delay:250ms;"/>
<polyline points="760.6,204.4 770.3,196.5 780.0,188.7" fill="none" stroke="#3fb950" stroke-width="1.5" stroke-dasharray="5,4" stroke-linejoin="round" opacity="0.6" class="anim" style="animation-delay:250ms;"/>
<polygon points="90.0,340.0 90.0,326.6 99.7,328.0 109.4,326.6 119.2,328.0 128.9,333.7 138.6,325.0 148.3,325.0 158.0,324.0 167.7,323.7 177.5,323.4 187.2,323.4 196.9,307.6 206.6,307.6 216.3,307.6 226.1,289.7 235.8,289.6 245.5,289.6 255.2,289.6 264.9,289.6 274.6,289.6 284.4,289.6 294.1,280.2 303.8,266.0 313.5,265.9 323.2,265.9 333.0,265.9 342.7,265.8 352.4,265.8 362.1,265.8 371.8,265.7 381.5,265.7 391.3,265.7 401.0,265.7 410.7,265.7 420.4,265.8 430.1,265.7 439.9,265.7 449.6,265.7 459.3,265.7 469.0,265.7 478.7,265.7 488.5,265.7 498.2,265.8 507.9,265.3 517.6,265.3 527.3,265.3 537.0,265.3 546.8,265.3 556.5,265.3 566.2,265.3 575.9,265.3 585.6,265.3 595.4,265.3 605.1,265.3 614.8,265.4 624.5,266.2 634.2,265.7 643.9,264.9 653.7,264.8 663.4,264.8 673.1,264.8 682.8,264.8 692.5,264.8 702.3,264.8 712.0,264.8 721.7,264.8 731.4,264.8 741.1,264.8 750.8,264.8 760.6,264.8 770.3,258.1 780.0,251.3 780.0,340.0" fill="url(#delGrad)" class="anim" style="animation-delay:300ms;"/>
<polyline points="90.0,326.6 99.7,328.0 109.4,326.6 119.2,328.0 128.9,333.7 138.6,325.0 148.3,325.0 158.0,324.0 167.7,323.7 177.5,323.4 187.2,323.4 196.9,307.6 206.6,307.6 216.3,307.6 226.1,289.7 235.8,289.6 245.5,289.6 255.2,289.6 264.9,289.6 274.6,289.6 284.4,289.6 294.1,280.2 303.8,266.0 313.5,265.9 323.2,265.9 333.0,265.9 342.7,265.8 352.4,265.8 362.1,265.8 371.8,265.7 381.5,265.7 391.3,265.7 401.0,265.7 410.7,265.7 420.4,265.8 430.1,265.7 439.9,265.7 449.6,265.7 459.3,265.7 469.0,265.7 478.7,265.7 488.5,265.7 498.2,265.8 507.9,265.3 517.6,265.3 527.3,265.3 537.0,265.3 546.8,265.3 556.5,265.3 566.2,265.3 575.9,265.3 585.6,265.3 595.4,265.3 605.1,265.3 614.8,265.4 624.5,266.2 634.2,265.7 643.9,264.9 653.7,264.8 663.4,264.8 673.1,264.8 682.8,264.8 692.5,264.8 702.3,264.8 712.0,264.8 721.7,264.8 731.4,264.8 741.1,264.8 750.8,264.8 760.6,264.8" fill="none" stroke="#f85149" stroke-width="1.5" stroke-linejoin="round" class="anim" style="animation-delay:350ms;"/>
<polyline points="760.6,264.8 770.3,258.1 780.0,251.3" fill="none" stroke="#f85149" stroke-width="1" stroke-dasharray="5,4" stroke-linejoin="round" opacity="0.6" class="anim" style="animation-delay:350ms;"/>
<polyline points="90.0,340.0 99.7,340.0 109.4,340.0 119.2,340.0 128.9,340.0 138.6,340.0 148.3,340.0 158.0,340.0 167.7,308.0 177.5,308.0 187.2,308.0 196.9,308.0 206.6,308.0 216.3,308.0 226.1,308.0 235.8,308.0 245.5,308.0 255.2,308.0 264.9,308.0 274.6,308.0 284.4,308.0 294.1,308.0 303.8,308.0 313.5,308.0 323.2,308.0 333.0,308.0 342.7,308.0 352.4,308.0 362.1,308.0 371.8,308.0 381.5,308.0 391.3,308.0 401.0,308.0 410.7,308.0 420.4,276.0 430.1,276.0 439.9,276.0 449.6,276.0 459.3,276.0 469.0,276.0 478.7,276.0 488.5,276.0 498.2,244.0 507.9,244.0 517.6,244.0 527.3,244.0 537.0,244.0 546.8,244.0 556.5,244.0 566.2,244.0 575.9,244.0 585.6,244.0 595.4,244.0 605.1,244.0 614.8,244.0 624.5,244.0 634.2,244.0 643.9,244.0 653.7,180.0 663.4,180.0 673.1,180.0 682.8,180.0 692.5,180.0 702.3,180.0 712.0,180.0 721.7,180.0 731.4,180.0 741.1,180.0 750.8,180.0 760.6,180.0" fill="none" stroke="#e3b341" stroke-width="1.5" stroke-dasharray="4,3" stroke-linejoin="round" class="anim" style="animation-delay:400ms;"/>
<polyline points="760.6,180.0 770.3,180.0 780.0,148.0" fill="none" stroke="#e3b341" stroke-width="1" stroke-dasharray="3,5" stroke-linejoin="round" opacity="0.5" class="anim" style="animation-delay:400ms;"/>
<text x="90" y="90" class="subtitle">Lines Added vs Deleted (per snapshot)</text>
<text x="90" y="400" class="subtitle">Programming Language Development (%)</text>
<line x1="90" y1="650.0" x2="780" y2="650.0" stroke="#21262d" stroke-width="1"/>
<text x="82" y="654.0" text-anchor="end" class="axis-label">0%</text>
<line x1="90" y1="590.0" x2="780" y2="590.0" stroke="#21262d" stroke-width="1"/>
<text x="82" y="594.0" text-anchor="end" class="axis-label">25%</text>
<line x1="90" y1="530.0" x2="780" y2="530.0" stroke="#21262d" stroke-width="1"/>
<text x="82" y="534.0" text-anchor="end" class="axis-label">50%</text>
<line x1="90" y1="470.0" x2="780" y2="470.0" stroke="#21262d" stroke-width="1"/>
<text x="82" y="474.0" text-anchor="end" class="axis-label">75%</text>
<line x1="90" y1="410.0" x2="780" y2="410.0" stroke="#21262d" stroke-width="1"/>
<text x="82" y="414.0" text-anchor="end" class="axis-label">100%</text>
<polygon points="90.0,650.0 99.7,650.0 109.4,650.0 119.2,650.0 128.9,650.0 138.6,650.0 148.3,650.0 158.0,650.0 167.7,528.2 177.5,528.5 187.2,529.7 196.9,499.3 206.6,499.3 216.3,502.9 226.1,485.0 235.8,485.1 245.5,485.4 255.2,485.4 264.9,485.4 274.6,485.4 284.4,485.4 294.1,496.4 303.8,496.7 313.5,491.0 323.2,491.0 333.0,491.0 342.7,491.7 352.4,491.8 362.1,494.0 371.8,494.0 381.5,494.4 391.3,494.4 401.0,494.4 410.7,494.4 420.4,507.6 430.1,507.6 439.9,507.9 449.6,507.9 459.3,507.9 469.0,506.3 478.7,506.4 488.5,506.8 498.2,506.9 507.9,506.8 517.6,507.5 527.3,507.5 537.0,507.5 546.8,507.5 556.5,507.5 566.2,507.5 575.9,507.5 585.6,507.5 595.4,507.5 605.1,507.5 614.8,507.5 624.5,507.5 634.2,507.5 643.9,508.6 653.7,508.6 663.4,508.6 673.1,508.6 682.8,508.6 692.5,509.5 702.3,509.8 712.0,509.8 721.7,509.8 731.4,509.8 741.1,509.8 750.8,509.8 760.6,509.8 770.3,511.7 780.0,513.5 780.0,650.0 770.3,650.0 760.6,650.0 750.8,650.0 741.1,650.0 731.4,650.0 721.7,650.0 712.0,650.0 702.3,650.0 692.5,650.0 682.8,650.0 673.1,650.0 663.4,650.0 653.7,650.0 643.9,650.0 634.2,650.0 624.5,650.0 614.8,650.0 605.1,650.0 595.4,650.0 585.6,650.0 575.9,650.0 566.2,650.0 556.5,650.0 546.8,650.0 537.0,650.0 527.3,650.0 517.6,650.0 507.9,650.0 498.2,650.0 488.5,650.0 478.7,650.0 469.0,650.0 459.3,650.0 449.6,650.0 439.9,650.0 430.1,650.0 420.4,650.0 410.7,650.0 401.0,650.0 391.3,650.0 381.5,650.0 371.8,650.0 362.1,650.0 352.4,650.0 342.7,650.0 333.0,650.0 323.2,650.0 313.5,650.0 303.8,650.0 294.1,650.0 284.4,650.0 274.6,650.0 264.9,650.0 255.2,650.0 245.5,650.0 235.8,650.0 226.1,650.0 216.3,650.0 206.6,650.0 196.9,650.0 187.2,650.0 177.5,650.0 167.7,650.0 158.0,650.0 148.3,650.0 138.6,650.0 128.9,650.0 119.2,650.0 109.4,650.0 99.7,650.0 90.0,650.0" fill="#e34c26" opacity="0.6" class="anim" style="animation-delay:500ms;"/>
<polygon points="90.0,650.0 99.7,650.0 109.4,650.0 119.2,650.0 128.9,650.0 138.6,650.0 148.3,650.0 158.0,650.0 167.7,488.4 177.5,488.0 187.2,489.0 196.9,476.0 206.6,476.0 216.3,477.2 226.1,460.1 235.8,460.2 245.5,460.6 255.2,460.6 264.9,460.6 274.6,460.6 284.4,460.6 294.1,473.0 303.8,473.5 313.5,469.5 323.2,469.5 333.0,469.5 342.7,469.7 352.4,469.7 362.1,469.7 371.8,469.7 381.5,469.7 391.3,469.7 401.0,469.7 410.7,469.7 420.4,455.6 430.1,455.6 439.9,455.4 449.6,455.4 459.3,455.4 469.0,454.3 478.7,454.3 488.5,455.0 498.2,455.1 507.9,454.9 517.6,455.9 527.3,455.9 537.0,455.9 546.8,455.9 556.5,455.9 566.2,455.9 575.9,455.9 585.6,455.9 595.4,455.9 605.1,455.9 614.8,455.9 624.5,455.9 634.2,455.9 643.9,455.8 653.7,455.8 663.4,455.8 673.1,455.8 682.8,455.8 692.5,457.0 702.3,457.4 712.0,457.4 721.7,457.4 731.4,457.4 741.1,457.4 750.8,457.4 760.6,457.4 770.3,455.0 780.0,452.6 780.0,513.5 770.3,511.7 760.6,509.8 750.8,509.8 741.1,509.8 731.4,509.8 721.7,509.8 712.0,509.8 702.3,509.8 692.5,509.5 682.8,508.6 673.1,508.6 663.4,508.6 653.7,508.6 643.9,508.6 634.2,507.5 624.5,507.5 614.8,507.5 605.1,507.5 595.4,507.5 585.6,507.5 575.9,507.5 566.2,507.5 556.5,507.5 546.8,507.5 537.0,507.5 527.3,507.5 517.6,507.5 507.9,506.8 498.2,506.9 488.5,506.8 478.7,506.4 469.0,506.3 459.3,507.9 449.6,507.9 439.9,507.9 430.1,507.6 420.4,507.6 410.7,494.4 401.0,494.4 391.3,494.4 381.5,494.4 371.8,494.0 362.1,494.0 352.4,491.8 342.7,491.7 333.0,491.0 323.2,491.0 313.5,491.0 303.8,496.7 294.1,496.4 284.4,485.4 274.6,485.4 264.9,485.4 255.2,485.4 245.5,485.4 235.8,485.1 226.1,485.0 216.3,502.9 206.6,499.3 196.9,499.3 187.2,529.7 177.5,528.5 167.7,528.2 158.0,650.0 148.3,650.0 138.6,650.0 128.9,650.0 119.2,650.0 109.4,650.0 99.7,650.0 90.0,650.0" fill="#f1e05a" opacity="0.6" class="anim" style="animation-delay:600ms;"/>
<polygon points="90.0,650.0 99.7,650.0 109.4,650.0 119.2,650.0 128.9,650.0 138.6,650.0 148.3,650.0 158.0,650.0 167.7,455.5 177.5,455.4 187.2,455.1 196.9,447.0 206.6,447.0 216.3,448.2 226.1,438.9 235.8,439.0 245.5,439.6 255.2,439.6 264.9,439.6 274.6,439.6 284.4,439.6 294.1,445.6 303.8,445.6 313.5,443.3 323.2,443.3 333.0,443.3 342.7,443.6 352.4,443.6 362.1,444.1 371.8,444.1 381.5,444.1 391.3,444.1 401.0,444.1 410.7,444.1 420.4,437.5 430.1,437.5 439.9,437.5 449.6,437.5 459.3,437.5 469.0,437.5 478.7,437.5 488.5,438.4 498.2,438.5 507.9,438.3 517.6,439.3 527.3,439.3 537.0,439.3 546.8,439.3 556.5,439.3 566.2,439.3 575.9,439.3 585.6,439.3 595.4,439.3 605.1,439.3 614.8,439.3 624.5,439.3 634.2,439.3 643.9,439.4 653.7,439.4 663.4,439.4 673.1,439.4 682.8,439.4 692.5,440.7 702.3,441.1 712.0,441.1 721.7,441.1 731.4,441.1 741.1,441.1 750.8,441.1 760.6,441.1 770.3,440.5 780.0,439.8 780.0,452.6 770.3,455.0 760.6,457.4 750.8,457.4 741.1,457.4 731.4,457.4 721.7,457.4 712.0,457.4 702.3,457.4 692.5,457.0 682.8,455.8 673.1,455.8 663.4,455.8 653.7,455.8 643.9,455.8 634.2,455.9 624.5,455.9 614.8,455.9 605.1,455.9 595.4,455.9 585.6,455.9 575.9,455.9 566.2,455.9 556.5,455.9 546.8,455.9 537.0,455.9 527.3,455.9 517.6,455.9 507.9,454.9 498.2,455.1 488.5,455.0 478.7,454.3 469.0,454.3 459.3,455.4 449.6,455.4 439.9,455.4 430.1,455.6 420.4,455.6 410.7,469.7 401.0,469.7 391.3,469.7 381.5,469.7 371.8,469.7 362.1,469.7 352.4,469.7 342.7,469.7 333.0,469.5 323.2,469.5 313.5,469.5 303.8,473.5 294.1,473.0 284.4,460.6 274.6,460.6 264.9,460.6 255.2,460.6 245.5,460.6 235.8,460.2 226.1,460.1 216.3,477.2 206.6,476.0 196.9,476.0 187.2,489.0 177.5,488.0 167.7,488.4 158.0,650.0 148.3,650.0 138.6,650.0 128.9,650.0 119.2,650.0 109.4,650.0 99.7,650.0 90.0,650.0" fill="#3572A5" opacity="0.6" class="anim" style="animation-delay:700ms;"/>
<polygon points="90.0,650.0 99.7,650.0 109.4,650.0 119.2,650.0 128.9,650.0 138.6,650.0 148.3,650.0 158.0,650.0 167.7,442.3 177.5,442.0 187.2,441.6 196.9,439.5 206.6,439.5 216.3,439.4 226.1,432.3 235.8,432.2 245.5,432.6 255.2,432.6 264.9,432.6 274.6,432.6 284.4,432.6 294.1,439.3 303.8,439.3 313.5,437.4 323.2,437.4 333.0,437.4 342.7,437.3 352.4,437.3 362.1,437.1 371.8,437.1 381.5,437.1 391.3,437.1 401.0,437.1 410.7,437.1 420.4,428.7 430.1,428.6 439.9,428.5 449.6,428.5 459.3,428.5 469.0,427.3 478.7,427.3 488.5,427.1 498.2,427.1 507.9,427.1 517.6,427.0 527.3,427.0 537.0,427.0 546.8,427.0 556.5,427.0 566.2,427.0 575.9,427.0 585.6,427.0 595.4,427.0 605.1,427.0 614.8,427.0 624.5,427.0 634.2,427.0 643.9,427.0 653.7,427.1 663.4,427.1 673.1,427.1 682.8,427.1 692.5,428.4 702.3,428.9 712.0,428.9 721.7,428.9 731.4,428.9 741.1,428.9 750.8,428.9 760.6,428.9 770.3,427.5 780.0,426.1 780.0,439.8 770.3,440.5 760.6,441.1 750.8,441.1 741.1,441.1 731.4,441.1 721.7,441.1 712.0,441.1 702.3,441.1 692.5,440.7 682.8,439.4 673.1,439.4 663.4,439.4 653.7,439.4 643.9,439.4 634.2,439.3 624.5,439.3 614.8,439.3 605.1,439.3 595.4,439.3 585.6,439.3 575.9,439.3 566.2,439.3 556.5,439.3 546.8,439.3 537.0,439.3 527.3,439.3 517.6,439.3 507.9,438.3 498.2,438.5 488.5,438.4 478.7,437.5 469.0,437.5 459.3,437.5 449.6,437.5 439.9,437.5 430.1,437.5 420.4,437.5 410.7,444.1 401.0,444.1 391.3,444.1 381.5,444.1 371.8,444.1 362.1,444.1 352.4,443.6 342.7,443.6 333.0,443.3 323.2,443.3 313.5,443.3 303.8,445.6 294.1,445.6 284.4,439.6 274.6,439.6 264.9,439.6 255.2,439.6 245.5,439.6 235.8,439.0 226.1,438.9 216.3,448.2 206.6,447.0 196.9,447.0 187.2,455.1 177.5,455.4 167.7,455.5 158.0,650.0 148.3,650.0 138.6,650.0 128.9,650.0 119.2,650.0 109.4,650.0 99.7,650.0 90.0,650.0" fill="#663399" opacity="0.6" class="anim" style="animation-delay:800ms;"/>
<polygon points="90.0,650.0 99.7,650.0 109.4,650.0 119.2,650.0 128.9,650.0 138.6,650.0 148.3,650.0 158.0,650.0 167.7,436.6 177.5,436.3 187.2,435.9 196.9,432.2 206.6,432.2 216.3,432.2 226.1,426.2 235.8,426.1 245.5,426.0 255.2,426.0 264.9,426.0 274.6,426.0 284.4,426.0 294.1,430.8 303.8,430.7 313.5,429.3 323.2,429.3 333.0,429.3 342.7,429.2 352.4,429.2 362.1,428.9 371.8,428.9 381.5,428.8 391.3,428.8 401.0,428.8 410.7,428.8 420.4,423.0 430.1,422.9 439.9,422.9 449.6,422.9 459.3,422.9 469.0,422.0 478.7,422.0 488.5,421.9 498.2,421.9 507.9,421.9 517.6,421.8 527.3,421.8 537.0,421.8 546.8,421.8 556.5,421.8 566.2,421.8 575.9,421.8 585.6,421.8 595.4,421.8 605.1,421.8 614.8,421.8 624.5,421.8 634.2,421.8 643.9,421.7 653.7,421.8 663.4,421.8 673.1,421.8 682.8,421.8 692.5,423.2 702.3,423.6 712.0,423.6 721.7,423.6 731.4,423.6 741.1,423.6 750.8,423.6 760.6,423.6 770.3,422.6 780.0,421.5 780.0,426.1 770.3,427.5 760.6,428.9 750.8,428.9 741.1,428.9 731.4,428.9 721.7,428.9 712.0,428.9 702.3,428.9 692.5,428.4 682.8,427.1 673.1,427.1 663.4,427.1 653.7,427.1 643.9,427.0 634.2,427.0 624.5,427.0 614.8,427.0 605.1,427.0 595.4,427.0 585.6,427.0 575.9,427.0 566.2,427.0 556.5,427.0 546.8,427.0 537.0,427.0 527.3,427.0 517.6,427.0 507.9,427.1 498.2,427.1 488.5,427.1 478.7,427.3 469.0,427.3 459.3,428.5 449.6,428.5 439.9,428.5 430.1,428.6 420.4,428.7 410.7,437.1 401.0,437.1 391.3,437.1 381.5,437.1 371.8,437.1 362.1,437.1 352.4,437.3 342.7,437.3 333.0,437.4 323.2,437.4 313.5,437.4 303.8,439.3 294.1,439.3 284.4,432.6 274.6,432.6 264.9,432.6 255.2,432.6 245.5,432.6 235.8,432.2 226.1,432.3 216.3,439.4 206.6,439.5 196.9,439.5 187.2,441.6 177.5,442.0 167.7,442.3 158.0,650.0 148.3,650.0 138.6,650.0 128.9,650.0 119.2,650.0 109.4,650.0 99.7,650.0 90.0,650.0" fill="#083fa1" opacity="0.6" class="anim" style="animation-delay:900ms;"/>
<polygon points="90.0,650.0 99.7,650.0 109.4,650.0 119.2,650.0 128.9,650.0 138.6,650.0 148.3,650.0 158.0,650.0 167.7,427.0 177.5,426.8 187.2,426.6 196.9,424.2 206.6,424.2 216.3,424.2 226.1,420.4 235.8,420.3 245.5,420.3 255.2,420.3 264.9,420.3 274.6,420.3 284.4,420.3 294.1,423.3 303.8,423.2 313.5,422.4 323.2,422.4 333.0,422.4 342.7,422.3 352.4,422.3 362.1,422.1 371.8,422.1 381.5,422.1 391.3,422.1 401.0,422.1 410.7,422.1 420.4,418.3 430.1,418.3 439.9,418.2 449.6,418.2 459.3,418.2 469.0,417.7 478.7,417.7 488.5,417.6 498.2,417.6 507.9,417.6 517.6,417.6 527.3,417.6 537.0,417.6 546.8,417.6 556.5,417.6 566.2,417.6 575.9,417.6 585.6,417.6 595.4,417.6 605.1,417.6 614.8,417.6 624.5,417.6 634.2,417.6 643.9,417.5 653.7,417.6 663.4,417.6 673.1,417.6 682.8,417.6 692.5,419.0 702.3,419.5 712.0,419.5 721.7,419.5 731.4,419.5 741.1,419.5 750.8,419.5 760.6,419.5 770.3,418.9 780.0,418.4 780.0,421.5 770.3,422.6 760.6,423.6 750.8,423.6 741.1,423.6 731.4,423.6 721.7,423.6 712.0,423.6 702.3,423.6 692.5,423.2 682.8,421.8 673.1,421.8 663.4,421.8 653.7,421.8 643.9,421.7 634.2,421.8 624.5,421.8 614.8,421.8 605.1,421.8 595.4,421.8 585.6,421.8 575.9,421.8 566.2,421.8 556.5,421.8 546.8,421.8 537.0,421.8 527.3,421.8 517.6,421.8 507.9,421.9 498.2,421.9 488.5,421.9 478.7,422.0 469.0,422.0 459.3,422.9 449.6,422.9 439.9,422.9 430.1,422.9 420.4,423.0 410.7,428.8 401.0,428.8 391.3,428.8 381.5,428.8 371.8,428.9 362.1,428.9 352.4,429.2 342.7,429.2 333.0,429.3 323.2,429.3 313.5,429.3 303.8,430.7 294.1,430.8 284.4,426.0 274.6,426.0 264.9,426.0 255.2,426.0 245.5,426.0 235.8,426.1 226.1,426.2 216.3,432.2 206.6,432.2 196.9,432.2 187.2,435.9 177.5,436.3 167.7,436.6 158.0,650.0 148.3,650.0 138.6,650.0 128.9,650.0 119.2,650.0 109.4,650.0 99.7,650.0 90.0,650.0" fill="#6E4C13" opacity="0.6" class="anim" style="animation-delay:1000ms;"/>
<polygon points="90.0,650.0 99.7,650.0 109.4,650.0 119.2,650.0 128.9,650.0 138.6,650.0 148.3,650.0 158.0,650.0 167.7,418.7 177.5,418.6 187.2,418.5 196.9,417.3 206.6,417.3 216.3,417.2 226.1,415.3 235.8,415.3 245.5,415.2 255.2,415.2 264.9,415.2 274.6,415.2 284.4,415.2 294.1,416.8 303.8,416.8 313.5,416.3 323.2,416.3 333.0,416.3 342.7,416.3 352.4,416.3 362.1,416.2 371.8,416.2 381.5,416.2 391.3,416.2 401.0,416.2 410.7,416.2 420.4,414.2 430.1,414.2 439.9,414.2 449.6,414.2 459.3,414.2 469.0,413.9 478.7,413.9 488.5,413.9 498.2,413.9 507.9,413.9 517.6,413.9 527.3,413.9 537.0,413.9 546.8,413.9 556.5,413.9 566.2,413.9 575.9,413.9 585.6,413.9 595.4,413.9 605.1,413.9 614.8,413.9 624.5,413.9 634.2,413.9 643.9,413.8 653.7,413.8 663.4,413.8 673.1,413.8 682.8,413.8 692.5,413.8 702.3,413.8 712.0,413.8 721.7,413.8 731.4,413.8 741.1,413.8 750.8,413.8 760.6,413.8 770.3,413.6 780.0,413.3 780.0,418.4 770.3,418.9 760.6,419.5 750.8,419.5 741.1,419.5 731.4,419.5 721.7,419.5 712.0,419.5 702.3,419.5 692.5,419.0 682.8,417.6 673.1,417.6 663.4,417.6 653.7,417.6 643.9,417.5 634.2,417.6 624.5,417.6 614.8,417.6 605.1,417.6 595.4,417.6 585.6,417.6 575.9,417.6 566.2,417.6 556.5,417.6 546.8,417.6 537.0,417.6 527.3,417.6 517.6,417.6 507.9,417.6 498.2,417.6 488.5,417.6 478.7,417.7 469.0,417.7 459.3,418.2 449.6,418.2 439.9,418.2 430.1,418.3 420.4,418.3 410.7,422.1 401.0,422.1 391.3,422.1 381.5,422.1 371.8,422.1 362.1,422.1 352.4,422.3 342.7,422.3 333.0,422.4 323.2,422.4 313.5,422.4 303.8,423.2 294.1,423.3 284.4,420.3 274.6,420.3 264.9,420.3 255.2,420.3 245.5,420.3 235.8,420.3 226.1,420.4 216.3,424.2 206.6,424.2 196.9,424.2 187.2,426.6 177.5,426.8 167.7,427.0 158.0,650.0 148.3,650.0 138.6,650.0 128.9,650.0 119.2,650.0 109.4,650.0 99.7,650.0 90.0,650.0" fill="#F05138" opacity="0.6" class="anim" style="animation-delay:1100ms;"/>
<polygon points="90.0,650.0 99.7,650.0 109.4,650.0 119.2,650.0 128.9,650.0 138.6,650.0 148.3,650.0 158.0,650.0 167.7,414.4 177.5,414.4 187.2,414.3 196.9,413.7 206.6,413.7 216.3,413.7 226.1,412.7 235.8,412.7 245.5,412.7 255.2,412.7 264.9,412.7 274.6,412.7 284.4,412.7 294.1,413.5 303.8,413.4 313.5,413.2 323.2,413.2 333.0,413.2 342.7,413.2 352.4,413.2 362.1,413.1 371.8,413.1 381.5,413.1 391.3,413.1 401.0,413.1 410.7,413.1 420.4,412.2 430.1,412.1 439.9,412.1 449.6,412.1 459.3,412.1 469.0,412.0 478.7,412.0 488.5,412.0 498.2,412.0 507.9,412.0 517.6,412.0 527.3,412.0 537.0,412.0 546.8,412.0 556.5,412.0 566.2,412.0 575.9,412.0 585.6,412.0 595.4,412.0 605.1,412.0 614.8,412.0 624.5,412.0 634.2,412.0 643.9,411.9 653.7,411.9 663.4,411.9 673.1,411.9 682.8,411.9 692.5,411.9 702.3,411.9 712.0,411.9 721.7,411.9 731.4,411.9 741.1,411.9 750.8,411.9 760.6,411.9 770.3,411.9 780.0,411.9 780.0,413.3 770.3,413.6 760.6,413.8 750.8,413.8 741.1,413.8 731.4,413.8 721.7,413.8 712.0,413.8 702.3,413.8 692.5,413.8 682.8,413.8 673.1,413.8 663.4,413.8 653.7,413.8 643.9,413.8 634.2,413.9 624.5,413.9 614.8,413.9 605.1,413.9 595.4,413.9 585.6,413.9 575.9,413.9 566.2,413.9 556.5,413.9 546.8,413.9 537.0,413.9 527.3,413.9 517.6,413.9 507.9,413.9 498.2,413.9 488.5,413.9 478.7,413.9 469.0,413.9 459.3,414.2 449.6,414.2 439.9,414.2 430.1,414.2 420.4,414.2 410.7,416.2 401.0,416.2 391.3,416.2 381.5,416.2 371.8,416.2 362.1,416.2 352.4,416.3 342.7,416.3 333.0,416.3 323.2,416.3 313.5,416.3 303.8,416.8 294.1,416.8 284.4,415.2 274.6,415.2 264.9,415.2 255.2,415.2 245.5,415.2 235.8,415.3 226.1,415.3 216.3,417.2 206.6,417.3 196.9,417.3 187.2,418.5 177.5,418.6 167.7,418.7 158.0,650.0 148.3,650.0 138.6,650.0 128.9,650.0 119.2,650.0 109.4,650.0 99.7,650.0 90.0,650.0" fill="#b07219" opacity="0.6" class="anim" style="animation-delay:1200ms;"/>
<line x1="760.6" y1="100" x2="760.6" y2="650" stroke="#c9d1d9" stroke-width="1" stroke-dasharray="4,3" opacity="0.35"/>
<text x="770.3" y="112" text-anchor="middle" class="axis-label" opacity="0.6">Jul 01, 2026</text>
<text x="90.0" y="668" text-anchor="middle" class="axis-label" transform="rotate(-35 90.0 668)">2026-02</text>
<text x="323.2" y="668" text-anchor="middle" class="axis-label" transform="rotate(-35 323.2 668)">2026-03</text>
<text x="634.2" y="668" text-anchor="middle" class="axis-label" transform="rotate(-35 634.2 668)">2026-04</text>
<text x="712.0" y="668" text-anchor="middle" class="axis-label" transform="rotate(-35 712.0 668)">2026-06</text>
<line x1="796" y1="110" x2="824" y2="110" stroke="#3fb950" stroke-width="2"/>
<text x="832" y="116" class="legend-text">Lines Added</text>
<line x1="796" y1="140" x2="824" y2="140" stroke="#f85149" stroke-width="1.5"/>
<text x="832" y="146" class="legend-text">Lines Deleted</text>
<line x1="796" y1="170" x2="824" y2="170" stroke="#e3b341" stroke-width="1.5" stroke-dasharray="4,3"/>
<text x="832" y="176" class="legend-text">&#x2605; Stars</text>
<text x="796" y="200" class="subtitle">Languages</text>
<rect x="796" y="212" width="12" height="12" rx="2" fill="#e34c26" opacity="0.8" class="anim" style="animation-delay:800ms;"/>
<text x="814" y="223" class="legend-text">HTML (58%→57%)</text>
<rect x="796" y="234" width="12" height="12" rx="2" fill="#f1e05a" opacity="0.8" class="anim" style="animation-delay:880ms;"/>
<text x="814" y="245" class="legend-text">JavaScript (22%→25%)</text>
<rect x="796" y="256" width="12" height="12" rx="2" fill="#3572A5" opacity="0.8" class="anim" style="animation-delay:960ms;"/>
<text x="814" y="267" class="legend-text">Python (7%→5%)</text>
<rect x="796" y="278" width="12" height="12" rx="2" fill="#663399" opacity="0.8" class="anim" style="animation-delay:1040ms;"/>
<text x="814" y="289" class="legend-text">CSS (5%→6%)</text>
<rect x="796" y="300" width="12" height="12" rx="2" fill="#083fa1" opacity="0.8" class="anim" style="animation-delay:1120ms;"/>
<text x="814" y="311" class="legend-text">Markdown (2%→2%)</text>
<rect x="796" y="322" width="12" height="12" rx="2" fill="#6E4C13" opacity="0.8" class="anim" style="animation-delay:1200ms;"/>
<text x="814" y="333" class="legend-text">Assembly (2%→1%)</text>
<rect x="796" y="344" width="12" height="12" rx="2" fill="#F05138" opacity="0.8" class="anim" style="animation-delay:1280ms;"/>
<text x="814" y="355" class="legend-text">Swift (2%→2%)</text>
<rect x="796" y="366" width="12" height="12" rx="2" fill="#b07219" opacity="0.8" class="anim" style="animation-delay:1360ms;"/>
<text x="814" y="377" class="legend-text">Java (1%→1%)</text>
<text x="796" y="412" class="subtitle">Contributions</text>
<text x="796" y="432" class="axis-label">2023: 39</text>
<text x="796" y="452" class="axis-label">2024: 646</text>
<text x="796" y="472" class="axis-label">2025: 1,780</text>
<text x="796" y="492" class="axis-label">2026: 483</text>
<text x="796" y="522" class="subtitle">Statistics</text>
<text x="796" y="542" class="axis-label">Active weeks: 87</text>
<text x="796" y="562" class="axis-label">Add/Del ratio: 1.8x</text>
<text x="796" y="582" class="axis-label">Avg lines/wk: 19K</text>
<text x="796" y="602" class="axis-label">Peak: 2026-02-15</text>
<text x="796" y="622" class="axis-label">  (543K lines)</text>
<text x="90" y="742" class="axis-label">Total: +1,039,435 / -576,819 lines &#xb7; 2,948 contributions &#xb7; 79 repos &#xb7; &#x2605; 37</text>
</svg>