<svg xmlns="http://www.w3.org/2000/svg" width="1000" height="760" style="max-width: 100%;" viewBox="0 0 1000 760">

<defs>
  <linearGradient id="areaGrad" x1="0" y1="0" x2="0" y2="1">
    <stop offset="0%" stop-color="#58a6ff" stop-opacity="0.35"/>
    <stop offset="100%" stop-color="#58a6ff" stop-opacity="0.02"/>
  </linearGradient>
  <linearGradient id="addGrad" x1="0" y1="0" x2="0" y2="1">
    <stop offset="0%" stop-color="#3fb950" stop-opacity="0.35"/>
    <stop offset="100%" stop-color="#3fb950" stop-opacity="0.02"/>
  </linearGradient>
  <linearGradient id="delGrad" x1="0" y1="0" x2="0" y2="1">
    <stop offset="0%" stop-color="#f85149" stop-opacity="0.25"/>
    <stop offset="100%" stop-color="#f85149" stop-opacity="0.02"/>
  </linearGradient>
</defs>
<style>
  .title { font: bold 28px 'Segoe UI', Ubuntu, Sans-Serif; fill: #c9d1d9; }
  .subtitle { font: 600 20px 'Segoe UI', Ubuntu, Sans-Serif; fill: #c9d1d9; opacity: 0.8; }
  .axis-label { font: 18px 'Segoe UI', Ubuntu, Sans-Serif; fill: #c9d1d9; opacity: 0.7; }
  .legend-text { font: 14px 'Segoe UI', Ubuntu, Sans-Serif; fill: #c9d1d9; }
  .value-text { font: bold 18px 'Segoe UI', Ubuntu, Sans-Serif; fill: #c9d1d9; }
  .stat-value { font: bold 22px 'Segoe UI', Ubuntu, Sans-Serif; fill: #c9d1d9; }
  .stat-label { font: 18px 'Segoe UI', Ubuntu, Sans-Serif; fill: #c9d1d9; opacity: 0.7; }
  @keyframes fadeIn { from { opacity: 0; } to { opacity: 1; } }
  .anim { animation: fadeIn 0.6s ease-in-out forwards; opacity: 0; }
</style>

<rect x="0.5" y="0.5" rx="4.5" width="999" height="759" fill="#161b22" stroke="#21262d"/>
<text x="90" y="45" class="title">Activity History</text>
<text x="90" y="72" class="subtitle">Lines added vs deleted &amp; activity trends over time</text>
<line x1="90" y1="340.0" x2="780" y2="340.0" stroke="#21262d" stroke-width="1"/>
<text x="82" y="344.0" text-anchor="end" class="axis-label">0</text>
<line x1="90" y1="280.0" x2="780" y2="280.0" stroke="#21262d" stroke-width="1"/>
<text x="82" y="284.0" text-anchor="end" class="axis-label">451K</text>
<line x1="90" y1="220.0" x2="780" y2="220.0" stroke="#21262d" stroke-width="1"/>
<text x="82" y="224.0" text-anchor="end" class="axis-label">903K</text>
<line x1="90" y1="160.0" x2="780" y2="160.0" stroke="#21262d" stroke-width="1"/>
<text x="82" y="164.0" text-anchor="end" class="axis-label">1.4M</text>
<line x1="90" y1="100.0" x2="780" y2="100.0" stroke="#21262d" stroke-width="1"/>
<text x="82" y="104.0" text-anchor="end" class="axis-label">1.8M</text>
<polygon points="90.0,340.0 90.0,291.5 97.4,293.2 104.8,291.5 112.3,293.3 119.7,304.4 127.1,282.2 134.5,282.2 141.9,273.8 149.4,273.5 156.8,273.0 164.2,272.9 171.6,258.0 179.0,258.0 186.5,257.9 193.9,235.8 201.3,235.5 208.7,235.2 216.1,235.2 223.5,235.2 231.0,235.2 238.4,235.2 245.8,234.7 253.2,219.9 260.6,219.8 268.1,219.8 275.5,219.8 282.9,219.5 290.3,219.5 297.7,218.9 305.2,218.9 312.6,218.8 320.0,218.8 327.4,218.8 334.8,218.8 342.3,218.8 349.7,218.8 357.1,218.8 364.5,218.8 371.9,218.8 379.4,218.8 386.8,218.8 394.2,218.2 401.6,218.4 409.0,217.7 416.5,217.4 423.9,217.4 431.3,217.4 438.7,217.4 446.1,217.4 453.5,217.4 461.0,217.4 468.4,217.4 475.8,217.4 483.2,217.4 490.6,217.7 498.1,219.2 505.5,217.7 512.9,216.5 520.3,216.4 527.7,216.4 535.2,216.4 542.6,216.4 550.0,208.8 557.4,201.9 564.8,201.9 572.3,201.9 579.7,201.9 587.1,201.9 594.5,201.9 601.9,201.9 609.4,201.9 616.8,201.7 624.2,201.7 631.6,201.7 639.0,201.7 646.5,201.7 653.9,201.7 661.3,201.7 668.7,201.7 676.1,201.7 683.5,201.7 691.0,201.7 698.4,201.7 705.8,201.7 713.2,201.7 720.6,201.7 728.1,201.7 735.5,201.7 742.9,201.7 750.3,201.7 757.7,201.7 765.2,201.7 772.6,194.4 780.0,187.1 780.0,340.0" fill="url(#addGrad)" class="anim" style="animation-delay:200ms;"/>
<polyline points="90.0,291.5 97.4,293.2 104.8,291.5 112.3,293.3 119.7,304.4 127.1,282.2 134.5,282.2 141.9,273.8 149.4,273.5 156.8,273.0 164.2,272.9 171.6,258.0 179.0,258.0 186.5,257.9 193.9,235.8 201.3,235.5 208.7,235.2 216.1,235.2 223.5,235.2 231.0,235.2 238.4,235.2 245.8,234.7 253.2,219.9 260.6,219.8 268.1,219.8 275.5,219.8 282.9,219.5 290.3,219.5 297.7,218.9 305.2,218.9 312.6,218.8 320.0,218.8 327.4,218.8 334.8,218.8 342.3,218.8 349.7,218.8 357.1,218.8 364.5,218.8 371.9,218.8 379.4,218.8 386.8,218.8 394.2,218.2 401.6,218.4 409.0,217.7 416.5,217.4 423.9,217.4 431.3,217.4 438.7,217.4 446.1,217.4 453.5,217.4 461.0,217.4 468.4,217.4 475.8,217.4 483.2,217.4 490.6,217.7 498.1,219.2 505.5,217.7 512.9,216.5 520.3,216.4 527.7,216.4 535.2,216.4 542.6,216.4 550.0,208.8 557.4,201.9 564.8,201.9 572.3,201.9 579.7,201.9 587.1,201.9 594.5,201.9 601.9,201.9 609.4,201.9 616.8,201.7 624.2,201.7 631.6,201.7 639.0,201.7 646.5,201.7 653.9,201.7 661.3,201.7 668.7,201.7 676.1,201.7 683.5,201.7 691.0,201.7 698.4,201.7 705.8,201.7 713.2,201.7 720.6,201.7 728.1,201.7 735.5,201.7 742.9,201.7 750.3,201.7 757.7,201.7 765.2,201.7" fill="none" stroke="#3fb950" stroke-width="2" stroke-linejoin="round" class="anim" style="animation-delay:250ms;"/>
<polyline points="765.2,201.7 772.6,194.4 780.0,187.1" fill="none" stroke="#3fb950" stroke-width="1.5" stroke-dasharray="5,4" stroke-linejoin="round" opacity="0.6" class="anim" style="animation-delay:250ms;"/>
<polygon points="90.0,340.0 90.0,326.4 97.4,327.8 104.8,326.4 112.3,327.8 119.7,333.6 127.1,324.7 134.5,324.7 141.9,323.7 149.4,323.4 156.8,323.1 164.2,323.1 171.6,307.0 179.0,307.0 186.5,307.0 193.9,288.7 201.3,288.6 208.7,288.6 216.1,288.6 223.5,288.6 231.0,288.6 238.4,288.6 245.8,279.1 253.2,264.6 260.6,264.5 268.1,264.5 275.5,264.5 282.9,264.4 290.3,264.4 297.7,264.4 305.2,264.3 312.6,264.3 320.0,264.3 327.4,264.3 334.8,264.3 342.3,264.3 349.7,264.3 357.1,264.3 364.5,264.3 371.9,264.3 379.4,264.3 386.8,264.3 394.2,264.3 401.6,264.4 409.0,263.9 416.5,263.9 423.9,263.9 431.3,263.9 438.7,263.9 446.1,263.9 453.5,263.9 461.0,263.9 468.4,263.9 475.8,263.9 483.2,263.9 490.6,264.0 498.1,264.8 505.5,264.3 512.9,263.5 520.3,263.4 527.7,263.4 535.2,263.4 542.6,263.4 550.0,263.3 557.4,263.3 564.8,263.3 572.3,263.3 579.7,263.3 587.1,263.3 594.5,263.3 601.9,263.3 609.4,263.3 616.8,263.3 624.2,263.3 631.6,263.3 639.0,263.3 646.5,263.3 653.9,263.3 661.3,263.3 668.7,263.3 676.1,263.3 683.5,263.3 691.0,263.3 698.4,263.3 705.8,263.3 713.2,263.3 720.6,263.3 728.1,263.3 735.5,263.3 742.9,263.3 750.3,263.3 757.7,263.3 765.2,263.3 772.6,258.1 780.0,252.9 780.0,340.0" fill="url(#delGrad)" class="anim" style="animation-delay:300ms;"/>
<polyline points="90.0,326.4 97.4,327.8 104.8,326.4 112.3,327.8 119.7,333.6 127.1,324.7 134.5,324.7 141.9,323.7 149.4,323.4 156.8,323.1 164.2,323.1 171.6,307.0 179.0,307.0 186.5,307.0 193.9,288.7 201.3,288.6 208.7,288.6 216.1,288.6 223.5,288.6 231.0,288.6 238.4,288.6 245.8,279.1 253.2,264.6 260.6,264.5 268.1,264.5 275.5,264.5 282.9,264.4 290.3,264.4 297.7,264.4 305.2,264.3 312.6,264.3 320.0,264.3 327.4,264.3 334.8,264.3 342.3,264.3 349.7,264.3 357.1,264.3 364.5,264.3 371.9,264.3 379.4,264.3 386.8,264.3 394.2,264.3 401.6,264.4 409.0,263.9 416.5,263.9 423.9,263.9 431.3,263.9 438.7,263.9 446.1,263.9 453.5,263.9 461.0,263.9 468.4,263.9 475.8,263.9 483.2,263.9 490.6,264.0 498.1,264.8 505.5,264.3 512.9,263.5 520.3,263.4 527.7,263.4 535.2,263.4 542.6,263.4 550.0,263.3 557.4,263.3 564.8,263.3 572.3,263.3 579.7,263.3 587.1,263.3 594.5,263.3 601.9,263.3 609.4,263.3 616.8,263.3 624.2,263.3 631.6,263.3 639.0,263.3 646.5,263.3 653.9,263.3 661.3,263.3 668.7,263.3 676.1,263.3 683.5,263.3 691.0,263.3 698.4,263.3 705.8,263.3 713.2,263.3 720.6,263.3 728.1,263.3 735.5,263.3 742.9,263.3 750.3,263.3 757.7,263.3 765.2,263.3" fill="none" stroke="#f85149" stroke-width="1.5" stroke-linejoin="round" class="anim" style="animation-delay:350ms;"/>
<polyline points="765.2,263.3 772.6,258.1 780.0,252.9" fill="none" stroke="#f85149" stroke-width="1" stroke-dasharray="5,4" stroke-linejoin="round" opacity="0.6" class="anim" style="animation-delay:350ms;"/>
<polyline points="90.0,340.0 97.4,340.0 104.8,340.0 112.3,340.0 119.7,340.0 127.1,340.0 134.5,340.0 141.9,340.0 149.4,308.0 156.8,308.0 164.2,308.0 171.6,308.0 179.0,308.0 186.5,308.0 193.9,308.0 201.3,308.0 208.7,308.0 216.1,308.0 223.5,308.0 231.0,308.0 238.4,308.0 245.8,308.0 253.2,308.0 260.6,308.0 268.1,308.0 275.5,308.0 282.9,308.0 290.3,308.0 297.7,308.0 305.2,308.0 312.6,308.0 320.0,308.0 327.4,308.0 334.8,308.0 342.3,276.0 349.7,276.0 357.1,276.0 364.5,276.0 371.9,276.0 379.4,276.0 386.8,276.0 394.2,276.0 401.6,244.0 409.0,244.0 416.5,244.0 423.9,244.0 431.3,244.0 438.7,244.0 446.1,244.0 453.5,244.0 461.0,244.0 468.4,244.0 475.8,244.0 483.2,244.0 490.6,244.0 498.1,244.0 505.5,244.0 512.9,244.0 520.3,180.0 527.7,180.0 535.2,180.0 542.6,180.0 550.0,180.0 557.4,180.0 564.8,180.0 572.3,180.0 579.7,180.0 587.1,180.0 594.5,180.0 601.9,180.0 609.4,180.0 616.8,180.0 624.2,180.0 631.6,180.0 639.0,180.0 646.5,180.0 653.9,180.0 661.3,180.0 668.7,180.0 676.1,180.0 683.5,180.0 691.0,180.0 698.4,180.0 705.8,180.0 713.2,180.0 720.6,180.0 728.1,180.0 735.5,180.0 742.9,180.0 750.3,180.0 757.7,180.0 765.2,180.0" fill="none" stroke="#e3b341" stroke-width="1.5" stroke-dasharray="4,3" stroke-linejoin="round" class="anim" style="animation-delay:400ms;"/>
<polyline points="765.2,180.0 772.6,180.0 780.0,148.0" fill="none" stroke="#e3b341" stroke-width="1" stroke-dasharray="3,5" stroke-linejoin="round" opacity="0.5" class="anim" style="animation-delay:400ms;"/>
<text x="90" y="90" class="subtitle">Lines Added vs Deleted (per snapshot)</text>
<text x="90" y="400" class="subtitle">Programming Language Development (%)</text>
<line x1="90" y1="650.0" x2="780" y2="650.0" stroke="#21262d" stroke-width="1"/>
<text x="82" y="654.0" text-anchor="end" class="axis-label">0%</text>
<line x1="90" y1="590.0" x2="780" y2="590.0" stroke="#21262d" stroke-width="1"/>
<text x="82" y="594.0" text-anchor="end" class="axis-label">25%</text>
<line x1="90" y1="530.0" x2="780" y2="530.0" stroke="#21262d" stroke-width="1"/>
<text x="82" y="534.0" text-anchor="end" class="axis-label">50%</text>
<line x1="90" y1="470.0" x2="780" y2="470.0" stroke="#21262d" stroke-width="1"/>
<text x="82" y="474.0" text-anchor="end" class="axis-label">75%</text>
<line x1="90" y1="410.0" x2="780" y2="410.0" stroke="#21262d" stroke-width="1"/>
<text x="82" y="414.0" text-anchor="end" class="axis-label">100%</text>
<polygon points="90.0,650.0 97.4,650.0 104.8,650.0 112.3,650.0 119.7,650.0 127.1,650.0 134.5,650.0 141.9,650.0 149.4,528.2 156.8,528.5 164.2,529.7 171.6,499.3 179.0,499.3 186.5,502.9 193.9,485.0 201.3,485.1 208.7,485.4 216.1,485.4 223.5,485.4 231.0,485.4 238.4,485.4 245.8,496.4 253.2,496.7 260.6,491.0 268.1,491.0 275.5,491.0 282.9,491.7 290.3,491.8 297.7,494.0 305.2,494.0 312.6,494.4 320.0,494.4 327.4,494.4 334.8,494.4 342.3,507.6 349.7,507.6 357.1,507.9 364.5,507.9 371.9,507.9 379.4,506.3 386.8,506.4 394.2,506.8 401.6,506.9 409.0,506.8 416.5,507.5 423.9,507.5 431.3,507.5 438.7,507.5 446.1,507.5 453.5,507.5 461.0,507.5 468.4,507.5 475.8,507.5 483.2,507.5 490.6,507.5 498.1,507.5 505.5,507.5 512.9,508.6 520.3,508.6 527.7,508.6 535.2,508.6 542.6,508.6 550.0,509.5 557.4,509.8 564.8,509.8 572.3,509.8 579.7,509.8 587.1,509.8 594.5,509.8 601.9,509.8 609.4,509.8 616.8,510.9 624.2,510.9 631.6,510.9 639.0,510.9 646.5,510.9 653.9,510.9 661.3,510.9 668.7,510.9 676.1,510.9 683.5,510.9 691.0,510.9 698.4,510.9 705.8,510.9 713.2,510.9 720.6,510.9 728.1,510.9 735.5,510.9 742.9,510.9 750.3,510.9 757.7,510.9 765.2,510.9 772.6,512.8 780.0,514.8 780.0,650.0 772.6,650.0 765.2,650.0 757.7,650.0 750.3,650.0 742.9,650.0 735.5,650.0 728.1,650.0 720.6,650.0 713.2,650.0 705.8,650.0 698.4,650.0 691.0,650.0 683.5,650.0 676.1,650.0 668.7,650.0 661.3,650.0 653.9,650.0 646.5,650.0 639.0,650.0 631.6,650.0 624.2,650.0 616.8,650.0 609.4,650.0 601.9,650.0 594.5,650.0 587.1,650.0 579.7,650.0 572.3,650.0 564.8,650.0 557.4,650.0 550.0,650.0 542.6,650.0 535.2,650.0 527.7,650.0 520.3,650.0 512.9,650.0 505.5,650.0 498.1,650.0 490.6,650.0 483.2,650.0 475.8,650.0 468.4,650.0 461.0,650.0 453.5,650.0 446.1,650.0 438.7,650.0 431.3,650.0 423.9,650.0 416.5,650.0 409.0,650.0 401.6,650.0 394.2,650.0 386.8,650.0 379.4,650.0 371.9,650.0 364.5,650.0 357.1,650.0 349.7,650.0 342.3,650.0 334.8,650.0 327.4,650.0 320.0,650.0 312.6,650.0 305.2,650.0 297.7,650.0 290.3,650.0 282.9,650.0 275.5,650.0 268.1,650.0 260.6,650.0 253.2,650.0 245.8,650.0 238.4,650.0 231.0,650.0 223.5,650.0 216.1,650.0 208.7,650.0 201.3,650.0 193.9,650.0 186.5,650.0 179.0,650.0 171.6,650.0 164.2,650.0 156.8,650.0 149.4,650.0 141.9,650.0 134.5,650.0 127.1,650.0 119.7,650.0 112.3,650.0 104.8,650.0 97.4,650.0 90.0,650.0" fill="#e34c26" opacity="0.6" class="anim" style="animation-delay:500ms;"/>
<polygon points="90.0,650.0 97.4,650.0 104.8,650.0 112.3,650.0 119.7,650.0 127.1,650.0 134.5,650.0 141.9,650.0 149.4,488.4 156.8,488.0 164.2,489.0 171.6,476.0 179.0,476.0 186.5,477.2 193.9,460.1 201.3,460.2 208.7,460.6 216.1,460.6 223.5,460.6 231.0,460.6 238.4,460.6 245.8,473.0 253.2,473.5 260.6,469.5 268.1,469.5 275.5,469.5 282.9,469.7 290.3,469.7 297.7,469.7 305.2,469.7 312.6,469.7 320.0,469.7 327.4,469.7 334.8,469.7 342.3,455.6 349.7,455.6 357.1,455.4 364.5,455.4 371.9,455.4 379.4,454.3 386.8,454.3 394.2,455.0 401.6,455.1 409.0,454.9 416.5,455.9 423.9,455.9 431.3,455.9 438.7,455.9 446.1,455.9 453.5,455.9 461.0,455.9 468.4,455.9 475.8,455.9 483.2,455.9 490.6,455.9 498.1,455.9 505.5,455.9 512.9,455.8 520.3,455.8 527.7,455.8 535.2,455.8 542.6,455.8 550.0,457.0 557.4,457.4 564.8,457.4 572.3,457.4 579.7,457.4 587.1,457.4 594.5,457.4 601.9,457.4 609.4,457.4 616.8,458.2 624.2,458.2 631.6,458.2 639.0,458.2 646.5,458.2 653.9,458.2 661.3,458.2 668.7,458.2 676.1,458.2 683.5,458.2 691.0,458.2 698.4,458.2 705.8,458.2 713.2,458.2 720.6,458.2 728.1,458.2 735.5,458.2 742.9,458.2 750.3,458.2 757.7,458.2 765.2,458.2 772.6,456.6 780.0,455.0 780.0,514.8 772.6,512.8 765.2,510.9 757.7,510.9 750.3,510.9 742.9,510.9 735.5,510.9 728.1,510.9 720.6,510.9 713.2,510.9 705.8,510.9 698.4,510.9 691.0,510.9 683.5,510.9 676.1,510.9 668.7,510.9 661.3,510.9 653.9,510.9 646.5,510.9 639.0,510.9 631.6,510.9 624.2,510.9 616.8,510.9 609.4,509.8 601.9,509.8 594.5,509.8 587.1,509.8 579.7,509.8 572.3,509.8 564.8,509.8 557.4,509.8 550.0,509.5 542.6,508.6 535.2,508.6 527.7,508.6 520.3,508.6 512.9,508.6 505.5,507.5 498.1,507.5 490.6,507.5 483.2,507.5 475.8,507.5 468.4,507.5 461.0,507.5 453.5,507.5 446.1,507.5 438.7,507.5 431.3,507.5 423.9,507.5 416.5,507.5 409.0,506.8 401.6,506.9 394.2,506.8 386.8,506.4 379.4,506.3 371.9,507.9 364.5,507.9 357.1,507.9 349.7,507.6 342.3,507.6 334.8,494.4 327.4,494.4 320.0,494.4 312.6,494.4 305.2,494.0 297.7,494.0 290.3,491.8 282.9,491.7 275.5,491.0 268.1,491.0 260.6,491.0 253.2,496.7 245.8,496.4 238.4,485.4 231.0,485.4 223.5,485.4 216.1,485.4 208.7,485.4 201.3,485.1 193.9,485.0 186.5,502.9 179.0,499.3 171.6,499.3 164.2,529.7 156.8,528.5 149.4,528.2 141.9,650.0 134.5,650.0 127.1,650.0 119.7,650.0 112.3,650.0 104.8,650.0 97.4,650.0 90.0,650.0" fill="#f1e05a" opacity="0.6" class="anim" style="animation-delay:600ms;"/>
<polygon points="90.0,650.0 97.4,650.0 104.8,650.0 112.3,650.0 119.7,650.0 127.1,650.0 134.5,650.0 141.9,650.0 149.4,455.5 156.8,455.4 164.2,455.1 171.6,447.0 179.0,447.0 186.5,448.2 193.9,438.9 201.3,439.0 208.7,439.6 216.1,439.6 223.5,439.6 231.0,439.6 238.4,439.6 245.8,445.6 253.2,445.6 260.6,443.3 268.1,443.3 275.5,443.3 282.9,443.6 290.3,443.6 297.7,444.1 305.2,444.1 312.6,444.1 320.0,444.1 327.4,444.1 334.8,444.1 342.3,437.5 349.7,437.5 357.1,437.5 364.5,437.5 371.9,437.5 379.4,437.5 386.8,437.5 394.2,438.4 401.6,438.5 409.0,438.3 416.5,439.3 423.9,439.3 431.3,439.3 438.7,439.3 446.1,439.3 453.5,439.3 461.0,439.3 468.4,439.3 475.8,439.3 483.2,439.3 490.6,439.3 498.1,439.3 505.5,439.3 512.9,439.4 520.3,439.4 527.7,439.4 535.2,439.4 542.6,439.4 550.0,440.7 557.4,441.1 564.8,441.1 572.3,441.1 579.7,441.1 587.1,441.1 594.5,441.1 601.9,441.1 609.4,441.1 616.8,442.0 624.2,442.0 631.6,442.0 639.0,442.0 646.5,442.0 653.9,442.0 661.3,442.0 668.7,442.0 676.1,442.0 683.5,442.0 691.0,442.0 698.4,442.0 705.8,442.0 713.2,442.0 720.6,442.0 728.1,442.0 735.5,442.0 742.9,442.0 750.3,442.0 757.7,442.0 765.2,442.0 772.6,441.8 780.0,441.6 780.0,455.0 772.6,456.6 765.2,458.2 757.7,458.2 750.3,458.2 742.9,458.2 735.5,458.2 728.1,458.2 720.6,458.2 713.2,458.2 705.8,458.2 698.4,458.2 691.0,458.2 683.5,458.2 676.1,458.2 668.7,458.2 661.3,458.2 653.9,458.2 646.5,458.2 639.0,458.2 631.6,458.2 624.2,458.2 616.8,458.2 609.4,457.4 601.9,457.4 594.5,457.4 587.1,457.4 579.7,457.4 572.3,457.4 564.8,457.4 557.4,457.4 550.0,457.0 542.6,455.8 535.2,455.8 527.7,455.8 520.3,455.8 512.9,455.8 505.5,455.9 498.1,455.9 490.6,455.9 483.2,455.9 475.8,455.9 468.4,455.9 461.0,455.9 453.5,455.9 446.1,455.9 438.7,455.9 431.3,455.9 423.9,455.9 416.5,455.9 409.0,454.9 401.6,455.1 394.2,455.0 386.8,454.3 379.4,454.3 371.9,455.4 364.5,455.4 357.1,455.4 349.7,455.6 342.3,455.6 334.8,469.7 327.4,469.7 320.0,469.7 312.6,469.7 305.2,469.7 297.7,469.7 290.3,469.7 282.9,469.7 275.5,469.5 268.1,469.5 260.6,469.5 253.2,473.5 245.8,473.0 238.4,460.6 231.0,460.6 223.5,460.6 216.1,460.6 208.7,460.6 201.3,460.2 193.9,460.1 186.5,477.2 179.0,476.0 171.6,476.0 164.2,489.0 156.8,488.0 149.4,488.4 141.9,650.0 134.5,650.0 127.1,650.0 119.7,650.0 112.3,650.0 104.8,650.0 97.4,650.0 90.0,650.0" fill="#3572A5" opacity="0.6" class="anim" style="animation-delay:700ms;"/>
<polygon points="90.0,650.0 97.4,650.0 104.8,650.0 112.3,650.0 119.7,650.0 127.1,650.0 134.5,650.0 141.9,650.0 149.4,442.3 156.8,442.0 164.2,441.6 171.6,439.5 179.0,439.5 186.5,439.4 193.9,432.3 201.3,432.2 208.7,432.6 216.1,432.6 223.5,432.6 231.0,432.6 238.4,432.6 245.8,439.3 253.2,439.3 260.6,437.4 268.1,437.4 275.5,437.4 282.9,437.3 290.3,437.3 297.7,437.1 305.2,437.1 312.6,437.1 320.0,437.1 327.4,437.1 334.8,437.1 342.3,428.7 349.7,428.6 357.1,428.5 364.5,428.5 371.9,428.5 379.4,427.3 386.8,427.3 394.2,427.1 401.6,427.1 409.0,427.1 416.5,427.0 423.9,427.0 431.3,427.0 438.7,427.0 446.1,427.0 453.5,427.0 461.0,427.0 468.4,427.0 475.8,427.0 483.2,427.0 490.6,427.0 498.1,427.0 505.5,427.0 512.9,427.0 520.3,427.1 527.7,427.1 535.2,427.1 542.6,427.1 550.0,428.4 557.4,428.9 564.8,428.9 572.3,428.9 579.7,428.9 587.1,428.9 594.5,428.9 601.9,428.9 609.4,428.9 616.8,428.7 624.2,428.7 631.6,428.7 639.0,428.7 646.5,428.7 653.9,428.7 661.3,428.7 668.7,428.7 676.1,428.7 683.5,428.7 691.0,428.7 698.4,428.7 705.8,428.7 713.2,428.7 720.6,428.7 728.1,428.7 735.5,428.7 742.9,428.7 750.3,428.7 757.7,428.7 765.2,428.7 772.6,427.8 780.0,426.8 780.0,441.6 772.6,441.8 765.2,442.0 757.7,442.0 750.3,442.0 742.9,442.0 735.5,442.0 728.1,442.0 720.6,442.0 713.2,442.0 705.8,442.0 698.4,442.0 691.0,442.0 683.5,442.0 676.1,442.0 668.7,442.0 661.3,442.0 653.9,442.0 646.5,442.0 639.0,442.0 631.6,442.0 624.2,442.0 616.8,442.0 609.4,441.1 601.9,441.1 594.5,441.1 587.1,441.1 579.7,441.1 572.3,441.1 564.8,441.1 557.4,441.1 550.0,440.7 542.6,439.4 535.2,439.4 527.7,439.4 520.3,439.4 512.9,439.4 505.5,439.3 498.1,439.3 490.6,439.3 483.2,439.3 475.8,439.3 468.4,439.3 461.0,439.3 453.5,439.3 446.1,439.3 438.7,439.3 431.3,439.3 423.9,439.3 416.5,439.3 409.0,438.3 401.6,438.5 394.2,438.4 386.8,437.5 379.4,437.5 371.9,437.5 364.5,437.5 357.1,437.5 349.7,437.5 342.3,437.5 334.8,444.1 327.4,444.1 320.0,444.1 312.6,444.1 305.2,444.1 297.7,444.1 290.3,443.6 282.9,443.6 275.5,443.3 268.1,443.3 260.6,443.3 253.2,445.6 245.8,445.6 238.4,439.6 231.0,439.6 223.5,439.6 216.1,439.6 208.7,439.6 201.3,439.0 193.9,438.9 186.5,448.2 179.0,447.0 171.6,447.0 164.2,455.1 156.8,455.4 149.4,455.5 141.9,650.0 134.5,650.0 127.1,650.0 119.7,650.0 112.3,650.0 104.8,650.0 97.4,650.0 90.0,650.0" fill="#663399" opacity="0.6" class="anim" style="animation-delay:800ms;"/>
<polygon points="90.0,650.0 97.4,650.0 104.8,650.0 112.3,650.0 119.7,650.0 127.1,650.0 134.5,650.0 141.9,650.0 149.4,436.6 156.8,436.3 164.2,435.9 171.6,432.2 179.0,432.2 186.5,432.2 193.9,426.2 201.3,426.1 208.7,426.0 216.1,426.0 223.5,426.0 231.0,426.0 238.4,426.0 245.8,430.8 253.2,430.7 260.6,429.3 268.1,429.3 275.5,429.3 282.9,429.2 290.3,429.2 297.7,428.9 305.2,428.9 312.6,428.8 320.0,428.8 327.4,428.8 334.8,428.8 342.3,423.0 349.7,422.9 357.1,422.9 364.5,422.9 371.9,422.9 379.4,422.0 386.8,422.0 394.2,421.9 401.6,421.9 409.0,421.9 416.5,421.8 423.9,421.8 431.3,421.8 438.7,421.8 446.1,421.8 453.5,421.8 461.0,421.8 468.4,421.8 475.8,421.8 483.2,421.8 490.6,421.8 498.1,421.8 505.5,421.8 512.9,421.7 520.3,421.8 527.7,421.8 535.2,421.8 542.6,421.8 550.0,423.2 557.4,423.6 564.8,423.6 572.3,423.6 579.7,423.6 587.1,423.6 594.5,423.6 601.9,423.6 609.4,423.6 616.8,423.5 624.2,423.5 631.6,423.5 639.0,423.5 646.5,423.5 653.9,423.5 661.3,423.5 668.7,423.5 676.1,423.5 683.5,423.5 691.0,423.5 698.4,423.5 705.8,423.5 713.2,423.5 720.6,423.5 728.1,423.5 735.5,423.5 742.9,423.5 750.3,423.5 757.7,423.5 765.2,423.5 772.6,422.8 780.0,422.2 780.0,426.8 772.6,427.8 765.2,428.7 757.7,428.7 750.3,428.7 742.9,428.7 735.5,428.7 728.1,428.7 720.6,428.7 713.2,428.7 705.8,428.7 698.4,428.7 691.0,428.7 683.5,428.7 676.1,428.7 668.7,428.7 661.3,428.7 653.9,428.7 646.5,428.7 639.0,428.7 631.6,428.7 624.2,428.7 616.8,428.7 609.4,428.9 601.9,428.9 594.5,428.9 587.1,428.9 579.7,428.9 572.3,428.9 564.8,428.9 557.4,428.9 550.0,428.4 542.6,427.1 535.2,427.1 527.7,427.1 520.3,427.1 512.9,427.0 505.5,427.0 498.1,427.0 490.6,427.0 483.2,427.0 475.8,427.0 468.4,427.0 461.0,427.0 453.5,427.0 446.1,427.0 438.7,427.0 431.3,427.0 423.9,427.0 416.5,427.0 409.0,427.1 401.6,427.1 394.2,427.1 386.8,427.3 379.4,427.3 371.9,428.5 364.5,428.5 357.1,428.5 349.7,428.6 342.3,428.7 334.8,437.1 327.4,437.1 320.0,437.1 312.6,437.1 305.2,437.1 297.7,437.1 290.3,437.3 282.9,437.3 275.5,437.4 268.1,437.4 260.6,437.4 253.2,439.3 245.8,439.3 238.4,432.6 231.0,432.6 223.5,432.6 216.1,432.6 208.7,432.6 201.3,432.2 193.9,432.3 186.5,439.4 179.0,439.5 171.6,439.5 164.2,441.6 156.8,442.0 149.4,442.3 141.9,650.0 134.5,650.0 127.1,650.0 119.7,650.0 112.3,650.0 104.8,650.0 97.4,650.0 90.0,650.0" fill="#083fa1" opacity="0.6" class="anim" style="animation-delay:900ms;"/>
<polygon points="90.0,650.0 97.4,650.0 104.8,650.0 112.3,650.0 119.7,650.0 127.1,650.0 134.5,650.0 141.9,650.0 149.4,428.3 156.8,428.1 164.2,427.8 171.6,425.3 179.0,425.3 186.5,425.2 193.9,421.1 201.3,421.1 208.7,421.0 216.1,421.0 223.5,421.0 231.0,421.0 238.4,421.0 245.8,424.3 253.2,424.2 260.6,423.3 268.1,423.3 275.5,423.3 282.9,423.2 290.3,423.2 297.7,423.0 305.2,423.0 312.6,422.9 320.0,422.9 327.4,422.9 334.8,422.9 342.3,418.9 349.7,418.9 357.1,418.8 364.5,418.8 371.9,418.8 379.4,418.3 386.8,418.3 394.2,418.2 401.6,418.2 409.0,418.2 416.5,418.1 423.9,418.1 431.3,418.1 438.7,418.1 446.1,418.1 453.5,418.1 461.0,418.1 468.4,418.1 475.8,418.1 483.2,418.1 490.6,418.1 498.1,418.1 505.5,418.1 512.9,418.1 520.3,418.1 527.7,418.1 535.2,418.1 542.6,418.1 550.0,418.0 557.4,418.0 564.8,418.0 572.3,418.0 579.7,418.0 587.1,418.0 594.5,418.0 601.9,418.0 609.4,418.0 616.8,417.9 624.2,417.9 631.6,417.9 639.0,417.9 646.5,417.9 653.9,417.9 661.3,417.9 668.7,417.9 676.1,417.9 683.5,417.9 691.0,417.9 698.4,417.9 705.8,417.9 713.2,417.9 720.6,417.9 728.1,417.9 735.5,417.9 742.9,417.9 750.3,417.9 757.7,417.9 765.2,417.9 772.6,417.3 780.0,416.7 780.0,422.2 772.6,422.8 765.2,423.5 757.7,423.5 750.3,423.5 742.9,423.5 735.5,423.5 728.1,423.5 720.6,423.5 713.2,423.5 705.8,423.5 698.4,423.5 691.0,423.5 683.5,423.5 676.1,423.5 668.7,423.5 661.3,423.5 653.9,423.5 646.5,423.5 639.0,423.5 631.6,423.5 624.2,423.5 616.8,423.5 609.4,423.6 601.9,423.6 594.5,423.6 587.1,423.6 579.7,423.6 572.3,423.6 564.8,423.6 557.4,423.6 550.0,423.2 542.6,421.8 535.2,421.8 527.7,421.8 520.3,421.8 512.9,421.7 505.5,421.8 498.1,421.8 490.6,421.8 483.2,421.8 475.8,421.8 468.4,421.8 461.0,421.8 453.5,421.8 446.1,421.8 438.7,421.8 431.3,421.8 423.9,421.8 416.5,421.8 409.0,421.9 401.6,421.9 394.2,421.9 386.8,422.0 379.4,422.0 371.9,422.9 364.5,422.9 357.1,422.9 349.7,422.9 342.3,423.0 334.8,428.8 327.4,428.8 320.0,428.8 312.6,428.8 305.2,428.9 297.7,428.9 290.3,429.2 282.9,429.2 275.5,429.3 268.1,429.3 260.6,429.3 253.2,430.7 245.8,430.8 238.4,426.0 231.0,426.0 223.5,426.0 216.1,426.0 208.7,426.0 201.3,426.1 193.9,426.2 186.5,432.2 179.0,432.2 171.6,432.2 164.2,435.9 156.8,436.3 149.4,436.6 141.9,650.0 134.5,650.0 127.1,650.0 119.7,650.0 112.3,650.0 104.8,650.0 97.4,650.0 90.0,650.0" fill="#F05138" opacity="0.6" class="anim" style="animation-delay:1000ms;"/>
<polygon points="90.0,650.0 97.4,650.0 104.8,650.0 112.3,650.0 119.7,650.0 127.1,650.0 134.5,650.0 141.9,650.0 149.4,418.7 156.8,418.6 164.2,418.5 171.6,417.3 179.0,417.3 186.5,417.2 193.9,415.3 201.3,415.3 208.7,415.2 216.1,415.2 223.5,415.2 231.0,415.2 238.4,415.2 245.8,416.8 253.2,416.8 260.6,416.3 268.1,416.3 275.5,416.3 282.9,416.3 290.3,416.3 297.7,416.2 305.2,416.2 312.6,416.2 320.0,416.2 327.4,416.2 334.8,416.2 342.3,414.2 349.7,414.2 357.1,414.2 364.5,414.2 371.9,414.2 379.4,413.9 386.8,413.9 394.2,413.9 401.6,413.9 409.0,413.9 416.5,413.9 423.9,413.9 431.3,413.9 438.7,413.9 446.1,413.9 453.5,413.9 461.0,413.9 468.4,413.9 475.8,413.9 483.2,413.9 490.6,413.9 498.1,413.9 505.5,413.9 512.9,413.8 520.3,413.8 527.7,413.8 535.2,413.8 542.6,413.8 550.0,413.8 557.4,413.8 564.8,413.8 572.3,413.8 579.7,413.8 587.1,413.8 594.5,413.8 601.9,413.8 609.4,413.8 616.8,413.8 624.2,413.8 631.6,413.8 639.0,413.8 646.5,413.8 653.9,413.8 661.3,413.8 668.7,413.8 676.1,413.8 683.5,413.8 691.0,413.8 698.4,413.8 705.8,413.8 713.2,413.8 720.6,413.8 728.1,413.8 735.5,413.8 742.9,413.8 750.3,413.8 757.7,413.8 765.2,413.8 772.6,413.6 780.0,413.4 780.0,416.7 772.6,417.3 765.2,417.9 757.7,417.9 750.3,417.9 742.9,417.9 735.5,417.9 728.1,417.9 720.6,417.9 713.2,417.9 705.8,417.9 698.4,417.9 691.0,417.9 683.5,417.9 676.1,417.9 668.7,417.9 661.3,417.9 653.9,417.9 646.5,417.9 639.0,417.9 631.6,417.9 624.2,417.9 616.8,417.9 609.4,418.0 601.9,418.0 594.5,418.0 587.1,418.0 579.7,418.0 572.3,418.0 564.8,418.0 557.4,418.0 550.0,418.0 542.6,418.1 535.2,418.1 527.7,418.1 520.3,418.1 512.9,418.1 505.5,418.1 498.1,418.1 490.6,418.1 483.2,418.1 475.8,418.1 468.4,418.1 461.0,418.1 453.5,418.1 446.1,418.1 438.7,418.1 431.3,418.1 423.9,418.1 416.5,418.1 409.0,418.2 401.6,418.2 394.2,418.2 386.8,418.3 379.4,418.3 371.9,418.8 364.5,418.8 357.1,418.8 349.7,418.9 342.3,418.9 334.8,422.9 327.4,422.9 320.0,422.9 312.6,422.9 305.2,423.0 297.7,423.0 290.3,423.2 282.9,423.2 275.5,423.3 268.1,423.3 260.6,423.3 253.2,424.2 245.8,424.3 238.4,421.0 231.0,421.0 223.5,421.0 216.1,421.0 208.7,421.0 201.3,421.1 193.9,421.1 186.5,425.2 179.0,425.3 171.6,425.3 164.2,427.8 156.8,428.1 149.4,428.3 141.9,650.0 134.5,650.0 127.1,650.0 119.7,650.0 112.3,650.0 104.8,650.0 97.4,650.0 90.0,650.0" fill="#6E4C13" opacity="0.6" class="anim" style="animation-delay:1100ms;"/>
<polygon points="90.0,650.0 97.4,650.0 104.8,650.0 112.3,650.0 119.7,650.0 127.1,650.0 134.5,650.0 141.9,650.0 149.4,414.4 156.8,414.4 164.2,414.3 171.6,413.7 179.0,413.7 186.5,413.7 193.9,412.7 201.3,412.7 208.7,412.7 216.1,412.7 223.5,412.7 231.0,412.7 238.4,412.7 245.8,413.5 253.2,413.4 260.6,413.2 268.1,413.2 275.5,413.2 282.9,413.2 290.3,413.2 297.7,413.1 305.2,413.1 312.6,413.1 320.0,413.1 327.4,413.1 334.8,413.1 342.3,412.2 349.7,412.1 357.1,412.1 364.5,412.1 371.9,412.1 379.4,412.0 386.8,412.0 394.2,412.0 401.6,412.0 409.0,412.0 416.5,412.0 423.9,412.0 431.3,412.0 438.7,412.0 446.1,412.0 453.5,412.0 461.0,412.0 468.4,412.0 475.8,412.0 483.2,412.0 490.6,412.0 498.1,412.0 505.5,412.0 512.9,411.9 520.3,411.9 527.7,411.9 535.2,411.9 542.6,411.9 550.0,411.9 557.4,411.9 564.8,411.9 572.3,411.9 579.7,411.9 587.1,411.9 594.5,411.9 601.9,411.9 609.4,411.9 616.8,411.9 624.2,411.9 631.6,411.9 639.0,411.9 646.5,411.9 653.9,411.9 661.3,411.9 668.7,411.9 676.1,411.9 683.5,411.9 691.0,411.9 698.4,411.9 705.8,411.9 713.2,411.9 720.6,411.9 728.1,411.9 735.5,411.9 742.9,411.9 750.3,411.9 757.7,411.9 765.2,411.9 772.6,411.9 780.0,411.9 780.0,413.4 772.6,413.6 765.2,413.8 757.7,413.8 750.3,413.8 742.9,413.8 735.5,413.8 728.1,413.8 720.6,413.8 713.2,413.8 705.8,413.8 698.4,413.8 691.0,413.8 683.5,413.8 676.1,413.8 668.7,413.8 661.3,413.8 653.9,413.8 646.5,413.8 639.0,413.8 631.6,413.8 624.2,413.8 616.8,413.8 609.4,413.8 601.9,413.8 594.5,413.8 587.1,413.8 579.7,413.8 572.3,413.8 564.8,413.8 557.4,413.8 550.0,413.8 542.6,413.8 535.2,413.8 527.7,413.8 520.3,413.8 512.9,413.8 505.5,413.9 498.1,413.9 490.6,413.9 483.2,413.9 475.8,413.9 468.4,413.9 461.0,413.9 453.5,413.9 446.1,413.9 438.7,413.9 431.3,413.9 423.9,413.9 416.5,413.9 409.0,413.9 401.6,413.9 394.2,413.9 386.8,413.9 379.4,413.9 371.9,414.2 364.5,414.2 357.1,414.2 349.7,414.2 342.3,414.2 334.8,416.2 327.4,416.2 320.0,416.2 312.6,416.2 305.2,416.2 297.7,416.2 290.3,416.3 282.9,416.3 275.5,416.3 268.1,416.3 260.6,416.3 253.2,416.8 245.8,416.8 238.4,415.2 231.0,415.2 223.5,415.2 216.1,415.2 208.7,415.2 201.3,415.3 193.9,415.3 186.5,417.2 179.0,417.3 171.6,417.3 164.2,418.5 156.8,418.6 149.4,418.7 141.9,650.0 134.5,650.0 127.1,650.0 119.7,650.0 112.3,650.0 104.8,650.0 97.4,650.0 90.0,650.0" fill="#b07219" opacity="0.6" class="anim" style="animation-delay:1200ms;"/>
<line x1="765.2" y1="100" x2="765.2" y2="650" stroke="#c9d1d9" stroke-width="1" stroke-dasharray="4,3" opacity="0.35"/>
<text x="772.6" y="112" text-anchor="middle" class="axis-label" opacity="0.6">Jul 23, 2026</text>
<text x="90.0" y="668" text-anchor="middle" class="axis-label" transform="rotate(-35 90.0 668)">2026-02</text>
<text x="312.6" y="668" text-anchor="middle" class="axis-label" transform="rotate(-35 312.6 668)">2026-03</text>
<text x="535.2" y="668" text-anchor="middle" class="axis-label" transform="rotate(-35 535.2 668)">2026-06</text>
<text x="757.7" y="668" text-anchor="middle" class="axis-label" transform="rotate(-35 757.7 668)">2026-07</text>
<line x1="796" y1="110" x2="824" y2="110" stroke="#3fb950" stroke-width="2"/>
<text x="832" y="116" class="legend-text">Lines Added</text>
<line x1="796" y1="140" x2="824" y2="140" stroke="#f85149" stroke-width="1.5"/>
<text x="832" y="146" class="legend-text">Lines Deleted</text>
<line x1="796" y1="170" x2="824" y2="170" stroke="#e3b341" stroke-width="1.5" stroke-dasharray="4,3"/>
<text x="832" y="176" class="legend-text">&#x2605; Stars</text>
<text x="796" y="200" class="subtitle">Languages</text>
<rect x="796" y="212" width="12" height="12" rx="2" fill="#e34c26" opacity="0.8" class="anim" style="animation-delay:800ms;"/>
<text x="814" y="223" class="legend-text">HTML (58%→56%)</text>
<rect x="796" y="234" width="12" height="12" rx="2" fill="#f1e05a" opacity="0.8" class="anim" style="animation-delay:880ms;"/>
<text x="814" y="245" class="legend-text">JavaScript (22%→25%)</text>
<rect x="796" y="256" width="12" height="12" rx="2" fill="#3572A5" opacity="0.8" class="anim" style="animation-delay:960ms;"/>
<text x="814" y="267" class="legend-text">Python (7%→6%)</text>
<rect x="796" y="278" width="12" height="12" rx="2" fill="#663399" opacity="0.8" class="anim" style="animation-delay:1040ms;"/>
<text x="814" y="289" class="legend-text">CSS (6%→6%)</text>
<rect x="796" y="300" width="12" height="12" rx="2" fill="#083fa1" opacity="0.8" class="anim" style="animation-delay:1120ms;"/>
<text x="814" y="311" class="legend-text">Markdown (2%→2%)</text>
<rect x="796" y="322" width="12" height="12" rx="2" fill="#F05138" opacity="0.8" class="anim" style="animation-delay:1200ms;"/>
<text x="814" y="333" class="legend-text">Swift (2%→2%)</text>
<rect x="796" y="344" width="12" height="12" rx="2" fill="#6E4C13" opacity="0.8" class="anim" style="animation-delay:1280ms;"/>
<text x="814" y="355" class="legend-text">Assembly (2%→1%)</text>
<rect x="796" y="366" width="12" height="12" rx="2" fill="#b07219" opacity="0.8" class="anim" style="animation-delay:1360ms;"/>
<text x="814" y="377" class="legend-text">Java (1%→1%)</text>
<text x="796" y="412" class="subtitle">Contributions</text>
<text x="796" y="432" class="axis-label">2023: 39</text>
<text x="796" y="452" class="axis-label">2024: 646</text>
<text x="796" y="472" class="axis-label">2025: 1,780</text>
<text x="796" y="492" class="axis-label">2026: 491</text>
<text x="796" y="522" class="subtitle">Statistics</text>
<text x="796" y="542" class="axis-label">Active weeks: 88</text>
<text x="796" y="562" class="axis-label">Add/Del ratio: 1.8x</text>
<text x="796" y="582" class="axis-label">Avg lines/wk: 18K</text>
<text x="796" y="602" class="axis-label">Peak: 2026-02-15</text>
<text x="796" y="622" class="axis-label">  (543K lines)</text>
<text x="90" y="742" class="axis-label">Total: +1,040,332 / -576,819 lines &#xb7; 2,956 contributions &#xb7; 80 repos &#xb7; &#x2605; 37</text>
</svg>