<svg xmlns="http://www.w3.org/2000/svg" width="1000" height="760" style="max-width: 100%;" viewBox="0 0 1000 760">

<defs>
  <linearGradient id="areaGrad" x1="0" y1="0" x2="0" y2="1">
    <stop offset="0%" stop-color="#58a6ff" stop-opacity="0.35"/>
    <stop offset="100%" stop-color="#58a6ff" stop-opacity="0.02"/>
  </linearGradient>
  <linearGradient id="addGrad" x1="0" y1="0" x2="0" y2="1">
    <stop offset="0%" stop-color="#3fb950" stop-opacity="0.35"/>
    <stop offset="100%" stop-color="#3fb950" stop-opacity="0.02"/>
  </linearGradient>
  <linearGradient id="delGrad" x1="0" y1="0" x2="0" y2="1">
    <stop offset="0%" stop-color="#f85149" stop-opacity="0.25"/>
    <stop offset="100%" stop-color="#f85149" stop-opacity="0.02"/>
  </linearGradient>
</defs>
<style>
  .title { font: bold 28px 'Segoe UI', Ubuntu, Sans-Serif; fill: #c9d1d9; }
  .subtitle { font: 600 20px 'Segoe UI', Ubuntu, Sans-Serif; fill: #c9d1d9; opacity: 0.8; }
  .axis-label { font: 18px 'Segoe UI', Ubuntu, Sans-Serif; fill: #c9d1d9; opacity: 0.7; }
  .legend-text { font: 14px 'Segoe UI', Ubuntu, Sans-Serif; fill: #c9d1d9; }
  .value-text { font: bold 18px 'Segoe UI', Ubuntu, Sans-Serif; fill: #c9d1d9; }
  .stat-value { font: bold 22px 'Segoe UI', Ubuntu, Sans-Serif; fill: #c9d1d9; }
  .stat-label { font: 18px 'Segoe UI', Ubuntu, Sans-Serif; fill: #c9d1d9; opacity: 0.7; }
  @keyframes fadeIn { from { opacity: 0; } to { opacity: 1; } }
  .anim { animation: fadeIn 0.6s ease-in-out forwards; opacity: 0; }
</style>

<rect x="0.5" y="0.5" rx="4.5" width="999" height="759" fill="#161b22" stroke="#21262d"/>
<text x="90" y="45" class="title">Activity History</text>
<text x="90" y="72" class="subtitle">Lines added vs deleted &amp; activity trends over time</text>
<line x1="90" y1="340.0" x2="780" y2="340.0" stroke="#21262d" stroke-width="1"/>
<text x="82" y="344.0" text-anchor="end" class="axis-label">0</text>
<line x1="90" y1="280.0" x2="780" y2="280.0" stroke="#21262d" stroke-width="1"/>
<text x="82" y="284.0" text-anchor="end" class="axis-label">461K</text>
<line x1="90" y1="220.0" x2="780" y2="220.0" stroke="#21262d" stroke-width="1"/>
<text x="82" y="224.0" text-anchor="end" class="axis-label">922K</text>
<line x1="90" y1="160.0" x2="780" y2="160.0" stroke="#21262d" stroke-width="1"/>
<text x="82" y="164.0" text-anchor="end" class="axis-label">1.4M</text>
<line x1="90" y1="100.0" x2="780" y2="100.0" stroke="#21262d" stroke-width="1"/>
<text x="82" y="104.0" text-anchor="end" class="axis-label">1.8M</text>
<polygon points="90.0,340.0 90.0,292.5 100.0,294.2 110.0,292.5 120.0,294.2 130.0,305.2 140.0,283.4 150.0,283.4 160.0,275.2 170.0,274.9 180.0,274.4 190.0,274.3 200.0,259.7 210.0,259.7 220.0,259.6 230.0,238.0 240.0,237.7 250.0,237.4 260.0,237.4 270.0,237.4 280.0,237.4 290.0,237.4 300.0,236.9 310.0,222.4 320.0,222.4 330.0,222.4 340.0,222.4 350.0,222.0 360.0,222.0 370.0,221.4 380.0,221.4 390.0,221.3 400.0,221.3 410.0,221.3 420.0,221.3 430.0,221.4 440.0,221.3 450.0,221.3 460.0,221.3 470.0,221.3 480.0,221.3 490.0,221.3 500.0,220.7 510.0,221.0 520.0,220.3 530.0,220.0 540.0,220.0 550.0,220.0 560.0,220.0 570.0,220.0 580.0,220.0 590.0,219.9 600.0,219.9 610.0,219.9 620.0,220.0 630.0,220.3 640.0,221.7 650.0,220.3 660.0,219.0 670.0,219.0 680.0,219.0 690.0,219.0 700.0,219.0 710.0,211.5 720.0,204.8 730.0,204.8 740.0,204.8 750.0,204.8 760.0,204.8 770.0,196.8 780.0,188.9 780.0,340.0" fill="url(#addGrad)" class="anim" style="animation-delay:200ms;"/>
<polyline points="90.0,292.5 100.0,294.2 110.0,292.5 120.0,294.2 130.0,305.2 140.0,283.4 150.0,283.4 160.0,275.2 170.0,274.9 180.0,274.4 190.0,274.3 200.0,259.7 210.0,259.7 220.0,259.6 230.0,238.0 240.0,237.7 250.0,237.4 260.0,237.4 270.0,237.4 280.0,237.4 290.0,237.4 300.0,236.9 310.0,222.4 320.0,222.4 330.0,222.4 340.0,222.4 350.0,222.0 360.0,222.0 370.0,221.4 380.0,221.4 390.0,221.3 400.0,221.3 410.0,221.3 420.0,221.3 430.0,221.4 440.0,221.3 450.0,221.3 460.0,221.3 470.0,221.3 480.0,221.3 490.0,221.3 500.0,220.7 510.0,221.0 520.0,220.3 530.0,220.0 540.0,220.0 550.0,220.0 560.0,220.0 570.0,220.0 580.0,220.0 590.0,219.9 600.0,219.9 610.0,219.9 620.0,220.0 630.0,220.3 640.0,221.7 650.0,220.3 660.0,219.0 670.0,219.0 680.0,219.0 690.0,219.0 700.0,219.0 710.0,211.5 720.0,204.8 730.0,204.8 740.0,204.8 750.0,204.8 760.0,204.8" fill="none" stroke="#3fb950" stroke-width="2" stroke-linejoin="round" class="anim" style="animation-delay:250ms;"/>
<polyline points="760.0,204.8 770.0,196.8 780.0,188.9" fill="none" stroke="#3fb950" stroke-width="1.5" stroke-dasharray="5,4" stroke-linejoin="round" opacity="0.6" class="anim" style="animation-delay:250ms;"/>
<polygon points="90.0,340.0 90.0,326.6 100.0,328.0 110.0,326.7 120.0,328.0 130.0,333.7 140.0,325.0 150.0,325.0 160.0,324.1 170.0,323.7 180.0,323.5 190.0,323.4 200.0,307.7 210.0,307.7 220.0,307.6 230.0,289.8 240.0,289.7 250.0,289.7 260.0,289.7 270.0,289.7 280.0,289.7 290.0,289.7 300.0,280.4 310.0,266.1 320.0,266.1 330.0,266.1 340.0,266.1 350.0,266.0 360.0,266.0 370.0,266.0 380.0,265.9 390.0,265.9 400.0,265.9 410.0,265.9 420.0,265.9 430.0,265.9 440.0,265.9 450.0,265.9 460.0,265.9 470.0,265.9 480.0,265.9 490.0,265.9 500.0,265.9 510.0,266.0 520.0,265.5 530.0,265.5 540.0,265.5 550.0,265.5 560.0,265.5 570.0,265.5 580.0,265.5 590.0,265.5 600.0,265.5 610.0,265.5 620.0,265.5 630.0,265.6 640.0,266.4 650.0,265.9 660.0,265.1 670.0,265.0 680.0,265.0 690.0,265.0 700.0,265.0 710.0,264.9 720.0,264.9 730.0,264.9 740.0,264.9 750.0,264.9 760.0,264.9 770.0,258.0 780.0,251.1 780.0,340.0" fill="url(#delGrad)" class="anim" style="animation-delay:300ms;"/>
<polyline points="90.0,326.6 100.0,328.0 110.0,326.7 120.0,328.0 130.0,333.7 140.0,325.0 150.0,325.0 160.0,324.1 170.0,323.7 180.0,323.5 190.0,323.4 200.0,307.7 210.0,307.7 220.0,307.6 230.0,289.8 240.0,289.7 250.0,289.7 260.0,289.7 270.0,289.7 280.0,289.7 290.0,289.7 300.0,280.4 310.0,266.1 320.0,266.1 330.0,266.1 340.0,266.1 350.0,266.0 360.0,266.0 370.0,266.0 380.0,265.9 390.0,265.9 400.0,265.9 410.0,265.9 420.0,265.9 430.0,265.9 440.0,265.9 450.0,265.9 460.0,265.9 470.0,265.9 480.0,265.9 490.0,265.9 500.0,265.9 510.0,266.0 520.0,265.5 530.0,265.5 540.0,265.5 550.0,265.5 560.0,265.5 570.0,265.5 580.0,265.5 590.0,265.5 600.0,265.5 610.0,265.5 620.0,265.5 630.0,265.6 640.0,266.4 650.0,265.9 660.0,265.1 670.0,265.0 680.0,265.0 690.0,265.0 700.0,265.0 710.0,264.9 720.0,264.9 730.0,264.9 740.0,264.9 750.0,264.9 760.0,264.9" fill="none" stroke="#f85149" stroke-width="1.5" stroke-linejoin="round" class="anim" style="animation-delay:350ms;"/>
<polyline points="760.0,264.9 770.0,258.0 780.0,251.1" fill="none" stroke="#f85149" stroke-width="1" stroke-dasharray="5,4" stroke-linejoin="round" opacity="0.6" class="anim" style="animation-delay:350ms;"/>
<polyline points="90.0,340.0 100.0,340.0 110.0,340.0 120.0,340.0 130.0,340.0 140.0,340.0 150.0,340.0 160.0,340.0 170.0,308.0 180.0,308.0 190.0,308.0 200.0,308.0 210.0,308.0 220.0,308.0 230.0,308.0 240.0,308.0 250.0,308.0 260.0,308.0 270.0,308.0 280.0,308.0 290.0,308.0 300.0,308.0 310.0,308.0 320.0,308.0 330.0,308.0 340.0,308.0 350.0,308.0 360.0,308.0 370.0,308.0 380.0,308.0 390.0,308.0 400.0,308.0 410.0,308.0 420.0,308.0 430.0,276.0 440.0,276.0 450.0,276.0 460.0,276.0 470.0,276.0 480.0,276.0 490.0,276.0 500.0,276.0 510.0,244.0 520.0,244.0 530.0,244.0 540.0,244.0 550.0,244.0 560.0,244.0 570.0,244.0 580.0,244.0 590.0,244.0 600.0,244.0 610.0,244.0 620.0,244.0 630.0,244.0 640.0,244.0 650.0,244.0 660.0,244.0 670.0,180.0 680.0,180.0 690.0,180.0 700.0,180.0 710.0,180.0 720.0,180.0 730.0,180.0 740.0,180.0 750.0,180.0 760.0,180.0" fill="none" stroke="#e3b341" stroke-width="1.5" stroke-dasharray="4,3" stroke-linejoin="round" class="anim" style="animation-delay:400ms;"/>
<polyline points="760.0,180.0 770.0,180.0 780.0,148.0" fill="none" stroke="#e3b341" stroke-width="1" stroke-dasharray="3,5" stroke-linejoin="round" opacity="0.5" class="anim" style="animation-delay:400ms;"/>
<text x="90" y="90" class="subtitle">Lines Added vs Deleted (per snapshot)</text>
<text x="90" y="400" class="subtitle">Programming Language Development (%)</text>
<line x1="90" y1="650.0" x2="780" y2="650.0" stroke="#21262d" stroke-width="1"/>
<text x="82" y="654.0" text-anchor="end" class="axis-label">0%</text>
<line x1="90" y1="590.0" x2="780" y2="590.0" stroke="#21262d" stroke-width="1"/>
<text x="82" y="594.0" text-anchor="end" class="axis-label">25%</text>
<line x1="90" y1="530.0" x2="780" y2="530.0" stroke="#21262d" stroke-width="1"/>
<text x="82" y="534.0" text-anchor="end" class="axis-label">50%</text>
<line x1="90" y1="470.0" x2="780" y2="470.0" stroke="#21262d" stroke-width="1"/>
<text x="82" y="474.0" text-anchor="end" class="axis-label">75%</text>
<line x1="90" y1="410.0" x2="780" y2="410.0" stroke="#21262d" stroke-width="1"/>
<text x="82" y="414.0" text-anchor="end" class="axis-label">100%</text>
<polygon points="90.0,650.0 100.0,650.0 110.0,650.0 120.0,650.0 130.0,650.0 140.0,650.0 150.0,650.0 160.0,650.0 170.0,528.2 180.0,528.5 190.0,529.7 200.0,499.3 210.0,499.3 220.0,502.9 230.0,485.0 240.0,485.1 250.0,485.4 260.0,485.4 270.0,485.4 280.0,485.4 290.0,485.4 300.0,496.4 310.0,496.7 320.0,491.0 330.0,491.0 340.0,491.0 350.0,491.7 360.0,491.8 370.0,494.0 380.0,494.0 390.0,494.4 400.0,494.4 410.0,494.4 420.0,494.4 430.0,507.6 440.0,507.6 450.0,507.9 460.0,507.9 470.0,507.9 480.0,506.3 490.0,506.4 500.0,506.8 510.0,506.9 520.0,506.8 530.0,507.5 540.0,507.5 550.0,507.5 560.0,507.5 570.0,507.5 580.0,507.5 590.0,507.5 600.0,507.5 610.0,507.5 620.0,507.5 630.0,507.5 640.0,507.5 650.0,507.5 660.0,508.6 670.0,508.6 680.0,508.6 690.0,508.6 700.0,508.6 710.0,509.5 720.0,509.8 730.0,509.8 740.0,509.8 750.0,509.8 760.0,509.8 770.0,511.6 780.0,513.5 780.0,650.0 770.0,650.0 760.0,650.0 750.0,650.0 740.0,650.0 730.0,650.0 720.0,650.0 710.0,650.0 700.0,650.0 690.0,650.0 680.0,650.0 670.0,650.0 660.0,650.0 650.0,650.0 640.0,650.0 630.0,650.0 620.0,650.0 610.0,650.0 600.0,650.0 590.0,650.0 580.0,650.0 570.0,650.0 560.0,650.0 550.0,650.0 540.0,650.0 530.0,650.0 520.0,650.0 510.0,650.0 500.0,650.0 490.0,650.0 480.0,650.0 470.0,650.0 460.0,650.0 450.0,650.0 440.0,650.0 430.0,650.0 420.0,650.0 410.0,650.0 400.0,650.0 390.0,650.0 380.0,650.0 370.0,650.0 360.0,650.0 350.0,650.0 340.0,650.0 330.0,650.0 320.0,650.0 310.0,650.0 300.0,650.0 290.0,650.0 280.0,650.0 270.0,650.0 260.0,650.0 250.0,650.0 240.0,650.0 230.0,650.0 220.0,650.0 210.0,650.0 200.0,650.0 190.0,650.0 180.0,650.0 170.0,650.0 160.0,650.0 150.0,650.0 140.0,650.0 130.0,650.0 120.0,650.0 110.0,650.0 100.0,650.0 90.0,650.0" fill="#e34c26" opacity="0.6" class="anim" style="animation-delay:500ms;"/>
<polygon points="90.0,650.0 100.0,650.0 110.0,650.0 120.0,650.0 130.0,650.0 140.0,650.0 150.0,650.0 160.0,650.0 170.0,488.4 180.0,488.0 190.0,489.0 200.0,476.0 210.0,476.0 220.0,477.2 230.0,460.1 240.0,460.2 250.0,460.6 260.0,460.6 270.0,460.6 280.0,460.6 290.0,460.6 300.0,473.0 310.0,473.5 320.0,469.5 330.0,469.5 340.0,469.5 350.0,469.7 360.0,469.7 370.0,469.7 380.0,469.7 390.0,469.7 400.0,469.7 410.0,469.7 420.0,469.7 430.0,455.6 440.0,455.6 450.0,455.4 460.0,455.4 470.0,455.4 480.0,454.3 490.0,454.3 500.0,455.0 510.0,455.1 520.0,454.9 530.0,455.9 540.0,455.9 550.0,455.9 560.0,455.9 570.0,455.9 580.0,455.9 590.0,455.9 600.0,455.9 610.0,455.9 620.0,455.9 630.0,455.9 640.0,455.9 650.0,455.9 660.0,455.8 670.0,455.8 680.0,455.8 690.0,455.8 700.0,455.8 710.0,457.0 720.0,457.4 730.0,457.4 740.0,457.4 750.0,457.4 760.0,457.4 770.0,454.9 780.0,452.3 780.0,513.5 770.0,511.6 760.0,509.8 750.0,509.8 740.0,509.8 730.0,509.8 720.0,509.8 710.0,509.5 700.0,508.6 690.0,508.6 680.0,508.6 670.0,508.6 660.0,508.6 650.0,507.5 640.0,507.5 630.0,507.5 620.0,507.5 610.0,507.5 600.0,507.5 590.0,507.5 580.0,507.5 570.0,507.5 560.0,507.5 550.0,507.5 540.0,507.5 530.0,507.5 520.0,506.8 510.0,506.9 500.0,506.8 490.0,506.4 480.0,506.3 470.0,507.9 460.0,507.9 450.0,507.9 440.0,507.6 430.0,507.6 420.0,494.4 410.0,494.4 400.0,494.4 390.0,494.4 380.0,494.0 370.0,494.0 360.0,491.8 350.0,491.7 340.0,491.0 330.0,491.0 320.0,491.0 310.0,496.7 300.0,496.4 290.0,485.4 280.0,485.4 270.0,485.4 260.0,485.4 250.0,485.4 240.0,485.1 230.0,485.0 220.0,502.9 210.0,499.3 200.0,499.3 190.0,529.7 180.0,528.5 170.0,528.2 160.0,650.0 150.0,650.0 140.0,650.0 130.0,650.0 120.0,650.0 110.0,650.0 100.0,650.0 90.0,650.0" fill="#f1e05a" opacity="0.6" class="anim" style="animation-delay:600ms;"/>
<polygon points="90.0,650.0 100.0,650.0 110.0,650.0 120.0,650.0 130.0,650.0 140.0,650.0 150.0,650.0 160.0,650.0 170.0,455.5 180.0,455.4 190.0,455.1 200.0,447.0 210.0,447.0 220.0,448.2 230.0,438.9 240.0,439.0 250.0,439.6 260.0,439.6 270.0,439.6 280.0,439.6 290.0,439.6 300.0,445.6 310.0,445.6 320.0,443.3 330.0,443.3 340.0,443.3 350.0,443.6 360.0,443.6 370.0,444.1 380.0,444.1 390.0,444.1 400.0,444.1 410.0,444.1 420.0,444.1 430.0,437.5 440.0,437.5 450.0,437.5 460.0,437.5 470.0,437.5 480.0,437.5 490.0,437.5 500.0,438.4 510.0,438.5 520.0,438.3 530.0,439.3 540.0,439.3 550.0,439.3 560.0,439.3 570.0,439.3 580.0,439.3 590.0,439.3 600.0,439.3 610.0,439.3 620.0,439.3 630.0,439.3 640.0,439.3 650.0,439.3 660.0,439.4 670.0,439.4 680.0,439.4 690.0,439.4 700.0,439.4 710.0,440.7 720.0,441.1 730.0,441.1 740.0,441.1 750.0,441.1 760.0,441.1 770.0,440.4 780.0,439.7 780.0,452.3 770.0,454.9 760.0,457.4 750.0,457.4 740.0,457.4 730.0,457.4 720.0,457.4 710.0,457.0 700.0,455.8 690.0,455.8 680.0,455.8 670.0,455.8 660.0,455.8 650.0,455.9 640.0,455.9 630.0,455.9 620.0,455.9 610.0,455.9 600.0,455.9 590.0,455.9 580.0,455.9 570.0,455.9 560.0,455.9 550.0,455.9 540.0,455.9 530.0,455.9 520.0,454.9 510.0,455.1 500.0,455.0 490.0,454.3 480.0,454.3 470.0,455.4 460.0,455.4 450.0,455.4 440.0,455.6 430.0,455.6 420.0,469.7 410.0,469.7 400.0,469.7 390.0,469.7 380.0,469.7 370.0,469.7 360.0,469.7 350.0,469.7 340.0,469.5 330.0,469.5 320.0,469.5 310.0,473.5 300.0,473.0 290.0,460.6 280.0,460.6 270.0,460.6 260.0,460.6 250.0,460.6 240.0,460.2 230.0,460.1 220.0,477.2 210.0,476.0 200.0,476.0 190.0,489.0 180.0,488.0 170.0,488.4 160.0,650.0 150.0,650.0 140.0,650.0 130.0,650.0 120.0,650.0 110.0,650.0 100.0,650.0 90.0,650.0" fill="#3572A5" opacity="0.6" class="anim" style="animation-delay:700ms;"/>
<polygon points="90.0,650.0 100.0,650.0 110.0,650.0 120.0,650.0 130.0,650.0 140.0,650.0 150.0,650.0 160.0,650.0 170.0,442.3 180.0,442.0 190.0,441.6 200.0,439.5 210.0,439.5 220.0,439.4 230.0,432.3 240.0,432.2 250.0,432.6 260.0,432.6 270.0,432.6 280.0,432.6 290.0,432.6 300.0,439.3 310.0,439.3 320.0,437.4 330.0,437.4 340.0,437.4 350.0,437.3 360.0,437.3 370.0,437.1 380.0,437.1 390.0,437.1 400.0,437.1 410.0,437.1 420.0,437.1 430.0,428.7 440.0,428.6 450.0,428.5 460.0,428.5 470.0,428.5 480.0,427.3 490.0,427.3 500.0,427.1 510.0,427.1 520.0,427.1 530.0,427.0 540.0,427.0 550.0,427.0 560.0,427.0 570.0,427.0 580.0,427.0 590.0,427.0 600.0,427.0 610.0,427.0 620.0,427.0 630.0,427.0 640.0,427.0 650.0,427.0 660.0,427.0 670.0,427.1 680.0,427.1 690.0,427.1 700.0,427.1 710.0,428.4 720.0,428.9 730.0,428.9 740.0,428.9 750.0,428.9 760.0,428.9 770.0,427.4 780.0,426.0 780.0,439.7 770.0,440.4 760.0,441.1 750.0,441.1 740.0,441.1 730.0,441.1 720.0,441.1 710.0,440.7 700.0,439.4 690.0,439.4 680.0,439.4 670.0,439.4 660.0,439.4 650.0,439.3 640.0,439.3 630.0,439.3 620.0,439.3 610.0,439.3 600.0,439.3 590.0,439.3 580.0,439.3 570.0,439.3 560.0,439.3 550.0,439.3 540.0,439.3 530.0,439.3 520.0,438.3 510.0,438.5 500.0,438.4 490.0,437.5 480.0,437.5 470.0,437.5 460.0,437.5 450.0,437.5 440.0,437.5 430.0,437.5 420.0,444.1 410.0,444.1 400.0,444.1 390.0,444.1 380.0,444.1 370.0,444.1 360.0,443.6 350.0,443.6 340.0,443.3 330.0,443.3 320.0,443.3 310.0,445.6 300.0,445.6 290.0,439.6 280.0,439.6 270.0,439.6 260.0,439.6 250.0,439.6 240.0,439.0 230.0,438.9 220.0,448.2 210.0,447.0 200.0,447.0 190.0,455.1 180.0,455.4 170.0,455.5 160.0,650.0 150.0,650.0 140.0,650.0 130.0,650.0 120.0,650.0 110.0,650.0 100.0,650.0 90.0,650.0" fill="#663399" opacity="0.6" class="anim" style="animation-delay:800ms;"/>
<polygon points="90.0,650.0 100.0,650.0 110.0,650.0 120.0,650.0 130.0,650.0 140.0,650.0 150.0,650.0 160.0,650.0 170.0,436.6 180.0,436.3 190.0,435.9 200.0,432.2 210.0,432.2 220.0,432.2 230.0,426.2 240.0,426.1 250.0,426.0 260.0,426.0 270.0,426.0 280.0,426.0 290.0,426.0 300.0,430.8 310.0,430.7 320.0,429.3 330.0,429.3 340.0,429.3 350.0,429.2 360.0,429.2 370.0,428.9 380.0,428.9 390.0,428.8 400.0,428.8 410.0,428.8 420.0,428.8 430.0,423.0 440.0,422.9 450.0,422.9 460.0,422.9 470.0,422.9 480.0,422.0 490.0,422.0 500.0,421.9 510.0,421.9 520.0,421.9 530.0,421.8 540.0,421.8 550.0,421.8 560.0,421.8 570.0,421.8 580.0,421.8 590.0,421.8 600.0,421.8 610.0,421.8 620.0,421.8 630.0,421.8 640.0,421.8 650.0,421.8 660.0,421.7 670.0,421.8 680.0,421.8 690.0,421.8 700.0,421.8 710.0,423.2 720.0,423.6 730.0,423.6 740.0,423.6 750.0,423.6 760.0,423.6 770.0,422.5 780.0,421.4 780.0,426.0 770.0,427.4 760.0,428.9 750.0,428.9 740.0,428.9 730.0,428.9 720.0,428.9 710.0,428.4 700.0,427.1 690.0,427.1 680.0,427.1 670.0,427.1 660.0,427.0 650.0,427.0 640.0,427.0 630.0,427.0 620.0,427.0 610.0,427.0 600.0,427.0 590.0,427.0 580.0,427.0 570.0,427.0 560.0,427.0 550.0,427.0 540.0,427.0 530.0,427.0 520.0,427.1 510.0,427.1 500.0,427.1 490.0,427.3 480.0,427.3 470.0,428.5 460.0,428.5 450.0,428.5 440.0,428.6 430.0,428.7 420.0,437.1 410.0,437.1 400.0,437.1 390.0,437.1 380.0,437.1 370.0,437.1 360.0,437.3 350.0,437.3 340.0,437.4 330.0,437.4 320.0,437.4 310.0,439.3 300.0,439.3 290.0,432.6 280.0,432.6 270.0,432.6 260.0,432.6 250.0,432.6 240.0,432.2 230.0,432.3 220.0,439.4 210.0,439.5 200.0,439.5 190.0,441.6 180.0,442.0 170.0,442.3 160.0,650.0 150.0,650.0 140.0,650.0 130.0,650.0 120.0,650.0 110.0,650.0 100.0,650.0 90.0,650.0" fill="#083fa1" opacity="0.6" class="anim" style="animation-delay:900ms;"/>
<polygon points="90.0,650.0 100.0,650.0 110.0,650.0 120.0,650.0 130.0,650.0 140.0,650.0 150.0,650.0 160.0,650.0 170.0,427.0 180.0,426.8 190.0,426.6 200.0,424.2 210.0,424.2 220.0,424.2 230.0,420.4 240.0,420.3 250.0,420.3 260.0,420.3 270.0,420.3 280.0,420.3 290.0,420.3 300.0,423.3 310.0,423.2 320.0,422.4 330.0,422.4 340.0,422.4 350.0,422.3 360.0,422.3 370.0,422.1 380.0,422.1 390.0,422.1 400.0,422.1 410.0,422.1 420.0,422.1 430.0,418.3 440.0,418.3 450.0,418.2 460.0,418.2 470.0,418.2 480.0,417.7 490.0,417.7 500.0,417.6 510.0,417.6 520.0,417.6 530.0,417.6 540.0,417.6 550.0,417.6 560.0,417.6 570.0,417.6 580.0,417.6 590.0,417.6 600.0,417.6 610.0,417.6 620.0,417.6 630.0,417.6 640.0,417.6 650.0,417.6 660.0,417.5 670.0,417.6 680.0,417.6 690.0,417.6 700.0,417.6 710.0,419.0 720.0,419.5 730.0,419.5 740.0,419.5 750.0,419.5 760.0,419.5 770.0,418.9 780.0,418.3 780.0,421.4 770.0,422.5 760.0,423.6 750.0,423.6 740.0,423.6 730.0,423.6 720.0,423.6 710.0,423.2 700.0,421.8 690.0,421.8 680.0,421.8 670.0,421.8 660.0,421.7 650.0,421.8 640.0,421.8 630.0,421.8 620.0,421.8 610.0,421.8 600.0,421.8 590.0,421.8 580.0,421.8 570.0,421.8 560.0,421.8 550.0,421.8 540.0,421.8 530.0,421.8 520.0,421.9 510.0,421.9 500.0,421.9 490.0,422.0 480.0,422.0 470.0,422.9 460.0,422.9 450.0,422.9 440.0,422.9 430.0,423.0 420.0,428.8 410.0,428.8 400.0,428.8 390.0,428.8 380.0,428.9 370.0,428.9 360.0,429.2 350.0,429.2 340.0,429.3 330.0,429.3 320.0,429.3 310.0,430.7 300.0,430.8 290.0,426.0 280.0,426.0 270.0,426.0 260.0,426.0 250.0,426.0 240.0,426.1 230.0,426.2 220.0,432.2 210.0,432.2 200.0,432.2 190.0,435.9 180.0,436.3 170.0,436.6 160.0,650.0 150.0,650.0 140.0,650.0 130.0,650.0 120.0,650.0 110.0,650.0 100.0,650.0 90.0,650.0" fill="#6E4C13" opacity="0.6" class="anim" style="animation-delay:1000ms;"/>
<polygon points="90.0,650.0 100.0,650.0 110.0,650.0 120.0,650.0 130.0,650.0 140.0,650.0 150.0,650.0 160.0,650.0 170.0,418.7 180.0,418.6 190.0,418.5 200.0,417.3 210.0,417.3 220.0,417.2 230.0,415.3 240.0,415.3 250.0,415.2 260.0,415.2 270.0,415.2 280.0,415.2 290.0,415.2 300.0,416.8 310.0,416.8 320.0,416.3 330.0,416.3 340.0,416.3 350.0,416.3 360.0,416.3 370.0,416.2 380.0,416.2 390.0,416.2 400.0,416.2 410.0,416.2 420.0,416.2 430.0,414.2 440.0,414.2 450.0,414.2 460.0,414.2 470.0,414.2 480.0,413.9 490.0,413.9 500.0,413.9 510.0,413.9 520.0,413.9 530.0,413.9 540.0,413.9 550.0,413.9 560.0,413.9 570.0,413.9 580.0,413.9 590.0,413.9 600.0,413.9 610.0,413.9 620.0,413.9 630.0,413.9 640.0,413.9 650.0,413.9 660.0,413.8 670.0,413.8 680.0,413.8 690.0,413.8 700.0,413.8 710.0,413.8 720.0,413.8 730.0,413.8 740.0,413.8 750.0,413.8 760.0,413.8 770.0,413.6 780.0,413.3 780.0,418.3 770.0,418.9 760.0,419.5 750.0,419.5 740.0,419.5 730.0,419.5 720.0,419.5 710.0,419.0 700.0,417.6 690.0,417.6 680.0,417.6 670.0,417.6 660.0,417.5 650.0,417.6 640.0,417.6 630.0,417.6 620.0,417.6 610.0,417.6 600.0,417.6 590.0,417.6 580.0,417.6 570.0,417.6 560.0,417.6 550.0,417.6 540.0,417.6 530.0,417.6 520.0,417.6 510.0,417.6 500.0,417.6 490.0,417.7 480.0,417.7 470.0,418.2 460.0,418.2 450.0,418.2 440.0,418.3 430.0,418.3 420.0,422.1 410.0,422.1 400.0,422.1 390.0,422.1 380.0,422.1 370.0,422.1 360.0,422.3 350.0,422.3 340.0,422.4 330.0,422.4 320.0,422.4 310.0,423.2 300.0,423.3 290.0,420.3 280.0,420.3 270.0,420.3 260.0,420.3 250.0,420.3 240.0,420.3 230.0,420.4 220.0,424.2 210.0,424.2 200.0,424.2 190.0,426.6 180.0,426.8 170.0,427.0 160.0,650.0 150.0,650.0 140.0,650.0 130.0,650.0 120.0,650.0 110.0,650.0 100.0,650.0 90.0,650.0" fill="#F05138" opacity="0.6" class="anim" style="animation-delay:1100ms;"/>
<polygon points="90.0,650.0 100.0,650.0 110.0,650.0 120.0,650.0 130.0,650.0 140.0,650.0 150.0,650.0 160.0,650.0 170.0,414.4 180.0,414.4 190.0,414.3 200.0,413.7 210.0,413.7 220.0,413.7 230.0,412.7 240.0,412.7 250.0,412.7 260.0,412.7 270.0,412.7 280.0,412.7 290.0,412.7 300.0,413.5 310.0,413.4 320.0,413.2 330.0,413.2 340.0,413.2 350.0,413.2 360.0,413.2 370.0,413.1 380.0,413.1 390.0,413.1 400.0,413.1 410.0,413.1 420.0,413.1 430.0,412.2 440.0,412.1 450.0,412.1 460.0,412.1 470.0,412.1 480.0,412.0 490.0,412.0 500.0,412.0 510.0,412.0 520.0,412.0 530.0,412.0 540.0,412.0 550.0,412.0 560.0,412.0 570.0,412.0 580.0,412.0 590.0,412.0 600.0,412.0 610.0,412.0 620.0,412.0 630.0,412.0 640.0,412.0 650.0,412.0 660.0,411.9 670.0,411.9 680.0,411.9 690.0,411.9 700.0,411.9 710.0,411.9 720.0,411.9 730.0,411.9 740.0,411.9 750.0,411.9 760.0,411.9 770.0,411.9 780.0,411.9 780.0,413.3 770.0,413.6 760.0,413.8 750.0,413.8 740.0,413.8 730.0,413.8 720.0,413.8 710.0,413.8 700.0,413.8 690.0,413.8 680.0,413.8 670.0,413.8 660.0,413.8 650.0,413.9 640.0,413.9 630.0,413.9 620.0,413.9 610.0,413.9 600.0,413.9 590.0,413.9 580.0,413.9 570.0,413.9 560.0,413.9 550.0,413.9 540.0,413.9 530.0,413.9 520.0,413.9 510.0,413.9 500.0,413.9 490.0,413.9 480.0,413.9 470.0,414.2 460.0,414.2 450.0,414.2 440.0,414.2 430.0,414.2 420.0,416.2 410.0,416.2 400.0,416.2 390.0,416.2 380.0,416.2 370.0,416.2 360.0,416.3 350.0,416.3 340.0,416.3 330.0,416.3 320.0,416.3 310.0,416.8 300.0,416.8 290.0,415.2 280.0,415.2 270.0,415.2 260.0,415.2 250.0,415.2 240.0,415.3 230.0,415.3 220.0,417.2 210.0,417.3 200.0,417.3 190.0,418.5 180.0,418.6 170.0,418.7 160.0,650.0 150.0,650.0 140.0,650.0 130.0,650.0 120.0,650.0 110.0,650.0 100.0,650.0 90.0,650.0" fill="#b07219" opacity="0.6" class="anim" style="animation-delay:1200ms;"/>
<line x1="760.0" y1="100" x2="760.0" y2="650" stroke="#c9d1d9" stroke-width="1" stroke-dasharray="4,3" opacity="0.35"/>
<text x="770.0" y="112" text-anchor="middle" class="axis-label" opacity="0.6">Jun 29, 2026</text>
<text x="90.0" y="668" text-anchor="middle" class="axis-label" transform="rotate(-35 90.0 668)">2026-02</text>
<text x="370.0" y="668" text-anchor="middle" class="axis-label" transform="rotate(-35 370.0 668)">2026-03</text>
<text x="650.0" y="668" text-anchor="middle" class="axis-label" transform="rotate(-35 650.0 668)">2026-04</text>
<text x="720.0" y="668" text-anchor="middle" class="axis-label" transform="rotate(-35 720.0 668)">2026-06</text>
<line x1="796" y1="110" x2="824" y2="110" stroke="#3fb950" stroke-width="2"/>
<text x="832" y="116" class="legend-text">Lines Added</text>
<line x1="796" y1="140" x2="824" y2="140" stroke="#f85149" stroke-width="1.5"/>
<text x="832" y="146" class="legend-text">Lines Deleted</text>
<line x1="796" y1="170" x2="824" y2="170" stroke="#e3b341" stroke-width="1.5" stroke-dasharray="4,3"/>
<text x="832" y="176" class="legend-text">&#x2605; Stars</text>
<text x="796" y="200" class="subtitle">Languages</text>
<rect x="796" y="212" width="12" height="12" rx="2" fill="#e34c26" opacity="0.8" class="anim" style="animation-delay:800ms;"/>
<text x="814" y="223" class="legend-text">HTML (58%→57%)</text>
<rect x="796" y="234" width="12" height="12" rx="2" fill="#f1e05a" opacity="0.8" class="anim" style="animation-delay:880ms;"/>
<text x="814" y="245" class="legend-text">JavaScript (22%→25%)</text>
<rect x="796" y="256" width="12" height="12" rx="2" fill="#3572A5" opacity="0.8" class="anim" style="animation-delay:960ms;"/>
<text x="814" y="267" class="legend-text">Python (7%→5%)</text>
<rect x="796" y="278" width="12" height="12" rx="2" fill="#663399" opacity="0.8" class="anim" style="animation-delay:1040ms;"/>
<text x="814" y="289" class="legend-text">CSS (5%→6%)</text>
<rect x="796" y="300" width="12" height="12" rx="2" fill="#083fa1" opacity="0.8" class="anim" style="animation-delay:1120ms;"/>
<text x="814" y="311" class="legend-text">Markdown (2%→2%)</text>
<rect x="796" y="322" width="12" height="12" rx="2" fill="#6E4C13" opacity="0.8" class="anim" style="animation-delay:1200ms;"/>
<text x="814" y="333" class="legend-text">Assembly (2%→1%)</text>
<rect x="796" y="344" width="12" height="12" rx="2" fill="#F05138" opacity="0.8" class="anim" style="animation-delay:1280ms;"/>
<text x="814" y="355" class="legend-text">Swift (2%→2%)</text>
<rect x="796" y="366" width="12" height="12" rx="2" fill="#b07219" opacity="0.8" class="anim" style="animation-delay:1360ms;"/>
<text x="814" y="377" class="legend-text">Java (1%→1%)</text>
<text x="796" y="412" class="subtitle">Contributions</text>
<text x="796" y="432" class="axis-label">2023: 39</text>
<text x="796" y="452" class="axis-label">2024: 646</text>
<text x="796" y="472" class="axis-label">2025: 1,780</text>
<text x="796" y="492" class="axis-label">2026: 483</text>
<text x="796" y="522" class="subtitle">Statistics</text>
<text x="796" y="542" class="axis-label">Active weeks: 87</text>
<text x="796" y="562" class="axis-label">Add/Del ratio: 1.8x</text>
<text x="796" y="582" class="axis-label">Avg lines/wk: 19K</text>
<text x="796" y="602" class="axis-label">Peak: 2026-02-15</text>
<text x="796" y="622" class="axis-label">  (543K lines)</text>
<text x="90" y="742" class="axis-label">Total: +1,039,435 / -576,819 lines &#xb7; 2,948 contributions &#xb7; 79 repos &#xb7; &#x2605; 37</text>
</svg>