<svg xmlns="http://www.w3.org/2000/svg" width="1000" height="760" style="max-width: 100%;" viewBox="0 0 1000 760">

<defs>
  <linearGradient id="areaGrad" x1="0" y1="0" x2="0" y2="1">
    <stop offset="0%" stop-color="#58a6ff" stop-opacity="0.35"/>
    <stop offset="100%" stop-color="#58a6ff" stop-opacity="0.02"/>
  </linearGradient>
  <linearGradient id="addGrad" x1="0" y1="0" x2="0" y2="1">
    <stop offset="0%" stop-color="#3fb950" stop-opacity="0.35"/>
    <stop offset="100%" stop-color="#3fb950" stop-opacity="0.02"/>
  </linearGradient>
  <linearGradient id="delGrad" x1="0" y1="0" x2="0" y2="1">
    <stop offset="0%" stop-color="#f85149" stop-opacity="0.25"/>
    <stop offset="100%" stop-color="#f85149" stop-opacity="0.02"/>
  </linearGradient>
</defs>
<style>
  .title { font: bold 28px 'Segoe UI', Ubuntu, Sans-Serif; fill: #c9d1d9; }
  .subtitle { font: 600 20px 'Segoe UI', Ubuntu, Sans-Serif; fill: #c9d1d9; opacity: 0.8; }
  .axis-label { font: 18px 'Segoe UI', Ubuntu, Sans-Serif; fill: #c9d1d9; opacity: 0.7; }
  .legend-text { font: 14px 'Segoe UI', Ubuntu, Sans-Serif; fill: #c9d1d9; }
  .value-text { font: bold 18px 'Segoe UI', Ubuntu, Sans-Serif; fill: #c9d1d9; }
  .stat-value { font: bold 22px 'Segoe UI', Ubuntu, Sans-Serif; fill: #c9d1d9; }
  .stat-label { font: 18px 'Segoe UI', Ubuntu, Sans-Serif; fill: #c9d1d9; opacity: 0.7; }
  @keyframes fadeIn { from { opacity: 0; } to { opacity: 1; } }
  .anim { animation: fadeIn 0.6s ease-in-out forwards; opacity: 0; }
</style>

<rect x="0.5" y="0.5" rx="4.5" width="999" height="759" fill="#161b22" stroke="#21262d"/>
<text x="90" y="45" class="title">Activity History</text>
<text x="90" y="72" class="subtitle">Lines added vs deleted &amp; activity trends over time</text>
<line x1="90" y1="340.0" x2="780" y2="340.0" stroke="#21262d" stroke-width="1"/>
<text x="82" y="344.0" text-anchor="end" class="axis-label">0</text>
<line x1="90" y1="280.0" x2="780" y2="280.0" stroke="#21262d" stroke-width="1"/>
<text x="82" y="284.0" text-anchor="end" class="axis-label">457K</text>
<line x1="90" y1="220.0" x2="780" y2="220.0" stroke="#21262d" stroke-width="1"/>
<text x="82" y="224.0" text-anchor="end" class="axis-label">914K</text>
<line x1="90" y1="160.0" x2="780" y2="160.0" stroke="#21262d" stroke-width="1"/>
<text x="82" y="164.0" text-anchor="end" class="axis-label">1.4M</text>
<line x1="90" y1="100.0" x2="780" y2="100.0" stroke="#21262d" stroke-width="1"/>
<text x="82" y="104.0" text-anchor="end" class="axis-label">1.8M</text>
<polygon points="90.0,340.0 90.0,292.1 99.0,293.8 107.9,292.1 116.9,293.8 125.8,304.9 134.8,282.9 143.8,282.9 152.7,274.6 161.7,274.3 170.6,273.8 179.6,273.7 188.6,259.0 197.5,259.0 206.5,258.9 215.5,237.1 224.4,236.8 233.4,236.5 242.3,236.5 251.3,236.5 260.3,236.5 269.2,236.5 278.2,236.0 287.1,221.4 296.1,221.3 305.1,221.3 314.0,221.3 323.0,221.0 331.9,221.0 340.9,220.3 349.9,220.3 358.8,220.3 367.8,220.3 376.8,220.3 385.7,220.3 394.7,220.3 403.6,220.3 412.6,220.3 421.6,220.3 430.5,220.3 439.5,220.3 448.4,220.3 457.4,219.6 466.4,219.9 475.3,219.2 484.3,218.9 493.2,218.9 502.2,218.9 511.2,218.9 520.1,218.9 529.1,218.9 538.1,218.8 547.0,218.8 556.0,218.8 564.9,218.9 573.9,219.2 582.9,220.6 591.8,219.2 600.8,217.9 609.7,217.9 618.7,217.9 627.7,217.9 636.6,217.9 645.6,210.4 654.5,203.5 663.5,203.5 672.5,203.5 681.4,203.5 690.4,203.5 699.4,203.5 708.3,203.5 717.3,203.5 726.2,203.4 735.2,203.4 744.2,203.4 753.1,203.4 762.1,203.4 771.0,195.7 780.0,188.0 780.0,340.0" fill="url(#addGrad)" class="anim" style="animation-delay:200ms;"/>
<polyline points="90.0,292.1 99.0,293.8 107.9,292.1 116.9,293.8 125.8,304.9 134.8,282.9 143.8,282.9 152.7,274.6 161.7,274.3 170.6,273.8 179.6,273.7 188.6,259.0 197.5,259.0 206.5,258.9 215.5,237.1 224.4,236.8 233.4,236.5 242.3,236.5 251.3,236.5 260.3,236.5 269.2,236.5 278.2,236.0 287.1,221.4 296.1,221.3 305.1,221.3 314.0,221.3 323.0,221.0 331.9,221.0 340.9,220.3 349.9,220.3 358.8,220.3 367.8,220.3 376.8,220.3 385.7,220.3 394.7,220.3 403.6,220.3 412.6,220.3 421.6,220.3 430.5,220.3 439.5,220.3 448.4,220.3 457.4,219.6 466.4,219.9 475.3,219.2 484.3,218.9 493.2,218.9 502.2,218.9 511.2,218.9 520.1,218.9 529.1,218.9 538.1,218.8 547.0,218.8 556.0,218.8 564.9,218.9 573.9,219.2 582.9,220.6 591.8,219.2 600.8,217.9 609.7,217.9 618.7,217.9 627.7,217.9 636.6,217.9 645.6,210.4 654.5,203.5 663.5,203.5 672.5,203.5 681.4,203.5 690.4,203.5 699.4,203.5 708.3,203.5 717.3,203.5 726.2,203.4 735.2,203.4 744.2,203.4 753.1,203.4 762.1,203.4" fill="none" stroke="#3fb950" stroke-width="2" stroke-linejoin="round" class="anim" style="animation-delay:250ms;"/>
<polyline points="762.1,203.4 771.0,195.7 780.0,188.0" fill="none" stroke="#3fb950" stroke-width="1.5" stroke-dasharray="5,4" stroke-linejoin="round" opacity="0.6" class="anim" style="animation-delay:250ms;"/>
<polygon points="90.0,340.0 90.0,326.5 99.0,327.9 107.9,326.5 116.9,327.9 125.8,333.7 134.8,324.9 143.8,324.9 152.7,323.9 161.7,323.6 170.6,323.3 179.6,323.3 188.6,307.4 197.5,307.4 206.5,307.4 215.5,289.4 224.4,289.2 233.4,289.2 242.3,289.2 251.3,289.2 260.3,289.2 269.2,289.2 278.2,279.8 287.1,265.5 296.1,265.4 305.1,265.4 314.0,265.4 323.0,265.3 331.9,265.3 340.9,265.3 349.9,265.2 358.8,265.2 367.8,265.2 376.8,265.2 385.7,265.2 394.7,265.3 403.6,265.2 412.6,265.2 421.6,265.2 430.5,265.2 439.5,265.2 448.4,265.2 457.4,265.2 466.4,265.3 475.3,264.8 484.3,264.8 493.2,264.8 502.2,264.8 511.2,264.8 520.1,264.8 529.1,264.8 538.1,264.8 547.0,264.8 556.0,264.8 564.9,264.8 573.9,264.9 582.9,265.7 591.8,265.2 600.8,264.4 609.7,264.3 618.7,264.3 627.7,264.3 636.6,264.3 645.6,264.3 654.5,264.3 663.5,264.3 672.5,264.3 681.4,264.3 690.4,264.3 699.4,264.3 708.3,264.3 717.3,264.3 726.2,264.3 735.2,264.3 744.2,264.3 753.1,264.3 762.1,264.3 771.0,258.1 780.0,252.0 780.0,340.0" fill="url(#delGrad)" class="anim" style="animation-delay:300ms;"/>
<polyline points="90.0,326.5 99.0,327.9 107.9,326.5 116.9,327.9 125.8,333.7 134.8,324.9 143.8,324.9 152.7,323.9 161.7,323.6 170.6,323.3 179.6,323.3 188.6,307.4 197.5,307.4 206.5,307.4 215.5,289.4 224.4,289.2 233.4,289.2 242.3,289.2 251.3,289.2 260.3,289.2 269.2,289.2 278.2,279.8 287.1,265.5 296.1,265.4 305.1,265.4 314.0,265.4 323.0,265.3 331.9,265.3 340.9,265.3 349.9,265.2 358.8,265.2 367.8,265.2 376.8,265.2 385.7,265.2 394.7,265.3 403.6,265.2 412.6,265.2 421.6,265.2 430.5,265.2 439.5,265.2 448.4,265.2 457.4,265.2 466.4,265.3 475.3,264.8 484.3,264.8 493.2,264.8 502.2,264.8 511.2,264.8 520.1,264.8 529.1,264.8 538.1,264.8 547.0,264.8 556.0,264.8 564.9,264.8 573.9,264.9 582.9,265.7 591.8,265.2 600.8,264.4 609.7,264.3 618.7,264.3 627.7,264.3 636.6,264.3 645.6,264.3 654.5,264.3 663.5,264.3 672.5,264.3 681.4,264.3 690.4,264.3 699.4,264.3 708.3,264.3 717.3,264.3 726.2,264.3 735.2,264.3 744.2,264.3 753.1,264.3 762.1,264.3" fill="none" stroke="#f85149" stroke-width="1.5" stroke-linejoin="round" class="anim" style="animation-delay:350ms;"/>
<polyline points="762.1,264.3 771.0,258.1 780.0,252.0" fill="none" stroke="#f85149" stroke-width="1" stroke-dasharray="5,4" stroke-linejoin="round" opacity="0.6" class="anim" style="animation-delay:350ms;"/>
<polyline points="90.0,340.0 99.0,340.0 107.9,340.0 116.9,340.0 125.8,340.0 134.8,340.0 143.8,340.0 152.7,340.0 161.7,308.0 170.6,308.0 179.6,308.0 188.6,308.0 197.5,308.0 206.5,308.0 215.5,308.0 224.4,308.0 233.4,308.0 242.3,308.0 251.3,308.0 260.3,308.0 269.2,308.0 278.2,308.0 287.1,308.0 296.1,308.0 305.1,308.0 314.0,308.0 323.0,308.0 331.9,308.0 340.9,308.0 349.9,308.0 358.8,308.0 367.8,308.0 376.8,308.0 385.7,308.0 394.7,276.0 403.6,276.0 412.6,276.0 421.6,276.0 430.5,276.0 439.5,276.0 448.4,276.0 457.4,276.0 466.4,244.0 475.3,244.0 484.3,244.0 493.2,244.0 502.2,244.0 511.2,244.0 520.1,244.0 529.1,244.0 538.1,244.0 547.0,244.0 556.0,244.0 564.9,244.0 573.9,244.0 582.9,244.0 591.8,244.0 600.8,244.0 609.7,180.0 618.7,180.0 627.7,180.0 636.6,180.0 645.6,180.0 654.5,180.0 663.5,180.0 672.5,180.0 681.4,180.0 690.4,180.0 699.4,180.0 708.3,180.0 717.3,180.0 726.2,180.0 735.2,180.0 744.2,180.0 753.1,180.0 762.1,180.0" fill="none" stroke="#e3b341" stroke-width="1.5" stroke-dasharray="4,3" stroke-linejoin="round" class="anim" style="animation-delay:400ms;"/>
<polyline points="762.1,180.0 771.0,180.0 780.0,148.0" fill="none" stroke="#e3b341" stroke-width="1" stroke-dasharray="3,5" stroke-linejoin="round" opacity="0.5" class="anim" style="animation-delay:400ms;"/>
<text x="90" y="90" class="subtitle">Lines Added vs Deleted (per snapshot)</text>
<text x="90" y="400" class="subtitle">Programming Language Development (%)</text>
<line x1="90" y1="650.0" x2="780" y2="650.0" stroke="#21262d" stroke-width="1"/>
<text x="82" y="654.0" text-anchor="end" class="axis-label">0%</text>
<line x1="90" y1="590.0" x2="780" y2="590.0" stroke="#21262d" stroke-width="1"/>
<text x="82" y="594.0" text-anchor="end" class="axis-label">25%</text>
<line x1="90" y1="530.0" x2="780" y2="530.0" stroke="#21262d" stroke-width="1"/>
<text x="82" y="534.0" text-anchor="end" class="axis-label">50%</text>
<line x1="90" y1="470.0" x2="780" y2="470.0" stroke="#21262d" stroke-width="1"/>
<text x="82" y="474.0" text-anchor="end" class="axis-label">75%</text>
<line x1="90" y1="410.0" x2="780" y2="410.0" stroke="#21262d" stroke-width="1"/>
<text x="82" y="414.0" text-anchor="end" class="axis-label">100%</text>
<polygon points="90.0,650.0 99.0,650.0 107.9,650.0 116.9,650.0 125.8,650.0 134.8,650.0 143.8,650.0 152.7,650.0 161.7,528.2 170.6,528.5 179.6,529.7 188.6,499.3 197.5,499.3 206.5,502.9 215.5,485.0 224.4,485.1 233.4,485.4 242.3,485.4 251.3,485.4 260.3,485.4 269.2,485.4 278.2,496.4 287.1,496.7 296.1,491.0 305.1,491.0 314.0,491.0 323.0,491.7 331.9,491.8 340.9,494.0 349.9,494.0 358.8,494.4 367.8,494.4 376.8,494.4 385.7,494.4 394.7,507.6 403.6,507.6 412.6,507.9 421.6,507.9 430.5,507.9 439.5,506.3 448.4,506.4 457.4,506.8 466.4,506.9 475.3,506.8 484.3,507.5 493.2,507.5 502.2,507.5 511.2,507.5 520.1,507.5 529.1,507.5 538.1,507.5 547.0,507.5 556.0,507.5 564.9,507.5 573.9,507.5 582.9,507.5 591.8,507.5 600.8,508.6 609.7,508.6 618.7,508.6 627.7,508.6 636.6,508.6 645.6,509.5 654.5,509.8 663.5,509.8 672.5,509.8 681.4,509.8 690.4,509.8 699.4,509.8 708.3,509.8 717.3,509.8 726.2,510.9 735.2,510.9 744.2,510.9 753.1,510.9 762.1,510.9 771.0,512.8 780.0,514.8 780.0,650.0 771.0,650.0 762.1,650.0 753.1,650.0 744.2,650.0 735.2,650.0 726.2,650.0 717.3,650.0 708.3,650.0 699.4,650.0 690.4,650.0 681.4,650.0 672.5,650.0 663.5,650.0 654.5,650.0 645.6,650.0 636.6,650.0 627.7,650.0 618.7,650.0 609.7,650.0 600.8,650.0 591.8,650.0 582.9,650.0 573.9,650.0 564.9,650.0 556.0,650.0 547.0,650.0 538.1,650.0 529.1,650.0 520.1,650.0 511.2,650.0 502.2,650.0 493.2,650.0 484.3,650.0 475.3,650.0 466.4,650.0 457.4,650.0 448.4,650.0 439.5,650.0 430.5,650.0 421.6,650.0 412.6,650.0 403.6,650.0 394.7,650.0 385.7,650.0 376.8,650.0 367.8,650.0 358.8,650.0 349.9,650.0 340.9,650.0 331.9,650.0 323.0,650.0 314.0,650.0 305.1,650.0 296.1,650.0 287.1,650.0 278.2,650.0 269.2,650.0 260.3,650.0 251.3,650.0 242.3,650.0 233.4,650.0 224.4,650.0 215.5,650.0 206.5,650.0 197.5,650.0 188.6,650.0 179.6,650.0 170.6,650.0 161.7,650.0 152.7,650.0 143.8,650.0 134.8,650.0 125.8,650.0 116.9,650.0 107.9,650.0 99.0,650.0 90.0,650.0" fill="#e34c26" opacity="0.6" class="anim" style="animation-delay:500ms;"/>
<polygon points="90.0,650.0 99.0,650.0 107.9,650.0 116.9,650.0 125.8,650.0 134.8,650.0 143.8,650.0 152.7,650.0 161.7,488.4 170.6,488.0 179.6,489.0 188.6,476.0 197.5,476.0 206.5,477.2 215.5,460.1 224.4,460.2 233.4,460.6 242.3,460.6 251.3,460.6 260.3,460.6 269.2,460.6 278.2,473.0 287.1,473.5 296.1,469.5 305.1,469.5 314.0,469.5 323.0,469.7 331.9,469.7 340.9,469.7 349.9,469.7 358.8,469.7 367.8,469.7 376.8,469.7 385.7,469.7 394.7,455.6 403.6,455.6 412.6,455.4 421.6,455.4 430.5,455.4 439.5,454.3 448.4,454.3 457.4,455.0 466.4,455.1 475.3,454.9 484.3,455.9 493.2,455.9 502.2,455.9 511.2,455.9 520.1,455.9 529.1,455.9 538.1,455.9 547.0,455.9 556.0,455.9 564.9,455.9 573.9,455.9 582.9,455.9 591.8,455.9 600.8,455.8 609.7,455.8 618.7,455.8 627.7,455.8 636.6,455.8 645.6,457.0 654.5,457.4 663.5,457.4 672.5,457.4 681.4,457.4 690.4,457.4 699.4,457.4 708.3,457.4 717.3,457.4 726.2,458.2 735.2,458.2 744.2,458.2 753.1,458.2 762.1,458.2 771.0,456.0 780.0,453.9 780.0,514.8 771.0,512.8 762.1,510.9 753.1,510.9 744.2,510.9 735.2,510.9 726.2,510.9 717.3,509.8 708.3,509.8 699.4,509.8 690.4,509.8 681.4,509.8 672.5,509.8 663.5,509.8 654.5,509.8 645.6,509.5 636.6,508.6 627.7,508.6 618.7,508.6 609.7,508.6 600.8,508.6 591.8,507.5 582.9,507.5 573.9,507.5 564.9,507.5 556.0,507.5 547.0,507.5 538.1,507.5 529.1,507.5 520.1,507.5 511.2,507.5 502.2,507.5 493.2,507.5 484.3,507.5 475.3,506.8 466.4,506.9 457.4,506.8 448.4,506.4 439.5,506.3 430.5,507.9 421.6,507.9 412.6,507.9 403.6,507.6 394.7,507.6 385.7,494.4 376.8,494.4 367.8,494.4 358.8,494.4 349.9,494.0 340.9,494.0 331.9,491.8 323.0,491.7 314.0,491.0 305.1,491.0 296.1,491.0 287.1,496.7 278.2,496.4 269.2,485.4 260.3,485.4 251.3,485.4 242.3,485.4 233.4,485.4 224.4,485.1 215.5,485.0 206.5,502.9 197.5,499.3 188.6,499.3 179.6,529.7 170.6,528.5 161.7,528.2 152.7,650.0 143.8,650.0 134.8,650.0 125.8,650.0 116.9,650.0 107.9,650.0 99.0,650.0 90.0,650.0" fill="#f1e05a" opacity="0.6" class="anim" style="animation-delay:600ms;"/>
<polygon points="90.0,650.0 99.0,650.0 107.9,650.0 116.9,650.0 125.8,650.0 134.8,650.0 143.8,650.0 152.7,650.0 161.7,455.5 170.6,455.4 179.6,455.1 188.6,447.0 197.5,447.0 206.5,448.2 215.5,438.9 224.4,439.0 233.4,439.6 242.3,439.6 251.3,439.6 260.3,439.6 269.2,439.6 278.2,445.6 287.1,445.6 296.1,443.3 305.1,443.3 314.0,443.3 323.0,443.6 331.9,443.6 340.9,444.1 349.9,444.1 358.8,444.1 367.8,444.1 376.8,444.1 385.7,444.1 394.7,437.5 403.6,437.5 412.6,437.5 421.6,437.5 430.5,437.5 439.5,437.5 448.4,437.5 457.4,438.4 466.4,438.5 475.3,438.3 484.3,439.3 493.2,439.3 502.2,439.3 511.2,439.3 520.1,439.3 529.1,439.3 538.1,439.3 547.0,439.3 556.0,439.3 564.9,439.3 573.9,439.3 582.9,439.3 591.8,439.3 600.8,439.4 609.7,439.4 618.7,439.4 627.7,439.4 636.6,439.4 645.6,440.7 654.5,441.1 663.5,441.1 672.5,441.1 681.4,441.1 690.4,441.1 699.4,441.1 708.3,441.1 717.3,441.1 726.2,442.0 735.2,442.0 744.2,442.0 753.1,442.0 762.1,442.0 771.0,441.5 780.0,441.1 780.0,453.9 771.0,456.0 762.1,458.2 753.1,458.2 744.2,458.2 735.2,458.2 726.2,458.2 717.3,457.4 708.3,457.4 699.4,457.4 690.4,457.4 681.4,457.4 672.5,457.4 663.5,457.4 654.5,457.4 645.6,457.0 636.6,455.8 627.7,455.8 618.7,455.8 609.7,455.8 600.8,455.8 591.8,455.9 582.9,455.9 573.9,455.9 564.9,455.9 556.0,455.9 547.0,455.9 538.1,455.9 529.1,455.9 520.1,455.9 511.2,455.9 502.2,455.9 493.2,455.9 484.3,455.9 475.3,454.9 466.4,455.1 457.4,455.0 448.4,454.3 439.5,454.3 430.5,455.4 421.6,455.4 412.6,455.4 403.6,455.6 394.7,455.6 385.7,469.7 376.8,469.7 367.8,469.7 358.8,469.7 349.9,469.7 340.9,469.7 331.9,469.7 323.0,469.7 314.0,469.5 305.1,469.5 296.1,469.5 287.1,473.5 278.2,473.0 269.2,460.6 260.3,460.6 251.3,460.6 242.3,460.6 233.4,460.6 224.4,460.2 215.5,460.1 206.5,477.2 197.5,476.0 188.6,476.0 179.6,489.0 170.6,488.0 161.7,488.4 152.7,650.0 143.8,650.0 134.8,650.0 125.8,650.0 116.9,650.0 107.9,650.0 99.0,650.0 90.0,650.0" fill="#3572A5" opacity="0.6" class="anim" style="animation-delay:700ms;"/>
<polygon points="90.0,650.0 99.0,650.0 107.9,650.0 116.9,650.0 125.8,650.0 134.8,650.0 143.8,650.0 152.7,650.0 161.7,442.3 170.6,442.0 179.6,441.6 188.6,439.5 197.5,439.5 206.5,439.4 215.5,432.3 224.4,432.2 233.4,432.6 242.3,432.6 251.3,432.6 260.3,432.6 269.2,432.6 278.2,439.3 287.1,439.3 296.1,437.4 305.1,437.4 314.0,437.4 323.0,437.3 331.9,437.3 340.9,437.1 349.9,437.1 358.8,437.1 367.8,437.1 376.8,437.1 385.7,437.1 394.7,428.7 403.6,428.6 412.6,428.5 421.6,428.5 430.5,428.5 439.5,427.3 448.4,427.3 457.4,427.1 466.4,427.1 475.3,427.1 484.3,427.0 493.2,427.0 502.2,427.0 511.2,427.0 520.1,427.0 529.1,427.0 538.1,427.0 547.0,427.0 556.0,427.0 564.9,427.0 573.9,427.0 582.9,427.0 591.8,427.0 600.8,427.0 609.7,427.1 618.7,427.1 627.7,427.1 636.6,427.1 645.6,428.4 654.5,428.9 663.5,428.9 672.5,428.9 681.4,428.9 690.4,428.9 699.4,428.9 708.3,428.9 717.3,428.9 726.2,428.7 735.2,428.7 744.2,428.7 753.1,428.7 762.1,428.7 771.0,427.5 780.0,426.3 780.0,441.1 771.0,441.5 762.1,442.0 753.1,442.0 744.2,442.0 735.2,442.0 726.2,442.0 717.3,441.1 708.3,441.1 699.4,441.1 690.4,441.1 681.4,441.1 672.5,441.1 663.5,441.1 654.5,441.1 645.6,440.7 636.6,439.4 627.7,439.4 618.7,439.4 609.7,439.4 600.8,439.4 591.8,439.3 582.9,439.3 573.9,439.3 564.9,439.3 556.0,439.3 547.0,439.3 538.1,439.3 529.1,439.3 520.1,439.3 511.2,439.3 502.2,439.3 493.2,439.3 484.3,439.3 475.3,438.3 466.4,438.5 457.4,438.4 448.4,437.5 439.5,437.5 430.5,437.5 421.6,437.5 412.6,437.5 403.6,437.5 394.7,437.5 385.7,444.1 376.8,444.1 367.8,444.1 358.8,444.1 349.9,444.1 340.9,444.1 331.9,443.6 323.0,443.6 314.0,443.3 305.1,443.3 296.1,443.3 287.1,445.6 278.2,445.6 269.2,439.6 260.3,439.6 251.3,439.6 242.3,439.6 233.4,439.6 224.4,439.0 215.5,438.9 206.5,448.2 197.5,447.0 188.6,447.0 179.6,455.1 170.6,455.4 161.7,455.5 152.7,650.0 143.8,650.0 134.8,650.0 125.8,650.0 116.9,650.0 107.9,650.0 99.0,650.0 90.0,650.0" fill="#663399" opacity="0.6" class="anim" style="animation-delay:800ms;"/>
<polygon points="90.0,650.0 99.0,650.0 107.9,650.0 116.9,650.0 125.8,650.0 134.8,650.0 143.8,650.0 152.7,650.0 161.7,436.6 170.6,436.3 179.6,435.9 188.6,432.2 197.5,432.2 206.5,432.2 215.5,426.2 224.4,426.1 233.4,426.0 242.3,426.0 251.3,426.0 260.3,426.0 269.2,426.0 278.2,430.8 287.1,430.7 296.1,429.3 305.1,429.3 314.0,429.3 323.0,429.2 331.9,429.2 340.9,428.9 349.9,428.9 358.8,428.8 367.8,428.8 376.8,428.8 385.7,428.8 394.7,423.0 403.6,422.9 412.6,422.9 421.6,422.9 430.5,422.9 439.5,422.0 448.4,422.0 457.4,421.9 466.4,421.9 475.3,421.9 484.3,421.8 493.2,421.8 502.2,421.8 511.2,421.8 520.1,421.8 529.1,421.8 538.1,421.8 547.0,421.8 556.0,421.8 564.9,421.8 573.9,421.8 582.9,421.8 591.8,421.8 600.8,421.7 609.7,421.8 618.7,421.8 627.7,421.8 636.6,421.8 645.6,423.2 654.5,423.6 663.5,423.6 672.5,423.6 681.4,423.6 690.4,423.6 699.4,423.6 708.3,423.6 717.3,423.6 726.2,423.5 735.2,423.5 744.2,423.5 753.1,423.5 762.1,423.5 771.0,422.6 780.0,421.7 780.0,426.3 771.0,427.5 762.1,428.7 753.1,428.7 744.2,428.7 735.2,428.7 726.2,428.7 717.3,428.9 708.3,428.9 699.4,428.9 690.4,428.9 681.4,428.9 672.5,428.9 663.5,428.9 654.5,428.9 645.6,428.4 636.6,427.1 627.7,427.1 618.7,427.1 609.7,427.1 600.8,427.0 591.8,427.0 582.9,427.0 573.9,427.0 564.9,427.0 556.0,427.0 547.0,427.0 538.1,427.0 529.1,427.0 520.1,427.0 511.2,427.0 502.2,427.0 493.2,427.0 484.3,427.0 475.3,427.1 466.4,427.1 457.4,427.1 448.4,427.3 439.5,427.3 430.5,428.5 421.6,428.5 412.6,428.5 403.6,428.6 394.7,428.7 385.7,437.1 376.8,437.1 367.8,437.1 358.8,437.1 349.9,437.1 340.9,437.1 331.9,437.3 323.0,437.3 314.0,437.4 305.1,437.4 296.1,437.4 287.1,439.3 278.2,439.3 269.2,432.6 260.3,432.6 251.3,432.6 242.3,432.6 233.4,432.6 224.4,432.2 215.5,432.3 206.5,439.4 197.5,439.5 188.6,439.5 179.6,441.6 170.6,442.0 161.7,442.3 152.7,650.0 143.8,650.0 134.8,650.0 125.8,650.0 116.9,650.0 107.9,650.0 99.0,650.0 90.0,650.0" fill="#083fa1" opacity="0.6" class="anim" style="animation-delay:900ms;"/>
<polygon points="90.0,650.0 99.0,650.0 107.9,650.0 116.9,650.0 125.8,650.0 134.8,650.0 143.8,650.0 152.7,650.0 161.7,427.0 170.6,426.8 179.6,426.6 188.6,424.2 197.5,424.2 206.5,424.2 215.5,420.4 224.4,420.3 233.4,420.3 242.3,420.3 251.3,420.3 260.3,420.3 269.2,420.3 278.2,423.3 287.1,423.2 296.1,422.4 305.1,422.4 314.0,422.4 323.0,422.3 331.9,422.3 340.9,422.1 349.9,422.1 358.8,422.1 367.8,422.1 376.8,422.1 385.7,422.1 394.7,418.3 403.6,418.3 412.6,418.2 421.6,418.2 430.5,418.2 439.5,417.7 448.4,417.7 457.4,417.6 466.4,417.6 475.3,417.6 484.3,417.6 493.2,417.6 502.2,417.6 511.2,417.6 520.1,417.6 529.1,417.6 538.1,417.6 547.0,417.6 556.0,417.6 564.9,417.6 573.9,417.6 582.9,417.6 591.8,417.6 600.8,417.5 609.7,417.6 618.7,417.6 627.7,417.6 636.6,417.6 645.6,419.0 654.5,419.5 663.5,419.5 672.5,419.5 681.4,419.5 690.4,419.5 699.4,419.5 708.3,419.5 717.3,419.5 726.2,419.4 735.2,419.4 744.2,419.4 753.1,419.4 762.1,419.4 771.0,418.9 780.0,418.5 780.0,421.7 771.0,422.6 762.1,423.5 753.1,423.5 744.2,423.5 735.2,423.5 726.2,423.5 717.3,423.6 708.3,423.6 699.4,423.6 690.4,423.6 681.4,423.6 672.5,423.6 663.5,423.6 654.5,423.6 645.6,423.2 636.6,421.8 627.7,421.8 618.7,421.8 609.7,421.8 600.8,421.7 591.8,421.8 582.9,421.8 573.9,421.8 564.9,421.8 556.0,421.8 547.0,421.8 538.1,421.8 529.1,421.8 520.1,421.8 511.2,421.8 502.2,421.8 493.2,421.8 484.3,421.8 475.3,421.9 466.4,421.9 457.4,421.9 448.4,422.0 439.5,422.0 430.5,422.9 421.6,422.9 412.6,422.9 403.6,422.9 394.7,423.0 385.7,428.8 376.8,428.8 367.8,428.8 358.8,428.8 349.9,428.9 340.9,428.9 331.9,429.2 323.0,429.2 314.0,429.3 305.1,429.3 296.1,429.3 287.1,430.7 278.2,430.8 269.2,426.0 260.3,426.0 251.3,426.0 242.3,426.0 233.4,426.0 224.4,426.1 215.5,426.2 206.5,432.2 197.5,432.2 188.6,432.2 179.6,435.9 170.6,436.3 161.7,436.6 152.7,650.0 143.8,650.0 134.8,650.0 125.8,650.0 116.9,650.0 107.9,650.0 99.0,650.0 90.0,650.0" fill="#6E4C13" opacity="0.6" class="anim" style="animation-delay:1000ms;"/>
<polygon points="90.0,650.0 99.0,650.0 107.9,650.0 116.9,650.0 125.8,650.0 134.8,650.0 143.8,650.0 152.7,650.0 161.7,418.7 170.6,418.6 179.6,418.5 188.6,417.3 197.5,417.3 206.5,417.2 215.5,415.3 224.4,415.3 233.4,415.2 242.3,415.2 251.3,415.2 260.3,415.2 269.2,415.2 278.2,416.8 287.1,416.8 296.1,416.3 305.1,416.3 314.0,416.3 323.0,416.3 331.9,416.3 340.9,416.2 349.9,416.2 358.8,416.2 367.8,416.2 376.8,416.2 385.7,416.2 394.7,414.2 403.6,414.2 412.6,414.2 421.6,414.2 430.5,414.2 439.5,413.9 448.4,413.9 457.4,413.9 466.4,413.9 475.3,413.9 484.3,413.9 493.2,413.9 502.2,413.9 511.2,413.9 520.1,413.9 529.1,413.9 538.1,413.9 547.0,413.9 556.0,413.9 564.9,413.9 573.9,413.9 582.9,413.9 591.8,413.9 600.8,413.8 609.7,413.8 618.7,413.8 627.7,413.8 636.6,413.8 645.6,413.8 654.5,413.8 663.5,413.8 672.5,413.8 681.4,413.8 690.4,413.8 699.4,413.8 708.3,413.8 717.3,413.8 726.2,413.8 735.2,413.8 744.2,413.8 753.1,413.8 762.1,413.8 771.0,413.6 780.0,413.3 780.0,418.5 771.0,418.9 762.1,419.4 753.1,419.4 744.2,419.4 735.2,419.4 726.2,419.4 717.3,419.5 708.3,419.5 699.4,419.5 690.4,419.5 681.4,419.5 672.5,419.5 663.5,419.5 654.5,419.5 645.6,419.0 636.6,417.6 627.7,417.6 618.7,417.6 609.7,417.6 600.8,417.5 591.8,417.6 582.9,417.6 573.9,417.6 564.9,417.6 556.0,417.6 547.0,417.6 538.1,417.6 529.1,417.6 520.1,417.6 511.2,417.6 502.2,417.6 493.2,417.6 484.3,417.6 475.3,417.6 466.4,417.6 457.4,417.6 448.4,417.7 439.5,417.7 430.5,418.2 421.6,418.2 412.6,418.2 403.6,418.3 394.7,418.3 385.7,422.1 376.8,422.1 367.8,422.1 358.8,422.1 349.9,422.1 340.9,422.1 331.9,422.3 323.0,422.3 314.0,422.4 305.1,422.4 296.1,422.4 287.1,423.2 278.2,423.3 269.2,420.3 260.3,420.3 251.3,420.3 242.3,420.3 233.4,420.3 224.4,420.3 215.5,420.4 206.5,424.2 197.5,424.2 188.6,424.2 179.6,426.6 170.6,426.8 161.7,427.0 152.7,650.0 143.8,650.0 134.8,650.0 125.8,650.0 116.9,650.0 107.9,650.0 99.0,650.0 90.0,650.0" fill="#F05138" opacity="0.6" class="anim" style="animation-delay:1100ms;"/>
<polygon points="90.0,650.0 99.0,650.0 107.9,650.0 116.9,650.0 125.8,650.0 134.8,650.0 143.8,650.0 152.7,650.0 161.7,414.4 170.6,414.4 179.6,414.3 188.6,413.7 197.5,413.7 206.5,413.7 215.5,412.7 224.4,412.7 233.4,412.7 242.3,412.7 251.3,412.7 260.3,412.7 269.2,412.7 278.2,413.5 287.1,413.4 296.1,413.2 305.1,413.2 314.0,413.2 323.0,413.2 331.9,413.2 340.9,413.1 349.9,413.1 358.8,413.1 367.8,413.1 376.8,413.1 385.7,413.1 394.7,412.2 403.6,412.1 412.6,412.1 421.6,412.1 430.5,412.1 439.5,412.0 448.4,412.0 457.4,412.0 466.4,412.0 475.3,412.0 484.3,412.0 493.2,412.0 502.2,412.0 511.2,412.0 520.1,412.0 529.1,412.0 538.1,412.0 547.0,412.0 556.0,412.0 564.9,412.0 573.9,412.0 582.9,412.0 591.8,412.0 600.8,411.9 609.7,411.9 618.7,411.9 627.7,411.9 636.6,411.9 645.6,411.9 654.5,411.9 663.5,411.9 672.5,411.9 681.4,411.9 690.4,411.9 699.4,411.9 708.3,411.9 717.3,411.9 726.2,411.9 735.2,411.9 744.2,411.9 753.1,411.9 762.1,411.9 771.0,411.9 780.0,411.9 780.0,413.3 771.0,413.6 762.1,413.8 753.1,413.8 744.2,413.8 735.2,413.8 726.2,413.8 717.3,413.8 708.3,413.8 699.4,413.8 690.4,413.8 681.4,413.8 672.5,413.8 663.5,413.8 654.5,413.8 645.6,413.8 636.6,413.8 627.7,413.8 618.7,413.8 609.7,413.8 600.8,413.8 591.8,413.9 582.9,413.9 573.9,413.9 564.9,413.9 556.0,413.9 547.0,413.9 538.1,413.9 529.1,413.9 520.1,413.9 511.2,413.9 502.2,413.9 493.2,413.9 484.3,413.9 475.3,413.9 466.4,413.9 457.4,413.9 448.4,413.9 439.5,413.9 430.5,414.2 421.6,414.2 412.6,414.2 403.6,414.2 394.7,414.2 385.7,416.2 376.8,416.2 367.8,416.2 358.8,416.2 349.9,416.2 340.9,416.2 331.9,416.3 323.0,416.3 314.0,416.3 305.1,416.3 296.1,416.3 287.1,416.8 278.2,416.8 269.2,415.2 260.3,415.2 251.3,415.2 242.3,415.2 233.4,415.2 224.4,415.3 215.5,415.3 206.5,417.2 197.5,417.3 188.6,417.3 179.6,418.5 170.6,418.6 161.7,418.7 152.7,650.0 143.8,650.0 134.8,650.0 125.8,650.0 116.9,650.0 107.9,650.0 99.0,650.0 90.0,650.0" fill="#b07219" opacity="0.6" class="anim" style="animation-delay:1200ms;"/>
<line x1="762.1" y1="100" x2="762.1" y2="650" stroke="#c9d1d9" stroke-width="1" stroke-dasharray="4,3" opacity="0.35"/>
<text x="771.0" y="112" text-anchor="middle" class="axis-label" opacity="0.6">Jul 07, 2026</text>
<text x="90.0" y="668" text-anchor="middle" class="axis-label" transform="rotate(-35 90.0 668)">2026-02</text>
<text x="305.1" y="668" text-anchor="middle" class="axis-label" transform="rotate(-35 305.1 668)">2026-03</text>
<text x="591.8" y="668" text-anchor="middle" class="axis-label" transform="rotate(-35 591.8 668)">2026-04</text>
<text x="663.5" y="668" text-anchor="middle" class="axis-label" transform="rotate(-35 663.5 668)">2026-06</text>
<text x="771.0" y="668" text-anchor="middle" class="axis-label" transform="rotate(-35 771.0 668)">Jul 07, 2026</text>
<line x1="796" y1="110" x2="824" y2="110" stroke="#3fb950" stroke-width="2"/>
<text x="832" y="116" class="legend-text">Lines Added</text>
<line x1="796" y1="140" x2="824" y2="140" stroke="#f85149" stroke-width="1.5"/>
<text x="832" y="146" class="legend-text">Lines Deleted</text>
<line x1="796" y1="170" x2="824" y2="170" stroke="#e3b341" stroke-width="1.5" stroke-dasharray="4,3"/>
<text x="832" y="176" class="legend-text">&#x2605; Stars</text>
<text x="796" y="200" class="subtitle">Languages</text>
<rect x="796" y="212" width="12" height="12" rx="2" fill="#e34c26" opacity="0.8" class="anim" style="animation-delay:800ms;"/>
<text x="814" y="223" class="legend-text">HTML (58%→56%)</text>
<rect x="796" y="234" width="12" height="12" rx="2" fill="#f1e05a" opacity="0.8" class="anim" style="animation-delay:880ms;"/>
<text x="814" y="245" class="legend-text">JavaScript (22%→25%)</text>
<rect x="796" y="256" width="12" height="12" rx="2" fill="#3572A5" opacity="0.8" class="anim" style="animation-delay:960ms;"/>
<text x="814" y="267" class="legend-text">Python (7%→5%)</text>
<rect x="796" y="278" width="12" height="12" rx="2" fill="#663399" opacity="0.8" class="anim" style="animation-delay:1040ms;"/>
<text x="814" y="289" class="legend-text">CSS (6%→6%)</text>
<rect x="796" y="300" width="12" height="12" rx="2" fill="#083fa1" opacity="0.8" class="anim" style="animation-delay:1120ms;"/>
<text x="814" y="311" class="legend-text">Markdown (2%→2%)</text>
<rect x="796" y="322" width="12" height="12" rx="2" fill="#6E4C13" opacity="0.8" class="anim" style="animation-delay:1200ms;"/>
<text x="814" y="333" class="legend-text">Assembly (2%→1%)</text>
<rect x="796" y="344" width="12" height="12" rx="2" fill="#F05138" opacity="0.8" class="anim" style="animation-delay:1280ms;"/>
<text x="814" y="355" class="legend-text">Swift (2%→2%)</text>
<rect x="796" y="366" width="12" height="12" rx="2" fill="#b07219" opacity="0.8" class="anim" style="animation-delay:1360ms;"/>
<text x="814" y="377" class="legend-text">Java (1%→1%)</text>
<text x="796" y="412" class="subtitle">Contributions</text>
<text x="796" y="432" class="axis-label">2023: 39</text>
<text x="796" y="452" class="axis-label">2024: 646</text>
<text x="796" y="472" class="axis-label">2025: 1,780</text>
<text x="796" y="492" class="axis-label">2026: 491</text>
<text x="796" y="522" class="subtitle">Statistics</text>
<text x="796" y="542" class="axis-label">Active weeks: 88</text>
<text x="796" y="562" class="axis-label">Add/Del ratio: 1.8x</text>
<text x="796" y="582" class="axis-label">Avg lines/wk: 18K</text>
<text x="796" y="602" class="axis-label">Peak: 2026-02-15</text>
<text x="796" y="622" class="axis-label">  (543K lines)</text>
<text x="90" y="742" class="axis-label">Total: +1,040,332 / -576,819 lines &#xb7; 2,956 contributions &#xb7; 80 repos &#xb7; &#x2605; 37</text>
</svg>