<svg xmlns="http://www.w3.org/2000/svg" width="1000" height="760" style="max-width: 100%;" viewBox="0 0 1000 760">

<defs>
  <linearGradient id="areaGrad" x1="0" y1="0" x2="0" y2="1">
    <stop offset="0%" stop-color="#58a6ff" stop-opacity="0.35"/>
    <stop offset="100%" stop-color="#58a6ff" stop-opacity="0.02"/>
  </linearGradient>
  <linearGradient id="addGrad" x1="0" y1="0" x2="0" y2="1">
    <stop offset="0%" stop-color="#3fb950" stop-opacity="0.35"/>
    <stop offset="100%" stop-color="#3fb950" stop-opacity="0.02"/>
  </linearGradient>
  <linearGradient id="delGrad" x1="0" y1="0" x2="0" y2="1">
    <stop offset="0%" stop-color="#f85149" stop-opacity="0.25"/>
    <stop offset="100%" stop-color="#f85149" stop-opacity="0.02"/>
  </linearGradient>
</defs>
<style>
  .title { font: bold 28px 'Segoe UI', Ubuntu, Sans-Serif; fill: #c9d1d9; }
  .subtitle { font: 600 20px 'Segoe UI', Ubuntu, Sans-Serif; fill: #c9d1d9; opacity: 0.8; }
  .axis-label { font: 18px 'Segoe UI', Ubuntu, Sans-Serif; fill: #c9d1d9; opacity: 0.7; }
  .legend-text { font: 14px 'Segoe UI', Ubuntu, Sans-Serif; fill: #c9d1d9; }
  .value-text { font: bold 18px 'Segoe UI', Ubuntu, Sans-Serif; fill: #c9d1d9; }
  .stat-value { font: bold 22px 'Segoe UI', Ubuntu, Sans-Serif; fill: #c9d1d9; }
  .stat-label { font: 18px 'Segoe UI', Ubuntu, Sans-Serif; fill: #c9d1d9; opacity: 0.7; }
  @keyframes fadeIn { from { opacity: 0; } to { opacity: 1; } }
  .anim { animation: fadeIn 0.6s ease-in-out forwards; opacity: 0; }
</style>

<rect x="0.5" y="0.5" rx="4.5" width="999" height="759" fill="#161b22" stroke="#21262d"/>
<text x="90" y="45" class="title">Activity History</text>
<text x="90" y="72" class="subtitle">Lines added vs deleted &amp; activity trends over time</text>
<line x1="90" y1="340.0" x2="780" y2="340.0" stroke="#21262d" stroke-width="1"/>
<text x="82" y="344.0" text-anchor="end" class="axis-label">0</text>
<line x1="90" y1="280.0" x2="780" y2="280.0" stroke="#21262d" stroke-width="1"/>
<text x="82" y="284.0" text-anchor="end" class="axis-label">451K</text>
<line x1="90" y1="220.0" x2="780" y2="220.0" stroke="#21262d" stroke-width="1"/>
<text x="82" y="224.0" text-anchor="end" class="axis-label">902K</text>
<line x1="90" y1="160.0" x2="780" y2="160.0" stroke="#21262d" stroke-width="1"/>
<text x="82" y="164.0" text-anchor="end" class="axis-label">1.4M</text>
<line x1="90" y1="100.0" x2="780" y2="100.0" stroke="#21262d" stroke-width="1"/>
<text x="82" y="104.0" text-anchor="end" class="axis-label">1.8M</text>
<polygon points="90.0,340.0 90.0,291.4 97.7,293.2 105.3,291.5 113.0,293.2 120.7,304.4 128.3,282.2 136.0,282.1 143.7,273.8 151.3,273.4 159.0,272.9 166.7,272.9 174.3,257.9 182.0,257.9 189.7,257.9 197.3,235.7 205.0,235.4 212.7,235.2 220.3,235.2 228.0,235.2 235.7,235.2 243.3,235.2 251.0,234.6 258.7,219.8 266.3,219.8 274.0,219.8 281.7,219.8 289.3,219.4 297.0,219.4 304.7,218.8 312.3,218.8 320.0,218.7 327.7,218.7 335.3,218.7 343.0,218.7 350.7,218.8 358.3,218.7 366.0,218.7 373.7,218.7 381.3,218.7 389.0,218.7 396.7,218.7 404.3,218.1 412.0,218.3 419.7,217.7 427.3,217.3 435.0,217.3 442.7,217.3 450.3,217.3 458.0,217.3 465.7,217.3 473.3,217.3 481.0,217.3 488.7,217.3 496.3,217.3 504.0,217.6 511.7,219.1 519.3,217.6 527.0,216.4 534.7,216.3 542.3,216.3 550.0,216.3 557.7,216.3 565.3,208.7 573.0,201.8 580.7,201.8 588.3,201.8 596.0,201.8 603.7,201.8 611.3,201.8 619.0,201.8 626.7,201.8 634.3,201.6 642.0,201.6 649.7,201.6 657.3,201.6 665.0,201.6 672.7,201.6 680.3,201.6 688.0,201.6 695.7,201.6 703.3,201.6 711.0,201.6 718.7,201.6 726.3,201.6 734.0,201.6 741.7,201.6 749.3,201.6 757.0,201.6 764.7,201.6 772.3,194.4 780.0,187.2 780.0,340.0" fill="url(#addGrad)" class="anim" style="animation-delay:200ms;"/>
<polyline points="90.0,291.4 97.7,293.2 105.3,291.5 113.0,293.2 120.7,304.4 128.3,282.2 136.0,282.1 143.7,273.8 151.3,273.4 159.0,272.9 166.7,272.9 174.3,257.9 182.0,257.9 189.7,257.9 197.3,235.7 205.0,235.4 212.7,235.2 220.3,235.2 228.0,235.2 235.7,235.2 243.3,235.2 251.0,234.6 258.7,219.8 266.3,219.8 274.0,219.8 281.7,219.8 289.3,219.4 297.0,219.4 304.7,218.8 312.3,218.8 320.0,218.7 327.7,218.7 335.3,218.7 343.0,218.7 350.7,218.8 358.3,218.7 366.0,218.7 373.7,218.7 381.3,218.7 389.0,218.7 396.7,218.7 404.3,218.1 412.0,218.3 419.7,217.7 427.3,217.3 435.0,217.3 442.7,217.3 450.3,217.3 458.0,217.3 465.7,217.3 473.3,217.3 481.0,217.3 488.7,217.3 496.3,217.3 504.0,217.6 511.7,219.1 519.3,217.6 527.0,216.4 534.7,216.3 542.3,216.3 550.0,216.3 557.7,216.3 565.3,208.7 573.0,201.8 580.7,201.8 588.3,201.8 596.0,201.8 603.7,201.8 611.3,201.8 619.0,201.8 626.7,201.8 634.3,201.6 642.0,201.6 649.7,201.6 657.3,201.6 665.0,201.6 672.7,201.6 680.3,201.6 688.0,201.6 695.7,201.6 703.3,201.6 711.0,201.6 718.7,201.6 726.3,201.6 734.0,201.6 741.7,201.6 749.3,201.6 757.0,201.6 764.7,201.6" fill="none" stroke="#3fb950" stroke-width="2" stroke-linejoin="round" class="anim" style="animation-delay:250ms;"/>
<polyline points="764.7,201.6 772.3,194.4 780.0,187.2" fill="none" stroke="#3fb950" stroke-width="1.5" stroke-dasharray="5,4" stroke-linejoin="round" opacity="0.6" class="anim" style="animation-delay:250ms;"/>
<polygon points="90.0,340.0 90.0,326.3 97.7,327.8 105.3,326.4 113.0,327.7 120.7,333.6 128.3,324.7 136.0,324.7 143.7,323.7 151.3,323.4 159.0,323.1 166.7,323.1 174.3,307.0 182.0,307.0 189.7,306.9 197.3,288.7 205.0,288.6 212.7,288.6 220.3,288.6 228.0,288.6 235.7,288.6 243.3,288.6 251.0,279.0 258.7,264.5 266.3,264.4 274.0,264.4 281.7,264.4 289.3,264.4 297.0,264.4 304.7,264.3 312.3,264.3 320.0,264.2 327.7,264.2 335.3,264.2 343.0,264.2 350.7,264.3 358.3,264.2 366.0,264.2 373.7,264.2 381.3,264.2 389.0,264.2 396.7,264.2 404.3,264.2 412.0,264.3 419.7,263.8 427.3,263.8 435.0,263.8 442.7,263.8 450.3,263.8 458.0,263.8 465.7,263.8 473.3,263.8 481.0,263.8 488.7,263.8 496.3,263.8 504.0,263.9 511.7,264.7 519.3,264.2 527.0,263.4 534.7,263.3 542.3,263.3 550.0,263.3 557.7,263.3 565.3,263.3 573.0,263.3 580.7,263.3 588.3,263.3 596.0,263.3 603.7,263.3 611.3,263.3 619.0,263.3 626.7,263.3 634.3,263.3 642.0,263.3 649.7,263.3 657.3,263.3 665.0,263.3 672.7,263.3 680.3,263.3 688.0,263.3 695.7,263.3 703.3,263.3 711.0,263.3 718.7,263.3 726.3,263.3 734.0,263.3 741.7,263.3 749.3,263.3 757.0,263.3 764.7,263.3 772.3,258.1 780.0,252.8 780.0,340.0" fill="url(#delGrad)" class="anim" style="animation-delay:300ms;"/>
<polyline points="90.0,326.3 97.7,327.8 105.3,326.4 113.0,327.7 120.7,333.6 128.3,324.7 136.0,324.7 143.7,323.7 151.3,323.4 159.0,323.1 166.7,323.1 174.3,307.0 182.0,307.0 189.7,306.9 197.3,288.7 205.0,288.6 212.7,288.6 220.3,288.6 228.0,288.6 235.7,288.6 243.3,288.6 251.0,279.0 258.7,264.5 266.3,264.4 274.0,264.4 281.7,264.4 289.3,264.4 297.0,264.4 304.7,264.3 312.3,264.3 320.0,264.2 327.7,264.2 335.3,264.2 343.0,264.2 350.7,264.3 358.3,264.2 366.0,264.2 373.7,264.2 381.3,264.2 389.0,264.2 396.7,264.2 404.3,264.2 412.0,264.3 419.7,263.8 427.3,263.8 435.0,263.8 442.7,263.8 450.3,263.8 458.0,263.8 465.7,263.8 473.3,263.8 481.0,263.8 488.7,263.8 496.3,263.8 504.0,263.9 511.7,264.7 519.3,264.2 527.0,263.4 534.7,263.3 542.3,263.3 550.0,263.3 557.7,263.3 565.3,263.3 573.0,263.3 580.7,263.3 588.3,263.3 596.0,263.3 603.7,263.3 611.3,263.3 619.0,263.3 626.7,263.3 634.3,263.3 642.0,263.3 649.7,263.3 657.3,263.3 665.0,263.3 672.7,263.3 680.3,263.3 688.0,263.3 695.7,263.3 703.3,263.3 711.0,263.3 718.7,263.3 726.3,263.3 734.0,263.3 741.7,263.3 749.3,263.3 757.0,263.3 764.7,263.3" fill="none" stroke="#f85149" stroke-width="1.5" stroke-linejoin="round" class="anim" style="animation-delay:350ms;"/>
<polyline points="764.7,263.3 772.3,258.1 780.0,252.8" fill="none" stroke="#f85149" stroke-width="1" stroke-dasharray="5,4" stroke-linejoin="round" opacity="0.6" class="anim" style="animation-delay:350ms;"/>
<polyline points="90.0,340.0 97.7,340.0 105.3,340.0 113.0,340.0 120.7,340.0 128.3,340.0 136.0,340.0 143.7,340.0 151.3,308.0 159.0,308.0 166.7,308.0 174.3,308.0 182.0,308.0 189.7,308.0 197.3,308.0 205.0,308.0 212.7,308.0 220.3,308.0 228.0,308.0 235.7,308.0 243.3,308.0 251.0,308.0 258.7,308.0 266.3,308.0 274.0,308.0 281.7,308.0 289.3,308.0 297.0,308.0 304.7,308.0 312.3,308.0 320.0,308.0 327.7,308.0 335.3,308.0 343.0,308.0 350.7,276.0 358.3,276.0 366.0,276.0 373.7,276.0 381.3,276.0 389.0,276.0 396.7,276.0 404.3,276.0 412.0,244.0 419.7,244.0 427.3,244.0 435.0,244.0 442.7,244.0 450.3,244.0 458.0,244.0 465.7,244.0 473.3,244.0 481.0,244.0 488.7,244.0 496.3,244.0 504.0,244.0 511.7,244.0 519.3,244.0 527.0,244.0 534.7,180.0 542.3,180.0 550.0,180.0 557.7,180.0 565.3,180.0 573.0,180.0 580.7,180.0 588.3,180.0 596.0,180.0 603.7,180.0 611.3,180.0 619.0,180.0 626.7,180.0 634.3,180.0 642.0,180.0 649.7,180.0 657.3,180.0 665.0,180.0 672.7,180.0 680.3,180.0 688.0,180.0 695.7,180.0 703.3,180.0 711.0,180.0 718.7,180.0 726.3,180.0 734.0,180.0 741.7,180.0 749.3,180.0 757.0,180.0 764.7,180.0" fill="none" stroke="#e3b341" stroke-width="1.5" stroke-dasharray="4,3" stroke-linejoin="round" class="anim" style="animation-delay:400ms;"/>
<polyline points="764.7,180.0 772.3,180.0 780.0,148.0" fill="none" stroke="#e3b341" stroke-width="1" stroke-dasharray="3,5" stroke-linejoin="round" opacity="0.5" class="anim" style="animation-delay:400ms;"/>
<text x="90" y="90" class="subtitle">Lines Added vs Deleted (per snapshot)</text>
<text x="90" y="400" class="subtitle">Programming Language Development (%)</text>
<line x1="90" y1="650.0" x2="780" y2="650.0" stroke="#21262d" stroke-width="1"/>
<text x="82" y="654.0" text-anchor="end" class="axis-label">0%</text>
<line x1="90" y1="590.0" x2="780" y2="590.0" stroke="#21262d" stroke-width="1"/>
<text x="82" y="594.0" text-anchor="end" class="axis-label">25%</text>
<line x1="90" y1="530.0" x2="780" y2="530.0" stroke="#21262d" stroke-width="1"/>
<text x="82" y="534.0" text-anchor="end" class="axis-label">50%</text>
<line x1="90" y1="470.0" x2="780" y2="470.0" stroke="#21262d" stroke-width="1"/>
<text x="82" y="474.0" text-anchor="end" class="axis-label">75%</text>
<line x1="90" y1="410.0" x2="780" y2="410.0" stroke="#21262d" stroke-width="1"/>
<text x="82" y="414.0" text-anchor="end" class="axis-label">100%</text>
<polygon points="90.0,650.0 97.7,650.0 105.3,650.0 113.0,650.0 120.7,650.0 128.3,650.0 136.0,650.0 143.7,650.0 151.3,528.2 159.0,528.5 166.7,529.7 174.3,499.3 182.0,499.3 189.7,502.9 197.3,485.0 205.0,485.1 212.7,485.4 220.3,485.4 228.0,485.4 235.7,485.4 243.3,485.4 251.0,496.4 258.7,496.7 266.3,491.0 274.0,491.0 281.7,491.0 289.3,491.7 297.0,491.8 304.7,494.0 312.3,494.0 320.0,494.4 327.7,494.4 335.3,494.4 343.0,494.4 350.7,507.6 358.3,507.6 366.0,507.9 373.7,507.9 381.3,507.9 389.0,506.3 396.7,506.4 404.3,506.8 412.0,506.9 419.7,506.8 427.3,507.5 435.0,507.5 442.7,507.5 450.3,507.5 458.0,507.5 465.7,507.5 473.3,507.5 481.0,507.5 488.7,507.5 496.3,507.5 504.0,507.5 511.7,507.5 519.3,507.5 527.0,508.6 534.7,508.6 542.3,508.6 550.0,508.6 557.7,508.6 565.3,509.5 573.0,509.8 580.7,509.8 588.3,509.8 596.0,509.8 603.7,509.8 611.3,509.8 619.0,509.8 626.7,509.8 634.3,510.9 642.0,510.9 649.7,510.9 657.3,510.9 665.0,510.9 672.7,510.9 680.3,510.9 688.0,510.9 695.7,510.9 703.3,510.9 711.0,510.9 718.7,510.9 726.3,510.9 734.0,510.9 741.7,510.9 749.3,510.9 757.0,510.9 764.7,510.9 772.3,512.8 780.0,514.7 780.0,650.0 772.3,650.0 764.7,650.0 757.0,650.0 749.3,650.0 741.7,650.0 734.0,650.0 726.3,650.0 718.7,650.0 711.0,650.0 703.3,650.0 695.7,650.0 688.0,650.0 680.3,650.0 672.7,650.0 665.0,650.0 657.3,650.0 649.7,650.0 642.0,650.0 634.3,650.0 626.7,650.0 619.0,650.0 611.3,650.0 603.7,650.0 596.0,650.0 588.3,650.0 580.7,650.0 573.0,650.0 565.3,650.0 557.7,650.0 550.0,650.0 542.3,650.0 534.7,650.0 527.0,650.0 519.3,650.0 511.7,650.0 504.0,650.0 496.3,650.0 488.7,650.0 481.0,650.0 473.3,650.0 465.7,650.0 458.0,650.0 450.3,650.0 442.7,650.0 435.0,650.0 427.3,650.0 419.7,650.0 412.0,650.0 404.3,650.0 396.7,650.0 389.0,650.0 381.3,650.0 373.7,650.0 366.0,650.0 358.3,650.0 350.7,650.0 343.0,650.0 335.3,650.0 327.7,650.0 320.0,650.0 312.3,650.0 304.7,650.0 297.0,650.0 289.3,650.0 281.7,650.0 274.0,650.0 266.3,650.0 258.7,650.0 251.0,650.0 243.3,650.0 235.7,650.0 228.0,650.0 220.3,650.0 212.7,650.0 205.0,650.0 197.3,650.0 189.7,650.0 182.0,650.0 174.3,650.0 166.7,650.0 159.0,650.0 151.3,650.0 143.7,650.0 136.0,650.0 128.3,650.0 120.7,650.0 113.0,650.0 105.3,650.0 97.7,650.0 90.0,650.0" fill="#e34c26" opacity="0.6" class="anim" style="animation-delay:500ms;"/>
<polygon points="90.0,650.0 97.7,650.0 105.3,650.0 113.0,650.0 120.7,650.0 128.3,650.0 136.0,650.0 143.7,650.0 151.3,488.4 159.0,488.0 166.7,489.0 174.3,476.0 182.0,476.0 189.7,477.2 197.3,460.1 205.0,460.2 212.7,460.6 220.3,460.6 228.0,460.6 235.7,460.6 243.3,460.6 251.0,473.0 258.7,473.5 266.3,469.5 274.0,469.5 281.7,469.5 289.3,469.7 297.0,469.7 304.7,469.7 312.3,469.7 320.0,469.7 327.7,469.7 335.3,469.7 343.0,469.7 350.7,455.6 358.3,455.6 366.0,455.4 373.7,455.4 381.3,455.4 389.0,454.3 396.7,454.3 404.3,455.0 412.0,455.1 419.7,454.9 427.3,455.9 435.0,455.9 442.7,455.9 450.3,455.9 458.0,455.9 465.7,455.9 473.3,455.9 481.0,455.9 488.7,455.9 496.3,455.9 504.0,455.9 511.7,455.9 519.3,455.9 527.0,455.8 534.7,455.8 542.3,455.8 550.0,455.8 557.7,455.8 565.3,457.0 573.0,457.4 580.7,457.4 588.3,457.4 596.0,457.4 603.7,457.4 611.3,457.4 619.0,457.4 626.7,457.4 634.3,458.2 642.0,458.2 649.7,458.2 657.3,458.2 665.0,458.2 672.7,458.2 680.3,458.2 688.0,458.2 695.7,458.2 703.3,458.2 711.0,458.2 718.7,458.2 726.3,458.2 734.0,458.2 741.7,458.2 749.3,458.2 757.0,458.2 764.7,458.2 772.3,456.5 780.0,454.9 780.0,514.7 772.3,512.8 764.7,510.9 757.0,510.9 749.3,510.9 741.7,510.9 734.0,510.9 726.3,510.9 718.7,510.9 711.0,510.9 703.3,510.9 695.7,510.9 688.0,510.9 680.3,510.9 672.7,510.9 665.0,510.9 657.3,510.9 649.7,510.9 642.0,510.9 634.3,510.9 626.7,509.8 619.0,509.8 611.3,509.8 603.7,509.8 596.0,509.8 588.3,509.8 580.7,509.8 573.0,509.8 565.3,509.5 557.7,508.6 550.0,508.6 542.3,508.6 534.7,508.6 527.0,508.6 519.3,507.5 511.7,507.5 504.0,507.5 496.3,507.5 488.7,507.5 481.0,507.5 473.3,507.5 465.7,507.5 458.0,507.5 450.3,507.5 442.7,507.5 435.0,507.5 427.3,507.5 419.7,506.8 412.0,506.9 404.3,506.8 396.7,506.4 389.0,506.3 381.3,507.9 373.7,507.9 366.0,507.9 358.3,507.6 350.7,507.6 343.0,494.4 335.3,494.4 327.7,494.4 320.0,494.4 312.3,494.0 304.7,494.0 297.0,491.8 289.3,491.7 281.7,491.0 274.0,491.0 266.3,491.0 258.7,496.7 251.0,496.4 243.3,485.4 235.7,485.4 228.0,485.4 220.3,485.4 212.7,485.4 205.0,485.1 197.3,485.0 189.7,502.9 182.0,499.3 174.3,499.3 166.7,529.7 159.0,528.5 151.3,528.2 143.7,650.0 136.0,650.0 128.3,650.0 120.7,650.0 113.0,650.0 105.3,650.0 97.7,650.0 90.0,650.0" fill="#f1e05a" opacity="0.6" class="anim" style="animation-delay:600ms;"/>
<polygon points="90.0,650.0 97.7,650.0 105.3,650.0 113.0,650.0 120.7,650.0 128.3,650.0 136.0,650.0 143.7,650.0 151.3,455.5 159.0,455.4 166.7,455.1 174.3,447.0 182.0,447.0 189.7,448.2 197.3,438.9 205.0,439.0 212.7,439.6 220.3,439.6 228.0,439.6 235.7,439.6 243.3,439.6 251.0,445.6 258.7,445.6 266.3,443.3 274.0,443.3 281.7,443.3 289.3,443.6 297.0,443.6 304.7,444.1 312.3,444.1 320.0,444.1 327.7,444.1 335.3,444.1 343.0,444.1 350.7,437.5 358.3,437.5 366.0,437.5 373.7,437.5 381.3,437.5 389.0,437.5 396.7,437.5 404.3,438.4 412.0,438.5 419.7,438.3 427.3,439.3 435.0,439.3 442.7,439.3 450.3,439.3 458.0,439.3 465.7,439.3 473.3,439.3 481.0,439.3 488.7,439.3 496.3,439.3 504.0,439.3 511.7,439.3 519.3,439.3 527.0,439.4 534.7,439.4 542.3,439.4 550.0,439.4 557.7,439.4 565.3,440.7 573.0,441.1 580.7,441.1 588.3,441.1 596.0,441.1 603.7,441.1 611.3,441.1 619.0,441.1 626.7,441.1 634.3,442.0 642.0,442.0 649.7,442.0 657.3,442.0 665.0,442.0 672.7,442.0 680.3,442.0 688.0,442.0 695.7,442.0 703.3,442.0 711.0,442.0 718.7,442.0 726.3,442.0 734.0,442.0 741.7,442.0 749.3,442.0 757.0,442.0 764.7,442.0 772.3,441.8 780.0,441.6 780.0,454.9 772.3,456.5 764.7,458.2 757.0,458.2 749.3,458.2 741.7,458.2 734.0,458.2 726.3,458.2 718.7,458.2 711.0,458.2 703.3,458.2 695.7,458.2 688.0,458.2 680.3,458.2 672.7,458.2 665.0,458.2 657.3,458.2 649.7,458.2 642.0,458.2 634.3,458.2 626.7,457.4 619.0,457.4 611.3,457.4 603.7,457.4 596.0,457.4 588.3,457.4 580.7,457.4 573.0,457.4 565.3,457.0 557.7,455.8 550.0,455.8 542.3,455.8 534.7,455.8 527.0,455.8 519.3,455.9 511.7,455.9 504.0,455.9 496.3,455.9 488.7,455.9 481.0,455.9 473.3,455.9 465.7,455.9 458.0,455.9 450.3,455.9 442.7,455.9 435.0,455.9 427.3,455.9 419.7,454.9 412.0,455.1 404.3,455.0 396.7,454.3 389.0,454.3 381.3,455.4 373.7,455.4 366.0,455.4 358.3,455.6 350.7,455.6 343.0,469.7 335.3,469.7 327.7,469.7 320.0,469.7 312.3,469.7 304.7,469.7 297.0,469.7 289.3,469.7 281.7,469.5 274.0,469.5 266.3,469.5 258.7,473.5 251.0,473.0 243.3,460.6 235.7,460.6 228.0,460.6 220.3,460.6 212.7,460.6 205.0,460.2 197.3,460.1 189.7,477.2 182.0,476.0 174.3,476.0 166.7,489.0 159.0,488.0 151.3,488.4 143.7,650.0 136.0,650.0 128.3,650.0 120.7,650.0 113.0,650.0 105.3,650.0 97.7,650.0 90.0,650.0" fill="#3572A5" opacity="0.6" class="anim" style="animation-delay:700ms;"/>
<polygon points="90.0,650.0 97.7,650.0 105.3,650.0 113.0,650.0 120.7,650.0 128.3,650.0 136.0,650.0 143.7,650.0 151.3,442.3 159.0,442.0 166.7,441.6 174.3,439.5 182.0,439.5 189.7,439.4 197.3,432.3 205.0,432.2 212.7,432.6 220.3,432.6 228.0,432.6 235.7,432.6 243.3,432.6 251.0,439.3 258.7,439.3 266.3,437.4 274.0,437.4 281.7,437.4 289.3,437.3 297.0,437.3 304.7,437.1 312.3,437.1 320.0,437.1 327.7,437.1 335.3,437.1 343.0,437.1 350.7,428.7 358.3,428.6 366.0,428.5 373.7,428.5 381.3,428.5 389.0,427.3 396.7,427.3 404.3,427.1 412.0,427.1 419.7,427.1 427.3,427.0 435.0,427.0 442.7,427.0 450.3,427.0 458.0,427.0 465.7,427.0 473.3,427.0 481.0,427.0 488.7,427.0 496.3,427.0 504.0,427.0 511.7,427.0 519.3,427.0 527.0,427.0 534.7,427.1 542.3,427.1 550.0,427.1 557.7,427.1 565.3,428.4 573.0,428.9 580.7,428.9 588.3,428.9 596.0,428.9 603.7,428.9 611.3,428.9 619.0,428.9 626.7,428.9 634.3,428.7 642.0,428.7 649.7,428.7 657.3,428.7 665.0,428.7 672.7,428.7 680.3,428.7 688.0,428.7 695.7,428.7 703.3,428.7 711.0,428.7 718.7,428.7 726.3,428.7 734.0,428.7 741.7,428.7 749.3,428.7 757.0,428.7 764.7,428.7 772.3,427.8 780.0,426.8 780.0,441.6 772.3,441.8 764.7,442.0 757.0,442.0 749.3,442.0 741.7,442.0 734.0,442.0 726.3,442.0 718.7,442.0 711.0,442.0 703.3,442.0 695.7,442.0 688.0,442.0 680.3,442.0 672.7,442.0 665.0,442.0 657.3,442.0 649.7,442.0 642.0,442.0 634.3,442.0 626.7,441.1 619.0,441.1 611.3,441.1 603.7,441.1 596.0,441.1 588.3,441.1 580.7,441.1 573.0,441.1 565.3,440.7 557.7,439.4 550.0,439.4 542.3,439.4 534.7,439.4 527.0,439.4 519.3,439.3 511.7,439.3 504.0,439.3 496.3,439.3 488.7,439.3 481.0,439.3 473.3,439.3 465.7,439.3 458.0,439.3 450.3,439.3 442.7,439.3 435.0,439.3 427.3,439.3 419.7,438.3 412.0,438.5 404.3,438.4 396.7,437.5 389.0,437.5 381.3,437.5 373.7,437.5 366.0,437.5 358.3,437.5 350.7,437.5 343.0,444.1 335.3,444.1 327.7,444.1 320.0,444.1 312.3,444.1 304.7,444.1 297.0,443.6 289.3,443.6 281.7,443.3 274.0,443.3 266.3,443.3 258.7,445.6 251.0,445.6 243.3,439.6 235.7,439.6 228.0,439.6 220.3,439.6 212.7,439.6 205.0,439.0 197.3,438.9 189.7,448.2 182.0,447.0 174.3,447.0 166.7,455.1 159.0,455.4 151.3,455.5 143.7,650.0 136.0,650.0 128.3,650.0 120.7,650.0 113.0,650.0 105.3,650.0 97.7,650.0 90.0,650.0" fill="#663399" opacity="0.6" class="anim" style="animation-delay:800ms;"/>
<polygon points="90.0,650.0 97.7,650.0 105.3,650.0 113.0,650.0 120.7,650.0 128.3,650.0 136.0,650.0 143.7,650.0 151.3,436.6 159.0,436.3 166.7,435.9 174.3,432.2 182.0,432.2 189.7,432.2 197.3,426.2 205.0,426.1 212.7,426.0 220.3,426.0 228.0,426.0 235.7,426.0 243.3,426.0 251.0,430.8 258.7,430.7 266.3,429.3 274.0,429.3 281.7,429.3 289.3,429.2 297.0,429.2 304.7,428.9 312.3,428.9 320.0,428.8 327.7,428.8 335.3,428.8 343.0,428.8 350.7,423.0 358.3,422.9 366.0,422.9 373.7,422.9 381.3,422.9 389.0,422.0 396.7,422.0 404.3,421.9 412.0,421.9 419.7,421.9 427.3,421.8 435.0,421.8 442.7,421.8 450.3,421.8 458.0,421.8 465.7,421.8 473.3,421.8 481.0,421.8 488.7,421.8 496.3,421.8 504.0,421.8 511.7,421.8 519.3,421.8 527.0,421.7 534.7,421.8 542.3,421.8 550.0,421.8 557.7,421.8 565.3,423.2 573.0,423.6 580.7,423.6 588.3,423.6 596.0,423.6 603.7,423.6 611.3,423.6 619.0,423.6 626.7,423.6 634.3,423.5 642.0,423.5 649.7,423.5 657.3,423.5 665.0,423.5 672.7,423.5 680.3,423.5 688.0,423.5 695.7,423.5 703.3,423.5 711.0,423.5 718.7,423.5 726.3,423.5 734.0,423.5 741.7,423.5 749.3,423.5 757.0,423.5 764.7,423.5 772.3,422.8 780.0,422.1 780.0,426.8 772.3,427.8 764.7,428.7 757.0,428.7 749.3,428.7 741.7,428.7 734.0,428.7 726.3,428.7 718.7,428.7 711.0,428.7 703.3,428.7 695.7,428.7 688.0,428.7 680.3,428.7 672.7,428.7 665.0,428.7 657.3,428.7 649.7,428.7 642.0,428.7 634.3,428.7 626.7,428.9 619.0,428.9 611.3,428.9 603.7,428.9 596.0,428.9 588.3,428.9 580.7,428.9 573.0,428.9 565.3,428.4 557.7,427.1 550.0,427.1 542.3,427.1 534.7,427.1 527.0,427.0 519.3,427.0 511.7,427.0 504.0,427.0 496.3,427.0 488.7,427.0 481.0,427.0 473.3,427.0 465.7,427.0 458.0,427.0 450.3,427.0 442.7,427.0 435.0,427.0 427.3,427.0 419.7,427.1 412.0,427.1 404.3,427.1 396.7,427.3 389.0,427.3 381.3,428.5 373.7,428.5 366.0,428.5 358.3,428.6 350.7,428.7 343.0,437.1 335.3,437.1 327.7,437.1 320.0,437.1 312.3,437.1 304.7,437.1 297.0,437.3 289.3,437.3 281.7,437.4 274.0,437.4 266.3,437.4 258.7,439.3 251.0,439.3 243.3,432.6 235.7,432.6 228.0,432.6 220.3,432.6 212.7,432.6 205.0,432.2 197.3,432.3 189.7,439.4 182.0,439.5 174.3,439.5 166.7,441.6 159.0,442.0 151.3,442.3 143.7,650.0 136.0,650.0 128.3,650.0 120.7,650.0 113.0,650.0 105.3,650.0 97.7,650.0 90.0,650.0" fill="#083fa1" opacity="0.6" class="anim" style="animation-delay:900ms;"/>
<polygon points="90.0,650.0 97.7,650.0 105.3,650.0 113.0,650.0 120.7,650.0 128.3,650.0 136.0,650.0 143.7,650.0 151.3,428.3 159.0,428.1 166.7,427.8 174.3,425.3 182.0,425.3 189.7,425.2 197.3,421.1 205.0,421.1 212.7,421.0 220.3,421.0 228.0,421.0 235.7,421.0 243.3,421.0 251.0,424.3 258.7,424.2 266.3,423.3 274.0,423.3 281.7,423.3 289.3,423.2 297.0,423.2 304.7,423.0 312.3,423.0 320.0,422.9 327.7,422.9 335.3,422.9 343.0,422.9 350.7,418.9 358.3,418.9 366.0,418.8 373.7,418.8 381.3,418.8 389.0,418.3 396.7,418.3 404.3,418.2 412.0,418.2 419.7,418.2 427.3,418.1 435.0,418.1 442.7,418.1 450.3,418.1 458.0,418.1 465.7,418.1 473.3,418.1 481.0,418.1 488.7,418.1 496.3,418.1 504.0,418.1 511.7,418.1 519.3,418.1 527.0,418.1 534.7,418.1 542.3,418.1 550.0,418.1 557.7,418.1 565.3,418.0 573.0,418.0 580.7,418.0 588.3,418.0 596.0,418.0 603.7,418.0 611.3,418.0 619.0,418.0 626.7,418.0 634.3,417.9 642.0,417.9 649.7,417.9 657.3,417.9 665.0,417.9 672.7,417.9 680.3,417.9 688.0,417.9 695.7,417.9 703.3,417.9 711.0,417.9 718.7,417.9 726.3,417.9 734.0,417.9 741.7,417.9 749.3,417.9 757.0,417.9 764.7,417.9 772.3,417.3 780.0,416.7 780.0,422.1 772.3,422.8 764.7,423.5 757.0,423.5 749.3,423.5 741.7,423.5 734.0,423.5 726.3,423.5 718.7,423.5 711.0,423.5 703.3,423.5 695.7,423.5 688.0,423.5 680.3,423.5 672.7,423.5 665.0,423.5 657.3,423.5 649.7,423.5 642.0,423.5 634.3,423.5 626.7,423.6 619.0,423.6 611.3,423.6 603.7,423.6 596.0,423.6 588.3,423.6 580.7,423.6 573.0,423.6 565.3,423.2 557.7,421.8 550.0,421.8 542.3,421.8 534.7,421.8 527.0,421.7 519.3,421.8 511.7,421.8 504.0,421.8 496.3,421.8 488.7,421.8 481.0,421.8 473.3,421.8 465.7,421.8 458.0,421.8 450.3,421.8 442.7,421.8 435.0,421.8 427.3,421.8 419.7,421.9 412.0,421.9 404.3,421.9 396.7,422.0 389.0,422.0 381.3,422.9 373.7,422.9 366.0,422.9 358.3,422.9 350.7,423.0 343.0,428.8 335.3,428.8 327.7,428.8 320.0,428.8 312.3,428.9 304.7,428.9 297.0,429.2 289.3,429.2 281.7,429.3 274.0,429.3 266.3,429.3 258.7,430.7 251.0,430.8 243.3,426.0 235.7,426.0 228.0,426.0 220.3,426.0 212.7,426.0 205.0,426.1 197.3,426.2 189.7,432.2 182.0,432.2 174.3,432.2 166.7,435.9 159.0,436.3 151.3,436.6 143.7,650.0 136.0,650.0 128.3,650.0 120.7,650.0 113.0,650.0 105.3,650.0 97.7,650.0 90.0,650.0" fill="#F05138" opacity="0.6" class="anim" style="animation-delay:1000ms;"/>
<polygon points="90.0,650.0 97.7,650.0 105.3,650.0 113.0,650.0 120.7,650.0 128.3,650.0 136.0,650.0 143.7,650.0 151.3,418.7 159.0,418.6 166.7,418.5 174.3,417.3 182.0,417.3 189.7,417.2 197.3,415.3 205.0,415.3 212.7,415.2 220.3,415.2 228.0,415.2 235.7,415.2 243.3,415.2 251.0,416.8 258.7,416.8 266.3,416.3 274.0,416.3 281.7,416.3 289.3,416.3 297.0,416.3 304.7,416.2 312.3,416.2 320.0,416.2 327.7,416.2 335.3,416.2 343.0,416.2 350.7,414.2 358.3,414.2 366.0,414.2 373.7,414.2 381.3,414.2 389.0,413.9 396.7,413.9 404.3,413.9 412.0,413.9 419.7,413.9 427.3,413.9 435.0,413.9 442.7,413.9 450.3,413.9 458.0,413.9 465.7,413.9 473.3,413.9 481.0,413.9 488.7,413.9 496.3,413.9 504.0,413.9 511.7,413.9 519.3,413.9 527.0,413.8 534.7,413.8 542.3,413.8 550.0,413.8 557.7,413.8 565.3,413.8 573.0,413.8 580.7,413.8 588.3,413.8 596.0,413.8 603.7,413.8 611.3,413.8 619.0,413.8 626.7,413.8 634.3,413.8 642.0,413.8 649.7,413.8 657.3,413.8 665.0,413.8 672.7,413.8 680.3,413.8 688.0,413.8 695.7,413.8 703.3,413.8 711.0,413.8 718.7,413.8 726.3,413.8 734.0,413.8 741.7,413.8 749.3,413.8 757.0,413.8 764.7,413.8 772.3,413.6 780.0,413.4 780.0,416.7 772.3,417.3 764.7,417.9 757.0,417.9 749.3,417.9 741.7,417.9 734.0,417.9 726.3,417.9 718.7,417.9 711.0,417.9 703.3,417.9 695.7,417.9 688.0,417.9 680.3,417.9 672.7,417.9 665.0,417.9 657.3,417.9 649.7,417.9 642.0,417.9 634.3,417.9 626.7,418.0 619.0,418.0 611.3,418.0 603.7,418.0 596.0,418.0 588.3,418.0 580.7,418.0 573.0,418.0 565.3,418.0 557.7,418.1 550.0,418.1 542.3,418.1 534.7,418.1 527.0,418.1 519.3,418.1 511.7,418.1 504.0,418.1 496.3,418.1 488.7,418.1 481.0,418.1 473.3,418.1 465.7,418.1 458.0,418.1 450.3,418.1 442.7,418.1 435.0,418.1 427.3,418.1 419.7,418.2 412.0,418.2 404.3,418.2 396.7,418.3 389.0,418.3 381.3,418.8 373.7,418.8 366.0,418.8 358.3,418.9 350.7,418.9 343.0,422.9 335.3,422.9 327.7,422.9 320.0,422.9 312.3,423.0 304.7,423.0 297.0,423.2 289.3,423.2 281.7,423.3 274.0,423.3 266.3,423.3 258.7,424.2 251.0,424.3 243.3,421.0 235.7,421.0 228.0,421.0 220.3,421.0 212.7,421.0 205.0,421.1 197.3,421.1 189.7,425.2 182.0,425.3 174.3,425.3 166.7,427.8 159.0,428.1 151.3,428.3 143.7,650.0 136.0,650.0 128.3,650.0 120.7,650.0 113.0,650.0 105.3,650.0 97.7,650.0 90.0,650.0" fill="#6E4C13" opacity="0.6" class="anim" style="animation-delay:1100ms;"/>
<polygon points="90.0,650.0 97.7,650.0 105.3,650.0 113.0,650.0 120.7,650.0 128.3,650.0 136.0,650.0 143.7,650.0 151.3,414.4 159.0,414.4 166.7,414.3 174.3,413.7 182.0,413.7 189.7,413.7 197.3,412.7 205.0,412.7 212.7,412.7 220.3,412.7 228.0,412.7 235.7,412.7 243.3,412.7 251.0,413.5 258.7,413.4 266.3,413.2 274.0,413.2 281.7,413.2 289.3,413.2 297.0,413.2 304.7,413.1 312.3,413.1 320.0,413.1 327.7,413.1 335.3,413.1 343.0,413.1 350.7,412.2 358.3,412.1 366.0,412.1 373.7,412.1 381.3,412.1 389.0,412.0 396.7,412.0 404.3,412.0 412.0,412.0 419.7,412.0 427.3,412.0 435.0,412.0 442.7,412.0 450.3,412.0 458.0,412.0 465.7,412.0 473.3,412.0 481.0,412.0 488.7,412.0 496.3,412.0 504.0,412.0 511.7,412.0 519.3,412.0 527.0,411.9 534.7,411.9 542.3,411.9 550.0,411.9 557.7,411.9 565.3,411.9 573.0,411.9 580.7,411.9 588.3,411.9 596.0,411.9 603.7,411.9 611.3,411.9 619.0,411.9 626.7,411.9 634.3,411.9 642.0,411.9 649.7,411.9 657.3,411.9 665.0,411.9 672.7,411.9 680.3,411.9 688.0,411.9 695.7,411.9 703.3,411.9 711.0,411.9 718.7,411.9 726.3,411.9 734.0,411.9 741.7,411.9 749.3,411.9 757.0,411.9 764.7,411.9 772.3,411.9 780.0,411.9 780.0,413.4 772.3,413.6 764.7,413.8 757.0,413.8 749.3,413.8 741.7,413.8 734.0,413.8 726.3,413.8 718.7,413.8 711.0,413.8 703.3,413.8 695.7,413.8 688.0,413.8 680.3,413.8 672.7,413.8 665.0,413.8 657.3,413.8 649.7,413.8 642.0,413.8 634.3,413.8 626.7,413.8 619.0,413.8 611.3,413.8 603.7,413.8 596.0,413.8 588.3,413.8 580.7,413.8 573.0,413.8 565.3,413.8 557.7,413.8 550.0,413.8 542.3,413.8 534.7,413.8 527.0,413.8 519.3,413.9 511.7,413.9 504.0,413.9 496.3,413.9 488.7,413.9 481.0,413.9 473.3,413.9 465.7,413.9 458.0,413.9 450.3,413.9 442.7,413.9 435.0,413.9 427.3,413.9 419.7,413.9 412.0,413.9 404.3,413.9 396.7,413.9 389.0,413.9 381.3,414.2 373.7,414.2 366.0,414.2 358.3,414.2 350.7,414.2 343.0,416.2 335.3,416.2 327.7,416.2 320.0,416.2 312.3,416.2 304.7,416.2 297.0,416.3 289.3,416.3 281.7,416.3 274.0,416.3 266.3,416.3 258.7,416.8 251.0,416.8 243.3,415.2 235.7,415.2 228.0,415.2 220.3,415.2 212.7,415.2 205.0,415.3 197.3,415.3 189.7,417.2 182.0,417.3 174.3,417.3 166.7,418.5 159.0,418.6 151.3,418.7 143.7,650.0 136.0,650.0 128.3,650.0 120.7,650.0 113.0,650.0 105.3,650.0 97.7,650.0 90.0,650.0" fill="#b07219" opacity="0.6" class="anim" style="animation-delay:1200ms;"/>
<line x1="764.7" y1="100" x2="764.7" y2="650" stroke="#c9d1d9" stroke-width="1" stroke-dasharray="4,3" opacity="0.35"/>
<text x="772.3" y="112" text-anchor="middle" class="axis-label" opacity="0.6">Jul 20, 2026</text>
<text x="90.0" y="668" text-anchor="middle" class="axis-label" transform="rotate(-35 90.0 668)">2026-02</text>
<text x="320.0" y="668" text-anchor="middle" class="axis-label" transform="rotate(-35 320.0 668)">2026-03</text>
<text x="550.0" y="668" text-anchor="middle" class="axis-label" transform="rotate(-35 550.0 668)">2026-06</text>
<text x="764.7" y="668" text-anchor="middle" class="axis-label" transform="rotate(-35 764.7 668)">2026-07</text>
<line x1="796" y1="110" x2="824" y2="110" stroke="#3fb950" stroke-width="2"/>
<text x="832" y="116" class="legend-text">Lines Added</text>
<line x1="796" y1="140" x2="824" y2="140" stroke="#f85149" stroke-width="1.5"/>
<text x="832" y="146" class="legend-text">Lines Deleted</text>
<line x1="796" y1="170" x2="824" y2="170" stroke="#e3b341" stroke-width="1.5" stroke-dasharray="4,3"/>
<text x="832" y="176" class="legend-text">&#x2605; Stars</text>
<text x="796" y="200" class="subtitle">Languages</text>
<rect x="796" y="212" width="12" height="12" rx="2" fill="#e34c26" opacity="0.8" class="anim" style="animation-delay:800ms;"/>
<text x="814" y="223" class="legend-text">HTML (58%→56%)</text>
<rect x="796" y="234" width="12" height="12" rx="2" fill="#f1e05a" opacity="0.8" class="anim" style="animation-delay:880ms;"/>
<text x="814" y="245" class="legend-text">JavaScript (22%→25%)</text>
<rect x="796" y="256" width="12" height="12" rx="2" fill="#3572A5" opacity="0.8" class="anim" style="animation-delay:960ms;"/>
<text x="814" y="267" class="legend-text">Python (7%→6%)</text>
<rect x="796" y="278" width="12" height="12" rx="2" fill="#663399" opacity="0.8" class="anim" style="animation-delay:1040ms;"/>
<text x="814" y="289" class="legend-text">CSS (6%→6%)</text>
<rect x="796" y="300" width="12" height="12" rx="2" fill="#083fa1" opacity="0.8" class="anim" style="animation-delay:1120ms;"/>
<text x="814" y="311" class="legend-text">Markdown (2%→2%)</text>
<rect x="796" y="322" width="12" height="12" rx="2" fill="#F05138" opacity="0.8" class="anim" style="animation-delay:1200ms;"/>
<text x="814" y="333" class="legend-text">Swift (2%→2%)</text>
<rect x="796" y="344" width="12" height="12" rx="2" fill="#6E4C13" opacity="0.8" class="anim" style="animation-delay:1280ms;"/>
<text x="814" y="355" class="legend-text">Assembly (2%→1%)</text>
<rect x="796" y="366" width="12" height="12" rx="2" fill="#b07219" opacity="0.8" class="anim" style="animation-delay:1360ms;"/>
<text x="814" y="377" class="legend-text">Java (1%→1%)</text>
<text x="796" y="412" class="subtitle">Contributions</text>
<text x="796" y="432" class="axis-label">2023: 39</text>
<text x="796" y="452" class="axis-label">2024: 646</text>
<text x="796" y="472" class="axis-label">2025: 1,780</text>
<text x="796" y="492" class="axis-label">2026: 491</text>
<text x="796" y="522" class="subtitle">Statistics</text>
<text x="796" y="542" class="axis-label">Active weeks: 88</text>
<text x="796" y="562" class="axis-label">Add/Del ratio: 1.8x</text>
<text x="796" y="582" class="axis-label">Avg lines/wk: 18K</text>
<text x="796" y="602" class="axis-label">Peak: 2026-02-15</text>
<text x="796" y="622" class="axis-label">  (543K lines)</text>
<text x="90" y="742" class="axis-label">Total: +1,040,332 / -576,819 lines &#xb7; 2,956 contributions &#xb7; 80 repos &#xb7; &#x2605; 37</text>
</svg>