<svg xmlns="http://www.w3.org/2000/svg" width="1000" height="760" style="max-width: 100%;" viewBox="0 0 1000 760">

<defs>
  <linearGradient id="areaGrad" x1="0" y1="0" x2="0" y2="1">
    <stop offset="0%" stop-color="#58a6ff" stop-opacity="0.35"/>
    <stop offset="100%" stop-color="#58a6ff" stop-opacity="0.02"/>
  </linearGradient>
  <linearGradient id="addGrad" x1="0" y1="0" x2="0" y2="1">
    <stop offset="0%" stop-color="#3fb950" stop-opacity="0.35"/>
    <stop offset="100%" stop-color="#3fb950" stop-opacity="0.02"/>
  </linearGradient>
  <linearGradient id="delGrad" x1="0" y1="0" x2="0" y2="1">
    <stop offset="0%" stop-color="#f85149" stop-opacity="0.25"/>
    <stop offset="100%" stop-color="#f85149" stop-opacity="0.02"/>
  </linearGradient>
</defs>
<style>
  .title { font: bold 28px 'Segoe UI', Ubuntu, Sans-Serif; fill: #c9d1d9; }
  .subtitle { font: 600 20px 'Segoe UI', Ubuntu, Sans-Serif; fill: #c9d1d9; opacity: 0.8; }
  .axis-label { font: 18px 'Segoe UI', Ubuntu, Sans-Serif; fill: #c9d1d9; opacity: 0.7; }
  .legend-text { font: 14px 'Segoe UI', Ubuntu, Sans-Serif; fill: #c9d1d9; }
  .value-text { font: bold 18px 'Segoe UI', Ubuntu, Sans-Serif; fill: #c9d1d9; }
  .stat-value { font: bold 22px 'Segoe UI', Ubuntu, Sans-Serif; fill: #c9d1d9; }
  .stat-label { font: 18px 'Segoe UI', Ubuntu, Sans-Serif; fill: #c9d1d9; opacity: 0.7; }
  @keyframes fadeIn { from { opacity: 0; } to { opacity: 1; } }
  .anim { animation: fadeIn 0.6s ease-in-out forwards; opacity: 0; }
</style>

<rect x="0.5" y="0.5" rx="4.5" width="999" height="759" fill="#161b22" stroke="#21262d"/>
<text x="90" y="45" class="title">Activity History</text>
<text x="90" y="72" class="subtitle">Lines added vs deleted &amp; activity trends over time</text>
<line x1="90" y1="340.0" x2="780" y2="340.0" stroke="#21262d" stroke-width="1"/>
<text x="82" y="344.0" text-anchor="end" class="axis-label">0</text>
<line x1="90" y1="280.0" x2="780" y2="280.0" stroke="#21262d" stroke-width="1"/>
<text x="82" y="284.0" text-anchor="end" class="axis-label">665K</text>
<line x1="90" y1="220.0" x2="780" y2="220.0" stroke="#21262d" stroke-width="1"/>
<text x="82" y="224.0" text-anchor="end" class="axis-label">1.3M</text>
<line x1="90" y1="160.0" x2="780" y2="160.0" stroke="#21262d" stroke-width="1"/>
<text x="82" y="164.0" text-anchor="end" class="axis-label">2.0M</text>
<line x1="90" y1="100.0" x2="780" y2="100.0" stroke="#21262d" stroke-width="1"/>
<text x="82" y="104.0" text-anchor="end" class="axis-label">2.7M</text>
<polygon points="90.0,340.0 90.0,307.1 110.9,308.3 131.8,307.1 152.7,308.3 173.6,315.9 194.5,300.8 215.5,300.8 236.4,295.1 257.3,294.9 278.2,294.5 299.1,294.5 320.0,284.3 340.9,284.3 361.8,284.3 382.7,269.3 403.6,269.1 424.5,268.9 445.5,268.9 466.4,268.9 487.3,268.9 508.2,268.9 529.1,268.5 550.0,258.5 570.9,258.5 591.8,258.5 612.7,258.5 633.6,258.2 654.5,258.2 675.5,257.8 696.4,257.8 717.3,257.7 738.2,257.7 759.1,229.9 780.0,202.0 780.0,340.0" fill="url(#addGrad)" class="anim" style="animation-delay:200ms;"/>
<polyline points="90.0,307.1 110.9,308.3 131.8,307.1 152.7,308.3 173.6,315.9 194.5,300.8 215.5,300.8 236.4,295.1 257.3,294.9 278.2,294.5 299.1,294.5 320.0,284.3 340.9,284.3 361.8,284.3 382.7,269.3 403.6,269.1 424.5,268.9 445.5,268.9 466.4,268.9 487.3,268.9 508.2,268.9 529.1,268.5 550.0,258.5 570.9,258.5 591.8,258.5 612.7,258.5 633.6,258.2 654.5,258.2 675.5,257.8 696.4,257.8 717.3,257.7 738.2,257.7" fill="none" stroke="#3fb950" stroke-width="2" stroke-linejoin="round" class="anim" style="animation-delay:250ms;"/>
<polyline points="738.2,257.7 759.1,229.9 780.0,202.0" fill="none" stroke="#3fb950" stroke-width="1.5" stroke-dasharray="5,4" stroke-linejoin="round" opacity="0.6" class="anim" style="animation-delay:250ms;"/>
<polygon points="90.0,340.0 90.0,330.7 110.9,331.7 131.8,330.8 152.7,331.7 173.6,335.6 194.5,329.6 215.5,329.6 236.4,328.9 257.3,328.7 278.2,328.5 299.1,328.5 320.0,317.6 340.9,317.6 361.8,317.6 382.7,305.2 403.6,305.1 424.5,305.1 445.5,305.1 466.4,305.1 487.3,305.1 508.2,305.1 529.1,298.7 550.0,288.8 570.9,288.8 591.8,288.8 612.7,288.8 633.6,288.7 654.5,288.7 675.5,288.7 696.4,288.6 717.3,288.6 738.2,288.6 759.1,263.3 780.0,238.0 780.0,340.0" fill="url(#delGrad)" class="anim" style="animation-delay:300ms;"/>
<polyline points="90.0,330.7 110.9,331.7 131.8,330.8 152.7,331.7 173.6,335.6 194.5,329.6 215.5,329.6 236.4,328.9 257.3,328.7 278.2,328.5 299.1,328.5 320.0,317.6 340.9,317.6 361.8,317.6 382.7,305.2 403.6,305.1 424.5,305.1 445.5,305.1 466.4,305.1 487.3,305.1 508.2,305.1 529.1,298.7 550.0,288.8 570.9,288.8 591.8,288.8 612.7,288.8 633.6,288.7 654.5,288.7 675.5,288.7 696.4,288.6 717.3,288.6 738.2,288.6" fill="none" stroke="#f85149" stroke-width="1.5" stroke-linejoin="round" class="anim" style="animation-delay:350ms;"/>
<polyline points="738.2,288.6 759.1,263.3 780.0,238.0" fill="none" stroke="#f85149" stroke-width="1" stroke-dasharray="5,4" stroke-linejoin="round" opacity="0.6" class="anim" style="animation-delay:350ms;"/>
<polyline points="90.0,340.0 110.9,340.0 131.8,340.0 152.7,340.0 173.6,340.0 194.5,340.0 215.5,340.0 236.4,340.0 257.3,148.0 278.2,148.0 299.1,148.0 320.0,148.0 340.9,148.0 361.8,148.0 382.7,148.0 403.6,148.0 424.5,148.0 445.5,148.0 466.4,148.0 487.3,148.0 508.2,148.0 529.1,148.0 550.0,148.0 570.9,148.0 591.8,148.0 612.7,148.0 633.6,148.0 654.5,148.0 675.5,148.0 696.4,148.0 717.3,148.0 738.2,148.0" fill="none" stroke="#e3b341" stroke-width="1.5" stroke-dasharray="4,3" stroke-linejoin="round" class="anim" style="animation-delay:400ms;"/>
<polyline points="738.2,148.0 759.1,148.0 780.0,148.0" fill="none" stroke="#e3b341" stroke-width="1" stroke-dasharray="3,5" stroke-linejoin="round" opacity="0.5" class="anim" style="animation-delay:400ms;"/>
<text x="90" y="90" class="subtitle">Lines Added vs Deleted (per snapshot)</text>
<text x="90" y="400" class="subtitle">Programming Language Development (%)</text>
<line x1="90" y1="650.0" x2="780" y2="650.0" stroke="#21262d" stroke-width="1"/>
<text x="82" y="654.0" text-anchor="end" class="axis-label">0%</text>
<line x1="90" y1="590.0" x2="780" y2="590.0" stroke="#21262d" stroke-width="1"/>
<text x="82" y="594.0" text-anchor="end" class="axis-label">25%</text>
<line x1="90" y1="530.0" x2="780" y2="530.0" stroke="#21262d" stroke-width="1"/>
<text x="82" y="534.0" text-anchor="end" class="axis-label">50%</text>
<line x1="90" y1="470.0" x2="780" y2="470.0" stroke="#21262d" stroke-width="1"/>
<text x="82" y="474.0" text-anchor="end" class="axis-label">75%</text>
<line x1="90" y1="410.0" x2="780" y2="410.0" stroke="#21262d" stroke-width="1"/>
<text x="82" y="414.0" text-anchor="end" class="axis-label">100%</text>
<polygon points="90.0,650.0 110.9,650.0 131.8,650.0 152.7,650.0 173.6,650.0 194.5,650.0 215.5,650.0 236.4,650.0 257.3,528.2 278.2,528.5 299.1,529.7 320.0,499.3 340.9,499.3 361.8,502.9 382.7,485.0 403.6,485.1 424.5,485.4 445.5,485.4 466.4,485.4 487.3,485.4 508.2,485.4 529.1,496.4 550.0,496.7 570.9,491.0 591.8,491.0 612.7,491.0 633.6,491.7 654.5,491.8 675.5,494.0 696.4,494.0 717.3,494.4 738.2,494.4 759.1,480.9 780.0,467.5 780.0,650.0 759.1,650.0 738.2,650.0 717.3,650.0 696.4,650.0 675.5,650.0 654.5,650.0 633.6,650.0 612.7,650.0 591.8,650.0 570.9,650.0 550.0,650.0 529.1,650.0 508.2,650.0 487.3,650.0 466.4,650.0 445.5,650.0 424.5,650.0 403.6,650.0 382.7,650.0 361.8,650.0 340.9,650.0 320.0,650.0 299.1,650.0 278.2,650.0 257.3,650.0 236.4,650.0 215.5,650.0 194.5,650.0 173.6,650.0 152.7,650.0 131.8,650.0 110.9,650.0 90.0,650.0" fill="#e34c26" opacity="0.6" class="anim" style="animation-delay:500ms;"/>
<polygon points="90.0,650.0 110.9,650.0 131.8,650.0 152.7,650.0 173.6,650.0 194.5,650.0 215.5,650.0 236.4,650.0 257.3,495.2 278.2,495.9 299.1,495.9 320.0,470.2 340.9,470.2 361.8,473.9 382.7,463.8 403.6,463.9 424.5,464.3 445.5,464.3 466.4,464.3 487.3,464.3 508.2,464.3 529.1,469.0 550.0,468.8 570.9,464.8 591.8,464.8 612.7,464.8 633.6,465.7 654.5,465.7 675.5,468.4 696.4,468.4 717.3,468.8 738.2,468.8 759.1,457.9 780.0,447.1 780.0,467.5 759.1,480.9 738.2,494.4 717.3,494.4 696.4,494.0 675.5,494.0 654.5,491.8 633.6,491.7 612.7,491.0 591.8,491.0 570.9,491.0 550.0,496.7 529.1,496.4 508.2,485.4 487.3,485.4 466.4,485.4 445.5,485.4 424.5,485.4 403.6,485.1 382.7,485.0 361.8,502.9 340.9,499.3 320.0,499.3 299.1,529.7 278.2,528.5 257.3,528.2 236.4,650.0 215.5,650.0 194.5,650.0 173.6,650.0 152.7,650.0 131.8,650.0 110.9,650.0 90.0,650.0" fill="#3572A5" opacity="0.6" class="anim" style="animation-delay:600ms;"/>
<polygon points="90.0,650.0 110.9,650.0 131.8,650.0 152.7,650.0 173.6,650.0 194.5,650.0 215.5,650.0 236.4,650.0 257.3,455.5 278.2,455.4 299.1,455.1 320.0,447.0 340.9,447.0 361.8,448.2 382.7,438.9 403.6,439.0 424.5,439.6 445.5,439.6 466.4,439.6 487.3,439.6 508.2,439.6 529.1,445.6 550.0,445.6 570.9,443.3 591.8,443.3 612.7,443.3 633.6,443.6 654.5,443.6 675.5,444.1 696.4,444.1 717.3,444.1 738.2,444.1 759.1,440.3 780.0,436.4 780.0,447.1 759.1,457.9 738.2,468.8 717.3,468.8 696.4,468.4 675.5,468.4 654.5,465.7 633.6,465.7 612.7,464.8 591.8,464.8 570.9,464.8 550.0,468.8 529.1,469.0 508.2,464.3 487.3,464.3 466.4,464.3 445.5,464.3 424.5,464.3 403.6,463.9 382.7,463.8 361.8,473.9 340.9,470.2 320.0,470.2 299.1,495.9 278.2,495.9 257.3,495.2 236.4,650.0 215.5,650.0 194.5,650.0 173.6,650.0 152.7,650.0 131.8,650.0 110.9,650.0 90.0,650.0" fill="#f1e05a" opacity="0.6" class="anim" style="animation-delay:700ms;"/>
<polygon points="90.0,650.0 110.9,650.0 131.8,650.0 152.7,650.0 173.6,650.0 194.5,650.0 215.5,650.0 236.4,650.0 257.3,442.3 278.2,442.0 299.1,441.6 320.0,439.5 340.9,439.5 361.8,439.4 382.7,432.3 403.6,432.2 424.5,432.6 445.5,432.6 466.4,432.6 487.3,432.6 508.2,432.6 529.1,439.3 550.0,439.3 570.9,437.4 591.8,437.4 612.7,437.4 633.6,437.3 654.5,437.3 675.5,437.1 696.4,437.1 717.3,437.1 738.2,437.1 759.1,436.2 780.0,435.3 780.0,436.4 759.1,440.3 738.2,444.1 717.3,444.1 696.4,444.1 675.5,444.1 654.5,443.6 633.6,443.6 612.7,443.3 591.8,443.3 570.9,443.3 550.0,445.6 529.1,445.6 508.2,439.6 487.3,439.6 466.4,439.6 445.5,439.6 424.5,439.6 403.6,439.0 382.7,438.9 361.8,448.2 340.9,447.0 320.0,447.0 299.1,455.1 278.2,455.4 257.3,455.5 236.4,650.0 215.5,650.0 194.5,650.0 173.6,650.0 152.7,650.0 131.8,650.0 110.9,650.0 90.0,650.0" fill="#663399" opacity="0.6" class="anim" style="animation-delay:800ms;"/>
<polygon points="90.0,650.0 110.9,650.0 131.8,650.0 152.7,650.0 173.6,650.0 194.5,650.0 215.5,650.0 236.4,650.0 257.3,436.6 278.2,436.3 299.1,435.9 320.0,432.2 340.9,432.2 361.8,432.2 382.7,426.2 403.6,426.1 424.5,426.0 445.5,426.0 466.4,426.0 487.3,426.0 508.2,426.0 529.1,430.8 550.0,430.7 570.9,429.3 591.8,429.3 612.7,429.3 633.6,429.2 654.5,429.2 675.5,428.9 696.4,428.9 717.3,428.8 738.2,428.8 759.1,426.3 780.0,423.9 780.0,435.3 759.1,436.2 738.2,437.1 717.3,437.1 696.4,437.1 675.5,437.1 654.5,437.3 633.6,437.3 612.7,437.4 591.8,437.4 570.9,437.4 550.0,439.3 529.1,439.3 508.2,432.6 487.3,432.6 466.4,432.6 445.5,432.6 424.5,432.6 403.6,432.2 382.7,432.3 361.8,439.4 340.9,439.5 320.0,439.5 299.1,441.6 278.2,442.0 257.3,442.3 236.4,650.0 215.5,650.0 194.5,650.0 173.6,650.0 152.7,650.0 131.8,650.0 110.9,650.0 90.0,650.0" fill="#083fa1" opacity="0.6" class="anim" style="animation-delay:900ms;"/>
<polygon points="90.0,650.0 110.9,650.0 131.8,650.0 152.7,650.0 173.6,650.0 194.5,650.0 215.5,650.0 236.4,650.0 257.3,427.0 278.2,426.8 299.1,426.6 320.0,424.2 340.9,424.2 361.8,424.2 382.7,420.4 403.6,420.3 424.5,420.3 445.5,420.3 466.4,420.3 487.3,420.3 508.2,420.3 529.1,423.3 550.0,423.2 570.9,422.4 591.8,422.4 612.7,422.4 633.6,422.3 654.5,422.3 675.5,422.1 696.4,422.1 717.3,422.1 738.2,422.1 759.1,420.6 780.0,419.2 780.0,423.9 759.1,426.3 738.2,428.8 717.3,428.8 696.4,428.9 675.5,428.9 654.5,429.2 633.6,429.2 612.7,429.3 591.8,429.3 570.9,429.3 550.0,430.7 529.1,430.8 508.2,426.0 487.3,426.0 466.4,426.0 445.5,426.0 424.5,426.0 403.6,426.1 382.7,426.2 361.8,432.2 340.9,432.2 320.0,432.2 299.1,435.9 278.2,436.3 257.3,436.6 236.4,650.0 215.5,650.0 194.5,650.0 173.6,650.0 152.7,650.0 131.8,650.0 110.9,650.0 90.0,650.0" fill="#6E4C13" opacity="0.6" class="anim" style="animation-delay:1000ms;"/>
<polygon points="90.0,650.0 110.9,650.0 131.8,650.0 152.7,650.0 173.6,650.0 194.5,650.0 215.5,650.0 236.4,650.0 257.3,418.7 278.2,418.6 299.1,418.5 320.0,417.3 340.9,417.3 361.8,417.2 382.7,415.3 403.6,415.3 424.5,415.2 445.5,415.2 466.4,415.2 487.3,415.2 508.2,415.2 529.1,416.8 550.0,416.8 570.9,416.3 591.8,416.3 612.7,416.3 633.6,416.3 654.5,416.3 675.5,416.2 696.4,416.2 717.3,416.2 738.2,416.2 759.1,415.7 780.0,415.2 780.0,419.2 759.1,420.6 738.2,422.1 717.3,422.1 696.4,422.1 675.5,422.1 654.5,422.3 633.6,422.3 612.7,422.4 591.8,422.4 570.9,422.4 550.0,423.2 529.1,423.3 508.2,420.3 487.3,420.3 466.4,420.3 445.5,420.3 424.5,420.3 403.6,420.3 382.7,420.4 361.8,424.2 340.9,424.2 320.0,424.2 299.1,426.6 278.2,426.8 257.3,427.0 236.4,650.0 215.5,650.0 194.5,650.0 173.6,650.0 152.7,650.0 131.8,650.0 110.9,650.0 90.0,650.0" fill="#F05138" opacity="0.6" class="anim" style="animation-delay:1100ms;"/>
<polygon points="90.0,650.0 110.9,650.0 131.8,650.0 152.7,650.0 173.6,650.0 194.5,650.0 215.5,650.0 236.4,650.0 257.3,414.4 278.2,414.4 299.1,414.3 320.0,413.7 340.9,413.7 361.8,413.7 382.7,412.7 403.6,412.7 424.5,412.7 445.5,412.7 466.4,412.7 487.3,412.7 508.2,412.7 529.1,413.5 550.0,413.4 570.9,413.2 591.8,413.2 612.7,413.2 633.6,413.2 654.5,413.2 675.5,413.1 696.4,413.1 717.3,413.1 738.2,413.1 759.1,413.1 780.0,413.1 780.0,415.2 759.1,415.7 738.2,416.2 717.3,416.2 696.4,416.2 675.5,416.2 654.5,416.3 633.6,416.3 612.7,416.3 591.8,416.3 570.9,416.3 550.0,416.8 529.1,416.8 508.2,415.2 487.3,415.2 466.4,415.2 445.5,415.2 424.5,415.2 403.6,415.3 382.7,415.3 361.8,417.2 340.9,417.3 320.0,417.3 299.1,418.5 278.2,418.6 257.3,418.7 236.4,650.0 215.5,650.0 194.5,650.0 173.6,650.0 152.7,650.0 131.8,650.0 110.9,650.0 90.0,650.0" fill="#b07219" opacity="0.6" class="anim" style="animation-delay:1200ms;"/>
<line x1="738.2" y1="100" x2="738.2" y2="650" stroke="#c9d1d9" stroke-width="1" stroke-dasharray="4,3" opacity="0.35"/>
<text x="759.1" y="112" text-anchor="middle" class="axis-label" opacity="0.6">Mar 23, 2026</text>
<text x="90.0" y="668" text-anchor="middle" class="axis-label" transform="rotate(-35 90.0 668)">2026-02</text>
<text x="591.8" y="668" text-anchor="middle" class="axis-label" transform="rotate(-35 591.8 668)">2026-03</text>
<text x="759.1" y="668" text-anchor="middle" class="axis-label" transform="rotate(-35 759.1 668)">Mar 23, 2026</text>
<line x1="796" y1="110" x2="824" y2="110" stroke="#3fb950" stroke-width="2"/>
<text x="832" y="116" class="legend-text">Lines Added</text>
<line x1="796" y1="140" x2="824" y2="140" stroke="#f85149" stroke-width="1.5"/>
<text x="832" y="146" class="legend-text">Lines Deleted</text>
<line x1="796" y1="170" x2="824" y2="170" stroke="#e3b341" stroke-width="1.5" stroke-dasharray="4,3"/>
<text x="832" y="176" class="legend-text">&#x2605; Stars</text>
<text x="796" y="200" class="subtitle">Languages</text>
<rect x="796" y="212" width="12" height="12" rx="2" fill="#e34c26" opacity="0.8" class="anim" style="animation-delay:800ms;"/>
<text x="814" y="223" class="legend-text">HTML (65%→76%)</text>
<rect x="796" y="234" width="12" height="12" rx="2" fill="#3572A5" opacity="0.8" class="anim" style="animation-delay:880ms;"/>
<text x="814" y="245" class="legend-text">Python (11%→8%)</text>
<rect x="796" y="256" width="12" height="12" rx="2" fill="#f1e05a" opacity="0.8" class="anim" style="animation-delay:960ms;"/>
<text x="814" y="267" class="legend-text">JavaScript (10%→4%)</text>
<rect x="796" y="278" width="12" height="12" rx="2" fill="#663399" opacity="0.8" class="anim" style="animation-delay:1040ms;"/>
<text x="814" y="289" class="legend-text">CSS (3%→0%)</text>
<rect x="796" y="300" width="12" height="12" rx="2" fill="#083fa1" opacity="0.8" class="anim" style="animation-delay:1120ms;"/>
<text x="814" y="311" class="legend-text">Markdown (3%→5%)</text>
<rect x="796" y="322" width="12" height="12" rx="2" fill="#6E4C13" opacity="0.8" class="anim" style="animation-delay:1200ms;"/>
<text x="814" y="333" class="legend-text">Assembly (3%→2%)</text>
<rect x="796" y="344" width="12" height="12" rx="2" fill="#F05138" opacity="0.8" class="anim" style="animation-delay:1280ms;"/>
<text x="814" y="355" class="legend-text">Swift (2%→2%)</text>
<rect x="796" y="366" width="12" height="12" rx="2" fill="#b07219" opacity="0.8" class="anim" style="animation-delay:1360ms;"/>
<text x="814" y="377" class="legend-text">Java (1%→1%)</text>
<text x="796" y="412" class="subtitle">Contributions</text>
<text x="796" y="432" class="axis-label">2023: 39</text>
<text x="796" y="452" class="axis-label">2024: 646</text>
<text x="796" y="472" class="axis-label">2025: 1,780</text>
<text x="796" y="492" class="axis-label">2026: 357</text>
<text x="796" y="522" class="subtitle">Statistics</text>
<text x="796" y="542" class="axis-label">Active weeks: 78</text>
<text x="796" y="562" class="axis-label">Add/Del ratio: 1.6x</text>
<text x="796" y="582" class="axis-label">Avg lines/wk: 19K</text>
<text x="796" y="602" class="axis-label">Peak: 2026-02-15</text>
<text x="796" y="622" class="axis-label">  (543K lines)</text>
<text x="90" y="742" class="axis-label">Total: +911,974 / -569,546 lines &#xb7; 2,822 contributions &#xb7; 74 repos &#xb7; &#x2605; 33</text>
</svg>