<svg xmlns="http://www.w3.org/2000/svg" width="900" height="620" viewBox="0 0 900 620">

<defs>
  <linearGradient id="areaGrad" x1="0" y1="0" x2="0" y2="1">
    <stop offset="0%" stop-color="#58a6ff" stop-opacity="0.35"/>
    <stop offset="100%" stop-color="#58a6ff" stop-opacity="0.02"/>
  </linearGradient>
  <linearGradient id="addGrad" x1="0" y1="0" x2="0" y2="1">
    <stop offset="0%" stop-color="#3fb950" stop-opacity="0.35"/>
    <stop offset="100%" stop-color="#3fb950" stop-opacity="0.02"/>
  </linearGradient>
  <linearGradient id="delGrad" x1="0" y1="0" x2="0" y2="1">
    <stop offset="0%" stop-color="#f85149" stop-opacity="0.25"/>
    <stop offset="100%" stop-color="#f85149" stop-opacity="0.02"/>
  </linearGradient>
</defs>
<style>
  .title { font: bold 16px 'Segoe UI', Ubuntu, Sans-Serif; fill: #c9d1d9; }
  .subtitle { font: 600 12px 'Segoe UI', Ubuntu, Sans-Serif; fill: #c9d1d9; opacity: 0.8; }
  .axis-label { font: 11px 'Segoe UI', Ubuntu, Sans-Serif; fill: #c9d1d9; opacity: 0.7; }
  .legend-text { font: 12px 'Segoe UI', Ubuntu, Sans-Serif; fill: #c9d1d9; }
  .value-text { font: bold 11px 'Segoe UI', Ubuntu, Sans-Serif; fill: #c9d1d9; }
  .stat-value { font: bold 13px 'Segoe UI', Ubuntu, Sans-Serif; fill: #c9d1d9; }
  .stat-label { font: 11px 'Segoe UI', Ubuntu, Sans-Serif; fill: #c9d1d9; opacity: 0.7; }
  @keyframes fadeIn { from { opacity: 0; } to { opacity: 1; } }
  .anim { animation: fadeIn 0.6s ease-in-out forwards; opacity: 0; }
</style>

<rect x="0.5" y="0.5" rx="4.5" width="899" height="619" fill="#161b22" stroke="#21262d"/>
<text x="65" y="30" class="title">Activity History</text>
<text x="65" y="48" class="subtitle">Lines added vs deleted &amp; activity trends over time</text>
<line x1="65" y1="240.0" x2="720" y2="240.0" stroke="#21262d" stroke-width="1"/>
<text x="57" y="244.0" text-anchor="end" class="axis-label">0</text>
<line x1="65" y1="195.0" x2="720" y2="195.0" stroke="#21262d" stroke-width="1"/>
<text x="57" y="199.0" text-anchor="end" class="axis-label">216,572</text>
<line x1="65" y1="150.0" x2="720" y2="150.0" stroke="#21262d" stroke-width="1"/>
<text x="57" y="154.0" text-anchor="end" class="axis-label">433,144</text>
<line x1="65" y1="105.0" x2="720" y2="105.0" stroke="#21262d" stroke-width="1"/>
<text x="57" y="109.0" text-anchor="end" class="axis-label">649,717</text>
<line x1="65" y1="60.0" x2="720" y2="60.0" stroke="#21262d" stroke-width="1"/>
<text x="57" y="64.0" text-anchor="end" class="axis-label">866,289</text>
<polygon points="65.0,240.0 65.0,164.2 115.4,166.9 165.8,164.2 216.2,166.9 266.5,184.4 316.9,149.6 367.3,149.6 417.7,136.5 468.1,136.0 518.5,135.2 568.8,135.1 619.2,111.8 669.6,111.7 720.0,111.7 720.0,240.0" fill="url(#addGrad)" class="anim" style="animation-delay:200ms;"/>
<polyline points="65.0,164.2 115.4,166.9 165.8,164.2 216.2,166.9 266.5,184.4 316.9,149.6 367.3,149.6 417.7,136.5 468.1,136.0 518.5,135.2 568.8,135.1 619.2,111.8 669.6,111.7 720.0,111.7" fill="none" stroke="#3fb950" stroke-width="2" stroke-linejoin="round" class="anim" style="animation-delay:250ms;"/>
<polygon points="65.0,240.0 65.0,218.7 115.4,220.9 165.8,218.7 216.2,220.9 266.5,230.0 316.9,216.1 367.3,216.1 417.7,214.5 468.1,214.0 518.5,213.6 568.8,213.6 619.2,188.4 669.6,188.4 720.0,188.3 720.0,240.0" fill="url(#delGrad)" class="anim" style="animation-delay:300ms;"/>
<polyline points="65.0,218.7 115.4,220.9 165.8,218.7 216.2,220.9 266.5,230.0 316.9,216.1 367.3,216.1 417.7,214.5 468.1,214.0 518.5,213.6 568.8,213.6 619.2,188.4 669.6,188.4 720.0,188.3" fill="none" stroke="#f85149" stroke-width="1.5" stroke-linejoin="round" class="anim" style="animation-delay:350ms;"/>
<polyline points="65.0,240.0 115.4,240.0 165.8,240.0 216.2,240.0 266.5,240.0 316.9,240.0 367.3,240.0 417.7,240.0 468.1,96.0 518.5,96.0 568.8,96.0 619.2,96.0 669.6,96.0 720.0,96.0" fill="none" stroke="#e3b341" stroke-width="1.5" stroke-dasharray="4,3" stroke-linejoin="round" class="anim" style="animation-delay:400ms;"/>
<text x="65" y="54" class="subtitle">Lines Added vs Deleted (per snapshot)</text>
<text x="65" y="294" class="subtitle">Programming Language Development (%)</text>
<line x1="65" y1="480.0" x2="720" y2="480.0" stroke="#21262d" stroke-width="1"/>
<text x="57" y="484.0" text-anchor="end" class="axis-label">0%</text>
<line x1="65" y1="435.0" x2="720" y2="435.0" stroke="#21262d" stroke-width="1"/>
<text x="57" y="439.0" text-anchor="end" class="axis-label">25%</text>
<line x1="65" y1="390.0" x2="720" y2="390.0" stroke="#21262d" stroke-width="1"/>
<text x="57" y="394.0" text-anchor="end" class="axis-label">50%</text>
<line x1="65" y1="345.0" x2="720" y2="345.0" stroke="#21262d" stroke-width="1"/>
<text x="57" y="349.0" text-anchor="end" class="axis-label">75%</text>
<line x1="65" y1="300.0" x2="720" y2="300.0" stroke="#21262d" stroke-width="1"/>
<text x="57" y="304.0" text-anchor="end" class="axis-label">100%</text>
<polygon points="65.0,480.0 115.4,480.0 165.8,480.0 216.2,480.0 266.5,480.0 316.9,480.0 367.3,480.0 417.7,480.0 468.1,388.6 518.5,388.8 568.8,389.8 619.2,366.9 669.6,366.9 720.0,369.6 720.0,480.0 669.6,480.0 619.2,480.0 568.8,480.0 518.5,480.0 468.1,480.0 417.7,480.0 367.3,480.0 316.9,480.0 266.5,480.0 216.2,480.0 165.8,480.0 115.4,480.0 65.0,480.0" fill="#e34c26" opacity="0.6" class="anim" style="animation-delay:500ms;"/>
<polygon points="65.0,480.0 115.4,480.0 165.8,480.0 216.2,480.0 266.5,480.0 316.9,480.0 367.3,480.0 417.7,480.0 468.1,358.8 518.5,358.5 568.8,359.2 619.2,349.5 669.6,349.5 720.0,350.4 720.0,369.6 669.6,366.9 619.2,366.9 568.8,389.8 518.5,388.8 468.1,388.6 417.7,480.0 367.3,480.0 316.9,480.0 266.5,480.0 216.2,480.0 165.8,480.0 115.4,480.0 65.0,480.0" fill="#f1e05a" opacity="0.6" class="anim" style="animation-delay:600ms;"/>
<polygon points="65.0,480.0 115.4,480.0 165.8,480.0 216.2,480.0 266.5,480.0 316.9,480.0 367.3,480.0 417.7,480.0 468.1,334.2 518.5,334.0 568.8,333.9 619.2,327.7 669.6,327.7 720.0,328.6 720.0,350.4 669.6,349.5 619.2,349.5 568.8,359.2 518.5,358.5 468.1,358.8 417.7,480.0 367.3,480.0 316.9,480.0 266.5,480.0 216.2,480.0 165.8,480.0 115.4,480.0 65.0,480.0" fill="#3572A5" opacity="0.6" class="anim" style="animation-delay:700ms;"/>
<polygon points="65.0,480.0 115.4,480.0 165.8,480.0 216.2,480.0 266.5,480.0 316.9,480.0 367.3,480.0 417.7,480.0 468.1,324.2 518.5,324.0 568.8,323.7 619.2,322.1 669.6,322.1 720.0,322.1 720.0,328.6 669.6,327.7 619.2,327.7 568.8,333.9 518.5,334.0 468.1,334.2 417.7,480.0 367.3,480.0 316.9,480.0 266.5,480.0 216.2,480.0 165.8,480.0 115.4,480.0 65.0,480.0" fill="#663399" opacity="0.6" class="anim" style="animation-delay:800ms;"/>
<polygon points="65.0,480.0 115.4,480.0 165.8,480.0 216.2,480.0 266.5,480.0 316.9,480.0 367.3,480.0 417.7,480.0 468.1,317.0 518.5,316.9 568.8,316.7 619.2,316.1 669.6,316.1 720.0,316.1 720.0,322.1 669.6,322.1 619.2,322.1 568.8,323.7 518.5,324.0 468.1,324.2 417.7,480.0 367.3,480.0 316.9,480.0 266.5,480.0 216.2,480.0 165.8,480.0 115.4,480.0 65.0,480.0" fill="#6E4C13" opacity="0.6" class="anim" style="animation-delay:900ms;"/>
<text x="65.0" y="498" text-anchor="middle" class="axis-label" transform="rotate(-35 65.0 498)">2026-02-06</text>
<text x="115.4" y="498" text-anchor="middle" class="axis-label" transform="rotate(-35 115.4 498)">2026-02-07</text>
<text x="165.8" y="498" text-anchor="middle" class="axis-label" transform="rotate(-35 165.8 498)">2026-02-08</text>
<text x="216.2" y="498" text-anchor="middle" class="axis-label" transform="rotate(-35 216.2 498)">2026-02-09</text>
<text x="266.5" y="498" text-anchor="middle" class="axis-label" transform="rotate(-35 266.5 498)">2026-02-10</text>
<text x="316.9" y="498" text-anchor="middle" class="axis-label" transform="rotate(-35 316.9 498)">2026-02-11</text>
<text x="367.3" y="498" text-anchor="middle" class="axis-label" transform="rotate(-35 367.3 498)">2026-02-12</text>
<text x="417.7" y="498" text-anchor="middle" class="axis-label" transform="rotate(-35 417.7 498)">2026-02-13</text>
<text x="468.1" y="498" text-anchor="middle" class="axis-label" transform="rotate(-35 468.1 498)">2026-02-14</text>
<text x="518.5" y="498" text-anchor="middle" class="axis-label" transform="rotate(-35 518.5 498)">2026-02-15</text>
<text x="568.8" y="498" text-anchor="middle" class="axis-label" transform="rotate(-35 568.8 498)">2026-02-16</text>
<text x="619.2" y="498" text-anchor="middle" class="axis-label" transform="rotate(-35 619.2 498)">2026-02-17</text>
<text x="669.6" y="498" text-anchor="middle" class="axis-label" transform="rotate(-35 669.6 498)">2026-02-18</text>
<text x="720.0" y="498" text-anchor="middle" class="axis-label" transform="rotate(-35 720.0 498)">2026-02-19</text>
<line x1="736" y1="70" x2="756" y2="70" stroke="#3fb950" stroke-width="2"/>
<text x="762" y="74" class="legend-text">Lines Added</text>
<line x1="736" y1="88" x2="756" y2="88" stroke="#f85149" stroke-width="1.5"/>
<text x="762" y="92" class="legend-text">Lines Deleted</text>
<line x1="736" y1="108" x2="756" y2="108" stroke="#e3b341" stroke-width="1.5" stroke-dasharray="4,3"/>
<text x="762" y="112" class="legend-text">&#x2605; Stars</text>
<text x="736" y="142" class="subtitle">Languages</text>
<rect x="736" y="153" width="12" height="12" rx="2" fill="#e34c26" opacity="0.8" class="anim" style="animation-delay:800ms;"/>
<text x="754" y="163" class="legend-text">HTML (61.3%)</text>
<rect x="736" y="175" width="12" height="12" rx="2" fill="#f1e05a" opacity="0.8" class="anim" style="animation-delay:880ms;"/>
<text x="754" y="185" class="legend-text">JavaScript (10.7%)</text>
<rect x="736" y="197" width="12" height="12" rx="2" fill="#3572A5" opacity="0.8" class="anim" style="animation-delay:960ms;"/>
<text x="754" y="207" class="legend-text">Python (12.1%)</text>
<rect x="736" y="219" width="12" height="12" rx="2" fill="#663399" opacity="0.8" class="anim" style="animation-delay:1040ms;"/>
<text x="754" y="229" class="legend-text">CSS (3.7%)</text>
<rect x="736" y="241" width="12" height="12" rx="2" fill="#6E4C13" opacity="0.8" class="anim" style="animation-delay:1120ms;"/>
<text x="754" y="251" class="legend-text">Assembly (3.3%)</text>
<text x="736" y="292" class="subtitle">Contributions</text>
<text x="736" y="310" class="axis-label">2023: 39</text>
<text x="736" y="326" class="axis-label">2024: 646</text>
<text x="736" y="342" class="axis-label">2025: 1,780</text>
<text x="736" y="358" class="axis-label">2026: 228</text>
<text x="736" y="384" class="subtitle">Statistics</text>
<text x="736" y="402" class="axis-label">Active weeks: 75</text>
<text x="736" y="417" class="axis-label">Add/Del ratio: 2.5x</text>
<text x="736" y="432" class="axis-label">Avg lines/week: 11,551</text>
<text x="736" y="447" class="axis-label">Peak: 2026-02-15</text>
<text x="736" y="462" class="axis-label">  (234,174 lines)</text>
<text x="65" y="606" class="axis-label">Total: +617,629 / -248,660 lines &#xb7; 2,693 contributions &#xb7; 71 repos &#xb7; &#x2605; 33</text>
</svg>