<svg xmlns="http://www.w3.org/2000/svg" width="1000" height="760" style="max-width: 100%;" viewBox="0 0 1000 760">

<defs>
  <linearGradient id="areaGrad" x1="0" y1="0" x2="0" y2="1">
    <stop offset="0%" stop-color="#58a6ff" stop-opacity="0.35"/>
    <stop offset="100%" stop-color="#58a6ff" stop-opacity="0.02"/>
  </linearGradient>
  <linearGradient id="addGrad" x1="0" y1="0" x2="0" y2="1">
    <stop offset="0%" stop-color="#3fb950" stop-opacity="0.35"/>
    <stop offset="100%" stop-color="#3fb950" stop-opacity="0.02"/>
  </linearGradient>
  <linearGradient id="delGrad" x1="0" y1="0" x2="0" y2="1">
    <stop offset="0%" stop-color="#f85149" stop-opacity="0.25"/>
    <stop offset="100%" stop-color="#f85149" stop-opacity="0.02"/>
  </linearGradient>
</defs>
<style>
  .title { font: bold 28px 'Segoe UI', Ubuntu, Sans-Serif; fill: #c9d1d9; }
  .subtitle { font: 600 20px 'Segoe UI', Ubuntu, Sans-Serif; fill: #c9d1d9; opacity: 0.8; }
  .axis-label { font: 18px 'Segoe UI', Ubuntu, Sans-Serif; fill: #c9d1d9; opacity: 0.7; }
  .legend-text { font: 14px 'Segoe UI', Ubuntu, Sans-Serif; fill: #c9d1d9; }
  .value-text { font: bold 18px 'Segoe UI', Ubuntu, Sans-Serif; fill: #c9d1d9; }
  .stat-value { font: bold 22px 'Segoe UI', Ubuntu, Sans-Serif; fill: #c9d1d9; }
  .stat-label { font: 18px 'Segoe UI', Ubuntu, Sans-Serif; fill: #c9d1d9; opacity: 0.7; }
  @keyframes fadeIn { from { opacity: 0; } to { opacity: 1; } }
  .anim { animation: fadeIn 0.6s ease-in-out forwards; opacity: 0; }
</style>

<rect x="0.5" y="0.5" rx="4.5" width="999" height="759" fill="#161b22" stroke="#21262d"/>
<text x="90" y="45" class="title">Activity History</text>
<text x="90" y="72" class="subtitle">Lines added vs deleted &amp; activity trends over time</text>
<line x1="90" y1="340.0" x2="780" y2="340.0" stroke="#21262d" stroke-width="1"/>
<text x="82" y="344.0" text-anchor="end" class="axis-label">0</text>
<line x1="90" y1="280.0" x2="780" y2="280.0" stroke="#21262d" stroke-width="1"/>
<text x="82" y="284.0" text-anchor="end" class="axis-label">459K</text>
<line x1="90" y1="220.0" x2="780" y2="220.0" stroke="#21262d" stroke-width="1"/>
<text x="82" y="224.0" text-anchor="end" class="axis-label">918K</text>
<line x1="90" y1="160.0" x2="780" y2="160.0" stroke="#21262d" stroke-width="1"/>
<text x="82" y="164.0" text-anchor="end" class="axis-label">1.4M</text>
<line x1="90" y1="100.0" x2="780" y2="100.0" stroke="#21262d" stroke-width="1"/>
<text x="82" y="104.0" text-anchor="end" class="axis-label">1.8M</text>
<polygon points="90.0,340.0 90.0,292.3 99.5,294.0 108.9,292.3 118.4,294.0 127.8,305.0 137.3,283.2 146.7,283.2 156.2,274.9 165.6,274.6 175.1,274.1 184.5,274.0 194.0,259.4 203.4,259.3 212.9,259.3 222.3,237.5 231.8,237.3 241.2,237.0 250.7,237.0 260.1,237.0 269.6,237.0 279.0,237.0 288.5,236.5 297.9,221.9 307.4,221.9 316.8,221.9 326.3,221.9 335.8,221.5 345.2,221.5 354.7,220.9 364.1,220.9 373.6,220.8 383.0,220.8 392.5,220.8 401.9,220.8 411.4,220.9 420.8,220.8 430.3,220.8 439.7,220.8 449.2,220.8 458.6,220.8 468.1,220.8 477.5,220.2 487.0,220.5 496.4,219.8 505.9,219.5 515.3,219.5 524.8,219.5 534.2,219.5 543.7,219.5 553.2,219.5 562.6,219.4 572.1,219.4 581.5,219.4 591.0,219.5 600.4,219.8 609.9,221.2 619.3,219.8 628.8,218.5 638.2,218.5 647.7,218.5 657.1,218.5 666.6,218.5 676.0,211.0 685.5,204.2 694.9,204.2 704.4,204.2 713.8,204.2 723.3,204.2 732.7,204.2 742.2,204.2 751.6,204.2 761.1,204.1 770.5,196.2 780.0,188.4 780.0,340.0" fill="url(#addGrad)" class="anim" style="animation-delay:200ms;"/>
<polyline points="90.0,292.3 99.5,294.0 108.9,292.3 118.4,294.0 127.8,305.0 137.3,283.2 146.7,283.2 156.2,274.9 165.6,274.6 175.1,274.1 184.5,274.0 194.0,259.4 203.4,259.3 212.9,259.3 222.3,237.5 231.8,237.3 241.2,237.0 250.7,237.0 260.1,237.0 269.6,237.0 279.0,237.0 288.5,236.5 297.9,221.9 307.4,221.9 316.8,221.9 326.3,221.9 335.8,221.5 345.2,221.5 354.7,220.9 364.1,220.9 373.6,220.8 383.0,220.8 392.5,220.8 401.9,220.8 411.4,220.9 420.8,220.8 430.3,220.8 439.7,220.8 449.2,220.8 458.6,220.8 468.1,220.8 477.5,220.2 487.0,220.5 496.4,219.8 505.9,219.5 515.3,219.5 524.8,219.5 534.2,219.5 543.7,219.5 553.2,219.5 562.6,219.4 572.1,219.4 581.5,219.4 591.0,219.5 600.4,219.8 609.9,221.2 619.3,219.8 628.8,218.5 638.2,218.5 647.7,218.5 657.1,218.5 666.6,218.5 676.0,211.0 685.5,204.2 694.9,204.2 704.4,204.2 713.8,204.2 723.3,204.2 732.7,204.2 742.2,204.2 751.6,204.2 761.1,204.1" fill="none" stroke="#3fb950" stroke-width="2" stroke-linejoin="round" class="anim" style="animation-delay:250ms;"/>
<polyline points="761.1,204.1 770.5,196.2 780.0,188.4" fill="none" stroke="#3fb950" stroke-width="1.5" stroke-dasharray="5,4" stroke-linejoin="round" opacity="0.6" class="anim" style="animation-delay:250ms;"/>
<polygon points="90.0,340.0 90.0,326.6 99.5,328.0 108.9,326.6 118.4,328.0 127.8,333.7 137.3,325.0 146.7,325.0 156.2,324.0 165.6,323.7 175.1,323.4 184.5,323.4 194.0,307.6 203.4,307.6 212.9,307.5 222.3,289.6 231.8,289.5 241.2,289.5 250.7,289.5 260.1,289.5 269.6,289.5 279.0,289.5 288.5,280.1 297.9,265.8 307.4,265.8 316.8,265.8 326.3,265.8 335.8,265.7 345.2,265.7 354.7,265.6 364.1,265.6 373.6,265.6 383.0,265.6 392.5,265.6 401.9,265.6 411.4,265.6 420.8,265.6 430.3,265.6 439.7,265.6 449.2,265.6 458.6,265.6 468.1,265.6 477.5,265.6 487.0,265.6 496.4,265.2 505.9,265.2 515.3,265.2 524.8,265.2 534.2,265.2 543.7,265.2 553.2,265.2 562.6,265.2 572.1,265.2 581.5,265.2 591.0,265.2 600.4,265.3 609.9,266.1 619.3,265.5 628.8,264.7 638.2,264.7 647.7,264.7 657.1,264.7 666.6,264.7 676.0,264.6 685.5,264.6 694.9,264.6 704.4,264.6 713.8,264.6 723.3,264.6 732.7,264.6 742.2,264.6 751.6,264.6 761.1,264.6 770.5,258.1 780.0,251.6 780.0,340.0" fill="url(#delGrad)" class="anim" style="animation-delay:300ms;"/>
<polyline points="90.0,326.6 99.5,328.0 108.9,326.6 118.4,328.0 127.8,333.7 137.3,325.0 146.7,325.0 156.2,324.0 165.6,323.7 175.1,323.4 184.5,323.4 194.0,307.6 203.4,307.6 212.9,307.5 222.3,289.6 231.8,289.5 241.2,289.5 250.7,289.5 260.1,289.5 269.6,289.5 279.0,289.5 288.5,280.1 297.9,265.8 307.4,265.8 316.8,265.8 326.3,265.8 335.8,265.7 345.2,265.7 354.7,265.6 364.1,265.6 373.6,265.6 383.0,265.6 392.5,265.6 401.9,265.6 411.4,265.6 420.8,265.6 430.3,265.6 439.7,265.6 449.2,265.6 458.6,265.6 468.1,265.6 477.5,265.6 487.0,265.6 496.4,265.2 505.9,265.2 515.3,265.2 524.8,265.2 534.2,265.2 543.7,265.2 553.2,265.2 562.6,265.2 572.1,265.2 581.5,265.2 591.0,265.2 600.4,265.3 609.9,266.1 619.3,265.5 628.8,264.7 638.2,264.7 647.7,264.7 657.1,264.7 666.6,264.7 676.0,264.6 685.5,264.6 694.9,264.6 704.4,264.6 713.8,264.6 723.3,264.6 732.7,264.6 742.2,264.6 751.6,264.6 761.1,264.6" fill="none" stroke="#f85149" stroke-width="1.5" stroke-linejoin="round" class="anim" style="animation-delay:350ms;"/>
<polyline points="761.1,264.6 770.5,258.1 780.0,251.6" fill="none" stroke="#f85149" stroke-width="1" stroke-dasharray="5,4" stroke-linejoin="round" opacity="0.6" class="anim" style="animation-delay:350ms;"/>
<polyline points="90.0,340.0 99.5,340.0 108.9,340.0 118.4,340.0 127.8,340.0 137.3,340.0 146.7,340.0 156.2,340.0 165.6,308.0 175.1,308.0 184.5,308.0 194.0,308.0 203.4,308.0 212.9,308.0 222.3,308.0 231.8,308.0 241.2,308.0 250.7,308.0 260.1,308.0 269.6,308.0 279.0,308.0 288.5,308.0 297.9,308.0 307.4,308.0 316.8,308.0 326.3,308.0 335.8,308.0 345.2,308.0 354.7,308.0 364.1,308.0 373.6,308.0 383.0,308.0 392.5,308.0 401.9,308.0 411.4,276.0 420.8,276.0 430.3,276.0 439.7,276.0 449.2,276.0 458.6,276.0 468.1,276.0 477.5,276.0 487.0,244.0 496.4,244.0 505.9,244.0 515.3,244.0 524.8,244.0 534.2,244.0 543.7,244.0 553.2,244.0 562.6,244.0 572.1,244.0 581.5,244.0 591.0,244.0 600.4,244.0 609.9,244.0 619.3,244.0 628.8,244.0 638.2,180.0 647.7,180.0 657.1,180.0 666.6,180.0 676.0,180.0 685.5,180.0 694.9,180.0 704.4,180.0 713.8,180.0 723.3,180.0 732.7,180.0 742.2,180.0 751.6,180.0 761.1,180.0" fill="none" stroke="#e3b341" stroke-width="1.5" stroke-dasharray="4,3" stroke-linejoin="round" class="anim" style="animation-delay:400ms;"/>
<polyline points="761.1,180.0 770.5,180.0 780.0,148.0" fill="none" stroke="#e3b341" stroke-width="1" stroke-dasharray="3,5" stroke-linejoin="round" opacity="0.5" class="anim" style="animation-delay:400ms;"/>
<text x="90" y="90" class="subtitle">Lines Added vs Deleted (per snapshot)</text>
<text x="90" y="400" class="subtitle">Programming Language Development (%)</text>
<line x1="90" y1="650.0" x2="780" y2="650.0" stroke="#21262d" stroke-width="1"/>
<text x="82" y="654.0" text-anchor="end" class="axis-label">0%</text>
<line x1="90" y1="590.0" x2="780" y2="590.0" stroke="#21262d" stroke-width="1"/>
<text x="82" y="594.0" text-anchor="end" class="axis-label">25%</text>
<line x1="90" y1="530.0" x2="780" y2="530.0" stroke="#21262d" stroke-width="1"/>
<text x="82" y="534.0" text-anchor="end" class="axis-label">50%</text>
<line x1="90" y1="470.0" x2="780" y2="470.0" stroke="#21262d" stroke-width="1"/>
<text x="82" y="474.0" text-anchor="end" class="axis-label">75%</text>
<line x1="90" y1="410.0" x2="780" y2="410.0" stroke="#21262d" stroke-width="1"/>
<text x="82" y="414.0" text-anchor="end" class="axis-label">100%</text>
<polygon points="90.0,650.0 99.5,650.0 108.9,650.0 118.4,650.0 127.8,650.0 137.3,650.0 146.7,650.0 156.2,650.0 165.6,528.2 175.1,528.5 184.5,529.7 194.0,499.3 203.4,499.3 212.9,502.9 222.3,485.0 231.8,485.1 241.2,485.4 250.7,485.4 260.1,485.4 269.6,485.4 279.0,485.4 288.5,496.4 297.9,496.7 307.4,491.0 316.8,491.0 326.3,491.0 335.8,491.7 345.2,491.8 354.7,494.0 364.1,494.0 373.6,494.4 383.0,494.4 392.5,494.4 401.9,494.4 411.4,507.6 420.8,507.6 430.3,507.9 439.7,507.9 449.2,507.9 458.6,506.3 468.1,506.4 477.5,506.8 487.0,506.9 496.4,506.8 505.9,507.5 515.3,507.5 524.8,507.5 534.2,507.5 543.7,507.5 553.2,507.5 562.6,507.5 572.1,507.5 581.5,507.5 591.0,507.5 600.4,507.5 609.9,507.5 619.3,507.5 628.8,508.6 638.2,508.6 647.7,508.6 657.1,508.6 666.6,508.6 676.0,509.5 685.5,509.8 694.9,509.8 704.4,509.8 713.8,509.8 723.3,509.8 732.7,509.8 742.2,509.8 751.6,509.8 761.1,510.9 770.5,512.8 780.0,514.7 780.0,650.0 770.5,650.0 761.1,650.0 751.6,650.0 742.2,650.0 732.7,650.0 723.3,650.0 713.8,650.0 704.4,650.0 694.9,650.0 685.5,650.0 676.0,650.0 666.6,650.0 657.1,650.0 647.7,650.0 638.2,650.0 628.8,650.0 619.3,650.0 609.9,650.0 600.4,650.0 591.0,650.0 581.5,650.0 572.1,650.0 562.6,650.0 553.2,650.0 543.7,650.0 534.2,650.0 524.8,650.0 515.3,650.0 505.9,650.0 496.4,650.0 487.0,650.0 477.5,650.0 468.1,650.0 458.6,650.0 449.2,650.0 439.7,650.0 430.3,650.0 420.8,650.0 411.4,650.0 401.9,650.0 392.5,650.0 383.0,650.0 373.6,650.0 364.1,650.0 354.7,650.0 345.2,650.0 335.8,650.0 326.3,650.0 316.8,650.0 307.4,650.0 297.9,650.0 288.5,650.0 279.0,650.0 269.6,650.0 260.1,650.0 250.7,650.0 241.2,650.0 231.8,650.0 222.3,650.0 212.9,650.0 203.4,650.0 194.0,650.0 184.5,650.0 175.1,650.0 165.6,650.0 156.2,650.0 146.7,650.0 137.3,650.0 127.8,650.0 118.4,650.0 108.9,650.0 99.5,650.0 90.0,650.0" fill="#e34c26" opacity="0.6" class="anim" style="animation-delay:500ms;"/>
<polygon points="90.0,650.0 99.5,650.0 108.9,650.0 118.4,650.0 127.8,650.0 137.3,650.0 146.7,650.0 156.2,650.0 165.6,488.4 175.1,488.0 184.5,489.0 194.0,476.0 203.4,476.0 212.9,477.2 222.3,460.1 231.8,460.2 241.2,460.6 250.7,460.6 260.1,460.6 269.6,460.6 279.0,460.6 288.5,473.0 297.9,473.5 307.4,469.5 316.8,469.5 326.3,469.5 335.8,469.7 345.2,469.7 354.7,469.7 364.1,469.7 373.6,469.7 383.0,469.7 392.5,469.7 401.9,469.7 411.4,455.6 420.8,455.6 430.3,455.4 439.7,455.4 449.2,455.4 458.6,454.3 468.1,454.3 477.5,455.0 487.0,455.1 496.4,454.9 505.9,455.9 515.3,455.9 524.8,455.9 534.2,455.9 543.7,455.9 553.2,455.9 562.6,455.9 572.1,455.9 581.5,455.9 591.0,455.9 600.4,455.9 609.9,455.9 619.3,455.9 628.8,455.8 638.2,455.8 647.7,455.8 657.1,455.8 666.6,455.8 676.0,457.0 685.5,457.4 694.9,457.4 704.4,457.4 713.8,457.4 723.3,457.4 732.7,457.4 742.2,457.4 751.6,457.4 761.1,458.2 770.5,455.8 780.0,453.5 780.0,514.7 770.5,512.8 761.1,510.9 751.6,509.8 742.2,509.8 732.7,509.8 723.3,509.8 713.8,509.8 704.4,509.8 694.9,509.8 685.5,509.8 676.0,509.5 666.6,508.6 657.1,508.6 647.7,508.6 638.2,508.6 628.8,508.6 619.3,507.5 609.9,507.5 600.4,507.5 591.0,507.5 581.5,507.5 572.1,507.5 562.6,507.5 553.2,507.5 543.7,507.5 534.2,507.5 524.8,507.5 515.3,507.5 505.9,507.5 496.4,506.8 487.0,506.9 477.5,506.8 468.1,506.4 458.6,506.3 449.2,507.9 439.7,507.9 430.3,507.9 420.8,507.6 411.4,507.6 401.9,494.4 392.5,494.4 383.0,494.4 373.6,494.4 364.1,494.0 354.7,494.0 345.2,491.8 335.8,491.7 326.3,491.0 316.8,491.0 307.4,491.0 297.9,496.7 288.5,496.4 279.0,485.4 269.6,485.4 260.1,485.4 250.7,485.4 241.2,485.4 231.8,485.1 222.3,485.0 212.9,502.9 203.4,499.3 194.0,499.3 184.5,529.7 175.1,528.5 165.6,528.2 156.2,650.0 146.7,650.0 137.3,650.0 127.8,650.0 118.4,650.0 108.9,650.0 99.5,650.0 90.0,650.0" fill="#f1e05a" opacity="0.6" class="anim" style="animation-delay:600ms;"/>
<polygon points="90.0,650.0 99.5,650.0 108.9,650.0 118.4,650.0 127.8,650.0 137.3,650.0 146.7,650.0 156.2,650.0 165.6,455.5 175.1,455.4 184.5,455.1 194.0,447.0 203.4,447.0 212.9,448.2 222.3,438.9 231.8,439.0 241.2,439.6 250.7,439.6 260.1,439.6 269.6,439.6 279.0,439.6 288.5,445.6 297.9,445.6 307.4,443.3 316.8,443.3 326.3,443.3 335.8,443.6 345.2,443.6 354.7,444.1 364.1,444.1 373.6,444.1 383.0,444.1 392.5,444.1 401.9,444.1 411.4,437.5 420.8,437.5 430.3,437.5 439.7,437.5 449.2,437.5 458.6,437.5 468.1,437.5 477.5,438.4 487.0,438.5 496.4,438.3 505.9,439.3 515.3,439.3 524.8,439.3 534.2,439.3 543.7,439.3 553.2,439.3 562.6,439.3 572.1,439.3 581.5,439.3 591.0,439.3 600.4,439.3 609.9,439.3 619.3,439.3 628.8,439.4 638.2,439.4 647.7,439.4 657.1,439.4 666.6,439.4 676.0,440.7 685.5,441.1 694.9,441.1 704.4,441.1 713.8,441.1 723.3,441.1 732.7,441.1 742.2,441.1 751.6,441.1 761.1,442.0 770.5,441.4 780.0,440.8 780.0,453.5 770.5,455.8 761.1,458.2 751.6,457.4 742.2,457.4 732.7,457.4 723.3,457.4 713.8,457.4 704.4,457.4 694.9,457.4 685.5,457.4 676.0,457.0 666.6,455.8 657.1,455.8 647.7,455.8 638.2,455.8 628.8,455.8 619.3,455.9 609.9,455.9 600.4,455.9 591.0,455.9 581.5,455.9 572.1,455.9 562.6,455.9 553.2,455.9 543.7,455.9 534.2,455.9 524.8,455.9 515.3,455.9 505.9,455.9 496.4,454.9 487.0,455.1 477.5,455.0 468.1,454.3 458.6,454.3 449.2,455.4 439.7,455.4 430.3,455.4 420.8,455.6 411.4,455.6 401.9,469.7 392.5,469.7 383.0,469.7 373.6,469.7 364.1,469.7 354.7,469.7 345.2,469.7 335.8,469.7 326.3,469.5 316.8,469.5 307.4,469.5 297.9,473.5 288.5,473.0 279.0,460.6 269.6,460.6 260.1,460.6 250.7,460.6 241.2,460.6 231.8,460.2 222.3,460.1 212.9,477.2 203.4,476.0 194.0,476.0 184.5,489.0 175.1,488.0 165.6,488.4 156.2,650.0 146.7,650.0 137.3,650.0 127.8,650.0 118.4,650.0 108.9,650.0 99.5,650.0 90.0,650.0" fill="#3572A5" opacity="0.6" class="anim" style="animation-delay:700ms;"/>
<polygon points="90.0,650.0 99.5,650.0 108.9,650.0 118.4,650.0 127.8,650.0 137.3,650.0 146.7,650.0 156.2,650.0 165.6,442.3 175.1,442.0 184.5,441.6 194.0,439.5 203.4,439.5 212.9,439.4 222.3,432.3 231.8,432.2 241.2,432.6 250.7,432.6 260.1,432.6 269.6,432.6 279.0,432.6 288.5,439.3 297.9,439.3 307.4,437.4 316.8,437.4 326.3,437.4 335.8,437.3 345.2,437.3 354.7,437.1 364.1,437.1 373.6,437.1 383.0,437.1 392.5,437.1 401.9,437.1 411.4,428.7 420.8,428.6 430.3,428.5 439.7,428.5 449.2,428.5 458.6,427.3 468.1,427.3 477.5,427.1 487.0,427.1 496.4,427.1 505.9,427.0 515.3,427.0 524.8,427.0 534.2,427.0 543.7,427.0 553.2,427.0 562.6,427.0 572.1,427.0 581.5,427.0 591.0,427.0 600.4,427.0 609.9,427.0 619.3,427.0 628.8,427.0 638.2,427.1 647.7,427.1 657.1,427.1 666.6,427.1 676.0,428.4 685.5,428.9 694.9,428.9 704.4,428.9 713.8,428.9 723.3,428.9 732.7,428.9 742.2,428.9 751.6,428.9 761.1,428.7 770.5,427.4 780.0,426.1 780.0,440.8 770.5,441.4 761.1,442.0 751.6,441.1 742.2,441.1 732.7,441.1 723.3,441.1 713.8,441.1 704.4,441.1 694.9,441.1 685.5,441.1 676.0,440.7 666.6,439.4 657.1,439.4 647.7,439.4 638.2,439.4 628.8,439.4 619.3,439.3 609.9,439.3 600.4,439.3 591.0,439.3 581.5,439.3 572.1,439.3 562.6,439.3 553.2,439.3 543.7,439.3 534.2,439.3 524.8,439.3 515.3,439.3 505.9,439.3 496.4,438.3 487.0,438.5 477.5,438.4 468.1,437.5 458.6,437.5 449.2,437.5 439.7,437.5 430.3,437.5 420.8,437.5 411.4,437.5 401.9,444.1 392.5,444.1 383.0,444.1 373.6,444.1 364.1,444.1 354.7,444.1 345.2,443.6 335.8,443.6 326.3,443.3 316.8,443.3 307.4,443.3 297.9,445.6 288.5,445.6 279.0,439.6 269.6,439.6 260.1,439.6 250.7,439.6 241.2,439.6 231.8,439.0 222.3,438.9 212.9,448.2 203.4,447.0 194.0,447.0 184.5,455.1 175.1,455.4 165.6,455.5 156.2,650.0 146.7,650.0 137.3,650.0 127.8,650.0 118.4,650.0 108.9,650.0 99.5,650.0 90.0,650.0" fill="#663399" opacity="0.6" class="anim" style="animation-delay:800ms;"/>
<polygon points="90.0,650.0 99.5,650.0 108.9,650.0 118.4,650.0 127.8,650.0 137.3,650.0 146.7,650.0 156.2,650.0 165.6,436.6 175.1,436.3 184.5,435.9 194.0,432.2 203.4,432.2 212.9,432.2 222.3,426.2 231.8,426.1 241.2,426.0 250.7,426.0 260.1,426.0 269.6,426.0 279.0,426.0 288.5,430.8 297.9,430.7 307.4,429.3 316.8,429.3 326.3,429.3 335.8,429.2 345.2,429.2 354.7,428.9 364.1,428.9 373.6,428.8 383.0,428.8 392.5,428.8 401.9,428.8 411.4,423.0 420.8,422.9 430.3,422.9 439.7,422.9 449.2,422.9 458.6,422.0 468.1,422.0 477.5,421.9 487.0,421.9 496.4,421.9 505.9,421.8 515.3,421.8 524.8,421.8 534.2,421.8 543.7,421.8 553.2,421.8 562.6,421.8 572.1,421.8 581.5,421.8 591.0,421.8 600.4,421.8 609.9,421.8 619.3,421.8 628.8,421.7 638.2,421.8 647.7,421.8 657.1,421.8 666.6,421.8 676.0,423.2 685.5,423.6 694.9,423.6 704.4,423.6 713.8,423.6 723.3,423.6 732.7,423.6 742.2,423.6 751.6,423.6 761.1,423.5 770.5,422.5 780.0,421.5 780.0,426.1 770.5,427.4 761.1,428.7 751.6,428.9 742.2,428.9 732.7,428.9 723.3,428.9 713.8,428.9 704.4,428.9 694.9,428.9 685.5,428.9 676.0,428.4 666.6,427.1 657.1,427.1 647.7,427.1 638.2,427.1 628.8,427.0 619.3,427.0 609.9,427.0 600.4,427.0 591.0,427.0 581.5,427.0 572.1,427.0 562.6,427.0 553.2,427.0 543.7,427.0 534.2,427.0 524.8,427.0 515.3,427.0 505.9,427.0 496.4,427.1 487.0,427.1 477.5,427.1 468.1,427.3 458.6,427.3 449.2,428.5 439.7,428.5 430.3,428.5 420.8,428.6 411.4,428.7 401.9,437.1 392.5,437.1 383.0,437.1 373.6,437.1 364.1,437.1 354.7,437.1 345.2,437.3 335.8,437.3 326.3,437.4 316.8,437.4 307.4,437.4 297.9,439.3 288.5,439.3 279.0,432.6 269.6,432.6 260.1,432.6 250.7,432.6 241.2,432.6 231.8,432.2 222.3,432.3 212.9,439.4 203.4,439.5 194.0,439.5 184.5,441.6 175.1,442.0 165.6,442.3 156.2,650.0 146.7,650.0 137.3,650.0 127.8,650.0 118.4,650.0 108.9,650.0 99.5,650.0 90.0,650.0" fill="#083fa1" opacity="0.6" class="anim" style="animation-delay:900ms;"/>
<polygon points="90.0,650.0 99.5,650.0 108.9,650.0 118.4,650.0 127.8,650.0 137.3,650.0 146.7,650.0 156.2,650.0 165.6,427.0 175.1,426.8 184.5,426.6 194.0,424.2 203.4,424.2 212.9,424.2 222.3,420.4 231.8,420.3 241.2,420.3 250.7,420.3 260.1,420.3 269.6,420.3 279.0,420.3 288.5,423.3 297.9,423.2 307.4,422.4 316.8,422.4 326.3,422.4 335.8,422.3 345.2,422.3 354.7,422.1 364.1,422.1 373.6,422.1 383.0,422.1 392.5,422.1 401.9,422.1 411.4,418.3 420.8,418.3 430.3,418.2 439.7,418.2 449.2,418.2 458.6,417.7 468.1,417.7 477.5,417.6 487.0,417.6 496.4,417.6 505.9,417.6 515.3,417.6 524.8,417.6 534.2,417.6 543.7,417.6 553.2,417.6 562.6,417.6 572.1,417.6 581.5,417.6 591.0,417.6 600.4,417.6 609.9,417.6 619.3,417.6 628.8,417.5 638.2,417.6 647.7,417.6 657.1,417.6 666.6,417.6 676.0,419.0 685.5,419.5 694.9,419.5 704.4,419.5 713.8,419.5 723.3,419.5 732.7,419.5 742.2,419.5 751.6,419.5 761.1,419.4 770.5,418.9 780.0,418.4 780.0,421.5 770.5,422.5 761.1,423.5 751.6,423.6 742.2,423.6 732.7,423.6 723.3,423.6 713.8,423.6 704.4,423.6 694.9,423.6 685.5,423.6 676.0,423.2 666.6,421.8 657.1,421.8 647.7,421.8 638.2,421.8 628.8,421.7 619.3,421.8 609.9,421.8 600.4,421.8 591.0,421.8 581.5,421.8 572.1,421.8 562.6,421.8 553.2,421.8 543.7,421.8 534.2,421.8 524.8,421.8 515.3,421.8 505.9,421.8 496.4,421.9 487.0,421.9 477.5,421.9 468.1,422.0 458.6,422.0 449.2,422.9 439.7,422.9 430.3,422.9 420.8,422.9 411.4,423.0 401.9,428.8 392.5,428.8 383.0,428.8 373.6,428.8 364.1,428.9 354.7,428.9 345.2,429.2 335.8,429.2 326.3,429.3 316.8,429.3 307.4,429.3 297.9,430.7 288.5,430.8 279.0,426.0 269.6,426.0 260.1,426.0 250.7,426.0 241.2,426.0 231.8,426.1 222.3,426.2 212.9,432.2 203.4,432.2 194.0,432.2 184.5,435.9 175.1,436.3 165.6,436.6 156.2,650.0 146.7,650.0 137.3,650.0 127.8,650.0 118.4,650.0 108.9,650.0 99.5,650.0 90.0,650.0" fill="#6E4C13" opacity="0.6" class="anim" style="animation-delay:1000ms;"/>
<polygon points="90.0,650.0 99.5,650.0 108.9,650.0 118.4,650.0 127.8,650.0 137.3,650.0 146.7,650.0 156.2,650.0 165.6,418.7 175.1,418.6 184.5,418.5 194.0,417.3 203.4,417.3 212.9,417.2 222.3,415.3 231.8,415.3 241.2,415.2 250.7,415.2 260.1,415.2 269.6,415.2 279.0,415.2 288.5,416.8 297.9,416.8 307.4,416.3 316.8,416.3 326.3,416.3 335.8,416.3 345.2,416.3 354.7,416.2 364.1,416.2 373.6,416.2 383.0,416.2 392.5,416.2 401.9,416.2 411.4,414.2 420.8,414.2 430.3,414.2 439.7,414.2 449.2,414.2 458.6,413.9 468.1,413.9 477.5,413.9 487.0,413.9 496.4,413.9 505.9,413.9 515.3,413.9 524.8,413.9 534.2,413.9 543.7,413.9 553.2,413.9 562.6,413.9 572.1,413.9 581.5,413.9 591.0,413.9 600.4,413.9 609.9,413.9 619.3,413.9 628.8,413.8 638.2,413.8 647.7,413.8 657.1,413.8 666.6,413.8 676.0,413.8 685.5,413.8 694.9,413.8 704.4,413.8 713.8,413.8 723.3,413.8 732.7,413.8 742.2,413.8 751.6,413.8 761.1,413.8 770.5,413.5 780.0,413.3 780.0,418.4 770.5,418.9 761.1,419.4 751.6,419.5 742.2,419.5 732.7,419.5 723.3,419.5 713.8,419.5 704.4,419.5 694.9,419.5 685.5,419.5 676.0,419.0 666.6,417.6 657.1,417.6 647.7,417.6 638.2,417.6 628.8,417.5 619.3,417.6 609.9,417.6 600.4,417.6 591.0,417.6 581.5,417.6 572.1,417.6 562.6,417.6 553.2,417.6 543.7,417.6 534.2,417.6 524.8,417.6 515.3,417.6 505.9,417.6 496.4,417.6 487.0,417.6 477.5,417.6 468.1,417.7 458.6,417.7 449.2,418.2 439.7,418.2 430.3,418.2 420.8,418.3 411.4,418.3 401.9,422.1 392.5,422.1 383.0,422.1 373.6,422.1 364.1,422.1 354.7,422.1 345.2,422.3 335.8,422.3 326.3,422.4 316.8,422.4 307.4,422.4 297.9,423.2 288.5,423.3 279.0,420.3 269.6,420.3 260.1,420.3 250.7,420.3 241.2,420.3 231.8,420.3 222.3,420.4 212.9,424.2 203.4,424.2 194.0,424.2 184.5,426.6 175.1,426.8 165.6,427.0 156.2,650.0 146.7,650.0 137.3,650.0 127.8,650.0 118.4,650.0 108.9,650.0 99.5,650.0 90.0,650.0" fill="#F05138" opacity="0.6" class="anim" style="animation-delay:1100ms;"/>
<polygon points="90.0,650.0 99.5,650.0 108.9,650.0 118.4,650.0 127.8,650.0 137.3,650.0 146.7,650.0 156.2,650.0 165.6,414.4 175.1,414.4 184.5,414.3 194.0,413.7 203.4,413.7 212.9,413.7 222.3,412.7 231.8,412.7 241.2,412.7 250.7,412.7 260.1,412.7 269.6,412.7 279.0,412.7 288.5,413.5 297.9,413.4 307.4,413.2 316.8,413.2 326.3,413.2 335.8,413.2 345.2,413.2 354.7,413.1 364.1,413.1 373.6,413.1 383.0,413.1 392.5,413.1 401.9,413.1 411.4,412.2 420.8,412.1 430.3,412.1 439.7,412.1 449.2,412.1 458.6,412.0 468.1,412.0 477.5,412.0 487.0,412.0 496.4,412.0 505.9,412.0 515.3,412.0 524.8,412.0 534.2,412.0 543.7,412.0 553.2,412.0 562.6,412.0 572.1,412.0 581.5,412.0 591.0,412.0 600.4,412.0 609.9,412.0 619.3,412.0 628.8,411.9 638.2,411.9 647.7,411.9 657.1,411.9 666.6,411.9 676.0,411.9 685.5,411.9 694.9,411.9 704.4,411.9 713.8,411.9 723.3,411.9 732.7,411.9 742.2,411.9 751.6,411.9 761.1,411.9 770.5,411.9 780.0,411.9 780.0,413.3 770.5,413.5 761.1,413.8 751.6,413.8 742.2,413.8 732.7,413.8 723.3,413.8 713.8,413.8 704.4,413.8 694.9,413.8 685.5,413.8 676.0,413.8 666.6,413.8 657.1,413.8 647.7,413.8 638.2,413.8 628.8,413.8 619.3,413.9 609.9,413.9 600.4,413.9 591.0,413.9 581.5,413.9 572.1,413.9 562.6,413.9 553.2,413.9 543.7,413.9 534.2,413.9 524.8,413.9 515.3,413.9 505.9,413.9 496.4,413.9 487.0,413.9 477.5,413.9 468.1,413.9 458.6,413.9 449.2,414.2 439.7,414.2 430.3,414.2 420.8,414.2 411.4,414.2 401.9,416.2 392.5,416.2 383.0,416.2 373.6,416.2 364.1,416.2 354.7,416.2 345.2,416.3 335.8,416.3 326.3,416.3 316.8,416.3 307.4,416.3 297.9,416.8 288.5,416.8 279.0,415.2 269.6,415.2 260.1,415.2 250.7,415.2 241.2,415.2 231.8,415.3 222.3,415.3 212.9,417.2 203.4,417.3 194.0,417.3 184.5,418.5 175.1,418.6 165.6,418.7 156.2,650.0 146.7,650.0 137.3,650.0 127.8,650.0 118.4,650.0 108.9,650.0 99.5,650.0 90.0,650.0" fill="#b07219" opacity="0.6" class="anim" style="animation-delay:1200ms;"/>
<line x1="761.1" y1="100" x2="761.1" y2="650" stroke="#c9d1d9" stroke-width="1" stroke-dasharray="4,3" opacity="0.35"/>
<text x="770.5" y="112" text-anchor="middle" class="axis-label" opacity="0.6">Jul 03, 2026</text>
<text x="90.0" y="668" text-anchor="middle" class="axis-label" transform="rotate(-35 90.0 668)">2026-02</text>
<text x="316.8" y="668" text-anchor="middle" class="axis-label" transform="rotate(-35 316.8 668)">2026-03</text>
<text x="619.3" y="668" text-anchor="middle" class="axis-label" transform="rotate(-35 619.3 668)">2026-04</text>
<text x="694.9" y="668" text-anchor="middle" class="axis-label" transform="rotate(-35 694.9 668)">2026-06</text>
<text x="770.5" y="668" text-anchor="middle" class="axis-label" transform="rotate(-35 770.5 668)">Jul 03, 2026</text>
<line x1="796" y1="110" x2="824" y2="110" stroke="#3fb950" stroke-width="2"/>
<text x="832" y="116" class="legend-text">Lines Added</text>
<line x1="796" y1="140" x2="824" y2="140" stroke="#f85149" stroke-width="1.5"/>
<text x="832" y="146" class="legend-text">Lines Deleted</text>
<line x1="796" y1="170" x2="824" y2="170" stroke="#e3b341" stroke-width="1.5" stroke-dasharray="4,3"/>
<text x="832" y="176" class="legend-text">&#x2605; Stars</text>
<text x="796" y="200" class="subtitle">Languages</text>
<rect x="796" y="212" width="12" height="12" rx="2" fill="#e34c26" opacity="0.8" class="anim" style="animation-delay:800ms;"/>
<text x="814" y="223" class="legend-text">HTML (58%→56%)</text>
<rect x="796" y="234" width="12" height="12" rx="2" fill="#f1e05a" opacity="0.8" class="anim" style="animation-delay:880ms;"/>
<text x="814" y="245" class="legend-text">JavaScript (22%→26%)</text>
<rect x="796" y="256" width="12" height="12" rx="2" fill="#3572A5" opacity="0.8" class="anim" style="animation-delay:960ms;"/>
<text x="814" y="267" class="legend-text">Python (7%→5%)</text>
<rect x="796" y="278" width="12" height="12" rx="2" fill="#663399" opacity="0.8" class="anim" style="animation-delay:1040ms;"/>
<text x="814" y="289" class="legend-text">CSS (6%→6%)</text>
<rect x="796" y="300" width="12" height="12" rx="2" fill="#083fa1" opacity="0.8" class="anim" style="animation-delay:1120ms;"/>
<text x="814" y="311" class="legend-text">Markdown (2%→2%)</text>
<rect x="796" y="322" width="12" height="12" rx="2" fill="#6E4C13" opacity="0.8" class="anim" style="animation-delay:1200ms;"/>
<text x="814" y="333" class="legend-text">Assembly (2%→1%)</text>
<rect x="796" y="344" width="12" height="12" rx="2" fill="#F05138" opacity="0.8" class="anim" style="animation-delay:1280ms;"/>
<text x="814" y="355" class="legend-text">Swift (2%→2%)</text>
<rect x="796" y="366" width="12" height="12" rx="2" fill="#b07219" opacity="0.8" class="anim" style="animation-delay:1360ms;"/>
<text x="814" y="377" class="legend-text">Java (1%→1%)</text>
<text x="796" y="412" class="subtitle">Contributions</text>
<text x="796" y="432" class="axis-label">2023: 39</text>
<text x="796" y="452" class="axis-label">2024: 646</text>
<text x="796" y="472" class="axis-label">2025: 1,780</text>
<text x="796" y="492" class="axis-label">2026: 491</text>
<text x="796" y="522" class="subtitle">Statistics</text>
<text x="796" y="542" class="axis-label">Active weeks: 88</text>
<text x="796" y="562" class="axis-label">Add/Del ratio: 1.8x</text>
<text x="796" y="582" class="axis-label">Avg lines/wk: 18K</text>
<text x="796" y="602" class="axis-label">Peak: 2026-02-15</text>
<text x="796" y="622" class="axis-label">  (543K lines)</text>
<text x="90" y="742" class="axis-label">Total: +1,040,332 / -576,819 lines &#xb7; 2,956 contributions &#xb7; 80 repos &#xb7; &#x2605; 37</text>
</svg>