<svg xmlns="http://www.w3.org/2000/svg" width="1000" height="760" style="max-width: 100%;" viewBox="0 0 1000 760">

<defs>
  <linearGradient id="areaGrad" x1="0" y1="0" x2="0" y2="1">
    <stop offset="0%" stop-color="#58a6ff" stop-opacity="0.35"/>
    <stop offset="100%" stop-color="#58a6ff" stop-opacity="0.02"/>
  </linearGradient>
  <linearGradient id="addGrad" x1="0" y1="0" x2="0" y2="1">
    <stop offset="0%" stop-color="#3fb950" stop-opacity="0.35"/>
    <stop offset="100%" stop-color="#3fb950" stop-opacity="0.02"/>
  </linearGradient>
  <linearGradient id="delGrad" x1="0" y1="0" x2="0" y2="1">
    <stop offset="0%" stop-color="#f85149" stop-opacity="0.25"/>
    <stop offset="100%" stop-color="#f85149" stop-opacity="0.02"/>
  </linearGradient>
</defs>
<style>
  .title { font: bold 28px 'Segoe UI', Ubuntu, Sans-Serif; fill: #c9d1d9; }
  .subtitle { font: 600 20px 'Segoe UI', Ubuntu, Sans-Serif; fill: #c9d1d9; opacity: 0.8; }
  .axis-label { font: 18px 'Segoe UI', Ubuntu, Sans-Serif; fill: #c9d1d9; opacity: 0.7; }
  .legend-text { font: 14px 'Segoe UI', Ubuntu, Sans-Serif; fill: #c9d1d9; }
  .value-text { font: bold 18px 'Segoe UI', Ubuntu, Sans-Serif; fill: #c9d1d9; }
  .stat-value { font: bold 22px 'Segoe UI', Ubuntu, Sans-Serif; fill: #c9d1d9; }
  .stat-label { font: 18px 'Segoe UI', Ubuntu, Sans-Serif; fill: #c9d1d9; opacity: 0.7; }
  @keyframes fadeIn { from { opacity: 0; } to { opacity: 1; } }
  .anim { animation: fadeIn 0.6s ease-in-out forwards; opacity: 0; }
</style>

<rect x="0.5" y="0.5" rx="4.5" width="999" height="759" fill="#161b22" stroke="#21262d"/>
<text x="90" y="45" class="title">Activity History</text>
<text x="90" y="72" class="subtitle">Lines added vs deleted &amp; activity trends over time</text>
<line x1="90" y1="340.0" x2="780" y2="340.0" stroke="#21262d" stroke-width="1"/>
<text x="82" y="344.0" text-anchor="end" class="axis-label">0</text>
<line x1="90" y1="280.0" x2="780" y2="280.0" stroke="#21262d" stroke-width="1"/>
<text x="82" y="284.0" text-anchor="end" class="axis-label">542K</text>
<line x1="90" y1="220.0" x2="780" y2="220.0" stroke="#21262d" stroke-width="1"/>
<text x="82" y="224.0" text-anchor="end" class="axis-label">1.1M</text>
<line x1="90" y1="160.0" x2="780" y2="160.0" stroke="#21262d" stroke-width="1"/>
<text x="82" y="164.0" text-anchor="end" class="axis-label">1.6M</text>
<line x1="90" y1="100.0" x2="780" y2="100.0" stroke="#21262d" stroke-width="1"/>
<text x="82" y="104.0" text-anchor="end" class="axis-label">2.2M</text>
<polygon points="90.0,340.0 90.0,299.6 103.5,301.1 117.1,299.6 130.6,301.1 144.1,310.4 157.6,291.9 171.2,291.9 184.7,284.9 198.2,284.6 211.8,284.2 225.3,284.1 238.8,271.7 252.4,271.7 265.9,271.7 279.4,253.2 292.9,253.0 306.5,252.8 320.0,252.8 333.5,252.8 347.1,252.8 360.6,252.8 374.1,252.3 387.6,240.0 401.2,240.0 414.7,240.0 428.2,240.0 441.8,239.7 455.3,239.7 468.8,239.1 482.4,239.1 495.9,239.1 509.4,239.1 522.9,239.1 536.5,239.1 550.0,239.1 563.5,239.1 577.1,239.1 590.6,239.1 604.1,239.1 617.6,239.1 631.2,239.1 644.7,238.5 658.2,238.8 671.8,238.2 685.3,237.9 698.8,237.9 712.4,237.9 725.9,237.9 739.4,237.9 752.9,237.9 766.5,218.9 780.0,199.8 780.0,340.0" fill="url(#addGrad)" class="anim" style="animation-delay:200ms;"/>
<polyline points="90.0,299.6 103.5,301.1 117.1,299.6 130.6,301.1 144.1,310.4 157.6,291.9 171.2,291.9 184.7,284.9 198.2,284.6 211.8,284.2 225.3,284.1 238.8,271.7 252.4,271.7 265.9,271.7 279.4,253.2 292.9,253.0 306.5,252.8 320.0,252.8 333.5,252.8 347.1,252.8 360.6,252.8 374.1,252.3 387.6,240.0 401.2,240.0 414.7,240.0 428.2,240.0 441.8,239.7 455.3,239.7 468.8,239.1 482.4,239.1 495.9,239.1 509.4,239.1 522.9,239.1 536.5,239.1 550.0,239.1 563.5,239.1 577.1,239.1 590.6,239.1 604.1,239.1 617.6,239.1 631.2,239.1 644.7,238.5 658.2,238.8 671.8,238.2 685.3,237.9 698.8,237.9 712.4,237.9 725.9,237.9 739.4,237.9 752.9,237.9" fill="none" stroke="#3fb950" stroke-width="2" stroke-linejoin="round" class="anim" style="animation-delay:250ms;"/>
<polyline points="752.9,237.9 766.5,218.9 780.0,199.8" fill="none" stroke="#3fb950" stroke-width="1.5" stroke-dasharray="5,4" stroke-linejoin="round" opacity="0.6" class="anim" style="animation-delay:250ms;"/>
<polygon points="90.0,340.0 90.0,328.6 103.5,329.8 117.1,328.7 130.6,329.8 144.1,334.7 157.6,327.3 171.2,327.3 184.7,326.4 198.2,326.2 211.8,325.9 225.3,325.9 238.8,312.5 252.4,312.5 265.9,312.5 279.4,297.3 292.9,297.2 306.5,297.2 320.0,297.2 333.5,297.2 347.1,297.2 360.6,297.2 374.1,289.3 387.6,277.2 401.2,277.1 414.7,277.1 428.2,277.1 441.8,277.1 455.3,277.1 468.8,277.0 482.4,277.0 495.9,277.0 509.4,277.0 522.9,277.0 536.5,277.0 550.0,277.0 563.5,277.0 577.1,277.0 590.6,277.0 604.1,277.0 617.6,277.0 631.2,277.0 644.7,277.0 658.2,277.0 671.8,276.6 685.3,276.6 698.8,276.6 712.4,276.6 725.9,276.6 739.4,276.6 752.9,276.6 766.5,258.4 780.0,240.2 780.0,340.0" fill="url(#delGrad)" class="anim" style="animation-delay:300ms;"/>
<polyline points="90.0,328.6 103.5,329.8 117.1,328.7 130.6,329.8 144.1,334.7 157.6,327.3 171.2,327.3 184.7,326.4 198.2,326.2 211.8,325.9 225.3,325.9 238.8,312.5 252.4,312.5 265.9,312.5 279.4,297.3 292.9,297.2 306.5,297.2 320.0,297.2 333.5,297.2 347.1,297.2 360.6,297.2 374.1,289.3 387.6,277.2 401.2,277.1 414.7,277.1 428.2,277.1 441.8,277.1 455.3,277.1 468.8,277.0 482.4,277.0 495.9,277.0 509.4,277.0 522.9,277.0 536.5,277.0 550.0,277.0 563.5,277.0 577.1,277.0 590.6,277.0 604.1,277.0 617.6,277.0 631.2,277.0 644.7,277.0 658.2,277.0 671.8,276.6 685.3,276.6 698.8,276.6 712.4,276.6 725.9,276.6 739.4,276.6 752.9,276.6" fill="none" stroke="#f85149" stroke-width="1.5" stroke-linejoin="round" class="anim" style="animation-delay:350ms;"/>
<polyline points="752.9,276.6 766.5,258.4 780.0,240.2" fill="none" stroke="#f85149" stroke-width="1" stroke-dasharray="5,4" stroke-linejoin="round" opacity="0.6" class="anim" style="animation-delay:350ms;"/>
<polyline points="90.0,340.0 103.5,340.0 117.1,340.0 130.6,340.0 144.1,340.0 157.6,340.0 171.2,340.0 184.7,340.0 198.2,292.0 211.8,292.0 225.3,292.0 238.8,292.0 252.4,292.0 265.9,292.0 279.4,292.0 292.9,292.0 306.5,292.0 320.0,292.0 333.5,292.0 347.1,292.0 360.6,292.0 374.1,292.0 387.6,292.0 401.2,292.0 414.7,292.0 428.2,292.0 441.8,292.0 455.3,292.0 468.8,292.0 482.4,292.0 495.9,292.0 509.4,292.0 522.9,292.0 536.5,292.0 550.0,244.0 563.5,244.0 577.1,244.0 590.6,244.0 604.1,244.0 617.6,244.0 631.2,244.0 644.7,244.0 658.2,196.0 671.8,196.0 685.3,196.0 698.8,196.0 712.4,196.0 725.9,196.0 739.4,196.0 752.9,196.0" fill="none" stroke="#e3b341" stroke-width="1.5" stroke-dasharray="4,3" stroke-linejoin="round" class="anim" style="animation-delay:400ms;"/>
<polyline points="752.9,196.0 766.5,196.0 780.0,148.0" fill="none" stroke="#e3b341" stroke-width="1" stroke-dasharray="3,5" stroke-linejoin="round" opacity="0.5" class="anim" style="animation-delay:400ms;"/>
<text x="90" y="90" class="subtitle">Lines Added vs Deleted (per snapshot)</text>
<text x="90" y="400" class="subtitle">Programming Language Development (%)</text>
<line x1="90" y1="650.0" x2="780" y2="650.0" stroke="#21262d" stroke-width="1"/>
<text x="82" y="654.0" text-anchor="end" class="axis-label">0%</text>
<line x1="90" y1="590.0" x2="780" y2="590.0" stroke="#21262d" stroke-width="1"/>
<text x="82" y="594.0" text-anchor="end" class="axis-label">25%</text>
<line x1="90" y1="530.0" x2="780" y2="530.0" stroke="#21262d" stroke-width="1"/>
<text x="82" y="534.0" text-anchor="end" class="axis-label">50%</text>
<line x1="90" y1="470.0" x2="780" y2="470.0" stroke="#21262d" stroke-width="1"/>
<text x="82" y="474.0" text-anchor="end" class="axis-label">75%</text>
<line x1="90" y1="410.0" x2="780" y2="410.0" stroke="#21262d" stroke-width="1"/>
<text x="82" y="414.0" text-anchor="end" class="axis-label">100%</text>
<polygon points="90.0,650.0 103.5,650.0 117.1,650.0 130.6,650.0 144.1,650.0 157.6,650.0 171.2,650.0 184.7,650.0 198.2,528.2 211.8,528.5 225.3,529.7 238.8,499.3 252.4,499.3 265.9,502.9 279.4,485.0 292.9,485.1 306.5,485.4 320.0,485.4 333.5,485.4 347.1,485.4 360.6,485.4 374.1,496.4 387.6,496.7 401.2,491.0 414.7,491.0 428.2,491.0 441.8,491.7 455.3,491.8 468.8,494.0 482.4,494.0 495.9,494.4 509.4,494.4 522.9,494.4 536.5,494.4 550.0,507.6 563.5,507.6 577.1,507.9 590.6,507.9 604.1,507.9 617.6,506.3 631.2,506.4 644.7,506.8 658.2,506.9 671.8,506.8 685.3,507.5 698.8,507.5 712.4,507.5 725.9,507.5 739.4,507.5 752.9,507.5 766.5,510.5 780.0,513.4 780.0,650.0 766.5,650.0 752.9,650.0 739.4,650.0 725.9,650.0 712.4,650.0 698.8,650.0 685.3,650.0 671.8,650.0 658.2,650.0 644.7,650.0 631.2,650.0 617.6,650.0 604.1,650.0 590.6,650.0 577.1,650.0 563.5,650.0 550.0,650.0 536.5,650.0 522.9,650.0 509.4,650.0 495.9,650.0 482.4,650.0 468.8,650.0 455.3,650.0 441.8,650.0 428.2,650.0 414.7,650.0 401.2,650.0 387.6,650.0 374.1,650.0 360.6,650.0 347.1,650.0 333.5,650.0 320.0,650.0 306.5,650.0 292.9,650.0 279.4,650.0 265.9,650.0 252.4,650.0 238.8,650.0 225.3,650.0 211.8,650.0 198.2,650.0 184.7,650.0 171.2,650.0 157.6,650.0 144.1,650.0 130.6,650.0 117.1,650.0 103.5,650.0 90.0,650.0" fill="#e34c26" opacity="0.6" class="anim" style="animation-delay:500ms;"/>
<polygon points="90.0,650.0 103.5,650.0 117.1,650.0 130.6,650.0 144.1,650.0 157.6,650.0 171.2,650.0 184.7,650.0 198.2,488.4 211.8,488.0 225.3,489.0 238.8,476.0 252.4,476.0 265.9,477.2 279.4,460.1 292.9,460.2 306.5,460.6 320.0,460.6 333.5,460.6 347.1,460.6 360.6,460.6 374.1,473.0 387.6,473.5 401.2,469.5 414.7,469.5 428.2,469.5 441.8,469.7 455.3,469.7 468.8,469.7 482.4,469.7 495.9,469.7 509.4,469.7 522.9,469.7 536.5,469.7 550.0,455.6 563.5,455.6 577.1,455.4 590.6,455.4 604.1,455.4 617.6,454.3 631.2,454.3 644.7,455.0 658.2,455.1 671.8,454.9 685.3,455.9 698.8,455.9 712.4,455.9 725.9,455.9 739.4,455.9 752.9,455.9 766.5,448.1 780.0,440.3 780.0,513.4 766.5,510.5 752.9,507.5 739.4,507.5 725.9,507.5 712.4,507.5 698.8,507.5 685.3,507.5 671.8,506.8 658.2,506.9 644.7,506.8 631.2,506.4 617.6,506.3 604.1,507.9 590.6,507.9 577.1,507.9 563.5,507.6 550.0,507.6 536.5,494.4 522.9,494.4 509.4,494.4 495.9,494.4 482.4,494.0 468.8,494.0 455.3,491.8 441.8,491.7 428.2,491.0 414.7,491.0 401.2,491.0 387.6,496.7 374.1,496.4 360.6,485.4 347.1,485.4 333.5,485.4 320.0,485.4 306.5,485.4 292.9,485.1 279.4,485.0 265.9,502.9 252.4,499.3 238.8,499.3 225.3,529.7 211.8,528.5 198.2,528.2 184.7,650.0 171.2,650.0 157.6,650.0 144.1,650.0 130.6,650.0 117.1,650.0 103.5,650.0 90.0,650.0" fill="#f1e05a" opacity="0.6" class="anim" style="animation-delay:600ms;"/>
<polygon points="90.0,650.0 103.5,650.0 117.1,650.0 130.6,650.0 144.1,650.0 157.6,650.0 171.2,650.0 184.7,650.0 198.2,455.5 211.8,455.4 225.3,455.1 238.8,447.0 252.4,447.0 265.9,448.2 279.4,438.9 292.9,439.0 306.5,439.6 320.0,439.6 333.5,439.6 347.1,439.6 360.6,439.6 374.1,445.6 387.6,445.6 401.2,443.3 414.7,443.3 428.2,443.3 441.8,443.6 455.3,443.6 468.8,444.1 482.4,444.1 495.9,444.1 509.4,444.1 522.9,444.1 536.5,444.1 550.0,437.5 563.5,437.5 577.1,437.5 590.6,437.5 604.1,437.5 617.6,437.5 631.2,437.5 644.7,438.4 658.2,438.5 671.8,438.3 685.3,439.3 698.8,439.3 712.4,439.3 725.9,439.3 739.4,439.3 752.9,439.3 766.5,436.3 780.0,433.4 780.0,440.3 766.5,448.1 752.9,455.9 739.4,455.9 725.9,455.9 712.4,455.9 698.8,455.9 685.3,455.9 671.8,454.9 658.2,455.1 644.7,455.0 631.2,454.3 617.6,454.3 604.1,455.4 590.6,455.4 577.1,455.4 563.5,455.6 550.0,455.6 536.5,469.7 522.9,469.7 509.4,469.7 495.9,469.7 482.4,469.7 468.8,469.7 455.3,469.7 441.8,469.7 428.2,469.5 414.7,469.5 401.2,469.5 387.6,473.5 374.1,473.0 360.6,460.6 347.1,460.6 333.5,460.6 320.0,460.6 306.5,460.6 292.9,460.2 279.4,460.1 265.9,477.2 252.4,476.0 238.8,476.0 225.3,489.0 211.8,488.0 198.2,488.4 184.7,650.0 171.2,650.0 157.6,650.0 144.1,650.0 130.6,650.0 117.1,650.0 103.5,650.0 90.0,650.0" fill="#3572A5" opacity="0.6" class="anim" style="animation-delay:700ms;"/>
<polygon points="90.0,650.0 103.5,650.0 117.1,650.0 130.6,650.0 144.1,650.0 157.6,650.0 171.2,650.0 184.7,650.0 198.2,442.3 211.8,442.0 225.3,441.6 238.8,439.5 252.4,439.5 265.9,439.4 279.4,432.3 292.9,432.2 306.5,432.6 320.0,432.6 333.5,432.6 347.1,432.6 360.6,432.6 374.1,439.3 387.6,439.3 401.2,437.4 414.7,437.4 428.2,437.4 441.8,437.3 455.3,437.3 468.8,437.1 482.4,437.1 495.9,437.1 509.4,437.1 522.9,437.1 536.5,437.1 550.0,428.7 563.5,428.6 577.1,428.5 590.6,428.5 604.1,428.5 617.6,427.3 631.2,427.3 644.7,427.1 658.2,427.1 671.8,427.1 685.3,427.0 698.8,427.0 712.4,427.0 725.9,427.0 739.4,427.0 752.9,427.0 766.5,422.9 780.0,418.9 780.0,433.4 766.5,436.3 752.9,439.3 739.4,439.3 725.9,439.3 712.4,439.3 698.8,439.3 685.3,439.3 671.8,438.3 658.2,438.5 644.7,438.4 631.2,437.5 617.6,437.5 604.1,437.5 590.6,437.5 577.1,437.5 563.5,437.5 550.0,437.5 536.5,444.1 522.9,444.1 509.4,444.1 495.9,444.1 482.4,444.1 468.8,444.1 455.3,443.6 441.8,443.6 428.2,443.3 414.7,443.3 401.2,443.3 387.6,445.6 374.1,445.6 360.6,439.6 347.1,439.6 333.5,439.6 320.0,439.6 306.5,439.6 292.9,439.0 279.4,438.9 265.9,448.2 252.4,447.0 238.8,447.0 225.3,455.1 211.8,455.4 198.2,455.5 184.7,650.0 171.2,650.0 157.6,650.0 144.1,650.0 130.6,650.0 117.1,650.0 103.5,650.0 90.0,650.0" fill="#663399" opacity="0.6" class="anim" style="animation-delay:800ms;"/>
<polygon points="90.0,650.0 103.5,650.0 117.1,650.0 130.6,650.0 144.1,650.0 157.6,650.0 171.2,650.0 184.7,650.0 198.2,436.6 211.8,436.3 225.3,435.9 238.8,432.2 252.4,432.2 265.9,432.2 279.4,426.2 292.9,426.1 306.5,426.0 320.0,426.0 333.5,426.0 347.1,426.0 360.6,426.0 374.1,430.8 387.6,430.7 401.2,429.3 414.7,429.3 428.2,429.3 441.8,429.2 455.3,429.2 468.8,428.9 482.4,428.9 495.9,428.8 509.4,428.8 522.9,428.8 536.5,428.8 550.0,423.0 563.5,422.9 577.1,422.9 590.6,422.9 604.1,422.9 617.6,422.0 631.2,422.0 644.7,421.9 658.2,421.9 671.8,421.9 685.3,421.8 698.8,421.8 712.4,421.8 725.9,421.8 739.4,421.8 752.9,421.8 766.5,418.4 780.0,414.9 780.0,418.9 766.5,422.9 752.9,427.0 739.4,427.0 725.9,427.0 712.4,427.0 698.8,427.0 685.3,427.0 671.8,427.1 658.2,427.1 644.7,427.1 631.2,427.3 617.6,427.3 604.1,428.5 590.6,428.5 577.1,428.5 563.5,428.6 550.0,428.7 536.5,437.1 522.9,437.1 509.4,437.1 495.9,437.1 482.4,437.1 468.8,437.1 455.3,437.3 441.8,437.3 428.2,437.4 414.7,437.4 401.2,437.4 387.6,439.3 374.1,439.3 360.6,432.6 347.1,432.6 333.5,432.6 320.0,432.6 306.5,432.6 292.9,432.2 279.4,432.3 265.9,439.4 252.4,439.5 238.8,439.5 225.3,441.6 211.8,442.0 198.2,442.3 184.7,650.0 171.2,650.0 157.6,650.0 144.1,650.0 130.6,650.0 117.1,650.0 103.5,650.0 90.0,650.0" fill="#083fa1" opacity="0.6" class="anim" style="animation-delay:900ms;"/>
<polygon points="90.0,650.0 103.5,650.0 117.1,650.0 130.6,650.0 144.1,650.0 157.6,650.0 171.2,650.0 184.7,650.0 198.2,427.0 211.8,426.8 225.3,426.6 238.8,424.2 252.4,424.2 265.9,424.2 279.4,420.4 292.9,420.3 306.5,420.3 320.0,420.3 333.5,420.3 347.1,420.3 360.6,420.3 374.1,423.3 387.6,423.2 401.2,422.4 414.7,422.4 428.2,422.4 441.8,422.3 455.3,422.3 468.8,422.1 482.4,422.1 495.9,422.1 509.4,422.1 522.9,422.1 536.5,422.1 550.0,418.3 563.5,418.3 577.1,418.2 590.6,418.2 604.1,418.2 617.6,417.7 631.2,417.7 644.7,417.6 658.2,417.6 671.8,417.6 685.3,417.6 698.8,417.6 712.4,417.6 725.9,417.6 739.4,417.6 752.9,417.6 766.5,415.6 780.0,413.7 780.0,414.9 766.5,418.4 752.9,421.8 739.4,421.8 725.9,421.8 712.4,421.8 698.8,421.8 685.3,421.8 671.8,421.9 658.2,421.9 644.7,421.9 631.2,422.0 617.6,422.0 604.1,422.9 590.6,422.9 577.1,422.9 563.5,422.9 550.0,423.0 536.5,428.8 522.9,428.8 509.4,428.8 495.9,428.8 482.4,428.9 468.8,428.9 455.3,429.2 441.8,429.2 428.2,429.3 414.7,429.3 401.2,429.3 387.6,430.7 374.1,430.8 360.6,426.0 347.1,426.0 333.5,426.0 320.0,426.0 306.5,426.0 292.9,426.1 279.4,426.2 265.9,432.2 252.4,432.2 238.8,432.2 225.3,435.9 211.8,436.3 198.2,436.6 184.7,650.0 171.2,650.0 157.6,650.0 144.1,650.0 130.6,650.0 117.1,650.0 103.5,650.0 90.0,650.0" fill="#6E4C13" opacity="0.6" class="anim" style="animation-delay:1000ms;"/>
<polygon points="90.0,650.0 103.5,650.0 117.1,650.0 130.6,650.0 144.1,650.0 157.6,650.0 171.2,650.0 184.7,650.0 198.2,418.7 211.8,418.6 225.3,418.5 238.8,417.3 252.4,417.3 265.9,417.2 279.4,415.3 292.9,415.3 306.5,415.2 320.0,415.2 333.5,415.2 347.1,415.2 360.6,415.2 374.1,416.8 387.6,416.8 401.2,416.3 414.7,416.3 428.2,416.3 441.8,416.3 455.3,416.3 468.8,416.2 482.4,416.2 495.9,416.2 509.4,416.2 522.9,416.2 536.5,416.2 550.0,414.2 563.5,414.2 577.1,414.2 590.6,414.2 604.1,414.2 617.6,413.9 631.2,413.9 644.7,413.9 658.2,413.9 671.8,413.9 685.3,413.9 698.8,413.9 712.4,413.9 725.9,413.9 739.4,413.9 752.9,413.9 766.5,413.2 780.0,412.5 780.0,413.7 766.5,415.6 752.9,417.6 739.4,417.6 725.9,417.6 712.4,417.6 698.8,417.6 685.3,417.6 671.8,417.6 658.2,417.6 644.7,417.6 631.2,417.7 617.6,417.7 604.1,418.2 590.6,418.2 577.1,418.2 563.5,418.3 550.0,418.3 536.5,422.1 522.9,422.1 509.4,422.1 495.9,422.1 482.4,422.1 468.8,422.1 455.3,422.3 441.8,422.3 428.2,422.4 414.7,422.4 401.2,422.4 387.6,423.2 374.1,423.3 360.6,420.3 347.1,420.3 333.5,420.3 320.0,420.3 306.5,420.3 292.9,420.3 279.4,420.4 265.9,424.2 252.4,424.2 238.8,424.2 225.3,426.6 211.8,426.8 198.2,427.0 184.7,650.0 171.2,650.0 157.6,650.0 144.1,650.0 130.6,650.0 117.1,650.0 103.5,650.0 90.0,650.0" fill="#F05138" opacity="0.6" class="anim" style="animation-delay:1100ms;"/>
<polygon points="90.0,650.0 103.5,650.0 117.1,650.0 130.6,650.0 144.1,650.0 157.6,650.0 171.2,650.0 184.7,650.0 198.2,414.4 211.8,414.4 225.3,414.3 238.8,413.7 252.4,413.7 265.9,413.7 279.4,412.7 292.9,412.7 306.5,412.7 320.0,412.7 333.5,412.7 347.1,412.7 360.6,412.7 374.1,413.5 387.6,413.4 401.2,413.2 414.7,413.2 428.2,413.2 441.8,413.2 455.3,413.2 468.8,413.1 482.4,413.1 495.9,413.1 509.4,413.1 522.9,413.1 536.5,413.1 550.0,412.2 563.5,412.1 577.1,412.1 590.6,412.1 604.1,412.1 617.6,412.0 631.2,412.0 644.7,412.0 658.2,412.0 671.8,412.0 685.3,412.0 698.8,412.0 712.4,412.0 725.9,412.0 739.4,412.0 752.9,412.0 766.5,412.0 780.0,412.0 780.0,412.5 766.5,413.2 752.9,413.9 739.4,413.9 725.9,413.9 712.4,413.9 698.8,413.9 685.3,413.9 671.8,413.9 658.2,413.9 644.7,413.9 631.2,413.9 617.6,413.9 604.1,414.2 590.6,414.2 577.1,414.2 563.5,414.2 550.0,414.2 536.5,416.2 522.9,416.2 509.4,416.2 495.9,416.2 482.4,416.2 468.8,416.2 455.3,416.3 441.8,416.3 428.2,416.3 414.7,416.3 401.2,416.3 387.6,416.8 374.1,416.8 360.6,415.2 347.1,415.2 333.5,415.2 320.0,415.2 306.5,415.2 292.9,415.3 279.4,415.3 265.9,417.2 252.4,417.3 238.8,417.3 225.3,418.5 211.8,418.6 198.2,418.7 184.7,650.0 171.2,650.0 157.6,650.0 144.1,650.0 130.6,650.0 117.1,650.0 103.5,650.0 90.0,650.0" fill="#b07219" opacity="0.6" class="anim" style="animation-delay:1200ms;"/>
<line x1="752.9" y1="100" x2="752.9" y2="650" stroke="#c9d1d9" stroke-width="1" stroke-dasharray="4,3" opacity="0.35"/>
<text x="766.5" y="112" text-anchor="middle" class="axis-label" opacity="0.6">Apr 10, 2026</text>
<text x="90.0" y="668" text-anchor="middle" class="axis-label" transform="rotate(-35 90.0 668)">2026-02</text>
<text x="414.7" y="668" text-anchor="middle" class="axis-label" transform="rotate(-35 414.7 668)">2026-03</text>
<text x="766.5" y="668" text-anchor="middle" class="axis-label" transform="rotate(-35 766.5 668)">Apr 10, 2026</text>
<line x1="796" y1="110" x2="824" y2="110" stroke="#3fb950" stroke-width="2"/>
<text x="832" y="116" class="legend-text">Lines Added</text>
<line x1="796" y1="140" x2="824" y2="140" stroke="#f85149" stroke-width="1.5"/>
<text x="832" y="146" class="legend-text">Lines Deleted</text>
<line x1="796" y1="170" x2="824" y2="170" stroke="#e3b341" stroke-width="1.5" stroke-dasharray="4,3"/>
<text x="832" y="176" class="legend-text">&#x2605; Stars</text>
<text x="796" y="200" class="subtitle">Languages</text>
<rect x="796" y="212" width="12" height="12" rx="2" fill="#e34c26" opacity="0.8" class="anim" style="animation-delay:800ms;"/>
<text x="814" y="223" class="legend-text">HTML (59%→57%)</text>
<rect x="796" y="234" width="12" height="12" rx="2" fill="#f1e05a" opacity="0.8" class="anim" style="animation-delay:880ms;"/>
<text x="814" y="245" class="legend-text">JavaScript (22%→30%)</text>
<rect x="796" y="256" width="12" height="12" rx="2" fill="#3572A5" opacity="0.8" class="anim" style="animation-delay:960ms;"/>
<text x="814" y="267" class="legend-text">Python (7%→3%)</text>
<rect x="796" y="278" width="12" height="12" rx="2" fill="#663399" opacity="0.8" class="anim" style="animation-delay:1040ms;"/>
<text x="814" y="289" class="legend-text">CSS (5%→6%)</text>
<rect x="796" y="300" width="12" height="12" rx="2" fill="#083fa1" opacity="0.8" class="anim" style="animation-delay:1120ms;"/>
<text x="814" y="311" class="legend-text">Markdown (2%→2%)</text>
<rect x="796" y="322" width="12" height="12" rx="2" fill="#6E4C13" opacity="0.8" class="anim" style="animation-delay:1200ms;"/>
<text x="814" y="333" class="legend-text">Assembly (2%→1%)</text>
<rect x="796" y="344" width="12" height="12" rx="2" fill="#F05138" opacity="0.8" class="anim" style="animation-delay:1280ms;"/>
<text x="814" y="355" class="legend-text">Swift (2%→0%)</text>
<rect x="796" y="366" width="12" height="12" rx="2" fill="#b07219" opacity="0.8" class="anim" style="animation-delay:1360ms;"/>
<text x="814" y="377" class="legend-text">Java (1%→0%)</text>
<text x="796" y="412" class="subtitle">Contributions</text>
<text x="796" y="432" class="axis-label">2023: 39</text>
<text x="796" y="452" class="axis-label">2024: 646</text>
<text x="796" y="472" class="axis-label">2025: 1,780</text>
<text x="796" y="492" class="axis-label">2026: 397</text>
<text x="796" y="522" class="subtitle">Statistics</text>
<text x="796" y="542" class="axis-label">Active weeks: 79</text>
<text x="796" y="562" class="axis-label">Add/Del ratio: 1.6x</text>
<text x="796" y="582" class="axis-label">Avg lines/wk: 19K</text>
<text x="796" y="602" class="axis-label">Peak: 2026-02-15</text>
<text x="796" y="622" class="axis-label">  (543K lines)</text>
<text x="90" y="742" class="axis-label">Total: +922,355 / -572,795 lines &#xb7; 2,862 contributions &#xb7; 76 repos &#xb7; &#x2605; 35</text>
</svg>