<svg xmlns="http://www.w3.org/2000/svg" width="1000" height="760" style="max-width: 100%;" viewBox="0 0 1000 760">

<defs>
  <linearGradient id="areaGrad" x1="0" y1="0" x2="0" y2="1">
    <stop offset="0%" stop-color="#58a6ff" stop-opacity="0.35"/>
    <stop offset="100%" stop-color="#58a6ff" stop-opacity="0.02"/>
  </linearGradient>
  <linearGradient id="addGrad" x1="0" y1="0" x2="0" y2="1">
    <stop offset="0%" stop-color="#3fb950" stop-opacity="0.35"/>
    <stop offset="100%" stop-color="#3fb950" stop-opacity="0.02"/>
  </linearGradient>
  <linearGradient id="delGrad" x1="0" y1="0" x2="0" y2="1">
    <stop offset="0%" stop-color="#f85149" stop-opacity="0.25"/>
    <stop offset="100%" stop-color="#f85149" stop-opacity="0.02"/>
  </linearGradient>
</defs>
<style>
  .title { font: bold 28px 'Segoe UI', Ubuntu, Sans-Serif; fill: #c9d1d9; }
  .subtitle { font: 600 20px 'Segoe UI', Ubuntu, Sans-Serif; fill: #c9d1d9; opacity: 0.8; }
  .axis-label { font: 18px 'Segoe UI', Ubuntu, Sans-Serif; fill: #c9d1d9; opacity: 0.7; }
  .legend-text { font: 14px 'Segoe UI', Ubuntu, Sans-Serif; fill: #c9d1d9; }
  .value-text { font: bold 18px 'Segoe UI', Ubuntu, Sans-Serif; fill: #c9d1d9; }
  .stat-value { font: bold 22px 'Segoe UI', Ubuntu, Sans-Serif; fill: #c9d1d9; }
  .stat-label { font: 18px 'Segoe UI', Ubuntu, Sans-Serif; fill: #c9d1d9; opacity: 0.7; }
  @keyframes fadeIn { from { opacity: 0; } to { opacity: 1; } }
  .anim { animation: fadeIn 0.6s ease-in-out forwards; opacity: 0; }
</style>

<rect x="0.5" y="0.5" rx="4.5" width="999" height="759" fill="#161b22" stroke="#21262d"/>
<text x="90" y="45" class="title">Activity History</text>
<text x="90" y="72" class="subtitle">Lines added vs deleted &amp; activity trends over time</text>
<line x1="90" y1="340.0" x2="780" y2="340.0" stroke="#21262d" stroke-width="1"/>
<text x="82" y="344.0" text-anchor="end" class="axis-label">0</text>
<line x1="90" y1="280.0" x2="780" y2="280.0" stroke="#21262d" stroke-width="1"/>
<text x="82" y="284.0" text-anchor="end" class="axis-label">491K</text>
<line x1="90" y1="220.0" x2="780" y2="220.0" stroke="#21262d" stroke-width="1"/>
<text x="82" y="224.0" text-anchor="end" class="axis-label">982K</text>
<line x1="90" y1="160.0" x2="780" y2="160.0" stroke="#21262d" stroke-width="1"/>
<text x="82" y="164.0" text-anchor="end" class="axis-label">1.5M</text>
<line x1="90" y1="100.0" x2="780" y2="100.0" stroke="#21262d" stroke-width="1"/>
<text x="82" y="104.0" text-anchor="end" class="axis-label">2.0M</text>
<polygon points="90.0,340.0 90.0,295.4 101.9,297.0 113.8,295.4 125.7,297.0 137.6,307.3 149.5,286.9 161.4,286.9 173.3,279.2 185.2,278.9 197.1,278.4 209.0,278.3 220.9,264.6 232.8,264.6 244.7,264.6 256.6,244.2 268.4,244.0 280.3,243.7 292.2,243.7 304.1,243.7 316.0,243.7 327.9,243.7 339.8,243.2 351.7,229.6 363.6,229.6 375.5,229.6 387.4,229.6 399.3,229.2 411.2,229.2 423.1,228.7 435.0,228.7 446.9,228.6 458.8,228.6 470.7,228.6 482.6,228.6 494.5,228.6 506.4,228.6 518.3,228.6 530.2,228.6 542.1,228.6 554.0,228.6 565.9,228.6 577.8,228.0 589.7,228.2 601.6,227.6 613.4,227.3 625.3,227.3 637.2,227.3 649.1,227.3 661.0,227.3 672.9,227.3 684.8,227.3 696.7,227.3 708.6,227.3 720.5,227.3 732.4,227.6 744.3,228.9 756.2,227.6 768.1,212.8 780.0,198.0 780.0,340.0" fill="url(#addGrad)" class="anim" style="animation-delay:200ms;"/>
<polyline points="90.0,295.4 101.9,297.0 113.8,295.4 125.7,297.0 137.6,307.3 149.5,286.9 161.4,286.9 173.3,279.2 185.2,278.9 197.1,278.4 209.0,278.3 220.9,264.6 232.8,264.6 244.7,264.6 256.6,244.2 268.4,244.0 280.3,243.7 292.2,243.7 304.1,243.7 316.0,243.7 327.9,243.7 339.8,243.2 351.7,229.6 363.6,229.6 375.5,229.6 387.4,229.6 399.3,229.2 411.2,229.2 423.1,228.7 435.0,228.7 446.9,228.6 458.8,228.6 470.7,228.6 482.6,228.6 494.5,228.6 506.4,228.6 518.3,228.6 530.2,228.6 542.1,228.6 554.0,228.6 565.9,228.6 577.8,228.0 589.7,228.2 601.6,227.6 613.4,227.3 625.3,227.3 637.2,227.3 649.1,227.3 661.0,227.3 672.9,227.3 684.8,227.3 696.7,227.3 708.6,227.3 720.5,227.3 732.4,227.6 744.3,228.9 756.2,227.6" fill="none" stroke="#3fb950" stroke-width="2" stroke-linejoin="round" class="anim" style="animation-delay:250ms;"/>
<polyline points="756.2,227.6 768.1,212.8 780.0,198.0" fill="none" stroke="#3fb950" stroke-width="1.5" stroke-dasharray="5,4" stroke-linejoin="round" opacity="0.6" class="anim" style="animation-delay:250ms;"/>
<polygon points="90.0,340.0 90.0,327.5 101.9,328.8 113.8,327.5 125.7,328.7 137.6,334.1 149.5,325.9 161.4,325.9 173.3,325.0 185.2,324.7 197.1,324.5 209.0,324.5 220.9,309.7 232.8,309.7 244.7,309.6 256.6,292.9 268.4,292.8 280.3,292.8 292.2,292.8 304.1,292.8 316.0,292.8 327.9,292.8 339.8,284.0 351.7,270.7 363.6,270.6 375.5,270.6 387.4,270.6 399.3,270.5 411.2,270.5 423.1,270.5 435.0,270.4 446.9,270.4 458.8,270.4 470.7,270.4 482.6,270.4 494.5,270.5 506.4,270.4 518.3,270.4 530.2,270.4 542.1,270.4 554.0,270.4 565.9,270.4 577.8,270.4 589.7,270.5 601.6,270.0 613.4,270.0 625.3,270.0 637.2,270.0 649.1,270.0 661.0,270.0 672.9,270.0 684.8,270.0 696.7,270.0 708.6,270.0 720.5,270.1 732.4,270.1 744.3,270.9 756.2,270.4 768.1,256.2 780.0,242.0 780.0,340.0" fill="url(#delGrad)" class="anim" style="animation-delay:300ms;"/>
<polyline points="90.0,327.5 101.9,328.8 113.8,327.5 125.7,328.7 137.6,334.1 149.5,325.9 161.4,325.9 173.3,325.0 185.2,324.7 197.1,324.5 209.0,324.5 220.9,309.7 232.8,309.7 244.7,309.6 256.6,292.9 268.4,292.8 280.3,292.8 292.2,292.8 304.1,292.8 316.0,292.8 327.9,292.8 339.8,284.0 351.7,270.7 363.6,270.6 375.5,270.6 387.4,270.6 399.3,270.5 411.2,270.5 423.1,270.5 435.0,270.4 446.9,270.4 458.8,270.4 470.7,270.4 482.6,270.4 494.5,270.5 506.4,270.4 518.3,270.4 530.2,270.4 542.1,270.4 554.0,270.4 565.9,270.4 577.8,270.4 589.7,270.5 601.6,270.0 613.4,270.0 625.3,270.0 637.2,270.0 649.1,270.0 661.0,270.0 672.9,270.0 684.8,270.0 696.7,270.0 708.6,270.0 720.5,270.1 732.4,270.1 744.3,270.9 756.2,270.4" fill="none" stroke="#f85149" stroke-width="1.5" stroke-linejoin="round" class="anim" style="animation-delay:350ms;"/>
<polyline points="756.2,270.4 768.1,256.2 780.0,242.0" fill="none" stroke="#f85149" stroke-width="1" stroke-dasharray="5,4" stroke-linejoin="round" opacity="0.6" class="anim" style="animation-delay:350ms;"/>
<polyline points="90.0,340.0 101.9,340.0 113.8,340.0 125.7,340.0 137.6,340.0 149.5,340.0 161.4,340.0 173.3,340.0 185.2,292.0 197.1,292.0 209.0,292.0 220.9,292.0 232.8,292.0 244.7,292.0 256.6,292.0 268.4,292.0 280.3,292.0 292.2,292.0 304.1,292.0 316.0,292.0 327.9,292.0 339.8,292.0 351.7,292.0 363.6,292.0 375.5,292.0 387.4,292.0 399.3,292.0 411.2,292.0 423.1,292.0 435.0,292.0 446.9,292.0 458.8,292.0 470.7,292.0 482.6,292.0 494.5,244.0 506.4,244.0 518.3,244.0 530.2,244.0 542.1,244.0 554.0,244.0 565.9,244.0 577.8,244.0 589.7,196.0 601.6,196.0 613.4,196.0 625.3,196.0 637.2,196.0 649.1,196.0 661.0,196.0 672.9,196.0 684.8,196.0 696.7,196.0 708.6,196.0 720.5,196.0 732.4,196.0 744.3,196.0 756.2,196.0" fill="none" stroke="#e3b341" stroke-width="1.5" stroke-dasharray="4,3" stroke-linejoin="round" class="anim" style="animation-delay:400ms;"/>
<polyline points="756.2,196.0 768.1,196.0 780.0,148.0" fill="none" stroke="#e3b341" stroke-width="1" stroke-dasharray="3,5" stroke-linejoin="round" opacity="0.5" class="anim" style="animation-delay:400ms;"/>
<text x="90" y="90" class="subtitle">Lines Added vs Deleted (per snapshot)</text>
<text x="90" y="400" class="subtitle">Programming Language Development (%)</text>
<line x1="90" y1="650.0" x2="780" y2="650.0" stroke="#21262d" stroke-width="1"/>
<text x="82" y="654.0" text-anchor="end" class="axis-label">0%</text>
<line x1="90" y1="590.0" x2="780" y2="590.0" stroke="#21262d" stroke-width="1"/>
<text x="82" y="594.0" text-anchor="end" class="axis-label">25%</text>
<line x1="90" y1="530.0" x2="780" y2="530.0" stroke="#21262d" stroke-width="1"/>
<text x="82" y="534.0" text-anchor="end" class="axis-label">50%</text>
<line x1="90" y1="470.0" x2="780" y2="470.0" stroke="#21262d" stroke-width="1"/>
<text x="82" y="474.0" text-anchor="end" class="axis-label">75%</text>
<line x1="90" y1="410.0" x2="780" y2="410.0" stroke="#21262d" stroke-width="1"/>
<text x="82" y="414.0" text-anchor="end" class="axis-label">100%</text>
<polygon points="90.0,650.0 101.9,650.0 113.8,650.0 125.7,650.0 137.6,650.0 149.5,650.0 161.4,650.0 173.3,650.0 185.2,528.2 197.1,528.5 209.0,529.7 220.9,499.3 232.8,499.3 244.7,502.9 256.6,485.0 268.4,485.1 280.3,485.4 292.2,485.4 304.1,485.4 316.0,485.4 327.9,485.4 339.8,496.4 351.7,496.7 363.6,491.0 375.5,491.0 387.4,491.0 399.3,491.7 411.2,491.8 423.1,494.0 435.0,494.0 446.9,494.4 458.8,494.4 470.7,494.4 482.6,494.4 494.5,507.6 506.4,507.6 518.3,507.9 530.2,507.9 542.1,507.9 554.0,506.3 565.9,506.4 577.8,506.8 589.7,506.9 601.6,506.8 613.4,507.5 625.3,507.5 637.2,507.5 649.1,507.5 661.0,507.5 672.9,507.5 684.8,507.5 696.7,507.5 708.6,507.5 720.5,507.5 732.4,507.5 744.3,507.5 756.2,507.5 768.1,510.5 780.0,513.5 780.0,650.0 768.1,650.0 756.2,650.0 744.3,650.0 732.4,650.0 720.5,650.0 708.6,650.0 696.7,650.0 684.8,650.0 672.9,650.0 661.0,650.0 649.1,650.0 637.2,650.0 625.3,650.0 613.4,650.0 601.6,650.0 589.7,650.0 577.8,650.0 565.9,650.0 554.0,650.0 542.1,650.0 530.2,650.0 518.3,650.0 506.4,650.0 494.5,650.0 482.6,650.0 470.7,650.0 458.8,650.0 446.9,650.0 435.0,650.0 423.1,650.0 411.2,650.0 399.3,650.0 387.4,650.0 375.5,650.0 363.6,650.0 351.7,650.0 339.8,650.0 327.9,650.0 316.0,650.0 304.1,650.0 292.2,650.0 280.3,650.0 268.4,650.0 256.6,650.0 244.7,650.0 232.8,650.0 220.9,650.0 209.0,650.0 197.1,650.0 185.2,650.0 173.3,650.0 161.4,650.0 149.5,650.0 137.6,650.0 125.7,650.0 113.8,650.0 101.9,650.0 90.0,650.0" fill="#e34c26" opacity="0.6" class="anim" style="animation-delay:500ms;"/>
<polygon points="90.0,650.0 101.9,650.0 113.8,650.0 125.7,650.0 137.6,650.0 149.5,650.0 161.4,650.0 173.3,650.0 185.2,488.4 197.1,488.0 209.0,489.0 220.9,476.0 232.8,476.0 244.7,477.2 256.6,460.1 268.4,460.2 280.3,460.6 292.2,460.6 304.1,460.6 316.0,460.6 327.9,460.6 339.8,473.0 351.7,473.5 363.6,469.5 375.5,469.5 387.4,469.5 399.3,469.7 411.2,469.7 423.1,469.7 435.0,469.7 446.9,469.7 458.8,469.7 470.7,469.7 482.6,469.7 494.5,455.6 506.4,455.6 518.3,455.4 530.2,455.4 542.1,455.4 554.0,454.3 565.9,454.3 577.8,455.0 589.7,455.1 601.6,454.9 613.4,455.9 625.3,455.9 637.2,455.9 649.1,455.9 661.0,455.9 672.9,455.9 684.8,455.9 696.7,455.9 708.6,455.9 720.5,455.9 732.4,455.9 744.3,455.9 756.2,455.9 768.1,450.1 780.0,444.5 780.0,513.5 768.1,510.5 756.2,507.5 744.3,507.5 732.4,507.5 720.5,507.5 708.6,507.5 696.7,507.5 684.8,507.5 672.9,507.5 661.0,507.5 649.1,507.5 637.2,507.5 625.3,507.5 613.4,507.5 601.6,506.8 589.7,506.9 577.8,506.8 565.9,506.4 554.0,506.3 542.1,507.9 530.2,507.9 518.3,507.9 506.4,507.6 494.5,507.6 482.6,494.4 470.7,494.4 458.8,494.4 446.9,494.4 435.0,494.0 423.1,494.0 411.2,491.8 399.3,491.7 387.4,491.0 375.5,491.0 363.6,491.0 351.7,496.7 339.8,496.4 327.9,485.4 316.0,485.4 304.1,485.4 292.2,485.4 280.3,485.4 268.4,485.1 256.6,485.0 244.7,502.9 232.8,499.3 220.9,499.3 209.0,529.7 197.1,528.5 185.2,528.2 173.3,650.0 161.4,650.0 149.5,650.0 137.6,650.0 125.7,650.0 113.8,650.0 101.9,650.0 90.0,650.0" fill="#f1e05a" opacity="0.6" class="anim" style="animation-delay:600ms;"/>
<polygon points="90.0,650.0 101.9,650.0 113.8,650.0 125.7,650.0 137.6,650.0 149.5,650.0 161.4,650.0 173.3,650.0 185.2,455.5 197.1,455.4 209.0,455.1 220.9,447.0 232.8,447.0 244.7,448.2 256.6,438.9 268.4,439.0 280.3,439.6 292.2,439.6 304.1,439.6 316.0,439.6 327.9,439.6 339.8,445.6 351.7,445.6 363.6,443.3 375.5,443.3 387.4,443.3 399.3,443.6 411.2,443.6 423.1,444.1 435.0,444.1 446.9,444.1 458.8,444.1 470.7,444.1 482.6,444.1 494.5,437.5 506.4,437.5 518.3,437.5 530.2,437.5 542.1,437.5 554.0,437.5 565.9,437.5 577.8,438.4 589.7,438.5 601.6,438.3 613.4,439.3 625.3,439.3 637.2,439.3 649.1,439.3 661.0,439.3 672.9,439.3 684.8,439.3 696.7,439.3 708.6,439.3 720.5,439.3 732.4,439.3 744.3,439.3 756.2,439.3 768.1,437.3 780.0,435.3 780.0,444.5 768.1,450.1 756.2,455.9 744.3,455.9 732.4,455.9 720.5,455.9 708.6,455.9 696.7,455.9 684.8,455.9 672.9,455.9 661.0,455.9 649.1,455.9 637.2,455.9 625.3,455.9 613.4,455.9 601.6,454.9 589.7,455.1 577.8,455.0 565.9,454.3 554.0,454.3 542.1,455.4 530.2,455.4 518.3,455.4 506.4,455.6 494.5,455.6 482.6,469.7 470.7,469.7 458.8,469.7 446.9,469.7 435.0,469.7 423.1,469.7 411.2,469.7 399.3,469.7 387.4,469.5 375.5,469.5 363.6,469.5 351.7,473.5 339.8,473.0 327.9,460.6 316.0,460.6 304.1,460.6 292.2,460.6 280.3,460.6 268.4,460.2 256.6,460.1 244.7,477.2 232.8,476.0 220.9,476.0 209.0,489.0 197.1,488.0 185.2,488.4 173.3,650.0 161.4,650.0 149.5,650.0 137.6,650.0 125.7,650.0 113.8,650.0 101.9,650.0 90.0,650.0" fill="#3572A5" opacity="0.6" class="anim" style="animation-delay:700ms;"/>
<polygon points="90.0,650.0 101.9,650.0 113.8,650.0 125.7,650.0 137.6,650.0 149.5,650.0 161.4,650.0 173.3,650.0 185.2,442.3 197.1,442.0 209.0,441.6 220.9,439.5 232.8,439.5 244.7,439.4 256.6,432.3 268.4,432.2 280.3,432.6 292.2,432.6 304.1,432.6 316.0,432.6 327.9,432.6 339.8,439.3 351.7,439.3 363.6,437.4 375.5,437.4 387.4,437.4 399.3,437.3 411.2,437.3 423.1,437.1 435.0,437.1 446.9,437.1 458.8,437.1 470.7,437.1 482.6,437.1 494.5,428.7 506.4,428.6 518.3,428.5 530.2,428.5 542.1,428.5 554.0,427.3 565.9,427.3 577.8,427.1 589.7,427.1 601.6,427.1 613.4,427.0 625.3,427.0 637.2,427.0 649.1,427.0 661.0,427.0 672.9,427.0 684.8,427.0 696.7,427.0 708.6,427.0 720.5,427.0 732.4,427.0 744.3,427.0 756.2,427.0 768.1,423.8 780.0,420.6 780.0,435.3 768.1,437.3 756.2,439.3 744.3,439.3 732.4,439.3 720.5,439.3 708.6,439.3 696.7,439.3 684.8,439.3 672.9,439.3 661.0,439.3 649.1,439.3 637.2,439.3 625.3,439.3 613.4,439.3 601.6,438.3 589.7,438.5 577.8,438.4 565.9,437.5 554.0,437.5 542.1,437.5 530.2,437.5 518.3,437.5 506.4,437.5 494.5,437.5 482.6,444.1 470.7,444.1 458.8,444.1 446.9,444.1 435.0,444.1 423.1,444.1 411.2,443.6 399.3,443.6 387.4,443.3 375.5,443.3 363.6,443.3 351.7,445.6 339.8,445.6 327.9,439.6 316.0,439.6 304.1,439.6 292.2,439.6 280.3,439.6 268.4,439.0 256.6,438.9 244.7,448.2 232.8,447.0 220.9,447.0 209.0,455.1 197.1,455.4 185.2,455.5 173.3,650.0 161.4,650.0 149.5,650.0 137.6,650.0 125.7,650.0 113.8,650.0 101.9,650.0 90.0,650.0" fill="#663399" opacity="0.6" class="anim" style="animation-delay:800ms;"/>
<polygon points="90.0,650.0 101.9,650.0 113.8,650.0 125.7,650.0 137.6,650.0 149.5,650.0 161.4,650.0 173.3,650.0 185.2,436.6 197.1,436.3 209.0,435.9 220.9,432.2 232.8,432.2 244.7,432.2 256.6,426.2 268.4,426.1 280.3,426.0 292.2,426.0 304.1,426.0 316.0,426.0 327.9,426.0 339.8,430.8 351.7,430.7 363.6,429.3 375.5,429.3 387.4,429.3 399.3,429.2 411.2,429.2 423.1,428.9 435.0,428.9 446.9,428.8 458.8,428.8 470.7,428.8 482.6,428.8 494.5,423.0 506.4,422.9 518.3,422.9 530.2,422.9 542.1,422.9 554.0,422.0 565.9,422.0 577.8,421.9 589.7,421.9 601.6,421.9 613.4,421.8 625.3,421.8 637.2,421.8 649.1,421.8 661.0,421.8 672.9,421.8 684.8,421.8 696.7,421.8 708.6,421.8 720.5,421.8 732.4,421.8 744.3,421.8 756.2,421.8 768.1,419.2 780.0,416.6 780.0,420.6 768.1,423.8 756.2,427.0 744.3,427.0 732.4,427.0 720.5,427.0 708.6,427.0 696.7,427.0 684.8,427.0 672.9,427.0 661.0,427.0 649.1,427.0 637.2,427.0 625.3,427.0 613.4,427.0 601.6,427.1 589.7,427.1 577.8,427.1 565.9,427.3 554.0,427.3 542.1,428.5 530.2,428.5 518.3,428.5 506.4,428.6 494.5,428.7 482.6,437.1 470.7,437.1 458.8,437.1 446.9,437.1 435.0,437.1 423.1,437.1 411.2,437.3 399.3,437.3 387.4,437.4 375.5,437.4 363.6,437.4 351.7,439.3 339.8,439.3 327.9,432.6 316.0,432.6 304.1,432.6 292.2,432.6 280.3,432.6 268.4,432.2 256.6,432.3 244.7,439.4 232.8,439.5 220.9,439.5 209.0,441.6 197.1,442.0 185.2,442.3 173.3,650.0 161.4,650.0 149.5,650.0 137.6,650.0 125.7,650.0 113.8,650.0 101.9,650.0 90.0,650.0" fill="#083fa1" opacity="0.6" class="anim" style="animation-delay:900ms;"/>
<polygon points="90.0,650.0 101.9,650.0 113.8,650.0 125.7,650.0 137.6,650.0 149.5,650.0 161.4,650.0 173.3,650.0 185.2,427.0 197.1,426.8 209.0,426.6 220.9,424.2 232.8,424.2 244.7,424.2 256.6,420.4 268.4,420.3 280.3,420.3 292.2,420.3 304.1,420.3 316.0,420.3 327.9,420.3 339.8,423.3 351.7,423.2 363.6,422.4 375.5,422.4 387.4,422.4 399.3,422.3 411.2,422.3 423.1,422.1 435.0,422.1 446.9,422.1 458.8,422.1 470.7,422.1 482.6,422.1 494.5,418.3 506.4,418.3 518.3,418.2 530.2,418.2 542.1,418.2 554.0,417.7 565.9,417.7 577.8,417.6 589.7,417.6 601.6,417.6 613.4,417.6 625.3,417.6 637.2,417.6 649.1,417.6 661.0,417.6 672.9,417.6 684.8,417.6 696.7,417.6 708.6,417.6 720.5,417.6 732.4,417.6 744.3,417.6 756.2,417.6 768.1,416.1 780.0,414.6 780.0,416.6 768.1,419.2 756.2,421.8 744.3,421.8 732.4,421.8 720.5,421.8 708.6,421.8 696.7,421.8 684.8,421.8 672.9,421.8 661.0,421.8 649.1,421.8 637.2,421.8 625.3,421.8 613.4,421.8 601.6,421.9 589.7,421.9 577.8,421.9 565.9,422.0 554.0,422.0 542.1,422.9 530.2,422.9 518.3,422.9 506.4,422.9 494.5,423.0 482.6,428.8 470.7,428.8 458.8,428.8 446.9,428.8 435.0,428.9 423.1,428.9 411.2,429.2 399.3,429.2 387.4,429.3 375.5,429.3 363.6,429.3 351.7,430.7 339.8,430.8 327.9,426.0 316.0,426.0 304.1,426.0 292.2,426.0 280.3,426.0 268.4,426.1 256.6,426.2 244.7,432.2 232.8,432.2 220.9,432.2 209.0,435.9 197.1,436.3 185.2,436.6 173.3,650.0 161.4,650.0 149.5,650.0 137.6,650.0 125.7,650.0 113.8,650.0 101.9,650.0 90.0,650.0" fill="#6E4C13" opacity="0.6" class="anim" style="animation-delay:1000ms;"/>
<polygon points="90.0,650.0 101.9,650.0 113.8,650.0 125.7,650.0 137.6,650.0 149.5,650.0 161.4,650.0 173.3,650.0 185.2,418.7 197.1,418.6 209.0,418.5 220.9,417.3 232.8,417.3 244.7,417.2 256.6,415.3 268.4,415.3 280.3,415.2 292.2,415.2 304.1,415.2 316.0,415.2 327.9,415.2 339.8,416.8 351.7,416.8 363.6,416.3 375.5,416.3 387.4,416.3 399.3,416.3 411.2,416.3 423.1,416.2 435.0,416.2 446.9,416.2 458.8,416.2 470.7,416.2 482.6,416.2 494.5,414.2 506.4,414.2 518.3,414.2 530.2,414.2 542.1,414.2 554.0,413.9 565.9,413.9 577.8,413.9 589.7,413.9 601.6,413.9 613.4,413.9 625.3,413.9 637.2,413.9 649.1,413.9 661.0,413.9 672.9,413.9 684.8,413.9 696.7,413.9 708.6,413.9 720.5,413.9 732.4,413.9 744.3,413.9 756.2,413.9 768.1,413.4 780.0,412.9 780.0,414.6 768.1,416.1 756.2,417.6 744.3,417.6 732.4,417.6 720.5,417.6 708.6,417.6 696.7,417.6 684.8,417.6 672.9,417.6 661.0,417.6 649.1,417.6 637.2,417.6 625.3,417.6 613.4,417.6 601.6,417.6 589.7,417.6 577.8,417.6 565.9,417.7 554.0,417.7 542.1,418.2 530.2,418.2 518.3,418.2 506.4,418.3 494.5,418.3 482.6,422.1 470.7,422.1 458.8,422.1 446.9,422.1 435.0,422.1 423.1,422.1 411.2,422.3 399.3,422.3 387.4,422.4 375.5,422.4 363.6,422.4 351.7,423.2 339.8,423.3 327.9,420.3 316.0,420.3 304.1,420.3 292.2,420.3 280.3,420.3 268.4,420.3 256.6,420.4 244.7,424.2 232.8,424.2 220.9,424.2 209.0,426.6 197.1,426.8 185.2,427.0 173.3,650.0 161.4,650.0 149.5,650.0 137.6,650.0 125.7,650.0 113.8,650.0 101.9,650.0 90.0,650.0" fill="#F05138" opacity="0.6" class="anim" style="animation-delay:1100ms;"/>
<polygon points="90.0,650.0 101.9,650.0 113.8,650.0 125.7,650.0 137.6,650.0 149.5,650.0 161.4,650.0 173.3,650.0 185.2,414.4 197.1,414.4 209.0,414.3 220.9,413.7 232.8,413.7 244.7,413.7 256.6,412.7 268.4,412.7 280.3,412.7 292.2,412.7 304.1,412.7 316.0,412.7 327.9,412.7 339.8,413.5 351.7,413.4 363.6,413.2 375.5,413.2 387.4,413.2 399.3,413.2 411.2,413.2 423.1,413.1 435.0,413.1 446.9,413.1 458.8,413.1 470.7,413.1 482.6,413.1 494.5,412.2 506.4,412.1 518.3,412.1 530.2,412.1 542.1,412.1 554.0,412.0 565.9,412.0 577.8,412.0 589.7,412.0 601.6,412.0 613.4,412.0 625.3,412.0 637.2,412.0 649.1,412.0 661.0,412.0 672.9,412.0 684.8,412.0 696.7,412.0 708.6,412.0 720.5,412.0 732.4,412.0 744.3,412.0 756.2,412.0 768.1,412.0 780.0,412.0 780.0,412.9 768.1,413.4 756.2,413.9 744.3,413.9 732.4,413.9 720.5,413.9 708.6,413.9 696.7,413.9 684.8,413.9 672.9,413.9 661.0,413.9 649.1,413.9 637.2,413.9 625.3,413.9 613.4,413.9 601.6,413.9 589.7,413.9 577.8,413.9 565.9,413.9 554.0,413.9 542.1,414.2 530.2,414.2 518.3,414.2 506.4,414.2 494.5,414.2 482.6,416.2 470.7,416.2 458.8,416.2 446.9,416.2 435.0,416.2 423.1,416.2 411.2,416.3 399.3,416.3 387.4,416.3 375.5,416.3 363.6,416.3 351.7,416.8 339.8,416.8 327.9,415.2 316.0,415.2 304.1,415.2 292.2,415.2 280.3,415.2 268.4,415.3 256.6,415.3 244.7,417.2 232.8,417.3 220.9,417.3 209.0,418.5 197.1,418.6 185.2,418.7 173.3,650.0 161.4,650.0 149.5,650.0 137.6,650.0 125.7,650.0 113.8,650.0 101.9,650.0 90.0,650.0" fill="#b07219" opacity="0.6" class="anim" style="animation-delay:1200ms;"/>
<line x1="756.2" y1="100" x2="756.2" y2="650" stroke="#c9d1d9" stroke-width="1" stroke-dasharray="4,3" opacity="0.35"/>
<text x="768.1" y="112" text-anchor="middle" class="axis-label" opacity="0.6">Apr 26, 2026</text>
<text x="90.0" y="668" text-anchor="middle" class="axis-label" transform="rotate(-35 90.0 668)">2026-02</text>
<text x="375.5" y="668" text-anchor="middle" class="axis-label" transform="rotate(-35 375.5 668)">2026-03</text>
<text x="732.4" y="668" text-anchor="middle" class="axis-label" transform="rotate(-35 732.4 668)">2026-04</text>
<line x1="796" y1="110" x2="824" y2="110" stroke="#3fb950" stroke-width="2"/>
<text x="832" y="116" class="legend-text">Lines Added</text>
<line x1="796" y1="140" x2="824" y2="140" stroke="#f85149" stroke-width="1.5"/>
<text x="832" y="146" class="legend-text">Lines Deleted</text>
<line x1="796" y1="170" x2="824" y2="170" stroke="#e3b341" stroke-width="1.5" stroke-dasharray="4,3"/>
<text x="832" y="176" class="legend-text">&#x2605; Stars</text>
<text x="796" y="200" class="subtitle">Languages</text>
<rect x="796" y="212" width="12" height="12" rx="2" fill="#e34c26" opacity="0.8" class="anim" style="animation-delay:800ms;"/>
<text x="814" y="223" class="legend-text">HTML (59%→57%)</text>
<rect x="796" y="234" width="12" height="12" rx="2" fill="#f1e05a" opacity="0.8" class="anim" style="animation-delay:880ms;"/>
<text x="814" y="245" class="legend-text">JavaScript (22%→29%)</text>
<rect x="796" y="256" width="12" height="12" rx="2" fill="#3572A5" opacity="0.8" class="anim" style="animation-delay:960ms;"/>
<text x="814" y="267" class="legend-text">Python (7%→4%)</text>
<rect x="796" y="278" width="12" height="12" rx="2" fill="#663399" opacity="0.8" class="anim" style="animation-delay:1040ms;"/>
<text x="814" y="289" class="legend-text">CSS (5%→6%)</text>
<rect x="796" y="300" width="12" height="12" rx="2" fill="#083fa1" opacity="0.8" class="anim" style="animation-delay:1120ms;"/>
<text x="814" y="311" class="legend-text">Markdown (2%→2%)</text>
<rect x="796" y="322" width="12" height="12" rx="2" fill="#6E4C13" opacity="0.8" class="anim" style="animation-delay:1200ms;"/>
<text x="814" y="333" class="legend-text">Assembly (2%→1%)</text>
<rect x="796" y="344" width="12" height="12" rx="2" fill="#F05138" opacity="0.8" class="anim" style="animation-delay:1280ms;"/>
<text x="814" y="355" class="legend-text">Swift (2%→1%)</text>
<rect x="796" y="366" width="12" height="12" rx="2" fill="#b07219" opacity="0.8" class="anim" style="animation-delay:1360ms;"/>
<text x="814" y="377" class="legend-text">Java (1%→0%)</text>
<text x="796" y="412" class="subtitle">Contributions</text>
<text x="796" y="432" class="axis-label">2023: 39</text>
<text x="796" y="452" class="axis-label">2024: 646</text>
<text x="796" y="472" class="axis-label">2025: 1,780</text>
<text x="796" y="492" class="axis-label">2026: 431</text>
<text x="90" y="742" class="axis-label">Total: +0 / -0 lines &#xb7; 2,896 contributions &#xb7; 78 repos &#xb7; &#x2605; 35</text>
</svg>