<svg xmlns="http://www.w3.org/2000/svg" width="1000" height="760" style="max-width: 100%;" viewBox="0 0 1000 760">

<defs>
  <linearGradient id="areaGrad" x1="0" y1="0" x2="0" y2="1">
    <stop offset="0%" stop-color="#58a6ff" stop-opacity="0.35"/>
    <stop offset="100%" stop-color="#58a6ff" stop-opacity="0.02"/>
  </linearGradient>
  <linearGradient id="addGrad" x1="0" y1="0" x2="0" y2="1">
    <stop offset="0%" stop-color="#3fb950" stop-opacity="0.35"/>
    <stop offset="100%" stop-color="#3fb950" stop-opacity="0.02"/>
  </linearGradient>
  <linearGradient id="delGrad" x1="0" y1="0" x2="0" y2="1">
    <stop offset="0%" stop-color="#f85149" stop-opacity="0.25"/>
    <stop offset="100%" stop-color="#f85149" stop-opacity="0.02"/>
  </linearGradient>
</defs>
<style>
  .title { font: bold 28px 'Segoe UI', Ubuntu, Sans-Serif; fill: #c9d1d9; }
  .subtitle { font: 600 20px 'Segoe UI', Ubuntu, Sans-Serif; fill: #c9d1d9; opacity: 0.8; }
  .axis-label { font: 18px 'Segoe UI', Ubuntu, Sans-Serif; fill: #c9d1d9; opacity: 0.7; }
  .legend-text { font: 14px 'Segoe UI', Ubuntu, Sans-Serif; fill: #c9d1d9; }
  .value-text { font: bold 18px 'Segoe UI', Ubuntu, Sans-Serif; fill: #c9d1d9; }
  .stat-value { font: bold 22px 'Segoe UI', Ubuntu, Sans-Serif; fill: #c9d1d9; }
  .stat-label { font: 18px 'Segoe UI', Ubuntu, Sans-Serif; fill: #c9d1d9; opacity: 0.7; }
  @keyframes fadeIn { from { opacity: 0; } to { opacity: 1; } }
  .anim { animation: fadeIn 0.6s ease-in-out forwards; opacity: 0; }
</style>

<rect x="0.5" y="0.5" rx="4.5" width="999" height="759" fill="#161b22" stroke="#21262d"/>
<text x="90" y="45" class="title">Activity History</text>
<text x="90" y="72" class="subtitle">Lines added vs deleted &amp; activity trends over time</text>
<line x1="90" y1="340.0" x2="780" y2="340.0" stroke="#21262d" stroke-width="1"/>
<text x="82" y="344.0" text-anchor="end" class="axis-label">0</text>
<line x1="90" y1="280.0" x2="780" y2="280.0" stroke="#21262d" stroke-width="1"/>
<text x="82" y="284.0" text-anchor="end" class="axis-label">463K</text>
<line x1="90" y1="220.0" x2="780" y2="220.0" stroke="#21262d" stroke-width="1"/>
<text x="82" y="224.0" text-anchor="end" class="axis-label">926K</text>
<line x1="90" y1="160.0" x2="780" y2="160.0" stroke="#21262d" stroke-width="1"/>
<text x="82" y="164.0" text-anchor="end" class="axis-label">1.4M</text>
<line x1="90" y1="100.0" x2="780" y2="100.0" stroke="#21262d" stroke-width="1"/>
<text x="82" y="104.0" text-anchor="end" class="axis-label">1.9M</text>
<polygon points="90.0,340.0 90.0,292.7 100.6,294.4 111.2,292.7 121.8,294.4 132.5,305.3 143.1,283.6 153.7,283.6 164.3,275.5 174.9,275.2 185.5,274.6 196.2,274.6 206.8,260.0 217.4,260.0 228.0,260.0 238.6,238.4 249.2,238.1 259.8,237.9 270.5,237.9 281.1,237.9 291.7,237.9 302.3,237.9 312.9,237.3 323.5,222.9 334.2,222.9 344.8,222.9 355.4,222.9 366.0,222.5 376.6,222.5 387.2,221.9 397.8,221.9 408.5,221.8 419.1,221.8 429.7,221.8 440.3,221.8 450.9,221.9 461.5,221.8 472.2,221.8 482.8,221.8 493.4,221.8 504.0,221.8 514.6,221.8 525.2,221.2 535.8,221.5 546.5,220.8 557.1,220.5 567.7,220.5 578.3,220.5 588.9,220.5 599.5,220.5 610.2,220.5 620.8,220.4 631.4,220.4 642.0,220.4 652.6,220.5 663.2,220.8 673.8,222.2 684.5,220.8 695.1,219.5 705.7,219.5 716.3,219.5 726.9,219.5 737.5,219.5 748.2,212.1 758.8,205.3 769.4,197.4 780.0,189.5 780.0,340.0" fill="url(#addGrad)" class="anim" style="animation-delay:200ms;"/>
<polyline points="90.0,292.7 100.6,294.4 111.2,292.7 121.8,294.4 132.5,305.3 143.1,283.6 153.7,283.6 164.3,275.5 174.9,275.2 185.5,274.6 196.2,274.6 206.8,260.0 217.4,260.0 228.0,260.0 238.6,238.4 249.2,238.1 259.8,237.9 270.5,237.9 281.1,237.9 291.7,237.9 302.3,237.9 312.9,237.3 323.5,222.9 334.2,222.9 344.8,222.9 355.4,222.9 366.0,222.5 376.6,222.5 387.2,221.9 397.8,221.9 408.5,221.8 419.1,221.8 429.7,221.8 440.3,221.8 450.9,221.9 461.5,221.8 472.2,221.8 482.8,221.8 493.4,221.8 504.0,221.8 514.6,221.8 525.2,221.2 535.8,221.5 546.5,220.8 557.1,220.5 567.7,220.5 578.3,220.5 588.9,220.5 599.5,220.5 610.2,220.5 620.8,220.4 631.4,220.4 642.0,220.4 652.6,220.5 663.2,220.8 673.8,222.2 684.5,220.8 695.1,219.5 705.7,219.5 716.3,219.5 726.9,219.5 737.5,219.5 748.2,212.1 758.8,205.3" fill="none" stroke="#3fb950" stroke-width="2" stroke-linejoin="round" class="anim" style="animation-delay:250ms;"/>
<polyline points="758.8,205.3 769.4,197.4 780.0,189.5" fill="none" stroke="#3fb950" stroke-width="1.5" stroke-dasharray="5,4" stroke-linejoin="round" opacity="0.6" class="anim" style="animation-delay:250ms;"/>
<polygon points="90.0,340.0 90.0,326.7 100.6,328.1 111.2,326.7 121.8,328.1 132.5,333.7 143.1,325.1 153.7,325.1 164.3,324.1 174.9,323.8 185.5,323.5 196.2,323.5 206.8,307.8 217.4,307.8 228.0,307.8 238.6,290.0 249.2,289.9 259.8,289.9 270.5,289.9 281.1,289.9 291.7,289.9 302.3,289.9 312.9,280.6 323.5,266.4 334.2,266.4 344.8,266.4 355.4,266.4 366.0,266.3 376.6,266.3 387.2,266.3 397.8,266.2 408.5,266.2 419.1,266.2 429.7,266.2 440.3,266.2 450.9,266.2 461.5,266.2 472.2,266.2 482.8,266.2 493.4,266.2 504.0,266.2 514.6,266.2 525.2,266.2 535.8,266.3 546.5,265.8 557.1,265.8 567.7,265.8 578.3,265.8 588.9,265.8 599.5,265.8 610.2,265.8 620.8,265.8 631.4,265.8 642.0,265.8 652.6,265.8 663.2,265.9 673.8,266.7 684.5,266.2 695.1,265.4 705.7,265.3 716.3,265.3 726.9,265.3 737.5,265.3 748.2,265.3 758.8,265.3 769.4,257.9 780.0,250.5 780.0,340.0" fill="url(#delGrad)" class="anim" style="animation-delay:300ms;"/>
<polyline points="90.0,326.7 100.6,328.1 111.2,326.7 121.8,328.1 132.5,333.7 143.1,325.1 153.7,325.1 164.3,324.1 174.9,323.8 185.5,323.5 196.2,323.5 206.8,307.8 217.4,307.8 228.0,307.8 238.6,290.0 249.2,289.9 259.8,289.9 270.5,289.9 281.1,289.9 291.7,289.9 302.3,289.9 312.9,280.6 323.5,266.4 334.2,266.4 344.8,266.4 355.4,266.4 366.0,266.3 376.6,266.3 387.2,266.3 397.8,266.2 408.5,266.2 419.1,266.2 429.7,266.2 440.3,266.2 450.9,266.2 461.5,266.2 472.2,266.2 482.8,266.2 493.4,266.2 504.0,266.2 514.6,266.2 525.2,266.2 535.8,266.3 546.5,265.8 557.1,265.8 567.7,265.8 578.3,265.8 588.9,265.8 599.5,265.8 610.2,265.8 620.8,265.8 631.4,265.8 642.0,265.8 652.6,265.8 663.2,265.9 673.8,266.7 684.5,266.2 695.1,265.4 705.7,265.3 716.3,265.3 726.9,265.3 737.5,265.3 748.2,265.3 758.8,265.3" fill="none" stroke="#f85149" stroke-width="1.5" stroke-linejoin="round" class="anim" style="animation-delay:350ms;"/>
<polyline points="758.8,265.3 769.4,257.9 780.0,250.5" fill="none" stroke="#f85149" stroke-width="1" stroke-dasharray="5,4" stroke-linejoin="round" opacity="0.6" class="anim" style="animation-delay:350ms;"/>
<polyline points="90.0,340.0 100.6,340.0 111.2,340.0 121.8,340.0 132.5,340.0 143.1,340.0 153.7,340.0 164.3,340.0 174.9,301.6 185.5,301.6 196.2,301.6 206.8,301.6 217.4,301.6 228.0,301.6 238.6,301.6 249.2,301.6 259.8,301.6 270.5,301.6 281.1,301.6 291.7,301.6 302.3,301.6 312.9,301.6 323.5,301.6 334.2,301.6 344.8,301.6 355.4,301.6 366.0,301.6 376.6,301.6 387.2,301.6 397.8,301.6 408.5,301.6 419.1,301.6 429.7,301.6 440.3,301.6 450.9,263.2 461.5,263.2 472.2,263.2 482.8,263.2 493.4,263.2 504.0,263.2 514.6,263.2 525.2,263.2 535.8,224.8 546.5,224.8 557.1,224.8 567.7,224.8 578.3,224.8 588.9,224.8 599.5,224.8 610.2,224.8 620.8,224.8 631.4,224.8 642.0,224.8 652.6,224.8 663.2,224.8 673.8,224.8 684.5,224.8 695.1,224.8 705.7,148.0 716.3,148.0 726.9,148.0 737.5,148.0 748.2,148.0 758.8,148.0" fill="none" stroke="#e3b341" stroke-width="1.5" stroke-dasharray="4,3" stroke-linejoin="round" class="anim" style="animation-delay:400ms;"/>
<polyline points="758.8,148.0 769.4,148.0 780.0,148.0" fill="none" stroke="#e3b341" stroke-width="1" stroke-dasharray="3,5" stroke-linejoin="round" opacity="0.5" class="anim" style="animation-delay:400ms;"/>
<text x="90" y="90" class="subtitle">Lines Added vs Deleted (per snapshot)</text>
<text x="90" y="400" class="subtitle">Programming Language Development (%)</text>
<line x1="90" y1="650.0" x2="780" y2="650.0" stroke="#21262d" stroke-width="1"/>
<text x="82" y="654.0" text-anchor="end" class="axis-label">0%</text>
<line x1="90" y1="590.0" x2="780" y2="590.0" stroke="#21262d" stroke-width="1"/>
<text x="82" y="594.0" text-anchor="end" class="axis-label">25%</text>
<line x1="90" y1="530.0" x2="780" y2="530.0" stroke="#21262d" stroke-width="1"/>
<text x="82" y="534.0" text-anchor="end" class="axis-label">50%</text>
<line x1="90" y1="470.0" x2="780" y2="470.0" stroke="#21262d" stroke-width="1"/>
<text x="82" y="474.0" text-anchor="end" class="axis-label">75%</text>
<line x1="90" y1="410.0" x2="780" y2="410.0" stroke="#21262d" stroke-width="1"/>
<text x="82" y="414.0" text-anchor="end" class="axis-label">100%</text>
<polygon points="90.0,650.0 100.6,650.0 111.2,650.0 121.8,650.0 132.5,650.0 143.1,650.0 153.7,650.0 164.3,650.0 174.9,528.2 185.5,528.5 196.2,529.7 206.8,499.3 217.4,499.3 228.0,502.9 238.6,485.0 249.2,485.1 259.8,485.4 270.5,485.4 281.1,485.4 291.7,485.4 302.3,485.4 312.9,496.4 323.5,496.7 334.2,491.0 344.8,491.0 355.4,491.0 366.0,491.7 376.6,491.8 387.2,494.0 397.8,494.0 408.5,494.4 419.1,494.4 429.7,494.4 440.3,494.4 450.9,507.6 461.5,507.6 472.2,507.9 482.8,507.9 493.4,507.9 504.0,506.3 514.6,506.4 525.2,506.8 535.8,506.9 546.5,506.8 557.1,507.5 567.7,507.5 578.3,507.5 588.9,507.5 599.5,507.5 610.2,507.5 620.8,507.5 631.4,507.5 642.0,507.5 652.6,507.5 663.2,507.5 673.8,507.5 684.5,507.5 695.1,508.6 705.7,508.6 716.3,508.6 726.9,508.6 737.5,508.6 748.2,509.5 758.8,509.8 769.4,511.6 780.0,513.4 780.0,650.0 769.4,650.0 758.8,650.0 748.2,650.0 737.5,650.0 726.9,650.0 716.3,650.0 705.7,650.0 695.1,650.0 684.5,650.0 673.8,650.0 663.2,650.0 652.6,650.0 642.0,650.0 631.4,650.0 620.8,650.0 610.2,650.0 599.5,650.0 588.9,650.0 578.3,650.0 567.7,650.0 557.1,650.0 546.5,650.0 535.8,650.0 525.2,650.0 514.6,650.0 504.0,650.0 493.4,650.0 482.8,650.0 472.2,650.0 461.5,650.0 450.9,650.0 440.3,650.0 429.7,650.0 419.1,650.0 408.5,650.0 397.8,650.0 387.2,650.0 376.6,650.0 366.0,650.0 355.4,650.0 344.8,650.0 334.2,650.0 323.5,650.0 312.9,650.0 302.3,650.0 291.7,650.0 281.1,650.0 270.5,650.0 259.8,650.0 249.2,650.0 238.6,650.0 228.0,650.0 217.4,650.0 206.8,650.0 196.2,650.0 185.5,650.0 174.9,650.0 164.3,650.0 153.7,650.0 143.1,650.0 132.5,650.0 121.8,650.0 111.2,650.0 100.6,650.0 90.0,650.0" fill="#e34c26" opacity="0.6" class="anim" style="animation-delay:500ms;"/>
<polygon points="90.0,650.0 100.6,650.0 111.2,650.0 121.8,650.0 132.5,650.0 143.1,650.0 153.7,650.0 164.3,650.0 174.9,488.4 185.5,488.0 196.2,489.0 206.8,476.0 217.4,476.0 228.0,477.2 238.6,460.1 249.2,460.2 259.8,460.6 270.5,460.6 281.1,460.6 291.7,460.6 302.3,460.6 312.9,473.0 323.5,473.5 334.2,469.5 344.8,469.5 355.4,469.5 366.0,469.7 376.6,469.7 387.2,469.7 397.8,469.7 408.5,469.7 419.1,469.7 429.7,469.7 440.3,469.7 450.9,455.6 461.5,455.6 472.2,455.4 482.8,455.4 493.4,455.4 504.0,454.3 514.6,454.3 525.2,455.0 535.8,455.1 546.5,454.9 557.1,455.9 567.7,455.9 578.3,455.9 588.9,455.9 599.5,455.9 610.2,455.9 620.8,455.9 631.4,455.9 642.0,455.9 652.6,455.9 663.2,455.9 673.8,455.9 684.5,455.9 695.1,455.8 705.7,455.8 716.3,455.8 726.9,455.8 737.5,455.8 748.2,457.0 758.8,457.4 769.4,454.6 780.0,451.9 780.0,513.4 769.4,511.6 758.8,509.8 748.2,509.5 737.5,508.6 726.9,508.6 716.3,508.6 705.7,508.6 695.1,508.6 684.5,507.5 673.8,507.5 663.2,507.5 652.6,507.5 642.0,507.5 631.4,507.5 620.8,507.5 610.2,507.5 599.5,507.5 588.9,507.5 578.3,507.5 567.7,507.5 557.1,507.5 546.5,506.8 535.8,506.9 525.2,506.8 514.6,506.4 504.0,506.3 493.4,507.9 482.8,507.9 472.2,507.9 461.5,507.6 450.9,507.6 440.3,494.4 429.7,494.4 419.1,494.4 408.5,494.4 397.8,494.0 387.2,494.0 376.6,491.8 366.0,491.7 355.4,491.0 344.8,491.0 334.2,491.0 323.5,496.7 312.9,496.4 302.3,485.4 291.7,485.4 281.1,485.4 270.5,485.4 259.8,485.4 249.2,485.1 238.6,485.0 228.0,502.9 217.4,499.3 206.8,499.3 196.2,529.7 185.5,528.5 174.9,528.2 164.3,650.0 153.7,650.0 143.1,650.0 132.5,650.0 121.8,650.0 111.2,650.0 100.6,650.0 90.0,650.0" fill="#f1e05a" opacity="0.6" class="anim" style="animation-delay:600ms;"/>
<polygon points="90.0,650.0 100.6,650.0 111.2,650.0 121.8,650.0 132.5,650.0 143.1,650.0 153.7,650.0 164.3,650.0 174.9,455.5 185.5,455.4 196.2,455.1 206.8,447.0 217.4,447.0 228.0,448.2 238.6,438.9 249.2,439.0 259.8,439.6 270.5,439.6 281.1,439.6 291.7,439.6 302.3,439.6 312.9,445.6 323.5,445.6 334.2,443.3 344.8,443.3 355.4,443.3 366.0,443.6 376.6,443.6 387.2,444.1 397.8,444.1 408.5,444.1 419.1,444.1 429.7,444.1 440.3,444.1 450.9,437.5 461.5,437.5 472.2,437.5 482.8,437.5 493.4,437.5 504.0,437.5 514.6,437.5 525.2,438.4 535.8,438.5 546.5,438.3 557.1,439.3 567.7,439.3 578.3,439.3 588.9,439.3 599.5,439.3 610.2,439.3 620.8,439.3 631.4,439.3 642.0,439.3 652.6,439.3 663.2,439.3 673.8,439.3 684.5,439.3 695.1,439.4 705.7,439.4 716.3,439.4 726.9,439.4 737.5,439.4 748.2,440.7 758.8,441.1 769.4,440.3 780.0,439.4 780.0,451.9 769.4,454.6 758.8,457.4 748.2,457.0 737.5,455.8 726.9,455.8 716.3,455.8 705.7,455.8 695.1,455.8 684.5,455.9 673.8,455.9 663.2,455.9 652.6,455.9 642.0,455.9 631.4,455.9 620.8,455.9 610.2,455.9 599.5,455.9 588.9,455.9 578.3,455.9 567.7,455.9 557.1,455.9 546.5,454.9 535.8,455.1 525.2,455.0 514.6,454.3 504.0,454.3 493.4,455.4 482.8,455.4 472.2,455.4 461.5,455.6 450.9,455.6 440.3,469.7 429.7,469.7 419.1,469.7 408.5,469.7 397.8,469.7 387.2,469.7 376.6,469.7 366.0,469.7 355.4,469.5 344.8,469.5 334.2,469.5 323.5,473.5 312.9,473.0 302.3,460.6 291.7,460.6 281.1,460.6 270.5,460.6 259.8,460.6 249.2,460.2 238.6,460.1 228.0,477.2 217.4,476.0 206.8,476.0 196.2,489.0 185.5,488.0 174.9,488.4 164.3,650.0 153.7,650.0 143.1,650.0 132.5,650.0 121.8,650.0 111.2,650.0 100.6,650.0 90.0,650.0" fill="#3572A5" opacity="0.6" class="anim" style="animation-delay:700ms;"/>
<polygon points="90.0,650.0 100.6,650.0 111.2,650.0 121.8,650.0 132.5,650.0 143.1,650.0 153.7,650.0 164.3,650.0 174.9,442.3 185.5,442.0 196.2,441.6 206.8,439.5 217.4,439.5 228.0,439.4 238.6,432.3 249.2,432.2 259.8,432.6 270.5,432.6 281.1,432.6 291.7,432.6 302.3,432.6 312.9,439.3 323.5,439.3 334.2,437.4 344.8,437.4 355.4,437.4 366.0,437.3 376.6,437.3 387.2,437.1 397.8,437.1 408.5,437.1 419.1,437.1 429.7,437.1 440.3,437.1 450.9,428.7 461.5,428.6 472.2,428.5 482.8,428.5 493.4,428.5 504.0,427.3 514.6,427.3 525.2,427.1 535.8,427.1 546.5,427.1 557.1,427.0 567.7,427.0 578.3,427.0 588.9,427.0 599.5,427.0 610.2,427.0 620.8,427.0 631.4,427.0 642.0,427.0 652.6,427.0 663.2,427.0 673.8,427.0 684.5,427.0 695.1,427.0 705.7,427.1 716.3,427.1 726.9,427.1 737.5,427.1 748.2,428.4 758.8,428.9 769.4,427.3 780.0,425.7 780.0,439.4 769.4,440.3 758.8,441.1 748.2,440.7 737.5,439.4 726.9,439.4 716.3,439.4 705.7,439.4 695.1,439.4 684.5,439.3 673.8,439.3 663.2,439.3 652.6,439.3 642.0,439.3 631.4,439.3 620.8,439.3 610.2,439.3 599.5,439.3 588.9,439.3 578.3,439.3 567.7,439.3 557.1,439.3 546.5,438.3 535.8,438.5 525.2,438.4 514.6,437.5 504.0,437.5 493.4,437.5 482.8,437.5 472.2,437.5 461.5,437.5 450.9,437.5 440.3,444.1 429.7,444.1 419.1,444.1 408.5,444.1 397.8,444.1 387.2,444.1 376.6,443.6 366.0,443.6 355.4,443.3 344.8,443.3 334.2,443.3 323.5,445.6 312.9,445.6 302.3,439.6 291.7,439.6 281.1,439.6 270.5,439.6 259.8,439.6 249.2,439.0 238.6,438.9 228.0,448.2 217.4,447.0 206.8,447.0 196.2,455.1 185.5,455.4 174.9,455.5 164.3,650.0 153.7,650.0 143.1,650.0 132.5,650.0 121.8,650.0 111.2,650.0 100.6,650.0 90.0,650.0" fill="#663399" opacity="0.6" class="anim" style="animation-delay:800ms;"/>
<polygon points="90.0,650.0 100.6,650.0 111.2,650.0 121.8,650.0 132.5,650.0 143.1,650.0 153.7,650.0 164.3,650.0 174.9,436.6 185.5,436.3 196.2,435.9 206.8,432.2 217.4,432.2 228.0,432.2 238.6,426.2 249.2,426.1 259.8,426.0 270.5,426.0 281.1,426.0 291.7,426.0 302.3,426.0 312.9,430.8 323.5,430.7 334.2,429.3 344.8,429.3 355.4,429.3 366.0,429.2 376.6,429.2 387.2,428.9 397.8,428.9 408.5,428.8 419.1,428.8 429.7,428.8 440.3,428.8 450.9,423.0 461.5,422.9 472.2,422.9 482.8,422.9 493.4,422.9 504.0,422.0 514.6,422.0 525.2,421.9 535.8,421.9 546.5,421.9 557.1,421.8 567.7,421.8 578.3,421.8 588.9,421.8 599.5,421.8 610.2,421.8 620.8,421.8 631.4,421.8 642.0,421.8 652.6,421.8 663.2,421.8 673.8,421.8 684.5,421.8 695.1,421.7 705.7,421.8 716.3,421.8 726.9,421.8 737.5,421.8 748.2,423.2 758.8,423.6 769.4,422.4 780.0,421.1 780.0,425.7 769.4,427.3 758.8,428.9 748.2,428.4 737.5,427.1 726.9,427.1 716.3,427.1 705.7,427.1 695.1,427.0 684.5,427.0 673.8,427.0 663.2,427.0 652.6,427.0 642.0,427.0 631.4,427.0 620.8,427.0 610.2,427.0 599.5,427.0 588.9,427.0 578.3,427.0 567.7,427.0 557.1,427.0 546.5,427.1 535.8,427.1 525.2,427.1 514.6,427.3 504.0,427.3 493.4,428.5 482.8,428.5 472.2,428.5 461.5,428.6 450.9,428.7 440.3,437.1 429.7,437.1 419.1,437.1 408.5,437.1 397.8,437.1 387.2,437.1 376.6,437.3 366.0,437.3 355.4,437.4 344.8,437.4 334.2,437.4 323.5,439.3 312.9,439.3 302.3,432.6 291.7,432.6 281.1,432.6 270.5,432.6 259.8,432.6 249.2,432.2 238.6,432.3 228.0,439.4 217.4,439.5 206.8,439.5 196.2,441.6 185.5,442.0 174.9,442.3 164.3,650.0 153.7,650.0 143.1,650.0 132.5,650.0 121.8,650.0 111.2,650.0 100.6,650.0 90.0,650.0" fill="#083fa1" opacity="0.6" class="anim" style="animation-delay:900ms;"/>
<polygon points="90.0,650.0 100.6,650.0 111.2,650.0 121.8,650.0 132.5,650.0 143.1,650.0 153.7,650.0 164.3,650.0 174.9,427.0 185.5,426.8 196.2,426.6 206.8,424.2 217.4,424.2 228.0,424.2 238.6,420.4 249.2,420.3 259.8,420.3 270.5,420.3 281.1,420.3 291.7,420.3 302.3,420.3 312.9,423.3 323.5,423.2 334.2,422.4 344.8,422.4 355.4,422.4 366.0,422.3 376.6,422.3 387.2,422.1 397.8,422.1 408.5,422.1 419.1,422.1 429.7,422.1 440.3,422.1 450.9,418.3 461.5,418.3 472.2,418.2 482.8,418.2 493.4,418.2 504.0,417.7 514.6,417.7 525.2,417.6 535.8,417.6 546.5,417.6 557.1,417.6 567.7,417.6 578.3,417.6 588.9,417.6 599.5,417.6 610.2,417.6 620.8,417.6 631.4,417.6 642.0,417.6 652.6,417.6 663.2,417.6 673.8,417.6 684.5,417.6 695.1,417.5 705.7,417.6 716.3,417.6 726.9,417.6 737.5,417.6 748.2,419.0 758.8,419.5 769.4,418.7 780.0,418.0 780.0,421.1 769.4,422.4 758.8,423.6 748.2,423.2 737.5,421.8 726.9,421.8 716.3,421.8 705.7,421.8 695.1,421.7 684.5,421.8 673.8,421.8 663.2,421.8 652.6,421.8 642.0,421.8 631.4,421.8 620.8,421.8 610.2,421.8 599.5,421.8 588.9,421.8 578.3,421.8 567.7,421.8 557.1,421.8 546.5,421.9 535.8,421.9 525.2,421.9 514.6,422.0 504.0,422.0 493.4,422.9 482.8,422.9 472.2,422.9 461.5,422.9 450.9,423.0 440.3,428.8 429.7,428.8 419.1,428.8 408.5,428.8 397.8,428.9 387.2,428.9 376.6,429.2 366.0,429.2 355.4,429.3 344.8,429.3 334.2,429.3 323.5,430.7 312.9,430.8 302.3,426.0 291.7,426.0 281.1,426.0 270.5,426.0 259.8,426.0 249.2,426.1 238.6,426.2 228.0,432.2 217.4,432.2 206.8,432.2 196.2,435.9 185.5,436.3 174.9,436.6 164.3,650.0 153.7,650.0 143.1,650.0 132.5,650.0 121.8,650.0 111.2,650.0 100.6,650.0 90.0,650.0" fill="#6E4C13" opacity="0.6" class="anim" style="animation-delay:1000ms;"/>
<polygon points="90.0,650.0 100.6,650.0 111.2,650.0 121.8,650.0 132.5,650.0 143.1,650.0 153.7,650.0 164.3,650.0 174.9,418.7 185.5,418.6 196.2,418.5 206.8,417.3 217.4,417.3 228.0,417.2 238.6,415.3 249.2,415.3 259.8,415.2 270.5,415.2 281.1,415.2 291.7,415.2 302.3,415.2 312.9,416.8 323.5,416.8 334.2,416.3 344.8,416.3 355.4,416.3 366.0,416.3 376.6,416.3 387.2,416.2 397.8,416.2 408.5,416.2 419.1,416.2 429.7,416.2 440.3,416.2 450.9,414.2 461.5,414.2 472.2,414.2 482.8,414.2 493.4,414.2 504.0,413.9 514.6,413.9 525.2,413.9 535.8,413.9 546.5,413.9 557.1,413.9 567.7,413.9 578.3,413.9 588.9,413.9 599.5,413.9 610.2,413.9 620.8,413.9 631.4,413.9 642.0,413.9 652.6,413.9 663.2,413.9 673.8,413.9 684.5,413.9 695.1,413.8 705.7,413.8 716.3,413.8 726.9,413.8 737.5,413.8 748.2,413.8 758.8,413.8 769.4,413.6 780.0,413.3 780.0,418.0 769.4,418.7 758.8,419.5 748.2,419.0 737.5,417.6 726.9,417.6 716.3,417.6 705.7,417.6 695.1,417.5 684.5,417.6 673.8,417.6 663.2,417.6 652.6,417.6 642.0,417.6 631.4,417.6 620.8,417.6 610.2,417.6 599.5,417.6 588.9,417.6 578.3,417.6 567.7,417.6 557.1,417.6 546.5,417.6 535.8,417.6 525.2,417.6 514.6,417.7 504.0,417.7 493.4,418.2 482.8,418.2 472.2,418.2 461.5,418.3 450.9,418.3 440.3,422.1 429.7,422.1 419.1,422.1 408.5,422.1 397.8,422.1 387.2,422.1 376.6,422.3 366.0,422.3 355.4,422.4 344.8,422.4 334.2,422.4 323.5,423.2 312.9,423.3 302.3,420.3 291.7,420.3 281.1,420.3 270.5,420.3 259.8,420.3 249.2,420.3 238.6,420.4 228.0,424.2 217.4,424.2 206.8,424.2 196.2,426.6 185.5,426.8 174.9,427.0 164.3,650.0 153.7,650.0 143.1,650.0 132.5,650.0 121.8,650.0 111.2,650.0 100.6,650.0 90.0,650.0" fill="#F05138" opacity="0.6" class="anim" style="animation-delay:1100ms;"/>
<polygon points="90.0,650.0 100.6,650.0 111.2,650.0 121.8,650.0 132.5,650.0 143.1,650.0 153.7,650.0 164.3,650.0 174.9,414.4 185.5,414.4 196.2,414.3 206.8,413.7 217.4,413.7 228.0,413.7 238.6,412.7 249.2,412.7 259.8,412.7 270.5,412.7 281.1,412.7 291.7,412.7 302.3,412.7 312.9,413.5 323.5,413.4 334.2,413.2 344.8,413.2 355.4,413.2 366.0,413.2 376.6,413.2 387.2,413.1 397.8,413.1 408.5,413.1 419.1,413.1 429.7,413.1 440.3,413.1 450.9,412.2 461.5,412.1 472.2,412.1 482.8,412.1 493.4,412.1 504.0,412.0 514.6,412.0 525.2,412.0 535.8,412.0 546.5,412.0 557.1,412.0 567.7,412.0 578.3,412.0 588.9,412.0 599.5,412.0 610.2,412.0 620.8,412.0 631.4,412.0 642.0,412.0 652.6,412.0 663.2,412.0 673.8,412.0 684.5,412.0 695.1,411.9 705.7,411.9 716.3,411.9 726.9,411.9 737.5,411.9 748.2,411.9 758.8,411.9 769.4,411.9 780.0,411.9 780.0,413.3 769.4,413.6 758.8,413.8 748.2,413.8 737.5,413.8 726.9,413.8 716.3,413.8 705.7,413.8 695.1,413.8 684.5,413.9 673.8,413.9 663.2,413.9 652.6,413.9 642.0,413.9 631.4,413.9 620.8,413.9 610.2,413.9 599.5,413.9 588.9,413.9 578.3,413.9 567.7,413.9 557.1,413.9 546.5,413.9 535.8,413.9 525.2,413.9 514.6,413.9 504.0,413.9 493.4,414.2 482.8,414.2 472.2,414.2 461.5,414.2 450.9,414.2 440.3,416.2 429.7,416.2 419.1,416.2 408.5,416.2 397.8,416.2 387.2,416.2 376.6,416.3 366.0,416.3 355.4,416.3 344.8,416.3 334.2,416.3 323.5,416.8 312.9,416.8 302.3,415.2 291.7,415.2 281.1,415.2 270.5,415.2 259.8,415.2 249.2,415.3 238.6,415.3 228.0,417.2 217.4,417.3 206.8,417.3 196.2,418.5 185.5,418.6 174.9,418.7 164.3,650.0 153.7,650.0 143.1,650.0 132.5,650.0 121.8,650.0 111.2,650.0 100.6,650.0 90.0,650.0" fill="#b07219" opacity="0.6" class="anim" style="animation-delay:1200ms;"/>
<line x1="758.8" y1="100" x2="758.8" y2="650" stroke="#c9d1d9" stroke-width="1" stroke-dasharray="4,3" opacity="0.35"/>
<text x="769.4" y="112" text-anchor="middle" class="axis-label" opacity="0.6">Jun 25, 2026</text>
<text x="90.0" y="668" text-anchor="middle" class="axis-label" transform="rotate(-35 90.0 668)">2026-02</text>
<text x="387.2" y="668" text-anchor="middle" class="axis-label" transform="rotate(-35 387.2 668)">2026-03</text>
<text x="684.5" y="668" text-anchor="middle" class="axis-label" transform="rotate(-35 684.5 668)">2026-04</text>
<text x="758.8" y="668" text-anchor="middle" class="axis-label" transform="rotate(-35 758.8 668)">2026-06</text>
<line x1="796" y1="110" x2="824" y2="110" stroke="#3fb950" stroke-width="2"/>
<text x="832" y="116" class="legend-text">Lines Added</text>
<line x1="796" y1="140" x2="824" y2="140" stroke="#f85149" stroke-width="1.5"/>
<text x="832" y="146" class="legend-text">Lines Deleted</text>
<line x1="796" y1="170" x2="824" y2="170" stroke="#e3b341" stroke-width="1.5" stroke-dasharray="4,3"/>
<text x="832" y="176" class="legend-text">&#x2605; Stars</text>
<text x="796" y="200" class="subtitle">Languages</text>
<rect x="796" y="212" width="12" height="12" rx="2" fill="#e34c26" opacity="0.8" class="anim" style="animation-delay:800ms;"/>
<text x="814" y="223" class="legend-text">HTML (58%→57%)</text>
<rect x="796" y="234" width="12" height="12" rx="2" fill="#f1e05a" opacity="0.8" class="anim" style="animation-delay:880ms;"/>
<text x="814" y="245" class="legend-text">JavaScript (22%→26%)</text>
<rect x="796" y="256" width="12" height="12" rx="2" fill="#3572A5" opacity="0.8" class="anim" style="animation-delay:960ms;"/>
<text x="814" y="267" class="legend-text">Python (7%→5%)</text>
<rect x="796" y="278" width="12" height="12" rx="2" fill="#663399" opacity="0.8" class="anim" style="animation-delay:1040ms;"/>
<text x="814" y="289" class="legend-text">CSS (5%→6%)</text>
<rect x="796" y="300" width="12" height="12" rx="2" fill="#083fa1" opacity="0.8" class="anim" style="animation-delay:1120ms;"/>
<text x="814" y="311" class="legend-text">Markdown (2%→2%)</text>
<rect x="796" y="322" width="12" height="12" rx="2" fill="#6E4C13" opacity="0.8" class="anim" style="animation-delay:1200ms;"/>
<text x="814" y="333" class="legend-text">Assembly (2%→1%)</text>
<rect x="796" y="344" width="12" height="12" rx="2" fill="#F05138" opacity="0.8" class="anim" style="animation-delay:1280ms;"/>
<text x="814" y="355" class="legend-text">Swift (2%→2%)</text>
<rect x="796" y="366" width="12" height="12" rx="2" fill="#b07219" opacity="0.8" class="anim" style="animation-delay:1360ms;"/>
<text x="814" y="377" class="legend-text">Java (1%→1%)</text>
<text x="796" y="412" class="subtitle">Contributions</text>
<text x="796" y="432" class="axis-label">2023: 39</text>
<text x="796" y="452" class="axis-label">2024: 646</text>
<text x="796" y="472" class="axis-label">2025: 1,780</text>
<text x="796" y="492" class="axis-label">2026: 483</text>
<text x="796" y="522" class="subtitle">Statistics</text>
<text x="796" y="542" class="axis-label">Active weeks: 87</text>
<text x="796" y="562" class="axis-label">Add/Del ratio: 1.8x</text>
<text x="796" y="582" class="axis-label">Avg lines/wk: 19K</text>
<text x="796" y="602" class="axis-label">Peak: 2026-02-15</text>
<text x="796" y="622" class="axis-label">  (543K lines)</text>
<text x="90" y="742" class="axis-label">Total: +1,039,435 / -576,819 lines &#xb7; 2,948 contributions &#xb7; 79 repos &#xb7; &#x2605; 37</text>
</svg>