<svg xmlns="http://www.w3.org/2000/svg" width="1000" height="760" style="max-width: 100%;" viewBox="0 0 1000 760">

<defs>
  <linearGradient id="areaGrad" x1="0" y1="0" x2="0" y2="1">
    <stop offset="0%" stop-color="#58a6ff" stop-opacity="0.35"/>
    <stop offset="100%" stop-color="#58a6ff" stop-opacity="0.02"/>
  </linearGradient>
  <linearGradient id="addGrad" x1="0" y1="0" x2="0" y2="1">
    <stop offset="0%" stop-color="#3fb950" stop-opacity="0.35"/>
    <stop offset="100%" stop-color="#3fb950" stop-opacity="0.02"/>
  </linearGradient>
  <linearGradient id="delGrad" x1="0" y1="0" x2="0" y2="1">
    <stop offset="0%" stop-color="#f85149" stop-opacity="0.25"/>
    <stop offset="100%" stop-color="#f85149" stop-opacity="0.02"/>
  </linearGradient>
</defs>
<style>
  .title { font: bold 28px 'Segoe UI', Ubuntu, Sans-Serif; fill: #c9d1d9; }
  .subtitle { font: 600 20px 'Segoe UI', Ubuntu, Sans-Serif; fill: #c9d1d9; opacity: 0.8; }
  .axis-label { font: 18px 'Segoe UI', Ubuntu, Sans-Serif; fill: #c9d1d9; opacity: 0.7; }
  .legend-text { font: 14px 'Segoe UI', Ubuntu, Sans-Serif; fill: #c9d1d9; }
  .value-text { font: bold 18px 'Segoe UI', Ubuntu, Sans-Serif; fill: #c9d1d9; }
  .stat-value { font: bold 22px 'Segoe UI', Ubuntu, Sans-Serif; fill: #c9d1d9; }
  .stat-label { font: 18px 'Segoe UI', Ubuntu, Sans-Serif; fill: #c9d1d9; opacity: 0.7; }
  @keyframes fadeIn { from { opacity: 0; } to { opacity: 1; } }
  .anim { animation: fadeIn 0.6s ease-in-out forwards; opacity: 0; }
</style>

<rect x="0.5" y="0.5" rx="4.5" width="999" height="759" fill="#161b22" stroke="#21262d"/>
<text x="90" y="45" class="title">Activity History</text>
<text x="90" y="72" class="subtitle">Lines added vs deleted &amp; activity trends over time</text>
<line x1="90" y1="340.0" x2="780" y2="340.0" stroke="#21262d" stroke-width="1"/>
<text x="82" y="344.0" text-anchor="end" class="axis-label">0</text>
<line x1="90" y1="280.0" x2="780" y2="280.0" stroke="#21262d" stroke-width="1"/>
<text x="82" y="284.0" text-anchor="end" class="axis-label">454K</text>
<line x1="90" y1="220.0" x2="780" y2="220.0" stroke="#21262d" stroke-width="1"/>
<text x="82" y="224.0" text-anchor="end" class="axis-label">908K</text>
<line x1="90" y1="160.0" x2="780" y2="160.0" stroke="#21262d" stroke-width="1"/>
<text x="82" y="164.0" text-anchor="end" class="axis-label">1.4M</text>
<line x1="90" y1="100.0" x2="780" y2="100.0" stroke="#21262d" stroke-width="1"/>
<text x="82" y="104.0" text-anchor="end" class="axis-label">1.8M</text>
<polygon points="90.0,340.0 90.0,291.8 95.7,293.5 101.3,291.8 107.0,293.5 112.6,304.6 118.3,282.5 123.9,282.5 129.6,274.2 135.2,273.9 140.9,273.3 146.6,273.3 152.2,258.4 157.9,258.4 163.5,258.4 169.2,236.4 174.8,236.1 180.5,235.8 186.1,235.8 191.8,235.8 197.5,235.8 203.1,235.8 208.8,235.3 214.4,220.6 220.1,220.5 225.7,220.5 231.4,220.5 237.0,220.2 242.7,220.2 248.4,219.6 254.0,219.6 259.7,219.5 265.3,219.5 271.0,219.5 276.6,219.5 282.3,219.5 288.0,219.5 293.6,219.5 299.3,219.5 304.9,219.5 310.6,219.5 316.2,219.5 321.9,218.9 327.5,219.1 333.2,218.4 338.9,218.1 344.5,218.1 350.2,218.1 355.8,218.1 361.5,218.1 367.1,218.1 372.8,218.1 378.4,218.1 384.1,218.1 389.8,218.1 395.4,218.4 401.1,219.8 406.7,218.4 412.4,217.2 418.0,217.1 423.7,217.1 429.3,217.1 435.0,217.1 440.7,209.5 446.3,202.7 452.0,202.7 457.6,202.7 463.3,202.7 468.9,202.7 474.6,202.7 480.2,202.7 485.9,202.7 491.6,202.5 497.2,202.5 502.9,202.5 508.5,202.5 514.2,202.5 519.8,202.5 525.5,202.5 531.1,202.5 536.8,202.5 542.5,202.5 548.1,202.5 553.8,202.5 559.4,202.5 565.1,202.5 570.7,202.5 576.4,202.5 582.0,202.5 587.7,202.5 593.4,202.5 599.0,202.5 604.7,202.5 610.3,202.5 616.0,202.5 621.6,202.5 627.3,202.5 633.0,202.5 638.6,202.5 644.3,202.5 649.9,202.5 655.6,202.5 661.2,202.5 666.9,202.5 672.5,202.5 678.2,202.5 683.9,202.5 689.5,202.5 695.2,202.5 700.8,202.5 706.5,202.5 712.1,202.5 717.8,202.5 723.4,202.5 729.1,202.5 734.8,202.5 740.4,202.5 746.1,202.5 751.7,202.5 757.4,202.5 763.0,202.5 768.7,202.5 774.3,194.5 780.0,186.5 780.0,340.0" fill="url(#addGrad)" class="anim" style="animation-delay:200ms;"/>
<polyline points="90.0,291.8 95.7,293.5 101.3,291.8 107.0,293.5 112.6,304.6 118.3,282.5 123.9,282.5 129.6,274.2 135.2,273.9 140.9,273.3 146.6,273.3 152.2,258.4 157.9,258.4 163.5,258.4 169.2,236.4 174.8,236.1 180.5,235.8 186.1,235.8 191.8,235.8 197.5,235.8 203.1,235.8 208.8,235.3 214.4,220.6 220.1,220.5 225.7,220.5 231.4,220.5 237.0,220.2 242.7,220.2 248.4,219.6 254.0,219.6 259.7,219.5 265.3,219.5 271.0,219.5 276.6,219.5 282.3,219.5 288.0,219.5 293.6,219.5 299.3,219.5 304.9,219.5 310.6,219.5 316.2,219.5 321.9,218.9 327.5,219.1 333.2,218.4 338.9,218.1 344.5,218.1 350.2,218.1 355.8,218.1 361.5,218.1 367.1,218.1 372.8,218.1 378.4,218.1 384.1,218.1 389.8,218.1 395.4,218.4 401.1,219.8 406.7,218.4 412.4,217.2 418.0,217.1 423.7,217.1 429.3,217.1 435.0,217.1 440.7,209.5 446.3,202.7 452.0,202.7 457.6,202.7 463.3,202.7 468.9,202.7 474.6,202.7 480.2,202.7 485.9,202.7 491.6,202.5 497.2,202.5 502.9,202.5 508.5,202.5 514.2,202.5 519.8,202.5 525.5,202.5 531.1,202.5 536.8,202.5 542.5,202.5 548.1,202.5 553.8,202.5 559.4,202.5 565.1,202.5 570.7,202.5 576.4,202.5 582.0,202.5 587.7,202.5 593.4,202.5 599.0,202.5 604.7,202.5 610.3,202.5 616.0,202.5 621.6,202.5 627.3,202.5 633.0,202.5 638.6,202.5 644.3,202.5 649.9,202.5 655.6,202.5 661.2,202.5 666.9,202.5 672.5,202.5 678.2,202.5 683.9,202.5 689.5,202.5 695.2,202.5 700.8,202.5 706.5,202.5 712.1,202.5 717.8,202.5 723.4,202.5 729.1,202.5 734.8,202.5 740.4,202.5 746.1,202.5 751.7,202.5 757.4,202.5 763.0,202.5 768.7,202.5" fill="none" stroke="#3fb950" stroke-width="2" stroke-linejoin="round" class="anim" style="animation-delay:250ms;"/>
<polyline points="768.7,202.5 774.3,194.5 780.0,186.5" fill="none" stroke="#3fb950" stroke-width="1.5" stroke-dasharray="5,4" stroke-linejoin="round" opacity="0.6" class="anim" style="animation-delay:250ms;"/>
<polygon points="90.0,340.0 90.0,326.4 95.7,327.8 101.3,326.5 107.0,327.8 112.6,333.6 118.3,324.8 123.9,324.8 129.6,323.8 135.2,323.5 140.9,323.2 146.6,323.2 152.2,307.2 157.9,307.2 163.5,307.1 169.2,289.0 174.8,288.9 180.5,288.9 186.1,288.9 191.8,288.9 197.5,288.9 203.1,288.9 208.8,279.4 214.4,265.0 220.1,264.9 225.7,264.9 231.4,264.9 237.0,264.9 242.7,264.9 248.4,264.8 254.0,264.7 259.7,264.7 265.3,264.7 271.0,264.7 276.6,264.7 282.3,264.8 288.0,264.7 293.6,264.7 299.3,264.7 304.9,264.7 310.6,264.7 316.2,264.7 321.9,264.7 327.5,264.8 333.2,264.3 338.9,264.3 344.5,264.3 350.2,264.3 355.8,264.3 361.5,264.3 367.1,264.3 372.8,264.3 378.4,264.3 384.1,264.3 389.8,264.3 395.4,264.4 401.1,265.2 406.7,264.7 412.4,263.9 418.0,263.8 423.7,263.8 429.3,263.8 435.0,263.8 440.7,263.8 446.3,263.8 452.0,263.8 457.6,263.8 463.3,263.8 468.9,263.8 474.6,263.8 480.2,263.8 485.9,263.8 491.6,263.8 497.2,263.8 502.9,263.8 508.5,263.8 514.2,263.8 519.8,263.8 525.5,263.8 531.1,263.8 536.8,263.8 542.5,263.8 548.1,263.8 553.8,263.8 559.4,263.8 565.1,263.8 570.7,263.8 576.4,263.8 582.0,263.8 587.7,263.8 593.4,263.8 599.0,263.8 604.7,263.8 610.3,263.8 616.0,263.8 621.6,263.8 627.3,263.8 633.0,263.8 638.6,263.8 644.3,263.8 649.9,263.8 655.6,263.8 661.2,263.8 666.9,263.8 672.5,263.8 678.2,263.8 683.9,263.8 689.5,263.8 695.2,263.8 700.8,263.8 706.5,263.8 712.1,263.8 717.8,263.8 723.4,263.8 729.1,263.8 734.8,263.8 740.4,263.8 746.1,263.8 751.7,263.8 757.4,263.8 763.0,263.8 768.7,263.8 774.3,258.6 780.0,253.5 780.0,340.0" fill="url(#delGrad)" class="anim" style="animation-delay:300ms;"/>
<polyline points="90.0,326.4 95.7,327.8 101.3,326.5 107.0,327.8 112.6,333.6 118.3,324.8 123.9,324.8 129.6,323.8 135.2,323.5 140.9,323.2 146.6,323.2 152.2,307.2 157.9,307.2 163.5,307.1 169.2,289.0 174.8,288.9 180.5,288.9 186.1,288.9 191.8,288.9 197.5,288.9 203.1,288.9 208.8,279.4 214.4,265.0 220.1,264.9 225.7,264.9 231.4,264.9 237.0,264.9 242.7,264.9 248.4,264.8 254.0,264.7 259.7,264.7 265.3,264.7 271.0,264.7 276.6,264.7 282.3,264.8 288.0,264.7 293.6,264.7 299.3,264.7 304.9,264.7 310.6,264.7 316.2,264.7 321.9,264.7 327.5,264.8 333.2,264.3 338.9,264.3 344.5,264.3 350.2,264.3 355.8,264.3 361.5,264.3 367.1,264.3 372.8,264.3 378.4,264.3 384.1,264.3 389.8,264.3 395.4,264.4 401.1,265.2 406.7,264.7 412.4,263.9 418.0,263.8 423.7,263.8 429.3,263.8 435.0,263.8 440.7,263.8 446.3,263.8 452.0,263.8 457.6,263.8 463.3,263.8 468.9,263.8 474.6,263.8 480.2,263.8 485.9,263.8 491.6,263.8 497.2,263.8 502.9,263.8 508.5,263.8 514.2,263.8 519.8,263.8 525.5,263.8 531.1,263.8 536.8,263.8 542.5,263.8 548.1,263.8 553.8,263.8 559.4,263.8 565.1,263.8 570.7,263.8 576.4,263.8 582.0,263.8 587.7,263.8 593.4,263.8 599.0,263.8 604.7,263.8 610.3,263.8 616.0,263.8 621.6,263.8 627.3,263.8 633.0,263.8 638.6,263.8 644.3,263.8 649.9,263.8 655.6,263.8 661.2,263.8 666.9,263.8 672.5,263.8 678.2,263.8 683.9,263.8 689.5,263.8 695.2,263.8 700.8,263.8 706.5,263.8 712.1,263.8 717.8,263.8 723.4,263.8 729.1,263.8 734.8,263.8 740.4,263.8 746.1,263.8 751.7,263.8 757.4,263.8 763.0,263.8 768.7,263.8" fill="none" stroke="#f85149" stroke-width="1.5" stroke-linejoin="round" class="anim" style="animation-delay:350ms;"/>
<polyline points="768.7,263.8 774.3,258.6 780.0,253.5" fill="none" stroke="#f85149" stroke-width="1" stroke-dasharray="5,4" stroke-linejoin="round" opacity="0.6" class="anim" style="animation-delay:350ms;"/>
<polyline points="90.0,340.0 95.7,340.0 101.3,340.0 107.0,340.0 112.6,340.0 118.3,340.0 123.9,340.0 129.6,340.0 135.2,308.0 140.9,308.0 146.6,308.0 152.2,308.0 157.9,308.0 163.5,308.0 169.2,308.0 174.8,308.0 180.5,308.0 186.1,308.0 191.8,308.0 197.5,308.0 203.1,308.0 208.8,308.0 214.4,308.0 220.1,308.0 225.7,308.0 231.4,308.0 237.0,308.0 242.7,308.0 248.4,308.0 254.0,308.0 259.7,308.0 265.3,308.0 271.0,308.0 276.6,308.0 282.3,276.0 288.0,276.0 293.6,276.0 299.3,276.0 304.9,276.0 310.6,276.0 316.2,276.0 321.9,276.0 327.5,244.0 333.2,244.0 338.9,244.0 344.5,244.0 350.2,244.0 355.8,244.0 361.5,244.0 367.1,244.0 372.8,244.0 378.4,244.0 384.1,244.0 389.8,244.0 395.4,244.0 401.1,244.0 406.7,244.0 412.4,244.0 418.0,180.0 423.7,180.0 429.3,180.0 435.0,180.0 440.7,180.0 446.3,180.0 452.0,180.0 457.6,180.0 463.3,180.0 468.9,180.0 474.6,180.0 480.2,180.0 485.9,180.0 491.6,180.0 497.2,180.0 502.9,180.0 508.5,180.0 514.2,180.0 519.8,180.0 525.5,180.0 531.1,180.0 536.8,180.0 542.5,180.0 548.1,180.0 553.8,180.0 559.4,180.0 565.1,180.0 570.7,180.0 576.4,180.0 582.0,180.0 587.7,180.0 593.4,180.0 599.0,180.0 604.7,180.0 610.3,180.0 616.0,180.0 621.6,180.0 627.3,180.0 633.0,180.0 638.6,180.0 644.3,180.0 649.9,180.0 655.6,180.0 661.2,180.0 666.9,180.0 672.5,180.0 678.2,180.0 683.9,180.0 689.5,180.0 695.2,180.0 700.8,180.0 706.5,180.0 712.1,180.0 717.8,180.0 723.4,180.0 729.1,180.0 734.8,180.0 740.4,180.0 746.1,180.0 751.7,180.0 757.4,180.0 763.0,180.0 768.7,180.0" fill="none" stroke="#e3b341" stroke-width="1.5" stroke-dasharray="4,3" stroke-linejoin="round" class="anim" style="animation-delay:400ms;"/>
<polyline points="768.7,180.0 774.3,180.0 780.0,148.0" fill="none" stroke="#e3b341" stroke-width="1" stroke-dasharray="3,5" stroke-linejoin="round" opacity="0.5" class="anim" style="animation-delay:400ms;"/>
<text x="90" y="90" class="subtitle">Lines Added vs Deleted (per snapshot)</text>
<text x="90" y="400" class="subtitle">Programming Language Development (%)</text>
<line x1="90" y1="650.0" x2="780" y2="650.0" stroke="#21262d" stroke-width="1"/>
<text x="82" y="654.0" text-anchor="end" class="axis-label">0%</text>
<line x1="90" y1="590.0" x2="780" y2="590.0" stroke="#21262d" stroke-width="1"/>
<text x="82" y="594.0" text-anchor="end" class="axis-label">25%</text>
<line x1="90" y1="530.0" x2="780" y2="530.0" stroke="#21262d" stroke-width="1"/>
<text x="82" y="534.0" text-anchor="end" class="axis-label">50%</text>
<line x1="90" y1="470.0" x2="780" y2="470.0" stroke="#21262d" stroke-width="1"/>
<text x="82" y="474.0" text-anchor="end" class="axis-label">75%</text>
<line x1="90" y1="410.0" x2="780" y2="410.0" stroke="#21262d" stroke-width="1"/>
<text x="82" y="414.0" text-anchor="end" class="axis-label">100%</text>
<polygon points="90.0,650.0 95.7,650.0 101.3,650.0 107.0,650.0 112.6,650.0 118.3,650.0 123.9,650.0 129.6,650.0 135.2,528.2 140.9,528.5 146.6,529.7 152.2,499.3 157.9,499.3 163.5,502.9 169.2,485.0 174.8,485.1 180.5,485.4 186.1,485.4 191.8,485.4 197.5,485.4 203.1,485.4 208.8,496.4 214.4,496.7 220.1,491.0 225.7,491.0 231.4,491.0 237.0,491.7 242.7,491.8 248.4,494.0 254.0,494.0 259.7,494.4 265.3,494.4 271.0,494.4 276.6,494.4 282.3,507.6 288.0,507.6 293.6,507.9 299.3,507.9 304.9,507.9 310.6,506.3 316.2,506.4 321.9,506.8 327.5,506.9 333.2,506.8 338.9,507.5 344.5,507.5 350.2,507.5 355.8,507.5 361.5,507.5 367.1,507.5 372.8,507.5 378.4,507.5 384.1,507.5 389.8,507.5 395.4,507.5 401.1,507.5 406.7,507.5 412.4,508.6 418.0,508.6 423.7,508.6 429.3,508.6 435.0,508.6 440.7,509.5 446.3,509.8 452.0,509.8 457.6,509.8 463.3,509.8 468.9,509.8 474.6,509.8 480.2,509.8 485.9,509.8 491.6,510.9 497.2,510.9 502.9,510.9 508.5,510.9 514.2,510.9 519.8,510.9 525.5,510.9 531.1,510.9 536.8,510.9 542.5,510.9 548.1,510.9 553.8,510.9 559.4,510.9 565.1,510.9 570.7,510.9 576.4,510.9 582.0,510.9 587.7,510.9 593.4,510.9 599.0,510.9 604.7,510.9 610.3,510.9 616.0,510.9 621.6,510.9 627.3,510.9 633.0,510.9 638.6,510.9 644.3,510.9 649.9,510.9 655.6,510.9 661.2,510.9 666.9,510.9 672.5,510.9 678.2,510.9 683.9,510.9 689.5,510.9 695.2,510.9 700.8,510.9 706.5,510.9 712.1,510.9 717.8,510.9 723.4,510.9 729.1,510.9 734.8,510.9 740.4,510.9 746.1,510.9 751.7,510.9 757.4,510.9 763.0,510.9 768.7,510.9 774.3,513.1 780.0,515.2 780.0,650.0 774.3,650.0 768.7,650.0 763.0,650.0 757.4,650.0 751.7,650.0 746.1,650.0 740.4,650.0 734.8,650.0 729.1,650.0 723.4,650.0 717.8,650.0 712.1,650.0 706.5,650.0 700.8,650.0 695.2,650.0 689.5,650.0 683.9,650.0 678.2,650.0 672.5,650.0 666.9,650.0 661.2,650.0 655.6,650.0 649.9,650.0 644.3,650.0 638.6,650.0 633.0,650.0 627.3,650.0 621.6,650.0 616.0,650.0 610.3,650.0 604.7,650.0 599.0,650.0 593.4,650.0 587.7,650.0 582.0,650.0 576.4,650.0 570.7,650.0 565.1,650.0 559.4,650.0 553.8,650.0 548.1,650.0 542.5,650.0 536.8,650.0 531.1,650.0 525.5,650.0 519.8,650.0 514.2,650.0 508.5,650.0 502.9,650.0 497.2,650.0 491.6,650.0 485.9,650.0 480.2,650.0 474.6,650.0 468.9,650.0 463.3,650.0 457.6,650.0 452.0,650.0 446.3,650.0 440.7,650.0 435.0,650.0 429.3,650.0 423.7,650.0 418.0,650.0 412.4,650.0 406.7,650.0 401.1,650.0 395.4,650.0 389.8,650.0 384.1,650.0 378.4,650.0 372.8,650.0 367.1,650.0 361.5,650.0 355.8,650.0 350.2,650.0 344.5,650.0 338.9,650.0 333.2,650.0 327.5,650.0 321.9,650.0 316.2,650.0 310.6,650.0 304.9,650.0 299.3,650.0 293.6,650.0 288.0,650.0 282.3,650.0 276.6,650.0 271.0,650.0 265.3,650.0 259.7,650.0 254.0,650.0 248.4,650.0 242.7,650.0 237.0,650.0 231.4,650.0 225.7,650.0 220.1,650.0 214.4,650.0 208.8,650.0 203.1,650.0 197.5,650.0 191.8,650.0 186.1,650.0 180.5,650.0 174.8,650.0 169.2,650.0 163.5,650.0 157.9,650.0 152.2,650.0 146.6,650.0 140.9,650.0 135.2,650.0 129.6,650.0 123.9,650.0 118.3,650.0 112.6,650.0 107.0,650.0 101.3,650.0 95.7,650.0 90.0,650.0" fill="#e34c26" opacity="0.6" class="anim" style="animation-delay:500ms;"/>
<polygon points="90.0,650.0 95.7,650.0 101.3,650.0 107.0,650.0 112.6,650.0 118.3,650.0 123.9,650.0 129.6,650.0 135.2,488.4 140.9,488.0 146.6,489.0 152.2,476.0 157.9,476.0 163.5,477.2 169.2,460.1 174.8,460.2 180.5,460.6 186.1,460.6 191.8,460.6 197.5,460.6 203.1,460.6 208.8,473.0 214.4,473.5 220.1,469.5 225.7,469.5 231.4,469.5 237.0,469.7 242.7,469.7 248.4,469.7 254.0,469.7 259.7,469.7 265.3,469.7 271.0,469.7 276.6,469.7 282.3,455.6 288.0,455.6 293.6,455.4 299.3,455.4 304.9,455.4 310.6,454.3 316.2,454.3 321.9,455.0 327.5,455.1 333.2,454.9 338.9,455.9 344.5,455.9 350.2,455.9 355.8,455.9 361.5,455.9 367.1,455.9 372.8,455.9 378.4,455.9 384.1,455.9 389.8,455.9 395.4,455.9 401.1,455.9 406.7,455.9 412.4,455.8 418.0,455.8 423.7,455.8 429.3,455.8 435.0,455.8 440.7,457.0 446.3,457.4 452.0,457.4 457.6,457.4 463.3,457.4 468.9,457.4 474.6,457.4 480.2,457.4 485.9,457.4 491.6,458.2 497.2,458.2 502.9,458.2 508.5,458.2 514.2,458.2 519.8,458.2 525.5,458.2 531.1,458.2 536.8,458.2 542.5,458.2 548.1,458.2 553.8,458.2 559.4,458.2 565.1,458.2 570.7,458.2 576.4,458.2 582.0,458.2 587.7,458.2 593.4,458.2 599.0,458.2 604.7,458.2 610.3,458.2 616.0,458.2 621.6,458.2 627.3,458.2 633.0,458.2 638.6,458.2 644.3,458.2 649.9,458.2 655.6,458.2 661.2,458.2 666.9,458.2 672.5,458.2 678.2,458.2 683.9,458.2 689.5,458.2 695.2,458.2 700.8,458.2 706.5,458.2 712.1,458.2 717.8,458.2 723.4,458.2 729.1,458.2 734.8,458.2 740.4,458.2 746.1,458.2 751.7,458.2 757.4,458.2 763.0,458.2 768.7,458.2 774.3,456.7 780.0,455.3 780.0,515.2 774.3,513.1 768.7,510.9 763.0,510.9 757.4,510.9 751.7,510.9 746.1,510.9 740.4,510.9 734.8,510.9 729.1,510.9 723.4,510.9 717.8,510.9 712.1,510.9 706.5,510.9 700.8,510.9 695.2,510.9 689.5,510.9 683.9,510.9 678.2,510.9 672.5,510.9 666.9,510.9 661.2,510.9 655.6,510.9 649.9,510.9 644.3,510.9 638.6,510.9 633.0,510.9 627.3,510.9 621.6,510.9 616.0,510.9 610.3,510.9 604.7,510.9 599.0,510.9 593.4,510.9 587.7,510.9 582.0,510.9 576.4,510.9 570.7,510.9 565.1,510.9 559.4,510.9 553.8,510.9 548.1,510.9 542.5,510.9 536.8,510.9 531.1,510.9 525.5,510.9 519.8,510.9 514.2,510.9 508.5,510.9 502.9,510.9 497.2,510.9 491.6,510.9 485.9,509.8 480.2,509.8 474.6,509.8 468.9,509.8 463.3,509.8 457.6,509.8 452.0,509.8 446.3,509.8 440.7,509.5 435.0,508.6 429.3,508.6 423.7,508.6 418.0,508.6 412.4,508.6 406.7,507.5 401.1,507.5 395.4,507.5 389.8,507.5 384.1,507.5 378.4,507.5 372.8,507.5 367.1,507.5 361.5,507.5 355.8,507.5 350.2,507.5 344.5,507.5 338.9,507.5 333.2,506.8 327.5,506.9 321.9,506.8 316.2,506.4 310.6,506.3 304.9,507.9 299.3,507.9 293.6,507.9 288.0,507.6 282.3,507.6 276.6,494.4 271.0,494.4 265.3,494.4 259.7,494.4 254.0,494.0 248.4,494.0 242.7,491.8 237.0,491.7 231.4,491.0 225.7,491.0 220.1,491.0 214.4,496.7 208.8,496.4 203.1,485.4 197.5,485.4 191.8,485.4 186.1,485.4 180.5,485.4 174.8,485.1 169.2,485.0 163.5,502.9 157.9,499.3 152.2,499.3 146.6,529.7 140.9,528.5 135.2,528.2 129.6,650.0 123.9,650.0 118.3,650.0 112.6,650.0 107.0,650.0 101.3,650.0 95.7,650.0 90.0,650.0" fill="#f1e05a" opacity="0.6" class="anim" style="animation-delay:600ms;"/>
<polygon points="90.0,650.0 95.7,650.0 101.3,650.0 107.0,650.0 112.6,650.0 118.3,650.0 123.9,650.0 129.6,650.0 135.2,455.5 140.9,455.4 146.6,455.1 152.2,447.0 157.9,447.0 163.5,448.2 169.2,438.9 174.8,439.0 180.5,439.6 186.1,439.6 191.8,439.6 197.5,439.6 203.1,439.6 208.8,445.6 214.4,445.6 220.1,443.3 225.7,443.3 231.4,443.3 237.0,443.6 242.7,443.6 248.4,444.1 254.0,444.1 259.7,444.1 265.3,444.1 271.0,444.1 276.6,444.1 282.3,437.5 288.0,437.5 293.6,437.5 299.3,437.5 304.9,437.5 310.6,437.5 316.2,437.5 321.9,438.4 327.5,438.5 333.2,438.3 338.9,439.3 344.5,439.3 350.2,439.3 355.8,439.3 361.5,439.3 367.1,439.3 372.8,439.3 378.4,439.3 384.1,439.3 389.8,439.3 395.4,439.3 401.1,439.3 406.7,439.3 412.4,439.4 418.0,439.4 423.7,439.4 429.3,439.4 435.0,439.4 440.7,440.7 446.3,441.1 452.0,441.1 457.6,441.1 463.3,441.1 468.9,441.1 474.6,441.1 480.2,441.1 485.9,441.1 491.6,442.0 497.2,442.0 502.9,442.0 508.5,442.0 514.2,442.0 519.8,442.0 525.5,442.0 531.1,442.0 536.8,442.0 542.5,442.0 548.1,442.0 553.8,442.0 559.4,442.0 565.1,442.0 570.7,442.0 576.4,442.0 582.0,442.0 587.7,442.0 593.4,442.0 599.0,442.0 604.7,442.0 610.3,442.0 616.0,442.0 621.6,442.0 627.3,442.0 633.0,442.0 638.6,442.0 644.3,442.0 649.9,442.0 655.6,442.0 661.2,442.0 666.9,442.0 672.5,442.0 678.2,442.0 683.9,442.0 689.5,442.0 695.2,442.0 700.8,442.0 706.5,442.0 712.1,442.0 717.8,442.0 723.4,442.0 729.1,442.0 734.8,442.0 740.4,442.0 746.1,442.0 751.7,442.0 757.4,442.0 763.0,442.0 768.7,442.0 774.3,442.0 780.0,442.0 780.0,455.3 774.3,456.7 768.7,458.2 763.0,458.2 757.4,458.2 751.7,458.2 746.1,458.2 740.4,458.2 734.8,458.2 729.1,458.2 723.4,458.2 717.8,458.2 712.1,458.2 706.5,458.2 700.8,458.2 695.2,458.2 689.5,458.2 683.9,458.2 678.2,458.2 672.5,458.2 666.9,458.2 661.2,458.2 655.6,458.2 649.9,458.2 644.3,458.2 638.6,458.2 633.0,458.2 627.3,458.2 621.6,458.2 616.0,458.2 610.3,458.2 604.7,458.2 599.0,458.2 593.4,458.2 587.7,458.2 582.0,458.2 576.4,458.2 570.7,458.2 565.1,458.2 559.4,458.2 553.8,458.2 548.1,458.2 542.5,458.2 536.8,458.2 531.1,458.2 525.5,458.2 519.8,458.2 514.2,458.2 508.5,458.2 502.9,458.2 497.2,458.2 491.6,458.2 485.9,457.4 480.2,457.4 474.6,457.4 468.9,457.4 463.3,457.4 457.6,457.4 452.0,457.4 446.3,457.4 440.7,457.0 435.0,455.8 429.3,455.8 423.7,455.8 418.0,455.8 412.4,455.8 406.7,455.9 401.1,455.9 395.4,455.9 389.8,455.9 384.1,455.9 378.4,455.9 372.8,455.9 367.1,455.9 361.5,455.9 355.8,455.9 350.2,455.9 344.5,455.9 338.9,455.9 333.2,454.9 327.5,455.1 321.9,455.0 316.2,454.3 310.6,454.3 304.9,455.4 299.3,455.4 293.6,455.4 288.0,455.6 282.3,455.6 276.6,469.7 271.0,469.7 265.3,469.7 259.7,469.7 254.0,469.7 248.4,469.7 242.7,469.7 237.0,469.7 231.4,469.5 225.7,469.5 220.1,469.5 214.4,473.5 208.8,473.0 203.1,460.6 197.5,460.6 191.8,460.6 186.1,460.6 180.5,460.6 174.8,460.2 169.2,460.1 163.5,477.2 157.9,476.0 152.2,476.0 146.6,489.0 140.9,488.0 135.2,488.4 129.6,650.0 123.9,650.0 118.3,650.0 112.6,650.0 107.0,650.0 101.3,650.0 95.7,650.0 90.0,650.0" fill="#3572A5" opacity="0.6" class="anim" style="animation-delay:700ms;"/>
<polygon points="90.0,650.0 95.7,650.0 101.3,650.0 107.0,650.0 112.6,650.0 118.3,650.0 123.9,650.0 129.6,650.0 135.2,442.3 140.9,442.0 146.6,441.6 152.2,439.5 157.9,439.5 163.5,439.4 169.2,432.3 174.8,432.2 180.5,432.6 186.1,432.6 191.8,432.6 197.5,432.6 203.1,432.6 208.8,439.3 214.4,439.3 220.1,437.4 225.7,437.4 231.4,437.4 237.0,437.3 242.7,437.3 248.4,437.1 254.0,437.1 259.7,437.1 265.3,437.1 271.0,437.1 276.6,437.1 282.3,428.7 288.0,428.6 293.6,428.5 299.3,428.5 304.9,428.5 310.6,427.3 316.2,427.3 321.9,427.1 327.5,427.1 333.2,427.1 338.9,427.0 344.5,427.0 350.2,427.0 355.8,427.0 361.5,427.0 367.1,427.0 372.8,427.0 378.4,427.0 384.1,427.0 389.8,427.0 395.4,427.0 401.1,427.0 406.7,427.0 412.4,427.0 418.0,427.1 423.7,427.1 429.3,427.1 435.0,427.1 440.7,428.4 446.3,428.9 452.0,428.9 457.6,428.9 463.3,428.9 468.9,428.9 474.6,428.9 480.2,428.9 485.9,428.9 491.6,428.7 497.2,428.7 502.9,428.7 508.5,428.7 514.2,428.7 519.8,428.7 525.5,428.7 531.1,428.7 536.8,428.7 542.5,428.7 548.1,428.7 553.8,428.7 559.4,428.7 565.1,428.7 570.7,428.7 576.4,428.7 582.0,428.7 587.7,428.7 593.4,428.7 599.0,428.7 604.7,428.7 610.3,428.7 616.0,428.7 621.6,428.7 627.3,428.7 633.0,428.7 638.6,428.7 644.3,428.7 649.9,428.7 655.6,428.7 661.2,428.7 666.9,428.7 672.5,428.7 678.2,428.7 683.9,428.7 689.5,428.7 695.2,428.7 700.8,428.7 706.5,428.7 712.1,428.7 717.8,428.7 723.4,428.7 729.1,428.7 734.8,428.7 740.4,428.7 746.1,428.7 751.7,428.7 757.4,428.7 763.0,428.7 768.7,428.7 774.3,427.9 780.0,427.0 780.0,442.0 774.3,442.0 768.7,442.0 763.0,442.0 757.4,442.0 751.7,442.0 746.1,442.0 740.4,442.0 734.8,442.0 729.1,442.0 723.4,442.0 717.8,442.0 712.1,442.0 706.5,442.0 700.8,442.0 695.2,442.0 689.5,442.0 683.9,442.0 678.2,442.0 672.5,442.0 666.9,442.0 661.2,442.0 655.6,442.0 649.9,442.0 644.3,442.0 638.6,442.0 633.0,442.0 627.3,442.0 621.6,442.0 616.0,442.0 610.3,442.0 604.7,442.0 599.0,442.0 593.4,442.0 587.7,442.0 582.0,442.0 576.4,442.0 570.7,442.0 565.1,442.0 559.4,442.0 553.8,442.0 548.1,442.0 542.5,442.0 536.8,442.0 531.1,442.0 525.5,442.0 519.8,442.0 514.2,442.0 508.5,442.0 502.9,442.0 497.2,442.0 491.6,442.0 485.9,441.1 480.2,441.1 474.6,441.1 468.9,441.1 463.3,441.1 457.6,441.1 452.0,441.1 446.3,441.1 440.7,440.7 435.0,439.4 429.3,439.4 423.7,439.4 418.0,439.4 412.4,439.4 406.7,439.3 401.1,439.3 395.4,439.3 389.8,439.3 384.1,439.3 378.4,439.3 372.8,439.3 367.1,439.3 361.5,439.3 355.8,439.3 350.2,439.3 344.5,439.3 338.9,439.3 333.2,438.3 327.5,438.5 321.9,438.4 316.2,437.5 310.6,437.5 304.9,437.5 299.3,437.5 293.6,437.5 288.0,437.5 282.3,437.5 276.6,444.1 271.0,444.1 265.3,444.1 259.7,444.1 254.0,444.1 248.4,444.1 242.7,443.6 237.0,443.6 231.4,443.3 225.7,443.3 220.1,443.3 214.4,445.6 208.8,445.6 203.1,439.6 197.5,439.6 191.8,439.6 186.1,439.6 180.5,439.6 174.8,439.0 169.2,438.9 163.5,448.2 157.9,447.0 152.2,447.0 146.6,455.1 140.9,455.4 135.2,455.5 129.6,650.0 123.9,650.0 118.3,650.0 112.6,650.0 107.0,650.0 101.3,650.0 95.7,650.0 90.0,650.0" fill="#663399" opacity="0.6" class="anim" style="animation-delay:800ms;"/>
<polygon points="90.0,650.0 95.7,650.0 101.3,650.0 107.0,650.0 112.6,650.0 118.3,650.0 123.9,650.0 129.6,650.0 135.2,436.6 140.9,436.3 146.6,435.9 152.2,432.2 157.9,432.2 163.5,432.2 169.2,426.2 174.8,426.1 180.5,426.0 186.1,426.0 191.8,426.0 197.5,426.0 203.1,426.0 208.8,430.8 214.4,430.7 220.1,429.3 225.7,429.3 231.4,429.3 237.0,429.2 242.7,429.2 248.4,428.9 254.0,428.9 259.7,428.8 265.3,428.8 271.0,428.8 276.6,428.8 282.3,423.0 288.0,422.9 293.6,422.9 299.3,422.9 304.9,422.9 310.6,422.0 316.2,422.0 321.9,421.9 327.5,421.9 333.2,421.9 338.9,421.8 344.5,421.8 350.2,421.8 355.8,421.8 361.5,421.8 367.1,421.8 372.8,421.8 378.4,421.8 384.1,421.8 389.8,421.8 395.4,421.8 401.1,421.8 406.7,421.8 412.4,421.7 418.0,421.8 423.7,421.8 429.3,421.8 435.0,421.8 440.7,423.2 446.3,423.6 452.0,423.6 457.6,423.6 463.3,423.6 468.9,423.6 474.6,423.6 480.2,423.6 485.9,423.6 491.6,423.5 497.2,423.5 502.9,423.5 508.5,423.5 514.2,423.5 519.8,423.5 525.5,423.5 531.1,423.5 536.8,423.5 542.5,423.5 548.1,423.5 553.8,423.5 559.4,423.5 565.1,423.5 570.7,423.5 576.4,423.5 582.0,423.5 587.7,423.5 593.4,423.5 599.0,423.5 604.7,423.5 610.3,423.5 616.0,423.5 621.6,423.5 627.3,423.5 633.0,423.5 638.6,423.5 644.3,423.5 649.9,423.5 655.6,423.5 661.2,423.5 666.9,423.5 672.5,423.5 678.2,423.5 683.9,423.5 689.5,423.5 695.2,423.5 700.8,423.5 706.5,423.5 712.1,423.5 717.8,423.5 723.4,423.5 729.1,423.5 734.8,423.5 740.4,423.5 746.1,423.5 751.7,423.5 757.4,423.5 763.0,423.5 768.7,423.5 774.3,422.9 780.0,422.3 780.0,427.0 774.3,427.9 768.7,428.7 763.0,428.7 757.4,428.7 751.7,428.7 746.1,428.7 740.4,428.7 734.8,428.7 729.1,428.7 723.4,428.7 717.8,428.7 712.1,428.7 706.5,428.7 700.8,428.7 695.2,428.7 689.5,428.7 683.9,428.7 678.2,428.7 672.5,428.7 666.9,428.7 661.2,428.7 655.6,428.7 649.9,428.7 644.3,428.7 638.6,428.7 633.0,428.7 627.3,428.7 621.6,428.7 616.0,428.7 610.3,428.7 604.7,428.7 599.0,428.7 593.4,428.7 587.7,428.7 582.0,428.7 576.4,428.7 570.7,428.7 565.1,428.7 559.4,428.7 553.8,428.7 548.1,428.7 542.5,428.7 536.8,428.7 531.1,428.7 525.5,428.7 519.8,428.7 514.2,428.7 508.5,428.7 502.9,428.7 497.2,428.7 491.6,428.7 485.9,428.9 480.2,428.9 474.6,428.9 468.9,428.9 463.3,428.9 457.6,428.9 452.0,428.9 446.3,428.9 440.7,428.4 435.0,427.1 429.3,427.1 423.7,427.1 418.0,427.1 412.4,427.0 406.7,427.0 401.1,427.0 395.4,427.0 389.8,427.0 384.1,427.0 378.4,427.0 372.8,427.0 367.1,427.0 361.5,427.0 355.8,427.0 350.2,427.0 344.5,427.0 338.9,427.0 333.2,427.1 327.5,427.1 321.9,427.1 316.2,427.3 310.6,427.3 304.9,428.5 299.3,428.5 293.6,428.5 288.0,428.6 282.3,428.7 276.6,437.1 271.0,437.1 265.3,437.1 259.7,437.1 254.0,437.1 248.4,437.1 242.7,437.3 237.0,437.3 231.4,437.4 225.7,437.4 220.1,437.4 214.4,439.3 208.8,439.3 203.1,432.6 197.5,432.6 191.8,432.6 186.1,432.6 180.5,432.6 174.8,432.2 169.2,432.3 163.5,439.4 157.9,439.5 152.2,439.5 146.6,441.6 140.9,442.0 135.2,442.3 129.6,650.0 123.9,650.0 118.3,650.0 112.6,650.0 107.0,650.0 101.3,650.0 95.7,650.0 90.0,650.0" fill="#083fa1" opacity="0.6" class="anim" style="animation-delay:900ms;"/>
<polygon points="90.0,650.0 95.7,650.0 101.3,650.0 107.0,650.0 112.6,650.0 118.3,650.0 123.9,650.0 129.6,650.0 135.2,428.3 140.9,428.1 146.6,427.8 152.2,425.3 157.9,425.3 163.5,425.2 169.2,421.1 174.8,421.1 180.5,421.0 186.1,421.0 191.8,421.0 197.5,421.0 203.1,421.0 208.8,424.3 214.4,424.2 220.1,423.3 225.7,423.3 231.4,423.3 237.0,423.2 242.7,423.2 248.4,423.0 254.0,423.0 259.7,422.9 265.3,422.9 271.0,422.9 276.6,422.9 282.3,418.9 288.0,418.9 293.6,418.8 299.3,418.8 304.9,418.8 310.6,418.3 316.2,418.3 321.9,418.2 327.5,418.2 333.2,418.2 338.9,418.1 344.5,418.1 350.2,418.1 355.8,418.1 361.5,418.1 367.1,418.1 372.8,418.1 378.4,418.1 384.1,418.1 389.8,418.1 395.4,418.1 401.1,418.1 406.7,418.1 412.4,418.1 418.0,418.1 423.7,418.1 429.3,418.1 435.0,418.1 440.7,418.0 446.3,418.0 452.0,418.0 457.6,418.0 463.3,418.0 468.9,418.0 474.6,418.0 480.2,418.0 485.9,418.0 491.6,417.9 497.2,417.9 502.9,417.9 508.5,417.9 514.2,417.9 519.8,417.9 525.5,417.9 531.1,417.9 536.8,417.9 542.5,417.9 548.1,417.9 553.8,417.9 559.4,417.9 565.1,417.9 570.7,417.9 576.4,417.9 582.0,417.9 587.7,417.9 593.4,417.9 599.0,417.9 604.7,417.9 610.3,417.9 616.0,417.9 621.6,417.9 627.3,417.9 633.0,417.9 638.6,417.9 644.3,417.9 649.9,417.9 655.6,417.9 661.2,417.9 666.9,417.9 672.5,417.9 678.2,417.9 683.9,417.9 689.5,417.9 695.2,417.9 700.8,417.9 706.5,417.9 712.1,417.9 717.8,417.9 723.4,417.9 729.1,417.9 734.8,417.9 740.4,417.9 746.1,417.9 751.7,417.9 757.4,417.9 763.0,417.9 768.7,417.9 774.3,417.3 780.0,416.7 780.0,422.3 774.3,422.9 768.7,423.5 763.0,423.5 757.4,423.5 751.7,423.5 746.1,423.5 740.4,423.5 734.8,423.5 729.1,423.5 723.4,423.5 717.8,423.5 712.1,423.5 706.5,423.5 700.8,423.5 695.2,423.5 689.5,423.5 683.9,423.5 678.2,423.5 672.5,423.5 666.9,423.5 661.2,423.5 655.6,423.5 649.9,423.5 644.3,423.5 638.6,423.5 633.0,423.5 627.3,423.5 621.6,423.5 616.0,423.5 610.3,423.5 604.7,423.5 599.0,423.5 593.4,423.5 587.7,423.5 582.0,423.5 576.4,423.5 570.7,423.5 565.1,423.5 559.4,423.5 553.8,423.5 548.1,423.5 542.5,423.5 536.8,423.5 531.1,423.5 525.5,423.5 519.8,423.5 514.2,423.5 508.5,423.5 502.9,423.5 497.2,423.5 491.6,423.5 485.9,423.6 480.2,423.6 474.6,423.6 468.9,423.6 463.3,423.6 457.6,423.6 452.0,423.6 446.3,423.6 440.7,423.2 435.0,421.8 429.3,421.8 423.7,421.8 418.0,421.8 412.4,421.7 406.7,421.8 401.1,421.8 395.4,421.8 389.8,421.8 384.1,421.8 378.4,421.8 372.8,421.8 367.1,421.8 361.5,421.8 355.8,421.8 350.2,421.8 344.5,421.8 338.9,421.8 333.2,421.9 327.5,421.9 321.9,421.9 316.2,422.0 310.6,422.0 304.9,422.9 299.3,422.9 293.6,422.9 288.0,422.9 282.3,423.0 276.6,428.8 271.0,428.8 265.3,428.8 259.7,428.8 254.0,428.9 248.4,428.9 242.7,429.2 237.0,429.2 231.4,429.3 225.7,429.3 220.1,429.3 214.4,430.7 208.8,430.8 203.1,426.0 197.5,426.0 191.8,426.0 186.1,426.0 180.5,426.0 174.8,426.1 169.2,426.2 163.5,432.2 157.9,432.2 152.2,432.2 146.6,435.9 140.9,436.3 135.2,436.6 129.6,650.0 123.9,650.0 118.3,650.0 112.6,650.0 107.0,650.0 101.3,650.0 95.7,650.0 90.0,650.0" fill="#F05138" opacity="0.6" class="anim" style="animation-delay:1000ms;"/>
<polygon points="90.0,650.0 95.7,650.0 101.3,650.0 107.0,650.0 112.6,650.0 118.3,650.0 123.9,650.0 129.6,650.0 135.2,418.7 140.9,418.6 146.6,418.5 152.2,417.3 157.9,417.3 163.5,417.2 169.2,415.3 174.8,415.3 180.5,415.2 186.1,415.2 191.8,415.2 197.5,415.2 203.1,415.2 208.8,416.8 214.4,416.8 220.1,416.3 225.7,416.3 231.4,416.3 237.0,416.3 242.7,416.3 248.4,416.2 254.0,416.2 259.7,416.2 265.3,416.2 271.0,416.2 276.6,416.2 282.3,414.2 288.0,414.2 293.6,414.2 299.3,414.2 304.9,414.2 310.6,413.9 316.2,413.9 321.9,413.9 327.5,413.9 333.2,413.9 338.9,413.9 344.5,413.9 350.2,413.9 355.8,413.9 361.5,413.9 367.1,413.9 372.8,413.9 378.4,413.9 384.1,413.9 389.8,413.9 395.4,413.9 401.1,413.9 406.7,413.9 412.4,413.8 418.0,413.8 423.7,413.8 429.3,413.8 435.0,413.8 440.7,413.8 446.3,413.8 452.0,413.8 457.6,413.8 463.3,413.8 468.9,413.8 474.6,413.8 480.2,413.8 485.9,413.8 491.6,413.8 497.2,413.8 502.9,413.8 508.5,413.8 514.2,413.8 519.8,413.8 525.5,413.8 531.1,413.8 536.8,413.8 542.5,413.8 548.1,413.8 553.8,413.8 559.4,413.8 565.1,413.8 570.7,413.8 576.4,413.8 582.0,413.8 587.7,413.8 593.4,413.8 599.0,413.8 604.7,413.8 610.3,413.8 616.0,413.8 621.6,413.8 627.3,413.8 633.0,413.8 638.6,413.8 644.3,413.8 649.9,413.8 655.6,413.8 661.2,413.8 666.9,413.8 672.5,413.8 678.2,413.8 683.9,413.8 689.5,413.8 695.2,413.8 700.8,413.8 706.5,413.8 712.1,413.8 717.8,413.8 723.4,413.8 729.1,413.8 734.8,413.8 740.4,413.8 746.1,413.8 751.7,413.8 757.4,413.8 763.0,413.8 768.7,413.8 774.3,413.6 780.0,413.4 780.0,416.7 774.3,417.3 768.7,417.9 763.0,417.9 757.4,417.9 751.7,417.9 746.1,417.9 740.4,417.9 734.8,417.9 729.1,417.9 723.4,417.9 717.8,417.9 712.1,417.9 706.5,417.9 700.8,417.9 695.2,417.9 689.5,417.9 683.9,417.9 678.2,417.9 672.5,417.9 666.9,417.9 661.2,417.9 655.6,417.9 649.9,417.9 644.3,417.9 638.6,417.9 633.0,417.9 627.3,417.9 621.6,417.9 616.0,417.9 610.3,417.9 604.7,417.9 599.0,417.9 593.4,417.9 587.7,417.9 582.0,417.9 576.4,417.9 570.7,417.9 565.1,417.9 559.4,417.9 553.8,417.9 548.1,417.9 542.5,417.9 536.8,417.9 531.1,417.9 525.5,417.9 519.8,417.9 514.2,417.9 508.5,417.9 502.9,417.9 497.2,417.9 491.6,417.9 485.9,418.0 480.2,418.0 474.6,418.0 468.9,418.0 463.3,418.0 457.6,418.0 452.0,418.0 446.3,418.0 440.7,418.0 435.0,418.1 429.3,418.1 423.7,418.1 418.0,418.1 412.4,418.1 406.7,418.1 401.1,418.1 395.4,418.1 389.8,418.1 384.1,418.1 378.4,418.1 372.8,418.1 367.1,418.1 361.5,418.1 355.8,418.1 350.2,418.1 344.5,418.1 338.9,418.1 333.2,418.2 327.5,418.2 321.9,418.2 316.2,418.3 310.6,418.3 304.9,418.8 299.3,418.8 293.6,418.8 288.0,418.9 282.3,418.9 276.6,422.9 271.0,422.9 265.3,422.9 259.7,422.9 254.0,423.0 248.4,423.0 242.7,423.2 237.0,423.2 231.4,423.3 225.7,423.3 220.1,423.3 214.4,424.2 208.8,424.3 203.1,421.0 197.5,421.0 191.8,421.0 186.1,421.0 180.5,421.0 174.8,421.1 169.2,421.1 163.5,425.2 157.9,425.3 152.2,425.3 146.6,427.8 140.9,428.1 135.2,428.3 129.6,650.0 123.9,650.0 118.3,650.0 112.6,650.0 107.0,650.0 101.3,650.0 95.7,650.0 90.0,650.0" fill="#6E4C13" opacity="0.6" class="anim" style="animation-delay:1100ms;"/>
<polygon points="90.0,650.0 95.7,650.0 101.3,650.0 107.0,650.0 112.6,650.0 118.3,650.0 123.9,650.0 129.6,650.0 135.2,414.4 140.9,414.4 146.6,414.3 152.2,413.7 157.9,413.7 163.5,413.7 169.2,412.7 174.8,412.7 180.5,412.7 186.1,412.7 191.8,412.7 197.5,412.7 203.1,412.7 208.8,413.5 214.4,413.4 220.1,413.2 225.7,413.2 231.4,413.2 237.0,413.2 242.7,413.2 248.4,413.1 254.0,413.1 259.7,413.1 265.3,413.1 271.0,413.1 276.6,413.1 282.3,412.2 288.0,412.1 293.6,412.1 299.3,412.1 304.9,412.1 310.6,412.0 316.2,412.0 321.9,412.0 327.5,412.0 333.2,412.0 338.9,412.0 344.5,412.0 350.2,412.0 355.8,412.0 361.5,412.0 367.1,412.0 372.8,412.0 378.4,412.0 384.1,412.0 389.8,412.0 395.4,412.0 401.1,412.0 406.7,412.0 412.4,411.9 418.0,411.9 423.7,411.9 429.3,411.9 435.0,411.9 440.7,411.9 446.3,411.9 452.0,411.9 457.6,411.9 463.3,411.9 468.9,411.9 474.6,411.9 480.2,411.9 485.9,411.9 491.6,411.9 497.2,411.9 502.9,411.9 508.5,411.9 514.2,411.9 519.8,411.9 525.5,411.9 531.1,411.9 536.8,411.9 542.5,411.9 548.1,411.9 553.8,411.9 559.4,411.9 565.1,411.9 570.7,411.9 576.4,411.9 582.0,411.9 587.7,411.9 593.4,411.9 599.0,411.9 604.7,411.9 610.3,411.9 616.0,411.9 621.6,411.9 627.3,411.9 633.0,411.9 638.6,411.9 644.3,411.9 649.9,411.9 655.6,411.9 661.2,411.9 666.9,411.9 672.5,411.9 678.2,411.9 683.9,411.9 689.5,411.9 695.2,411.9 700.8,411.9 706.5,411.9 712.1,411.9 717.8,411.9 723.4,411.9 729.1,411.9 734.8,411.9 740.4,411.9 746.1,411.9 751.7,411.9 757.4,411.9 763.0,411.9 768.7,411.9 774.3,411.9 780.0,411.9 780.0,413.4 774.3,413.6 768.7,413.8 763.0,413.8 757.4,413.8 751.7,413.8 746.1,413.8 740.4,413.8 734.8,413.8 729.1,413.8 723.4,413.8 717.8,413.8 712.1,413.8 706.5,413.8 700.8,413.8 695.2,413.8 689.5,413.8 683.9,413.8 678.2,413.8 672.5,413.8 666.9,413.8 661.2,413.8 655.6,413.8 649.9,413.8 644.3,413.8 638.6,413.8 633.0,413.8 627.3,413.8 621.6,413.8 616.0,413.8 610.3,413.8 604.7,413.8 599.0,413.8 593.4,413.8 587.7,413.8 582.0,413.8 576.4,413.8 570.7,413.8 565.1,413.8 559.4,413.8 553.8,413.8 548.1,413.8 542.5,413.8 536.8,413.8 531.1,413.8 525.5,413.8 519.8,413.8 514.2,413.8 508.5,413.8 502.9,413.8 497.2,413.8 491.6,413.8 485.9,413.8 480.2,413.8 474.6,413.8 468.9,413.8 463.3,413.8 457.6,413.8 452.0,413.8 446.3,413.8 440.7,413.8 435.0,413.8 429.3,413.8 423.7,413.8 418.0,413.8 412.4,413.8 406.7,413.9 401.1,413.9 395.4,413.9 389.8,413.9 384.1,413.9 378.4,413.9 372.8,413.9 367.1,413.9 361.5,413.9 355.8,413.9 350.2,413.9 344.5,413.9 338.9,413.9 333.2,413.9 327.5,413.9 321.9,413.9 316.2,413.9 310.6,413.9 304.9,414.2 299.3,414.2 293.6,414.2 288.0,414.2 282.3,414.2 276.6,416.2 271.0,416.2 265.3,416.2 259.7,416.2 254.0,416.2 248.4,416.2 242.7,416.3 237.0,416.3 231.4,416.3 225.7,416.3 220.1,416.3 214.4,416.8 208.8,416.8 203.1,415.2 197.5,415.2 191.8,415.2 186.1,415.2 180.5,415.2 174.8,415.3 169.2,415.3 163.5,417.2 157.9,417.3 152.2,417.3 146.6,418.5 140.9,418.6 135.2,418.7 129.6,650.0 123.9,650.0 118.3,650.0 112.6,650.0 107.0,650.0 101.3,650.0 95.7,650.0 90.0,650.0" fill="#b07219" opacity="0.6" class="anim" style="animation-delay:1200ms;"/>
<line x1="768.7" y1="100" x2="768.7" y2="650" stroke="#c9d1d9" stroke-width="1" stroke-dasharray="4,3" opacity="0.35"/>
<text x="774.3" y="112" text-anchor="middle" class="axis-label" opacity="0.6">Aug 28, 2026</text>
<text x="90.0" y="668" text-anchor="middle" class="axis-label" transform="rotate(-35 90.0 668)">2026-02</text>
<text x="237.0" y="668" text-anchor="middle" class="axis-label" transform="rotate(-35 237.0 668)">2026-03</text>
<text x="457.6" y="668" text-anchor="middle" class="axis-label" transform="rotate(-35 457.6 668)">2026-06</text>
<text x="604.7" y="668" text-anchor="middle" class="axis-label" transform="rotate(-35 604.7 668)">2026-07</text>
<text x="751.7" y="668" text-anchor="middle" class="axis-label" transform="rotate(-35 751.7 668)">2026-08</text>
<line x1="796" y1="110" x2="824" y2="110" stroke="#3fb950" stroke-width="2"/>
<text x="832" y="116" class="legend-text">Lines Added</text>
<line x1="796" y1="140" x2="824" y2="140" stroke="#f85149" stroke-width="1.5"/>
<text x="832" y="146" class="legend-text">Lines Deleted</text>
<line x1="796" y1="170" x2="824" y2="170" stroke="#e3b341" stroke-width="1.5" stroke-dasharray="4,3"/>
<text x="832" y="176" class="legend-text">&#x2605; Stars</text>
<text x="796" y="200" class="subtitle">Languages</text>
<rect x="796" y="212" width="12" height="12" rx="2" fill="#e34c26" opacity="0.8" class="anim" style="animation-delay:800ms;"/>
<text x="814" y="223" class="legend-text">HTML (58%→56%)</text>
<rect x="796" y="234" width="12" height="12" rx="2" fill="#f1e05a" opacity="0.8" class="anim" style="animation-delay:880ms;"/>
<text x="814" y="245" class="legend-text">JavaScript (22%→25%)</text>
<rect x="796" y="256" width="12" height="12" rx="2" fill="#3572A5" opacity="0.8" class="anim" style="animation-delay:960ms;"/>
<text x="814" y="267" class="legend-text">Python (7%→6%)</text>
<rect x="796" y="278" width="12" height="12" rx="2" fill="#663399" opacity="0.8" class="anim" style="animation-delay:1040ms;"/>
<text x="814" y="289" class="legend-text">CSS (6%→6%)</text>
<rect x="796" y="300" width="12" height="12" rx="2" fill="#083fa1" opacity="0.8" class="anim" style="animation-delay:1120ms;"/>
<text x="814" y="311" class="legend-text">Markdown (2%→2%)</text>
<rect x="796" y="322" width="12" height="12" rx="2" fill="#F05138" opacity="0.8" class="anim" style="animation-delay:1200ms;"/>
<text x="814" y="333" class="legend-text">Swift (2%)</text>
<rect x="796" y="344" width="12" height="12" rx="2" fill="#6E4C13" opacity="0.8" class="anim" style="animation-delay:1280ms;"/>
<text x="814" y="355" class="legend-text">Assembly (2%→1%)</text>
<rect x="796" y="366" width="12" height="12" rx="2" fill="#b07219" opacity="0.8" class="anim" style="animation-delay:1360ms;"/>
<text x="814" y="377" class="legend-text">Java (1%→1%)</text>
<text x="796" y="412" class="subtitle">Contributions</text>
<text x="796" y="432" class="axis-label">2023: 39</text>
<text x="796" y="452" class="axis-label">2024: 646</text>
<text x="796" y="472" class="axis-label">2025: 1,780</text>
<text x="796" y="492" class="axis-label">2026: 491</text>
<text x="796" y="522" class="subtitle">Statistics</text>
<text x="796" y="542" class="axis-label">Active weeks: 88</text>
<text x="796" y="562" class="axis-label">Add/Del ratio: 1.8x</text>
<text x="796" y="582" class="axis-label">Avg lines/wk: 18K</text>
<text x="796" y="602" class="axis-label">Peak: 2026-02-15</text>
<text x="796" y="622" class="axis-label">  (543K lines)</text>
<text x="90" y="742" class="axis-label">Total: +1,040,332 / -576,819 lines &#xb7; 2,956 contributions &#xb7; 80 repos &#xb7; &#x2605; 37</text>
</svg>