<svg xmlns="http://www.w3.org/2000/svg" width="1000" height="760" style="max-width: 100%;" viewBox="0 0 1000 760">

<defs>
  <linearGradient id="areaGrad" x1="0" y1="0" x2="0" y2="1">
    <stop offset="0%" stop-color="#58a6ff" stop-opacity="0.35"/>
    <stop offset="100%" stop-color="#58a6ff" stop-opacity="0.02"/>
  </linearGradient>
  <linearGradient id="addGrad" x1="0" y1="0" x2="0" y2="1">
    <stop offset="0%" stop-color="#3fb950" stop-opacity="0.35"/>
    <stop offset="100%" stop-color="#3fb950" stop-opacity="0.02"/>
  </linearGradient>
  <linearGradient id="delGrad" x1="0" y1="0" x2="0" y2="1">
    <stop offset="0%" stop-color="#f85149" stop-opacity="0.25"/>
    <stop offset="100%" stop-color="#f85149" stop-opacity="0.02"/>
  </linearGradient>
</defs>
<style>
  .title { font: bold 28px 'Segoe UI', Ubuntu, Sans-Serif; fill: #c9d1d9; }
  .subtitle { font: 600 20px 'Segoe UI', Ubuntu, Sans-Serif; fill: #c9d1d9; opacity: 0.8; }
  .axis-label { font: 18px 'Segoe UI', Ubuntu, Sans-Serif; fill: #c9d1d9; opacity: 0.7; }
  .legend-text { font: 14px 'Segoe UI', Ubuntu, Sans-Serif; fill: #c9d1d9; }
  .value-text { font: bold 18px 'Segoe UI', Ubuntu, Sans-Serif; fill: #c9d1d9; }
  .stat-value { font: bold 22px 'Segoe UI', Ubuntu, Sans-Serif; fill: #c9d1d9; }
  .stat-label { font: 18px 'Segoe UI', Ubuntu, Sans-Serif; fill: #c9d1d9; opacity: 0.7; }
  @keyframes fadeIn { from { opacity: 0; } to { opacity: 1; } }
  .anim { animation: fadeIn 0.6s ease-in-out forwards; opacity: 0; }
</style>

<rect x="0.5" y="0.5" rx="4.5" width="999" height="759" fill="#161b22" stroke="#21262d"/>
<text x="90" y="45" class="title">Activity History</text>
<text x="90" y="72" class="subtitle">Lines added vs deleted &amp; activity trends over time</text>
<line x1="90" y1="340.0" x2="780" y2="340.0" stroke="#21262d" stroke-width="1"/>
<text x="82" y="344.0" text-anchor="end" class="axis-label">0</text>
<line x1="90" y1="280.0" x2="780" y2="280.0" stroke="#21262d" stroke-width="1"/>
<text x="82" y="284.0" text-anchor="end" class="axis-label">631K</text>
<line x1="90" y1="220.0" x2="780" y2="220.0" stroke="#21262d" stroke-width="1"/>
<text x="82" y="224.0" text-anchor="end" class="axis-label">1.3M</text>
<line x1="90" y1="160.0" x2="780" y2="160.0" stroke="#21262d" stroke-width="1"/>
<text x="82" y="164.0" text-anchor="end" class="axis-label">1.9M</text>
<line x1="90" y1="100.0" x2="780" y2="100.0" stroke="#21262d" stroke-width="1"/>
<text x="82" y="104.0" text-anchor="end" class="axis-label">2.5M</text>
<polygon points="90.0,340.0 90.0,305.3 108.6,306.5 127.3,305.3 145.9,306.5 164.6,314.5 183.2,298.6 201.9,298.6 220.5,292.6 239.2,292.4 257.8,292.0 276.5,292.0 295.1,281.3 313.8,281.3 332.4,281.3 351.1,265.4 369.7,265.2 388.4,265.0 407.0,265.0 425.7,265.0 444.3,265.0 463.0,265.0 481.6,264.6 500.3,254.1 518.9,254.0 537.6,254.0 556.2,254.0 574.9,253.8 593.5,253.8 612.2,253.3 630.8,253.3 649.5,253.3 668.1,253.3 686.8,253.3 705.4,253.3 724.1,253.3 742.7,253.3 761.4,227.6 780.0,201.9 780.0,340.0" fill="url(#addGrad)" class="anim" style="animation-delay:200ms;"/>
<polyline points="90.0,305.3 108.6,306.5 127.3,305.3 145.9,306.5 164.6,314.5 183.2,298.6 201.9,298.6 220.5,292.6 239.2,292.4 257.8,292.0 276.5,292.0 295.1,281.3 313.8,281.3 332.4,281.3 351.1,265.4 369.7,265.2 388.4,265.0 407.0,265.0 425.7,265.0 444.3,265.0 463.0,265.0 481.6,264.6 500.3,254.1 518.9,254.0 537.6,254.0 556.2,254.0 574.9,253.8 593.5,253.8 612.2,253.3 630.8,253.3 649.5,253.3 668.1,253.3 686.8,253.3 705.4,253.3 724.1,253.3 742.7,253.3" fill="none" stroke="#3fb950" stroke-width="2" stroke-linejoin="round" class="anim" style="animation-delay:250ms;"/>
<polyline points="742.7,253.3 761.4,227.6 780.0,201.9" fill="none" stroke="#3fb950" stroke-width="1.5" stroke-dasharray="5,4" stroke-linejoin="round" opacity="0.6" class="anim" style="animation-delay:250ms;"/>
<polygon points="90.0,340.0 90.0,330.2 108.6,331.3 127.3,330.2 145.9,331.2 164.6,335.4 183.2,329.1 201.9,329.0 220.5,328.3 239.2,328.1 257.8,327.9 276.5,327.9 295.1,316.4 313.8,316.4 332.4,316.4 351.1,303.3 369.7,303.2 388.4,303.2 407.0,303.2 425.7,303.2 444.3,303.2 463.0,303.2 481.6,296.4 500.3,286.0 518.9,286.0 537.6,286.0 556.2,286.0 574.9,285.9 593.5,285.9 612.2,285.9 630.8,285.8 649.5,285.8 668.1,285.8 686.8,285.8 705.4,285.8 724.1,285.9 742.7,285.8 761.4,262.0 780.0,238.1 780.0,340.0" fill="url(#delGrad)" class="anim" style="animation-delay:300ms;"/>
<polyline points="90.0,330.2 108.6,331.3 127.3,330.2 145.9,331.2 164.6,335.4 183.2,329.1 201.9,329.0 220.5,328.3 239.2,328.1 257.8,327.9 276.5,327.9 295.1,316.4 313.8,316.4 332.4,316.4 351.1,303.3 369.7,303.2 388.4,303.2 407.0,303.2 425.7,303.2 444.3,303.2 463.0,303.2 481.6,296.4 500.3,286.0 518.9,286.0 537.6,286.0 556.2,286.0 574.9,285.9 593.5,285.9 612.2,285.9 630.8,285.8 649.5,285.8 668.1,285.8 686.8,285.8 705.4,285.8 724.1,285.9 742.7,285.8" fill="none" stroke="#f85149" stroke-width="1.5" stroke-linejoin="round" class="anim" style="animation-delay:350ms;"/>
<polyline points="742.7,285.8 761.4,262.0 780.0,238.1" fill="none" stroke="#f85149" stroke-width="1" stroke-dasharray="5,4" stroke-linejoin="round" opacity="0.6" class="anim" style="animation-delay:350ms;"/>
<polyline points="90.0,340.0 108.6,340.0 127.3,340.0 145.9,340.0 164.6,340.0 183.2,340.0 201.9,340.0 220.5,340.0 239.2,276.0 257.8,276.0 276.5,276.0 295.1,276.0 313.8,276.0 332.4,276.0 351.1,276.0 369.7,276.0 388.4,276.0 407.0,276.0 425.7,276.0 444.3,276.0 463.0,276.0 481.6,276.0 500.3,276.0 518.9,276.0 537.6,276.0 556.2,276.0 574.9,276.0 593.5,276.0 612.2,276.0 630.8,276.0 649.5,276.0 668.1,276.0 686.8,276.0 705.4,276.0 724.1,212.0 742.7,212.0" fill="none" stroke="#e3b341" stroke-width="1.5" stroke-dasharray="4,3" stroke-linejoin="round" class="anim" style="animation-delay:400ms;"/>
<polyline points="742.7,212.0 761.4,212.0 780.0,148.0" fill="none" stroke="#e3b341" stroke-width="1" stroke-dasharray="3,5" stroke-linejoin="round" opacity="0.5" class="anim" style="animation-delay:400ms;"/>
<text x="90" y="90" class="subtitle">Lines Added vs Deleted (per snapshot)</text>
<text x="90" y="400" class="subtitle">Programming Language Development (%)</text>
<line x1="90" y1="650.0" x2="780" y2="650.0" stroke="#21262d" stroke-width="1"/>
<text x="82" y="654.0" text-anchor="end" class="axis-label">0%</text>
<line x1="90" y1="590.0" x2="780" y2="590.0" stroke="#21262d" stroke-width="1"/>
<text x="82" y="594.0" text-anchor="end" class="axis-label">25%</text>
<line x1="90" y1="530.0" x2="780" y2="530.0" stroke="#21262d" stroke-width="1"/>
<text x="82" y="534.0" text-anchor="end" class="axis-label">50%</text>
<line x1="90" y1="470.0" x2="780" y2="470.0" stroke="#21262d" stroke-width="1"/>
<text x="82" y="474.0" text-anchor="end" class="axis-label">75%</text>
<line x1="90" y1="410.0" x2="780" y2="410.0" stroke="#21262d" stroke-width="1"/>
<text x="82" y="414.0" text-anchor="end" class="axis-label">100%</text>
<polygon points="90.0,650.0 108.6,650.0 127.3,650.0 145.9,650.0 164.6,650.0 183.2,650.0 201.9,650.0 220.5,650.0 239.2,528.2 257.8,528.5 276.5,529.7 295.1,499.3 313.8,499.3 332.4,502.9 351.1,485.0 369.7,485.1 388.4,485.4 407.0,485.4 425.7,485.4 444.3,485.4 463.0,485.4 481.6,496.4 500.3,496.7 518.9,491.0 537.6,491.0 556.2,491.0 574.9,491.7 593.5,491.8 612.2,494.0 630.8,494.0 649.5,494.4 668.1,494.4 686.8,494.4 705.4,494.4 724.1,507.6 742.7,507.6 761.4,501.2 780.0,494.8 780.0,650.0 761.4,650.0 742.7,650.0 724.1,650.0 705.4,650.0 686.8,650.0 668.1,650.0 649.5,650.0 630.8,650.0 612.2,650.0 593.5,650.0 574.9,650.0 556.2,650.0 537.6,650.0 518.9,650.0 500.3,650.0 481.6,650.0 463.0,650.0 444.3,650.0 425.7,650.0 407.0,650.0 388.4,650.0 369.7,650.0 351.1,650.0 332.4,650.0 313.8,650.0 295.1,650.0 276.5,650.0 257.8,650.0 239.2,650.0 220.5,650.0 201.9,650.0 183.2,650.0 164.6,650.0 145.9,650.0 127.3,650.0 108.6,650.0 90.0,650.0" fill="#e34c26" opacity="0.6" class="anim" style="animation-delay:500ms;"/>
<polygon points="90.0,650.0 108.6,650.0 127.3,650.0 145.9,650.0 164.6,650.0 183.2,650.0 201.9,650.0 220.5,650.0 239.2,488.4 257.8,488.0 276.5,489.0 295.1,476.0 313.8,476.0 332.4,477.2 351.1,460.1 369.7,460.2 388.4,460.6 407.0,460.6 425.7,460.6 444.3,460.6 463.0,460.6 481.6,473.0 500.3,473.5 518.9,469.5 537.6,469.5 556.2,469.5 574.9,469.7 593.5,469.7 612.2,469.7 630.8,469.7 649.5,469.7 668.1,469.7 686.8,469.7 705.4,469.7 724.1,455.6 742.7,455.6 761.4,448.6 780.0,441.7 780.0,494.8 761.4,501.2 742.7,507.6 724.1,507.6 705.4,494.4 686.8,494.4 668.1,494.4 649.5,494.4 630.8,494.0 612.2,494.0 593.5,491.8 574.9,491.7 556.2,491.0 537.6,491.0 518.9,491.0 500.3,496.7 481.6,496.4 463.0,485.4 444.3,485.4 425.7,485.4 407.0,485.4 388.4,485.4 369.7,485.1 351.1,485.0 332.4,502.9 313.8,499.3 295.1,499.3 276.5,529.7 257.8,528.5 239.2,528.2 220.5,650.0 201.9,650.0 183.2,650.0 164.6,650.0 145.9,650.0 127.3,650.0 108.6,650.0 90.0,650.0" fill="#f1e05a" opacity="0.6" class="anim" style="animation-delay:600ms;"/>
<polygon points="90.0,650.0 108.6,650.0 127.3,650.0 145.9,650.0 164.6,650.0 183.2,650.0 201.9,650.0 220.5,650.0 239.2,455.5 257.8,455.4 276.5,455.1 295.1,447.0 313.8,447.0 332.4,448.2 351.1,438.9 369.7,439.0 388.4,439.6 407.0,439.6 425.7,439.6 444.3,439.6 463.0,439.6 481.6,445.6 500.3,445.6 518.9,443.3 537.6,443.3 556.2,443.3 574.9,443.6 593.5,443.6 612.2,444.1 630.8,444.1 649.5,444.1 668.1,444.1 686.8,444.1 705.4,444.1 724.1,437.5 742.7,437.5 761.4,433.9 780.0,430.2 780.0,441.7 761.4,448.6 742.7,455.6 724.1,455.6 705.4,469.7 686.8,469.7 668.1,469.7 649.5,469.7 630.8,469.7 612.2,469.7 593.5,469.7 574.9,469.7 556.2,469.5 537.6,469.5 518.9,469.5 500.3,473.5 481.6,473.0 463.0,460.6 444.3,460.6 425.7,460.6 407.0,460.6 388.4,460.6 369.7,460.2 351.1,460.1 332.4,477.2 313.8,476.0 295.1,476.0 276.5,489.0 257.8,488.0 239.2,488.4 220.5,650.0 201.9,650.0 183.2,650.0 164.6,650.0 145.9,650.0 127.3,650.0 108.6,650.0 90.0,650.0" fill="#3572A5" opacity="0.6" class="anim" style="animation-delay:700ms;"/>
<polygon points="90.0,650.0 108.6,650.0 127.3,650.0 145.9,650.0 164.6,650.0 183.2,650.0 201.9,650.0 220.5,650.0 239.2,442.3 257.8,442.0 276.5,441.6 295.1,439.5 313.8,439.5 332.4,439.4 351.1,432.3 369.7,432.2 388.4,432.6 407.0,432.6 425.7,432.6 444.3,432.6 463.0,432.6 481.6,439.3 500.3,439.3 518.9,437.4 537.6,437.4 556.2,437.4 574.9,437.3 593.5,437.3 612.2,437.1 630.8,437.1 649.5,437.1 668.1,437.1 686.8,437.1 705.4,437.1 724.1,428.7 742.7,428.6 761.4,426.7 780.0,424.7 780.0,430.2 761.4,433.9 742.7,437.5 724.1,437.5 705.4,444.1 686.8,444.1 668.1,444.1 649.5,444.1 630.8,444.1 612.2,444.1 593.5,443.6 574.9,443.6 556.2,443.3 537.6,443.3 518.9,443.3 500.3,445.6 481.6,445.6 463.0,439.6 444.3,439.6 425.7,439.6 407.0,439.6 388.4,439.6 369.7,439.0 351.1,438.9 332.4,448.2 313.8,447.0 295.1,447.0 276.5,455.1 257.8,455.4 239.2,455.5 220.5,650.0 201.9,650.0 183.2,650.0 164.6,650.0 145.9,650.0 127.3,650.0 108.6,650.0 90.0,650.0" fill="#663399" opacity="0.6" class="anim" style="animation-delay:800ms;"/>
<polygon points="90.0,650.0 108.6,650.0 127.3,650.0 145.9,650.0 164.6,650.0 183.2,650.0 201.9,650.0 220.5,650.0 239.2,436.6 257.8,436.3 276.5,435.9 295.1,432.2 313.8,432.2 332.4,432.2 351.1,426.2 369.7,426.1 388.4,426.0 407.0,426.0 425.7,426.0 444.3,426.0 463.0,426.0 481.6,430.8 500.3,430.7 518.9,429.3 537.6,429.3 556.2,429.3 574.9,429.2 593.5,429.2 612.2,428.9 630.8,428.9 649.5,428.8 668.1,428.8 686.8,428.8 705.4,428.8 724.1,423.0 742.7,422.9 761.4,420.1 780.0,417.4 780.0,424.7 761.4,426.7 742.7,428.6 724.1,428.7 705.4,437.1 686.8,437.1 668.1,437.1 649.5,437.1 630.8,437.1 612.2,437.1 593.5,437.3 574.9,437.3 556.2,437.4 537.6,437.4 518.9,437.4 500.3,439.3 481.6,439.3 463.0,432.6 444.3,432.6 425.7,432.6 407.0,432.6 388.4,432.6 369.7,432.2 351.1,432.3 332.4,439.4 313.8,439.5 295.1,439.5 276.5,441.6 257.8,442.0 239.2,442.3 220.5,650.0 201.9,650.0 183.2,650.0 164.6,650.0 145.9,650.0 127.3,650.0 108.6,650.0 90.0,650.0" fill="#083fa1" opacity="0.6" class="anim" style="animation-delay:900ms;"/>
<polygon points="90.0,650.0 108.6,650.0 127.3,650.0 145.9,650.0 164.6,650.0 183.2,650.0 201.9,650.0 220.5,650.0 239.2,427.0 257.8,426.8 276.5,426.6 295.1,424.2 313.8,424.2 332.4,424.2 351.1,420.4 369.7,420.3 388.4,420.3 407.0,420.3 425.7,420.3 444.3,420.3 463.0,420.3 481.6,423.3 500.3,423.2 518.9,422.4 537.6,422.4 556.2,422.4 574.9,422.3 593.5,422.3 612.2,422.1 630.8,422.1 649.5,422.1 668.1,422.1 686.8,422.1 705.4,422.1 724.1,418.3 742.7,418.3 761.4,416.7 780.0,415.1 780.0,417.4 761.4,420.1 742.7,422.9 724.1,423.0 705.4,428.8 686.8,428.8 668.1,428.8 649.5,428.8 630.8,428.9 612.2,428.9 593.5,429.2 574.9,429.2 556.2,429.3 537.6,429.3 518.9,429.3 500.3,430.7 481.6,430.8 463.0,426.0 444.3,426.0 425.7,426.0 407.0,426.0 388.4,426.0 369.7,426.1 351.1,426.2 332.4,432.2 313.8,432.2 295.1,432.2 276.5,435.9 257.8,436.3 239.2,436.6 220.5,650.0 201.9,650.0 183.2,650.0 164.6,650.0 145.9,650.0 127.3,650.0 108.6,650.0 90.0,650.0" fill="#6E4C13" opacity="0.6" class="anim" style="animation-delay:1000ms;"/>
<polygon points="90.0,650.0 108.6,650.0 127.3,650.0 145.9,650.0 164.6,650.0 183.2,650.0 201.9,650.0 220.5,650.0 239.2,418.7 257.8,418.6 276.5,418.5 295.1,417.3 313.8,417.3 332.4,417.2 351.1,415.3 369.7,415.3 388.4,415.2 407.0,415.2 425.7,415.2 444.3,415.2 463.0,415.2 481.6,416.8 500.3,416.8 518.9,416.3 537.6,416.3 556.2,416.3 574.9,416.3 593.5,416.3 612.2,416.2 630.8,416.2 649.5,416.2 668.1,416.2 686.8,416.2 705.4,416.2 724.1,414.2 742.7,414.2 761.4,413.7 780.0,413.2 780.0,415.1 761.4,416.7 742.7,418.3 724.1,418.3 705.4,422.1 686.8,422.1 668.1,422.1 649.5,422.1 630.8,422.1 612.2,422.1 593.5,422.3 574.9,422.3 556.2,422.4 537.6,422.4 518.9,422.4 500.3,423.2 481.6,423.3 463.0,420.3 444.3,420.3 425.7,420.3 407.0,420.3 388.4,420.3 369.7,420.3 351.1,420.4 332.4,424.2 313.8,424.2 295.1,424.2 276.5,426.6 257.8,426.8 239.2,427.0 220.5,650.0 201.9,650.0 183.2,650.0 164.6,650.0 145.9,650.0 127.3,650.0 108.6,650.0 90.0,650.0" fill="#F05138" opacity="0.6" class="anim" style="animation-delay:1100ms;"/>
<polygon points="90.0,650.0 108.6,650.0 127.3,650.0 145.9,650.0 164.6,650.0 183.2,650.0 201.9,650.0 220.5,650.0 239.2,414.4 257.8,414.4 276.5,414.3 295.1,413.7 313.8,413.7 332.4,413.7 351.1,412.7 369.7,412.7 388.4,412.7 407.0,412.7 425.7,412.7 444.3,412.7 463.0,412.7 481.6,413.5 500.3,413.4 518.9,413.2 537.6,413.2 556.2,413.2 574.9,413.2 593.5,413.2 612.2,413.1 630.8,413.1 649.5,413.1 668.1,413.1 686.8,413.1 705.4,413.1 724.1,412.2 742.7,412.1 761.4,412.1 780.0,412.1 780.0,413.2 761.4,413.7 742.7,414.2 724.1,414.2 705.4,416.2 686.8,416.2 668.1,416.2 649.5,416.2 630.8,416.2 612.2,416.2 593.5,416.3 574.9,416.3 556.2,416.3 537.6,416.3 518.9,416.3 500.3,416.8 481.6,416.8 463.0,415.2 444.3,415.2 425.7,415.2 407.0,415.2 388.4,415.2 369.7,415.3 351.1,415.3 332.4,417.2 313.8,417.3 295.1,417.3 276.5,418.5 257.8,418.6 239.2,418.7 220.5,650.0 201.9,650.0 183.2,650.0 164.6,650.0 145.9,650.0 127.3,650.0 108.6,650.0 90.0,650.0" fill="#b07219" opacity="0.6" class="anim" style="animation-delay:1200ms;"/>
<line x1="742.7" y1="100" x2="742.7" y2="650" stroke="#c9d1d9" stroke-width="1" stroke-dasharray="4,3" opacity="0.35"/>
<text x="761.4" y="112" text-anchor="middle" class="axis-label" opacity="0.6">Mar 27, 2026</text>
<text x="90.0" y="668" text-anchor="middle" class="axis-label" transform="rotate(-35 90.0 668)">2026-02</text>
<text x="537.6" y="668" text-anchor="middle" class="axis-label" transform="rotate(-35 537.6 668)">2026-03</text>
<text x="761.4" y="668" text-anchor="middle" class="axis-label" transform="rotate(-35 761.4 668)">Mar 27, 2026</text>
<line x1="796" y1="110" x2="824" y2="110" stroke="#3fb950" stroke-width="2"/>
<text x="832" y="116" class="legend-text">Lines Added</text>
<line x1="796" y1="140" x2="824" y2="140" stroke="#f85149" stroke-width="1.5"/>
<text x="832" y="146" class="legend-text">Lines Deleted</text>
<line x1="796" y1="170" x2="824" y2="170" stroke="#e3b341" stroke-width="1.5" stroke-dasharray="4,3"/>
<text x="832" y="176" class="legend-text">&#x2605; Stars</text>
<text x="796" y="200" class="subtitle">Languages</text>
<rect x="796" y="212" width="12" height="12" rx="2" fill="#e34c26" opacity="0.8" class="anim" style="animation-delay:800ms;"/>
<text x="814" y="223" class="legend-text">HTML (59%→65%)</text>
<rect x="796" y="234" width="12" height="12" rx="2" fill="#f1e05a" opacity="0.8" class="anim" style="animation-delay:880ms;"/>
<text x="814" y="245" class="legend-text">JavaScript (22%→22%)</text>
<rect x="796" y="256" width="12" height="12" rx="2" fill="#3572A5" opacity="0.8" class="anim" style="animation-delay:960ms;"/>
<text x="814" y="267" class="legend-text">Python (8%→5%)</text>
<rect x="796" y="278" width="12" height="12" rx="2" fill="#663399" opacity="0.8" class="anim" style="animation-delay:1040ms;"/>
<text x="814" y="289" class="legend-text">CSS (4%→2%)</text>
<rect x="796" y="300" width="12" height="12" rx="2" fill="#083fa1" opacity="0.8" class="anim" style="animation-delay:1120ms;"/>
<text x="814" y="311" class="legend-text">Markdown (2%→3%)</text>
<rect x="796" y="322" width="12" height="12" rx="2" fill="#6E4C13" opacity="0.8" class="anim" style="animation-delay:1200ms;"/>
<text x="814" y="333" class="legend-text">Assembly (2%→1%)</text>
<rect x="796" y="344" width="12" height="12" rx="2" fill="#F05138" opacity="0.8" class="anim" style="animation-delay:1280ms;"/>
<text x="814" y="355" class="legend-text">Swift (2%→1%)</text>
<rect x="796" y="366" width="12" height="12" rx="2" fill="#b07219" opacity="0.8" class="anim" style="animation-delay:1360ms;"/>
<text x="814" y="377" class="legend-text">Java (1%→0%)</text>
<text x="796" y="412" class="subtitle">Contributions</text>
<text x="796" y="432" class="axis-label">2023: 39</text>
<text x="796" y="452" class="axis-label">2024: 646</text>
<text x="796" y="472" class="axis-label">2025: 1,780</text>
<text x="796" y="492" class="axis-label">2026: 376</text>
<text x="796" y="522" class="subtitle">Statistics</text>
<text x="796" y="542" class="axis-label">Active weeks: 78</text>
<text x="796" y="562" class="axis-label">Add/Del ratio: 1.6x</text>
<text x="796" y="582" class="axis-label">Avg lines/wk: 19K</text>
<text x="796" y="602" class="axis-label">Peak: 2026-02-15</text>
<text x="796" y="622" class="axis-label">  (543K lines)</text>
<text x="90" y="742" class="axis-label">Total: +912,015 / -569,548 lines &#xb7; 2,841 contributions &#xb7; 75 repos &#xb7; &#x2605; 34</text>
</svg>