<svg xmlns="http://www.w3.org/2000/svg" width="1000" height="760" style="max-width: 100%;" viewBox="0 0 1000 760">

<defs>
  <linearGradient id="areaGrad" x1="0" y1="0" x2="0" y2="1">
    <stop offset="0%" stop-color="#58a6ff" stop-opacity="0.35"/>
    <stop offset="100%" stop-color="#58a6ff" stop-opacity="0.02"/>
  </linearGradient>
  <linearGradient id="addGrad" x1="0" y1="0" x2="0" y2="1">
    <stop offset="0%" stop-color="#3fb950" stop-opacity="0.35"/>
    <stop offset="100%" stop-color="#3fb950" stop-opacity="0.02"/>
  </linearGradient>
  <linearGradient id="delGrad" x1="0" y1="0" x2="0" y2="1">
    <stop offset="0%" stop-color="#f85149" stop-opacity="0.25"/>
    <stop offset="100%" stop-color="#f85149" stop-opacity="0.02"/>
  </linearGradient>
</defs>
<style>
  .title { font: bold 28px 'Segoe UI', Ubuntu, Sans-Serif; fill: #c9d1d9; }
  .subtitle { font: 600 20px 'Segoe UI', Ubuntu, Sans-Serif; fill: #c9d1d9; opacity: 0.8; }
  .axis-label { font: 18px 'Segoe UI', Ubuntu, Sans-Serif; fill: #c9d1d9; opacity: 0.7; }
  .legend-text { font: 14px 'Segoe UI', Ubuntu, Sans-Serif; fill: #c9d1d9; }
  .value-text { font: bold 18px 'Segoe UI', Ubuntu, Sans-Serif; fill: #c9d1d9; }
  .stat-value { font: bold 22px 'Segoe UI', Ubuntu, Sans-Serif; fill: #c9d1d9; }
  .stat-label { font: 18px 'Segoe UI', Ubuntu, Sans-Serif; fill: #c9d1d9; opacity: 0.7; }
  @keyframes fadeIn { from { opacity: 0; } to { opacity: 1; } }
  .anim { animation: fadeIn 0.6s ease-in-out forwards; opacity: 0; }
</style>

<rect x="0.5" y="0.5" rx="4.5" width="999" height="759" fill="#161b22" stroke="#21262d"/>
<text x="90" y="45" class="title">Activity History</text>
<text x="90" y="72" class="subtitle">Lines added vs deleted &amp; activity trends over time</text>
<line x1="90" y1="340.0" x2="780" y2="340.0" stroke="#21262d" stroke-width="1"/>
<text x="82" y="344.0" text-anchor="end" class="axis-label">0</text>
<line x1="90" y1="280.0" x2="780" y2="280.0" stroke="#21262d" stroke-width="1"/>
<text x="82" y="284.0" text-anchor="end" class="axis-label">579K</text>
<line x1="90" y1="220.0" x2="780" y2="220.0" stroke="#21262d" stroke-width="1"/>
<text x="82" y="224.0" text-anchor="end" class="axis-label">1.2M</text>
<line x1="90" y1="160.0" x2="780" y2="160.0" stroke="#21262d" stroke-width="1"/>
<text x="82" y="164.0" text-anchor="end" class="axis-label">1.7M</text>
<line x1="90" y1="100.0" x2="780" y2="100.0" stroke="#21262d" stroke-width="1"/>
<text x="82" y="104.0" text-anchor="end" class="axis-label">2.3M</text>
<polygon points="90.0,340.0 90.0,302.2 105.7,303.5 121.4,302.2 137.0,303.5 152.7,312.3 168.4,294.9 184.1,294.9 199.8,288.4 215.5,288.1 231.1,287.7 246.8,287.7 262.5,276.0 278.2,276.0 293.9,276.0 309.5,258.7 325.2,258.5 340.9,258.3 356.6,258.3 372.3,258.3 388.0,258.3 403.6,258.3 419.3,257.9 435.0,246.3 450.7,246.3 466.4,246.3 482.0,246.3 497.7,246.0 513.4,246.0 529.1,245.5 544.8,245.5 560.5,245.5 576.1,245.5 591.8,245.5 607.5,245.5 623.2,245.5 638.9,245.5 654.5,245.5 670.2,245.5 685.9,245.5 701.6,245.5 717.3,245.5 733.0,245.0 748.6,245.2 764.3,223.1 780.0,200.9 780.0,340.0" fill="url(#addGrad)" class="anim" style="animation-delay:200ms;"/>
<polyline points="90.0,302.2 105.7,303.5 121.4,302.2 137.0,303.5 152.7,312.3 168.4,294.9 184.1,294.9 199.8,288.4 215.5,288.1 231.1,287.7 246.8,287.7 262.5,276.0 278.2,276.0 293.9,276.0 309.5,258.7 325.2,258.5 340.9,258.3 356.6,258.3 372.3,258.3 388.0,258.3 403.6,258.3 419.3,257.9 435.0,246.3 450.7,246.3 466.4,246.3 482.0,246.3 497.7,246.0 513.4,246.0 529.1,245.5 544.8,245.5 560.5,245.5 576.1,245.5 591.8,245.5 607.5,245.5 623.2,245.5 638.9,245.5 654.5,245.5 670.2,245.5 685.9,245.5 701.6,245.5 717.3,245.5 733.0,245.0 748.6,245.2" fill="none" stroke="#3fb950" stroke-width="2" stroke-linejoin="round" class="anim" style="animation-delay:250ms;"/>
<polyline points="748.6,245.2 764.3,223.1 780.0,200.9" fill="none" stroke="#3fb950" stroke-width="1.5" stroke-dasharray="5,4" stroke-linejoin="round" opacity="0.6" class="anim" style="animation-delay:250ms;"/>
<polygon points="90.0,340.0 90.0,329.4 105.7,330.5 121.4,329.4 137.0,330.4 152.7,335.0 168.4,328.1 184.1,328.1 199.8,327.3 215.5,327.0 231.1,326.8 246.8,326.8 262.5,314.3 278.2,314.3 293.9,314.2 309.5,300.0 325.2,299.9 340.9,299.9 356.6,299.9 372.3,299.9 388.0,299.9 403.6,299.9 419.3,292.5 435.0,281.2 450.7,281.1 466.4,281.1 482.0,281.1 497.7,281.1 513.4,281.1 529.1,281.0 544.8,281.0 560.5,281.0 576.1,281.0 591.8,281.0 607.5,281.0 623.2,281.0 638.9,281.0 654.5,281.0 670.2,281.0 685.9,281.0 701.6,281.0 717.3,281.0 733.0,281.0 748.6,281.0 764.3,260.0 780.0,239.1 780.0,340.0" fill="url(#delGrad)" class="anim" style="animation-delay:300ms;"/>
<polyline points="90.0,329.4 105.7,330.5 121.4,329.4 137.0,330.4 152.7,335.0 168.4,328.1 184.1,328.1 199.8,327.3 215.5,327.0 231.1,326.8 246.8,326.8 262.5,314.3 278.2,314.3 293.9,314.2 309.5,300.0 325.2,299.9 340.9,299.9 356.6,299.9 372.3,299.9 388.0,299.9 403.6,299.9 419.3,292.5 435.0,281.2 450.7,281.1 466.4,281.1 482.0,281.1 497.7,281.1 513.4,281.1 529.1,281.0 544.8,281.0 560.5,281.0 576.1,281.0 591.8,281.0 607.5,281.0 623.2,281.0 638.9,281.0 654.5,281.0 670.2,281.0 685.9,281.0 701.6,281.0 717.3,281.0 733.0,281.0 748.6,281.0" fill="none" stroke="#f85149" stroke-width="1.5" stroke-linejoin="round" class="anim" style="animation-delay:350ms;"/>
<polyline points="748.6,281.0 764.3,260.0 780.0,239.1" fill="none" stroke="#f85149" stroke-width="1" stroke-dasharray="5,4" stroke-linejoin="round" opacity="0.6" class="anim" style="animation-delay:350ms;"/>
<polyline points="90.0,340.0 105.7,340.0 121.4,340.0 137.0,340.0 152.7,340.0 168.4,340.0 184.1,340.0 199.8,340.0 215.5,292.0 231.1,292.0 246.8,292.0 262.5,292.0 278.2,292.0 293.9,292.0 309.5,292.0 325.2,292.0 340.9,292.0 356.6,292.0 372.3,292.0 388.0,292.0 403.6,292.0 419.3,292.0 435.0,292.0 450.7,292.0 466.4,292.0 482.0,292.0 497.7,292.0 513.4,292.0 529.1,292.0 544.8,292.0 560.5,292.0 576.1,292.0 591.8,292.0 607.5,292.0 623.2,244.0 638.9,244.0 654.5,244.0 670.2,244.0 685.9,244.0 701.6,244.0 717.3,244.0 733.0,244.0 748.6,196.0" fill="none" stroke="#e3b341" stroke-width="1.5" stroke-dasharray="4,3" stroke-linejoin="round" class="anim" style="animation-delay:400ms;"/>
<polyline points="748.6,196.0 764.3,196.0 780.0,148.0" fill="none" stroke="#e3b341" stroke-width="1" stroke-dasharray="3,5" stroke-linejoin="round" opacity="0.5" class="anim" style="animation-delay:400ms;"/>
<text x="90" y="90" class="subtitle">Lines Added vs Deleted (per snapshot)</text>
<text x="90" y="400" class="subtitle">Programming Language Development (%)</text>
<line x1="90" y1="650.0" x2="780" y2="650.0" stroke="#21262d" stroke-width="1"/>
<text x="82" y="654.0" text-anchor="end" class="axis-label">0%</text>
<line x1="90" y1="590.0" x2="780" y2="590.0" stroke="#21262d" stroke-width="1"/>
<text x="82" y="594.0" text-anchor="end" class="axis-label">25%</text>
<line x1="90" y1="530.0" x2="780" y2="530.0" stroke="#21262d" stroke-width="1"/>
<text x="82" y="534.0" text-anchor="end" class="axis-label">50%</text>
<line x1="90" y1="470.0" x2="780" y2="470.0" stroke="#21262d" stroke-width="1"/>
<text x="82" y="474.0" text-anchor="end" class="axis-label">75%</text>
<line x1="90" y1="410.0" x2="780" y2="410.0" stroke="#21262d" stroke-width="1"/>
<text x="82" y="414.0" text-anchor="end" class="axis-label">100%</text>
<polygon points="90.0,650.0 105.7,650.0 121.4,650.0 137.0,650.0 152.7,650.0 168.4,650.0 184.1,650.0 199.8,650.0 215.5,528.2 231.1,528.5 246.8,529.7 262.5,499.3 278.2,499.3 293.9,502.9 309.5,485.0 325.2,485.1 340.9,485.4 356.6,485.4 372.3,485.4 388.0,485.4 403.6,485.4 419.3,496.4 435.0,496.7 450.7,491.0 466.4,491.0 482.0,491.0 497.7,491.7 513.4,491.8 529.1,494.0 544.8,494.0 560.5,494.4 576.1,494.4 591.8,494.4 607.5,494.4 623.2,507.6 638.9,507.6 654.5,507.9 670.2,507.9 685.9,507.9 701.6,506.3 717.3,506.4 733.0,506.8 748.6,506.9 764.3,507.8 780.0,508.6 780.0,650.0 764.3,650.0 748.6,650.0 733.0,650.0 717.3,650.0 701.6,650.0 685.9,650.0 670.2,650.0 654.5,650.0 638.9,650.0 623.2,650.0 607.5,650.0 591.8,650.0 576.1,650.0 560.5,650.0 544.8,650.0 529.1,650.0 513.4,650.0 497.7,650.0 482.0,650.0 466.4,650.0 450.7,650.0 435.0,650.0 419.3,650.0 403.6,650.0 388.0,650.0 372.3,650.0 356.6,650.0 340.9,650.0 325.2,650.0 309.5,650.0 293.9,650.0 278.2,650.0 262.5,650.0 246.8,650.0 231.1,650.0 215.5,650.0 199.8,650.0 184.1,650.0 168.4,650.0 152.7,650.0 137.0,650.0 121.4,650.0 105.7,650.0 90.0,650.0" fill="#e34c26" opacity="0.6" class="anim" style="animation-delay:500ms;"/>
<polygon points="90.0,650.0 105.7,650.0 121.4,650.0 137.0,650.0 152.7,650.0 168.4,650.0 184.1,650.0 199.8,650.0 215.5,488.4 231.1,488.0 246.8,489.0 262.5,476.0 278.2,476.0 293.9,477.2 309.5,460.1 325.2,460.2 340.9,460.6 356.6,460.6 372.3,460.6 388.0,460.6 403.6,460.6 419.3,473.0 435.0,473.5 450.7,469.5 466.4,469.5 482.0,469.5 497.7,469.7 513.4,469.7 529.1,469.7 544.8,469.7 560.5,469.7 576.1,469.7 591.8,469.7 607.5,469.7 623.2,455.6 638.9,455.6 654.5,455.4 670.2,455.4 685.9,455.4 701.6,454.3 717.3,454.3 733.0,455.0 748.6,455.1 764.3,446.3 780.0,437.7 780.0,508.6 764.3,507.8 748.6,506.9 733.0,506.8 717.3,506.4 701.6,506.3 685.9,507.9 670.2,507.9 654.5,507.9 638.9,507.6 623.2,507.6 607.5,494.4 591.8,494.4 576.1,494.4 560.5,494.4 544.8,494.0 529.1,494.0 513.4,491.8 497.7,491.7 482.0,491.0 466.4,491.0 450.7,491.0 435.0,496.7 419.3,496.4 403.6,485.4 388.0,485.4 372.3,485.4 356.6,485.4 340.9,485.4 325.2,485.1 309.5,485.0 293.9,502.9 278.2,499.3 262.5,499.3 246.8,529.7 231.1,528.5 215.5,528.2 199.8,650.0 184.1,650.0 168.4,650.0 152.7,650.0 137.0,650.0 121.4,650.0 105.7,650.0 90.0,650.0" fill="#f1e05a" opacity="0.6" class="anim" style="animation-delay:600ms;"/>
<polygon points="90.0,650.0 105.7,650.0 121.4,650.0 137.0,650.0 152.7,650.0 168.4,650.0 184.1,650.0 199.8,650.0 215.5,455.5 231.1,455.4 246.8,455.1 262.5,447.0 278.2,447.0 293.9,448.2 309.5,438.9 325.2,439.0 340.9,439.6 356.6,439.6 372.3,439.6 388.0,439.6 403.6,439.6 419.3,445.6 435.0,445.6 450.7,443.3 466.4,443.3 482.0,443.3 497.7,443.6 513.4,443.6 529.1,444.1 544.8,444.1 560.5,444.1 576.1,444.1 591.8,444.1 607.5,444.1 623.2,437.5 638.9,437.5 654.5,437.5 670.2,437.5 685.9,437.5 701.6,437.5 717.3,437.5 733.0,438.4 748.6,438.5 764.3,434.6 780.0,430.8 780.0,437.7 764.3,446.3 748.6,455.1 733.0,455.0 717.3,454.3 701.6,454.3 685.9,455.4 670.2,455.4 654.5,455.4 638.9,455.6 623.2,455.6 607.5,469.7 591.8,469.7 576.1,469.7 560.5,469.7 544.8,469.7 529.1,469.7 513.4,469.7 497.7,469.7 482.0,469.5 466.4,469.5 450.7,469.5 435.0,473.5 419.3,473.0 403.6,460.6 388.0,460.6 372.3,460.6 356.6,460.6 340.9,460.6 325.2,460.2 309.5,460.1 293.9,477.2 278.2,476.0 262.5,476.0 246.8,489.0 231.1,488.0 215.5,488.4 199.8,650.0 184.1,650.0 168.4,650.0 152.7,650.0 137.0,650.0 121.4,650.0 105.7,650.0 90.0,650.0" fill="#3572A5" opacity="0.6" class="anim" style="animation-delay:700ms;"/>
<polygon points="90.0,650.0 105.7,650.0 121.4,650.0 137.0,650.0 152.7,650.0 168.4,650.0 184.1,650.0 199.8,650.0 215.5,442.3 231.1,442.0 246.8,441.6 262.5,439.5 278.2,439.5 293.9,439.4 309.5,432.3 325.2,432.2 340.9,432.6 356.6,432.6 372.3,432.6 388.0,432.6 403.6,432.6 419.3,439.3 435.0,439.3 450.7,437.4 466.4,437.4 482.0,437.4 497.7,437.3 513.4,437.3 529.1,437.1 544.8,437.1 560.5,437.1 576.1,437.1 591.8,437.1 607.5,437.1 623.2,428.7 638.9,428.6 654.5,428.5 670.2,428.5 685.9,428.5 701.6,427.3 717.3,427.3 733.0,427.1 748.6,427.1 764.3,423.2 780.0,419.3 780.0,430.8 764.3,434.6 748.6,438.5 733.0,438.4 717.3,437.5 701.6,437.5 685.9,437.5 670.2,437.5 654.5,437.5 638.9,437.5 623.2,437.5 607.5,444.1 591.8,444.1 576.1,444.1 560.5,444.1 544.8,444.1 529.1,444.1 513.4,443.6 497.7,443.6 482.0,443.3 466.4,443.3 450.7,443.3 435.0,445.6 419.3,445.6 403.6,439.6 388.0,439.6 372.3,439.6 356.6,439.6 340.9,439.6 325.2,439.0 309.5,438.9 293.9,448.2 278.2,447.0 262.5,447.0 246.8,455.1 231.1,455.4 215.5,455.5 199.8,650.0 184.1,650.0 168.4,650.0 152.7,650.0 137.0,650.0 121.4,650.0 105.7,650.0 90.0,650.0" fill="#663399" opacity="0.6" class="anim" style="animation-delay:800ms;"/>
<polygon points="90.0,650.0 105.7,650.0 121.4,650.0 137.0,650.0 152.7,650.0 168.4,650.0 184.1,650.0 199.8,650.0 215.5,436.6 231.1,436.3 246.8,435.9 262.5,432.2 278.2,432.2 293.9,432.2 309.5,426.2 325.2,426.1 340.9,426.0 356.6,426.0 372.3,426.0 388.0,426.0 403.6,426.0 419.3,430.8 435.0,430.7 450.7,429.3 466.4,429.3 482.0,429.3 497.7,429.2 513.4,429.2 529.1,428.9 544.8,428.9 560.5,428.8 576.1,428.8 591.8,428.8 607.5,428.8 623.2,423.0 638.9,422.9 654.5,422.9 670.2,422.9 685.9,422.9 701.6,422.0 717.3,422.0 733.0,421.9 748.6,421.9 764.3,418.3 780.0,414.7 780.0,419.3 764.3,423.2 748.6,427.1 733.0,427.1 717.3,427.3 701.6,427.3 685.9,428.5 670.2,428.5 654.5,428.5 638.9,428.6 623.2,428.7 607.5,437.1 591.8,437.1 576.1,437.1 560.5,437.1 544.8,437.1 529.1,437.1 513.4,437.3 497.7,437.3 482.0,437.4 466.4,437.4 450.7,437.4 435.0,439.3 419.3,439.3 403.6,432.6 388.0,432.6 372.3,432.6 356.6,432.6 340.9,432.6 325.2,432.2 309.5,432.3 293.9,439.4 278.2,439.5 262.5,439.5 246.8,441.6 231.1,442.0 215.5,442.3 199.8,650.0 184.1,650.0 168.4,650.0 152.7,650.0 137.0,650.0 121.4,650.0 105.7,650.0 90.0,650.0" fill="#083fa1" opacity="0.6" class="anim" style="animation-delay:900ms;"/>
<polygon points="90.0,650.0 105.7,650.0 121.4,650.0 137.0,650.0 152.7,650.0 168.4,650.0 184.1,650.0 199.8,650.0 215.5,427.0 231.1,426.8 246.8,426.6 262.5,424.2 278.2,424.2 293.9,424.2 309.5,420.4 325.2,420.3 340.9,420.3 356.6,420.3 372.3,420.3 388.0,420.3 403.6,420.3 419.3,423.3 435.0,423.2 450.7,422.4 466.4,422.4 482.0,422.4 497.7,422.3 513.4,422.3 529.1,422.1 544.8,422.1 560.5,422.1 576.1,422.1 591.8,422.1 607.5,422.1 623.2,418.3 638.9,418.3 654.5,418.2 670.2,418.2 685.9,418.2 701.6,417.7 717.3,417.7 733.0,417.6 748.6,417.6 764.3,415.6 780.0,413.5 780.0,414.7 764.3,418.3 748.6,421.9 733.0,421.9 717.3,422.0 701.6,422.0 685.9,422.9 670.2,422.9 654.5,422.9 638.9,422.9 623.2,423.0 607.5,428.8 591.8,428.8 576.1,428.8 560.5,428.8 544.8,428.9 529.1,428.9 513.4,429.2 497.7,429.2 482.0,429.3 466.4,429.3 450.7,429.3 435.0,430.7 419.3,430.8 403.6,426.0 388.0,426.0 372.3,426.0 356.6,426.0 340.9,426.0 325.2,426.1 309.5,426.2 293.9,432.2 278.2,432.2 262.5,432.2 246.8,435.9 231.1,436.3 215.5,436.6 199.8,650.0 184.1,650.0 168.4,650.0 152.7,650.0 137.0,650.0 121.4,650.0 105.7,650.0 90.0,650.0" fill="#6E4C13" opacity="0.6" class="anim" style="animation-delay:1000ms;"/>
<polygon points="90.0,650.0 105.7,650.0 121.4,650.0 137.0,650.0 152.7,650.0 168.4,650.0 184.1,650.0 199.8,650.0 215.5,418.7 231.1,418.6 246.8,418.5 262.5,417.3 278.2,417.3 293.9,417.2 309.5,415.3 325.2,415.3 340.9,415.2 356.6,415.2 372.3,415.2 388.0,415.2 403.6,415.2 419.3,416.8 435.0,416.8 450.7,416.3 466.4,416.3 482.0,416.3 497.7,416.3 513.4,416.3 529.1,416.2 544.8,416.2 560.5,416.2 576.1,416.2 591.8,416.2 607.5,416.2 623.2,414.2 638.9,414.2 654.5,414.2 670.2,414.2 685.9,414.2 701.6,413.9 717.3,413.9 733.0,413.9 748.6,413.9 764.3,413.2 780.0,412.5 780.0,413.5 764.3,415.6 748.6,417.6 733.0,417.6 717.3,417.7 701.6,417.7 685.9,418.2 670.2,418.2 654.5,418.2 638.9,418.3 623.2,418.3 607.5,422.1 591.8,422.1 576.1,422.1 560.5,422.1 544.8,422.1 529.1,422.1 513.4,422.3 497.7,422.3 482.0,422.4 466.4,422.4 450.7,422.4 435.0,423.2 419.3,423.3 403.6,420.3 388.0,420.3 372.3,420.3 356.6,420.3 340.9,420.3 325.2,420.3 309.5,420.4 293.9,424.2 278.2,424.2 262.5,424.2 246.8,426.6 231.1,426.8 215.5,427.0 199.8,650.0 184.1,650.0 168.4,650.0 152.7,650.0 137.0,650.0 121.4,650.0 105.7,650.0 90.0,650.0" fill="#F05138" opacity="0.6" class="anim" style="animation-delay:1100ms;"/>
<polygon points="90.0,650.0 105.7,650.0 121.4,650.0 137.0,650.0 152.7,650.0 168.4,650.0 184.1,650.0 199.8,650.0 215.5,414.4 231.1,414.4 246.8,414.3 262.5,413.7 278.2,413.7 293.9,413.7 309.5,412.7 325.2,412.7 340.9,412.7 356.6,412.7 372.3,412.7 388.0,412.7 403.6,412.7 419.3,413.5 435.0,413.4 450.7,413.2 466.4,413.2 482.0,413.2 497.7,413.2 513.4,413.2 529.1,413.1 544.8,413.1 560.5,413.1 576.1,413.1 591.8,413.1 607.5,413.1 623.2,412.2 638.9,412.1 654.5,412.1 670.2,412.1 685.9,412.1 701.6,412.0 717.3,412.0 733.0,412.0 748.6,412.0 764.3,412.0 780.0,412.0 780.0,412.5 764.3,413.2 748.6,413.9 733.0,413.9 717.3,413.9 701.6,413.9 685.9,414.2 670.2,414.2 654.5,414.2 638.9,414.2 623.2,414.2 607.5,416.2 591.8,416.2 576.1,416.2 560.5,416.2 544.8,416.2 529.1,416.2 513.4,416.3 497.7,416.3 482.0,416.3 466.4,416.3 450.7,416.3 435.0,416.8 419.3,416.8 403.6,415.2 388.0,415.2 372.3,415.2 356.6,415.2 340.9,415.2 325.2,415.3 309.5,415.3 293.9,417.2 278.2,417.3 262.5,417.3 246.8,418.5 231.1,418.6 215.5,418.7 199.8,650.0 184.1,650.0 168.4,650.0 152.7,650.0 137.0,650.0 121.4,650.0 105.7,650.0 90.0,650.0" fill="#b07219" opacity="0.6" class="anim" style="animation-delay:1200ms;"/>
<line x1="748.6" y1="100" x2="748.6" y2="650" stroke="#c9d1d9" stroke-width="1" stroke-dasharray="4,3" opacity="0.35"/>
<text x="764.3" y="112" text-anchor="middle" class="axis-label" opacity="0.6">Apr 03, 2026</text>
<text x="90.0" y="668" text-anchor="middle" class="axis-label" transform="rotate(-35 90.0 668)">2026-02</text>
<text x="482.0" y="668" text-anchor="middle" class="axis-label" transform="rotate(-35 482.0 668)">2026-03</text>
<text x="764.3" y="668" text-anchor="middle" class="axis-label" transform="rotate(-35 764.3 668)">Apr 03, 2026</text>
<line x1="796" y1="110" x2="824" y2="110" stroke="#3fb950" stroke-width="2"/>
<text x="832" y="116" class="legend-text">Lines Added</text>
<line x1="796" y1="140" x2="824" y2="140" stroke="#f85149" stroke-width="1.5"/>
<text x="832" y="146" class="legend-text">Lines Deleted</text>
<line x1="796" y1="170" x2="824" y2="170" stroke="#e3b341" stroke-width="1.5" stroke-dasharray="4,3"/>
<text x="832" y="176" class="legend-text">&#x2605; Stars</text>
<text x="796" y="200" class="subtitle">Languages</text>
<rect x="796" y="212" width="12" height="12" rx="2" fill="#e34c26" opacity="0.8" class="anim" style="animation-delay:800ms;"/>
<text x="814" y="223" class="legend-text">HTML (60%→59%)</text>
<rect x="796" y="234" width="12" height="12" rx="2" fill="#f1e05a" opacity="0.8" class="anim" style="animation-delay:880ms;"/>
<text x="814" y="245" class="legend-text">JavaScript (22%→30%)</text>
<rect x="796" y="256" width="12" height="12" rx="2" fill="#3572A5" opacity="0.8" class="anim" style="animation-delay:960ms;"/>
<text x="814" y="267" class="legend-text">Python (7%→3%)</text>
<rect x="796" y="278" width="12" height="12" rx="2" fill="#663399" opacity="0.8" class="anim" style="animation-delay:1040ms;"/>
<text x="814" y="289" class="legend-text">CSS (5%)</text>
<rect x="796" y="300" width="12" height="12" rx="2" fill="#083fa1" opacity="0.8" class="anim" style="animation-delay:1120ms;"/>
<text x="814" y="311" class="legend-text">Markdown (2%→2%)</text>
<rect x="796" y="322" width="12" height="12" rx="2" fill="#6E4C13" opacity="0.8" class="anim" style="animation-delay:1200ms;"/>
<text x="814" y="333" class="legend-text">Assembly (2%→0%)</text>
<rect x="796" y="344" width="12" height="12" rx="2" fill="#F05138" opacity="0.8" class="anim" style="animation-delay:1280ms;"/>
<text x="814" y="355" class="legend-text">Swift (2%→0%)</text>
<rect x="796" y="366" width="12" height="12" rx="2" fill="#b07219" opacity="0.8" class="anim" style="animation-delay:1360ms;"/>
<text x="814" y="377" class="legend-text">Java (1%→0%)</text>
<text x="796" y="412" class="subtitle">Contributions</text>
<text x="796" y="432" class="axis-label">2023: 39</text>
<text x="796" y="452" class="axis-label">2024: 646</text>
<text x="796" y="472" class="axis-label">2025: 1,780</text>
<text x="796" y="492" class="axis-label">2026: 389</text>
<text x="796" y="522" class="subtitle">Statistics</text>
<text x="796" y="542" class="axis-label">Active weeks: 79</text>
<text x="796" y="562" class="axis-label">Add/Del ratio: 1.6x</text>
<text x="796" y="582" class="axis-label">Avg lines/wk: 19K</text>
<text x="796" y="602" class="axis-label">Peak: 2026-02-15</text>
<text x="796" y="622" class="axis-label">  (542K lines)</text>
<text x="90" y="742" class="axis-label">Total: +914,840 / -569,044 lines &#xb7; 2,854 contributions &#xb7; 76 repos &#xb7; &#x2605; 35</text>
</svg>