<svg xmlns="http://www.w3.org/2000/svg" width="1000" height="760" style="max-width: 100%;" viewBox="0 0 1000 760">

<defs>
  <linearGradient id="areaGrad" x1="0" y1="0" x2="0" y2="1">
    <stop offset="0%" stop-color="#58a6ff" stop-opacity="0.35"/>
    <stop offset="100%" stop-color="#58a6ff" stop-opacity="0.02"/>
  </linearGradient>
  <linearGradient id="addGrad" x1="0" y1="0" x2="0" y2="1">
    <stop offset="0%" stop-color="#3fb950" stop-opacity="0.35"/>
    <stop offset="100%" stop-color="#3fb950" stop-opacity="0.02"/>
  </linearGradient>
  <linearGradient id="delGrad" x1="0" y1="0" x2="0" y2="1">
    <stop offset="0%" stop-color="#f85149" stop-opacity="0.25"/>
    <stop offset="100%" stop-color="#f85149" stop-opacity="0.02"/>
  </linearGradient>
</defs>
<style>
  .title { font: bold 28px 'Segoe UI', Ubuntu, Sans-Serif; fill: #c9d1d9; }
  .subtitle { font: 600 20px 'Segoe UI', Ubuntu, Sans-Serif; fill: #c9d1d9; opacity: 0.8; }
  .axis-label { font: 18px 'Segoe UI', Ubuntu, Sans-Serif; fill: #c9d1d9; opacity: 0.7; }
  .legend-text { font: 14px 'Segoe UI', Ubuntu, Sans-Serif; fill: #c9d1d9; }
  .value-text { font: bold 18px 'Segoe UI', Ubuntu, Sans-Serif; fill: #c9d1d9; }
  .stat-value { font: bold 22px 'Segoe UI', Ubuntu, Sans-Serif; fill: #c9d1d9; }
  .stat-label { font: 18px 'Segoe UI', Ubuntu, Sans-Serif; fill: #c9d1d9; opacity: 0.7; }
  @keyframes fadeIn { from { opacity: 0; } to { opacity: 1; } }
  .anim { animation: fadeIn 0.6s ease-in-out forwards; opacity: 0; }
</style>

<rect x="0.5" y="0.5" rx="4.5" width="999" height="759" fill="#161b22" stroke="#21262d"/>
<text x="90" y="45" class="title">Activity History</text>
<text x="90" y="72" class="subtitle">Lines added vs deleted &amp; activity trends over time</text>
<line x1="90" y1="340.0" x2="780" y2="340.0" stroke="#21262d" stroke-width="1"/>
<text x="82" y="344.0" text-anchor="end" class="axis-label">0</text>
<line x1="90" y1="280.0" x2="780" y2="280.0" stroke="#21262d" stroke-width="1"/>
<text x="82" y="284.0" text-anchor="end" class="axis-label">456K</text>
<line x1="90" y1="220.0" x2="780" y2="220.0" stroke="#21262d" stroke-width="1"/>
<text x="82" y="224.0" text-anchor="end" class="axis-label">913K</text>
<line x1="90" y1="160.0" x2="780" y2="160.0" stroke="#21262d" stroke-width="1"/>
<text x="82" y="164.0" text-anchor="end" class="axis-label">1.4M</text>
<line x1="90" y1="100.0" x2="780" y2="100.0" stroke="#21262d" stroke-width="1"/>
<text x="82" y="104.0" text-anchor="end" class="axis-label">1.8M</text>
<polygon points="90.0,340.0 90.0,292.0 98.8,293.8 107.7,292.0 116.5,293.8 125.4,304.8 134.2,282.8 143.1,282.8 151.9,274.5 160.8,274.2 169.6,273.7 178.5,273.6 187.3,258.9 196.2,258.9 205.0,258.8 213.8,236.9 222.7,236.6 231.5,236.4 240.4,236.4 249.2,236.4 258.1,236.4 266.9,236.4 275.8,235.8 284.6,221.2 293.5,221.2 302.3,221.2 311.2,221.2 320.0,220.8 328.8,220.8 337.7,220.2 346.5,220.2 355.4,220.1 364.2,220.1 373.1,220.1 381.9,220.1 390.8,220.2 399.6,220.1 408.5,220.1 417.3,220.1 426.2,220.1 435.0,220.1 443.8,220.1 452.7,219.5 461.5,219.7 470.4,219.1 479.2,218.8 488.1,218.8 496.9,218.8 505.8,218.8 514.6,218.8 523.5,218.8 532.3,218.7 541.2,218.7 550.0,218.7 558.8,218.7 567.7,219.0 576.5,220.5 585.4,219.1 594.2,217.8 603.1,217.7 611.9,217.7 620.8,217.7 629.6,217.7 638.5,210.2 647.3,203.4 656.2,203.4 665.0,203.4 673.8,203.4 682.7,203.4 691.5,203.4 700.4,203.4 709.2,203.4 718.1,203.2 726.9,203.2 735.8,203.2 744.6,203.2 753.5,203.2 762.3,203.2 771.2,195.6 780.0,187.9 780.0,340.0" fill="url(#addGrad)" class="anim" style="animation-delay:200ms;"/>
<polyline points="90.0,292.0 98.8,293.8 107.7,292.0 116.5,293.8 125.4,304.8 134.2,282.8 143.1,282.8 151.9,274.5 160.8,274.2 169.6,273.7 178.5,273.6 187.3,258.9 196.2,258.9 205.0,258.8 213.8,236.9 222.7,236.6 231.5,236.4 240.4,236.4 249.2,236.4 258.1,236.4 266.9,236.4 275.8,235.8 284.6,221.2 293.5,221.2 302.3,221.2 311.2,221.2 320.0,220.8 328.8,220.8 337.7,220.2 346.5,220.2 355.4,220.1 364.2,220.1 373.1,220.1 381.9,220.1 390.8,220.2 399.6,220.1 408.5,220.1 417.3,220.1 426.2,220.1 435.0,220.1 443.8,220.1 452.7,219.5 461.5,219.7 470.4,219.1 479.2,218.8 488.1,218.8 496.9,218.8 505.8,218.8 514.6,218.8 523.5,218.8 532.3,218.7 541.2,218.7 550.0,218.7 558.8,218.7 567.7,219.0 576.5,220.5 585.4,219.1 594.2,217.8 603.1,217.7 611.9,217.7 620.8,217.7 629.6,217.7 638.5,210.2 647.3,203.4 656.2,203.4 665.0,203.4 673.8,203.4 682.7,203.4 691.5,203.4 700.4,203.4 709.2,203.4 718.1,203.2 726.9,203.2 735.8,203.2 744.6,203.2 753.5,203.2 762.3,203.2" fill="none" stroke="#3fb950" stroke-width="2" stroke-linejoin="round" class="anim" style="animation-delay:250ms;"/>
<polyline points="762.3,203.2 771.2,195.6 780.0,187.9" fill="none" stroke="#3fb950" stroke-width="1.5" stroke-dasharray="5,4" stroke-linejoin="round" opacity="0.6" class="anim" style="animation-delay:250ms;"/>
<polygon points="90.0,340.0 90.0,326.5 98.8,327.9 107.7,326.5 116.5,327.9 125.4,333.7 134.2,324.9 143.1,324.9 151.9,323.9 160.8,323.6 169.6,323.3 178.5,323.3 187.3,307.4 196.2,307.4 205.0,307.3 213.8,289.3 222.7,289.2 231.5,289.2 240.4,289.2 249.2,289.2 258.1,289.2 266.9,289.2 275.8,279.7 284.6,265.4 293.5,265.3 302.3,265.3 311.2,265.3 320.0,265.3 328.8,265.3 337.7,265.2 346.5,265.1 355.4,265.1 364.2,265.1 373.1,265.1 381.9,265.1 390.8,265.2 399.6,265.1 408.5,265.1 417.3,265.1 426.2,265.1 435.0,265.1 443.8,265.1 452.7,265.1 461.5,265.2 470.4,264.7 479.2,264.7 488.1,264.7 496.9,264.7 505.8,264.7 514.6,264.7 523.5,264.7 532.3,264.7 541.2,264.7 550.0,264.7 558.8,264.7 567.7,264.8 576.5,265.6 585.4,265.1 594.2,264.3 603.1,264.2 611.9,264.2 620.8,264.2 629.6,264.2 638.5,264.2 647.3,264.2 656.2,264.2 665.0,264.2 673.8,264.2 682.7,264.2 691.5,264.2 700.4,264.2 709.2,264.2 718.1,264.2 726.9,264.2 735.8,264.2 744.6,264.2 753.5,264.2 762.3,264.2 771.2,258.1 780.0,252.1 780.0,340.0" fill="url(#delGrad)" class="anim" style="animation-delay:300ms;"/>
<polyline points="90.0,326.5 98.8,327.9 107.7,326.5 116.5,327.9 125.4,333.7 134.2,324.9 143.1,324.9 151.9,323.9 160.8,323.6 169.6,323.3 178.5,323.3 187.3,307.4 196.2,307.4 205.0,307.3 213.8,289.3 222.7,289.2 231.5,289.2 240.4,289.2 249.2,289.2 258.1,289.2 266.9,289.2 275.8,279.7 284.6,265.4 293.5,265.3 302.3,265.3 311.2,265.3 320.0,265.3 328.8,265.3 337.7,265.2 346.5,265.1 355.4,265.1 364.2,265.1 373.1,265.1 381.9,265.1 390.8,265.2 399.6,265.1 408.5,265.1 417.3,265.1 426.2,265.1 435.0,265.1 443.8,265.1 452.7,265.1 461.5,265.2 470.4,264.7 479.2,264.7 488.1,264.7 496.9,264.7 505.8,264.7 514.6,264.7 523.5,264.7 532.3,264.7 541.2,264.7 550.0,264.7 558.8,264.7 567.7,264.8 576.5,265.6 585.4,265.1 594.2,264.3 603.1,264.2 611.9,264.2 620.8,264.2 629.6,264.2 638.5,264.2 647.3,264.2 656.2,264.2 665.0,264.2 673.8,264.2 682.7,264.2 691.5,264.2 700.4,264.2 709.2,264.2 718.1,264.2 726.9,264.2 735.8,264.2 744.6,264.2 753.5,264.2 762.3,264.2" fill="none" stroke="#f85149" stroke-width="1.5" stroke-linejoin="round" class="anim" style="animation-delay:350ms;"/>
<polyline points="762.3,264.2 771.2,258.1 780.0,252.1" fill="none" stroke="#f85149" stroke-width="1" stroke-dasharray="5,4" stroke-linejoin="round" opacity="0.6" class="anim" style="animation-delay:350ms;"/>
<polyline points="90.0,340.0 98.8,340.0 107.7,340.0 116.5,340.0 125.4,340.0 134.2,340.0 143.1,340.0 151.9,340.0 160.8,308.0 169.6,308.0 178.5,308.0 187.3,308.0 196.2,308.0 205.0,308.0 213.8,308.0 222.7,308.0 231.5,308.0 240.4,308.0 249.2,308.0 258.1,308.0 266.9,308.0 275.8,308.0 284.6,308.0 293.5,308.0 302.3,308.0 311.2,308.0 320.0,308.0 328.8,308.0 337.7,308.0 346.5,308.0 355.4,308.0 364.2,308.0 373.1,308.0 381.9,308.0 390.8,276.0 399.6,276.0 408.5,276.0 417.3,276.0 426.2,276.0 435.0,276.0 443.8,276.0 452.7,276.0 461.5,244.0 470.4,244.0 479.2,244.0 488.1,244.0 496.9,244.0 505.8,244.0 514.6,244.0 523.5,244.0 532.3,244.0 541.2,244.0 550.0,244.0 558.8,244.0 567.7,244.0 576.5,244.0 585.4,244.0 594.2,244.0 603.1,180.0 611.9,180.0 620.8,180.0 629.6,180.0 638.5,180.0 647.3,180.0 656.2,180.0 665.0,180.0 673.8,180.0 682.7,180.0 691.5,180.0 700.4,180.0 709.2,180.0 718.1,180.0 726.9,180.0 735.8,180.0 744.6,180.0 753.5,180.0 762.3,180.0" fill="none" stroke="#e3b341" stroke-width="1.5" stroke-dasharray="4,3" stroke-linejoin="round" class="anim" style="animation-delay:400ms;"/>
<polyline points="762.3,180.0 771.2,180.0 780.0,148.0" fill="none" stroke="#e3b341" stroke-width="1" stroke-dasharray="3,5" stroke-linejoin="round" opacity="0.5" class="anim" style="animation-delay:400ms;"/>
<text x="90" y="90" class="subtitle">Lines Added vs Deleted (per snapshot)</text>
<text x="90" y="400" class="subtitle">Programming Language Development (%)</text>
<line x1="90" y1="650.0" x2="780" y2="650.0" stroke="#21262d" stroke-width="1"/>
<text x="82" y="654.0" text-anchor="end" class="axis-label">0%</text>
<line x1="90" y1="590.0" x2="780" y2="590.0" stroke="#21262d" stroke-width="1"/>
<text x="82" y="594.0" text-anchor="end" class="axis-label">25%</text>
<line x1="90" y1="530.0" x2="780" y2="530.0" stroke="#21262d" stroke-width="1"/>
<text x="82" y="534.0" text-anchor="end" class="axis-label">50%</text>
<line x1="90" y1="470.0" x2="780" y2="470.0" stroke="#21262d" stroke-width="1"/>
<text x="82" y="474.0" text-anchor="end" class="axis-label">75%</text>
<line x1="90" y1="410.0" x2="780" y2="410.0" stroke="#21262d" stroke-width="1"/>
<text x="82" y="414.0" text-anchor="end" class="axis-label">100%</text>
<polygon points="90.0,650.0 98.8,650.0 107.7,650.0 116.5,650.0 125.4,650.0 134.2,650.0 143.1,650.0 151.9,650.0 160.8,528.2 169.6,528.5 178.5,529.7 187.3,499.3 196.2,499.3 205.0,502.9 213.8,485.0 222.7,485.1 231.5,485.4 240.4,485.4 249.2,485.4 258.1,485.4 266.9,485.4 275.8,496.4 284.6,496.7 293.5,491.0 302.3,491.0 311.2,491.0 320.0,491.7 328.8,491.8 337.7,494.0 346.5,494.0 355.4,494.4 364.2,494.4 373.1,494.4 381.9,494.4 390.8,507.6 399.6,507.6 408.5,507.9 417.3,507.9 426.2,507.9 435.0,506.3 443.8,506.4 452.7,506.8 461.5,506.9 470.4,506.8 479.2,507.5 488.1,507.5 496.9,507.5 505.8,507.5 514.6,507.5 523.5,507.5 532.3,507.5 541.2,507.5 550.0,507.5 558.8,507.5 567.7,507.5 576.5,507.5 585.4,507.5 594.2,508.6 603.1,508.6 611.9,508.6 620.8,508.6 629.6,508.6 638.5,509.5 647.3,509.8 656.2,509.8 665.0,509.8 673.8,509.8 682.7,509.8 691.5,509.8 700.4,509.8 709.2,509.8 718.1,510.9 726.9,510.9 735.8,510.9 744.6,510.9 753.5,510.9 762.3,510.9 771.2,512.8 780.0,514.8 780.0,650.0 771.2,650.0 762.3,650.0 753.5,650.0 744.6,650.0 735.8,650.0 726.9,650.0 718.1,650.0 709.2,650.0 700.4,650.0 691.5,650.0 682.7,650.0 673.8,650.0 665.0,650.0 656.2,650.0 647.3,650.0 638.5,650.0 629.6,650.0 620.8,650.0 611.9,650.0 603.1,650.0 594.2,650.0 585.4,650.0 576.5,650.0 567.7,650.0 558.8,650.0 550.0,650.0 541.2,650.0 532.3,650.0 523.5,650.0 514.6,650.0 505.8,650.0 496.9,650.0 488.1,650.0 479.2,650.0 470.4,650.0 461.5,650.0 452.7,650.0 443.8,650.0 435.0,650.0 426.2,650.0 417.3,650.0 408.5,650.0 399.6,650.0 390.8,650.0 381.9,650.0 373.1,650.0 364.2,650.0 355.4,650.0 346.5,650.0 337.7,650.0 328.8,650.0 320.0,650.0 311.2,650.0 302.3,650.0 293.5,650.0 284.6,650.0 275.8,650.0 266.9,650.0 258.1,650.0 249.2,650.0 240.4,650.0 231.5,650.0 222.7,650.0 213.8,650.0 205.0,650.0 196.2,650.0 187.3,650.0 178.5,650.0 169.6,650.0 160.8,650.0 151.9,650.0 143.1,650.0 134.2,650.0 125.4,650.0 116.5,650.0 107.7,650.0 98.8,650.0 90.0,650.0" fill="#e34c26" opacity="0.6" class="anim" style="animation-delay:500ms;"/>
<polygon points="90.0,650.0 98.8,650.0 107.7,650.0 116.5,650.0 125.4,650.0 134.2,650.0 143.1,650.0 151.9,650.0 160.8,488.4 169.6,488.0 178.5,489.0 187.3,476.0 196.2,476.0 205.0,477.2 213.8,460.1 222.7,460.2 231.5,460.6 240.4,460.6 249.2,460.6 258.1,460.6 266.9,460.6 275.8,473.0 284.6,473.5 293.5,469.5 302.3,469.5 311.2,469.5 320.0,469.7 328.8,469.7 337.7,469.7 346.5,469.7 355.4,469.7 364.2,469.7 373.1,469.7 381.9,469.7 390.8,455.6 399.6,455.6 408.5,455.4 417.3,455.4 426.2,455.4 435.0,454.3 443.8,454.3 452.7,455.0 461.5,455.1 470.4,454.9 479.2,455.9 488.1,455.9 496.9,455.9 505.8,455.9 514.6,455.9 523.5,455.9 532.3,455.9 541.2,455.9 550.0,455.9 558.8,455.9 567.7,455.9 576.5,455.9 585.4,455.9 594.2,455.8 603.1,455.8 611.9,455.8 620.8,455.8 629.6,455.8 638.5,457.0 647.3,457.4 656.2,457.4 665.0,457.4 673.8,457.4 682.7,457.4 691.5,457.4 700.4,457.4 709.2,457.4 718.1,458.2 726.9,458.2 735.8,458.2 744.6,458.2 753.5,458.2 762.3,458.2 771.2,456.1 780.0,454.0 780.0,514.8 771.2,512.8 762.3,510.9 753.5,510.9 744.6,510.9 735.8,510.9 726.9,510.9 718.1,510.9 709.2,509.8 700.4,509.8 691.5,509.8 682.7,509.8 673.8,509.8 665.0,509.8 656.2,509.8 647.3,509.8 638.5,509.5 629.6,508.6 620.8,508.6 611.9,508.6 603.1,508.6 594.2,508.6 585.4,507.5 576.5,507.5 567.7,507.5 558.8,507.5 550.0,507.5 541.2,507.5 532.3,507.5 523.5,507.5 514.6,507.5 505.8,507.5 496.9,507.5 488.1,507.5 479.2,507.5 470.4,506.8 461.5,506.9 452.7,506.8 443.8,506.4 435.0,506.3 426.2,507.9 417.3,507.9 408.5,507.9 399.6,507.6 390.8,507.6 381.9,494.4 373.1,494.4 364.2,494.4 355.4,494.4 346.5,494.0 337.7,494.0 328.8,491.8 320.0,491.7 311.2,491.0 302.3,491.0 293.5,491.0 284.6,496.7 275.8,496.4 266.9,485.4 258.1,485.4 249.2,485.4 240.4,485.4 231.5,485.4 222.7,485.1 213.8,485.0 205.0,502.9 196.2,499.3 187.3,499.3 178.5,529.7 169.6,528.5 160.8,528.2 151.9,650.0 143.1,650.0 134.2,650.0 125.4,650.0 116.5,650.0 107.7,650.0 98.8,650.0 90.0,650.0" fill="#f1e05a" opacity="0.6" class="anim" style="animation-delay:600ms;"/>
<polygon points="90.0,650.0 98.8,650.0 107.7,650.0 116.5,650.0 125.4,650.0 134.2,650.0 143.1,650.0 151.9,650.0 160.8,455.5 169.6,455.4 178.5,455.1 187.3,447.0 196.2,447.0 205.0,448.2 213.8,438.9 222.7,439.0 231.5,439.6 240.4,439.6 249.2,439.6 258.1,439.6 266.9,439.6 275.8,445.6 284.6,445.6 293.5,443.3 302.3,443.3 311.2,443.3 320.0,443.6 328.8,443.6 337.7,444.1 346.5,444.1 355.4,444.1 364.2,444.1 373.1,444.1 381.9,444.1 390.8,437.5 399.6,437.5 408.5,437.5 417.3,437.5 426.2,437.5 435.0,437.5 443.8,437.5 452.7,438.4 461.5,438.5 470.4,438.3 479.2,439.3 488.1,439.3 496.9,439.3 505.8,439.3 514.6,439.3 523.5,439.3 532.3,439.3 541.2,439.3 550.0,439.3 558.8,439.3 567.7,439.3 576.5,439.3 585.4,439.3 594.2,439.4 603.1,439.4 611.9,439.4 620.8,439.4 629.6,439.4 638.5,440.7 647.3,441.1 656.2,441.1 665.0,441.1 673.8,441.1 682.7,441.1 691.5,441.1 700.4,441.1 709.2,441.1 718.1,442.0 726.9,442.0 735.8,442.0 744.6,442.0 753.5,442.0 762.3,442.0 771.2,441.6 780.0,441.1 780.0,454.0 771.2,456.1 762.3,458.2 753.5,458.2 744.6,458.2 735.8,458.2 726.9,458.2 718.1,458.2 709.2,457.4 700.4,457.4 691.5,457.4 682.7,457.4 673.8,457.4 665.0,457.4 656.2,457.4 647.3,457.4 638.5,457.0 629.6,455.8 620.8,455.8 611.9,455.8 603.1,455.8 594.2,455.8 585.4,455.9 576.5,455.9 567.7,455.9 558.8,455.9 550.0,455.9 541.2,455.9 532.3,455.9 523.5,455.9 514.6,455.9 505.8,455.9 496.9,455.9 488.1,455.9 479.2,455.9 470.4,454.9 461.5,455.1 452.7,455.0 443.8,454.3 435.0,454.3 426.2,455.4 417.3,455.4 408.5,455.4 399.6,455.6 390.8,455.6 381.9,469.7 373.1,469.7 364.2,469.7 355.4,469.7 346.5,469.7 337.7,469.7 328.8,469.7 320.0,469.7 311.2,469.5 302.3,469.5 293.5,469.5 284.6,473.5 275.8,473.0 266.9,460.6 258.1,460.6 249.2,460.6 240.4,460.6 231.5,460.6 222.7,460.2 213.8,460.1 205.0,477.2 196.2,476.0 187.3,476.0 178.5,489.0 169.6,488.0 160.8,488.4 151.9,650.0 143.1,650.0 134.2,650.0 125.4,650.0 116.5,650.0 107.7,650.0 98.8,650.0 90.0,650.0" fill="#3572A5" opacity="0.6" class="anim" style="animation-delay:700ms;"/>
<polygon points="90.0,650.0 98.8,650.0 107.7,650.0 116.5,650.0 125.4,650.0 134.2,650.0 143.1,650.0 151.9,650.0 160.8,442.3 169.6,442.0 178.5,441.6 187.3,439.5 196.2,439.5 205.0,439.4 213.8,432.3 222.7,432.2 231.5,432.6 240.4,432.6 249.2,432.6 258.1,432.6 266.9,432.6 275.8,439.3 284.6,439.3 293.5,437.4 302.3,437.4 311.2,437.4 320.0,437.3 328.8,437.3 337.7,437.1 346.5,437.1 355.4,437.1 364.2,437.1 373.1,437.1 381.9,437.1 390.8,428.7 399.6,428.6 408.5,428.5 417.3,428.5 426.2,428.5 435.0,427.3 443.8,427.3 452.7,427.1 461.5,427.1 470.4,427.1 479.2,427.0 488.1,427.0 496.9,427.0 505.8,427.0 514.6,427.0 523.5,427.0 532.3,427.0 541.2,427.0 550.0,427.0 558.8,427.0 567.7,427.0 576.5,427.0 585.4,427.0 594.2,427.0 603.1,427.1 611.9,427.1 620.8,427.1 629.6,427.1 638.5,428.4 647.3,428.9 656.2,428.9 665.0,428.9 673.8,428.9 682.7,428.9 691.5,428.9 700.4,428.9 709.2,428.9 718.1,428.7 726.9,428.7 735.8,428.7 744.6,428.7 753.5,428.7 762.3,428.7 771.2,427.5 780.0,426.4 780.0,441.1 771.2,441.6 762.3,442.0 753.5,442.0 744.6,442.0 735.8,442.0 726.9,442.0 718.1,442.0 709.2,441.1 700.4,441.1 691.5,441.1 682.7,441.1 673.8,441.1 665.0,441.1 656.2,441.1 647.3,441.1 638.5,440.7 629.6,439.4 620.8,439.4 611.9,439.4 603.1,439.4 594.2,439.4 585.4,439.3 576.5,439.3 567.7,439.3 558.8,439.3 550.0,439.3 541.2,439.3 532.3,439.3 523.5,439.3 514.6,439.3 505.8,439.3 496.9,439.3 488.1,439.3 479.2,439.3 470.4,438.3 461.5,438.5 452.7,438.4 443.8,437.5 435.0,437.5 426.2,437.5 417.3,437.5 408.5,437.5 399.6,437.5 390.8,437.5 381.9,444.1 373.1,444.1 364.2,444.1 355.4,444.1 346.5,444.1 337.7,444.1 328.8,443.6 320.0,443.6 311.2,443.3 302.3,443.3 293.5,443.3 284.6,445.6 275.8,445.6 266.9,439.6 258.1,439.6 249.2,439.6 240.4,439.6 231.5,439.6 222.7,439.0 213.8,438.9 205.0,448.2 196.2,447.0 187.3,447.0 178.5,455.1 169.6,455.4 160.8,455.5 151.9,650.0 143.1,650.0 134.2,650.0 125.4,650.0 116.5,650.0 107.7,650.0 98.8,650.0 90.0,650.0" fill="#663399" opacity="0.6" class="anim" style="animation-delay:800ms;"/>
<polygon points="90.0,650.0 98.8,650.0 107.7,650.0 116.5,650.0 125.4,650.0 134.2,650.0 143.1,650.0 151.9,650.0 160.8,436.6 169.6,436.3 178.5,435.9 187.3,432.2 196.2,432.2 205.0,432.2 213.8,426.2 222.7,426.1 231.5,426.0 240.4,426.0 249.2,426.0 258.1,426.0 266.9,426.0 275.8,430.8 284.6,430.7 293.5,429.3 302.3,429.3 311.2,429.3 320.0,429.2 328.8,429.2 337.7,428.9 346.5,428.9 355.4,428.8 364.2,428.8 373.1,428.8 381.9,428.8 390.8,423.0 399.6,422.9 408.5,422.9 417.3,422.9 426.2,422.9 435.0,422.0 443.8,422.0 452.7,421.9 461.5,421.9 470.4,421.9 479.2,421.8 488.1,421.8 496.9,421.8 505.8,421.8 514.6,421.8 523.5,421.8 532.3,421.8 541.2,421.8 550.0,421.8 558.8,421.8 567.7,421.8 576.5,421.8 585.4,421.8 594.2,421.7 603.1,421.8 611.9,421.8 620.8,421.8 629.6,421.8 638.5,423.2 647.3,423.6 656.2,423.6 665.0,423.6 673.8,423.6 682.7,423.6 691.5,423.6 700.4,423.6 709.2,423.6 718.1,423.5 726.9,423.5 735.8,423.5 744.6,423.5 753.5,423.5 762.3,423.5 771.2,422.6 780.0,421.7 780.0,426.4 771.2,427.5 762.3,428.7 753.5,428.7 744.6,428.7 735.8,428.7 726.9,428.7 718.1,428.7 709.2,428.9 700.4,428.9 691.5,428.9 682.7,428.9 673.8,428.9 665.0,428.9 656.2,428.9 647.3,428.9 638.5,428.4 629.6,427.1 620.8,427.1 611.9,427.1 603.1,427.1 594.2,427.0 585.4,427.0 576.5,427.0 567.7,427.0 558.8,427.0 550.0,427.0 541.2,427.0 532.3,427.0 523.5,427.0 514.6,427.0 505.8,427.0 496.9,427.0 488.1,427.0 479.2,427.0 470.4,427.1 461.5,427.1 452.7,427.1 443.8,427.3 435.0,427.3 426.2,428.5 417.3,428.5 408.5,428.5 399.6,428.6 390.8,428.7 381.9,437.1 373.1,437.1 364.2,437.1 355.4,437.1 346.5,437.1 337.7,437.1 328.8,437.3 320.0,437.3 311.2,437.4 302.3,437.4 293.5,437.4 284.6,439.3 275.8,439.3 266.9,432.6 258.1,432.6 249.2,432.6 240.4,432.6 231.5,432.6 222.7,432.2 213.8,432.3 205.0,439.4 196.2,439.5 187.3,439.5 178.5,441.6 169.6,442.0 160.8,442.3 151.9,650.0 143.1,650.0 134.2,650.0 125.4,650.0 116.5,650.0 107.7,650.0 98.8,650.0 90.0,650.0" fill="#083fa1" opacity="0.6" class="anim" style="animation-delay:900ms;"/>
<polygon points="90.0,650.0 98.8,650.0 107.7,650.0 116.5,650.0 125.4,650.0 134.2,650.0 143.1,650.0 151.9,650.0 160.8,427.0 169.6,426.8 178.5,426.6 187.3,424.2 196.2,424.2 205.0,424.2 213.8,420.4 222.7,420.3 231.5,420.3 240.4,420.3 249.2,420.3 258.1,420.3 266.9,420.3 275.8,423.3 284.6,423.2 293.5,422.4 302.3,422.4 311.2,422.4 320.0,422.3 328.8,422.3 337.7,422.1 346.5,422.1 355.4,422.1 364.2,422.1 373.1,422.1 381.9,422.1 390.8,418.3 399.6,418.3 408.5,418.2 417.3,418.2 426.2,418.2 435.0,417.7 443.8,417.7 452.7,417.6 461.5,417.6 470.4,417.6 479.2,417.6 488.1,417.6 496.9,417.6 505.8,417.6 514.6,417.6 523.5,417.6 532.3,417.6 541.2,417.6 550.0,417.6 558.8,417.6 567.7,417.6 576.5,417.6 585.4,417.6 594.2,417.5 603.1,417.6 611.9,417.6 620.8,417.6 629.6,417.6 638.5,419.0 647.3,419.5 656.2,419.5 665.0,419.5 673.8,419.5 682.7,419.5 691.5,419.5 700.4,419.5 709.2,419.5 718.1,419.4 726.9,419.4 735.8,419.4 744.6,419.4 753.5,419.4 762.3,419.4 771.2,419.0 780.0,418.6 780.0,421.7 771.2,422.6 762.3,423.5 753.5,423.5 744.6,423.5 735.8,423.5 726.9,423.5 718.1,423.5 709.2,423.6 700.4,423.6 691.5,423.6 682.7,423.6 673.8,423.6 665.0,423.6 656.2,423.6 647.3,423.6 638.5,423.2 629.6,421.8 620.8,421.8 611.9,421.8 603.1,421.8 594.2,421.7 585.4,421.8 576.5,421.8 567.7,421.8 558.8,421.8 550.0,421.8 541.2,421.8 532.3,421.8 523.5,421.8 514.6,421.8 505.8,421.8 496.9,421.8 488.1,421.8 479.2,421.8 470.4,421.9 461.5,421.9 452.7,421.9 443.8,422.0 435.0,422.0 426.2,422.9 417.3,422.9 408.5,422.9 399.6,422.9 390.8,423.0 381.9,428.8 373.1,428.8 364.2,428.8 355.4,428.8 346.5,428.9 337.7,428.9 328.8,429.2 320.0,429.2 311.2,429.3 302.3,429.3 293.5,429.3 284.6,430.7 275.8,430.8 266.9,426.0 258.1,426.0 249.2,426.0 240.4,426.0 231.5,426.0 222.7,426.1 213.8,426.2 205.0,432.2 196.2,432.2 187.3,432.2 178.5,435.9 169.6,436.3 160.8,436.6 151.9,650.0 143.1,650.0 134.2,650.0 125.4,650.0 116.5,650.0 107.7,650.0 98.8,650.0 90.0,650.0" fill="#6E4C13" opacity="0.6" class="anim" style="animation-delay:1000ms;"/>
<polygon points="90.0,650.0 98.8,650.0 107.7,650.0 116.5,650.0 125.4,650.0 134.2,650.0 143.1,650.0 151.9,650.0 160.8,418.7 169.6,418.6 178.5,418.5 187.3,417.3 196.2,417.3 205.0,417.2 213.8,415.3 222.7,415.3 231.5,415.2 240.4,415.2 249.2,415.2 258.1,415.2 266.9,415.2 275.8,416.8 284.6,416.8 293.5,416.3 302.3,416.3 311.2,416.3 320.0,416.3 328.8,416.3 337.7,416.2 346.5,416.2 355.4,416.2 364.2,416.2 373.1,416.2 381.9,416.2 390.8,414.2 399.6,414.2 408.5,414.2 417.3,414.2 426.2,414.2 435.0,413.9 443.8,413.9 452.7,413.9 461.5,413.9 470.4,413.9 479.2,413.9 488.1,413.9 496.9,413.9 505.8,413.9 514.6,413.9 523.5,413.9 532.3,413.9 541.2,413.9 550.0,413.9 558.8,413.9 567.7,413.9 576.5,413.9 585.4,413.9 594.2,413.8 603.1,413.8 611.9,413.8 620.8,413.8 629.6,413.8 638.5,413.8 647.3,413.8 656.2,413.8 665.0,413.8 673.8,413.8 682.7,413.8 691.5,413.8 700.4,413.8 709.2,413.8 718.1,413.8 726.9,413.8 735.8,413.8 744.6,413.8 753.5,413.8 762.3,413.8 771.2,413.6 780.0,413.3 780.0,418.6 771.2,419.0 762.3,419.4 753.5,419.4 744.6,419.4 735.8,419.4 726.9,419.4 718.1,419.4 709.2,419.5 700.4,419.5 691.5,419.5 682.7,419.5 673.8,419.5 665.0,419.5 656.2,419.5 647.3,419.5 638.5,419.0 629.6,417.6 620.8,417.6 611.9,417.6 603.1,417.6 594.2,417.5 585.4,417.6 576.5,417.6 567.7,417.6 558.8,417.6 550.0,417.6 541.2,417.6 532.3,417.6 523.5,417.6 514.6,417.6 505.8,417.6 496.9,417.6 488.1,417.6 479.2,417.6 470.4,417.6 461.5,417.6 452.7,417.6 443.8,417.7 435.0,417.7 426.2,418.2 417.3,418.2 408.5,418.2 399.6,418.3 390.8,418.3 381.9,422.1 373.1,422.1 364.2,422.1 355.4,422.1 346.5,422.1 337.7,422.1 328.8,422.3 320.0,422.3 311.2,422.4 302.3,422.4 293.5,422.4 284.6,423.2 275.8,423.3 266.9,420.3 258.1,420.3 249.2,420.3 240.4,420.3 231.5,420.3 222.7,420.3 213.8,420.4 205.0,424.2 196.2,424.2 187.3,424.2 178.5,426.6 169.6,426.8 160.8,427.0 151.9,650.0 143.1,650.0 134.2,650.0 125.4,650.0 116.5,650.0 107.7,650.0 98.8,650.0 90.0,650.0" fill="#F05138" opacity="0.6" class="anim" style="animation-delay:1100ms;"/>
<polygon points="90.0,650.0 98.8,650.0 107.7,650.0 116.5,650.0 125.4,650.0 134.2,650.0 143.1,650.0 151.9,650.0 160.8,414.4 169.6,414.4 178.5,414.3 187.3,413.7 196.2,413.7 205.0,413.7 213.8,412.7 222.7,412.7 231.5,412.7 240.4,412.7 249.2,412.7 258.1,412.7 266.9,412.7 275.8,413.5 284.6,413.4 293.5,413.2 302.3,413.2 311.2,413.2 320.0,413.2 328.8,413.2 337.7,413.1 346.5,413.1 355.4,413.1 364.2,413.1 373.1,413.1 381.9,413.1 390.8,412.2 399.6,412.1 408.5,412.1 417.3,412.1 426.2,412.1 435.0,412.0 443.8,412.0 452.7,412.0 461.5,412.0 470.4,412.0 479.2,412.0 488.1,412.0 496.9,412.0 505.8,412.0 514.6,412.0 523.5,412.0 532.3,412.0 541.2,412.0 550.0,412.0 558.8,412.0 567.7,412.0 576.5,412.0 585.4,412.0 594.2,411.9 603.1,411.9 611.9,411.9 620.8,411.9 629.6,411.9 638.5,411.9 647.3,411.9 656.2,411.9 665.0,411.9 673.8,411.9 682.7,411.9 691.5,411.9 700.4,411.9 709.2,411.9 718.1,411.9 726.9,411.9 735.8,411.9 744.6,411.9 753.5,411.9 762.3,411.9 771.2,411.9 780.0,411.9 780.0,413.3 771.2,413.6 762.3,413.8 753.5,413.8 744.6,413.8 735.8,413.8 726.9,413.8 718.1,413.8 709.2,413.8 700.4,413.8 691.5,413.8 682.7,413.8 673.8,413.8 665.0,413.8 656.2,413.8 647.3,413.8 638.5,413.8 629.6,413.8 620.8,413.8 611.9,413.8 603.1,413.8 594.2,413.8 585.4,413.9 576.5,413.9 567.7,413.9 558.8,413.9 550.0,413.9 541.2,413.9 532.3,413.9 523.5,413.9 514.6,413.9 505.8,413.9 496.9,413.9 488.1,413.9 479.2,413.9 470.4,413.9 461.5,413.9 452.7,413.9 443.8,413.9 435.0,413.9 426.2,414.2 417.3,414.2 408.5,414.2 399.6,414.2 390.8,414.2 381.9,416.2 373.1,416.2 364.2,416.2 355.4,416.2 346.5,416.2 337.7,416.2 328.8,416.3 320.0,416.3 311.2,416.3 302.3,416.3 293.5,416.3 284.6,416.8 275.8,416.8 266.9,415.2 258.1,415.2 249.2,415.2 240.4,415.2 231.5,415.2 222.7,415.3 213.8,415.3 205.0,417.2 196.2,417.3 187.3,417.3 178.5,418.5 169.6,418.6 160.8,418.7 151.9,650.0 143.1,650.0 134.2,650.0 125.4,650.0 116.5,650.0 107.7,650.0 98.8,650.0 90.0,650.0" fill="#b07219" opacity="0.6" class="anim" style="animation-delay:1200ms;"/>
<line x1="762.3" y1="100" x2="762.3" y2="650" stroke="#c9d1d9" stroke-width="1" stroke-dasharray="4,3" opacity="0.35"/>
<text x="771.2" y="112" text-anchor="middle" class="axis-label" opacity="0.6">Jul 08, 2026</text>
<text x="90.0" y="668" text-anchor="middle" class="axis-label" transform="rotate(-35 90.0 668)">2026-02</text>
<text x="302.3" y="668" text-anchor="middle" class="axis-label" transform="rotate(-35 302.3 668)">2026-03</text>
<text x="585.4" y="668" text-anchor="middle" class="axis-label" transform="rotate(-35 585.4 668)">2026-04</text>
<text x="656.2" y="668" text-anchor="middle" class="axis-label" transform="rotate(-35 656.2 668)">2026-06</text>
<text x="771.2" y="668" text-anchor="middle" class="axis-label" transform="rotate(-35 771.2 668)">Jul 08, 2026</text>
<line x1="796" y1="110" x2="824" y2="110" stroke="#3fb950" stroke-width="2"/>
<text x="832" y="116" class="legend-text">Lines Added</text>
<line x1="796" y1="140" x2="824" y2="140" stroke="#f85149" stroke-width="1.5"/>
<text x="832" y="146" class="legend-text">Lines Deleted</text>
<line x1="796" y1="170" x2="824" y2="170" stroke="#e3b341" stroke-width="1.5" stroke-dasharray="4,3"/>
<text x="832" y="176" class="legend-text">&#x2605; Stars</text>
<text x="796" y="200" class="subtitle">Languages</text>
<rect x="796" y="212" width="12" height="12" rx="2" fill="#e34c26" opacity="0.8" class="anim" style="animation-delay:800ms;"/>
<text x="814" y="223" class="legend-text">HTML (58%→56%)</text>
<rect x="796" y="234" width="12" height="12" rx="2" fill="#f1e05a" opacity="0.8" class="anim" style="animation-delay:880ms;"/>
<text x="814" y="245" class="legend-text">JavaScript (22%→25%)</text>
<rect x="796" y="256" width="12" height="12" rx="2" fill="#3572A5" opacity="0.8" class="anim" style="animation-delay:960ms;"/>
<text x="814" y="267" class="legend-text">Python (7%→5%)</text>
<rect x="796" y="278" width="12" height="12" rx="2" fill="#663399" opacity="0.8" class="anim" style="animation-delay:1040ms;"/>
<text x="814" y="289" class="legend-text">CSS (6%→6%)</text>
<rect x="796" y="300" width="12" height="12" rx="2" fill="#083fa1" opacity="0.8" class="anim" style="animation-delay:1120ms;"/>
<text x="814" y="311" class="legend-text">Markdown (2%→2%)</text>
<rect x="796" y="322" width="12" height="12" rx="2" fill="#6E4C13" opacity="0.8" class="anim" style="animation-delay:1200ms;"/>
<text x="814" y="333" class="legend-text">Assembly (2%→1%)</text>
<rect x="796" y="344" width="12" height="12" rx="2" fill="#F05138" opacity="0.8" class="anim" style="animation-delay:1280ms;"/>
<text x="814" y="355" class="legend-text">Swift (2%→2%)</text>
<rect x="796" y="366" width="12" height="12" rx="2" fill="#b07219" opacity="0.8" class="anim" style="animation-delay:1360ms;"/>
<text x="814" y="377" class="legend-text">Java (1%→1%)</text>
<text x="796" y="412" class="subtitle">Contributions</text>
<text x="796" y="432" class="axis-label">2023: 39</text>
<text x="796" y="452" class="axis-label">2024: 646</text>
<text x="796" y="472" class="axis-label">2025: 1,780</text>
<text x="796" y="492" class="axis-label">2026: 491</text>
<text x="796" y="522" class="subtitle">Statistics</text>
<text x="796" y="542" class="axis-label">Active weeks: 88</text>
<text x="796" y="562" class="axis-label">Add/Del ratio: 1.8x</text>
<text x="796" y="582" class="axis-label">Avg lines/wk: 18K</text>
<text x="796" y="602" class="axis-label">Peak: 2026-02-15</text>
<text x="796" y="622" class="axis-label">  (543K lines)</text>
<text x="90" y="742" class="axis-label">Total: +1,040,332 / -576,819 lines &#xb7; 2,956 contributions &#xb7; 80 repos &#xb7; &#x2605; 37</text>
</svg>