<svg xmlns="http://www.w3.org/2000/svg" width="1000" height="760" style="max-width: 100%;" viewBox="0 0 1000 760">

<defs>
  <linearGradient id="areaGrad" x1="0" y1="0" x2="0" y2="1">
    <stop offset="0%" stop-color="#58a6ff" stop-opacity="0.35"/>
    <stop offset="100%" stop-color="#58a6ff" stop-opacity="0.02"/>
  </linearGradient>
  <linearGradient id="addGrad" x1="0" y1="0" x2="0" y2="1">
    <stop offset="0%" stop-color="#3fb950" stop-opacity="0.35"/>
    <stop offset="100%" stop-color="#3fb950" stop-opacity="0.02"/>
  </linearGradient>
  <linearGradient id="delGrad" x1="0" y1="0" x2="0" y2="1">
    <stop offset="0%" stop-color="#f85149" stop-opacity="0.25"/>
    <stop offset="100%" stop-color="#f85149" stop-opacity="0.02"/>
  </linearGradient>
</defs>
<style>
  .title { font: bold 28px 'Segoe UI', Ubuntu, Sans-Serif; fill: #c9d1d9; }
  .subtitle { font: 600 20px 'Segoe UI', Ubuntu, Sans-Serif; fill: #c9d1d9; opacity: 0.8; }
  .axis-label { font: 18px 'Segoe UI', Ubuntu, Sans-Serif; fill: #c9d1d9; opacity: 0.7; }
  .legend-text { font: 14px 'Segoe UI', Ubuntu, Sans-Serif; fill: #c9d1d9; }
  .value-text { font: bold 18px 'Segoe UI', Ubuntu, Sans-Serif; fill: #c9d1d9; }
  .stat-value { font: bold 22px 'Segoe UI', Ubuntu, Sans-Serif; fill: #c9d1d9; }
  .stat-label { font: 18px 'Segoe UI', Ubuntu, Sans-Serif; fill: #c9d1d9; opacity: 0.7; }
  @keyframes fadeIn { from { opacity: 0; } to { opacity: 1; } }
  .anim { animation: fadeIn 0.6s ease-in-out forwards; opacity: 0; }
</style>

<rect x="0.5" y="0.5" rx="4.5" width="999" height="759" fill="#161b22" stroke="#21262d"/>
<text x="90" y="45" class="title">Activity History</text>
<text x="90" y="72" class="subtitle">Lines added vs deleted &amp; activity trends over time</text>
<line x1="90" y1="340.0" x2="780" y2="340.0" stroke="#21262d" stroke-width="1"/>
<text x="82" y="344.0" text-anchor="end" class="axis-label">0</text>
<line x1="90" y1="280.0" x2="780" y2="280.0" stroke="#21262d" stroke-width="1"/>
<text x="82" y="284.0" text-anchor="end" class="axis-label">455K</text>
<line x1="90" y1="220.0" x2="780" y2="220.0" stroke="#21262d" stroke-width="1"/>
<text x="82" y="224.0" text-anchor="end" class="axis-label">910K</text>
<line x1="90" y1="160.0" x2="780" y2="160.0" stroke="#21262d" stroke-width="1"/>
<text x="82" y="164.0" text-anchor="end" class="axis-label">1.4M</text>
<line x1="90" y1="100.0" x2="780" y2="100.0" stroke="#21262d" stroke-width="1"/>
<text x="82" y="104.0" text-anchor="end" class="axis-label">1.8M</text>
<polygon points="90.0,340.0 90.0,291.8 98.5,293.6 107.0,291.9 115.6,293.6 124.1,304.7 132.6,282.6 141.1,282.6 149.6,274.3 158.1,274.0 166.7,273.4 175.2,273.4 183.7,258.6 192.2,258.6 200.7,258.5 209.3,236.5 217.8,236.3 226.3,236.0 234.8,236.0 243.3,236.0 251.9,236.0 260.4,236.0 268.9,235.4 277.4,220.8 285.9,220.7 294.4,220.7 303.0,220.7 311.5,220.4 320.0,220.4 328.5,219.7 337.0,219.7 345.6,219.7 354.1,219.7 362.6,219.7 371.1,219.7 379.6,219.7 388.1,219.7 396.7,219.7 405.2,219.7 413.7,219.7 422.2,219.7 430.7,219.7 439.3,219.0 447.8,219.3 456.3,218.6 464.8,218.3 473.3,218.3 481.9,218.3 490.4,218.3 498.9,218.3 507.4,218.3 515.9,218.2 524.4,218.2 533.0,218.2 541.5,218.3 550.0,218.6 558.5,220.0 567.0,218.6 575.6,217.3 584.1,217.3 592.6,217.3 601.1,217.3 609.6,217.3 618.1,209.7 626.7,202.9 635.2,202.9 643.7,202.9 652.2,202.9 660.7,202.9 669.3,202.9 677.8,202.9 686.3,202.9 694.8,202.7 703.3,202.7 711.9,202.7 720.4,202.7 728.9,202.7 737.4,202.7 745.9,202.7 754.4,202.7 763.0,202.7 771.5,195.2 780.0,187.7 780.0,340.0" fill="url(#addGrad)" class="anim" style="animation-delay:200ms;"/>
<polyline points="90.0,291.8 98.5,293.6 107.0,291.9 115.6,293.6 124.1,304.7 132.6,282.6 141.1,282.6 149.6,274.3 158.1,274.0 166.7,273.4 175.2,273.4 183.7,258.6 192.2,258.6 200.7,258.5 209.3,236.5 217.8,236.3 226.3,236.0 234.8,236.0 243.3,236.0 251.9,236.0 260.4,236.0 268.9,235.4 277.4,220.8 285.9,220.7 294.4,220.7 303.0,220.7 311.5,220.4 320.0,220.4 328.5,219.7 337.0,219.7 345.6,219.7 354.1,219.7 362.6,219.7 371.1,219.7 379.6,219.7 388.1,219.7 396.7,219.7 405.2,219.7 413.7,219.7 422.2,219.7 430.7,219.7 439.3,219.0 447.8,219.3 456.3,218.6 464.8,218.3 473.3,218.3 481.9,218.3 490.4,218.3 498.9,218.3 507.4,218.3 515.9,218.2 524.4,218.2 533.0,218.2 541.5,218.3 550.0,218.6 558.5,220.0 567.0,218.6 575.6,217.3 584.1,217.3 592.6,217.3 601.1,217.3 609.6,217.3 618.1,209.7 626.7,202.9 635.2,202.9 643.7,202.9 652.2,202.9 660.7,202.9 669.3,202.9 677.8,202.9 686.3,202.9 694.8,202.7 703.3,202.7 711.9,202.7 720.4,202.7 728.9,202.7 737.4,202.7 745.9,202.7 754.4,202.7 763.0,202.7" fill="none" stroke="#3fb950" stroke-width="2" stroke-linejoin="round" class="anim" style="animation-delay:250ms;"/>
<polyline points="763.0,202.7 771.5,195.2 780.0,187.7" fill="none" stroke="#3fb950" stroke-width="1.5" stroke-dasharray="5,4" stroke-linejoin="round" opacity="0.6" class="anim" style="animation-delay:250ms;"/>
<polygon points="90.0,340.0 90.0,326.5 98.5,327.9 107.0,326.5 115.6,327.8 124.1,333.6 132.6,324.8 141.1,324.8 149.6,323.8 158.1,323.5 166.7,323.2 175.2,323.2 183.7,307.2 192.2,307.2 200.7,307.2 209.3,289.1 217.8,289.0 226.3,289.0 234.8,289.0 243.3,289.0 251.9,289.0 260.4,289.0 268.9,279.5 277.4,265.1 285.9,265.1 294.4,265.1 303.0,265.1 311.5,265.0 320.0,265.0 328.5,264.9 337.0,264.9 345.6,264.9 354.1,264.9 362.6,264.9 371.1,264.9 379.6,264.9 388.1,264.9 396.7,264.9 405.2,264.9 413.7,264.9 422.2,264.9 430.7,264.9 439.3,264.9 447.8,264.9 456.3,264.4 464.8,264.4 473.3,264.4 481.9,264.4 490.4,264.4 498.9,264.4 507.4,264.4 515.9,264.4 524.4,264.4 533.0,264.4 541.5,264.5 550.0,264.5 558.5,265.3 567.0,264.8 575.6,264.0 584.1,264.0 592.6,264.0 601.1,264.0 609.6,264.0 618.1,263.9 626.7,263.9 635.2,263.9 643.7,263.9 652.2,263.9 660.7,263.9 669.3,263.9 677.8,263.9 686.3,263.9 694.8,263.9 703.3,263.9 711.9,263.9 720.4,263.9 728.9,263.9 737.4,263.9 745.9,263.9 754.4,263.9 763.0,263.9 771.5,258.1 780.0,252.3 780.0,340.0" fill="url(#delGrad)" class="anim" style="animation-delay:300ms;"/>
<polyline points="90.0,326.5 98.5,327.9 107.0,326.5 115.6,327.8 124.1,333.6 132.6,324.8 141.1,324.8 149.6,323.8 158.1,323.5 166.7,323.2 175.2,323.2 183.7,307.2 192.2,307.2 200.7,307.2 209.3,289.1 217.8,289.0 226.3,289.0 234.8,289.0 243.3,289.0 251.9,289.0 260.4,289.0 268.9,279.5 277.4,265.1 285.9,265.1 294.4,265.1 303.0,265.1 311.5,265.0 320.0,265.0 328.5,264.9 337.0,264.9 345.6,264.9 354.1,264.9 362.6,264.9 371.1,264.9 379.6,264.9 388.1,264.9 396.7,264.9 405.2,264.9 413.7,264.9 422.2,264.9 430.7,264.9 439.3,264.9 447.8,264.9 456.3,264.4 464.8,264.4 473.3,264.4 481.9,264.4 490.4,264.4 498.9,264.4 507.4,264.4 515.9,264.4 524.4,264.4 533.0,264.4 541.5,264.5 550.0,264.5 558.5,265.3 567.0,264.8 575.6,264.0 584.1,264.0 592.6,264.0 601.1,264.0 609.6,264.0 618.1,263.9 626.7,263.9 635.2,263.9 643.7,263.9 652.2,263.9 660.7,263.9 669.3,263.9 677.8,263.9 686.3,263.9 694.8,263.9 703.3,263.9 711.9,263.9 720.4,263.9 728.9,263.9 737.4,263.9 745.9,263.9 754.4,263.9 763.0,263.9" fill="none" stroke="#f85149" stroke-width="1.5" stroke-linejoin="round" class="anim" style="animation-delay:350ms;"/>
<polyline points="763.0,263.9 771.5,258.1 780.0,252.3" fill="none" stroke="#f85149" stroke-width="1" stroke-dasharray="5,4" stroke-linejoin="round" opacity="0.6" class="anim" style="animation-delay:350ms;"/>
<polyline points="90.0,340.0 98.5,340.0 107.0,340.0 115.6,340.0 124.1,340.0 132.6,340.0 141.1,340.0 149.6,340.0 158.1,308.0 166.7,308.0 175.2,308.0 183.7,308.0 192.2,308.0 200.7,308.0 209.3,308.0 217.8,308.0 226.3,308.0 234.8,308.0 243.3,308.0 251.9,308.0 260.4,308.0 268.9,308.0 277.4,308.0 285.9,308.0 294.4,308.0 303.0,308.0 311.5,308.0 320.0,308.0 328.5,308.0 337.0,308.0 345.6,308.0 354.1,308.0 362.6,308.0 371.1,308.0 379.6,276.0 388.1,276.0 396.7,276.0 405.2,276.0 413.7,276.0 422.2,276.0 430.7,276.0 439.3,276.0 447.8,244.0 456.3,244.0 464.8,244.0 473.3,244.0 481.9,244.0 490.4,244.0 498.9,244.0 507.4,244.0 515.9,244.0 524.4,244.0 533.0,244.0 541.5,244.0 550.0,244.0 558.5,244.0 567.0,244.0 575.6,244.0 584.1,180.0 592.6,180.0 601.1,180.0 609.6,180.0 618.1,180.0 626.7,180.0 635.2,180.0 643.7,180.0 652.2,180.0 660.7,180.0 669.3,180.0 677.8,180.0 686.3,180.0 694.8,180.0 703.3,180.0 711.9,180.0 720.4,180.0 728.9,180.0 737.4,180.0 745.9,180.0 754.4,180.0 763.0,180.0" fill="none" stroke="#e3b341" stroke-width="1.5" stroke-dasharray="4,3" stroke-linejoin="round" class="anim" style="animation-delay:400ms;"/>
<polyline points="763.0,180.0 771.5,180.0 780.0,148.0" fill="none" stroke="#e3b341" stroke-width="1" stroke-dasharray="3,5" stroke-linejoin="round" opacity="0.5" class="anim" style="animation-delay:400ms;"/>
<text x="90" y="90" class="subtitle">Lines Added vs Deleted (per snapshot)</text>
<text x="90" y="400" class="subtitle">Programming Language Development (%)</text>
<line x1="90" y1="650.0" x2="780" y2="650.0" stroke="#21262d" stroke-width="1"/>
<text x="82" y="654.0" text-anchor="end" class="axis-label">0%</text>
<line x1="90" y1="590.0" x2="780" y2="590.0" stroke="#21262d" stroke-width="1"/>
<text x="82" y="594.0" text-anchor="end" class="axis-label">25%</text>
<line x1="90" y1="530.0" x2="780" y2="530.0" stroke="#21262d" stroke-width="1"/>
<text x="82" y="534.0" text-anchor="end" class="axis-label">50%</text>
<line x1="90" y1="470.0" x2="780" y2="470.0" stroke="#21262d" stroke-width="1"/>
<text x="82" y="474.0" text-anchor="end" class="axis-label">75%</text>
<line x1="90" y1="410.0" x2="780" y2="410.0" stroke="#21262d" stroke-width="1"/>
<text x="82" y="414.0" text-anchor="end" class="axis-label">100%</text>
<polygon points="90.0,650.0 98.5,650.0 107.0,650.0 115.6,650.0 124.1,650.0 132.6,650.0 141.1,650.0 149.6,650.0 158.1,528.2 166.7,528.5 175.2,529.7 183.7,499.3 192.2,499.3 200.7,502.9 209.3,485.0 217.8,485.1 226.3,485.4 234.8,485.4 243.3,485.4 251.9,485.4 260.4,485.4 268.9,496.4 277.4,496.7 285.9,491.0 294.4,491.0 303.0,491.0 311.5,491.7 320.0,491.8 328.5,494.0 337.0,494.0 345.6,494.4 354.1,494.4 362.6,494.4 371.1,494.4 379.6,507.6 388.1,507.6 396.7,507.9 405.2,507.9 413.7,507.9 422.2,506.3 430.7,506.4 439.3,506.8 447.8,506.9 456.3,506.8 464.8,507.5 473.3,507.5 481.9,507.5 490.4,507.5 498.9,507.5 507.4,507.5 515.9,507.5 524.4,507.5 533.0,507.5 541.5,507.5 550.0,507.5 558.5,507.5 567.0,507.5 575.6,508.6 584.1,508.6 592.6,508.6 601.1,508.6 609.6,508.6 618.1,509.5 626.7,509.8 635.2,509.8 643.7,509.8 652.2,509.8 660.7,509.8 669.3,509.8 677.8,509.8 686.3,509.8 694.8,510.9 703.3,510.9 711.9,510.9 720.4,510.9 728.9,510.9 737.4,510.9 745.9,510.9 754.4,510.9 763.0,510.9 771.5,512.8 780.0,514.8 780.0,650.0 771.5,650.0 763.0,650.0 754.4,650.0 745.9,650.0 737.4,650.0 728.9,650.0 720.4,650.0 711.9,650.0 703.3,650.0 694.8,650.0 686.3,650.0 677.8,650.0 669.3,650.0 660.7,650.0 652.2,650.0 643.7,650.0 635.2,650.0 626.7,650.0 618.1,650.0 609.6,650.0 601.1,650.0 592.6,650.0 584.1,650.0 575.6,650.0 567.0,650.0 558.5,650.0 550.0,650.0 541.5,650.0 533.0,650.0 524.4,650.0 515.9,650.0 507.4,650.0 498.9,650.0 490.4,650.0 481.9,650.0 473.3,650.0 464.8,650.0 456.3,650.0 447.8,650.0 439.3,650.0 430.7,650.0 422.2,650.0 413.7,650.0 405.2,650.0 396.7,650.0 388.1,650.0 379.6,650.0 371.1,650.0 362.6,650.0 354.1,650.0 345.6,650.0 337.0,650.0 328.5,650.0 320.0,650.0 311.5,650.0 303.0,650.0 294.4,650.0 285.9,650.0 277.4,650.0 268.9,650.0 260.4,650.0 251.9,650.0 243.3,650.0 234.8,650.0 226.3,650.0 217.8,650.0 209.3,650.0 200.7,650.0 192.2,650.0 183.7,650.0 175.2,650.0 166.7,650.0 158.1,650.0 149.6,650.0 141.1,650.0 132.6,650.0 124.1,650.0 115.6,650.0 107.0,650.0 98.5,650.0 90.0,650.0" fill="#e34c26" opacity="0.6" class="anim" style="animation-delay:500ms;"/>
<polygon points="90.0,650.0 98.5,650.0 107.0,650.0 115.6,650.0 124.1,650.0 132.6,650.0 141.1,650.0 149.6,650.0 158.1,488.4 166.7,488.0 175.2,489.0 183.7,476.0 192.2,476.0 200.7,477.2 209.3,460.1 217.8,460.2 226.3,460.6 234.8,460.6 243.3,460.6 251.9,460.6 260.4,460.6 268.9,473.0 277.4,473.5 285.9,469.5 294.4,469.5 303.0,469.5 311.5,469.7 320.0,469.7 328.5,469.7 337.0,469.7 345.6,469.7 354.1,469.7 362.6,469.7 371.1,469.7 379.6,455.6 388.1,455.6 396.7,455.4 405.2,455.4 413.7,455.4 422.2,454.3 430.7,454.3 439.3,455.0 447.8,455.1 456.3,454.9 464.8,455.9 473.3,455.9 481.9,455.9 490.4,455.9 498.9,455.9 507.4,455.9 515.9,455.9 524.4,455.9 533.0,455.9 541.5,455.9 550.0,455.9 558.5,455.9 567.0,455.9 575.6,455.8 584.1,455.8 592.6,455.8 601.1,455.8 609.6,455.8 618.1,457.0 626.7,457.4 635.2,457.4 643.7,457.4 652.2,457.4 660.7,457.4 669.3,457.4 677.8,457.4 686.3,457.4 694.8,458.2 703.3,458.2 711.9,458.2 720.4,458.2 728.9,458.2 737.4,458.2 745.9,458.2 754.4,458.2 763.0,458.2 771.5,456.2 780.0,454.3 780.0,514.8 771.5,512.8 763.0,510.9 754.4,510.9 745.9,510.9 737.4,510.9 728.9,510.9 720.4,510.9 711.9,510.9 703.3,510.9 694.8,510.9 686.3,509.8 677.8,509.8 669.3,509.8 660.7,509.8 652.2,509.8 643.7,509.8 635.2,509.8 626.7,509.8 618.1,509.5 609.6,508.6 601.1,508.6 592.6,508.6 584.1,508.6 575.6,508.6 567.0,507.5 558.5,507.5 550.0,507.5 541.5,507.5 533.0,507.5 524.4,507.5 515.9,507.5 507.4,507.5 498.9,507.5 490.4,507.5 481.9,507.5 473.3,507.5 464.8,507.5 456.3,506.8 447.8,506.9 439.3,506.8 430.7,506.4 422.2,506.3 413.7,507.9 405.2,507.9 396.7,507.9 388.1,507.6 379.6,507.6 371.1,494.4 362.6,494.4 354.1,494.4 345.6,494.4 337.0,494.0 328.5,494.0 320.0,491.8 311.5,491.7 303.0,491.0 294.4,491.0 285.9,491.0 277.4,496.7 268.9,496.4 260.4,485.4 251.9,485.4 243.3,485.4 234.8,485.4 226.3,485.4 217.8,485.1 209.3,485.0 200.7,502.9 192.2,499.3 183.7,499.3 175.2,529.7 166.7,528.5 158.1,528.2 149.6,650.0 141.1,650.0 132.6,650.0 124.1,650.0 115.6,650.0 107.0,650.0 98.5,650.0 90.0,650.0" fill="#f1e05a" opacity="0.6" class="anim" style="animation-delay:600ms;"/>
<polygon points="90.0,650.0 98.5,650.0 107.0,650.0 115.6,650.0 124.1,650.0 132.6,650.0 141.1,650.0 149.6,650.0 158.1,455.5 166.7,455.4 175.2,455.1 183.7,447.0 192.2,447.0 200.7,448.2 209.3,438.9 217.8,439.0 226.3,439.6 234.8,439.6 243.3,439.6 251.9,439.6 260.4,439.6 268.9,445.6 277.4,445.6 285.9,443.3 294.4,443.3 303.0,443.3 311.5,443.6 320.0,443.6 328.5,444.1 337.0,444.1 345.6,444.1 354.1,444.1 362.6,444.1 371.1,444.1 379.6,437.5 388.1,437.5 396.7,437.5 405.2,437.5 413.7,437.5 422.2,437.5 430.7,437.5 439.3,438.4 447.8,438.5 456.3,438.3 464.8,439.3 473.3,439.3 481.9,439.3 490.4,439.3 498.9,439.3 507.4,439.3 515.9,439.3 524.4,439.3 533.0,439.3 541.5,439.3 550.0,439.3 558.5,439.3 567.0,439.3 575.6,439.4 584.1,439.4 592.6,439.4 601.1,439.4 609.6,439.4 618.1,440.7 626.7,441.1 635.2,441.1 643.7,441.1 652.2,441.1 660.7,441.1 669.3,441.1 677.8,441.1 686.3,441.1 694.8,442.0 703.3,442.0 711.9,442.0 720.4,442.0 728.9,442.0 737.4,442.0 745.9,442.0 754.4,442.0 763.0,442.0 771.5,441.6 780.0,441.3 780.0,454.3 771.5,456.2 763.0,458.2 754.4,458.2 745.9,458.2 737.4,458.2 728.9,458.2 720.4,458.2 711.9,458.2 703.3,458.2 694.8,458.2 686.3,457.4 677.8,457.4 669.3,457.4 660.7,457.4 652.2,457.4 643.7,457.4 635.2,457.4 626.7,457.4 618.1,457.0 609.6,455.8 601.1,455.8 592.6,455.8 584.1,455.8 575.6,455.8 567.0,455.9 558.5,455.9 550.0,455.9 541.5,455.9 533.0,455.9 524.4,455.9 515.9,455.9 507.4,455.9 498.9,455.9 490.4,455.9 481.9,455.9 473.3,455.9 464.8,455.9 456.3,454.9 447.8,455.1 439.3,455.0 430.7,454.3 422.2,454.3 413.7,455.4 405.2,455.4 396.7,455.4 388.1,455.6 379.6,455.6 371.1,469.7 362.6,469.7 354.1,469.7 345.6,469.7 337.0,469.7 328.5,469.7 320.0,469.7 311.5,469.7 303.0,469.5 294.4,469.5 285.9,469.5 277.4,473.5 268.9,473.0 260.4,460.6 251.9,460.6 243.3,460.6 234.8,460.6 226.3,460.6 217.8,460.2 209.3,460.1 200.7,477.2 192.2,476.0 183.7,476.0 175.2,489.0 166.7,488.0 158.1,488.4 149.6,650.0 141.1,650.0 132.6,650.0 124.1,650.0 115.6,650.0 107.0,650.0 98.5,650.0 90.0,650.0" fill="#3572A5" opacity="0.6" class="anim" style="animation-delay:700ms;"/>
<polygon points="90.0,650.0 98.5,650.0 107.0,650.0 115.6,650.0 124.1,650.0 132.6,650.0 141.1,650.0 149.6,650.0 158.1,442.3 166.7,442.0 175.2,441.6 183.7,439.5 192.2,439.5 200.7,439.4 209.3,432.3 217.8,432.2 226.3,432.6 234.8,432.6 243.3,432.6 251.9,432.6 260.4,432.6 268.9,439.3 277.4,439.3 285.9,437.4 294.4,437.4 303.0,437.4 311.5,437.3 320.0,437.3 328.5,437.1 337.0,437.1 345.6,437.1 354.1,437.1 362.6,437.1 371.1,437.1 379.6,428.7 388.1,428.6 396.7,428.5 405.2,428.5 413.7,428.5 422.2,427.3 430.7,427.3 439.3,427.1 447.8,427.1 456.3,427.1 464.8,427.0 473.3,427.0 481.9,427.0 490.4,427.0 498.9,427.0 507.4,427.0 515.9,427.0 524.4,427.0 533.0,427.0 541.5,427.0 550.0,427.0 558.5,427.0 567.0,427.0 575.6,427.0 584.1,427.1 592.6,427.1 601.1,427.1 609.6,427.1 618.1,428.4 626.7,428.9 635.2,428.9 643.7,428.9 652.2,428.9 660.7,428.9 669.3,428.9 677.8,428.9 686.3,428.9 694.8,428.7 703.3,428.7 711.9,428.7 720.4,428.7 728.9,428.7 737.4,428.7 745.9,428.7 754.4,428.7 763.0,428.7 771.5,427.6 780.0,426.5 780.0,441.3 771.5,441.6 763.0,442.0 754.4,442.0 745.9,442.0 737.4,442.0 728.9,442.0 720.4,442.0 711.9,442.0 703.3,442.0 694.8,442.0 686.3,441.1 677.8,441.1 669.3,441.1 660.7,441.1 652.2,441.1 643.7,441.1 635.2,441.1 626.7,441.1 618.1,440.7 609.6,439.4 601.1,439.4 592.6,439.4 584.1,439.4 575.6,439.4 567.0,439.3 558.5,439.3 550.0,439.3 541.5,439.3 533.0,439.3 524.4,439.3 515.9,439.3 507.4,439.3 498.9,439.3 490.4,439.3 481.9,439.3 473.3,439.3 464.8,439.3 456.3,438.3 447.8,438.5 439.3,438.4 430.7,437.5 422.2,437.5 413.7,437.5 405.2,437.5 396.7,437.5 388.1,437.5 379.6,437.5 371.1,444.1 362.6,444.1 354.1,444.1 345.6,444.1 337.0,444.1 328.5,444.1 320.0,443.6 311.5,443.6 303.0,443.3 294.4,443.3 285.9,443.3 277.4,445.6 268.9,445.6 260.4,439.6 251.9,439.6 243.3,439.6 234.8,439.6 226.3,439.6 217.8,439.0 209.3,438.9 200.7,448.2 192.2,447.0 183.7,447.0 175.2,455.1 166.7,455.4 158.1,455.5 149.6,650.0 141.1,650.0 132.6,650.0 124.1,650.0 115.6,650.0 107.0,650.0 98.5,650.0 90.0,650.0" fill="#663399" opacity="0.6" class="anim" style="animation-delay:800ms;"/>
<polygon points="90.0,650.0 98.5,650.0 107.0,650.0 115.6,650.0 124.1,650.0 132.6,650.0 141.1,650.0 149.6,650.0 158.1,436.6 166.7,436.3 175.2,435.9 183.7,432.2 192.2,432.2 200.7,432.2 209.3,426.2 217.8,426.1 226.3,426.0 234.8,426.0 243.3,426.0 251.9,426.0 260.4,426.0 268.9,430.8 277.4,430.7 285.9,429.3 294.4,429.3 303.0,429.3 311.5,429.2 320.0,429.2 328.5,428.9 337.0,428.9 345.6,428.8 354.1,428.8 362.6,428.8 371.1,428.8 379.6,423.0 388.1,422.9 396.7,422.9 405.2,422.9 413.7,422.9 422.2,422.0 430.7,422.0 439.3,421.9 447.8,421.9 456.3,421.9 464.8,421.8 473.3,421.8 481.9,421.8 490.4,421.8 498.9,421.8 507.4,421.8 515.9,421.8 524.4,421.8 533.0,421.8 541.5,421.8 550.0,421.8 558.5,421.8 567.0,421.8 575.6,421.7 584.1,421.8 592.6,421.8 601.1,421.8 609.6,421.8 618.1,423.2 626.7,423.6 635.2,423.6 643.7,423.6 652.2,423.6 660.7,423.6 669.3,423.6 677.8,423.6 686.3,423.6 694.8,423.5 703.3,423.5 711.9,423.5 720.4,423.5 728.9,423.5 737.4,423.5 745.9,423.5 754.4,423.5 763.0,423.5 771.5,422.7 780.0,421.9 780.0,426.5 771.5,427.6 763.0,428.7 754.4,428.7 745.9,428.7 737.4,428.7 728.9,428.7 720.4,428.7 711.9,428.7 703.3,428.7 694.8,428.7 686.3,428.9 677.8,428.9 669.3,428.9 660.7,428.9 652.2,428.9 643.7,428.9 635.2,428.9 626.7,428.9 618.1,428.4 609.6,427.1 601.1,427.1 592.6,427.1 584.1,427.1 575.6,427.0 567.0,427.0 558.5,427.0 550.0,427.0 541.5,427.0 533.0,427.0 524.4,427.0 515.9,427.0 507.4,427.0 498.9,427.0 490.4,427.0 481.9,427.0 473.3,427.0 464.8,427.0 456.3,427.1 447.8,427.1 439.3,427.1 430.7,427.3 422.2,427.3 413.7,428.5 405.2,428.5 396.7,428.5 388.1,428.6 379.6,428.7 371.1,437.1 362.6,437.1 354.1,437.1 345.6,437.1 337.0,437.1 328.5,437.1 320.0,437.3 311.5,437.3 303.0,437.4 294.4,437.4 285.9,437.4 277.4,439.3 268.9,439.3 260.4,432.6 251.9,432.6 243.3,432.6 234.8,432.6 226.3,432.6 217.8,432.2 209.3,432.3 200.7,439.4 192.2,439.5 183.7,439.5 175.2,441.6 166.7,442.0 158.1,442.3 149.6,650.0 141.1,650.0 132.6,650.0 124.1,650.0 115.6,650.0 107.0,650.0 98.5,650.0 90.0,650.0" fill="#083fa1" opacity="0.6" class="anim" style="animation-delay:900ms;"/>
<polygon points="90.0,650.0 98.5,650.0 107.0,650.0 115.6,650.0 124.1,650.0 132.6,650.0 141.1,650.0 149.6,650.0 158.1,427.0 166.7,426.8 175.2,426.6 183.7,424.2 192.2,424.2 200.7,424.2 209.3,420.4 217.8,420.3 226.3,420.3 234.8,420.3 243.3,420.3 251.9,420.3 260.4,420.3 268.9,423.3 277.4,423.2 285.9,422.4 294.4,422.4 303.0,422.4 311.5,422.3 320.0,422.3 328.5,422.1 337.0,422.1 345.6,422.1 354.1,422.1 362.6,422.1 371.1,422.1 379.6,418.3 388.1,418.3 396.7,418.2 405.2,418.2 413.7,418.2 422.2,417.7 430.7,417.7 439.3,417.6 447.8,417.6 456.3,417.6 464.8,417.6 473.3,417.6 481.9,417.6 490.4,417.6 498.9,417.6 507.4,417.6 515.9,417.6 524.4,417.6 533.0,417.6 541.5,417.6 550.0,417.6 558.5,417.6 567.0,417.6 575.6,417.5 584.1,417.6 592.6,417.6 601.1,417.6 609.6,417.6 618.1,419.0 626.7,419.5 635.2,419.5 643.7,419.5 652.2,419.5 660.7,419.5 669.3,419.5 677.8,419.5 686.3,419.5 694.8,419.4 703.3,419.4 711.9,419.4 720.4,419.4 728.9,419.4 737.4,419.4 745.9,419.4 754.4,419.4 763.0,419.4 771.5,419.0 780.0,418.6 780.0,421.9 771.5,422.7 763.0,423.5 754.4,423.5 745.9,423.5 737.4,423.5 728.9,423.5 720.4,423.5 711.9,423.5 703.3,423.5 694.8,423.5 686.3,423.6 677.8,423.6 669.3,423.6 660.7,423.6 652.2,423.6 643.7,423.6 635.2,423.6 626.7,423.6 618.1,423.2 609.6,421.8 601.1,421.8 592.6,421.8 584.1,421.8 575.6,421.7 567.0,421.8 558.5,421.8 550.0,421.8 541.5,421.8 533.0,421.8 524.4,421.8 515.9,421.8 507.4,421.8 498.9,421.8 490.4,421.8 481.9,421.8 473.3,421.8 464.8,421.8 456.3,421.9 447.8,421.9 439.3,421.9 430.7,422.0 422.2,422.0 413.7,422.9 405.2,422.9 396.7,422.9 388.1,422.9 379.6,423.0 371.1,428.8 362.6,428.8 354.1,428.8 345.6,428.8 337.0,428.9 328.5,428.9 320.0,429.2 311.5,429.2 303.0,429.3 294.4,429.3 285.9,429.3 277.4,430.7 268.9,430.8 260.4,426.0 251.9,426.0 243.3,426.0 234.8,426.0 226.3,426.0 217.8,426.1 209.3,426.2 200.7,432.2 192.2,432.2 183.7,432.2 175.2,435.9 166.7,436.3 158.1,436.6 149.6,650.0 141.1,650.0 132.6,650.0 124.1,650.0 115.6,650.0 107.0,650.0 98.5,650.0 90.0,650.0" fill="#6E4C13" opacity="0.6" class="anim" style="animation-delay:1000ms;"/>
<polygon points="90.0,650.0 98.5,650.0 107.0,650.0 115.6,650.0 124.1,650.0 132.6,650.0 141.1,650.0 149.6,650.0 158.1,418.7 166.7,418.6 175.2,418.5 183.7,417.3 192.2,417.3 200.7,417.2 209.3,415.3 217.8,415.3 226.3,415.2 234.8,415.2 243.3,415.2 251.9,415.2 260.4,415.2 268.9,416.8 277.4,416.8 285.9,416.3 294.4,416.3 303.0,416.3 311.5,416.3 320.0,416.3 328.5,416.2 337.0,416.2 345.6,416.2 354.1,416.2 362.6,416.2 371.1,416.2 379.6,414.2 388.1,414.2 396.7,414.2 405.2,414.2 413.7,414.2 422.2,413.9 430.7,413.9 439.3,413.9 447.8,413.9 456.3,413.9 464.8,413.9 473.3,413.9 481.9,413.9 490.4,413.9 498.9,413.9 507.4,413.9 515.9,413.9 524.4,413.9 533.0,413.9 541.5,413.9 550.0,413.9 558.5,413.9 567.0,413.9 575.6,413.8 584.1,413.8 592.6,413.8 601.1,413.8 609.6,413.8 618.1,413.8 626.7,413.8 635.2,413.8 643.7,413.8 652.2,413.8 660.7,413.8 669.3,413.8 677.8,413.8 686.3,413.8 694.8,413.8 703.3,413.8 711.9,413.8 720.4,413.8 728.9,413.8 737.4,413.8 745.9,413.8 754.4,413.8 763.0,413.8 771.5,413.6 780.0,413.4 780.0,418.6 771.5,419.0 763.0,419.4 754.4,419.4 745.9,419.4 737.4,419.4 728.9,419.4 720.4,419.4 711.9,419.4 703.3,419.4 694.8,419.4 686.3,419.5 677.8,419.5 669.3,419.5 660.7,419.5 652.2,419.5 643.7,419.5 635.2,419.5 626.7,419.5 618.1,419.0 609.6,417.6 601.1,417.6 592.6,417.6 584.1,417.6 575.6,417.5 567.0,417.6 558.5,417.6 550.0,417.6 541.5,417.6 533.0,417.6 524.4,417.6 515.9,417.6 507.4,417.6 498.9,417.6 490.4,417.6 481.9,417.6 473.3,417.6 464.8,417.6 456.3,417.6 447.8,417.6 439.3,417.6 430.7,417.7 422.2,417.7 413.7,418.2 405.2,418.2 396.7,418.2 388.1,418.3 379.6,418.3 371.1,422.1 362.6,422.1 354.1,422.1 345.6,422.1 337.0,422.1 328.5,422.1 320.0,422.3 311.5,422.3 303.0,422.4 294.4,422.4 285.9,422.4 277.4,423.2 268.9,423.3 260.4,420.3 251.9,420.3 243.3,420.3 234.8,420.3 226.3,420.3 217.8,420.3 209.3,420.4 200.7,424.2 192.2,424.2 183.7,424.2 175.2,426.6 166.7,426.8 158.1,427.0 149.6,650.0 141.1,650.0 132.6,650.0 124.1,650.0 115.6,650.0 107.0,650.0 98.5,650.0 90.0,650.0" fill="#F05138" opacity="0.6" class="anim" style="animation-delay:1100ms;"/>
<polygon points="90.0,650.0 98.5,650.0 107.0,650.0 115.6,650.0 124.1,650.0 132.6,650.0 141.1,650.0 149.6,650.0 158.1,414.4 166.7,414.4 175.2,414.3 183.7,413.7 192.2,413.7 200.7,413.7 209.3,412.7 217.8,412.7 226.3,412.7 234.8,412.7 243.3,412.7 251.9,412.7 260.4,412.7 268.9,413.5 277.4,413.4 285.9,413.2 294.4,413.2 303.0,413.2 311.5,413.2 320.0,413.2 328.5,413.1 337.0,413.1 345.6,413.1 354.1,413.1 362.6,413.1 371.1,413.1 379.6,412.2 388.1,412.1 396.7,412.1 405.2,412.1 413.7,412.1 422.2,412.0 430.7,412.0 439.3,412.0 447.8,412.0 456.3,412.0 464.8,412.0 473.3,412.0 481.9,412.0 490.4,412.0 498.9,412.0 507.4,412.0 515.9,412.0 524.4,412.0 533.0,412.0 541.5,412.0 550.0,412.0 558.5,412.0 567.0,412.0 575.6,411.9 584.1,411.9 592.6,411.9 601.1,411.9 609.6,411.9 618.1,411.9 626.7,411.9 635.2,411.9 643.7,411.9 652.2,411.9 660.7,411.9 669.3,411.9 677.8,411.9 686.3,411.9 694.8,411.9 703.3,411.9 711.9,411.9 720.4,411.9 728.9,411.9 737.4,411.9 745.9,411.9 754.4,411.9 763.0,411.9 771.5,411.9 780.0,411.9 780.0,413.4 771.5,413.6 763.0,413.8 754.4,413.8 745.9,413.8 737.4,413.8 728.9,413.8 720.4,413.8 711.9,413.8 703.3,413.8 694.8,413.8 686.3,413.8 677.8,413.8 669.3,413.8 660.7,413.8 652.2,413.8 643.7,413.8 635.2,413.8 626.7,413.8 618.1,413.8 609.6,413.8 601.1,413.8 592.6,413.8 584.1,413.8 575.6,413.8 567.0,413.9 558.5,413.9 550.0,413.9 541.5,413.9 533.0,413.9 524.4,413.9 515.9,413.9 507.4,413.9 498.9,413.9 490.4,413.9 481.9,413.9 473.3,413.9 464.8,413.9 456.3,413.9 447.8,413.9 439.3,413.9 430.7,413.9 422.2,413.9 413.7,414.2 405.2,414.2 396.7,414.2 388.1,414.2 379.6,414.2 371.1,416.2 362.6,416.2 354.1,416.2 345.6,416.2 337.0,416.2 328.5,416.2 320.0,416.3 311.5,416.3 303.0,416.3 294.4,416.3 285.9,416.3 277.4,416.8 268.9,416.8 260.4,415.2 251.9,415.2 243.3,415.2 234.8,415.2 226.3,415.2 217.8,415.3 209.3,415.3 200.7,417.2 192.2,417.3 183.7,417.3 175.2,418.5 166.7,418.6 158.1,418.7 149.6,650.0 141.1,650.0 132.6,650.0 124.1,650.0 115.6,650.0 107.0,650.0 98.5,650.0 90.0,650.0" fill="#b07219" opacity="0.6" class="anim" style="animation-delay:1200ms;"/>
<line x1="763.0" y1="100" x2="763.0" y2="650" stroke="#c9d1d9" stroke-width="1" stroke-dasharray="4,3" opacity="0.35"/>
<text x="771.5" y="112" text-anchor="middle" class="axis-label" opacity="0.6">Jul 11, 2026</text>
<text x="90.0" y="668" text-anchor="middle" class="axis-label" transform="rotate(-35 90.0 668)">2026-02</text>
<text x="320.0" y="668" text-anchor="middle" class="axis-label" transform="rotate(-35 320.0 668)">2026-03</text>
<text x="550.0" y="668" text-anchor="middle" class="axis-label" transform="rotate(-35 550.0 668)">2026-04</text>
<text x="626.7" y="668" text-anchor="middle" class="axis-label" transform="rotate(-35 626.7 668)">2026-06</text>
<text x="771.5" y="668" text-anchor="middle" class="axis-label" transform="rotate(-35 771.5 668)">Jul 11, 2026</text>
<line x1="796" y1="110" x2="824" y2="110" stroke="#3fb950" stroke-width="2"/>
<text x="832" y="116" class="legend-text">Lines Added</text>
<line x1="796" y1="140" x2="824" y2="140" stroke="#f85149" stroke-width="1.5"/>
<text x="832" y="146" class="legend-text">Lines Deleted</text>
<line x1="796" y1="170" x2="824" y2="170" stroke="#e3b341" stroke-width="1.5" stroke-dasharray="4,3"/>
<text x="832" y="176" class="legend-text">&#x2605; Stars</text>
<text x="796" y="200" class="subtitle">Languages</text>
<rect x="796" y="212" width="12" height="12" rx="2" fill="#e34c26" opacity="0.8" class="anim" style="animation-delay:800ms;"/>
<text x="814" y="223" class="legend-text">HTML (58%→56%)</text>
<rect x="796" y="234" width="12" height="12" rx="2" fill="#f1e05a" opacity="0.8" class="anim" style="animation-delay:880ms;"/>
<text x="814" y="245" class="legend-text">JavaScript (22%→25%)</text>
<rect x="796" y="256" width="12" height="12" rx="2" fill="#3572A5" opacity="0.8" class="anim" style="animation-delay:960ms;"/>
<text x="814" y="267" class="legend-text">Python (7%→5%)</text>
<rect x="796" y="278" width="12" height="12" rx="2" fill="#663399" opacity="0.8" class="anim" style="animation-delay:1040ms;"/>
<text x="814" y="289" class="legend-text">CSS (6%→6%)</text>
<rect x="796" y="300" width="12" height="12" rx="2" fill="#083fa1" opacity="0.8" class="anim" style="animation-delay:1120ms;"/>
<text x="814" y="311" class="legend-text">Markdown (2%→2%)</text>
<rect x="796" y="322" width="12" height="12" rx="2" fill="#6E4C13" opacity="0.8" class="anim" style="animation-delay:1200ms;"/>
<text x="814" y="333" class="legend-text">Assembly (2%→1%)</text>
<rect x="796" y="344" width="12" height="12" rx="2" fill="#F05138" opacity="0.8" class="anim" style="animation-delay:1280ms;"/>
<text x="814" y="355" class="legend-text">Swift (2%→2%)</text>
<rect x="796" y="366" width="12" height="12" rx="2" fill="#b07219" opacity="0.8" class="anim" style="animation-delay:1360ms;"/>
<text x="814" y="377" class="legend-text">Java (1%→1%)</text>
<text x="796" y="412" class="subtitle">Contributions</text>
<text x="796" y="432" class="axis-label">2023: 39</text>
<text x="796" y="452" class="axis-label">2024: 646</text>
<text x="796" y="472" class="axis-label">2025: 1,780</text>
<text x="796" y="492" class="axis-label">2026: 491</text>
<text x="796" y="522" class="subtitle">Statistics</text>
<text x="796" y="542" class="axis-label">Active weeks: 88</text>
<text x="796" y="562" class="axis-label">Add/Del ratio: 1.8x</text>
<text x="796" y="582" class="axis-label">Avg lines/wk: 18K</text>
<text x="796" y="602" class="axis-label">Peak: 2026-02-15</text>
<text x="796" y="622" class="axis-label">  (543K lines)</text>
<text x="90" y="742" class="axis-label">Total: +1,040,332 / -576,819 lines &#xb7; 2,956 contributions &#xb7; 80 repos &#xb7; &#x2605; 37</text>
</svg>