<svg xmlns="http://www.w3.org/2000/svg" width="1000" height="760" style="max-width: 100%;" viewBox="0 0 1000 760">

<defs>
  <linearGradient id="areaGrad" x1="0" y1="0" x2="0" y2="1">
    <stop offset="0%" stop-color="#58a6ff" stop-opacity="0.35"/>
    <stop offset="100%" stop-color="#58a6ff" stop-opacity="0.02"/>
  </linearGradient>
  <linearGradient id="addGrad" x1="0" y1="0" x2="0" y2="1">
    <stop offset="0%" stop-color="#3fb950" stop-opacity="0.35"/>
    <stop offset="100%" stop-color="#3fb950" stop-opacity="0.02"/>
  </linearGradient>
  <linearGradient id="delGrad" x1="0" y1="0" x2="0" y2="1">
    <stop offset="0%" stop-color="#f85149" stop-opacity="0.25"/>
    <stop offset="100%" stop-color="#f85149" stop-opacity="0.02"/>
  </linearGradient>
</defs>
<style>
  .title { font: bold 28px 'Segoe UI', Ubuntu, Sans-Serif; fill: #c9d1d9; }
  .subtitle { font: 600 20px 'Segoe UI', Ubuntu, Sans-Serif; fill: #c9d1d9; opacity: 0.8; }
  .axis-label { font: 18px 'Segoe UI', Ubuntu, Sans-Serif; fill: #c9d1d9; opacity: 0.7; }
  .legend-text { font: 14px 'Segoe UI', Ubuntu, Sans-Serif; fill: #c9d1d9; }
  .value-text { font: bold 18px 'Segoe UI', Ubuntu, Sans-Serif; fill: #c9d1d9; }
  .stat-value { font: bold 22px 'Segoe UI', Ubuntu, Sans-Serif; fill: #c9d1d9; }
  .stat-label { font: 18px 'Segoe UI', Ubuntu, Sans-Serif; fill: #c9d1d9; opacity: 0.7; }
  @keyframes fadeIn { from { opacity: 0; } to { opacity: 1; } }
  .anim { animation: fadeIn 0.6s ease-in-out forwards; opacity: 0; }
</style>

<rect x="0.5" y="0.5" rx="4.5" width="999" height="759" fill="#161b22" stroke="#21262d"/>
<text x="90" y="45" class="title">Activity History</text>
<text x="90" y="72" class="subtitle">Lines added vs deleted &amp; activity trends over time</text>
<line x1="90" y1="340.0" x2="780" y2="340.0" stroke="#21262d" stroke-width="1"/>
<text x="82" y="344.0" text-anchor="end" class="axis-label">0</text>
<line x1="90" y1="280.0" x2="780" y2="280.0" stroke="#21262d" stroke-width="1"/>
<text x="82" y="284.0" text-anchor="end" class="axis-label">438K</text>
<line x1="90" y1="220.0" x2="780" y2="220.0" stroke="#21262d" stroke-width="1"/>
<text x="82" y="224.0" text-anchor="end" class="axis-label">876K</text>
<line x1="90" y1="160.0" x2="780" y2="160.0" stroke="#21262d" stroke-width="1"/>
<text x="82" y="164.0" text-anchor="end" class="axis-label">1.3M</text>
<line x1="90" y1="100.0" x2="780" y2="100.0" stroke="#21262d" stroke-width="1"/>
<text x="82" y="104.0" text-anchor="end" class="axis-label">1.8M</text>
<polygon points="90.0,340.0 90.0,290.0 101.1,291.8 112.3,290.0 123.4,291.8 134.5,303.3 145.6,280.4 156.8,280.4 167.9,271.7 179.0,271.4 190.2,270.9 201.3,270.8 212.4,255.4 223.5,255.4 234.7,255.4 245.8,232.5 256.9,232.2 268.1,232.0 279.2,232.0 290.3,232.0 301.5,232.0 312.6,232.0 323.7,231.4 334.8,216.1 346.0,216.1 357.1,216.1 368.2,216.1 379.4,215.7 390.5,215.7 401.6,215.1 412.7,215.1 423.9,215.0 435.0,215.0 446.1,215.0 457.3,215.0 468.4,215.1 479.5,215.0 490.6,215.0 501.8,215.0 512.9,215.0 524.0,215.0 535.2,215.0 546.3,214.3 557.4,214.6 568.5,213.9 579.7,213.6 590.8,213.6 601.9,213.6 613.1,213.6 624.2,213.6 635.3,213.6 646.5,213.5 657.6,213.5 668.7,213.5 679.8,213.6 691.0,213.9 702.1,215.4 713.2,213.9 724.4,212.6 735.5,212.5 746.6,212.5 757.7,212.5 768.9,204.0 780.0,195.4 780.0,340.0" fill="url(#addGrad)" class="anim" style="animation-delay:200ms;"/>
<polyline points="90.0,290.0 101.1,291.8 112.3,290.0 123.4,291.8 134.5,303.3 145.6,280.4 156.8,280.4 167.9,271.7 179.0,271.4 190.2,270.9 201.3,270.8 212.4,255.4 223.5,255.4 234.7,255.4 245.8,232.5 256.9,232.2 268.1,232.0 279.2,232.0 290.3,232.0 301.5,232.0 312.6,232.0 323.7,231.4 334.8,216.1 346.0,216.1 357.1,216.1 368.2,216.1 379.4,215.7 390.5,215.7 401.6,215.1 412.7,215.1 423.9,215.0 435.0,215.0 446.1,215.0 457.3,215.0 468.4,215.1 479.5,215.0 490.6,215.0 501.8,215.0 512.9,215.0 524.0,215.0 535.2,215.0 546.3,214.3 557.4,214.6 568.5,213.9 579.7,213.6 590.8,213.6 601.9,213.6 613.1,213.6 624.2,213.6 635.3,213.6 646.5,213.5 657.6,213.5 668.7,213.5 679.8,213.6 691.0,213.9 702.1,215.4 713.2,213.9 724.4,212.6 735.5,212.5 746.6,212.5 757.7,212.5" fill="none" stroke="#3fb950" stroke-width="2" stroke-linejoin="round" class="anim" style="animation-delay:250ms;"/>
<polyline points="757.7,212.5 768.9,204.0 780.0,195.4" fill="none" stroke="#3fb950" stroke-width="1.5" stroke-dasharray="5,4" stroke-linejoin="round" opacity="0.6" class="anim" style="animation-delay:250ms;"/>
<polygon points="90.0,340.0 90.0,325.9 101.1,327.4 112.3,325.9 123.4,327.4 134.5,333.4 145.6,324.2 156.8,324.2 167.9,323.2 179.0,322.9 190.2,322.6 201.3,322.6 212.4,306.0 223.5,306.0 234.7,305.9 245.8,287.1 256.9,287.0 268.1,287.0 279.2,287.0 290.3,287.0 301.5,287.0 312.6,287.0 323.7,277.2 334.8,262.2 346.0,262.1 357.1,262.1 368.2,262.1 379.4,262.1 390.5,262.1 401.6,262.0 412.7,261.9 423.9,261.9 435.0,261.9 446.1,261.9 457.3,261.9 468.4,262.0 479.5,261.9 490.6,261.9 501.8,261.9 512.9,261.9 524.0,261.9 535.2,261.9 546.3,261.9 557.4,262.0 568.5,261.5 579.7,261.5 590.8,261.5 601.9,261.5 613.1,261.5 624.2,261.5 635.3,261.5 646.5,261.5 657.6,261.5 668.7,261.5 679.8,261.5 691.0,261.6 702.1,262.4 713.2,261.9 724.4,261.1 735.5,261.0 746.6,261.0 757.7,261.0 768.9,252.8 780.0,244.6 780.0,340.0" fill="url(#delGrad)" class="anim" style="animation-delay:300ms;"/>
<polyline points="90.0,325.9 101.1,327.4 112.3,325.9 123.4,327.4 134.5,333.4 145.6,324.2 156.8,324.2 167.9,323.2 179.0,322.9 190.2,322.6 201.3,322.6 212.4,306.0 223.5,306.0 234.7,305.9 245.8,287.1 256.9,287.0 268.1,287.0 279.2,287.0 290.3,287.0 301.5,287.0 312.6,287.0 323.7,277.2 334.8,262.2 346.0,262.1 357.1,262.1 368.2,262.1 379.4,262.1 390.5,262.1 401.6,262.0 412.7,261.9 423.9,261.9 435.0,261.9 446.1,261.9 457.3,261.9 468.4,262.0 479.5,261.9 490.6,261.9 501.8,261.9 512.9,261.9 524.0,261.9 535.2,261.9 546.3,261.9 557.4,262.0 568.5,261.5 579.7,261.5 590.8,261.5 601.9,261.5 613.1,261.5 624.2,261.5 635.3,261.5 646.5,261.5 657.6,261.5 668.7,261.5 679.8,261.5 691.0,261.6 702.1,262.4 713.2,261.9 724.4,261.1 735.5,261.0 746.6,261.0 757.7,261.0" fill="none" stroke="#f85149" stroke-width="1.5" stroke-linejoin="round" class="anim" style="animation-delay:350ms;"/>
<polyline points="757.7,261.0 768.9,252.8 780.0,244.6" fill="none" stroke="#f85149" stroke-width="1" stroke-dasharray="5,4" stroke-linejoin="round" opacity="0.6" class="anim" style="animation-delay:350ms;"/>
<polyline points="90.0,340.0 101.1,340.0 112.3,340.0 123.4,340.0 134.5,340.0 145.6,340.0 156.8,340.0 167.9,340.0 179.0,301.6 190.2,301.6 201.3,301.6 212.4,301.6 223.5,301.6 234.7,301.6 245.8,301.6 256.9,301.6 268.1,301.6 279.2,301.6 290.3,301.6 301.5,301.6 312.6,301.6 323.7,301.6 334.8,301.6 346.0,301.6 357.1,301.6 368.2,301.6 379.4,301.6 390.5,301.6 401.6,301.6 412.7,301.6 423.9,301.6 435.0,301.6 446.1,301.6 457.3,301.6 468.4,263.2 479.5,263.2 490.6,263.2 501.8,263.2 512.9,263.2 524.0,263.2 535.2,263.2 546.3,263.2 557.4,224.8 568.5,224.8 579.7,224.8 590.8,224.8 601.9,224.8 613.1,224.8 624.2,224.8 635.3,224.8 646.5,224.8 657.6,224.8 668.7,224.8 679.8,224.8 691.0,224.8 702.1,224.8 713.2,224.8 724.4,224.8 735.5,148.0 746.6,148.0 757.7,148.0" fill="none" stroke="#e3b341" stroke-width="1.5" stroke-dasharray="4,3" stroke-linejoin="round" class="anim" style="animation-delay:400ms;"/>
<polyline points="757.7,148.0 768.9,148.0 780.0,148.0" fill="none" stroke="#e3b341" stroke-width="1" stroke-dasharray="3,5" stroke-linejoin="round" opacity="0.5" class="anim" style="animation-delay:400ms;"/>
<text x="90" y="90" class="subtitle">Lines Added vs Deleted (per snapshot)</text>
<text x="90" y="400" class="subtitle">Programming Language Development (%)</text>
<line x1="90" y1="650.0" x2="780" y2="650.0" stroke="#21262d" stroke-width="1"/>
<text x="82" y="654.0" text-anchor="end" class="axis-label">0%</text>
<line x1="90" y1="590.0" x2="780" y2="590.0" stroke="#21262d" stroke-width="1"/>
<text x="82" y="594.0" text-anchor="end" class="axis-label">25%</text>
<line x1="90" y1="530.0" x2="780" y2="530.0" stroke="#21262d" stroke-width="1"/>
<text x="82" y="534.0" text-anchor="end" class="axis-label">50%</text>
<line x1="90" y1="470.0" x2="780" y2="470.0" stroke="#21262d" stroke-width="1"/>
<text x="82" y="474.0" text-anchor="end" class="axis-label">75%</text>
<line x1="90" y1="410.0" x2="780" y2="410.0" stroke="#21262d" stroke-width="1"/>
<text x="82" y="414.0" text-anchor="end" class="axis-label">100%</text>
<polygon points="90.0,650.0 101.1,650.0 112.3,650.0 123.4,650.0 134.5,650.0 145.6,650.0 156.8,650.0 167.9,650.0 179.0,528.2 190.2,528.5 201.3,529.7 212.4,499.3 223.5,499.3 234.7,502.9 245.8,485.0 256.9,485.1 268.1,485.4 279.2,485.4 290.3,485.4 301.5,485.4 312.6,485.4 323.7,496.4 334.8,496.7 346.0,491.0 357.1,491.0 368.2,491.0 379.4,491.7 390.5,491.8 401.6,494.0 412.7,494.0 423.9,494.4 435.0,494.4 446.1,494.4 457.3,494.4 468.4,507.6 479.5,507.6 490.6,507.9 501.8,507.9 512.9,507.9 524.0,506.3 535.2,506.4 546.3,506.8 557.4,506.9 568.5,506.8 579.7,507.5 590.8,507.5 601.9,507.5 613.1,507.5 624.2,507.5 635.3,507.5 646.5,507.5 657.6,507.5 668.7,507.5 679.8,507.5 691.0,507.5 702.1,507.5 713.2,507.5 724.4,508.6 735.5,508.6 746.6,508.6 757.7,508.6 768.9,510.4 780.0,512.1 780.0,650.0 768.9,650.0 757.7,650.0 746.6,650.0 735.5,650.0 724.4,650.0 713.2,650.0 702.1,650.0 691.0,650.0 679.8,650.0 668.7,650.0 657.6,650.0 646.5,650.0 635.3,650.0 624.2,650.0 613.1,650.0 601.9,650.0 590.8,650.0 579.7,650.0 568.5,650.0 557.4,650.0 546.3,650.0 535.2,650.0 524.0,650.0 512.9,650.0 501.8,650.0 490.6,650.0 479.5,650.0 468.4,650.0 457.3,650.0 446.1,650.0 435.0,650.0 423.9,650.0 412.7,650.0 401.6,650.0 390.5,650.0 379.4,650.0 368.2,650.0 357.1,650.0 346.0,650.0 334.8,650.0 323.7,650.0 312.6,650.0 301.5,650.0 290.3,650.0 279.2,650.0 268.1,650.0 256.9,650.0 245.8,650.0 234.7,650.0 223.5,650.0 212.4,650.0 201.3,650.0 190.2,650.0 179.0,650.0 167.9,650.0 156.8,650.0 145.6,650.0 134.5,650.0 123.4,650.0 112.3,650.0 101.1,650.0 90.0,650.0" fill="#e34c26" opacity="0.6" class="anim" style="animation-delay:500ms;"/>
<polygon points="90.0,650.0 101.1,650.0 112.3,650.0 123.4,650.0 134.5,650.0 145.6,650.0 156.8,650.0 167.9,650.0 179.0,488.4 190.2,488.0 201.3,489.0 212.4,476.0 223.5,476.0 234.7,477.2 245.8,460.1 256.9,460.2 268.1,460.6 279.2,460.6 290.3,460.6 301.5,460.6 312.6,460.6 323.7,473.0 334.8,473.5 346.0,469.5 357.1,469.5 368.2,469.5 379.4,469.7 390.5,469.7 401.6,469.7 412.7,469.7 423.9,469.7 435.0,469.7 446.1,469.7 457.3,469.7 468.4,455.6 479.5,455.6 490.6,455.4 501.8,455.4 512.9,455.4 524.0,454.3 535.2,454.3 546.3,455.0 557.4,455.1 568.5,454.9 579.7,455.9 590.8,455.9 601.9,455.9 613.1,455.9 624.2,455.9 635.3,455.9 646.5,455.9 657.6,455.9 668.7,455.9 679.8,455.9 691.0,455.9 702.1,455.9 713.2,455.9 724.4,455.8 735.5,455.8 746.6,455.8 757.7,455.8 768.9,452.9 780.0,449.9 780.0,512.1 768.9,510.4 757.7,508.6 746.6,508.6 735.5,508.6 724.4,508.6 713.2,507.5 702.1,507.5 691.0,507.5 679.8,507.5 668.7,507.5 657.6,507.5 646.5,507.5 635.3,507.5 624.2,507.5 613.1,507.5 601.9,507.5 590.8,507.5 579.7,507.5 568.5,506.8 557.4,506.9 546.3,506.8 535.2,506.4 524.0,506.3 512.9,507.9 501.8,507.9 490.6,507.9 479.5,507.6 468.4,507.6 457.3,494.4 446.1,494.4 435.0,494.4 423.9,494.4 412.7,494.0 401.6,494.0 390.5,491.8 379.4,491.7 368.2,491.0 357.1,491.0 346.0,491.0 334.8,496.7 323.7,496.4 312.6,485.4 301.5,485.4 290.3,485.4 279.2,485.4 268.1,485.4 256.9,485.1 245.8,485.0 234.7,502.9 223.5,499.3 212.4,499.3 201.3,529.7 190.2,528.5 179.0,528.2 167.9,650.0 156.8,650.0 145.6,650.0 134.5,650.0 123.4,650.0 112.3,650.0 101.1,650.0 90.0,650.0" fill="#f1e05a" opacity="0.6" class="anim" style="animation-delay:600ms;"/>
<polygon points="90.0,650.0 101.1,650.0 112.3,650.0 123.4,650.0 134.5,650.0 145.6,650.0 156.8,650.0 167.9,650.0 179.0,455.5 190.2,455.4 201.3,455.1 212.4,447.0 223.5,447.0 234.7,448.2 245.8,438.9 256.9,439.0 268.1,439.6 279.2,439.6 290.3,439.6 301.5,439.6 312.6,439.6 323.7,445.6 334.8,445.6 346.0,443.3 357.1,443.3 368.2,443.3 379.4,443.6 390.5,443.6 401.6,444.1 412.7,444.1 423.9,444.1 435.0,444.1 446.1,444.1 457.3,444.1 468.4,437.5 479.5,437.5 490.6,437.5 501.8,437.5 512.9,437.5 524.0,437.5 535.2,437.5 546.3,438.4 557.4,438.5 568.5,438.3 579.7,439.3 590.8,439.3 601.9,439.3 613.1,439.3 624.2,439.3 635.3,439.3 646.5,439.3 657.6,439.3 668.7,439.3 679.8,439.3 691.0,439.3 702.1,439.3 713.2,439.3 724.4,439.4 735.5,439.4 746.6,439.4 757.7,439.4 768.9,438.4 780.0,437.4 780.0,449.9 768.9,452.9 757.7,455.8 746.6,455.8 735.5,455.8 724.4,455.8 713.2,455.9 702.1,455.9 691.0,455.9 679.8,455.9 668.7,455.9 657.6,455.9 646.5,455.9 635.3,455.9 624.2,455.9 613.1,455.9 601.9,455.9 590.8,455.9 579.7,455.9 568.5,454.9 557.4,455.1 546.3,455.0 535.2,454.3 524.0,454.3 512.9,455.4 501.8,455.4 490.6,455.4 479.5,455.6 468.4,455.6 457.3,469.7 446.1,469.7 435.0,469.7 423.9,469.7 412.7,469.7 401.6,469.7 390.5,469.7 379.4,469.7 368.2,469.5 357.1,469.5 346.0,469.5 334.8,473.5 323.7,473.0 312.6,460.6 301.5,460.6 290.3,460.6 279.2,460.6 268.1,460.6 256.9,460.2 245.8,460.1 234.7,477.2 223.5,476.0 212.4,476.0 201.3,489.0 190.2,488.0 179.0,488.4 167.9,650.0 156.8,650.0 145.6,650.0 134.5,650.0 123.4,650.0 112.3,650.0 101.1,650.0 90.0,650.0" fill="#3572A5" opacity="0.6" class="anim" style="animation-delay:700ms;"/>
<polygon points="90.0,650.0 101.1,650.0 112.3,650.0 123.4,650.0 134.5,650.0 145.6,650.0 156.8,650.0 167.9,650.0 179.0,442.3 190.2,442.0 201.3,441.6 212.4,439.5 223.5,439.5 234.7,439.4 245.8,432.3 256.9,432.2 268.1,432.6 279.2,432.6 290.3,432.6 301.5,432.6 312.6,432.6 323.7,439.3 334.8,439.3 346.0,437.4 357.1,437.4 368.2,437.4 379.4,437.3 390.5,437.3 401.6,437.1 412.7,437.1 423.9,437.1 435.0,437.1 446.1,437.1 457.3,437.1 468.4,428.7 479.5,428.6 490.6,428.5 501.8,428.5 512.9,428.5 524.0,427.3 535.2,427.3 546.3,427.1 557.4,427.1 568.5,427.1 579.7,427.0 590.8,427.0 601.9,427.0 613.1,427.0 624.2,427.0 635.3,427.0 646.5,427.0 657.6,427.0 668.7,427.0 679.8,427.0 691.0,427.0 702.1,427.0 713.2,427.0 724.4,427.0 735.5,427.1 746.6,427.1 757.7,427.1 768.9,425.4 780.0,423.7 780.0,437.4 768.9,438.4 757.7,439.4 746.6,439.4 735.5,439.4 724.4,439.4 713.2,439.3 702.1,439.3 691.0,439.3 679.8,439.3 668.7,439.3 657.6,439.3 646.5,439.3 635.3,439.3 624.2,439.3 613.1,439.3 601.9,439.3 590.8,439.3 579.7,439.3 568.5,438.3 557.4,438.5 546.3,438.4 535.2,437.5 524.0,437.5 512.9,437.5 501.8,437.5 490.6,437.5 479.5,437.5 468.4,437.5 457.3,444.1 446.1,444.1 435.0,444.1 423.9,444.1 412.7,444.1 401.6,444.1 390.5,443.6 379.4,443.6 368.2,443.3 357.1,443.3 346.0,443.3 334.8,445.6 323.7,445.6 312.6,439.6 301.5,439.6 290.3,439.6 279.2,439.6 268.1,439.6 256.9,439.0 245.8,438.9 234.7,448.2 223.5,447.0 212.4,447.0 201.3,455.1 190.2,455.4 179.0,455.5 167.9,650.0 156.8,650.0 145.6,650.0 134.5,650.0 123.4,650.0 112.3,650.0 101.1,650.0 90.0,650.0" fill="#663399" opacity="0.6" class="anim" style="animation-delay:800ms;"/>
<polygon points="90.0,650.0 101.1,650.0 112.3,650.0 123.4,650.0 134.5,650.0 145.6,650.0 156.8,650.0 167.9,650.0 179.0,436.6 190.2,436.3 201.3,435.9 212.4,432.2 223.5,432.2 234.7,432.2 245.8,426.2 256.9,426.1 268.1,426.0 279.2,426.0 290.3,426.0 301.5,426.0 312.6,426.0 323.7,430.8 334.8,430.7 346.0,429.3 357.1,429.3 368.2,429.3 379.4,429.2 390.5,429.2 401.6,428.9 412.7,428.9 423.9,428.8 435.0,428.8 446.1,428.8 457.3,428.8 468.4,423.0 479.5,422.9 490.6,422.9 501.8,422.9 512.9,422.9 524.0,422.0 535.2,422.0 546.3,421.9 557.4,421.9 568.5,421.9 579.7,421.8 590.8,421.8 601.9,421.8 613.1,421.8 624.2,421.8 635.3,421.8 646.5,421.8 657.6,421.8 668.7,421.8 679.8,421.8 691.0,421.8 702.1,421.8 713.2,421.8 724.4,421.7 735.5,421.8 746.6,421.8 757.7,421.8 768.9,420.4 780.0,419.0 780.0,423.7 768.9,425.4 757.7,427.1 746.6,427.1 735.5,427.1 724.4,427.0 713.2,427.0 702.1,427.0 691.0,427.0 679.8,427.0 668.7,427.0 657.6,427.0 646.5,427.0 635.3,427.0 624.2,427.0 613.1,427.0 601.9,427.0 590.8,427.0 579.7,427.0 568.5,427.1 557.4,427.1 546.3,427.1 535.2,427.3 524.0,427.3 512.9,428.5 501.8,428.5 490.6,428.5 479.5,428.6 468.4,428.7 457.3,437.1 446.1,437.1 435.0,437.1 423.9,437.1 412.7,437.1 401.6,437.1 390.5,437.3 379.4,437.3 368.2,437.4 357.1,437.4 346.0,437.4 334.8,439.3 323.7,439.3 312.6,432.6 301.5,432.6 290.3,432.6 279.2,432.6 268.1,432.6 256.9,432.2 245.8,432.3 234.7,439.4 223.5,439.5 212.4,439.5 201.3,441.6 190.2,442.0 179.0,442.3 167.9,650.0 156.8,650.0 145.6,650.0 134.5,650.0 123.4,650.0 112.3,650.0 101.1,650.0 90.0,650.0" fill="#083fa1" opacity="0.6" class="anim" style="animation-delay:900ms;"/>
<polygon points="90.0,650.0 101.1,650.0 112.3,650.0 123.4,650.0 134.5,650.0 145.6,650.0 156.8,650.0 167.9,650.0 179.0,427.0 190.2,426.8 201.3,426.6 212.4,424.2 223.5,424.2 234.7,424.2 245.8,420.4 256.9,420.3 268.1,420.3 279.2,420.3 290.3,420.3 301.5,420.3 312.6,420.3 323.7,423.3 334.8,423.2 346.0,422.4 357.1,422.4 368.2,422.4 379.4,422.3 390.5,422.3 401.6,422.1 412.7,422.1 423.9,422.1 435.0,422.1 446.1,422.1 457.3,422.1 468.4,418.3 479.5,418.3 490.6,418.2 501.8,418.2 512.9,418.2 524.0,417.7 535.2,417.7 546.3,417.6 557.4,417.6 568.5,417.6 579.7,417.6 590.8,417.6 601.9,417.6 613.1,417.6 624.2,417.6 635.3,417.6 646.5,417.6 657.6,417.6 668.7,417.6 679.8,417.6 691.0,417.6 702.1,417.6 713.2,417.6 724.4,417.5 735.5,417.6 746.6,417.6 757.7,417.6 768.9,416.8 780.0,416.0 780.0,419.0 768.9,420.4 757.7,421.8 746.6,421.8 735.5,421.8 724.4,421.7 713.2,421.8 702.1,421.8 691.0,421.8 679.8,421.8 668.7,421.8 657.6,421.8 646.5,421.8 635.3,421.8 624.2,421.8 613.1,421.8 601.9,421.8 590.8,421.8 579.7,421.8 568.5,421.9 557.4,421.9 546.3,421.9 535.2,422.0 524.0,422.0 512.9,422.9 501.8,422.9 490.6,422.9 479.5,422.9 468.4,423.0 457.3,428.8 446.1,428.8 435.0,428.8 423.9,428.8 412.7,428.9 401.6,428.9 390.5,429.2 379.4,429.2 368.2,429.3 357.1,429.3 346.0,429.3 334.8,430.7 323.7,430.8 312.6,426.0 301.5,426.0 290.3,426.0 279.2,426.0 268.1,426.0 256.9,426.1 245.8,426.2 234.7,432.2 223.5,432.2 212.4,432.2 201.3,435.9 190.2,436.3 179.0,436.6 167.9,650.0 156.8,650.0 145.6,650.0 134.5,650.0 123.4,650.0 112.3,650.0 101.1,650.0 90.0,650.0" fill="#6E4C13" opacity="0.6" class="anim" style="animation-delay:1000ms;"/>
<polygon points="90.0,650.0 101.1,650.0 112.3,650.0 123.4,650.0 134.5,650.0 145.6,650.0 156.8,650.0 167.9,650.0 179.0,418.7 190.2,418.6 201.3,418.5 212.4,417.3 223.5,417.3 234.7,417.2 245.8,415.3 256.9,415.3 268.1,415.2 279.2,415.2 290.3,415.2 301.5,415.2 312.6,415.2 323.7,416.8 334.8,416.8 346.0,416.3 357.1,416.3 368.2,416.3 379.4,416.3 390.5,416.3 401.6,416.2 412.7,416.2 423.9,416.2 435.0,416.2 446.1,416.2 457.3,416.2 468.4,414.2 479.5,414.2 490.6,414.2 501.8,414.2 512.9,414.2 524.0,413.9 535.2,413.9 546.3,413.9 557.4,413.9 568.5,413.9 579.7,413.9 590.8,413.9 601.9,413.9 613.1,413.9 624.2,413.9 635.3,413.9 646.5,413.9 657.6,413.9 668.7,413.9 679.8,413.9 691.0,413.9 702.1,413.9 713.2,413.9 724.4,413.8 735.5,413.8 746.6,413.8 757.7,413.8 768.9,413.6 780.0,413.3 780.0,416.0 768.9,416.8 757.7,417.6 746.6,417.6 735.5,417.6 724.4,417.5 713.2,417.6 702.1,417.6 691.0,417.6 679.8,417.6 668.7,417.6 657.6,417.6 646.5,417.6 635.3,417.6 624.2,417.6 613.1,417.6 601.9,417.6 590.8,417.6 579.7,417.6 568.5,417.6 557.4,417.6 546.3,417.6 535.2,417.7 524.0,417.7 512.9,418.2 501.8,418.2 490.6,418.2 479.5,418.3 468.4,418.3 457.3,422.1 446.1,422.1 435.0,422.1 423.9,422.1 412.7,422.1 401.6,422.1 390.5,422.3 379.4,422.3 368.2,422.4 357.1,422.4 346.0,422.4 334.8,423.2 323.7,423.3 312.6,420.3 301.5,420.3 290.3,420.3 279.2,420.3 268.1,420.3 256.9,420.3 245.8,420.4 234.7,424.2 223.5,424.2 212.4,424.2 201.3,426.6 190.2,426.8 179.0,427.0 167.9,650.0 156.8,650.0 145.6,650.0 134.5,650.0 123.4,650.0 112.3,650.0 101.1,650.0 90.0,650.0" fill="#F05138" opacity="0.6" class="anim" style="animation-delay:1100ms;"/>
<polygon points="90.0,650.0 101.1,650.0 112.3,650.0 123.4,650.0 134.5,650.0 145.6,650.0 156.8,650.0 167.9,650.0 179.0,414.4 190.2,414.4 201.3,414.3 212.4,413.7 223.5,413.7 234.7,413.7 245.8,412.7 256.9,412.7 268.1,412.7 279.2,412.7 290.3,412.7 301.5,412.7 312.6,412.7 323.7,413.5 334.8,413.4 346.0,413.2 357.1,413.2 368.2,413.2 379.4,413.2 390.5,413.2 401.6,413.1 412.7,413.1 423.9,413.1 435.0,413.1 446.1,413.1 457.3,413.1 468.4,412.2 479.5,412.1 490.6,412.1 501.8,412.1 512.9,412.1 524.0,412.0 535.2,412.0 546.3,412.0 557.4,412.0 568.5,412.0 579.7,412.0 590.8,412.0 601.9,412.0 613.1,412.0 624.2,412.0 635.3,412.0 646.5,412.0 657.6,412.0 668.7,412.0 679.8,412.0 691.0,412.0 702.1,412.0 713.2,412.0 724.4,411.9 735.5,411.9 746.6,411.9 757.7,411.9 768.9,411.9 780.0,411.9 780.0,413.3 768.9,413.6 757.7,413.8 746.6,413.8 735.5,413.8 724.4,413.8 713.2,413.9 702.1,413.9 691.0,413.9 679.8,413.9 668.7,413.9 657.6,413.9 646.5,413.9 635.3,413.9 624.2,413.9 613.1,413.9 601.9,413.9 590.8,413.9 579.7,413.9 568.5,413.9 557.4,413.9 546.3,413.9 535.2,413.9 524.0,413.9 512.9,414.2 501.8,414.2 490.6,414.2 479.5,414.2 468.4,414.2 457.3,416.2 446.1,416.2 435.0,416.2 423.9,416.2 412.7,416.2 401.6,416.2 390.5,416.3 379.4,416.3 368.2,416.3 357.1,416.3 346.0,416.3 334.8,416.8 323.7,416.8 312.6,415.2 301.5,415.2 290.3,415.2 279.2,415.2 268.1,415.2 256.9,415.3 245.8,415.3 234.7,417.2 223.5,417.3 212.4,417.3 201.3,418.5 190.2,418.6 179.0,418.7 167.9,650.0 156.8,650.0 145.6,650.0 134.5,650.0 123.4,650.0 112.3,650.0 101.1,650.0 90.0,650.0" fill="#b07219" opacity="0.6" class="anim" style="animation-delay:1200ms;"/>
<line x1="757.7" y1="100" x2="757.7" y2="650" stroke="#c9d1d9" stroke-width="1" stroke-dasharray="4,3" opacity="0.35"/>
<text x="768.9" y="112" text-anchor="middle" class="axis-label" opacity="0.6">Jun 22, 2026</text>
<text x="90.0" y="668" text-anchor="middle" class="axis-label" transform="rotate(-35 90.0 668)">2026-02</text>
<text x="401.6" y="668" text-anchor="middle" class="axis-label" transform="rotate(-35 401.6 668)">2026-03</text>
<text x="713.2" y="668" text-anchor="middle" class="axis-label" transform="rotate(-35 713.2 668)">2026-04</text>
<line x1="796" y1="110" x2="824" y2="110" stroke="#3fb950" stroke-width="2"/>
<text x="832" y="116" class="legend-text">Lines Added</text>
<line x1="796" y1="140" x2="824" y2="140" stroke="#f85149" stroke-width="1.5"/>
<text x="832" y="146" class="legend-text">Lines Deleted</text>
<line x1="796" y1="170" x2="824" y2="170" stroke="#e3b341" stroke-width="1.5" stroke-dasharray="4,3"/>
<text x="832" y="176" class="legend-text">&#x2605; Stars</text>
<text x="796" y="200" class="subtitle">Languages</text>
<rect x="796" y="212" width="12" height="12" rx="2" fill="#e34c26" opacity="0.8" class="anim" style="animation-delay:800ms;"/>
<text x="814" y="223" class="legend-text">HTML (59%→57%)</text>
<rect x="796" y="234" width="12" height="12" rx="2" fill="#f1e05a" opacity="0.8" class="anim" style="animation-delay:880ms;"/>
<text x="814" y="245" class="legend-text">JavaScript (22%→26%)</text>
<rect x="796" y="256" width="12" height="12" rx="2" fill="#3572A5" opacity="0.8" class="anim" style="animation-delay:960ms;"/>
<text x="814" y="267" class="legend-text">Python (7%→5%)</text>
<rect x="796" y="278" width="12" height="12" rx="2" fill="#663399" opacity="0.8" class="anim" style="animation-delay:1040ms;"/>
<text x="814" y="289" class="legend-text">CSS (5%→6%)</text>
<rect x="796" y="300" width="12" height="12" rx="2" fill="#083fa1" opacity="0.8" class="anim" style="animation-delay:1120ms;"/>
<text x="814" y="311" class="legend-text">Markdown (2%→2%)</text>
<rect x="796" y="322" width="12" height="12" rx="2" fill="#6E4C13" opacity="0.8" class="anim" style="animation-delay:1200ms;"/>
<text x="814" y="333" class="legend-text">Assembly (2%→1%)</text>
<rect x="796" y="344" width="12" height="12" rx="2" fill="#F05138" opacity="0.8" class="anim" style="animation-delay:1280ms;"/>
<text x="814" y="355" class="legend-text">Swift (2%→1%)</text>
<rect x="796" y="366" width="12" height="12" rx="2" fill="#b07219" opacity="0.8" class="anim" style="animation-delay:1360ms;"/>
<text x="814" y="377" class="legend-text">Java (1%→1%)</text>
<text x="796" y="412" class="subtitle">Contributions</text>
<text x="796" y="432" class="axis-label">2023: 39</text>
<text x="796" y="452" class="axis-label">2024: 646</text>
<text x="796" y="472" class="axis-label">2025: 1,780</text>
<text x="796" y="492" class="axis-label">2026: 479</text>
<text x="796" y="522" class="subtitle">Statistics</text>
<text x="796" y="542" class="axis-label">Active weeks: 86</text>
<text x="796" y="562" class="axis-label">Add/Del ratio: 1.6x</text>
<text x="796" y="582" class="axis-label">Avg lines/wk: 18K</text>
<text x="796" y="602" class="axis-label">Peak: 2026-02-15</text>
<text x="796" y="622" class="axis-label">  (543K lines)</text>
<text x="90" y="742" class="axis-label">Total: +930,187 / -576,375 lines &#xb7; 2,944 contributions &#xb7; 79 repos &#xb7; &#x2605; 37</text>
</svg>