<svg xmlns="http://www.w3.org/2000/svg" width="1000" height="760" viewBox="0 0 1000 760">

<defs>
  <linearGradient id="areaGrad" x1="0" y1="0" x2="0" y2="1">
    <stop offset="0%" stop-color="#58a6ff" stop-opacity="0.35"/>
    <stop offset="100%" stop-color="#58a6ff" stop-opacity="0.02"/>
  </linearGradient>
  <linearGradient id="addGrad" x1="0" y1="0" x2="0" y2="1">
    <stop offset="0%" stop-color="#3fb950" stop-opacity="0.35"/>
    <stop offset="100%" stop-color="#3fb950" stop-opacity="0.02"/>
  </linearGradient>
  <linearGradient id="delGrad" x1="0" y1="0" x2="0" y2="1">
    <stop offset="0%" stop-color="#f85149" stop-opacity="0.25"/>
    <stop offset="100%" stop-color="#f85149" stop-opacity="0.02"/>
  </linearGradient>
</defs>
<style>
  .title { font: bold 16px 'Segoe UI', Ubuntu, Sans-Serif; fill: #c9d1d9; }
  .subtitle { font: 600 12px 'Segoe UI', Ubuntu, Sans-Serif; fill: #c9d1d9; opacity: 0.8; }
  .axis-label { font: 11px 'Segoe UI', Ubuntu, Sans-Serif; fill: #c9d1d9; opacity: 0.7; }
  .legend-text { font: 12px 'Segoe UI', Ubuntu, Sans-Serif; fill: #c9d1d9; }
  .value-text { font: bold 11px 'Segoe UI', Ubuntu, Sans-Serif; fill: #c9d1d9; }
  .stat-value { font: bold 13px 'Segoe UI', Ubuntu, Sans-Serif; fill: #c9d1d9; }
  .stat-label { font: 11px 'Segoe UI', Ubuntu, Sans-Serif; fill: #c9d1d9; opacity: 0.7; }
  @keyframes fadeIn { from { opacity: 0; } to { opacity: 1; } }
  .anim { animation: fadeIn 0.6s ease-in-out forwards; opacity: 0; }
</style>

<rect x="0.5" y="0.5" rx="4.5" width="999" height="759" fill="#161b22" stroke="#21262d"/>
<text x="65" y="30" class="title">Activity History</text>
<text x="65" y="48" class="subtitle">Lines added vs deleted &amp; activity trends over time</text>
<line x1="65" y1="240.0" x2="820" y2="240.0" stroke="#21262d" stroke-width="1"/>
<text x="57" y="244.0" text-anchor="end" class="axis-label">0</text>
<line x1="65" y1="195.0" x2="820" y2="195.0" stroke="#21262d" stroke-width="1"/>
<text x="57" y="199.0" text-anchor="end" class="axis-label">293,761</text>
<line x1="65" y1="150.0" x2="820" y2="150.0" stroke="#21262d" stroke-width="1"/>
<text x="57" y="154.0" text-anchor="end" class="axis-label">587,522</text>
<line x1="65" y1="105.0" x2="820" y2="105.0" stroke="#21262d" stroke-width="1"/>
<text x="57" y="109.0" text-anchor="end" class="axis-label">881,283</text>
<line x1="65" y1="60.0" x2="820" y2="60.0" stroke="#21262d" stroke-width="1"/>
<text x="57" y="64.0" text-anchor="end" class="axis-label">1,175,044</text>
<polygon points="65.0,240.0 65.0,184.1 104.7,186.1 144.5,184.1 184.2,186.1 223.9,199.0 263.7,173.4 303.4,173.4 343.2,163.7 382.9,163.3 422.6,162.7 462.4,162.7 502.1,145.5 541.8,145.4 581.6,145.4 621.3,119.9 661.1,119.6 700.8,119.3 740.5,119.3 780.3,119.3 820.0,119.3 820.0,240.0" fill="url(#addGrad)" class="anim" style="animation-delay:200ms;"/>
<polyline points="65.0,184.1 104.7,186.1 144.5,184.1 184.2,186.1 223.9,199.0 263.7,173.4 303.4,173.4 343.2,163.7 382.9,163.3 422.6,162.7 462.4,162.7 502.1,145.5 541.8,145.4 581.6,145.4 621.3,119.9 661.1,119.6 700.8,119.3 740.5,119.3 780.3,119.3 820.0,119.3" fill="none" stroke="#3fb950" stroke-width="2" stroke-linejoin="round" class="anim" style="animation-delay:250ms;"/>
<polygon points="65.0,240.0 65.0,224.3 104.7,225.9 144.5,224.3 184.2,225.9 223.9,232.6 263.7,222.4 303.4,222.4 343.2,221.2 382.9,220.9 422.6,220.5 462.4,220.5 502.1,202.0 541.8,202.0 581.6,201.9 621.3,180.9 661.1,180.8 700.8,180.7 740.5,180.7 780.3,180.7 820.0,180.7 820.0,240.0" fill="url(#delGrad)" class="anim" style="animation-delay:300ms;"/>
<polyline points="65.0,224.3 104.7,225.9 144.5,224.3 184.2,225.9 223.9,232.6 263.7,222.4 303.4,222.4 343.2,221.2 382.9,220.9 422.6,220.5 462.4,220.5 502.1,202.0 541.8,202.0 581.6,201.9 621.3,180.9 661.1,180.8 700.8,180.7 740.5,180.7 780.3,180.7 820.0,180.7" fill="none" stroke="#f85149" stroke-width="1.5" stroke-linejoin="round" class="anim" style="animation-delay:350ms;"/>
<polyline points="65.0,240.0 104.7,240.0 144.5,240.0 184.2,240.0 223.9,240.0 263.7,240.0 303.4,240.0 343.2,240.0 382.9,96.0 422.6,96.0 462.4,96.0 502.1,96.0 541.8,96.0 581.6,96.0 621.3,96.0 661.1,96.0 700.8,96.0 740.5,96.0 780.3,96.0 820.0,96.0" fill="none" stroke="#e3b341" stroke-width="1.5" stroke-dasharray="4,3" stroke-linejoin="round" class="anim" style="animation-delay:400ms;"/>
<text x="65" y="54" class="subtitle">Lines Added vs Deleted (per snapshot)</text>
<text x="65" y="294" class="subtitle">Programming Language Development (%)</text>
<line x1="65" y1="480.0" x2="820" y2="480.0" stroke="#21262d" stroke-width="1"/>
<text x="57" y="484.0" text-anchor="end" class="axis-label">0%</text>
<line x1="65" y1="435.0" x2="820" y2="435.0" stroke="#21262d" stroke-width="1"/>
<text x="57" y="439.0" text-anchor="end" class="axis-label">25%</text>
<line x1="65" y1="390.0" x2="820" y2="390.0" stroke="#21262d" stroke-width="1"/>
<text x="57" y="394.0" text-anchor="end" class="axis-label">50%</text>
<line x1="65" y1="345.0" x2="820" y2="345.0" stroke="#21262d" stroke-width="1"/>
<text x="57" y="349.0" text-anchor="end" class="axis-label">75%</text>
<line x1="65" y1="300.0" x2="820" y2="300.0" stroke="#21262d" stroke-width="1"/>
<text x="57" y="304.0" text-anchor="end" class="axis-label">100%</text>
<polygon points="65.0,480.0 104.7,480.0 144.5,480.0 184.2,480.0 223.9,480.0 263.7,480.0 303.4,480.0 343.2,480.0 382.9,388.6 422.6,388.8 462.4,389.8 502.1,366.9 541.8,366.9 581.6,369.6 621.3,356.3 661.1,356.3 700.8,356.5 740.5,356.5 780.3,356.5 820.0,356.5 820.0,480.0 780.3,480.0 740.5,480.0 700.8,480.0 661.1,480.0 621.3,480.0 581.6,480.0 541.8,480.0 502.1,480.0 462.4,480.0 422.6,480.0 382.9,480.0 343.2,480.0 303.4,480.0 263.7,480.0 223.9,480.0 184.2,480.0 144.5,480.0 104.7,480.0 65.0,480.0" fill="#e34c26" opacity="0.6" class="anim" style="animation-delay:500ms;"/>
<polygon points="65.0,480.0 104.7,480.0 144.5,480.0 184.2,480.0 223.9,480.0 263.7,480.0 303.4,480.0 343.2,480.0 382.9,358.8 422.6,358.5 462.4,359.2 502.1,349.5 541.8,349.5 581.6,350.4 621.3,337.6 661.1,337.6 700.8,338.0 740.5,338.0 780.3,338.0 820.0,338.0 820.0,356.5 780.3,356.5 740.5,356.5 700.8,356.5 661.1,356.3 621.3,356.3 581.6,369.6 541.8,366.9 502.1,366.9 462.4,389.8 422.6,388.8 382.9,388.6 343.2,480.0 303.4,480.0 263.7,480.0 223.9,480.0 184.2,480.0 144.5,480.0 104.7,480.0 65.0,480.0" fill="#f1e05a" opacity="0.6" class="anim" style="animation-delay:600ms;"/>
<polygon points="65.0,480.0 104.7,480.0 144.5,480.0 184.2,480.0 223.9,480.0 263.7,480.0 303.4,480.0 343.2,480.0 382.9,334.2 422.6,334.0 462.4,333.9 502.1,327.7 541.8,327.7 581.6,328.6 621.3,321.7 661.1,321.7 700.8,322.2 740.5,322.2 780.3,322.2 820.0,322.2 820.0,338.0 780.3,338.0 740.5,338.0 700.8,338.0 661.1,337.6 621.3,337.6 581.6,350.4 541.8,349.5 502.1,349.5 462.4,359.2 422.6,358.5 382.9,358.8 343.2,480.0 303.4,480.0 263.7,480.0 223.9,480.0 184.2,480.0 144.5,480.0 104.7,480.0 65.0,480.0" fill="#3572A5" opacity="0.6" class="anim" style="animation-delay:700ms;"/>
<polygon points="65.0,480.0 104.7,480.0 144.5,480.0 184.2,480.0 223.9,480.0 263.7,480.0 303.4,480.0 343.2,480.0 382.9,324.2 422.6,324.0 462.4,323.7 502.1,322.1 541.8,322.1 581.6,322.1 621.3,316.7 661.1,316.6 700.8,316.9 740.5,316.9 780.3,316.9 820.0,316.9 820.0,322.2 780.3,322.2 740.5,322.2 700.8,322.2 661.1,321.7 621.3,321.7 581.6,328.6 541.8,327.7 502.1,327.7 462.4,333.9 422.6,334.0 382.9,334.2 343.2,480.0 303.4,480.0 263.7,480.0 223.9,480.0 184.2,480.0 144.5,480.0 104.7,480.0 65.0,480.0" fill="#663399" opacity="0.6" class="anim" style="animation-delay:800ms;"/>
<polygon points="65.0,480.0 104.7,480.0 144.5,480.0 184.2,480.0 223.9,480.0 263.7,480.0 303.4,480.0 343.2,480.0 382.9,317.0 422.6,316.9 462.4,316.7 502.1,316.1 541.8,316.1 581.6,316.1 621.3,312.3 661.1,312.3 700.8,312.6 740.5,312.6 780.3,312.6 820.0,312.6 820.0,316.9 780.3,316.9 740.5,316.9 700.8,316.9 661.1,316.6 621.3,316.7 581.6,322.1 541.8,322.1 502.1,322.1 462.4,323.7 422.6,324.0 382.9,324.2 343.2,480.0 303.4,480.0 263.7,480.0 223.9,480.0 184.2,480.0 144.5,480.0 104.7,480.0 65.0,480.0" fill="#6E4C13" opacity="0.6" class="anim" style="animation-delay:900ms;"/>
<polygon points="65.0,480.0 104.7,480.0 144.5,480.0 184.2,480.0 223.9,480.0 263.7,480.0 303.4,480.0 343.2,480.0 382.9,312.7 422.6,312.6 462.4,312.4 502.1,310.7 541.8,310.7 581.6,310.6 621.3,307.8 661.1,307.7 700.8,307.7 740.5,307.7 780.3,307.7 820.0,307.7 820.0,312.6 780.3,312.6 740.5,312.6 700.8,312.6 661.1,312.3 621.3,312.3 581.6,316.1 541.8,316.1 502.1,316.1 462.4,316.7 422.6,316.9 382.9,317.0 343.2,480.0 303.4,480.0 263.7,480.0 223.9,480.0 184.2,480.0 144.5,480.0 104.7,480.0 65.0,480.0" fill="#083fa1" opacity="0.6" class="anim" style="animation-delay:1000ms;"/>
<polygon points="65.0,480.0 104.7,480.0 144.5,480.0 184.2,480.0 223.9,480.0 263.7,480.0 303.4,480.0 343.2,480.0 382.9,306.5 422.6,306.5 462.4,306.4 502.1,305.4 541.8,305.4 581.6,305.4 621.3,304.0 661.1,304.0 700.8,303.9 740.5,303.9 780.3,303.9 820.0,303.9 820.0,307.7 780.3,307.7 740.5,307.7 700.8,307.7 661.1,307.7 621.3,307.8 581.6,310.6 541.8,310.7 502.1,310.7 462.4,312.4 422.6,312.6 382.9,312.7 343.2,480.0 303.4,480.0 263.7,480.0 223.9,480.0 184.2,480.0 144.5,480.0 104.7,480.0 65.0,480.0" fill="#F05138" opacity="0.6" class="anim" style="animation-delay:1100ms;"/>
<polygon points="65.0,480.0 104.7,480.0 144.5,480.0 184.2,480.0 223.9,480.0 263.7,480.0 303.4,480.0 343.2,480.0 382.9,303.3 422.6,303.3 462.4,303.2 502.1,302.8 541.8,302.8 581.6,302.8 621.3,302.0 661.1,302.0 700.8,302.0 740.5,302.0 780.3,302.0 820.0,302.0 820.0,303.9 780.3,303.9 740.5,303.9 700.8,303.9 661.1,304.0 621.3,304.0 581.6,305.4 541.8,305.4 502.1,305.4 462.4,306.4 422.6,306.5 382.9,306.5 343.2,480.0 303.4,480.0 263.7,480.0 223.9,480.0 184.2,480.0 144.5,480.0 104.7,480.0 65.0,480.0" fill="#b07219" opacity="0.6" class="anim" style="animation-delay:1200ms;"/>
<text x="65.0" y="498" text-anchor="middle" class="axis-label" transform="rotate(-35 65.0 498)">2026-02-06</text>
<text x="144.5" y="498" text-anchor="middle" class="axis-label" transform="rotate(-35 144.5 498)">2026-02-08</text>
<text x="223.9" y="498" text-anchor="middle" class="axis-label" transform="rotate(-35 223.9 498)">2026-02-10</text>
<text x="303.4" y="498" text-anchor="middle" class="axis-label" transform="rotate(-35 303.4 498)">2026-02-12</text>
<text x="382.9" y="498" text-anchor="middle" class="axis-label" transform="rotate(-35 382.9 498)">2026-02-14</text>
<text x="462.4" y="498" text-anchor="middle" class="axis-label" transform="rotate(-35 462.4 498)">2026-02-16</text>
<text x="541.8" y="498" text-anchor="middle" class="axis-label" transform="rotate(-35 541.8 498)">2026-02-18</text>
<text x="621.3" y="498" text-anchor="middle" class="axis-label" transform="rotate(-35 621.3 498)">2026-02-20</text>
<text x="700.8" y="498" text-anchor="middle" class="axis-label" transform="rotate(-35 700.8 498)">2026-02-22</text>
<text x="780.3" y="498" text-anchor="middle" class="axis-label" transform="rotate(-35 780.3 498)">2026-02-24</text>
<line x1="836" y1="70" x2="856" y2="70" stroke="#3fb950" stroke-width="2"/>
<text x="862" y="74" class="legend-text">Lines Added</text>
<line x1="836" y1="88" x2="856" y2="88" stroke="#f85149" stroke-width="1.5"/>
<text x="862" y="92" class="legend-text">Lines Deleted</text>
<line x1="836" y1="108" x2="856" y2="108" stroke="#e3b341" stroke-width="1.5" stroke-dasharray="4,3"/>
<text x="862" y="112" class="legend-text">&#x2605; Stars</text>
<text x="836" y="142" class="subtitle">Languages</text>
<rect x="836" y="153" width="12" height="12" rx="2" fill="#e34c26" opacity="0.8" class="anim" style="animation-delay:800ms;"/>
<text x="854" y="163" class="legend-text">HTML (68.6%)</text>
<rect x="836" y="175" width="12" height="12" rx="2" fill="#f1e05a" opacity="0.8" class="anim" style="animation-delay:880ms;"/>
<text x="854" y="185" class="legend-text">JavaScript (10.3%)</text>
<rect x="836" y="197" width="12" height="12" rx="2" fill="#3572A5" opacity="0.8" class="anim" style="animation-delay:960ms;"/>
<text x="854" y="207" class="legend-text">Python (8.8%)</text>
<rect x="836" y="219" width="12" height="12" rx="2" fill="#663399" opacity="0.8" class="anim" style="animation-delay:1040ms;"/>
<text x="854" y="229" class="legend-text">CSS (2.9%)</text>
<rect x="836" y="241" width="12" height="12" rx="2" fill="#6E4C13" opacity="0.8" class="anim" style="animation-delay:1120ms;"/>
<text x="854" y="251" class="legend-text">Assembly (2.4%)</text>
<rect x="836" y="263" width="12" height="12" rx="2" fill="#083fa1" opacity="0.8" class="anim" style="animation-delay:1200ms;"/>
<text x="854" y="273" class="legend-text">Markdown (2.7%)</text>
<rect x="836" y="285" width="12" height="12" rx="2" fill="#F05138" opacity="0.8" class="anim" style="animation-delay:1280ms;"/>
<text x="854" y="295" class="legend-text">Swift (2.1%)</text>
<rect x="836" y="307" width="12" height="12" rx="2" fill="#b07219" opacity="0.8" class="anim" style="animation-delay:1360ms;"/>
<text x="854" y="317" class="legend-text">Java (1.1%)</text>
<text x="836" y="358" class="subtitle">Contributions</text>
<text x="836" y="376" class="axis-label">2023: 39</text>
<text x="836" y="392" class="axis-label">2024: 646</text>
<text x="836" y="408" class="axis-label">2025: 1,780</text>
<text x="836" y="424" class="axis-label">2026: 292</text>
<text x="836" y="450" class="subtitle">Statistics</text>
<text x="836" y="468" class="axis-label">Active weeks: 75</text>
<text x="836" y="483" class="axis-label">Add/Del ratio: 2.0x</text>
<text x="836" y="498" class="axis-label">Avg lines/week: 15,667</text>
<text x="836" y="513" class="axis-label">Peak: 2026-02-15</text>
<text x="836" y="528" class="axis-label">  (542,929 lines)</text>
<text x="65" y="746" class="axis-label">Total: +788,255 / -386,789 lines &#xb7; 2,757 contributions &#xb7; 71 repos &#xb7; &#x2605; 33</text>
</svg>