<svg xmlns="http://www.w3.org/2000/svg" width="1000" height="760" style="max-width: 100%;" viewBox="0 0 1000 760">

<defs>
  <linearGradient id="areaGrad" x1="0" y1="0" x2="0" y2="1">
    <stop offset="0%" stop-color="#58a6ff" stop-opacity="0.35"/>
    <stop offset="100%" stop-color="#58a6ff" stop-opacity="0.02"/>
  </linearGradient>
  <linearGradient id="addGrad" x1="0" y1="0" x2="0" y2="1">
    <stop offset="0%" stop-color="#3fb950" stop-opacity="0.35"/>
    <stop offset="100%" stop-color="#3fb950" stop-opacity="0.02"/>
  </linearGradient>
  <linearGradient id="delGrad" x1="0" y1="0" x2="0" y2="1">
    <stop offset="0%" stop-color="#f85149" stop-opacity="0.25"/>
    <stop offset="100%" stop-color="#f85149" stop-opacity="0.02"/>
  </linearGradient>
</defs>
<style>
  .title { font: bold 28px 'Segoe UI', Ubuntu, Sans-Serif; fill: #c9d1d9; }
  .subtitle { font: 600 20px 'Segoe UI', Ubuntu, Sans-Serif; fill: #c9d1d9; opacity: 0.8; }
  .axis-label { font: 18px 'Segoe UI', Ubuntu, Sans-Serif; fill: #c9d1d9; opacity: 0.7; }
  .legend-text { font: 14px 'Segoe UI', Ubuntu, Sans-Serif; fill: #c9d1d9; }
  .value-text { font: bold 18px 'Segoe UI', Ubuntu, Sans-Serif; fill: #c9d1d9; }
  .stat-value { font: bold 22px 'Segoe UI', Ubuntu, Sans-Serif; fill: #c9d1d9; }
  .stat-label { font: 18px 'Segoe UI', Ubuntu, Sans-Serif; fill: #c9d1d9; opacity: 0.7; }
  @keyframes fadeIn { from { opacity: 0; } to { opacity: 1; } }
  .anim { animation: fadeIn 0.6s ease-in-out forwards; opacity: 0; }
</style>

<rect x="0.5" y="0.5" rx="4.5" width="999" height="759" fill="#161b22" stroke="#21262d"/>
<text x="90" y="45" class="title">Activity History</text>
<text x="90" y="72" class="subtitle">Lines added vs deleted &amp; activity trends over time</text>
<line x1="90" y1="340.0" x2="780" y2="340.0" stroke="#21262d" stroke-width="1"/>
<text x="82" y="344.0" text-anchor="end" class="axis-label">0</text>
<line x1="90" y1="280.0" x2="780" y2="280.0" stroke="#21262d" stroke-width="1"/>
<text x="82" y="284.0" text-anchor="end" class="axis-label">458K</text>
<line x1="90" y1="220.0" x2="780" y2="220.0" stroke="#21262d" stroke-width="1"/>
<text x="82" y="224.0" text-anchor="end" class="axis-label">916K</text>
<line x1="90" y1="160.0" x2="780" y2="160.0" stroke="#21262d" stroke-width="1"/>
<text x="82" y="164.0" text-anchor="end" class="axis-label">1.4M</text>
<line x1="90" y1="100.0" x2="780" y2="100.0" stroke="#21262d" stroke-width="1"/>
<text x="82" y="104.0" text-anchor="end" class="axis-label">1.8M</text>
<polygon points="90.0,340.0 90.0,292.2 99.2,293.9 108.4,292.2 117.6,293.9 126.8,304.9 136.0,283.0 145.2,283.0 154.4,274.8 163.6,274.5 172.8,273.9 182.0,273.9 191.2,259.2 200.4,259.2 209.6,259.1 218.8,237.3 228.0,237.0 237.2,236.8 246.4,236.8 255.6,236.8 264.8,236.8 274.0,236.8 283.2,236.2 292.4,221.6 301.6,221.6 310.8,221.6 320.0,221.6 329.2,221.2 338.4,221.2 347.6,220.6 356.8,220.6 366.0,220.6 375.2,220.6 384.4,220.6 393.6,220.6 402.8,220.6 412.0,220.5 421.2,220.5 430.4,220.5 439.6,220.5 448.8,220.5 458.0,220.5 467.2,219.9 476.4,220.2 485.6,219.5 494.8,219.2 504.0,219.2 513.2,219.2 522.4,219.2 531.6,219.2 540.8,219.2 550.0,219.1 559.2,219.1 568.4,219.1 577.6,219.2 586.8,219.5 596.0,220.9 605.2,219.5 614.4,218.2 623.6,218.2 632.8,218.2 642.0,218.2 651.2,218.2 660.4,210.7 669.6,203.9 678.8,203.9 688.0,203.9 697.2,203.9 706.4,203.9 715.6,203.9 724.8,203.9 734.0,203.9 743.2,203.7 752.4,203.7 761.6,203.7 770.8,196.0 780.0,188.2 780.0,340.0" fill="url(#addGrad)" class="anim" style="animation-delay:200ms;"/>
<polyline points="90.0,292.2 99.2,293.9 108.4,292.2 117.6,293.9 126.8,304.9 136.0,283.0 145.2,283.0 154.4,274.8 163.6,274.5 172.8,273.9 182.0,273.9 191.2,259.2 200.4,259.2 209.6,259.1 218.8,237.3 228.0,237.0 237.2,236.8 246.4,236.8 255.6,236.8 264.8,236.8 274.0,236.8 283.2,236.2 292.4,221.6 301.6,221.6 310.8,221.6 320.0,221.6 329.2,221.2 338.4,221.2 347.6,220.6 356.8,220.6 366.0,220.6 375.2,220.6 384.4,220.6 393.6,220.6 402.8,220.6 412.0,220.5 421.2,220.5 430.4,220.5 439.6,220.5 448.8,220.5 458.0,220.5 467.2,219.9 476.4,220.2 485.6,219.5 494.8,219.2 504.0,219.2 513.2,219.2 522.4,219.2 531.6,219.2 540.8,219.2 550.0,219.1 559.2,219.1 568.4,219.1 577.6,219.2 586.8,219.5 596.0,220.9 605.2,219.5 614.4,218.2 623.6,218.2 632.8,218.2 642.0,218.2 651.2,218.2 660.4,210.7 669.6,203.9 678.8,203.9 688.0,203.9 697.2,203.9 706.4,203.9 715.6,203.9 724.8,203.9 734.0,203.9 743.2,203.7 752.4,203.7 761.6,203.7" fill="none" stroke="#3fb950" stroke-width="2" stroke-linejoin="round" class="anim" style="animation-delay:250ms;"/>
<polyline points="761.6,203.7 770.8,196.0 780.0,188.2" fill="none" stroke="#3fb950" stroke-width="1.5" stroke-dasharray="5,4" stroke-linejoin="round" opacity="0.6" class="anim" style="animation-delay:250ms;"/>
<polygon points="90.0,340.0 90.0,326.6 99.2,328.0 108.4,326.6 117.6,327.9 126.8,333.7 136.0,324.9 145.2,324.9 154.4,323.9 163.6,323.6 172.8,323.4 182.0,323.3 191.2,307.5 200.4,307.5 209.6,307.4 218.8,289.5 228.0,289.4 237.2,289.3 246.4,289.3 255.6,289.3 264.8,289.3 274.0,289.3 283.2,280.0 292.4,265.6 301.6,265.6 310.8,265.6 320.0,265.6 329.2,265.5 338.4,265.5 347.6,265.5 356.8,265.4 366.0,265.4 375.2,265.4 384.4,265.4 393.6,265.4 402.8,265.4 412.0,265.4 421.2,265.4 430.4,265.4 439.6,265.4 448.8,265.4 458.0,265.4 467.2,265.4 476.4,265.5 485.6,265.0 494.8,265.0 504.0,265.0 513.2,265.0 522.4,265.0 531.6,265.0 540.8,265.0 550.0,265.0 559.2,265.0 568.4,265.0 577.6,265.0 586.8,265.1 596.0,265.9 605.2,265.4 614.4,264.6 623.6,264.5 632.8,264.5 642.0,264.5 651.2,264.5 660.4,264.5 669.6,264.5 678.8,264.5 688.0,264.5 697.2,264.5 706.4,264.5 715.6,264.5 724.8,264.5 734.0,264.5 743.2,264.5 752.4,264.5 761.6,264.5 770.8,258.1 780.0,251.8 780.0,340.0" fill="url(#delGrad)" class="anim" style="animation-delay:300ms;"/>
<polyline points="90.0,326.6 99.2,328.0 108.4,326.6 117.6,327.9 126.8,333.7 136.0,324.9 145.2,324.9 154.4,323.9 163.6,323.6 172.8,323.4 182.0,323.3 191.2,307.5 200.4,307.5 209.6,307.4 218.8,289.5 228.0,289.4 237.2,289.3 246.4,289.3 255.6,289.3 264.8,289.3 274.0,289.3 283.2,280.0 292.4,265.6 301.6,265.6 310.8,265.6 320.0,265.6 329.2,265.5 338.4,265.5 347.6,265.5 356.8,265.4 366.0,265.4 375.2,265.4 384.4,265.4 393.6,265.4 402.8,265.4 412.0,265.4 421.2,265.4 430.4,265.4 439.6,265.4 448.8,265.4 458.0,265.4 467.2,265.4 476.4,265.5 485.6,265.0 494.8,265.0 504.0,265.0 513.2,265.0 522.4,265.0 531.6,265.0 540.8,265.0 550.0,265.0 559.2,265.0 568.4,265.0 577.6,265.0 586.8,265.1 596.0,265.9 605.2,265.4 614.4,264.6 623.6,264.5 632.8,264.5 642.0,264.5 651.2,264.5 660.4,264.5 669.6,264.5 678.8,264.5 688.0,264.5 697.2,264.5 706.4,264.5 715.6,264.5 724.8,264.5 734.0,264.5 743.2,264.5 752.4,264.5 761.6,264.5" fill="none" stroke="#f85149" stroke-width="1.5" stroke-linejoin="round" class="anim" style="animation-delay:350ms;"/>
<polyline points="761.6,264.5 770.8,258.1 780.0,251.8" fill="none" stroke="#f85149" stroke-width="1" stroke-dasharray="5,4" stroke-linejoin="round" opacity="0.6" class="anim" style="animation-delay:350ms;"/>
<polyline points="90.0,340.0 99.2,340.0 108.4,340.0 117.6,340.0 126.8,340.0 136.0,340.0 145.2,340.0 154.4,340.0 163.6,308.0 172.8,308.0 182.0,308.0 191.2,308.0 200.4,308.0 209.6,308.0 218.8,308.0 228.0,308.0 237.2,308.0 246.4,308.0 255.6,308.0 264.8,308.0 274.0,308.0 283.2,308.0 292.4,308.0 301.6,308.0 310.8,308.0 320.0,308.0 329.2,308.0 338.4,308.0 347.6,308.0 356.8,308.0 366.0,308.0 375.2,308.0 384.4,308.0 393.6,308.0 402.8,276.0 412.0,276.0 421.2,276.0 430.4,276.0 439.6,276.0 448.8,276.0 458.0,276.0 467.2,276.0 476.4,244.0 485.6,244.0 494.8,244.0 504.0,244.0 513.2,244.0 522.4,244.0 531.6,244.0 540.8,244.0 550.0,244.0 559.2,244.0 568.4,244.0 577.6,244.0 586.8,244.0 596.0,244.0 605.2,244.0 614.4,244.0 623.6,180.0 632.8,180.0 642.0,180.0 651.2,180.0 660.4,180.0 669.6,180.0 678.8,180.0 688.0,180.0 697.2,180.0 706.4,180.0 715.6,180.0 724.8,180.0 734.0,180.0 743.2,180.0 752.4,180.0 761.6,180.0" fill="none" stroke="#e3b341" stroke-width="1.5" stroke-dasharray="4,3" stroke-linejoin="round" class="anim" style="animation-delay:400ms;"/>
<polyline points="761.6,180.0 770.8,180.0 780.0,148.0" fill="none" stroke="#e3b341" stroke-width="1" stroke-dasharray="3,5" stroke-linejoin="round" opacity="0.5" class="anim" style="animation-delay:400ms;"/>
<text x="90" y="90" class="subtitle">Lines Added vs Deleted (per snapshot)</text>
<text x="90" y="400" class="subtitle">Programming Language Development (%)</text>
<line x1="90" y1="650.0" x2="780" y2="650.0" stroke="#21262d" stroke-width="1"/>
<text x="82" y="654.0" text-anchor="end" class="axis-label">0%</text>
<line x1="90" y1="590.0" x2="780" y2="590.0" stroke="#21262d" stroke-width="1"/>
<text x="82" y="594.0" text-anchor="end" class="axis-label">25%</text>
<line x1="90" y1="530.0" x2="780" y2="530.0" stroke="#21262d" stroke-width="1"/>
<text x="82" y="534.0" text-anchor="end" class="axis-label">50%</text>
<line x1="90" y1="470.0" x2="780" y2="470.0" stroke="#21262d" stroke-width="1"/>
<text x="82" y="474.0" text-anchor="end" class="axis-label">75%</text>
<line x1="90" y1="410.0" x2="780" y2="410.0" stroke="#21262d" stroke-width="1"/>
<text x="82" y="414.0" text-anchor="end" class="axis-label">100%</text>
<polygon points="90.0,650.0 99.2,650.0 108.4,650.0 117.6,650.0 126.8,650.0 136.0,650.0 145.2,650.0 154.4,650.0 163.6,528.2 172.8,528.5 182.0,529.7 191.2,499.3 200.4,499.3 209.6,502.9 218.8,485.0 228.0,485.1 237.2,485.4 246.4,485.4 255.6,485.4 264.8,485.4 274.0,485.4 283.2,496.4 292.4,496.7 301.6,491.0 310.8,491.0 320.0,491.0 329.2,491.7 338.4,491.8 347.6,494.0 356.8,494.0 366.0,494.4 375.2,494.4 384.4,494.4 393.6,494.4 402.8,507.6 412.0,507.6 421.2,507.9 430.4,507.9 439.6,507.9 448.8,506.3 458.0,506.4 467.2,506.8 476.4,506.9 485.6,506.8 494.8,507.5 504.0,507.5 513.2,507.5 522.4,507.5 531.6,507.5 540.8,507.5 550.0,507.5 559.2,507.5 568.4,507.5 577.6,507.5 586.8,507.5 596.0,507.5 605.2,507.5 614.4,508.6 623.6,508.6 632.8,508.6 642.0,508.6 651.2,508.6 660.4,509.5 669.6,509.8 678.8,509.8 688.0,509.8 697.2,509.8 706.4,509.8 715.6,509.8 724.8,509.8 734.0,509.8 743.2,510.9 752.4,510.9 761.6,510.9 770.8,512.8 780.0,514.8 780.0,650.0 770.8,650.0 761.6,650.0 752.4,650.0 743.2,650.0 734.0,650.0 724.8,650.0 715.6,650.0 706.4,650.0 697.2,650.0 688.0,650.0 678.8,650.0 669.6,650.0 660.4,650.0 651.2,650.0 642.0,650.0 632.8,650.0 623.6,650.0 614.4,650.0 605.2,650.0 596.0,650.0 586.8,650.0 577.6,650.0 568.4,650.0 559.2,650.0 550.0,650.0 540.8,650.0 531.6,650.0 522.4,650.0 513.2,650.0 504.0,650.0 494.8,650.0 485.6,650.0 476.4,650.0 467.2,650.0 458.0,650.0 448.8,650.0 439.6,650.0 430.4,650.0 421.2,650.0 412.0,650.0 402.8,650.0 393.6,650.0 384.4,650.0 375.2,650.0 366.0,650.0 356.8,650.0 347.6,650.0 338.4,650.0 329.2,650.0 320.0,650.0 310.8,650.0 301.6,650.0 292.4,650.0 283.2,650.0 274.0,650.0 264.8,650.0 255.6,650.0 246.4,650.0 237.2,650.0 228.0,650.0 218.8,650.0 209.6,650.0 200.4,650.0 191.2,650.0 182.0,650.0 172.8,650.0 163.6,650.0 154.4,650.0 145.2,650.0 136.0,650.0 126.8,650.0 117.6,650.0 108.4,650.0 99.2,650.0 90.0,650.0" fill="#e34c26" opacity="0.6" class="anim" style="animation-delay:500ms;"/>
<polygon points="90.0,650.0 99.2,650.0 108.4,650.0 117.6,650.0 126.8,650.0 136.0,650.0 145.2,650.0 154.4,650.0 163.6,488.4 172.8,488.0 182.0,489.0 191.2,476.0 200.4,476.0 209.6,477.2 218.8,460.1 228.0,460.2 237.2,460.6 246.4,460.6 255.6,460.6 264.8,460.6 274.0,460.6 283.2,473.0 292.4,473.5 301.6,469.5 310.8,469.5 320.0,469.5 329.2,469.7 338.4,469.7 347.6,469.7 356.8,469.7 366.0,469.7 375.2,469.7 384.4,469.7 393.6,469.7 402.8,455.6 412.0,455.6 421.2,455.4 430.4,455.4 439.6,455.4 448.8,454.3 458.0,454.3 467.2,455.0 476.4,455.1 485.6,454.9 494.8,455.9 504.0,455.9 513.2,455.9 522.4,455.9 531.6,455.9 540.8,455.9 550.0,455.9 559.2,455.9 568.4,455.9 577.6,455.9 586.8,455.9 596.0,455.9 605.2,455.9 614.4,455.8 623.6,455.8 632.8,455.8 642.0,455.8 651.2,455.8 660.4,457.0 669.6,457.4 678.8,457.4 688.0,457.4 697.2,457.4 706.4,457.4 715.6,457.4 724.8,457.4 734.0,457.4 743.2,458.2 752.4,458.2 761.6,458.2 770.8,455.9 780.0,453.7 780.0,514.8 770.8,512.8 761.6,510.9 752.4,510.9 743.2,510.9 734.0,509.8 724.8,509.8 715.6,509.8 706.4,509.8 697.2,509.8 688.0,509.8 678.8,509.8 669.6,509.8 660.4,509.5 651.2,508.6 642.0,508.6 632.8,508.6 623.6,508.6 614.4,508.6 605.2,507.5 596.0,507.5 586.8,507.5 577.6,507.5 568.4,507.5 559.2,507.5 550.0,507.5 540.8,507.5 531.6,507.5 522.4,507.5 513.2,507.5 504.0,507.5 494.8,507.5 485.6,506.8 476.4,506.9 467.2,506.8 458.0,506.4 448.8,506.3 439.6,507.9 430.4,507.9 421.2,507.9 412.0,507.6 402.8,507.6 393.6,494.4 384.4,494.4 375.2,494.4 366.0,494.4 356.8,494.0 347.6,494.0 338.4,491.8 329.2,491.7 320.0,491.0 310.8,491.0 301.6,491.0 292.4,496.7 283.2,496.4 274.0,485.4 264.8,485.4 255.6,485.4 246.4,485.4 237.2,485.4 228.0,485.1 218.8,485.0 209.6,502.9 200.4,499.3 191.2,499.3 182.0,529.7 172.8,528.5 163.6,528.2 154.4,650.0 145.2,650.0 136.0,650.0 126.8,650.0 117.6,650.0 108.4,650.0 99.2,650.0 90.0,650.0" fill="#f1e05a" opacity="0.6" class="anim" style="animation-delay:600ms;"/>
<polygon points="90.0,650.0 99.2,650.0 108.4,650.0 117.6,650.0 126.8,650.0 136.0,650.0 145.2,650.0 154.4,650.0 163.6,455.5 172.8,455.4 182.0,455.1 191.2,447.0 200.4,447.0 209.6,448.2 218.8,438.9 228.0,439.0 237.2,439.6 246.4,439.6 255.6,439.6 264.8,439.6 274.0,439.6 283.2,445.6 292.4,445.6 301.6,443.3 310.8,443.3 320.0,443.3 329.2,443.6 338.4,443.6 347.6,444.1 356.8,444.1 366.0,444.1 375.2,444.1 384.4,444.1 393.6,444.1 402.8,437.5 412.0,437.5 421.2,437.5 430.4,437.5 439.6,437.5 448.8,437.5 458.0,437.5 467.2,438.4 476.4,438.5 485.6,438.3 494.8,439.3 504.0,439.3 513.2,439.3 522.4,439.3 531.6,439.3 540.8,439.3 550.0,439.3 559.2,439.3 568.4,439.3 577.6,439.3 586.8,439.3 596.0,439.3 605.2,439.3 614.4,439.4 623.6,439.4 632.8,439.4 642.0,439.4 651.2,439.4 660.4,440.7 669.6,441.1 678.8,441.1 688.0,441.1 697.2,441.1 706.4,441.1 715.6,441.1 724.8,441.1 734.0,441.1 743.2,442.0 752.4,442.0 761.6,442.0 770.8,441.5 780.0,440.9 780.0,453.7 770.8,455.9 761.6,458.2 752.4,458.2 743.2,458.2 734.0,457.4 724.8,457.4 715.6,457.4 706.4,457.4 697.2,457.4 688.0,457.4 678.8,457.4 669.6,457.4 660.4,457.0 651.2,455.8 642.0,455.8 632.8,455.8 623.6,455.8 614.4,455.8 605.2,455.9 596.0,455.9 586.8,455.9 577.6,455.9 568.4,455.9 559.2,455.9 550.0,455.9 540.8,455.9 531.6,455.9 522.4,455.9 513.2,455.9 504.0,455.9 494.8,455.9 485.6,454.9 476.4,455.1 467.2,455.0 458.0,454.3 448.8,454.3 439.6,455.4 430.4,455.4 421.2,455.4 412.0,455.6 402.8,455.6 393.6,469.7 384.4,469.7 375.2,469.7 366.0,469.7 356.8,469.7 347.6,469.7 338.4,469.7 329.2,469.7 320.0,469.5 310.8,469.5 301.6,469.5 292.4,473.5 283.2,473.0 274.0,460.6 264.8,460.6 255.6,460.6 246.4,460.6 237.2,460.6 228.0,460.2 218.8,460.1 209.6,477.2 200.4,476.0 191.2,476.0 182.0,489.0 172.8,488.0 163.6,488.4 154.4,650.0 145.2,650.0 136.0,650.0 126.8,650.0 117.6,650.0 108.4,650.0 99.2,650.0 90.0,650.0" fill="#3572A5" opacity="0.6" class="anim" style="animation-delay:700ms;"/>
<polygon points="90.0,650.0 99.2,650.0 108.4,650.0 117.6,650.0 126.8,650.0 136.0,650.0 145.2,650.0 154.4,650.0 163.6,442.3 172.8,442.0 182.0,441.6 191.2,439.5 200.4,439.5 209.6,439.4 218.8,432.3 228.0,432.2 237.2,432.6 246.4,432.6 255.6,432.6 264.8,432.6 274.0,432.6 283.2,439.3 292.4,439.3 301.6,437.4 310.8,437.4 320.0,437.4 329.2,437.3 338.4,437.3 347.6,437.1 356.8,437.1 366.0,437.1 375.2,437.1 384.4,437.1 393.6,437.1 402.8,428.7 412.0,428.6 421.2,428.5 430.4,428.5 439.6,428.5 448.8,427.3 458.0,427.3 467.2,427.1 476.4,427.1 485.6,427.1 494.8,427.0 504.0,427.0 513.2,427.0 522.4,427.0 531.6,427.0 540.8,427.0 550.0,427.0 559.2,427.0 568.4,427.0 577.6,427.0 586.8,427.0 596.0,427.0 605.2,427.0 614.4,427.0 623.6,427.1 632.8,427.1 642.0,427.1 651.2,427.1 660.4,428.4 669.6,428.9 678.8,428.9 688.0,428.9 697.2,428.9 706.4,428.9 715.6,428.9 724.8,428.9 734.0,428.9 743.2,428.7 752.4,428.7 761.6,428.7 770.8,427.5 780.0,426.2 780.0,440.9 770.8,441.5 761.6,442.0 752.4,442.0 743.2,442.0 734.0,441.1 724.8,441.1 715.6,441.1 706.4,441.1 697.2,441.1 688.0,441.1 678.8,441.1 669.6,441.1 660.4,440.7 651.2,439.4 642.0,439.4 632.8,439.4 623.6,439.4 614.4,439.4 605.2,439.3 596.0,439.3 586.8,439.3 577.6,439.3 568.4,439.3 559.2,439.3 550.0,439.3 540.8,439.3 531.6,439.3 522.4,439.3 513.2,439.3 504.0,439.3 494.8,439.3 485.6,438.3 476.4,438.5 467.2,438.4 458.0,437.5 448.8,437.5 439.6,437.5 430.4,437.5 421.2,437.5 412.0,437.5 402.8,437.5 393.6,444.1 384.4,444.1 375.2,444.1 366.0,444.1 356.8,444.1 347.6,444.1 338.4,443.6 329.2,443.6 320.0,443.3 310.8,443.3 301.6,443.3 292.4,445.6 283.2,445.6 274.0,439.6 264.8,439.6 255.6,439.6 246.4,439.6 237.2,439.6 228.0,439.0 218.8,438.9 209.6,448.2 200.4,447.0 191.2,447.0 182.0,455.1 172.8,455.4 163.6,455.5 154.4,650.0 145.2,650.0 136.0,650.0 126.8,650.0 117.6,650.0 108.4,650.0 99.2,650.0 90.0,650.0" fill="#663399" opacity="0.6" class="anim" style="animation-delay:800ms;"/>
<polygon points="90.0,650.0 99.2,650.0 108.4,650.0 117.6,650.0 126.8,650.0 136.0,650.0 145.2,650.0 154.4,650.0 163.6,436.6 172.8,436.3 182.0,435.9 191.2,432.2 200.4,432.2 209.6,432.2 218.8,426.2 228.0,426.1 237.2,426.0 246.4,426.0 255.6,426.0 264.8,426.0 274.0,426.0 283.2,430.8 292.4,430.7 301.6,429.3 310.8,429.3 320.0,429.3 329.2,429.2 338.4,429.2 347.6,428.9 356.8,428.9 366.0,428.8 375.2,428.8 384.4,428.8 393.6,428.8 402.8,423.0 412.0,422.9 421.2,422.9 430.4,422.9 439.6,422.9 448.8,422.0 458.0,422.0 467.2,421.9 476.4,421.9 485.6,421.9 494.8,421.8 504.0,421.8 513.2,421.8 522.4,421.8 531.6,421.8 540.8,421.8 550.0,421.8 559.2,421.8 568.4,421.8 577.6,421.8 586.8,421.8 596.0,421.8 605.2,421.8 614.4,421.7 623.6,421.8 632.8,421.8 642.0,421.8 651.2,421.8 660.4,423.2 669.6,423.6 678.8,423.6 688.0,423.6 697.2,423.6 706.4,423.6 715.6,423.6 724.8,423.6 734.0,423.6 743.2,423.5 752.4,423.5 761.6,423.5 770.8,422.6 780.0,421.6 780.0,426.2 770.8,427.5 761.6,428.7 752.4,428.7 743.2,428.7 734.0,428.9 724.8,428.9 715.6,428.9 706.4,428.9 697.2,428.9 688.0,428.9 678.8,428.9 669.6,428.9 660.4,428.4 651.2,427.1 642.0,427.1 632.8,427.1 623.6,427.1 614.4,427.0 605.2,427.0 596.0,427.0 586.8,427.0 577.6,427.0 568.4,427.0 559.2,427.0 550.0,427.0 540.8,427.0 531.6,427.0 522.4,427.0 513.2,427.0 504.0,427.0 494.8,427.0 485.6,427.1 476.4,427.1 467.2,427.1 458.0,427.3 448.8,427.3 439.6,428.5 430.4,428.5 421.2,428.5 412.0,428.6 402.8,428.7 393.6,437.1 384.4,437.1 375.2,437.1 366.0,437.1 356.8,437.1 347.6,437.1 338.4,437.3 329.2,437.3 320.0,437.4 310.8,437.4 301.6,437.4 292.4,439.3 283.2,439.3 274.0,432.6 264.8,432.6 255.6,432.6 246.4,432.6 237.2,432.6 228.0,432.2 218.8,432.3 209.6,439.4 200.4,439.5 191.2,439.5 182.0,441.6 172.8,442.0 163.6,442.3 154.4,650.0 145.2,650.0 136.0,650.0 126.8,650.0 117.6,650.0 108.4,650.0 99.2,650.0 90.0,650.0" fill="#083fa1" opacity="0.6" class="anim" style="animation-delay:900ms;"/>
<polygon points="90.0,650.0 99.2,650.0 108.4,650.0 117.6,650.0 126.8,650.0 136.0,650.0 145.2,650.0 154.4,650.0 163.6,427.0 172.8,426.8 182.0,426.6 191.2,424.2 200.4,424.2 209.6,424.2 218.8,420.4 228.0,420.3 237.2,420.3 246.4,420.3 255.6,420.3 264.8,420.3 274.0,420.3 283.2,423.3 292.4,423.2 301.6,422.4 310.8,422.4 320.0,422.4 329.2,422.3 338.4,422.3 347.6,422.1 356.8,422.1 366.0,422.1 375.2,422.1 384.4,422.1 393.6,422.1 402.8,418.3 412.0,418.3 421.2,418.2 430.4,418.2 439.6,418.2 448.8,417.7 458.0,417.7 467.2,417.6 476.4,417.6 485.6,417.6 494.8,417.6 504.0,417.6 513.2,417.6 522.4,417.6 531.6,417.6 540.8,417.6 550.0,417.6 559.2,417.6 568.4,417.6 577.6,417.6 586.8,417.6 596.0,417.6 605.2,417.6 614.4,417.5 623.6,417.6 632.8,417.6 642.0,417.6 651.2,417.6 660.4,419.0 669.6,419.5 678.8,419.5 688.0,419.5 697.2,419.5 706.4,419.5 715.6,419.5 724.8,419.5 734.0,419.5 743.2,419.4 752.4,419.4 761.6,419.4 770.8,418.9 780.0,418.5 780.0,421.6 770.8,422.6 761.6,423.5 752.4,423.5 743.2,423.5 734.0,423.6 724.8,423.6 715.6,423.6 706.4,423.6 697.2,423.6 688.0,423.6 678.8,423.6 669.6,423.6 660.4,423.2 651.2,421.8 642.0,421.8 632.8,421.8 623.6,421.8 614.4,421.7 605.2,421.8 596.0,421.8 586.8,421.8 577.6,421.8 568.4,421.8 559.2,421.8 550.0,421.8 540.8,421.8 531.6,421.8 522.4,421.8 513.2,421.8 504.0,421.8 494.8,421.8 485.6,421.9 476.4,421.9 467.2,421.9 458.0,422.0 448.8,422.0 439.6,422.9 430.4,422.9 421.2,422.9 412.0,422.9 402.8,423.0 393.6,428.8 384.4,428.8 375.2,428.8 366.0,428.8 356.8,428.9 347.6,428.9 338.4,429.2 329.2,429.2 320.0,429.3 310.8,429.3 301.6,429.3 292.4,430.7 283.2,430.8 274.0,426.0 264.8,426.0 255.6,426.0 246.4,426.0 237.2,426.0 228.0,426.1 218.8,426.2 209.6,432.2 200.4,432.2 191.2,432.2 182.0,435.9 172.8,436.3 163.6,436.6 154.4,650.0 145.2,650.0 136.0,650.0 126.8,650.0 117.6,650.0 108.4,650.0 99.2,650.0 90.0,650.0" fill="#6E4C13" opacity="0.6" class="anim" style="animation-delay:1000ms;"/>
<polygon points="90.0,650.0 99.2,650.0 108.4,650.0 117.6,650.0 126.8,650.0 136.0,650.0 145.2,650.0 154.4,650.0 163.6,418.7 172.8,418.6 182.0,418.5 191.2,417.3 200.4,417.3 209.6,417.2 218.8,415.3 228.0,415.3 237.2,415.2 246.4,415.2 255.6,415.2 264.8,415.2 274.0,415.2 283.2,416.8 292.4,416.8 301.6,416.3 310.8,416.3 320.0,416.3 329.2,416.3 338.4,416.3 347.6,416.2 356.8,416.2 366.0,416.2 375.2,416.2 384.4,416.2 393.6,416.2 402.8,414.2 412.0,414.2 421.2,414.2 430.4,414.2 439.6,414.2 448.8,413.9 458.0,413.9 467.2,413.9 476.4,413.9 485.6,413.9 494.8,413.9 504.0,413.9 513.2,413.9 522.4,413.9 531.6,413.9 540.8,413.9 550.0,413.9 559.2,413.9 568.4,413.9 577.6,413.9 586.8,413.9 596.0,413.9 605.2,413.9 614.4,413.8 623.6,413.8 632.8,413.8 642.0,413.8 651.2,413.8 660.4,413.8 669.6,413.8 678.8,413.8 688.0,413.8 697.2,413.8 706.4,413.8 715.6,413.8 724.8,413.8 734.0,413.8 743.2,413.8 752.4,413.8 761.6,413.8 770.8,413.6 780.0,413.3 780.0,418.5 770.8,418.9 761.6,419.4 752.4,419.4 743.2,419.4 734.0,419.5 724.8,419.5 715.6,419.5 706.4,419.5 697.2,419.5 688.0,419.5 678.8,419.5 669.6,419.5 660.4,419.0 651.2,417.6 642.0,417.6 632.8,417.6 623.6,417.6 614.4,417.5 605.2,417.6 596.0,417.6 586.8,417.6 577.6,417.6 568.4,417.6 559.2,417.6 550.0,417.6 540.8,417.6 531.6,417.6 522.4,417.6 513.2,417.6 504.0,417.6 494.8,417.6 485.6,417.6 476.4,417.6 467.2,417.6 458.0,417.7 448.8,417.7 439.6,418.2 430.4,418.2 421.2,418.2 412.0,418.3 402.8,418.3 393.6,422.1 384.4,422.1 375.2,422.1 366.0,422.1 356.8,422.1 347.6,422.1 338.4,422.3 329.2,422.3 320.0,422.4 310.8,422.4 301.6,422.4 292.4,423.2 283.2,423.3 274.0,420.3 264.8,420.3 255.6,420.3 246.4,420.3 237.2,420.3 228.0,420.3 218.8,420.4 209.6,424.2 200.4,424.2 191.2,424.2 182.0,426.6 172.8,426.8 163.6,427.0 154.4,650.0 145.2,650.0 136.0,650.0 126.8,650.0 117.6,650.0 108.4,650.0 99.2,650.0 90.0,650.0" fill="#F05138" opacity="0.6" class="anim" style="animation-delay:1100ms;"/>
<polygon points="90.0,650.0 99.2,650.0 108.4,650.0 117.6,650.0 126.8,650.0 136.0,650.0 145.2,650.0 154.4,650.0 163.6,414.4 172.8,414.4 182.0,414.3 191.2,413.7 200.4,413.7 209.6,413.7 218.8,412.7 228.0,412.7 237.2,412.7 246.4,412.7 255.6,412.7 264.8,412.7 274.0,412.7 283.2,413.5 292.4,413.4 301.6,413.2 310.8,413.2 320.0,413.2 329.2,413.2 338.4,413.2 347.6,413.1 356.8,413.1 366.0,413.1 375.2,413.1 384.4,413.1 393.6,413.1 402.8,412.2 412.0,412.1 421.2,412.1 430.4,412.1 439.6,412.1 448.8,412.0 458.0,412.0 467.2,412.0 476.4,412.0 485.6,412.0 494.8,412.0 504.0,412.0 513.2,412.0 522.4,412.0 531.6,412.0 540.8,412.0 550.0,412.0 559.2,412.0 568.4,412.0 577.6,412.0 586.8,412.0 596.0,412.0 605.2,412.0 614.4,411.9 623.6,411.9 632.8,411.9 642.0,411.9 651.2,411.9 660.4,411.9 669.6,411.9 678.8,411.9 688.0,411.9 697.2,411.9 706.4,411.9 715.6,411.9 724.8,411.9 734.0,411.9 743.2,411.9 752.4,411.9 761.6,411.9 770.8,411.9 780.0,411.9 780.0,413.3 770.8,413.6 761.6,413.8 752.4,413.8 743.2,413.8 734.0,413.8 724.8,413.8 715.6,413.8 706.4,413.8 697.2,413.8 688.0,413.8 678.8,413.8 669.6,413.8 660.4,413.8 651.2,413.8 642.0,413.8 632.8,413.8 623.6,413.8 614.4,413.8 605.2,413.9 596.0,413.9 586.8,413.9 577.6,413.9 568.4,413.9 559.2,413.9 550.0,413.9 540.8,413.9 531.6,413.9 522.4,413.9 513.2,413.9 504.0,413.9 494.8,413.9 485.6,413.9 476.4,413.9 467.2,413.9 458.0,413.9 448.8,413.9 439.6,414.2 430.4,414.2 421.2,414.2 412.0,414.2 402.8,414.2 393.6,416.2 384.4,416.2 375.2,416.2 366.0,416.2 356.8,416.2 347.6,416.2 338.4,416.3 329.2,416.3 320.0,416.3 310.8,416.3 301.6,416.3 292.4,416.8 283.2,416.8 274.0,415.2 264.8,415.2 255.6,415.2 246.4,415.2 237.2,415.2 228.0,415.3 218.8,415.3 209.6,417.2 200.4,417.3 191.2,417.3 182.0,418.5 172.8,418.6 163.6,418.7 154.4,650.0 145.2,650.0 136.0,650.0 126.8,650.0 117.6,650.0 108.4,650.0 99.2,650.0 90.0,650.0" fill="#b07219" opacity="0.6" class="anim" style="animation-delay:1200ms;"/>
<line x1="761.6" y1="100" x2="761.6" y2="650" stroke="#c9d1d9" stroke-width="1" stroke-dasharray="4,3" opacity="0.35"/>
<text x="770.8" y="112" text-anchor="middle" class="axis-label" opacity="0.6">Jul 05, 2026</text>
<text x="90.0" y="668" text-anchor="middle" class="axis-label" transform="rotate(-35 90.0 668)">2026-02</text>
<text x="310.8" y="668" text-anchor="middle" class="axis-label" transform="rotate(-35 310.8 668)">2026-03</text>
<text x="605.2" y="668" text-anchor="middle" class="axis-label" transform="rotate(-35 605.2 668)">2026-04</text>
<text x="678.8" y="668" text-anchor="middle" class="axis-label" transform="rotate(-35 678.8 668)">2026-06</text>
<text x="770.8" y="668" text-anchor="middle" class="axis-label" transform="rotate(-35 770.8 668)">Jul 05, 2026</text>
<line x1="796" y1="110" x2="824" y2="110" stroke="#3fb950" stroke-width="2"/>
<text x="832" y="116" class="legend-text">Lines Added</text>
<line x1="796" y1="140" x2="824" y2="140" stroke="#f85149" stroke-width="1.5"/>
<text x="832" y="146" class="legend-text">Lines Deleted</text>
<line x1="796" y1="170" x2="824" y2="170" stroke="#e3b341" stroke-width="1.5" stroke-dasharray="4,3"/>
<text x="832" y="176" class="legend-text">&#x2605; Stars</text>
<text x="796" y="200" class="subtitle">Languages</text>
<rect x="796" y="212" width="12" height="12" rx="2" fill="#e34c26" opacity="0.8" class="anim" style="animation-delay:800ms;"/>
<text x="814" y="223" class="legend-text">HTML (58%→56%)</text>
<rect x="796" y="234" width="12" height="12" rx="2" fill="#f1e05a" opacity="0.8" class="anim" style="animation-delay:880ms;"/>
<text x="814" y="245" class="legend-text">JavaScript (22%→25%)</text>
<rect x="796" y="256" width="12" height="12" rx="2" fill="#3572A5" opacity="0.8" class="anim" style="animation-delay:960ms;"/>
<text x="814" y="267" class="legend-text">Python (7%→5%)</text>
<rect x="796" y="278" width="12" height="12" rx="2" fill="#663399" opacity="0.8" class="anim" style="animation-delay:1040ms;"/>
<text x="814" y="289" class="legend-text">CSS (6%→6%)</text>
<rect x="796" y="300" width="12" height="12" rx="2" fill="#083fa1" opacity="0.8" class="anim" style="animation-delay:1120ms;"/>
<text x="814" y="311" class="legend-text">Markdown (2%→2%)</text>
<rect x="796" y="322" width="12" height="12" rx="2" fill="#6E4C13" opacity="0.8" class="anim" style="animation-delay:1200ms;"/>
<text x="814" y="333" class="legend-text">Assembly (2%→1%)</text>
<rect x="796" y="344" width="12" height="12" rx="2" fill="#F05138" opacity="0.8" class="anim" style="animation-delay:1280ms;"/>
<text x="814" y="355" class="legend-text">Swift (2%→2%)</text>
<rect x="796" y="366" width="12" height="12" rx="2" fill="#b07219" opacity="0.8" class="anim" style="animation-delay:1360ms;"/>
<text x="814" y="377" class="legend-text">Java (1%→1%)</text>
<text x="796" y="412" class="subtitle">Contributions</text>
<text x="796" y="432" class="axis-label">2023: 39</text>
<text x="796" y="452" class="axis-label">2024: 646</text>
<text x="796" y="472" class="axis-label">2025: 1,780</text>
<text x="796" y="492" class="axis-label">2026: 491</text>
<text x="796" y="522" class="subtitle">Statistics</text>
<text x="796" y="542" class="axis-label">Active weeks: 88</text>
<text x="796" y="562" class="axis-label">Add/Del ratio: 1.8x</text>
<text x="796" y="582" class="axis-label">Avg lines/wk: 18K</text>
<text x="796" y="602" class="axis-label">Peak: 2026-02-15</text>
<text x="796" y="622" class="axis-label">  (543K lines)</text>
<text x="90" y="742" class="axis-label">Total: +1,040,332 / -576,819 lines &#xb7; 2,956 contributions &#xb7; 80 repos &#xb7; &#x2605; 37</text>
</svg>