<svg xmlns="http://www.w3.org/2000/svg" width="1000" height="760" viewBox="0 0 1000 760">

<defs>
  <linearGradient id="areaGrad" x1="0" y1="0" x2="0" y2="1">
    <stop offset="0%" stop-color="#58a6ff" stop-opacity="0.35"/>
    <stop offset="100%" stop-color="#58a6ff" stop-opacity="0.02"/>
  </linearGradient>
  <linearGradient id="addGrad" x1="0" y1="0" x2="0" y2="1">
    <stop offset="0%" stop-color="#3fb950" stop-opacity="0.35"/>
    <stop offset="100%" stop-color="#3fb950" stop-opacity="0.02"/>
  </linearGradient>
  <linearGradient id="delGrad" x1="0" y1="0" x2="0" y2="1">
    <stop offset="0%" stop-color="#f85149" stop-opacity="0.25"/>
    <stop offset="100%" stop-color="#f85149" stop-opacity="0.02"/>
  </linearGradient>
</defs>
<style>
  .title { font: bold 16px 'Segoe UI', Ubuntu, Sans-Serif; fill: #c9d1d9; }
  .subtitle { font: 600 12px 'Segoe UI', Ubuntu, Sans-Serif; fill: #c9d1d9; opacity: 0.8; }
  .axis-label { font: 11px 'Segoe UI', Ubuntu, Sans-Serif; fill: #c9d1d9; opacity: 0.7; }
  .legend-text { font: 12px 'Segoe UI', Ubuntu, Sans-Serif; fill: #c9d1d9; }
  .value-text { font: bold 11px 'Segoe UI', Ubuntu, Sans-Serif; fill: #c9d1d9; }
  .stat-value { font: bold 13px 'Segoe UI', Ubuntu, Sans-Serif; fill: #c9d1d9; }
  .stat-label { font: 11px 'Segoe UI', Ubuntu, Sans-Serif; fill: #c9d1d9; opacity: 0.7; }
  @keyframes fadeIn { from { opacity: 0; } to { opacity: 1; } }
  .anim { animation: fadeIn 0.6s ease-in-out forwards; opacity: 0; }
</style>

<rect x="0.5" y="0.5" rx="4.5" width="999" height="759" fill="#161b22" stroke="#21262d"/>
<text x="65" y="30" class="title">Activity History</text>
<text x="65" y="48" class="subtitle">Lines added vs deleted &amp; activity trends over time</text>
<line x1="65" y1="240.0" x2="820" y2="240.0" stroke="#21262d" stroke-width="1"/>
<text x="57" y="244.0" text-anchor="end" class="axis-label">0</text>
<line x1="65" y1="195.0" x2="820" y2="195.0" stroke="#21262d" stroke-width="1"/>
<text x="57" y="199.0" text-anchor="end" class="axis-label">293,761</text>
<line x1="65" y1="150.0" x2="820" y2="150.0" stroke="#21262d" stroke-width="1"/>
<text x="57" y="154.0" text-anchor="end" class="axis-label">587,522</text>
<line x1="65" y1="105.0" x2="820" y2="105.0" stroke="#21262d" stroke-width="1"/>
<text x="57" y="109.0" text-anchor="end" class="axis-label">881,283</text>
<line x1="65" y1="60.0" x2="820" y2="60.0" stroke="#21262d" stroke-width="1"/>
<text x="57" y="64.0" text-anchor="end" class="axis-label">1,175,044</text>
<polygon points="65.0,240.0 65.0,184.1 112.2,186.1 159.4,184.1 206.6,186.1 253.8,199.0 300.9,173.4 348.1,173.4 395.3,163.7 442.5,163.3 489.7,162.7 536.9,162.7 584.1,145.5 631.2,145.4 678.4,145.4 725.6,119.9 772.8,119.6 820.0,119.3 820.0,240.0" fill="url(#addGrad)" class="anim" style="animation-delay:200ms;"/>
<polyline points="65.0,184.1 112.2,186.1 159.4,184.1 206.6,186.1 253.8,199.0 300.9,173.4 348.1,173.4 395.3,163.7 442.5,163.3 489.7,162.7 536.9,162.7 584.1,145.5 631.2,145.4 678.4,145.4 725.6,119.9 772.8,119.6 820.0,119.3" fill="none" stroke="#3fb950" stroke-width="2" stroke-linejoin="round" class="anim" style="animation-delay:250ms;"/>
<polygon points="65.0,240.0 65.0,224.3 112.2,225.9 159.4,224.3 206.6,225.9 253.8,232.6 300.9,222.4 348.1,222.4 395.3,221.2 442.5,220.9 489.7,220.5 536.9,220.5 584.1,202.0 631.2,202.0 678.4,201.9 725.6,180.9 772.8,180.8 820.0,180.7 820.0,240.0" fill="url(#delGrad)" class="anim" style="animation-delay:300ms;"/>
<polyline points="65.0,224.3 112.2,225.9 159.4,224.3 206.6,225.9 253.8,232.6 300.9,222.4 348.1,222.4 395.3,221.2 442.5,220.9 489.7,220.5 536.9,220.5 584.1,202.0 631.2,202.0 678.4,201.9 725.6,180.9 772.8,180.8 820.0,180.7" fill="none" stroke="#f85149" stroke-width="1.5" stroke-linejoin="round" class="anim" style="animation-delay:350ms;"/>
<polyline points="65.0,240.0 112.2,240.0 159.4,240.0 206.6,240.0 253.8,240.0 300.9,240.0 348.1,240.0 395.3,240.0 442.5,96.0 489.7,96.0 536.9,96.0 584.1,96.0 631.2,96.0 678.4,96.0 725.6,96.0 772.8,96.0 820.0,96.0" fill="none" stroke="#e3b341" stroke-width="1.5" stroke-dasharray="4,3" stroke-linejoin="round" class="anim" style="animation-delay:400ms;"/>
<text x="65" y="54" class="subtitle">Lines Added vs Deleted (per snapshot)</text>
<text x="65" y="294" class="subtitle">Programming Language Development (%)</text>
<line x1="65" y1="480.0" x2="820" y2="480.0" stroke="#21262d" stroke-width="1"/>
<text x="57" y="484.0" text-anchor="end" class="axis-label">0%</text>
<line x1="65" y1="435.0" x2="820" y2="435.0" stroke="#21262d" stroke-width="1"/>
<text x="57" y="439.0" text-anchor="end" class="axis-label">25%</text>
<line x1="65" y1="390.0" x2="820" y2="390.0" stroke="#21262d" stroke-width="1"/>
<text x="57" y="394.0" text-anchor="end" class="axis-label">50%</text>
<line x1="65" y1="345.0" x2="820" y2="345.0" stroke="#21262d" stroke-width="1"/>
<text x="57" y="349.0" text-anchor="end" class="axis-label">75%</text>
<line x1="65" y1="300.0" x2="820" y2="300.0" stroke="#21262d" stroke-width="1"/>
<text x="57" y="304.0" text-anchor="end" class="axis-label">100%</text>
<polygon points="65.0,480.0 112.2,480.0 159.4,480.0 206.6,480.0 253.8,480.0 300.9,480.0 348.1,480.0 395.3,480.0 442.5,388.6 489.7,388.8 536.9,389.8 584.1,366.9 631.2,366.9 678.4,369.6 725.6,356.3 772.8,356.3 820.0,356.5 820.0,480.0 772.8,480.0 725.6,480.0 678.4,480.0 631.2,480.0 584.1,480.0 536.9,480.0 489.7,480.0 442.5,480.0 395.3,480.0 348.1,480.0 300.9,480.0 253.8,480.0 206.6,480.0 159.4,480.0 112.2,480.0 65.0,480.0" fill="#e34c26" opacity="0.6" class="anim" style="animation-delay:500ms;"/>
<polygon points="65.0,480.0 112.2,480.0 159.4,480.0 206.6,480.0 253.8,480.0 300.9,480.0 348.1,480.0 395.3,480.0 442.5,358.8 489.7,358.5 536.9,359.2 584.1,349.5 631.2,349.5 678.4,350.4 725.6,337.6 772.8,337.6 820.0,338.0 820.0,356.5 772.8,356.3 725.6,356.3 678.4,369.6 631.2,366.9 584.1,366.9 536.9,389.8 489.7,388.8 442.5,388.6 395.3,480.0 348.1,480.0 300.9,480.0 253.8,480.0 206.6,480.0 159.4,480.0 112.2,480.0 65.0,480.0" fill="#f1e05a" opacity="0.6" class="anim" style="animation-delay:600ms;"/>
<polygon points="65.0,480.0 112.2,480.0 159.4,480.0 206.6,480.0 253.8,480.0 300.9,480.0 348.1,480.0 395.3,480.0 442.5,334.2 489.7,334.0 536.9,333.9 584.1,327.7 631.2,327.7 678.4,328.6 725.6,321.7 772.8,321.7 820.0,322.2 820.0,338.0 772.8,337.6 725.6,337.6 678.4,350.4 631.2,349.5 584.1,349.5 536.9,359.2 489.7,358.5 442.5,358.8 395.3,480.0 348.1,480.0 300.9,480.0 253.8,480.0 206.6,480.0 159.4,480.0 112.2,480.0 65.0,480.0" fill="#3572A5" opacity="0.6" class="anim" style="animation-delay:700ms;"/>
<polygon points="65.0,480.0 112.2,480.0 159.4,480.0 206.6,480.0 253.8,480.0 300.9,480.0 348.1,480.0 395.3,480.0 442.5,324.2 489.7,324.0 536.9,323.7 584.1,322.1 631.2,322.1 678.4,322.1 725.6,316.7 772.8,316.6 820.0,316.9 820.0,322.2 772.8,321.7 725.6,321.7 678.4,328.6 631.2,327.7 584.1,327.7 536.9,333.9 489.7,334.0 442.5,334.2 395.3,480.0 348.1,480.0 300.9,480.0 253.8,480.0 206.6,480.0 159.4,480.0 112.2,480.0 65.0,480.0" fill="#663399" opacity="0.6" class="anim" style="animation-delay:800ms;"/>
<polygon points="65.0,480.0 112.2,480.0 159.4,480.0 206.6,480.0 253.8,480.0 300.9,480.0 348.1,480.0 395.3,480.0 442.5,317.0 489.7,316.9 536.9,316.7 584.1,316.1 631.2,316.1 678.4,316.1 725.6,312.3 772.8,312.3 820.0,312.6 820.0,316.9 772.8,316.6 725.6,316.7 678.4,322.1 631.2,322.1 584.1,322.1 536.9,323.7 489.7,324.0 442.5,324.2 395.3,480.0 348.1,480.0 300.9,480.0 253.8,480.0 206.6,480.0 159.4,480.0 112.2,480.0 65.0,480.0" fill="#6E4C13" opacity="0.6" class="anim" style="animation-delay:900ms;"/>
<polygon points="65.0,480.0 112.2,480.0 159.4,480.0 206.6,480.0 253.8,480.0 300.9,480.0 348.1,480.0 395.3,480.0 442.5,310.8 489.7,310.7 536.9,310.6 584.1,310.9 631.2,310.9 678.4,310.9 725.6,308.5 772.8,308.5 820.0,308.8 820.0,312.6 772.8,312.3 725.6,312.3 678.4,316.1 631.2,316.1 584.1,316.1 536.9,316.7 489.7,316.9 442.5,317.0 395.3,480.0 348.1,480.0 300.9,480.0 253.8,480.0 206.6,480.0 159.4,480.0 112.2,480.0 65.0,480.0" fill="#F05138" opacity="0.6" class="anim" style="animation-delay:1000ms;"/>
<polygon points="65.0,480.0 112.2,480.0 159.4,480.0 206.6,480.0 253.8,480.0 300.9,480.0 348.1,480.0 395.3,480.0 442.5,306.5 489.7,306.5 536.9,306.4 584.1,305.4 631.2,305.4 678.4,305.4 725.6,304.0 772.8,304.0 820.0,303.9 820.0,308.8 772.8,308.5 725.6,308.5 678.4,310.9 631.2,310.9 584.1,310.9 536.9,310.6 489.7,310.7 442.5,310.8 395.3,480.0 348.1,480.0 300.9,480.0 253.8,480.0 206.6,480.0 159.4,480.0 112.2,480.0 65.0,480.0" fill="#083fa1" opacity="0.6" class="anim" style="animation-delay:1100ms;"/>
<polygon points="65.0,480.0 112.2,480.0 159.4,480.0 206.6,480.0 253.8,480.0 300.9,480.0 348.1,480.0 395.3,480.0 442.5,303.3 489.7,303.3 536.9,303.2 584.1,302.8 631.2,302.8 678.4,302.8 725.6,302.0 772.8,302.0 820.0,302.0 820.0,303.9 772.8,304.0 725.6,304.0 678.4,305.4 631.2,305.4 584.1,305.4 536.9,306.4 489.7,306.5 442.5,306.5 395.3,480.0 348.1,480.0 300.9,480.0 253.8,480.0 206.6,480.0 159.4,480.0 112.2,480.0 65.0,480.0" fill="#b07219" opacity="0.6" class="anim" style="animation-delay:1200ms;"/>
<text x="65.0" y="498" text-anchor="middle" class="axis-label" transform="rotate(-35 65.0 498)">2026-02-06</text>
<text x="112.2" y="498" text-anchor="middle" class="axis-label" transform="rotate(-35 112.2 498)">2026-02-07</text>
<text x="159.4" y="498" text-anchor="middle" class="axis-label" transform="rotate(-35 159.4 498)">2026-02-08</text>
<text x="206.6" y="498" text-anchor="middle" class="axis-label" transform="rotate(-35 206.6 498)">2026-02-09</text>
<text x="253.8" y="498" text-anchor="middle" class="axis-label" transform="rotate(-35 253.8 498)">2026-02-10</text>
<text x="300.9" y="498" text-anchor="middle" class="axis-label" transform="rotate(-35 300.9 498)">2026-02-11</text>
<text x="348.1" y="498" text-anchor="middle" class="axis-label" transform="rotate(-35 348.1 498)">2026-02-12</text>
<text x="395.3" y="498" text-anchor="middle" class="axis-label" transform="rotate(-35 395.3 498)">2026-02-13</text>
<text x="442.5" y="498" text-anchor="middle" class="axis-label" transform="rotate(-35 442.5 498)">2026-02-14</text>
<text x="489.7" y="498" text-anchor="middle" class="axis-label" transform="rotate(-35 489.7 498)">2026-02-15</text>
<text x="536.9" y="498" text-anchor="middle" class="axis-label" transform="rotate(-35 536.9 498)">2026-02-16</text>
<text x="584.1" y="498" text-anchor="middle" class="axis-label" transform="rotate(-35 584.1 498)">2026-02-17</text>
<text x="631.2" y="498" text-anchor="middle" class="axis-label" transform="rotate(-35 631.2 498)">2026-02-18</text>
<text x="678.4" y="498" text-anchor="middle" class="axis-label" transform="rotate(-35 678.4 498)">2026-02-19</text>
<text x="725.6" y="498" text-anchor="middle" class="axis-label" transform="rotate(-35 725.6 498)">2026-02-20</text>
<text x="772.8" y="498" text-anchor="middle" class="axis-label" transform="rotate(-35 772.8 498)">2026-02-21</text>
<text x="820.0" y="498" text-anchor="middle" class="axis-label" transform="rotate(-35 820.0 498)">2026-02-22</text>
<line x1="836" y1="70" x2="856" y2="70" stroke="#3fb950" stroke-width="2"/>
<text x="862" y="74" class="legend-text">Lines Added</text>
<line x1="836" y1="88" x2="856" y2="88" stroke="#f85149" stroke-width="1.5"/>
<text x="862" y="92" class="legend-text">Lines Deleted</text>
<line x1="836" y1="108" x2="856" y2="108" stroke="#e3b341" stroke-width="1.5" stroke-dasharray="4,3"/>
<text x="862" y="112" class="legend-text">&#x2605; Stars</text>
<text x="836" y="142" class="subtitle">Languages</text>
<rect x="836" y="153" width="12" height="12" rx="2" fill="#e34c26" opacity="0.8" class="anim" style="animation-delay:800ms;"/>
<text x="854" y="163" class="legend-text">HTML (68.6%)</text>
<rect x="836" y="175" width="12" height="12" rx="2" fill="#f1e05a" opacity="0.8" class="anim" style="animation-delay:880ms;"/>
<text x="854" y="185" class="legend-text">JavaScript (10.3%)</text>
<rect x="836" y="197" width="12" height="12" rx="2" fill="#3572A5" opacity="0.8" class="anim" style="animation-delay:960ms;"/>
<text x="854" y="207" class="legend-text">Python (8.8%)</text>
<rect x="836" y="219" width="12" height="12" rx="2" fill="#663399" opacity="0.8" class="anim" style="animation-delay:1040ms;"/>
<text x="854" y="229" class="legend-text">CSS (2.9%)</text>
<rect x="836" y="241" width="12" height="12" rx="2" fill="#6E4C13" opacity="0.8" class="anim" style="animation-delay:1120ms;"/>
<text x="854" y="251" class="legend-text">Assembly (2.4%)</text>
<rect x="836" y="263" width="12" height="12" rx="2" fill="#F05138" opacity="0.8" class="anim" style="animation-delay:1200ms;"/>
<text x="854" y="273" class="legend-text">Swift (2.1%)</text>
<rect x="836" y="285" width="12" height="12" rx="2" fill="#083fa1" opacity="0.8" class="anim" style="animation-delay:1280ms;"/>
<text x="854" y="295" class="legend-text">Markdown (2.7%)</text>
<rect x="836" y="307" width="12" height="12" rx="2" fill="#b07219" opacity="0.8" class="anim" style="animation-delay:1360ms;"/>
<text x="854" y="317" class="legend-text">Java (1.1%)</text>
<text x="836" y="358" class="subtitle">Contributions</text>
<text x="836" y="376" class="axis-label">2023: 39</text>
<text x="836" y="392" class="axis-label">2024: 646</text>
<text x="836" y="408" class="axis-label">2025: 1,780</text>
<text x="836" y="424" class="axis-label">2026: 292</text>
<text x="836" y="450" class="subtitle">Statistics</text>
<text x="836" y="468" class="axis-label">Active weeks: 75</text>
<text x="836" y="483" class="axis-label">Add/Del ratio: 2.0x</text>
<text x="836" y="498" class="axis-label">Avg lines/week: 15,667</text>
<text x="836" y="513" class="axis-label">Peak: 2026-02-15</text>
<text x="836" y="528" class="axis-label">  (542,929 lines)</text>
<text x="65" y="746" class="axis-label">Total: +788,255 / -386,789 lines &#xb7; 2,757 contributions &#xb7; 71 repos &#xb7; &#x2605; 33</text>
</svg>