<svg xmlns="http://www.w3.org/2000/svg" width="1000" height="760" style="max-width: 100%;" viewBox="0 0 1000 760">

<defs>
  <linearGradient id="areaGrad" x1="0" y1="0" x2="0" y2="1">
    <stop offset="0%" stop-color="#58a6ff" stop-opacity="0.35"/>
    <stop offset="100%" stop-color="#58a6ff" stop-opacity="0.02"/>
  </linearGradient>
  <linearGradient id="addGrad" x1="0" y1="0" x2="0" y2="1">
    <stop offset="0%" stop-color="#3fb950" stop-opacity="0.35"/>
    <stop offset="100%" stop-color="#3fb950" stop-opacity="0.02"/>
  </linearGradient>
  <linearGradient id="delGrad" x1="0" y1="0" x2="0" y2="1">
    <stop offset="0%" stop-color="#f85149" stop-opacity="0.25"/>
    <stop offset="100%" stop-color="#f85149" stop-opacity="0.02"/>
  </linearGradient>
</defs>
<style>
  .title { font: bold 28px 'Segoe UI', Ubuntu, Sans-Serif; fill: #c9d1d9; }
  .subtitle { font: 600 20px 'Segoe UI', Ubuntu, Sans-Serif; fill: #c9d1d9; opacity: 0.8; }
  .axis-label { font: 18px 'Segoe UI', Ubuntu, Sans-Serif; fill: #c9d1d9; opacity: 0.7; }
  .legend-text { font: 14px 'Segoe UI', Ubuntu, Sans-Serif; fill: #c9d1d9; }
  .value-text { font: bold 18px 'Segoe UI', Ubuntu, Sans-Serif; fill: #c9d1d9; }
  .stat-value { font: bold 22px 'Segoe UI', Ubuntu, Sans-Serif; fill: #c9d1d9; }
  .stat-label { font: 18px 'Segoe UI', Ubuntu, Sans-Serif; fill: #c9d1d9; opacity: 0.7; }
  @keyframes fadeIn { from { opacity: 0; } to { opacity: 1; } }
  .anim { animation: fadeIn 0.6s ease-in-out forwards; opacity: 0; }
</style>

<rect x="0.5" y="0.5" rx="4.5" width="999" height="759" fill="#161b22" stroke="#21262d"/>
<text x="90" y="45" class="title">Activity History</text>
<text x="90" y="72" class="subtitle">Lines added vs deleted &amp; activity trends over time</text>
<line x1="90" y1="340.0" x2="780" y2="340.0" stroke="#21262d" stroke-width="1"/>
<text x="82" y="344.0" text-anchor="end" class="axis-label">0</text>
<line x1="90" y1="280.0" x2="780" y2="280.0" stroke="#21262d" stroke-width="1"/>
<text x="82" y="284.0" text-anchor="end" class="axis-label">537K</text>
<line x1="90" y1="220.0" x2="780" y2="220.0" stroke="#21262d" stroke-width="1"/>
<text x="82" y="224.0" text-anchor="end" class="axis-label">1.1M</text>
<line x1="90" y1="160.0" x2="780" y2="160.0" stroke="#21262d" stroke-width="1"/>
<text x="82" y="164.0" text-anchor="end" class="axis-label">1.6M</text>
<line x1="90" y1="100.0" x2="780" y2="100.0" stroke="#21262d" stroke-width="1"/>
<text x="82" y="104.0" text-anchor="end" class="axis-label">2.1M</text>
<polygon points="90.0,340.0 90.0,299.3 103.3,300.7 116.5,299.3 129.8,300.7 143.1,310.1 156.3,291.5 169.6,291.4 182.9,284.4 196.2,284.1 209.4,283.7 222.7,283.6 236.0,271.1 249.2,271.1 262.5,271.1 275.8,252.5 289.0,252.2 302.3,252.0 315.6,252.0 328.8,252.0 342.1,252.0 355.4,252.0 368.7,251.5 381.9,239.1 395.2,239.1 408.5,239.1 421.7,239.1 435.0,238.8 448.3,238.8 461.5,238.3 474.8,238.3 488.1,238.2 501.3,238.2 514.6,238.2 527.9,238.2 541.2,238.2 554.4,238.2 567.7,238.2 581.0,238.2 594.2,238.2 607.5,238.2 620.8,238.2 634.0,237.7 647.3,237.9 660.6,237.3 673.8,237.0 687.1,237.0 700.4,237.0 713.7,237.0 726.9,237.0 740.2,237.0 753.5,237.0 766.7,218.3 780.0,199.6 780.0,340.0" fill="url(#addGrad)" class="anim" style="animation-delay:200ms;"/>
<polyline points="90.0,299.3 103.3,300.7 116.5,299.3 129.8,300.7 143.1,310.1 156.3,291.5 169.6,291.4 182.9,284.4 196.2,284.1 209.4,283.7 222.7,283.6 236.0,271.1 249.2,271.1 262.5,271.1 275.8,252.5 289.0,252.2 302.3,252.0 315.6,252.0 328.8,252.0 342.1,252.0 355.4,252.0 368.7,251.5 381.9,239.1 395.2,239.1 408.5,239.1 421.7,239.1 435.0,238.8 448.3,238.8 461.5,238.3 474.8,238.3 488.1,238.2 501.3,238.2 514.6,238.2 527.9,238.2 541.2,238.2 554.4,238.2 567.7,238.2 581.0,238.2 594.2,238.2 607.5,238.2 620.8,238.2 634.0,237.7 647.3,237.9 660.6,237.3 673.8,237.0 687.1,237.0 700.4,237.0 713.7,237.0 726.9,237.0 740.2,237.0 753.5,237.0" fill="none" stroke="#3fb950" stroke-width="2" stroke-linejoin="round" class="anim" style="animation-delay:250ms;"/>
<polyline points="753.5,237.0 766.7,218.3 780.0,199.6" fill="none" stroke="#3fb950" stroke-width="1.5" stroke-dasharray="5,4" stroke-linejoin="round" opacity="0.6" class="anim" style="animation-delay:250ms;"/>
<polygon points="90.0,340.0 90.0,328.5 103.3,329.7 116.5,328.6 129.8,329.7 143.1,334.6 156.3,327.2 169.6,327.1 182.9,326.3 196.2,326.0 209.4,325.8 222.7,325.8 236.0,312.3 249.2,312.3 262.5,312.2 275.8,297.0 289.0,296.8 302.3,296.8 315.6,296.8 328.8,296.8 342.1,296.8 355.4,296.8 368.7,288.8 381.9,276.6 395.2,276.6 408.5,276.6 421.7,276.6 435.0,276.5 448.3,276.5 461.5,276.5 474.8,276.4 488.1,276.4 501.3,276.4 514.6,276.4 527.9,276.4 541.2,276.4 554.4,276.4 567.7,276.4 581.0,276.4 594.2,276.4 607.5,276.4 620.8,276.4 634.0,276.4 647.3,276.5 660.6,276.1 673.8,276.1 687.1,276.1 700.4,276.1 713.7,276.1 726.9,276.1 740.2,276.1 753.5,276.1 766.7,258.2 780.0,240.4 780.0,340.0" fill="url(#delGrad)" class="anim" style="animation-delay:300ms;"/>
<polyline points="90.0,328.5 103.3,329.7 116.5,328.6 129.8,329.7 143.1,334.6 156.3,327.2 169.6,327.1 182.9,326.3 196.2,326.0 209.4,325.8 222.7,325.8 236.0,312.3 249.2,312.3 262.5,312.2 275.8,297.0 289.0,296.8 302.3,296.8 315.6,296.8 328.8,296.8 342.1,296.8 355.4,296.8 368.7,288.8 381.9,276.6 395.2,276.6 408.5,276.6 421.7,276.6 435.0,276.5 448.3,276.5 461.5,276.5 474.8,276.4 488.1,276.4 501.3,276.4 514.6,276.4 527.9,276.4 541.2,276.4 554.4,276.4 567.7,276.4 581.0,276.4 594.2,276.4 607.5,276.4 620.8,276.4 634.0,276.4 647.3,276.5 660.6,276.1 673.8,276.1 687.1,276.1 700.4,276.1 713.7,276.1 726.9,276.1 740.2,276.1 753.5,276.1" fill="none" stroke="#f85149" stroke-width="1.5" stroke-linejoin="round" class="anim" style="animation-delay:350ms;"/>
<polyline points="753.5,276.1 766.7,258.2 780.0,240.4" fill="none" stroke="#f85149" stroke-width="1" stroke-dasharray="5,4" stroke-linejoin="round" opacity="0.6" class="anim" style="animation-delay:350ms;"/>
<polyline points="90.0,340.0 103.3,340.0 116.5,340.0 129.8,340.0 143.1,340.0 156.3,340.0 169.6,340.0 182.9,340.0 196.2,292.0 209.4,292.0 222.7,292.0 236.0,292.0 249.2,292.0 262.5,292.0 275.8,292.0 289.0,292.0 302.3,292.0 315.6,292.0 328.8,292.0 342.1,292.0 355.4,292.0 368.7,292.0 381.9,292.0 395.2,292.0 408.5,292.0 421.7,292.0 435.0,292.0 448.3,292.0 461.5,292.0 474.8,292.0 488.1,292.0 501.3,292.0 514.6,292.0 527.9,292.0 541.2,244.0 554.4,244.0 567.7,244.0 581.0,244.0 594.2,244.0 607.5,244.0 620.8,244.0 634.0,244.0 647.3,196.0 660.6,196.0 673.8,196.0 687.1,196.0 700.4,196.0 713.7,196.0 726.9,196.0 740.2,196.0 753.5,196.0" fill="none" stroke="#e3b341" stroke-width="1.5" stroke-dasharray="4,3" stroke-linejoin="round" class="anim" style="animation-delay:400ms;"/>
<polyline points="753.5,196.0 766.7,196.0 780.0,148.0" fill="none" stroke="#e3b341" stroke-width="1" stroke-dasharray="3,5" stroke-linejoin="round" opacity="0.5" class="anim" style="animation-delay:400ms;"/>
<text x="90" y="90" class="subtitle">Lines Added vs Deleted (per snapshot)</text>
<text x="90" y="400" class="subtitle">Programming Language Development (%)</text>
<line x1="90" y1="650.0" x2="780" y2="650.0" stroke="#21262d" stroke-width="1"/>
<text x="82" y="654.0" text-anchor="end" class="axis-label">0%</text>
<line x1="90" y1="590.0" x2="780" y2="590.0" stroke="#21262d" stroke-width="1"/>
<text x="82" y="594.0" text-anchor="end" class="axis-label">25%</text>
<line x1="90" y1="530.0" x2="780" y2="530.0" stroke="#21262d" stroke-width="1"/>
<text x="82" y="534.0" text-anchor="end" class="axis-label">50%</text>
<line x1="90" y1="470.0" x2="780" y2="470.0" stroke="#21262d" stroke-width="1"/>
<text x="82" y="474.0" text-anchor="end" class="axis-label">75%</text>
<line x1="90" y1="410.0" x2="780" y2="410.0" stroke="#21262d" stroke-width="1"/>
<text x="82" y="414.0" text-anchor="end" class="axis-label">100%</text>
<polygon points="90.0,650.0 103.3,650.0 116.5,650.0 129.8,650.0 143.1,650.0 156.3,650.0 169.6,650.0 182.9,650.0 196.2,528.2 209.4,528.5 222.7,529.7 236.0,499.3 249.2,499.3 262.5,502.9 275.8,485.0 289.0,485.1 302.3,485.4 315.6,485.4 328.8,485.4 342.1,485.4 355.4,485.4 368.7,496.4 381.9,496.7 395.2,491.0 408.5,491.0 421.7,491.0 435.0,491.7 448.3,491.8 461.5,494.0 474.8,494.0 488.1,494.4 501.3,494.4 514.6,494.4 527.9,494.4 541.2,507.6 554.4,507.6 567.7,507.9 581.0,507.9 594.2,507.9 607.5,506.3 620.8,506.4 634.0,506.8 647.3,506.9 660.6,506.8 673.8,507.5 687.1,507.5 700.4,507.5 713.7,507.5 726.9,507.5 740.2,507.5 753.5,507.5 766.7,510.6 780.0,513.7 780.0,650.0 766.7,650.0 753.5,650.0 740.2,650.0 726.9,650.0 713.7,650.0 700.4,650.0 687.1,650.0 673.8,650.0 660.6,650.0 647.3,650.0 634.0,650.0 620.8,650.0 607.5,650.0 594.2,650.0 581.0,650.0 567.7,650.0 554.4,650.0 541.2,650.0 527.9,650.0 514.6,650.0 501.3,650.0 488.1,650.0 474.8,650.0 461.5,650.0 448.3,650.0 435.0,650.0 421.7,650.0 408.5,650.0 395.2,650.0 381.9,650.0 368.7,650.0 355.4,650.0 342.1,650.0 328.8,650.0 315.6,650.0 302.3,650.0 289.0,650.0 275.8,650.0 262.5,650.0 249.2,650.0 236.0,650.0 222.7,650.0 209.4,650.0 196.2,650.0 182.9,650.0 169.6,650.0 156.3,650.0 143.1,650.0 129.8,650.0 116.5,650.0 103.3,650.0 90.0,650.0" fill="#e34c26" opacity="0.6" class="anim" style="animation-delay:500ms;"/>
<polygon points="90.0,650.0 103.3,650.0 116.5,650.0 129.8,650.0 143.1,650.0 156.3,650.0 169.6,650.0 182.9,650.0 196.2,488.4 209.4,488.0 222.7,489.0 236.0,476.0 249.2,476.0 262.5,477.2 275.8,460.1 289.0,460.2 302.3,460.6 315.6,460.6 328.8,460.6 342.1,460.6 355.4,460.6 368.7,473.0 381.9,473.5 395.2,469.5 408.5,469.5 421.7,469.5 435.0,469.7 448.3,469.7 461.5,469.7 474.8,469.7 488.1,469.7 501.3,469.7 514.6,469.7 527.9,469.7 541.2,455.6 554.4,455.6 567.7,455.4 581.0,455.4 594.2,455.4 607.5,454.3 620.8,454.3 634.0,455.0 647.3,455.1 660.6,454.9 673.8,455.9 687.1,455.9 700.4,455.9 713.7,455.9 726.9,455.9 740.2,455.9 753.5,455.9 766.7,448.2 780.0,440.6 780.0,513.7 766.7,510.6 753.5,507.5 740.2,507.5 726.9,507.5 713.7,507.5 700.4,507.5 687.1,507.5 673.8,507.5 660.6,506.8 647.3,506.9 634.0,506.8 620.8,506.4 607.5,506.3 594.2,507.9 581.0,507.9 567.7,507.9 554.4,507.6 541.2,507.6 527.9,494.4 514.6,494.4 501.3,494.4 488.1,494.4 474.8,494.0 461.5,494.0 448.3,491.8 435.0,491.7 421.7,491.0 408.5,491.0 395.2,491.0 381.9,496.7 368.7,496.4 355.4,485.4 342.1,485.4 328.8,485.4 315.6,485.4 302.3,485.4 289.0,485.1 275.8,485.0 262.5,502.9 249.2,499.3 236.0,499.3 222.7,529.7 209.4,528.5 196.2,528.2 182.9,650.0 169.6,650.0 156.3,650.0 143.1,650.0 129.8,650.0 116.5,650.0 103.3,650.0 90.0,650.0" fill="#f1e05a" opacity="0.6" class="anim" style="animation-delay:600ms;"/>
<polygon points="90.0,650.0 103.3,650.0 116.5,650.0 129.8,650.0 143.1,650.0 156.3,650.0 169.6,650.0 182.9,650.0 196.2,455.5 209.4,455.4 222.7,455.1 236.0,447.0 249.2,447.0 262.5,448.2 275.8,438.9 289.0,439.0 302.3,439.6 315.6,439.6 328.8,439.6 342.1,439.6 355.4,439.6 368.7,445.6 381.9,445.6 395.2,443.3 408.5,443.3 421.7,443.3 435.0,443.6 448.3,443.6 461.5,444.1 474.8,444.1 488.1,444.1 501.3,444.1 514.6,444.1 527.9,444.1 541.2,437.5 554.4,437.5 567.7,437.5 581.0,437.5 594.2,437.5 607.5,437.5 620.8,437.5 634.0,438.4 647.3,438.5 660.6,438.3 673.8,439.3 687.1,439.3 700.4,439.3 713.7,439.3 726.9,439.3 740.2,439.3 753.5,439.3 766.7,436.5 780.0,433.6 780.0,440.6 766.7,448.2 753.5,455.9 740.2,455.9 726.9,455.9 713.7,455.9 700.4,455.9 687.1,455.9 673.8,455.9 660.6,454.9 647.3,455.1 634.0,455.0 620.8,454.3 607.5,454.3 594.2,455.4 581.0,455.4 567.7,455.4 554.4,455.6 541.2,455.6 527.9,469.7 514.6,469.7 501.3,469.7 488.1,469.7 474.8,469.7 461.5,469.7 448.3,469.7 435.0,469.7 421.7,469.5 408.5,469.5 395.2,469.5 381.9,473.5 368.7,473.0 355.4,460.6 342.1,460.6 328.8,460.6 315.6,460.6 302.3,460.6 289.0,460.2 275.8,460.1 262.5,477.2 249.2,476.0 236.0,476.0 222.7,489.0 209.4,488.0 196.2,488.4 182.9,650.0 169.6,650.0 156.3,650.0 143.1,650.0 129.8,650.0 116.5,650.0 103.3,650.0 90.0,650.0" fill="#3572A5" opacity="0.6" class="anim" style="animation-delay:700ms;"/>
<polygon points="90.0,650.0 103.3,650.0 116.5,650.0 129.8,650.0 143.1,650.0 156.3,650.0 169.6,650.0 182.9,650.0 196.2,442.3 209.4,442.0 222.7,441.6 236.0,439.5 249.2,439.5 262.5,439.4 275.8,432.3 289.0,432.2 302.3,432.6 315.6,432.6 328.8,432.6 342.1,432.6 355.4,432.6 368.7,439.3 381.9,439.3 395.2,437.4 408.5,437.4 421.7,437.4 435.0,437.3 448.3,437.3 461.5,437.1 474.8,437.1 488.1,437.1 501.3,437.1 514.6,437.1 527.9,437.1 541.2,428.7 554.4,428.6 567.7,428.5 581.0,428.5 594.2,428.5 607.5,427.3 620.8,427.3 634.0,427.1 647.3,427.1 660.6,427.1 673.8,427.0 687.1,427.0 700.4,427.0 713.7,427.0 726.9,427.0 740.2,427.0 753.5,427.0 766.7,423.0 780.0,418.9 780.0,433.6 766.7,436.5 753.5,439.3 740.2,439.3 726.9,439.3 713.7,439.3 700.4,439.3 687.1,439.3 673.8,439.3 660.6,438.3 647.3,438.5 634.0,438.4 620.8,437.5 607.5,437.5 594.2,437.5 581.0,437.5 567.7,437.5 554.4,437.5 541.2,437.5 527.9,444.1 514.6,444.1 501.3,444.1 488.1,444.1 474.8,444.1 461.5,444.1 448.3,443.6 435.0,443.6 421.7,443.3 408.5,443.3 395.2,443.3 381.9,445.6 368.7,445.6 355.4,439.6 342.1,439.6 328.8,439.6 315.6,439.6 302.3,439.6 289.0,439.0 275.8,438.9 262.5,448.2 249.2,447.0 236.0,447.0 222.7,455.1 209.4,455.4 196.2,455.5 182.9,650.0 169.6,650.0 156.3,650.0 143.1,650.0 129.8,650.0 116.5,650.0 103.3,650.0 90.0,650.0" fill="#663399" opacity="0.6" class="anim" style="animation-delay:800ms;"/>
<polygon points="90.0,650.0 103.3,650.0 116.5,650.0 129.8,650.0 143.1,650.0 156.3,650.0 169.6,650.0 182.9,650.0 196.2,436.6 209.4,436.3 222.7,435.9 236.0,432.2 249.2,432.2 262.5,432.2 275.8,426.2 289.0,426.1 302.3,426.0 315.6,426.0 328.8,426.0 342.1,426.0 355.4,426.0 368.7,430.8 381.9,430.7 395.2,429.3 408.5,429.3 421.7,429.3 435.0,429.2 448.3,429.2 461.5,428.9 474.8,428.9 488.1,428.8 501.3,428.8 514.6,428.8 527.9,428.8 541.2,423.0 554.4,422.9 567.7,422.9 581.0,422.9 594.2,422.9 607.5,422.0 620.8,422.0 634.0,421.9 647.3,421.9 660.6,421.9 673.8,421.8 687.1,421.8 700.4,421.8 713.7,421.8 726.9,421.8 740.2,421.8 753.5,421.8 766.7,418.4 780.0,415.0 780.0,418.9 766.7,423.0 753.5,427.0 740.2,427.0 726.9,427.0 713.7,427.0 700.4,427.0 687.1,427.0 673.8,427.0 660.6,427.1 647.3,427.1 634.0,427.1 620.8,427.3 607.5,427.3 594.2,428.5 581.0,428.5 567.7,428.5 554.4,428.6 541.2,428.7 527.9,437.1 514.6,437.1 501.3,437.1 488.1,437.1 474.8,437.1 461.5,437.1 448.3,437.3 435.0,437.3 421.7,437.4 408.5,437.4 395.2,437.4 381.9,439.3 368.7,439.3 355.4,432.6 342.1,432.6 328.8,432.6 315.6,432.6 302.3,432.6 289.0,432.2 275.8,432.3 262.5,439.4 249.2,439.5 236.0,439.5 222.7,441.6 209.4,442.0 196.2,442.3 182.9,650.0 169.6,650.0 156.3,650.0 143.1,650.0 129.8,650.0 116.5,650.0 103.3,650.0 90.0,650.0" fill="#083fa1" opacity="0.6" class="anim" style="animation-delay:900ms;"/>
<polygon points="90.0,650.0 103.3,650.0 116.5,650.0 129.8,650.0 143.1,650.0 156.3,650.0 169.6,650.0 182.9,650.0 196.2,427.0 209.4,426.8 222.7,426.6 236.0,424.2 249.2,424.2 262.5,424.2 275.8,420.4 289.0,420.3 302.3,420.3 315.6,420.3 328.8,420.3 342.1,420.3 355.4,420.3 368.7,423.3 381.9,423.2 395.2,422.4 408.5,422.4 421.7,422.4 435.0,422.3 448.3,422.3 461.5,422.1 474.8,422.1 488.1,422.1 501.3,422.1 514.6,422.1 527.9,422.1 541.2,418.3 554.4,418.3 567.7,418.2 581.0,418.2 594.2,418.2 607.5,417.7 620.8,417.7 634.0,417.6 647.3,417.6 660.6,417.6 673.8,417.6 687.1,417.6 700.4,417.6 713.7,417.6 726.9,417.6 740.2,417.6 753.5,417.6 766.7,415.6 780.0,413.7 780.0,415.0 766.7,418.4 753.5,421.8 740.2,421.8 726.9,421.8 713.7,421.8 700.4,421.8 687.1,421.8 673.8,421.8 660.6,421.9 647.3,421.9 634.0,421.9 620.8,422.0 607.5,422.0 594.2,422.9 581.0,422.9 567.7,422.9 554.4,422.9 541.2,423.0 527.9,428.8 514.6,428.8 501.3,428.8 488.1,428.8 474.8,428.9 461.5,428.9 448.3,429.2 435.0,429.2 421.7,429.3 408.5,429.3 395.2,429.3 381.9,430.7 368.7,430.8 355.4,426.0 342.1,426.0 328.8,426.0 315.6,426.0 302.3,426.0 289.0,426.1 275.8,426.2 262.5,432.2 249.2,432.2 236.0,432.2 222.7,435.9 209.4,436.3 196.2,436.6 182.9,650.0 169.6,650.0 156.3,650.0 143.1,650.0 129.8,650.0 116.5,650.0 103.3,650.0 90.0,650.0" fill="#6E4C13" opacity="0.6" class="anim" style="animation-delay:1000ms;"/>
<polygon points="90.0,650.0 103.3,650.0 116.5,650.0 129.8,650.0 143.1,650.0 156.3,650.0 169.6,650.0 182.9,650.0 196.2,418.7 209.4,418.6 222.7,418.5 236.0,417.3 249.2,417.3 262.5,417.2 275.8,415.3 289.0,415.3 302.3,415.2 315.6,415.2 328.8,415.2 342.1,415.2 355.4,415.2 368.7,416.8 381.9,416.8 395.2,416.3 408.5,416.3 421.7,416.3 435.0,416.3 448.3,416.3 461.5,416.2 474.8,416.2 488.1,416.2 501.3,416.2 514.6,416.2 527.9,416.2 541.2,414.2 554.4,414.2 567.7,414.2 581.0,414.2 594.2,414.2 607.5,413.9 620.8,413.9 634.0,413.9 647.3,413.9 660.6,413.9 673.8,413.9 687.1,413.9 700.4,413.9 713.7,413.9 726.9,413.9 740.2,413.9 753.5,413.9 766.7,413.2 780.0,412.6 780.0,413.7 766.7,415.6 753.5,417.6 740.2,417.6 726.9,417.6 713.7,417.6 700.4,417.6 687.1,417.6 673.8,417.6 660.6,417.6 647.3,417.6 634.0,417.6 620.8,417.7 607.5,417.7 594.2,418.2 581.0,418.2 567.7,418.2 554.4,418.3 541.2,418.3 527.9,422.1 514.6,422.1 501.3,422.1 488.1,422.1 474.8,422.1 461.5,422.1 448.3,422.3 435.0,422.3 421.7,422.4 408.5,422.4 395.2,422.4 381.9,423.2 368.7,423.3 355.4,420.3 342.1,420.3 328.8,420.3 315.6,420.3 302.3,420.3 289.0,420.3 275.8,420.4 262.5,424.2 249.2,424.2 236.0,424.2 222.7,426.6 209.4,426.8 196.2,427.0 182.9,650.0 169.6,650.0 156.3,650.0 143.1,650.0 129.8,650.0 116.5,650.0 103.3,650.0 90.0,650.0" fill="#F05138" opacity="0.6" class="anim" style="animation-delay:1100ms;"/>
<polygon points="90.0,650.0 103.3,650.0 116.5,650.0 129.8,650.0 143.1,650.0 156.3,650.0 169.6,650.0 182.9,650.0 196.2,414.4 209.4,414.4 222.7,414.3 236.0,413.7 249.2,413.7 262.5,413.7 275.8,412.7 289.0,412.7 302.3,412.7 315.6,412.7 328.8,412.7 342.1,412.7 355.4,412.7 368.7,413.5 381.9,413.4 395.2,413.2 408.5,413.2 421.7,413.2 435.0,413.2 448.3,413.2 461.5,413.1 474.8,413.1 488.1,413.1 501.3,413.1 514.6,413.1 527.9,413.1 541.2,412.2 554.4,412.1 567.7,412.1 581.0,412.1 594.2,412.1 607.5,412.0 620.8,412.0 634.0,412.0 647.3,412.0 660.6,412.0 673.8,412.0 687.1,412.0 700.4,412.0 713.7,412.0 726.9,412.0 740.2,412.0 753.5,412.0 766.7,412.0 780.0,412.0 780.0,412.6 766.7,413.2 753.5,413.9 740.2,413.9 726.9,413.9 713.7,413.9 700.4,413.9 687.1,413.9 673.8,413.9 660.6,413.9 647.3,413.9 634.0,413.9 620.8,413.9 607.5,413.9 594.2,414.2 581.0,414.2 567.7,414.2 554.4,414.2 541.2,414.2 527.9,416.2 514.6,416.2 501.3,416.2 488.1,416.2 474.8,416.2 461.5,416.2 448.3,416.3 435.0,416.3 421.7,416.3 408.5,416.3 395.2,416.3 381.9,416.8 368.7,416.8 355.4,415.2 342.1,415.2 328.8,415.2 315.6,415.2 302.3,415.2 289.0,415.3 275.8,415.3 262.5,417.2 249.2,417.3 236.0,417.3 222.7,418.5 209.4,418.6 196.2,418.7 182.9,650.0 169.6,650.0 156.3,650.0 143.1,650.0 129.8,650.0 116.5,650.0 103.3,650.0 90.0,650.0" fill="#b07219" opacity="0.6" class="anim" style="animation-delay:1200ms;"/>
<line x1="753.5" y1="100" x2="753.5" y2="650" stroke="#c9d1d9" stroke-width="1" stroke-dasharray="4,3" opacity="0.35"/>
<text x="766.7" y="112" text-anchor="middle" class="axis-label" opacity="0.6">Apr 11, 2026</text>
<text x="90.0" y="668" text-anchor="middle" class="axis-label" transform="rotate(-35 90.0 668)">2026-02</text>
<text x="408.5" y="668" text-anchor="middle" class="axis-label" transform="rotate(-35 408.5 668)">2026-03</text>
<text x="766.7" y="668" text-anchor="middle" class="axis-label" transform="rotate(-35 766.7 668)">Apr 11, 2026</text>
<line x1="796" y1="110" x2="824" y2="110" stroke="#3fb950" stroke-width="2"/>
<text x="832" y="116" class="legend-text">Lines Added</text>
<line x1="796" y1="140" x2="824" y2="140" stroke="#f85149" stroke-width="1.5"/>
<text x="832" y="146" class="legend-text">Lines Deleted</text>
<line x1="796" y1="170" x2="824" y2="170" stroke="#e3b341" stroke-width="1.5" stroke-dasharray="4,3"/>
<text x="832" y="176" class="legend-text">&#x2605; Stars</text>
<text x="796" y="200" class="subtitle">Languages</text>
<rect x="796" y="212" width="12" height="12" rx="2" fill="#e34c26" opacity="0.8" class="anim" style="animation-delay:800ms;"/>
<text x="814" y="223" class="legend-text">HTML (59%→57%)</text>
<rect x="796" y="234" width="12" height="12" rx="2" fill="#f1e05a" opacity="0.8" class="anim" style="animation-delay:880ms;"/>
<text x="814" y="245" class="legend-text">JavaScript (22%→30%)</text>
<rect x="796" y="256" width="12" height="12" rx="2" fill="#3572A5" opacity="0.8" class="anim" style="animation-delay:960ms;"/>
<text x="814" y="267" class="legend-text">Python (7%→3%)</text>
<rect x="796" y="278" width="12" height="12" rx="2" fill="#663399" opacity="0.8" class="anim" style="animation-delay:1040ms;"/>
<text x="814" y="289" class="legend-text">CSS (5%→6%)</text>
<rect x="796" y="300" width="12" height="12" rx="2" fill="#083fa1" opacity="0.8" class="anim" style="animation-delay:1120ms;"/>
<text x="814" y="311" class="legend-text">Markdown (2%→2%)</text>
<rect x="796" y="322" width="12" height="12" rx="2" fill="#6E4C13" opacity="0.8" class="anim" style="animation-delay:1200ms;"/>
<text x="814" y="333" class="legend-text">Assembly (2%→1%)</text>
<rect x="796" y="344" width="12" height="12" rx="2" fill="#F05138" opacity="0.8" class="anim" style="animation-delay:1280ms;"/>
<text x="814" y="355" class="legend-text">Swift (2%→0%)</text>
<rect x="796" y="366" width="12" height="12" rx="2" fill="#b07219" opacity="0.8" class="anim" style="animation-delay:1360ms;"/>
<text x="814" y="377" class="legend-text">Java (1%→0%)</text>
<text x="796" y="412" class="subtitle">Contributions</text>
<text x="796" y="432" class="axis-label">2023: 39</text>
<text x="796" y="452" class="axis-label">2024: 646</text>
<text x="796" y="472" class="axis-label">2025: 1,780</text>
<text x="796" y="492" class="axis-label">2026: 400</text>
<text x="796" y="522" class="subtitle">Statistics</text>
<text x="796" y="542" class="axis-label">Active weeks: 80</text>
<text x="796" y="562" class="axis-label">Add/Del ratio: 1.6x</text>
<text x="796" y="582" class="axis-label">Avg lines/wk: 19K</text>
<text x="796" y="602" class="axis-label">Peak: 2026-02-15</text>
<text x="796" y="622" class="axis-label">  (543K lines)</text>
<text x="90" y="742" class="axis-label">Total: +922,799 / -572,795 lines &#xb7; 2,865 contributions &#xb7; 77 repos &#xb7; &#x2605; 35</text>
</svg>