<svg xmlns="http://www.w3.org/2000/svg" width="1000" height="760" style="max-width: 100%;" viewBox="0 0 1000 760">

<defs>
  <linearGradient id="areaGrad" x1="0" y1="0" x2="0" y2="1">
    <stop offset="0%" stop-color="#58a6ff" stop-opacity="0.35"/>
    <stop offset="100%" stop-color="#58a6ff" stop-opacity="0.02"/>
  </linearGradient>
  <linearGradient id="addGrad" x1="0" y1="0" x2="0" y2="1">
    <stop offset="0%" stop-color="#3fb950" stop-opacity="0.35"/>
    <stop offset="100%" stop-color="#3fb950" stop-opacity="0.02"/>
  </linearGradient>
  <linearGradient id="delGrad" x1="0" y1="0" x2="0" y2="1">
    <stop offset="0%" stop-color="#f85149" stop-opacity="0.25"/>
    <stop offset="100%" stop-color="#f85149" stop-opacity="0.02"/>
  </linearGradient>
</defs>
<style>
  .title { font: bold 28px 'Segoe UI', Ubuntu, Sans-Serif; fill: #c9d1d9; }
  .subtitle { font: 600 20px 'Segoe UI', Ubuntu, Sans-Serif; fill: #c9d1d9; opacity: 0.8; }
  .axis-label { font: 18px 'Segoe UI', Ubuntu, Sans-Serif; fill: #c9d1d9; opacity: 0.7; }
  .legend-text { font: 14px 'Segoe UI', Ubuntu, Sans-Serif; fill: #c9d1d9; }
  .value-text { font: bold 18px 'Segoe UI', Ubuntu, Sans-Serif; fill: #c9d1d9; }
  .stat-value { font: bold 22px 'Segoe UI', Ubuntu, Sans-Serif; fill: #c9d1d9; }
  .stat-label { font: 18px 'Segoe UI', Ubuntu, Sans-Serif; fill: #c9d1d9; opacity: 0.7; }
  @keyframes fadeIn { from { opacity: 0; } to { opacity: 1; } }
  .anim { animation: fadeIn 0.6s ease-in-out forwards; opacity: 0; }
</style>

<rect x="0.5" y="0.5" rx="4.5" width="999" height="759" fill="#161b22" stroke="#21262d"/>
<text x="90" y="45" class="title">Activity History</text>
<text x="90" y="72" class="subtitle">Lines added vs deleted &amp; activity trends over time</text>
<line x1="90" y1="340.0" x2="780" y2="340.0" stroke="#21262d" stroke-width="1"/>
<text x="82" y="344.0" text-anchor="end" class="axis-label">0</text>
<line x1="90" y1="280.0" x2="780" y2="280.0" stroke="#21262d" stroke-width="1"/>
<text x="82" y="284.0" text-anchor="end" class="axis-label">462K</text>
<line x1="90" y1="220.0" x2="780" y2="220.0" stroke="#21262d" stroke-width="1"/>
<text x="82" y="224.0" text-anchor="end" class="axis-label">923K</text>
<line x1="90" y1="160.0" x2="780" y2="160.0" stroke="#21262d" stroke-width="1"/>
<text x="82" y="164.0" text-anchor="end" class="axis-label">1.4M</text>
<line x1="90" y1="100.0" x2="780" y2="100.0" stroke="#21262d" stroke-width="1"/>
<text x="82" y="104.0" text-anchor="end" class="axis-label">1.8M</text>
<polygon points="90.0,340.0 90.0,292.6 100.1,294.3 110.3,292.6 120.4,294.3 130.6,305.2 140.7,283.5 150.9,283.5 161.0,275.3 171.2,275.0 181.3,274.4 191.5,274.4 201.6,259.8 211.8,259.8 221.9,259.7 232.1,238.1 242.2,237.8 252.4,237.5 262.5,237.5 272.6,237.5 282.8,237.5 292.9,237.5 303.1,237.0 313.2,222.5 323.4,222.5 333.5,222.5 343.7,222.5 353.8,222.2 364.0,222.2 374.1,221.5 384.3,221.5 394.4,221.5 404.6,221.5 414.7,221.5 424.9,221.5 435.0,221.5 445.1,221.5 455.3,221.5 465.4,221.5 475.6,221.5 485.7,221.5 495.9,221.5 506.0,220.8 516.2,221.1 526.3,220.4 536.5,220.1 546.6,220.1 556.8,220.1 566.9,220.1 577.1,220.1 587.2,220.1 597.4,220.1 607.5,220.1 617.6,220.1 627.8,220.1 637.9,220.4 648.1,221.8 658.2,220.4 668.4,219.2 678.5,219.1 688.7,219.1 698.8,219.1 709.0,219.1 719.1,211.7 729.3,204.9 739.4,204.9 749.6,204.9 759.7,204.9 769.9,197.0 780.0,189.0 780.0,340.0" fill="url(#addGrad)" class="anim" style="animation-delay:200ms;"/>
<polyline points="90.0,292.6 100.1,294.3 110.3,292.6 120.4,294.3 130.6,305.2 140.7,283.5 150.9,283.5 161.0,275.3 171.2,275.0 181.3,274.4 191.5,274.4 201.6,259.8 211.8,259.8 221.9,259.7 232.1,238.1 242.2,237.8 252.4,237.5 262.5,237.5 272.6,237.5 282.8,237.5 292.9,237.5 303.1,237.0 313.2,222.5 323.4,222.5 333.5,222.5 343.7,222.5 353.8,222.2 364.0,222.2 374.1,221.5 384.3,221.5 394.4,221.5 404.6,221.5 414.7,221.5 424.9,221.5 435.0,221.5 445.1,221.5 455.3,221.5 465.4,221.5 475.6,221.5 485.7,221.5 495.9,221.5 506.0,220.8 516.2,221.1 526.3,220.4 536.5,220.1 546.6,220.1 556.8,220.1 566.9,220.1 577.1,220.1 587.2,220.1 597.4,220.1 607.5,220.1 617.6,220.1 627.8,220.1 637.9,220.4 648.1,221.8 658.2,220.4 668.4,219.2 678.5,219.1 688.7,219.1 698.8,219.1 709.0,219.1 719.1,211.7 729.3,204.9 739.4,204.9 749.6,204.9 759.7,204.9" fill="none" stroke="#3fb950" stroke-width="2" stroke-linejoin="round" class="anim" style="animation-delay:250ms;"/>
<polyline points="759.7,204.9 769.9,197.0 780.0,189.0" fill="none" stroke="#3fb950" stroke-width="1.5" stroke-dasharray="5,4" stroke-linejoin="round" opacity="0.6" class="anim" style="animation-delay:250ms;"/>
<polygon points="90.0,340.0 90.0,326.7 100.1,328.0 110.3,326.7 120.4,328.0 130.6,333.7 140.7,325.0 150.9,325.0 161.0,324.1 171.2,323.8 181.3,323.5 191.5,323.5 201.6,307.7 211.8,307.7 221.9,307.7 232.1,289.9 242.2,289.7 252.4,289.7 262.5,289.7 272.6,289.7 282.8,289.7 292.9,289.7 303.1,280.4 313.2,266.2 323.4,266.2 333.5,266.2 343.7,266.2 353.8,266.1 364.0,266.1 374.1,266.0 384.3,266.0 394.4,266.0 404.6,266.0 414.7,266.0 424.9,266.0 435.0,266.0 445.1,266.0 455.3,266.0 465.4,266.0 475.6,266.0 485.7,266.0 495.9,266.0 506.0,266.0 516.2,266.0 526.3,265.6 536.5,265.6 546.6,265.6 556.8,265.6 566.9,265.6 577.1,265.6 587.2,265.6 597.4,265.6 607.5,265.6 617.6,265.6 627.8,265.6 637.9,265.7 648.1,266.5 658.2,265.9 668.4,265.1 678.5,265.1 688.7,265.1 698.8,265.1 709.0,265.1 719.1,265.0 729.3,265.0 739.4,265.0 749.6,265.0 759.7,265.0 769.9,258.0 780.0,251.0 780.0,340.0" fill="url(#delGrad)" class="anim" style="animation-delay:300ms;"/>
<polyline points="90.0,326.7 100.1,328.0 110.3,326.7 120.4,328.0 130.6,333.7 140.7,325.0 150.9,325.0 161.0,324.1 171.2,323.8 181.3,323.5 191.5,323.5 201.6,307.7 211.8,307.7 221.9,307.7 232.1,289.9 242.2,289.7 252.4,289.7 262.5,289.7 272.6,289.7 282.8,289.7 292.9,289.7 303.1,280.4 313.2,266.2 323.4,266.2 333.5,266.2 343.7,266.2 353.8,266.1 364.0,266.1 374.1,266.0 384.3,266.0 394.4,266.0 404.6,266.0 414.7,266.0 424.9,266.0 435.0,266.0 445.1,266.0 455.3,266.0 465.4,266.0 475.6,266.0 485.7,266.0 495.9,266.0 506.0,266.0 516.2,266.0 526.3,265.6 536.5,265.6 546.6,265.6 556.8,265.6 566.9,265.6 577.1,265.6 587.2,265.6 597.4,265.6 607.5,265.6 617.6,265.6 627.8,265.6 637.9,265.7 648.1,266.5 658.2,265.9 668.4,265.1 678.5,265.1 688.7,265.1 698.8,265.1 709.0,265.1 719.1,265.0 729.3,265.0 739.4,265.0 749.6,265.0 759.7,265.0" fill="none" stroke="#f85149" stroke-width="1.5" stroke-linejoin="round" class="anim" style="animation-delay:350ms;"/>
<polyline points="759.7,265.0 769.9,258.0 780.0,251.0" fill="none" stroke="#f85149" stroke-width="1" stroke-dasharray="5,4" stroke-linejoin="round" opacity="0.6" class="anim" style="animation-delay:350ms;"/>
<polyline points="90.0,340.0 100.1,340.0 110.3,340.0 120.4,340.0 130.6,340.0 140.7,340.0 150.9,340.0 161.0,340.0 171.2,308.0 181.3,308.0 191.5,308.0 201.6,308.0 211.8,308.0 221.9,308.0 232.1,308.0 242.2,308.0 252.4,308.0 262.5,308.0 272.6,308.0 282.8,308.0 292.9,308.0 303.1,308.0 313.2,308.0 323.4,308.0 333.5,308.0 343.7,308.0 353.8,308.0 364.0,308.0 374.1,308.0 384.3,308.0 394.4,308.0 404.6,308.0 414.7,308.0 424.9,308.0 435.0,276.0 445.1,276.0 455.3,276.0 465.4,276.0 475.6,276.0 485.7,276.0 495.9,276.0 506.0,276.0 516.2,244.0 526.3,244.0 536.5,244.0 546.6,244.0 556.8,244.0 566.9,244.0 577.1,244.0 587.2,244.0 597.4,244.0 607.5,244.0 617.6,244.0 627.8,244.0 637.9,244.0 648.1,244.0 658.2,244.0 668.4,244.0 678.5,180.0 688.7,180.0 698.8,180.0 709.0,180.0 719.1,180.0 729.3,180.0 739.4,180.0 749.6,180.0 759.7,180.0" fill="none" stroke="#e3b341" stroke-width="1.5" stroke-dasharray="4,3" stroke-linejoin="round" class="anim" style="animation-delay:400ms;"/>
<polyline points="759.7,180.0 769.9,180.0 780.0,148.0" fill="none" stroke="#e3b341" stroke-width="1" stroke-dasharray="3,5" stroke-linejoin="round" opacity="0.5" class="anim" style="animation-delay:400ms;"/>
<text x="90" y="90" class="subtitle">Lines Added vs Deleted (per snapshot)</text>
<text x="90" y="400" class="subtitle">Programming Language Development (%)</text>
<line x1="90" y1="650.0" x2="780" y2="650.0" stroke="#21262d" stroke-width="1"/>
<text x="82" y="654.0" text-anchor="end" class="axis-label">0%</text>
<line x1="90" y1="590.0" x2="780" y2="590.0" stroke="#21262d" stroke-width="1"/>
<text x="82" y="594.0" text-anchor="end" class="axis-label">25%</text>
<line x1="90" y1="530.0" x2="780" y2="530.0" stroke="#21262d" stroke-width="1"/>
<text x="82" y="534.0" text-anchor="end" class="axis-label">50%</text>
<line x1="90" y1="470.0" x2="780" y2="470.0" stroke="#21262d" stroke-width="1"/>
<text x="82" y="474.0" text-anchor="end" class="axis-label">75%</text>
<line x1="90" y1="410.0" x2="780" y2="410.0" stroke="#21262d" stroke-width="1"/>
<text x="82" y="414.0" text-anchor="end" class="axis-label">100%</text>
<polygon points="90.0,650.0 100.1,650.0 110.3,650.0 120.4,650.0 130.6,650.0 140.7,650.0 150.9,650.0 161.0,650.0 171.2,528.2 181.3,528.5 191.5,529.7 201.6,499.3 211.8,499.3 221.9,502.9 232.1,485.0 242.2,485.1 252.4,485.4 262.5,485.4 272.6,485.4 282.8,485.4 292.9,485.4 303.1,496.4 313.2,496.7 323.4,491.0 333.5,491.0 343.7,491.0 353.8,491.7 364.0,491.8 374.1,494.0 384.3,494.0 394.4,494.4 404.6,494.4 414.7,494.4 424.9,494.4 435.0,507.6 445.1,507.6 455.3,507.9 465.4,507.9 475.6,507.9 485.7,506.3 495.9,506.4 506.0,506.8 516.2,506.9 526.3,506.8 536.5,507.5 546.6,507.5 556.8,507.5 566.9,507.5 577.1,507.5 587.2,507.5 597.4,507.5 607.5,507.5 617.6,507.5 627.8,507.5 637.9,507.5 648.1,507.5 658.2,507.5 668.4,508.6 678.5,508.6 688.7,508.6 698.8,508.6 709.0,508.6 719.1,509.5 729.3,509.8 739.4,509.8 749.6,509.8 759.7,509.8 769.9,511.6 780.0,513.5 780.0,650.0 769.9,650.0 759.7,650.0 749.6,650.0 739.4,650.0 729.3,650.0 719.1,650.0 709.0,650.0 698.8,650.0 688.7,650.0 678.5,650.0 668.4,650.0 658.2,650.0 648.1,650.0 637.9,650.0 627.8,650.0 617.6,650.0 607.5,650.0 597.4,650.0 587.2,650.0 577.1,650.0 566.9,650.0 556.8,650.0 546.6,650.0 536.5,650.0 526.3,650.0 516.2,650.0 506.0,650.0 495.9,650.0 485.7,650.0 475.6,650.0 465.4,650.0 455.3,650.0 445.1,650.0 435.0,650.0 424.9,650.0 414.7,650.0 404.6,650.0 394.4,650.0 384.3,650.0 374.1,650.0 364.0,650.0 353.8,650.0 343.7,650.0 333.5,650.0 323.4,650.0 313.2,650.0 303.1,650.0 292.9,650.0 282.8,650.0 272.6,650.0 262.5,650.0 252.4,650.0 242.2,650.0 232.1,650.0 221.9,650.0 211.8,650.0 201.6,650.0 191.5,650.0 181.3,650.0 171.2,650.0 161.0,650.0 150.9,650.0 140.7,650.0 130.6,650.0 120.4,650.0 110.3,650.0 100.1,650.0 90.0,650.0" fill="#e34c26" opacity="0.6" class="anim" style="animation-delay:500ms;"/>
<polygon points="90.0,650.0 100.1,650.0 110.3,650.0 120.4,650.0 130.6,650.0 140.7,650.0 150.9,650.0 161.0,650.0 171.2,488.4 181.3,488.0 191.5,489.0 201.6,476.0 211.8,476.0 221.9,477.2 232.1,460.1 242.2,460.2 252.4,460.6 262.5,460.6 272.6,460.6 282.8,460.6 292.9,460.6 303.1,473.0 313.2,473.5 323.4,469.5 333.5,469.5 343.7,469.5 353.8,469.7 364.0,469.7 374.1,469.7 384.3,469.7 394.4,469.7 404.6,469.7 414.7,469.7 424.9,469.7 435.0,455.6 445.1,455.6 455.3,455.4 465.4,455.4 475.6,455.4 485.7,454.3 495.9,454.3 506.0,455.0 516.2,455.1 526.3,454.9 536.5,455.9 546.6,455.9 556.8,455.9 566.9,455.9 577.1,455.9 587.2,455.9 597.4,455.9 607.5,455.9 617.6,455.9 627.8,455.9 637.9,455.9 648.1,455.9 658.2,455.9 668.4,455.8 678.5,455.8 688.7,455.8 698.8,455.8 709.0,455.8 719.1,457.0 729.3,457.4 739.4,457.4 749.6,457.4 759.7,457.4 769.9,454.8 780.0,452.2 780.0,513.5 769.9,511.6 759.7,509.8 749.6,509.8 739.4,509.8 729.3,509.8 719.1,509.5 709.0,508.6 698.8,508.6 688.7,508.6 678.5,508.6 668.4,508.6 658.2,507.5 648.1,507.5 637.9,507.5 627.8,507.5 617.6,507.5 607.5,507.5 597.4,507.5 587.2,507.5 577.1,507.5 566.9,507.5 556.8,507.5 546.6,507.5 536.5,507.5 526.3,506.8 516.2,506.9 506.0,506.8 495.9,506.4 485.7,506.3 475.6,507.9 465.4,507.9 455.3,507.9 445.1,507.6 435.0,507.6 424.9,494.4 414.7,494.4 404.6,494.4 394.4,494.4 384.3,494.0 374.1,494.0 364.0,491.8 353.8,491.7 343.7,491.0 333.5,491.0 323.4,491.0 313.2,496.7 303.1,496.4 292.9,485.4 282.8,485.4 272.6,485.4 262.5,485.4 252.4,485.4 242.2,485.1 232.1,485.0 221.9,502.9 211.8,499.3 201.6,499.3 191.5,529.7 181.3,528.5 171.2,528.2 161.0,650.0 150.9,650.0 140.7,650.0 130.6,650.0 120.4,650.0 110.3,650.0 100.1,650.0 90.0,650.0" fill="#f1e05a" opacity="0.6" class="anim" style="animation-delay:600ms;"/>
<polygon points="90.0,650.0 100.1,650.0 110.3,650.0 120.4,650.0 130.6,650.0 140.7,650.0 150.9,650.0 161.0,650.0 171.2,455.5 181.3,455.4 191.5,455.1 201.6,447.0 211.8,447.0 221.9,448.2 232.1,438.9 242.2,439.0 252.4,439.6 262.5,439.6 272.6,439.6 282.8,439.6 292.9,439.6 303.1,445.6 313.2,445.6 323.4,443.3 333.5,443.3 343.7,443.3 353.8,443.6 364.0,443.6 374.1,444.1 384.3,444.1 394.4,444.1 404.6,444.1 414.7,444.1 424.9,444.1 435.0,437.5 445.1,437.5 455.3,437.5 465.4,437.5 475.6,437.5 485.7,437.5 495.9,437.5 506.0,438.4 516.2,438.5 526.3,438.3 536.5,439.3 546.6,439.3 556.8,439.3 566.9,439.3 577.1,439.3 587.2,439.3 597.4,439.3 607.5,439.3 617.6,439.3 627.8,439.3 637.9,439.3 648.1,439.3 658.2,439.3 668.4,439.4 678.5,439.4 688.7,439.4 698.8,439.4 709.0,439.4 719.1,440.7 729.3,441.1 739.4,441.1 749.6,441.1 759.7,441.1 769.9,440.4 780.0,439.6 780.0,452.2 769.9,454.8 759.7,457.4 749.6,457.4 739.4,457.4 729.3,457.4 719.1,457.0 709.0,455.8 698.8,455.8 688.7,455.8 678.5,455.8 668.4,455.8 658.2,455.9 648.1,455.9 637.9,455.9 627.8,455.9 617.6,455.9 607.5,455.9 597.4,455.9 587.2,455.9 577.1,455.9 566.9,455.9 556.8,455.9 546.6,455.9 536.5,455.9 526.3,454.9 516.2,455.1 506.0,455.0 495.9,454.3 485.7,454.3 475.6,455.4 465.4,455.4 455.3,455.4 445.1,455.6 435.0,455.6 424.9,469.7 414.7,469.7 404.6,469.7 394.4,469.7 384.3,469.7 374.1,469.7 364.0,469.7 353.8,469.7 343.7,469.5 333.5,469.5 323.4,469.5 313.2,473.5 303.1,473.0 292.9,460.6 282.8,460.6 272.6,460.6 262.5,460.6 252.4,460.6 242.2,460.2 232.1,460.1 221.9,477.2 211.8,476.0 201.6,476.0 191.5,489.0 181.3,488.0 171.2,488.4 161.0,650.0 150.9,650.0 140.7,650.0 130.6,650.0 120.4,650.0 110.3,650.0 100.1,650.0 90.0,650.0" fill="#3572A5" opacity="0.6" class="anim" style="animation-delay:700ms;"/>
<polygon points="90.0,650.0 100.1,650.0 110.3,650.0 120.4,650.0 130.6,650.0 140.7,650.0 150.9,650.0 161.0,650.0 171.2,442.3 181.3,442.0 191.5,441.6 201.6,439.5 211.8,439.5 221.9,439.4 232.1,432.3 242.2,432.2 252.4,432.6 262.5,432.6 272.6,432.6 282.8,432.6 292.9,432.6 303.1,439.3 313.2,439.3 323.4,437.4 333.5,437.4 343.7,437.4 353.8,437.3 364.0,437.3 374.1,437.1 384.3,437.1 394.4,437.1 404.6,437.1 414.7,437.1 424.9,437.1 435.0,428.7 445.1,428.6 455.3,428.5 465.4,428.5 475.6,428.5 485.7,427.3 495.9,427.3 506.0,427.1 516.2,427.1 526.3,427.1 536.5,427.0 546.6,427.0 556.8,427.0 566.9,427.0 577.1,427.0 587.2,427.0 597.4,427.0 607.5,427.0 617.6,427.0 627.8,427.0 637.9,427.0 648.1,427.0 658.2,427.0 668.4,427.0 678.5,427.1 688.7,427.1 698.8,427.1 709.0,427.1 719.1,428.4 729.3,428.9 739.4,428.9 749.6,428.9 759.7,428.9 769.9,427.4 780.0,425.9 780.0,439.6 769.9,440.4 759.7,441.1 749.6,441.1 739.4,441.1 729.3,441.1 719.1,440.7 709.0,439.4 698.8,439.4 688.7,439.4 678.5,439.4 668.4,439.4 658.2,439.3 648.1,439.3 637.9,439.3 627.8,439.3 617.6,439.3 607.5,439.3 597.4,439.3 587.2,439.3 577.1,439.3 566.9,439.3 556.8,439.3 546.6,439.3 536.5,439.3 526.3,438.3 516.2,438.5 506.0,438.4 495.9,437.5 485.7,437.5 475.6,437.5 465.4,437.5 455.3,437.5 445.1,437.5 435.0,437.5 424.9,444.1 414.7,444.1 404.6,444.1 394.4,444.1 384.3,444.1 374.1,444.1 364.0,443.6 353.8,443.6 343.7,443.3 333.5,443.3 323.4,443.3 313.2,445.6 303.1,445.6 292.9,439.6 282.8,439.6 272.6,439.6 262.5,439.6 252.4,439.6 242.2,439.0 232.1,438.9 221.9,448.2 211.8,447.0 201.6,447.0 191.5,455.1 181.3,455.4 171.2,455.5 161.0,650.0 150.9,650.0 140.7,650.0 130.6,650.0 120.4,650.0 110.3,650.0 100.1,650.0 90.0,650.0" fill="#663399" opacity="0.6" class="anim" style="animation-delay:800ms;"/>
<polygon points="90.0,650.0 100.1,650.0 110.3,650.0 120.4,650.0 130.6,650.0 140.7,650.0 150.9,650.0 161.0,650.0 171.2,436.6 181.3,436.3 191.5,435.9 201.6,432.2 211.8,432.2 221.9,432.2 232.1,426.2 242.2,426.1 252.4,426.0 262.5,426.0 272.6,426.0 282.8,426.0 292.9,426.0 303.1,430.8 313.2,430.7 323.4,429.3 333.5,429.3 343.7,429.3 353.8,429.2 364.0,429.2 374.1,428.9 384.3,428.9 394.4,428.8 404.6,428.8 414.7,428.8 424.9,428.8 435.0,423.0 445.1,422.9 455.3,422.9 465.4,422.9 475.6,422.9 485.7,422.0 495.9,422.0 506.0,421.9 516.2,421.9 526.3,421.9 536.5,421.8 546.6,421.8 556.8,421.8 566.9,421.8 577.1,421.8 587.2,421.8 597.4,421.8 607.5,421.8 617.6,421.8 627.8,421.8 637.9,421.8 648.1,421.8 658.2,421.8 668.4,421.7 678.5,421.8 688.7,421.8 698.8,421.8 709.0,421.8 719.1,423.2 729.3,423.6 739.4,423.6 749.6,423.6 759.7,423.6 769.9,422.5 780.0,421.3 780.0,425.9 769.9,427.4 759.7,428.9 749.6,428.9 739.4,428.9 729.3,428.9 719.1,428.4 709.0,427.1 698.8,427.1 688.7,427.1 678.5,427.1 668.4,427.0 658.2,427.0 648.1,427.0 637.9,427.0 627.8,427.0 617.6,427.0 607.5,427.0 597.4,427.0 587.2,427.0 577.1,427.0 566.9,427.0 556.8,427.0 546.6,427.0 536.5,427.0 526.3,427.1 516.2,427.1 506.0,427.1 495.9,427.3 485.7,427.3 475.6,428.5 465.4,428.5 455.3,428.5 445.1,428.6 435.0,428.7 424.9,437.1 414.7,437.1 404.6,437.1 394.4,437.1 384.3,437.1 374.1,437.1 364.0,437.3 353.8,437.3 343.7,437.4 333.5,437.4 323.4,437.4 313.2,439.3 303.1,439.3 292.9,432.6 282.8,432.6 272.6,432.6 262.5,432.6 252.4,432.6 242.2,432.2 232.1,432.3 221.9,439.4 211.8,439.5 201.6,439.5 191.5,441.6 181.3,442.0 171.2,442.3 161.0,650.0 150.9,650.0 140.7,650.0 130.6,650.0 120.4,650.0 110.3,650.0 100.1,650.0 90.0,650.0" fill="#083fa1" opacity="0.6" class="anim" style="animation-delay:900ms;"/>
<polygon points="90.0,650.0 100.1,650.0 110.3,650.0 120.4,650.0 130.6,650.0 140.7,650.0 150.9,650.0 161.0,650.0 171.2,427.0 181.3,426.8 191.5,426.6 201.6,424.2 211.8,424.2 221.9,424.2 232.1,420.4 242.2,420.3 252.4,420.3 262.5,420.3 272.6,420.3 282.8,420.3 292.9,420.3 303.1,423.3 313.2,423.2 323.4,422.4 333.5,422.4 343.7,422.4 353.8,422.3 364.0,422.3 374.1,422.1 384.3,422.1 394.4,422.1 404.6,422.1 414.7,422.1 424.9,422.1 435.0,418.3 445.1,418.3 455.3,418.2 465.4,418.2 475.6,418.2 485.7,417.7 495.9,417.7 506.0,417.6 516.2,417.6 526.3,417.6 536.5,417.6 546.6,417.6 556.8,417.6 566.9,417.6 577.1,417.6 587.2,417.6 597.4,417.6 607.5,417.6 617.6,417.6 627.8,417.6 637.9,417.6 648.1,417.6 658.2,417.6 668.4,417.5 678.5,417.6 688.7,417.6 698.8,417.6 709.0,417.6 719.1,419.0 729.3,419.5 739.4,419.5 749.6,419.5 759.7,419.5 769.9,418.8 780.0,418.2 780.0,421.3 769.9,422.5 759.7,423.6 749.6,423.6 739.4,423.6 729.3,423.6 719.1,423.2 709.0,421.8 698.8,421.8 688.7,421.8 678.5,421.8 668.4,421.7 658.2,421.8 648.1,421.8 637.9,421.8 627.8,421.8 617.6,421.8 607.5,421.8 597.4,421.8 587.2,421.8 577.1,421.8 566.9,421.8 556.8,421.8 546.6,421.8 536.5,421.8 526.3,421.9 516.2,421.9 506.0,421.9 495.9,422.0 485.7,422.0 475.6,422.9 465.4,422.9 455.3,422.9 445.1,422.9 435.0,423.0 424.9,428.8 414.7,428.8 404.6,428.8 394.4,428.8 384.3,428.9 374.1,428.9 364.0,429.2 353.8,429.2 343.7,429.3 333.5,429.3 323.4,429.3 313.2,430.7 303.1,430.8 292.9,426.0 282.8,426.0 272.6,426.0 262.5,426.0 252.4,426.0 242.2,426.1 232.1,426.2 221.9,432.2 211.8,432.2 201.6,432.2 191.5,435.9 181.3,436.3 171.2,436.6 161.0,650.0 150.9,650.0 140.7,650.0 130.6,650.0 120.4,650.0 110.3,650.0 100.1,650.0 90.0,650.0" fill="#6E4C13" opacity="0.6" class="anim" style="animation-delay:1000ms;"/>
<polygon points="90.0,650.0 100.1,650.0 110.3,650.0 120.4,650.0 130.6,650.0 140.7,650.0 150.9,650.0 161.0,650.0 171.2,418.7 181.3,418.6 191.5,418.5 201.6,417.3 211.8,417.3 221.9,417.2 232.1,415.3 242.2,415.3 252.4,415.2 262.5,415.2 272.6,415.2 282.8,415.2 292.9,415.2 303.1,416.8 313.2,416.8 323.4,416.3 333.5,416.3 343.7,416.3 353.8,416.3 364.0,416.3 374.1,416.2 384.3,416.2 394.4,416.2 404.6,416.2 414.7,416.2 424.9,416.2 435.0,414.2 445.1,414.2 455.3,414.2 465.4,414.2 475.6,414.2 485.7,413.9 495.9,413.9 506.0,413.9 516.2,413.9 526.3,413.9 536.5,413.9 546.6,413.9 556.8,413.9 566.9,413.9 577.1,413.9 587.2,413.9 597.4,413.9 607.5,413.9 617.6,413.9 627.8,413.9 637.9,413.9 648.1,413.9 658.2,413.9 668.4,413.8 678.5,413.8 688.7,413.8 698.8,413.8 709.0,413.8 719.1,413.8 729.3,413.8 739.4,413.8 749.6,413.8 759.7,413.8 769.9,413.6 780.0,413.3 780.0,418.2 769.9,418.8 759.7,419.5 749.6,419.5 739.4,419.5 729.3,419.5 719.1,419.0 709.0,417.6 698.8,417.6 688.7,417.6 678.5,417.6 668.4,417.5 658.2,417.6 648.1,417.6 637.9,417.6 627.8,417.6 617.6,417.6 607.5,417.6 597.4,417.6 587.2,417.6 577.1,417.6 566.9,417.6 556.8,417.6 546.6,417.6 536.5,417.6 526.3,417.6 516.2,417.6 506.0,417.6 495.9,417.7 485.7,417.7 475.6,418.2 465.4,418.2 455.3,418.2 445.1,418.3 435.0,418.3 424.9,422.1 414.7,422.1 404.6,422.1 394.4,422.1 384.3,422.1 374.1,422.1 364.0,422.3 353.8,422.3 343.7,422.4 333.5,422.4 323.4,422.4 313.2,423.2 303.1,423.3 292.9,420.3 282.8,420.3 272.6,420.3 262.5,420.3 252.4,420.3 242.2,420.3 232.1,420.4 221.9,424.2 211.8,424.2 201.6,424.2 191.5,426.6 181.3,426.8 171.2,427.0 161.0,650.0 150.9,650.0 140.7,650.0 130.6,650.0 120.4,650.0 110.3,650.0 100.1,650.0 90.0,650.0" fill="#F05138" opacity="0.6" class="anim" style="animation-delay:1100ms;"/>
<polygon points="90.0,650.0 100.1,650.0 110.3,650.0 120.4,650.0 130.6,650.0 140.7,650.0 150.9,650.0 161.0,650.0 171.2,414.4 181.3,414.4 191.5,414.3 201.6,413.7 211.8,413.7 221.9,413.7 232.1,412.7 242.2,412.7 252.4,412.7 262.5,412.7 272.6,412.7 282.8,412.7 292.9,412.7 303.1,413.5 313.2,413.4 323.4,413.2 333.5,413.2 343.7,413.2 353.8,413.2 364.0,413.2 374.1,413.1 384.3,413.1 394.4,413.1 404.6,413.1 414.7,413.1 424.9,413.1 435.0,412.2 445.1,412.1 455.3,412.1 465.4,412.1 475.6,412.1 485.7,412.0 495.9,412.0 506.0,412.0 516.2,412.0 526.3,412.0 536.5,412.0 546.6,412.0 556.8,412.0 566.9,412.0 577.1,412.0 587.2,412.0 597.4,412.0 607.5,412.0 617.6,412.0 627.8,412.0 637.9,412.0 648.1,412.0 658.2,412.0 668.4,411.9 678.5,411.9 688.7,411.9 698.8,411.9 709.0,411.9 719.1,411.9 729.3,411.9 739.4,411.9 749.6,411.9 759.7,411.9 769.9,411.9 780.0,411.9 780.0,413.3 769.9,413.6 759.7,413.8 749.6,413.8 739.4,413.8 729.3,413.8 719.1,413.8 709.0,413.8 698.8,413.8 688.7,413.8 678.5,413.8 668.4,413.8 658.2,413.9 648.1,413.9 637.9,413.9 627.8,413.9 617.6,413.9 607.5,413.9 597.4,413.9 587.2,413.9 577.1,413.9 566.9,413.9 556.8,413.9 546.6,413.9 536.5,413.9 526.3,413.9 516.2,413.9 506.0,413.9 495.9,413.9 485.7,413.9 475.6,414.2 465.4,414.2 455.3,414.2 445.1,414.2 435.0,414.2 424.9,416.2 414.7,416.2 404.6,416.2 394.4,416.2 384.3,416.2 374.1,416.2 364.0,416.3 353.8,416.3 343.7,416.3 333.5,416.3 323.4,416.3 313.2,416.8 303.1,416.8 292.9,415.2 282.8,415.2 272.6,415.2 262.5,415.2 252.4,415.2 242.2,415.3 232.1,415.3 221.9,417.2 211.8,417.3 201.6,417.3 191.5,418.5 181.3,418.6 171.2,418.7 161.0,650.0 150.9,650.0 140.7,650.0 130.6,650.0 120.4,650.0 110.3,650.0 100.1,650.0 90.0,650.0" fill="#b07219" opacity="0.6" class="anim" style="animation-delay:1200ms;"/>
<line x1="759.7" y1="100" x2="759.7" y2="650" stroke="#c9d1d9" stroke-width="1" stroke-dasharray="4,3" opacity="0.35"/>
<text x="769.9" y="112" text-anchor="middle" class="axis-label" opacity="0.6">Jun 28, 2026</text>
<text x="90.0" y="668" text-anchor="middle" class="axis-label" transform="rotate(-35 90.0 668)">2026-02</text>
<text x="374.1" y="668" text-anchor="middle" class="axis-label" transform="rotate(-35 374.1 668)">2026-03</text>
<text x="658.2" y="668" text-anchor="middle" class="axis-label" transform="rotate(-35 658.2 668)">2026-04</text>
<text x="729.3" y="668" text-anchor="middle" class="axis-label" transform="rotate(-35 729.3 668)">2026-06</text>
<line x1="796" y1="110" x2="824" y2="110" stroke="#3fb950" stroke-width="2"/>
<text x="832" y="116" class="legend-text">Lines Added</text>
<line x1="796" y1="140" x2="824" y2="140" stroke="#f85149" stroke-width="1.5"/>
<text x="832" y="146" class="legend-text">Lines Deleted</text>
<line x1="796" y1="170" x2="824" y2="170" stroke="#e3b341" stroke-width="1.5" stroke-dasharray="4,3"/>
<text x="832" y="176" class="legend-text">&#x2605; Stars</text>
<text x="796" y="200" class="subtitle">Languages</text>
<rect x="796" y="212" width="12" height="12" rx="2" fill="#e34c26" opacity="0.8" class="anim" style="animation-delay:800ms;"/>
<text x="814" y="223" class="legend-text">HTML (58%→57%)</text>
<rect x="796" y="234" width="12" height="12" rx="2" fill="#f1e05a" opacity="0.8" class="anim" style="animation-delay:880ms;"/>
<text x="814" y="245" class="legend-text">JavaScript (22%→26%)</text>
<rect x="796" y="256" width="12" height="12" rx="2" fill="#3572A5" opacity="0.8" class="anim" style="animation-delay:960ms;"/>
<text x="814" y="267" class="legend-text">Python (7%→5%)</text>
<rect x="796" y="278" width="12" height="12" rx="2" fill="#663399" opacity="0.8" class="anim" style="animation-delay:1040ms;"/>
<text x="814" y="289" class="legend-text">CSS (5%→6%)</text>
<rect x="796" y="300" width="12" height="12" rx="2" fill="#083fa1" opacity="0.8" class="anim" style="animation-delay:1120ms;"/>
<text x="814" y="311" class="legend-text">Markdown (2%→2%)</text>
<rect x="796" y="322" width="12" height="12" rx="2" fill="#6E4C13" opacity="0.8" class="anim" style="animation-delay:1200ms;"/>
<text x="814" y="333" class="legend-text">Assembly (2%→1%)</text>
<rect x="796" y="344" width="12" height="12" rx="2" fill="#F05138" opacity="0.8" class="anim" style="animation-delay:1280ms;"/>
<text x="814" y="355" class="legend-text">Swift (2%→2%)</text>
<rect x="796" y="366" width="12" height="12" rx="2" fill="#b07219" opacity="0.8" class="anim" style="animation-delay:1360ms;"/>
<text x="814" y="377" class="legend-text">Java (1%→1%)</text>
<text x="796" y="412" class="subtitle">Contributions</text>
<text x="796" y="432" class="axis-label">2023: 39</text>
<text x="796" y="452" class="axis-label">2024: 646</text>
<text x="796" y="472" class="axis-label">2025: 1,780</text>
<text x="796" y="492" class="axis-label">2026: 483</text>
<text x="796" y="522" class="subtitle">Statistics</text>
<text x="796" y="542" class="axis-label">Active weeks: 87</text>
<text x="796" y="562" class="axis-label">Add/Del ratio: 1.8x</text>
<text x="796" y="582" class="axis-label">Avg lines/wk: 19K</text>
<text x="796" y="602" class="axis-label">Peak: 2026-02-15</text>
<text x="796" y="622" class="axis-label">  (543K lines)</text>
<text x="90" y="742" class="axis-label">Total: +1,039,435 / -576,819 lines &#xb7; 2,948 contributions &#xb7; 79 repos &#xb7; &#x2605; 37</text>
</svg>