<svg xmlns="http://www.w3.org/2000/svg" width="1000" height="760" style="max-width: 100%;" viewBox="0 0 1000 760">

<defs>
  <linearGradient id="areaGrad" x1="0" y1="0" x2="0" y2="1">
    <stop offset="0%" stop-color="#58a6ff" stop-opacity="0.35"/>
    <stop offset="100%" stop-color="#58a6ff" stop-opacity="0.02"/>
  </linearGradient>
  <linearGradient id="addGrad" x1="0" y1="0" x2="0" y2="1">
    <stop offset="0%" stop-color="#3fb950" stop-opacity="0.35"/>
    <stop offset="100%" stop-color="#3fb950" stop-opacity="0.02"/>
  </linearGradient>
  <linearGradient id="delGrad" x1="0" y1="0" x2="0" y2="1">
    <stop offset="0%" stop-color="#f85149" stop-opacity="0.25"/>
    <stop offset="100%" stop-color="#f85149" stop-opacity="0.02"/>
  </linearGradient>
</defs>
<style>
  .title { font: bold 28px 'Segoe UI', Ubuntu, Sans-Serif; fill: #c9d1d9; }
  .subtitle { font: 600 20px 'Segoe UI', Ubuntu, Sans-Serif; fill: #c9d1d9; opacity: 0.8; }
  .axis-label { font: 18px 'Segoe UI', Ubuntu, Sans-Serif; fill: #c9d1d9; opacity: 0.7; }
  .legend-text { font: 14px 'Segoe UI', Ubuntu, Sans-Serif; fill: #c9d1d9; }
  .value-text { font: bold 18px 'Segoe UI', Ubuntu, Sans-Serif; fill: #c9d1d9; }
  .stat-value { font: bold 22px 'Segoe UI', Ubuntu, Sans-Serif; fill: #c9d1d9; }
  .stat-label { font: 18px 'Segoe UI', Ubuntu, Sans-Serif; fill: #c9d1d9; opacity: 0.7; }
  @keyframes fadeIn { from { opacity: 0; } to { opacity: 1; } }
  .anim { animation: fadeIn 0.6s ease-in-out forwards; opacity: 0; }
</style>

<rect x="0.5" y="0.5" rx="4.5" width="999" height="759" fill="#161b22" stroke="#21262d"/>
<text x="90" y="45" class="title">Activity History</text>
<text x="90" y="72" class="subtitle">Lines added vs deleted &amp; activity trends over time</text>
<line x1="90" y1="340.0" x2="780" y2="340.0" stroke="#21262d" stroke-width="1"/>
<text x="82" y="344.0" text-anchor="end" class="axis-label">0</text>
<line x1="90" y1="280.0" x2="780" y2="280.0" stroke="#21262d" stroke-width="1"/>
<text x="82" y="284.0" text-anchor="end" class="axis-label">696K</text>
<line x1="90" y1="220.0" x2="780" y2="220.0" stroke="#21262d" stroke-width="1"/>
<text x="82" y="224.0" text-anchor="end" class="axis-label">1.4M</text>
<line x1="90" y1="160.0" x2="780" y2="160.0" stroke="#21262d" stroke-width="1"/>
<text x="82" y="164.0" text-anchor="end" class="axis-label">2.1M</text>
<line x1="90" y1="100.0" x2="780" y2="100.0" stroke="#21262d" stroke-width="1"/>
<text x="82" y="104.0" text-anchor="end" class="axis-label">2.8M</text>
<polygon points="90.0,340.0 90.0,308.5 113.8,309.7 137.6,308.5 161.4,309.7 185.2,316.9 209.0,302.5 232.8,302.5 256.6,297.0 280.3,296.8 304.1,296.5 327.9,296.5 351.7,286.8 375.5,286.8 399.3,286.7 423.1,272.4 446.9,272.2 470.7,272.0 494.5,272.0 518.3,272.0 542.1,272.0 565.9,272.0 589.7,271.6 613.4,262.0 637.2,262.0 661.0,262.0 684.8,262.0 708.6,261.8 732.4,261.8 756.2,231.7 780.0,201.7 780.0,340.0" fill="url(#addGrad)" class="anim" style="animation-delay:200ms;"/>
<polyline points="90.0,308.5 113.8,309.7 137.6,308.5 161.4,309.7 185.2,316.9 209.0,302.5 232.8,302.5 256.6,297.0 280.3,296.8 304.1,296.5 327.9,296.5 351.7,286.8 375.5,286.8 399.3,286.7 423.1,272.4 446.9,272.2 470.7,272.0 494.5,272.0 518.3,272.0 542.1,272.0 565.9,272.0 589.7,271.6 613.4,262.0 637.2,262.0 661.0,262.0 684.8,262.0 708.6,261.8 732.4,261.8" fill="none" stroke="#3fb950" stroke-width="2" stroke-linejoin="round" class="anim" style="animation-delay:250ms;"/>
<polyline points="732.4,261.8 756.2,231.7 780.0,201.7" fill="none" stroke="#3fb950" stroke-width="1.5" stroke-dasharray="5,4" stroke-linejoin="round" opacity="0.6" class="anim" style="animation-delay:250ms;"/>
<polygon points="90.0,340.0 90.0,331.1 113.8,332.1 137.6,331.2 161.4,332.1 185.2,335.8 209.0,330.1 232.8,330.1 256.6,329.4 280.3,329.2 304.1,329.0 327.9,329.0 351.7,318.6 375.5,318.6 399.3,318.6 423.1,306.7 446.9,306.7 470.7,306.6 494.5,306.6 518.3,306.6 542.1,306.6 565.9,306.6 589.7,300.5 613.4,291.0 637.2,291.0 661.0,291.0 684.8,291.0 708.6,290.9 732.4,290.9 756.2,264.6 780.0,238.3 780.0,340.0" fill="url(#delGrad)" class="anim" style="animation-delay:300ms;"/>
<polyline points="90.0,331.1 113.8,332.1 137.6,331.2 161.4,332.1 185.2,335.8 209.0,330.1 232.8,330.1 256.6,329.4 280.3,329.2 304.1,329.0 327.9,329.0 351.7,318.6 375.5,318.6 399.3,318.6 423.1,306.7 446.9,306.7 470.7,306.6 494.5,306.6 518.3,306.6 542.1,306.6 565.9,306.6 589.7,300.5 613.4,291.0 637.2,291.0 661.0,291.0 684.8,291.0 708.6,290.9 732.4,290.9" fill="none" stroke="#f85149" stroke-width="1.5" stroke-linejoin="round" class="anim" style="animation-delay:350ms;"/>
<polyline points="732.4,290.9 756.2,264.6 780.0,238.3" fill="none" stroke="#f85149" stroke-width="1" stroke-dasharray="5,4" stroke-linejoin="round" opacity="0.6" class="anim" style="animation-delay:350ms;"/>
<polyline points="90.0,340.0 113.8,340.0 137.6,340.0 161.4,340.0 185.2,340.0 209.0,340.0 232.8,340.0 256.6,340.0 280.3,244.0 304.1,244.0 327.9,244.0 351.7,244.0 375.5,244.0 399.3,244.0 423.1,244.0 446.9,244.0 470.7,244.0 494.5,244.0 518.3,244.0 542.1,244.0 565.9,244.0 589.7,244.0 613.4,244.0 637.2,244.0 661.0,244.0 684.8,244.0 708.6,244.0 732.4,244.0" fill="none" stroke="#e3b341" stroke-width="1.5" stroke-dasharray="4,3" stroke-linejoin="round" class="anim" style="animation-delay:400ms;"/>
<polyline points="732.4,244.0 756.2,244.0 780.0,148.0" fill="none" stroke="#e3b341" stroke-width="1" stroke-dasharray="3,5" stroke-linejoin="round" opacity="0.5" class="anim" style="animation-delay:400ms;"/>
<text x="90" y="90" class="subtitle">Lines Added vs Deleted (per snapshot)</text>
<text x="90" y="400" class="subtitle">Programming Language Development (%)</text>
<line x1="90" y1="650.0" x2="780" y2="650.0" stroke="#21262d" stroke-width="1"/>
<text x="82" y="654.0" text-anchor="end" class="axis-label">0%</text>
<line x1="90" y1="590.0" x2="780" y2="590.0" stroke="#21262d" stroke-width="1"/>
<text x="82" y="594.0" text-anchor="end" class="axis-label">25%</text>
<line x1="90" y1="530.0" x2="780" y2="530.0" stroke="#21262d" stroke-width="1"/>
<text x="82" y="534.0" text-anchor="end" class="axis-label">50%</text>
<line x1="90" y1="470.0" x2="780" y2="470.0" stroke="#21262d" stroke-width="1"/>
<text x="82" y="474.0" text-anchor="end" class="axis-label">75%</text>
<line x1="90" y1="410.0" x2="780" y2="410.0" stroke="#21262d" stroke-width="1"/>
<text x="82" y="414.0" text-anchor="end" class="axis-label">100%</text>
<polygon points="90.0,650.0 113.8,650.0 137.6,650.0 161.4,650.0 185.2,650.0 209.0,650.0 232.8,650.0 256.6,650.0 280.3,528.2 304.1,528.5 327.9,529.7 351.7,499.3 375.5,499.3 399.3,502.9 423.1,485.0 446.9,485.1 470.7,485.4 494.5,485.4 518.3,485.4 542.1,485.4 565.9,485.4 589.7,496.4 613.4,496.7 637.2,491.0 661.0,491.0 684.8,491.0 708.6,491.7 732.4,491.8 756.2,470.5 780.0,451.6 780.0,650.0 756.2,650.0 732.4,650.0 708.6,650.0 684.8,650.0 661.0,650.0 637.2,650.0 613.4,650.0 589.7,650.0 565.9,650.0 542.1,650.0 518.3,650.0 494.5,650.0 470.7,650.0 446.9,650.0 423.1,650.0 399.3,650.0 375.5,650.0 351.7,650.0 327.9,650.0 304.1,650.0 280.3,650.0 256.6,650.0 232.8,650.0 209.0,650.0 185.2,650.0 161.4,650.0 137.6,650.0 113.8,650.0 90.0,650.0" fill="#e34c26" opacity="0.6" class="anim" style="animation-delay:500ms;"/>
<polygon points="90.0,650.0 113.8,650.0 137.6,650.0 161.4,650.0 185.2,650.0 209.0,650.0 232.8,650.0 256.6,650.0 280.3,488.4 304.1,488.0 327.9,489.0 351.7,476.0 375.5,476.0 399.3,477.2 423.1,460.1 446.9,460.2 470.7,460.6 494.5,460.6 518.3,460.6 542.1,460.6 565.9,460.6 589.7,473.0 613.4,473.5 637.2,469.5 661.0,469.5 684.8,469.5 708.6,469.7 732.4,469.7 756.2,459.1 780.0,450.9 780.0,451.6 756.2,470.5 732.4,491.8 708.6,491.7 684.8,491.0 661.0,491.0 637.2,491.0 613.4,496.7 589.7,496.4 565.9,485.4 542.1,485.4 518.3,485.4 494.5,485.4 470.7,485.4 446.9,485.1 423.1,485.0 399.3,502.9 375.5,499.3 351.7,499.3 327.9,529.7 304.1,528.5 280.3,528.2 256.6,650.0 232.8,650.0 209.0,650.0 185.2,650.0 161.4,650.0 137.6,650.0 113.8,650.0 90.0,650.0" fill="#f1e05a" opacity="0.6" class="anim" style="animation-delay:600ms;"/>
<polygon points="90.0,650.0 113.8,650.0 137.6,650.0 161.4,650.0 185.2,650.0 209.0,650.0 232.8,650.0 256.6,650.0 280.3,455.5 304.1,455.4 327.9,455.1 351.7,447.0 375.5,447.0 399.3,448.2 423.1,438.9 446.9,439.0 470.7,439.6 494.5,439.6 518.3,439.6 542.1,439.6 565.9,439.6 589.7,445.6 613.4,445.6 637.2,443.3 661.0,443.3 684.8,443.3 708.6,443.6 732.4,443.6 756.2,437.3 780.0,433.3 780.0,450.9 756.2,459.1 732.4,469.7 708.6,469.7 684.8,469.5 661.0,469.5 637.2,469.5 613.4,473.5 589.7,473.0 565.9,460.6 542.1,460.6 518.3,460.6 494.5,460.6 470.7,460.6 446.9,460.2 423.1,460.1 399.3,477.2 375.5,476.0 351.7,476.0 327.9,489.0 304.1,488.0 280.3,488.4 256.6,650.0 232.8,650.0 209.0,650.0 185.2,650.0 161.4,650.0 137.6,650.0 113.8,650.0 90.0,650.0" fill="#3572A5" opacity="0.6" class="anim" style="animation-delay:700ms;"/>
<polygon points="90.0,650.0 113.8,650.0 137.6,650.0 161.4,650.0 185.2,650.0 209.0,650.0 232.8,650.0 256.6,650.0 280.3,442.3 304.1,442.0 327.9,441.6 351.7,439.5 375.5,439.5 399.3,439.4 423.1,432.3 446.9,432.2 470.7,432.6 494.5,432.6 518.3,432.6 542.1,432.6 565.9,432.6 589.7,439.3 613.4,439.3 637.2,437.4 661.0,437.4 684.8,437.4 708.6,437.3 732.4,437.3 756.2,435.4 780.0,433.3 780.0,433.3 756.2,437.3 732.4,443.6 708.6,443.6 684.8,443.3 661.0,443.3 637.2,443.3 613.4,445.6 589.7,445.6 565.9,439.6 542.1,439.6 518.3,439.6 494.5,439.6 470.7,439.6 446.9,439.0 423.1,438.9 399.3,448.2 375.5,447.0 351.7,447.0 327.9,455.1 304.1,455.4 280.3,455.5 256.6,650.0 232.8,650.0 209.0,650.0 185.2,650.0 161.4,650.0 137.6,650.0 113.8,650.0 90.0,650.0" fill="#663399" opacity="0.6" class="anim" style="animation-delay:800ms;"/>
<polygon points="90.0,650.0 113.8,650.0 137.6,650.0 161.4,650.0 185.2,650.0 209.0,650.0 232.8,650.0 256.6,650.0 280.3,436.6 304.1,436.3 327.9,435.9 351.7,432.2 375.5,432.2 399.3,432.2 423.1,426.2 446.9,426.1 470.7,426.0 494.5,426.0 518.3,426.0 542.1,426.0 565.9,426.0 589.7,430.8 613.4,430.7 637.2,429.3 661.0,429.3 684.8,429.3 708.6,429.2 732.4,429.2 756.2,425.6 780.0,421.8 780.0,433.3 756.2,435.4 732.4,437.3 708.6,437.3 684.8,437.4 661.0,437.4 637.2,437.4 613.4,439.3 589.7,439.3 565.9,432.6 542.1,432.6 518.3,432.6 494.5,432.6 470.7,432.6 446.9,432.2 423.1,432.3 399.3,439.4 375.5,439.5 351.7,439.5 327.9,441.6 304.1,442.0 280.3,442.3 256.6,650.0 232.8,650.0 209.0,650.0 185.2,650.0 161.4,650.0 137.6,650.0 113.8,650.0 90.0,650.0" fill="#083fa1" opacity="0.6" class="anim" style="animation-delay:900ms;"/>
<polygon points="90.0,650.0 113.8,650.0 137.6,650.0 161.4,650.0 185.2,650.0 209.0,650.0 232.8,650.0 256.6,650.0 280.3,427.0 304.1,426.8 327.9,426.6 351.7,424.2 375.5,424.2 399.3,424.2 423.1,420.4 446.9,420.3 470.7,420.3 494.5,420.3 518.3,420.3 542.1,420.3 565.9,420.3 589.7,423.3 613.4,423.2 637.2,422.4 661.0,422.4 684.8,422.4 708.6,422.3 732.4,422.3 756.2,420.2 780.0,418.1 780.0,421.8 756.2,425.6 732.4,429.2 708.6,429.2 684.8,429.3 661.0,429.3 637.2,429.3 613.4,430.7 589.7,430.8 565.9,426.0 542.1,426.0 518.3,426.0 494.5,426.0 470.7,426.0 446.9,426.1 423.1,426.2 399.3,432.2 375.5,432.2 351.7,432.2 327.9,435.9 304.1,436.3 280.3,436.6 256.6,650.0 232.8,650.0 209.0,650.0 185.2,650.0 161.4,650.0 137.6,650.0 113.8,650.0 90.0,650.0" fill="#6E4C13" opacity="0.6" class="anim" style="animation-delay:1000ms;"/>
<polygon points="90.0,650.0 113.8,650.0 137.6,650.0 161.4,650.0 185.2,650.0 209.0,650.0 232.8,650.0 256.6,650.0 280.3,418.7 304.1,418.6 327.9,418.5 351.7,417.3 375.5,417.3 399.3,417.2 423.1,415.3 446.9,415.3 470.7,415.2 494.5,415.2 518.3,415.2 542.1,415.2 565.9,415.2 589.7,416.8 613.4,416.8 637.2,416.3 661.0,416.3 684.8,416.3 708.6,416.3 732.4,416.3 756.2,415.6 780.0,414.9 780.0,418.1 756.2,420.2 732.4,422.3 708.6,422.3 684.8,422.4 661.0,422.4 637.2,422.4 613.4,423.2 589.7,423.3 565.9,420.3 542.1,420.3 518.3,420.3 494.5,420.3 470.7,420.3 446.9,420.3 423.1,420.4 399.3,424.2 375.5,424.2 351.7,424.2 327.9,426.6 304.1,426.8 280.3,427.0 256.6,650.0 232.8,650.0 209.0,650.0 185.2,650.0 161.4,650.0 137.6,650.0 113.8,650.0 90.0,650.0" fill="#F05138" opacity="0.6" class="anim" style="animation-delay:1100ms;"/>
<polygon points="90.0,650.0 113.8,650.0 137.6,650.0 161.4,650.0 185.2,650.0 209.0,650.0 232.8,650.0 256.6,650.0 280.3,414.4 304.1,414.4 327.9,414.3 351.7,413.7 375.5,413.7 399.3,413.7 423.1,412.7 446.9,412.7 470.7,412.7 494.5,412.7 518.3,412.7 542.1,412.7 565.9,412.7 589.7,413.5 613.4,413.4 637.2,413.2 661.0,413.2 684.8,413.2 708.6,413.2 732.4,413.2 756.2,413.2 780.0,413.2 780.0,414.9 756.2,415.6 732.4,416.3 708.6,416.3 684.8,416.3 661.0,416.3 637.2,416.3 613.4,416.8 589.7,416.8 565.9,415.2 542.1,415.2 518.3,415.2 494.5,415.2 470.7,415.2 446.9,415.3 423.1,415.3 399.3,417.2 375.5,417.3 351.7,417.3 327.9,418.5 304.1,418.6 280.3,418.7 256.6,650.0 232.8,650.0 209.0,650.0 185.2,650.0 161.4,650.0 137.6,650.0 113.8,650.0 90.0,650.0" fill="#b07219" opacity="0.6" class="anim" style="animation-delay:1200ms;"/>
<line x1="732.4" y1="100" x2="732.4" y2="650" stroke="#c9d1d9" stroke-width="1" stroke-dasharray="4,3" opacity="0.35"/>
<text x="756.2" y="112" text-anchor="middle" class="axis-label" opacity="0.6">Mar 19, 2026</text>
<text x="90.0" y="668" text-anchor="middle" class="axis-label" transform="rotate(-35 90.0 668)">2026-02</text>
<text x="661.0" y="668" text-anchor="middle" class="axis-label" transform="rotate(-35 661.0 668)">2026-03</text>
<text x="756.2" y="668" text-anchor="middle" class="axis-label" transform="rotate(-35 756.2 668)">Mar 19, 2026</text>
<line x1="796" y1="110" x2="824" y2="110" stroke="#3fb950" stroke-width="2"/>
<text x="832" y="116" class="legend-text">Lines Added</text>
<line x1="796" y1="140" x2="824" y2="140" stroke="#f85149" stroke-width="1.5"/>
<text x="832" y="146" class="legend-text">Lines Deleted</text>
<line x1="796" y1="170" x2="824" y2="170" stroke="#e3b341" stroke-width="1.5" stroke-dasharray="4,3"/>
<text x="832" y="176" class="legend-text">&#x2605; Stars</text>
<text x="796" y="200" class="subtitle">Languages</text>
<rect x="796" y="212" width="12" height="12" rx="2" fill="#e34c26" opacity="0.8" class="anim" style="animation-delay:800ms;"/>
<text x="814" y="223" class="legend-text">HTML (66%→83%)</text>
<rect x="796" y="234" width="12" height="12" rx="2" fill="#f1e05a" opacity="0.8" class="anim" style="animation-delay:880ms;"/>
<text x="814" y="245" class="legend-text">JavaScript (9%→0%)</text>
<rect x="796" y="256" width="12" height="12" rx="2" fill="#3572A5" opacity="0.8" class="anim" style="animation-delay:960ms;"/>
<text x="814" y="267" class="legend-text">Python (11%→7%)</text>
<rect x="796" y="278" width="12" height="12" rx="2" fill="#663399" opacity="0.8" class="anim" style="animation-delay:1040ms;"/>
<text x="814" y="289" class="legend-text">CSS (3%→0%)</text>
<rect x="796" y="300" width="12" height="12" rx="2" fill="#083fa1" opacity="0.8" class="anim" style="animation-delay:1120ms;"/>
<text x="814" y="311" class="legend-text">Markdown (3%→5%)</text>
<rect x="796" y="322" width="12" height="12" rx="2" fill="#6E4C13" opacity="0.8" class="anim" style="animation-delay:1200ms;"/>
<text x="814" y="333" class="legend-text">Assembly (3%→2%)</text>
<rect x="796" y="344" width="12" height="12" rx="2" fill="#F05138" opacity="0.8" class="anim" style="animation-delay:1280ms;"/>
<text x="814" y="355" class="legend-text">Swift (3%→1%)</text>
<rect x="796" y="366" width="12" height="12" rx="2" fill="#b07219" opacity="0.8" class="anim" style="animation-delay:1360ms;"/>
<text x="814" y="377" class="legend-text">Java (1%→1%)</text>
<text x="796" y="412" class="subtitle">Contributions</text>
<text x="796" y="432" class="axis-label">2023: 39</text>
<text x="796" y="452" class="axis-label">2024: 646</text>
<text x="796" y="472" class="axis-label">2025: 1,780</text>
<text x="796" y="492" class="axis-label">2026: 334</text>
<text x="796" y="522" class="subtitle">Statistics</text>
<text x="796" y="542" class="axis-label">Active weeks: 77</text>
<text x="796" y="562" class="axis-label">Add/Del ratio: 1.6x</text>
<text x="796" y="582" class="axis-label">Avg lines/wk: 19K</text>
<text x="796" y="602" class="axis-label">Peak: 2026-02-15</text>
<text x="796" y="622" class="axis-label">  (543K lines)</text>
<text x="90" y="742" class="axis-label">Total: +906,690 / -568,631 lines &#xb7; 2,799 contributions &#xb7; 72 repos &#xb7; &#x2605; 33</text>
</svg>