<svg xmlns="http://www.w3.org/2000/svg" width="1000" height="760" style="max-width: 100%;" viewBox="0 0 1000 760">

<defs>
  <linearGradient id="areaGrad" x1="0" y1="0" x2="0" y2="1">
    <stop offset="0%" stop-color="#58a6ff" stop-opacity="0.35"/>
    <stop offset="100%" stop-color="#58a6ff" stop-opacity="0.02"/>
  </linearGradient>
  <linearGradient id="addGrad" x1="0" y1="0" x2="0" y2="1">
    <stop offset="0%" stop-color="#3fb950" stop-opacity="0.35"/>
    <stop offset="100%" stop-color="#3fb950" stop-opacity="0.02"/>
  </linearGradient>
  <linearGradient id="delGrad" x1="0" y1="0" x2="0" y2="1">
    <stop offset="0%" stop-color="#f85149" stop-opacity="0.25"/>
    <stop offset="100%" stop-color="#f85149" stop-opacity="0.02"/>
  </linearGradient>
</defs>
<style>
  .title { font: bold 28px 'Segoe UI', Ubuntu, Sans-Serif; fill: #c9d1d9; }
  .subtitle { font: 600 20px 'Segoe UI', Ubuntu, Sans-Serif; fill: #c9d1d9; opacity: 0.8; }
  .axis-label { font: 18px 'Segoe UI', Ubuntu, Sans-Serif; fill: #c9d1d9; opacity: 0.7; }
  .legend-text { font: 14px 'Segoe UI', Ubuntu, Sans-Serif; fill: #c9d1d9; }
  .value-text { font: bold 18px 'Segoe UI', Ubuntu, Sans-Serif; fill: #c9d1d9; }
  .stat-value { font: bold 22px 'Segoe UI', Ubuntu, Sans-Serif; fill: #c9d1d9; }
  .stat-label { font: 18px 'Segoe UI', Ubuntu, Sans-Serif; fill: #c9d1d9; opacity: 0.7; }
  @keyframes fadeIn { from { opacity: 0; } to { opacity: 1; } }
  .anim { animation: fadeIn 0.6s ease-in-out forwards; opacity: 0; }
</style>

<rect x="0.5" y="0.5" rx="4.5" width="999" height="759" fill="#161b22" stroke="#21262d"/>
<text x="90" y="45" class="title">Activity History</text>
<text x="90" y="72" class="subtitle">Lines added vs deleted &amp; activity trends over time</text>
<line x1="90" y1="340.0" x2="780" y2="340.0" stroke="#21262d" stroke-width="1"/>
<text x="82" y="344.0" text-anchor="end" class="axis-label">0</text>
<line x1="90" y1="280.0" x2="780" y2="280.0" stroke="#21262d" stroke-width="1"/>
<text x="82" y="284.0" text-anchor="end" class="axis-label">452K</text>
<line x1="90" y1="220.0" x2="780" y2="220.0" stroke="#21262d" stroke-width="1"/>
<text x="82" y="224.0" text-anchor="end" class="axis-label">904K</text>
<line x1="90" y1="160.0" x2="780" y2="160.0" stroke="#21262d" stroke-width="1"/>
<text x="82" y="164.0" text-anchor="end" class="axis-label">1.4M</text>
<line x1="90" y1="100.0" x2="780" y2="100.0" stroke="#21262d" stroke-width="1"/>
<text x="82" y="104.0" text-anchor="end" class="axis-label">1.8M</text>
<polygon points="90.0,340.0 90.0,291.5 97.0,293.3 104.1,291.6 111.1,293.3 118.2,304.5 125.2,282.3 132.2,282.3 139.3,273.9 146.3,273.6 153.4,273.0 160.4,273.0 167.4,258.1 174.5,258.1 181.5,258.0 188.6,235.9 195.6,235.6 202.7,235.4 209.7,235.4 216.7,235.4 223.8,235.4 230.8,235.4 237.9,234.8 244.9,220.0 251.9,220.0 259.0,220.0 266.0,220.0 273.1,219.6 280.1,219.6 287.1,219.0 294.2,219.0 301.2,218.9 308.3,218.9 315.3,218.9 322.3,218.9 329.4,219.0 336.4,218.9 343.5,218.9 350.5,218.9 357.6,218.9 364.6,218.9 371.6,218.9 378.7,218.3 385.7,218.6 392.8,217.9 399.8,217.6 406.8,217.6 413.9,217.6 420.9,217.6 428.0,217.6 435.0,217.6 442.0,217.5 449.1,217.5 456.1,217.5 463.2,217.6 470.2,217.9 477.2,219.3 484.3,217.9 491.3,216.6 498.4,216.5 505.4,216.5 512.4,216.5 519.5,216.5 526.5,208.9 533.6,202.0 540.6,202.0 547.7,202.0 554.7,202.0 561.7,202.0 568.8,202.0 575.8,202.0 582.9,202.0 589.9,201.9 596.9,201.9 604.0,201.9 611.0,201.9 618.1,201.9 625.1,201.9 632.1,201.9 639.2,201.9 646.2,201.9 653.3,201.9 660.3,201.9 667.3,201.9 674.4,201.9 681.4,201.9 688.5,201.9 695.5,201.9 702.6,201.9 709.6,201.9 716.6,201.9 723.7,201.9 730.7,201.9 737.8,201.9 744.8,201.9 751.8,201.9 758.9,201.9 765.9,201.9 773.0,194.4 780.0,187.0 780.0,340.0" fill="url(#addGrad)" class="anim" style="animation-delay:200ms;"/>
<polyline points="90.0,291.5 97.0,293.3 104.1,291.6 111.1,293.3 118.2,304.5 125.2,282.3 132.2,282.3 139.3,273.9 146.3,273.6 153.4,273.0 160.4,273.0 167.4,258.1 174.5,258.1 181.5,258.0 188.6,235.9 195.6,235.6 202.7,235.4 209.7,235.4 216.7,235.4 223.8,235.4 230.8,235.4 237.9,234.8 244.9,220.0 251.9,220.0 259.0,220.0 266.0,220.0 273.1,219.6 280.1,219.6 287.1,219.0 294.2,219.0 301.2,218.9 308.3,218.9 315.3,218.9 322.3,218.9 329.4,219.0 336.4,218.9 343.5,218.9 350.5,218.9 357.6,218.9 364.6,218.9 371.6,218.9 378.7,218.3 385.7,218.6 392.8,217.9 399.8,217.6 406.8,217.6 413.9,217.6 420.9,217.6 428.0,217.6 435.0,217.6 442.0,217.5 449.1,217.5 456.1,217.5 463.2,217.6 470.2,217.9 477.2,219.3 484.3,217.9 491.3,216.6 498.4,216.5 505.4,216.5 512.4,216.5 519.5,216.5 526.5,208.9 533.6,202.0 540.6,202.0 547.7,202.0 554.7,202.0 561.7,202.0 568.8,202.0 575.8,202.0 582.9,202.0 589.9,201.9 596.9,201.9 604.0,201.9 611.0,201.9 618.1,201.9 625.1,201.9 632.1,201.9 639.2,201.9 646.2,201.9 653.3,201.9 660.3,201.9 667.3,201.9 674.4,201.9 681.4,201.9 688.5,201.9 695.5,201.9 702.6,201.9 709.6,201.9 716.6,201.9 723.7,201.9 730.7,201.9 737.8,201.9 744.8,201.9 751.8,201.9 758.9,201.9 765.9,201.9" fill="none" stroke="#3fb950" stroke-width="2" stroke-linejoin="round" class="anim" style="animation-delay:250ms;"/>
<polyline points="765.9,201.9 773.0,194.4 780.0,187.0" fill="none" stroke="#3fb950" stroke-width="1.5" stroke-dasharray="5,4" stroke-linejoin="round" opacity="0.6" class="anim" style="animation-delay:250ms;"/>
<polygon points="90.0,340.0 90.0,326.4 97.0,327.8 104.1,326.4 111.1,327.8 118.2,333.6 125.2,324.7 132.2,324.7 139.3,323.7 146.3,323.4 153.4,323.1 160.4,323.1 167.4,307.0 174.5,307.0 181.5,307.0 188.6,288.8 195.6,288.7 202.7,288.7 209.7,288.7 216.7,288.7 223.8,288.7 230.8,288.7 237.9,279.2 244.9,264.6 251.9,264.6 259.0,264.6 266.0,264.6 273.1,264.5 280.1,264.5 287.1,264.5 294.2,264.4 301.2,264.4 308.3,264.4 315.3,264.4 322.3,264.4 329.4,264.4 336.4,264.4 343.5,264.4 350.5,264.4 357.6,264.4 364.6,264.4 371.6,264.4 378.7,264.4 385.7,264.5 392.8,264.0 399.8,264.0 406.8,264.0 413.9,264.0 420.9,264.0 428.0,264.0 435.0,264.0 442.0,264.0 449.1,264.0 456.1,264.0 463.2,264.0 470.2,264.1 477.2,264.9 484.3,264.4 491.3,263.5 498.4,263.5 505.4,263.5 512.4,263.5 519.5,263.5 526.5,263.4 533.6,263.4 540.6,263.4 547.7,263.4 554.7,263.4 561.7,263.4 568.8,263.4 575.8,263.4 582.9,263.4 589.9,263.4 596.9,263.4 604.0,263.4 611.0,263.4 618.1,263.4 625.1,263.4 632.1,263.4 639.2,263.4 646.2,263.4 653.3,263.4 660.3,263.4 667.3,263.4 674.4,263.4 681.4,263.4 688.5,263.4 695.5,263.4 702.6,263.4 709.6,263.4 716.6,263.4 723.7,263.4 730.7,263.4 737.8,263.4 744.8,263.4 751.8,263.4 758.9,263.4 765.9,263.4 773.0,258.2 780.0,253.0 780.0,340.0" fill="url(#delGrad)" class="anim" style="animation-delay:300ms;"/>
<polyline points="90.0,326.4 97.0,327.8 104.1,326.4 111.1,327.8 118.2,333.6 125.2,324.7 132.2,324.7 139.3,323.7 146.3,323.4 153.4,323.1 160.4,323.1 167.4,307.0 174.5,307.0 181.5,307.0 188.6,288.8 195.6,288.7 202.7,288.7 209.7,288.7 216.7,288.7 223.8,288.7 230.8,288.7 237.9,279.2 244.9,264.6 251.9,264.6 259.0,264.6 266.0,264.6 273.1,264.5 280.1,264.5 287.1,264.5 294.2,264.4 301.2,264.4 308.3,264.4 315.3,264.4 322.3,264.4 329.4,264.4 336.4,264.4 343.5,264.4 350.5,264.4 357.6,264.4 364.6,264.4 371.6,264.4 378.7,264.4 385.7,264.5 392.8,264.0 399.8,264.0 406.8,264.0 413.9,264.0 420.9,264.0 428.0,264.0 435.0,264.0 442.0,264.0 449.1,264.0 456.1,264.0 463.2,264.0 470.2,264.1 477.2,264.9 484.3,264.4 491.3,263.5 498.4,263.5 505.4,263.5 512.4,263.5 519.5,263.5 526.5,263.4 533.6,263.4 540.6,263.4 547.7,263.4 554.7,263.4 561.7,263.4 568.8,263.4 575.8,263.4 582.9,263.4 589.9,263.4 596.9,263.4 604.0,263.4 611.0,263.4 618.1,263.4 625.1,263.4 632.1,263.4 639.2,263.4 646.2,263.4 653.3,263.4 660.3,263.4 667.3,263.4 674.4,263.4 681.4,263.4 688.5,263.4 695.5,263.4 702.6,263.4 709.6,263.4 716.6,263.4 723.7,263.4 730.7,263.4 737.8,263.4 744.8,263.4 751.8,263.4 758.9,263.4 765.9,263.4" fill="none" stroke="#f85149" stroke-width="1.5" stroke-linejoin="round" class="anim" style="animation-delay:350ms;"/>
<polyline points="765.9,263.4 773.0,258.2 780.0,253.0" fill="none" stroke="#f85149" stroke-width="1" stroke-dasharray="5,4" stroke-linejoin="round" opacity="0.6" class="anim" style="animation-delay:350ms;"/>
<polyline points="90.0,340.0 97.0,340.0 104.1,340.0 111.1,340.0 118.2,340.0 125.2,340.0 132.2,340.0 139.3,340.0 146.3,308.0 153.4,308.0 160.4,308.0 167.4,308.0 174.5,308.0 181.5,308.0 188.6,308.0 195.6,308.0 202.7,308.0 209.7,308.0 216.7,308.0 223.8,308.0 230.8,308.0 237.9,308.0 244.9,308.0 251.9,308.0 259.0,308.0 266.0,308.0 273.1,308.0 280.1,308.0 287.1,308.0 294.2,308.0 301.2,308.0 308.3,308.0 315.3,308.0 322.3,308.0 329.4,276.0 336.4,276.0 343.5,276.0 350.5,276.0 357.6,276.0 364.6,276.0 371.6,276.0 378.7,276.0 385.7,244.0 392.8,244.0 399.8,244.0 406.8,244.0 413.9,244.0 420.9,244.0 428.0,244.0 435.0,244.0 442.0,244.0 449.1,244.0 456.1,244.0 463.2,244.0 470.2,244.0 477.2,244.0 484.3,244.0 491.3,244.0 498.4,180.0 505.4,180.0 512.4,180.0 519.5,180.0 526.5,180.0 533.6,180.0 540.6,180.0 547.7,180.0 554.7,180.0 561.7,180.0 568.8,180.0 575.8,180.0 582.9,180.0 589.9,180.0 596.9,180.0 604.0,180.0 611.0,180.0 618.1,180.0 625.1,180.0 632.1,180.0 639.2,180.0 646.2,180.0 653.3,180.0 660.3,180.0 667.3,180.0 674.4,180.0 681.4,180.0 688.5,180.0 695.5,180.0 702.6,180.0 709.6,180.0 716.6,180.0 723.7,180.0 730.7,180.0 737.8,180.0 744.8,180.0 751.8,180.0 758.9,180.0 765.9,180.0" fill="none" stroke="#e3b341" stroke-width="1.5" stroke-dasharray="4,3" stroke-linejoin="round" class="anim" style="animation-delay:400ms;"/>
<polyline points="765.9,180.0 773.0,180.0 780.0,148.0" fill="none" stroke="#e3b341" stroke-width="1" stroke-dasharray="3,5" stroke-linejoin="round" opacity="0.5" class="anim" style="animation-delay:400ms;"/>
<text x="90" y="90" class="subtitle">Lines Added vs Deleted (per snapshot)</text>
<text x="90" y="400" class="subtitle">Programming Language Development (%)</text>
<line x1="90" y1="650.0" x2="780" y2="650.0" stroke="#21262d" stroke-width="1"/>
<text x="82" y="654.0" text-anchor="end" class="axis-label">0%</text>
<line x1="90" y1="590.0" x2="780" y2="590.0" stroke="#21262d" stroke-width="1"/>
<text x="82" y="594.0" text-anchor="end" class="axis-label">25%</text>
<line x1="90" y1="530.0" x2="780" y2="530.0" stroke="#21262d" stroke-width="1"/>
<text x="82" y="534.0" text-anchor="end" class="axis-label">50%</text>
<line x1="90" y1="470.0" x2="780" y2="470.0" stroke="#21262d" stroke-width="1"/>
<text x="82" y="474.0" text-anchor="end" class="axis-label">75%</text>
<line x1="90" y1="410.0" x2="780" y2="410.0" stroke="#21262d" stroke-width="1"/>
<text x="82" y="414.0" text-anchor="end" class="axis-label">100%</text>
<polygon points="90.0,650.0 97.0,650.0 104.1,650.0 111.1,650.0 118.2,650.0 125.2,650.0 132.2,650.0 139.3,650.0 146.3,528.2 153.4,528.5 160.4,529.7 167.4,499.3 174.5,499.3 181.5,502.9 188.6,485.0 195.6,485.1 202.7,485.4 209.7,485.4 216.7,485.4 223.8,485.4 230.8,485.4 237.9,496.4 244.9,496.7 251.9,491.0 259.0,491.0 266.0,491.0 273.1,491.7 280.1,491.8 287.1,494.0 294.2,494.0 301.2,494.4 308.3,494.4 315.3,494.4 322.3,494.4 329.4,507.6 336.4,507.6 343.5,507.9 350.5,507.9 357.6,507.9 364.6,506.3 371.6,506.4 378.7,506.8 385.7,506.9 392.8,506.8 399.8,507.5 406.8,507.5 413.9,507.5 420.9,507.5 428.0,507.5 435.0,507.5 442.0,507.5 449.1,507.5 456.1,507.5 463.2,507.5 470.2,507.5 477.2,507.5 484.3,507.5 491.3,508.6 498.4,508.6 505.4,508.6 512.4,508.6 519.5,508.6 526.5,509.5 533.6,509.8 540.6,509.8 547.7,509.8 554.7,509.8 561.7,509.8 568.8,509.8 575.8,509.8 582.9,509.8 589.9,510.9 596.9,510.9 604.0,510.9 611.0,510.9 618.1,510.9 625.1,510.9 632.1,510.9 639.2,510.9 646.2,510.9 653.3,510.9 660.3,510.9 667.3,510.9 674.4,510.9 681.4,510.9 688.5,510.9 695.5,510.9 702.6,510.9 709.6,510.9 716.6,510.9 723.7,510.9 730.7,510.9 737.8,510.9 744.8,510.9 751.8,510.9 758.9,510.9 765.9,510.9 773.0,512.9 780.0,514.9 780.0,650.0 773.0,650.0 765.9,650.0 758.9,650.0 751.8,650.0 744.8,650.0 737.8,650.0 730.7,650.0 723.7,650.0 716.6,650.0 709.6,650.0 702.6,650.0 695.5,650.0 688.5,650.0 681.4,650.0 674.4,650.0 667.3,650.0 660.3,650.0 653.3,650.0 646.2,650.0 639.2,650.0 632.1,650.0 625.1,650.0 618.1,650.0 611.0,650.0 604.0,650.0 596.9,650.0 589.9,650.0 582.9,650.0 575.8,650.0 568.8,650.0 561.7,650.0 554.7,650.0 547.7,650.0 540.6,650.0 533.6,650.0 526.5,650.0 519.5,650.0 512.4,650.0 505.4,650.0 498.4,650.0 491.3,650.0 484.3,650.0 477.2,650.0 470.2,650.0 463.2,650.0 456.1,650.0 449.1,650.0 442.0,650.0 435.0,650.0 428.0,650.0 420.9,650.0 413.9,650.0 406.8,650.0 399.8,650.0 392.8,650.0 385.7,650.0 378.7,650.0 371.6,650.0 364.6,650.0 357.6,650.0 350.5,650.0 343.5,650.0 336.4,650.0 329.4,650.0 322.3,650.0 315.3,650.0 308.3,650.0 301.2,650.0 294.2,650.0 287.1,650.0 280.1,650.0 273.1,650.0 266.0,650.0 259.0,650.0 251.9,650.0 244.9,650.0 237.9,650.0 230.8,650.0 223.8,650.0 216.7,650.0 209.7,650.0 202.7,650.0 195.6,650.0 188.6,650.0 181.5,650.0 174.5,650.0 167.4,650.0 160.4,650.0 153.4,650.0 146.3,650.0 139.3,650.0 132.2,650.0 125.2,650.0 118.2,650.0 111.1,650.0 104.1,650.0 97.0,650.0 90.0,650.0" fill="#e34c26" opacity="0.6" class="anim" style="animation-delay:500ms;"/>
<polygon points="90.0,650.0 97.0,650.0 104.1,650.0 111.1,650.0 118.2,650.0 125.2,650.0 132.2,650.0 139.3,650.0 146.3,488.4 153.4,488.0 160.4,489.0 167.4,476.0 174.5,476.0 181.5,477.2 188.6,460.1 195.6,460.2 202.7,460.6 209.7,460.6 216.7,460.6 223.8,460.6 230.8,460.6 237.9,473.0 244.9,473.5 251.9,469.5 259.0,469.5 266.0,469.5 273.1,469.7 280.1,469.7 287.1,469.7 294.2,469.7 301.2,469.7 308.3,469.7 315.3,469.7 322.3,469.7 329.4,455.6 336.4,455.6 343.5,455.4 350.5,455.4 357.6,455.4 364.6,454.3 371.6,454.3 378.7,455.0 385.7,455.1 392.8,454.9 399.8,455.9 406.8,455.9 413.9,455.9 420.9,455.9 428.0,455.9 435.0,455.9 442.0,455.9 449.1,455.9 456.1,455.9 463.2,455.9 470.2,455.9 477.2,455.9 484.3,455.9 491.3,455.8 498.4,455.8 505.4,455.8 512.4,455.8 519.5,455.8 526.5,457.0 533.6,457.4 540.6,457.4 547.7,457.4 554.7,457.4 561.7,457.4 568.8,457.4 575.8,457.4 582.9,457.4 589.9,458.2 596.9,458.2 604.0,458.2 611.0,458.2 618.1,458.2 625.1,458.2 632.1,458.2 639.2,458.2 646.2,458.2 653.3,458.2 660.3,458.2 667.3,458.2 674.4,458.2 681.4,458.2 688.5,458.2 695.5,458.2 702.6,458.2 709.6,458.2 716.6,458.2 723.7,458.2 730.7,458.2 737.8,458.2 744.8,458.2 751.8,458.2 758.9,458.2 765.9,458.2 773.0,456.6 780.0,455.0 780.0,514.9 773.0,512.9 765.9,510.9 758.9,510.9 751.8,510.9 744.8,510.9 737.8,510.9 730.7,510.9 723.7,510.9 716.6,510.9 709.6,510.9 702.6,510.9 695.5,510.9 688.5,510.9 681.4,510.9 674.4,510.9 667.3,510.9 660.3,510.9 653.3,510.9 646.2,510.9 639.2,510.9 632.1,510.9 625.1,510.9 618.1,510.9 611.0,510.9 604.0,510.9 596.9,510.9 589.9,510.9 582.9,509.8 575.8,509.8 568.8,509.8 561.7,509.8 554.7,509.8 547.7,509.8 540.6,509.8 533.6,509.8 526.5,509.5 519.5,508.6 512.4,508.6 505.4,508.6 498.4,508.6 491.3,508.6 484.3,507.5 477.2,507.5 470.2,507.5 463.2,507.5 456.1,507.5 449.1,507.5 442.0,507.5 435.0,507.5 428.0,507.5 420.9,507.5 413.9,507.5 406.8,507.5 399.8,507.5 392.8,506.8 385.7,506.9 378.7,506.8 371.6,506.4 364.6,506.3 357.6,507.9 350.5,507.9 343.5,507.9 336.4,507.6 329.4,507.6 322.3,494.4 315.3,494.4 308.3,494.4 301.2,494.4 294.2,494.0 287.1,494.0 280.1,491.8 273.1,491.7 266.0,491.0 259.0,491.0 251.9,491.0 244.9,496.7 237.9,496.4 230.8,485.4 223.8,485.4 216.7,485.4 209.7,485.4 202.7,485.4 195.6,485.1 188.6,485.0 181.5,502.9 174.5,499.3 167.4,499.3 160.4,529.7 153.4,528.5 146.3,528.2 139.3,650.0 132.2,650.0 125.2,650.0 118.2,650.0 111.1,650.0 104.1,650.0 97.0,650.0 90.0,650.0" fill="#f1e05a" opacity="0.6" class="anim" style="animation-delay:600ms;"/>
<polygon points="90.0,650.0 97.0,650.0 104.1,650.0 111.1,650.0 118.2,650.0 125.2,650.0 132.2,650.0 139.3,650.0 146.3,455.5 153.4,455.4 160.4,455.1 167.4,447.0 174.5,447.0 181.5,448.2 188.6,438.9 195.6,439.0 202.7,439.6 209.7,439.6 216.7,439.6 223.8,439.6 230.8,439.6 237.9,445.6 244.9,445.6 251.9,443.3 259.0,443.3 266.0,443.3 273.1,443.6 280.1,443.6 287.1,444.1 294.2,444.1 301.2,444.1 308.3,444.1 315.3,444.1 322.3,444.1 329.4,437.5 336.4,437.5 343.5,437.5 350.5,437.5 357.6,437.5 364.6,437.5 371.6,437.5 378.7,438.4 385.7,438.5 392.8,438.3 399.8,439.3 406.8,439.3 413.9,439.3 420.9,439.3 428.0,439.3 435.0,439.3 442.0,439.3 449.1,439.3 456.1,439.3 463.2,439.3 470.2,439.3 477.2,439.3 484.3,439.3 491.3,439.4 498.4,439.4 505.4,439.4 512.4,439.4 519.5,439.4 526.5,440.7 533.6,441.1 540.6,441.1 547.7,441.1 554.7,441.1 561.7,441.1 568.8,441.1 575.8,441.1 582.9,441.1 589.9,442.0 596.9,442.0 604.0,442.0 611.0,442.0 618.1,442.0 625.1,442.0 632.1,442.0 639.2,442.0 646.2,442.0 653.3,442.0 660.3,442.0 667.3,442.0 674.4,442.0 681.4,442.0 688.5,442.0 695.5,442.0 702.6,442.0 709.6,442.0 716.6,442.0 723.7,442.0 730.7,442.0 737.8,442.0 744.8,442.0 751.8,442.0 758.9,442.0 765.9,442.0 773.0,441.9 780.0,441.7 780.0,455.0 773.0,456.6 765.9,458.2 758.9,458.2 751.8,458.2 744.8,458.2 737.8,458.2 730.7,458.2 723.7,458.2 716.6,458.2 709.6,458.2 702.6,458.2 695.5,458.2 688.5,458.2 681.4,458.2 674.4,458.2 667.3,458.2 660.3,458.2 653.3,458.2 646.2,458.2 639.2,458.2 632.1,458.2 625.1,458.2 618.1,458.2 611.0,458.2 604.0,458.2 596.9,458.2 589.9,458.2 582.9,457.4 575.8,457.4 568.8,457.4 561.7,457.4 554.7,457.4 547.7,457.4 540.6,457.4 533.6,457.4 526.5,457.0 519.5,455.8 512.4,455.8 505.4,455.8 498.4,455.8 491.3,455.8 484.3,455.9 477.2,455.9 470.2,455.9 463.2,455.9 456.1,455.9 449.1,455.9 442.0,455.9 435.0,455.9 428.0,455.9 420.9,455.9 413.9,455.9 406.8,455.9 399.8,455.9 392.8,454.9 385.7,455.1 378.7,455.0 371.6,454.3 364.6,454.3 357.6,455.4 350.5,455.4 343.5,455.4 336.4,455.6 329.4,455.6 322.3,469.7 315.3,469.7 308.3,469.7 301.2,469.7 294.2,469.7 287.1,469.7 280.1,469.7 273.1,469.7 266.0,469.5 259.0,469.5 251.9,469.5 244.9,473.5 237.9,473.0 230.8,460.6 223.8,460.6 216.7,460.6 209.7,460.6 202.7,460.6 195.6,460.2 188.6,460.1 181.5,477.2 174.5,476.0 167.4,476.0 160.4,489.0 153.4,488.0 146.3,488.4 139.3,650.0 132.2,650.0 125.2,650.0 118.2,650.0 111.1,650.0 104.1,650.0 97.0,650.0 90.0,650.0" fill="#3572A5" opacity="0.6" class="anim" style="animation-delay:700ms;"/>
<polygon points="90.0,650.0 97.0,650.0 104.1,650.0 111.1,650.0 118.2,650.0 125.2,650.0 132.2,650.0 139.3,650.0 146.3,442.3 153.4,442.0 160.4,441.6 167.4,439.5 174.5,439.5 181.5,439.4 188.6,432.3 195.6,432.2 202.7,432.6 209.7,432.6 216.7,432.6 223.8,432.6 230.8,432.6 237.9,439.3 244.9,439.3 251.9,437.4 259.0,437.4 266.0,437.4 273.1,437.3 280.1,437.3 287.1,437.1 294.2,437.1 301.2,437.1 308.3,437.1 315.3,437.1 322.3,437.1 329.4,428.7 336.4,428.6 343.5,428.5 350.5,428.5 357.6,428.5 364.6,427.3 371.6,427.3 378.7,427.1 385.7,427.1 392.8,427.1 399.8,427.0 406.8,427.0 413.9,427.0 420.9,427.0 428.0,427.0 435.0,427.0 442.0,427.0 449.1,427.0 456.1,427.0 463.2,427.0 470.2,427.0 477.2,427.0 484.3,427.0 491.3,427.0 498.4,427.1 505.4,427.1 512.4,427.1 519.5,427.1 526.5,428.4 533.6,428.9 540.6,428.9 547.7,428.9 554.7,428.9 561.7,428.9 568.8,428.9 575.8,428.9 582.9,428.9 589.9,428.7 596.9,428.7 604.0,428.7 611.0,428.7 618.1,428.7 625.1,428.7 632.1,428.7 639.2,428.7 646.2,428.7 653.3,428.7 660.3,428.7 667.3,428.7 674.4,428.7 681.4,428.7 688.5,428.7 695.5,428.7 702.6,428.7 709.6,428.7 716.6,428.7 723.7,428.7 730.7,428.7 737.8,428.7 744.8,428.7 751.8,428.7 758.9,428.7 765.9,428.7 773.0,427.8 780.0,426.9 780.0,441.7 773.0,441.9 765.9,442.0 758.9,442.0 751.8,442.0 744.8,442.0 737.8,442.0 730.7,442.0 723.7,442.0 716.6,442.0 709.6,442.0 702.6,442.0 695.5,442.0 688.5,442.0 681.4,442.0 674.4,442.0 667.3,442.0 660.3,442.0 653.3,442.0 646.2,442.0 639.2,442.0 632.1,442.0 625.1,442.0 618.1,442.0 611.0,442.0 604.0,442.0 596.9,442.0 589.9,442.0 582.9,441.1 575.8,441.1 568.8,441.1 561.7,441.1 554.7,441.1 547.7,441.1 540.6,441.1 533.6,441.1 526.5,440.7 519.5,439.4 512.4,439.4 505.4,439.4 498.4,439.4 491.3,439.4 484.3,439.3 477.2,439.3 470.2,439.3 463.2,439.3 456.1,439.3 449.1,439.3 442.0,439.3 435.0,439.3 428.0,439.3 420.9,439.3 413.9,439.3 406.8,439.3 399.8,439.3 392.8,438.3 385.7,438.5 378.7,438.4 371.6,437.5 364.6,437.5 357.6,437.5 350.5,437.5 343.5,437.5 336.4,437.5 329.4,437.5 322.3,444.1 315.3,444.1 308.3,444.1 301.2,444.1 294.2,444.1 287.1,444.1 280.1,443.6 273.1,443.6 266.0,443.3 259.0,443.3 251.9,443.3 244.9,445.6 237.9,445.6 230.8,439.6 223.8,439.6 216.7,439.6 209.7,439.6 202.7,439.6 195.6,439.0 188.6,438.9 181.5,448.2 174.5,447.0 167.4,447.0 160.4,455.1 153.4,455.4 146.3,455.5 139.3,650.0 132.2,650.0 125.2,650.0 118.2,650.0 111.1,650.0 104.1,650.0 97.0,650.0 90.0,650.0" fill="#663399" opacity="0.6" class="anim" style="animation-delay:800ms;"/>
<polygon points="90.0,650.0 97.0,650.0 104.1,650.0 111.1,650.0 118.2,650.0 125.2,650.0 132.2,650.0 139.3,650.0 146.3,436.6 153.4,436.3 160.4,435.9 167.4,432.2 174.5,432.2 181.5,432.2 188.6,426.2 195.6,426.1 202.7,426.0 209.7,426.0 216.7,426.0 223.8,426.0 230.8,426.0 237.9,430.8 244.9,430.7 251.9,429.3 259.0,429.3 266.0,429.3 273.1,429.2 280.1,429.2 287.1,428.9 294.2,428.9 301.2,428.8 308.3,428.8 315.3,428.8 322.3,428.8 329.4,423.0 336.4,422.9 343.5,422.9 350.5,422.9 357.6,422.9 364.6,422.0 371.6,422.0 378.7,421.9 385.7,421.9 392.8,421.9 399.8,421.8 406.8,421.8 413.9,421.8 420.9,421.8 428.0,421.8 435.0,421.8 442.0,421.8 449.1,421.8 456.1,421.8 463.2,421.8 470.2,421.8 477.2,421.8 484.3,421.8 491.3,421.7 498.4,421.8 505.4,421.8 512.4,421.8 519.5,421.8 526.5,423.2 533.6,423.6 540.6,423.6 547.7,423.6 554.7,423.6 561.7,423.6 568.8,423.6 575.8,423.6 582.9,423.6 589.9,423.5 596.9,423.5 604.0,423.5 611.0,423.5 618.1,423.5 625.1,423.5 632.1,423.5 639.2,423.5 646.2,423.5 653.3,423.5 660.3,423.5 667.3,423.5 674.4,423.5 681.4,423.5 688.5,423.5 695.5,423.5 702.6,423.5 709.6,423.5 716.6,423.5 723.7,423.5 730.7,423.5 737.8,423.5 744.8,423.5 751.8,423.5 758.9,423.5 765.9,423.5 773.0,422.9 780.0,422.2 780.0,426.9 773.0,427.8 765.9,428.7 758.9,428.7 751.8,428.7 744.8,428.7 737.8,428.7 730.7,428.7 723.7,428.7 716.6,428.7 709.6,428.7 702.6,428.7 695.5,428.7 688.5,428.7 681.4,428.7 674.4,428.7 667.3,428.7 660.3,428.7 653.3,428.7 646.2,428.7 639.2,428.7 632.1,428.7 625.1,428.7 618.1,428.7 611.0,428.7 604.0,428.7 596.9,428.7 589.9,428.7 582.9,428.9 575.8,428.9 568.8,428.9 561.7,428.9 554.7,428.9 547.7,428.9 540.6,428.9 533.6,428.9 526.5,428.4 519.5,427.1 512.4,427.1 505.4,427.1 498.4,427.1 491.3,427.0 484.3,427.0 477.2,427.0 470.2,427.0 463.2,427.0 456.1,427.0 449.1,427.0 442.0,427.0 435.0,427.0 428.0,427.0 420.9,427.0 413.9,427.0 406.8,427.0 399.8,427.0 392.8,427.1 385.7,427.1 378.7,427.1 371.6,427.3 364.6,427.3 357.6,428.5 350.5,428.5 343.5,428.5 336.4,428.6 329.4,428.7 322.3,437.1 315.3,437.1 308.3,437.1 301.2,437.1 294.2,437.1 287.1,437.1 280.1,437.3 273.1,437.3 266.0,437.4 259.0,437.4 251.9,437.4 244.9,439.3 237.9,439.3 230.8,432.6 223.8,432.6 216.7,432.6 209.7,432.6 202.7,432.6 195.6,432.2 188.6,432.3 181.5,439.4 174.5,439.5 167.4,439.5 160.4,441.6 153.4,442.0 146.3,442.3 139.3,650.0 132.2,650.0 125.2,650.0 118.2,650.0 111.1,650.0 104.1,650.0 97.0,650.0 90.0,650.0" fill="#083fa1" opacity="0.6" class="anim" style="animation-delay:900ms;"/>
<polygon points="90.0,650.0 97.0,650.0 104.1,650.0 111.1,650.0 118.2,650.0 125.2,650.0 132.2,650.0 139.3,650.0 146.3,428.3 153.4,428.1 160.4,427.8 167.4,425.3 174.5,425.3 181.5,425.2 188.6,421.1 195.6,421.1 202.7,421.0 209.7,421.0 216.7,421.0 223.8,421.0 230.8,421.0 237.9,424.3 244.9,424.2 251.9,423.3 259.0,423.3 266.0,423.3 273.1,423.2 280.1,423.2 287.1,423.0 294.2,423.0 301.2,422.9 308.3,422.9 315.3,422.9 322.3,422.9 329.4,418.9 336.4,418.9 343.5,418.8 350.5,418.8 357.6,418.8 364.6,418.3 371.6,418.3 378.7,418.2 385.7,418.2 392.8,418.2 399.8,418.1 406.8,418.1 413.9,418.1 420.9,418.1 428.0,418.1 435.0,418.1 442.0,418.1 449.1,418.1 456.1,418.1 463.2,418.1 470.2,418.1 477.2,418.1 484.3,418.1 491.3,418.1 498.4,418.1 505.4,418.1 512.4,418.1 519.5,418.1 526.5,418.0 533.6,418.0 540.6,418.0 547.7,418.0 554.7,418.0 561.7,418.0 568.8,418.0 575.8,418.0 582.9,418.0 589.9,417.9 596.9,417.9 604.0,417.9 611.0,417.9 618.1,417.9 625.1,417.9 632.1,417.9 639.2,417.9 646.2,417.9 653.3,417.9 660.3,417.9 667.3,417.9 674.4,417.9 681.4,417.9 688.5,417.9 695.5,417.9 702.6,417.9 709.6,417.9 716.6,417.9 723.7,417.9 730.7,417.9 737.8,417.9 744.8,417.9 751.8,417.9 758.9,417.9 765.9,417.9 773.0,417.3 780.0,416.7 780.0,422.2 773.0,422.9 765.9,423.5 758.9,423.5 751.8,423.5 744.8,423.5 737.8,423.5 730.7,423.5 723.7,423.5 716.6,423.5 709.6,423.5 702.6,423.5 695.5,423.5 688.5,423.5 681.4,423.5 674.4,423.5 667.3,423.5 660.3,423.5 653.3,423.5 646.2,423.5 639.2,423.5 632.1,423.5 625.1,423.5 618.1,423.5 611.0,423.5 604.0,423.5 596.9,423.5 589.9,423.5 582.9,423.6 575.8,423.6 568.8,423.6 561.7,423.6 554.7,423.6 547.7,423.6 540.6,423.6 533.6,423.6 526.5,423.2 519.5,421.8 512.4,421.8 505.4,421.8 498.4,421.8 491.3,421.7 484.3,421.8 477.2,421.8 470.2,421.8 463.2,421.8 456.1,421.8 449.1,421.8 442.0,421.8 435.0,421.8 428.0,421.8 420.9,421.8 413.9,421.8 406.8,421.8 399.8,421.8 392.8,421.9 385.7,421.9 378.7,421.9 371.6,422.0 364.6,422.0 357.6,422.9 350.5,422.9 343.5,422.9 336.4,422.9 329.4,423.0 322.3,428.8 315.3,428.8 308.3,428.8 301.2,428.8 294.2,428.9 287.1,428.9 280.1,429.2 273.1,429.2 266.0,429.3 259.0,429.3 251.9,429.3 244.9,430.7 237.9,430.8 230.8,426.0 223.8,426.0 216.7,426.0 209.7,426.0 202.7,426.0 195.6,426.1 188.6,426.2 181.5,432.2 174.5,432.2 167.4,432.2 160.4,435.9 153.4,436.3 146.3,436.6 139.3,650.0 132.2,650.0 125.2,650.0 118.2,650.0 111.1,650.0 104.1,650.0 97.0,650.0 90.0,650.0" fill="#F05138" opacity="0.6" class="anim" style="animation-delay:1000ms;"/>
<polygon points="90.0,650.0 97.0,650.0 104.1,650.0 111.1,650.0 118.2,650.0 125.2,650.0 132.2,650.0 139.3,650.0 146.3,418.7 153.4,418.6 160.4,418.5 167.4,417.3 174.5,417.3 181.5,417.2 188.6,415.3 195.6,415.3 202.7,415.2 209.7,415.2 216.7,415.2 223.8,415.2 230.8,415.2 237.9,416.8 244.9,416.8 251.9,416.3 259.0,416.3 266.0,416.3 273.1,416.3 280.1,416.3 287.1,416.2 294.2,416.2 301.2,416.2 308.3,416.2 315.3,416.2 322.3,416.2 329.4,414.2 336.4,414.2 343.5,414.2 350.5,414.2 357.6,414.2 364.6,413.9 371.6,413.9 378.7,413.9 385.7,413.9 392.8,413.9 399.8,413.9 406.8,413.9 413.9,413.9 420.9,413.9 428.0,413.9 435.0,413.9 442.0,413.9 449.1,413.9 456.1,413.9 463.2,413.9 470.2,413.9 477.2,413.9 484.3,413.9 491.3,413.8 498.4,413.8 505.4,413.8 512.4,413.8 519.5,413.8 526.5,413.8 533.6,413.8 540.6,413.8 547.7,413.8 554.7,413.8 561.7,413.8 568.8,413.8 575.8,413.8 582.9,413.8 589.9,413.8 596.9,413.8 604.0,413.8 611.0,413.8 618.1,413.8 625.1,413.8 632.1,413.8 639.2,413.8 646.2,413.8 653.3,413.8 660.3,413.8 667.3,413.8 674.4,413.8 681.4,413.8 688.5,413.8 695.5,413.8 702.6,413.8 709.6,413.8 716.6,413.8 723.7,413.8 730.7,413.8 737.8,413.8 744.8,413.8 751.8,413.8 758.9,413.8 765.9,413.8 773.0,413.6 780.0,413.4 780.0,416.7 773.0,417.3 765.9,417.9 758.9,417.9 751.8,417.9 744.8,417.9 737.8,417.9 730.7,417.9 723.7,417.9 716.6,417.9 709.6,417.9 702.6,417.9 695.5,417.9 688.5,417.9 681.4,417.9 674.4,417.9 667.3,417.9 660.3,417.9 653.3,417.9 646.2,417.9 639.2,417.9 632.1,417.9 625.1,417.9 618.1,417.9 611.0,417.9 604.0,417.9 596.9,417.9 589.9,417.9 582.9,418.0 575.8,418.0 568.8,418.0 561.7,418.0 554.7,418.0 547.7,418.0 540.6,418.0 533.6,418.0 526.5,418.0 519.5,418.1 512.4,418.1 505.4,418.1 498.4,418.1 491.3,418.1 484.3,418.1 477.2,418.1 470.2,418.1 463.2,418.1 456.1,418.1 449.1,418.1 442.0,418.1 435.0,418.1 428.0,418.1 420.9,418.1 413.9,418.1 406.8,418.1 399.8,418.1 392.8,418.2 385.7,418.2 378.7,418.2 371.6,418.3 364.6,418.3 357.6,418.8 350.5,418.8 343.5,418.8 336.4,418.9 329.4,418.9 322.3,422.9 315.3,422.9 308.3,422.9 301.2,422.9 294.2,423.0 287.1,423.0 280.1,423.2 273.1,423.2 266.0,423.3 259.0,423.3 251.9,423.3 244.9,424.2 237.9,424.3 230.8,421.0 223.8,421.0 216.7,421.0 209.7,421.0 202.7,421.0 195.6,421.1 188.6,421.1 181.5,425.2 174.5,425.3 167.4,425.3 160.4,427.8 153.4,428.1 146.3,428.3 139.3,650.0 132.2,650.0 125.2,650.0 118.2,650.0 111.1,650.0 104.1,650.0 97.0,650.0 90.0,650.0" fill="#6E4C13" opacity="0.6" class="anim" style="animation-delay:1100ms;"/>
<polygon points="90.0,650.0 97.0,650.0 104.1,650.0 111.1,650.0 118.2,650.0 125.2,650.0 132.2,650.0 139.3,650.0 146.3,414.4 153.4,414.4 160.4,414.3 167.4,413.7 174.5,413.7 181.5,413.7 188.6,412.7 195.6,412.7 202.7,412.7 209.7,412.7 216.7,412.7 223.8,412.7 230.8,412.7 237.9,413.5 244.9,413.4 251.9,413.2 259.0,413.2 266.0,413.2 273.1,413.2 280.1,413.2 287.1,413.1 294.2,413.1 301.2,413.1 308.3,413.1 315.3,413.1 322.3,413.1 329.4,412.2 336.4,412.1 343.5,412.1 350.5,412.1 357.6,412.1 364.6,412.0 371.6,412.0 378.7,412.0 385.7,412.0 392.8,412.0 399.8,412.0 406.8,412.0 413.9,412.0 420.9,412.0 428.0,412.0 435.0,412.0 442.0,412.0 449.1,412.0 456.1,412.0 463.2,412.0 470.2,412.0 477.2,412.0 484.3,412.0 491.3,411.9 498.4,411.9 505.4,411.9 512.4,411.9 519.5,411.9 526.5,411.9 533.6,411.9 540.6,411.9 547.7,411.9 554.7,411.9 561.7,411.9 568.8,411.9 575.8,411.9 582.9,411.9 589.9,411.9 596.9,411.9 604.0,411.9 611.0,411.9 618.1,411.9 625.1,411.9 632.1,411.9 639.2,411.9 646.2,411.9 653.3,411.9 660.3,411.9 667.3,411.9 674.4,411.9 681.4,411.9 688.5,411.9 695.5,411.9 702.6,411.9 709.6,411.9 716.6,411.9 723.7,411.9 730.7,411.9 737.8,411.9 744.8,411.9 751.8,411.9 758.9,411.9 765.9,411.9 773.0,411.9 780.0,411.9 780.0,413.4 773.0,413.6 765.9,413.8 758.9,413.8 751.8,413.8 744.8,413.8 737.8,413.8 730.7,413.8 723.7,413.8 716.6,413.8 709.6,413.8 702.6,413.8 695.5,413.8 688.5,413.8 681.4,413.8 674.4,413.8 667.3,413.8 660.3,413.8 653.3,413.8 646.2,413.8 639.2,413.8 632.1,413.8 625.1,413.8 618.1,413.8 611.0,413.8 604.0,413.8 596.9,413.8 589.9,413.8 582.9,413.8 575.8,413.8 568.8,413.8 561.7,413.8 554.7,413.8 547.7,413.8 540.6,413.8 533.6,413.8 526.5,413.8 519.5,413.8 512.4,413.8 505.4,413.8 498.4,413.8 491.3,413.8 484.3,413.9 477.2,413.9 470.2,413.9 463.2,413.9 456.1,413.9 449.1,413.9 442.0,413.9 435.0,413.9 428.0,413.9 420.9,413.9 413.9,413.9 406.8,413.9 399.8,413.9 392.8,413.9 385.7,413.9 378.7,413.9 371.6,413.9 364.6,413.9 357.6,414.2 350.5,414.2 343.5,414.2 336.4,414.2 329.4,414.2 322.3,416.2 315.3,416.2 308.3,416.2 301.2,416.2 294.2,416.2 287.1,416.2 280.1,416.3 273.1,416.3 266.0,416.3 259.0,416.3 251.9,416.3 244.9,416.8 237.9,416.8 230.8,415.2 223.8,415.2 216.7,415.2 209.7,415.2 202.7,415.2 195.6,415.3 188.6,415.3 181.5,417.2 174.5,417.3 167.4,417.3 160.4,418.5 153.4,418.6 146.3,418.7 139.3,650.0 132.2,650.0 125.2,650.0 118.2,650.0 111.1,650.0 104.1,650.0 97.0,650.0 90.0,650.0" fill="#b07219" opacity="0.6" class="anim" style="animation-delay:1200ms;"/>
<line x1="765.9" y1="100" x2="765.9" y2="650" stroke="#c9d1d9" stroke-width="1" stroke-dasharray="4,3" opacity="0.35"/>
<text x="773.0" y="112" text-anchor="middle" class="axis-label" opacity="0.6">Jul 30, 2026</text>
<text x="90.0" y="668" text-anchor="middle" class="axis-label" transform="rotate(-35 90.0 668)">2026-02</text>
<text x="301.2" y="668" text-anchor="middle" class="axis-label" transform="rotate(-35 301.2 668)">2026-03</text>
<text x="512.4" y="668" text-anchor="middle" class="axis-label" transform="rotate(-35 512.4 668)">2026-06</text>
<text x="723.7" y="668" text-anchor="middle" class="axis-label" transform="rotate(-35 723.7 668)">2026-07</text>
<line x1="796" y1="110" x2="824" y2="110" stroke="#3fb950" stroke-width="2"/>
<text x="832" y="116" class="legend-text">Lines Added</text>
<line x1="796" y1="140" x2="824" y2="140" stroke="#f85149" stroke-width="1.5"/>
<text x="832" y="146" class="legend-text">Lines Deleted</text>
<line x1="796" y1="170" x2="824" y2="170" stroke="#e3b341" stroke-width="1.5" stroke-dasharray="4,3"/>
<text x="832" y="176" class="legend-text">&#x2605; Stars</text>
<text x="796" y="200" class="subtitle">Languages</text>
<rect x="796" y="212" width="12" height="12" rx="2" fill="#e34c26" opacity="0.8" class="anim" style="animation-delay:800ms;"/>
<text x="814" y="223" class="legend-text">HTML (58%→56%)</text>
<rect x="796" y="234" width="12" height="12" rx="2" fill="#f1e05a" opacity="0.8" class="anim" style="animation-delay:880ms;"/>
<text x="814" y="245" class="legend-text">JavaScript (22%→25%)</text>
<rect x="796" y="256" width="12" height="12" rx="2" fill="#3572A5" opacity="0.8" class="anim" style="animation-delay:960ms;"/>
<text x="814" y="267" class="legend-text">Python (7%→6%)</text>
<rect x="796" y="278" width="12" height="12" rx="2" fill="#663399" opacity="0.8" class="anim" style="animation-delay:1040ms;"/>
<text x="814" y="289" class="legend-text">CSS (6%→6%)</text>
<rect x="796" y="300" width="12" height="12" rx="2" fill="#083fa1" opacity="0.8" class="anim" style="animation-delay:1120ms;"/>
<text x="814" y="311" class="legend-text">Markdown (2%→2%)</text>
<rect x="796" y="322" width="12" height="12" rx="2" fill="#F05138" opacity="0.8" class="anim" style="animation-delay:1200ms;"/>
<text x="814" y="333" class="legend-text">Swift (2%)</text>
<rect x="796" y="344" width="12" height="12" rx="2" fill="#6E4C13" opacity="0.8" class="anim" style="animation-delay:1280ms;"/>
<text x="814" y="355" class="legend-text">Assembly (2%→1%)</text>
<rect x="796" y="366" width="12" height="12" rx="2" fill="#b07219" opacity="0.8" class="anim" style="animation-delay:1360ms;"/>
<text x="814" y="377" class="legend-text">Java (1%→1%)</text>
<text x="796" y="412" class="subtitle">Contributions</text>
<text x="796" y="432" class="axis-label">2023: 39</text>
<text x="796" y="452" class="axis-label">2024: 646</text>
<text x="796" y="472" class="axis-label">2025: 1,780</text>
<text x="796" y="492" class="axis-label">2026: 491</text>
<text x="796" y="522" class="subtitle">Statistics</text>
<text x="796" y="542" class="axis-label">Active weeks: 88</text>
<text x="796" y="562" class="axis-label">Add/Del ratio: 1.8x</text>
<text x="796" y="582" class="axis-label">Avg lines/wk: 18K</text>
<text x="796" y="602" class="axis-label">Peak: 2026-02-15</text>
<text x="796" y="622" class="axis-label">  (543K lines)</text>
<text x="90" y="742" class="axis-label">Total: +1,040,332 / -576,819 lines &#xb7; 2,956 contributions &#xb7; 80 repos &#xb7; &#x2605; 37</text>
</svg>