<svg xmlns="http://www.w3.org/2000/svg" width="1000" height="760" style="max-width: 100%;" viewBox="0 0 1000 760">

<defs>
  <linearGradient id="areaGrad" x1="0" y1="0" x2="0" y2="1">
    <stop offset="0%" stop-color="#58a6ff" stop-opacity="0.35"/>
    <stop offset="100%" stop-color="#58a6ff" stop-opacity="0.02"/>
  </linearGradient>
  <linearGradient id="addGrad" x1="0" y1="0" x2="0" y2="1">
    <stop offset="0%" stop-color="#3fb950" stop-opacity="0.35"/>
    <stop offset="100%" stop-color="#3fb950" stop-opacity="0.02"/>
  </linearGradient>
  <linearGradient id="delGrad" x1="0" y1="0" x2="0" y2="1">
    <stop offset="0%" stop-color="#f85149" stop-opacity="0.25"/>
    <stop offset="100%" stop-color="#f85149" stop-opacity="0.02"/>
  </linearGradient>
</defs>
<style>
  .title { font: bold 28px 'Segoe UI', Ubuntu, Sans-Serif; fill: #c9d1d9; }
  .subtitle { font: 600 20px 'Segoe UI', Ubuntu, Sans-Serif; fill: #c9d1d9; opacity: 0.8; }
  .axis-label { font: 18px 'Segoe UI', Ubuntu, Sans-Serif; fill: #c9d1d9; opacity: 0.7; }
  .legend-text { font: 14px 'Segoe UI', Ubuntu, Sans-Serif; fill: #c9d1d9; }
  .value-text { font: bold 18px 'Segoe UI', Ubuntu, Sans-Serif; fill: #c9d1d9; }
  .stat-value { font: bold 22px 'Segoe UI', Ubuntu, Sans-Serif; fill: #c9d1d9; }
  .stat-label { font: 18px 'Segoe UI', Ubuntu, Sans-Serif; fill: #c9d1d9; opacity: 0.7; }
  @keyframes fadeIn { from { opacity: 0; } to { opacity: 1; } }
  .anim { animation: fadeIn 0.6s ease-in-out forwards; opacity: 0; }
</style>

<rect x="0.5" y="0.5" rx="4.5" width="999" height="759" fill="#161b22" stroke="#21262d"/>
<text x="90" y="45" class="title">Activity History</text>
<text x="90" y="72" class="subtitle">Lines added vs deleted &amp; activity trends over time</text>
<line x1="90" y1="340.0" x2="780" y2="340.0" stroke="#21262d" stroke-width="1"/>
<text x="82" y="344.0" text-anchor="end" class="axis-label">0</text>
<line x1="90" y1="280.0" x2="780" y2="280.0" stroke="#21262d" stroke-width="1"/>
<text x="82" y="284.0" text-anchor="end" class="axis-label">639K</text>
<line x1="90" y1="220.0" x2="780" y2="220.0" stroke="#21262d" stroke-width="1"/>
<text x="82" y="224.0" text-anchor="end" class="axis-label">1.3M</text>
<line x1="90" y1="160.0" x2="780" y2="160.0" stroke="#21262d" stroke-width="1"/>
<text x="82" y="164.0" text-anchor="end" class="axis-label">1.9M</text>
<line x1="90" y1="100.0" x2="780" y2="100.0" stroke="#21262d" stroke-width="1"/>
<text x="82" y="104.0" text-anchor="end" class="axis-label">2.6M</text>
<polygon points="90.0,340.0 90.0,305.7 109.2,307.0 128.3,305.8 147.5,307.0 166.7,314.9 185.8,299.2 205.0,299.2 224.2,293.3 243.3,293.0 262.5,292.7 281.7,292.6 300.8,282.1 320.0,282.1 339.2,282.0 358.3,266.4 377.5,266.2 396.7,266.0 415.8,266.0 435.0,266.0 454.2,266.0 473.3,266.0 492.5,265.6 511.7,255.2 530.8,255.2 550.0,255.2 569.2,255.2 588.3,254.9 607.5,254.9 626.7,254.5 645.8,254.5 665.0,254.4 684.2,254.4 703.3,254.4 722.5,254.4 741.7,254.4 760.8,228.2 780.0,202.0 780.0,340.0" fill="url(#addGrad)" class="anim" style="animation-delay:200ms;"/>
<polyline points="90.0,305.7 109.2,307.0 128.3,305.8 147.5,307.0 166.7,314.9 185.8,299.2 205.0,299.2 224.2,293.3 243.3,293.0 262.5,292.7 281.7,292.6 300.8,282.1 320.0,282.1 339.2,282.0 358.3,266.4 377.5,266.2 396.7,266.0 415.8,266.0 435.0,266.0 454.2,266.0 473.3,266.0 492.5,265.6 511.7,255.2 530.8,255.2 550.0,255.2 569.2,255.2 588.3,254.9 607.5,254.9 626.7,254.5 645.8,254.5 665.0,254.4 684.2,254.4 703.3,254.4 722.5,254.4 741.7,254.4" fill="none" stroke="#3fb950" stroke-width="2" stroke-linejoin="round" class="anim" style="animation-delay:250ms;"/>
<polyline points="741.7,254.4 760.8,228.2 780.0,202.0" fill="none" stroke="#3fb950" stroke-width="1.5" stroke-dasharray="5,4" stroke-linejoin="round" opacity="0.6" class="anim" style="animation-delay:250ms;"/>
<polygon points="90.0,340.0 90.0,330.4 109.2,331.4 128.3,330.4 147.5,331.4 166.7,335.5 185.8,329.2 205.0,329.2 224.2,328.5 243.3,328.3 262.5,328.1 281.7,328.1 300.8,316.7 320.0,316.7 339.2,316.7 358.3,303.8 377.5,303.7 396.7,303.7 415.8,303.7 435.0,303.7 454.2,303.7 473.3,303.7 492.5,297.0 511.7,286.7 530.8,286.7 550.0,286.7 569.2,286.7 588.3,286.6 607.5,286.6 626.7,286.6 645.8,286.6 665.0,286.5 684.2,286.5 703.3,286.5 722.5,286.5 741.7,286.5 760.8,262.3 780.0,238.0 780.0,340.0" fill="url(#delGrad)" class="anim" style="animation-delay:300ms;"/>
<polyline points="90.0,330.4 109.2,331.4 128.3,330.4 147.5,331.4 166.7,335.5 185.8,329.2 205.0,329.2 224.2,328.5 243.3,328.3 262.5,328.1 281.7,328.1 300.8,316.7 320.0,316.7 339.2,316.7 358.3,303.8 377.5,303.7 396.7,303.7 415.8,303.7 435.0,303.7 454.2,303.7 473.3,303.7 492.5,297.0 511.7,286.7 530.8,286.7 550.0,286.7 569.2,286.7 588.3,286.6 607.5,286.6 626.7,286.6 645.8,286.6 665.0,286.5 684.2,286.5 703.3,286.5 722.5,286.5 741.7,286.5" fill="none" stroke="#f85149" stroke-width="1.5" stroke-linejoin="round" class="anim" style="animation-delay:350ms;"/>
<polyline points="741.7,286.5 760.8,262.3 780.0,238.0" fill="none" stroke="#f85149" stroke-width="1" stroke-dasharray="5,4" stroke-linejoin="round" opacity="0.6" class="anim" style="animation-delay:350ms;"/>
<polyline points="90.0,340.0 109.2,340.0 128.3,340.0 147.5,340.0 166.7,340.0 185.8,340.0 205.0,340.0 224.2,340.0 243.3,148.0 262.5,148.0 281.7,148.0 300.8,148.0 320.0,148.0 339.2,148.0 358.3,148.0 377.5,148.0 396.7,148.0 415.8,148.0 435.0,148.0 454.2,148.0 473.3,148.0 492.5,148.0 511.7,148.0 530.8,148.0 550.0,148.0 569.2,148.0 588.3,148.0 607.5,148.0 626.7,148.0 645.8,148.0 665.0,148.0 684.2,148.0 703.3,148.0 722.5,148.0 741.7,148.0" fill="none" stroke="#e3b341" stroke-width="1.5" stroke-dasharray="4,3" stroke-linejoin="round" class="anim" style="animation-delay:400ms;"/>
<polyline points="741.7,148.0 760.8,148.0 780.0,148.0" fill="none" stroke="#e3b341" stroke-width="1" stroke-dasharray="3,5" stroke-linejoin="round" opacity="0.5" class="anim" style="animation-delay:400ms;"/>
<text x="90" y="90" class="subtitle">Lines Added vs Deleted (per snapshot)</text>
<text x="90" y="400" class="subtitle">Programming Language Development (%)</text>
<line x1="90" y1="650.0" x2="780" y2="650.0" stroke="#21262d" stroke-width="1"/>
<text x="82" y="654.0" text-anchor="end" class="axis-label">0%</text>
<line x1="90" y1="590.0" x2="780" y2="590.0" stroke="#21262d" stroke-width="1"/>
<text x="82" y="594.0" text-anchor="end" class="axis-label">25%</text>
<line x1="90" y1="530.0" x2="780" y2="530.0" stroke="#21262d" stroke-width="1"/>
<text x="82" y="534.0" text-anchor="end" class="axis-label">50%</text>
<line x1="90" y1="470.0" x2="780" y2="470.0" stroke="#21262d" stroke-width="1"/>
<text x="82" y="474.0" text-anchor="end" class="axis-label">75%</text>
<line x1="90" y1="410.0" x2="780" y2="410.0" stroke="#21262d" stroke-width="1"/>
<text x="82" y="414.0" text-anchor="end" class="axis-label">100%</text>
<polygon points="90.0,650.0 109.2,650.0 128.3,650.0 147.5,650.0 166.7,650.0 185.8,650.0 205.0,650.0 224.2,650.0 243.3,528.2 262.5,528.5 281.7,529.7 300.8,499.3 320.0,499.3 339.2,502.9 358.3,485.0 377.5,485.1 396.7,485.4 415.8,485.4 435.0,485.4 454.2,485.4 473.3,485.4 492.5,496.4 511.7,496.7 530.8,491.0 550.0,491.0 569.2,491.0 588.3,491.7 607.5,491.8 626.7,494.0 645.8,494.0 665.0,494.4 684.2,494.4 703.3,494.4 722.5,494.4 741.7,494.4 760.8,484.3 780.0,474.3 780.0,650.0 760.8,650.0 741.7,650.0 722.5,650.0 703.3,650.0 684.2,650.0 665.0,650.0 645.8,650.0 626.7,650.0 607.5,650.0 588.3,650.0 569.2,650.0 550.0,650.0 530.8,650.0 511.7,650.0 492.5,650.0 473.3,650.0 454.2,650.0 435.0,650.0 415.8,650.0 396.7,650.0 377.5,650.0 358.3,650.0 339.2,650.0 320.0,650.0 300.8,650.0 281.7,650.0 262.5,650.0 243.3,650.0 224.2,650.0 205.0,650.0 185.8,650.0 166.7,650.0 147.5,650.0 128.3,650.0 109.2,650.0 90.0,650.0" fill="#e34c26" opacity="0.6" class="anim" style="animation-delay:500ms;"/>
<polygon points="90.0,650.0 109.2,650.0 128.3,650.0 147.5,650.0 166.7,650.0 185.8,650.0 205.0,650.0 224.2,650.0 243.3,495.2 262.5,495.9 281.7,495.9 300.8,470.2 320.0,470.2 339.2,473.9 358.3,463.8 377.5,463.9 396.7,464.3 415.8,464.3 435.0,464.3 454.2,464.3 473.3,464.3 492.5,469.0 511.7,468.8 530.8,464.8 550.0,464.8 569.2,464.8 588.3,465.7 607.5,465.7 626.7,468.4 645.8,468.4 665.0,468.8 684.2,468.8 703.3,468.8 722.5,468.8 741.7,468.8 760.8,460.7 780.0,452.7 780.0,474.3 760.8,484.3 741.7,494.4 722.5,494.4 703.3,494.4 684.2,494.4 665.0,494.4 645.8,494.0 626.7,494.0 607.5,491.8 588.3,491.7 569.2,491.0 550.0,491.0 530.8,491.0 511.7,496.7 492.5,496.4 473.3,485.4 454.2,485.4 435.0,485.4 415.8,485.4 396.7,485.4 377.5,485.1 358.3,485.0 339.2,502.9 320.0,499.3 300.8,499.3 281.7,529.7 262.5,528.5 243.3,528.2 224.2,650.0 205.0,650.0 185.8,650.0 166.7,650.0 147.5,650.0 128.3,650.0 109.2,650.0 90.0,650.0" fill="#3572A5" opacity="0.6" class="anim" style="animation-delay:600ms;"/>
<polygon points="90.0,650.0 109.2,650.0 128.3,650.0 147.5,650.0 166.7,650.0 185.8,650.0 205.0,650.0 224.2,650.0 243.3,455.5 262.5,455.4 281.7,455.1 300.8,447.0 320.0,447.0 339.2,448.2 358.3,438.9 377.5,439.0 396.7,439.6 415.8,439.6 435.0,439.6 454.2,439.6 473.3,439.6 492.5,445.6 511.7,445.6 530.8,443.3 550.0,443.3 569.2,443.3 588.3,443.6 607.5,443.6 626.7,444.1 645.8,444.1 665.0,444.1 684.2,444.1 703.3,444.1 722.5,444.1 741.7,444.1 760.8,441.3 780.0,438.5 780.0,452.7 760.8,460.7 741.7,468.8 722.5,468.8 703.3,468.8 684.2,468.8 665.0,468.8 645.8,468.4 626.7,468.4 607.5,465.7 588.3,465.7 569.2,464.8 550.0,464.8 530.8,464.8 511.7,468.8 492.5,469.0 473.3,464.3 454.2,464.3 435.0,464.3 415.8,464.3 396.7,464.3 377.5,463.9 358.3,463.8 339.2,473.9 320.0,470.2 300.8,470.2 281.7,495.9 262.5,495.9 243.3,495.2 224.2,650.0 205.0,650.0 185.8,650.0 166.7,650.0 147.5,650.0 128.3,650.0 109.2,650.0 90.0,650.0" fill="#f1e05a" opacity="0.6" class="anim" style="animation-delay:700ms;"/>
<polygon points="90.0,650.0 109.2,650.0 128.3,650.0 147.5,650.0 166.7,650.0 185.8,650.0 205.0,650.0 224.2,650.0 243.3,442.3 262.5,442.0 281.7,441.6 300.8,439.5 320.0,439.5 339.2,439.4 358.3,432.3 377.5,432.2 396.7,432.6 415.8,432.6 435.0,432.6 454.2,432.6 473.3,432.6 492.5,439.3 511.7,439.3 530.8,437.4 550.0,437.4 569.2,437.4 588.3,437.3 607.5,437.3 626.7,437.1 645.8,437.1 665.0,437.1 684.2,437.1 703.3,437.1 722.5,437.1 741.7,437.1 760.8,436.5 780.0,436.0 780.0,438.5 760.8,441.3 741.7,444.1 722.5,444.1 703.3,444.1 684.2,444.1 665.0,444.1 645.8,444.1 626.7,444.1 607.5,443.6 588.3,443.6 569.2,443.3 550.0,443.3 530.8,443.3 511.7,445.6 492.5,445.6 473.3,439.6 454.2,439.6 435.0,439.6 415.8,439.6 396.7,439.6 377.5,439.0 358.3,438.9 339.2,448.2 320.0,447.0 300.8,447.0 281.7,455.1 262.5,455.4 243.3,455.5 224.2,650.0 205.0,650.0 185.8,650.0 166.7,650.0 147.5,650.0 128.3,650.0 109.2,650.0 90.0,650.0" fill="#663399" opacity="0.6" class="anim" style="animation-delay:800ms;"/>
<polygon points="90.0,650.0 109.2,650.0 128.3,650.0 147.5,650.0 166.7,650.0 185.8,650.0 205.0,650.0 224.2,650.0 243.3,436.6 262.5,436.3 281.7,435.9 300.8,432.2 320.0,432.2 339.2,432.2 358.3,426.2 377.5,426.1 396.7,426.0 415.8,426.0 435.0,426.0 454.2,426.0 473.3,426.0 492.5,430.8 511.7,430.7 530.8,429.3 550.0,429.3 569.2,429.3 588.3,429.2 607.5,429.2 626.7,428.9 645.8,428.9 665.0,428.8 684.2,428.8 703.3,428.8 722.5,428.8 741.7,428.8 760.8,426.9 780.0,424.9 780.0,436.0 760.8,436.5 741.7,437.1 722.5,437.1 703.3,437.1 684.2,437.1 665.0,437.1 645.8,437.1 626.7,437.1 607.5,437.3 588.3,437.3 569.2,437.4 550.0,437.4 530.8,437.4 511.7,439.3 492.5,439.3 473.3,432.6 454.2,432.6 435.0,432.6 415.8,432.6 396.7,432.6 377.5,432.2 358.3,432.3 339.2,439.4 320.0,439.5 300.8,439.5 281.7,441.6 262.5,442.0 243.3,442.3 224.2,650.0 205.0,650.0 185.8,650.0 166.7,650.0 147.5,650.0 128.3,650.0 109.2,650.0 90.0,650.0" fill="#083fa1" opacity="0.6" class="anim" style="animation-delay:900ms;"/>
<polygon points="90.0,650.0 109.2,650.0 128.3,650.0 147.5,650.0 166.7,650.0 185.8,650.0 205.0,650.0 224.2,650.0 243.3,427.0 262.5,426.8 281.7,426.6 300.8,424.2 320.0,424.2 339.2,424.2 358.3,420.4 377.5,420.3 396.7,420.3 415.8,420.3 435.0,420.3 454.2,420.3 473.3,420.3 492.5,423.3 511.7,423.2 530.8,422.4 550.0,422.4 569.2,422.4 588.3,422.3 607.5,422.3 626.7,422.1 645.8,422.1 665.0,422.1 684.2,422.1 703.3,422.1 722.5,422.1 741.7,422.1 760.8,420.9 780.0,419.8 780.0,424.9 760.8,426.9 741.7,428.8 722.5,428.8 703.3,428.8 684.2,428.8 665.0,428.8 645.8,428.9 626.7,428.9 607.5,429.2 588.3,429.2 569.2,429.3 550.0,429.3 530.8,429.3 511.7,430.7 492.5,430.8 473.3,426.0 454.2,426.0 435.0,426.0 415.8,426.0 396.7,426.0 377.5,426.1 358.3,426.2 339.2,432.2 320.0,432.2 300.8,432.2 281.7,435.9 262.5,436.3 243.3,436.6 224.2,650.0 205.0,650.0 185.8,650.0 166.7,650.0 147.5,650.0 128.3,650.0 109.2,650.0 90.0,650.0" fill="#6E4C13" opacity="0.6" class="anim" style="animation-delay:1000ms;"/>
<polygon points="90.0,650.0 109.2,650.0 128.3,650.0 147.5,650.0 166.7,650.0 185.8,650.0 205.0,650.0 224.2,650.0 243.3,418.7 262.5,418.6 281.7,418.5 300.8,417.3 320.0,417.3 339.2,417.2 358.3,415.3 377.5,415.3 396.7,415.2 415.8,415.2 435.0,415.2 454.2,415.2 473.3,415.2 492.5,416.8 511.7,416.8 530.8,416.3 550.0,416.3 569.2,416.3 588.3,416.3 607.5,416.3 626.7,416.2 645.8,416.2 665.0,416.2 684.2,416.2 703.3,416.2 722.5,416.2 741.7,416.2 760.8,415.8 780.0,415.4 780.0,419.8 760.8,420.9 741.7,422.1 722.5,422.1 703.3,422.1 684.2,422.1 665.0,422.1 645.8,422.1 626.7,422.1 607.5,422.3 588.3,422.3 569.2,422.4 550.0,422.4 530.8,422.4 511.7,423.2 492.5,423.3 473.3,420.3 454.2,420.3 435.0,420.3 415.8,420.3 396.7,420.3 377.5,420.3 358.3,420.4 339.2,424.2 320.0,424.2 300.8,424.2 281.7,426.6 262.5,426.8 243.3,427.0 224.2,650.0 205.0,650.0 185.8,650.0 166.7,650.0 147.5,650.0 128.3,650.0 109.2,650.0 90.0,650.0" fill="#F05138" opacity="0.6" class="anim" style="animation-delay:1100ms;"/>
<polygon points="90.0,650.0 109.2,650.0 128.3,650.0 147.5,650.0 166.7,650.0 185.8,650.0 205.0,650.0 224.2,650.0 243.3,414.4 262.5,414.4 281.7,414.3 300.8,413.7 320.0,413.7 339.2,413.7 358.3,412.7 377.5,412.7 396.7,412.7 415.8,412.7 435.0,412.7 454.2,412.7 473.3,412.7 492.5,413.5 511.7,413.4 530.8,413.2 550.0,413.2 569.2,413.2 588.3,413.2 607.5,413.2 626.7,413.1 645.8,413.1 665.0,413.1 684.2,413.1 703.3,413.1 722.5,413.1 741.7,413.1 760.8,413.1 780.0,413.1 780.0,415.4 760.8,415.8 741.7,416.2 722.5,416.2 703.3,416.2 684.2,416.2 665.0,416.2 645.8,416.2 626.7,416.2 607.5,416.3 588.3,416.3 569.2,416.3 550.0,416.3 530.8,416.3 511.7,416.8 492.5,416.8 473.3,415.2 454.2,415.2 435.0,415.2 415.8,415.2 396.7,415.2 377.5,415.3 358.3,415.3 339.2,417.2 320.0,417.3 300.8,417.3 281.7,418.5 262.5,418.6 243.3,418.7 224.2,650.0 205.0,650.0 185.8,650.0 166.7,650.0 147.5,650.0 128.3,650.0 109.2,650.0 90.0,650.0" fill="#b07219" opacity="0.6" class="anim" style="animation-delay:1200ms;"/>
<line x1="741.7" y1="100" x2="741.7" y2="650" stroke="#c9d1d9" stroke-width="1" stroke-dasharray="4,3" opacity="0.35"/>
<text x="760.8" y="112" text-anchor="middle" class="axis-label" opacity="0.6">Mar 26, 2026</text>
<text x="90.0" y="668" text-anchor="middle" class="axis-label" transform="rotate(-35 90.0 668)">2026-02</text>
<text x="550.0" y="668" text-anchor="middle" class="axis-label" transform="rotate(-35 550.0 668)">2026-03</text>
<text x="760.8" y="668" text-anchor="middle" class="axis-label" transform="rotate(-35 760.8 668)">Mar 26, 2026</text>
<line x1="796" y1="110" x2="824" y2="110" stroke="#3fb950" stroke-width="2"/>
<text x="832" y="116" class="legend-text">Lines Added</text>
<line x1="796" y1="140" x2="824" y2="140" stroke="#f85149" stroke-width="1.5"/>
<text x="832" y="146" class="legend-text">Lines Deleted</text>
<line x1="796" y1="170" x2="824" y2="170" stroke="#e3b341" stroke-width="1.5" stroke-dasharray="4,3"/>
<text x="832" y="176" class="legend-text">&#x2605; Stars</text>
<text x="796" y="200" class="subtitle">Languages</text>
<rect x="796" y="212" width="12" height="12" rx="2" fill="#e34c26" opacity="0.8" class="anim" style="animation-delay:800ms;"/>
<text x="814" y="223" class="legend-text">HTML (65%→73%)</text>
<rect x="796" y="234" width="12" height="12" rx="2" fill="#3572A5" opacity="0.8" class="anim" style="animation-delay:880ms;"/>
<text x="814" y="245" class="legend-text">Python (11%→9%)</text>
<rect x="796" y="256" width="12" height="12" rx="2" fill="#f1e05a" opacity="0.8" class="anim" style="animation-delay:960ms;"/>
<text x="814" y="267" class="legend-text">JavaScript (10%→6%)</text>
<rect x="796" y="278" width="12" height="12" rx="2" fill="#663399" opacity="0.8" class="anim" style="animation-delay:1040ms;"/>
<text x="814" y="289" class="legend-text">CSS (3%→1%)</text>
<rect x="796" y="300" width="12" height="12" rx="2" fill="#083fa1" opacity="0.8" class="anim" style="animation-delay:1120ms;"/>
<text x="814" y="311" class="legend-text">Markdown (3%→5%)</text>
<rect x="796" y="322" width="12" height="12" rx="2" fill="#6E4C13" opacity="0.8" class="anim" style="animation-delay:1200ms;"/>
<text x="814" y="333" class="legend-text">Assembly (3%→2%)</text>
<rect x="796" y="344" width="12" height="12" rx="2" fill="#F05138" opacity="0.8" class="anim" style="animation-delay:1280ms;"/>
<text x="814" y="355" class="legend-text">Swift (2%→2%)</text>
<rect x="796" y="366" width="12" height="12" rx="2" fill="#b07219" opacity="0.8" class="anim" style="animation-delay:1360ms;"/>
<text x="814" y="377" class="legend-text">Java (1%→1%)</text>
<text x="796" y="412" class="subtitle">Contributions</text>
<text x="796" y="432" class="axis-label">2023: 39</text>
<text x="796" y="452" class="axis-label">2024: 646</text>
<text x="796" y="472" class="axis-label">2025: 1,780</text>
<text x="796" y="492" class="axis-label">2026: 368</text>
<text x="796" y="522" class="subtitle">Statistics</text>
<text x="796" y="542" class="axis-label">Active weeks: 78</text>
<text x="796" y="562" class="axis-label">Add/Del ratio: 1.6x</text>
<text x="796" y="582" class="axis-label">Avg lines/wk: 19K</text>
<text x="796" y="602" class="axis-label">Peak: 2026-02-15</text>
<text x="796" y="622" class="axis-label">  (543K lines)</text>
<text x="90" y="742" class="axis-label">Total: +911,996 / -569,547 lines &#xb7; 2,833 contributions &#xb7; 74 repos &#xb7; &#x2605; 33</text>
</svg>