<svg xmlns="http://www.w3.org/2000/svg" width="1000" height="760" style="max-width: 100%;" viewBox="0 0 1000 760">

<defs>
  <linearGradient id="areaGrad" x1="0" y1="0" x2="0" y2="1">
    <stop offset="0%" stop-color="#58a6ff" stop-opacity="0.35"/>
    <stop offset="100%" stop-color="#58a6ff" stop-opacity="0.02"/>
  </linearGradient>
  <linearGradient id="addGrad" x1="0" y1="0" x2="0" y2="1">
    <stop offset="0%" stop-color="#3fb950" stop-opacity="0.35"/>
    <stop offset="100%" stop-color="#3fb950" stop-opacity="0.02"/>
  </linearGradient>
  <linearGradient id="delGrad" x1="0" y1="0" x2="0" y2="1">
    <stop offset="0%" stop-color="#f85149" stop-opacity="0.25"/>
    <stop offset="100%" stop-color="#f85149" stop-opacity="0.02"/>
  </linearGradient>
</defs>
<style>
  .title { font: bold 28px 'Segoe UI', Ubuntu, Sans-Serif; fill: #c9d1d9; }
  .subtitle { font: 600 20px 'Segoe UI', Ubuntu, Sans-Serif; fill: #c9d1d9; opacity: 0.8; }
  .axis-label { font: 18px 'Segoe UI', Ubuntu, Sans-Serif; fill: #c9d1d9; opacity: 0.7; }
  .legend-text { font: 14px 'Segoe UI', Ubuntu, Sans-Serif; fill: #c9d1d9; }
  .value-text { font: bold 18px 'Segoe UI', Ubuntu, Sans-Serif; fill: #c9d1d9; }
  .stat-value { font: bold 22px 'Segoe UI', Ubuntu, Sans-Serif; fill: #c9d1d9; }
  .stat-label { font: 18px 'Segoe UI', Ubuntu, Sans-Serif; fill: #c9d1d9; opacity: 0.7; }
  @keyframes fadeIn { from { opacity: 0; } to { opacity: 1; } }
  .anim { animation: fadeIn 0.6s ease-in-out forwards; opacity: 0; }
</style>

<rect x="0.5" y="0.5" rx="4.5" width="999" height="759" fill="#161b22" stroke="#21262d"/>
<text x="90" y="45" class="title">Activity History</text>
<text x="90" y="72" class="subtitle">Lines added vs deleted &amp; activity trends over time</text>
<line x1="90" y1="340.0" x2="780" y2="340.0" stroke="#21262d" stroke-width="1"/>
<text x="82" y="344.0" text-anchor="end" class="axis-label">0</text>
<line x1="90" y1="280.0" x2="780" y2="280.0" stroke="#21262d" stroke-width="1"/>
<text x="82" y="284.0" text-anchor="end" class="axis-label">437K</text>
<line x1="90" y1="220.0" x2="780" y2="220.0" stroke="#21262d" stroke-width="1"/>
<text x="82" y="224.0" text-anchor="end" class="axis-label">874K</text>
<line x1="90" y1="160.0" x2="780" y2="160.0" stroke="#21262d" stroke-width="1"/>
<text x="82" y="164.0" text-anchor="end" class="axis-label">1.3M</text>
<line x1="90" y1="100.0" x2="780" y2="100.0" stroke="#21262d" stroke-width="1"/>
<text x="82" y="104.0" text-anchor="end" class="axis-label">1.7M</text>
<polygon points="90.0,340.0 90.0,289.9 101.0,291.7 111.9,289.9 122.9,291.7 133.8,303.2 144.8,280.3 155.7,280.2 166.7,271.6 177.6,271.3 188.6,270.7 199.5,270.7 210.5,255.2 221.4,255.2 232.4,255.2 243.3,232.3 254.3,232.0 265.2,231.7 276.2,231.7 287.1,231.7 298.1,231.7 309.0,231.7 320.0,231.1 331.0,215.9 341.9,215.8 352.9,215.8 363.8,215.8 374.8,215.4 385.7,215.4 396.7,214.8 407.6,214.8 418.6,214.7 429.5,214.7 440.5,214.7 451.4,214.7 462.4,214.8 473.3,214.7 484.3,214.7 495.2,214.7 506.2,214.7 517.1,214.7 528.1,214.7 539.0,214.1 550.0,214.3 561.0,213.6 571.9,213.3 582.9,213.3 593.8,213.3 604.8,213.3 615.7,213.3 626.7,213.3 637.6,213.2 648.6,213.2 659.5,213.2 670.5,213.3 681.4,213.6 692.4,215.1 703.3,213.6 714.3,212.3 725.2,212.2 736.2,212.2 747.1,212.2 758.1,212.2 769.0,203.8 780.0,195.3 780.0,340.0" fill="url(#addGrad)" class="anim" style="animation-delay:200ms;"/>
<polyline points="90.0,289.9 101.0,291.7 111.9,289.9 122.9,291.7 133.8,303.2 144.8,280.3 155.7,280.2 166.7,271.6 177.6,271.3 188.6,270.7 199.5,270.7 210.5,255.2 221.4,255.2 232.4,255.2 243.3,232.3 254.3,232.0 265.2,231.7 276.2,231.7 287.1,231.7 298.1,231.7 309.0,231.7 320.0,231.1 331.0,215.9 341.9,215.8 352.9,215.8 363.8,215.8 374.8,215.4 385.7,215.4 396.7,214.8 407.6,214.8 418.6,214.7 429.5,214.7 440.5,214.7 451.4,214.7 462.4,214.8 473.3,214.7 484.3,214.7 495.2,214.7 506.2,214.7 517.1,214.7 528.1,214.7 539.0,214.1 550.0,214.3 561.0,213.6 571.9,213.3 582.9,213.3 593.8,213.3 604.8,213.3 615.7,213.3 626.7,213.3 637.6,213.2 648.6,213.2 659.5,213.2 670.5,213.3 681.4,213.6 692.4,215.1 703.3,213.6 714.3,212.3 725.2,212.2 736.2,212.2 747.1,212.2 758.1,212.2" fill="none" stroke="#3fb950" stroke-width="2" stroke-linejoin="round" class="anim" style="animation-delay:250ms;"/>
<polyline points="758.1,212.2 769.0,203.8 780.0,195.3" fill="none" stroke="#3fb950" stroke-width="1.5" stroke-dasharray="5,4" stroke-linejoin="round" opacity="0.6" class="anim" style="animation-delay:250ms;"/>
<polygon points="90.0,340.0 90.0,325.9 101.0,327.4 111.9,325.9 122.9,327.3 133.8,333.4 144.8,324.2 155.7,324.2 166.7,323.2 177.6,322.8 188.6,322.5 199.5,322.5 210.5,305.9 221.4,305.9 232.4,305.8 243.3,287.0 254.3,286.9 265.2,286.9 276.2,286.9 287.1,286.9 298.1,286.9 309.0,286.9 320.0,277.0 331.0,262.0 341.9,262.0 352.9,262.0 363.8,262.0 374.8,261.9 385.7,261.9 396.7,261.8 407.6,261.8 418.6,261.8 429.5,261.8 440.5,261.8 451.4,261.8 462.4,261.8 473.3,261.8 484.3,261.8 495.2,261.8 506.2,261.8 517.1,261.8 528.1,261.8 539.0,261.8 550.0,261.8 561.0,261.3 571.9,261.3 582.9,261.3 593.8,261.3 604.8,261.3 615.7,261.3 626.7,261.3 637.6,261.3 648.6,261.3 659.5,261.3 670.5,261.3 681.4,261.4 692.4,262.3 703.3,261.7 714.3,260.9 725.2,260.8 736.2,260.8 747.1,260.8 758.1,260.8 769.0,252.7 780.0,244.7 780.0,340.0" fill="url(#delGrad)" class="anim" style="animation-delay:300ms;"/>
<polyline points="90.0,325.9 101.0,327.4 111.9,325.9 122.9,327.3 133.8,333.4 144.8,324.2 155.7,324.2 166.7,323.2 177.6,322.8 188.6,322.5 199.5,322.5 210.5,305.9 221.4,305.9 232.4,305.8 243.3,287.0 254.3,286.9 265.2,286.9 276.2,286.9 287.1,286.9 298.1,286.9 309.0,286.9 320.0,277.0 331.0,262.0 341.9,262.0 352.9,262.0 363.8,262.0 374.8,261.9 385.7,261.9 396.7,261.8 407.6,261.8 418.6,261.8 429.5,261.8 440.5,261.8 451.4,261.8 462.4,261.8 473.3,261.8 484.3,261.8 495.2,261.8 506.2,261.8 517.1,261.8 528.1,261.8 539.0,261.8 550.0,261.8 561.0,261.3 571.9,261.3 582.9,261.3 593.8,261.3 604.8,261.3 615.7,261.3 626.7,261.3 637.6,261.3 648.6,261.3 659.5,261.3 670.5,261.3 681.4,261.4 692.4,262.3 703.3,261.7 714.3,260.9 725.2,260.8 736.2,260.8 747.1,260.8 758.1,260.8" fill="none" stroke="#f85149" stroke-width="1.5" stroke-linejoin="round" class="anim" style="animation-delay:350ms;"/>
<polyline points="758.1,260.8 769.0,252.7 780.0,244.7" fill="none" stroke="#f85149" stroke-width="1" stroke-dasharray="5,4" stroke-linejoin="round" opacity="0.6" class="anim" style="animation-delay:350ms;"/>
<polyline points="90.0,340.0 101.0,340.0 111.9,340.0 122.9,340.0 133.8,340.0 144.8,340.0 155.7,340.0 166.7,340.0 177.6,301.6 188.6,301.6 199.5,301.6 210.5,301.6 221.4,301.6 232.4,301.6 243.3,301.6 254.3,301.6 265.2,301.6 276.2,301.6 287.1,301.6 298.1,301.6 309.0,301.6 320.0,301.6 331.0,301.6 341.9,301.6 352.9,301.6 363.8,301.6 374.8,301.6 385.7,301.6 396.7,301.6 407.6,301.6 418.6,301.6 429.5,301.6 440.5,301.6 451.4,301.6 462.4,263.2 473.3,263.2 484.3,263.2 495.2,263.2 506.2,263.2 517.1,263.2 528.1,263.2 539.0,263.2 550.0,224.8 561.0,224.8 571.9,224.8 582.9,224.8 593.8,224.8 604.8,224.8 615.7,224.8 626.7,224.8 637.6,224.8 648.6,224.8 659.5,224.8 670.5,224.8 681.4,224.8 692.4,224.8 703.3,224.8 714.3,224.8 725.2,148.0 736.2,148.0 747.1,148.0 758.1,148.0" fill="none" stroke="#e3b341" stroke-width="1.5" stroke-dasharray="4,3" stroke-linejoin="round" class="anim" style="animation-delay:400ms;"/>
<polyline points="758.1,148.0 769.0,148.0 780.0,148.0" fill="none" stroke="#e3b341" stroke-width="1" stroke-dasharray="3,5" stroke-linejoin="round" opacity="0.5" class="anim" style="animation-delay:400ms;"/>
<text x="90" y="90" class="subtitle">Lines Added vs Deleted (per snapshot)</text>
<text x="90" y="400" class="subtitle">Programming Language Development (%)</text>
<line x1="90" y1="650.0" x2="780" y2="650.0" stroke="#21262d" stroke-width="1"/>
<text x="82" y="654.0" text-anchor="end" class="axis-label">0%</text>
<line x1="90" y1="590.0" x2="780" y2="590.0" stroke="#21262d" stroke-width="1"/>
<text x="82" y="594.0" text-anchor="end" class="axis-label">25%</text>
<line x1="90" y1="530.0" x2="780" y2="530.0" stroke="#21262d" stroke-width="1"/>
<text x="82" y="534.0" text-anchor="end" class="axis-label">50%</text>
<line x1="90" y1="470.0" x2="780" y2="470.0" stroke="#21262d" stroke-width="1"/>
<text x="82" y="474.0" text-anchor="end" class="axis-label">75%</text>
<line x1="90" y1="410.0" x2="780" y2="410.0" stroke="#21262d" stroke-width="1"/>
<text x="82" y="414.0" text-anchor="end" class="axis-label">100%</text>
<polygon points="90.0,650.0 101.0,650.0 111.9,650.0 122.9,650.0 133.8,650.0 144.8,650.0 155.7,650.0 166.7,650.0 177.6,528.2 188.6,528.5 199.5,529.7 210.5,499.3 221.4,499.3 232.4,502.9 243.3,485.0 254.3,485.1 265.2,485.4 276.2,485.4 287.1,485.4 298.1,485.4 309.0,485.4 320.0,496.4 331.0,496.7 341.9,491.0 352.9,491.0 363.8,491.0 374.8,491.7 385.7,491.8 396.7,494.0 407.6,494.0 418.6,494.4 429.5,494.4 440.5,494.4 451.4,494.4 462.4,507.6 473.3,507.6 484.3,507.9 495.2,507.9 506.2,507.9 517.1,506.3 528.1,506.4 539.0,506.8 550.0,506.9 561.0,506.8 571.9,507.5 582.9,507.5 593.8,507.5 604.8,507.5 615.7,507.5 626.7,507.5 637.6,507.5 648.6,507.5 659.5,507.5 670.5,507.5 681.4,507.5 692.4,507.5 703.3,507.5 714.3,508.6 725.2,508.6 736.2,508.6 747.1,508.6 758.1,508.6 769.0,510.4 780.0,512.2 780.0,650.0 769.0,650.0 758.1,650.0 747.1,650.0 736.2,650.0 725.2,650.0 714.3,650.0 703.3,650.0 692.4,650.0 681.4,650.0 670.5,650.0 659.5,650.0 648.6,650.0 637.6,650.0 626.7,650.0 615.7,650.0 604.8,650.0 593.8,650.0 582.9,650.0 571.9,650.0 561.0,650.0 550.0,650.0 539.0,650.0 528.1,650.0 517.1,650.0 506.2,650.0 495.2,650.0 484.3,650.0 473.3,650.0 462.4,650.0 451.4,650.0 440.5,650.0 429.5,650.0 418.6,650.0 407.6,650.0 396.7,650.0 385.7,650.0 374.8,650.0 363.8,650.0 352.9,650.0 341.9,650.0 331.0,650.0 320.0,650.0 309.0,650.0 298.1,650.0 287.1,650.0 276.2,650.0 265.2,650.0 254.3,650.0 243.3,650.0 232.4,650.0 221.4,650.0 210.5,650.0 199.5,650.0 188.6,650.0 177.6,650.0 166.7,650.0 155.7,650.0 144.8,650.0 133.8,650.0 122.9,650.0 111.9,650.0 101.0,650.0 90.0,650.0" fill="#e34c26" opacity="0.6" class="anim" style="animation-delay:500ms;"/>
<polygon points="90.0,650.0 101.0,650.0 111.9,650.0 122.9,650.0 133.8,650.0 144.8,650.0 155.7,650.0 166.7,650.0 177.6,488.4 188.6,488.0 199.5,489.0 210.5,476.0 221.4,476.0 232.4,477.2 243.3,460.1 254.3,460.2 265.2,460.6 276.2,460.6 287.1,460.6 298.1,460.6 309.0,460.6 320.0,473.0 331.0,473.5 341.9,469.5 352.9,469.5 363.8,469.5 374.8,469.7 385.7,469.7 396.7,469.7 407.6,469.7 418.6,469.7 429.5,469.7 440.5,469.7 451.4,469.7 462.4,455.6 473.3,455.6 484.3,455.4 495.2,455.4 506.2,455.4 517.1,454.3 528.1,454.3 539.0,455.0 550.0,455.1 561.0,454.9 571.9,455.9 582.9,455.9 593.8,455.9 604.8,455.9 615.7,455.9 626.7,455.9 637.6,455.9 648.6,455.9 659.5,455.9 670.5,455.9 681.4,455.9 692.4,455.9 703.3,455.9 714.3,455.8 725.2,455.8 736.2,455.8 747.1,455.8 758.1,455.8 769.0,452.9 780.0,450.0 780.0,512.2 769.0,510.4 758.1,508.6 747.1,508.6 736.2,508.6 725.2,508.6 714.3,508.6 703.3,507.5 692.4,507.5 681.4,507.5 670.5,507.5 659.5,507.5 648.6,507.5 637.6,507.5 626.7,507.5 615.7,507.5 604.8,507.5 593.8,507.5 582.9,507.5 571.9,507.5 561.0,506.8 550.0,506.9 539.0,506.8 528.1,506.4 517.1,506.3 506.2,507.9 495.2,507.9 484.3,507.9 473.3,507.6 462.4,507.6 451.4,494.4 440.5,494.4 429.5,494.4 418.6,494.4 407.6,494.0 396.7,494.0 385.7,491.8 374.8,491.7 363.8,491.0 352.9,491.0 341.9,491.0 331.0,496.7 320.0,496.4 309.0,485.4 298.1,485.4 287.1,485.4 276.2,485.4 265.2,485.4 254.3,485.1 243.3,485.0 232.4,502.9 221.4,499.3 210.5,499.3 199.5,529.7 188.6,528.5 177.6,528.2 166.7,650.0 155.7,650.0 144.8,650.0 133.8,650.0 122.9,650.0 111.9,650.0 101.0,650.0 90.0,650.0" fill="#f1e05a" opacity="0.6" class="anim" style="animation-delay:600ms;"/>
<polygon points="90.0,650.0 101.0,650.0 111.9,650.0 122.9,650.0 133.8,650.0 144.8,650.0 155.7,650.0 166.7,650.0 177.6,455.5 188.6,455.4 199.5,455.1 210.5,447.0 221.4,447.0 232.4,448.2 243.3,438.9 254.3,439.0 265.2,439.6 276.2,439.6 287.1,439.6 298.1,439.6 309.0,439.6 320.0,445.6 331.0,445.6 341.9,443.3 352.9,443.3 363.8,443.3 374.8,443.6 385.7,443.6 396.7,444.1 407.6,444.1 418.6,444.1 429.5,444.1 440.5,444.1 451.4,444.1 462.4,437.5 473.3,437.5 484.3,437.5 495.2,437.5 506.2,437.5 517.1,437.5 528.1,437.5 539.0,438.4 550.0,438.5 561.0,438.3 571.9,439.3 582.9,439.3 593.8,439.3 604.8,439.3 615.7,439.3 626.7,439.3 637.6,439.3 648.6,439.3 659.5,439.3 670.5,439.3 681.4,439.3 692.4,439.3 703.3,439.3 714.3,439.4 725.2,439.4 736.2,439.4 747.1,439.4 758.1,439.4 769.0,438.5 780.0,437.5 780.0,450.0 769.0,452.9 758.1,455.8 747.1,455.8 736.2,455.8 725.2,455.8 714.3,455.8 703.3,455.9 692.4,455.9 681.4,455.9 670.5,455.9 659.5,455.9 648.6,455.9 637.6,455.9 626.7,455.9 615.7,455.9 604.8,455.9 593.8,455.9 582.9,455.9 571.9,455.9 561.0,454.9 550.0,455.1 539.0,455.0 528.1,454.3 517.1,454.3 506.2,455.4 495.2,455.4 484.3,455.4 473.3,455.6 462.4,455.6 451.4,469.7 440.5,469.7 429.5,469.7 418.6,469.7 407.6,469.7 396.7,469.7 385.7,469.7 374.8,469.7 363.8,469.5 352.9,469.5 341.9,469.5 331.0,473.5 320.0,473.0 309.0,460.6 298.1,460.6 287.1,460.6 276.2,460.6 265.2,460.6 254.3,460.2 243.3,460.1 232.4,477.2 221.4,476.0 210.5,476.0 199.5,489.0 188.6,488.0 177.6,488.4 166.7,650.0 155.7,650.0 144.8,650.0 133.8,650.0 122.9,650.0 111.9,650.0 101.0,650.0 90.0,650.0" fill="#3572A5" opacity="0.6" class="anim" style="animation-delay:700ms;"/>
<polygon points="90.0,650.0 101.0,650.0 111.9,650.0 122.9,650.0 133.8,650.0 144.8,650.0 155.7,650.0 166.7,650.0 177.6,442.3 188.6,442.0 199.5,441.6 210.5,439.5 221.4,439.5 232.4,439.4 243.3,432.3 254.3,432.2 265.2,432.6 276.2,432.6 287.1,432.6 298.1,432.6 309.0,432.6 320.0,439.3 331.0,439.3 341.9,437.4 352.9,437.4 363.8,437.4 374.8,437.3 385.7,437.3 396.7,437.1 407.6,437.1 418.6,437.1 429.5,437.1 440.5,437.1 451.4,437.1 462.4,428.7 473.3,428.6 484.3,428.5 495.2,428.5 506.2,428.5 517.1,427.3 528.1,427.3 539.0,427.1 550.0,427.1 561.0,427.1 571.9,427.0 582.9,427.0 593.8,427.0 604.8,427.0 615.7,427.0 626.7,427.0 637.6,427.0 648.6,427.0 659.5,427.0 670.5,427.0 681.4,427.0 692.4,427.0 703.3,427.0 714.3,427.0 725.2,427.1 736.2,427.1 747.1,427.1 758.1,427.1 769.0,425.4 780.0,423.7 780.0,437.5 769.0,438.5 758.1,439.4 747.1,439.4 736.2,439.4 725.2,439.4 714.3,439.4 703.3,439.3 692.4,439.3 681.4,439.3 670.5,439.3 659.5,439.3 648.6,439.3 637.6,439.3 626.7,439.3 615.7,439.3 604.8,439.3 593.8,439.3 582.9,439.3 571.9,439.3 561.0,438.3 550.0,438.5 539.0,438.4 528.1,437.5 517.1,437.5 506.2,437.5 495.2,437.5 484.3,437.5 473.3,437.5 462.4,437.5 451.4,444.1 440.5,444.1 429.5,444.1 418.6,444.1 407.6,444.1 396.7,444.1 385.7,443.6 374.8,443.6 363.8,443.3 352.9,443.3 341.9,443.3 331.0,445.6 320.0,445.6 309.0,439.6 298.1,439.6 287.1,439.6 276.2,439.6 265.2,439.6 254.3,439.0 243.3,438.9 232.4,448.2 221.4,447.0 210.5,447.0 199.5,455.1 188.6,455.4 177.6,455.5 166.7,650.0 155.7,650.0 144.8,650.0 133.8,650.0 122.9,650.0 111.9,650.0 101.0,650.0 90.0,650.0" fill="#663399" opacity="0.6" class="anim" style="animation-delay:800ms;"/>
<polygon points="90.0,650.0 101.0,650.0 111.9,650.0 122.9,650.0 133.8,650.0 144.8,650.0 155.7,650.0 166.7,650.0 177.6,436.6 188.6,436.3 199.5,435.9 210.5,432.2 221.4,432.2 232.4,432.2 243.3,426.2 254.3,426.1 265.2,426.0 276.2,426.0 287.1,426.0 298.1,426.0 309.0,426.0 320.0,430.8 331.0,430.7 341.9,429.3 352.9,429.3 363.8,429.3 374.8,429.2 385.7,429.2 396.7,428.9 407.6,428.9 418.6,428.8 429.5,428.8 440.5,428.8 451.4,428.8 462.4,423.0 473.3,422.9 484.3,422.9 495.2,422.9 506.2,422.9 517.1,422.0 528.1,422.0 539.0,421.9 550.0,421.9 561.0,421.9 571.9,421.8 582.9,421.8 593.8,421.8 604.8,421.8 615.7,421.8 626.7,421.8 637.6,421.8 648.6,421.8 659.5,421.8 670.5,421.8 681.4,421.8 692.4,421.8 703.3,421.8 714.3,421.7 725.2,421.8 736.2,421.8 747.1,421.8 758.1,421.8 769.0,420.4 780.0,419.1 780.0,423.7 769.0,425.4 758.1,427.1 747.1,427.1 736.2,427.1 725.2,427.1 714.3,427.0 703.3,427.0 692.4,427.0 681.4,427.0 670.5,427.0 659.5,427.0 648.6,427.0 637.6,427.0 626.7,427.0 615.7,427.0 604.8,427.0 593.8,427.0 582.9,427.0 571.9,427.0 561.0,427.1 550.0,427.1 539.0,427.1 528.1,427.3 517.1,427.3 506.2,428.5 495.2,428.5 484.3,428.5 473.3,428.6 462.4,428.7 451.4,437.1 440.5,437.1 429.5,437.1 418.6,437.1 407.6,437.1 396.7,437.1 385.7,437.3 374.8,437.3 363.8,437.4 352.9,437.4 341.9,437.4 331.0,439.3 320.0,439.3 309.0,432.6 298.1,432.6 287.1,432.6 276.2,432.6 265.2,432.6 254.3,432.2 243.3,432.3 232.4,439.4 221.4,439.5 210.5,439.5 199.5,441.6 188.6,442.0 177.6,442.3 166.7,650.0 155.7,650.0 144.8,650.0 133.8,650.0 122.9,650.0 111.9,650.0 101.0,650.0 90.0,650.0" fill="#083fa1" opacity="0.6" class="anim" style="animation-delay:900ms;"/>
<polygon points="90.0,650.0 101.0,650.0 111.9,650.0 122.9,650.0 133.8,650.0 144.8,650.0 155.7,650.0 166.7,650.0 177.6,427.0 188.6,426.8 199.5,426.6 210.5,424.2 221.4,424.2 232.4,424.2 243.3,420.4 254.3,420.3 265.2,420.3 276.2,420.3 287.1,420.3 298.1,420.3 309.0,420.3 320.0,423.3 331.0,423.2 341.9,422.4 352.9,422.4 363.8,422.4 374.8,422.3 385.7,422.3 396.7,422.1 407.6,422.1 418.6,422.1 429.5,422.1 440.5,422.1 451.4,422.1 462.4,418.3 473.3,418.3 484.3,418.2 495.2,418.2 506.2,418.2 517.1,417.7 528.1,417.7 539.0,417.6 550.0,417.6 561.0,417.6 571.9,417.6 582.9,417.6 593.8,417.6 604.8,417.6 615.7,417.6 626.7,417.6 637.6,417.6 648.6,417.6 659.5,417.6 670.5,417.6 681.4,417.6 692.4,417.6 703.3,417.6 714.3,417.5 725.2,417.6 736.2,417.6 747.1,417.6 758.1,417.6 769.0,416.8 780.0,416.0 780.0,419.1 769.0,420.4 758.1,421.8 747.1,421.8 736.2,421.8 725.2,421.8 714.3,421.7 703.3,421.8 692.4,421.8 681.4,421.8 670.5,421.8 659.5,421.8 648.6,421.8 637.6,421.8 626.7,421.8 615.7,421.8 604.8,421.8 593.8,421.8 582.9,421.8 571.9,421.8 561.0,421.9 550.0,421.9 539.0,421.9 528.1,422.0 517.1,422.0 506.2,422.9 495.2,422.9 484.3,422.9 473.3,422.9 462.4,423.0 451.4,428.8 440.5,428.8 429.5,428.8 418.6,428.8 407.6,428.9 396.7,428.9 385.7,429.2 374.8,429.2 363.8,429.3 352.9,429.3 341.9,429.3 331.0,430.7 320.0,430.8 309.0,426.0 298.1,426.0 287.1,426.0 276.2,426.0 265.2,426.0 254.3,426.1 243.3,426.2 232.4,432.2 221.4,432.2 210.5,432.2 199.5,435.9 188.6,436.3 177.6,436.6 166.7,650.0 155.7,650.0 144.8,650.0 133.8,650.0 122.9,650.0 111.9,650.0 101.0,650.0 90.0,650.0" fill="#6E4C13" opacity="0.6" class="anim" style="animation-delay:1000ms;"/>
<polygon points="90.0,650.0 101.0,650.0 111.9,650.0 122.9,650.0 133.8,650.0 144.8,650.0 155.7,650.0 166.7,650.0 177.6,418.7 188.6,418.6 199.5,418.5 210.5,417.3 221.4,417.3 232.4,417.2 243.3,415.3 254.3,415.3 265.2,415.2 276.2,415.2 287.1,415.2 298.1,415.2 309.0,415.2 320.0,416.8 331.0,416.8 341.9,416.3 352.9,416.3 363.8,416.3 374.8,416.3 385.7,416.3 396.7,416.2 407.6,416.2 418.6,416.2 429.5,416.2 440.5,416.2 451.4,416.2 462.4,414.2 473.3,414.2 484.3,414.2 495.2,414.2 506.2,414.2 517.1,413.9 528.1,413.9 539.0,413.9 550.0,413.9 561.0,413.9 571.9,413.9 582.9,413.9 593.8,413.9 604.8,413.9 615.7,413.9 626.7,413.9 637.6,413.9 648.6,413.9 659.5,413.9 670.5,413.9 681.4,413.9 692.4,413.9 703.3,413.9 714.3,413.8 725.2,413.8 736.2,413.8 747.1,413.8 758.1,413.8 769.0,413.6 780.0,413.3 780.0,416.0 769.0,416.8 758.1,417.6 747.1,417.6 736.2,417.6 725.2,417.6 714.3,417.5 703.3,417.6 692.4,417.6 681.4,417.6 670.5,417.6 659.5,417.6 648.6,417.6 637.6,417.6 626.7,417.6 615.7,417.6 604.8,417.6 593.8,417.6 582.9,417.6 571.9,417.6 561.0,417.6 550.0,417.6 539.0,417.6 528.1,417.7 517.1,417.7 506.2,418.2 495.2,418.2 484.3,418.2 473.3,418.3 462.4,418.3 451.4,422.1 440.5,422.1 429.5,422.1 418.6,422.1 407.6,422.1 396.7,422.1 385.7,422.3 374.8,422.3 363.8,422.4 352.9,422.4 341.9,422.4 331.0,423.2 320.0,423.3 309.0,420.3 298.1,420.3 287.1,420.3 276.2,420.3 265.2,420.3 254.3,420.3 243.3,420.4 232.4,424.2 221.4,424.2 210.5,424.2 199.5,426.6 188.6,426.8 177.6,427.0 166.7,650.0 155.7,650.0 144.8,650.0 133.8,650.0 122.9,650.0 111.9,650.0 101.0,650.0 90.0,650.0" fill="#F05138" opacity="0.6" class="anim" style="animation-delay:1100ms;"/>
<polygon points="90.0,650.0 101.0,650.0 111.9,650.0 122.9,650.0 133.8,650.0 144.8,650.0 155.7,650.0 166.7,650.0 177.6,414.4 188.6,414.4 199.5,414.3 210.5,413.7 221.4,413.7 232.4,413.7 243.3,412.7 254.3,412.7 265.2,412.7 276.2,412.7 287.1,412.7 298.1,412.7 309.0,412.7 320.0,413.5 331.0,413.4 341.9,413.2 352.9,413.2 363.8,413.2 374.8,413.2 385.7,413.2 396.7,413.1 407.6,413.1 418.6,413.1 429.5,413.1 440.5,413.1 451.4,413.1 462.4,412.2 473.3,412.1 484.3,412.1 495.2,412.1 506.2,412.1 517.1,412.0 528.1,412.0 539.0,412.0 550.0,412.0 561.0,412.0 571.9,412.0 582.9,412.0 593.8,412.0 604.8,412.0 615.7,412.0 626.7,412.0 637.6,412.0 648.6,412.0 659.5,412.0 670.5,412.0 681.4,412.0 692.4,412.0 703.3,412.0 714.3,411.9 725.2,411.9 736.2,411.9 747.1,411.9 758.1,411.9 769.0,411.9 780.0,411.9 780.0,413.3 769.0,413.6 758.1,413.8 747.1,413.8 736.2,413.8 725.2,413.8 714.3,413.8 703.3,413.9 692.4,413.9 681.4,413.9 670.5,413.9 659.5,413.9 648.6,413.9 637.6,413.9 626.7,413.9 615.7,413.9 604.8,413.9 593.8,413.9 582.9,413.9 571.9,413.9 561.0,413.9 550.0,413.9 539.0,413.9 528.1,413.9 517.1,413.9 506.2,414.2 495.2,414.2 484.3,414.2 473.3,414.2 462.4,414.2 451.4,416.2 440.5,416.2 429.5,416.2 418.6,416.2 407.6,416.2 396.7,416.2 385.7,416.3 374.8,416.3 363.8,416.3 352.9,416.3 341.9,416.3 331.0,416.8 320.0,416.8 309.0,415.2 298.1,415.2 287.1,415.2 276.2,415.2 265.2,415.2 254.3,415.3 243.3,415.3 232.4,417.2 221.4,417.3 210.5,417.3 199.5,418.5 188.6,418.6 177.6,418.7 166.7,650.0 155.7,650.0 144.8,650.0 133.8,650.0 122.9,650.0 111.9,650.0 101.0,650.0 90.0,650.0" fill="#b07219" opacity="0.6" class="anim" style="animation-delay:1200ms;"/>
<line x1="758.1" y1="100" x2="758.1" y2="650" stroke="#c9d1d9" stroke-width="1" stroke-dasharray="4,3" opacity="0.35"/>
<text x="769.0" y="112" text-anchor="middle" class="axis-label" opacity="0.6">Jun 23, 2026</text>
<text x="90.0" y="668" text-anchor="middle" class="axis-label" transform="rotate(-35 90.0 668)">2026-02</text>
<text x="396.7" y="668" text-anchor="middle" class="axis-label" transform="rotate(-35 396.7 668)">2026-03</text>
<text x="703.3" y="668" text-anchor="middle" class="axis-label" transform="rotate(-35 703.3 668)">2026-04</text>
<text x="780.0" y="668" text-anchor="middle" class="axis-label" transform="rotate(-35 780.0 668)">Jul 07, 2026</text>
<line x1="796" y1="110" x2="824" y2="110" stroke="#3fb950" stroke-width="2"/>
<text x="832" y="116" class="legend-text">Lines Added</text>
<line x1="796" y1="140" x2="824" y2="140" stroke="#f85149" stroke-width="1.5"/>
<text x="832" y="146" class="legend-text">Lines Deleted</text>
<line x1="796" y1="170" x2="824" y2="170" stroke="#e3b341" stroke-width="1.5" stroke-dasharray="4,3"/>
<text x="832" y="176" class="legend-text">&#x2605; Stars</text>
<text x="796" y="200" class="subtitle">Languages</text>
<rect x="796" y="212" width="12" height="12" rx="2" fill="#e34c26" opacity="0.8" class="anim" style="animation-delay:800ms;"/>
<text x="814" y="223" class="legend-text">HTML (59%→57%)</text>
<rect x="796" y="234" width="12" height="12" rx="2" fill="#f1e05a" opacity="0.8" class="anim" style="animation-delay:880ms;"/>
<text x="814" y="245" class="legend-text">JavaScript (22%→26%)</text>
<rect x="796" y="256" width="12" height="12" rx="2" fill="#3572A5" opacity="0.8" class="anim" style="animation-delay:960ms;"/>
<text x="814" y="267" class="legend-text">Python (7%→5%)</text>
<rect x="796" y="278" width="12" height="12" rx="2" fill="#663399" opacity="0.8" class="anim" style="animation-delay:1040ms;"/>
<text x="814" y="289" class="legend-text">CSS (5%→6%)</text>
<rect x="796" y="300" width="12" height="12" rx="2" fill="#083fa1" opacity="0.8" class="anim" style="animation-delay:1120ms;"/>
<text x="814" y="311" class="legend-text">Markdown (2%→2%)</text>
<rect x="796" y="322" width="12" height="12" rx="2" fill="#6E4C13" opacity="0.8" class="anim" style="animation-delay:1200ms;"/>
<text x="814" y="333" class="legend-text">Assembly (2%→1%)</text>
<rect x="796" y="344" width="12" height="12" rx="2" fill="#F05138" opacity="0.8" class="anim" style="animation-delay:1280ms;"/>
<text x="814" y="355" class="legend-text">Swift (2%→1%)</text>
<rect x="796" y="366" width="12" height="12" rx="2" fill="#b07219" opacity="0.8" class="anim" style="animation-delay:1360ms;"/>
<text x="814" y="377" class="legend-text">Java (1%→1%)</text>
<text x="796" y="412" class="subtitle">Contributions</text>
<text x="796" y="432" class="axis-label">2023: 39</text>
<text x="796" y="452" class="axis-label">2024: 646</text>
<text x="796" y="472" class="axis-label">2025: 1,780</text>
<text x="796" y="492" class="axis-label">2026: 479</text>
<text x="796" y="522" class="subtitle">Statistics</text>
<text x="796" y="542" class="axis-label">Active weeks: 86</text>
<text x="796" y="562" class="axis-label">Add/Del ratio: 1.6x</text>
<text x="796" y="582" class="axis-label">Avg lines/wk: 18K</text>
<text x="796" y="602" class="axis-label">Peak: 2026-02-15</text>
<text x="796" y="622" class="axis-label">  (543K lines)</text>
<text x="90" y="742" class="axis-label">Total: +930,187 / -576,375 lines &#xb7; 2,944 contributions &#xb7; 79 repos &#xb7; &#x2605; 37</text>
</svg>