<svg xmlns="http://www.w3.org/2000/svg" width="1000" height="760" style="max-width: 100%;" viewBox="0 0 1000 760">

<defs>
  <linearGradient id="areaGrad" x1="0" y1="0" x2="0" y2="1">
    <stop offset="0%" stop-color="#58a6ff" stop-opacity="0.35"/>
    <stop offset="100%" stop-color="#58a6ff" stop-opacity="0.02"/>
  </linearGradient>
  <linearGradient id="addGrad" x1="0" y1="0" x2="0" y2="1">
    <stop offset="0%" stop-color="#3fb950" stop-opacity="0.35"/>
    <stop offset="100%" stop-color="#3fb950" stop-opacity="0.02"/>
  </linearGradient>
  <linearGradient id="delGrad" x1="0" y1="0" x2="0" y2="1">
    <stop offset="0%" stop-color="#f85149" stop-opacity="0.25"/>
    <stop offset="100%" stop-color="#f85149" stop-opacity="0.02"/>
  </linearGradient>
</defs>
<style>
  .title { font: bold 28px 'Segoe UI', Ubuntu, Sans-Serif; fill: #c9d1d9; }
  .subtitle { font: 600 20px 'Segoe UI', Ubuntu, Sans-Serif; fill: #c9d1d9; opacity: 0.8; }
  .axis-label { font: 18px 'Segoe UI', Ubuntu, Sans-Serif; fill: #c9d1d9; opacity: 0.7; }
  .legend-text { font: 14px 'Segoe UI', Ubuntu, Sans-Serif; fill: #c9d1d9; }
  .value-text { font: bold 18px 'Segoe UI', Ubuntu, Sans-Serif; fill: #c9d1d9; }
  .stat-value { font: bold 22px 'Segoe UI', Ubuntu, Sans-Serif; fill: #c9d1d9; }
  .stat-label { font: 18px 'Segoe UI', Ubuntu, Sans-Serif; fill: #c9d1d9; opacity: 0.7; }
  @keyframes fadeIn { from { opacity: 0; } to { opacity: 1; } }
  .anim { animation: fadeIn 0.6s ease-in-out forwards; opacity: 0; }
</style>

<rect x="0.5" y="0.5" rx="4.5" width="999" height="759" fill="#161b22" stroke="#21262d"/>
<text x="90" y="45" class="title">Activity History</text>
<text x="90" y="72" class="subtitle">Lines added vs deleted &amp; activity trends over time</text>
<line x1="90" y1="340.0" x2="780" y2="340.0" stroke="#21262d" stroke-width="1"/>
<text x="82" y="344.0" text-anchor="end" class="axis-label">0</text>
<line x1="90" y1="280.0" x2="780" y2="280.0" stroke="#21262d" stroke-width="1"/>
<text x="82" y="284.0" text-anchor="end" class="axis-label">453K</text>
<line x1="90" y1="220.0" x2="780" y2="220.0" stroke="#21262d" stroke-width="1"/>
<text x="82" y="224.0" text-anchor="end" class="axis-label">906K</text>
<line x1="90" y1="160.0" x2="780" y2="160.0" stroke="#21262d" stroke-width="1"/>
<text x="82" y="164.0" text-anchor="end" class="axis-label">1.4M</text>
<line x1="90" y1="100.0" x2="780" y2="100.0" stroke="#21262d" stroke-width="1"/>
<text x="82" y="104.0" text-anchor="end" class="axis-label">1.8M</text>
<polygon points="90.0,340.0 90.0,291.6 96.4,293.4 102.8,291.7 109.2,293.4 115.6,304.5 121.9,282.4 128.3,282.4 134.7,274.0 141.1,273.7 147.5,273.2 153.9,273.1 160.3,258.2 166.7,258.2 173.1,258.2 179.4,236.1 185.8,235.9 192.2,235.6 198.6,235.6 205.0,235.6 211.4,235.6 217.8,235.6 224.2,235.0 230.6,220.3 236.9,220.2 243.3,220.2 249.7,220.2 256.1,219.9 262.5,219.9 268.9,219.3 275.3,219.3 281.7,219.2 288.1,219.2 294.4,219.2 300.8,219.2 307.2,219.2 313.6,219.2 320.0,219.2 326.4,219.2 332.8,219.2 339.2,219.2 345.6,219.2 351.9,218.6 358.3,218.8 364.7,218.1 371.1,217.8 377.5,217.8 383.9,217.8 390.3,217.8 396.7,217.8 403.1,217.8 409.4,217.8 415.8,217.8 422.2,217.8 428.6,217.8 435.0,218.1 441.4,219.6 447.8,218.1 454.2,216.9 460.6,216.8 466.9,216.8 473.3,216.8 479.7,216.8 486.1,209.2 492.5,202.3 498.9,202.3 505.3,202.3 511.7,202.3 518.1,202.3 524.4,202.3 530.8,202.3 537.2,202.3 543.6,202.2 550.0,202.2 556.4,202.2 562.8,202.2 569.2,202.2 575.6,202.2 581.9,202.2 588.3,202.2 594.7,202.2 601.1,202.2 607.5,202.2 613.9,202.2 620.3,202.2 626.7,202.2 633.1,202.2 639.4,202.2 645.8,202.2 652.2,202.2 658.6,202.2 665.0,202.2 671.4,202.2 677.8,202.2 684.2,202.2 690.6,202.2 696.9,202.2 703.3,202.2 709.7,202.2 716.1,202.2 722.5,202.2 728.9,202.2 735.3,202.2 741.7,202.2 748.1,202.2 754.4,202.2 760.8,202.2 767.2,202.2 773.6,194.5 780.0,186.7 780.0,340.0" fill="url(#addGrad)" class="anim" style="animation-delay:200ms;"/>
<polyline points="90.0,291.6 96.4,293.4 102.8,291.7 109.2,293.4 115.6,304.5 121.9,282.4 128.3,282.4 134.7,274.0 141.1,273.7 147.5,273.2 153.9,273.1 160.3,258.2 166.7,258.2 173.1,258.2 179.4,236.1 185.8,235.9 192.2,235.6 198.6,235.6 205.0,235.6 211.4,235.6 217.8,235.6 224.2,235.0 230.6,220.3 236.9,220.2 243.3,220.2 249.7,220.2 256.1,219.9 262.5,219.9 268.9,219.3 275.3,219.3 281.7,219.2 288.1,219.2 294.4,219.2 300.8,219.2 307.2,219.2 313.6,219.2 320.0,219.2 326.4,219.2 332.8,219.2 339.2,219.2 345.6,219.2 351.9,218.6 358.3,218.8 364.7,218.1 371.1,217.8 377.5,217.8 383.9,217.8 390.3,217.8 396.7,217.8 403.1,217.8 409.4,217.8 415.8,217.8 422.2,217.8 428.6,217.8 435.0,218.1 441.4,219.6 447.8,218.1 454.2,216.9 460.6,216.8 466.9,216.8 473.3,216.8 479.7,216.8 486.1,209.2 492.5,202.3 498.9,202.3 505.3,202.3 511.7,202.3 518.1,202.3 524.4,202.3 530.8,202.3 537.2,202.3 543.6,202.2 550.0,202.2 556.4,202.2 562.8,202.2 569.2,202.2 575.6,202.2 581.9,202.2 588.3,202.2 594.7,202.2 601.1,202.2 607.5,202.2 613.9,202.2 620.3,202.2 626.7,202.2 633.1,202.2 639.4,202.2 645.8,202.2 652.2,202.2 658.6,202.2 665.0,202.2 671.4,202.2 677.8,202.2 684.2,202.2 690.6,202.2 696.9,202.2 703.3,202.2 709.7,202.2 716.1,202.2 722.5,202.2 728.9,202.2 735.3,202.2 741.7,202.2 748.1,202.2 754.4,202.2 760.8,202.2 767.2,202.2" fill="none" stroke="#3fb950" stroke-width="2" stroke-linejoin="round" class="anim" style="animation-delay:250ms;"/>
<polyline points="767.2,202.2 773.6,194.5 780.0,186.7" fill="none" stroke="#3fb950" stroke-width="1.5" stroke-dasharray="5,4" stroke-linejoin="round" opacity="0.6" class="anim" style="animation-delay:250ms;"/>
<polygon points="90.0,340.0 90.0,326.4 96.4,327.8 102.8,326.4 109.2,327.8 115.6,333.6 121.9,324.8 128.3,324.7 134.7,323.8 141.1,323.4 147.5,323.2 153.9,323.1 160.3,307.1 166.7,307.1 173.1,307.1 179.4,288.9 185.8,288.8 192.2,288.8 198.6,288.8 205.0,288.8 211.4,288.8 217.8,288.8 224.2,279.3 230.6,264.8 236.9,264.8 243.3,264.8 249.7,264.8 256.1,264.7 262.5,264.7 268.9,264.6 275.3,264.6 281.7,264.6 288.1,264.6 294.4,264.6 300.8,264.6 307.2,264.6 313.6,264.6 320.0,264.6 326.4,264.6 332.8,264.6 339.2,264.6 345.6,264.6 351.9,264.6 358.3,264.6 364.7,264.1 371.1,264.1 377.5,264.1 383.9,264.1 390.3,264.1 396.7,264.1 403.1,264.1 409.4,264.1 415.8,264.1 422.2,264.1 428.6,264.2 435.0,264.2 441.4,265.0 447.8,264.5 454.2,263.7 460.6,263.7 466.9,263.7 473.3,263.7 479.7,263.7 486.1,263.6 492.5,263.6 498.9,263.6 505.3,263.6 511.7,263.6 518.1,263.6 524.4,263.6 530.8,263.6 537.2,263.6 543.6,263.6 550.0,263.6 556.4,263.6 562.8,263.6 569.2,263.6 575.6,263.6 581.9,263.6 588.3,263.6 594.7,263.6 601.1,263.6 607.5,263.6 613.9,263.6 620.3,263.6 626.7,263.6 633.1,263.6 639.4,263.6 645.8,263.6 652.2,263.6 658.6,263.6 665.0,263.6 671.4,263.6 677.8,263.6 684.2,263.6 690.6,263.6 696.9,263.6 703.3,263.6 709.7,263.6 716.1,263.6 722.5,263.6 728.9,263.6 735.3,263.6 741.7,263.6 748.1,263.6 754.4,263.6 760.8,263.6 767.2,263.6 773.6,258.4 780.0,253.3 780.0,340.0" fill="url(#delGrad)" class="anim" style="animation-delay:300ms;"/>
<polyline points="90.0,326.4 96.4,327.8 102.8,326.4 109.2,327.8 115.6,333.6 121.9,324.8 128.3,324.7 134.7,323.8 141.1,323.4 147.5,323.2 153.9,323.1 160.3,307.1 166.7,307.1 173.1,307.1 179.4,288.9 185.8,288.8 192.2,288.8 198.6,288.8 205.0,288.8 211.4,288.8 217.8,288.8 224.2,279.3 230.6,264.8 236.9,264.8 243.3,264.8 249.7,264.8 256.1,264.7 262.5,264.7 268.9,264.6 275.3,264.6 281.7,264.6 288.1,264.6 294.4,264.6 300.8,264.6 307.2,264.6 313.6,264.6 320.0,264.6 326.4,264.6 332.8,264.6 339.2,264.6 345.6,264.6 351.9,264.6 358.3,264.6 364.7,264.1 371.1,264.1 377.5,264.1 383.9,264.1 390.3,264.1 396.7,264.1 403.1,264.1 409.4,264.1 415.8,264.1 422.2,264.1 428.6,264.2 435.0,264.2 441.4,265.0 447.8,264.5 454.2,263.7 460.6,263.7 466.9,263.7 473.3,263.7 479.7,263.7 486.1,263.6 492.5,263.6 498.9,263.6 505.3,263.6 511.7,263.6 518.1,263.6 524.4,263.6 530.8,263.6 537.2,263.6 543.6,263.6 550.0,263.6 556.4,263.6 562.8,263.6 569.2,263.6 575.6,263.6 581.9,263.6 588.3,263.6 594.7,263.6 601.1,263.6 607.5,263.6 613.9,263.6 620.3,263.6 626.7,263.6 633.1,263.6 639.4,263.6 645.8,263.6 652.2,263.6 658.6,263.6 665.0,263.6 671.4,263.6 677.8,263.6 684.2,263.6 690.6,263.6 696.9,263.6 703.3,263.6 709.7,263.6 716.1,263.6 722.5,263.6 728.9,263.6 735.3,263.6 741.7,263.6 748.1,263.6 754.4,263.6 760.8,263.6 767.2,263.6" fill="none" stroke="#f85149" stroke-width="1.5" stroke-linejoin="round" class="anim" style="animation-delay:350ms;"/>
<polyline points="767.2,263.6 773.6,258.4 780.0,253.3" fill="none" stroke="#f85149" stroke-width="1" stroke-dasharray="5,4" stroke-linejoin="round" opacity="0.6" class="anim" style="animation-delay:350ms;"/>
<polyline points="90.0,340.0 96.4,340.0 102.8,340.0 109.2,340.0 115.6,340.0 121.9,340.0 128.3,340.0 134.7,340.0 141.1,308.0 147.5,308.0 153.9,308.0 160.3,308.0 166.7,308.0 173.1,308.0 179.4,308.0 185.8,308.0 192.2,308.0 198.6,308.0 205.0,308.0 211.4,308.0 217.8,308.0 224.2,308.0 230.6,308.0 236.9,308.0 243.3,308.0 249.7,308.0 256.1,308.0 262.5,308.0 268.9,308.0 275.3,308.0 281.7,308.0 288.1,308.0 294.4,308.0 300.8,308.0 307.2,276.0 313.6,276.0 320.0,276.0 326.4,276.0 332.8,276.0 339.2,276.0 345.6,276.0 351.9,276.0 358.3,244.0 364.7,244.0 371.1,244.0 377.5,244.0 383.9,244.0 390.3,244.0 396.7,244.0 403.1,244.0 409.4,244.0 415.8,244.0 422.2,244.0 428.6,244.0 435.0,244.0 441.4,244.0 447.8,244.0 454.2,244.0 460.6,180.0 466.9,180.0 473.3,180.0 479.7,180.0 486.1,180.0 492.5,180.0 498.9,180.0 505.3,180.0 511.7,180.0 518.1,180.0 524.4,180.0 530.8,180.0 537.2,180.0 543.6,180.0 550.0,180.0 556.4,180.0 562.8,180.0 569.2,180.0 575.6,180.0 581.9,180.0 588.3,180.0 594.7,180.0 601.1,180.0 607.5,180.0 613.9,180.0 620.3,180.0 626.7,180.0 633.1,180.0 639.4,180.0 645.8,180.0 652.2,180.0 658.6,180.0 665.0,180.0 671.4,180.0 677.8,180.0 684.2,180.0 690.6,180.0 696.9,180.0 703.3,180.0 709.7,180.0 716.1,180.0 722.5,180.0 728.9,180.0 735.3,180.0 741.7,180.0 748.1,180.0 754.4,180.0 760.8,180.0 767.2,180.0" fill="none" stroke="#e3b341" stroke-width="1.5" stroke-dasharray="4,3" stroke-linejoin="round" class="anim" style="animation-delay:400ms;"/>
<polyline points="767.2,180.0 773.6,180.0 780.0,148.0" fill="none" stroke="#e3b341" stroke-width="1" stroke-dasharray="3,5" stroke-linejoin="round" opacity="0.5" class="anim" style="animation-delay:400ms;"/>
<text x="90" y="90" class="subtitle">Lines Added vs Deleted (per snapshot)</text>
<text x="90" y="400" class="subtitle">Programming Language Development (%)</text>
<line x1="90" y1="650.0" x2="780" y2="650.0" stroke="#21262d" stroke-width="1"/>
<text x="82" y="654.0" text-anchor="end" class="axis-label">0%</text>
<line x1="90" y1="590.0" x2="780" y2="590.0" stroke="#21262d" stroke-width="1"/>
<text x="82" y="594.0" text-anchor="end" class="axis-label">25%</text>
<line x1="90" y1="530.0" x2="780" y2="530.0" stroke="#21262d" stroke-width="1"/>
<text x="82" y="534.0" text-anchor="end" class="axis-label">50%</text>
<line x1="90" y1="470.0" x2="780" y2="470.0" stroke="#21262d" stroke-width="1"/>
<text x="82" y="474.0" text-anchor="end" class="axis-label">75%</text>
<line x1="90" y1="410.0" x2="780" y2="410.0" stroke="#21262d" stroke-width="1"/>
<text x="82" y="414.0" text-anchor="end" class="axis-label">100%</text>
<polygon points="90.0,650.0 96.4,650.0 102.8,650.0 109.2,650.0 115.6,650.0 121.9,650.0 128.3,650.0 134.7,650.0 141.1,528.2 147.5,528.5 153.9,529.7 160.3,499.3 166.7,499.3 173.1,502.9 179.4,485.0 185.8,485.1 192.2,485.4 198.6,485.4 205.0,485.4 211.4,485.4 217.8,485.4 224.2,496.4 230.6,496.7 236.9,491.0 243.3,491.0 249.7,491.0 256.1,491.7 262.5,491.8 268.9,494.0 275.3,494.0 281.7,494.4 288.1,494.4 294.4,494.4 300.8,494.4 307.2,507.6 313.6,507.6 320.0,507.9 326.4,507.9 332.8,507.9 339.2,506.3 345.6,506.4 351.9,506.8 358.3,506.9 364.7,506.8 371.1,507.5 377.5,507.5 383.9,507.5 390.3,507.5 396.7,507.5 403.1,507.5 409.4,507.5 415.8,507.5 422.2,507.5 428.6,507.5 435.0,507.5 441.4,507.5 447.8,507.5 454.2,508.6 460.6,508.6 466.9,508.6 473.3,508.6 479.7,508.6 486.1,509.5 492.5,509.8 498.9,509.8 505.3,509.8 511.7,509.8 518.1,509.8 524.4,509.8 530.8,509.8 537.2,509.8 543.6,510.9 550.0,510.9 556.4,510.9 562.8,510.9 569.2,510.9 575.6,510.9 581.9,510.9 588.3,510.9 594.7,510.9 601.1,510.9 607.5,510.9 613.9,510.9 620.3,510.9 626.7,510.9 633.1,510.9 639.4,510.9 645.8,510.9 652.2,510.9 658.6,510.9 665.0,510.9 671.4,510.9 677.8,510.9 684.2,510.9 690.6,510.9 696.9,510.9 703.3,510.9 709.7,510.9 716.1,510.9 722.5,510.9 728.9,510.9 735.3,510.9 741.7,510.9 748.1,510.9 754.4,510.9 760.8,510.9 767.2,510.9 773.6,513.0 780.0,515.1 780.0,650.0 773.6,650.0 767.2,650.0 760.8,650.0 754.4,650.0 748.1,650.0 741.7,650.0 735.3,650.0 728.9,650.0 722.5,650.0 716.1,650.0 709.7,650.0 703.3,650.0 696.9,650.0 690.6,650.0 684.2,650.0 677.8,650.0 671.4,650.0 665.0,650.0 658.6,650.0 652.2,650.0 645.8,650.0 639.4,650.0 633.1,650.0 626.7,650.0 620.3,650.0 613.9,650.0 607.5,650.0 601.1,650.0 594.7,650.0 588.3,650.0 581.9,650.0 575.6,650.0 569.2,650.0 562.8,650.0 556.4,650.0 550.0,650.0 543.6,650.0 537.2,650.0 530.8,650.0 524.4,650.0 518.1,650.0 511.7,650.0 505.3,650.0 498.9,650.0 492.5,650.0 486.1,650.0 479.7,650.0 473.3,650.0 466.9,650.0 460.6,650.0 454.2,650.0 447.8,650.0 441.4,650.0 435.0,650.0 428.6,650.0 422.2,650.0 415.8,650.0 409.4,650.0 403.1,650.0 396.7,650.0 390.3,650.0 383.9,650.0 377.5,650.0 371.1,650.0 364.7,650.0 358.3,650.0 351.9,650.0 345.6,650.0 339.2,650.0 332.8,650.0 326.4,650.0 320.0,650.0 313.6,650.0 307.2,650.0 300.8,650.0 294.4,650.0 288.1,650.0 281.7,650.0 275.3,650.0 268.9,650.0 262.5,650.0 256.1,650.0 249.7,650.0 243.3,650.0 236.9,650.0 230.6,650.0 224.2,650.0 217.8,650.0 211.4,650.0 205.0,650.0 198.6,650.0 192.2,650.0 185.8,650.0 179.4,650.0 173.1,650.0 166.7,650.0 160.3,650.0 153.9,650.0 147.5,650.0 141.1,650.0 134.7,650.0 128.3,650.0 121.9,650.0 115.6,650.0 109.2,650.0 102.8,650.0 96.4,650.0 90.0,650.0" fill="#e34c26" opacity="0.6" class="anim" style="animation-delay:500ms;"/>
<polygon points="90.0,650.0 96.4,650.0 102.8,650.0 109.2,650.0 115.6,650.0 121.9,650.0 128.3,650.0 134.7,650.0 141.1,488.4 147.5,488.0 153.9,489.0 160.3,476.0 166.7,476.0 173.1,477.2 179.4,460.1 185.8,460.2 192.2,460.6 198.6,460.6 205.0,460.6 211.4,460.6 217.8,460.6 224.2,473.0 230.6,473.5 236.9,469.5 243.3,469.5 249.7,469.5 256.1,469.7 262.5,469.7 268.9,469.7 275.3,469.7 281.7,469.7 288.1,469.7 294.4,469.7 300.8,469.7 307.2,455.6 313.6,455.6 320.0,455.4 326.4,455.4 332.8,455.4 339.2,454.3 345.6,454.3 351.9,455.0 358.3,455.1 364.7,454.9 371.1,455.9 377.5,455.9 383.9,455.9 390.3,455.9 396.7,455.9 403.1,455.9 409.4,455.9 415.8,455.9 422.2,455.9 428.6,455.9 435.0,455.9 441.4,455.9 447.8,455.9 454.2,455.8 460.6,455.8 466.9,455.8 473.3,455.8 479.7,455.8 486.1,457.0 492.5,457.4 498.9,457.4 505.3,457.4 511.7,457.4 518.1,457.4 524.4,457.4 530.8,457.4 537.2,457.4 543.6,458.2 550.0,458.2 556.4,458.2 562.8,458.2 569.2,458.2 575.6,458.2 581.9,458.2 588.3,458.2 594.7,458.2 601.1,458.2 607.5,458.2 613.9,458.2 620.3,458.2 626.7,458.2 633.1,458.2 639.4,458.2 645.8,458.2 652.2,458.2 658.6,458.2 665.0,458.2 671.4,458.2 677.8,458.2 684.2,458.2 690.6,458.2 696.9,458.2 703.3,458.2 709.7,458.2 716.1,458.2 722.5,458.2 728.9,458.2 735.3,458.2 741.7,458.2 748.1,458.2 754.4,458.2 760.8,458.2 767.2,458.2 773.6,456.7 780.0,455.2 780.0,515.1 773.6,513.0 767.2,510.9 760.8,510.9 754.4,510.9 748.1,510.9 741.7,510.9 735.3,510.9 728.9,510.9 722.5,510.9 716.1,510.9 709.7,510.9 703.3,510.9 696.9,510.9 690.6,510.9 684.2,510.9 677.8,510.9 671.4,510.9 665.0,510.9 658.6,510.9 652.2,510.9 645.8,510.9 639.4,510.9 633.1,510.9 626.7,510.9 620.3,510.9 613.9,510.9 607.5,510.9 601.1,510.9 594.7,510.9 588.3,510.9 581.9,510.9 575.6,510.9 569.2,510.9 562.8,510.9 556.4,510.9 550.0,510.9 543.6,510.9 537.2,509.8 530.8,509.8 524.4,509.8 518.1,509.8 511.7,509.8 505.3,509.8 498.9,509.8 492.5,509.8 486.1,509.5 479.7,508.6 473.3,508.6 466.9,508.6 460.6,508.6 454.2,508.6 447.8,507.5 441.4,507.5 435.0,507.5 428.6,507.5 422.2,507.5 415.8,507.5 409.4,507.5 403.1,507.5 396.7,507.5 390.3,507.5 383.9,507.5 377.5,507.5 371.1,507.5 364.7,506.8 358.3,506.9 351.9,506.8 345.6,506.4 339.2,506.3 332.8,507.9 326.4,507.9 320.0,507.9 313.6,507.6 307.2,507.6 300.8,494.4 294.4,494.4 288.1,494.4 281.7,494.4 275.3,494.0 268.9,494.0 262.5,491.8 256.1,491.7 249.7,491.0 243.3,491.0 236.9,491.0 230.6,496.7 224.2,496.4 217.8,485.4 211.4,485.4 205.0,485.4 198.6,485.4 192.2,485.4 185.8,485.1 179.4,485.0 173.1,502.9 166.7,499.3 160.3,499.3 153.9,529.7 147.5,528.5 141.1,528.2 134.7,650.0 128.3,650.0 121.9,650.0 115.6,650.0 109.2,650.0 102.8,650.0 96.4,650.0 90.0,650.0" fill="#f1e05a" opacity="0.6" class="anim" style="animation-delay:600ms;"/>
<polygon points="90.0,650.0 96.4,650.0 102.8,650.0 109.2,650.0 115.6,650.0 121.9,650.0 128.3,650.0 134.7,650.0 141.1,455.5 147.5,455.4 153.9,455.1 160.3,447.0 166.7,447.0 173.1,448.2 179.4,438.9 185.8,439.0 192.2,439.6 198.6,439.6 205.0,439.6 211.4,439.6 217.8,439.6 224.2,445.6 230.6,445.6 236.9,443.3 243.3,443.3 249.7,443.3 256.1,443.6 262.5,443.6 268.9,444.1 275.3,444.1 281.7,444.1 288.1,444.1 294.4,444.1 300.8,444.1 307.2,437.5 313.6,437.5 320.0,437.5 326.4,437.5 332.8,437.5 339.2,437.5 345.6,437.5 351.9,438.4 358.3,438.5 364.7,438.3 371.1,439.3 377.5,439.3 383.9,439.3 390.3,439.3 396.7,439.3 403.1,439.3 409.4,439.3 415.8,439.3 422.2,439.3 428.6,439.3 435.0,439.3 441.4,439.3 447.8,439.3 454.2,439.4 460.6,439.4 466.9,439.4 473.3,439.4 479.7,439.4 486.1,440.7 492.5,441.1 498.9,441.1 505.3,441.1 511.7,441.1 518.1,441.1 524.4,441.1 530.8,441.1 537.2,441.1 543.6,442.0 550.0,442.0 556.4,442.0 562.8,442.0 569.2,442.0 575.6,442.0 581.9,442.0 588.3,442.0 594.7,442.0 601.1,442.0 607.5,442.0 613.9,442.0 620.3,442.0 626.7,442.0 633.1,442.0 639.4,442.0 645.8,442.0 652.2,442.0 658.6,442.0 665.0,442.0 671.4,442.0 677.8,442.0 684.2,442.0 690.6,442.0 696.9,442.0 703.3,442.0 709.7,442.0 716.1,442.0 722.5,442.0 728.9,442.0 735.3,442.0 741.7,442.0 748.1,442.0 754.4,442.0 760.8,442.0 767.2,442.0 773.6,441.9 780.0,441.8 780.0,455.2 773.6,456.7 767.2,458.2 760.8,458.2 754.4,458.2 748.1,458.2 741.7,458.2 735.3,458.2 728.9,458.2 722.5,458.2 716.1,458.2 709.7,458.2 703.3,458.2 696.9,458.2 690.6,458.2 684.2,458.2 677.8,458.2 671.4,458.2 665.0,458.2 658.6,458.2 652.2,458.2 645.8,458.2 639.4,458.2 633.1,458.2 626.7,458.2 620.3,458.2 613.9,458.2 607.5,458.2 601.1,458.2 594.7,458.2 588.3,458.2 581.9,458.2 575.6,458.2 569.2,458.2 562.8,458.2 556.4,458.2 550.0,458.2 543.6,458.2 537.2,457.4 530.8,457.4 524.4,457.4 518.1,457.4 511.7,457.4 505.3,457.4 498.9,457.4 492.5,457.4 486.1,457.0 479.7,455.8 473.3,455.8 466.9,455.8 460.6,455.8 454.2,455.8 447.8,455.9 441.4,455.9 435.0,455.9 428.6,455.9 422.2,455.9 415.8,455.9 409.4,455.9 403.1,455.9 396.7,455.9 390.3,455.9 383.9,455.9 377.5,455.9 371.1,455.9 364.7,454.9 358.3,455.1 351.9,455.0 345.6,454.3 339.2,454.3 332.8,455.4 326.4,455.4 320.0,455.4 313.6,455.6 307.2,455.6 300.8,469.7 294.4,469.7 288.1,469.7 281.7,469.7 275.3,469.7 268.9,469.7 262.5,469.7 256.1,469.7 249.7,469.5 243.3,469.5 236.9,469.5 230.6,473.5 224.2,473.0 217.8,460.6 211.4,460.6 205.0,460.6 198.6,460.6 192.2,460.6 185.8,460.2 179.4,460.1 173.1,477.2 166.7,476.0 160.3,476.0 153.9,489.0 147.5,488.0 141.1,488.4 134.7,650.0 128.3,650.0 121.9,650.0 115.6,650.0 109.2,650.0 102.8,650.0 96.4,650.0 90.0,650.0" fill="#3572A5" opacity="0.6" class="anim" style="animation-delay:700ms;"/>
<polygon points="90.0,650.0 96.4,650.0 102.8,650.0 109.2,650.0 115.6,650.0 121.9,650.0 128.3,650.0 134.7,650.0 141.1,442.3 147.5,442.0 153.9,441.6 160.3,439.5 166.7,439.5 173.1,439.4 179.4,432.3 185.8,432.2 192.2,432.6 198.6,432.6 205.0,432.6 211.4,432.6 217.8,432.6 224.2,439.3 230.6,439.3 236.9,437.4 243.3,437.4 249.7,437.4 256.1,437.3 262.5,437.3 268.9,437.1 275.3,437.1 281.7,437.1 288.1,437.1 294.4,437.1 300.8,437.1 307.2,428.7 313.6,428.6 320.0,428.5 326.4,428.5 332.8,428.5 339.2,427.3 345.6,427.3 351.9,427.1 358.3,427.1 364.7,427.1 371.1,427.0 377.5,427.0 383.9,427.0 390.3,427.0 396.7,427.0 403.1,427.0 409.4,427.0 415.8,427.0 422.2,427.0 428.6,427.0 435.0,427.0 441.4,427.0 447.8,427.0 454.2,427.0 460.6,427.1 466.9,427.1 473.3,427.1 479.7,427.1 486.1,428.4 492.5,428.9 498.9,428.9 505.3,428.9 511.7,428.9 518.1,428.9 524.4,428.9 530.8,428.9 537.2,428.9 543.6,428.7 550.0,428.7 556.4,428.7 562.8,428.7 569.2,428.7 575.6,428.7 581.9,428.7 588.3,428.7 594.7,428.7 601.1,428.7 607.5,428.7 613.9,428.7 620.3,428.7 626.7,428.7 633.1,428.7 639.4,428.7 645.8,428.7 652.2,428.7 658.6,428.7 665.0,428.7 671.4,428.7 677.8,428.7 684.2,428.7 690.6,428.7 696.9,428.7 703.3,428.7 709.7,428.7 716.1,428.7 722.5,428.7 728.9,428.7 735.3,428.7 741.7,428.7 748.1,428.7 754.4,428.7 760.8,428.7 767.2,428.7 773.6,427.8 780.0,426.9 780.0,441.8 773.6,441.9 767.2,442.0 760.8,442.0 754.4,442.0 748.1,442.0 741.7,442.0 735.3,442.0 728.9,442.0 722.5,442.0 716.1,442.0 709.7,442.0 703.3,442.0 696.9,442.0 690.6,442.0 684.2,442.0 677.8,442.0 671.4,442.0 665.0,442.0 658.6,442.0 652.2,442.0 645.8,442.0 639.4,442.0 633.1,442.0 626.7,442.0 620.3,442.0 613.9,442.0 607.5,442.0 601.1,442.0 594.7,442.0 588.3,442.0 581.9,442.0 575.6,442.0 569.2,442.0 562.8,442.0 556.4,442.0 550.0,442.0 543.6,442.0 537.2,441.1 530.8,441.1 524.4,441.1 518.1,441.1 511.7,441.1 505.3,441.1 498.9,441.1 492.5,441.1 486.1,440.7 479.7,439.4 473.3,439.4 466.9,439.4 460.6,439.4 454.2,439.4 447.8,439.3 441.4,439.3 435.0,439.3 428.6,439.3 422.2,439.3 415.8,439.3 409.4,439.3 403.1,439.3 396.7,439.3 390.3,439.3 383.9,439.3 377.5,439.3 371.1,439.3 364.7,438.3 358.3,438.5 351.9,438.4 345.6,437.5 339.2,437.5 332.8,437.5 326.4,437.5 320.0,437.5 313.6,437.5 307.2,437.5 300.8,444.1 294.4,444.1 288.1,444.1 281.7,444.1 275.3,444.1 268.9,444.1 262.5,443.6 256.1,443.6 249.7,443.3 243.3,443.3 236.9,443.3 230.6,445.6 224.2,445.6 217.8,439.6 211.4,439.6 205.0,439.6 198.6,439.6 192.2,439.6 185.8,439.0 179.4,438.9 173.1,448.2 166.7,447.0 160.3,447.0 153.9,455.1 147.5,455.4 141.1,455.5 134.7,650.0 128.3,650.0 121.9,650.0 115.6,650.0 109.2,650.0 102.8,650.0 96.4,650.0 90.0,650.0" fill="#663399" opacity="0.6" class="anim" style="animation-delay:800ms;"/>
<polygon points="90.0,650.0 96.4,650.0 102.8,650.0 109.2,650.0 115.6,650.0 121.9,650.0 128.3,650.0 134.7,650.0 141.1,436.6 147.5,436.3 153.9,435.9 160.3,432.2 166.7,432.2 173.1,432.2 179.4,426.2 185.8,426.1 192.2,426.0 198.6,426.0 205.0,426.0 211.4,426.0 217.8,426.0 224.2,430.8 230.6,430.7 236.9,429.3 243.3,429.3 249.7,429.3 256.1,429.2 262.5,429.2 268.9,428.9 275.3,428.9 281.7,428.8 288.1,428.8 294.4,428.8 300.8,428.8 307.2,423.0 313.6,422.9 320.0,422.9 326.4,422.9 332.8,422.9 339.2,422.0 345.6,422.0 351.9,421.9 358.3,421.9 364.7,421.9 371.1,421.8 377.5,421.8 383.9,421.8 390.3,421.8 396.7,421.8 403.1,421.8 409.4,421.8 415.8,421.8 422.2,421.8 428.6,421.8 435.0,421.8 441.4,421.8 447.8,421.8 454.2,421.7 460.6,421.8 466.9,421.8 473.3,421.8 479.7,421.8 486.1,423.2 492.5,423.6 498.9,423.6 505.3,423.6 511.7,423.6 518.1,423.6 524.4,423.6 530.8,423.6 537.2,423.6 543.6,423.5 550.0,423.5 556.4,423.5 562.8,423.5 569.2,423.5 575.6,423.5 581.9,423.5 588.3,423.5 594.7,423.5 601.1,423.5 607.5,423.5 613.9,423.5 620.3,423.5 626.7,423.5 633.1,423.5 639.4,423.5 645.8,423.5 652.2,423.5 658.6,423.5 665.0,423.5 671.4,423.5 677.8,423.5 684.2,423.5 690.6,423.5 696.9,423.5 703.3,423.5 709.7,423.5 716.1,423.5 722.5,423.5 728.9,423.5 735.3,423.5 741.7,423.5 748.1,423.5 754.4,423.5 760.8,423.5 767.2,423.5 773.6,422.9 780.0,422.3 780.0,426.9 773.6,427.8 767.2,428.7 760.8,428.7 754.4,428.7 748.1,428.7 741.7,428.7 735.3,428.7 728.9,428.7 722.5,428.7 716.1,428.7 709.7,428.7 703.3,428.7 696.9,428.7 690.6,428.7 684.2,428.7 677.8,428.7 671.4,428.7 665.0,428.7 658.6,428.7 652.2,428.7 645.8,428.7 639.4,428.7 633.1,428.7 626.7,428.7 620.3,428.7 613.9,428.7 607.5,428.7 601.1,428.7 594.7,428.7 588.3,428.7 581.9,428.7 575.6,428.7 569.2,428.7 562.8,428.7 556.4,428.7 550.0,428.7 543.6,428.7 537.2,428.9 530.8,428.9 524.4,428.9 518.1,428.9 511.7,428.9 505.3,428.9 498.9,428.9 492.5,428.9 486.1,428.4 479.7,427.1 473.3,427.1 466.9,427.1 460.6,427.1 454.2,427.0 447.8,427.0 441.4,427.0 435.0,427.0 428.6,427.0 422.2,427.0 415.8,427.0 409.4,427.0 403.1,427.0 396.7,427.0 390.3,427.0 383.9,427.0 377.5,427.0 371.1,427.0 364.7,427.1 358.3,427.1 351.9,427.1 345.6,427.3 339.2,427.3 332.8,428.5 326.4,428.5 320.0,428.5 313.6,428.6 307.2,428.7 300.8,437.1 294.4,437.1 288.1,437.1 281.7,437.1 275.3,437.1 268.9,437.1 262.5,437.3 256.1,437.3 249.7,437.4 243.3,437.4 236.9,437.4 230.6,439.3 224.2,439.3 217.8,432.6 211.4,432.6 205.0,432.6 198.6,432.6 192.2,432.6 185.8,432.2 179.4,432.3 173.1,439.4 166.7,439.5 160.3,439.5 153.9,441.6 147.5,442.0 141.1,442.3 134.7,650.0 128.3,650.0 121.9,650.0 115.6,650.0 109.2,650.0 102.8,650.0 96.4,650.0 90.0,650.0" fill="#083fa1" opacity="0.6" class="anim" style="animation-delay:900ms;"/>
<polygon points="90.0,650.0 96.4,650.0 102.8,650.0 109.2,650.0 115.6,650.0 121.9,650.0 128.3,650.0 134.7,650.0 141.1,428.3 147.5,428.1 153.9,427.8 160.3,425.3 166.7,425.3 173.1,425.2 179.4,421.1 185.8,421.1 192.2,421.0 198.6,421.0 205.0,421.0 211.4,421.0 217.8,421.0 224.2,424.3 230.6,424.2 236.9,423.3 243.3,423.3 249.7,423.3 256.1,423.2 262.5,423.2 268.9,423.0 275.3,423.0 281.7,422.9 288.1,422.9 294.4,422.9 300.8,422.9 307.2,418.9 313.6,418.9 320.0,418.8 326.4,418.8 332.8,418.8 339.2,418.3 345.6,418.3 351.9,418.2 358.3,418.2 364.7,418.2 371.1,418.1 377.5,418.1 383.9,418.1 390.3,418.1 396.7,418.1 403.1,418.1 409.4,418.1 415.8,418.1 422.2,418.1 428.6,418.1 435.0,418.1 441.4,418.1 447.8,418.1 454.2,418.1 460.6,418.1 466.9,418.1 473.3,418.1 479.7,418.1 486.1,418.0 492.5,418.0 498.9,418.0 505.3,418.0 511.7,418.0 518.1,418.0 524.4,418.0 530.8,418.0 537.2,418.0 543.6,417.9 550.0,417.9 556.4,417.9 562.8,417.9 569.2,417.9 575.6,417.9 581.9,417.9 588.3,417.9 594.7,417.9 601.1,417.9 607.5,417.9 613.9,417.9 620.3,417.9 626.7,417.9 633.1,417.9 639.4,417.9 645.8,417.9 652.2,417.9 658.6,417.9 665.0,417.9 671.4,417.9 677.8,417.9 684.2,417.9 690.6,417.9 696.9,417.9 703.3,417.9 709.7,417.9 716.1,417.9 722.5,417.9 728.9,417.9 735.3,417.9 741.7,417.9 748.1,417.9 754.4,417.9 760.8,417.9 767.2,417.9 773.6,417.3 780.0,416.7 780.0,422.3 773.6,422.9 767.2,423.5 760.8,423.5 754.4,423.5 748.1,423.5 741.7,423.5 735.3,423.5 728.9,423.5 722.5,423.5 716.1,423.5 709.7,423.5 703.3,423.5 696.9,423.5 690.6,423.5 684.2,423.5 677.8,423.5 671.4,423.5 665.0,423.5 658.6,423.5 652.2,423.5 645.8,423.5 639.4,423.5 633.1,423.5 626.7,423.5 620.3,423.5 613.9,423.5 607.5,423.5 601.1,423.5 594.7,423.5 588.3,423.5 581.9,423.5 575.6,423.5 569.2,423.5 562.8,423.5 556.4,423.5 550.0,423.5 543.6,423.5 537.2,423.6 530.8,423.6 524.4,423.6 518.1,423.6 511.7,423.6 505.3,423.6 498.9,423.6 492.5,423.6 486.1,423.2 479.7,421.8 473.3,421.8 466.9,421.8 460.6,421.8 454.2,421.7 447.8,421.8 441.4,421.8 435.0,421.8 428.6,421.8 422.2,421.8 415.8,421.8 409.4,421.8 403.1,421.8 396.7,421.8 390.3,421.8 383.9,421.8 377.5,421.8 371.1,421.8 364.7,421.9 358.3,421.9 351.9,421.9 345.6,422.0 339.2,422.0 332.8,422.9 326.4,422.9 320.0,422.9 313.6,422.9 307.2,423.0 300.8,428.8 294.4,428.8 288.1,428.8 281.7,428.8 275.3,428.9 268.9,428.9 262.5,429.2 256.1,429.2 249.7,429.3 243.3,429.3 236.9,429.3 230.6,430.7 224.2,430.8 217.8,426.0 211.4,426.0 205.0,426.0 198.6,426.0 192.2,426.0 185.8,426.1 179.4,426.2 173.1,432.2 166.7,432.2 160.3,432.2 153.9,435.9 147.5,436.3 141.1,436.6 134.7,650.0 128.3,650.0 121.9,650.0 115.6,650.0 109.2,650.0 102.8,650.0 96.4,650.0 90.0,650.0" fill="#F05138" opacity="0.6" class="anim" style="animation-delay:1000ms;"/>
<polygon points="90.0,650.0 96.4,650.0 102.8,650.0 109.2,650.0 115.6,650.0 121.9,650.0 128.3,650.0 134.7,650.0 141.1,418.7 147.5,418.6 153.9,418.5 160.3,417.3 166.7,417.3 173.1,417.2 179.4,415.3 185.8,415.3 192.2,415.2 198.6,415.2 205.0,415.2 211.4,415.2 217.8,415.2 224.2,416.8 230.6,416.8 236.9,416.3 243.3,416.3 249.7,416.3 256.1,416.3 262.5,416.3 268.9,416.2 275.3,416.2 281.7,416.2 288.1,416.2 294.4,416.2 300.8,416.2 307.2,414.2 313.6,414.2 320.0,414.2 326.4,414.2 332.8,414.2 339.2,413.9 345.6,413.9 351.9,413.9 358.3,413.9 364.7,413.9 371.1,413.9 377.5,413.9 383.9,413.9 390.3,413.9 396.7,413.9 403.1,413.9 409.4,413.9 415.8,413.9 422.2,413.9 428.6,413.9 435.0,413.9 441.4,413.9 447.8,413.9 454.2,413.8 460.6,413.8 466.9,413.8 473.3,413.8 479.7,413.8 486.1,413.8 492.5,413.8 498.9,413.8 505.3,413.8 511.7,413.8 518.1,413.8 524.4,413.8 530.8,413.8 537.2,413.8 543.6,413.8 550.0,413.8 556.4,413.8 562.8,413.8 569.2,413.8 575.6,413.8 581.9,413.8 588.3,413.8 594.7,413.8 601.1,413.8 607.5,413.8 613.9,413.8 620.3,413.8 626.7,413.8 633.1,413.8 639.4,413.8 645.8,413.8 652.2,413.8 658.6,413.8 665.0,413.8 671.4,413.8 677.8,413.8 684.2,413.8 690.6,413.8 696.9,413.8 703.3,413.8 709.7,413.8 716.1,413.8 722.5,413.8 728.9,413.8 735.3,413.8 741.7,413.8 748.1,413.8 754.4,413.8 760.8,413.8 767.2,413.8 773.6,413.6 780.0,413.4 780.0,416.7 773.6,417.3 767.2,417.9 760.8,417.9 754.4,417.9 748.1,417.9 741.7,417.9 735.3,417.9 728.9,417.9 722.5,417.9 716.1,417.9 709.7,417.9 703.3,417.9 696.9,417.9 690.6,417.9 684.2,417.9 677.8,417.9 671.4,417.9 665.0,417.9 658.6,417.9 652.2,417.9 645.8,417.9 639.4,417.9 633.1,417.9 626.7,417.9 620.3,417.9 613.9,417.9 607.5,417.9 601.1,417.9 594.7,417.9 588.3,417.9 581.9,417.9 575.6,417.9 569.2,417.9 562.8,417.9 556.4,417.9 550.0,417.9 543.6,417.9 537.2,418.0 530.8,418.0 524.4,418.0 518.1,418.0 511.7,418.0 505.3,418.0 498.9,418.0 492.5,418.0 486.1,418.0 479.7,418.1 473.3,418.1 466.9,418.1 460.6,418.1 454.2,418.1 447.8,418.1 441.4,418.1 435.0,418.1 428.6,418.1 422.2,418.1 415.8,418.1 409.4,418.1 403.1,418.1 396.7,418.1 390.3,418.1 383.9,418.1 377.5,418.1 371.1,418.1 364.7,418.2 358.3,418.2 351.9,418.2 345.6,418.3 339.2,418.3 332.8,418.8 326.4,418.8 320.0,418.8 313.6,418.9 307.2,418.9 300.8,422.9 294.4,422.9 288.1,422.9 281.7,422.9 275.3,423.0 268.9,423.0 262.5,423.2 256.1,423.2 249.7,423.3 243.3,423.3 236.9,423.3 230.6,424.2 224.2,424.3 217.8,421.0 211.4,421.0 205.0,421.0 198.6,421.0 192.2,421.0 185.8,421.1 179.4,421.1 173.1,425.2 166.7,425.3 160.3,425.3 153.9,427.8 147.5,428.1 141.1,428.3 134.7,650.0 128.3,650.0 121.9,650.0 115.6,650.0 109.2,650.0 102.8,650.0 96.4,650.0 90.0,650.0" fill="#6E4C13" opacity="0.6" class="anim" style="animation-delay:1100ms;"/>
<polygon points="90.0,650.0 96.4,650.0 102.8,650.0 109.2,650.0 115.6,650.0 121.9,650.0 128.3,650.0 134.7,650.0 141.1,414.4 147.5,414.4 153.9,414.3 160.3,413.7 166.7,413.7 173.1,413.7 179.4,412.7 185.8,412.7 192.2,412.7 198.6,412.7 205.0,412.7 211.4,412.7 217.8,412.7 224.2,413.5 230.6,413.4 236.9,413.2 243.3,413.2 249.7,413.2 256.1,413.2 262.5,413.2 268.9,413.1 275.3,413.1 281.7,413.1 288.1,413.1 294.4,413.1 300.8,413.1 307.2,412.2 313.6,412.1 320.0,412.1 326.4,412.1 332.8,412.1 339.2,412.0 345.6,412.0 351.9,412.0 358.3,412.0 364.7,412.0 371.1,412.0 377.5,412.0 383.9,412.0 390.3,412.0 396.7,412.0 403.1,412.0 409.4,412.0 415.8,412.0 422.2,412.0 428.6,412.0 435.0,412.0 441.4,412.0 447.8,412.0 454.2,411.9 460.6,411.9 466.9,411.9 473.3,411.9 479.7,411.9 486.1,411.9 492.5,411.9 498.9,411.9 505.3,411.9 511.7,411.9 518.1,411.9 524.4,411.9 530.8,411.9 537.2,411.9 543.6,411.9 550.0,411.9 556.4,411.9 562.8,411.9 569.2,411.9 575.6,411.9 581.9,411.9 588.3,411.9 594.7,411.9 601.1,411.9 607.5,411.9 613.9,411.9 620.3,411.9 626.7,411.9 633.1,411.9 639.4,411.9 645.8,411.9 652.2,411.9 658.6,411.9 665.0,411.9 671.4,411.9 677.8,411.9 684.2,411.9 690.6,411.9 696.9,411.9 703.3,411.9 709.7,411.9 716.1,411.9 722.5,411.9 728.9,411.9 735.3,411.9 741.7,411.9 748.1,411.9 754.4,411.9 760.8,411.9 767.2,411.9 773.6,411.9 780.0,411.9 780.0,413.4 773.6,413.6 767.2,413.8 760.8,413.8 754.4,413.8 748.1,413.8 741.7,413.8 735.3,413.8 728.9,413.8 722.5,413.8 716.1,413.8 709.7,413.8 703.3,413.8 696.9,413.8 690.6,413.8 684.2,413.8 677.8,413.8 671.4,413.8 665.0,413.8 658.6,413.8 652.2,413.8 645.8,413.8 639.4,413.8 633.1,413.8 626.7,413.8 620.3,413.8 613.9,413.8 607.5,413.8 601.1,413.8 594.7,413.8 588.3,413.8 581.9,413.8 575.6,413.8 569.2,413.8 562.8,413.8 556.4,413.8 550.0,413.8 543.6,413.8 537.2,413.8 530.8,413.8 524.4,413.8 518.1,413.8 511.7,413.8 505.3,413.8 498.9,413.8 492.5,413.8 486.1,413.8 479.7,413.8 473.3,413.8 466.9,413.8 460.6,413.8 454.2,413.8 447.8,413.9 441.4,413.9 435.0,413.9 428.6,413.9 422.2,413.9 415.8,413.9 409.4,413.9 403.1,413.9 396.7,413.9 390.3,413.9 383.9,413.9 377.5,413.9 371.1,413.9 364.7,413.9 358.3,413.9 351.9,413.9 345.6,413.9 339.2,413.9 332.8,414.2 326.4,414.2 320.0,414.2 313.6,414.2 307.2,414.2 300.8,416.2 294.4,416.2 288.1,416.2 281.7,416.2 275.3,416.2 268.9,416.2 262.5,416.3 256.1,416.3 249.7,416.3 243.3,416.3 236.9,416.3 230.6,416.8 224.2,416.8 217.8,415.2 211.4,415.2 205.0,415.2 198.6,415.2 192.2,415.2 185.8,415.3 179.4,415.3 173.1,417.2 166.7,417.3 160.3,417.3 153.9,418.5 147.5,418.6 141.1,418.7 134.7,650.0 128.3,650.0 121.9,650.0 115.6,650.0 109.2,650.0 102.8,650.0 96.4,650.0 90.0,650.0" fill="#b07219" opacity="0.6" class="anim" style="animation-delay:1200ms;"/>
<line x1="767.2" y1="100" x2="767.2" y2="650" stroke="#c9d1d9" stroke-width="1" stroke-dasharray="4,3" opacity="0.35"/>
<text x="773.6" y="112" text-anchor="middle" class="axis-label" opacity="0.6">Aug 11, 2026</text>
<text x="90.0" y="668" text-anchor="middle" class="axis-label" transform="rotate(-35 90.0 668)">2026-02</text>
<text x="300.8" y="668" text-anchor="middle" class="axis-label" transform="rotate(-35 300.8 668)">2026-03</text>
<text x="441.4" y="668" text-anchor="middle" class="axis-label" transform="rotate(-35 441.4 668)">2026-04</text>
<text x="511.7" y="668" text-anchor="middle" class="axis-label" transform="rotate(-35 511.7 668)">2026-06</text>
<text x="652.2" y="668" text-anchor="middle" class="axis-label" transform="rotate(-35 652.2 668)">2026-07</text>
<text x="773.6" y="668" text-anchor="middle" class="axis-label" transform="rotate(-35 773.6 668)">Aug 11, 2026</text>
<line x1="796" y1="110" x2="824" y2="110" stroke="#3fb950" stroke-width="2"/>
<text x="832" y="116" class="legend-text">Lines Added</text>
<line x1="796" y1="140" x2="824" y2="140" stroke="#f85149" stroke-width="1.5"/>
<text x="832" y="146" class="legend-text">Lines Deleted</text>
<line x1="796" y1="170" x2="824" y2="170" stroke="#e3b341" stroke-width="1.5" stroke-dasharray="4,3"/>
<text x="832" y="176" class="legend-text">&#x2605; Stars</text>
<text x="796" y="200" class="subtitle">Languages</text>
<rect x="796" y="212" width="12" height="12" rx="2" fill="#e34c26" opacity="0.8" class="anim" style="animation-delay:800ms;"/>
<text x="814" y="223" class="legend-text">HTML (58%→56%)</text>
<rect x="796" y="234" width="12" height="12" rx="2" fill="#f1e05a" opacity="0.8" class="anim" style="animation-delay:880ms;"/>
<text x="814" y="245" class="legend-text">JavaScript (22%→25%)</text>
<rect x="796" y="256" width="12" height="12" rx="2" fill="#3572A5" opacity="0.8" class="anim" style="animation-delay:960ms;"/>
<text x="814" y="267" class="legend-text">Python (7%→6%)</text>
<rect x="796" y="278" width="12" height="12" rx="2" fill="#663399" opacity="0.8" class="anim" style="animation-delay:1040ms;"/>
<text x="814" y="289" class="legend-text">CSS (6%→6%)</text>
<rect x="796" y="300" width="12" height="12" rx="2" fill="#083fa1" opacity="0.8" class="anim" style="animation-delay:1120ms;"/>
<text x="814" y="311" class="legend-text">Markdown (2%→2%)</text>
<rect x="796" y="322" width="12" height="12" rx="2" fill="#F05138" opacity="0.8" class="anim" style="animation-delay:1200ms;"/>
<text x="814" y="333" class="legend-text">Swift (2%)</text>
<rect x="796" y="344" width="12" height="12" rx="2" fill="#6E4C13" opacity="0.8" class="anim" style="animation-delay:1280ms;"/>
<text x="814" y="355" class="legend-text">Assembly (2%→1%)</text>
<rect x="796" y="366" width="12" height="12" rx="2" fill="#b07219" opacity="0.8" class="anim" style="animation-delay:1360ms;"/>
<text x="814" y="377" class="legend-text">Java (1%→1%)</text>
<text x="796" y="412" class="subtitle">Contributions</text>
<text x="796" y="432" class="axis-label">2023: 39</text>
<text x="796" y="452" class="axis-label">2024: 646</text>
<text x="796" y="472" class="axis-label">2025: 1,780</text>
<text x="796" y="492" class="axis-label">2026: 491</text>
<text x="796" y="522" class="subtitle">Statistics</text>
<text x="796" y="542" class="axis-label">Active weeks: 88</text>
<text x="796" y="562" class="axis-label">Add/Del ratio: 1.8x</text>
<text x="796" y="582" class="axis-label">Avg lines/wk: 18K</text>
<text x="796" y="602" class="axis-label">Peak: 2026-02-15</text>
<text x="796" y="622" class="axis-label">  (543K lines)</text>
<text x="90" y="742" class="axis-label">Total: +1,040,332 / -576,819 lines &#xb7; 2,956 contributions &#xb7; 80 repos &#xb7; &#x2605; 37</text>
</svg>