<svg xmlns="http://www.w3.org/2000/svg" width="1000" height="760" style="max-width: 100%;" viewBox="0 0 1000 760">

<defs>
  <linearGradient id="areaGrad" x1="0" y1="0" x2="0" y2="1">
    <stop offset="0%" stop-color="#58a6ff" stop-opacity="0.35"/>
    <stop offset="100%" stop-color="#58a6ff" stop-opacity="0.02"/>
  </linearGradient>
  <linearGradient id="addGrad" x1="0" y1="0" x2="0" y2="1">
    <stop offset="0%" stop-color="#3fb950" stop-opacity="0.35"/>
    <stop offset="100%" stop-color="#3fb950" stop-opacity="0.02"/>
  </linearGradient>
  <linearGradient id="delGrad" x1="0" y1="0" x2="0" y2="1">
    <stop offset="0%" stop-color="#f85149" stop-opacity="0.25"/>
    <stop offset="100%" stop-color="#f85149" stop-opacity="0.02"/>
  </linearGradient>
</defs>
<style>
  .title { font: bold 28px 'Segoe UI', Ubuntu, Sans-Serif; fill: #c9d1d9; }
  .subtitle { font: 600 20px 'Segoe UI', Ubuntu, Sans-Serif; fill: #c9d1d9; opacity: 0.8; }
  .axis-label { font: 18px 'Segoe UI', Ubuntu, Sans-Serif; fill: #c9d1d9; opacity: 0.7; }
  .legend-text { font: 14px 'Segoe UI', Ubuntu, Sans-Serif; fill: #c9d1d9; }
  .value-text { font: bold 18px 'Segoe UI', Ubuntu, Sans-Serif; fill: #c9d1d9; }
  .stat-value { font: bold 22px 'Segoe UI', Ubuntu, Sans-Serif; fill: #c9d1d9; }
  .stat-label { font: 18px 'Segoe UI', Ubuntu, Sans-Serif; fill: #c9d1d9; opacity: 0.7; }
  @keyframes fadeIn { from { opacity: 0; } to { opacity: 1; } }
  .anim { animation: fadeIn 0.6s ease-in-out forwards; opacity: 0; }
</style>

<rect x="0.5" y="0.5" rx="4.5" width="999" height="759" fill="#161b22" stroke="#21262d"/>
<text x="90" y="45" class="title">Activity History</text>
<text x="90" y="72" class="subtitle">Lines added vs deleted &amp; activity trends over time</text>
<line x1="90" y1="340.0" x2="780" y2="340.0" stroke="#21262d" stroke-width="1"/>
<text x="82" y="344.0" text-anchor="end" class="axis-label">0</text>
<line x1="90" y1="280.0" x2="780" y2="280.0" stroke="#21262d" stroke-width="1"/>
<text x="82" y="284.0" text-anchor="end" class="axis-label">558K</text>
<line x1="90" y1="220.0" x2="780" y2="220.0" stroke="#21262d" stroke-width="1"/>
<text x="82" y="224.0" text-anchor="end" class="axis-label">1.1M</text>
<line x1="90" y1="160.0" x2="780" y2="160.0" stroke="#21262d" stroke-width="1"/>
<text x="82" y="164.0" text-anchor="end" class="axis-label">1.7M</text>
<line x1="90" y1="100.0" x2="780" y2="100.0" stroke="#21262d" stroke-width="1"/>
<text x="82" y="104.0" text-anchor="end" class="axis-label">2.2M</text>
<polygon points="90.0,340.0 90.0,300.7 104.4,302.2 118.8,300.8 133.1,302.2 147.5,311.2 161.9,293.2 176.2,293.2 190.6,286.4 205.0,286.2 219.4,285.7 233.8,285.7 248.1,273.6 262.5,273.6 276.9,273.6 291.2,255.7 305.6,255.4 320.0,255.2 334.4,255.2 348.8,255.2 363.1,255.2 377.5,255.2 391.9,254.8 406.2,242.8 420.6,242.8 435.0,242.8 449.4,242.8 463.8,242.5 478.1,242.5 492.5,242.0 506.9,242.0 521.2,241.9 535.6,241.9 550.0,241.9 564.4,241.9 578.8,242.0 593.1,241.9 607.5,241.9 621.9,241.9 636.2,241.9 650.6,241.9 665.0,241.9 679.4,241.4 693.8,241.6 708.1,241.1 722.5,240.8 736.9,240.8 751.2,240.8 765.6,220.5 780.0,200.2 780.0,340.0" fill="url(#addGrad)" class="anim" style="animation-delay:200ms;"/>
<polyline points="90.0,300.7 104.4,302.2 118.8,300.8 133.1,302.2 147.5,311.2 161.9,293.2 176.2,293.2 190.6,286.4 205.0,286.2 219.4,285.7 233.8,285.7 248.1,273.6 262.5,273.6 276.9,273.6 291.2,255.7 305.6,255.4 320.0,255.2 334.4,255.2 348.8,255.2 363.1,255.2 377.5,255.2 391.9,254.8 406.2,242.8 420.6,242.8 435.0,242.8 449.4,242.8 463.8,242.5 478.1,242.5 492.5,242.0 506.9,242.0 521.2,241.9 535.6,241.9 550.0,241.9 564.4,241.9 578.8,242.0 593.1,241.9 607.5,241.9 621.9,241.9 636.2,241.9 650.6,241.9 665.0,241.9 679.4,241.4 693.8,241.6 708.1,241.1 722.5,240.8 736.9,240.8 751.2,240.8" fill="none" stroke="#3fb950" stroke-width="2" stroke-linejoin="round" class="anim" style="animation-delay:250ms;"/>
<polyline points="751.2,240.8 765.6,220.5 780.0,200.2" fill="none" stroke="#3fb950" stroke-width="1.5" stroke-dasharray="5,4" stroke-linejoin="round" opacity="0.6" class="anim" style="animation-delay:250ms;"/>
<polygon points="90.0,340.0 90.0,329.0 104.4,330.1 118.8,329.0 133.1,330.1 147.5,334.8 161.9,327.6 176.2,327.6 190.6,326.8 205.0,326.6 219.4,326.3 233.8,326.3 248.1,313.3 262.5,313.3 276.9,313.3 291.2,298.5 305.6,298.4 320.0,298.4 334.4,298.4 348.8,298.4 363.1,298.4 377.5,298.4 391.9,290.7 406.2,278.9 420.6,278.9 435.0,278.9 449.4,278.9 463.8,278.8 478.1,278.8 492.5,278.8 506.9,278.7 521.2,278.7 535.6,278.7 550.0,278.7 564.4,278.7 578.8,278.8 593.1,278.7 607.5,278.7 621.9,278.7 636.2,278.7 650.6,278.7 665.0,278.7 679.4,278.7 693.8,278.8 708.1,278.4 722.5,278.4 736.9,278.4 751.2,278.4 765.6,259.1 780.0,239.8 780.0,340.0" fill="url(#delGrad)" class="anim" style="animation-delay:300ms;"/>
<polyline points="90.0,329.0 104.4,330.1 118.8,329.0 133.1,330.1 147.5,334.8 161.9,327.6 176.2,327.6 190.6,326.8 205.0,326.6 219.4,326.3 233.8,326.3 248.1,313.3 262.5,313.3 276.9,313.3 291.2,298.5 305.6,298.4 320.0,298.4 334.4,298.4 348.8,298.4 363.1,298.4 377.5,298.4 391.9,290.7 406.2,278.9 420.6,278.9 435.0,278.9 449.4,278.9 463.8,278.8 478.1,278.8 492.5,278.8 506.9,278.7 521.2,278.7 535.6,278.7 550.0,278.7 564.4,278.7 578.8,278.8 593.1,278.7 607.5,278.7 621.9,278.7 636.2,278.7 650.6,278.7 665.0,278.7 679.4,278.7 693.8,278.8 708.1,278.4 722.5,278.4 736.9,278.4 751.2,278.4" fill="none" stroke="#f85149" stroke-width="1.5" stroke-linejoin="round" class="anim" style="animation-delay:350ms;"/>
<polyline points="751.2,278.4 765.6,259.1 780.0,239.8" fill="none" stroke="#f85149" stroke-width="1" stroke-dasharray="5,4" stroke-linejoin="round" opacity="0.6" class="anim" style="animation-delay:350ms;"/>
<polyline points="90.0,340.0 104.4,340.0 118.8,340.0 133.1,340.0 147.5,340.0 161.9,340.0 176.2,340.0 190.6,340.0 205.0,292.0 219.4,292.0 233.8,292.0 248.1,292.0 262.5,292.0 276.9,292.0 291.2,292.0 305.6,292.0 320.0,292.0 334.4,292.0 348.8,292.0 363.1,292.0 377.5,292.0 391.9,292.0 406.2,292.0 420.6,292.0 435.0,292.0 449.4,292.0 463.8,292.0 478.1,292.0 492.5,292.0 506.9,292.0 521.2,292.0 535.6,292.0 550.0,292.0 564.4,292.0 578.8,244.0 593.1,244.0 607.5,244.0 621.9,244.0 636.2,244.0 650.6,244.0 665.0,244.0 679.4,244.0 693.8,196.0 708.1,196.0 722.5,196.0 736.9,196.0 751.2,196.0" fill="none" stroke="#e3b341" stroke-width="1.5" stroke-dasharray="4,3" stroke-linejoin="round" class="anim" style="animation-delay:400ms;"/>
<polyline points="751.2,196.0 765.6,196.0 780.0,148.0" fill="none" stroke="#e3b341" stroke-width="1" stroke-dasharray="3,5" stroke-linejoin="round" opacity="0.5" class="anim" style="animation-delay:400ms;"/>
<text x="90" y="90" class="subtitle">Lines Added vs Deleted (per snapshot)</text>
<text x="90" y="400" class="subtitle">Programming Language Development (%)</text>
<line x1="90" y1="650.0" x2="780" y2="650.0" stroke="#21262d" stroke-width="1"/>
<text x="82" y="654.0" text-anchor="end" class="axis-label">0%</text>
<line x1="90" y1="590.0" x2="780" y2="590.0" stroke="#21262d" stroke-width="1"/>
<text x="82" y="594.0" text-anchor="end" class="axis-label">25%</text>
<line x1="90" y1="530.0" x2="780" y2="530.0" stroke="#21262d" stroke-width="1"/>
<text x="82" y="534.0" text-anchor="end" class="axis-label">50%</text>
<line x1="90" y1="470.0" x2="780" y2="470.0" stroke="#21262d" stroke-width="1"/>
<text x="82" y="474.0" text-anchor="end" class="axis-label">75%</text>
<line x1="90" y1="410.0" x2="780" y2="410.0" stroke="#21262d" stroke-width="1"/>
<text x="82" y="414.0" text-anchor="end" class="axis-label">100%</text>
<polygon points="90.0,650.0 104.4,650.0 118.8,650.0 133.1,650.0 147.5,650.0 161.9,650.0 176.2,650.0 190.6,650.0 205.0,528.2 219.4,528.5 233.8,529.7 248.1,499.3 262.5,499.3 276.9,502.9 291.2,485.0 305.6,485.1 320.0,485.4 334.4,485.4 348.8,485.4 363.1,485.4 377.5,485.4 391.9,496.4 406.2,496.7 420.6,491.0 435.0,491.0 449.4,491.0 463.8,491.7 478.1,491.8 492.5,494.0 506.9,494.0 521.2,494.4 535.6,494.4 550.0,494.4 564.4,494.4 578.8,507.6 593.1,507.6 607.5,507.9 621.9,507.9 636.2,507.9 650.6,506.3 665.0,506.4 679.4,506.8 693.8,506.9 708.1,506.8 722.5,507.5 736.9,507.5 751.2,507.5 765.6,509.9 780.0,512.2 780.0,650.0 765.6,650.0 751.2,650.0 736.9,650.0 722.5,650.0 708.1,650.0 693.8,650.0 679.4,650.0 665.0,650.0 650.6,650.0 636.2,650.0 621.9,650.0 607.5,650.0 593.1,650.0 578.8,650.0 564.4,650.0 550.0,650.0 535.6,650.0 521.2,650.0 506.9,650.0 492.5,650.0 478.1,650.0 463.8,650.0 449.4,650.0 435.0,650.0 420.6,650.0 406.2,650.0 391.9,650.0 377.5,650.0 363.1,650.0 348.8,650.0 334.4,650.0 320.0,650.0 305.6,650.0 291.2,650.0 276.9,650.0 262.5,650.0 248.1,650.0 233.8,650.0 219.4,650.0 205.0,650.0 190.6,650.0 176.2,650.0 161.9,650.0 147.5,650.0 133.1,650.0 118.8,650.0 104.4,650.0 90.0,650.0" fill="#e34c26" opacity="0.6" class="anim" style="animation-delay:500ms;"/>
<polygon points="90.0,650.0 104.4,650.0 118.8,650.0 133.1,650.0 147.5,650.0 161.9,650.0 176.2,650.0 190.6,650.0 205.0,488.4 219.4,488.0 233.8,489.0 248.1,476.0 262.5,476.0 276.9,477.2 291.2,460.1 305.6,460.2 320.0,460.6 334.4,460.6 348.8,460.6 363.1,460.6 377.5,460.6 391.9,473.0 406.2,473.5 420.6,469.5 435.0,469.5 449.4,469.5 463.8,469.7 478.1,469.7 492.5,469.7 506.9,469.7 521.2,469.7 535.6,469.7 550.0,469.7 564.4,469.7 578.8,455.6 593.1,455.6 607.5,455.4 621.9,455.4 636.2,455.4 650.6,454.3 665.0,454.3 679.4,455.0 693.8,455.1 708.1,454.9 722.5,455.9 736.9,455.9 751.2,455.9 765.6,447.6 780.0,439.3 780.0,512.2 765.6,509.9 751.2,507.5 736.9,507.5 722.5,507.5 708.1,506.8 693.8,506.9 679.4,506.8 665.0,506.4 650.6,506.3 636.2,507.9 621.9,507.9 607.5,507.9 593.1,507.6 578.8,507.6 564.4,494.4 550.0,494.4 535.6,494.4 521.2,494.4 506.9,494.0 492.5,494.0 478.1,491.8 463.8,491.7 449.4,491.0 435.0,491.0 420.6,491.0 406.2,496.7 391.9,496.4 377.5,485.4 363.1,485.4 348.8,485.4 334.4,485.4 320.0,485.4 305.6,485.1 291.2,485.0 276.9,502.9 262.5,499.3 248.1,499.3 233.8,529.7 219.4,528.5 205.0,528.2 190.6,650.0 176.2,650.0 161.9,650.0 147.5,650.0 133.1,650.0 118.8,650.0 104.4,650.0 90.0,650.0" fill="#f1e05a" opacity="0.6" class="anim" style="animation-delay:600ms;"/>
<polygon points="90.0,650.0 104.4,650.0 118.8,650.0 133.1,650.0 147.5,650.0 161.9,650.0 176.2,650.0 190.6,650.0 205.0,455.5 219.4,455.4 233.8,455.1 248.1,447.0 262.5,447.0 276.9,448.2 291.2,438.9 305.6,439.0 320.0,439.6 334.4,439.6 348.8,439.6 363.1,439.6 377.5,439.6 391.9,445.6 406.2,445.6 420.6,443.3 435.0,443.3 449.4,443.3 463.8,443.6 478.1,443.6 492.5,444.1 506.9,444.1 521.2,444.1 535.6,444.1 550.0,444.1 564.4,444.1 578.8,437.5 593.1,437.5 607.5,437.5 621.9,437.5 636.2,437.5 650.6,437.5 665.0,437.5 679.4,438.4 693.8,438.5 708.1,438.3 722.5,439.3 736.9,439.3 751.2,439.3 765.6,436.0 780.0,432.7 780.0,439.3 765.6,447.6 751.2,455.9 736.9,455.9 722.5,455.9 708.1,454.9 693.8,455.1 679.4,455.0 665.0,454.3 650.6,454.3 636.2,455.4 621.9,455.4 607.5,455.4 593.1,455.6 578.8,455.6 564.4,469.7 550.0,469.7 535.6,469.7 521.2,469.7 506.9,469.7 492.5,469.7 478.1,469.7 463.8,469.7 449.4,469.5 435.0,469.5 420.6,469.5 406.2,473.5 391.9,473.0 377.5,460.6 363.1,460.6 348.8,460.6 334.4,460.6 320.0,460.6 305.6,460.2 291.2,460.1 276.9,477.2 262.5,476.0 248.1,476.0 233.8,489.0 219.4,488.0 205.0,488.4 190.6,650.0 176.2,650.0 161.9,650.0 147.5,650.0 133.1,650.0 118.8,650.0 104.4,650.0 90.0,650.0" fill="#3572A5" opacity="0.6" class="anim" style="animation-delay:700ms;"/>
<polygon points="90.0,650.0 104.4,650.0 118.8,650.0 133.1,650.0 147.5,650.0 161.9,650.0 176.2,650.0 190.6,650.0 205.0,442.3 219.4,442.0 233.8,441.6 248.1,439.5 262.5,439.5 276.9,439.4 291.2,432.3 305.6,432.2 320.0,432.6 334.4,432.6 348.8,432.6 363.1,432.6 377.5,432.6 391.9,439.3 406.2,439.3 420.6,437.4 435.0,437.4 449.4,437.4 463.8,437.3 478.1,437.3 492.5,437.1 506.9,437.1 521.2,437.1 535.6,437.1 550.0,437.1 564.4,437.1 578.8,428.7 593.1,428.6 607.5,428.5 621.9,428.5 636.2,428.5 650.6,427.3 665.0,427.3 679.4,427.1 693.8,427.1 708.1,427.1 722.5,427.0 736.9,427.0 751.2,427.0 765.6,422.9 780.0,418.8 780.0,432.7 765.6,436.0 751.2,439.3 736.9,439.3 722.5,439.3 708.1,438.3 693.8,438.5 679.4,438.4 665.0,437.5 650.6,437.5 636.2,437.5 621.9,437.5 607.5,437.5 593.1,437.5 578.8,437.5 564.4,444.1 550.0,444.1 535.6,444.1 521.2,444.1 506.9,444.1 492.5,444.1 478.1,443.6 463.8,443.6 449.4,443.3 435.0,443.3 420.6,443.3 406.2,445.6 391.9,445.6 377.5,439.6 363.1,439.6 348.8,439.6 334.4,439.6 320.0,439.6 305.6,439.0 291.2,438.9 276.9,448.2 262.5,447.0 248.1,447.0 233.8,455.1 219.4,455.4 205.0,455.5 190.6,650.0 176.2,650.0 161.9,650.0 147.5,650.0 133.1,650.0 118.8,650.0 104.4,650.0 90.0,650.0" fill="#663399" opacity="0.6" class="anim" style="animation-delay:800ms;"/>
<polygon points="90.0,650.0 104.4,650.0 118.8,650.0 133.1,650.0 147.5,650.0 161.9,650.0 176.2,650.0 190.6,650.0 205.0,436.6 219.4,436.3 233.8,435.9 248.1,432.2 262.5,432.2 276.9,432.2 291.2,426.2 305.6,426.1 320.0,426.0 334.4,426.0 348.8,426.0 363.1,426.0 377.5,426.0 391.9,430.8 406.2,430.7 420.6,429.3 435.0,429.3 449.4,429.3 463.8,429.2 478.1,429.2 492.5,428.9 506.9,428.9 521.2,428.8 535.6,428.8 550.0,428.8 564.4,428.8 578.8,423.0 593.1,422.9 607.5,422.9 621.9,422.9 636.2,422.9 650.6,422.0 665.0,422.0 679.4,421.9 693.8,421.9 708.1,421.9 722.5,421.8 736.9,421.8 751.2,421.8 765.6,418.3 780.0,414.7 780.0,418.8 765.6,422.9 751.2,427.0 736.9,427.0 722.5,427.0 708.1,427.1 693.8,427.1 679.4,427.1 665.0,427.3 650.6,427.3 636.2,428.5 621.9,428.5 607.5,428.5 593.1,428.6 578.8,428.7 564.4,437.1 550.0,437.1 535.6,437.1 521.2,437.1 506.9,437.1 492.5,437.1 478.1,437.3 463.8,437.3 449.4,437.4 435.0,437.4 420.6,437.4 406.2,439.3 391.9,439.3 377.5,432.6 363.1,432.6 348.8,432.6 334.4,432.6 320.0,432.6 305.6,432.2 291.2,432.3 276.9,439.4 262.5,439.5 248.1,439.5 233.8,441.6 219.4,442.0 205.0,442.3 190.6,650.0 176.2,650.0 161.9,650.0 147.5,650.0 133.1,650.0 118.8,650.0 104.4,650.0 90.0,650.0" fill="#083fa1" opacity="0.6" class="anim" style="animation-delay:900ms;"/>
<polygon points="90.0,650.0 104.4,650.0 118.8,650.0 133.1,650.0 147.5,650.0 161.9,650.0 176.2,650.0 190.6,650.0 205.0,427.0 219.4,426.8 233.8,426.6 248.1,424.2 262.5,424.2 276.9,424.2 291.2,420.4 305.6,420.3 320.0,420.3 334.4,420.3 348.8,420.3 363.1,420.3 377.5,420.3 391.9,423.3 406.2,423.2 420.6,422.4 435.0,422.4 449.4,422.4 463.8,422.3 478.1,422.3 492.5,422.1 506.9,422.1 521.2,422.1 535.6,422.1 550.0,422.1 564.4,422.1 578.8,418.3 593.1,418.3 607.5,418.2 621.9,418.2 636.2,418.2 650.6,417.7 665.0,417.7 679.4,417.6 693.8,417.6 708.1,417.6 722.5,417.6 736.9,417.6 751.2,417.6 765.6,415.5 780.0,413.5 780.0,414.7 765.6,418.3 751.2,421.8 736.9,421.8 722.5,421.8 708.1,421.9 693.8,421.9 679.4,421.9 665.0,422.0 650.6,422.0 636.2,422.9 621.9,422.9 607.5,422.9 593.1,422.9 578.8,423.0 564.4,428.8 550.0,428.8 535.6,428.8 521.2,428.8 506.9,428.9 492.5,428.9 478.1,429.2 463.8,429.2 449.4,429.3 435.0,429.3 420.6,429.3 406.2,430.7 391.9,430.8 377.5,426.0 363.1,426.0 348.8,426.0 334.4,426.0 320.0,426.0 305.6,426.1 291.2,426.2 276.9,432.2 262.5,432.2 248.1,432.2 233.8,435.9 219.4,436.3 205.0,436.6 190.6,650.0 176.2,650.0 161.9,650.0 147.5,650.0 133.1,650.0 118.8,650.0 104.4,650.0 90.0,650.0" fill="#6E4C13" opacity="0.6" class="anim" style="animation-delay:1000ms;"/>
<polygon points="90.0,650.0 104.4,650.0 118.8,650.0 133.1,650.0 147.5,650.0 161.9,650.0 176.2,650.0 190.6,650.0 205.0,418.7 219.4,418.6 233.8,418.5 248.1,417.3 262.5,417.3 276.9,417.2 291.2,415.3 305.6,415.3 320.0,415.2 334.4,415.2 348.8,415.2 363.1,415.2 377.5,415.2 391.9,416.8 406.2,416.8 420.6,416.3 435.0,416.3 449.4,416.3 463.8,416.3 478.1,416.3 492.5,416.2 506.9,416.2 521.2,416.2 535.6,416.2 550.0,416.2 564.4,416.2 578.8,414.2 593.1,414.2 607.5,414.2 621.9,414.2 636.2,414.2 650.6,413.9 665.0,413.9 679.4,413.9 693.8,413.9 708.1,413.9 722.5,413.9 736.9,413.9 751.2,413.9 765.6,413.2 780.0,412.5 780.0,413.5 765.6,415.5 751.2,417.6 736.9,417.6 722.5,417.6 708.1,417.6 693.8,417.6 679.4,417.6 665.0,417.7 650.6,417.7 636.2,418.2 621.9,418.2 607.5,418.2 593.1,418.3 578.8,418.3 564.4,422.1 550.0,422.1 535.6,422.1 521.2,422.1 506.9,422.1 492.5,422.1 478.1,422.3 463.8,422.3 449.4,422.4 435.0,422.4 420.6,422.4 406.2,423.2 391.9,423.3 377.5,420.3 363.1,420.3 348.8,420.3 334.4,420.3 320.0,420.3 305.6,420.3 291.2,420.4 276.9,424.2 262.5,424.2 248.1,424.2 233.8,426.6 219.4,426.8 205.0,427.0 190.6,650.0 176.2,650.0 161.9,650.0 147.5,650.0 133.1,650.0 118.8,650.0 104.4,650.0 90.0,650.0" fill="#F05138" opacity="0.6" class="anim" style="animation-delay:1100ms;"/>
<polygon points="90.0,650.0 104.4,650.0 118.8,650.0 133.1,650.0 147.5,650.0 161.9,650.0 176.2,650.0 190.6,650.0 205.0,414.4 219.4,414.4 233.8,414.3 248.1,413.7 262.5,413.7 276.9,413.7 291.2,412.7 305.6,412.7 320.0,412.7 334.4,412.7 348.8,412.7 363.1,412.7 377.5,412.7 391.9,413.5 406.2,413.4 420.6,413.2 435.0,413.2 449.4,413.2 463.8,413.2 478.1,413.2 492.5,413.1 506.9,413.1 521.2,413.1 535.6,413.1 550.0,413.1 564.4,413.1 578.8,412.2 593.1,412.1 607.5,412.1 621.9,412.1 636.2,412.1 650.6,412.0 665.0,412.0 679.4,412.0 693.8,412.0 708.1,412.0 722.5,412.0 736.9,412.0 751.2,412.0 765.6,412.0 780.0,412.0 780.0,412.5 765.6,413.2 751.2,413.9 736.9,413.9 722.5,413.9 708.1,413.9 693.8,413.9 679.4,413.9 665.0,413.9 650.6,413.9 636.2,414.2 621.9,414.2 607.5,414.2 593.1,414.2 578.8,414.2 564.4,416.2 550.0,416.2 535.6,416.2 521.2,416.2 506.9,416.2 492.5,416.2 478.1,416.3 463.8,416.3 449.4,416.3 435.0,416.3 420.6,416.3 406.2,416.8 391.9,416.8 377.5,415.2 363.1,415.2 348.8,415.2 334.4,415.2 320.0,415.2 305.6,415.3 291.2,415.3 276.9,417.2 262.5,417.3 248.1,417.3 233.8,418.5 219.4,418.6 205.0,418.7 190.6,650.0 176.2,650.0 161.9,650.0 147.5,650.0 133.1,650.0 118.8,650.0 104.4,650.0 90.0,650.0" fill="#b07219" opacity="0.6" class="anim" style="animation-delay:1200ms;"/>
<line x1="751.2" y1="100" x2="751.2" y2="650" stroke="#c9d1d9" stroke-width="1" stroke-dasharray="4,3" opacity="0.35"/>
<text x="765.6" y="112" text-anchor="middle" class="axis-label" opacity="0.6">Apr 07, 2026</text>
<text x="90.0" y="668" text-anchor="middle" class="axis-label" transform="rotate(-35 90.0 668)">2026-02</text>
<text x="449.4" y="668" text-anchor="middle" class="axis-label" transform="rotate(-35 449.4 668)">2026-03</text>
<text x="765.6" y="668" text-anchor="middle" class="axis-label" transform="rotate(-35 765.6 668)">Apr 07, 2026</text>
<line x1="796" y1="110" x2="824" y2="110" stroke="#3fb950" stroke-width="2"/>
<text x="832" y="116" class="legend-text">Lines Added</text>
<line x1="796" y1="140" x2="824" y2="140" stroke="#f85149" stroke-width="1.5"/>
<text x="832" y="146" class="legend-text">Lines Deleted</text>
<line x1="796" y1="170" x2="824" y2="170" stroke="#e3b341" stroke-width="1.5" stroke-dasharray="4,3"/>
<text x="832" y="176" class="legend-text">&#x2605; Stars</text>
<text x="796" y="200" class="subtitle">Languages</text>
<rect x="796" y="212" width="12" height="12" rx="2" fill="#e34c26" opacity="0.8" class="anim" style="animation-delay:800ms;"/>
<text x="814" y="223" class="legend-text">HTML (59%→57%)</text>
<rect x="796" y="234" width="12" height="12" rx="2" fill="#f1e05a" opacity="0.8" class="anim" style="animation-delay:880ms;"/>
<text x="814" y="245" class="legend-text">JavaScript (22%→30%)</text>
<rect x="796" y="256" width="12" height="12" rx="2" fill="#3572A5" opacity="0.8" class="anim" style="animation-delay:960ms;"/>
<text x="814" y="267" class="legend-text">Python (7%→3%)</text>
<rect x="796" y="278" width="12" height="12" rx="2" fill="#663399" opacity="0.8" class="anim" style="animation-delay:1040ms;"/>
<text x="814" y="289" class="legend-text">CSS (5%→6%)</text>
<rect x="796" y="300" width="12" height="12" rx="2" fill="#083fa1" opacity="0.8" class="anim" style="animation-delay:1120ms;"/>
<text x="814" y="311" class="legend-text">Markdown (2%→2%)</text>
<rect x="796" y="322" width="12" height="12" rx="2" fill="#6E4C13" opacity="0.8" class="anim" style="animation-delay:1200ms;"/>
<text x="814" y="333" class="legend-text">Assembly (2%→0%)</text>
<rect x="796" y="344" width="12" height="12" rx="2" fill="#F05138" opacity="0.8" class="anim" style="animation-delay:1280ms;"/>
<text x="814" y="355" class="legend-text">Swift (2%→0%)</text>
<rect x="796" y="366" width="12" height="12" rx="2" fill="#b07219" opacity="0.8" class="anim" style="animation-delay:1360ms;"/>
<text x="814" y="377" class="legend-text">Java (1%→0%)</text>
<text x="796" y="412" class="subtitle">Contributions</text>
<text x="796" y="432" class="axis-label">2023: 39</text>
<text x="796" y="452" class="axis-label">2024: 646</text>
<text x="796" y="472" class="axis-label">2025: 1,780</text>
<text x="796" y="492" class="axis-label">2026: 397</text>
<text x="796" y="522" class="subtitle">Statistics</text>
<text x="796" y="542" class="axis-label">Active weeks: 79</text>
<text x="796" y="562" class="axis-label">Add/Del ratio: 1.6x</text>
<text x="796" y="582" class="axis-label">Avg lines/wk: 19K</text>
<text x="796" y="602" class="axis-label">Peak: 2026-02-15</text>
<text x="796" y="622" class="axis-label">  (543K lines)</text>
<text x="90" y="742" class="axis-label">Total: +922,355 / -572,795 lines &#xb7; 2,862 contributions &#xb7; 76 repos &#xb7; &#x2605; 35</text>
</svg>