<svg xmlns="http://www.w3.org/2000/svg" width="1000" height="760" style="max-width: 100%;" viewBox="0 0 1000 760">

<defs>
  <linearGradient id="areaGrad" x1="0" y1="0" x2="0" y2="1">
    <stop offset="0%" stop-color="#58a6ff" stop-opacity="0.35"/>
    <stop offset="100%" stop-color="#58a6ff" stop-opacity="0.02"/>
  </linearGradient>
  <linearGradient id="addGrad" x1="0" y1="0" x2="0" y2="1">
    <stop offset="0%" stop-color="#3fb950" stop-opacity="0.35"/>
    <stop offset="100%" stop-color="#3fb950" stop-opacity="0.02"/>
  </linearGradient>
  <linearGradient id="delGrad" x1="0" y1="0" x2="0" y2="1">
    <stop offset="0%" stop-color="#f85149" stop-opacity="0.25"/>
    <stop offset="100%" stop-color="#f85149" stop-opacity="0.02"/>
  </linearGradient>
</defs>
<style>
  .title { font: bold 28px 'Segoe UI', Ubuntu, Sans-Serif; fill: #c9d1d9; }
  .subtitle { font: 600 20px 'Segoe UI', Ubuntu, Sans-Serif; fill: #c9d1d9; opacity: 0.8; }
  .axis-label { font: 18px 'Segoe UI', Ubuntu, Sans-Serif; fill: #c9d1d9; opacity: 0.7; }
  .legend-text { font: 14px 'Segoe UI', Ubuntu, Sans-Serif; fill: #c9d1d9; }
  .value-text { font: bold 18px 'Segoe UI', Ubuntu, Sans-Serif; fill: #c9d1d9; }
  .stat-value { font: bold 22px 'Segoe UI', Ubuntu, Sans-Serif; fill: #c9d1d9; }
  .stat-label { font: 18px 'Segoe UI', Ubuntu, Sans-Serif; fill: #c9d1d9; opacity: 0.7; }
  @keyframes fadeIn { from { opacity: 0; } to { opacity: 1; } }
  .anim { animation: fadeIn 0.6s ease-in-out forwards; opacity: 0; }
</style>

<rect x="0.5" y="0.5" rx="4.5" width="999" height="759" fill="#161b22" stroke="#21262d"/>
<text x="90" y="45" class="title">Activity History</text>
<text x="90" y="72" class="subtitle">Lines added vs deleted &amp; activity trends over time</text>
<line x1="90" y1="340.0" x2="780" y2="340.0" stroke="#21262d" stroke-width="1"/>
<text x="82" y="344.0" text-anchor="end" class="axis-label">0</text>
<line x1="90" y1="280.0" x2="780" y2="280.0" stroke="#21262d" stroke-width="1"/>
<text x="82" y="284.0" text-anchor="end" class="axis-label">455K</text>
<line x1="90" y1="220.0" x2="780" y2="220.0" stroke="#21262d" stroke-width="1"/>
<text x="82" y="224.0" text-anchor="end" class="axis-label">911K</text>
<line x1="90" y1="160.0" x2="780" y2="160.0" stroke="#21262d" stroke-width="1"/>
<text x="82" y="164.0" text-anchor="end" class="axis-label">1.4M</text>
<line x1="90" y1="100.0" x2="780" y2="100.0" stroke="#21262d" stroke-width="1"/>
<text x="82" y="104.0" text-anchor="end" class="axis-label">1.8M</text>
<polygon points="90.0,340.0 90.0,291.9 98.6,293.6 107.2,291.9 115.9,293.6 124.5,304.7 133.1,282.7 141.8,282.7 150.4,274.4 159.0,274.1 167.6,273.5 176.2,273.5 184.9,258.7 193.5,258.7 202.1,258.6 210.8,236.7 219.4,236.4 228.0,236.1 236.6,236.1 245.2,236.1 253.9,236.1 262.5,236.1 271.1,235.6 279.8,220.9 288.4,220.9 297.0,220.9 305.6,220.9 314.2,220.5 322.9,220.5 331.5,219.9 340.1,219.9 348.8,219.8 357.4,219.8 366.0,219.8 374.6,219.8 383.2,219.9 391.9,219.8 400.5,219.8 409.1,219.8 417.8,219.8 426.4,219.8 435.0,219.8 443.6,219.2 452.2,219.4 460.9,218.8 469.5,218.5 478.1,218.5 486.8,218.5 495.4,218.5 504.0,218.5 512.6,218.5 521.2,218.4 529.9,218.4 538.5,218.4 547.1,218.5 555.8,218.7 564.4,220.2 573.0,218.8 581.6,217.5 590.2,217.4 598.9,217.4 607.5,217.4 616.1,217.4 624.8,209.9 633.4,203.0 642.0,203.0 650.6,203.0 659.2,203.0 667.9,203.0 676.5,203.0 685.1,203.0 693.8,203.0 702.4,202.9 711.0,202.9 719.6,202.9 728.2,202.9 736.9,202.9 745.5,202.9 754.1,202.9 762.8,202.9 771.4,195.3 780.0,187.8 780.0,340.0" fill="url(#addGrad)" class="anim" style="animation-delay:200ms;"/>
<polyline points="90.0,291.9 98.6,293.6 107.2,291.9 115.9,293.6 124.5,304.7 133.1,282.7 141.8,282.7 150.4,274.4 159.0,274.1 167.6,273.5 176.2,273.5 184.9,258.7 193.5,258.7 202.1,258.6 210.8,236.7 219.4,236.4 228.0,236.1 236.6,236.1 245.2,236.1 253.9,236.1 262.5,236.1 271.1,235.6 279.8,220.9 288.4,220.9 297.0,220.9 305.6,220.9 314.2,220.5 322.9,220.5 331.5,219.9 340.1,219.9 348.8,219.8 357.4,219.8 366.0,219.8 374.6,219.8 383.2,219.9 391.9,219.8 400.5,219.8 409.1,219.8 417.8,219.8 426.4,219.8 435.0,219.8 443.6,219.2 452.2,219.4 460.9,218.8 469.5,218.5 478.1,218.5 486.8,218.5 495.4,218.5 504.0,218.5 512.6,218.5 521.2,218.4 529.9,218.4 538.5,218.4 547.1,218.5 555.8,218.7 564.4,220.2 573.0,218.8 581.6,217.5 590.2,217.4 598.9,217.4 607.5,217.4 616.1,217.4 624.8,209.9 633.4,203.0 642.0,203.0 650.6,203.0 659.2,203.0 667.9,203.0 676.5,203.0 685.1,203.0 693.8,203.0 702.4,202.9 711.0,202.9 719.6,202.9 728.2,202.9 736.9,202.9 745.5,202.9 754.1,202.9 762.8,202.9" fill="none" stroke="#3fb950" stroke-width="2" stroke-linejoin="round" class="anim" style="animation-delay:250ms;"/>
<polyline points="762.8,202.9 771.4,195.3 780.0,187.8" fill="none" stroke="#3fb950" stroke-width="1.5" stroke-dasharray="5,4" stroke-linejoin="round" opacity="0.6" class="anim" style="animation-delay:250ms;"/>
<polygon points="90.0,340.0 90.0,326.5 98.6,327.9 107.2,326.5 115.9,327.9 124.5,333.6 133.1,324.8 141.8,324.8 150.4,323.9 159.0,323.5 167.6,323.3 176.2,323.2 184.9,307.3 193.5,307.3 202.1,307.2 210.8,289.2 219.4,289.1 228.0,289.0 236.6,289.0 245.2,289.0 253.9,289.0 262.5,289.0 271.1,279.6 279.8,265.2 288.4,265.1 297.0,265.1 305.6,265.1 314.2,265.1 322.9,265.1 331.5,265.0 340.1,265.0 348.8,264.9 357.4,264.9 366.0,264.9 374.6,264.9 383.2,265.0 391.9,264.9 400.5,264.9 409.1,264.9 417.8,264.9 426.4,264.9 435.0,264.9 443.6,264.9 452.2,265.0 460.9,264.5 469.5,264.5 478.1,264.5 486.8,264.5 495.4,264.5 504.0,264.5 512.6,264.5 521.2,264.5 529.9,264.5 538.5,264.5 547.1,264.6 555.8,264.6 564.4,265.4 573.0,264.9 581.6,264.1 590.2,264.0 598.9,264.0 607.5,264.0 616.1,264.0 624.8,264.0 633.4,264.0 642.0,264.0 650.6,264.0 659.2,264.0 667.9,264.0 676.5,264.0 685.1,264.0 693.8,264.0 702.4,264.0 711.0,264.0 719.6,264.0 728.2,264.0 736.9,264.0 745.5,264.0 754.1,264.0 762.8,264.0 771.4,258.1 780.0,252.2 780.0,340.0" fill="url(#delGrad)" class="anim" style="animation-delay:300ms;"/>
<polyline points="90.0,326.5 98.6,327.9 107.2,326.5 115.9,327.9 124.5,333.6 133.1,324.8 141.8,324.8 150.4,323.9 159.0,323.5 167.6,323.3 176.2,323.2 184.9,307.3 193.5,307.3 202.1,307.2 210.8,289.2 219.4,289.1 228.0,289.0 236.6,289.0 245.2,289.0 253.9,289.0 262.5,289.0 271.1,279.6 279.8,265.2 288.4,265.1 297.0,265.1 305.6,265.1 314.2,265.1 322.9,265.1 331.5,265.0 340.1,265.0 348.8,264.9 357.4,264.9 366.0,264.9 374.6,264.9 383.2,265.0 391.9,264.9 400.5,264.9 409.1,264.9 417.8,264.9 426.4,264.9 435.0,264.9 443.6,264.9 452.2,265.0 460.9,264.5 469.5,264.5 478.1,264.5 486.8,264.5 495.4,264.5 504.0,264.5 512.6,264.5 521.2,264.5 529.9,264.5 538.5,264.5 547.1,264.6 555.8,264.6 564.4,265.4 573.0,264.9 581.6,264.1 590.2,264.0 598.9,264.0 607.5,264.0 616.1,264.0 624.8,264.0 633.4,264.0 642.0,264.0 650.6,264.0 659.2,264.0 667.9,264.0 676.5,264.0 685.1,264.0 693.8,264.0 702.4,264.0 711.0,264.0 719.6,264.0 728.2,264.0 736.9,264.0 745.5,264.0 754.1,264.0 762.8,264.0" fill="none" stroke="#f85149" stroke-width="1.5" stroke-linejoin="round" class="anim" style="animation-delay:350ms;"/>
<polyline points="762.8,264.0 771.4,258.1 780.0,252.2" fill="none" stroke="#f85149" stroke-width="1" stroke-dasharray="5,4" stroke-linejoin="round" opacity="0.6" class="anim" style="animation-delay:350ms;"/>
<polyline points="90.0,340.0 98.6,340.0 107.2,340.0 115.9,340.0 124.5,340.0 133.1,340.0 141.8,340.0 150.4,340.0 159.0,308.0 167.6,308.0 176.2,308.0 184.9,308.0 193.5,308.0 202.1,308.0 210.8,308.0 219.4,308.0 228.0,308.0 236.6,308.0 245.2,308.0 253.9,308.0 262.5,308.0 271.1,308.0 279.8,308.0 288.4,308.0 297.0,308.0 305.6,308.0 314.2,308.0 322.9,308.0 331.5,308.0 340.1,308.0 348.8,308.0 357.4,308.0 366.0,308.0 374.6,308.0 383.2,276.0 391.9,276.0 400.5,276.0 409.1,276.0 417.8,276.0 426.4,276.0 435.0,276.0 443.6,276.0 452.2,244.0 460.9,244.0 469.5,244.0 478.1,244.0 486.8,244.0 495.4,244.0 504.0,244.0 512.6,244.0 521.2,244.0 529.9,244.0 538.5,244.0 547.1,244.0 555.8,244.0 564.4,244.0 573.0,244.0 581.6,244.0 590.2,180.0 598.9,180.0 607.5,180.0 616.1,180.0 624.8,180.0 633.4,180.0 642.0,180.0 650.6,180.0 659.2,180.0 667.9,180.0 676.5,180.0 685.1,180.0 693.8,180.0 702.4,180.0 711.0,180.0 719.6,180.0 728.2,180.0 736.9,180.0 745.5,180.0 754.1,180.0 762.8,180.0" fill="none" stroke="#e3b341" stroke-width="1.5" stroke-dasharray="4,3" stroke-linejoin="round" class="anim" style="animation-delay:400ms;"/>
<polyline points="762.8,180.0 771.4,180.0 780.0,148.0" fill="none" stroke="#e3b341" stroke-width="1" stroke-dasharray="3,5" stroke-linejoin="round" opacity="0.5" class="anim" style="animation-delay:400ms;"/>
<text x="90" y="90" class="subtitle">Lines Added vs Deleted (per snapshot)</text>
<text x="90" y="400" class="subtitle">Programming Language Development (%)</text>
<line x1="90" y1="650.0" x2="780" y2="650.0" stroke="#21262d" stroke-width="1"/>
<text x="82" y="654.0" text-anchor="end" class="axis-label">0%</text>
<line x1="90" y1="590.0" x2="780" y2="590.0" stroke="#21262d" stroke-width="1"/>
<text x="82" y="594.0" text-anchor="end" class="axis-label">25%</text>
<line x1="90" y1="530.0" x2="780" y2="530.0" stroke="#21262d" stroke-width="1"/>
<text x="82" y="534.0" text-anchor="end" class="axis-label">50%</text>
<line x1="90" y1="470.0" x2="780" y2="470.0" stroke="#21262d" stroke-width="1"/>
<text x="82" y="474.0" text-anchor="end" class="axis-label">75%</text>
<line x1="90" y1="410.0" x2="780" y2="410.0" stroke="#21262d" stroke-width="1"/>
<text x="82" y="414.0" text-anchor="end" class="axis-label">100%</text>
<polygon points="90.0,650.0 98.6,650.0 107.2,650.0 115.9,650.0 124.5,650.0 133.1,650.0 141.8,650.0 150.4,650.0 159.0,528.2 167.6,528.5 176.2,529.7 184.9,499.3 193.5,499.3 202.1,502.9 210.8,485.0 219.4,485.1 228.0,485.4 236.6,485.4 245.2,485.4 253.9,485.4 262.5,485.4 271.1,496.4 279.8,496.7 288.4,491.0 297.0,491.0 305.6,491.0 314.2,491.7 322.9,491.8 331.5,494.0 340.1,494.0 348.8,494.4 357.4,494.4 366.0,494.4 374.6,494.4 383.2,507.6 391.9,507.6 400.5,507.9 409.1,507.9 417.8,507.9 426.4,506.3 435.0,506.4 443.6,506.8 452.2,506.9 460.9,506.8 469.5,507.5 478.1,507.5 486.8,507.5 495.4,507.5 504.0,507.5 512.6,507.5 521.2,507.5 529.9,507.5 538.5,507.5 547.1,507.5 555.8,507.5 564.4,507.5 573.0,507.5 581.6,508.6 590.2,508.6 598.9,508.6 607.5,508.6 616.1,508.6 624.8,509.5 633.4,509.8 642.0,509.8 650.6,509.8 659.2,509.8 667.9,509.8 676.5,509.8 685.1,509.8 693.8,509.8 702.4,510.9 711.0,510.9 719.6,510.9 728.2,510.9 736.9,510.9 745.5,510.9 754.1,510.9 762.8,510.9 771.4,512.8 780.0,514.8 780.0,650.0 771.4,650.0 762.8,650.0 754.1,650.0 745.5,650.0 736.9,650.0 728.2,650.0 719.6,650.0 711.0,650.0 702.4,650.0 693.8,650.0 685.1,650.0 676.5,650.0 667.9,650.0 659.2,650.0 650.6,650.0 642.0,650.0 633.4,650.0 624.8,650.0 616.1,650.0 607.5,650.0 598.9,650.0 590.2,650.0 581.6,650.0 573.0,650.0 564.4,650.0 555.8,650.0 547.1,650.0 538.5,650.0 529.9,650.0 521.2,650.0 512.6,650.0 504.0,650.0 495.4,650.0 486.8,650.0 478.1,650.0 469.5,650.0 460.9,650.0 452.2,650.0 443.6,650.0 435.0,650.0 426.4,650.0 417.8,650.0 409.1,650.0 400.5,650.0 391.9,650.0 383.2,650.0 374.6,650.0 366.0,650.0 357.4,650.0 348.8,650.0 340.1,650.0 331.5,650.0 322.9,650.0 314.2,650.0 305.6,650.0 297.0,650.0 288.4,650.0 279.8,650.0 271.1,650.0 262.5,650.0 253.9,650.0 245.2,650.0 236.6,650.0 228.0,650.0 219.4,650.0 210.8,650.0 202.1,650.0 193.5,650.0 184.9,650.0 176.2,650.0 167.6,650.0 159.0,650.0 150.4,650.0 141.8,650.0 133.1,650.0 124.5,650.0 115.9,650.0 107.2,650.0 98.6,650.0 90.0,650.0" fill="#e34c26" opacity="0.6" class="anim" style="animation-delay:500ms;"/>
<polygon points="90.0,650.0 98.6,650.0 107.2,650.0 115.9,650.0 124.5,650.0 133.1,650.0 141.8,650.0 150.4,650.0 159.0,488.4 167.6,488.0 176.2,489.0 184.9,476.0 193.5,476.0 202.1,477.2 210.8,460.1 219.4,460.2 228.0,460.6 236.6,460.6 245.2,460.6 253.9,460.6 262.5,460.6 271.1,473.0 279.8,473.5 288.4,469.5 297.0,469.5 305.6,469.5 314.2,469.7 322.9,469.7 331.5,469.7 340.1,469.7 348.8,469.7 357.4,469.7 366.0,469.7 374.6,469.7 383.2,455.6 391.9,455.6 400.5,455.4 409.1,455.4 417.8,455.4 426.4,454.3 435.0,454.3 443.6,455.0 452.2,455.1 460.9,454.9 469.5,455.9 478.1,455.9 486.8,455.9 495.4,455.9 504.0,455.9 512.6,455.9 521.2,455.9 529.9,455.9 538.5,455.9 547.1,455.9 555.8,455.9 564.4,455.9 573.0,455.9 581.6,455.8 590.2,455.8 598.9,455.8 607.5,455.8 616.1,455.8 624.8,457.0 633.4,457.4 642.0,457.4 650.6,457.4 659.2,457.4 667.9,457.4 676.5,457.4 685.1,457.4 693.8,457.4 702.4,458.2 711.0,458.2 719.6,458.2 728.2,458.2 736.9,458.2 745.5,458.2 754.1,458.2 762.8,458.2 771.4,456.2 780.0,454.2 780.0,514.8 771.4,512.8 762.8,510.9 754.1,510.9 745.5,510.9 736.9,510.9 728.2,510.9 719.6,510.9 711.0,510.9 702.4,510.9 693.8,509.8 685.1,509.8 676.5,509.8 667.9,509.8 659.2,509.8 650.6,509.8 642.0,509.8 633.4,509.8 624.8,509.5 616.1,508.6 607.5,508.6 598.9,508.6 590.2,508.6 581.6,508.6 573.0,507.5 564.4,507.5 555.8,507.5 547.1,507.5 538.5,507.5 529.9,507.5 521.2,507.5 512.6,507.5 504.0,507.5 495.4,507.5 486.8,507.5 478.1,507.5 469.5,507.5 460.9,506.8 452.2,506.9 443.6,506.8 435.0,506.4 426.4,506.3 417.8,507.9 409.1,507.9 400.5,507.9 391.9,507.6 383.2,507.6 374.6,494.4 366.0,494.4 357.4,494.4 348.8,494.4 340.1,494.0 331.5,494.0 322.9,491.8 314.2,491.7 305.6,491.0 297.0,491.0 288.4,491.0 279.8,496.7 271.1,496.4 262.5,485.4 253.9,485.4 245.2,485.4 236.6,485.4 228.0,485.4 219.4,485.1 210.8,485.0 202.1,502.9 193.5,499.3 184.9,499.3 176.2,529.7 167.6,528.5 159.0,528.2 150.4,650.0 141.8,650.0 133.1,650.0 124.5,650.0 115.9,650.0 107.2,650.0 98.6,650.0 90.0,650.0" fill="#f1e05a" opacity="0.6" class="anim" style="animation-delay:600ms;"/>
<polygon points="90.0,650.0 98.6,650.0 107.2,650.0 115.9,650.0 124.5,650.0 133.1,650.0 141.8,650.0 150.4,650.0 159.0,455.5 167.6,455.4 176.2,455.1 184.9,447.0 193.5,447.0 202.1,448.2 210.8,438.9 219.4,439.0 228.0,439.6 236.6,439.6 245.2,439.6 253.9,439.6 262.5,439.6 271.1,445.6 279.8,445.6 288.4,443.3 297.0,443.3 305.6,443.3 314.2,443.6 322.9,443.6 331.5,444.1 340.1,444.1 348.8,444.1 357.4,444.1 366.0,444.1 374.6,444.1 383.2,437.5 391.9,437.5 400.5,437.5 409.1,437.5 417.8,437.5 426.4,437.5 435.0,437.5 443.6,438.4 452.2,438.5 460.9,438.3 469.5,439.3 478.1,439.3 486.8,439.3 495.4,439.3 504.0,439.3 512.6,439.3 521.2,439.3 529.9,439.3 538.5,439.3 547.1,439.3 555.8,439.3 564.4,439.3 573.0,439.3 581.6,439.4 590.2,439.4 598.9,439.4 607.5,439.4 616.1,439.4 624.8,440.7 633.4,441.1 642.0,441.1 650.6,441.1 659.2,441.1 667.9,441.1 676.5,441.1 685.1,441.1 693.8,441.1 702.4,442.0 711.0,442.0 719.6,442.0 728.2,442.0 736.9,442.0 745.5,442.0 754.1,442.0 762.8,442.0 771.4,441.6 780.0,441.2 780.0,454.2 771.4,456.2 762.8,458.2 754.1,458.2 745.5,458.2 736.9,458.2 728.2,458.2 719.6,458.2 711.0,458.2 702.4,458.2 693.8,457.4 685.1,457.4 676.5,457.4 667.9,457.4 659.2,457.4 650.6,457.4 642.0,457.4 633.4,457.4 624.8,457.0 616.1,455.8 607.5,455.8 598.9,455.8 590.2,455.8 581.6,455.8 573.0,455.9 564.4,455.9 555.8,455.9 547.1,455.9 538.5,455.9 529.9,455.9 521.2,455.9 512.6,455.9 504.0,455.9 495.4,455.9 486.8,455.9 478.1,455.9 469.5,455.9 460.9,454.9 452.2,455.1 443.6,455.0 435.0,454.3 426.4,454.3 417.8,455.4 409.1,455.4 400.5,455.4 391.9,455.6 383.2,455.6 374.6,469.7 366.0,469.7 357.4,469.7 348.8,469.7 340.1,469.7 331.5,469.7 322.9,469.7 314.2,469.7 305.6,469.5 297.0,469.5 288.4,469.5 279.8,473.5 271.1,473.0 262.5,460.6 253.9,460.6 245.2,460.6 236.6,460.6 228.0,460.6 219.4,460.2 210.8,460.1 202.1,477.2 193.5,476.0 184.9,476.0 176.2,489.0 167.6,488.0 159.0,488.4 150.4,650.0 141.8,650.0 133.1,650.0 124.5,650.0 115.9,650.0 107.2,650.0 98.6,650.0 90.0,650.0" fill="#3572A5" opacity="0.6" class="anim" style="animation-delay:700ms;"/>
<polygon points="90.0,650.0 98.6,650.0 107.2,650.0 115.9,650.0 124.5,650.0 133.1,650.0 141.8,650.0 150.4,650.0 159.0,442.3 167.6,442.0 176.2,441.6 184.9,439.5 193.5,439.5 202.1,439.4 210.8,432.3 219.4,432.2 228.0,432.6 236.6,432.6 245.2,432.6 253.9,432.6 262.5,432.6 271.1,439.3 279.8,439.3 288.4,437.4 297.0,437.4 305.6,437.4 314.2,437.3 322.9,437.3 331.5,437.1 340.1,437.1 348.8,437.1 357.4,437.1 366.0,437.1 374.6,437.1 383.2,428.7 391.9,428.6 400.5,428.5 409.1,428.5 417.8,428.5 426.4,427.3 435.0,427.3 443.6,427.1 452.2,427.1 460.9,427.1 469.5,427.0 478.1,427.0 486.8,427.0 495.4,427.0 504.0,427.0 512.6,427.0 521.2,427.0 529.9,427.0 538.5,427.0 547.1,427.0 555.8,427.0 564.4,427.0 573.0,427.0 581.6,427.0 590.2,427.1 598.9,427.1 607.5,427.1 616.1,427.1 624.8,428.4 633.4,428.9 642.0,428.9 650.6,428.9 659.2,428.9 667.9,428.9 676.5,428.9 685.1,428.9 693.8,428.9 702.4,428.7 711.0,428.7 719.6,428.7 728.2,428.7 736.9,428.7 745.5,428.7 754.1,428.7 762.8,428.7 771.4,427.6 780.0,426.5 780.0,441.2 771.4,441.6 762.8,442.0 754.1,442.0 745.5,442.0 736.9,442.0 728.2,442.0 719.6,442.0 711.0,442.0 702.4,442.0 693.8,441.1 685.1,441.1 676.5,441.1 667.9,441.1 659.2,441.1 650.6,441.1 642.0,441.1 633.4,441.1 624.8,440.7 616.1,439.4 607.5,439.4 598.9,439.4 590.2,439.4 581.6,439.4 573.0,439.3 564.4,439.3 555.8,439.3 547.1,439.3 538.5,439.3 529.9,439.3 521.2,439.3 512.6,439.3 504.0,439.3 495.4,439.3 486.8,439.3 478.1,439.3 469.5,439.3 460.9,438.3 452.2,438.5 443.6,438.4 435.0,437.5 426.4,437.5 417.8,437.5 409.1,437.5 400.5,437.5 391.9,437.5 383.2,437.5 374.6,444.1 366.0,444.1 357.4,444.1 348.8,444.1 340.1,444.1 331.5,444.1 322.9,443.6 314.2,443.6 305.6,443.3 297.0,443.3 288.4,443.3 279.8,445.6 271.1,445.6 262.5,439.6 253.9,439.6 245.2,439.6 236.6,439.6 228.0,439.6 219.4,439.0 210.8,438.9 202.1,448.2 193.5,447.0 184.9,447.0 176.2,455.1 167.6,455.4 159.0,455.5 150.4,650.0 141.8,650.0 133.1,650.0 124.5,650.0 115.9,650.0 107.2,650.0 98.6,650.0 90.0,650.0" fill="#663399" opacity="0.6" class="anim" style="animation-delay:800ms;"/>
<polygon points="90.0,650.0 98.6,650.0 107.2,650.0 115.9,650.0 124.5,650.0 133.1,650.0 141.8,650.0 150.4,650.0 159.0,436.6 167.6,436.3 176.2,435.9 184.9,432.2 193.5,432.2 202.1,432.2 210.8,426.2 219.4,426.1 228.0,426.0 236.6,426.0 245.2,426.0 253.9,426.0 262.5,426.0 271.1,430.8 279.8,430.7 288.4,429.3 297.0,429.3 305.6,429.3 314.2,429.2 322.9,429.2 331.5,428.9 340.1,428.9 348.8,428.8 357.4,428.8 366.0,428.8 374.6,428.8 383.2,423.0 391.9,422.9 400.5,422.9 409.1,422.9 417.8,422.9 426.4,422.0 435.0,422.0 443.6,421.9 452.2,421.9 460.9,421.9 469.5,421.8 478.1,421.8 486.8,421.8 495.4,421.8 504.0,421.8 512.6,421.8 521.2,421.8 529.9,421.8 538.5,421.8 547.1,421.8 555.8,421.8 564.4,421.8 573.0,421.8 581.6,421.7 590.2,421.8 598.9,421.8 607.5,421.8 616.1,421.8 624.8,423.2 633.4,423.6 642.0,423.6 650.6,423.6 659.2,423.6 667.9,423.6 676.5,423.6 685.1,423.6 693.8,423.6 702.4,423.5 711.0,423.5 719.6,423.5 728.2,423.5 736.9,423.5 745.5,423.5 754.1,423.5 762.8,423.5 771.4,422.7 780.0,421.8 780.0,426.5 771.4,427.6 762.8,428.7 754.1,428.7 745.5,428.7 736.9,428.7 728.2,428.7 719.6,428.7 711.0,428.7 702.4,428.7 693.8,428.9 685.1,428.9 676.5,428.9 667.9,428.9 659.2,428.9 650.6,428.9 642.0,428.9 633.4,428.9 624.8,428.4 616.1,427.1 607.5,427.1 598.9,427.1 590.2,427.1 581.6,427.0 573.0,427.0 564.4,427.0 555.8,427.0 547.1,427.0 538.5,427.0 529.9,427.0 521.2,427.0 512.6,427.0 504.0,427.0 495.4,427.0 486.8,427.0 478.1,427.0 469.5,427.0 460.9,427.1 452.2,427.1 443.6,427.1 435.0,427.3 426.4,427.3 417.8,428.5 409.1,428.5 400.5,428.5 391.9,428.6 383.2,428.7 374.6,437.1 366.0,437.1 357.4,437.1 348.8,437.1 340.1,437.1 331.5,437.1 322.9,437.3 314.2,437.3 305.6,437.4 297.0,437.4 288.4,437.4 279.8,439.3 271.1,439.3 262.5,432.6 253.9,432.6 245.2,432.6 236.6,432.6 228.0,432.6 219.4,432.2 210.8,432.3 202.1,439.4 193.5,439.5 184.9,439.5 176.2,441.6 167.6,442.0 159.0,442.3 150.4,650.0 141.8,650.0 133.1,650.0 124.5,650.0 115.9,650.0 107.2,650.0 98.6,650.0 90.0,650.0" fill="#083fa1" opacity="0.6" class="anim" style="animation-delay:900ms;"/>
<polygon points="90.0,650.0 98.6,650.0 107.2,650.0 115.9,650.0 124.5,650.0 133.1,650.0 141.8,650.0 150.4,650.0 159.0,427.0 167.6,426.8 176.2,426.6 184.9,424.2 193.5,424.2 202.1,424.2 210.8,420.4 219.4,420.3 228.0,420.3 236.6,420.3 245.2,420.3 253.9,420.3 262.5,420.3 271.1,423.3 279.8,423.2 288.4,422.4 297.0,422.4 305.6,422.4 314.2,422.3 322.9,422.3 331.5,422.1 340.1,422.1 348.8,422.1 357.4,422.1 366.0,422.1 374.6,422.1 383.2,418.3 391.9,418.3 400.5,418.2 409.1,418.2 417.8,418.2 426.4,417.7 435.0,417.7 443.6,417.6 452.2,417.6 460.9,417.6 469.5,417.6 478.1,417.6 486.8,417.6 495.4,417.6 504.0,417.6 512.6,417.6 521.2,417.6 529.9,417.6 538.5,417.6 547.1,417.6 555.8,417.6 564.4,417.6 573.0,417.6 581.6,417.5 590.2,417.6 598.9,417.6 607.5,417.6 616.1,417.6 624.8,419.0 633.4,419.5 642.0,419.5 650.6,419.5 659.2,419.5 667.9,419.5 676.5,419.5 685.1,419.5 693.8,419.5 702.4,419.4 711.0,419.4 719.6,419.4 728.2,419.4 736.9,419.4 745.5,419.4 754.1,419.4 762.8,419.4 771.4,419.0 780.0,418.6 780.0,421.8 771.4,422.7 762.8,423.5 754.1,423.5 745.5,423.5 736.9,423.5 728.2,423.5 719.6,423.5 711.0,423.5 702.4,423.5 693.8,423.6 685.1,423.6 676.5,423.6 667.9,423.6 659.2,423.6 650.6,423.6 642.0,423.6 633.4,423.6 624.8,423.2 616.1,421.8 607.5,421.8 598.9,421.8 590.2,421.8 581.6,421.7 573.0,421.8 564.4,421.8 555.8,421.8 547.1,421.8 538.5,421.8 529.9,421.8 521.2,421.8 512.6,421.8 504.0,421.8 495.4,421.8 486.8,421.8 478.1,421.8 469.5,421.8 460.9,421.9 452.2,421.9 443.6,421.9 435.0,422.0 426.4,422.0 417.8,422.9 409.1,422.9 400.5,422.9 391.9,422.9 383.2,423.0 374.6,428.8 366.0,428.8 357.4,428.8 348.8,428.8 340.1,428.9 331.5,428.9 322.9,429.2 314.2,429.2 305.6,429.3 297.0,429.3 288.4,429.3 279.8,430.7 271.1,430.8 262.5,426.0 253.9,426.0 245.2,426.0 236.6,426.0 228.0,426.0 219.4,426.1 210.8,426.2 202.1,432.2 193.5,432.2 184.9,432.2 176.2,435.9 167.6,436.3 159.0,436.6 150.4,650.0 141.8,650.0 133.1,650.0 124.5,650.0 115.9,650.0 107.2,650.0 98.6,650.0 90.0,650.0" fill="#6E4C13" opacity="0.6" class="anim" style="animation-delay:1000ms;"/>
<polygon points="90.0,650.0 98.6,650.0 107.2,650.0 115.9,650.0 124.5,650.0 133.1,650.0 141.8,650.0 150.4,650.0 159.0,418.7 167.6,418.6 176.2,418.5 184.9,417.3 193.5,417.3 202.1,417.2 210.8,415.3 219.4,415.3 228.0,415.2 236.6,415.2 245.2,415.2 253.9,415.2 262.5,415.2 271.1,416.8 279.8,416.8 288.4,416.3 297.0,416.3 305.6,416.3 314.2,416.3 322.9,416.3 331.5,416.2 340.1,416.2 348.8,416.2 357.4,416.2 366.0,416.2 374.6,416.2 383.2,414.2 391.9,414.2 400.5,414.2 409.1,414.2 417.8,414.2 426.4,413.9 435.0,413.9 443.6,413.9 452.2,413.9 460.9,413.9 469.5,413.9 478.1,413.9 486.8,413.9 495.4,413.9 504.0,413.9 512.6,413.9 521.2,413.9 529.9,413.9 538.5,413.9 547.1,413.9 555.8,413.9 564.4,413.9 573.0,413.9 581.6,413.8 590.2,413.8 598.9,413.8 607.5,413.8 616.1,413.8 624.8,413.8 633.4,413.8 642.0,413.8 650.6,413.8 659.2,413.8 667.9,413.8 676.5,413.8 685.1,413.8 693.8,413.8 702.4,413.8 711.0,413.8 719.6,413.8 728.2,413.8 736.9,413.8 745.5,413.8 754.1,413.8 762.8,413.8 771.4,413.6 780.0,413.4 780.0,418.6 771.4,419.0 762.8,419.4 754.1,419.4 745.5,419.4 736.9,419.4 728.2,419.4 719.6,419.4 711.0,419.4 702.4,419.4 693.8,419.5 685.1,419.5 676.5,419.5 667.9,419.5 659.2,419.5 650.6,419.5 642.0,419.5 633.4,419.5 624.8,419.0 616.1,417.6 607.5,417.6 598.9,417.6 590.2,417.6 581.6,417.5 573.0,417.6 564.4,417.6 555.8,417.6 547.1,417.6 538.5,417.6 529.9,417.6 521.2,417.6 512.6,417.6 504.0,417.6 495.4,417.6 486.8,417.6 478.1,417.6 469.5,417.6 460.9,417.6 452.2,417.6 443.6,417.6 435.0,417.7 426.4,417.7 417.8,418.2 409.1,418.2 400.5,418.2 391.9,418.3 383.2,418.3 374.6,422.1 366.0,422.1 357.4,422.1 348.8,422.1 340.1,422.1 331.5,422.1 322.9,422.3 314.2,422.3 305.6,422.4 297.0,422.4 288.4,422.4 279.8,423.2 271.1,423.3 262.5,420.3 253.9,420.3 245.2,420.3 236.6,420.3 228.0,420.3 219.4,420.3 210.8,420.4 202.1,424.2 193.5,424.2 184.9,424.2 176.2,426.6 167.6,426.8 159.0,427.0 150.4,650.0 141.8,650.0 133.1,650.0 124.5,650.0 115.9,650.0 107.2,650.0 98.6,650.0 90.0,650.0" fill="#F05138" opacity="0.6" class="anim" style="animation-delay:1100ms;"/>
<polygon points="90.0,650.0 98.6,650.0 107.2,650.0 115.9,650.0 124.5,650.0 133.1,650.0 141.8,650.0 150.4,650.0 159.0,414.4 167.6,414.4 176.2,414.3 184.9,413.7 193.5,413.7 202.1,413.7 210.8,412.7 219.4,412.7 228.0,412.7 236.6,412.7 245.2,412.7 253.9,412.7 262.5,412.7 271.1,413.5 279.8,413.4 288.4,413.2 297.0,413.2 305.6,413.2 314.2,413.2 322.9,413.2 331.5,413.1 340.1,413.1 348.8,413.1 357.4,413.1 366.0,413.1 374.6,413.1 383.2,412.2 391.9,412.1 400.5,412.1 409.1,412.1 417.8,412.1 426.4,412.0 435.0,412.0 443.6,412.0 452.2,412.0 460.9,412.0 469.5,412.0 478.1,412.0 486.8,412.0 495.4,412.0 504.0,412.0 512.6,412.0 521.2,412.0 529.9,412.0 538.5,412.0 547.1,412.0 555.8,412.0 564.4,412.0 573.0,412.0 581.6,411.9 590.2,411.9 598.9,411.9 607.5,411.9 616.1,411.9 624.8,411.9 633.4,411.9 642.0,411.9 650.6,411.9 659.2,411.9 667.9,411.9 676.5,411.9 685.1,411.9 693.8,411.9 702.4,411.9 711.0,411.9 719.6,411.9 728.2,411.9 736.9,411.9 745.5,411.9 754.1,411.9 762.8,411.9 771.4,411.9 780.0,411.9 780.0,413.4 771.4,413.6 762.8,413.8 754.1,413.8 745.5,413.8 736.9,413.8 728.2,413.8 719.6,413.8 711.0,413.8 702.4,413.8 693.8,413.8 685.1,413.8 676.5,413.8 667.9,413.8 659.2,413.8 650.6,413.8 642.0,413.8 633.4,413.8 624.8,413.8 616.1,413.8 607.5,413.8 598.9,413.8 590.2,413.8 581.6,413.8 573.0,413.9 564.4,413.9 555.8,413.9 547.1,413.9 538.5,413.9 529.9,413.9 521.2,413.9 512.6,413.9 504.0,413.9 495.4,413.9 486.8,413.9 478.1,413.9 469.5,413.9 460.9,413.9 452.2,413.9 443.6,413.9 435.0,413.9 426.4,413.9 417.8,414.2 409.1,414.2 400.5,414.2 391.9,414.2 383.2,414.2 374.6,416.2 366.0,416.2 357.4,416.2 348.8,416.2 340.1,416.2 331.5,416.2 322.9,416.3 314.2,416.3 305.6,416.3 297.0,416.3 288.4,416.3 279.8,416.8 271.1,416.8 262.5,415.2 253.9,415.2 245.2,415.2 236.6,415.2 228.0,415.2 219.4,415.3 210.8,415.3 202.1,417.2 193.5,417.3 184.9,417.3 176.2,418.5 167.6,418.6 159.0,418.7 150.4,650.0 141.8,650.0 133.1,650.0 124.5,650.0 115.9,650.0 107.2,650.0 98.6,650.0 90.0,650.0" fill="#b07219" opacity="0.6" class="anim" style="animation-delay:1200ms;"/>
<line x1="762.8" y1="100" x2="762.8" y2="650" stroke="#c9d1d9" stroke-width="1" stroke-dasharray="4,3" opacity="0.35"/>
<text x="771.4" y="112" text-anchor="middle" class="axis-label" opacity="0.6">Jul 10, 2026</text>
<text x="90.0" y="668" text-anchor="middle" class="axis-label" transform="rotate(-35 90.0 668)">2026-02</text>
<text x="322.9" y="668" text-anchor="middle" class="axis-label" transform="rotate(-35 322.9 668)">2026-03</text>
<text x="555.8" y="668" text-anchor="middle" class="axis-label" transform="rotate(-35 555.8 668)">2026-04</text>
<text x="633.4" y="668" text-anchor="middle" class="axis-label" transform="rotate(-35 633.4 668)">2026-06</text>
<text x="771.4" y="668" text-anchor="middle" class="axis-label" transform="rotate(-35 771.4 668)">Jul 10, 2026</text>
<line x1="796" y1="110" x2="824" y2="110" stroke="#3fb950" stroke-width="2"/>
<text x="832" y="116" class="legend-text">Lines Added</text>
<line x1="796" y1="140" x2="824" y2="140" stroke="#f85149" stroke-width="1.5"/>
<text x="832" y="146" class="legend-text">Lines Deleted</text>
<line x1="796" y1="170" x2="824" y2="170" stroke="#e3b341" stroke-width="1.5" stroke-dasharray="4,3"/>
<text x="832" y="176" class="legend-text">&#x2605; Stars</text>
<text x="796" y="200" class="subtitle">Languages</text>
<rect x="796" y="212" width="12" height="12" rx="2" fill="#e34c26" opacity="0.8" class="anim" style="animation-delay:800ms;"/>
<text x="814" y="223" class="legend-text">HTML (58%→56%)</text>
<rect x="796" y="234" width="12" height="12" rx="2" fill="#f1e05a" opacity="0.8" class="anim" style="animation-delay:880ms;"/>
<text x="814" y="245" class="legend-text">JavaScript (22%→25%)</text>
<rect x="796" y="256" width="12" height="12" rx="2" fill="#3572A5" opacity="0.8" class="anim" style="animation-delay:960ms;"/>
<text x="814" y="267" class="legend-text">Python (7%→5%)</text>
<rect x="796" y="278" width="12" height="12" rx="2" fill="#663399" opacity="0.8" class="anim" style="animation-delay:1040ms;"/>
<text x="814" y="289" class="legend-text">CSS (6%→6%)</text>
<rect x="796" y="300" width="12" height="12" rx="2" fill="#083fa1" opacity="0.8" class="anim" style="animation-delay:1120ms;"/>
<text x="814" y="311" class="legend-text">Markdown (2%→2%)</text>
<rect x="796" y="322" width="12" height="12" rx="2" fill="#6E4C13" opacity="0.8" class="anim" style="animation-delay:1200ms;"/>
<text x="814" y="333" class="legend-text">Assembly (2%→1%)</text>
<rect x="796" y="344" width="12" height="12" rx="2" fill="#F05138" opacity="0.8" class="anim" style="animation-delay:1280ms;"/>
<text x="814" y="355" class="legend-text">Swift (2%→2%)</text>
<rect x="796" y="366" width="12" height="12" rx="2" fill="#b07219" opacity="0.8" class="anim" style="animation-delay:1360ms;"/>
<text x="814" y="377" class="legend-text">Java (1%→1%)</text>
<text x="796" y="412" class="subtitle">Contributions</text>
<text x="796" y="432" class="axis-label">2023: 39</text>
<text x="796" y="452" class="axis-label">2024: 646</text>
<text x="796" y="472" class="axis-label">2025: 1,780</text>
<text x="796" y="492" class="axis-label">2026: 491</text>
<text x="796" y="522" class="subtitle">Statistics</text>
<text x="796" y="542" class="axis-label">Active weeks: 88</text>
<text x="796" y="562" class="axis-label">Add/Del ratio: 1.8x</text>
<text x="796" y="582" class="axis-label">Avg lines/wk: 18K</text>
<text x="796" y="602" class="axis-label">Peak: 2026-02-15</text>
<text x="796" y="622" class="axis-label">  (543K lines)</text>
<text x="90" y="742" class="axis-label">Total: +1,040,332 / -576,819 lines &#xb7; 2,956 contributions &#xb7; 80 repos &#xb7; &#x2605; 37</text>
</svg>