<svg xmlns="http://www.w3.org/2000/svg" width="1000" height="760" style="max-width: 100%;" viewBox="0 0 1000 760">

<defs>
  <linearGradient id="areaGrad" x1="0" y1="0" x2="0" y2="1">
    <stop offset="0%" stop-color="#58a6ff" stop-opacity="0.35"/>
    <stop offset="100%" stop-color="#58a6ff" stop-opacity="0.02"/>
  </linearGradient>
  <linearGradient id="addGrad" x1="0" y1="0" x2="0" y2="1">
    <stop offset="0%" stop-color="#3fb950" stop-opacity="0.35"/>
    <stop offset="100%" stop-color="#3fb950" stop-opacity="0.02"/>
  </linearGradient>
  <linearGradient id="delGrad" x1="0" y1="0" x2="0" y2="1">
    <stop offset="0%" stop-color="#f85149" stop-opacity="0.25"/>
    <stop offset="100%" stop-color="#f85149" stop-opacity="0.02"/>
  </linearGradient>
</defs>
<style>
  .title { font: bold 28px 'Segoe UI', Ubuntu, Sans-Serif; fill: #c9d1d9; }
  .subtitle { font: 600 20px 'Segoe UI', Ubuntu, Sans-Serif; fill: #c9d1d9; opacity: 0.8; }
  .axis-label { font: 18px 'Segoe UI', Ubuntu, Sans-Serif; fill: #c9d1d9; opacity: 0.7; }
  .legend-text { font: 14px 'Segoe UI', Ubuntu, Sans-Serif; fill: #c9d1d9; }
  .value-text { font: bold 18px 'Segoe UI', Ubuntu, Sans-Serif; fill: #c9d1d9; }
  .stat-value { font: bold 22px 'Segoe UI', Ubuntu, Sans-Serif; fill: #c9d1d9; }
  .stat-label { font: 18px 'Segoe UI', Ubuntu, Sans-Serif; fill: #c9d1d9; opacity: 0.7; }
  @keyframes fadeIn { from { opacity: 0; } to { opacity: 1; } }
  .anim { animation: fadeIn 0.6s ease-in-out forwards; opacity: 0; }
</style>

<rect x="0.5" y="0.5" rx="4.5" width="999" height="759" fill="#161b22" stroke="#21262d"/>
<text x="90" y="45" class="title">Activity History</text>
<text x="90" y="72" class="subtitle">Lines added vs deleted &amp; activity trends over time</text>
<line x1="90" y1="340.0" x2="780" y2="340.0" stroke="#21262d" stroke-width="1"/>
<text x="82" y="344.0" text-anchor="end" class="axis-label">0</text>
<line x1="90" y1="280.0" x2="780" y2="280.0" stroke="#21262d" stroke-width="1"/>
<text x="82" y="284.0" text-anchor="end" class="axis-label">528K</text>
<line x1="90" y1="220.0" x2="780" y2="220.0" stroke="#21262d" stroke-width="1"/>
<text x="82" y="224.0" text-anchor="end" class="axis-label">1.1M</text>
<line x1="90" y1="160.0" x2="780" y2="160.0" stroke="#21262d" stroke-width="1"/>
<text x="82" y="164.0" text-anchor="end" class="axis-label">1.6M</text>
<line x1="90" y1="100.0" x2="780" y2="100.0" stroke="#21262d" stroke-width="1"/>
<text x="82" y="104.0" text-anchor="end" class="axis-label">2.1M</text>
<polygon points="90.0,340.0 90.0,298.5 102.8,300.0 115.6,298.6 128.3,300.1 141.1,309.6 153.9,290.6 166.7,290.6 179.4,283.4 192.2,283.2 205.0,282.7 217.8,282.7 230.6,269.9 243.3,269.9 256.1,269.9 268.9,251.0 281.7,250.7 294.4,250.5 307.2,250.5 320.0,250.5 332.8,250.5 345.6,250.5 358.3,250.0 371.1,237.4 383.9,237.3 396.7,237.3 409.4,237.3 422.2,237.0 435.0,237.0 447.8,236.5 460.6,236.5 473.3,236.4 486.1,236.4 498.9,236.4 511.7,236.4 524.4,236.5 537.2,236.4 550.0,236.4 562.8,236.4 575.6,236.4 588.3,236.4 601.1,236.4 613.9,235.9 626.7,236.1 639.4,235.5 652.2,235.3 665.0,235.3 677.8,235.3 690.6,235.3 703.3,235.3 716.1,235.3 728.9,235.2 741.7,235.2 754.4,235.2 767.2,217.3 780.0,199.3 780.0,340.0" fill="url(#addGrad)" class="anim" style="animation-delay:200ms;"/>
<polyline points="90.0,298.5 102.8,300.0 115.6,298.6 128.3,300.1 141.1,309.6 153.9,290.6 166.7,290.6 179.4,283.4 192.2,283.2 205.0,282.7 217.8,282.7 230.6,269.9 243.3,269.9 256.1,269.9 268.9,251.0 281.7,250.7 294.4,250.5 307.2,250.5 320.0,250.5 332.8,250.5 345.6,250.5 358.3,250.0 371.1,237.4 383.9,237.3 396.7,237.3 409.4,237.3 422.2,237.0 435.0,237.0 447.8,236.5 460.6,236.5 473.3,236.4 486.1,236.4 498.9,236.4 511.7,236.4 524.4,236.5 537.2,236.4 550.0,236.4 562.8,236.4 575.6,236.4 588.3,236.4 601.1,236.4 613.9,235.9 626.7,236.1 639.4,235.5 652.2,235.3 665.0,235.3 677.8,235.3 690.6,235.3 703.3,235.3 716.1,235.3 728.9,235.2 741.7,235.2 754.4,235.2" fill="none" stroke="#3fb950" stroke-width="2" stroke-linejoin="round" class="anim" style="animation-delay:250ms;"/>
<polyline points="754.4,235.2 767.2,217.3 780.0,199.3" fill="none" stroke="#3fb950" stroke-width="1.5" stroke-dasharray="5,4" stroke-linejoin="round" opacity="0.6" class="anim" style="animation-delay:250ms;"/>
<polygon points="90.0,340.0 90.0,328.3 102.8,329.6 115.6,328.4 128.3,329.5 141.1,334.5 153.9,326.9 166.7,326.9 179.4,326.1 192.2,325.8 205.0,325.6 217.8,325.5 230.6,311.8 243.3,311.8 256.1,311.8 268.9,296.2 281.7,296.1 294.4,296.1 307.2,296.1 320.0,296.1 332.8,296.1 345.6,296.1 358.3,287.9 371.1,275.5 383.9,275.5 396.7,275.5 409.4,275.5 422.2,275.4 435.0,275.4 447.8,275.4 460.6,275.3 473.3,275.3 486.1,275.3 498.9,275.3 511.7,275.3 524.4,275.4 537.2,275.3 550.0,275.3 562.8,275.3 575.6,275.3 588.3,275.3 601.1,275.3 613.9,275.3 626.7,275.4 639.4,275.0 652.2,275.0 665.0,275.0 677.8,275.0 690.6,275.0 703.3,275.0 716.1,275.0 728.9,275.0 741.7,275.0 754.4,275.0 767.2,257.8 780.0,240.7 780.0,340.0" fill="url(#delGrad)" class="anim" style="animation-delay:300ms;"/>
<polyline points="90.0,328.3 102.8,329.6 115.6,328.4 128.3,329.5 141.1,334.5 153.9,326.9 166.7,326.9 179.4,326.1 192.2,325.8 205.0,325.6 217.8,325.5 230.6,311.8 243.3,311.8 256.1,311.8 268.9,296.2 281.7,296.1 294.4,296.1 307.2,296.1 320.0,296.1 332.8,296.1 345.6,296.1 358.3,287.9 371.1,275.5 383.9,275.5 396.7,275.5 409.4,275.5 422.2,275.4 435.0,275.4 447.8,275.4 460.6,275.3 473.3,275.3 486.1,275.3 498.9,275.3 511.7,275.3 524.4,275.4 537.2,275.3 550.0,275.3 562.8,275.3 575.6,275.3 588.3,275.3 601.1,275.3 613.9,275.3 626.7,275.4 639.4,275.0 652.2,275.0 665.0,275.0 677.8,275.0 690.6,275.0 703.3,275.0 716.1,275.0 728.9,275.0 741.7,275.0 754.4,275.0" fill="none" stroke="#f85149" stroke-width="1.5" stroke-linejoin="round" class="anim" style="animation-delay:350ms;"/>
<polyline points="754.4,275.0 767.2,257.8 780.0,240.7" fill="none" stroke="#f85149" stroke-width="1" stroke-dasharray="5,4" stroke-linejoin="round" opacity="0.6" class="anim" style="animation-delay:350ms;"/>
<polyline points="90.0,340.0 102.8,340.0 115.6,340.0 128.3,340.0 141.1,340.0 153.9,340.0 166.7,340.0 179.4,340.0 192.2,292.0 205.0,292.0 217.8,292.0 230.6,292.0 243.3,292.0 256.1,292.0 268.9,292.0 281.7,292.0 294.4,292.0 307.2,292.0 320.0,292.0 332.8,292.0 345.6,292.0 358.3,292.0 371.1,292.0 383.9,292.0 396.7,292.0 409.4,292.0 422.2,292.0 435.0,292.0 447.8,292.0 460.6,292.0 473.3,292.0 486.1,292.0 498.9,292.0 511.7,292.0 524.4,244.0 537.2,244.0 550.0,244.0 562.8,244.0 575.6,244.0 588.3,244.0 601.1,244.0 613.9,244.0 626.7,196.0 639.4,196.0 652.2,196.0 665.0,196.0 677.8,196.0 690.6,196.0 703.3,196.0 716.1,196.0 728.9,196.0 741.7,196.0 754.4,196.0" fill="none" stroke="#e3b341" stroke-width="1.5" stroke-dasharray="4,3" stroke-linejoin="round" class="anim" style="animation-delay:400ms;"/>
<polyline points="754.4,196.0 767.2,196.0 780.0,148.0" fill="none" stroke="#e3b341" stroke-width="1" stroke-dasharray="3,5" stroke-linejoin="round" opacity="0.5" class="anim" style="animation-delay:400ms;"/>
<text x="90" y="90" class="subtitle">Lines Added vs Deleted (per snapshot)</text>
<text x="90" y="400" class="subtitle">Programming Language Development (%)</text>
<line x1="90" y1="650.0" x2="780" y2="650.0" stroke="#21262d" stroke-width="1"/>
<text x="82" y="654.0" text-anchor="end" class="axis-label">0%</text>
<line x1="90" y1="590.0" x2="780" y2="590.0" stroke="#21262d" stroke-width="1"/>
<text x="82" y="594.0" text-anchor="end" class="axis-label">25%</text>
<line x1="90" y1="530.0" x2="780" y2="530.0" stroke="#21262d" stroke-width="1"/>
<text x="82" y="534.0" text-anchor="end" class="axis-label">50%</text>
<line x1="90" y1="470.0" x2="780" y2="470.0" stroke="#21262d" stroke-width="1"/>
<text x="82" y="474.0" text-anchor="end" class="axis-label">75%</text>
<line x1="90" y1="410.0" x2="780" y2="410.0" stroke="#21262d" stroke-width="1"/>
<text x="82" y="414.0" text-anchor="end" class="axis-label">100%</text>
<polygon points="90.0,650.0 102.8,650.0 115.6,650.0 128.3,650.0 141.1,650.0 153.9,650.0 166.7,650.0 179.4,650.0 192.2,528.2 205.0,528.5 217.8,529.7 230.6,499.3 243.3,499.3 256.1,502.9 268.9,485.0 281.7,485.1 294.4,485.4 307.2,485.4 320.0,485.4 332.8,485.4 345.6,485.4 358.3,496.4 371.1,496.7 383.9,491.0 396.7,491.0 409.4,491.0 422.2,491.7 435.0,491.8 447.8,494.0 460.6,494.0 473.3,494.4 486.1,494.4 498.9,494.4 511.7,494.4 524.4,507.6 537.2,507.6 550.0,507.9 562.8,507.9 575.6,507.9 588.3,506.3 601.1,506.4 613.9,506.8 626.7,506.9 639.4,506.8 652.2,507.5 665.0,507.5 677.8,507.5 690.6,507.5 703.3,507.5 716.1,507.5 728.9,507.5 741.7,507.5 754.4,507.5 767.2,510.8 780.0,514.1 780.0,650.0 767.2,650.0 754.4,650.0 741.7,650.0 728.9,650.0 716.1,650.0 703.3,650.0 690.6,650.0 677.8,650.0 665.0,650.0 652.2,650.0 639.4,650.0 626.7,650.0 613.9,650.0 601.1,650.0 588.3,650.0 575.6,650.0 562.8,650.0 550.0,650.0 537.2,650.0 524.4,650.0 511.7,650.0 498.9,650.0 486.1,650.0 473.3,650.0 460.6,650.0 447.8,650.0 435.0,650.0 422.2,650.0 409.4,650.0 396.7,650.0 383.9,650.0 371.1,650.0 358.3,650.0 345.6,650.0 332.8,650.0 320.0,650.0 307.2,650.0 294.4,650.0 281.7,650.0 268.9,650.0 256.1,650.0 243.3,650.0 230.6,650.0 217.8,650.0 205.0,650.0 192.2,650.0 179.4,650.0 166.7,650.0 153.9,650.0 141.1,650.0 128.3,650.0 115.6,650.0 102.8,650.0 90.0,650.0" fill="#e34c26" opacity="0.6" class="anim" style="animation-delay:500ms;"/>
<polygon points="90.0,650.0 102.8,650.0 115.6,650.0 128.3,650.0 141.1,650.0 153.9,650.0 166.7,650.0 179.4,650.0 192.2,488.4 205.0,488.0 217.8,489.0 230.6,476.0 243.3,476.0 256.1,477.2 268.9,460.1 281.7,460.2 294.4,460.6 307.2,460.6 320.0,460.6 332.8,460.6 345.6,460.6 358.3,473.0 371.1,473.5 383.9,469.5 396.7,469.5 409.4,469.5 422.2,469.7 435.0,469.7 447.8,469.7 460.6,469.7 473.3,469.7 486.1,469.7 498.9,469.7 511.7,469.7 524.4,455.6 537.2,455.6 550.0,455.4 562.8,455.4 575.6,455.4 588.3,454.3 601.1,454.3 613.9,455.0 626.7,455.1 639.4,454.9 652.2,455.9 665.0,455.9 677.8,455.9 690.6,455.9 703.3,455.9 716.1,455.9 728.9,455.9 741.7,455.9 754.4,455.9 767.2,448.6 780.0,441.3 780.0,514.1 767.2,510.8 754.4,507.5 741.7,507.5 728.9,507.5 716.1,507.5 703.3,507.5 690.6,507.5 677.8,507.5 665.0,507.5 652.2,507.5 639.4,506.8 626.7,506.9 613.9,506.8 601.1,506.4 588.3,506.3 575.6,507.9 562.8,507.9 550.0,507.9 537.2,507.6 524.4,507.6 511.7,494.4 498.9,494.4 486.1,494.4 473.3,494.4 460.6,494.0 447.8,494.0 435.0,491.8 422.2,491.7 409.4,491.0 396.7,491.0 383.9,491.0 371.1,496.7 358.3,496.4 345.6,485.4 332.8,485.4 320.0,485.4 307.2,485.4 294.4,485.4 281.7,485.1 268.9,485.0 256.1,502.9 243.3,499.3 230.6,499.3 217.8,529.7 205.0,528.5 192.2,528.2 179.4,650.0 166.7,650.0 153.9,650.0 141.1,650.0 128.3,650.0 115.6,650.0 102.8,650.0 90.0,650.0" fill="#f1e05a" opacity="0.6" class="anim" style="animation-delay:600ms;"/>
<polygon points="90.0,650.0 102.8,650.0 115.6,650.0 128.3,650.0 141.1,650.0 153.9,650.0 166.7,650.0 179.4,650.0 192.2,455.5 205.0,455.4 217.8,455.1 230.6,447.0 243.3,447.0 256.1,448.2 268.9,438.9 281.7,439.0 294.4,439.6 307.2,439.6 320.0,439.6 332.8,439.6 345.6,439.6 358.3,445.6 371.1,445.6 383.9,443.3 396.7,443.3 409.4,443.3 422.2,443.6 435.0,443.6 447.8,444.1 460.6,444.1 473.3,444.1 486.1,444.1 498.9,444.1 511.7,444.1 524.4,437.5 537.2,437.5 550.0,437.5 562.8,437.5 575.6,437.5 588.3,437.5 601.1,437.5 613.9,438.4 626.7,438.5 639.4,438.3 652.2,439.3 665.0,439.3 677.8,439.3 690.6,439.3 703.3,439.3 716.1,439.3 728.9,439.3 741.7,439.3 754.4,439.3 767.2,436.7 780.0,434.0 780.0,441.3 767.2,448.6 754.4,455.9 741.7,455.9 728.9,455.9 716.1,455.9 703.3,455.9 690.6,455.9 677.8,455.9 665.0,455.9 652.2,455.9 639.4,454.9 626.7,455.1 613.9,455.0 601.1,454.3 588.3,454.3 575.6,455.4 562.8,455.4 550.0,455.4 537.2,455.6 524.4,455.6 511.7,469.7 498.9,469.7 486.1,469.7 473.3,469.7 460.6,469.7 447.8,469.7 435.0,469.7 422.2,469.7 409.4,469.5 396.7,469.5 383.9,469.5 371.1,473.5 358.3,473.0 345.6,460.6 332.8,460.6 320.0,460.6 307.2,460.6 294.4,460.6 281.7,460.2 268.9,460.1 256.1,477.2 243.3,476.0 230.6,476.0 217.8,489.0 205.0,488.0 192.2,488.4 179.4,650.0 166.7,650.0 153.9,650.0 141.1,650.0 128.3,650.0 115.6,650.0 102.8,650.0 90.0,650.0" fill="#3572A5" opacity="0.6" class="anim" style="animation-delay:700ms;"/>
<polygon points="90.0,650.0 102.8,650.0 115.6,650.0 128.3,650.0 141.1,650.0 153.9,650.0 166.7,650.0 179.4,650.0 192.2,442.3 205.0,442.0 217.8,441.6 230.6,439.5 243.3,439.5 256.1,439.4 268.9,432.3 281.7,432.2 294.4,432.6 307.2,432.6 320.0,432.6 332.8,432.6 345.6,432.6 358.3,439.3 371.1,439.3 383.9,437.4 396.7,437.4 409.4,437.4 422.2,437.3 435.0,437.3 447.8,437.1 460.6,437.1 473.3,437.1 486.1,437.1 498.9,437.1 511.7,437.1 524.4,428.7 537.2,428.6 550.0,428.5 562.8,428.5 575.6,428.5 588.3,427.3 601.1,427.3 613.9,427.1 626.7,427.1 639.4,427.1 652.2,427.0 665.0,427.0 677.8,427.0 690.6,427.0 703.3,427.0 716.1,427.0 728.9,427.0 741.7,427.0 754.4,427.0 767.2,423.1 780.0,419.1 780.0,434.0 767.2,436.7 754.4,439.3 741.7,439.3 728.9,439.3 716.1,439.3 703.3,439.3 690.6,439.3 677.8,439.3 665.0,439.3 652.2,439.3 639.4,438.3 626.7,438.5 613.9,438.4 601.1,437.5 588.3,437.5 575.6,437.5 562.8,437.5 550.0,437.5 537.2,437.5 524.4,437.5 511.7,444.1 498.9,444.1 486.1,444.1 473.3,444.1 460.6,444.1 447.8,444.1 435.0,443.6 422.2,443.6 409.4,443.3 396.7,443.3 383.9,443.3 371.1,445.6 358.3,445.6 345.6,439.6 332.8,439.6 320.0,439.6 307.2,439.6 294.4,439.6 281.7,439.0 268.9,438.9 256.1,448.2 243.3,447.0 230.6,447.0 217.8,455.1 205.0,455.4 192.2,455.5 179.4,650.0 166.7,650.0 153.9,650.0 141.1,650.0 128.3,650.0 115.6,650.0 102.8,650.0 90.0,650.0" fill="#663399" opacity="0.6" class="anim" style="animation-delay:800ms;"/>
<polygon points="90.0,650.0 102.8,650.0 115.6,650.0 128.3,650.0 141.1,650.0 153.9,650.0 166.7,650.0 179.4,650.0 192.2,436.6 205.0,436.3 217.8,435.9 230.6,432.2 243.3,432.2 256.1,432.2 268.9,426.2 281.7,426.1 294.4,426.0 307.2,426.0 320.0,426.0 332.8,426.0 345.6,426.0 358.3,430.8 371.1,430.7 383.9,429.3 396.7,429.3 409.4,429.3 422.2,429.2 435.0,429.2 447.8,428.9 460.6,428.9 473.3,428.8 486.1,428.8 498.9,428.8 511.7,428.8 524.4,423.0 537.2,422.9 550.0,422.9 562.8,422.9 575.6,422.9 588.3,422.0 601.1,422.0 613.9,421.9 626.7,421.9 639.4,421.9 652.2,421.8 665.0,421.8 677.8,421.8 690.6,421.8 703.3,421.8 716.1,421.8 728.9,421.8 741.7,421.8 754.4,421.8 767.2,418.6 780.0,415.3 780.0,419.1 767.2,423.1 754.4,427.0 741.7,427.0 728.9,427.0 716.1,427.0 703.3,427.0 690.6,427.0 677.8,427.0 665.0,427.0 652.2,427.0 639.4,427.1 626.7,427.1 613.9,427.1 601.1,427.3 588.3,427.3 575.6,428.5 562.8,428.5 550.0,428.5 537.2,428.6 524.4,428.7 511.7,437.1 498.9,437.1 486.1,437.1 473.3,437.1 460.6,437.1 447.8,437.1 435.0,437.3 422.2,437.3 409.4,437.4 396.7,437.4 383.9,437.4 371.1,439.3 358.3,439.3 345.6,432.6 332.8,432.6 320.0,432.6 307.2,432.6 294.4,432.6 281.7,432.2 268.9,432.3 256.1,439.4 243.3,439.5 230.6,439.5 217.8,441.6 205.0,442.0 192.2,442.3 179.4,650.0 166.7,650.0 153.9,650.0 141.1,650.0 128.3,650.0 115.6,650.0 102.8,650.0 90.0,650.0" fill="#083fa1" opacity="0.6" class="anim" style="animation-delay:900ms;"/>
<polygon points="90.0,650.0 102.8,650.0 115.6,650.0 128.3,650.0 141.1,650.0 153.9,650.0 166.7,650.0 179.4,650.0 192.2,427.0 205.0,426.8 217.8,426.6 230.6,424.2 243.3,424.2 256.1,424.2 268.9,420.4 281.7,420.3 294.4,420.3 307.2,420.3 320.0,420.3 332.8,420.3 345.6,420.3 358.3,423.3 371.1,423.2 383.9,422.4 396.7,422.4 409.4,422.4 422.2,422.3 435.0,422.3 447.8,422.1 460.6,422.1 473.3,422.1 486.1,422.1 498.9,422.1 511.7,422.1 524.4,418.3 537.2,418.3 550.0,418.2 562.8,418.2 575.6,418.2 588.3,417.7 601.1,417.7 613.9,417.6 626.7,417.6 639.4,417.6 652.2,417.6 665.0,417.6 677.8,417.6 690.6,417.6 703.3,417.6 716.1,417.6 728.9,417.6 741.7,417.6 754.4,417.6 767.2,415.7 780.0,413.8 780.0,415.3 767.2,418.6 754.4,421.8 741.7,421.8 728.9,421.8 716.1,421.8 703.3,421.8 690.6,421.8 677.8,421.8 665.0,421.8 652.2,421.8 639.4,421.9 626.7,421.9 613.9,421.9 601.1,422.0 588.3,422.0 575.6,422.9 562.8,422.9 550.0,422.9 537.2,422.9 524.4,423.0 511.7,428.8 498.9,428.8 486.1,428.8 473.3,428.8 460.6,428.9 447.8,428.9 435.0,429.2 422.2,429.2 409.4,429.3 396.7,429.3 383.9,429.3 371.1,430.7 358.3,430.8 345.6,426.0 332.8,426.0 320.0,426.0 307.2,426.0 294.4,426.0 281.7,426.1 268.9,426.2 256.1,432.2 243.3,432.2 230.6,432.2 217.8,435.9 205.0,436.3 192.2,436.6 179.4,650.0 166.7,650.0 153.9,650.0 141.1,650.0 128.3,650.0 115.6,650.0 102.8,650.0 90.0,650.0" fill="#6E4C13" opacity="0.6" class="anim" style="animation-delay:1000ms;"/>
<polygon points="90.0,650.0 102.8,650.0 115.6,650.0 128.3,650.0 141.1,650.0 153.9,650.0 166.7,650.0 179.4,650.0 192.2,418.7 205.0,418.6 217.8,418.5 230.6,417.3 243.3,417.3 256.1,417.2 268.9,415.3 281.7,415.3 294.4,415.2 307.2,415.2 320.0,415.2 332.8,415.2 345.6,415.2 358.3,416.8 371.1,416.8 383.9,416.3 396.7,416.3 409.4,416.3 422.2,416.3 435.0,416.3 447.8,416.2 460.6,416.2 473.3,416.2 486.1,416.2 498.9,416.2 511.7,416.2 524.4,414.2 537.2,414.2 550.0,414.2 562.8,414.2 575.6,414.2 588.3,413.9 601.1,413.9 613.9,413.9 626.7,413.9 639.4,413.9 652.2,413.9 665.0,413.9 677.8,413.9 690.6,413.9 703.3,413.9 716.1,413.9 728.9,413.9 741.7,413.9 754.4,413.9 767.2,413.2 780.0,412.6 780.0,413.8 767.2,415.7 754.4,417.6 741.7,417.6 728.9,417.6 716.1,417.6 703.3,417.6 690.6,417.6 677.8,417.6 665.0,417.6 652.2,417.6 639.4,417.6 626.7,417.6 613.9,417.6 601.1,417.7 588.3,417.7 575.6,418.2 562.8,418.2 550.0,418.2 537.2,418.3 524.4,418.3 511.7,422.1 498.9,422.1 486.1,422.1 473.3,422.1 460.6,422.1 447.8,422.1 435.0,422.3 422.2,422.3 409.4,422.4 396.7,422.4 383.9,422.4 371.1,423.2 358.3,423.3 345.6,420.3 332.8,420.3 320.0,420.3 307.2,420.3 294.4,420.3 281.7,420.3 268.9,420.4 256.1,424.2 243.3,424.2 230.6,424.2 217.8,426.6 205.0,426.8 192.2,427.0 179.4,650.0 166.7,650.0 153.9,650.0 141.1,650.0 128.3,650.0 115.6,650.0 102.8,650.0 90.0,650.0" fill="#F05138" opacity="0.6" class="anim" style="animation-delay:1100ms;"/>
<polygon points="90.0,650.0 102.8,650.0 115.6,650.0 128.3,650.0 141.1,650.0 153.9,650.0 166.7,650.0 179.4,650.0 192.2,414.4 205.0,414.4 217.8,414.3 230.6,413.7 243.3,413.7 256.1,413.7 268.9,412.7 281.7,412.7 294.4,412.7 307.2,412.7 320.0,412.7 332.8,412.7 345.6,412.7 358.3,413.5 371.1,413.4 383.9,413.2 396.7,413.2 409.4,413.2 422.2,413.2 435.0,413.2 447.8,413.1 460.6,413.1 473.3,413.1 486.1,413.1 498.9,413.1 511.7,413.1 524.4,412.2 537.2,412.1 550.0,412.1 562.8,412.1 575.6,412.1 588.3,412.0 601.1,412.0 613.9,412.0 626.7,412.0 639.4,412.0 652.2,412.0 665.0,412.0 677.8,412.0 690.6,412.0 703.3,412.0 716.1,412.0 728.9,412.0 741.7,412.0 754.4,412.0 767.2,412.0 780.0,412.0 780.0,412.6 767.2,413.2 754.4,413.9 741.7,413.9 728.9,413.9 716.1,413.9 703.3,413.9 690.6,413.9 677.8,413.9 665.0,413.9 652.2,413.9 639.4,413.9 626.7,413.9 613.9,413.9 601.1,413.9 588.3,413.9 575.6,414.2 562.8,414.2 550.0,414.2 537.2,414.2 524.4,414.2 511.7,416.2 498.9,416.2 486.1,416.2 473.3,416.2 460.6,416.2 447.8,416.2 435.0,416.3 422.2,416.3 409.4,416.3 396.7,416.3 383.9,416.3 371.1,416.8 358.3,416.8 345.6,415.2 332.8,415.2 320.0,415.2 307.2,415.2 294.4,415.2 281.7,415.3 268.9,415.3 256.1,417.2 243.3,417.3 230.6,417.3 217.8,418.5 205.0,418.6 192.2,418.7 179.4,650.0 166.7,650.0 153.9,650.0 141.1,650.0 128.3,650.0 115.6,650.0 102.8,650.0 90.0,650.0" fill="#b07219" opacity="0.6" class="anim" style="animation-delay:1200ms;"/>
<line x1="754.4" y1="100" x2="754.4" y2="650" stroke="#c9d1d9" stroke-width="1" stroke-dasharray="4,3" opacity="0.35"/>
<text x="767.2" y="112" text-anchor="middle" class="axis-label" opacity="0.6">Apr 13, 2026</text>
<text x="90.0" y="668" text-anchor="middle" class="axis-label" transform="rotate(-35 90.0 668)">2026-02</text>
<text x="396.7" y="668" text-anchor="middle" class="axis-label" transform="rotate(-35 396.7 668)">2026-03</text>
<text x="767.2" y="668" text-anchor="middle" class="axis-label" transform="rotate(-35 767.2 668)">Apr 13, 2026</text>
<line x1="796" y1="110" x2="824" y2="110" stroke="#3fb950" stroke-width="2"/>
<text x="832" y="116" class="legend-text">Lines Added</text>
<line x1="796" y1="140" x2="824" y2="140" stroke="#f85149" stroke-width="1.5"/>
<text x="832" y="146" class="legend-text">Lines Deleted</text>
<line x1="796" y1="170" x2="824" y2="170" stroke="#e3b341" stroke-width="1.5" stroke-dasharray="4,3"/>
<text x="832" y="176" class="legend-text">&#x2605; Stars</text>
<text x="796" y="200" class="subtitle">Languages</text>
<rect x="796" y="212" width="12" height="12" rx="2" fill="#e34c26" opacity="0.8" class="anim" style="animation-delay:800ms;"/>
<text x="814" y="223" class="legend-text">HTML (59%→57%)</text>
<rect x="796" y="234" width="12" height="12" rx="2" fill="#f1e05a" opacity="0.8" class="anim" style="animation-delay:880ms;"/>
<text x="814" y="245" class="legend-text">JavaScript (22%→30%)</text>
<rect x="796" y="256" width="12" height="12" rx="2" fill="#3572A5" opacity="0.8" class="anim" style="animation-delay:960ms;"/>
<text x="814" y="267" class="legend-text">Python (7%→3%)</text>
<rect x="796" y="278" width="12" height="12" rx="2" fill="#663399" opacity="0.8" class="anim" style="animation-delay:1040ms;"/>
<text x="814" y="289" class="legend-text">CSS (5%→6%)</text>
<rect x="796" y="300" width="12" height="12" rx="2" fill="#083fa1" opacity="0.8" class="anim" style="animation-delay:1120ms;"/>
<text x="814" y="311" class="legend-text">Markdown (2%→2%)</text>
<rect x="796" y="322" width="12" height="12" rx="2" fill="#6E4C13" opacity="0.8" class="anim" style="animation-delay:1200ms;"/>
<text x="814" y="333" class="legend-text">Assembly (2%→1%)</text>
<rect x="796" y="344" width="12" height="12" rx="2" fill="#F05138" opacity="0.8" class="anim" style="animation-delay:1280ms;"/>
<text x="814" y="355" class="legend-text">Swift (2%→1%)</text>
<rect x="796" y="366" width="12" height="12" rx="2" fill="#b07219" opacity="0.8" class="anim" style="animation-delay:1360ms;"/>
<text x="814" y="377" class="legend-text">Java (1%→0%)</text>
<text x="796" y="412" class="subtitle">Contributions</text>
<text x="796" y="432" class="axis-label">2023: 39</text>
<text x="796" y="452" class="axis-label">2024: 646</text>
<text x="796" y="472" class="axis-label">2025: 1,780</text>
<text x="796" y="492" class="axis-label">2026: 400</text>
<text x="796" y="522" class="subtitle">Statistics</text>
<text x="796" y="542" class="axis-label">Active weeks: 80</text>
<text x="796" y="562" class="axis-label">Add/Del ratio: 1.6x</text>
<text x="796" y="582" class="axis-label">Avg lines/wk: 19K</text>
<text x="796" y="602" class="axis-label">Peak: 2026-02-15</text>
<text x="796" y="622" class="axis-label">  (543K lines)</text>
<text x="90" y="742" class="axis-label">Total: +922,799 / -572,795 lines &#xb7; 2,865 contributions &#xb7; 77 repos &#xb7; &#x2605; 35</text>
</svg>