<svg xmlns="http://www.w3.org/2000/svg" width="1000" height="760" viewBox="0 0 1000 760">

<defs>
  <linearGradient id="areaGrad" x1="0" y1="0" x2="0" y2="1">
    <stop offset="0%" stop-color="#58a6ff" stop-opacity="0.35"/>
    <stop offset="100%" stop-color="#58a6ff" stop-opacity="0.02"/>
  </linearGradient>
  <linearGradient id="addGrad" x1="0" y1="0" x2="0" y2="1">
    <stop offset="0%" stop-color="#3fb950" stop-opacity="0.35"/>
    <stop offset="100%" stop-color="#3fb950" stop-opacity="0.02"/>
  </linearGradient>
  <linearGradient id="delGrad" x1="0" y1="0" x2="0" y2="1">
    <stop offset="0%" stop-color="#f85149" stop-opacity="0.25"/>
    <stop offset="100%" stop-color="#f85149" stop-opacity="0.02"/>
  </linearGradient>
</defs>
<style>
  .title { font: bold 16px 'Segoe UI', Ubuntu, Sans-Serif; fill: #c9d1d9; }
  .subtitle { font: 600 12px 'Segoe UI', Ubuntu, Sans-Serif; fill: #c9d1d9; opacity: 0.8; }
  .axis-label { font: 11px 'Segoe UI', Ubuntu, Sans-Serif; fill: #c9d1d9; opacity: 0.7; }
  .legend-text { font: 12px 'Segoe UI', Ubuntu, Sans-Serif; fill: #c9d1d9; }
  .value-text { font: bold 11px 'Segoe UI', Ubuntu, Sans-Serif; fill: #c9d1d9; }
  .stat-value { font: bold 13px 'Segoe UI', Ubuntu, Sans-Serif; fill: #c9d1d9; }
  .stat-label { font: 11px 'Segoe UI', Ubuntu, Sans-Serif; fill: #c9d1d9; opacity: 0.7; }
  @keyframes fadeIn { from { opacity: 0; } to { opacity: 1; } }
  .anim { animation: fadeIn 0.6s ease-in-out forwards; opacity: 0; }
</style>

<rect x="0.5" y="0.5" rx="4.5" width="999" height="759" fill="#161b22" stroke="#21262d"/>
<text x="65" y="30" class="title">Activity History</text>
<text x="65" y="48" class="subtitle">Lines added vs deleted &amp; activity trends over time</text>
<line x1="65" y1="240.0" x2="820" y2="240.0" stroke="#21262d" stroke-width="1"/>
<text x="57" y="244.0" text-anchor="end" class="axis-label">0</text>
<line x1="65" y1="195.0" x2="820" y2="195.0" stroke="#21262d" stroke-width="1"/>
<text x="57" y="199.0" text-anchor="end" class="axis-label">391,770</text>
<line x1="65" y1="150.0" x2="820" y2="150.0" stroke="#21262d" stroke-width="1"/>
<text x="57" y="154.0" text-anchor="end" class="axis-label">783,540</text>
<line x1="65" y1="105.0" x2="820" y2="105.0" stroke="#21262d" stroke-width="1"/>
<text x="57" y="109.0" text-anchor="end" class="axis-label">1,175,310</text>
<line x1="65" y1="60.0" x2="820" y2="60.0" stroke="#21262d" stroke-width="1"/>
<text x="57" y="64.0" text-anchor="end" class="axis-label">1,567,080</text>
<polygon points="65.0,240.0 65.0,198.1 96.5,199.6 127.9,198.1 159.4,199.6 190.8,209.3 222.3,190.0 253.8,190.0 285.2,182.8 316.7,182.5 348.1,182.1 379.6,182.0 411.0,169.1 442.5,169.1 474.0,169.1 505.4,149.9 536.9,149.7 568.3,149.5 599.8,149.5 631.2,149.5 662.7,149.5 694.2,149.5 725.6,149.0 757.1,136.2 788.5,133.1 820.0,130.0 820.0,240.0" fill="url(#addGrad)" class="anim" style="animation-delay:200ms;"/>
<polyline points="65.0,198.1 96.5,199.6 127.9,198.1 159.4,199.6 190.8,209.3 222.3,190.0 253.8,190.0 285.2,182.8 316.7,182.5 348.1,182.1 379.6,182.0 411.0,169.1 442.5,169.1 474.0,169.1 505.4,149.9 536.9,149.7 568.3,149.5 599.8,149.5 631.2,149.5 662.7,149.5 694.2,149.5 725.6,149.0 757.1,136.2" fill="none" stroke="#3fb950" stroke-width="2" stroke-linejoin="round" class="anim" style="animation-delay:250ms;"/>
<polyline points="757.1,136.2 788.5,133.1 820.0,130.0" fill="none" stroke="#3fb950" stroke-width="1.5" stroke-dasharray="5,4" stroke-linejoin="round" opacity="0.6" class="anim" style="animation-delay:250ms;"/>
<polygon points="65.0,240.0 65.0,228.2 96.5,229.4 127.9,228.2 159.4,229.4 190.8,234.5 222.3,226.8 253.8,226.8 285.2,225.9 316.7,225.6 348.1,225.4 379.6,225.4 411.0,211.5 442.5,211.5 474.0,211.4 505.4,195.7 536.9,195.6 568.3,195.6 599.8,195.6 631.2,195.6 662.7,195.6 694.2,195.6 725.6,187.3 757.1,174.8 788.5,172.4 820.0,170.0 820.0,240.0" fill="url(#delGrad)" class="anim" style="animation-delay:300ms;"/>
<polyline points="65.0,228.2 96.5,229.4 127.9,228.2 159.4,229.4 190.8,234.5 222.3,226.8 253.8,226.8 285.2,225.9 316.7,225.6 348.1,225.4 379.6,225.4 411.0,211.5 442.5,211.5 474.0,211.4 505.4,195.7 536.9,195.6 568.3,195.6 599.8,195.6 631.2,195.6 662.7,195.6 694.2,195.6 725.6,187.3 757.1,174.8" fill="none" stroke="#f85149" stroke-width="1.5" stroke-linejoin="round" class="anim" style="animation-delay:350ms;"/>
<polyline points="757.1,174.8 788.5,172.4 820.0,170.0" fill="none" stroke="#f85149" stroke-width="1" stroke-dasharray="5,4" stroke-linejoin="round" opacity="0.6" class="anim" style="animation-delay:350ms;"/>
<polyline points="65.0,240.0 96.5,240.0 127.9,240.0 159.4,240.0 190.8,240.0 222.3,240.0 253.8,240.0 285.2,240.0 316.7,96.0 348.1,96.0 379.6,96.0 411.0,96.0 442.5,96.0 474.0,96.0 505.4,96.0 536.9,96.0 568.3,96.0 599.8,96.0 631.2,96.0 662.7,96.0 694.2,96.0 725.6,96.0 757.1,96.0" fill="none" stroke="#e3b341" stroke-width="1.5" stroke-dasharray="4,3" stroke-linejoin="round" class="anim" style="animation-delay:400ms;"/>
<polyline points="757.1,96.0 788.5,96.0 820.0,96.0" fill="none" stroke="#e3b341" stroke-width="1" stroke-dasharray="3,5" stroke-linejoin="round" opacity="0.5" class="anim" style="animation-delay:400ms;"/>
<text x="65" y="54" class="subtitle">Lines Added vs Deleted (per snapshot)</text>
<text x="65" y="294" class="subtitle">Programming Language Development (%)</text>
<line x1="65" y1="480.0" x2="820" y2="480.0" stroke="#21262d" stroke-width="1"/>
<text x="57" y="484.0" text-anchor="end" class="axis-label">0%</text>
<line x1="65" y1="435.0" x2="820" y2="435.0" stroke="#21262d" stroke-width="1"/>
<text x="57" y="439.0" text-anchor="end" class="axis-label">25%</text>
<line x1="65" y1="390.0" x2="820" y2="390.0" stroke="#21262d" stroke-width="1"/>
<text x="57" y="394.0" text-anchor="end" class="axis-label">50%</text>
<line x1="65" y1="345.0" x2="820" y2="345.0" stroke="#21262d" stroke-width="1"/>
<text x="57" y="349.0" text-anchor="end" class="axis-label">75%</text>
<line x1="65" y1="300.0" x2="820" y2="300.0" stroke="#21262d" stroke-width="1"/>
<text x="57" y="304.0" text-anchor="end" class="axis-label">100%</text>
<polygon points="65.0,480.0 96.5,480.0 127.9,480.0 159.4,480.0 190.8,480.0 222.3,480.0 253.8,480.0 285.2,480.0 316.7,388.6 348.1,388.8 379.6,389.8 411.0,366.9 442.5,366.9 474.0,369.6 505.4,356.3 536.9,356.3 568.3,356.5 599.8,356.5 631.2,356.5 662.7,356.5 694.2,356.5 725.6,364.8 757.1,365.1 788.5,364.6 820.0,364.2 820.0,480.0 788.5,480.0 757.1,480.0 725.6,480.0 694.2,480.0 662.7,480.0 631.2,480.0 599.8,480.0 568.3,480.0 536.9,480.0 505.4,480.0 474.0,480.0 442.5,480.0 411.0,480.0 379.6,480.0 348.1,480.0 316.7,480.0 285.2,480.0 253.8,480.0 222.3,480.0 190.8,480.0 159.4,480.0 127.9,480.0 96.5,480.0 65.0,480.0" fill="#e34c26" opacity="0.6" class="anim" style="animation-delay:500ms;"/>
<polygon points="65.0,480.0 96.5,480.0 127.9,480.0 159.4,480.0 190.8,480.0 222.3,480.0 253.8,480.0 285.2,480.0 316.7,358.8 348.1,358.5 379.6,359.2 411.0,349.5 442.5,349.5 474.0,350.4 505.4,337.6 536.9,337.6 568.3,338.0 599.8,338.0 631.2,338.0 662.7,338.0 694.2,338.0 725.6,347.2 757.1,347.7 788.5,347.3 820.0,346.9 820.0,364.2 788.5,364.6 757.1,365.1 725.6,364.8 694.2,356.5 662.7,356.5 631.2,356.5 599.8,356.5 568.3,356.5 536.9,356.3 505.4,356.3 474.0,369.6 442.5,366.9 411.0,366.9 379.6,389.8 348.1,388.8 316.7,388.6 285.2,480.0 253.8,480.0 222.3,480.0 190.8,480.0 159.4,480.0 127.9,480.0 96.5,480.0 65.0,480.0" fill="#f1e05a" opacity="0.6" class="anim" style="animation-delay:600ms;"/>
<polygon points="65.0,480.0 96.5,480.0 127.9,480.0 159.4,480.0 190.8,480.0 222.3,480.0 253.8,480.0 285.2,480.0 316.7,334.2 348.1,334.0 379.6,333.9 411.0,327.7 442.5,327.7 474.0,328.6 505.4,321.7 536.9,321.7 568.3,322.2 599.8,322.2 631.2,322.2 662.7,322.2 694.2,322.2 725.6,326.7 757.1,326.8 788.5,326.6 820.0,326.4 820.0,346.9 788.5,347.3 757.1,347.7 725.6,347.2 694.2,338.0 662.7,338.0 631.2,338.0 599.8,338.0 568.3,338.0 536.9,337.6 505.4,337.6 474.0,350.4 442.5,349.5 411.0,349.5 379.6,359.2 348.1,358.5 316.7,358.8 285.2,480.0 253.8,480.0 222.3,480.0 190.8,480.0 159.4,480.0 127.9,480.0 96.5,480.0 65.0,480.0" fill="#3572A5" opacity="0.6" class="anim" style="animation-delay:700ms;"/>
<polygon points="65.0,480.0 96.5,480.0 127.9,480.0 159.4,480.0 190.8,480.0 222.3,480.0 253.8,480.0 285.2,480.0 316.7,324.2 348.1,324.0 379.6,323.7 411.0,322.1 442.5,322.1 474.0,322.1 505.4,316.7 536.9,316.6 568.3,316.9 599.8,316.9 631.2,316.9 662.7,316.9 694.2,316.9 725.6,322.0 757.1,322.1 788.5,321.9 820.0,321.7 820.0,326.4 788.5,326.6 757.1,326.8 725.6,326.7 694.2,322.2 662.7,322.2 631.2,322.2 599.8,322.2 568.3,322.2 536.9,321.7 505.4,321.7 474.0,328.6 442.5,327.7 411.0,327.7 379.6,333.9 348.1,334.0 316.7,334.2 285.2,480.0 253.8,480.0 222.3,480.0 190.8,480.0 159.4,480.0 127.9,480.0 96.5,480.0 65.0,480.0" fill="#663399" opacity="0.6" class="anim" style="animation-delay:800ms;"/>
<polygon points="65.0,480.0 96.5,480.0 127.9,480.0 159.4,480.0 190.8,480.0 222.3,480.0 253.8,480.0 285.2,480.0 316.7,317.0 348.1,316.9 379.6,316.7 411.0,316.1 442.5,316.1 474.0,316.1 505.4,312.3 536.9,312.3 568.3,312.6 599.8,312.6 631.2,312.6 662.7,312.6 694.2,312.6 725.6,316.4 757.1,316.5 788.5,316.4 820.0,316.2 820.0,321.7 788.5,321.9 757.1,322.1 725.6,322.0 694.2,316.9 662.7,316.9 631.2,316.9 599.8,316.9 568.3,316.9 536.9,316.6 505.4,316.7 474.0,322.1 442.5,322.1 411.0,322.1 379.6,323.7 348.1,324.0 316.7,324.2 285.2,480.0 253.8,480.0 222.3,480.0 190.8,480.0 159.4,480.0 127.9,480.0 96.5,480.0 65.0,480.0" fill="#6E4C13" opacity="0.6" class="anim" style="animation-delay:900ms;"/>
<polygon points="65.0,480.0 96.5,480.0 127.9,480.0 159.4,480.0 190.8,480.0 222.3,480.0 253.8,480.0 285.2,480.0 316.7,312.7 348.1,312.6 379.6,312.4 411.0,310.7 442.5,310.7 474.0,310.6 505.4,307.8 536.9,307.7 568.3,307.7 599.8,307.7 631.2,307.7 662.7,307.7 694.2,307.7 725.6,310.0 757.1,309.9 788.5,309.8 820.0,309.8 820.0,316.2 788.5,316.4 757.1,316.5 725.6,316.4 694.2,312.6 662.7,312.6 631.2,312.6 599.8,312.6 568.3,312.6 536.9,312.3 505.4,312.3 474.0,316.1 442.5,316.1 411.0,316.1 379.6,316.7 348.1,316.9 316.7,317.0 285.2,480.0 253.8,480.0 222.3,480.0 190.8,480.0 159.4,480.0 127.9,480.0 96.5,480.0 65.0,480.0" fill="#083fa1" opacity="0.6" class="anim" style="animation-delay:1000ms;"/>
<polygon points="65.0,480.0 96.5,480.0 127.9,480.0 159.4,480.0 190.8,480.0 222.3,480.0 253.8,480.0 285.2,480.0 316.7,306.5 348.1,306.5 379.6,306.4 411.0,305.4 442.5,305.4 474.0,305.4 505.4,304.0 536.9,304.0 568.3,303.9 599.8,303.9 631.2,303.9 662.7,303.9 694.2,303.9 725.6,305.1 757.1,305.1 788.5,305.0 820.0,305.0 820.0,309.8 788.5,309.8 757.1,309.9 725.6,310.0 694.2,307.7 662.7,307.7 631.2,307.7 599.8,307.7 568.3,307.7 536.9,307.7 505.4,307.8 474.0,310.6 442.5,310.7 411.0,310.7 379.6,312.4 348.1,312.6 316.7,312.7 285.2,480.0 253.8,480.0 222.3,480.0 190.8,480.0 159.4,480.0 127.9,480.0 96.5,480.0 65.0,480.0" fill="#F05138" opacity="0.6" class="anim" style="animation-delay:1100ms;"/>
<polygon points="65.0,480.0 96.5,480.0 127.9,480.0 159.4,480.0 190.8,480.0 222.3,480.0 253.8,480.0 285.2,480.0 316.7,303.3 348.1,303.3 379.6,303.2 411.0,302.8 442.5,302.8 474.0,302.8 505.4,302.0 536.9,302.0 568.3,302.0 599.8,302.0 631.2,302.0 662.7,302.0 694.2,302.0 725.6,302.6 757.1,302.6 788.5,302.6 820.0,302.6 820.0,305.0 788.5,305.0 757.1,305.1 725.6,305.1 694.2,303.9 662.7,303.9 631.2,303.9 599.8,303.9 568.3,303.9 536.9,304.0 505.4,304.0 474.0,305.4 442.5,305.4 411.0,305.4 379.6,306.4 348.1,306.5 316.7,306.5 285.2,480.0 253.8,480.0 222.3,480.0 190.8,480.0 159.4,480.0 127.9,480.0 96.5,480.0 65.0,480.0" fill="#b07219" opacity="0.6" class="anim" style="animation-delay:1200ms;"/>
<line x1="757.1" y1="60" x2="757.1" y2="480" stroke="#c9d1d9" stroke-width="1" stroke-dasharray="4,3" opacity="0.35"/>
<text x="788.5" y="72" text-anchor="middle" class="axis-label" opacity="0.6">H1 2026</text>
<text x="820.0" y="72" text-anchor="middle" class="axis-label" opacity="0.6">H2 2027</text>
<text x="65.0" y="498" text-anchor="middle" class="axis-label" transform="rotate(-35 65.0 498)">2026-02-06</text>
<text x="127.9" y="498" text-anchor="middle" class="axis-label" transform="rotate(-35 127.9 498)">2026-02-08</text>
<text x="190.8" y="498" text-anchor="middle" class="axis-label" transform="rotate(-35 190.8 498)">2026-02-10</text>
<text x="253.8" y="498" text-anchor="middle" class="axis-label" transform="rotate(-35 253.8 498)">2026-02-12</text>
<text x="316.7" y="498" text-anchor="middle" class="axis-label" transform="rotate(-35 316.7 498)">2026-02-14</text>
<text x="379.6" y="498" text-anchor="middle" class="axis-label" transform="rotate(-35 379.6 498)">2026-02-16</text>
<text x="442.5" y="498" text-anchor="middle" class="axis-label" transform="rotate(-35 442.5 498)">2026-02-18</text>
<text x="505.4" y="498" text-anchor="middle" class="axis-label" transform="rotate(-35 505.4 498)">2026-02-20</text>
<text x="568.3" y="498" text-anchor="middle" class="axis-label" transform="rotate(-35 568.3 498)">2026-02-22</text>
<text x="631.2" y="498" text-anchor="middle" class="axis-label" transform="rotate(-35 631.2 498)">2026-02-24</text>
<text x="694.2" y="498" text-anchor="middle" class="axis-label" transform="rotate(-35 694.2 498)">2026-02-26</text>
<text x="757.1" y="498" text-anchor="middle" class="axis-label" transform="rotate(-35 757.1 498)">2026-02-28</text>
<text x="788.5" y="498" text-anchor="middle" class="axis-label" transform="rotate(-35 788.5 498)">H1 2026</text>
<text x="820.0" y="498" text-anchor="middle" class="axis-label" transform="rotate(-35 820.0 498)">H2 2027</text>
<line x1="836" y1="70" x2="856" y2="70" stroke="#3fb950" stroke-width="2"/>
<text x="862" y="74" class="legend-text">Lines Added</text>
<line x1="836" y1="88" x2="856" y2="88" stroke="#f85149" stroke-width="1.5"/>
<text x="862" y="92" class="legend-text">Lines Deleted</text>
<line x1="836" y1="108" x2="856" y2="108" stroke="#e3b341" stroke-width="1.5" stroke-dasharray="4,3"/>
<text x="862" y="112" class="legend-text">&#x2605; Stars</text>
<text x="836" y="142" class="subtitle">Languages</text>
<rect x="836" y="153" width="12" height="12" rx="2" fill="#e34c26" opacity="0.8" class="anim" style="animation-delay:800ms;"/>
<text x="854" y="163" class="legend-text">HTML (64.3%)</text>
<rect x="836" y="175" width="12" height="12" rx="2" fill="#f1e05a" opacity="0.8" class="anim" style="animation-delay:880ms;"/>
<text x="854" y="185" class="legend-text">JavaScript (9.6%)</text>
<rect x="836" y="197" width="12" height="12" rx="2" fill="#3572A5" opacity="0.8" class="anim" style="animation-delay:960ms;"/>
<text x="854" y="207" class="legend-text">Python (11.4%)</text>
<rect x="836" y="219" width="12" height="12" rx="2" fill="#663399" opacity="0.8" class="anim" style="animation-delay:1040ms;"/>
<text x="854" y="229" class="legend-text">CSS (2.6%)</text>
<rect x="836" y="241" width="12" height="12" rx="2" fill="#6E4C13" opacity="0.8" class="anim" style="animation-delay:1120ms;"/>
<text x="854" y="251" class="legend-text">Assembly (3.0%)</text>
<rect x="836" y="263" width="12" height="12" rx="2" fill="#083fa1" opacity="0.8" class="anim" style="animation-delay:1200ms;"/>
<text x="854" y="273" class="legend-text">Markdown (3.6%)</text>
<rect x="836" y="285" width="12" height="12" rx="2" fill="#F05138" opacity="0.8" class="anim" style="animation-delay:1280ms;"/>
<text x="854" y="295" class="legend-text">Swift (2.6%)</text>
<rect x="836" y="307" width="12" height="12" rx="2" fill="#b07219" opacity="0.8" class="anim" style="animation-delay:1360ms;"/>
<text x="854" y="317" class="legend-text">Java (1.4%)</text>
<text x="836" y="358" class="subtitle">Contributions</text>
<text x="836" y="376" class="axis-label">2023: 39</text>
<text x="836" y="392" class="axis-label">2024: 646</text>
<text x="836" y="408" class="axis-label">2025: 1,780</text>
<text x="836" y="424" class="axis-label">2026: 310</text>
<text x="836" y="450" class="subtitle">Statistics</text>
<text x="836" y="468" class="axis-label">Active weeks: 76</text>
<text x="836" y="483" class="axis-label">Add/Del ratio: 1.6x</text>
<text x="836" y="498" class="axis-label">Avg lines/week: 19,352</text>
<text x="836" y="513" class="axis-label">Peak: 2026-02-15</text>
<text x="836" y="528" class="axis-label">  (542,929 lines)</text>
<text x="65" y="746" class="axis-label">Total: +903,340 / -567,386 lines &#xb7; 2,775 contributions &#xb7; 71 repos &#xb7; &#x2605; 33</text>
</svg>