<svg xmlns="http://www.w3.org/2000/svg" width="1000" height="760" style="max-width: 100%;" viewBox="0 0 1000 760">

<defs>
  <linearGradient id="areaGrad" x1="0" y1="0" x2="0" y2="1">
    <stop offset="0%" stop-color="#58a6ff" stop-opacity="0.35"/>
    <stop offset="100%" stop-color="#58a6ff" stop-opacity="0.02"/>
  </linearGradient>
  <linearGradient id="addGrad" x1="0" y1="0" x2="0" y2="1">
    <stop offset="0%" stop-color="#3fb950" stop-opacity="0.35"/>
    <stop offset="100%" stop-color="#3fb950" stop-opacity="0.02"/>
  </linearGradient>
  <linearGradient id="delGrad" x1="0" y1="0" x2="0" y2="1">
    <stop offset="0%" stop-color="#f85149" stop-opacity="0.25"/>
    <stop offset="100%" stop-color="#f85149" stop-opacity="0.02"/>
  </linearGradient>
</defs>
<style>
  .title { font: bold 28px 'Segoe UI', Ubuntu, Sans-Serif; fill: #c9d1d9; }
  .subtitle { font: 600 20px 'Segoe UI', Ubuntu, Sans-Serif; fill: #c9d1d9; opacity: 0.8; }
  .axis-label { font: 18px 'Segoe UI', Ubuntu, Sans-Serif; fill: #c9d1d9; opacity: 0.7; }
  .legend-text { font: 14px 'Segoe UI', Ubuntu, Sans-Serif; fill: #c9d1d9; }
  .value-text { font: bold 18px 'Segoe UI', Ubuntu, Sans-Serif; fill: #c9d1d9; }
  .stat-value { font: bold 22px 'Segoe UI', Ubuntu, Sans-Serif; fill: #c9d1d9; }
  .stat-label { font: 18px 'Segoe UI', Ubuntu, Sans-Serif; fill: #c9d1d9; opacity: 0.7; }
  @keyframes fadeIn { from { opacity: 0; } to { opacity: 1; } }
  .anim { animation: fadeIn 0.6s ease-in-out forwards; opacity: 0; }
</style>

<rect x="0.5" y="0.5" rx="4.5" width="999" height="759" fill="#161b22" stroke="#21262d"/>
<text x="90" y="45" class="title">Activity History</text>
<text x="90" y="72" class="subtitle">Lines added vs deleted &amp; activity trends over time</text>
<line x1="90" y1="340.0" x2="780" y2="340.0" stroke="#21262d" stroke-width="1"/>
<text x="82" y="344.0" text-anchor="end" class="axis-label">0</text>
<line x1="90" y1="280.0" x2="780" y2="280.0" stroke="#21262d" stroke-width="1"/>
<text x="82" y="284.0" text-anchor="end" class="axis-label">615K</text>
<line x1="90" y1="220.0" x2="780" y2="220.0" stroke="#21262d" stroke-width="1"/>
<text x="82" y="224.0" text-anchor="end" class="axis-label">1.2M</text>
<line x1="90" y1="160.0" x2="780" y2="160.0" stroke="#21262d" stroke-width="1"/>
<text x="82" y="164.0" text-anchor="end" class="axis-label">1.8M</text>
<line x1="90" y1="100.0" x2="780" y2="100.0" stroke="#21262d" stroke-width="1"/>
<text x="82" y="104.0" text-anchor="end" class="axis-label">2.5M</text>
<polygon points="90.0,340.0 90.0,304.4 107.7,305.7 125.4,304.4 143.1,305.7 160.8,313.9 178.5,297.5 196.2,297.5 213.8,291.4 231.5,291.1 249.2,290.8 266.9,290.7 284.6,279.7 302.3,279.7 320.0,279.7 337.7,263.4 355.4,263.2 373.1,263.0 390.8,263.0 408.5,263.0 426.2,263.0 443.8,263.0 461.5,262.6 479.2,251.8 496.9,251.7 514.6,251.7 532.3,251.7 550.0,251.5 567.7,251.5 585.4,251.0 603.1,251.0 620.8,251.0 638.5,251.0 656.2,251.0 673.8,251.0 691.5,251.0 709.2,251.0 726.9,251.0 744.6,251.0 762.3,226.3 780.0,201.7 780.0,340.0" fill="url(#addGrad)" class="anim" style="animation-delay:200ms;"/>
<polyline points="90.0,304.4 107.7,305.7 125.4,304.4 143.1,305.7 160.8,313.9 178.5,297.5 196.2,297.5 213.8,291.4 231.5,291.1 249.2,290.8 266.9,290.7 284.6,279.7 302.3,279.7 320.0,279.7 337.7,263.4 355.4,263.2 373.1,263.0 390.8,263.0 408.5,263.0 426.2,263.0 443.8,263.0 461.5,262.6 479.2,251.8 496.9,251.7 514.6,251.7 532.3,251.7 550.0,251.5 567.7,251.5 585.4,251.0 603.1,251.0 620.8,251.0 638.5,251.0 656.2,251.0 673.8,251.0 691.5,251.0 709.2,251.0 726.9,251.0 744.6,251.0" fill="none" stroke="#3fb950" stroke-width="2" stroke-linejoin="round" class="anim" style="animation-delay:250ms;"/>
<polyline points="744.6,251.0 762.3,226.3 780.0,201.7" fill="none" stroke="#3fb950" stroke-width="1.5" stroke-dasharray="5,4" stroke-linejoin="round" opacity="0.6" class="anim" style="animation-delay:250ms;"/>
<polygon points="90.0,340.0 90.0,330.0 107.7,331.0 125.4,330.0 143.1,331.0 160.8,335.3 178.5,328.8 196.2,328.8 213.8,328.0 231.5,327.8 249.2,327.6 266.9,327.6 284.6,315.8 302.3,315.8 320.0,315.7 337.7,302.4 355.4,302.3 373.1,302.2 390.8,302.2 408.5,302.2 426.2,302.2 443.8,302.2 461.5,295.2 479.2,284.6 496.9,284.5 514.6,284.5 532.3,284.5 550.0,284.5 567.7,284.5 585.4,284.4 603.1,284.4 620.8,284.4 638.5,284.4 656.2,284.4 673.8,284.4 691.5,284.4 709.2,284.4 726.9,284.4 744.6,284.4 762.3,261.3 780.0,238.3 780.0,340.0" fill="url(#delGrad)" class="anim" style="animation-delay:300ms;"/>
<polyline points="90.0,330.0 107.7,331.0 125.4,330.0 143.1,331.0 160.8,335.3 178.5,328.8 196.2,328.8 213.8,328.0 231.5,327.8 249.2,327.6 266.9,327.6 284.6,315.8 302.3,315.8 320.0,315.7 337.7,302.4 355.4,302.3 373.1,302.2 390.8,302.2 408.5,302.2 426.2,302.2 443.8,302.2 461.5,295.2 479.2,284.6 496.9,284.5 514.6,284.5 532.3,284.5 550.0,284.5 567.7,284.5 585.4,284.4 603.1,284.4 620.8,284.4 638.5,284.4 656.2,284.4 673.8,284.4 691.5,284.4 709.2,284.4 726.9,284.4 744.6,284.4" fill="none" stroke="#f85149" stroke-width="1.5" stroke-linejoin="round" class="anim" style="animation-delay:350ms;"/>
<polyline points="744.6,284.4 762.3,261.3 780.0,238.3" fill="none" stroke="#f85149" stroke-width="1" stroke-dasharray="5,4" stroke-linejoin="round" opacity="0.6" class="anim" style="animation-delay:350ms;"/>
<polyline points="90.0,340.0 107.7,340.0 125.4,340.0 143.1,340.0 160.8,340.0 178.5,340.0 196.2,340.0 213.8,340.0 231.5,276.0 249.2,276.0 266.9,276.0 284.6,276.0 302.3,276.0 320.0,276.0 337.7,276.0 355.4,276.0 373.1,276.0 390.8,276.0 408.5,276.0 426.2,276.0 443.8,276.0 461.5,276.0 479.2,276.0 496.9,276.0 514.6,276.0 532.3,276.0 550.0,276.0 567.7,276.0 585.4,276.0 603.1,276.0 620.8,276.0 638.5,276.0 656.2,276.0 673.8,276.0 691.5,212.0 709.2,212.0 726.9,212.0 744.6,212.0" fill="none" stroke="#e3b341" stroke-width="1.5" stroke-dasharray="4,3" stroke-linejoin="round" class="anim" style="animation-delay:400ms;"/>
<polyline points="744.6,212.0 762.3,212.0 780.0,148.0" fill="none" stroke="#e3b341" stroke-width="1" stroke-dasharray="3,5" stroke-linejoin="round" opacity="0.5" class="anim" style="animation-delay:400ms;"/>
<text x="90" y="90" class="subtitle">Lines Added vs Deleted (per snapshot)</text>
<text x="90" y="400" class="subtitle">Programming Language Development (%)</text>
<line x1="90" y1="650.0" x2="780" y2="650.0" stroke="#21262d" stroke-width="1"/>
<text x="82" y="654.0" text-anchor="end" class="axis-label">0%</text>
<line x1="90" y1="590.0" x2="780" y2="590.0" stroke="#21262d" stroke-width="1"/>
<text x="82" y="594.0" text-anchor="end" class="axis-label">25%</text>
<line x1="90" y1="530.0" x2="780" y2="530.0" stroke="#21262d" stroke-width="1"/>
<text x="82" y="534.0" text-anchor="end" class="axis-label">50%</text>
<line x1="90" y1="470.0" x2="780" y2="470.0" stroke="#21262d" stroke-width="1"/>
<text x="82" y="474.0" text-anchor="end" class="axis-label">75%</text>
<line x1="90" y1="410.0" x2="780" y2="410.0" stroke="#21262d" stroke-width="1"/>
<text x="82" y="414.0" text-anchor="end" class="axis-label">100%</text>
<polygon points="90.0,650.0 107.7,650.0 125.4,650.0 143.1,650.0 160.8,650.0 178.5,650.0 196.2,650.0 213.8,650.0 231.5,528.2 249.2,528.5 266.9,529.7 284.6,499.3 302.3,499.3 320.0,502.9 337.7,485.0 355.4,485.1 373.1,485.4 390.8,485.4 408.5,485.4 426.2,485.4 443.8,485.4 461.5,496.4 479.2,496.7 496.9,491.0 514.6,491.0 532.3,491.0 550.0,491.7 567.7,491.8 585.4,494.0 603.1,494.0 620.8,494.4 638.5,494.4 656.2,494.4 673.8,494.4 691.5,507.6 709.2,507.6 726.9,507.9 744.6,507.9 762.3,504.6 780.0,501.4 780.0,650.0 762.3,650.0 744.6,650.0 726.9,650.0 709.2,650.0 691.5,650.0 673.8,650.0 656.2,650.0 638.5,650.0 620.8,650.0 603.1,650.0 585.4,650.0 567.7,650.0 550.0,650.0 532.3,650.0 514.6,650.0 496.9,650.0 479.2,650.0 461.5,650.0 443.8,650.0 426.2,650.0 408.5,650.0 390.8,650.0 373.1,650.0 355.4,650.0 337.7,650.0 320.0,650.0 302.3,650.0 284.6,650.0 266.9,650.0 249.2,650.0 231.5,650.0 213.8,650.0 196.2,650.0 178.5,650.0 160.8,650.0 143.1,650.0 125.4,650.0 107.7,650.0 90.0,650.0" fill="#e34c26" opacity="0.6" class="anim" style="animation-delay:500ms;"/>
<polygon points="90.0,650.0 107.7,650.0 125.4,650.0 143.1,650.0 160.8,650.0 178.5,650.0 196.2,650.0 213.8,650.0 231.5,488.4 249.2,488.0 266.9,489.0 284.6,476.0 302.3,476.0 320.0,477.2 337.7,460.1 355.4,460.2 373.1,460.6 390.8,460.6 408.5,460.6 426.2,460.6 443.8,460.6 461.5,473.0 479.2,473.5 496.9,469.5 514.6,469.5 532.3,469.5 550.0,469.7 567.7,469.7 585.4,469.7 603.1,469.7 620.8,469.7 638.5,469.7 656.2,469.7 673.8,469.7 691.5,455.6 709.2,455.6 726.9,455.4 744.6,455.4 762.3,447.5 780.0,439.6 780.0,501.4 762.3,504.6 744.6,507.9 726.9,507.9 709.2,507.6 691.5,507.6 673.8,494.4 656.2,494.4 638.5,494.4 620.8,494.4 603.1,494.0 585.4,494.0 567.7,491.8 550.0,491.7 532.3,491.0 514.6,491.0 496.9,491.0 479.2,496.7 461.5,496.4 443.8,485.4 426.2,485.4 408.5,485.4 390.8,485.4 373.1,485.4 355.4,485.1 337.7,485.0 320.0,502.9 302.3,499.3 284.6,499.3 266.9,529.7 249.2,528.5 231.5,528.2 213.8,650.0 196.2,650.0 178.5,650.0 160.8,650.0 143.1,650.0 125.4,650.0 107.7,650.0 90.0,650.0" fill="#f1e05a" opacity="0.6" class="anim" style="animation-delay:600ms;"/>
<polygon points="90.0,650.0 107.7,650.0 125.4,650.0 143.1,650.0 160.8,650.0 178.5,650.0 196.2,650.0 213.8,650.0 231.5,455.5 249.2,455.4 266.9,455.1 284.6,447.0 302.3,447.0 320.0,448.2 337.7,438.9 355.4,439.0 373.1,439.6 390.8,439.6 408.5,439.6 426.2,439.6 443.8,439.6 461.5,445.6 479.2,445.6 496.9,443.3 514.6,443.3 532.3,443.3 550.0,443.6 567.7,443.6 585.4,444.1 603.1,444.1 620.8,444.1 638.5,444.1 656.2,444.1 673.8,444.1 691.5,437.5 709.2,437.5 726.9,437.5 744.6,437.5 762.3,433.6 780.0,429.6 780.0,439.6 762.3,447.5 744.6,455.4 726.9,455.4 709.2,455.6 691.5,455.6 673.8,469.7 656.2,469.7 638.5,469.7 620.8,469.7 603.1,469.7 585.4,469.7 567.7,469.7 550.0,469.7 532.3,469.5 514.6,469.5 496.9,469.5 479.2,473.5 461.5,473.0 443.8,460.6 426.2,460.6 408.5,460.6 390.8,460.6 373.1,460.6 355.4,460.2 337.7,460.1 320.0,477.2 302.3,476.0 284.6,476.0 266.9,489.0 249.2,488.0 231.5,488.4 213.8,650.0 196.2,650.0 178.5,650.0 160.8,650.0 143.1,650.0 125.4,650.0 107.7,650.0 90.0,650.0" fill="#3572A5" opacity="0.6" class="anim" style="animation-delay:700ms;"/>
<polygon points="90.0,650.0 107.7,650.0 125.4,650.0 143.1,650.0 160.8,650.0 178.5,650.0 196.2,650.0 213.8,650.0 231.5,442.3 249.2,442.0 266.9,441.6 284.6,439.5 302.3,439.5 320.0,439.4 337.7,432.3 355.4,432.2 373.1,432.6 390.8,432.6 408.5,432.6 426.2,432.6 443.8,432.6 461.5,439.3 479.2,439.3 496.9,437.4 514.6,437.4 532.3,437.4 550.0,437.3 567.7,437.3 585.4,437.1 603.1,437.1 620.8,437.1 638.5,437.1 656.2,437.1 673.8,437.1 691.5,428.7 709.2,428.6 726.9,428.5 744.6,428.5 762.3,425.7 780.0,423.0 780.0,429.6 762.3,433.6 744.6,437.5 726.9,437.5 709.2,437.5 691.5,437.5 673.8,444.1 656.2,444.1 638.5,444.1 620.8,444.1 603.1,444.1 585.4,444.1 567.7,443.6 550.0,443.6 532.3,443.3 514.6,443.3 496.9,443.3 479.2,445.6 461.5,445.6 443.8,439.6 426.2,439.6 408.5,439.6 390.8,439.6 373.1,439.6 355.4,439.0 337.7,438.9 320.0,448.2 302.3,447.0 284.6,447.0 266.9,455.1 249.2,455.4 231.5,455.5 213.8,650.0 196.2,650.0 178.5,650.0 160.8,650.0 143.1,650.0 125.4,650.0 107.7,650.0 90.0,650.0" fill="#663399" opacity="0.6" class="anim" style="animation-delay:800ms;"/>
<polygon points="90.0,650.0 107.7,650.0 125.4,650.0 143.1,650.0 160.8,650.0 178.5,650.0 196.2,650.0 213.8,650.0 231.5,436.6 249.2,436.3 266.9,435.9 284.6,432.2 302.3,432.2 320.0,432.2 337.7,426.2 355.4,426.1 373.1,426.0 390.8,426.0 408.5,426.0 426.2,426.0 443.8,426.0 461.5,430.8 479.2,430.7 496.9,429.3 514.6,429.3 532.3,429.3 550.0,429.2 567.7,429.2 585.4,428.9 603.1,428.9 620.8,428.8 638.5,428.8 656.2,428.8 673.8,428.8 691.5,423.0 709.2,422.9 726.9,422.9 744.6,422.9 762.3,419.7 780.0,416.5 780.0,423.0 762.3,425.7 744.6,428.5 726.9,428.5 709.2,428.6 691.5,428.7 673.8,437.1 656.2,437.1 638.5,437.1 620.8,437.1 603.1,437.1 585.4,437.1 567.7,437.3 550.0,437.3 532.3,437.4 514.6,437.4 496.9,437.4 479.2,439.3 461.5,439.3 443.8,432.6 426.2,432.6 408.5,432.6 390.8,432.6 373.1,432.6 355.4,432.2 337.7,432.3 320.0,439.4 302.3,439.5 284.6,439.5 266.9,441.6 249.2,442.0 231.5,442.3 213.8,650.0 196.2,650.0 178.5,650.0 160.8,650.0 143.1,650.0 125.4,650.0 107.7,650.0 90.0,650.0" fill="#083fa1" opacity="0.6" class="anim" style="animation-delay:900ms;"/>
<polygon points="90.0,650.0 107.7,650.0 125.4,650.0 143.1,650.0 160.8,650.0 178.5,650.0 196.2,650.0 213.8,650.0 231.5,427.0 249.2,426.8 266.9,426.6 284.6,424.2 302.3,424.2 320.0,424.2 337.7,420.4 355.4,420.3 373.1,420.3 390.8,420.3 408.5,420.3 426.2,420.3 443.8,420.3 461.5,423.3 479.2,423.2 496.9,422.4 514.6,422.4 532.3,422.4 550.0,422.3 567.7,422.3 585.4,422.1 603.1,422.1 620.8,422.1 638.5,422.1 656.2,422.1 673.8,422.1 691.5,418.3 709.2,418.3 726.9,418.2 744.6,418.2 762.3,416.4 780.0,414.6 780.0,416.5 762.3,419.7 744.6,422.9 726.9,422.9 709.2,422.9 691.5,423.0 673.8,428.8 656.2,428.8 638.5,428.8 620.8,428.8 603.1,428.9 585.4,428.9 567.7,429.2 550.0,429.2 532.3,429.3 514.6,429.3 496.9,429.3 479.2,430.7 461.5,430.8 443.8,426.0 426.2,426.0 408.5,426.0 390.8,426.0 373.1,426.0 355.4,426.1 337.7,426.2 320.0,432.2 302.3,432.2 284.6,432.2 266.9,435.9 249.2,436.3 231.5,436.6 213.8,650.0 196.2,650.0 178.5,650.0 160.8,650.0 143.1,650.0 125.4,650.0 107.7,650.0 90.0,650.0" fill="#6E4C13" opacity="0.6" class="anim" style="animation-delay:1000ms;"/>
<polygon points="90.0,650.0 107.7,650.0 125.4,650.0 143.1,650.0 160.8,650.0 178.5,650.0 196.2,650.0 213.8,650.0 231.5,418.7 249.2,418.6 266.9,418.5 284.6,417.3 302.3,417.3 320.0,417.2 337.7,415.3 355.4,415.3 373.1,415.2 390.8,415.2 408.5,415.2 426.2,415.2 443.8,415.2 461.5,416.8 479.2,416.8 496.9,416.3 514.6,416.3 532.3,416.3 550.0,416.3 567.7,416.3 585.4,416.2 603.1,416.2 620.8,416.2 638.5,416.2 656.2,416.2 673.8,416.2 691.5,414.2 709.2,414.2 726.9,414.2 744.6,414.2 762.3,413.6 780.0,413.0 780.0,414.6 762.3,416.4 744.6,418.2 726.9,418.2 709.2,418.3 691.5,418.3 673.8,422.1 656.2,422.1 638.5,422.1 620.8,422.1 603.1,422.1 585.4,422.1 567.7,422.3 550.0,422.3 532.3,422.4 514.6,422.4 496.9,422.4 479.2,423.2 461.5,423.3 443.8,420.3 426.2,420.3 408.5,420.3 390.8,420.3 373.1,420.3 355.4,420.3 337.7,420.4 320.0,424.2 302.3,424.2 284.6,424.2 266.9,426.6 249.2,426.8 231.5,427.0 213.8,650.0 196.2,650.0 178.5,650.0 160.8,650.0 143.1,650.0 125.4,650.0 107.7,650.0 90.0,650.0" fill="#F05138" opacity="0.6" class="anim" style="animation-delay:1100ms;"/>
<polygon points="90.0,650.0 107.7,650.0 125.4,650.0 143.1,650.0 160.8,650.0 178.5,650.0 196.2,650.0 213.8,650.0 231.5,414.4 249.2,414.4 266.9,414.3 284.6,413.7 302.3,413.7 320.0,413.7 337.7,412.7 355.4,412.7 373.1,412.7 390.8,412.7 408.5,412.7 426.2,412.7 443.8,412.7 461.5,413.5 479.2,413.4 496.9,413.2 514.6,413.2 532.3,413.2 550.0,413.2 567.7,413.2 585.4,413.1 603.1,413.1 620.8,413.1 638.5,413.1 656.2,413.1 673.8,413.1 691.5,412.2 709.2,412.1 726.9,412.1 744.6,412.1 762.3,412.1 780.0,412.1 780.0,413.0 762.3,413.6 744.6,414.2 726.9,414.2 709.2,414.2 691.5,414.2 673.8,416.2 656.2,416.2 638.5,416.2 620.8,416.2 603.1,416.2 585.4,416.2 567.7,416.3 550.0,416.3 532.3,416.3 514.6,416.3 496.9,416.3 479.2,416.8 461.5,416.8 443.8,415.2 426.2,415.2 408.5,415.2 390.8,415.2 373.1,415.2 355.4,415.3 337.7,415.3 320.0,417.2 302.3,417.3 284.6,417.3 266.9,418.5 249.2,418.6 231.5,418.7 213.8,650.0 196.2,650.0 178.5,650.0 160.8,650.0 143.1,650.0 125.4,650.0 107.7,650.0 90.0,650.0" fill="#b07219" opacity="0.6" class="anim" style="animation-delay:1200ms;"/>
<line x1="744.6" y1="100" x2="744.6" y2="650" stroke="#c9d1d9" stroke-width="1" stroke-dasharray="4,3" opacity="0.35"/>
<text x="762.3" y="112" text-anchor="middle" class="axis-label" opacity="0.6">Mar 29, 2026</text>
<text x="90.0" y="668" text-anchor="middle" class="axis-label" transform="rotate(-35 90.0 668)">2026-02</text>
<text x="514.6" y="668" text-anchor="middle" class="axis-label" transform="rotate(-35 514.6 668)">2026-03</text>
<text x="762.3" y="668" text-anchor="middle" class="axis-label" transform="rotate(-35 762.3 668)">Mar 29, 2026</text>
<line x1="796" y1="110" x2="824" y2="110" stroke="#3fb950" stroke-width="2"/>
<text x="832" y="116" class="legend-text">Lines Added</text>
<line x1="796" y1="140" x2="824" y2="140" stroke="#f85149" stroke-width="1.5"/>
<text x="832" y="146" class="legend-text">Lines Deleted</text>
<line x1="796" y1="170" x2="824" y2="170" stroke="#e3b341" stroke-width="1.5" stroke-dasharray="4,3"/>
<text x="832" y="176" class="legend-text">&#x2605; Stars</text>
<text x="796" y="200" class="subtitle">Languages</text>
<rect x="796" y="212" width="12" height="12" rx="2" fill="#e34c26" opacity="0.8" class="anim" style="animation-delay:800ms;"/>
<text x="814" y="223" class="legend-text">HTML (59%→62%)</text>
<rect x="796" y="234" width="12" height="12" rx="2" fill="#f1e05a" opacity="0.8" class="anim" style="animation-delay:880ms;"/>
<text x="814" y="245" class="legend-text">JavaScript (22%→26%)</text>
<rect x="796" y="256" width="12" height="12" rx="2" fill="#3572A5" opacity="0.8" class="anim" style="animation-delay:960ms;"/>
<text x="814" y="267" class="legend-text">Python (7%→4%)</text>
<rect x="796" y="278" width="12" height="12" rx="2" fill="#663399" opacity="0.8" class="anim" style="animation-delay:1040ms;"/>
<text x="814" y="289" class="legend-text">CSS (4%→3%)</text>
<rect x="796" y="300" width="12" height="12" rx="2" fill="#083fa1" opacity="0.8" class="anim" style="animation-delay:1120ms;"/>
<text x="814" y="311" class="legend-text">Markdown (2%→3%)</text>
<rect x="796" y="322" width="12" height="12" rx="2" fill="#6E4C13" opacity="0.8" class="anim" style="animation-delay:1200ms;"/>
<text x="814" y="333" class="legend-text">Assembly (2%→1%)</text>
<rect x="796" y="344" width="12" height="12" rx="2" fill="#F05138" opacity="0.8" class="anim" style="animation-delay:1280ms;"/>
<text x="814" y="355" class="legend-text">Swift (2%→1%)</text>
<rect x="796" y="366" width="12" height="12" rx="2" fill="#b07219" opacity="0.8" class="anim" style="animation-delay:1360ms;"/>
<text x="814" y="377" class="legend-text">Java (1%→0%)</text>
<text x="796" y="412" class="subtitle">Contributions</text>
<text x="796" y="432" class="axis-label">2023: 39</text>
<text x="796" y="452" class="axis-label">2024: 646</text>
<text x="796" y="472" class="axis-label">2025: 1,780</text>
<text x="796" y="492" class="axis-label">2026: 378</text>
<text x="796" y="522" class="subtitle">Statistics</text>
<text x="796" y="542" class="axis-label">Active weeks: 78</text>
<text x="796" y="562" class="axis-label">Add/Del ratio: 1.6x</text>
<text x="796" y="582" class="axis-label">Avg lines/wk: 19K</text>
<text x="796" y="602" class="axis-label">Peak: 2026-02-15</text>
<text x="796" y="622" class="axis-label">  (543K lines)</text>
<text x="90" y="742" class="axis-label">Total: +912,015 / -569,548 lines &#xb7; 2,843 contributions &#xb7; 75 repos &#xb7; &#x2605; 34</text>
</svg>