<svg xmlns="http://www.w3.org/2000/svg" width="1000" height="760" style="max-width: 100%;" viewBox="0 0 1000 760">

<defs>
  <linearGradient id="areaGrad" x1="0" y1="0" x2="0" y2="1">
    <stop offset="0%" stop-color="#58a6ff" stop-opacity="0.35"/>
    <stop offset="100%" stop-color="#58a6ff" stop-opacity="0.02"/>
  </linearGradient>
  <linearGradient id="addGrad" x1="0" y1="0" x2="0" y2="1">
    <stop offset="0%" stop-color="#3fb950" stop-opacity="0.35"/>
    <stop offset="100%" stop-color="#3fb950" stop-opacity="0.02"/>
  </linearGradient>
  <linearGradient id="delGrad" x1="0" y1="0" x2="0" y2="1">
    <stop offset="0%" stop-color="#f85149" stop-opacity="0.25"/>
    <stop offset="100%" stop-color="#f85149" stop-opacity="0.02"/>
  </linearGradient>
</defs>
<style>
  .title { font: bold 28px 'Segoe UI', Ubuntu, Sans-Serif; fill: #c9d1d9; }
  .subtitle { font: 600 20px 'Segoe UI', Ubuntu, Sans-Serif; fill: #c9d1d9; opacity: 0.8; }
  .axis-label { font: 18px 'Segoe UI', Ubuntu, Sans-Serif; fill: #c9d1d9; opacity: 0.7; }
  .legend-text { font: 14px 'Segoe UI', Ubuntu, Sans-Serif; fill: #c9d1d9; }
  .value-text { font: bold 18px 'Segoe UI', Ubuntu, Sans-Serif; fill: #c9d1d9; }
  .stat-value { font: bold 22px 'Segoe UI', Ubuntu, Sans-Serif; fill: #c9d1d9; }
  .stat-label { font: 18px 'Segoe UI', Ubuntu, Sans-Serif; fill: #c9d1d9; opacity: 0.7; }
  @keyframes fadeIn { from { opacity: 0; } to { opacity: 1; } }
  .anim { animation: fadeIn 0.6s ease-in-out forwards; opacity: 0; }
</style>

<rect x="0.5" y="0.5" rx="4.5" width="999" height="759" fill="#161b22" stroke="#21262d"/>
<text x="90" y="45" class="title">Activity History</text>
<text x="90" y="72" class="subtitle">Lines added vs deleted &amp; activity trends over time</text>
<line x1="90" y1="340.0" x2="780" y2="340.0" stroke="#21262d" stroke-width="1"/>
<text x="82" y="344.0" text-anchor="end" class="axis-label">0</text>
<line x1="90" y1="280.0" x2="780" y2="280.0" stroke="#21262d" stroke-width="1"/>
<text x="82" y="284.0" text-anchor="end" class="axis-label">454K</text>
<line x1="90" y1="220.0" x2="780" y2="220.0" stroke="#21262d" stroke-width="1"/>
<text x="82" y="224.0" text-anchor="end" class="axis-label">907K</text>
<line x1="90" y1="160.0" x2="780" y2="160.0" stroke="#21262d" stroke-width="1"/>
<text x="82" y="164.0" text-anchor="end" class="axis-label">1.4M</text>
<line x1="90" y1="100.0" x2="780" y2="100.0" stroke="#21262d" stroke-width="1"/>
<text x="82" y="104.0" text-anchor="end" class="axis-label">1.8M</text>
<polygon points="90.0,340.0 90.0,291.7 98.3,293.5 106.6,291.7 114.9,293.5 123.3,304.6 131.6,282.5 139.9,282.5 148.2,274.1 156.5,273.8 164.8,273.3 173.1,273.2 181.4,258.4 189.8,258.4 198.1,258.3 206.4,236.3 214.7,236.0 223.0,235.7 231.3,235.7 239.6,235.7 248.0,235.7 256.3,235.7 264.6,235.2 272.9,220.5 281.2,220.4 289.5,220.4 297.8,220.4 306.1,220.1 314.5,220.1 322.8,219.4 331.1,219.4 339.4,219.4 347.7,219.4 356.0,219.4 364.3,219.4 372.7,219.4 381.0,219.4 389.3,219.4 397.6,219.4 405.9,219.4 414.2,219.4 422.5,219.4 430.8,218.7 439.2,219.0 447.5,218.3 455.8,218.0 464.1,218.0 472.4,218.0 480.7,218.0 489.0,218.0 497.3,218.0 505.7,218.0 514.0,218.0 522.3,218.0 530.6,218.0 538.9,218.3 547.2,219.7 555.5,218.3 563.9,217.0 572.2,217.0 580.5,217.0 588.8,217.0 597.1,217.0 605.4,209.4 613.7,202.5 622.0,202.5 630.4,202.5 638.7,202.5 647.0,202.5 655.3,202.5 663.6,202.5 671.9,202.5 680.2,202.4 688.6,202.4 696.9,202.4 705.2,202.4 713.5,202.4 721.8,202.4 730.1,202.4 738.4,202.4 746.7,202.4 755.1,202.4 763.4,202.4 771.7,195.0 780.0,187.5 780.0,340.0" fill="url(#addGrad)" class="anim" style="animation-delay:200ms;"/>
<polyline points="90.0,291.7 98.3,293.5 106.6,291.7 114.9,293.5 123.3,304.6 131.6,282.5 139.9,282.5 148.2,274.1 156.5,273.8 164.8,273.3 173.1,273.2 181.4,258.4 189.8,258.4 198.1,258.3 206.4,236.3 214.7,236.0 223.0,235.7 231.3,235.7 239.6,235.7 248.0,235.7 256.3,235.7 264.6,235.2 272.9,220.5 281.2,220.4 289.5,220.4 297.8,220.4 306.1,220.1 314.5,220.1 322.8,219.4 331.1,219.4 339.4,219.4 347.7,219.4 356.0,219.4 364.3,219.4 372.7,219.4 381.0,219.4 389.3,219.4 397.6,219.4 405.9,219.4 414.2,219.4 422.5,219.4 430.8,218.7 439.2,219.0 447.5,218.3 455.8,218.0 464.1,218.0 472.4,218.0 480.7,218.0 489.0,218.0 497.3,218.0 505.7,218.0 514.0,218.0 522.3,218.0 530.6,218.0 538.9,218.3 547.2,219.7 555.5,218.3 563.9,217.0 572.2,217.0 580.5,217.0 588.8,217.0 597.1,217.0 605.4,209.4 613.7,202.5 622.0,202.5 630.4,202.5 638.7,202.5 647.0,202.5 655.3,202.5 663.6,202.5 671.9,202.5 680.2,202.4 688.6,202.4 696.9,202.4 705.2,202.4 713.5,202.4 721.8,202.4 730.1,202.4 738.4,202.4 746.7,202.4 755.1,202.4 763.4,202.4" fill="none" stroke="#3fb950" stroke-width="2" stroke-linejoin="round" class="anim" style="animation-delay:250ms;"/>
<polyline points="763.4,202.4 771.7,195.0 780.0,187.5" fill="none" stroke="#3fb950" stroke-width="1.5" stroke-dasharray="5,4" stroke-linejoin="round" opacity="0.6" class="anim" style="animation-delay:250ms;"/>
<polygon points="90.0,340.0 90.0,326.4 98.3,327.8 106.6,326.4 114.9,327.8 123.3,333.6 131.6,324.8 139.9,324.8 148.2,323.8 156.5,323.5 164.8,323.2 173.1,323.2 181.4,307.2 189.8,307.2 198.1,307.1 206.4,289.0 214.7,288.9 223.0,288.8 231.3,288.8 239.6,288.8 248.0,288.8 256.3,288.8 264.6,279.4 272.9,264.9 281.2,264.9 289.5,264.9 297.8,264.9 306.1,264.8 314.5,264.8 322.8,264.7 331.1,264.7 339.4,264.7 347.7,264.7 356.0,264.7 364.3,264.7 372.7,264.7 381.0,264.7 389.3,264.7 397.6,264.7 405.9,264.7 414.2,264.7 422.5,264.7 430.8,264.7 439.2,264.7 447.5,264.2 455.8,264.2 464.1,264.2 472.4,264.2 480.7,264.2 489.0,264.2 497.3,264.2 505.7,264.2 514.0,264.2 522.3,264.2 530.6,264.3 538.9,264.3 547.2,265.2 555.5,264.6 563.9,263.8 572.2,263.8 580.5,263.8 588.8,263.8 597.1,263.8 605.4,263.7 613.7,263.7 622.0,263.7 630.4,263.7 638.7,263.7 647.0,263.7 655.3,263.7 663.6,263.7 671.9,263.7 680.2,263.7 688.6,263.7 696.9,263.7 705.2,263.7 713.5,263.7 721.8,263.7 730.1,263.7 738.4,263.7 746.7,263.7 755.1,263.7 763.4,263.7 771.7,258.1 780.0,252.5 780.0,340.0" fill="url(#delGrad)" class="anim" style="animation-delay:300ms;"/>
<polyline points="90.0,326.4 98.3,327.8 106.6,326.4 114.9,327.8 123.3,333.6 131.6,324.8 139.9,324.8 148.2,323.8 156.5,323.5 164.8,323.2 173.1,323.2 181.4,307.2 189.8,307.2 198.1,307.1 206.4,289.0 214.7,288.9 223.0,288.8 231.3,288.8 239.6,288.8 248.0,288.8 256.3,288.8 264.6,279.4 272.9,264.9 281.2,264.9 289.5,264.9 297.8,264.9 306.1,264.8 314.5,264.8 322.8,264.7 331.1,264.7 339.4,264.7 347.7,264.7 356.0,264.7 364.3,264.7 372.7,264.7 381.0,264.7 389.3,264.7 397.6,264.7 405.9,264.7 414.2,264.7 422.5,264.7 430.8,264.7 439.2,264.7 447.5,264.2 455.8,264.2 464.1,264.2 472.4,264.2 480.7,264.2 489.0,264.2 497.3,264.2 505.7,264.2 514.0,264.2 522.3,264.2 530.6,264.3 538.9,264.3 547.2,265.2 555.5,264.6 563.9,263.8 572.2,263.8 580.5,263.8 588.8,263.8 597.1,263.8 605.4,263.7 613.7,263.7 622.0,263.7 630.4,263.7 638.7,263.7 647.0,263.7 655.3,263.7 663.6,263.7 671.9,263.7 680.2,263.7 688.6,263.7 696.9,263.7 705.2,263.7 713.5,263.7 721.8,263.7 730.1,263.7 738.4,263.7 746.7,263.7 755.1,263.7 763.4,263.7" fill="none" stroke="#f85149" stroke-width="1.5" stroke-linejoin="round" class="anim" style="animation-delay:350ms;"/>
<polyline points="763.4,263.7 771.7,258.1 780.0,252.5" fill="none" stroke="#f85149" stroke-width="1" stroke-dasharray="5,4" stroke-linejoin="round" opacity="0.6" class="anim" style="animation-delay:350ms;"/>
<polyline points="90.0,340.0 98.3,340.0 106.6,340.0 114.9,340.0 123.3,340.0 131.6,340.0 139.9,340.0 148.2,340.0 156.5,308.0 164.8,308.0 173.1,308.0 181.4,308.0 189.8,308.0 198.1,308.0 206.4,308.0 214.7,308.0 223.0,308.0 231.3,308.0 239.6,308.0 248.0,308.0 256.3,308.0 264.6,308.0 272.9,308.0 281.2,308.0 289.5,308.0 297.8,308.0 306.1,308.0 314.5,308.0 322.8,308.0 331.1,308.0 339.4,308.0 347.7,308.0 356.0,308.0 364.3,308.0 372.7,276.0 381.0,276.0 389.3,276.0 397.6,276.0 405.9,276.0 414.2,276.0 422.5,276.0 430.8,276.0 439.2,244.0 447.5,244.0 455.8,244.0 464.1,244.0 472.4,244.0 480.7,244.0 489.0,244.0 497.3,244.0 505.7,244.0 514.0,244.0 522.3,244.0 530.6,244.0 538.9,244.0 547.2,244.0 555.5,244.0 563.9,244.0 572.2,180.0 580.5,180.0 588.8,180.0 597.1,180.0 605.4,180.0 613.7,180.0 622.0,180.0 630.4,180.0 638.7,180.0 647.0,180.0 655.3,180.0 663.6,180.0 671.9,180.0 680.2,180.0 688.6,180.0 696.9,180.0 705.2,180.0 713.5,180.0 721.8,180.0 730.1,180.0 738.4,180.0 746.7,180.0 755.1,180.0 763.4,180.0" fill="none" stroke="#e3b341" stroke-width="1.5" stroke-dasharray="4,3" stroke-linejoin="round" class="anim" style="animation-delay:400ms;"/>
<polyline points="763.4,180.0 771.7,180.0 780.0,148.0" fill="none" stroke="#e3b341" stroke-width="1" stroke-dasharray="3,5" stroke-linejoin="round" opacity="0.5" class="anim" style="animation-delay:400ms;"/>
<text x="90" y="90" class="subtitle">Lines Added vs Deleted (per snapshot)</text>
<text x="90" y="400" class="subtitle">Programming Language Development (%)</text>
<line x1="90" y1="650.0" x2="780" y2="650.0" stroke="#21262d" stroke-width="1"/>
<text x="82" y="654.0" text-anchor="end" class="axis-label">0%</text>
<line x1="90" y1="590.0" x2="780" y2="590.0" stroke="#21262d" stroke-width="1"/>
<text x="82" y="594.0" text-anchor="end" class="axis-label">25%</text>
<line x1="90" y1="530.0" x2="780" y2="530.0" stroke="#21262d" stroke-width="1"/>
<text x="82" y="534.0" text-anchor="end" class="axis-label">50%</text>
<line x1="90" y1="470.0" x2="780" y2="470.0" stroke="#21262d" stroke-width="1"/>
<text x="82" y="474.0" text-anchor="end" class="axis-label">75%</text>
<line x1="90" y1="410.0" x2="780" y2="410.0" stroke="#21262d" stroke-width="1"/>
<text x="82" y="414.0" text-anchor="end" class="axis-label">100%</text>
<polygon points="90.0,650.0 98.3,650.0 106.6,650.0 114.9,650.0 123.3,650.0 131.6,650.0 139.9,650.0 148.2,650.0 156.5,528.2 164.8,528.5 173.1,529.7 181.4,499.3 189.8,499.3 198.1,502.9 206.4,485.0 214.7,485.1 223.0,485.4 231.3,485.4 239.6,485.4 248.0,485.4 256.3,485.4 264.6,496.4 272.9,496.7 281.2,491.0 289.5,491.0 297.8,491.0 306.1,491.7 314.5,491.8 322.8,494.0 331.1,494.0 339.4,494.4 347.7,494.4 356.0,494.4 364.3,494.4 372.7,507.6 381.0,507.6 389.3,507.9 397.6,507.9 405.9,507.9 414.2,506.3 422.5,506.4 430.8,506.8 439.2,506.9 447.5,506.8 455.8,507.5 464.1,507.5 472.4,507.5 480.7,507.5 489.0,507.5 497.3,507.5 505.7,507.5 514.0,507.5 522.3,507.5 530.6,507.5 538.9,507.5 547.2,507.5 555.5,507.5 563.9,508.6 572.2,508.6 580.5,508.6 588.8,508.6 597.1,508.6 605.4,509.5 613.7,509.8 622.0,509.8 630.4,509.8 638.7,509.8 647.0,509.8 655.3,509.8 663.6,509.8 671.9,509.8 680.2,510.9 688.6,510.9 696.9,510.9 705.2,510.9 713.5,510.9 721.8,510.9 730.1,510.9 738.4,510.9 746.7,510.9 755.1,510.9 763.4,510.9 771.7,512.8 780.0,514.7 780.0,650.0 771.7,650.0 763.4,650.0 755.1,650.0 746.7,650.0 738.4,650.0 730.1,650.0 721.8,650.0 713.5,650.0 705.2,650.0 696.9,650.0 688.6,650.0 680.2,650.0 671.9,650.0 663.6,650.0 655.3,650.0 647.0,650.0 638.7,650.0 630.4,650.0 622.0,650.0 613.7,650.0 605.4,650.0 597.1,650.0 588.8,650.0 580.5,650.0 572.2,650.0 563.9,650.0 555.5,650.0 547.2,650.0 538.9,650.0 530.6,650.0 522.3,650.0 514.0,650.0 505.7,650.0 497.3,650.0 489.0,650.0 480.7,650.0 472.4,650.0 464.1,650.0 455.8,650.0 447.5,650.0 439.2,650.0 430.8,650.0 422.5,650.0 414.2,650.0 405.9,650.0 397.6,650.0 389.3,650.0 381.0,650.0 372.7,650.0 364.3,650.0 356.0,650.0 347.7,650.0 339.4,650.0 331.1,650.0 322.8,650.0 314.5,650.0 306.1,650.0 297.8,650.0 289.5,650.0 281.2,650.0 272.9,650.0 264.6,650.0 256.3,650.0 248.0,650.0 239.6,650.0 231.3,650.0 223.0,650.0 214.7,650.0 206.4,650.0 198.1,650.0 189.8,650.0 181.4,650.0 173.1,650.0 164.8,650.0 156.5,650.0 148.2,650.0 139.9,650.0 131.6,650.0 123.3,650.0 114.9,650.0 106.6,650.0 98.3,650.0 90.0,650.0" fill="#e34c26" opacity="0.6" class="anim" style="animation-delay:500ms;"/>
<polygon points="90.0,650.0 98.3,650.0 106.6,650.0 114.9,650.0 123.3,650.0 131.6,650.0 139.9,650.0 148.2,650.0 156.5,488.4 164.8,488.0 173.1,489.0 181.4,476.0 189.8,476.0 198.1,477.2 206.4,460.1 214.7,460.2 223.0,460.6 231.3,460.6 239.6,460.6 248.0,460.6 256.3,460.6 264.6,473.0 272.9,473.5 281.2,469.5 289.5,469.5 297.8,469.5 306.1,469.7 314.5,469.7 322.8,469.7 331.1,469.7 339.4,469.7 347.7,469.7 356.0,469.7 364.3,469.7 372.7,455.6 381.0,455.6 389.3,455.4 397.6,455.4 405.9,455.4 414.2,454.3 422.5,454.3 430.8,455.0 439.2,455.1 447.5,454.9 455.8,455.9 464.1,455.9 472.4,455.9 480.7,455.9 489.0,455.9 497.3,455.9 505.7,455.9 514.0,455.9 522.3,455.9 530.6,455.9 538.9,455.9 547.2,455.9 555.5,455.9 563.9,455.8 572.2,455.8 580.5,455.8 588.8,455.8 597.1,455.8 605.4,457.0 613.7,457.4 622.0,457.4 630.4,457.4 638.7,457.4 647.0,457.4 655.3,457.4 663.6,457.4 671.9,457.4 680.2,458.2 688.6,458.2 696.9,458.2 705.2,458.2 713.5,458.2 721.8,458.2 730.1,458.2 738.4,458.2 746.7,458.2 755.1,458.2 763.4,458.2 771.7,456.3 780.0,454.5 780.0,514.7 771.7,512.8 763.4,510.9 755.1,510.9 746.7,510.9 738.4,510.9 730.1,510.9 721.8,510.9 713.5,510.9 705.2,510.9 696.9,510.9 688.6,510.9 680.2,510.9 671.9,509.8 663.6,509.8 655.3,509.8 647.0,509.8 638.7,509.8 630.4,509.8 622.0,509.8 613.7,509.8 605.4,509.5 597.1,508.6 588.8,508.6 580.5,508.6 572.2,508.6 563.9,508.6 555.5,507.5 547.2,507.5 538.9,507.5 530.6,507.5 522.3,507.5 514.0,507.5 505.7,507.5 497.3,507.5 489.0,507.5 480.7,507.5 472.4,507.5 464.1,507.5 455.8,507.5 447.5,506.8 439.2,506.9 430.8,506.8 422.5,506.4 414.2,506.3 405.9,507.9 397.6,507.9 389.3,507.9 381.0,507.6 372.7,507.6 364.3,494.4 356.0,494.4 347.7,494.4 339.4,494.4 331.1,494.0 322.8,494.0 314.5,491.8 306.1,491.7 297.8,491.0 289.5,491.0 281.2,491.0 272.9,496.7 264.6,496.4 256.3,485.4 248.0,485.4 239.6,485.4 231.3,485.4 223.0,485.4 214.7,485.1 206.4,485.0 198.1,502.9 189.8,499.3 181.4,499.3 173.1,529.7 164.8,528.5 156.5,528.2 148.2,650.0 139.9,650.0 131.6,650.0 123.3,650.0 114.9,650.0 106.6,650.0 98.3,650.0 90.0,650.0" fill="#f1e05a" opacity="0.6" class="anim" style="animation-delay:600ms;"/>
<polygon points="90.0,650.0 98.3,650.0 106.6,650.0 114.9,650.0 123.3,650.0 131.6,650.0 139.9,650.0 148.2,650.0 156.5,455.5 164.8,455.4 173.1,455.1 181.4,447.0 189.8,447.0 198.1,448.2 206.4,438.9 214.7,439.0 223.0,439.6 231.3,439.6 239.6,439.6 248.0,439.6 256.3,439.6 264.6,445.6 272.9,445.6 281.2,443.3 289.5,443.3 297.8,443.3 306.1,443.6 314.5,443.6 322.8,444.1 331.1,444.1 339.4,444.1 347.7,444.1 356.0,444.1 364.3,444.1 372.7,437.5 381.0,437.5 389.3,437.5 397.6,437.5 405.9,437.5 414.2,437.5 422.5,437.5 430.8,438.4 439.2,438.5 447.5,438.3 455.8,439.3 464.1,439.3 472.4,439.3 480.7,439.3 489.0,439.3 497.3,439.3 505.7,439.3 514.0,439.3 522.3,439.3 530.6,439.3 538.9,439.3 547.2,439.3 555.5,439.3 563.9,439.4 572.2,439.4 580.5,439.4 588.8,439.4 597.1,439.4 605.4,440.7 613.7,441.1 622.0,441.1 630.4,441.1 638.7,441.1 647.0,441.1 655.3,441.1 663.6,441.1 671.9,441.1 680.2,442.0 688.6,442.0 696.9,442.0 705.2,442.0 713.5,442.0 721.8,442.0 730.1,442.0 738.4,442.0 746.7,442.0 755.1,442.0 763.4,442.0 771.7,441.7 780.0,441.3 780.0,454.5 771.7,456.3 763.4,458.2 755.1,458.2 746.7,458.2 738.4,458.2 730.1,458.2 721.8,458.2 713.5,458.2 705.2,458.2 696.9,458.2 688.6,458.2 680.2,458.2 671.9,457.4 663.6,457.4 655.3,457.4 647.0,457.4 638.7,457.4 630.4,457.4 622.0,457.4 613.7,457.4 605.4,457.0 597.1,455.8 588.8,455.8 580.5,455.8 572.2,455.8 563.9,455.8 555.5,455.9 547.2,455.9 538.9,455.9 530.6,455.9 522.3,455.9 514.0,455.9 505.7,455.9 497.3,455.9 489.0,455.9 480.7,455.9 472.4,455.9 464.1,455.9 455.8,455.9 447.5,454.9 439.2,455.1 430.8,455.0 422.5,454.3 414.2,454.3 405.9,455.4 397.6,455.4 389.3,455.4 381.0,455.6 372.7,455.6 364.3,469.7 356.0,469.7 347.7,469.7 339.4,469.7 331.1,469.7 322.8,469.7 314.5,469.7 306.1,469.7 297.8,469.5 289.5,469.5 281.2,469.5 272.9,473.5 264.6,473.0 256.3,460.6 248.0,460.6 239.6,460.6 231.3,460.6 223.0,460.6 214.7,460.2 206.4,460.1 198.1,477.2 189.8,476.0 181.4,476.0 173.1,489.0 164.8,488.0 156.5,488.4 148.2,650.0 139.9,650.0 131.6,650.0 123.3,650.0 114.9,650.0 106.6,650.0 98.3,650.0 90.0,650.0" fill="#3572A5" opacity="0.6" class="anim" style="animation-delay:700ms;"/>
<polygon points="90.0,650.0 98.3,650.0 106.6,650.0 114.9,650.0 123.3,650.0 131.6,650.0 139.9,650.0 148.2,650.0 156.5,442.3 164.8,442.0 173.1,441.6 181.4,439.5 189.8,439.5 198.1,439.4 206.4,432.3 214.7,432.2 223.0,432.6 231.3,432.6 239.6,432.6 248.0,432.6 256.3,432.6 264.6,439.3 272.9,439.3 281.2,437.4 289.5,437.4 297.8,437.4 306.1,437.3 314.5,437.3 322.8,437.1 331.1,437.1 339.4,437.1 347.7,437.1 356.0,437.1 364.3,437.1 372.7,428.7 381.0,428.6 389.3,428.5 397.6,428.5 405.9,428.5 414.2,427.3 422.5,427.3 430.8,427.1 439.2,427.1 447.5,427.1 455.8,427.0 464.1,427.0 472.4,427.0 480.7,427.0 489.0,427.0 497.3,427.0 505.7,427.0 514.0,427.0 522.3,427.0 530.6,427.0 538.9,427.0 547.2,427.0 555.5,427.0 563.9,427.0 572.2,427.1 580.5,427.1 588.8,427.1 597.1,427.1 605.4,428.4 613.7,428.9 622.0,428.9 630.4,428.9 638.7,428.9 647.0,428.9 655.3,428.9 663.6,428.9 671.9,428.9 680.2,428.7 688.6,428.7 696.9,428.7 705.2,428.7 713.5,428.7 721.8,428.7 730.1,428.7 738.4,428.7 746.7,428.7 755.1,428.7 763.4,428.7 771.7,427.7 780.0,426.6 780.0,441.3 771.7,441.7 763.4,442.0 755.1,442.0 746.7,442.0 738.4,442.0 730.1,442.0 721.8,442.0 713.5,442.0 705.2,442.0 696.9,442.0 688.6,442.0 680.2,442.0 671.9,441.1 663.6,441.1 655.3,441.1 647.0,441.1 638.7,441.1 630.4,441.1 622.0,441.1 613.7,441.1 605.4,440.7 597.1,439.4 588.8,439.4 580.5,439.4 572.2,439.4 563.9,439.4 555.5,439.3 547.2,439.3 538.9,439.3 530.6,439.3 522.3,439.3 514.0,439.3 505.7,439.3 497.3,439.3 489.0,439.3 480.7,439.3 472.4,439.3 464.1,439.3 455.8,439.3 447.5,438.3 439.2,438.5 430.8,438.4 422.5,437.5 414.2,437.5 405.9,437.5 397.6,437.5 389.3,437.5 381.0,437.5 372.7,437.5 364.3,444.1 356.0,444.1 347.7,444.1 339.4,444.1 331.1,444.1 322.8,444.1 314.5,443.6 306.1,443.6 297.8,443.3 289.5,443.3 281.2,443.3 272.9,445.6 264.6,445.6 256.3,439.6 248.0,439.6 239.6,439.6 231.3,439.6 223.0,439.6 214.7,439.0 206.4,438.9 198.1,448.2 189.8,447.0 181.4,447.0 173.1,455.1 164.8,455.4 156.5,455.5 148.2,650.0 139.9,650.0 131.6,650.0 123.3,650.0 114.9,650.0 106.6,650.0 98.3,650.0 90.0,650.0" fill="#663399" opacity="0.6" class="anim" style="animation-delay:800ms;"/>
<polygon points="90.0,650.0 98.3,650.0 106.6,650.0 114.9,650.0 123.3,650.0 131.6,650.0 139.9,650.0 148.2,650.0 156.5,436.6 164.8,436.3 173.1,435.9 181.4,432.2 189.8,432.2 198.1,432.2 206.4,426.2 214.7,426.1 223.0,426.0 231.3,426.0 239.6,426.0 248.0,426.0 256.3,426.0 264.6,430.8 272.9,430.7 281.2,429.3 289.5,429.3 297.8,429.3 306.1,429.2 314.5,429.2 322.8,428.9 331.1,428.9 339.4,428.8 347.7,428.8 356.0,428.8 364.3,428.8 372.7,423.0 381.0,422.9 389.3,422.9 397.6,422.9 405.9,422.9 414.2,422.0 422.5,422.0 430.8,421.9 439.2,421.9 447.5,421.9 455.8,421.8 464.1,421.8 472.4,421.8 480.7,421.8 489.0,421.8 497.3,421.8 505.7,421.8 514.0,421.8 522.3,421.8 530.6,421.8 538.9,421.8 547.2,421.8 555.5,421.8 563.9,421.7 572.2,421.8 580.5,421.8 588.8,421.8 597.1,421.8 605.4,423.2 613.7,423.6 622.0,423.6 630.4,423.6 638.7,423.6 647.0,423.6 655.3,423.6 663.6,423.6 671.9,423.6 680.2,423.5 688.6,423.5 696.9,423.5 705.2,423.5 713.5,423.5 721.8,423.5 730.1,423.5 738.4,423.5 746.7,423.5 755.1,423.5 763.4,423.5 771.7,422.7 780.0,421.9 780.0,426.6 771.7,427.7 763.4,428.7 755.1,428.7 746.7,428.7 738.4,428.7 730.1,428.7 721.8,428.7 713.5,428.7 705.2,428.7 696.9,428.7 688.6,428.7 680.2,428.7 671.9,428.9 663.6,428.9 655.3,428.9 647.0,428.9 638.7,428.9 630.4,428.9 622.0,428.9 613.7,428.9 605.4,428.4 597.1,427.1 588.8,427.1 580.5,427.1 572.2,427.1 563.9,427.0 555.5,427.0 547.2,427.0 538.9,427.0 530.6,427.0 522.3,427.0 514.0,427.0 505.7,427.0 497.3,427.0 489.0,427.0 480.7,427.0 472.4,427.0 464.1,427.0 455.8,427.0 447.5,427.1 439.2,427.1 430.8,427.1 422.5,427.3 414.2,427.3 405.9,428.5 397.6,428.5 389.3,428.5 381.0,428.6 372.7,428.7 364.3,437.1 356.0,437.1 347.7,437.1 339.4,437.1 331.1,437.1 322.8,437.1 314.5,437.3 306.1,437.3 297.8,437.4 289.5,437.4 281.2,437.4 272.9,439.3 264.6,439.3 256.3,432.6 248.0,432.6 239.6,432.6 231.3,432.6 223.0,432.6 214.7,432.2 206.4,432.3 198.1,439.4 189.8,439.5 181.4,439.5 173.1,441.6 164.8,442.0 156.5,442.3 148.2,650.0 139.9,650.0 131.6,650.0 123.3,650.0 114.9,650.0 106.6,650.0 98.3,650.0 90.0,650.0" fill="#083fa1" opacity="0.6" class="anim" style="animation-delay:900ms;"/>
<polygon points="90.0,650.0 98.3,650.0 106.6,650.0 114.9,650.0 123.3,650.0 131.6,650.0 139.9,650.0 148.2,650.0 156.5,427.0 164.8,426.8 173.1,426.6 181.4,424.2 189.8,424.2 198.1,424.2 206.4,420.4 214.7,420.3 223.0,420.3 231.3,420.3 239.6,420.3 248.0,420.3 256.3,420.3 264.6,423.3 272.9,423.2 281.2,422.4 289.5,422.4 297.8,422.4 306.1,422.3 314.5,422.3 322.8,422.1 331.1,422.1 339.4,422.1 347.7,422.1 356.0,422.1 364.3,422.1 372.7,418.3 381.0,418.3 389.3,418.2 397.6,418.2 405.9,418.2 414.2,417.7 422.5,417.7 430.8,417.6 439.2,417.6 447.5,417.6 455.8,417.6 464.1,417.6 472.4,417.6 480.7,417.6 489.0,417.6 497.3,417.6 505.7,417.6 514.0,417.6 522.3,417.6 530.6,417.6 538.9,417.6 547.2,417.6 555.5,417.6 563.9,417.5 572.2,417.6 580.5,417.6 588.8,417.6 597.1,417.6 605.4,419.0 613.7,419.5 622.0,419.5 630.4,419.5 638.7,419.5 647.0,419.5 655.3,419.5 663.6,419.5 671.9,419.5 680.2,419.4 688.6,419.4 696.9,419.4 705.2,419.4 713.5,419.4 721.8,419.4 730.1,419.4 738.4,419.4 746.7,419.4 755.1,419.4 763.4,419.4 771.7,419.0 780.0,418.7 780.0,421.9 771.7,422.7 763.4,423.5 755.1,423.5 746.7,423.5 738.4,423.5 730.1,423.5 721.8,423.5 713.5,423.5 705.2,423.5 696.9,423.5 688.6,423.5 680.2,423.5 671.9,423.6 663.6,423.6 655.3,423.6 647.0,423.6 638.7,423.6 630.4,423.6 622.0,423.6 613.7,423.6 605.4,423.2 597.1,421.8 588.8,421.8 580.5,421.8 572.2,421.8 563.9,421.7 555.5,421.8 547.2,421.8 538.9,421.8 530.6,421.8 522.3,421.8 514.0,421.8 505.7,421.8 497.3,421.8 489.0,421.8 480.7,421.8 472.4,421.8 464.1,421.8 455.8,421.8 447.5,421.9 439.2,421.9 430.8,421.9 422.5,422.0 414.2,422.0 405.9,422.9 397.6,422.9 389.3,422.9 381.0,422.9 372.7,423.0 364.3,428.8 356.0,428.8 347.7,428.8 339.4,428.8 331.1,428.9 322.8,428.9 314.5,429.2 306.1,429.2 297.8,429.3 289.5,429.3 281.2,429.3 272.9,430.7 264.6,430.8 256.3,426.0 248.0,426.0 239.6,426.0 231.3,426.0 223.0,426.0 214.7,426.1 206.4,426.2 198.1,432.2 189.8,432.2 181.4,432.2 173.1,435.9 164.8,436.3 156.5,436.6 148.2,650.0 139.9,650.0 131.6,650.0 123.3,650.0 114.9,650.0 106.6,650.0 98.3,650.0 90.0,650.0" fill="#6E4C13" opacity="0.6" class="anim" style="animation-delay:1000ms;"/>
<polygon points="90.0,650.0 98.3,650.0 106.6,650.0 114.9,650.0 123.3,650.0 131.6,650.0 139.9,650.0 148.2,650.0 156.5,418.7 164.8,418.6 173.1,418.5 181.4,417.3 189.8,417.3 198.1,417.2 206.4,415.3 214.7,415.3 223.0,415.2 231.3,415.2 239.6,415.2 248.0,415.2 256.3,415.2 264.6,416.8 272.9,416.8 281.2,416.3 289.5,416.3 297.8,416.3 306.1,416.3 314.5,416.3 322.8,416.2 331.1,416.2 339.4,416.2 347.7,416.2 356.0,416.2 364.3,416.2 372.7,414.2 381.0,414.2 389.3,414.2 397.6,414.2 405.9,414.2 414.2,413.9 422.5,413.9 430.8,413.9 439.2,413.9 447.5,413.9 455.8,413.9 464.1,413.9 472.4,413.9 480.7,413.9 489.0,413.9 497.3,413.9 505.7,413.9 514.0,413.9 522.3,413.9 530.6,413.9 538.9,413.9 547.2,413.9 555.5,413.9 563.9,413.8 572.2,413.8 580.5,413.8 588.8,413.8 597.1,413.8 605.4,413.8 613.7,413.8 622.0,413.8 630.4,413.8 638.7,413.8 647.0,413.8 655.3,413.8 663.6,413.8 671.9,413.8 680.2,413.8 688.6,413.8 696.9,413.8 705.2,413.8 713.5,413.8 721.8,413.8 730.1,413.8 738.4,413.8 746.7,413.8 755.1,413.8 763.4,413.8 771.7,413.6 780.0,413.4 780.0,418.7 771.7,419.0 763.4,419.4 755.1,419.4 746.7,419.4 738.4,419.4 730.1,419.4 721.8,419.4 713.5,419.4 705.2,419.4 696.9,419.4 688.6,419.4 680.2,419.4 671.9,419.5 663.6,419.5 655.3,419.5 647.0,419.5 638.7,419.5 630.4,419.5 622.0,419.5 613.7,419.5 605.4,419.0 597.1,417.6 588.8,417.6 580.5,417.6 572.2,417.6 563.9,417.5 555.5,417.6 547.2,417.6 538.9,417.6 530.6,417.6 522.3,417.6 514.0,417.6 505.7,417.6 497.3,417.6 489.0,417.6 480.7,417.6 472.4,417.6 464.1,417.6 455.8,417.6 447.5,417.6 439.2,417.6 430.8,417.6 422.5,417.7 414.2,417.7 405.9,418.2 397.6,418.2 389.3,418.2 381.0,418.3 372.7,418.3 364.3,422.1 356.0,422.1 347.7,422.1 339.4,422.1 331.1,422.1 322.8,422.1 314.5,422.3 306.1,422.3 297.8,422.4 289.5,422.4 281.2,422.4 272.9,423.2 264.6,423.3 256.3,420.3 248.0,420.3 239.6,420.3 231.3,420.3 223.0,420.3 214.7,420.3 206.4,420.4 198.1,424.2 189.8,424.2 181.4,424.2 173.1,426.6 164.8,426.8 156.5,427.0 148.2,650.0 139.9,650.0 131.6,650.0 123.3,650.0 114.9,650.0 106.6,650.0 98.3,650.0 90.0,650.0" fill="#F05138" opacity="0.6" class="anim" style="animation-delay:1100ms;"/>
<polygon points="90.0,650.0 98.3,650.0 106.6,650.0 114.9,650.0 123.3,650.0 131.6,650.0 139.9,650.0 148.2,650.0 156.5,414.4 164.8,414.4 173.1,414.3 181.4,413.7 189.8,413.7 198.1,413.7 206.4,412.7 214.7,412.7 223.0,412.7 231.3,412.7 239.6,412.7 248.0,412.7 256.3,412.7 264.6,413.5 272.9,413.4 281.2,413.2 289.5,413.2 297.8,413.2 306.1,413.2 314.5,413.2 322.8,413.1 331.1,413.1 339.4,413.1 347.7,413.1 356.0,413.1 364.3,413.1 372.7,412.2 381.0,412.1 389.3,412.1 397.6,412.1 405.9,412.1 414.2,412.0 422.5,412.0 430.8,412.0 439.2,412.0 447.5,412.0 455.8,412.0 464.1,412.0 472.4,412.0 480.7,412.0 489.0,412.0 497.3,412.0 505.7,412.0 514.0,412.0 522.3,412.0 530.6,412.0 538.9,412.0 547.2,412.0 555.5,412.0 563.9,411.9 572.2,411.9 580.5,411.9 588.8,411.9 597.1,411.9 605.4,411.9 613.7,411.9 622.0,411.9 630.4,411.9 638.7,411.9 647.0,411.9 655.3,411.9 663.6,411.9 671.9,411.9 680.2,411.9 688.6,411.9 696.9,411.9 705.2,411.9 713.5,411.9 721.8,411.9 730.1,411.9 738.4,411.9 746.7,411.9 755.1,411.9 763.4,411.9 771.7,411.9 780.0,411.9 780.0,413.4 771.7,413.6 763.4,413.8 755.1,413.8 746.7,413.8 738.4,413.8 730.1,413.8 721.8,413.8 713.5,413.8 705.2,413.8 696.9,413.8 688.6,413.8 680.2,413.8 671.9,413.8 663.6,413.8 655.3,413.8 647.0,413.8 638.7,413.8 630.4,413.8 622.0,413.8 613.7,413.8 605.4,413.8 597.1,413.8 588.8,413.8 580.5,413.8 572.2,413.8 563.9,413.8 555.5,413.9 547.2,413.9 538.9,413.9 530.6,413.9 522.3,413.9 514.0,413.9 505.7,413.9 497.3,413.9 489.0,413.9 480.7,413.9 472.4,413.9 464.1,413.9 455.8,413.9 447.5,413.9 439.2,413.9 430.8,413.9 422.5,413.9 414.2,413.9 405.9,414.2 397.6,414.2 389.3,414.2 381.0,414.2 372.7,414.2 364.3,416.2 356.0,416.2 347.7,416.2 339.4,416.2 331.1,416.2 322.8,416.2 314.5,416.3 306.1,416.3 297.8,416.3 289.5,416.3 281.2,416.3 272.9,416.8 264.6,416.8 256.3,415.2 248.0,415.2 239.6,415.2 231.3,415.2 223.0,415.2 214.7,415.3 206.4,415.3 198.1,417.2 189.8,417.3 181.4,417.3 173.1,418.5 164.8,418.6 156.5,418.7 148.2,650.0 139.9,650.0 131.6,650.0 123.3,650.0 114.9,650.0 106.6,650.0 98.3,650.0 90.0,650.0" fill="#b07219" opacity="0.6" class="anim" style="animation-delay:1200ms;"/>
<line x1="763.4" y1="100" x2="763.4" y2="650" stroke="#c9d1d9" stroke-width="1" stroke-dasharray="4,3" opacity="0.35"/>
<text x="771.7" y="112" text-anchor="middle" class="axis-label" opacity="0.6">Jul 13, 2026</text>
<text x="90.0" y="668" text-anchor="middle" class="axis-label" transform="rotate(-35 90.0 668)">2026-02</text>
<text x="314.5" y="668" text-anchor="middle" class="axis-label" transform="rotate(-35 314.5 668)">2026-03</text>
<text x="538.9" y="668" text-anchor="middle" class="axis-label" transform="rotate(-35 538.9 668)">2026-04</text>
<text x="613.7" y="668" text-anchor="middle" class="axis-label" transform="rotate(-35 613.7 668)">2026-06</text>
<text x="771.7" y="668" text-anchor="middle" class="axis-label" transform="rotate(-35 771.7 668)">Jul 13, 2026</text>
<line x1="796" y1="110" x2="824" y2="110" stroke="#3fb950" stroke-width="2"/>
<text x="832" y="116" class="legend-text">Lines Added</text>
<line x1="796" y1="140" x2="824" y2="140" stroke="#f85149" stroke-width="1.5"/>
<text x="832" y="146" class="legend-text">Lines Deleted</text>
<line x1="796" y1="170" x2="824" y2="170" stroke="#e3b341" stroke-width="1.5" stroke-dasharray="4,3"/>
<text x="832" y="176" class="legend-text">&#x2605; Stars</text>
<text x="796" y="200" class="subtitle">Languages</text>
<rect x="796" y="212" width="12" height="12" rx="2" fill="#e34c26" opacity="0.8" class="anim" style="animation-delay:800ms;"/>
<text x="814" y="223" class="legend-text">HTML (58%→56%)</text>
<rect x="796" y="234" width="12" height="12" rx="2" fill="#f1e05a" opacity="0.8" class="anim" style="animation-delay:880ms;"/>
<text x="814" y="245" class="legend-text">JavaScript (22%→25%)</text>
<rect x="796" y="256" width="12" height="12" rx="2" fill="#3572A5" opacity="0.8" class="anim" style="animation-delay:960ms;"/>
<text x="814" y="267" class="legend-text">Python (7%→5%)</text>
<rect x="796" y="278" width="12" height="12" rx="2" fill="#663399" opacity="0.8" class="anim" style="animation-delay:1040ms;"/>
<text x="814" y="289" class="legend-text">CSS (6%→6%)</text>
<rect x="796" y="300" width="12" height="12" rx="2" fill="#083fa1" opacity="0.8" class="anim" style="animation-delay:1120ms;"/>
<text x="814" y="311" class="legend-text">Markdown (2%→2%)</text>
<rect x="796" y="322" width="12" height="12" rx="2" fill="#6E4C13" opacity="0.8" class="anim" style="animation-delay:1200ms;"/>
<text x="814" y="333" class="legend-text">Assembly (2%→1%)</text>
<rect x="796" y="344" width="12" height="12" rx="2" fill="#F05138" opacity="0.8" class="anim" style="animation-delay:1280ms;"/>
<text x="814" y="355" class="legend-text">Swift (2%→2%)</text>
<rect x="796" y="366" width="12" height="12" rx="2" fill="#b07219" opacity="0.8" class="anim" style="animation-delay:1360ms;"/>
<text x="814" y="377" class="legend-text">Java (1%→1%)</text>
<text x="796" y="412" class="subtitle">Contributions</text>
<text x="796" y="432" class="axis-label">2023: 39</text>
<text x="796" y="452" class="axis-label">2024: 646</text>
<text x="796" y="472" class="axis-label">2025: 1,780</text>
<text x="796" y="492" class="axis-label">2026: 491</text>
<text x="796" y="522" class="subtitle">Statistics</text>
<text x="796" y="542" class="axis-label">Active weeks: 88</text>
<text x="796" y="562" class="axis-label">Add/Del ratio: 1.8x</text>
<text x="796" y="582" class="axis-label">Avg lines/wk: 18K</text>
<text x="796" y="602" class="axis-label">Peak: 2026-02-15</text>
<text x="796" y="622" class="axis-label">  (543K lines)</text>
<text x="90" y="742" class="axis-label">Total: +1,040,332 / -576,819 lines &#xb7; 2,956 contributions &#xb7; 80 repos &#xb7; &#x2605; 37</text>
</svg>