<svg xmlns="http://www.w3.org/2000/svg" width="1000" height="760" style="max-width: 100%;" viewBox="0 0 1000 760">

<defs>
  <linearGradient id="areaGrad" x1="0" y1="0" x2="0" y2="1">
    <stop offset="0%" stop-color="#58a6ff" stop-opacity="0.35"/>
    <stop offset="100%" stop-color="#58a6ff" stop-opacity="0.02"/>
  </linearGradient>
  <linearGradient id="addGrad" x1="0" y1="0" x2="0" y2="1">
    <stop offset="0%" stop-color="#3fb950" stop-opacity="0.35"/>
    <stop offset="100%" stop-color="#3fb950" stop-opacity="0.02"/>
  </linearGradient>
  <linearGradient id="delGrad" x1="0" y1="0" x2="0" y2="1">
    <stop offset="0%" stop-color="#f85149" stop-opacity="0.25"/>
    <stop offset="100%" stop-color="#f85149" stop-opacity="0.02"/>
  </linearGradient>
</defs>
<style>
  .title { font: bold 28px 'Segoe UI', Ubuntu, Sans-Serif; fill: #c9d1d9; }
  .subtitle { font: 600 20px 'Segoe UI', Ubuntu, Sans-Serif; fill: #c9d1d9; opacity: 0.8; }
  .axis-label { font: 18px 'Segoe UI', Ubuntu, Sans-Serif; fill: #c9d1d9; opacity: 0.7; }
  .legend-text { font: 14px 'Segoe UI', Ubuntu, Sans-Serif; fill: #c9d1d9; }
  .value-text { font: bold 18px 'Segoe UI', Ubuntu, Sans-Serif; fill: #c9d1d9; }
  .stat-value { font: bold 22px 'Segoe UI', Ubuntu, Sans-Serif; fill: #c9d1d9; }
  .stat-label { font: 18px 'Segoe UI', Ubuntu, Sans-Serif; fill: #c9d1d9; opacity: 0.7; }
  @keyframes fadeIn { from { opacity: 0; } to { opacity: 1; } }
  .anim { animation: fadeIn 0.6s ease-in-out forwards; opacity: 0; }
</style>

<rect x="0.5" y="0.5" rx="4.5" width="999" height="759" fill="#161b22" stroke="#21262d"/>
<text x="90" y="45" class="title">Activity History</text>
<text x="90" y="72" class="subtitle">Lines added vs deleted &amp; activity trends over time</text>
<line x1="90" y1="340.0" x2="780" y2="340.0" stroke="#21262d" stroke-width="1"/>
<text x="82" y="344.0" text-anchor="end" class="axis-label">0</text>
<line x1="90" y1="280.0" x2="780" y2="280.0" stroke="#21262d" stroke-width="1"/>
<text x="82" y="284.0" text-anchor="end" class="axis-label">461K</text>
<line x1="90" y1="220.0" x2="780" y2="220.0" stroke="#21262d" stroke-width="1"/>
<text x="82" y="224.0" text-anchor="end" class="axis-label">921K</text>
<line x1="90" y1="160.0" x2="780" y2="160.0" stroke="#21262d" stroke-width="1"/>
<text x="82" y="164.0" text-anchor="end" class="axis-label">1.4M</text>
<line x1="90" y1="100.0" x2="780" y2="100.0" stroke="#21262d" stroke-width="1"/>
<text x="82" y="104.0" text-anchor="end" class="axis-label">1.8M</text>
<polygon points="90.0,340.0 90.0,292.4 99.9,294.2 109.7,292.5 119.6,294.2 129.4,305.1 139.3,283.3 149.1,283.3 159.0,275.1 168.9,274.8 178.7,274.3 188.6,274.2 198.4,259.6 208.3,259.6 218.1,259.5 228.0,237.9 237.9,237.6 247.7,237.3 257.6,237.3 267.4,237.3 277.3,237.3 287.1,237.3 297.0,236.8 306.9,222.3 316.7,222.2 326.6,222.2 336.4,222.2 346.3,221.9 356.1,221.9 366.0,221.3 375.9,221.3 385.7,221.2 395.6,221.2 405.4,221.2 415.3,221.2 425.1,221.3 435.0,221.2 444.9,221.2 454.7,221.2 464.6,221.2 474.4,221.2 484.3,221.2 494.1,220.6 504.0,220.8 513.9,220.2 523.7,219.8 533.6,219.8 543.4,219.8 553.3,219.8 563.1,219.8 573.0,219.8 582.9,219.8 592.7,219.8 602.6,219.8 612.4,219.8 622.3,220.1 632.1,221.6 642.0,220.2 651.9,218.9 661.7,218.8 671.6,218.8 681.4,218.8 691.3,218.8 701.1,211.4 711.0,204.6 720.9,204.6 730.7,204.6 740.6,204.6 750.4,204.6 760.3,204.6 770.1,196.7 780.0,188.8 780.0,340.0" fill="url(#addGrad)" class="anim" style="animation-delay:200ms;"/>
<polyline points="90.0,292.4 99.9,294.2 109.7,292.5 119.6,294.2 129.4,305.1 139.3,283.3 149.1,283.3 159.0,275.1 168.9,274.8 178.7,274.3 188.6,274.2 198.4,259.6 208.3,259.6 218.1,259.5 228.0,237.9 237.9,237.6 247.7,237.3 257.6,237.3 267.4,237.3 277.3,237.3 287.1,237.3 297.0,236.8 306.9,222.3 316.7,222.2 326.6,222.2 336.4,222.2 346.3,221.9 356.1,221.9 366.0,221.3 375.9,221.3 385.7,221.2 395.6,221.2 405.4,221.2 415.3,221.2 425.1,221.3 435.0,221.2 444.9,221.2 454.7,221.2 464.6,221.2 474.4,221.2 484.3,221.2 494.1,220.6 504.0,220.8 513.9,220.2 523.7,219.8 533.6,219.8 543.4,219.8 553.3,219.8 563.1,219.8 573.0,219.8 582.9,219.8 592.7,219.8 602.6,219.8 612.4,219.8 622.3,220.1 632.1,221.6 642.0,220.2 651.9,218.9 661.7,218.8 671.6,218.8 681.4,218.8 691.3,218.8 701.1,211.4 711.0,204.6 720.9,204.6 730.7,204.6 740.6,204.6 750.4,204.6 760.3,204.6" fill="none" stroke="#3fb950" stroke-width="2" stroke-linejoin="round" class="anim" style="animation-delay:250ms;"/>
<polyline points="760.3,204.6 770.1,196.7 780.0,188.8" fill="none" stroke="#3fb950" stroke-width="1.5" stroke-dasharray="5,4" stroke-linejoin="round" opacity="0.6" class="anim" style="animation-delay:250ms;"/>
<polygon points="90.0,340.0 90.0,326.6 99.9,328.0 109.7,326.6 119.6,328.0 129.4,333.7 139.3,325.0 149.1,325.0 159.0,324.0 168.9,323.7 178.7,323.5 188.6,323.4 198.4,307.7 208.3,307.7 218.1,307.6 228.0,289.8 237.9,289.6 247.7,289.6 257.6,289.6 267.4,289.6 277.3,289.6 287.1,289.6 297.0,280.3 306.9,266.0 316.7,266.0 326.6,266.0 336.4,266.0 346.3,265.9 356.1,265.9 366.0,265.9 375.9,265.8 385.7,265.8 395.6,265.8 405.4,265.8 415.3,265.8 425.1,265.8 435.0,265.8 444.9,265.8 454.7,265.8 464.6,265.8 474.4,265.8 484.3,265.8 494.1,265.8 504.0,265.9 513.9,265.4 523.7,265.4 533.6,265.4 543.4,265.4 553.3,265.4 563.1,265.4 573.0,265.4 582.9,265.4 592.7,265.4 602.6,265.4 612.4,265.4 622.3,265.5 632.1,266.3 642.0,265.8 651.9,265.0 661.7,264.9 671.6,264.9 681.4,264.9 691.3,264.9 701.1,264.9 711.0,264.9 720.9,264.9 730.7,264.9 740.6,264.9 750.4,264.9 760.3,264.9 770.1,258.0 780.0,251.2 780.0,340.0" fill="url(#delGrad)" class="anim" style="animation-delay:300ms;"/>
<polyline points="90.0,326.6 99.9,328.0 109.7,326.6 119.6,328.0 129.4,333.7 139.3,325.0 149.1,325.0 159.0,324.0 168.9,323.7 178.7,323.5 188.6,323.4 198.4,307.7 208.3,307.7 218.1,307.6 228.0,289.8 237.9,289.6 247.7,289.6 257.6,289.6 267.4,289.6 277.3,289.6 287.1,289.6 297.0,280.3 306.9,266.0 316.7,266.0 326.6,266.0 336.4,266.0 346.3,265.9 356.1,265.9 366.0,265.9 375.9,265.8 385.7,265.8 395.6,265.8 405.4,265.8 415.3,265.8 425.1,265.8 435.0,265.8 444.9,265.8 454.7,265.8 464.6,265.8 474.4,265.8 484.3,265.8 494.1,265.8 504.0,265.9 513.9,265.4 523.7,265.4 533.6,265.4 543.4,265.4 553.3,265.4 563.1,265.4 573.0,265.4 582.9,265.4 592.7,265.4 602.6,265.4 612.4,265.4 622.3,265.5 632.1,266.3 642.0,265.8 651.9,265.0 661.7,264.9 671.6,264.9 681.4,264.9 691.3,264.9 701.1,264.9 711.0,264.9 720.9,264.9 730.7,264.9 740.6,264.9 750.4,264.9 760.3,264.9" fill="none" stroke="#f85149" stroke-width="1.5" stroke-linejoin="round" class="anim" style="animation-delay:350ms;"/>
<polyline points="760.3,264.9 770.1,258.0 780.0,251.2" fill="none" stroke="#f85149" stroke-width="1" stroke-dasharray="5,4" stroke-linejoin="round" opacity="0.6" class="anim" style="animation-delay:350ms;"/>
<polyline points="90.0,340.0 99.9,340.0 109.7,340.0 119.6,340.0 129.4,340.0 139.3,340.0 149.1,340.0 159.0,340.0 168.9,308.0 178.7,308.0 188.6,308.0 198.4,308.0 208.3,308.0 218.1,308.0 228.0,308.0 237.9,308.0 247.7,308.0 257.6,308.0 267.4,308.0 277.3,308.0 287.1,308.0 297.0,308.0 306.9,308.0 316.7,308.0 326.6,308.0 336.4,308.0 346.3,308.0 356.1,308.0 366.0,308.0 375.9,308.0 385.7,308.0 395.6,308.0 405.4,308.0 415.3,308.0 425.1,276.0 435.0,276.0 444.9,276.0 454.7,276.0 464.6,276.0 474.4,276.0 484.3,276.0 494.1,276.0 504.0,244.0 513.9,244.0 523.7,244.0 533.6,244.0 543.4,244.0 553.3,244.0 563.1,244.0 573.0,244.0 582.9,244.0 592.7,244.0 602.6,244.0 612.4,244.0 622.3,244.0 632.1,244.0 642.0,244.0 651.9,244.0 661.7,180.0 671.6,180.0 681.4,180.0 691.3,180.0 701.1,180.0 711.0,180.0 720.9,180.0 730.7,180.0 740.6,180.0 750.4,180.0 760.3,180.0" fill="none" stroke="#e3b341" stroke-width="1.5" stroke-dasharray="4,3" stroke-linejoin="round" class="anim" style="animation-delay:400ms;"/>
<polyline points="760.3,180.0 770.1,180.0 780.0,148.0" fill="none" stroke="#e3b341" stroke-width="1" stroke-dasharray="3,5" stroke-linejoin="round" opacity="0.5" class="anim" style="animation-delay:400ms;"/>
<text x="90" y="90" class="subtitle">Lines Added vs Deleted (per snapshot)</text>
<text x="90" y="400" class="subtitle">Programming Language Development (%)</text>
<line x1="90" y1="650.0" x2="780" y2="650.0" stroke="#21262d" stroke-width="1"/>
<text x="82" y="654.0" text-anchor="end" class="axis-label">0%</text>
<line x1="90" y1="590.0" x2="780" y2="590.0" stroke="#21262d" stroke-width="1"/>
<text x="82" y="594.0" text-anchor="end" class="axis-label">25%</text>
<line x1="90" y1="530.0" x2="780" y2="530.0" stroke="#21262d" stroke-width="1"/>
<text x="82" y="534.0" text-anchor="end" class="axis-label">50%</text>
<line x1="90" y1="470.0" x2="780" y2="470.0" stroke="#21262d" stroke-width="1"/>
<text x="82" y="474.0" text-anchor="end" class="axis-label">75%</text>
<line x1="90" y1="410.0" x2="780" y2="410.0" stroke="#21262d" stroke-width="1"/>
<text x="82" y="414.0" text-anchor="end" class="axis-label">100%</text>
<polygon points="90.0,650.0 99.9,650.0 109.7,650.0 119.6,650.0 129.4,650.0 139.3,650.0 149.1,650.0 159.0,650.0 168.9,528.2 178.7,528.5 188.6,529.7 198.4,499.3 208.3,499.3 218.1,502.9 228.0,485.0 237.9,485.1 247.7,485.4 257.6,485.4 267.4,485.4 277.3,485.4 287.1,485.4 297.0,496.4 306.9,496.7 316.7,491.0 326.6,491.0 336.4,491.0 346.3,491.7 356.1,491.8 366.0,494.0 375.9,494.0 385.7,494.4 395.6,494.4 405.4,494.4 415.3,494.4 425.1,507.6 435.0,507.6 444.9,507.9 454.7,507.9 464.6,507.9 474.4,506.3 484.3,506.4 494.1,506.8 504.0,506.9 513.9,506.8 523.7,507.5 533.6,507.5 543.4,507.5 553.3,507.5 563.1,507.5 573.0,507.5 582.9,507.5 592.7,507.5 602.6,507.5 612.4,507.5 622.3,507.5 632.1,507.5 642.0,507.5 651.9,508.6 661.7,508.6 671.6,508.6 681.4,508.6 691.3,508.6 701.1,509.5 711.0,509.8 720.9,509.8 730.7,509.8 740.6,509.8 750.4,509.8 760.3,509.8 770.1,511.7 780.0,513.5 780.0,650.0 770.1,650.0 760.3,650.0 750.4,650.0 740.6,650.0 730.7,650.0 720.9,650.0 711.0,650.0 701.1,650.0 691.3,650.0 681.4,650.0 671.6,650.0 661.7,650.0 651.9,650.0 642.0,650.0 632.1,650.0 622.3,650.0 612.4,650.0 602.6,650.0 592.7,650.0 582.9,650.0 573.0,650.0 563.1,650.0 553.3,650.0 543.4,650.0 533.6,650.0 523.7,650.0 513.9,650.0 504.0,650.0 494.1,650.0 484.3,650.0 474.4,650.0 464.6,650.0 454.7,650.0 444.9,650.0 435.0,650.0 425.1,650.0 415.3,650.0 405.4,650.0 395.6,650.0 385.7,650.0 375.9,650.0 366.0,650.0 356.1,650.0 346.3,650.0 336.4,650.0 326.6,650.0 316.7,650.0 306.9,650.0 297.0,650.0 287.1,650.0 277.3,650.0 267.4,650.0 257.6,650.0 247.7,650.0 237.9,650.0 228.0,650.0 218.1,650.0 208.3,650.0 198.4,650.0 188.6,650.0 178.7,650.0 168.9,650.0 159.0,650.0 149.1,650.0 139.3,650.0 129.4,650.0 119.6,650.0 109.7,650.0 99.9,650.0 90.0,650.0" fill="#e34c26" opacity="0.6" class="anim" style="animation-delay:500ms;"/>
<polygon points="90.0,650.0 99.9,650.0 109.7,650.0 119.6,650.0 129.4,650.0 139.3,650.0 149.1,650.0 159.0,650.0 168.9,488.4 178.7,488.0 188.6,489.0 198.4,476.0 208.3,476.0 218.1,477.2 228.0,460.1 237.9,460.2 247.7,460.6 257.6,460.6 267.4,460.6 277.3,460.6 287.1,460.6 297.0,473.0 306.9,473.5 316.7,469.5 326.6,469.5 336.4,469.5 346.3,469.7 356.1,469.7 366.0,469.7 375.9,469.7 385.7,469.7 395.6,469.7 405.4,469.7 415.3,469.7 425.1,455.6 435.0,455.6 444.9,455.4 454.7,455.4 464.6,455.4 474.4,454.3 484.3,454.3 494.1,455.0 504.0,455.1 513.9,454.9 523.7,455.9 533.6,455.9 543.4,455.9 553.3,455.9 563.1,455.9 573.0,455.9 582.9,455.9 592.7,455.9 602.6,455.9 612.4,455.9 622.3,455.9 632.1,455.9 642.0,455.9 651.9,455.8 661.7,455.8 671.6,455.8 681.4,455.8 691.3,455.8 701.1,457.0 711.0,457.4 720.9,457.4 730.7,457.4 740.6,457.4 750.4,457.4 760.3,457.4 770.1,454.9 780.0,452.5 780.0,513.5 770.1,511.7 760.3,509.8 750.4,509.8 740.6,509.8 730.7,509.8 720.9,509.8 711.0,509.8 701.1,509.5 691.3,508.6 681.4,508.6 671.6,508.6 661.7,508.6 651.9,508.6 642.0,507.5 632.1,507.5 622.3,507.5 612.4,507.5 602.6,507.5 592.7,507.5 582.9,507.5 573.0,507.5 563.1,507.5 553.3,507.5 543.4,507.5 533.6,507.5 523.7,507.5 513.9,506.8 504.0,506.9 494.1,506.8 484.3,506.4 474.4,506.3 464.6,507.9 454.7,507.9 444.9,507.9 435.0,507.6 425.1,507.6 415.3,494.4 405.4,494.4 395.6,494.4 385.7,494.4 375.9,494.0 366.0,494.0 356.1,491.8 346.3,491.7 336.4,491.0 326.6,491.0 316.7,491.0 306.9,496.7 297.0,496.4 287.1,485.4 277.3,485.4 267.4,485.4 257.6,485.4 247.7,485.4 237.9,485.1 228.0,485.0 218.1,502.9 208.3,499.3 198.4,499.3 188.6,529.7 178.7,528.5 168.9,528.2 159.0,650.0 149.1,650.0 139.3,650.0 129.4,650.0 119.6,650.0 109.7,650.0 99.9,650.0 90.0,650.0" fill="#f1e05a" opacity="0.6" class="anim" style="animation-delay:600ms;"/>
<polygon points="90.0,650.0 99.9,650.0 109.7,650.0 119.6,650.0 129.4,650.0 139.3,650.0 149.1,650.0 159.0,650.0 168.9,455.5 178.7,455.4 188.6,455.1 198.4,447.0 208.3,447.0 218.1,448.2 228.0,438.9 237.9,439.0 247.7,439.6 257.6,439.6 267.4,439.6 277.3,439.6 287.1,439.6 297.0,445.6 306.9,445.6 316.7,443.3 326.6,443.3 336.4,443.3 346.3,443.6 356.1,443.6 366.0,444.1 375.9,444.1 385.7,444.1 395.6,444.1 405.4,444.1 415.3,444.1 425.1,437.5 435.0,437.5 444.9,437.5 454.7,437.5 464.6,437.5 474.4,437.5 484.3,437.5 494.1,438.4 504.0,438.5 513.9,438.3 523.7,439.3 533.6,439.3 543.4,439.3 553.3,439.3 563.1,439.3 573.0,439.3 582.9,439.3 592.7,439.3 602.6,439.3 612.4,439.3 622.3,439.3 632.1,439.3 642.0,439.3 651.9,439.4 661.7,439.4 671.6,439.4 681.4,439.4 691.3,439.4 701.1,440.7 711.0,441.1 720.9,441.1 730.7,441.1 740.6,441.1 750.4,441.1 760.3,441.1 770.1,440.4 780.0,439.7 780.0,452.5 770.1,454.9 760.3,457.4 750.4,457.4 740.6,457.4 730.7,457.4 720.9,457.4 711.0,457.4 701.1,457.0 691.3,455.8 681.4,455.8 671.6,455.8 661.7,455.8 651.9,455.8 642.0,455.9 632.1,455.9 622.3,455.9 612.4,455.9 602.6,455.9 592.7,455.9 582.9,455.9 573.0,455.9 563.1,455.9 553.3,455.9 543.4,455.9 533.6,455.9 523.7,455.9 513.9,454.9 504.0,455.1 494.1,455.0 484.3,454.3 474.4,454.3 464.6,455.4 454.7,455.4 444.9,455.4 435.0,455.6 425.1,455.6 415.3,469.7 405.4,469.7 395.6,469.7 385.7,469.7 375.9,469.7 366.0,469.7 356.1,469.7 346.3,469.7 336.4,469.5 326.6,469.5 316.7,469.5 306.9,473.5 297.0,473.0 287.1,460.6 277.3,460.6 267.4,460.6 257.6,460.6 247.7,460.6 237.9,460.2 228.0,460.1 218.1,477.2 208.3,476.0 198.4,476.0 188.6,489.0 178.7,488.0 168.9,488.4 159.0,650.0 149.1,650.0 139.3,650.0 129.4,650.0 119.6,650.0 109.7,650.0 99.9,650.0 90.0,650.0" fill="#3572A5" opacity="0.6" class="anim" style="animation-delay:700ms;"/>
<polygon points="90.0,650.0 99.9,650.0 109.7,650.0 119.6,650.0 129.4,650.0 139.3,650.0 149.1,650.0 159.0,650.0 168.9,442.3 178.7,442.0 188.6,441.6 198.4,439.5 208.3,439.5 218.1,439.4 228.0,432.3 237.9,432.2 247.7,432.6 257.6,432.6 267.4,432.6 277.3,432.6 287.1,432.6 297.0,439.3 306.9,439.3 316.7,437.4 326.6,437.4 336.4,437.4 346.3,437.3 356.1,437.3 366.0,437.1 375.9,437.1 385.7,437.1 395.6,437.1 405.4,437.1 415.3,437.1 425.1,428.7 435.0,428.6 444.9,428.5 454.7,428.5 464.6,428.5 474.4,427.3 484.3,427.3 494.1,427.1 504.0,427.1 513.9,427.1 523.7,427.0 533.6,427.0 543.4,427.0 553.3,427.0 563.1,427.0 573.0,427.0 582.9,427.0 592.7,427.0 602.6,427.0 612.4,427.0 622.3,427.0 632.1,427.0 642.0,427.0 651.9,427.0 661.7,427.1 671.6,427.1 681.4,427.1 691.3,427.1 701.1,428.4 711.0,428.9 720.9,428.9 730.7,428.9 740.6,428.9 750.4,428.9 760.3,428.9 770.1,427.5 780.0,426.1 780.0,439.7 770.1,440.4 760.3,441.1 750.4,441.1 740.6,441.1 730.7,441.1 720.9,441.1 711.0,441.1 701.1,440.7 691.3,439.4 681.4,439.4 671.6,439.4 661.7,439.4 651.9,439.4 642.0,439.3 632.1,439.3 622.3,439.3 612.4,439.3 602.6,439.3 592.7,439.3 582.9,439.3 573.0,439.3 563.1,439.3 553.3,439.3 543.4,439.3 533.6,439.3 523.7,439.3 513.9,438.3 504.0,438.5 494.1,438.4 484.3,437.5 474.4,437.5 464.6,437.5 454.7,437.5 444.9,437.5 435.0,437.5 425.1,437.5 415.3,444.1 405.4,444.1 395.6,444.1 385.7,444.1 375.9,444.1 366.0,444.1 356.1,443.6 346.3,443.6 336.4,443.3 326.6,443.3 316.7,443.3 306.9,445.6 297.0,445.6 287.1,439.6 277.3,439.6 267.4,439.6 257.6,439.6 247.7,439.6 237.9,439.0 228.0,438.9 218.1,448.2 208.3,447.0 198.4,447.0 188.6,455.1 178.7,455.4 168.9,455.5 159.0,650.0 149.1,650.0 139.3,650.0 129.4,650.0 119.6,650.0 109.7,650.0 99.9,650.0 90.0,650.0" fill="#663399" opacity="0.6" class="anim" style="animation-delay:800ms;"/>
<polygon points="90.0,650.0 99.9,650.0 109.7,650.0 119.6,650.0 129.4,650.0 139.3,650.0 149.1,650.0 159.0,650.0 168.9,436.6 178.7,436.3 188.6,435.9 198.4,432.2 208.3,432.2 218.1,432.2 228.0,426.2 237.9,426.1 247.7,426.0 257.6,426.0 267.4,426.0 277.3,426.0 287.1,426.0 297.0,430.8 306.9,430.7 316.7,429.3 326.6,429.3 336.4,429.3 346.3,429.2 356.1,429.2 366.0,428.9 375.9,428.9 385.7,428.8 395.6,428.8 405.4,428.8 415.3,428.8 425.1,423.0 435.0,422.9 444.9,422.9 454.7,422.9 464.6,422.9 474.4,422.0 484.3,422.0 494.1,421.9 504.0,421.9 513.9,421.9 523.7,421.8 533.6,421.8 543.4,421.8 553.3,421.8 563.1,421.8 573.0,421.8 582.9,421.8 592.7,421.8 602.6,421.8 612.4,421.8 622.3,421.8 632.1,421.8 642.0,421.8 651.9,421.7 661.7,421.8 671.6,421.8 681.4,421.8 691.3,421.8 701.1,423.2 711.0,423.6 720.9,423.6 730.7,423.6 740.6,423.6 750.4,423.6 760.3,423.6 770.1,422.5 780.0,421.4 780.0,426.1 770.1,427.5 760.3,428.9 750.4,428.9 740.6,428.9 730.7,428.9 720.9,428.9 711.0,428.9 701.1,428.4 691.3,427.1 681.4,427.1 671.6,427.1 661.7,427.1 651.9,427.0 642.0,427.0 632.1,427.0 622.3,427.0 612.4,427.0 602.6,427.0 592.7,427.0 582.9,427.0 573.0,427.0 563.1,427.0 553.3,427.0 543.4,427.0 533.6,427.0 523.7,427.0 513.9,427.1 504.0,427.1 494.1,427.1 484.3,427.3 474.4,427.3 464.6,428.5 454.7,428.5 444.9,428.5 435.0,428.6 425.1,428.7 415.3,437.1 405.4,437.1 395.6,437.1 385.7,437.1 375.9,437.1 366.0,437.1 356.1,437.3 346.3,437.3 336.4,437.4 326.6,437.4 316.7,437.4 306.9,439.3 297.0,439.3 287.1,432.6 277.3,432.6 267.4,432.6 257.6,432.6 247.7,432.6 237.9,432.2 228.0,432.3 218.1,439.4 208.3,439.5 198.4,439.5 188.6,441.6 178.7,442.0 168.9,442.3 159.0,650.0 149.1,650.0 139.3,650.0 129.4,650.0 119.6,650.0 109.7,650.0 99.9,650.0 90.0,650.0" fill="#083fa1" opacity="0.6" class="anim" style="animation-delay:900ms;"/>
<polygon points="90.0,650.0 99.9,650.0 109.7,650.0 119.6,650.0 129.4,650.0 139.3,650.0 149.1,650.0 159.0,650.0 168.9,427.0 178.7,426.8 188.6,426.6 198.4,424.2 208.3,424.2 218.1,424.2 228.0,420.4 237.9,420.3 247.7,420.3 257.6,420.3 267.4,420.3 277.3,420.3 287.1,420.3 297.0,423.3 306.9,423.2 316.7,422.4 326.6,422.4 336.4,422.4 346.3,422.3 356.1,422.3 366.0,422.1 375.9,422.1 385.7,422.1 395.6,422.1 405.4,422.1 415.3,422.1 425.1,418.3 435.0,418.3 444.9,418.2 454.7,418.2 464.6,418.2 474.4,417.7 484.3,417.7 494.1,417.6 504.0,417.6 513.9,417.6 523.7,417.6 533.6,417.6 543.4,417.6 553.3,417.6 563.1,417.6 573.0,417.6 582.9,417.6 592.7,417.6 602.6,417.6 612.4,417.6 622.3,417.6 632.1,417.6 642.0,417.6 651.9,417.5 661.7,417.6 671.6,417.6 681.4,417.6 691.3,417.6 701.1,419.0 711.0,419.5 720.9,419.5 730.7,419.5 740.6,419.5 750.4,419.5 760.3,419.5 770.1,418.9 780.0,418.3 780.0,421.4 770.1,422.5 760.3,423.6 750.4,423.6 740.6,423.6 730.7,423.6 720.9,423.6 711.0,423.6 701.1,423.2 691.3,421.8 681.4,421.8 671.6,421.8 661.7,421.8 651.9,421.7 642.0,421.8 632.1,421.8 622.3,421.8 612.4,421.8 602.6,421.8 592.7,421.8 582.9,421.8 573.0,421.8 563.1,421.8 553.3,421.8 543.4,421.8 533.6,421.8 523.7,421.8 513.9,421.9 504.0,421.9 494.1,421.9 484.3,422.0 474.4,422.0 464.6,422.9 454.7,422.9 444.9,422.9 435.0,422.9 425.1,423.0 415.3,428.8 405.4,428.8 395.6,428.8 385.7,428.8 375.9,428.9 366.0,428.9 356.1,429.2 346.3,429.2 336.4,429.3 326.6,429.3 316.7,429.3 306.9,430.7 297.0,430.8 287.1,426.0 277.3,426.0 267.4,426.0 257.6,426.0 247.7,426.0 237.9,426.1 228.0,426.2 218.1,432.2 208.3,432.2 198.4,432.2 188.6,435.9 178.7,436.3 168.9,436.6 159.0,650.0 149.1,650.0 139.3,650.0 129.4,650.0 119.6,650.0 109.7,650.0 99.9,650.0 90.0,650.0" fill="#6E4C13" opacity="0.6" class="anim" style="animation-delay:1000ms;"/>
<polygon points="90.0,650.0 99.9,650.0 109.7,650.0 119.6,650.0 129.4,650.0 139.3,650.0 149.1,650.0 159.0,650.0 168.9,418.7 178.7,418.6 188.6,418.5 198.4,417.3 208.3,417.3 218.1,417.2 228.0,415.3 237.9,415.3 247.7,415.2 257.6,415.2 267.4,415.2 277.3,415.2 287.1,415.2 297.0,416.8 306.9,416.8 316.7,416.3 326.6,416.3 336.4,416.3 346.3,416.3 356.1,416.3 366.0,416.2 375.9,416.2 385.7,416.2 395.6,416.2 405.4,416.2 415.3,416.2 425.1,414.2 435.0,414.2 444.9,414.2 454.7,414.2 464.6,414.2 474.4,413.9 484.3,413.9 494.1,413.9 504.0,413.9 513.9,413.9 523.7,413.9 533.6,413.9 543.4,413.9 553.3,413.9 563.1,413.9 573.0,413.9 582.9,413.9 592.7,413.9 602.6,413.9 612.4,413.9 622.3,413.9 632.1,413.9 642.0,413.9 651.9,413.8 661.7,413.8 671.6,413.8 681.4,413.8 691.3,413.8 701.1,413.8 711.0,413.8 720.9,413.8 730.7,413.8 740.6,413.8 750.4,413.8 760.3,413.8 770.1,413.6 780.0,413.3 780.0,418.3 770.1,418.9 760.3,419.5 750.4,419.5 740.6,419.5 730.7,419.5 720.9,419.5 711.0,419.5 701.1,419.0 691.3,417.6 681.4,417.6 671.6,417.6 661.7,417.6 651.9,417.5 642.0,417.6 632.1,417.6 622.3,417.6 612.4,417.6 602.6,417.6 592.7,417.6 582.9,417.6 573.0,417.6 563.1,417.6 553.3,417.6 543.4,417.6 533.6,417.6 523.7,417.6 513.9,417.6 504.0,417.6 494.1,417.6 484.3,417.7 474.4,417.7 464.6,418.2 454.7,418.2 444.9,418.2 435.0,418.3 425.1,418.3 415.3,422.1 405.4,422.1 395.6,422.1 385.7,422.1 375.9,422.1 366.0,422.1 356.1,422.3 346.3,422.3 336.4,422.4 326.6,422.4 316.7,422.4 306.9,423.2 297.0,423.3 287.1,420.3 277.3,420.3 267.4,420.3 257.6,420.3 247.7,420.3 237.9,420.3 228.0,420.4 218.1,424.2 208.3,424.2 198.4,424.2 188.6,426.6 178.7,426.8 168.9,427.0 159.0,650.0 149.1,650.0 139.3,650.0 129.4,650.0 119.6,650.0 109.7,650.0 99.9,650.0 90.0,650.0" fill="#F05138" opacity="0.6" class="anim" style="animation-delay:1100ms;"/>
<polygon points="90.0,650.0 99.9,650.0 109.7,650.0 119.6,650.0 129.4,650.0 139.3,650.0 149.1,650.0 159.0,650.0 168.9,414.4 178.7,414.4 188.6,414.3 198.4,413.7 208.3,413.7 218.1,413.7 228.0,412.7 237.9,412.7 247.7,412.7 257.6,412.7 267.4,412.7 277.3,412.7 287.1,412.7 297.0,413.5 306.9,413.4 316.7,413.2 326.6,413.2 336.4,413.2 346.3,413.2 356.1,413.2 366.0,413.1 375.9,413.1 385.7,413.1 395.6,413.1 405.4,413.1 415.3,413.1 425.1,412.2 435.0,412.1 444.9,412.1 454.7,412.1 464.6,412.1 474.4,412.0 484.3,412.0 494.1,412.0 504.0,412.0 513.9,412.0 523.7,412.0 533.6,412.0 543.4,412.0 553.3,412.0 563.1,412.0 573.0,412.0 582.9,412.0 592.7,412.0 602.6,412.0 612.4,412.0 622.3,412.0 632.1,412.0 642.0,412.0 651.9,411.9 661.7,411.9 671.6,411.9 681.4,411.9 691.3,411.9 701.1,411.9 711.0,411.9 720.9,411.9 730.7,411.9 740.6,411.9 750.4,411.9 760.3,411.9 770.1,411.9 780.0,411.9 780.0,413.3 770.1,413.6 760.3,413.8 750.4,413.8 740.6,413.8 730.7,413.8 720.9,413.8 711.0,413.8 701.1,413.8 691.3,413.8 681.4,413.8 671.6,413.8 661.7,413.8 651.9,413.8 642.0,413.9 632.1,413.9 622.3,413.9 612.4,413.9 602.6,413.9 592.7,413.9 582.9,413.9 573.0,413.9 563.1,413.9 553.3,413.9 543.4,413.9 533.6,413.9 523.7,413.9 513.9,413.9 504.0,413.9 494.1,413.9 484.3,413.9 474.4,413.9 464.6,414.2 454.7,414.2 444.9,414.2 435.0,414.2 425.1,414.2 415.3,416.2 405.4,416.2 395.6,416.2 385.7,416.2 375.9,416.2 366.0,416.2 356.1,416.3 346.3,416.3 336.4,416.3 326.6,416.3 316.7,416.3 306.9,416.8 297.0,416.8 287.1,415.2 277.3,415.2 267.4,415.2 257.6,415.2 247.7,415.2 237.9,415.3 228.0,415.3 218.1,417.2 208.3,417.3 198.4,417.3 188.6,418.5 178.7,418.6 168.9,418.7 159.0,650.0 149.1,650.0 139.3,650.0 129.4,650.0 119.6,650.0 109.7,650.0 99.9,650.0 90.0,650.0" fill="#b07219" opacity="0.6" class="anim" style="animation-delay:1200ms;"/>
<line x1="760.3" y1="100" x2="760.3" y2="650" stroke="#c9d1d9" stroke-width="1" stroke-dasharray="4,3" opacity="0.35"/>
<text x="770.1" y="112" text-anchor="middle" class="axis-label" opacity="0.6">Jun 30, 2026</text>
<text x="90.0" y="668" text-anchor="middle" class="axis-label" transform="rotate(-35 90.0 668)">2026-02</text>
<text x="326.6" y="668" text-anchor="middle" class="axis-label" transform="rotate(-35 326.6 668)">2026-03</text>
<text x="642.0" y="668" text-anchor="middle" class="axis-label" transform="rotate(-35 642.0 668)">2026-04</text>
<text x="720.9" y="668" text-anchor="middle" class="axis-label" transform="rotate(-35 720.9 668)">2026-06</text>
<line x1="796" y1="110" x2="824" y2="110" stroke="#3fb950" stroke-width="2"/>
<text x="832" y="116" class="legend-text">Lines Added</text>
<line x1="796" y1="140" x2="824" y2="140" stroke="#f85149" stroke-width="1.5"/>
<text x="832" y="146" class="legend-text">Lines Deleted</text>
<line x1="796" y1="170" x2="824" y2="170" stroke="#e3b341" stroke-width="1.5" stroke-dasharray="4,3"/>
<text x="832" y="176" class="legend-text">&#x2605; Stars</text>
<text x="796" y="200" class="subtitle">Languages</text>
<rect x="796" y="212" width="12" height="12" rx="2" fill="#e34c26" opacity="0.8" class="anim" style="animation-delay:800ms;"/>
<text x="814" y="223" class="legend-text">HTML (58%→57%)</text>
<rect x="796" y="234" width="12" height="12" rx="2" fill="#f1e05a" opacity="0.8" class="anim" style="animation-delay:880ms;"/>
<text x="814" y="245" class="legend-text">JavaScript (22%→25%)</text>
<rect x="796" y="256" width="12" height="12" rx="2" fill="#3572A5" opacity="0.8" class="anim" style="animation-delay:960ms;"/>
<text x="814" y="267" class="legend-text">Python (7%→5%)</text>
<rect x="796" y="278" width="12" height="12" rx="2" fill="#663399" opacity="0.8" class="anim" style="animation-delay:1040ms;"/>
<text x="814" y="289" class="legend-text">CSS (5%→6%)</text>
<rect x="796" y="300" width="12" height="12" rx="2" fill="#083fa1" opacity="0.8" class="anim" style="animation-delay:1120ms;"/>
<text x="814" y="311" class="legend-text">Markdown (2%→2%)</text>
<rect x="796" y="322" width="12" height="12" rx="2" fill="#6E4C13" opacity="0.8" class="anim" style="animation-delay:1200ms;"/>
<text x="814" y="333" class="legend-text">Assembly (2%→1%)</text>
<rect x="796" y="344" width="12" height="12" rx="2" fill="#F05138" opacity="0.8" class="anim" style="animation-delay:1280ms;"/>
<text x="814" y="355" class="legend-text">Swift (2%→2%)</text>
<rect x="796" y="366" width="12" height="12" rx="2" fill="#b07219" opacity="0.8" class="anim" style="animation-delay:1360ms;"/>
<text x="814" y="377" class="legend-text">Java (1%→1%)</text>
<text x="796" y="412" class="subtitle">Contributions</text>
<text x="796" y="432" class="axis-label">2023: 39</text>
<text x="796" y="452" class="axis-label">2024: 646</text>
<text x="796" y="472" class="axis-label">2025: 1,780</text>
<text x="796" y="492" class="axis-label">2026: 483</text>
<text x="796" y="522" class="subtitle">Statistics</text>
<text x="796" y="542" class="axis-label">Active weeks: 87</text>
<text x="796" y="562" class="axis-label">Add/Del ratio: 1.8x</text>
<text x="796" y="582" class="axis-label">Avg lines/wk: 19K</text>
<text x="796" y="602" class="axis-label">Peak: 2026-02-15</text>
<text x="796" y="622" class="axis-label">  (543K lines)</text>
<text x="90" y="742" class="axis-label">Total: +1,039,435 / -576,819 lines &#xb7; 2,948 contributions &#xb7; 79 repos &#xb7; &#x2605; 37</text>
</svg>