<svg xmlns="http://www.w3.org/2000/svg" width="1000" height="760" style="max-width: 100%;" viewBox="0 0 1000 760">

<defs>
  <linearGradient id="areaGrad" x1="0" y1="0" x2="0" y2="1">
    <stop offset="0%" stop-color="#58a6ff" stop-opacity="0.35"/>
    <stop offset="100%" stop-color="#58a6ff" stop-opacity="0.02"/>
  </linearGradient>
  <linearGradient id="addGrad" x1="0" y1="0" x2="0" y2="1">
    <stop offset="0%" stop-color="#3fb950" stop-opacity="0.35"/>
    <stop offset="100%" stop-color="#3fb950" stop-opacity="0.02"/>
  </linearGradient>
  <linearGradient id="delGrad" x1="0" y1="0" x2="0" y2="1">
    <stop offset="0%" stop-color="#f85149" stop-opacity="0.25"/>
    <stop offset="100%" stop-color="#f85149" stop-opacity="0.02"/>
  </linearGradient>
</defs>
<style>
  .title { font: bold 28px 'Segoe UI', Ubuntu, Sans-Serif; fill: #c9d1d9; }
  .subtitle { font: 600 20px 'Segoe UI', Ubuntu, Sans-Serif; fill: #c9d1d9; opacity: 0.8; }
  .axis-label { font: 18px 'Segoe UI', Ubuntu, Sans-Serif; fill: #c9d1d9; opacity: 0.7; }
  .legend-text { font: 14px 'Segoe UI', Ubuntu, Sans-Serif; fill: #c9d1d9; }
  .value-text { font: bold 18px 'Segoe UI', Ubuntu, Sans-Serif; fill: #c9d1d9; }
  .stat-value { font: bold 22px 'Segoe UI', Ubuntu, Sans-Serif; fill: #c9d1d9; }
  .stat-label { font: 18px 'Segoe UI', Ubuntu, Sans-Serif; fill: #c9d1d9; opacity: 0.7; }
  @keyframes fadeIn { from { opacity: 0; } to { opacity: 1; } }
  .anim { animation: fadeIn 0.6s ease-in-out forwards; opacity: 0; }
</style>

<rect x="0.5" y="0.5" rx="4.5" width="999" height="759" fill="#161b22" stroke="#21262d"/>
<text x="90" y="45" class="title">Activity History</text>
<text x="90" y="72" class="subtitle">Lines added vs deleted &amp; activity trends over time</text>
<line x1="90" y1="340.0" x2="780" y2="340.0" stroke="#21262d" stroke-width="1"/>
<text x="82" y="344.0" text-anchor="end" class="axis-label">0</text>
<line x1="90" y1="280.0" x2="780" y2="280.0" stroke="#21262d" stroke-width="1"/>
<text x="82" y="284.0" text-anchor="end" class="axis-label">452K</text>
<line x1="90" y1="220.0" x2="780" y2="220.0" stroke="#21262d" stroke-width="1"/>
<text x="82" y="224.0" text-anchor="end" class="axis-label">905K</text>
<line x1="90" y1="160.0" x2="780" y2="160.0" stroke="#21262d" stroke-width="1"/>
<text x="82" y="164.0" text-anchor="end" class="axis-label">1.4M</text>
<line x1="90" y1="100.0" x2="780" y2="100.0" stroke="#21262d" stroke-width="1"/>
<text x="82" y="104.0" text-anchor="end" class="axis-label">1.8M</text>
<polygon points="90.0,340.0 90.0,291.6 96.8,293.3 103.5,291.6 110.3,293.3 117.1,304.5 123.8,282.3 130.6,282.3 137.4,273.9 144.1,273.6 150.9,273.1 157.6,273.0 164.4,258.1 171.2,258.1 177.9,258.1 184.7,236.0 191.5,235.7 198.2,235.5 205.0,235.5 211.8,235.5 218.5,235.5 225.3,235.5 232.1,234.9 238.8,220.1 245.6,220.1 252.4,220.1 259.1,220.1 265.9,219.8 272.6,219.8 279.4,219.1 286.2,219.1 292.9,219.0 299.7,219.0 306.5,219.0 313.2,219.0 320.0,219.1 326.8,219.0 333.5,219.0 340.3,219.0 347.1,219.0 353.8,219.0 360.6,219.0 367.4,218.4 374.1,218.7 380.9,218.0 387.6,217.7 394.4,217.7 401.2,217.7 407.9,217.7 414.7,217.7 421.5,217.7 428.2,217.6 435.0,217.6 441.8,217.6 448.5,217.7 455.3,218.0 462.1,219.4 468.8,218.0 475.6,216.7 482.4,216.6 489.1,216.6 495.9,216.6 502.6,216.6 509.4,209.1 516.2,202.1 522.9,202.1 529.7,202.1 536.5,202.1 543.2,202.1 550.0,202.1 556.8,202.1 563.5,202.1 570.3,202.0 577.1,202.0 583.8,202.0 590.6,202.0 597.4,202.0 604.1,202.0 610.9,202.0 617.6,202.0 624.4,202.0 631.2,202.0 637.9,202.0 644.7,202.0 651.5,202.0 658.2,202.0 665.0,202.0 671.8,202.0 678.5,202.0 685.3,202.0 692.1,202.0 698.8,202.0 705.6,202.0 712.4,202.0 719.1,202.0 725.9,202.0 732.6,202.0 739.4,202.0 746.2,202.0 752.9,202.0 759.7,202.0 766.5,202.0 773.2,194.4 780.0,186.9 780.0,340.0" fill="url(#addGrad)" class="anim" style="animation-delay:200ms;"/>
<polyline points="90.0,291.6 96.8,293.3 103.5,291.6 110.3,293.3 117.1,304.5 123.8,282.3 130.6,282.3 137.4,273.9 144.1,273.6 150.9,273.1 157.6,273.0 164.4,258.1 171.2,258.1 177.9,258.1 184.7,236.0 191.5,235.7 198.2,235.5 205.0,235.5 211.8,235.5 218.5,235.5 225.3,235.5 232.1,234.9 238.8,220.1 245.6,220.1 252.4,220.1 259.1,220.1 265.9,219.8 272.6,219.8 279.4,219.1 286.2,219.1 292.9,219.0 299.7,219.0 306.5,219.0 313.2,219.0 320.0,219.1 326.8,219.0 333.5,219.0 340.3,219.0 347.1,219.0 353.8,219.0 360.6,219.0 367.4,218.4 374.1,218.7 380.9,218.0 387.6,217.7 394.4,217.7 401.2,217.7 407.9,217.7 414.7,217.7 421.5,217.7 428.2,217.6 435.0,217.6 441.8,217.6 448.5,217.7 455.3,218.0 462.1,219.4 468.8,218.0 475.6,216.7 482.4,216.6 489.1,216.6 495.9,216.6 502.6,216.6 509.4,209.1 516.2,202.1 522.9,202.1 529.7,202.1 536.5,202.1 543.2,202.1 550.0,202.1 556.8,202.1 563.5,202.1 570.3,202.0 577.1,202.0 583.8,202.0 590.6,202.0 597.4,202.0 604.1,202.0 610.9,202.0 617.6,202.0 624.4,202.0 631.2,202.0 637.9,202.0 644.7,202.0 651.5,202.0 658.2,202.0 665.0,202.0 671.8,202.0 678.5,202.0 685.3,202.0 692.1,202.0 698.8,202.0 705.6,202.0 712.4,202.0 719.1,202.0 725.9,202.0 732.6,202.0 739.4,202.0 746.2,202.0 752.9,202.0 759.7,202.0 766.5,202.0" fill="none" stroke="#3fb950" stroke-width="2" stroke-linejoin="round" class="anim" style="animation-delay:250ms;"/>
<polyline points="766.5,202.0 773.2,194.4 780.0,186.9" fill="none" stroke="#3fb950" stroke-width="1.5" stroke-dasharray="5,4" stroke-linejoin="round" opacity="0.6" class="anim" style="animation-delay:250ms;"/>
<polygon points="90.0,340.0 90.0,326.4 96.8,327.8 103.5,326.4 110.3,327.8 117.1,333.6 123.8,324.7 130.6,324.7 137.4,323.7 144.1,323.4 150.9,323.2 157.6,323.1 164.4,307.1 171.2,307.1 177.9,307.0 184.7,288.9 191.5,288.7 198.2,288.7 205.0,288.7 211.8,288.7 218.5,288.7 225.3,288.7 232.1,279.2 238.8,264.7 245.6,264.7 252.4,264.7 259.1,264.7 265.9,264.6 272.6,264.6 279.4,264.5 286.2,264.5 292.9,264.5 299.7,264.5 306.5,264.5 313.2,264.5 320.0,264.5 326.8,264.5 333.5,264.5 340.3,264.5 347.1,264.5 353.8,264.5 360.6,264.5 367.4,264.5 374.1,264.5 380.9,264.0 387.6,264.0 394.4,264.0 401.2,264.0 407.9,264.0 414.7,264.0 421.5,264.0 428.2,264.0 435.0,264.0 441.8,264.0 448.5,264.1 455.3,264.1 462.1,265.0 468.8,264.4 475.6,263.6 482.4,263.6 489.1,263.6 495.9,263.6 502.6,263.6 509.4,263.5 516.2,263.5 522.9,263.5 529.7,263.5 536.5,263.5 543.2,263.5 550.0,263.5 556.8,263.5 563.5,263.5 570.3,263.5 577.1,263.5 583.8,263.5 590.6,263.5 597.4,263.5 604.1,263.5 610.9,263.5 617.6,263.5 624.4,263.5 631.2,263.5 637.9,263.5 644.7,263.5 651.5,263.5 658.2,263.5 665.0,263.5 671.8,263.5 678.5,263.5 685.3,263.5 692.1,263.5 698.8,263.5 705.6,263.5 712.4,263.5 719.1,263.5 725.9,263.5 732.6,263.5 739.4,263.5 746.2,263.5 752.9,263.5 759.7,263.5 766.5,263.5 773.2,258.3 780.0,253.1 780.0,340.0" fill="url(#delGrad)" class="anim" style="animation-delay:300ms;"/>
<polyline points="90.0,326.4 96.8,327.8 103.5,326.4 110.3,327.8 117.1,333.6 123.8,324.7 130.6,324.7 137.4,323.7 144.1,323.4 150.9,323.2 157.6,323.1 164.4,307.1 171.2,307.1 177.9,307.0 184.7,288.9 191.5,288.7 198.2,288.7 205.0,288.7 211.8,288.7 218.5,288.7 225.3,288.7 232.1,279.2 238.8,264.7 245.6,264.7 252.4,264.7 259.1,264.7 265.9,264.6 272.6,264.6 279.4,264.5 286.2,264.5 292.9,264.5 299.7,264.5 306.5,264.5 313.2,264.5 320.0,264.5 326.8,264.5 333.5,264.5 340.3,264.5 347.1,264.5 353.8,264.5 360.6,264.5 367.4,264.5 374.1,264.5 380.9,264.0 387.6,264.0 394.4,264.0 401.2,264.0 407.9,264.0 414.7,264.0 421.5,264.0 428.2,264.0 435.0,264.0 441.8,264.0 448.5,264.1 455.3,264.1 462.1,265.0 468.8,264.4 475.6,263.6 482.4,263.6 489.1,263.6 495.9,263.6 502.6,263.6 509.4,263.5 516.2,263.5 522.9,263.5 529.7,263.5 536.5,263.5 543.2,263.5 550.0,263.5 556.8,263.5 563.5,263.5 570.3,263.5 577.1,263.5 583.8,263.5 590.6,263.5 597.4,263.5 604.1,263.5 610.9,263.5 617.6,263.5 624.4,263.5 631.2,263.5 637.9,263.5 644.7,263.5 651.5,263.5 658.2,263.5 665.0,263.5 671.8,263.5 678.5,263.5 685.3,263.5 692.1,263.5 698.8,263.5 705.6,263.5 712.4,263.5 719.1,263.5 725.9,263.5 732.6,263.5 739.4,263.5 746.2,263.5 752.9,263.5 759.7,263.5 766.5,263.5" fill="none" stroke="#f85149" stroke-width="1.5" stroke-linejoin="round" class="anim" style="animation-delay:350ms;"/>
<polyline points="766.5,263.5 773.2,258.3 780.0,253.1" fill="none" stroke="#f85149" stroke-width="1" stroke-dasharray="5,4" stroke-linejoin="round" opacity="0.6" class="anim" style="animation-delay:350ms;"/>
<polyline points="90.0,340.0 96.8,340.0 103.5,340.0 110.3,340.0 117.1,340.0 123.8,340.0 130.6,340.0 137.4,340.0 144.1,308.0 150.9,308.0 157.6,308.0 164.4,308.0 171.2,308.0 177.9,308.0 184.7,308.0 191.5,308.0 198.2,308.0 205.0,308.0 211.8,308.0 218.5,308.0 225.3,308.0 232.1,308.0 238.8,308.0 245.6,308.0 252.4,308.0 259.1,308.0 265.9,308.0 272.6,308.0 279.4,308.0 286.2,308.0 292.9,308.0 299.7,308.0 306.5,308.0 313.2,308.0 320.0,276.0 326.8,276.0 333.5,276.0 340.3,276.0 347.1,276.0 353.8,276.0 360.6,276.0 367.4,276.0 374.1,244.0 380.9,244.0 387.6,244.0 394.4,244.0 401.2,244.0 407.9,244.0 414.7,244.0 421.5,244.0 428.2,244.0 435.0,244.0 441.8,244.0 448.5,244.0 455.3,244.0 462.1,244.0 468.8,244.0 475.6,244.0 482.4,180.0 489.1,180.0 495.9,180.0 502.6,180.0 509.4,180.0 516.2,180.0 522.9,180.0 529.7,180.0 536.5,180.0 543.2,180.0 550.0,180.0 556.8,180.0 563.5,180.0 570.3,180.0 577.1,180.0 583.8,180.0 590.6,180.0 597.4,180.0 604.1,180.0 610.9,180.0 617.6,180.0 624.4,180.0 631.2,180.0 637.9,180.0 644.7,180.0 651.5,180.0 658.2,180.0 665.0,180.0 671.8,180.0 678.5,180.0 685.3,180.0 692.1,180.0 698.8,180.0 705.6,180.0 712.4,180.0 719.1,180.0 725.9,180.0 732.6,180.0 739.4,180.0 746.2,180.0 752.9,180.0 759.7,180.0 766.5,180.0" fill="none" stroke="#e3b341" stroke-width="1.5" stroke-dasharray="4,3" stroke-linejoin="round" class="anim" style="animation-delay:400ms;"/>
<polyline points="766.5,180.0 773.2,180.0 780.0,148.0" fill="none" stroke="#e3b341" stroke-width="1" stroke-dasharray="3,5" stroke-linejoin="round" opacity="0.5" class="anim" style="animation-delay:400ms;"/>
<text x="90" y="90" class="subtitle">Lines Added vs Deleted (per snapshot)</text>
<text x="90" y="400" class="subtitle">Programming Language Development (%)</text>
<line x1="90" y1="650.0" x2="780" y2="650.0" stroke="#21262d" stroke-width="1"/>
<text x="82" y="654.0" text-anchor="end" class="axis-label">0%</text>
<line x1="90" y1="590.0" x2="780" y2="590.0" stroke="#21262d" stroke-width="1"/>
<text x="82" y="594.0" text-anchor="end" class="axis-label">25%</text>
<line x1="90" y1="530.0" x2="780" y2="530.0" stroke="#21262d" stroke-width="1"/>
<text x="82" y="534.0" text-anchor="end" class="axis-label">50%</text>
<line x1="90" y1="470.0" x2="780" y2="470.0" stroke="#21262d" stroke-width="1"/>
<text x="82" y="474.0" text-anchor="end" class="axis-label">75%</text>
<line x1="90" y1="410.0" x2="780" y2="410.0" stroke="#21262d" stroke-width="1"/>
<text x="82" y="414.0" text-anchor="end" class="axis-label">100%</text>
<polygon points="90.0,650.0 96.8,650.0 103.5,650.0 110.3,650.0 117.1,650.0 123.8,650.0 130.6,650.0 137.4,650.0 144.1,528.2 150.9,528.5 157.6,529.7 164.4,499.3 171.2,499.3 177.9,502.9 184.7,485.0 191.5,485.1 198.2,485.4 205.0,485.4 211.8,485.4 218.5,485.4 225.3,485.4 232.1,496.4 238.8,496.7 245.6,491.0 252.4,491.0 259.1,491.0 265.9,491.7 272.6,491.8 279.4,494.0 286.2,494.0 292.9,494.4 299.7,494.4 306.5,494.4 313.2,494.4 320.0,507.6 326.8,507.6 333.5,507.9 340.3,507.9 347.1,507.9 353.8,506.3 360.6,506.4 367.4,506.8 374.1,506.9 380.9,506.8 387.6,507.5 394.4,507.5 401.2,507.5 407.9,507.5 414.7,507.5 421.5,507.5 428.2,507.5 435.0,507.5 441.8,507.5 448.5,507.5 455.3,507.5 462.1,507.5 468.8,507.5 475.6,508.6 482.4,508.6 489.1,508.6 495.9,508.6 502.6,508.6 509.4,509.5 516.2,509.8 522.9,509.8 529.7,509.8 536.5,509.8 543.2,509.8 550.0,509.8 556.8,509.8 563.5,509.8 570.3,510.9 577.1,510.9 583.8,510.9 590.6,510.9 597.4,510.9 604.1,510.9 610.9,510.9 617.6,510.9 624.4,510.9 631.2,510.9 637.9,510.9 644.7,510.9 651.5,510.9 658.2,510.9 665.0,510.9 671.8,510.9 678.5,510.9 685.3,510.9 692.1,510.9 698.8,510.9 705.6,510.9 712.4,510.9 719.1,510.9 725.9,510.9 732.6,510.9 739.4,510.9 746.2,510.9 752.9,510.9 759.7,510.9 766.5,510.9 773.2,512.9 780.0,515.0 780.0,650.0 773.2,650.0 766.5,650.0 759.7,650.0 752.9,650.0 746.2,650.0 739.4,650.0 732.6,650.0 725.9,650.0 719.1,650.0 712.4,650.0 705.6,650.0 698.8,650.0 692.1,650.0 685.3,650.0 678.5,650.0 671.8,650.0 665.0,650.0 658.2,650.0 651.5,650.0 644.7,650.0 637.9,650.0 631.2,650.0 624.4,650.0 617.6,650.0 610.9,650.0 604.1,650.0 597.4,650.0 590.6,650.0 583.8,650.0 577.1,650.0 570.3,650.0 563.5,650.0 556.8,650.0 550.0,650.0 543.2,650.0 536.5,650.0 529.7,650.0 522.9,650.0 516.2,650.0 509.4,650.0 502.6,650.0 495.9,650.0 489.1,650.0 482.4,650.0 475.6,650.0 468.8,650.0 462.1,650.0 455.3,650.0 448.5,650.0 441.8,650.0 435.0,650.0 428.2,650.0 421.5,650.0 414.7,650.0 407.9,650.0 401.2,650.0 394.4,650.0 387.6,650.0 380.9,650.0 374.1,650.0 367.4,650.0 360.6,650.0 353.8,650.0 347.1,650.0 340.3,650.0 333.5,650.0 326.8,650.0 320.0,650.0 313.2,650.0 306.5,650.0 299.7,650.0 292.9,650.0 286.2,650.0 279.4,650.0 272.6,650.0 265.9,650.0 259.1,650.0 252.4,650.0 245.6,650.0 238.8,650.0 232.1,650.0 225.3,650.0 218.5,650.0 211.8,650.0 205.0,650.0 198.2,650.0 191.5,650.0 184.7,650.0 177.9,650.0 171.2,650.0 164.4,650.0 157.6,650.0 150.9,650.0 144.1,650.0 137.4,650.0 130.6,650.0 123.8,650.0 117.1,650.0 110.3,650.0 103.5,650.0 96.8,650.0 90.0,650.0" fill="#e34c26" opacity="0.6" class="anim" style="animation-delay:500ms;"/>
<polygon points="90.0,650.0 96.8,650.0 103.5,650.0 110.3,650.0 117.1,650.0 123.8,650.0 130.6,650.0 137.4,650.0 144.1,488.4 150.9,488.0 157.6,489.0 164.4,476.0 171.2,476.0 177.9,477.2 184.7,460.1 191.5,460.2 198.2,460.6 205.0,460.6 211.8,460.6 218.5,460.6 225.3,460.6 232.1,473.0 238.8,473.5 245.6,469.5 252.4,469.5 259.1,469.5 265.9,469.7 272.6,469.7 279.4,469.7 286.2,469.7 292.9,469.7 299.7,469.7 306.5,469.7 313.2,469.7 320.0,455.6 326.8,455.6 333.5,455.4 340.3,455.4 347.1,455.4 353.8,454.3 360.6,454.3 367.4,455.0 374.1,455.1 380.9,454.9 387.6,455.9 394.4,455.9 401.2,455.9 407.9,455.9 414.7,455.9 421.5,455.9 428.2,455.9 435.0,455.9 441.8,455.9 448.5,455.9 455.3,455.9 462.1,455.9 468.8,455.9 475.6,455.8 482.4,455.8 489.1,455.8 495.9,455.8 502.6,455.8 509.4,457.0 516.2,457.4 522.9,457.4 529.7,457.4 536.5,457.4 543.2,457.4 550.0,457.4 556.8,457.4 563.5,457.4 570.3,458.2 577.1,458.2 583.8,458.2 590.6,458.2 597.4,458.2 604.1,458.2 610.9,458.2 617.6,458.2 624.4,458.2 631.2,458.2 637.9,458.2 644.7,458.2 651.5,458.2 658.2,458.2 665.0,458.2 671.8,458.2 678.5,458.2 685.3,458.2 692.1,458.2 698.8,458.2 705.6,458.2 712.4,458.2 719.1,458.2 725.9,458.2 732.6,458.2 739.4,458.2 746.2,458.2 752.9,458.2 759.7,458.2 766.5,458.2 773.2,456.6 780.0,455.1 780.0,515.0 773.2,512.9 766.5,510.9 759.7,510.9 752.9,510.9 746.2,510.9 739.4,510.9 732.6,510.9 725.9,510.9 719.1,510.9 712.4,510.9 705.6,510.9 698.8,510.9 692.1,510.9 685.3,510.9 678.5,510.9 671.8,510.9 665.0,510.9 658.2,510.9 651.5,510.9 644.7,510.9 637.9,510.9 631.2,510.9 624.4,510.9 617.6,510.9 610.9,510.9 604.1,510.9 597.4,510.9 590.6,510.9 583.8,510.9 577.1,510.9 570.3,510.9 563.5,509.8 556.8,509.8 550.0,509.8 543.2,509.8 536.5,509.8 529.7,509.8 522.9,509.8 516.2,509.8 509.4,509.5 502.6,508.6 495.9,508.6 489.1,508.6 482.4,508.6 475.6,508.6 468.8,507.5 462.1,507.5 455.3,507.5 448.5,507.5 441.8,507.5 435.0,507.5 428.2,507.5 421.5,507.5 414.7,507.5 407.9,507.5 401.2,507.5 394.4,507.5 387.6,507.5 380.9,506.8 374.1,506.9 367.4,506.8 360.6,506.4 353.8,506.3 347.1,507.9 340.3,507.9 333.5,507.9 326.8,507.6 320.0,507.6 313.2,494.4 306.5,494.4 299.7,494.4 292.9,494.4 286.2,494.0 279.4,494.0 272.6,491.8 265.9,491.7 259.1,491.0 252.4,491.0 245.6,491.0 238.8,496.7 232.1,496.4 225.3,485.4 218.5,485.4 211.8,485.4 205.0,485.4 198.2,485.4 191.5,485.1 184.7,485.0 177.9,502.9 171.2,499.3 164.4,499.3 157.6,529.7 150.9,528.5 144.1,528.2 137.4,650.0 130.6,650.0 123.8,650.0 117.1,650.0 110.3,650.0 103.5,650.0 96.8,650.0 90.0,650.0" fill="#f1e05a" opacity="0.6" class="anim" style="animation-delay:600ms;"/>
<polygon points="90.0,650.0 96.8,650.0 103.5,650.0 110.3,650.0 117.1,650.0 123.8,650.0 130.6,650.0 137.4,650.0 144.1,455.5 150.9,455.4 157.6,455.1 164.4,447.0 171.2,447.0 177.9,448.2 184.7,438.9 191.5,439.0 198.2,439.6 205.0,439.6 211.8,439.6 218.5,439.6 225.3,439.6 232.1,445.6 238.8,445.6 245.6,443.3 252.4,443.3 259.1,443.3 265.9,443.6 272.6,443.6 279.4,444.1 286.2,444.1 292.9,444.1 299.7,444.1 306.5,444.1 313.2,444.1 320.0,437.5 326.8,437.5 333.5,437.5 340.3,437.5 347.1,437.5 353.8,437.5 360.6,437.5 367.4,438.4 374.1,438.5 380.9,438.3 387.6,439.3 394.4,439.3 401.2,439.3 407.9,439.3 414.7,439.3 421.5,439.3 428.2,439.3 435.0,439.3 441.8,439.3 448.5,439.3 455.3,439.3 462.1,439.3 468.8,439.3 475.6,439.4 482.4,439.4 489.1,439.4 495.9,439.4 502.6,439.4 509.4,440.7 516.2,441.1 522.9,441.1 529.7,441.1 536.5,441.1 543.2,441.1 550.0,441.1 556.8,441.1 563.5,441.1 570.3,442.0 577.1,442.0 583.8,442.0 590.6,442.0 597.4,442.0 604.1,442.0 610.9,442.0 617.6,442.0 624.4,442.0 631.2,442.0 637.9,442.0 644.7,442.0 651.5,442.0 658.2,442.0 665.0,442.0 671.8,442.0 678.5,442.0 685.3,442.0 692.1,442.0 698.8,442.0 705.6,442.0 712.4,442.0 719.1,442.0 725.9,442.0 732.6,442.0 739.4,442.0 746.2,442.0 752.9,442.0 759.7,442.0 766.5,442.0 773.2,441.9 780.0,441.8 780.0,455.1 773.2,456.6 766.5,458.2 759.7,458.2 752.9,458.2 746.2,458.2 739.4,458.2 732.6,458.2 725.9,458.2 719.1,458.2 712.4,458.2 705.6,458.2 698.8,458.2 692.1,458.2 685.3,458.2 678.5,458.2 671.8,458.2 665.0,458.2 658.2,458.2 651.5,458.2 644.7,458.2 637.9,458.2 631.2,458.2 624.4,458.2 617.6,458.2 610.9,458.2 604.1,458.2 597.4,458.2 590.6,458.2 583.8,458.2 577.1,458.2 570.3,458.2 563.5,457.4 556.8,457.4 550.0,457.4 543.2,457.4 536.5,457.4 529.7,457.4 522.9,457.4 516.2,457.4 509.4,457.0 502.6,455.8 495.9,455.8 489.1,455.8 482.4,455.8 475.6,455.8 468.8,455.9 462.1,455.9 455.3,455.9 448.5,455.9 441.8,455.9 435.0,455.9 428.2,455.9 421.5,455.9 414.7,455.9 407.9,455.9 401.2,455.9 394.4,455.9 387.6,455.9 380.9,454.9 374.1,455.1 367.4,455.0 360.6,454.3 353.8,454.3 347.1,455.4 340.3,455.4 333.5,455.4 326.8,455.6 320.0,455.6 313.2,469.7 306.5,469.7 299.7,469.7 292.9,469.7 286.2,469.7 279.4,469.7 272.6,469.7 265.9,469.7 259.1,469.5 252.4,469.5 245.6,469.5 238.8,473.5 232.1,473.0 225.3,460.6 218.5,460.6 211.8,460.6 205.0,460.6 198.2,460.6 191.5,460.2 184.7,460.1 177.9,477.2 171.2,476.0 164.4,476.0 157.6,489.0 150.9,488.0 144.1,488.4 137.4,650.0 130.6,650.0 123.8,650.0 117.1,650.0 110.3,650.0 103.5,650.0 96.8,650.0 90.0,650.0" fill="#3572A5" opacity="0.6" class="anim" style="animation-delay:700ms;"/>
<polygon points="90.0,650.0 96.8,650.0 103.5,650.0 110.3,650.0 117.1,650.0 123.8,650.0 130.6,650.0 137.4,650.0 144.1,442.3 150.9,442.0 157.6,441.6 164.4,439.5 171.2,439.5 177.9,439.4 184.7,432.3 191.5,432.2 198.2,432.6 205.0,432.6 211.8,432.6 218.5,432.6 225.3,432.6 232.1,439.3 238.8,439.3 245.6,437.4 252.4,437.4 259.1,437.4 265.9,437.3 272.6,437.3 279.4,437.1 286.2,437.1 292.9,437.1 299.7,437.1 306.5,437.1 313.2,437.1 320.0,428.7 326.8,428.6 333.5,428.5 340.3,428.5 347.1,428.5 353.8,427.3 360.6,427.3 367.4,427.1 374.1,427.1 380.9,427.1 387.6,427.0 394.4,427.0 401.2,427.0 407.9,427.0 414.7,427.0 421.5,427.0 428.2,427.0 435.0,427.0 441.8,427.0 448.5,427.0 455.3,427.0 462.1,427.0 468.8,427.0 475.6,427.0 482.4,427.1 489.1,427.1 495.9,427.1 502.6,427.1 509.4,428.4 516.2,428.9 522.9,428.9 529.7,428.9 536.5,428.9 543.2,428.9 550.0,428.9 556.8,428.9 563.5,428.9 570.3,428.7 577.1,428.7 583.8,428.7 590.6,428.7 597.4,428.7 604.1,428.7 610.9,428.7 617.6,428.7 624.4,428.7 631.2,428.7 637.9,428.7 644.7,428.7 651.5,428.7 658.2,428.7 665.0,428.7 671.8,428.7 678.5,428.7 685.3,428.7 692.1,428.7 698.8,428.7 705.6,428.7 712.4,428.7 719.1,428.7 725.9,428.7 732.6,428.7 739.4,428.7 746.2,428.7 752.9,428.7 759.7,428.7 766.5,428.7 773.2,427.8 780.0,426.9 780.0,441.8 773.2,441.9 766.5,442.0 759.7,442.0 752.9,442.0 746.2,442.0 739.4,442.0 732.6,442.0 725.9,442.0 719.1,442.0 712.4,442.0 705.6,442.0 698.8,442.0 692.1,442.0 685.3,442.0 678.5,442.0 671.8,442.0 665.0,442.0 658.2,442.0 651.5,442.0 644.7,442.0 637.9,442.0 631.2,442.0 624.4,442.0 617.6,442.0 610.9,442.0 604.1,442.0 597.4,442.0 590.6,442.0 583.8,442.0 577.1,442.0 570.3,442.0 563.5,441.1 556.8,441.1 550.0,441.1 543.2,441.1 536.5,441.1 529.7,441.1 522.9,441.1 516.2,441.1 509.4,440.7 502.6,439.4 495.9,439.4 489.1,439.4 482.4,439.4 475.6,439.4 468.8,439.3 462.1,439.3 455.3,439.3 448.5,439.3 441.8,439.3 435.0,439.3 428.2,439.3 421.5,439.3 414.7,439.3 407.9,439.3 401.2,439.3 394.4,439.3 387.6,439.3 380.9,438.3 374.1,438.5 367.4,438.4 360.6,437.5 353.8,437.5 347.1,437.5 340.3,437.5 333.5,437.5 326.8,437.5 320.0,437.5 313.2,444.1 306.5,444.1 299.7,444.1 292.9,444.1 286.2,444.1 279.4,444.1 272.6,443.6 265.9,443.6 259.1,443.3 252.4,443.3 245.6,443.3 238.8,445.6 232.1,445.6 225.3,439.6 218.5,439.6 211.8,439.6 205.0,439.6 198.2,439.6 191.5,439.0 184.7,438.9 177.9,448.2 171.2,447.0 164.4,447.0 157.6,455.1 150.9,455.4 144.1,455.5 137.4,650.0 130.6,650.0 123.8,650.0 117.1,650.0 110.3,650.0 103.5,650.0 96.8,650.0 90.0,650.0" fill="#663399" opacity="0.6" class="anim" style="animation-delay:800ms;"/>
<polygon points="90.0,650.0 96.8,650.0 103.5,650.0 110.3,650.0 117.1,650.0 123.8,650.0 130.6,650.0 137.4,650.0 144.1,436.6 150.9,436.3 157.6,435.9 164.4,432.2 171.2,432.2 177.9,432.2 184.7,426.2 191.5,426.1 198.2,426.0 205.0,426.0 211.8,426.0 218.5,426.0 225.3,426.0 232.1,430.8 238.8,430.7 245.6,429.3 252.4,429.3 259.1,429.3 265.9,429.2 272.6,429.2 279.4,428.9 286.2,428.9 292.9,428.8 299.7,428.8 306.5,428.8 313.2,428.8 320.0,423.0 326.8,422.9 333.5,422.9 340.3,422.9 347.1,422.9 353.8,422.0 360.6,422.0 367.4,421.9 374.1,421.9 380.9,421.9 387.6,421.8 394.4,421.8 401.2,421.8 407.9,421.8 414.7,421.8 421.5,421.8 428.2,421.8 435.0,421.8 441.8,421.8 448.5,421.8 455.3,421.8 462.1,421.8 468.8,421.8 475.6,421.7 482.4,421.8 489.1,421.8 495.9,421.8 502.6,421.8 509.4,423.2 516.2,423.6 522.9,423.6 529.7,423.6 536.5,423.6 543.2,423.6 550.0,423.6 556.8,423.6 563.5,423.6 570.3,423.5 577.1,423.5 583.8,423.5 590.6,423.5 597.4,423.5 604.1,423.5 610.9,423.5 617.6,423.5 624.4,423.5 631.2,423.5 637.9,423.5 644.7,423.5 651.5,423.5 658.2,423.5 665.0,423.5 671.8,423.5 678.5,423.5 685.3,423.5 692.1,423.5 698.8,423.5 705.6,423.5 712.4,423.5 719.1,423.5 725.9,423.5 732.6,423.5 739.4,423.5 746.2,423.5 752.9,423.5 759.7,423.5 766.5,423.5 773.2,422.9 780.0,422.2 780.0,426.9 773.2,427.8 766.5,428.7 759.7,428.7 752.9,428.7 746.2,428.7 739.4,428.7 732.6,428.7 725.9,428.7 719.1,428.7 712.4,428.7 705.6,428.7 698.8,428.7 692.1,428.7 685.3,428.7 678.5,428.7 671.8,428.7 665.0,428.7 658.2,428.7 651.5,428.7 644.7,428.7 637.9,428.7 631.2,428.7 624.4,428.7 617.6,428.7 610.9,428.7 604.1,428.7 597.4,428.7 590.6,428.7 583.8,428.7 577.1,428.7 570.3,428.7 563.5,428.9 556.8,428.9 550.0,428.9 543.2,428.9 536.5,428.9 529.7,428.9 522.9,428.9 516.2,428.9 509.4,428.4 502.6,427.1 495.9,427.1 489.1,427.1 482.4,427.1 475.6,427.0 468.8,427.0 462.1,427.0 455.3,427.0 448.5,427.0 441.8,427.0 435.0,427.0 428.2,427.0 421.5,427.0 414.7,427.0 407.9,427.0 401.2,427.0 394.4,427.0 387.6,427.0 380.9,427.1 374.1,427.1 367.4,427.1 360.6,427.3 353.8,427.3 347.1,428.5 340.3,428.5 333.5,428.5 326.8,428.6 320.0,428.7 313.2,437.1 306.5,437.1 299.7,437.1 292.9,437.1 286.2,437.1 279.4,437.1 272.6,437.3 265.9,437.3 259.1,437.4 252.4,437.4 245.6,437.4 238.8,439.3 232.1,439.3 225.3,432.6 218.5,432.6 211.8,432.6 205.0,432.6 198.2,432.6 191.5,432.2 184.7,432.3 177.9,439.4 171.2,439.5 164.4,439.5 157.6,441.6 150.9,442.0 144.1,442.3 137.4,650.0 130.6,650.0 123.8,650.0 117.1,650.0 110.3,650.0 103.5,650.0 96.8,650.0 90.0,650.0" fill="#083fa1" opacity="0.6" class="anim" style="animation-delay:900ms;"/>
<polygon points="90.0,650.0 96.8,650.0 103.5,650.0 110.3,650.0 117.1,650.0 123.8,650.0 130.6,650.0 137.4,650.0 144.1,428.3 150.9,428.1 157.6,427.8 164.4,425.3 171.2,425.3 177.9,425.2 184.7,421.1 191.5,421.1 198.2,421.0 205.0,421.0 211.8,421.0 218.5,421.0 225.3,421.0 232.1,424.3 238.8,424.2 245.6,423.3 252.4,423.3 259.1,423.3 265.9,423.2 272.6,423.2 279.4,423.0 286.2,423.0 292.9,422.9 299.7,422.9 306.5,422.9 313.2,422.9 320.0,418.9 326.8,418.9 333.5,418.8 340.3,418.8 347.1,418.8 353.8,418.3 360.6,418.3 367.4,418.2 374.1,418.2 380.9,418.2 387.6,418.1 394.4,418.1 401.2,418.1 407.9,418.1 414.7,418.1 421.5,418.1 428.2,418.1 435.0,418.1 441.8,418.1 448.5,418.1 455.3,418.1 462.1,418.1 468.8,418.1 475.6,418.1 482.4,418.1 489.1,418.1 495.9,418.1 502.6,418.1 509.4,418.0 516.2,418.0 522.9,418.0 529.7,418.0 536.5,418.0 543.2,418.0 550.0,418.0 556.8,418.0 563.5,418.0 570.3,417.9 577.1,417.9 583.8,417.9 590.6,417.9 597.4,417.9 604.1,417.9 610.9,417.9 617.6,417.9 624.4,417.9 631.2,417.9 637.9,417.9 644.7,417.9 651.5,417.9 658.2,417.9 665.0,417.9 671.8,417.9 678.5,417.9 685.3,417.9 692.1,417.9 698.8,417.9 705.6,417.9 712.4,417.9 719.1,417.9 725.9,417.9 732.6,417.9 739.4,417.9 746.2,417.9 752.9,417.9 759.7,417.9 766.5,417.9 773.2,417.3 780.0,416.7 780.0,422.2 773.2,422.9 766.5,423.5 759.7,423.5 752.9,423.5 746.2,423.5 739.4,423.5 732.6,423.5 725.9,423.5 719.1,423.5 712.4,423.5 705.6,423.5 698.8,423.5 692.1,423.5 685.3,423.5 678.5,423.5 671.8,423.5 665.0,423.5 658.2,423.5 651.5,423.5 644.7,423.5 637.9,423.5 631.2,423.5 624.4,423.5 617.6,423.5 610.9,423.5 604.1,423.5 597.4,423.5 590.6,423.5 583.8,423.5 577.1,423.5 570.3,423.5 563.5,423.6 556.8,423.6 550.0,423.6 543.2,423.6 536.5,423.6 529.7,423.6 522.9,423.6 516.2,423.6 509.4,423.2 502.6,421.8 495.9,421.8 489.1,421.8 482.4,421.8 475.6,421.7 468.8,421.8 462.1,421.8 455.3,421.8 448.5,421.8 441.8,421.8 435.0,421.8 428.2,421.8 421.5,421.8 414.7,421.8 407.9,421.8 401.2,421.8 394.4,421.8 387.6,421.8 380.9,421.9 374.1,421.9 367.4,421.9 360.6,422.0 353.8,422.0 347.1,422.9 340.3,422.9 333.5,422.9 326.8,422.9 320.0,423.0 313.2,428.8 306.5,428.8 299.7,428.8 292.9,428.8 286.2,428.9 279.4,428.9 272.6,429.2 265.9,429.2 259.1,429.3 252.4,429.3 245.6,429.3 238.8,430.7 232.1,430.8 225.3,426.0 218.5,426.0 211.8,426.0 205.0,426.0 198.2,426.0 191.5,426.1 184.7,426.2 177.9,432.2 171.2,432.2 164.4,432.2 157.6,435.9 150.9,436.3 144.1,436.6 137.4,650.0 130.6,650.0 123.8,650.0 117.1,650.0 110.3,650.0 103.5,650.0 96.8,650.0 90.0,650.0" fill="#F05138" opacity="0.6" class="anim" style="animation-delay:1000ms;"/>
<polygon points="90.0,650.0 96.8,650.0 103.5,650.0 110.3,650.0 117.1,650.0 123.8,650.0 130.6,650.0 137.4,650.0 144.1,418.7 150.9,418.6 157.6,418.5 164.4,417.3 171.2,417.3 177.9,417.2 184.7,415.3 191.5,415.3 198.2,415.2 205.0,415.2 211.8,415.2 218.5,415.2 225.3,415.2 232.1,416.8 238.8,416.8 245.6,416.3 252.4,416.3 259.1,416.3 265.9,416.3 272.6,416.3 279.4,416.2 286.2,416.2 292.9,416.2 299.7,416.2 306.5,416.2 313.2,416.2 320.0,414.2 326.8,414.2 333.5,414.2 340.3,414.2 347.1,414.2 353.8,413.9 360.6,413.9 367.4,413.9 374.1,413.9 380.9,413.9 387.6,413.9 394.4,413.9 401.2,413.9 407.9,413.9 414.7,413.9 421.5,413.9 428.2,413.9 435.0,413.9 441.8,413.9 448.5,413.9 455.3,413.9 462.1,413.9 468.8,413.9 475.6,413.8 482.4,413.8 489.1,413.8 495.9,413.8 502.6,413.8 509.4,413.8 516.2,413.8 522.9,413.8 529.7,413.8 536.5,413.8 543.2,413.8 550.0,413.8 556.8,413.8 563.5,413.8 570.3,413.8 577.1,413.8 583.8,413.8 590.6,413.8 597.4,413.8 604.1,413.8 610.9,413.8 617.6,413.8 624.4,413.8 631.2,413.8 637.9,413.8 644.7,413.8 651.5,413.8 658.2,413.8 665.0,413.8 671.8,413.8 678.5,413.8 685.3,413.8 692.1,413.8 698.8,413.8 705.6,413.8 712.4,413.8 719.1,413.8 725.9,413.8 732.6,413.8 739.4,413.8 746.2,413.8 752.9,413.8 759.7,413.8 766.5,413.8 773.2,413.6 780.0,413.4 780.0,416.7 773.2,417.3 766.5,417.9 759.7,417.9 752.9,417.9 746.2,417.9 739.4,417.9 732.6,417.9 725.9,417.9 719.1,417.9 712.4,417.9 705.6,417.9 698.8,417.9 692.1,417.9 685.3,417.9 678.5,417.9 671.8,417.9 665.0,417.9 658.2,417.9 651.5,417.9 644.7,417.9 637.9,417.9 631.2,417.9 624.4,417.9 617.6,417.9 610.9,417.9 604.1,417.9 597.4,417.9 590.6,417.9 583.8,417.9 577.1,417.9 570.3,417.9 563.5,418.0 556.8,418.0 550.0,418.0 543.2,418.0 536.5,418.0 529.7,418.0 522.9,418.0 516.2,418.0 509.4,418.0 502.6,418.1 495.9,418.1 489.1,418.1 482.4,418.1 475.6,418.1 468.8,418.1 462.1,418.1 455.3,418.1 448.5,418.1 441.8,418.1 435.0,418.1 428.2,418.1 421.5,418.1 414.7,418.1 407.9,418.1 401.2,418.1 394.4,418.1 387.6,418.1 380.9,418.2 374.1,418.2 367.4,418.2 360.6,418.3 353.8,418.3 347.1,418.8 340.3,418.8 333.5,418.8 326.8,418.9 320.0,418.9 313.2,422.9 306.5,422.9 299.7,422.9 292.9,422.9 286.2,423.0 279.4,423.0 272.6,423.2 265.9,423.2 259.1,423.3 252.4,423.3 245.6,423.3 238.8,424.2 232.1,424.3 225.3,421.0 218.5,421.0 211.8,421.0 205.0,421.0 198.2,421.0 191.5,421.1 184.7,421.1 177.9,425.2 171.2,425.3 164.4,425.3 157.6,427.8 150.9,428.1 144.1,428.3 137.4,650.0 130.6,650.0 123.8,650.0 117.1,650.0 110.3,650.0 103.5,650.0 96.8,650.0 90.0,650.0" fill="#6E4C13" opacity="0.6" class="anim" style="animation-delay:1100ms;"/>
<polygon points="90.0,650.0 96.8,650.0 103.5,650.0 110.3,650.0 117.1,650.0 123.8,650.0 130.6,650.0 137.4,650.0 144.1,414.4 150.9,414.4 157.6,414.3 164.4,413.7 171.2,413.7 177.9,413.7 184.7,412.7 191.5,412.7 198.2,412.7 205.0,412.7 211.8,412.7 218.5,412.7 225.3,412.7 232.1,413.5 238.8,413.4 245.6,413.2 252.4,413.2 259.1,413.2 265.9,413.2 272.6,413.2 279.4,413.1 286.2,413.1 292.9,413.1 299.7,413.1 306.5,413.1 313.2,413.1 320.0,412.2 326.8,412.1 333.5,412.1 340.3,412.1 347.1,412.1 353.8,412.0 360.6,412.0 367.4,412.0 374.1,412.0 380.9,412.0 387.6,412.0 394.4,412.0 401.2,412.0 407.9,412.0 414.7,412.0 421.5,412.0 428.2,412.0 435.0,412.0 441.8,412.0 448.5,412.0 455.3,412.0 462.1,412.0 468.8,412.0 475.6,411.9 482.4,411.9 489.1,411.9 495.9,411.9 502.6,411.9 509.4,411.9 516.2,411.9 522.9,411.9 529.7,411.9 536.5,411.9 543.2,411.9 550.0,411.9 556.8,411.9 563.5,411.9 570.3,411.9 577.1,411.9 583.8,411.9 590.6,411.9 597.4,411.9 604.1,411.9 610.9,411.9 617.6,411.9 624.4,411.9 631.2,411.9 637.9,411.9 644.7,411.9 651.5,411.9 658.2,411.9 665.0,411.9 671.8,411.9 678.5,411.9 685.3,411.9 692.1,411.9 698.8,411.9 705.6,411.9 712.4,411.9 719.1,411.9 725.9,411.9 732.6,411.9 739.4,411.9 746.2,411.9 752.9,411.9 759.7,411.9 766.5,411.9 773.2,411.9 780.0,411.9 780.0,413.4 773.2,413.6 766.5,413.8 759.7,413.8 752.9,413.8 746.2,413.8 739.4,413.8 732.6,413.8 725.9,413.8 719.1,413.8 712.4,413.8 705.6,413.8 698.8,413.8 692.1,413.8 685.3,413.8 678.5,413.8 671.8,413.8 665.0,413.8 658.2,413.8 651.5,413.8 644.7,413.8 637.9,413.8 631.2,413.8 624.4,413.8 617.6,413.8 610.9,413.8 604.1,413.8 597.4,413.8 590.6,413.8 583.8,413.8 577.1,413.8 570.3,413.8 563.5,413.8 556.8,413.8 550.0,413.8 543.2,413.8 536.5,413.8 529.7,413.8 522.9,413.8 516.2,413.8 509.4,413.8 502.6,413.8 495.9,413.8 489.1,413.8 482.4,413.8 475.6,413.8 468.8,413.9 462.1,413.9 455.3,413.9 448.5,413.9 441.8,413.9 435.0,413.9 428.2,413.9 421.5,413.9 414.7,413.9 407.9,413.9 401.2,413.9 394.4,413.9 387.6,413.9 380.9,413.9 374.1,413.9 367.4,413.9 360.6,413.9 353.8,413.9 347.1,414.2 340.3,414.2 333.5,414.2 326.8,414.2 320.0,414.2 313.2,416.2 306.5,416.2 299.7,416.2 292.9,416.2 286.2,416.2 279.4,416.2 272.6,416.3 265.9,416.3 259.1,416.3 252.4,416.3 245.6,416.3 238.8,416.8 232.1,416.8 225.3,415.2 218.5,415.2 211.8,415.2 205.0,415.2 198.2,415.2 191.5,415.3 184.7,415.3 177.9,417.2 171.2,417.3 164.4,417.3 157.6,418.5 150.9,418.6 144.1,418.7 137.4,650.0 130.6,650.0 123.8,650.0 117.1,650.0 110.3,650.0 103.5,650.0 96.8,650.0 90.0,650.0" fill="#b07219" opacity="0.6" class="anim" style="animation-delay:1200ms;"/>
<line x1="766.5" y1="100" x2="766.5" y2="650" stroke="#c9d1d9" stroke-width="1" stroke-dasharray="4,3" opacity="0.35"/>
<text x="773.2" y="112" text-anchor="middle" class="axis-label" opacity="0.6">Aug 03, 2026</text>
<text x="90.0" y="668" text-anchor="middle" class="axis-label" transform="rotate(-35 90.0 668)">2026-02</text>
<text x="313.2" y="668" text-anchor="middle" class="axis-label" transform="rotate(-35 313.2 668)">2026-03</text>
<text x="462.1" y="668" text-anchor="middle" class="axis-label" transform="rotate(-35 462.1 668)">2026-04</text>
<text x="536.5" y="668" text-anchor="middle" class="axis-label" transform="rotate(-35 536.5 668)">2026-06</text>
<text x="685.3" y="668" text-anchor="middle" class="axis-label" transform="rotate(-35 685.3 668)">2026-07</text>
<text x="773.2" y="668" text-anchor="middle" class="axis-label" transform="rotate(-35 773.2 668)">Aug 03, 2026</text>
<line x1="796" y1="110" x2="824" y2="110" stroke="#3fb950" stroke-width="2"/>
<text x="832" y="116" class="legend-text">Lines Added</text>
<line x1="796" y1="140" x2="824" y2="140" stroke="#f85149" stroke-width="1.5"/>
<text x="832" y="146" class="legend-text">Lines Deleted</text>
<line x1="796" y1="170" x2="824" y2="170" stroke="#e3b341" stroke-width="1.5" stroke-dasharray="4,3"/>
<text x="832" y="176" class="legend-text">&#x2605; Stars</text>
<text x="796" y="200" class="subtitle">Languages</text>
<rect x="796" y="212" width="12" height="12" rx="2" fill="#e34c26" opacity="0.8" class="anim" style="animation-delay:800ms;"/>
<text x="814" y="223" class="legend-text">HTML (58%→56%)</text>
<rect x="796" y="234" width="12" height="12" rx="2" fill="#f1e05a" opacity="0.8" class="anim" style="animation-delay:880ms;"/>
<text x="814" y="245" class="legend-text">JavaScript (22%→25%)</text>
<rect x="796" y="256" width="12" height="12" rx="2" fill="#3572A5" opacity="0.8" class="anim" style="animation-delay:960ms;"/>
<text x="814" y="267" class="legend-text">Python (7%→6%)</text>
<rect x="796" y="278" width="12" height="12" rx="2" fill="#663399" opacity="0.8" class="anim" style="animation-delay:1040ms;"/>
<text x="814" y="289" class="legend-text">CSS (6%→6%)</text>
<rect x="796" y="300" width="12" height="12" rx="2" fill="#083fa1" opacity="0.8" class="anim" style="animation-delay:1120ms;"/>
<text x="814" y="311" class="legend-text">Markdown (2%→2%)</text>
<rect x="796" y="322" width="12" height="12" rx="2" fill="#F05138" opacity="0.8" class="anim" style="animation-delay:1200ms;"/>
<text x="814" y="333" class="legend-text">Swift (2%)</text>
<rect x="796" y="344" width="12" height="12" rx="2" fill="#6E4C13" opacity="0.8" class="anim" style="animation-delay:1280ms;"/>
<text x="814" y="355" class="legend-text">Assembly (2%→1%)</text>
<rect x="796" y="366" width="12" height="12" rx="2" fill="#b07219" opacity="0.8" class="anim" style="animation-delay:1360ms;"/>
<text x="814" y="377" class="legend-text">Java (1%→1%)</text>
<text x="796" y="412" class="subtitle">Contributions</text>
<text x="796" y="432" class="axis-label">2023: 39</text>
<text x="796" y="452" class="axis-label">2024: 646</text>
<text x="796" y="472" class="axis-label">2025: 1,780</text>
<text x="796" y="492" class="axis-label">2026: 491</text>
<text x="796" y="522" class="subtitle">Statistics</text>
<text x="796" y="542" class="axis-label">Active weeks: 88</text>
<text x="796" y="562" class="axis-label">Add/Del ratio: 1.8x</text>
<text x="796" y="582" class="axis-label">Avg lines/wk: 18K</text>
<text x="796" y="602" class="axis-label">Peak: 2026-02-15</text>
<text x="796" y="622" class="axis-label">  (543K lines)</text>
<text x="90" y="742" class="axis-label">Total: +1,040,332 / -576,819 lines &#xb7; 2,956 contributions &#xb7; 80 repos &#xb7; &#x2605; 37</text>
</svg>