<svg xmlns="http://www.w3.org/2000/svg" width="1000" height="760" style="max-width: 100%;" viewBox="0 0 1000 760">

<defs>
  <linearGradient id="areaGrad" x1="0" y1="0" x2="0" y2="1">
    <stop offset="0%" stop-color="#58a6ff" stop-opacity="0.35"/>
    <stop offset="100%" stop-color="#58a6ff" stop-opacity="0.02"/>
  </linearGradient>
  <linearGradient id="addGrad" x1="0" y1="0" x2="0" y2="1">
    <stop offset="0%" stop-color="#3fb950" stop-opacity="0.35"/>
    <stop offset="100%" stop-color="#3fb950" stop-opacity="0.02"/>
  </linearGradient>
  <linearGradient id="delGrad" x1="0" y1="0" x2="0" y2="1">
    <stop offset="0%" stop-color="#f85149" stop-opacity="0.25"/>
    <stop offset="100%" stop-color="#f85149" stop-opacity="0.02"/>
  </linearGradient>
</defs>
<style>
  .title { font: bold 28px 'Segoe UI', Ubuntu, Sans-Serif; fill: #c9d1d9; }
  .subtitle { font: 600 20px 'Segoe UI', Ubuntu, Sans-Serif; fill: #c9d1d9; opacity: 0.8; }
  .axis-label { font: 18px 'Segoe UI', Ubuntu, Sans-Serif; fill: #c9d1d9; opacity: 0.7; }
  .legend-text { font: 14px 'Segoe UI', Ubuntu, Sans-Serif; fill: #c9d1d9; }
  .value-text { font: bold 18px 'Segoe UI', Ubuntu, Sans-Serif; fill: #c9d1d9; }
  .stat-value { font: bold 22px 'Segoe UI', Ubuntu, Sans-Serif; fill: #c9d1d9; }
  .stat-label { font: 18px 'Segoe UI', Ubuntu, Sans-Serif; fill: #c9d1d9; opacity: 0.7; }
  @keyframes fadeIn { from { opacity: 0; } to { opacity: 1; } }
  .anim { animation: fadeIn 0.6s ease-in-out forwards; opacity: 0; }
</style>

<rect x="0.5" y="0.5" rx="4.5" width="999" height="759" fill="#161b22" stroke="#21262d"/>
<text x="90" y="45" class="title">Activity History</text>
<text x="90" y="72" class="subtitle">Lines added vs deleted &amp; activity trends over time</text>
<line x1="90" y1="340.0" x2="780" y2="340.0" stroke="#21262d" stroke-width="1"/>
<text x="82" y="344.0" text-anchor="end" class="axis-label">0</text>
<line x1="90" y1="280.0" x2="780" y2="280.0" stroke="#21262d" stroke-width="1"/>
<text x="82" y="284.0" text-anchor="end" class="axis-label">452K</text>
<line x1="90" y1="220.0" x2="780" y2="220.0" stroke="#21262d" stroke-width="1"/>
<text x="82" y="224.0" text-anchor="end" class="axis-label">903K</text>
<line x1="90" y1="160.0" x2="780" y2="160.0" stroke="#21262d" stroke-width="1"/>
<text x="82" y="164.0" text-anchor="end" class="axis-label">1.4M</text>
<line x1="90" y1="100.0" x2="780" y2="100.0" stroke="#21262d" stroke-width="1"/>
<text x="82" y="104.0" text-anchor="end" class="axis-label">1.8M</text>
<polygon points="90.0,340.0 90.0,291.5 97.3,293.3 104.5,291.5 111.8,293.3 119.1,304.4 126.3,282.2 133.6,282.2 140.8,273.8 148.1,273.5 155.4,273.0 162.6,272.9 169.9,258.0 177.2,258.0 184.4,258.0 191.7,235.8 198.9,235.6 206.2,235.3 213.5,235.3 220.7,235.3 228.0,235.3 235.3,235.3 242.5,234.7 249.8,220.0 257.1,219.9 264.3,219.9 271.6,219.9 278.8,219.6 286.1,219.6 293.4,218.9 300.6,218.9 307.9,218.9 315.2,218.9 322.4,218.9 329.7,218.9 336.9,218.9 344.2,218.9 351.5,218.9 358.7,218.9 366.0,218.9 373.3,218.9 380.5,218.9 387.8,218.2 395.1,218.5 402.3,217.8 409.6,217.5 416.8,217.5 424.1,217.5 431.4,217.5 438.6,217.5 445.9,217.5 453.2,217.4 460.4,217.4 467.7,217.4 474.9,217.5 482.2,217.8 489.5,219.2 496.7,217.8 504.0,216.5 511.3,216.4 518.5,216.4 525.8,216.4 533.1,216.4 540.3,208.8 547.6,201.9 554.8,201.9 562.1,201.9 569.4,201.9 576.6,201.9 583.9,201.9 591.2,201.9 598.4,201.9 605.7,201.8 612.9,201.8 620.2,201.8 627.5,201.8 634.7,201.8 642.0,201.8 649.3,201.8 656.5,201.8 663.8,201.8 671.1,201.8 678.3,201.8 685.6,201.8 692.8,201.8 700.1,201.8 707.4,201.8 714.6,201.8 721.9,201.8 729.2,201.8 736.4,201.8 743.7,201.8 750.9,201.8 758.2,201.8 765.5,201.8 772.7,194.4 780.0,187.0 780.0,340.0" fill="url(#addGrad)" class="anim" style="animation-delay:200ms;"/>
<polyline points="90.0,291.5 97.3,293.3 104.5,291.5 111.8,293.3 119.1,304.4 126.3,282.2 133.6,282.2 140.8,273.8 148.1,273.5 155.4,273.0 162.6,272.9 169.9,258.0 177.2,258.0 184.4,258.0 191.7,235.8 198.9,235.6 206.2,235.3 213.5,235.3 220.7,235.3 228.0,235.3 235.3,235.3 242.5,234.7 249.8,220.0 257.1,219.9 264.3,219.9 271.6,219.9 278.8,219.6 286.1,219.6 293.4,218.9 300.6,218.9 307.9,218.9 315.2,218.9 322.4,218.9 329.7,218.9 336.9,218.9 344.2,218.9 351.5,218.9 358.7,218.9 366.0,218.9 373.3,218.9 380.5,218.9 387.8,218.2 395.1,218.5 402.3,217.8 409.6,217.5 416.8,217.5 424.1,217.5 431.4,217.5 438.6,217.5 445.9,217.5 453.2,217.4 460.4,217.4 467.7,217.4 474.9,217.5 482.2,217.8 489.5,219.2 496.7,217.8 504.0,216.5 511.3,216.4 518.5,216.4 525.8,216.4 533.1,216.4 540.3,208.8 547.6,201.9 554.8,201.9 562.1,201.9 569.4,201.9 576.6,201.9 583.9,201.9 591.2,201.9 598.4,201.9 605.7,201.8 612.9,201.8 620.2,201.8 627.5,201.8 634.7,201.8 642.0,201.8 649.3,201.8 656.5,201.8 663.8,201.8 671.1,201.8 678.3,201.8 685.6,201.8 692.8,201.8 700.1,201.8 707.4,201.8 714.6,201.8 721.9,201.8 729.2,201.8 736.4,201.8 743.7,201.8 750.9,201.8 758.2,201.8 765.5,201.8" fill="none" stroke="#3fb950" stroke-width="2" stroke-linejoin="round" class="anim" style="animation-delay:250ms;"/>
<polyline points="765.5,201.8 772.7,194.4 780.0,187.0" fill="none" stroke="#3fb950" stroke-width="1.5" stroke-dasharray="5,4" stroke-linejoin="round" opacity="0.6" class="anim" style="animation-delay:250ms;"/>
<polygon points="90.0,340.0 90.0,326.4 97.3,327.8 104.5,326.4 111.8,327.8 119.1,333.6 126.3,324.7 133.6,324.7 140.8,323.7 148.1,323.4 155.4,323.1 162.6,323.1 169.9,307.0 177.2,307.0 184.4,307.0 191.7,288.8 198.9,288.6 206.2,288.6 213.5,288.6 220.7,288.6 228.0,288.6 235.3,288.6 242.5,279.1 249.8,264.6 257.1,264.5 264.3,264.5 271.6,264.5 278.8,264.5 286.1,264.5 293.4,264.4 300.6,264.4 307.9,264.3 315.2,264.3 322.4,264.3 329.7,264.3 336.9,264.4 344.2,264.3 351.5,264.3 358.7,264.3 366.0,264.3 373.3,264.3 380.5,264.3 387.8,264.3 395.1,264.4 402.3,263.9 409.6,263.9 416.8,263.9 424.1,263.9 431.4,263.9 438.6,263.9 445.9,263.9 453.2,263.9 460.4,263.9 467.7,263.9 474.9,263.9 482.2,264.0 489.5,264.8 496.7,264.3 504.0,263.5 511.3,263.4 518.5,263.4 525.8,263.4 533.1,263.4 540.3,263.4 547.6,263.4 554.8,263.4 562.1,263.4 569.4,263.4 576.6,263.4 583.9,263.4 591.2,263.4 598.4,263.4 605.7,263.4 612.9,263.4 620.2,263.4 627.5,263.4 634.7,263.4 642.0,263.4 649.3,263.4 656.5,263.4 663.8,263.4 671.1,263.4 678.3,263.4 685.6,263.4 692.8,263.4 700.1,263.4 707.4,263.4 714.6,263.4 721.9,263.4 729.2,263.4 736.4,263.4 743.7,263.4 750.9,263.4 758.2,263.4 765.5,263.4 772.7,258.2 780.0,253.0 780.0,340.0" fill="url(#delGrad)" class="anim" style="animation-delay:300ms;"/>
<polyline points="90.0,326.4 97.3,327.8 104.5,326.4 111.8,327.8 119.1,333.6 126.3,324.7 133.6,324.7 140.8,323.7 148.1,323.4 155.4,323.1 162.6,323.1 169.9,307.0 177.2,307.0 184.4,307.0 191.7,288.8 198.9,288.6 206.2,288.6 213.5,288.6 220.7,288.6 228.0,288.6 235.3,288.6 242.5,279.1 249.8,264.6 257.1,264.5 264.3,264.5 271.6,264.5 278.8,264.5 286.1,264.5 293.4,264.4 300.6,264.4 307.9,264.3 315.2,264.3 322.4,264.3 329.7,264.3 336.9,264.4 344.2,264.3 351.5,264.3 358.7,264.3 366.0,264.3 373.3,264.3 380.5,264.3 387.8,264.3 395.1,264.4 402.3,263.9 409.6,263.9 416.8,263.9 424.1,263.9 431.4,263.9 438.6,263.9 445.9,263.9 453.2,263.9 460.4,263.9 467.7,263.9 474.9,263.9 482.2,264.0 489.5,264.8 496.7,264.3 504.0,263.5 511.3,263.4 518.5,263.4 525.8,263.4 533.1,263.4 540.3,263.4 547.6,263.4 554.8,263.4 562.1,263.4 569.4,263.4 576.6,263.4 583.9,263.4 591.2,263.4 598.4,263.4 605.7,263.4 612.9,263.4 620.2,263.4 627.5,263.4 634.7,263.4 642.0,263.4 649.3,263.4 656.5,263.4 663.8,263.4 671.1,263.4 678.3,263.4 685.6,263.4 692.8,263.4 700.1,263.4 707.4,263.4 714.6,263.4 721.9,263.4 729.2,263.4 736.4,263.4 743.7,263.4 750.9,263.4 758.2,263.4 765.5,263.4" fill="none" stroke="#f85149" stroke-width="1.5" stroke-linejoin="round" class="anim" style="animation-delay:350ms;"/>
<polyline points="765.5,263.4 772.7,258.2 780.0,253.0" fill="none" stroke="#f85149" stroke-width="1" stroke-dasharray="5,4" stroke-linejoin="round" opacity="0.6" class="anim" style="animation-delay:350ms;"/>
<polyline points="90.0,340.0 97.3,340.0 104.5,340.0 111.8,340.0 119.1,340.0 126.3,340.0 133.6,340.0 140.8,340.0 148.1,308.0 155.4,308.0 162.6,308.0 169.9,308.0 177.2,308.0 184.4,308.0 191.7,308.0 198.9,308.0 206.2,308.0 213.5,308.0 220.7,308.0 228.0,308.0 235.3,308.0 242.5,308.0 249.8,308.0 257.1,308.0 264.3,308.0 271.6,308.0 278.8,308.0 286.1,308.0 293.4,308.0 300.6,308.0 307.9,308.0 315.2,308.0 322.4,308.0 329.7,308.0 336.9,276.0 344.2,276.0 351.5,276.0 358.7,276.0 366.0,276.0 373.3,276.0 380.5,276.0 387.8,276.0 395.1,244.0 402.3,244.0 409.6,244.0 416.8,244.0 424.1,244.0 431.4,244.0 438.6,244.0 445.9,244.0 453.2,244.0 460.4,244.0 467.7,244.0 474.9,244.0 482.2,244.0 489.5,244.0 496.7,244.0 504.0,244.0 511.3,180.0 518.5,180.0 525.8,180.0 533.1,180.0 540.3,180.0 547.6,180.0 554.8,180.0 562.1,180.0 569.4,180.0 576.6,180.0 583.9,180.0 591.2,180.0 598.4,180.0 605.7,180.0 612.9,180.0 620.2,180.0 627.5,180.0 634.7,180.0 642.0,180.0 649.3,180.0 656.5,180.0 663.8,180.0 671.1,180.0 678.3,180.0 685.6,180.0 692.8,180.0 700.1,180.0 707.4,180.0 714.6,180.0 721.9,180.0 729.2,180.0 736.4,180.0 743.7,180.0 750.9,180.0 758.2,180.0 765.5,180.0" fill="none" stroke="#e3b341" stroke-width="1.5" stroke-dasharray="4,3" stroke-linejoin="round" class="anim" style="animation-delay:400ms;"/>
<polyline points="765.5,180.0 772.7,180.0 780.0,148.0" fill="none" stroke="#e3b341" stroke-width="1" stroke-dasharray="3,5" stroke-linejoin="round" opacity="0.5" class="anim" style="animation-delay:400ms;"/>
<text x="90" y="90" class="subtitle">Lines Added vs Deleted (per snapshot)</text>
<text x="90" y="400" class="subtitle">Programming Language Development (%)</text>
<line x1="90" y1="650.0" x2="780" y2="650.0" stroke="#21262d" stroke-width="1"/>
<text x="82" y="654.0" text-anchor="end" class="axis-label">0%</text>
<line x1="90" y1="590.0" x2="780" y2="590.0" stroke="#21262d" stroke-width="1"/>
<text x="82" y="594.0" text-anchor="end" class="axis-label">25%</text>
<line x1="90" y1="530.0" x2="780" y2="530.0" stroke="#21262d" stroke-width="1"/>
<text x="82" y="534.0" text-anchor="end" class="axis-label">50%</text>
<line x1="90" y1="470.0" x2="780" y2="470.0" stroke="#21262d" stroke-width="1"/>
<text x="82" y="474.0" text-anchor="end" class="axis-label">75%</text>
<line x1="90" y1="410.0" x2="780" y2="410.0" stroke="#21262d" stroke-width="1"/>
<text x="82" y="414.0" text-anchor="end" class="axis-label">100%</text>
<polygon points="90.0,650.0 97.3,650.0 104.5,650.0 111.8,650.0 119.1,650.0 126.3,650.0 133.6,650.0 140.8,650.0 148.1,528.2 155.4,528.5 162.6,529.7 169.9,499.3 177.2,499.3 184.4,502.9 191.7,485.0 198.9,485.1 206.2,485.4 213.5,485.4 220.7,485.4 228.0,485.4 235.3,485.4 242.5,496.4 249.8,496.7 257.1,491.0 264.3,491.0 271.6,491.0 278.8,491.7 286.1,491.8 293.4,494.0 300.6,494.0 307.9,494.4 315.2,494.4 322.4,494.4 329.7,494.4 336.9,507.6 344.2,507.6 351.5,507.9 358.7,507.9 366.0,507.9 373.3,506.3 380.5,506.4 387.8,506.8 395.1,506.9 402.3,506.8 409.6,507.5 416.8,507.5 424.1,507.5 431.4,507.5 438.6,507.5 445.9,507.5 453.2,507.5 460.4,507.5 467.7,507.5 474.9,507.5 482.2,507.5 489.5,507.5 496.7,507.5 504.0,508.6 511.3,508.6 518.5,508.6 525.8,508.6 533.1,508.6 540.3,509.5 547.6,509.8 554.8,509.8 562.1,509.8 569.4,509.8 576.6,509.8 583.9,509.8 591.2,509.8 598.4,509.8 605.7,510.9 612.9,510.9 620.2,510.9 627.5,510.9 634.7,510.9 642.0,510.9 649.3,510.9 656.5,510.9 663.8,510.9 671.1,510.9 678.3,510.9 685.6,510.9 692.8,510.9 700.1,510.9 707.4,510.9 714.6,510.9 721.9,510.9 729.2,510.9 736.4,510.9 743.7,510.9 750.9,510.9 758.2,510.9 765.5,510.9 772.7,512.9 780.0,514.8 780.0,650.0 772.7,650.0 765.5,650.0 758.2,650.0 750.9,650.0 743.7,650.0 736.4,650.0 729.2,650.0 721.9,650.0 714.6,650.0 707.4,650.0 700.1,650.0 692.8,650.0 685.6,650.0 678.3,650.0 671.1,650.0 663.8,650.0 656.5,650.0 649.3,650.0 642.0,650.0 634.7,650.0 627.5,650.0 620.2,650.0 612.9,650.0 605.7,650.0 598.4,650.0 591.2,650.0 583.9,650.0 576.6,650.0 569.4,650.0 562.1,650.0 554.8,650.0 547.6,650.0 540.3,650.0 533.1,650.0 525.8,650.0 518.5,650.0 511.3,650.0 504.0,650.0 496.7,650.0 489.5,650.0 482.2,650.0 474.9,650.0 467.7,650.0 460.4,650.0 453.2,650.0 445.9,650.0 438.6,650.0 431.4,650.0 424.1,650.0 416.8,650.0 409.6,650.0 402.3,650.0 395.1,650.0 387.8,650.0 380.5,650.0 373.3,650.0 366.0,650.0 358.7,650.0 351.5,650.0 344.2,650.0 336.9,650.0 329.7,650.0 322.4,650.0 315.2,650.0 307.9,650.0 300.6,650.0 293.4,650.0 286.1,650.0 278.8,650.0 271.6,650.0 264.3,650.0 257.1,650.0 249.8,650.0 242.5,650.0 235.3,650.0 228.0,650.0 220.7,650.0 213.5,650.0 206.2,650.0 198.9,650.0 191.7,650.0 184.4,650.0 177.2,650.0 169.9,650.0 162.6,650.0 155.4,650.0 148.1,650.0 140.8,650.0 133.6,650.0 126.3,650.0 119.1,650.0 111.8,650.0 104.5,650.0 97.3,650.0 90.0,650.0" fill="#e34c26" opacity="0.6" class="anim" style="animation-delay:500ms;"/>
<polygon points="90.0,650.0 97.3,650.0 104.5,650.0 111.8,650.0 119.1,650.0 126.3,650.0 133.6,650.0 140.8,650.0 148.1,488.4 155.4,488.0 162.6,489.0 169.9,476.0 177.2,476.0 184.4,477.2 191.7,460.1 198.9,460.2 206.2,460.6 213.5,460.6 220.7,460.6 228.0,460.6 235.3,460.6 242.5,473.0 249.8,473.5 257.1,469.5 264.3,469.5 271.6,469.5 278.8,469.7 286.1,469.7 293.4,469.7 300.6,469.7 307.9,469.7 315.2,469.7 322.4,469.7 329.7,469.7 336.9,455.6 344.2,455.6 351.5,455.4 358.7,455.4 366.0,455.4 373.3,454.3 380.5,454.3 387.8,455.0 395.1,455.1 402.3,454.9 409.6,455.9 416.8,455.9 424.1,455.9 431.4,455.9 438.6,455.9 445.9,455.9 453.2,455.9 460.4,455.9 467.7,455.9 474.9,455.9 482.2,455.9 489.5,455.9 496.7,455.9 504.0,455.8 511.3,455.8 518.5,455.8 525.8,455.8 533.1,455.8 540.3,457.0 547.6,457.4 554.8,457.4 562.1,457.4 569.4,457.4 576.6,457.4 583.9,457.4 591.2,457.4 598.4,457.4 605.7,458.2 612.9,458.2 620.2,458.2 627.5,458.2 634.7,458.2 642.0,458.2 649.3,458.2 656.5,458.2 663.8,458.2 671.1,458.2 678.3,458.2 685.6,458.2 692.8,458.2 700.1,458.2 707.4,458.2 714.6,458.2 721.9,458.2 729.2,458.2 736.4,458.2 743.7,458.2 750.9,458.2 758.2,458.2 765.5,458.2 772.7,456.6 780.0,455.0 780.0,514.8 772.7,512.9 765.5,510.9 758.2,510.9 750.9,510.9 743.7,510.9 736.4,510.9 729.2,510.9 721.9,510.9 714.6,510.9 707.4,510.9 700.1,510.9 692.8,510.9 685.6,510.9 678.3,510.9 671.1,510.9 663.8,510.9 656.5,510.9 649.3,510.9 642.0,510.9 634.7,510.9 627.5,510.9 620.2,510.9 612.9,510.9 605.7,510.9 598.4,509.8 591.2,509.8 583.9,509.8 576.6,509.8 569.4,509.8 562.1,509.8 554.8,509.8 547.6,509.8 540.3,509.5 533.1,508.6 525.8,508.6 518.5,508.6 511.3,508.6 504.0,508.6 496.7,507.5 489.5,507.5 482.2,507.5 474.9,507.5 467.7,507.5 460.4,507.5 453.2,507.5 445.9,507.5 438.6,507.5 431.4,507.5 424.1,507.5 416.8,507.5 409.6,507.5 402.3,506.8 395.1,506.9 387.8,506.8 380.5,506.4 373.3,506.3 366.0,507.9 358.7,507.9 351.5,507.9 344.2,507.6 336.9,507.6 329.7,494.4 322.4,494.4 315.2,494.4 307.9,494.4 300.6,494.0 293.4,494.0 286.1,491.8 278.8,491.7 271.6,491.0 264.3,491.0 257.1,491.0 249.8,496.7 242.5,496.4 235.3,485.4 228.0,485.4 220.7,485.4 213.5,485.4 206.2,485.4 198.9,485.1 191.7,485.0 184.4,502.9 177.2,499.3 169.9,499.3 162.6,529.7 155.4,528.5 148.1,528.2 140.8,650.0 133.6,650.0 126.3,650.0 119.1,650.0 111.8,650.0 104.5,650.0 97.3,650.0 90.0,650.0" fill="#f1e05a" opacity="0.6" class="anim" style="animation-delay:600ms;"/>
<polygon points="90.0,650.0 97.3,650.0 104.5,650.0 111.8,650.0 119.1,650.0 126.3,650.0 133.6,650.0 140.8,650.0 148.1,455.5 155.4,455.4 162.6,455.1 169.9,447.0 177.2,447.0 184.4,448.2 191.7,438.9 198.9,439.0 206.2,439.6 213.5,439.6 220.7,439.6 228.0,439.6 235.3,439.6 242.5,445.6 249.8,445.6 257.1,443.3 264.3,443.3 271.6,443.3 278.8,443.6 286.1,443.6 293.4,444.1 300.6,444.1 307.9,444.1 315.2,444.1 322.4,444.1 329.7,444.1 336.9,437.5 344.2,437.5 351.5,437.5 358.7,437.5 366.0,437.5 373.3,437.5 380.5,437.5 387.8,438.4 395.1,438.5 402.3,438.3 409.6,439.3 416.8,439.3 424.1,439.3 431.4,439.3 438.6,439.3 445.9,439.3 453.2,439.3 460.4,439.3 467.7,439.3 474.9,439.3 482.2,439.3 489.5,439.3 496.7,439.3 504.0,439.4 511.3,439.4 518.5,439.4 525.8,439.4 533.1,439.4 540.3,440.7 547.6,441.1 554.8,441.1 562.1,441.1 569.4,441.1 576.6,441.1 583.9,441.1 591.2,441.1 598.4,441.1 605.7,442.0 612.9,442.0 620.2,442.0 627.5,442.0 634.7,442.0 642.0,442.0 649.3,442.0 656.5,442.0 663.8,442.0 671.1,442.0 678.3,442.0 685.6,442.0 692.8,442.0 700.1,442.0 707.4,442.0 714.6,442.0 721.9,442.0 729.2,442.0 736.4,442.0 743.7,442.0 750.9,442.0 758.2,442.0 765.5,442.0 772.7,441.8 780.0,441.7 780.0,455.0 772.7,456.6 765.5,458.2 758.2,458.2 750.9,458.2 743.7,458.2 736.4,458.2 729.2,458.2 721.9,458.2 714.6,458.2 707.4,458.2 700.1,458.2 692.8,458.2 685.6,458.2 678.3,458.2 671.1,458.2 663.8,458.2 656.5,458.2 649.3,458.2 642.0,458.2 634.7,458.2 627.5,458.2 620.2,458.2 612.9,458.2 605.7,458.2 598.4,457.4 591.2,457.4 583.9,457.4 576.6,457.4 569.4,457.4 562.1,457.4 554.8,457.4 547.6,457.4 540.3,457.0 533.1,455.8 525.8,455.8 518.5,455.8 511.3,455.8 504.0,455.8 496.7,455.9 489.5,455.9 482.2,455.9 474.9,455.9 467.7,455.9 460.4,455.9 453.2,455.9 445.9,455.9 438.6,455.9 431.4,455.9 424.1,455.9 416.8,455.9 409.6,455.9 402.3,454.9 395.1,455.1 387.8,455.0 380.5,454.3 373.3,454.3 366.0,455.4 358.7,455.4 351.5,455.4 344.2,455.6 336.9,455.6 329.7,469.7 322.4,469.7 315.2,469.7 307.9,469.7 300.6,469.7 293.4,469.7 286.1,469.7 278.8,469.7 271.6,469.5 264.3,469.5 257.1,469.5 249.8,473.5 242.5,473.0 235.3,460.6 228.0,460.6 220.7,460.6 213.5,460.6 206.2,460.6 198.9,460.2 191.7,460.1 184.4,477.2 177.2,476.0 169.9,476.0 162.6,489.0 155.4,488.0 148.1,488.4 140.8,650.0 133.6,650.0 126.3,650.0 119.1,650.0 111.8,650.0 104.5,650.0 97.3,650.0 90.0,650.0" fill="#3572A5" opacity="0.6" class="anim" style="animation-delay:700ms;"/>
<polygon points="90.0,650.0 97.3,650.0 104.5,650.0 111.8,650.0 119.1,650.0 126.3,650.0 133.6,650.0 140.8,650.0 148.1,442.3 155.4,442.0 162.6,441.6 169.9,439.5 177.2,439.5 184.4,439.4 191.7,432.3 198.9,432.2 206.2,432.6 213.5,432.6 220.7,432.6 228.0,432.6 235.3,432.6 242.5,439.3 249.8,439.3 257.1,437.4 264.3,437.4 271.6,437.4 278.8,437.3 286.1,437.3 293.4,437.1 300.6,437.1 307.9,437.1 315.2,437.1 322.4,437.1 329.7,437.1 336.9,428.7 344.2,428.6 351.5,428.5 358.7,428.5 366.0,428.5 373.3,427.3 380.5,427.3 387.8,427.1 395.1,427.1 402.3,427.1 409.6,427.0 416.8,427.0 424.1,427.0 431.4,427.0 438.6,427.0 445.9,427.0 453.2,427.0 460.4,427.0 467.7,427.0 474.9,427.0 482.2,427.0 489.5,427.0 496.7,427.0 504.0,427.0 511.3,427.1 518.5,427.1 525.8,427.1 533.1,427.1 540.3,428.4 547.6,428.9 554.8,428.9 562.1,428.9 569.4,428.9 576.6,428.9 583.9,428.9 591.2,428.9 598.4,428.9 605.7,428.7 612.9,428.7 620.2,428.7 627.5,428.7 634.7,428.7 642.0,428.7 649.3,428.7 656.5,428.7 663.8,428.7 671.1,428.7 678.3,428.7 685.6,428.7 692.8,428.7 700.1,428.7 707.4,428.7 714.6,428.7 721.9,428.7 729.2,428.7 736.4,428.7 743.7,428.7 750.9,428.7 758.2,428.7 765.5,428.7 772.7,427.8 780.0,426.9 780.0,441.7 772.7,441.8 765.5,442.0 758.2,442.0 750.9,442.0 743.7,442.0 736.4,442.0 729.2,442.0 721.9,442.0 714.6,442.0 707.4,442.0 700.1,442.0 692.8,442.0 685.6,442.0 678.3,442.0 671.1,442.0 663.8,442.0 656.5,442.0 649.3,442.0 642.0,442.0 634.7,442.0 627.5,442.0 620.2,442.0 612.9,442.0 605.7,442.0 598.4,441.1 591.2,441.1 583.9,441.1 576.6,441.1 569.4,441.1 562.1,441.1 554.8,441.1 547.6,441.1 540.3,440.7 533.1,439.4 525.8,439.4 518.5,439.4 511.3,439.4 504.0,439.4 496.7,439.3 489.5,439.3 482.2,439.3 474.9,439.3 467.7,439.3 460.4,439.3 453.2,439.3 445.9,439.3 438.6,439.3 431.4,439.3 424.1,439.3 416.8,439.3 409.6,439.3 402.3,438.3 395.1,438.5 387.8,438.4 380.5,437.5 373.3,437.5 366.0,437.5 358.7,437.5 351.5,437.5 344.2,437.5 336.9,437.5 329.7,444.1 322.4,444.1 315.2,444.1 307.9,444.1 300.6,444.1 293.4,444.1 286.1,443.6 278.8,443.6 271.6,443.3 264.3,443.3 257.1,443.3 249.8,445.6 242.5,445.6 235.3,439.6 228.0,439.6 220.7,439.6 213.5,439.6 206.2,439.6 198.9,439.0 191.7,438.9 184.4,448.2 177.2,447.0 169.9,447.0 162.6,455.1 155.4,455.4 148.1,455.5 140.8,650.0 133.6,650.0 126.3,650.0 119.1,650.0 111.8,650.0 104.5,650.0 97.3,650.0 90.0,650.0" fill="#663399" opacity="0.6" class="anim" style="animation-delay:800ms;"/>
<polygon points="90.0,650.0 97.3,650.0 104.5,650.0 111.8,650.0 119.1,650.0 126.3,650.0 133.6,650.0 140.8,650.0 148.1,436.6 155.4,436.3 162.6,435.9 169.9,432.2 177.2,432.2 184.4,432.2 191.7,426.2 198.9,426.1 206.2,426.0 213.5,426.0 220.7,426.0 228.0,426.0 235.3,426.0 242.5,430.8 249.8,430.7 257.1,429.3 264.3,429.3 271.6,429.3 278.8,429.2 286.1,429.2 293.4,428.9 300.6,428.9 307.9,428.8 315.2,428.8 322.4,428.8 329.7,428.8 336.9,423.0 344.2,422.9 351.5,422.9 358.7,422.9 366.0,422.9 373.3,422.0 380.5,422.0 387.8,421.9 395.1,421.9 402.3,421.9 409.6,421.8 416.8,421.8 424.1,421.8 431.4,421.8 438.6,421.8 445.9,421.8 453.2,421.8 460.4,421.8 467.7,421.8 474.9,421.8 482.2,421.8 489.5,421.8 496.7,421.8 504.0,421.7 511.3,421.8 518.5,421.8 525.8,421.8 533.1,421.8 540.3,423.2 547.6,423.6 554.8,423.6 562.1,423.6 569.4,423.6 576.6,423.6 583.9,423.6 591.2,423.6 598.4,423.6 605.7,423.5 612.9,423.5 620.2,423.5 627.5,423.5 634.7,423.5 642.0,423.5 649.3,423.5 656.5,423.5 663.8,423.5 671.1,423.5 678.3,423.5 685.6,423.5 692.8,423.5 700.1,423.5 707.4,423.5 714.6,423.5 721.9,423.5 729.2,423.5 736.4,423.5 743.7,423.5 750.9,423.5 758.2,423.5 765.5,423.5 772.7,422.9 780.0,422.2 780.0,426.9 772.7,427.8 765.5,428.7 758.2,428.7 750.9,428.7 743.7,428.7 736.4,428.7 729.2,428.7 721.9,428.7 714.6,428.7 707.4,428.7 700.1,428.7 692.8,428.7 685.6,428.7 678.3,428.7 671.1,428.7 663.8,428.7 656.5,428.7 649.3,428.7 642.0,428.7 634.7,428.7 627.5,428.7 620.2,428.7 612.9,428.7 605.7,428.7 598.4,428.9 591.2,428.9 583.9,428.9 576.6,428.9 569.4,428.9 562.1,428.9 554.8,428.9 547.6,428.9 540.3,428.4 533.1,427.1 525.8,427.1 518.5,427.1 511.3,427.1 504.0,427.0 496.7,427.0 489.5,427.0 482.2,427.0 474.9,427.0 467.7,427.0 460.4,427.0 453.2,427.0 445.9,427.0 438.6,427.0 431.4,427.0 424.1,427.0 416.8,427.0 409.6,427.0 402.3,427.1 395.1,427.1 387.8,427.1 380.5,427.3 373.3,427.3 366.0,428.5 358.7,428.5 351.5,428.5 344.2,428.6 336.9,428.7 329.7,437.1 322.4,437.1 315.2,437.1 307.9,437.1 300.6,437.1 293.4,437.1 286.1,437.3 278.8,437.3 271.6,437.4 264.3,437.4 257.1,437.4 249.8,439.3 242.5,439.3 235.3,432.6 228.0,432.6 220.7,432.6 213.5,432.6 206.2,432.6 198.9,432.2 191.7,432.3 184.4,439.4 177.2,439.5 169.9,439.5 162.6,441.6 155.4,442.0 148.1,442.3 140.8,650.0 133.6,650.0 126.3,650.0 119.1,650.0 111.8,650.0 104.5,650.0 97.3,650.0 90.0,650.0" fill="#083fa1" opacity="0.6" class="anim" style="animation-delay:900ms;"/>
<polygon points="90.0,650.0 97.3,650.0 104.5,650.0 111.8,650.0 119.1,650.0 126.3,650.0 133.6,650.0 140.8,650.0 148.1,428.3 155.4,428.1 162.6,427.8 169.9,425.3 177.2,425.3 184.4,425.2 191.7,421.1 198.9,421.1 206.2,421.0 213.5,421.0 220.7,421.0 228.0,421.0 235.3,421.0 242.5,424.3 249.8,424.2 257.1,423.3 264.3,423.3 271.6,423.3 278.8,423.2 286.1,423.2 293.4,423.0 300.6,423.0 307.9,422.9 315.2,422.9 322.4,422.9 329.7,422.9 336.9,418.9 344.2,418.9 351.5,418.8 358.7,418.8 366.0,418.8 373.3,418.3 380.5,418.3 387.8,418.2 395.1,418.2 402.3,418.2 409.6,418.1 416.8,418.1 424.1,418.1 431.4,418.1 438.6,418.1 445.9,418.1 453.2,418.1 460.4,418.1 467.7,418.1 474.9,418.1 482.2,418.1 489.5,418.1 496.7,418.1 504.0,418.1 511.3,418.1 518.5,418.1 525.8,418.1 533.1,418.1 540.3,418.0 547.6,418.0 554.8,418.0 562.1,418.0 569.4,418.0 576.6,418.0 583.9,418.0 591.2,418.0 598.4,418.0 605.7,417.9 612.9,417.9 620.2,417.9 627.5,417.9 634.7,417.9 642.0,417.9 649.3,417.9 656.5,417.9 663.8,417.9 671.1,417.9 678.3,417.9 685.6,417.9 692.8,417.9 700.1,417.9 707.4,417.9 714.6,417.9 721.9,417.9 729.2,417.9 736.4,417.9 743.7,417.9 750.9,417.9 758.2,417.9 765.5,417.9 772.7,417.3 780.0,416.7 780.0,422.2 772.7,422.9 765.5,423.5 758.2,423.5 750.9,423.5 743.7,423.5 736.4,423.5 729.2,423.5 721.9,423.5 714.6,423.5 707.4,423.5 700.1,423.5 692.8,423.5 685.6,423.5 678.3,423.5 671.1,423.5 663.8,423.5 656.5,423.5 649.3,423.5 642.0,423.5 634.7,423.5 627.5,423.5 620.2,423.5 612.9,423.5 605.7,423.5 598.4,423.6 591.2,423.6 583.9,423.6 576.6,423.6 569.4,423.6 562.1,423.6 554.8,423.6 547.6,423.6 540.3,423.2 533.1,421.8 525.8,421.8 518.5,421.8 511.3,421.8 504.0,421.7 496.7,421.8 489.5,421.8 482.2,421.8 474.9,421.8 467.7,421.8 460.4,421.8 453.2,421.8 445.9,421.8 438.6,421.8 431.4,421.8 424.1,421.8 416.8,421.8 409.6,421.8 402.3,421.9 395.1,421.9 387.8,421.9 380.5,422.0 373.3,422.0 366.0,422.9 358.7,422.9 351.5,422.9 344.2,422.9 336.9,423.0 329.7,428.8 322.4,428.8 315.2,428.8 307.9,428.8 300.6,428.9 293.4,428.9 286.1,429.2 278.8,429.2 271.6,429.3 264.3,429.3 257.1,429.3 249.8,430.7 242.5,430.8 235.3,426.0 228.0,426.0 220.7,426.0 213.5,426.0 206.2,426.0 198.9,426.1 191.7,426.2 184.4,432.2 177.2,432.2 169.9,432.2 162.6,435.9 155.4,436.3 148.1,436.6 140.8,650.0 133.6,650.0 126.3,650.0 119.1,650.0 111.8,650.0 104.5,650.0 97.3,650.0 90.0,650.0" fill="#F05138" opacity="0.6" class="anim" style="animation-delay:1000ms;"/>
<polygon points="90.0,650.0 97.3,650.0 104.5,650.0 111.8,650.0 119.1,650.0 126.3,650.0 133.6,650.0 140.8,650.0 148.1,418.7 155.4,418.6 162.6,418.5 169.9,417.3 177.2,417.3 184.4,417.2 191.7,415.3 198.9,415.3 206.2,415.2 213.5,415.2 220.7,415.2 228.0,415.2 235.3,415.2 242.5,416.8 249.8,416.8 257.1,416.3 264.3,416.3 271.6,416.3 278.8,416.3 286.1,416.3 293.4,416.2 300.6,416.2 307.9,416.2 315.2,416.2 322.4,416.2 329.7,416.2 336.9,414.2 344.2,414.2 351.5,414.2 358.7,414.2 366.0,414.2 373.3,413.9 380.5,413.9 387.8,413.9 395.1,413.9 402.3,413.9 409.6,413.9 416.8,413.9 424.1,413.9 431.4,413.9 438.6,413.9 445.9,413.9 453.2,413.9 460.4,413.9 467.7,413.9 474.9,413.9 482.2,413.9 489.5,413.9 496.7,413.9 504.0,413.8 511.3,413.8 518.5,413.8 525.8,413.8 533.1,413.8 540.3,413.8 547.6,413.8 554.8,413.8 562.1,413.8 569.4,413.8 576.6,413.8 583.9,413.8 591.2,413.8 598.4,413.8 605.7,413.8 612.9,413.8 620.2,413.8 627.5,413.8 634.7,413.8 642.0,413.8 649.3,413.8 656.5,413.8 663.8,413.8 671.1,413.8 678.3,413.8 685.6,413.8 692.8,413.8 700.1,413.8 707.4,413.8 714.6,413.8 721.9,413.8 729.2,413.8 736.4,413.8 743.7,413.8 750.9,413.8 758.2,413.8 765.5,413.8 772.7,413.6 780.0,413.4 780.0,416.7 772.7,417.3 765.5,417.9 758.2,417.9 750.9,417.9 743.7,417.9 736.4,417.9 729.2,417.9 721.9,417.9 714.6,417.9 707.4,417.9 700.1,417.9 692.8,417.9 685.6,417.9 678.3,417.9 671.1,417.9 663.8,417.9 656.5,417.9 649.3,417.9 642.0,417.9 634.7,417.9 627.5,417.9 620.2,417.9 612.9,417.9 605.7,417.9 598.4,418.0 591.2,418.0 583.9,418.0 576.6,418.0 569.4,418.0 562.1,418.0 554.8,418.0 547.6,418.0 540.3,418.0 533.1,418.1 525.8,418.1 518.5,418.1 511.3,418.1 504.0,418.1 496.7,418.1 489.5,418.1 482.2,418.1 474.9,418.1 467.7,418.1 460.4,418.1 453.2,418.1 445.9,418.1 438.6,418.1 431.4,418.1 424.1,418.1 416.8,418.1 409.6,418.1 402.3,418.2 395.1,418.2 387.8,418.2 380.5,418.3 373.3,418.3 366.0,418.8 358.7,418.8 351.5,418.8 344.2,418.9 336.9,418.9 329.7,422.9 322.4,422.9 315.2,422.9 307.9,422.9 300.6,423.0 293.4,423.0 286.1,423.2 278.8,423.2 271.6,423.3 264.3,423.3 257.1,423.3 249.8,424.2 242.5,424.3 235.3,421.0 228.0,421.0 220.7,421.0 213.5,421.0 206.2,421.0 198.9,421.1 191.7,421.1 184.4,425.2 177.2,425.3 169.9,425.3 162.6,427.8 155.4,428.1 148.1,428.3 140.8,650.0 133.6,650.0 126.3,650.0 119.1,650.0 111.8,650.0 104.5,650.0 97.3,650.0 90.0,650.0" fill="#6E4C13" opacity="0.6" class="anim" style="animation-delay:1100ms;"/>
<polygon points="90.0,650.0 97.3,650.0 104.5,650.0 111.8,650.0 119.1,650.0 126.3,650.0 133.6,650.0 140.8,650.0 148.1,414.4 155.4,414.4 162.6,414.3 169.9,413.7 177.2,413.7 184.4,413.7 191.7,412.7 198.9,412.7 206.2,412.7 213.5,412.7 220.7,412.7 228.0,412.7 235.3,412.7 242.5,413.5 249.8,413.4 257.1,413.2 264.3,413.2 271.6,413.2 278.8,413.2 286.1,413.2 293.4,413.1 300.6,413.1 307.9,413.1 315.2,413.1 322.4,413.1 329.7,413.1 336.9,412.2 344.2,412.1 351.5,412.1 358.7,412.1 366.0,412.1 373.3,412.0 380.5,412.0 387.8,412.0 395.1,412.0 402.3,412.0 409.6,412.0 416.8,412.0 424.1,412.0 431.4,412.0 438.6,412.0 445.9,412.0 453.2,412.0 460.4,412.0 467.7,412.0 474.9,412.0 482.2,412.0 489.5,412.0 496.7,412.0 504.0,411.9 511.3,411.9 518.5,411.9 525.8,411.9 533.1,411.9 540.3,411.9 547.6,411.9 554.8,411.9 562.1,411.9 569.4,411.9 576.6,411.9 583.9,411.9 591.2,411.9 598.4,411.9 605.7,411.9 612.9,411.9 620.2,411.9 627.5,411.9 634.7,411.9 642.0,411.9 649.3,411.9 656.5,411.9 663.8,411.9 671.1,411.9 678.3,411.9 685.6,411.9 692.8,411.9 700.1,411.9 707.4,411.9 714.6,411.9 721.9,411.9 729.2,411.9 736.4,411.9 743.7,411.9 750.9,411.9 758.2,411.9 765.5,411.9 772.7,411.9 780.0,411.9 780.0,413.4 772.7,413.6 765.5,413.8 758.2,413.8 750.9,413.8 743.7,413.8 736.4,413.8 729.2,413.8 721.9,413.8 714.6,413.8 707.4,413.8 700.1,413.8 692.8,413.8 685.6,413.8 678.3,413.8 671.1,413.8 663.8,413.8 656.5,413.8 649.3,413.8 642.0,413.8 634.7,413.8 627.5,413.8 620.2,413.8 612.9,413.8 605.7,413.8 598.4,413.8 591.2,413.8 583.9,413.8 576.6,413.8 569.4,413.8 562.1,413.8 554.8,413.8 547.6,413.8 540.3,413.8 533.1,413.8 525.8,413.8 518.5,413.8 511.3,413.8 504.0,413.8 496.7,413.9 489.5,413.9 482.2,413.9 474.9,413.9 467.7,413.9 460.4,413.9 453.2,413.9 445.9,413.9 438.6,413.9 431.4,413.9 424.1,413.9 416.8,413.9 409.6,413.9 402.3,413.9 395.1,413.9 387.8,413.9 380.5,413.9 373.3,413.9 366.0,414.2 358.7,414.2 351.5,414.2 344.2,414.2 336.9,414.2 329.7,416.2 322.4,416.2 315.2,416.2 307.9,416.2 300.6,416.2 293.4,416.2 286.1,416.3 278.8,416.3 271.6,416.3 264.3,416.3 257.1,416.3 249.8,416.8 242.5,416.8 235.3,415.2 228.0,415.2 220.7,415.2 213.5,415.2 206.2,415.2 198.9,415.3 191.7,415.3 184.4,417.2 177.2,417.3 169.9,417.3 162.6,418.5 155.4,418.6 148.1,418.7 140.8,650.0 133.6,650.0 126.3,650.0 119.1,650.0 111.8,650.0 104.5,650.0 97.3,650.0 90.0,650.0" fill="#b07219" opacity="0.6" class="anim" style="animation-delay:1200ms;"/>
<line x1="765.5" y1="100" x2="765.5" y2="650" stroke="#c9d1d9" stroke-width="1" stroke-dasharray="4,3" opacity="0.35"/>
<text x="772.7" y="112" text-anchor="middle" class="axis-label" opacity="0.6">Jul 26, 2026</text>
<text x="90.0" y="668" text-anchor="middle" class="axis-label" transform="rotate(-35 90.0 668)">2026-02</text>
<text x="307.9" y="668" text-anchor="middle" class="axis-label" transform="rotate(-35 307.9 668)">2026-03</text>
<text x="525.8" y="668" text-anchor="middle" class="axis-label" transform="rotate(-35 525.8 668)">2026-06</text>
<text x="743.7" y="668" text-anchor="middle" class="axis-label" transform="rotate(-35 743.7 668)">2026-07</text>
<line x1="796" y1="110" x2="824" y2="110" stroke="#3fb950" stroke-width="2"/>
<text x="832" y="116" class="legend-text">Lines Added</text>
<line x1="796" y1="140" x2="824" y2="140" stroke="#f85149" stroke-width="1.5"/>
<text x="832" y="146" class="legend-text">Lines Deleted</text>
<line x1="796" y1="170" x2="824" y2="170" stroke="#e3b341" stroke-width="1.5" stroke-dasharray="4,3"/>
<text x="832" y="176" class="legend-text">&#x2605; Stars</text>
<text x="796" y="200" class="subtitle">Languages</text>
<rect x="796" y="212" width="12" height="12" rx="2" fill="#e34c26" opacity="0.8" class="anim" style="animation-delay:800ms;"/>
<text x="814" y="223" class="legend-text">HTML (58%→56%)</text>
<rect x="796" y="234" width="12" height="12" rx="2" fill="#f1e05a" opacity="0.8" class="anim" style="animation-delay:880ms;"/>
<text x="814" y="245" class="legend-text">JavaScript (22%→25%)</text>
<rect x="796" y="256" width="12" height="12" rx="2" fill="#3572A5" opacity="0.8" class="anim" style="animation-delay:960ms;"/>
<text x="814" y="267" class="legend-text">Python (7%→6%)</text>
<rect x="796" y="278" width="12" height="12" rx="2" fill="#663399" opacity="0.8" class="anim" style="animation-delay:1040ms;"/>
<text x="814" y="289" class="legend-text">CSS (6%→6%)</text>
<rect x="796" y="300" width="12" height="12" rx="2" fill="#083fa1" opacity="0.8" class="anim" style="animation-delay:1120ms;"/>
<text x="814" y="311" class="legend-text">Markdown (2%→2%)</text>
<rect x="796" y="322" width="12" height="12" rx="2" fill="#F05138" opacity="0.8" class="anim" style="animation-delay:1200ms;"/>
<text x="814" y="333" class="legend-text">Swift (2%→2%)</text>
<rect x="796" y="344" width="12" height="12" rx="2" fill="#6E4C13" opacity="0.8" class="anim" style="animation-delay:1280ms;"/>
<text x="814" y="355" class="legend-text">Assembly (2%→1%)</text>
<rect x="796" y="366" width="12" height="12" rx="2" fill="#b07219" opacity="0.8" class="anim" style="animation-delay:1360ms;"/>
<text x="814" y="377" class="legend-text">Java (1%→1%)</text>
<text x="796" y="412" class="subtitle">Contributions</text>
<text x="796" y="432" class="axis-label">2023: 39</text>
<text x="796" y="452" class="axis-label">2024: 646</text>
<text x="796" y="472" class="axis-label">2025: 1,780</text>
<text x="796" y="492" class="axis-label">2026: 491</text>
<text x="796" y="522" class="subtitle">Statistics</text>
<text x="796" y="542" class="axis-label">Active weeks: 88</text>
<text x="796" y="562" class="axis-label">Add/Del ratio: 1.8x</text>
<text x="796" y="582" class="axis-label">Avg lines/wk: 18K</text>
<text x="796" y="602" class="axis-label">Peak: 2026-02-15</text>
<text x="796" y="622" class="axis-label">  (543K lines)</text>
<text x="90" y="742" class="axis-label">Total: +1,040,332 / -576,819 lines &#xb7; 2,956 contributions &#xb7; 80 repos &#xb7; &#x2605; 37</text>
</svg>