<svg xmlns="http://www.w3.org/2000/svg" width="1000" height="760" style="max-width: 100%;" viewBox="0 0 1000 760">

<defs>
  <linearGradient id="areaGrad" x1="0" y1="0" x2="0" y2="1">
    <stop offset="0%" stop-color="#58a6ff" stop-opacity="0.35"/>
    <stop offset="100%" stop-color="#58a6ff" stop-opacity="0.02"/>
  </linearGradient>
  <linearGradient id="addGrad" x1="0" y1="0" x2="0" y2="1">
    <stop offset="0%" stop-color="#3fb950" stop-opacity="0.35"/>
    <stop offset="100%" stop-color="#3fb950" stop-opacity="0.02"/>
  </linearGradient>
  <linearGradient id="delGrad" x1="0" y1="0" x2="0" y2="1">
    <stop offset="0%" stop-color="#f85149" stop-opacity="0.25"/>
    <stop offset="100%" stop-color="#f85149" stop-opacity="0.02"/>
  </linearGradient>
</defs>
<style>
  .title { font: bold 28px 'Segoe UI', Ubuntu, Sans-Serif; fill: #c9d1d9; }
  .subtitle { font: 600 20px 'Segoe UI', Ubuntu, Sans-Serif; fill: #c9d1d9; opacity: 0.8; }
  .axis-label { font: 18px 'Segoe UI', Ubuntu, Sans-Serif; fill: #c9d1d9; opacity: 0.7; }
  .legend-text { font: 14px 'Segoe UI', Ubuntu, Sans-Serif; fill: #c9d1d9; }
  .value-text { font: bold 18px 'Segoe UI', Ubuntu, Sans-Serif; fill: #c9d1d9; }
  .stat-value { font: bold 22px 'Segoe UI', Ubuntu, Sans-Serif; fill: #c9d1d9; }
  .stat-label { font: 18px 'Segoe UI', Ubuntu, Sans-Serif; fill: #c9d1d9; opacity: 0.7; }
  @keyframes fadeIn { from { opacity: 0; } to { opacity: 1; } }
  .anim { animation: fadeIn 0.6s ease-in-out forwards; opacity: 0; }
</style>

<rect x="0.5" y="0.5" rx="4.5" width="999" height="759" fill="#161b22" stroke="#21262d"/>
<text x="90" y="45" class="title">Activity History</text>
<text x="90" y="72" class="subtitle">Lines added vs deleted &amp; activity trends over time</text>
<line x1="90" y1="340.0" x2="780" y2="340.0" stroke="#21262d" stroke-width="1"/>
<text x="82" y="344.0" text-anchor="end" class="axis-label">0</text>
<line x1="90" y1="280.0" x2="780" y2="280.0" stroke="#21262d" stroke-width="1"/>
<text x="82" y="284.0" text-anchor="end" class="axis-label">456K</text>
<line x1="90" y1="220.0" x2="780" y2="220.0" stroke="#21262d" stroke-width="1"/>
<text x="82" y="224.0" text-anchor="end" class="axis-label">912K</text>
<line x1="90" y1="160.0" x2="780" y2="160.0" stroke="#21262d" stroke-width="1"/>
<text x="82" y="164.0" text-anchor="end" class="axis-label">1.4M</text>
<line x1="90" y1="100.0" x2="780" y2="100.0" stroke="#21262d" stroke-width="1"/>
<text x="82" y="104.0" text-anchor="end" class="axis-label">1.8M</text>
<polygon points="90.0,340.0 90.0,292.0 98.7,293.7 107.5,292.0 116.2,293.7 124.9,304.8 133.7,282.8 142.4,282.7 151.1,274.5 159.9,274.1 168.6,273.6 177.3,273.6 186.1,258.8 194.8,258.8 203.5,258.7 212.3,236.8 221.0,236.5 229.7,236.3 238.5,236.3 247.2,236.3 255.9,236.3 264.7,236.3 273.4,235.7 282.2,221.1 290.9,221.0 299.6,221.0 308.4,221.0 317.1,220.7 325.8,220.7 334.6,220.0 343.3,220.0 352.0,220.0 360.8,220.0 369.5,220.0 378.2,220.0 387.0,220.0 395.7,220.0 404.4,220.0 413.2,220.0 421.9,220.0 430.6,220.0 439.4,220.0 448.1,219.3 456.8,219.6 465.6,218.9 474.3,218.6 483.0,218.6 491.8,218.6 500.5,218.6 509.2,218.6 518.0,218.6 526.7,218.5 535.4,218.5 544.2,218.5 552.9,218.6 561.6,218.9 570.4,220.3 579.1,218.9 587.8,217.6 596.6,217.6 605.3,217.6 614.1,217.6 622.8,217.6 631.5,210.0 640.3,203.2 649.0,203.2 657.7,203.2 666.5,203.2 675.2,203.2 683.9,203.2 692.7,203.2 701.4,203.2 710.1,203.1 718.9,203.1 727.6,203.1 736.3,203.1 745.1,203.1 753.8,203.1 762.5,203.1 771.3,195.5 780.0,187.8 780.0,340.0" fill="url(#addGrad)" class="anim" style="animation-delay:200ms;"/>
<polyline points="90.0,292.0 98.7,293.7 107.5,292.0 116.2,293.7 124.9,304.8 133.7,282.8 142.4,282.7 151.1,274.5 159.9,274.1 168.6,273.6 177.3,273.6 186.1,258.8 194.8,258.8 203.5,258.7 212.3,236.8 221.0,236.5 229.7,236.3 238.5,236.3 247.2,236.3 255.9,236.3 264.7,236.3 273.4,235.7 282.2,221.1 290.9,221.0 299.6,221.0 308.4,221.0 317.1,220.7 325.8,220.7 334.6,220.0 343.3,220.0 352.0,220.0 360.8,220.0 369.5,220.0 378.2,220.0 387.0,220.0 395.7,220.0 404.4,220.0 413.2,220.0 421.9,220.0 430.6,220.0 439.4,220.0 448.1,219.3 456.8,219.6 465.6,218.9 474.3,218.6 483.0,218.6 491.8,218.6 500.5,218.6 509.2,218.6 518.0,218.6 526.7,218.5 535.4,218.5 544.2,218.5 552.9,218.6 561.6,218.9 570.4,220.3 579.1,218.9 587.8,217.6 596.6,217.6 605.3,217.6 614.1,217.6 622.8,217.6 631.5,210.0 640.3,203.2 649.0,203.2 657.7,203.2 666.5,203.2 675.2,203.2 683.9,203.2 692.7,203.2 701.4,203.2 710.1,203.1 718.9,203.1 727.6,203.1 736.3,203.1 745.1,203.1 753.8,203.1 762.5,203.1" fill="none" stroke="#3fb950" stroke-width="2" stroke-linejoin="round" class="anim" style="animation-delay:250ms;"/>
<polyline points="762.5,203.1 771.3,195.5 780.0,187.8" fill="none" stroke="#3fb950" stroke-width="1.5" stroke-dasharray="5,4" stroke-linejoin="round" opacity="0.6" class="anim" style="animation-delay:250ms;"/>
<polygon points="90.0,340.0 90.0,326.5 98.7,327.9 107.5,326.5 116.2,327.9 124.9,333.6 133.7,324.9 142.4,324.8 151.1,323.9 159.9,323.5 168.6,323.3 177.3,323.2 186.1,307.3 194.8,307.3 203.5,307.3 212.3,289.2 221.0,289.1 229.7,289.1 238.5,289.1 247.2,289.1 255.9,289.1 264.7,289.1 273.4,279.7 282.2,265.3 290.9,265.2 299.6,265.2 308.4,265.2 317.1,265.2 325.8,265.2 334.6,265.1 343.3,265.0 352.0,265.0 360.8,265.0 369.5,265.0 378.2,265.0 387.0,265.1 395.7,265.0 404.4,265.0 413.2,265.0 421.9,265.0 430.6,265.0 439.4,265.0 448.1,265.0 456.8,265.1 465.6,264.6 474.3,264.6 483.0,264.6 491.8,264.6 500.5,264.6 509.2,264.6 518.0,264.6 526.7,264.6 535.4,264.6 544.2,264.6 552.9,264.6 561.6,264.7 570.4,265.5 579.1,265.0 587.8,264.2 596.6,264.1 605.3,264.1 614.1,264.1 622.8,264.1 631.5,264.1 640.3,264.1 649.0,264.1 657.7,264.1 666.5,264.1 675.2,264.1 683.9,264.1 692.7,264.1 701.4,264.1 710.1,264.1 718.9,264.1 727.6,264.1 736.3,264.1 745.1,264.1 753.8,264.1 762.5,264.1 771.3,258.1 780.0,252.2 780.0,340.0" fill="url(#delGrad)" class="anim" style="animation-delay:300ms;"/>
<polyline points="90.0,326.5 98.7,327.9 107.5,326.5 116.2,327.9 124.9,333.6 133.7,324.9 142.4,324.8 151.1,323.9 159.9,323.5 168.6,323.3 177.3,323.2 186.1,307.3 194.8,307.3 203.5,307.3 212.3,289.2 221.0,289.1 229.7,289.1 238.5,289.1 247.2,289.1 255.9,289.1 264.7,289.1 273.4,279.7 282.2,265.3 290.9,265.2 299.6,265.2 308.4,265.2 317.1,265.2 325.8,265.2 334.6,265.1 343.3,265.0 352.0,265.0 360.8,265.0 369.5,265.0 378.2,265.0 387.0,265.1 395.7,265.0 404.4,265.0 413.2,265.0 421.9,265.0 430.6,265.0 439.4,265.0 448.1,265.0 456.8,265.1 465.6,264.6 474.3,264.6 483.0,264.6 491.8,264.6 500.5,264.6 509.2,264.6 518.0,264.6 526.7,264.6 535.4,264.6 544.2,264.6 552.9,264.6 561.6,264.7 570.4,265.5 579.1,265.0 587.8,264.2 596.6,264.1 605.3,264.1 614.1,264.1 622.8,264.1 631.5,264.1 640.3,264.1 649.0,264.1 657.7,264.1 666.5,264.1 675.2,264.1 683.9,264.1 692.7,264.1 701.4,264.1 710.1,264.1 718.9,264.1 727.6,264.1 736.3,264.1 745.1,264.1 753.8,264.1 762.5,264.1" fill="none" stroke="#f85149" stroke-width="1.5" stroke-linejoin="round" class="anim" style="animation-delay:350ms;"/>
<polyline points="762.5,264.1 771.3,258.1 780.0,252.2" fill="none" stroke="#f85149" stroke-width="1" stroke-dasharray="5,4" stroke-linejoin="round" opacity="0.6" class="anim" style="animation-delay:350ms;"/>
<polyline points="90.0,340.0 98.7,340.0 107.5,340.0 116.2,340.0 124.9,340.0 133.7,340.0 142.4,340.0 151.1,340.0 159.9,308.0 168.6,308.0 177.3,308.0 186.1,308.0 194.8,308.0 203.5,308.0 212.3,308.0 221.0,308.0 229.7,308.0 238.5,308.0 247.2,308.0 255.9,308.0 264.7,308.0 273.4,308.0 282.2,308.0 290.9,308.0 299.6,308.0 308.4,308.0 317.1,308.0 325.8,308.0 334.6,308.0 343.3,308.0 352.0,308.0 360.8,308.0 369.5,308.0 378.2,308.0 387.0,276.0 395.7,276.0 404.4,276.0 413.2,276.0 421.9,276.0 430.6,276.0 439.4,276.0 448.1,276.0 456.8,244.0 465.6,244.0 474.3,244.0 483.0,244.0 491.8,244.0 500.5,244.0 509.2,244.0 518.0,244.0 526.7,244.0 535.4,244.0 544.2,244.0 552.9,244.0 561.6,244.0 570.4,244.0 579.1,244.0 587.8,244.0 596.6,180.0 605.3,180.0 614.1,180.0 622.8,180.0 631.5,180.0 640.3,180.0 649.0,180.0 657.7,180.0 666.5,180.0 675.2,180.0 683.9,180.0 692.7,180.0 701.4,180.0 710.1,180.0 718.9,180.0 727.6,180.0 736.3,180.0 745.1,180.0 753.8,180.0 762.5,180.0" fill="none" stroke="#e3b341" stroke-width="1.5" stroke-dasharray="4,3" stroke-linejoin="round" class="anim" style="animation-delay:400ms;"/>
<polyline points="762.5,180.0 771.3,180.0 780.0,148.0" fill="none" stroke="#e3b341" stroke-width="1" stroke-dasharray="3,5" stroke-linejoin="round" opacity="0.5" class="anim" style="animation-delay:400ms;"/>
<text x="90" y="90" class="subtitle">Lines Added vs Deleted (per snapshot)</text>
<text x="90" y="400" class="subtitle">Programming Language Development (%)</text>
<line x1="90" y1="650.0" x2="780" y2="650.0" stroke="#21262d" stroke-width="1"/>
<text x="82" y="654.0" text-anchor="end" class="axis-label">0%</text>
<line x1="90" y1="590.0" x2="780" y2="590.0" stroke="#21262d" stroke-width="1"/>
<text x="82" y="594.0" text-anchor="end" class="axis-label">25%</text>
<line x1="90" y1="530.0" x2="780" y2="530.0" stroke="#21262d" stroke-width="1"/>
<text x="82" y="534.0" text-anchor="end" class="axis-label">50%</text>
<line x1="90" y1="470.0" x2="780" y2="470.0" stroke="#21262d" stroke-width="1"/>
<text x="82" y="474.0" text-anchor="end" class="axis-label">75%</text>
<line x1="90" y1="410.0" x2="780" y2="410.0" stroke="#21262d" stroke-width="1"/>
<text x="82" y="414.0" text-anchor="end" class="axis-label">100%</text>
<polygon points="90.0,650.0 98.7,650.0 107.5,650.0 116.2,650.0 124.9,650.0 133.7,650.0 142.4,650.0 151.1,650.0 159.9,528.2 168.6,528.5 177.3,529.7 186.1,499.3 194.8,499.3 203.5,502.9 212.3,485.0 221.0,485.1 229.7,485.4 238.5,485.4 247.2,485.4 255.9,485.4 264.7,485.4 273.4,496.4 282.2,496.7 290.9,491.0 299.6,491.0 308.4,491.0 317.1,491.7 325.8,491.8 334.6,494.0 343.3,494.0 352.0,494.4 360.8,494.4 369.5,494.4 378.2,494.4 387.0,507.6 395.7,507.6 404.4,507.9 413.2,507.9 421.9,507.9 430.6,506.3 439.4,506.4 448.1,506.8 456.8,506.9 465.6,506.8 474.3,507.5 483.0,507.5 491.8,507.5 500.5,507.5 509.2,507.5 518.0,507.5 526.7,507.5 535.4,507.5 544.2,507.5 552.9,507.5 561.6,507.5 570.4,507.5 579.1,507.5 587.8,508.6 596.6,508.6 605.3,508.6 614.1,508.6 622.8,508.6 631.5,509.5 640.3,509.8 649.0,509.8 657.7,509.8 666.5,509.8 675.2,509.8 683.9,509.8 692.7,509.8 701.4,509.8 710.1,510.9 718.9,510.9 727.6,510.9 736.3,510.9 745.1,510.9 753.8,510.9 762.5,510.9 771.3,512.8 780.0,514.8 780.0,650.0 771.3,650.0 762.5,650.0 753.8,650.0 745.1,650.0 736.3,650.0 727.6,650.0 718.9,650.0 710.1,650.0 701.4,650.0 692.7,650.0 683.9,650.0 675.2,650.0 666.5,650.0 657.7,650.0 649.0,650.0 640.3,650.0 631.5,650.0 622.8,650.0 614.1,650.0 605.3,650.0 596.6,650.0 587.8,650.0 579.1,650.0 570.4,650.0 561.6,650.0 552.9,650.0 544.2,650.0 535.4,650.0 526.7,650.0 518.0,650.0 509.2,650.0 500.5,650.0 491.8,650.0 483.0,650.0 474.3,650.0 465.6,650.0 456.8,650.0 448.1,650.0 439.4,650.0 430.6,650.0 421.9,650.0 413.2,650.0 404.4,650.0 395.7,650.0 387.0,650.0 378.2,650.0 369.5,650.0 360.8,650.0 352.0,650.0 343.3,650.0 334.6,650.0 325.8,650.0 317.1,650.0 308.4,650.0 299.6,650.0 290.9,650.0 282.2,650.0 273.4,650.0 264.7,650.0 255.9,650.0 247.2,650.0 238.5,650.0 229.7,650.0 221.0,650.0 212.3,650.0 203.5,650.0 194.8,650.0 186.1,650.0 177.3,650.0 168.6,650.0 159.9,650.0 151.1,650.0 142.4,650.0 133.7,650.0 124.9,650.0 116.2,650.0 107.5,650.0 98.7,650.0 90.0,650.0" fill="#e34c26" opacity="0.6" class="anim" style="animation-delay:500ms;"/>
<polygon points="90.0,650.0 98.7,650.0 107.5,650.0 116.2,650.0 124.9,650.0 133.7,650.0 142.4,650.0 151.1,650.0 159.9,488.4 168.6,488.0 177.3,489.0 186.1,476.0 194.8,476.0 203.5,477.2 212.3,460.1 221.0,460.2 229.7,460.6 238.5,460.6 247.2,460.6 255.9,460.6 264.7,460.6 273.4,473.0 282.2,473.5 290.9,469.5 299.6,469.5 308.4,469.5 317.1,469.7 325.8,469.7 334.6,469.7 343.3,469.7 352.0,469.7 360.8,469.7 369.5,469.7 378.2,469.7 387.0,455.6 395.7,455.6 404.4,455.4 413.2,455.4 421.9,455.4 430.6,454.3 439.4,454.3 448.1,455.0 456.8,455.1 465.6,454.9 474.3,455.9 483.0,455.9 491.8,455.9 500.5,455.9 509.2,455.9 518.0,455.9 526.7,455.9 535.4,455.9 544.2,455.9 552.9,455.9 561.6,455.9 570.4,455.9 579.1,455.9 587.8,455.8 596.6,455.8 605.3,455.8 614.1,455.8 622.8,455.8 631.5,457.0 640.3,457.4 649.0,457.4 657.7,457.4 666.5,457.4 675.2,457.4 683.9,457.4 692.7,457.4 701.4,457.4 710.1,458.2 718.9,458.2 727.6,458.2 736.3,458.2 745.1,458.2 753.8,458.2 762.5,458.2 771.3,456.1 780.0,454.1 780.0,514.8 771.3,512.8 762.5,510.9 753.8,510.9 745.1,510.9 736.3,510.9 727.6,510.9 718.9,510.9 710.1,510.9 701.4,509.8 692.7,509.8 683.9,509.8 675.2,509.8 666.5,509.8 657.7,509.8 649.0,509.8 640.3,509.8 631.5,509.5 622.8,508.6 614.1,508.6 605.3,508.6 596.6,508.6 587.8,508.6 579.1,507.5 570.4,507.5 561.6,507.5 552.9,507.5 544.2,507.5 535.4,507.5 526.7,507.5 518.0,507.5 509.2,507.5 500.5,507.5 491.8,507.5 483.0,507.5 474.3,507.5 465.6,506.8 456.8,506.9 448.1,506.8 439.4,506.4 430.6,506.3 421.9,507.9 413.2,507.9 404.4,507.9 395.7,507.6 387.0,507.6 378.2,494.4 369.5,494.4 360.8,494.4 352.0,494.4 343.3,494.0 334.6,494.0 325.8,491.8 317.1,491.7 308.4,491.0 299.6,491.0 290.9,491.0 282.2,496.7 273.4,496.4 264.7,485.4 255.9,485.4 247.2,485.4 238.5,485.4 229.7,485.4 221.0,485.1 212.3,485.0 203.5,502.9 194.8,499.3 186.1,499.3 177.3,529.7 168.6,528.5 159.9,528.2 151.1,650.0 142.4,650.0 133.7,650.0 124.9,650.0 116.2,650.0 107.5,650.0 98.7,650.0 90.0,650.0" fill="#f1e05a" opacity="0.6" class="anim" style="animation-delay:600ms;"/>
<polygon points="90.0,650.0 98.7,650.0 107.5,650.0 116.2,650.0 124.9,650.0 133.7,650.0 142.4,650.0 151.1,650.0 159.9,455.5 168.6,455.4 177.3,455.1 186.1,447.0 194.8,447.0 203.5,448.2 212.3,438.9 221.0,439.0 229.7,439.6 238.5,439.6 247.2,439.6 255.9,439.6 264.7,439.6 273.4,445.6 282.2,445.6 290.9,443.3 299.6,443.3 308.4,443.3 317.1,443.6 325.8,443.6 334.6,444.1 343.3,444.1 352.0,444.1 360.8,444.1 369.5,444.1 378.2,444.1 387.0,437.5 395.7,437.5 404.4,437.5 413.2,437.5 421.9,437.5 430.6,437.5 439.4,437.5 448.1,438.4 456.8,438.5 465.6,438.3 474.3,439.3 483.0,439.3 491.8,439.3 500.5,439.3 509.2,439.3 518.0,439.3 526.7,439.3 535.4,439.3 544.2,439.3 552.9,439.3 561.6,439.3 570.4,439.3 579.1,439.3 587.8,439.4 596.6,439.4 605.3,439.4 614.1,439.4 622.8,439.4 631.5,440.7 640.3,441.1 649.0,441.1 657.7,441.1 666.5,441.1 675.2,441.1 683.9,441.1 692.7,441.1 701.4,441.1 710.1,442.0 718.9,442.0 727.6,442.0 736.3,442.0 745.1,442.0 753.8,442.0 762.5,442.0 771.3,441.6 780.0,441.2 780.0,454.1 771.3,456.1 762.5,458.2 753.8,458.2 745.1,458.2 736.3,458.2 727.6,458.2 718.9,458.2 710.1,458.2 701.4,457.4 692.7,457.4 683.9,457.4 675.2,457.4 666.5,457.4 657.7,457.4 649.0,457.4 640.3,457.4 631.5,457.0 622.8,455.8 614.1,455.8 605.3,455.8 596.6,455.8 587.8,455.8 579.1,455.9 570.4,455.9 561.6,455.9 552.9,455.9 544.2,455.9 535.4,455.9 526.7,455.9 518.0,455.9 509.2,455.9 500.5,455.9 491.8,455.9 483.0,455.9 474.3,455.9 465.6,454.9 456.8,455.1 448.1,455.0 439.4,454.3 430.6,454.3 421.9,455.4 413.2,455.4 404.4,455.4 395.7,455.6 387.0,455.6 378.2,469.7 369.5,469.7 360.8,469.7 352.0,469.7 343.3,469.7 334.6,469.7 325.8,469.7 317.1,469.7 308.4,469.5 299.6,469.5 290.9,469.5 282.2,473.5 273.4,473.0 264.7,460.6 255.9,460.6 247.2,460.6 238.5,460.6 229.7,460.6 221.0,460.2 212.3,460.1 203.5,477.2 194.8,476.0 186.1,476.0 177.3,489.0 168.6,488.0 159.9,488.4 151.1,650.0 142.4,650.0 133.7,650.0 124.9,650.0 116.2,650.0 107.5,650.0 98.7,650.0 90.0,650.0" fill="#3572A5" opacity="0.6" class="anim" style="animation-delay:700ms;"/>
<polygon points="90.0,650.0 98.7,650.0 107.5,650.0 116.2,650.0 124.9,650.0 133.7,650.0 142.4,650.0 151.1,650.0 159.9,442.3 168.6,442.0 177.3,441.6 186.1,439.5 194.8,439.5 203.5,439.4 212.3,432.3 221.0,432.2 229.7,432.6 238.5,432.6 247.2,432.6 255.9,432.6 264.7,432.6 273.4,439.3 282.2,439.3 290.9,437.4 299.6,437.4 308.4,437.4 317.1,437.3 325.8,437.3 334.6,437.1 343.3,437.1 352.0,437.1 360.8,437.1 369.5,437.1 378.2,437.1 387.0,428.7 395.7,428.6 404.4,428.5 413.2,428.5 421.9,428.5 430.6,427.3 439.4,427.3 448.1,427.1 456.8,427.1 465.6,427.1 474.3,427.0 483.0,427.0 491.8,427.0 500.5,427.0 509.2,427.0 518.0,427.0 526.7,427.0 535.4,427.0 544.2,427.0 552.9,427.0 561.6,427.0 570.4,427.0 579.1,427.0 587.8,427.0 596.6,427.1 605.3,427.1 614.1,427.1 622.8,427.1 631.5,428.4 640.3,428.9 649.0,428.9 657.7,428.9 666.5,428.9 675.2,428.9 683.9,428.9 692.7,428.9 701.4,428.9 710.1,428.7 718.9,428.7 727.6,428.7 736.3,428.7 745.1,428.7 753.8,428.7 762.5,428.7 771.3,427.6 780.0,426.4 780.0,441.2 771.3,441.6 762.5,442.0 753.8,442.0 745.1,442.0 736.3,442.0 727.6,442.0 718.9,442.0 710.1,442.0 701.4,441.1 692.7,441.1 683.9,441.1 675.2,441.1 666.5,441.1 657.7,441.1 649.0,441.1 640.3,441.1 631.5,440.7 622.8,439.4 614.1,439.4 605.3,439.4 596.6,439.4 587.8,439.4 579.1,439.3 570.4,439.3 561.6,439.3 552.9,439.3 544.2,439.3 535.4,439.3 526.7,439.3 518.0,439.3 509.2,439.3 500.5,439.3 491.8,439.3 483.0,439.3 474.3,439.3 465.6,438.3 456.8,438.5 448.1,438.4 439.4,437.5 430.6,437.5 421.9,437.5 413.2,437.5 404.4,437.5 395.7,437.5 387.0,437.5 378.2,444.1 369.5,444.1 360.8,444.1 352.0,444.1 343.3,444.1 334.6,444.1 325.8,443.6 317.1,443.6 308.4,443.3 299.6,443.3 290.9,443.3 282.2,445.6 273.4,445.6 264.7,439.6 255.9,439.6 247.2,439.6 238.5,439.6 229.7,439.6 221.0,439.0 212.3,438.9 203.5,448.2 194.8,447.0 186.1,447.0 177.3,455.1 168.6,455.4 159.9,455.5 151.1,650.0 142.4,650.0 133.7,650.0 124.9,650.0 116.2,650.0 107.5,650.0 98.7,650.0 90.0,650.0" fill="#663399" opacity="0.6" class="anim" style="animation-delay:800ms;"/>
<polygon points="90.0,650.0 98.7,650.0 107.5,650.0 116.2,650.0 124.9,650.0 133.7,650.0 142.4,650.0 151.1,650.0 159.9,436.6 168.6,436.3 177.3,435.9 186.1,432.2 194.8,432.2 203.5,432.2 212.3,426.2 221.0,426.1 229.7,426.0 238.5,426.0 247.2,426.0 255.9,426.0 264.7,426.0 273.4,430.8 282.2,430.7 290.9,429.3 299.6,429.3 308.4,429.3 317.1,429.2 325.8,429.2 334.6,428.9 343.3,428.9 352.0,428.8 360.8,428.8 369.5,428.8 378.2,428.8 387.0,423.0 395.7,422.9 404.4,422.9 413.2,422.9 421.9,422.9 430.6,422.0 439.4,422.0 448.1,421.9 456.8,421.9 465.6,421.9 474.3,421.8 483.0,421.8 491.8,421.8 500.5,421.8 509.2,421.8 518.0,421.8 526.7,421.8 535.4,421.8 544.2,421.8 552.9,421.8 561.6,421.8 570.4,421.8 579.1,421.8 587.8,421.7 596.6,421.8 605.3,421.8 614.1,421.8 622.8,421.8 631.5,423.2 640.3,423.6 649.0,423.6 657.7,423.6 666.5,423.6 675.2,423.6 683.9,423.6 692.7,423.6 701.4,423.6 710.1,423.5 718.9,423.5 727.6,423.5 736.3,423.5 745.1,423.5 753.8,423.5 762.5,423.5 771.3,422.7 780.0,421.8 780.0,426.4 771.3,427.6 762.5,428.7 753.8,428.7 745.1,428.7 736.3,428.7 727.6,428.7 718.9,428.7 710.1,428.7 701.4,428.9 692.7,428.9 683.9,428.9 675.2,428.9 666.5,428.9 657.7,428.9 649.0,428.9 640.3,428.9 631.5,428.4 622.8,427.1 614.1,427.1 605.3,427.1 596.6,427.1 587.8,427.0 579.1,427.0 570.4,427.0 561.6,427.0 552.9,427.0 544.2,427.0 535.4,427.0 526.7,427.0 518.0,427.0 509.2,427.0 500.5,427.0 491.8,427.0 483.0,427.0 474.3,427.0 465.6,427.1 456.8,427.1 448.1,427.1 439.4,427.3 430.6,427.3 421.9,428.5 413.2,428.5 404.4,428.5 395.7,428.6 387.0,428.7 378.2,437.1 369.5,437.1 360.8,437.1 352.0,437.1 343.3,437.1 334.6,437.1 325.8,437.3 317.1,437.3 308.4,437.4 299.6,437.4 290.9,437.4 282.2,439.3 273.4,439.3 264.7,432.6 255.9,432.6 247.2,432.6 238.5,432.6 229.7,432.6 221.0,432.2 212.3,432.3 203.5,439.4 194.8,439.5 186.1,439.5 177.3,441.6 168.6,442.0 159.9,442.3 151.1,650.0 142.4,650.0 133.7,650.0 124.9,650.0 116.2,650.0 107.5,650.0 98.7,650.0 90.0,650.0" fill="#083fa1" opacity="0.6" class="anim" style="animation-delay:900ms;"/>
<polygon points="90.0,650.0 98.7,650.0 107.5,650.0 116.2,650.0 124.9,650.0 133.7,650.0 142.4,650.0 151.1,650.0 159.9,427.0 168.6,426.8 177.3,426.6 186.1,424.2 194.8,424.2 203.5,424.2 212.3,420.4 221.0,420.3 229.7,420.3 238.5,420.3 247.2,420.3 255.9,420.3 264.7,420.3 273.4,423.3 282.2,423.2 290.9,422.4 299.6,422.4 308.4,422.4 317.1,422.3 325.8,422.3 334.6,422.1 343.3,422.1 352.0,422.1 360.8,422.1 369.5,422.1 378.2,422.1 387.0,418.3 395.7,418.3 404.4,418.2 413.2,418.2 421.9,418.2 430.6,417.7 439.4,417.7 448.1,417.6 456.8,417.6 465.6,417.6 474.3,417.6 483.0,417.6 491.8,417.6 500.5,417.6 509.2,417.6 518.0,417.6 526.7,417.6 535.4,417.6 544.2,417.6 552.9,417.6 561.6,417.6 570.4,417.6 579.1,417.6 587.8,417.5 596.6,417.6 605.3,417.6 614.1,417.6 622.8,417.6 631.5,419.0 640.3,419.5 649.0,419.5 657.7,419.5 666.5,419.5 675.2,419.5 683.9,419.5 692.7,419.5 701.4,419.5 710.1,419.4 718.9,419.4 727.6,419.4 736.3,419.4 745.1,419.4 753.8,419.4 762.5,419.4 771.3,419.0 780.0,418.6 780.0,421.8 771.3,422.7 762.5,423.5 753.8,423.5 745.1,423.5 736.3,423.5 727.6,423.5 718.9,423.5 710.1,423.5 701.4,423.6 692.7,423.6 683.9,423.6 675.2,423.6 666.5,423.6 657.7,423.6 649.0,423.6 640.3,423.6 631.5,423.2 622.8,421.8 614.1,421.8 605.3,421.8 596.6,421.8 587.8,421.7 579.1,421.8 570.4,421.8 561.6,421.8 552.9,421.8 544.2,421.8 535.4,421.8 526.7,421.8 518.0,421.8 509.2,421.8 500.5,421.8 491.8,421.8 483.0,421.8 474.3,421.8 465.6,421.9 456.8,421.9 448.1,421.9 439.4,422.0 430.6,422.0 421.9,422.9 413.2,422.9 404.4,422.9 395.7,422.9 387.0,423.0 378.2,428.8 369.5,428.8 360.8,428.8 352.0,428.8 343.3,428.9 334.6,428.9 325.8,429.2 317.1,429.2 308.4,429.3 299.6,429.3 290.9,429.3 282.2,430.7 273.4,430.8 264.7,426.0 255.9,426.0 247.2,426.0 238.5,426.0 229.7,426.0 221.0,426.1 212.3,426.2 203.5,432.2 194.8,432.2 186.1,432.2 177.3,435.9 168.6,436.3 159.9,436.6 151.1,650.0 142.4,650.0 133.7,650.0 124.9,650.0 116.2,650.0 107.5,650.0 98.7,650.0 90.0,650.0" fill="#6E4C13" opacity="0.6" class="anim" style="animation-delay:1000ms;"/>
<polygon points="90.0,650.0 98.7,650.0 107.5,650.0 116.2,650.0 124.9,650.0 133.7,650.0 142.4,650.0 151.1,650.0 159.9,418.7 168.6,418.6 177.3,418.5 186.1,417.3 194.8,417.3 203.5,417.2 212.3,415.3 221.0,415.3 229.7,415.2 238.5,415.2 247.2,415.2 255.9,415.2 264.7,415.2 273.4,416.8 282.2,416.8 290.9,416.3 299.6,416.3 308.4,416.3 317.1,416.3 325.8,416.3 334.6,416.2 343.3,416.2 352.0,416.2 360.8,416.2 369.5,416.2 378.2,416.2 387.0,414.2 395.7,414.2 404.4,414.2 413.2,414.2 421.9,414.2 430.6,413.9 439.4,413.9 448.1,413.9 456.8,413.9 465.6,413.9 474.3,413.9 483.0,413.9 491.8,413.9 500.5,413.9 509.2,413.9 518.0,413.9 526.7,413.9 535.4,413.9 544.2,413.9 552.9,413.9 561.6,413.9 570.4,413.9 579.1,413.9 587.8,413.8 596.6,413.8 605.3,413.8 614.1,413.8 622.8,413.8 631.5,413.8 640.3,413.8 649.0,413.8 657.7,413.8 666.5,413.8 675.2,413.8 683.9,413.8 692.7,413.8 701.4,413.8 710.1,413.8 718.9,413.8 727.6,413.8 736.3,413.8 745.1,413.8 753.8,413.8 762.5,413.8 771.3,413.6 780.0,413.3 780.0,418.6 771.3,419.0 762.5,419.4 753.8,419.4 745.1,419.4 736.3,419.4 727.6,419.4 718.9,419.4 710.1,419.4 701.4,419.5 692.7,419.5 683.9,419.5 675.2,419.5 666.5,419.5 657.7,419.5 649.0,419.5 640.3,419.5 631.5,419.0 622.8,417.6 614.1,417.6 605.3,417.6 596.6,417.6 587.8,417.5 579.1,417.6 570.4,417.6 561.6,417.6 552.9,417.6 544.2,417.6 535.4,417.6 526.7,417.6 518.0,417.6 509.2,417.6 500.5,417.6 491.8,417.6 483.0,417.6 474.3,417.6 465.6,417.6 456.8,417.6 448.1,417.6 439.4,417.7 430.6,417.7 421.9,418.2 413.2,418.2 404.4,418.2 395.7,418.3 387.0,418.3 378.2,422.1 369.5,422.1 360.8,422.1 352.0,422.1 343.3,422.1 334.6,422.1 325.8,422.3 317.1,422.3 308.4,422.4 299.6,422.4 290.9,422.4 282.2,423.2 273.4,423.3 264.7,420.3 255.9,420.3 247.2,420.3 238.5,420.3 229.7,420.3 221.0,420.3 212.3,420.4 203.5,424.2 194.8,424.2 186.1,424.2 177.3,426.6 168.6,426.8 159.9,427.0 151.1,650.0 142.4,650.0 133.7,650.0 124.9,650.0 116.2,650.0 107.5,650.0 98.7,650.0 90.0,650.0" fill="#F05138" opacity="0.6" class="anim" style="animation-delay:1100ms;"/>
<polygon points="90.0,650.0 98.7,650.0 107.5,650.0 116.2,650.0 124.9,650.0 133.7,650.0 142.4,650.0 151.1,650.0 159.9,414.4 168.6,414.4 177.3,414.3 186.1,413.7 194.8,413.7 203.5,413.7 212.3,412.7 221.0,412.7 229.7,412.7 238.5,412.7 247.2,412.7 255.9,412.7 264.7,412.7 273.4,413.5 282.2,413.4 290.9,413.2 299.6,413.2 308.4,413.2 317.1,413.2 325.8,413.2 334.6,413.1 343.3,413.1 352.0,413.1 360.8,413.1 369.5,413.1 378.2,413.1 387.0,412.2 395.7,412.1 404.4,412.1 413.2,412.1 421.9,412.1 430.6,412.0 439.4,412.0 448.1,412.0 456.8,412.0 465.6,412.0 474.3,412.0 483.0,412.0 491.8,412.0 500.5,412.0 509.2,412.0 518.0,412.0 526.7,412.0 535.4,412.0 544.2,412.0 552.9,412.0 561.6,412.0 570.4,412.0 579.1,412.0 587.8,411.9 596.6,411.9 605.3,411.9 614.1,411.9 622.8,411.9 631.5,411.9 640.3,411.9 649.0,411.9 657.7,411.9 666.5,411.9 675.2,411.9 683.9,411.9 692.7,411.9 701.4,411.9 710.1,411.9 718.9,411.9 727.6,411.9 736.3,411.9 745.1,411.9 753.8,411.9 762.5,411.9 771.3,411.9 780.0,411.9 780.0,413.3 771.3,413.6 762.5,413.8 753.8,413.8 745.1,413.8 736.3,413.8 727.6,413.8 718.9,413.8 710.1,413.8 701.4,413.8 692.7,413.8 683.9,413.8 675.2,413.8 666.5,413.8 657.7,413.8 649.0,413.8 640.3,413.8 631.5,413.8 622.8,413.8 614.1,413.8 605.3,413.8 596.6,413.8 587.8,413.8 579.1,413.9 570.4,413.9 561.6,413.9 552.9,413.9 544.2,413.9 535.4,413.9 526.7,413.9 518.0,413.9 509.2,413.9 500.5,413.9 491.8,413.9 483.0,413.9 474.3,413.9 465.6,413.9 456.8,413.9 448.1,413.9 439.4,413.9 430.6,413.9 421.9,414.2 413.2,414.2 404.4,414.2 395.7,414.2 387.0,414.2 378.2,416.2 369.5,416.2 360.8,416.2 352.0,416.2 343.3,416.2 334.6,416.2 325.8,416.3 317.1,416.3 308.4,416.3 299.6,416.3 290.9,416.3 282.2,416.8 273.4,416.8 264.7,415.2 255.9,415.2 247.2,415.2 238.5,415.2 229.7,415.2 221.0,415.3 212.3,415.3 203.5,417.2 194.8,417.3 186.1,417.3 177.3,418.5 168.6,418.6 159.9,418.7 151.1,650.0 142.4,650.0 133.7,650.0 124.9,650.0 116.2,650.0 107.5,650.0 98.7,650.0 90.0,650.0" fill="#b07219" opacity="0.6" class="anim" style="animation-delay:1200ms;"/>
<line x1="762.5" y1="100" x2="762.5" y2="650" stroke="#c9d1d9" stroke-width="1" stroke-dasharray="4,3" opacity="0.35"/>
<text x="771.3" y="112" text-anchor="middle" class="axis-label" opacity="0.6">Jul 09, 2026</text>
<text x="90.0" y="668" text-anchor="middle" class="axis-label" transform="rotate(-35 90.0 668)">2026-02</text>
<text x="325.8" y="668" text-anchor="middle" class="axis-label" transform="rotate(-35 325.8 668)">2026-03</text>
<text x="561.6" y="668" text-anchor="middle" class="axis-label" transform="rotate(-35 561.6 668)">2026-04</text>
<text x="640.3" y="668" text-anchor="middle" class="axis-label" transform="rotate(-35 640.3 668)">2026-06</text>
<text x="771.3" y="668" text-anchor="middle" class="axis-label" transform="rotate(-35 771.3 668)">Jul 09, 2026</text>
<line x1="796" y1="110" x2="824" y2="110" stroke="#3fb950" stroke-width="2"/>
<text x="832" y="116" class="legend-text">Lines Added</text>
<line x1="796" y1="140" x2="824" y2="140" stroke="#f85149" stroke-width="1.5"/>
<text x="832" y="146" class="legend-text">Lines Deleted</text>
<line x1="796" y1="170" x2="824" y2="170" stroke="#e3b341" stroke-width="1.5" stroke-dasharray="4,3"/>
<text x="832" y="176" class="legend-text">&#x2605; Stars</text>
<text x="796" y="200" class="subtitle">Languages</text>
<rect x="796" y="212" width="12" height="12" rx="2" fill="#e34c26" opacity="0.8" class="anim" style="animation-delay:800ms;"/>
<text x="814" y="223" class="legend-text">HTML (58%→56%)</text>
<rect x="796" y="234" width="12" height="12" rx="2" fill="#f1e05a" opacity="0.8" class="anim" style="animation-delay:880ms;"/>
<text x="814" y="245" class="legend-text">JavaScript (22%→25%)</text>
<rect x="796" y="256" width="12" height="12" rx="2" fill="#3572A5" opacity="0.8" class="anim" style="animation-delay:960ms;"/>
<text x="814" y="267" class="legend-text">Python (7%→5%)</text>
<rect x="796" y="278" width="12" height="12" rx="2" fill="#663399" opacity="0.8" class="anim" style="animation-delay:1040ms;"/>
<text x="814" y="289" class="legend-text">CSS (6%→6%)</text>
<rect x="796" y="300" width="12" height="12" rx="2" fill="#083fa1" opacity="0.8" class="anim" style="animation-delay:1120ms;"/>
<text x="814" y="311" class="legend-text">Markdown (2%→2%)</text>
<rect x="796" y="322" width="12" height="12" rx="2" fill="#6E4C13" opacity="0.8" class="anim" style="animation-delay:1200ms;"/>
<text x="814" y="333" class="legend-text">Assembly (2%→1%)</text>
<rect x="796" y="344" width="12" height="12" rx="2" fill="#F05138" opacity="0.8" class="anim" style="animation-delay:1280ms;"/>
<text x="814" y="355" class="legend-text">Swift (2%→2%)</text>
<rect x="796" y="366" width="12" height="12" rx="2" fill="#b07219" opacity="0.8" class="anim" style="animation-delay:1360ms;"/>
<text x="814" y="377" class="legend-text">Java (1%→1%)</text>
<text x="796" y="412" class="subtitle">Contributions</text>
<text x="796" y="432" class="axis-label">2023: 39</text>
<text x="796" y="452" class="axis-label">2024: 646</text>
<text x="796" y="472" class="axis-label">2025: 1,780</text>
<text x="796" y="492" class="axis-label">2026: 491</text>
<text x="796" y="522" class="subtitle">Statistics</text>
<text x="796" y="542" class="axis-label">Active weeks: 88</text>
<text x="796" y="562" class="axis-label">Add/Del ratio: 1.8x</text>
<text x="796" y="582" class="axis-label">Avg lines/wk: 18K</text>
<text x="796" y="602" class="axis-label">Peak: 2026-02-15</text>
<text x="796" y="622" class="axis-label">  (543K lines)</text>
<text x="90" y="742" class="axis-label">Total: +1,040,332 / -576,819 lines &#xb7; 2,956 contributions &#xb7; 80 repos &#xb7; &#x2605; 37</text>
</svg>