<svg xmlns="http://www.w3.org/2000/svg" width="1000" height="760" style="max-width: 100%;" viewBox="0 0 1000 760">

<defs>
  <linearGradient id="areaGrad" x1="0" y1="0" x2="0" y2="1">
    <stop offset="0%" stop-color="#58a6ff" stop-opacity="0.35"/>
    <stop offset="100%" stop-color="#58a6ff" stop-opacity="0.02"/>
  </linearGradient>
  <linearGradient id="addGrad" x1="0" y1="0" x2="0" y2="1">
    <stop offset="0%" stop-color="#3fb950" stop-opacity="0.35"/>
    <stop offset="100%" stop-color="#3fb950" stop-opacity="0.02"/>
  </linearGradient>
  <linearGradient id="delGrad" x1="0" y1="0" x2="0" y2="1">
    <stop offset="0%" stop-color="#f85149" stop-opacity="0.25"/>
    <stop offset="100%" stop-color="#f85149" stop-opacity="0.02"/>
  </linearGradient>
</defs>
<style>
  .title { font: bold 28px 'Segoe UI', Ubuntu, Sans-Serif; fill: #c9d1d9; }
  .subtitle { font: 600 20px 'Segoe UI', Ubuntu, Sans-Serif; fill: #c9d1d9; opacity: 0.8; }
  .axis-label { font: 18px 'Segoe UI', Ubuntu, Sans-Serif; fill: #c9d1d9; opacity: 0.7; }
  .legend-text { font: 14px 'Segoe UI', Ubuntu, Sans-Serif; fill: #c9d1d9; }
  .value-text { font: bold 18px 'Segoe UI', Ubuntu, Sans-Serif; fill: #c9d1d9; }
  .stat-value { font: bold 22px 'Segoe UI', Ubuntu, Sans-Serif; fill: #c9d1d9; }
  .stat-label { font: 18px 'Segoe UI', Ubuntu, Sans-Serif; fill: #c9d1d9; opacity: 0.7; }
  @keyframes fadeIn { from { opacity: 0; } to { opacity: 1; } }
  .anim { animation: fadeIn 0.6s ease-in-out forwards; opacity: 0; }
</style>

<rect x="0.5" y="0.5" rx="4.5" width="999" height="759" fill="#161b22" stroke="#21262d"/>
<text x="90" y="45" class="title">Activity History</text>
<text x="90" y="72" class="subtitle">Lines added vs deleted &amp; activity trends over time</text>
<line x1="90" y1="340.0" x2="780" y2="340.0" stroke="#21262d" stroke-width="1"/>
<text x="82" y="344.0" text-anchor="end" class="axis-label">0</text>
<line x1="90" y1="280.0" x2="780" y2="280.0" stroke="#21262d" stroke-width="1"/>
<text x="82" y="284.0" text-anchor="end" class="axis-label">524K</text>
<line x1="90" y1="220.0" x2="780" y2="220.0" stroke="#21262d" stroke-width="1"/>
<text x="82" y="224.0" text-anchor="end" class="axis-label">1.0M</text>
<line x1="90" y1="160.0" x2="780" y2="160.0" stroke="#21262d" stroke-width="1"/>
<text x="82" y="164.0" text-anchor="end" class="axis-label">1.6M</text>
<line x1="90" y1="100.0" x2="780" y2="100.0" stroke="#21262d" stroke-width="1"/>
<text x="82" y="104.0" text-anchor="end" class="axis-label">2.1M</text>
<polygon points="90.0,340.0 90.0,298.2 102.5,299.7 115.1,298.2 127.6,299.7 140.2,309.3 152.7,290.2 165.3,290.2 177.8,283.0 190.4,282.7 202.9,282.2 215.5,282.2 228.0,269.3 240.5,269.3 253.1,269.3 265.6,250.2 278.2,250.0 290.7,249.7 303.3,249.7 315.8,249.7 328.4,249.7 340.9,249.7 353.5,249.2 366.0,236.5 378.5,236.5 391.1,236.5 403.6,236.5 416.2,236.2 428.7,236.2 441.3,235.6 453.8,235.6 466.4,235.6 478.9,235.6 491.5,235.6 504.0,235.6 516.5,235.6 529.1,235.5 541.6,235.5 554.2,235.5 566.7,235.5 579.3,235.5 591.8,235.5 604.4,235.0 616.9,235.2 629.5,234.6 642.0,234.4 654.5,234.4 667.1,234.4 679.6,234.4 692.2,234.4 704.7,234.4 717.3,234.3 729.8,234.3 742.4,234.3 754.9,234.4 767.5,216.8 780.0,199.2 780.0,340.0" fill="url(#addGrad)" class="anim" style="animation-delay:200ms;"/>
<polyline points="90.0,298.2 102.5,299.7 115.1,298.2 127.6,299.7 140.2,309.3 152.7,290.2 165.3,290.2 177.8,283.0 190.4,282.7 202.9,282.2 215.5,282.2 228.0,269.3 240.5,269.3 253.1,269.3 265.6,250.2 278.2,250.0 290.7,249.7 303.3,249.7 315.8,249.7 328.4,249.7 340.9,249.7 353.5,249.2 366.0,236.5 378.5,236.5 391.1,236.5 403.6,236.5 416.2,236.2 428.7,236.2 441.3,235.6 453.8,235.6 466.4,235.6 478.9,235.6 491.5,235.6 504.0,235.6 516.5,235.6 529.1,235.5 541.6,235.5 554.2,235.5 566.7,235.5 579.3,235.5 591.8,235.5 604.4,235.0 616.9,235.2 629.5,234.6 642.0,234.4 654.5,234.4 667.1,234.4 679.6,234.4 692.2,234.4 704.7,234.4 717.3,234.3 729.8,234.3 742.4,234.3 754.9,234.4" fill="none" stroke="#3fb950" stroke-width="2" stroke-linejoin="round" class="anim" style="animation-delay:250ms;"/>
<polyline points="754.9,234.4 767.5,216.8 780.0,199.2" fill="none" stroke="#3fb950" stroke-width="1.5" stroke-dasharray="5,4" stroke-linejoin="round" opacity="0.6" class="anim" style="animation-delay:250ms;"/>
<polygon points="90.0,340.0 90.0,328.2 102.5,329.5 115.1,328.3 127.6,329.4 140.2,334.5 152.7,326.8 165.3,326.8 177.8,326.0 190.4,325.7 202.9,325.4 215.5,325.4 228.0,311.6 240.5,311.6 253.1,311.5 265.6,295.8 278.2,295.7 290.7,295.7 303.3,295.7 315.8,295.7 328.4,295.7 340.9,295.7 353.5,287.5 366.0,275.0 378.5,274.9 391.1,274.9 403.6,274.9 416.2,274.9 428.7,274.9 441.3,274.8 453.8,274.8 466.4,274.8 478.9,274.8 491.5,274.8 504.0,274.8 516.5,274.8 529.1,274.8 541.6,274.8 554.2,274.8 566.7,274.8 579.3,274.8 591.8,274.8 604.4,274.8 616.9,274.8 629.5,274.4 642.0,274.4 654.5,274.4 667.1,274.4 679.6,274.4 692.2,274.4 704.7,274.4 717.3,274.4 729.8,274.4 742.4,274.4 754.9,274.4 767.5,257.6 780.0,240.8 780.0,340.0" fill="url(#delGrad)" class="anim" style="animation-delay:300ms;"/>
<polyline points="90.0,328.2 102.5,329.5 115.1,328.3 127.6,329.4 140.2,334.5 152.7,326.8 165.3,326.8 177.8,326.0 190.4,325.7 202.9,325.4 215.5,325.4 228.0,311.6 240.5,311.6 253.1,311.5 265.6,295.8 278.2,295.7 290.7,295.7 303.3,295.7 315.8,295.7 328.4,295.7 340.9,295.7 353.5,287.5 366.0,275.0 378.5,274.9 391.1,274.9 403.6,274.9 416.2,274.9 428.7,274.9 441.3,274.8 453.8,274.8 466.4,274.8 478.9,274.8 491.5,274.8 504.0,274.8 516.5,274.8 529.1,274.8 541.6,274.8 554.2,274.8 566.7,274.8 579.3,274.8 591.8,274.8 604.4,274.8 616.9,274.8 629.5,274.4 642.0,274.4 654.5,274.4 667.1,274.4 679.6,274.4 692.2,274.4 704.7,274.4 717.3,274.4 729.8,274.4 742.4,274.4 754.9,274.4" fill="none" stroke="#f85149" stroke-width="1.5" stroke-linejoin="round" class="anim" style="animation-delay:350ms;"/>
<polyline points="754.9,274.4 767.5,257.6 780.0,240.8" fill="none" stroke="#f85149" stroke-width="1" stroke-dasharray="5,4" stroke-linejoin="round" opacity="0.6" class="anim" style="animation-delay:350ms;"/>
<polyline points="90.0,340.0 102.5,340.0 115.1,340.0 127.6,340.0 140.2,340.0 152.7,340.0 165.3,340.0 177.8,340.0 190.4,292.0 202.9,292.0 215.5,292.0 228.0,292.0 240.5,292.0 253.1,292.0 265.6,292.0 278.2,292.0 290.7,292.0 303.3,292.0 315.8,292.0 328.4,292.0 340.9,292.0 353.5,292.0 366.0,292.0 378.5,292.0 391.1,292.0 403.6,292.0 416.2,292.0 428.7,292.0 441.3,292.0 453.8,292.0 466.4,292.0 478.9,292.0 491.5,292.0 504.0,292.0 516.5,244.0 529.1,244.0 541.6,244.0 554.2,244.0 566.7,244.0 579.3,244.0 591.8,244.0 604.4,244.0 616.9,196.0 629.5,196.0 642.0,196.0 654.5,196.0 667.1,196.0 679.6,196.0 692.2,196.0 704.7,196.0 717.3,196.0 729.8,196.0 742.4,196.0 754.9,196.0" fill="none" stroke="#e3b341" stroke-width="1.5" stroke-dasharray="4,3" stroke-linejoin="round" class="anim" style="animation-delay:400ms;"/>
<polyline points="754.9,196.0 767.5,196.0 780.0,148.0" fill="none" stroke="#e3b341" stroke-width="1" stroke-dasharray="3,5" stroke-linejoin="round" opacity="0.5" class="anim" style="animation-delay:400ms;"/>
<text x="90" y="90" class="subtitle">Lines Added vs Deleted (per snapshot)</text>
<text x="90" y="400" class="subtitle">Programming Language Development (%)</text>
<line x1="90" y1="650.0" x2="780" y2="650.0" stroke="#21262d" stroke-width="1"/>
<text x="82" y="654.0" text-anchor="end" class="axis-label">0%</text>
<line x1="90" y1="590.0" x2="780" y2="590.0" stroke="#21262d" stroke-width="1"/>
<text x="82" y="594.0" text-anchor="end" class="axis-label">25%</text>
<line x1="90" y1="530.0" x2="780" y2="530.0" stroke="#21262d" stroke-width="1"/>
<text x="82" y="534.0" text-anchor="end" class="axis-label">50%</text>
<line x1="90" y1="470.0" x2="780" y2="470.0" stroke="#21262d" stroke-width="1"/>
<text x="82" y="474.0" text-anchor="end" class="axis-label">75%</text>
<line x1="90" y1="410.0" x2="780" y2="410.0" stroke="#21262d" stroke-width="1"/>
<text x="82" y="414.0" text-anchor="end" class="axis-label">100%</text>
<polygon points="90.0,650.0 102.5,650.0 115.1,650.0 127.6,650.0 140.2,650.0 152.7,650.0 165.3,650.0 177.8,650.0 190.4,528.2 202.9,528.5 215.5,529.7 228.0,499.3 240.5,499.3 253.1,502.9 265.6,485.0 278.2,485.1 290.7,485.4 303.3,485.4 315.8,485.4 328.4,485.4 340.9,485.4 353.5,496.4 366.0,496.7 378.5,491.0 391.1,491.0 403.6,491.0 416.2,491.7 428.7,491.8 441.3,494.0 453.8,494.0 466.4,494.4 478.9,494.4 491.5,494.4 504.0,494.4 516.5,507.6 529.1,507.6 541.6,507.9 554.2,507.9 566.7,507.9 579.3,506.3 591.8,506.4 604.4,506.8 616.9,506.9 629.5,506.8 642.0,507.5 654.5,507.5 667.1,507.5 679.6,507.5 692.2,507.5 704.7,507.5 717.3,507.5 729.8,507.5 742.4,507.5 754.9,507.5 767.5,510.9 780.0,514.2 780.0,650.0 767.5,650.0 754.9,650.0 742.4,650.0 729.8,650.0 717.3,650.0 704.7,650.0 692.2,650.0 679.6,650.0 667.1,650.0 654.5,650.0 642.0,650.0 629.5,650.0 616.9,650.0 604.4,650.0 591.8,650.0 579.3,650.0 566.7,650.0 554.2,650.0 541.6,650.0 529.1,650.0 516.5,650.0 504.0,650.0 491.5,650.0 478.9,650.0 466.4,650.0 453.8,650.0 441.3,650.0 428.7,650.0 416.2,650.0 403.6,650.0 391.1,650.0 378.5,650.0 366.0,650.0 353.5,650.0 340.9,650.0 328.4,650.0 315.8,650.0 303.3,650.0 290.7,650.0 278.2,650.0 265.6,650.0 253.1,650.0 240.5,650.0 228.0,650.0 215.5,650.0 202.9,650.0 190.4,650.0 177.8,650.0 165.3,650.0 152.7,650.0 140.2,650.0 127.6,650.0 115.1,650.0 102.5,650.0 90.0,650.0" fill="#e34c26" opacity="0.6" class="anim" style="animation-delay:500ms;"/>
<polygon points="90.0,650.0 102.5,650.0 115.1,650.0 127.6,650.0 140.2,650.0 152.7,650.0 165.3,650.0 177.8,650.0 190.4,488.4 202.9,488.0 215.5,489.0 228.0,476.0 240.5,476.0 253.1,477.2 265.6,460.1 278.2,460.2 290.7,460.6 303.3,460.6 315.8,460.6 328.4,460.6 340.9,460.6 353.5,473.0 366.0,473.5 378.5,469.5 391.1,469.5 403.6,469.5 416.2,469.7 428.7,469.7 441.3,469.7 453.8,469.7 466.4,469.7 478.9,469.7 491.5,469.7 504.0,469.7 516.5,455.6 529.1,455.6 541.6,455.4 554.2,455.4 566.7,455.4 579.3,454.3 591.8,454.3 604.4,455.0 616.9,455.1 629.5,454.9 642.0,455.9 654.5,455.9 667.1,455.9 679.6,455.9 692.2,455.9 704.7,455.9 717.3,455.9 729.8,455.9 742.4,455.9 754.9,455.9 767.5,448.7 780.0,441.7 780.0,514.2 767.5,510.9 754.9,507.5 742.4,507.5 729.8,507.5 717.3,507.5 704.7,507.5 692.2,507.5 679.6,507.5 667.1,507.5 654.5,507.5 642.0,507.5 629.5,506.8 616.9,506.9 604.4,506.8 591.8,506.4 579.3,506.3 566.7,507.9 554.2,507.9 541.6,507.9 529.1,507.6 516.5,507.6 504.0,494.4 491.5,494.4 478.9,494.4 466.4,494.4 453.8,494.0 441.3,494.0 428.7,491.8 416.2,491.7 403.6,491.0 391.1,491.0 378.5,491.0 366.0,496.7 353.5,496.4 340.9,485.4 328.4,485.4 315.8,485.4 303.3,485.4 290.7,485.4 278.2,485.1 265.6,485.0 253.1,502.9 240.5,499.3 228.0,499.3 215.5,529.7 202.9,528.5 190.4,528.2 177.8,650.0 165.3,650.0 152.7,650.0 140.2,650.0 127.6,650.0 115.1,650.0 102.5,650.0 90.0,650.0" fill="#f1e05a" opacity="0.6" class="anim" style="animation-delay:600ms;"/>
<polygon points="90.0,650.0 102.5,650.0 115.1,650.0 127.6,650.0 140.2,650.0 152.7,650.0 165.3,650.0 177.8,650.0 190.4,455.5 202.9,455.4 215.5,455.1 228.0,447.0 240.5,447.0 253.1,448.2 265.6,438.9 278.2,439.0 290.7,439.6 303.3,439.6 315.8,439.6 328.4,439.6 340.9,439.6 353.5,445.6 366.0,445.6 378.5,443.3 391.1,443.3 403.6,443.3 416.2,443.6 428.7,443.6 441.3,444.1 453.8,444.1 466.4,444.1 478.9,444.1 491.5,444.1 504.0,444.1 516.5,437.5 529.1,437.5 541.6,437.5 554.2,437.5 566.7,437.5 579.3,437.5 591.8,437.5 604.4,438.4 616.9,438.5 629.5,438.3 642.0,439.3 654.5,439.3 667.1,439.3 679.6,439.3 692.2,439.3 704.7,439.3 717.3,439.3 729.8,439.3 742.4,439.3 754.9,439.3 767.5,436.8 780.0,434.2 780.0,441.7 767.5,448.7 754.9,455.9 742.4,455.9 729.8,455.9 717.3,455.9 704.7,455.9 692.2,455.9 679.6,455.9 667.1,455.9 654.5,455.9 642.0,455.9 629.5,454.9 616.9,455.1 604.4,455.0 591.8,454.3 579.3,454.3 566.7,455.4 554.2,455.4 541.6,455.4 529.1,455.6 516.5,455.6 504.0,469.7 491.5,469.7 478.9,469.7 466.4,469.7 453.8,469.7 441.3,469.7 428.7,469.7 416.2,469.7 403.6,469.5 391.1,469.5 378.5,469.5 366.0,473.5 353.5,473.0 340.9,460.6 328.4,460.6 315.8,460.6 303.3,460.6 290.7,460.6 278.2,460.2 265.6,460.1 253.1,477.2 240.5,476.0 228.0,476.0 215.5,489.0 202.9,488.0 190.4,488.4 177.8,650.0 165.3,650.0 152.7,650.0 140.2,650.0 127.6,650.0 115.1,650.0 102.5,650.0 90.0,650.0" fill="#3572A5" opacity="0.6" class="anim" style="animation-delay:700ms;"/>
<polygon points="90.0,650.0 102.5,650.0 115.1,650.0 127.6,650.0 140.2,650.0 152.7,650.0 165.3,650.0 177.8,650.0 190.4,442.3 202.9,442.0 215.5,441.6 228.0,439.5 240.5,439.5 253.1,439.4 265.6,432.3 278.2,432.2 290.7,432.6 303.3,432.6 315.8,432.6 328.4,432.6 340.9,432.6 353.5,439.3 366.0,439.3 378.5,437.4 391.1,437.4 403.6,437.4 416.2,437.3 428.7,437.3 441.3,437.1 453.8,437.1 466.4,437.1 478.9,437.1 491.5,437.1 504.0,437.1 516.5,428.7 529.1,428.6 541.6,428.5 554.2,428.5 566.7,428.5 579.3,427.3 591.8,427.3 604.4,427.1 616.9,427.1 629.5,427.1 642.0,427.0 654.5,427.0 667.1,427.0 679.6,427.0 692.2,427.0 704.7,427.0 717.3,427.0 729.8,427.0 742.4,427.0 754.9,427.0 767.5,423.1 780.0,419.2 780.0,434.2 767.5,436.8 754.9,439.3 742.4,439.3 729.8,439.3 717.3,439.3 704.7,439.3 692.2,439.3 679.6,439.3 667.1,439.3 654.5,439.3 642.0,439.3 629.5,438.3 616.9,438.5 604.4,438.4 591.8,437.5 579.3,437.5 566.7,437.5 554.2,437.5 541.6,437.5 529.1,437.5 516.5,437.5 504.0,444.1 491.5,444.1 478.9,444.1 466.4,444.1 453.8,444.1 441.3,444.1 428.7,443.6 416.2,443.6 403.6,443.3 391.1,443.3 378.5,443.3 366.0,445.6 353.5,445.6 340.9,439.6 328.4,439.6 315.8,439.6 303.3,439.6 290.7,439.6 278.2,439.0 265.6,438.9 253.1,448.2 240.5,447.0 228.0,447.0 215.5,455.1 202.9,455.4 190.4,455.5 177.8,650.0 165.3,650.0 152.7,650.0 140.2,650.0 127.6,650.0 115.1,650.0 102.5,650.0 90.0,650.0" fill="#663399" opacity="0.6" class="anim" style="animation-delay:800ms;"/>
<polygon points="90.0,650.0 102.5,650.0 115.1,650.0 127.6,650.0 140.2,650.0 152.7,650.0 165.3,650.0 177.8,650.0 190.4,436.6 202.9,436.3 215.5,435.9 228.0,432.2 240.5,432.2 253.1,432.2 265.6,426.2 278.2,426.1 290.7,426.0 303.3,426.0 315.8,426.0 328.4,426.0 340.9,426.0 353.5,430.8 366.0,430.7 378.5,429.3 391.1,429.3 403.6,429.3 416.2,429.2 428.7,429.2 441.3,428.9 453.8,428.9 466.4,428.8 478.9,428.8 491.5,428.8 504.0,428.8 516.5,423.0 529.1,422.9 541.6,422.9 554.2,422.9 566.7,422.9 579.3,422.0 591.8,422.0 604.4,421.9 616.9,421.9 629.5,421.9 642.0,421.8 654.5,421.8 667.1,421.8 679.6,421.8 692.2,421.8 704.7,421.8 717.3,421.8 729.8,421.8 742.4,421.8 754.9,421.8 767.5,418.6 780.0,415.4 780.0,419.2 767.5,423.1 754.9,427.0 742.4,427.0 729.8,427.0 717.3,427.0 704.7,427.0 692.2,427.0 679.6,427.0 667.1,427.0 654.5,427.0 642.0,427.0 629.5,427.1 616.9,427.1 604.4,427.1 591.8,427.3 579.3,427.3 566.7,428.5 554.2,428.5 541.6,428.5 529.1,428.6 516.5,428.7 504.0,437.1 491.5,437.1 478.9,437.1 466.4,437.1 453.8,437.1 441.3,437.1 428.7,437.3 416.2,437.3 403.6,437.4 391.1,437.4 378.5,437.4 366.0,439.3 353.5,439.3 340.9,432.6 328.4,432.6 315.8,432.6 303.3,432.6 290.7,432.6 278.2,432.2 265.6,432.3 253.1,439.4 240.5,439.5 228.0,439.5 215.5,441.6 202.9,442.0 190.4,442.3 177.8,650.0 165.3,650.0 152.7,650.0 140.2,650.0 127.6,650.0 115.1,650.0 102.5,650.0 90.0,650.0" fill="#083fa1" opacity="0.6" class="anim" style="animation-delay:900ms;"/>
<polygon points="90.0,650.0 102.5,650.0 115.1,650.0 127.6,650.0 140.2,650.0 152.7,650.0 165.3,650.0 177.8,650.0 190.4,427.0 202.9,426.8 215.5,426.6 228.0,424.2 240.5,424.2 253.1,424.2 265.6,420.4 278.2,420.3 290.7,420.3 303.3,420.3 315.8,420.3 328.4,420.3 340.9,420.3 353.5,423.3 366.0,423.2 378.5,422.4 391.1,422.4 403.6,422.4 416.2,422.3 428.7,422.3 441.3,422.1 453.8,422.1 466.4,422.1 478.9,422.1 491.5,422.1 504.0,422.1 516.5,418.3 529.1,418.3 541.6,418.2 554.2,418.2 566.7,418.2 579.3,417.7 591.8,417.7 604.4,417.6 616.9,417.6 629.5,417.6 642.0,417.6 654.5,417.6 667.1,417.6 679.6,417.6 692.2,417.6 704.7,417.6 717.3,417.6 729.8,417.6 742.4,417.6 754.9,417.6 767.5,415.7 780.0,413.9 780.0,415.4 767.5,418.6 754.9,421.8 742.4,421.8 729.8,421.8 717.3,421.8 704.7,421.8 692.2,421.8 679.6,421.8 667.1,421.8 654.5,421.8 642.0,421.8 629.5,421.9 616.9,421.9 604.4,421.9 591.8,422.0 579.3,422.0 566.7,422.9 554.2,422.9 541.6,422.9 529.1,422.9 516.5,423.0 504.0,428.8 491.5,428.8 478.9,428.8 466.4,428.8 453.8,428.9 441.3,428.9 428.7,429.2 416.2,429.2 403.6,429.3 391.1,429.3 378.5,429.3 366.0,430.7 353.5,430.8 340.9,426.0 328.4,426.0 315.8,426.0 303.3,426.0 290.7,426.0 278.2,426.1 265.6,426.2 253.1,432.2 240.5,432.2 228.0,432.2 215.5,435.9 202.9,436.3 190.4,436.6 177.8,650.0 165.3,650.0 152.7,650.0 140.2,650.0 127.6,650.0 115.1,650.0 102.5,650.0 90.0,650.0" fill="#6E4C13" opacity="0.6" class="anim" style="animation-delay:1000ms;"/>
<polygon points="90.0,650.0 102.5,650.0 115.1,650.0 127.6,650.0 140.2,650.0 152.7,650.0 165.3,650.0 177.8,650.0 190.4,418.7 202.9,418.6 215.5,418.5 228.0,417.3 240.5,417.3 253.1,417.2 265.6,415.3 278.2,415.3 290.7,415.2 303.3,415.2 315.8,415.2 328.4,415.2 340.9,415.2 353.5,416.8 366.0,416.8 378.5,416.3 391.1,416.3 403.6,416.3 416.2,416.3 428.7,416.3 441.3,416.2 453.8,416.2 466.4,416.2 478.9,416.2 491.5,416.2 504.0,416.2 516.5,414.2 529.1,414.2 541.6,414.2 554.2,414.2 566.7,414.2 579.3,413.9 591.8,413.9 604.4,413.9 616.9,413.9 629.5,413.9 642.0,413.9 654.5,413.9 667.1,413.9 679.6,413.9 692.2,413.9 704.7,413.9 717.3,413.9 729.8,413.9 742.4,413.9 754.9,413.9 767.5,413.2 780.0,412.6 780.0,413.9 767.5,415.7 754.9,417.6 742.4,417.6 729.8,417.6 717.3,417.6 704.7,417.6 692.2,417.6 679.6,417.6 667.1,417.6 654.5,417.6 642.0,417.6 629.5,417.6 616.9,417.6 604.4,417.6 591.8,417.7 579.3,417.7 566.7,418.2 554.2,418.2 541.6,418.2 529.1,418.3 516.5,418.3 504.0,422.1 491.5,422.1 478.9,422.1 466.4,422.1 453.8,422.1 441.3,422.1 428.7,422.3 416.2,422.3 403.6,422.4 391.1,422.4 378.5,422.4 366.0,423.2 353.5,423.3 340.9,420.3 328.4,420.3 315.8,420.3 303.3,420.3 290.7,420.3 278.2,420.3 265.6,420.4 253.1,424.2 240.5,424.2 228.0,424.2 215.5,426.6 202.9,426.8 190.4,427.0 177.8,650.0 165.3,650.0 152.7,650.0 140.2,650.0 127.6,650.0 115.1,650.0 102.5,650.0 90.0,650.0" fill="#F05138" opacity="0.6" class="anim" style="animation-delay:1100ms;"/>
<polygon points="90.0,650.0 102.5,650.0 115.1,650.0 127.6,650.0 140.2,650.0 152.7,650.0 165.3,650.0 177.8,650.0 190.4,414.4 202.9,414.4 215.5,414.3 228.0,413.7 240.5,413.7 253.1,413.7 265.6,412.7 278.2,412.7 290.7,412.7 303.3,412.7 315.8,412.7 328.4,412.7 340.9,412.7 353.5,413.5 366.0,413.4 378.5,413.2 391.1,413.2 403.6,413.2 416.2,413.2 428.7,413.2 441.3,413.1 453.8,413.1 466.4,413.1 478.9,413.1 491.5,413.1 504.0,413.1 516.5,412.2 529.1,412.1 541.6,412.1 554.2,412.1 566.7,412.1 579.3,412.0 591.8,412.0 604.4,412.0 616.9,412.0 629.5,412.0 642.0,412.0 654.5,412.0 667.1,412.0 679.6,412.0 692.2,412.0 704.7,412.0 717.3,412.0 729.8,412.0 742.4,412.0 754.9,412.0 767.5,412.0 780.0,412.0 780.0,412.6 767.5,413.2 754.9,413.9 742.4,413.9 729.8,413.9 717.3,413.9 704.7,413.9 692.2,413.9 679.6,413.9 667.1,413.9 654.5,413.9 642.0,413.9 629.5,413.9 616.9,413.9 604.4,413.9 591.8,413.9 579.3,413.9 566.7,414.2 554.2,414.2 541.6,414.2 529.1,414.2 516.5,414.2 504.0,416.2 491.5,416.2 478.9,416.2 466.4,416.2 453.8,416.2 441.3,416.2 428.7,416.3 416.2,416.3 403.6,416.3 391.1,416.3 378.5,416.3 366.0,416.8 353.5,416.8 340.9,415.2 328.4,415.2 315.8,415.2 303.3,415.2 290.7,415.2 278.2,415.3 265.6,415.3 253.1,417.2 240.5,417.3 228.0,417.3 215.5,418.5 202.9,418.6 190.4,418.7 177.8,650.0 165.3,650.0 152.7,650.0 140.2,650.0 127.6,650.0 115.1,650.0 102.5,650.0 90.0,650.0" fill="#b07219" opacity="0.6" class="anim" style="animation-delay:1200ms;"/>
<line x1="754.9" y1="100" x2="754.9" y2="650" stroke="#c9d1d9" stroke-width="1" stroke-dasharray="4,3" opacity="0.35"/>
<text x="767.5" y="112" text-anchor="middle" class="axis-label" opacity="0.6">Apr 14, 2026</text>
<text x="90.0" y="668" text-anchor="middle" class="axis-label" transform="rotate(-35 90.0 668)">2026-02</text>
<text x="391.1" y="668" text-anchor="middle" class="axis-label" transform="rotate(-35 391.1 668)">2026-03</text>
<text x="767.5" y="668" text-anchor="middle" class="axis-label" transform="rotate(-35 767.5 668)">Apr 14, 2026</text>
<line x1="796" y1="110" x2="824" y2="110" stroke="#3fb950" stroke-width="2"/>
<text x="832" y="116" class="legend-text">Lines Added</text>
<line x1="796" y1="140" x2="824" y2="140" stroke="#f85149" stroke-width="1.5"/>
<text x="832" y="146" class="legend-text">Lines Deleted</text>
<line x1="796" y1="170" x2="824" y2="170" stroke="#e3b341" stroke-width="1.5" stroke-dasharray="4,3"/>
<text x="832" y="176" class="legend-text">&#x2605; Stars</text>
<text x="796" y="200" class="subtitle">Languages</text>
<rect x="796" y="212" width="12" height="12" rx="2" fill="#e34c26" opacity="0.8" class="anim" style="animation-delay:800ms;"/>
<text x="814" y="223" class="legend-text">HTML (59%→57%)</text>
<rect x="796" y="234" width="12" height="12" rx="2" fill="#f1e05a" opacity="0.8" class="anim" style="animation-delay:880ms;"/>
<text x="814" y="245" class="legend-text">JavaScript (22%→30%)</text>
<rect x="796" y="256" width="12" height="12" rx="2" fill="#3572A5" opacity="0.8" class="anim" style="animation-delay:960ms;"/>
<text x="814" y="267" class="legend-text">Python (7%→3%)</text>
<rect x="796" y="278" width="12" height="12" rx="2" fill="#663399" opacity="0.8" class="anim" style="animation-delay:1040ms;"/>
<text x="814" y="289" class="legend-text">CSS (5%→6%)</text>
<rect x="796" y="300" width="12" height="12" rx="2" fill="#083fa1" opacity="0.8" class="anim" style="animation-delay:1120ms;"/>
<text x="814" y="311" class="legend-text">Markdown (2%→2%)</text>
<rect x="796" y="322" width="12" height="12" rx="2" fill="#6E4C13" opacity="0.8" class="anim" style="animation-delay:1200ms;"/>
<text x="814" y="333" class="legend-text">Assembly (2%→1%)</text>
<rect x="796" y="344" width="12" height="12" rx="2" fill="#F05138" opacity="0.8" class="anim" style="animation-delay:1280ms;"/>
<text x="814" y="355" class="legend-text">Swift (2%→1%)</text>
<rect x="796" y="366" width="12" height="12" rx="2" fill="#b07219" opacity="0.8" class="anim" style="animation-delay:1360ms;"/>
<text x="814" y="377" class="legend-text">Java (1%→0%)</text>
<text x="796" y="412" class="subtitle">Contributions</text>
<text x="796" y="432" class="axis-label">2023: 39</text>
<text x="796" y="452" class="axis-label">2024: 646</text>
<text x="796" y="472" class="axis-label">2025: 1,780</text>
<text x="796" y="492" class="axis-label">2026: 400</text>
<text x="796" y="522" class="subtitle">Statistics</text>
<text x="796" y="542" class="axis-label">Active weeks: 80</text>
<text x="796" y="562" class="axis-label">Add/Del ratio: 1.6x</text>
<text x="796" y="582" class="axis-label">Avg lines/wk: 19K</text>
<text x="796" y="602" class="axis-label">Peak: 2026-02-15</text>
<text x="796" y="622" class="axis-label">  (543K lines)</text>
<text x="90" y="742" class="axis-label">Total: +922,390 / -572,555 lines &#xb7; 2,865 contributions &#xb7; 77 repos &#xb7; &#x2605; 35</text>
</svg>