<svg xmlns="http://www.w3.org/2000/svg" width="1000" height="760" viewBox="0 0 1000 760">

<defs>
  <linearGradient id="areaGrad" x1="0" y1="0" x2="0" y2="1">
    <stop offset="0%" stop-color="#58a6ff" stop-opacity="0.35"/>
    <stop offset="100%" stop-color="#58a6ff" stop-opacity="0.02"/>
  </linearGradient>
  <linearGradient id="addGrad" x1="0" y1="0" x2="0" y2="1">
    <stop offset="0%" stop-color="#3fb950" stop-opacity="0.35"/>
    <stop offset="100%" stop-color="#3fb950" stop-opacity="0.02"/>
  </linearGradient>
  <linearGradient id="delGrad" x1="0" y1="0" x2="0" y2="1">
    <stop offset="0%" stop-color="#f85149" stop-opacity="0.25"/>
    <stop offset="100%" stop-color="#f85149" stop-opacity="0.02"/>
  </linearGradient>
</defs>
<style>
  .title { font: bold 16px 'Segoe UI', Ubuntu, Sans-Serif; fill: #c9d1d9; }
  .subtitle { font: 600 12px 'Segoe UI', Ubuntu, Sans-Serif; fill: #c9d1d9; opacity: 0.8; }
  .axis-label { font: 11px 'Segoe UI', Ubuntu, Sans-Serif; fill: #c9d1d9; opacity: 0.7; }
  .legend-text { font: 12px 'Segoe UI', Ubuntu, Sans-Serif; fill: #c9d1d9; }
  .value-text { font: bold 11px 'Segoe UI', Ubuntu, Sans-Serif; fill: #c9d1d9; }
  .stat-value { font: bold 13px 'Segoe UI', Ubuntu, Sans-Serif; fill: #c9d1d9; }
  .stat-label { font: 11px 'Segoe UI', Ubuntu, Sans-Serif; fill: #c9d1d9; opacity: 0.7; }
  @keyframes fadeIn { from { opacity: 0; } to { opacity: 1; } }
  .anim { animation: fadeIn 0.6s ease-in-out forwards; opacity: 0; }
</style>

<rect x="0.5" y="0.5" rx="4.5" width="999" height="759" fill="#161b22" stroke="#21262d"/>
<text x="65" y="30" class="title">Activity History</text>
<text x="65" y="48" class="subtitle">Lines added vs deleted &amp; activity trends over time</text>
<line x1="65" y1="240.0" x2="820" y2="240.0" stroke="#21262d" stroke-width="1"/>
<text x="57" y="244.0" text-anchor="end" class="axis-label">0</text>
<line x1="65" y1="195.0" x2="820" y2="195.0" stroke="#21262d" stroke-width="1"/>
<text x="57" y="199.0" text-anchor="end" class="axis-label">312,736</text>
<line x1="65" y1="150.0" x2="820" y2="150.0" stroke="#21262d" stroke-width="1"/>
<text x="57" y="154.0" text-anchor="end" class="axis-label">625,473</text>
<line x1="65" y1="105.0" x2="820" y2="105.0" stroke="#21262d" stroke-width="1"/>
<text x="57" y="109.0" text-anchor="end" class="axis-label">938,210</text>
<line x1="65" y1="60.0" x2="820" y2="60.0" stroke="#21262d" stroke-width="1"/>
<text x="57" y="64.0" text-anchor="end" class="axis-label">1,250,946</text>
<polygon points="65.0,240.0 65.0,187.5 97.8,189.4 130.7,187.5 163.5,189.4 196.3,201.5 229.1,177.4 262.0,177.4 294.8,168.3 327.6,168.0 360.4,167.4 393.3,167.4 426.1,151.2 458.9,151.2 491.7,151.1 524.6,127.2 557.4,126.9 590.2,126.6 623.0,126.6 655.9,126.6 688.7,126.6 721.5,126.6 754.3,126.0 787.2,126.0 820.0,126.2 820.0,240.0" fill="url(#addGrad)" class="anim" style="animation-delay:200ms;"/>
<polyline points="65.0,187.5 97.8,189.4 130.7,187.5 163.5,189.4 196.3,201.5 229.1,177.4 262.0,177.4 294.8,168.3 327.6,168.0 360.4,167.4 393.3,167.4 426.1,151.2 458.9,151.2 491.7,151.1 524.6,127.2 557.4,126.9 590.2,126.6 623.0,126.6 655.9,126.6 688.7,126.6 721.5,126.6 754.3,126.0 787.2,126.0" fill="none" stroke="#3fb950" stroke-width="2" stroke-linejoin="round" class="anim" style="animation-delay:250ms;"/>
<polyline points="787.2,126.0 820.0,126.2" fill="none" stroke="#3fb950" stroke-width="1.5" stroke-dasharray="5,4" stroke-linejoin="round" opacity="0.6" class="anim" style="animation-delay:250ms;"/>
<polygon points="65.0,240.0 65.0,225.2 97.8,226.8 130.7,225.2 163.5,226.7 196.3,233.1 229.1,223.4 262.0,223.4 294.8,222.4 327.6,222.0 360.4,221.7 393.3,221.7 426.1,204.3 458.9,204.3 491.7,204.2 524.6,184.5 557.4,184.4 590.2,184.3 623.0,184.3 655.9,184.3 688.7,184.3 721.5,184.3 754.3,174.0 787.2,174.0 820.0,177.5 820.0,240.0" fill="url(#delGrad)" class="anim" style="animation-delay:300ms;"/>
<polyline points="65.0,225.2 97.8,226.8 130.7,225.2 163.5,226.7 196.3,233.1 229.1,223.4 262.0,223.4 294.8,222.4 327.6,222.0 360.4,221.7 393.3,221.7 426.1,204.3 458.9,204.3 491.7,204.2 524.6,184.5 557.4,184.4 590.2,184.3 623.0,184.3 655.9,184.3 688.7,184.3 721.5,184.3 754.3,174.0 787.2,174.0" fill="none" stroke="#f85149" stroke-width="1.5" stroke-linejoin="round" class="anim" style="animation-delay:350ms;"/>
<polyline points="787.2,174.0 820.0,177.5" fill="none" stroke="#f85149" stroke-width="1" stroke-dasharray="5,4" stroke-linejoin="round" opacity="0.6" class="anim" style="animation-delay:350ms;"/>
<polyline points="65.0,240.0 97.8,240.0 130.7,240.0 163.5,240.0 196.3,240.0 229.1,240.0 262.0,240.0 294.8,240.0 327.6,96.0 360.4,96.0 393.3,96.0 426.1,96.0 458.9,96.0 491.7,96.0 524.6,96.0 557.4,96.0 590.2,96.0 623.0,96.0 655.9,96.0 688.7,96.0 721.5,96.0 754.3,96.0 787.2,96.0" fill="none" stroke="#e3b341" stroke-width="1.5" stroke-dasharray="4,3" stroke-linejoin="round" class="anim" style="animation-delay:400ms;"/>
<polyline points="787.2,96.0 820.0,96.0" fill="none" stroke="#e3b341" stroke-width="1" stroke-dasharray="3,5" stroke-linejoin="round" opacity="0.5" class="anim" style="animation-delay:400ms;"/>
<text x="65" y="54" class="subtitle">Lines Added vs Deleted (per snapshot)</text>
<text x="65" y="294" class="subtitle">Programming Language Development (%)</text>
<line x1="65" y1="480.0" x2="820" y2="480.0" stroke="#21262d" stroke-width="1"/>
<text x="57" y="484.0" text-anchor="end" class="axis-label">0%</text>
<line x1="65" y1="435.0" x2="820" y2="435.0" stroke="#21262d" stroke-width="1"/>
<text x="57" y="439.0" text-anchor="end" class="axis-label">25%</text>
<line x1="65" y1="390.0" x2="820" y2="390.0" stroke="#21262d" stroke-width="1"/>
<text x="57" y="394.0" text-anchor="end" class="axis-label">50%</text>
<line x1="65" y1="345.0" x2="820" y2="345.0" stroke="#21262d" stroke-width="1"/>
<text x="57" y="349.0" text-anchor="end" class="axis-label">75%</text>
<line x1="65" y1="300.0" x2="820" y2="300.0" stroke="#21262d" stroke-width="1"/>
<text x="57" y="304.0" text-anchor="end" class="axis-label">100%</text>
<polygon points="65.0,480.0 97.8,480.0 130.7,480.0 163.5,480.0 196.3,480.0 229.1,480.0 262.0,480.0 294.8,480.0 327.6,388.6 360.4,388.8 393.3,389.8 426.1,366.9 458.9,366.9 491.7,369.6 524.6,356.3 557.4,356.3 590.2,356.5 623.0,356.5 655.9,356.5 688.7,356.5 721.5,356.5 754.3,364.8 787.2,364.8 820.0,364.8 820.0,480.0 787.2,480.0 754.3,480.0 721.5,480.0 688.7,480.0 655.9,480.0 623.0,480.0 590.2,480.0 557.4,480.0 524.6,480.0 491.7,480.0 458.9,480.0 426.1,480.0 393.3,480.0 360.4,480.0 327.6,480.0 294.8,480.0 262.0,480.0 229.1,480.0 196.3,480.0 163.5,480.0 130.7,480.0 97.8,480.0 65.0,480.0" fill="#e34c26" opacity="0.6" class="anim" style="animation-delay:500ms;"/>
<polygon points="65.0,480.0 97.8,480.0 130.7,480.0 163.5,480.0 196.3,480.0 229.1,480.0 262.0,480.0 294.8,480.0 327.6,358.8 360.4,358.5 393.3,359.2 426.1,349.5 458.9,349.5 491.7,350.4 524.6,337.6 557.4,337.6 590.2,338.0 623.0,338.0 655.9,338.0 688.7,338.0 721.5,338.0 754.3,347.2 787.2,347.3 820.0,347.3 820.0,364.8 787.2,364.8 754.3,364.8 721.5,356.5 688.7,356.5 655.9,356.5 623.0,356.5 590.2,356.5 557.4,356.3 524.6,356.3 491.7,369.6 458.9,366.9 426.1,366.9 393.3,389.8 360.4,388.8 327.6,388.6 294.8,480.0 262.0,480.0 229.1,480.0 196.3,480.0 163.5,480.0 130.7,480.0 97.8,480.0 65.0,480.0" fill="#f1e05a" opacity="0.6" class="anim" style="animation-delay:600ms;"/>
<polygon points="65.0,480.0 97.8,480.0 130.7,480.0 163.5,480.0 196.3,480.0 229.1,480.0 262.0,480.0 294.8,480.0 327.6,334.2 360.4,334.0 393.3,333.9 426.1,327.7 458.9,327.7 491.7,328.6 524.6,321.7 557.4,321.7 590.2,322.2 623.0,322.2 655.9,322.2 688.7,322.2 721.5,322.2 754.3,326.7 787.2,326.7 820.0,326.7 820.0,347.3 787.2,347.3 754.3,347.2 721.5,338.0 688.7,338.0 655.9,338.0 623.0,338.0 590.2,338.0 557.4,337.6 524.6,337.6 491.7,350.4 458.9,349.5 426.1,349.5 393.3,359.2 360.4,358.5 327.6,358.8 294.8,480.0 262.0,480.0 229.1,480.0 196.3,480.0 163.5,480.0 130.7,480.0 97.8,480.0 65.0,480.0" fill="#3572A5" opacity="0.6" class="anim" style="animation-delay:700ms;"/>
<polygon points="65.0,480.0 97.8,480.0 130.7,480.0 163.5,480.0 196.3,480.0 229.1,480.0 262.0,480.0 294.8,480.0 327.6,324.2 360.4,324.0 393.3,323.7 426.1,322.1 458.9,322.1 491.7,322.1 524.6,316.7 557.4,316.6 590.2,316.9 623.0,316.9 655.9,316.9 688.7,316.9 721.5,316.9 754.3,322.0 787.2,322.0 820.0,322.0 820.0,326.7 787.2,326.7 754.3,326.7 721.5,322.2 688.7,322.2 655.9,322.2 623.0,322.2 590.2,322.2 557.4,321.7 524.6,321.7 491.7,328.6 458.9,327.7 426.1,327.7 393.3,333.9 360.4,334.0 327.6,334.2 294.8,480.0 262.0,480.0 229.1,480.0 196.3,480.0 163.5,480.0 130.7,480.0 97.8,480.0 65.0,480.0" fill="#663399" opacity="0.6" class="anim" style="animation-delay:800ms;"/>
<polygon points="65.0,480.0 97.8,480.0 130.7,480.0 163.5,480.0 196.3,480.0 229.1,480.0 262.0,480.0 294.8,480.0 327.6,317.0 360.4,316.9 393.3,316.7 426.1,316.1 458.9,316.1 491.7,316.1 524.6,312.3 557.4,312.3 590.2,312.6 623.0,312.6 655.9,312.6 688.7,312.6 721.5,312.6 754.3,316.4 787.2,316.4 820.0,316.4 820.0,322.0 787.2,322.0 754.3,322.0 721.5,316.9 688.7,316.9 655.9,316.9 623.0,316.9 590.2,316.9 557.4,316.6 524.6,316.7 491.7,322.1 458.9,322.1 426.1,322.1 393.3,323.7 360.4,324.0 327.6,324.2 294.8,480.0 262.0,480.0 229.1,480.0 196.3,480.0 163.5,480.0 130.7,480.0 97.8,480.0 65.0,480.0" fill="#6E4C13" opacity="0.6" class="anim" style="animation-delay:900ms;"/>
<polygon points="65.0,480.0 97.8,480.0 130.7,480.0 163.5,480.0 196.3,480.0 229.1,480.0 262.0,480.0 294.8,480.0 327.6,312.7 360.4,312.6 393.3,312.4 426.1,310.7 458.9,310.7 491.7,310.6 524.6,307.8 557.4,307.7 590.2,307.7 623.0,307.7 655.9,307.7 688.7,307.7 721.5,307.7 754.3,310.0 787.2,310.0 820.0,310.0 820.0,316.4 787.2,316.4 754.3,316.4 721.5,312.6 688.7,312.6 655.9,312.6 623.0,312.6 590.2,312.6 557.4,312.3 524.6,312.3 491.7,316.1 458.9,316.1 426.1,316.1 393.3,316.7 360.4,316.9 327.6,317.0 294.8,480.0 262.0,480.0 229.1,480.0 196.3,480.0 163.5,480.0 130.7,480.0 97.8,480.0 65.0,480.0" fill="#083fa1" opacity="0.6" class="anim" style="animation-delay:1000ms;"/>
<polygon points="65.0,480.0 97.8,480.0 130.7,480.0 163.5,480.0 196.3,480.0 229.1,480.0 262.0,480.0 294.8,480.0 327.6,306.5 360.4,306.5 393.3,306.4 426.1,305.4 458.9,305.4 491.7,305.4 524.6,304.0 557.4,304.0 590.2,303.9 623.0,303.9 655.9,303.9 688.7,303.9 721.5,303.9 754.3,305.1 787.2,305.1 820.0,305.1 820.0,310.0 787.2,310.0 754.3,310.0 721.5,307.7 688.7,307.7 655.9,307.7 623.0,307.7 590.2,307.7 557.4,307.7 524.6,307.8 491.7,310.6 458.9,310.7 426.1,310.7 393.3,312.4 360.4,312.6 327.6,312.7 294.8,480.0 262.0,480.0 229.1,480.0 196.3,480.0 163.5,480.0 130.7,480.0 97.8,480.0 65.0,480.0" fill="#F05138" opacity="0.6" class="anim" style="animation-delay:1100ms;"/>
<polygon points="65.0,480.0 97.8,480.0 130.7,480.0 163.5,480.0 196.3,480.0 229.1,480.0 262.0,480.0 294.8,480.0 327.6,303.3 360.4,303.3 393.3,303.2 426.1,302.8 458.9,302.8 491.7,302.8 524.6,302.0 557.4,302.0 590.2,302.0 623.0,302.0 655.9,302.0 688.7,302.0 721.5,302.0 754.3,302.6 787.2,302.6 820.0,302.6 820.0,305.1 787.2,305.1 754.3,305.1 721.5,303.9 688.7,303.9 655.9,303.9 623.0,303.9 590.2,303.9 557.4,304.0 524.6,304.0 491.7,305.4 458.9,305.4 426.1,305.4 393.3,306.4 360.4,306.5 327.6,306.5 294.8,480.0 262.0,480.0 229.1,480.0 196.3,480.0 163.5,480.0 130.7,480.0 97.8,480.0 65.0,480.0" fill="#b07219" opacity="0.6" class="anim" style="animation-delay:1200ms;"/>
<line x1="787.2" y1="60" x2="787.2" y2="480" stroke="#c9d1d9" stroke-width="1" stroke-dasharray="4,3" opacity="0.35"/>
<text x="820.0" y="72" text-anchor="middle" class="axis-label" opacity="0.6">Prognose</text>
<text x="65.0" y="498" text-anchor="middle" class="axis-label" transform="rotate(-35 65.0 498)">2026-02</text>
<text x="130.7" y="498" text-anchor="middle" class="axis-label" transform="rotate(-35 130.7 498)">2026-02</text>
<text x="196.3" y="498" text-anchor="middle" class="axis-label" transform="rotate(-35 196.3 498)">2026-02</text>
<text x="262.0" y="498" text-anchor="middle" class="axis-label" transform="rotate(-35 262.0 498)">2026-02</text>
<text x="327.6" y="498" text-anchor="middle" class="axis-label" transform="rotate(-35 327.6 498)">2026-02</text>
<text x="393.3" y="498" text-anchor="middle" class="axis-label" transform="rotate(-35 393.3 498)">2026-02</text>
<text x="458.9" y="498" text-anchor="middle" class="axis-label" transform="rotate(-35 458.9 498)">2026-02</text>
<text x="524.6" y="498" text-anchor="middle" class="axis-label" transform="rotate(-35 524.6 498)">2026-02</text>
<text x="590.2" y="498" text-anchor="middle" class="axis-label" transform="rotate(-35 590.2 498)">2026-02</text>
<text x="655.9" y="498" text-anchor="middle" class="axis-label" transform="rotate(-35 655.9 498)">2026-02</text>
<text x="721.5" y="498" text-anchor="middle" class="axis-label" transform="rotate(-35 721.5 498)">2026-02</text>
<text x="787.2" y="498" text-anchor="middle" class="axis-label" transform="rotate(-35 787.2 498)">2026-02</text>
<text x="820.0" y="498" text-anchor="middle" class="axis-label" transform="rotate(-35 820.0 498)">~2026-03</text>
<line x1="836" y1="70" x2="856" y2="70" stroke="#3fb950" stroke-width="2"/>
<text x="862" y="74" class="legend-text">Lines Added</text>
<line x1="836" y1="88" x2="856" y2="88" stroke="#f85149" stroke-width="1.5"/>
<text x="862" y="92" class="legend-text">Lines Deleted</text>
<line x1="836" y1="108" x2="856" y2="108" stroke="#e3b341" stroke-width="1.5" stroke-dasharray="4,3"/>
<text x="862" y="112" class="legend-text">&#x2605; Stars</text>
<text x="836" y="142" class="subtitle">Languages</text>
<rect x="836" y="153" width="12" height="12" rx="2" fill="#e34c26" opacity="0.8" class="anim" style="animation-delay:800ms;"/>
<text x="854" y="163" class="legend-text">HTML (64.0%)</text>
<rect x="836" y="175" width="12" height="12" rx="2" fill="#f1e05a" opacity="0.8" class="anim" style="animation-delay:880ms;"/>
<text x="854" y="185" class="legend-text">JavaScript (9.7%)</text>
<rect x="836" y="197" width="12" height="12" rx="2" fill="#3572A5" opacity="0.8" class="anim" style="animation-delay:960ms;"/>
<text x="854" y="207" class="legend-text">Python (11.4%)</text>
<rect x="836" y="219" width="12" height="12" rx="2" fill="#663399" opacity="0.8" class="anim" style="animation-delay:1040ms;"/>
<text x="854" y="229" class="legend-text">CSS (2.6%)</text>
<rect x="836" y="241" width="12" height="12" rx="2" fill="#6E4C13" opacity="0.8" class="anim" style="animation-delay:1120ms;"/>
<text x="854" y="251" class="legend-text">Assembly (3.1%)</text>
<rect x="836" y="263" width="12" height="12" rx="2" fill="#083fa1" opacity="0.8" class="anim" style="animation-delay:1200ms;"/>
<text x="854" y="273" class="legend-text">Markdown (3.5%)</text>
<rect x="836" y="285" width="12" height="12" rx="2" fill="#F05138" opacity="0.8" class="anim" style="animation-delay:1280ms;"/>
<text x="854" y="295" class="legend-text">Swift (2.7%)</text>
<rect x="836" y="307" width="12" height="12" rx="2" fill="#b07219" opacity="0.8" class="anim" style="animation-delay:1360ms;"/>
<text x="854" y="317" class="legend-text">Java (1.4%)</text>
<text x="836" y="358" class="subtitle">Contributions</text>
<text x="836" y="376" class="axis-label">2023: 39</text>
<text x="836" y="392" class="axis-label">2024: 646</text>
<text x="836" y="408" class="axis-label">2025: 1,780</text>
<text x="836" y="424" class="axis-label">2026: 301</text>
<text x="836" y="450" class="subtitle">Statistics</text>
<text x="836" y="468" class="axis-label">Active weeks: 76</text>
<text x="836" y="483" class="axis-label">Add/Del ratio: 1.7x</text>
<text x="836" y="498" class="axis-label">Avg lines/week: 16,460</text>
<text x="836" y="513" class="axis-label">Peak: 2026-02-15</text>
<text x="836" y="528" class="axis-label">  (542,929 lines)</text>
<text x="65" y="746" class="axis-label">Total: +792,537 / -458,409 lines &#xb7; 2,766 contributions &#xb7; 71 repos &#xb7; &#x2605; 33</text>
</svg>