<svg xmlns="http://www.w3.org/2000/svg" width="1000" height="760" style="max-width: 100%;" viewBox="0 0 1000 760">

<defs>
  <linearGradient id="areaGrad" x1="0" y1="0" x2="0" y2="1">
    <stop offset="0%" stop-color="#58a6ff" stop-opacity="0.35"/>
    <stop offset="100%" stop-color="#58a6ff" stop-opacity="0.02"/>
  </linearGradient>
  <linearGradient id="addGrad" x1="0" y1="0" x2="0" y2="1">
    <stop offset="0%" stop-color="#3fb950" stop-opacity="0.35"/>
    <stop offset="100%" stop-color="#3fb950" stop-opacity="0.02"/>
  </linearGradient>
  <linearGradient id="delGrad" x1="0" y1="0" x2="0" y2="1">
    <stop offset="0%" stop-color="#f85149" stop-opacity="0.25"/>
    <stop offset="100%" stop-color="#f85149" stop-opacity="0.02"/>
  </linearGradient>
</defs>
<style>
  .title { font: bold 28px 'Segoe UI', Ubuntu, Sans-Serif; fill: #c9d1d9; }
  .subtitle { font: 600 20px 'Segoe UI', Ubuntu, Sans-Serif; fill: #c9d1d9; opacity: 0.8; }
  .axis-label { font: 18px 'Segoe UI', Ubuntu, Sans-Serif; fill: #c9d1d9; opacity: 0.7; }
  .legend-text { font: 14px 'Segoe UI', Ubuntu, Sans-Serif; fill: #c9d1d9; }
  .value-text { font: bold 18px 'Segoe UI', Ubuntu, Sans-Serif; fill: #c9d1d9; }
  .stat-value { font: bold 22px 'Segoe UI', Ubuntu, Sans-Serif; fill: #c9d1d9; }
  .stat-label { font: 18px 'Segoe UI', Ubuntu, Sans-Serif; fill: #c9d1d9; opacity: 0.7; }
  @keyframes fadeIn { from { opacity: 0; } to { opacity: 1; } }
  .anim { animation: fadeIn 0.6s ease-in-out forwards; opacity: 0; }
</style>

<rect x="0.5" y="0.5" rx="4.5" width="999" height="759" fill="#161b22" stroke="#21262d"/>
<text x="90" y="45" class="title">Activity History</text>
<text x="90" y="72" class="subtitle">Lines added vs deleted &amp; activity trends over time</text>
<line x1="90" y1="340.0" x2="780" y2="340.0" stroke="#21262d" stroke-width="1"/>
<text x="82" y="344.0" text-anchor="end" class="axis-label">0</text>
<line x1="90" y1="280.0" x2="780" y2="280.0" stroke="#21262d" stroke-width="1"/>
<text x="82" y="284.0" text-anchor="end" class="axis-label">454K</text>
<line x1="90" y1="220.0" x2="780" y2="220.0" stroke="#21262d" stroke-width="1"/>
<text x="82" y="224.0" text-anchor="end" class="axis-label">908K</text>
<line x1="90" y1="160.0" x2="780" y2="160.0" stroke="#21262d" stroke-width="1"/>
<text x="82" y="164.0" text-anchor="end" class="axis-label">1.4M</text>
<line x1="90" y1="100.0" x2="780" y2="100.0" stroke="#21262d" stroke-width="1"/>
<text x="82" y="104.0" text-anchor="end" class="axis-label">1.8M</text>
<polygon points="90.0,340.0 90.0,291.8 95.7,293.5 101.4,291.8 107.1,293.5 112.8,304.6 118.5,282.5 124.2,282.5 129.9,274.2 135.6,273.9 141.3,273.3 147.0,273.3 152.7,258.4 158.4,258.4 164.1,258.4 169.8,236.4 175.5,236.1 181.2,235.8 186.9,235.8 192.6,235.8 198.3,235.8 204.0,235.8 209.8,235.3 215.5,220.6 221.2,220.5 226.9,220.5 232.6,220.5 238.3,220.2 244.0,220.2 249.7,219.5 255.4,219.5 261.1,219.5 266.8,219.5 272.5,219.5 278.2,219.5 283.9,219.5 289.6,219.5 295.3,219.5 301.0,219.5 306.7,219.5 312.4,219.5 318.1,219.5 323.8,218.8 329.5,219.1 335.2,218.4 340.9,218.1 346.6,218.1 352.3,218.1 358.0,218.1 363.7,218.1 369.4,218.1 375.1,218.0 380.8,218.0 386.5,218.0 392.2,218.1 397.9,218.4 403.6,219.8 409.3,218.4 415.0,217.1 420.7,217.1 426.4,217.1 432.1,217.1 437.9,217.1 443.6,209.5 449.3,202.6 455.0,202.6 460.7,202.6 466.4,202.6 472.1,202.6 477.8,202.6 483.5,202.6 489.2,202.6 494.9,202.5 500.6,202.5 506.3,202.5 512.0,202.5 517.7,202.5 523.4,202.5 529.1,202.5 534.8,202.5 540.5,202.5 546.2,202.5 551.9,202.5 557.6,202.5 563.3,202.5 569.0,202.5 574.7,202.5 580.4,202.5 586.1,202.5 591.8,202.5 597.5,202.5 603.2,202.5 608.9,202.5 614.6,202.5 620.3,202.5 626.0,202.5 631.7,202.5 637.4,202.5 643.1,202.5 648.8,202.5 654.5,202.5 660.2,202.5 666.0,202.5 671.7,202.5 677.4,202.5 683.1,202.5 688.8,202.5 694.5,202.5 700.2,202.5 705.9,202.5 711.6,202.5 717.3,202.5 723.0,202.5 728.7,202.5 734.4,202.5 740.1,202.5 745.8,202.5 751.5,202.5 757.2,202.5 762.9,202.5 768.6,202.5 774.3,194.5 780.0,186.5 780.0,340.0" fill="url(#addGrad)" class="anim" style="animation-delay:200ms;"/>
<polyline points="90.0,291.8 95.7,293.5 101.4,291.8 107.1,293.5 112.8,304.6 118.5,282.5 124.2,282.5 129.9,274.2 135.6,273.9 141.3,273.3 147.0,273.3 152.7,258.4 158.4,258.4 164.1,258.4 169.8,236.4 175.5,236.1 181.2,235.8 186.9,235.8 192.6,235.8 198.3,235.8 204.0,235.8 209.8,235.3 215.5,220.6 221.2,220.5 226.9,220.5 232.6,220.5 238.3,220.2 244.0,220.2 249.7,219.5 255.4,219.5 261.1,219.5 266.8,219.5 272.5,219.5 278.2,219.5 283.9,219.5 289.6,219.5 295.3,219.5 301.0,219.5 306.7,219.5 312.4,219.5 318.1,219.5 323.8,218.8 329.5,219.1 335.2,218.4 340.9,218.1 346.6,218.1 352.3,218.1 358.0,218.1 363.7,218.1 369.4,218.1 375.1,218.0 380.8,218.0 386.5,218.0 392.2,218.1 397.9,218.4 403.6,219.8 409.3,218.4 415.0,217.1 420.7,217.1 426.4,217.1 432.1,217.1 437.9,217.1 443.6,209.5 449.3,202.6 455.0,202.6 460.7,202.6 466.4,202.6 472.1,202.6 477.8,202.6 483.5,202.6 489.2,202.6 494.9,202.5 500.6,202.5 506.3,202.5 512.0,202.5 517.7,202.5 523.4,202.5 529.1,202.5 534.8,202.5 540.5,202.5 546.2,202.5 551.9,202.5 557.6,202.5 563.3,202.5 569.0,202.5 574.7,202.5 580.4,202.5 586.1,202.5 591.8,202.5 597.5,202.5 603.2,202.5 608.9,202.5 614.6,202.5 620.3,202.5 626.0,202.5 631.7,202.5 637.4,202.5 643.1,202.5 648.8,202.5 654.5,202.5 660.2,202.5 666.0,202.5 671.7,202.5 677.4,202.5 683.1,202.5 688.8,202.5 694.5,202.5 700.2,202.5 705.9,202.5 711.6,202.5 717.3,202.5 723.0,202.5 728.7,202.5 734.4,202.5 740.1,202.5 745.8,202.5 751.5,202.5 757.2,202.5 762.9,202.5 768.6,202.5" fill="none" stroke="#3fb950" stroke-width="2" stroke-linejoin="round" class="anim" style="animation-delay:250ms;"/>
<polyline points="768.6,202.5 774.3,194.5 780.0,186.5" fill="none" stroke="#3fb950" stroke-width="1.5" stroke-dasharray="5,4" stroke-linejoin="round" opacity="0.6" class="anim" style="animation-delay:250ms;"/>
<polygon points="90.0,340.0 90.0,326.4 95.7,327.8 101.4,326.4 107.1,327.8 112.8,333.6 118.5,324.8 124.2,324.8 129.9,323.8 135.6,323.5 141.3,323.2 147.0,323.2 152.7,307.2 158.4,307.2 164.1,307.1 169.8,289.0 175.5,288.9 181.2,288.9 186.9,288.9 192.6,288.9 198.3,288.9 204.0,288.9 209.8,279.4 215.5,265.0 221.2,264.9 226.9,264.9 232.6,264.9 238.3,264.8 244.0,264.8 249.7,264.8 255.4,264.7 261.1,264.7 266.8,264.7 272.5,264.7 278.2,264.7 283.9,264.8 289.6,264.7 295.3,264.7 301.0,264.7 306.7,264.7 312.4,264.7 318.1,264.7 323.8,264.7 329.5,264.8 335.2,264.3 340.9,264.3 346.6,264.3 352.3,264.3 358.0,264.3 363.7,264.3 369.4,264.3 375.1,264.3 380.8,264.3 386.5,264.3 392.2,264.3 397.9,264.4 403.6,265.2 409.3,264.7 415.0,263.9 420.7,263.8 426.4,263.8 432.1,263.8 437.9,263.8 443.6,263.8 449.3,263.8 455.0,263.8 460.7,263.8 466.4,263.8 472.1,263.8 477.8,263.8 483.5,263.8 489.2,263.8 494.9,263.8 500.6,263.8 506.3,263.8 512.0,263.8 517.7,263.8 523.4,263.8 529.1,263.8 534.8,263.8 540.5,263.8 546.2,263.8 551.9,263.8 557.6,263.8 563.3,263.8 569.0,263.8 574.7,263.8 580.4,263.8 586.1,263.8 591.8,263.8 597.5,263.8 603.2,263.8 608.9,263.8 614.6,263.8 620.3,263.8 626.0,263.8 631.7,263.8 637.4,263.8 643.1,263.8 648.8,263.8 654.5,263.8 660.2,263.8 666.0,263.8 671.7,263.8 677.4,263.8 683.1,263.8 688.8,263.8 694.5,263.8 700.2,263.8 705.9,263.8 711.6,263.8 717.3,263.8 723.0,263.8 728.7,263.8 734.4,263.8 740.1,263.8 745.8,263.8 751.5,263.8 757.2,263.8 762.9,263.8 768.6,263.8 774.3,258.6 780.0,253.5 780.0,340.0" fill="url(#delGrad)" class="anim" style="animation-delay:300ms;"/>
<polyline points="90.0,326.4 95.7,327.8 101.4,326.4 107.1,327.8 112.8,333.6 118.5,324.8 124.2,324.8 129.9,323.8 135.6,323.5 141.3,323.2 147.0,323.2 152.7,307.2 158.4,307.2 164.1,307.1 169.8,289.0 175.5,288.9 181.2,288.9 186.9,288.9 192.6,288.9 198.3,288.9 204.0,288.9 209.8,279.4 215.5,265.0 221.2,264.9 226.9,264.9 232.6,264.9 238.3,264.8 244.0,264.8 249.7,264.8 255.4,264.7 261.1,264.7 266.8,264.7 272.5,264.7 278.2,264.7 283.9,264.8 289.6,264.7 295.3,264.7 301.0,264.7 306.7,264.7 312.4,264.7 318.1,264.7 323.8,264.7 329.5,264.8 335.2,264.3 340.9,264.3 346.6,264.3 352.3,264.3 358.0,264.3 363.7,264.3 369.4,264.3 375.1,264.3 380.8,264.3 386.5,264.3 392.2,264.3 397.9,264.4 403.6,265.2 409.3,264.7 415.0,263.9 420.7,263.8 426.4,263.8 432.1,263.8 437.9,263.8 443.6,263.8 449.3,263.8 455.0,263.8 460.7,263.8 466.4,263.8 472.1,263.8 477.8,263.8 483.5,263.8 489.2,263.8 494.9,263.8 500.6,263.8 506.3,263.8 512.0,263.8 517.7,263.8 523.4,263.8 529.1,263.8 534.8,263.8 540.5,263.8 546.2,263.8 551.9,263.8 557.6,263.8 563.3,263.8 569.0,263.8 574.7,263.8 580.4,263.8 586.1,263.8 591.8,263.8 597.5,263.8 603.2,263.8 608.9,263.8 614.6,263.8 620.3,263.8 626.0,263.8 631.7,263.8 637.4,263.8 643.1,263.8 648.8,263.8 654.5,263.8 660.2,263.8 666.0,263.8 671.7,263.8 677.4,263.8 683.1,263.8 688.8,263.8 694.5,263.8 700.2,263.8 705.9,263.8 711.6,263.8 717.3,263.8 723.0,263.8 728.7,263.8 734.4,263.8 740.1,263.8 745.8,263.8 751.5,263.8 757.2,263.8 762.9,263.8 768.6,263.8" fill="none" stroke="#f85149" stroke-width="1.5" stroke-linejoin="round" class="anim" style="animation-delay:350ms;"/>
<polyline points="768.6,263.8 774.3,258.6 780.0,253.5" fill="none" stroke="#f85149" stroke-width="1" stroke-dasharray="5,4" stroke-linejoin="round" opacity="0.6" class="anim" style="animation-delay:350ms;"/>
<polyline points="90.0,340.0 95.7,340.0 101.4,340.0 107.1,340.0 112.8,340.0 118.5,340.0 124.2,340.0 129.9,340.0 135.6,308.0 141.3,308.0 147.0,308.0 152.7,308.0 158.4,308.0 164.1,308.0 169.8,308.0 175.5,308.0 181.2,308.0 186.9,308.0 192.6,308.0 198.3,308.0 204.0,308.0 209.8,308.0 215.5,308.0 221.2,308.0 226.9,308.0 232.6,308.0 238.3,308.0 244.0,308.0 249.7,308.0 255.4,308.0 261.1,308.0 266.8,308.0 272.5,308.0 278.2,308.0 283.9,276.0 289.6,276.0 295.3,276.0 301.0,276.0 306.7,276.0 312.4,276.0 318.1,276.0 323.8,276.0 329.5,244.0 335.2,244.0 340.9,244.0 346.6,244.0 352.3,244.0 358.0,244.0 363.7,244.0 369.4,244.0 375.1,244.0 380.8,244.0 386.5,244.0 392.2,244.0 397.9,244.0 403.6,244.0 409.3,244.0 415.0,244.0 420.7,180.0 426.4,180.0 432.1,180.0 437.9,180.0 443.6,180.0 449.3,180.0 455.0,180.0 460.7,180.0 466.4,180.0 472.1,180.0 477.8,180.0 483.5,180.0 489.2,180.0 494.9,180.0 500.6,180.0 506.3,180.0 512.0,180.0 517.7,180.0 523.4,180.0 529.1,180.0 534.8,180.0 540.5,180.0 546.2,180.0 551.9,180.0 557.6,180.0 563.3,180.0 569.0,180.0 574.7,180.0 580.4,180.0 586.1,180.0 591.8,180.0 597.5,180.0 603.2,180.0 608.9,180.0 614.6,180.0 620.3,180.0 626.0,180.0 631.7,180.0 637.4,180.0 643.1,180.0 648.8,180.0 654.5,180.0 660.2,180.0 666.0,180.0 671.7,180.0 677.4,180.0 683.1,180.0 688.8,180.0 694.5,180.0 700.2,180.0 705.9,180.0 711.6,180.0 717.3,180.0 723.0,180.0 728.7,180.0 734.4,180.0 740.1,180.0 745.8,180.0 751.5,180.0 757.2,180.0 762.9,180.0 768.6,180.0" fill="none" stroke="#e3b341" stroke-width="1.5" stroke-dasharray="4,3" stroke-linejoin="round" class="anim" style="animation-delay:400ms;"/>
<polyline points="768.6,180.0 774.3,180.0 780.0,148.0" fill="none" stroke="#e3b341" stroke-width="1" stroke-dasharray="3,5" stroke-linejoin="round" opacity="0.5" class="anim" style="animation-delay:400ms;"/>
<text x="90" y="90" class="subtitle">Lines Added vs Deleted (per snapshot)</text>
<text x="90" y="400" class="subtitle">Programming Language Development (%)</text>
<line x1="90" y1="650.0" x2="780" y2="650.0" stroke="#21262d" stroke-width="1"/>
<text x="82" y="654.0" text-anchor="end" class="axis-label">0%</text>
<line x1="90" y1="590.0" x2="780" y2="590.0" stroke="#21262d" stroke-width="1"/>
<text x="82" y="594.0" text-anchor="end" class="axis-label">25%</text>
<line x1="90" y1="530.0" x2="780" y2="530.0" stroke="#21262d" stroke-width="1"/>
<text x="82" y="534.0" text-anchor="end" class="axis-label">50%</text>
<line x1="90" y1="470.0" x2="780" y2="470.0" stroke="#21262d" stroke-width="1"/>
<text x="82" y="474.0" text-anchor="end" class="axis-label">75%</text>
<line x1="90" y1="410.0" x2="780" y2="410.0" stroke="#21262d" stroke-width="1"/>
<text x="82" y="414.0" text-anchor="end" class="axis-label">100%</text>
<polygon points="90.0,650.0 95.7,650.0 101.4,650.0 107.1,650.0 112.8,650.0 118.5,650.0 124.2,650.0 129.9,650.0 135.6,528.2 141.3,528.5 147.0,529.7 152.7,499.3 158.4,499.3 164.1,502.9 169.8,485.0 175.5,485.1 181.2,485.4 186.9,485.4 192.6,485.4 198.3,485.4 204.0,485.4 209.8,496.4 215.5,496.7 221.2,491.0 226.9,491.0 232.6,491.0 238.3,491.7 244.0,491.8 249.7,494.0 255.4,494.0 261.1,494.4 266.8,494.4 272.5,494.4 278.2,494.4 283.9,507.6 289.6,507.6 295.3,507.9 301.0,507.9 306.7,507.9 312.4,506.3 318.1,506.4 323.8,506.8 329.5,506.9 335.2,506.8 340.9,507.5 346.6,507.5 352.3,507.5 358.0,507.5 363.7,507.5 369.4,507.5 375.1,507.5 380.8,507.5 386.5,507.5 392.2,507.5 397.9,507.5 403.6,507.5 409.3,507.5 415.0,508.6 420.7,508.6 426.4,508.6 432.1,508.6 437.9,508.6 443.6,509.5 449.3,509.8 455.0,509.8 460.7,509.8 466.4,509.8 472.1,509.8 477.8,509.8 483.5,509.8 489.2,509.8 494.9,510.9 500.6,510.9 506.3,510.9 512.0,510.9 517.7,510.9 523.4,510.9 529.1,510.9 534.8,510.9 540.5,510.9 546.2,510.9 551.9,510.9 557.6,510.9 563.3,510.9 569.0,510.9 574.7,510.9 580.4,510.9 586.1,510.9 591.8,510.9 597.5,510.9 603.2,510.9 608.9,510.9 614.6,510.9 620.3,510.9 626.0,510.9 631.7,510.9 637.4,510.9 643.1,510.9 648.8,510.9 654.5,510.9 660.2,510.9 666.0,510.9 671.7,510.9 677.4,510.9 683.1,510.9 688.8,510.9 694.5,510.9 700.2,510.9 705.9,510.9 711.6,510.9 717.3,510.9 723.0,510.9 728.7,510.9 734.4,510.9 740.1,510.9 745.8,510.9 751.5,510.9 757.2,510.9 762.9,510.9 768.6,510.9 774.3,513.1 780.0,515.2 780.0,650.0 774.3,650.0 768.6,650.0 762.9,650.0 757.2,650.0 751.5,650.0 745.8,650.0 740.1,650.0 734.4,650.0 728.7,650.0 723.0,650.0 717.3,650.0 711.6,650.0 705.9,650.0 700.2,650.0 694.5,650.0 688.8,650.0 683.1,650.0 677.4,650.0 671.7,650.0 666.0,650.0 660.2,650.0 654.5,650.0 648.8,650.0 643.1,650.0 637.4,650.0 631.7,650.0 626.0,650.0 620.3,650.0 614.6,650.0 608.9,650.0 603.2,650.0 597.5,650.0 591.8,650.0 586.1,650.0 580.4,650.0 574.7,650.0 569.0,650.0 563.3,650.0 557.6,650.0 551.9,650.0 546.2,650.0 540.5,650.0 534.8,650.0 529.1,650.0 523.4,650.0 517.7,650.0 512.0,650.0 506.3,650.0 500.6,650.0 494.9,650.0 489.2,650.0 483.5,650.0 477.8,650.0 472.1,650.0 466.4,650.0 460.7,650.0 455.0,650.0 449.3,650.0 443.6,650.0 437.9,650.0 432.1,650.0 426.4,650.0 420.7,650.0 415.0,650.0 409.3,650.0 403.6,650.0 397.9,650.0 392.2,650.0 386.5,650.0 380.8,650.0 375.1,650.0 369.4,650.0 363.7,650.0 358.0,650.0 352.3,650.0 346.6,650.0 340.9,650.0 335.2,650.0 329.5,650.0 323.8,650.0 318.1,650.0 312.4,650.0 306.7,650.0 301.0,650.0 295.3,650.0 289.6,650.0 283.9,650.0 278.2,650.0 272.5,650.0 266.8,650.0 261.1,650.0 255.4,650.0 249.7,650.0 244.0,650.0 238.3,650.0 232.6,650.0 226.9,650.0 221.2,650.0 215.5,650.0 209.8,650.0 204.0,650.0 198.3,650.0 192.6,650.0 186.9,650.0 181.2,650.0 175.5,650.0 169.8,650.0 164.1,650.0 158.4,650.0 152.7,650.0 147.0,650.0 141.3,650.0 135.6,650.0 129.9,650.0 124.2,650.0 118.5,650.0 112.8,650.0 107.1,650.0 101.4,650.0 95.7,650.0 90.0,650.0" fill="#e34c26" opacity="0.6" class="anim" style="animation-delay:500ms;"/>
<polygon points="90.0,650.0 95.7,650.0 101.4,650.0 107.1,650.0 112.8,650.0 118.5,650.0 124.2,650.0 129.9,650.0 135.6,488.4 141.3,488.0 147.0,489.0 152.7,476.0 158.4,476.0 164.1,477.2 169.8,460.1 175.5,460.2 181.2,460.6 186.9,460.6 192.6,460.6 198.3,460.6 204.0,460.6 209.8,473.0 215.5,473.5 221.2,469.5 226.9,469.5 232.6,469.5 238.3,469.7 244.0,469.7 249.7,469.7 255.4,469.7 261.1,469.7 266.8,469.7 272.5,469.7 278.2,469.7 283.9,455.6 289.6,455.6 295.3,455.4 301.0,455.4 306.7,455.4 312.4,454.3 318.1,454.3 323.8,455.0 329.5,455.1 335.2,454.9 340.9,455.9 346.6,455.9 352.3,455.9 358.0,455.9 363.7,455.9 369.4,455.9 375.1,455.9 380.8,455.9 386.5,455.9 392.2,455.9 397.9,455.9 403.6,455.9 409.3,455.9 415.0,455.8 420.7,455.8 426.4,455.8 432.1,455.8 437.9,455.8 443.6,457.0 449.3,457.4 455.0,457.4 460.7,457.4 466.4,457.4 472.1,457.4 477.8,457.4 483.5,457.4 489.2,457.4 494.9,458.2 500.6,458.2 506.3,458.2 512.0,458.2 517.7,458.2 523.4,458.2 529.1,458.2 534.8,458.2 540.5,458.2 546.2,458.2 551.9,458.2 557.6,458.2 563.3,458.2 569.0,458.2 574.7,458.2 580.4,458.2 586.1,458.2 591.8,458.2 597.5,458.2 603.2,458.2 608.9,458.2 614.6,458.2 620.3,458.2 626.0,458.2 631.7,458.2 637.4,458.2 643.1,458.2 648.8,458.2 654.5,458.2 660.2,458.2 666.0,458.2 671.7,458.2 677.4,458.2 683.1,458.2 688.8,458.2 694.5,458.2 700.2,458.2 705.9,458.2 711.6,458.2 717.3,458.2 723.0,458.2 728.7,458.2 734.4,458.2 740.1,458.2 745.8,458.2 751.5,458.2 757.2,458.2 762.9,458.2 768.6,458.2 774.3,456.7 780.0,455.3 780.0,515.2 774.3,513.1 768.6,510.9 762.9,510.9 757.2,510.9 751.5,510.9 745.8,510.9 740.1,510.9 734.4,510.9 728.7,510.9 723.0,510.9 717.3,510.9 711.6,510.9 705.9,510.9 700.2,510.9 694.5,510.9 688.8,510.9 683.1,510.9 677.4,510.9 671.7,510.9 666.0,510.9 660.2,510.9 654.5,510.9 648.8,510.9 643.1,510.9 637.4,510.9 631.7,510.9 626.0,510.9 620.3,510.9 614.6,510.9 608.9,510.9 603.2,510.9 597.5,510.9 591.8,510.9 586.1,510.9 580.4,510.9 574.7,510.9 569.0,510.9 563.3,510.9 557.6,510.9 551.9,510.9 546.2,510.9 540.5,510.9 534.8,510.9 529.1,510.9 523.4,510.9 517.7,510.9 512.0,510.9 506.3,510.9 500.6,510.9 494.9,510.9 489.2,509.8 483.5,509.8 477.8,509.8 472.1,509.8 466.4,509.8 460.7,509.8 455.0,509.8 449.3,509.8 443.6,509.5 437.9,508.6 432.1,508.6 426.4,508.6 420.7,508.6 415.0,508.6 409.3,507.5 403.6,507.5 397.9,507.5 392.2,507.5 386.5,507.5 380.8,507.5 375.1,507.5 369.4,507.5 363.7,507.5 358.0,507.5 352.3,507.5 346.6,507.5 340.9,507.5 335.2,506.8 329.5,506.9 323.8,506.8 318.1,506.4 312.4,506.3 306.7,507.9 301.0,507.9 295.3,507.9 289.6,507.6 283.9,507.6 278.2,494.4 272.5,494.4 266.8,494.4 261.1,494.4 255.4,494.0 249.7,494.0 244.0,491.8 238.3,491.7 232.6,491.0 226.9,491.0 221.2,491.0 215.5,496.7 209.8,496.4 204.0,485.4 198.3,485.4 192.6,485.4 186.9,485.4 181.2,485.4 175.5,485.1 169.8,485.0 164.1,502.9 158.4,499.3 152.7,499.3 147.0,529.7 141.3,528.5 135.6,528.2 129.9,650.0 124.2,650.0 118.5,650.0 112.8,650.0 107.1,650.0 101.4,650.0 95.7,650.0 90.0,650.0" fill="#f1e05a" opacity="0.6" class="anim" style="animation-delay:600ms;"/>
<polygon points="90.0,650.0 95.7,650.0 101.4,650.0 107.1,650.0 112.8,650.0 118.5,650.0 124.2,650.0 129.9,650.0 135.6,455.5 141.3,455.4 147.0,455.1 152.7,447.0 158.4,447.0 164.1,448.2 169.8,438.9 175.5,439.0 181.2,439.6 186.9,439.6 192.6,439.6 198.3,439.6 204.0,439.6 209.8,445.6 215.5,445.6 221.2,443.3 226.9,443.3 232.6,443.3 238.3,443.6 244.0,443.6 249.7,444.1 255.4,444.1 261.1,444.1 266.8,444.1 272.5,444.1 278.2,444.1 283.9,437.5 289.6,437.5 295.3,437.5 301.0,437.5 306.7,437.5 312.4,437.5 318.1,437.5 323.8,438.4 329.5,438.5 335.2,438.3 340.9,439.3 346.6,439.3 352.3,439.3 358.0,439.3 363.7,439.3 369.4,439.3 375.1,439.3 380.8,439.3 386.5,439.3 392.2,439.3 397.9,439.3 403.6,439.3 409.3,439.3 415.0,439.4 420.7,439.4 426.4,439.4 432.1,439.4 437.9,439.4 443.6,440.7 449.3,441.1 455.0,441.1 460.7,441.1 466.4,441.1 472.1,441.1 477.8,441.1 483.5,441.1 489.2,441.1 494.9,442.0 500.6,442.0 506.3,442.0 512.0,442.0 517.7,442.0 523.4,442.0 529.1,442.0 534.8,442.0 540.5,442.0 546.2,442.0 551.9,442.0 557.6,442.0 563.3,442.0 569.0,442.0 574.7,442.0 580.4,442.0 586.1,442.0 591.8,442.0 597.5,442.0 603.2,442.0 608.9,442.0 614.6,442.0 620.3,442.0 626.0,442.0 631.7,442.0 637.4,442.0 643.1,442.0 648.8,442.0 654.5,442.0 660.2,442.0 666.0,442.0 671.7,442.0 677.4,442.0 683.1,442.0 688.8,442.0 694.5,442.0 700.2,442.0 705.9,442.0 711.6,442.0 717.3,442.0 723.0,442.0 728.7,442.0 734.4,442.0 740.1,442.0 745.8,442.0 751.5,442.0 757.2,442.0 762.9,442.0 768.6,442.0 774.3,442.0 780.0,442.0 780.0,455.3 774.3,456.7 768.6,458.2 762.9,458.2 757.2,458.2 751.5,458.2 745.8,458.2 740.1,458.2 734.4,458.2 728.7,458.2 723.0,458.2 717.3,458.2 711.6,458.2 705.9,458.2 700.2,458.2 694.5,458.2 688.8,458.2 683.1,458.2 677.4,458.2 671.7,458.2 666.0,458.2 660.2,458.2 654.5,458.2 648.8,458.2 643.1,458.2 637.4,458.2 631.7,458.2 626.0,458.2 620.3,458.2 614.6,458.2 608.9,458.2 603.2,458.2 597.5,458.2 591.8,458.2 586.1,458.2 580.4,458.2 574.7,458.2 569.0,458.2 563.3,458.2 557.6,458.2 551.9,458.2 546.2,458.2 540.5,458.2 534.8,458.2 529.1,458.2 523.4,458.2 517.7,458.2 512.0,458.2 506.3,458.2 500.6,458.2 494.9,458.2 489.2,457.4 483.5,457.4 477.8,457.4 472.1,457.4 466.4,457.4 460.7,457.4 455.0,457.4 449.3,457.4 443.6,457.0 437.9,455.8 432.1,455.8 426.4,455.8 420.7,455.8 415.0,455.8 409.3,455.9 403.6,455.9 397.9,455.9 392.2,455.9 386.5,455.9 380.8,455.9 375.1,455.9 369.4,455.9 363.7,455.9 358.0,455.9 352.3,455.9 346.6,455.9 340.9,455.9 335.2,454.9 329.5,455.1 323.8,455.0 318.1,454.3 312.4,454.3 306.7,455.4 301.0,455.4 295.3,455.4 289.6,455.6 283.9,455.6 278.2,469.7 272.5,469.7 266.8,469.7 261.1,469.7 255.4,469.7 249.7,469.7 244.0,469.7 238.3,469.7 232.6,469.5 226.9,469.5 221.2,469.5 215.5,473.5 209.8,473.0 204.0,460.6 198.3,460.6 192.6,460.6 186.9,460.6 181.2,460.6 175.5,460.2 169.8,460.1 164.1,477.2 158.4,476.0 152.7,476.0 147.0,489.0 141.3,488.0 135.6,488.4 129.9,650.0 124.2,650.0 118.5,650.0 112.8,650.0 107.1,650.0 101.4,650.0 95.7,650.0 90.0,650.0" fill="#3572A5" opacity="0.6" class="anim" style="animation-delay:700ms;"/>
<polygon points="90.0,650.0 95.7,650.0 101.4,650.0 107.1,650.0 112.8,650.0 118.5,650.0 124.2,650.0 129.9,650.0 135.6,442.3 141.3,442.0 147.0,441.6 152.7,439.5 158.4,439.5 164.1,439.4 169.8,432.3 175.5,432.2 181.2,432.6 186.9,432.6 192.6,432.6 198.3,432.6 204.0,432.6 209.8,439.3 215.5,439.3 221.2,437.4 226.9,437.4 232.6,437.4 238.3,437.3 244.0,437.3 249.7,437.1 255.4,437.1 261.1,437.1 266.8,437.1 272.5,437.1 278.2,437.1 283.9,428.7 289.6,428.6 295.3,428.5 301.0,428.5 306.7,428.5 312.4,427.3 318.1,427.3 323.8,427.1 329.5,427.1 335.2,427.1 340.9,427.0 346.6,427.0 352.3,427.0 358.0,427.0 363.7,427.0 369.4,427.0 375.1,427.0 380.8,427.0 386.5,427.0 392.2,427.0 397.9,427.0 403.6,427.0 409.3,427.0 415.0,427.0 420.7,427.1 426.4,427.1 432.1,427.1 437.9,427.1 443.6,428.4 449.3,428.9 455.0,428.9 460.7,428.9 466.4,428.9 472.1,428.9 477.8,428.9 483.5,428.9 489.2,428.9 494.9,428.7 500.6,428.7 506.3,428.7 512.0,428.7 517.7,428.7 523.4,428.7 529.1,428.7 534.8,428.7 540.5,428.7 546.2,428.7 551.9,428.7 557.6,428.7 563.3,428.7 569.0,428.7 574.7,428.7 580.4,428.7 586.1,428.7 591.8,428.7 597.5,428.7 603.2,428.7 608.9,428.7 614.6,428.7 620.3,428.7 626.0,428.7 631.7,428.7 637.4,428.7 643.1,428.7 648.8,428.7 654.5,428.7 660.2,428.7 666.0,428.7 671.7,428.7 677.4,428.7 683.1,428.7 688.8,428.7 694.5,428.7 700.2,428.7 705.9,428.7 711.6,428.7 717.3,428.7 723.0,428.7 728.7,428.7 734.4,428.7 740.1,428.7 745.8,428.7 751.5,428.7 757.2,428.7 762.9,428.7 768.6,428.7 774.3,427.9 780.0,427.0 780.0,442.0 774.3,442.0 768.6,442.0 762.9,442.0 757.2,442.0 751.5,442.0 745.8,442.0 740.1,442.0 734.4,442.0 728.7,442.0 723.0,442.0 717.3,442.0 711.6,442.0 705.9,442.0 700.2,442.0 694.5,442.0 688.8,442.0 683.1,442.0 677.4,442.0 671.7,442.0 666.0,442.0 660.2,442.0 654.5,442.0 648.8,442.0 643.1,442.0 637.4,442.0 631.7,442.0 626.0,442.0 620.3,442.0 614.6,442.0 608.9,442.0 603.2,442.0 597.5,442.0 591.8,442.0 586.1,442.0 580.4,442.0 574.7,442.0 569.0,442.0 563.3,442.0 557.6,442.0 551.9,442.0 546.2,442.0 540.5,442.0 534.8,442.0 529.1,442.0 523.4,442.0 517.7,442.0 512.0,442.0 506.3,442.0 500.6,442.0 494.9,442.0 489.2,441.1 483.5,441.1 477.8,441.1 472.1,441.1 466.4,441.1 460.7,441.1 455.0,441.1 449.3,441.1 443.6,440.7 437.9,439.4 432.1,439.4 426.4,439.4 420.7,439.4 415.0,439.4 409.3,439.3 403.6,439.3 397.9,439.3 392.2,439.3 386.5,439.3 380.8,439.3 375.1,439.3 369.4,439.3 363.7,439.3 358.0,439.3 352.3,439.3 346.6,439.3 340.9,439.3 335.2,438.3 329.5,438.5 323.8,438.4 318.1,437.5 312.4,437.5 306.7,437.5 301.0,437.5 295.3,437.5 289.6,437.5 283.9,437.5 278.2,444.1 272.5,444.1 266.8,444.1 261.1,444.1 255.4,444.1 249.7,444.1 244.0,443.6 238.3,443.6 232.6,443.3 226.9,443.3 221.2,443.3 215.5,445.6 209.8,445.6 204.0,439.6 198.3,439.6 192.6,439.6 186.9,439.6 181.2,439.6 175.5,439.0 169.8,438.9 164.1,448.2 158.4,447.0 152.7,447.0 147.0,455.1 141.3,455.4 135.6,455.5 129.9,650.0 124.2,650.0 118.5,650.0 112.8,650.0 107.1,650.0 101.4,650.0 95.7,650.0 90.0,650.0" fill="#663399" opacity="0.6" class="anim" style="animation-delay:800ms;"/>
<polygon points="90.0,650.0 95.7,650.0 101.4,650.0 107.1,650.0 112.8,650.0 118.5,650.0 124.2,650.0 129.9,650.0 135.6,436.6 141.3,436.3 147.0,435.9 152.7,432.2 158.4,432.2 164.1,432.2 169.8,426.2 175.5,426.1 181.2,426.0 186.9,426.0 192.6,426.0 198.3,426.0 204.0,426.0 209.8,430.8 215.5,430.7 221.2,429.3 226.9,429.3 232.6,429.3 238.3,429.2 244.0,429.2 249.7,428.9 255.4,428.9 261.1,428.8 266.8,428.8 272.5,428.8 278.2,428.8 283.9,423.0 289.6,422.9 295.3,422.9 301.0,422.9 306.7,422.9 312.4,422.0 318.1,422.0 323.8,421.9 329.5,421.9 335.2,421.9 340.9,421.8 346.6,421.8 352.3,421.8 358.0,421.8 363.7,421.8 369.4,421.8 375.1,421.8 380.8,421.8 386.5,421.8 392.2,421.8 397.9,421.8 403.6,421.8 409.3,421.8 415.0,421.7 420.7,421.8 426.4,421.8 432.1,421.8 437.9,421.8 443.6,423.2 449.3,423.6 455.0,423.6 460.7,423.6 466.4,423.6 472.1,423.6 477.8,423.6 483.5,423.6 489.2,423.6 494.9,423.5 500.6,423.5 506.3,423.5 512.0,423.5 517.7,423.5 523.4,423.5 529.1,423.5 534.8,423.5 540.5,423.5 546.2,423.5 551.9,423.5 557.6,423.5 563.3,423.5 569.0,423.5 574.7,423.5 580.4,423.5 586.1,423.5 591.8,423.5 597.5,423.5 603.2,423.5 608.9,423.5 614.6,423.5 620.3,423.5 626.0,423.5 631.7,423.5 637.4,423.5 643.1,423.5 648.8,423.5 654.5,423.5 660.2,423.5 666.0,423.5 671.7,423.5 677.4,423.5 683.1,423.5 688.8,423.5 694.5,423.5 700.2,423.5 705.9,423.5 711.6,423.5 717.3,423.5 723.0,423.5 728.7,423.5 734.4,423.5 740.1,423.5 745.8,423.5 751.5,423.5 757.2,423.5 762.9,423.5 768.6,423.5 774.3,422.9 780.0,422.3 780.0,427.0 774.3,427.9 768.6,428.7 762.9,428.7 757.2,428.7 751.5,428.7 745.8,428.7 740.1,428.7 734.4,428.7 728.7,428.7 723.0,428.7 717.3,428.7 711.6,428.7 705.9,428.7 700.2,428.7 694.5,428.7 688.8,428.7 683.1,428.7 677.4,428.7 671.7,428.7 666.0,428.7 660.2,428.7 654.5,428.7 648.8,428.7 643.1,428.7 637.4,428.7 631.7,428.7 626.0,428.7 620.3,428.7 614.6,428.7 608.9,428.7 603.2,428.7 597.5,428.7 591.8,428.7 586.1,428.7 580.4,428.7 574.7,428.7 569.0,428.7 563.3,428.7 557.6,428.7 551.9,428.7 546.2,428.7 540.5,428.7 534.8,428.7 529.1,428.7 523.4,428.7 517.7,428.7 512.0,428.7 506.3,428.7 500.6,428.7 494.9,428.7 489.2,428.9 483.5,428.9 477.8,428.9 472.1,428.9 466.4,428.9 460.7,428.9 455.0,428.9 449.3,428.9 443.6,428.4 437.9,427.1 432.1,427.1 426.4,427.1 420.7,427.1 415.0,427.0 409.3,427.0 403.6,427.0 397.9,427.0 392.2,427.0 386.5,427.0 380.8,427.0 375.1,427.0 369.4,427.0 363.7,427.0 358.0,427.0 352.3,427.0 346.6,427.0 340.9,427.0 335.2,427.1 329.5,427.1 323.8,427.1 318.1,427.3 312.4,427.3 306.7,428.5 301.0,428.5 295.3,428.5 289.6,428.6 283.9,428.7 278.2,437.1 272.5,437.1 266.8,437.1 261.1,437.1 255.4,437.1 249.7,437.1 244.0,437.3 238.3,437.3 232.6,437.4 226.9,437.4 221.2,437.4 215.5,439.3 209.8,439.3 204.0,432.6 198.3,432.6 192.6,432.6 186.9,432.6 181.2,432.6 175.5,432.2 169.8,432.3 164.1,439.4 158.4,439.5 152.7,439.5 147.0,441.6 141.3,442.0 135.6,442.3 129.9,650.0 124.2,650.0 118.5,650.0 112.8,650.0 107.1,650.0 101.4,650.0 95.7,650.0 90.0,650.0" fill="#083fa1" opacity="0.6" class="anim" style="animation-delay:900ms;"/>
<polygon points="90.0,650.0 95.7,650.0 101.4,650.0 107.1,650.0 112.8,650.0 118.5,650.0 124.2,650.0 129.9,650.0 135.6,428.3 141.3,428.1 147.0,427.8 152.7,425.3 158.4,425.3 164.1,425.2 169.8,421.1 175.5,421.1 181.2,421.0 186.9,421.0 192.6,421.0 198.3,421.0 204.0,421.0 209.8,424.3 215.5,424.2 221.2,423.3 226.9,423.3 232.6,423.3 238.3,423.2 244.0,423.2 249.7,423.0 255.4,423.0 261.1,422.9 266.8,422.9 272.5,422.9 278.2,422.9 283.9,418.9 289.6,418.9 295.3,418.8 301.0,418.8 306.7,418.8 312.4,418.3 318.1,418.3 323.8,418.2 329.5,418.2 335.2,418.2 340.9,418.1 346.6,418.1 352.3,418.1 358.0,418.1 363.7,418.1 369.4,418.1 375.1,418.1 380.8,418.1 386.5,418.1 392.2,418.1 397.9,418.1 403.6,418.1 409.3,418.1 415.0,418.1 420.7,418.1 426.4,418.1 432.1,418.1 437.9,418.1 443.6,418.0 449.3,418.0 455.0,418.0 460.7,418.0 466.4,418.0 472.1,418.0 477.8,418.0 483.5,418.0 489.2,418.0 494.9,417.9 500.6,417.9 506.3,417.9 512.0,417.9 517.7,417.9 523.4,417.9 529.1,417.9 534.8,417.9 540.5,417.9 546.2,417.9 551.9,417.9 557.6,417.9 563.3,417.9 569.0,417.9 574.7,417.9 580.4,417.9 586.1,417.9 591.8,417.9 597.5,417.9 603.2,417.9 608.9,417.9 614.6,417.9 620.3,417.9 626.0,417.9 631.7,417.9 637.4,417.9 643.1,417.9 648.8,417.9 654.5,417.9 660.2,417.9 666.0,417.9 671.7,417.9 677.4,417.9 683.1,417.9 688.8,417.9 694.5,417.9 700.2,417.9 705.9,417.9 711.6,417.9 717.3,417.9 723.0,417.9 728.7,417.9 734.4,417.9 740.1,417.9 745.8,417.9 751.5,417.9 757.2,417.9 762.9,417.9 768.6,417.9 774.3,417.3 780.0,416.7 780.0,422.3 774.3,422.9 768.6,423.5 762.9,423.5 757.2,423.5 751.5,423.5 745.8,423.5 740.1,423.5 734.4,423.5 728.7,423.5 723.0,423.5 717.3,423.5 711.6,423.5 705.9,423.5 700.2,423.5 694.5,423.5 688.8,423.5 683.1,423.5 677.4,423.5 671.7,423.5 666.0,423.5 660.2,423.5 654.5,423.5 648.8,423.5 643.1,423.5 637.4,423.5 631.7,423.5 626.0,423.5 620.3,423.5 614.6,423.5 608.9,423.5 603.2,423.5 597.5,423.5 591.8,423.5 586.1,423.5 580.4,423.5 574.7,423.5 569.0,423.5 563.3,423.5 557.6,423.5 551.9,423.5 546.2,423.5 540.5,423.5 534.8,423.5 529.1,423.5 523.4,423.5 517.7,423.5 512.0,423.5 506.3,423.5 500.6,423.5 494.9,423.5 489.2,423.6 483.5,423.6 477.8,423.6 472.1,423.6 466.4,423.6 460.7,423.6 455.0,423.6 449.3,423.6 443.6,423.2 437.9,421.8 432.1,421.8 426.4,421.8 420.7,421.8 415.0,421.7 409.3,421.8 403.6,421.8 397.9,421.8 392.2,421.8 386.5,421.8 380.8,421.8 375.1,421.8 369.4,421.8 363.7,421.8 358.0,421.8 352.3,421.8 346.6,421.8 340.9,421.8 335.2,421.9 329.5,421.9 323.8,421.9 318.1,422.0 312.4,422.0 306.7,422.9 301.0,422.9 295.3,422.9 289.6,422.9 283.9,423.0 278.2,428.8 272.5,428.8 266.8,428.8 261.1,428.8 255.4,428.9 249.7,428.9 244.0,429.2 238.3,429.2 232.6,429.3 226.9,429.3 221.2,429.3 215.5,430.7 209.8,430.8 204.0,426.0 198.3,426.0 192.6,426.0 186.9,426.0 181.2,426.0 175.5,426.1 169.8,426.2 164.1,432.2 158.4,432.2 152.7,432.2 147.0,435.9 141.3,436.3 135.6,436.6 129.9,650.0 124.2,650.0 118.5,650.0 112.8,650.0 107.1,650.0 101.4,650.0 95.7,650.0 90.0,650.0" fill="#F05138" opacity="0.6" class="anim" style="animation-delay:1000ms;"/>
<polygon points="90.0,650.0 95.7,650.0 101.4,650.0 107.1,650.0 112.8,650.0 118.5,650.0 124.2,650.0 129.9,650.0 135.6,418.7 141.3,418.6 147.0,418.5 152.7,417.3 158.4,417.3 164.1,417.2 169.8,415.3 175.5,415.3 181.2,415.2 186.9,415.2 192.6,415.2 198.3,415.2 204.0,415.2 209.8,416.8 215.5,416.8 221.2,416.3 226.9,416.3 232.6,416.3 238.3,416.3 244.0,416.3 249.7,416.2 255.4,416.2 261.1,416.2 266.8,416.2 272.5,416.2 278.2,416.2 283.9,414.2 289.6,414.2 295.3,414.2 301.0,414.2 306.7,414.2 312.4,413.9 318.1,413.9 323.8,413.9 329.5,413.9 335.2,413.9 340.9,413.9 346.6,413.9 352.3,413.9 358.0,413.9 363.7,413.9 369.4,413.9 375.1,413.9 380.8,413.9 386.5,413.9 392.2,413.9 397.9,413.9 403.6,413.9 409.3,413.9 415.0,413.8 420.7,413.8 426.4,413.8 432.1,413.8 437.9,413.8 443.6,413.8 449.3,413.8 455.0,413.8 460.7,413.8 466.4,413.8 472.1,413.8 477.8,413.8 483.5,413.8 489.2,413.8 494.9,413.8 500.6,413.8 506.3,413.8 512.0,413.8 517.7,413.8 523.4,413.8 529.1,413.8 534.8,413.8 540.5,413.8 546.2,413.8 551.9,413.8 557.6,413.8 563.3,413.8 569.0,413.8 574.7,413.8 580.4,413.8 586.1,413.8 591.8,413.8 597.5,413.8 603.2,413.8 608.9,413.8 614.6,413.8 620.3,413.8 626.0,413.8 631.7,413.8 637.4,413.8 643.1,413.8 648.8,413.8 654.5,413.8 660.2,413.8 666.0,413.8 671.7,413.8 677.4,413.8 683.1,413.8 688.8,413.8 694.5,413.8 700.2,413.8 705.9,413.8 711.6,413.8 717.3,413.8 723.0,413.8 728.7,413.8 734.4,413.8 740.1,413.8 745.8,413.8 751.5,413.8 757.2,413.8 762.9,413.8 768.6,413.8 774.3,413.6 780.0,413.4 780.0,416.7 774.3,417.3 768.6,417.9 762.9,417.9 757.2,417.9 751.5,417.9 745.8,417.9 740.1,417.9 734.4,417.9 728.7,417.9 723.0,417.9 717.3,417.9 711.6,417.9 705.9,417.9 700.2,417.9 694.5,417.9 688.8,417.9 683.1,417.9 677.4,417.9 671.7,417.9 666.0,417.9 660.2,417.9 654.5,417.9 648.8,417.9 643.1,417.9 637.4,417.9 631.7,417.9 626.0,417.9 620.3,417.9 614.6,417.9 608.9,417.9 603.2,417.9 597.5,417.9 591.8,417.9 586.1,417.9 580.4,417.9 574.7,417.9 569.0,417.9 563.3,417.9 557.6,417.9 551.9,417.9 546.2,417.9 540.5,417.9 534.8,417.9 529.1,417.9 523.4,417.9 517.7,417.9 512.0,417.9 506.3,417.9 500.6,417.9 494.9,417.9 489.2,418.0 483.5,418.0 477.8,418.0 472.1,418.0 466.4,418.0 460.7,418.0 455.0,418.0 449.3,418.0 443.6,418.0 437.9,418.1 432.1,418.1 426.4,418.1 420.7,418.1 415.0,418.1 409.3,418.1 403.6,418.1 397.9,418.1 392.2,418.1 386.5,418.1 380.8,418.1 375.1,418.1 369.4,418.1 363.7,418.1 358.0,418.1 352.3,418.1 346.6,418.1 340.9,418.1 335.2,418.2 329.5,418.2 323.8,418.2 318.1,418.3 312.4,418.3 306.7,418.8 301.0,418.8 295.3,418.8 289.6,418.9 283.9,418.9 278.2,422.9 272.5,422.9 266.8,422.9 261.1,422.9 255.4,423.0 249.7,423.0 244.0,423.2 238.3,423.2 232.6,423.3 226.9,423.3 221.2,423.3 215.5,424.2 209.8,424.3 204.0,421.0 198.3,421.0 192.6,421.0 186.9,421.0 181.2,421.0 175.5,421.1 169.8,421.1 164.1,425.2 158.4,425.3 152.7,425.3 147.0,427.8 141.3,428.1 135.6,428.3 129.9,650.0 124.2,650.0 118.5,650.0 112.8,650.0 107.1,650.0 101.4,650.0 95.7,650.0 90.0,650.0" fill="#6E4C13" opacity="0.6" class="anim" style="animation-delay:1100ms;"/>
<polygon points="90.0,650.0 95.7,650.0 101.4,650.0 107.1,650.0 112.8,650.0 118.5,650.0 124.2,650.0 129.9,650.0 135.6,414.4 141.3,414.4 147.0,414.3 152.7,413.7 158.4,413.7 164.1,413.7 169.8,412.7 175.5,412.7 181.2,412.7 186.9,412.7 192.6,412.7 198.3,412.7 204.0,412.7 209.8,413.5 215.5,413.4 221.2,413.2 226.9,413.2 232.6,413.2 238.3,413.2 244.0,413.2 249.7,413.1 255.4,413.1 261.1,413.1 266.8,413.1 272.5,413.1 278.2,413.1 283.9,412.2 289.6,412.1 295.3,412.1 301.0,412.1 306.7,412.1 312.4,412.0 318.1,412.0 323.8,412.0 329.5,412.0 335.2,412.0 340.9,412.0 346.6,412.0 352.3,412.0 358.0,412.0 363.7,412.0 369.4,412.0 375.1,412.0 380.8,412.0 386.5,412.0 392.2,412.0 397.9,412.0 403.6,412.0 409.3,412.0 415.0,411.9 420.7,411.9 426.4,411.9 432.1,411.9 437.9,411.9 443.6,411.9 449.3,411.9 455.0,411.9 460.7,411.9 466.4,411.9 472.1,411.9 477.8,411.9 483.5,411.9 489.2,411.9 494.9,411.9 500.6,411.9 506.3,411.9 512.0,411.9 517.7,411.9 523.4,411.9 529.1,411.9 534.8,411.9 540.5,411.9 546.2,411.9 551.9,411.9 557.6,411.9 563.3,411.9 569.0,411.9 574.7,411.9 580.4,411.9 586.1,411.9 591.8,411.9 597.5,411.9 603.2,411.9 608.9,411.9 614.6,411.9 620.3,411.9 626.0,411.9 631.7,411.9 637.4,411.9 643.1,411.9 648.8,411.9 654.5,411.9 660.2,411.9 666.0,411.9 671.7,411.9 677.4,411.9 683.1,411.9 688.8,411.9 694.5,411.9 700.2,411.9 705.9,411.9 711.6,411.9 717.3,411.9 723.0,411.9 728.7,411.9 734.4,411.9 740.1,411.9 745.8,411.9 751.5,411.9 757.2,411.9 762.9,411.9 768.6,411.9 774.3,411.9 780.0,411.9 780.0,413.4 774.3,413.6 768.6,413.8 762.9,413.8 757.2,413.8 751.5,413.8 745.8,413.8 740.1,413.8 734.4,413.8 728.7,413.8 723.0,413.8 717.3,413.8 711.6,413.8 705.9,413.8 700.2,413.8 694.5,413.8 688.8,413.8 683.1,413.8 677.4,413.8 671.7,413.8 666.0,413.8 660.2,413.8 654.5,413.8 648.8,413.8 643.1,413.8 637.4,413.8 631.7,413.8 626.0,413.8 620.3,413.8 614.6,413.8 608.9,413.8 603.2,413.8 597.5,413.8 591.8,413.8 586.1,413.8 580.4,413.8 574.7,413.8 569.0,413.8 563.3,413.8 557.6,413.8 551.9,413.8 546.2,413.8 540.5,413.8 534.8,413.8 529.1,413.8 523.4,413.8 517.7,413.8 512.0,413.8 506.3,413.8 500.6,413.8 494.9,413.8 489.2,413.8 483.5,413.8 477.8,413.8 472.1,413.8 466.4,413.8 460.7,413.8 455.0,413.8 449.3,413.8 443.6,413.8 437.9,413.8 432.1,413.8 426.4,413.8 420.7,413.8 415.0,413.8 409.3,413.9 403.6,413.9 397.9,413.9 392.2,413.9 386.5,413.9 380.8,413.9 375.1,413.9 369.4,413.9 363.7,413.9 358.0,413.9 352.3,413.9 346.6,413.9 340.9,413.9 335.2,413.9 329.5,413.9 323.8,413.9 318.1,413.9 312.4,413.9 306.7,414.2 301.0,414.2 295.3,414.2 289.6,414.2 283.9,414.2 278.2,416.2 272.5,416.2 266.8,416.2 261.1,416.2 255.4,416.2 249.7,416.2 244.0,416.3 238.3,416.3 232.6,416.3 226.9,416.3 221.2,416.3 215.5,416.8 209.8,416.8 204.0,415.2 198.3,415.2 192.6,415.2 186.9,415.2 181.2,415.2 175.5,415.3 169.8,415.3 164.1,417.2 158.4,417.3 152.7,417.3 147.0,418.5 141.3,418.6 135.6,418.7 129.9,650.0 124.2,650.0 118.5,650.0 112.8,650.0 107.1,650.0 101.4,650.0 95.7,650.0 90.0,650.0" fill="#b07219" opacity="0.6" class="anim" style="animation-delay:1200ms;"/>
<line x1="768.6" y1="100" x2="768.6" y2="650" stroke="#c9d1d9" stroke-width="1" stroke-dasharray="4,3" opacity="0.35"/>
<text x="774.3" y="112" text-anchor="middle" class="axis-label" opacity="0.6">Aug 27, 2026</text>
<text x="90.0" y="668" text-anchor="middle" class="axis-label" transform="rotate(-35 90.0 668)">2026-02</text>
<text x="238.3" y="668" text-anchor="middle" class="axis-label" transform="rotate(-35 238.3 668)">2026-03</text>
<text x="460.7" y="668" text-anchor="middle" class="axis-label" transform="rotate(-35 460.7 668)">2026-06</text>
<text x="608.9" y="668" text-anchor="middle" class="axis-label" transform="rotate(-35 608.9 668)">2026-07</text>
<text x="757.2" y="668" text-anchor="middle" class="axis-label" transform="rotate(-35 757.2 668)">2026-08</text>
<line x1="796" y1="110" x2="824" y2="110" stroke="#3fb950" stroke-width="2"/>
<text x="832" y="116" class="legend-text">Lines Added</text>
<line x1="796" y1="140" x2="824" y2="140" stroke="#f85149" stroke-width="1.5"/>
<text x="832" y="146" class="legend-text">Lines Deleted</text>
<line x1="796" y1="170" x2="824" y2="170" stroke="#e3b341" stroke-width="1.5" stroke-dasharray="4,3"/>
<text x="832" y="176" class="legend-text">&#x2605; Stars</text>
<text x="796" y="200" class="subtitle">Languages</text>
<rect x="796" y="212" width="12" height="12" rx="2" fill="#e34c26" opacity="0.8" class="anim" style="animation-delay:800ms;"/>
<text x="814" y="223" class="legend-text">HTML (58%→56%)</text>
<rect x="796" y="234" width="12" height="12" rx="2" fill="#f1e05a" opacity="0.8" class="anim" style="animation-delay:880ms;"/>
<text x="814" y="245" class="legend-text">JavaScript (22%→25%)</text>
<rect x="796" y="256" width="12" height="12" rx="2" fill="#3572A5" opacity="0.8" class="anim" style="animation-delay:960ms;"/>
<text x="814" y="267" class="legend-text">Python (7%→6%)</text>
<rect x="796" y="278" width="12" height="12" rx="2" fill="#663399" opacity="0.8" class="anim" style="animation-delay:1040ms;"/>
<text x="814" y="289" class="legend-text">CSS (6%→6%)</text>
<rect x="796" y="300" width="12" height="12" rx="2" fill="#083fa1" opacity="0.8" class="anim" style="animation-delay:1120ms;"/>
<text x="814" y="311" class="legend-text">Markdown (2%→2%)</text>
<rect x="796" y="322" width="12" height="12" rx="2" fill="#F05138" opacity="0.8" class="anim" style="animation-delay:1200ms;"/>
<text x="814" y="333" class="legend-text">Swift (2%)</text>
<rect x="796" y="344" width="12" height="12" rx="2" fill="#6E4C13" opacity="0.8" class="anim" style="animation-delay:1280ms;"/>
<text x="814" y="355" class="legend-text">Assembly (2%→1%)</text>
<rect x="796" y="366" width="12" height="12" rx="2" fill="#b07219" opacity="0.8" class="anim" style="animation-delay:1360ms;"/>
<text x="814" y="377" class="legend-text">Java (1%→1%)</text>
<text x="796" y="412" class="subtitle">Contributions</text>
<text x="796" y="432" class="axis-label">2023: 39</text>
<text x="796" y="452" class="axis-label">2024: 646</text>
<text x="796" y="472" class="axis-label">2025: 1,780</text>
<text x="796" y="492" class="axis-label">2026: 491</text>
<text x="796" y="522" class="subtitle">Statistics</text>
<text x="796" y="542" class="axis-label">Active weeks: 88</text>
<text x="796" y="562" class="axis-label">Add/Del ratio: 1.8x</text>
<text x="796" y="582" class="axis-label">Avg lines/wk: 18K</text>
<text x="796" y="602" class="axis-label">Peak: 2026-02-15</text>
<text x="796" y="622" class="axis-label">  (543K lines)</text>
<text x="90" y="742" class="axis-label">Total: +1,040,332 / -576,819 lines &#xb7; 2,956 contributions &#xb7; 80 repos &#xb7; &#x2605; 37</text>
</svg>