<svg xmlns="http://www.w3.org/2000/svg" width="1000" height="760" style="max-width: 100%;" viewBox="0 0 1000 760">

<defs>
  <linearGradient id="areaGrad" x1="0" y1="0" x2="0" y2="1">
    <stop offset="0%" stop-color="#58a6ff" stop-opacity="0.35"/>
    <stop offset="100%" stop-color="#58a6ff" stop-opacity="0.02"/>
  </linearGradient>
  <linearGradient id="addGrad" x1="0" y1="0" x2="0" y2="1">
    <stop offset="0%" stop-color="#3fb950" stop-opacity="0.35"/>
    <stop offset="100%" stop-color="#3fb950" stop-opacity="0.02"/>
  </linearGradient>
  <linearGradient id="delGrad" x1="0" y1="0" x2="0" y2="1">
    <stop offset="0%" stop-color="#f85149" stop-opacity="0.25"/>
    <stop offset="100%" stop-color="#f85149" stop-opacity="0.02"/>
  </linearGradient>
</defs>
<style>
  .title { font: bold 28px 'Segoe UI', Ubuntu, Sans-Serif; fill: #c9d1d9; }
  .subtitle { font: 600 20px 'Segoe UI', Ubuntu, Sans-Serif; fill: #c9d1d9; opacity: 0.8; }
  .axis-label { font: 18px 'Segoe UI', Ubuntu, Sans-Serif; fill: #c9d1d9; opacity: 0.7; }
  .legend-text { font: 14px 'Segoe UI', Ubuntu, Sans-Serif; fill: #c9d1d9; }
  .value-text { font: bold 18px 'Segoe UI', Ubuntu, Sans-Serif; fill: #c9d1d9; }
  .stat-value { font: bold 22px 'Segoe UI', Ubuntu, Sans-Serif; fill: #c9d1d9; }
  .stat-label { font: 18px 'Segoe UI', Ubuntu, Sans-Serif; fill: #c9d1d9; opacity: 0.7; }
  @keyframes fadeIn { from { opacity: 0; } to { opacity: 1; } }
  .anim { animation: fadeIn 0.6s ease-in-out forwards; opacity: 0; }
</style>

<rect x="0.5" y="0.5" rx="4.5" width="999" height="759" fill="#161b22" stroke="#21262d"/>
<text x="90" y="45" class="title">Activity History</text>
<text x="90" y="72" class="subtitle">Lines added vs deleted &amp; activity trends over time</text>
<line x1="90" y1="340.0" x2="780" y2="340.0" stroke="#21262d" stroke-width="1"/>
<text x="82" y="344.0" text-anchor="end" class="axis-label">0</text>
<line x1="90" y1="280.0" x2="780" y2="280.0" stroke="#21262d" stroke-width="1"/>
<text x="82" y="284.0" text-anchor="end" class="axis-label">453K</text>
<line x1="90" y1="220.0" x2="780" y2="220.0" stroke="#21262d" stroke-width="1"/>
<text x="82" y="224.0" text-anchor="end" class="axis-label">906K</text>
<line x1="90" y1="160.0" x2="780" y2="160.0" stroke="#21262d" stroke-width="1"/>
<text x="82" y="164.0" text-anchor="end" class="axis-label">1.4M</text>
<line x1="90" y1="100.0" x2="780" y2="100.0" stroke="#21262d" stroke-width="1"/>
<text x="82" y="104.0" text-anchor="end" class="axis-label">1.8M</text>
<polygon points="90.0,340.0 90.0,291.6 96.4,293.4 102.9,291.7 109.3,293.4 115.8,304.5 122.2,282.4 128.7,282.4 135.1,274.0 141.6,273.7 148.0,273.2 154.5,273.1 160.9,258.2 167.4,258.2 173.8,258.2 180.3,236.1 186.7,235.8 193.2,235.6 199.6,235.6 206.1,235.6 212.5,235.6 219.0,235.6 225.4,235.0 231.9,220.3 238.3,220.2 244.8,220.2 251.2,220.2 257.7,219.9 264.1,219.9 270.6,219.2 277.0,219.2 283.5,219.2 289.9,219.2 296.4,219.2 302.8,219.2 309.3,219.2 315.7,219.2 322.1,219.2 328.6,219.2 335.0,219.2 341.5,219.2 347.9,219.2 354.4,218.5 360.8,218.8 367.3,218.1 373.7,217.8 380.2,217.8 386.6,217.8 393.1,217.8 399.5,217.8 406.0,217.8 412.4,217.7 418.9,217.7 425.3,217.7 431.8,217.8 438.2,218.1 444.7,219.5 451.1,218.1 457.6,216.8 464.0,216.8 470.5,216.8 476.9,216.8 483.4,216.8 489.8,209.2 496.3,202.3 502.7,202.3 509.2,202.3 515.6,202.3 522.1,202.3 528.5,202.3 535.0,202.3 541.4,202.3 547.9,202.2 554.3,202.2 560.7,202.2 567.2,202.2 573.6,202.2 580.1,202.2 586.5,202.2 593.0,202.2 599.4,202.2 605.9,202.2 612.3,202.2 618.8,202.2 625.2,202.2 631.7,202.2 638.1,202.2 644.6,202.2 651.0,202.2 657.5,202.2 663.9,202.2 670.4,202.2 676.8,202.2 683.3,202.2 689.7,202.2 696.2,202.2 702.6,202.2 709.1,202.2 715.5,202.2 722.0,202.2 728.4,202.2 734.9,202.2 741.3,202.2 747.8,202.2 754.2,202.2 760.7,202.2 767.1,202.2 773.6,194.5 780.0,186.8 780.0,340.0" fill="url(#addGrad)" class="anim" style="animation-delay:200ms;"/>
<polyline points="90.0,291.6 96.4,293.4 102.9,291.7 109.3,293.4 115.8,304.5 122.2,282.4 128.7,282.4 135.1,274.0 141.6,273.7 148.0,273.2 154.5,273.1 160.9,258.2 167.4,258.2 173.8,258.2 180.3,236.1 186.7,235.8 193.2,235.6 199.6,235.6 206.1,235.6 212.5,235.6 219.0,235.6 225.4,235.0 231.9,220.3 238.3,220.2 244.8,220.2 251.2,220.2 257.7,219.9 264.1,219.9 270.6,219.2 277.0,219.2 283.5,219.2 289.9,219.2 296.4,219.2 302.8,219.2 309.3,219.2 315.7,219.2 322.1,219.2 328.6,219.2 335.0,219.2 341.5,219.2 347.9,219.2 354.4,218.5 360.8,218.8 367.3,218.1 373.7,217.8 380.2,217.8 386.6,217.8 393.1,217.8 399.5,217.8 406.0,217.8 412.4,217.7 418.9,217.7 425.3,217.7 431.8,217.8 438.2,218.1 444.7,219.5 451.1,218.1 457.6,216.8 464.0,216.8 470.5,216.8 476.9,216.8 483.4,216.8 489.8,209.2 496.3,202.3 502.7,202.3 509.2,202.3 515.6,202.3 522.1,202.3 528.5,202.3 535.0,202.3 541.4,202.3 547.9,202.2 554.3,202.2 560.7,202.2 567.2,202.2 573.6,202.2 580.1,202.2 586.5,202.2 593.0,202.2 599.4,202.2 605.9,202.2 612.3,202.2 618.8,202.2 625.2,202.2 631.7,202.2 638.1,202.2 644.6,202.2 651.0,202.2 657.5,202.2 663.9,202.2 670.4,202.2 676.8,202.2 683.3,202.2 689.7,202.2 696.2,202.2 702.6,202.2 709.1,202.2 715.5,202.2 722.0,202.2 728.4,202.2 734.9,202.2 741.3,202.2 747.8,202.2 754.2,202.2 760.7,202.2 767.1,202.2" fill="none" stroke="#3fb950" stroke-width="2" stroke-linejoin="round" class="anim" style="animation-delay:250ms;"/>
<polyline points="767.1,202.2 773.6,194.5 780.0,186.8" fill="none" stroke="#3fb950" stroke-width="1.5" stroke-dasharray="5,4" stroke-linejoin="round" opacity="0.6" class="anim" style="animation-delay:250ms;"/>
<polygon points="90.0,340.0 90.0,326.4 96.4,327.8 102.9,326.4 109.3,327.8 115.8,333.6 122.2,324.8 128.7,324.7 135.1,323.8 141.6,323.4 148.0,323.2 154.5,323.1 160.9,307.1 167.4,307.1 173.8,307.1 180.3,288.9 186.7,288.8 193.2,288.8 199.6,288.8 206.1,288.8 212.5,288.8 219.0,288.8 225.4,279.3 231.9,264.8 238.3,264.7 244.8,264.7 251.2,264.7 257.7,264.7 264.1,264.7 270.6,264.6 277.0,264.5 283.5,264.5 289.9,264.5 296.4,264.5 302.8,264.5 309.3,264.6 315.7,264.5 322.1,264.5 328.6,264.5 335.0,264.5 341.5,264.5 347.9,264.5 354.4,264.5 360.8,264.6 367.3,264.1 373.7,264.1 380.2,264.1 386.6,264.1 393.1,264.1 399.5,264.1 406.0,264.1 412.4,264.1 418.9,264.1 425.3,264.1 431.8,264.1 438.2,264.2 444.7,265.0 451.1,264.5 457.6,263.7 464.0,263.6 470.5,263.6 476.9,263.6 483.4,263.6 489.8,263.6 496.3,263.6 502.7,263.6 509.2,263.6 515.6,263.6 522.1,263.6 528.5,263.6 535.0,263.6 541.4,263.6 547.9,263.6 554.3,263.6 560.7,263.6 567.2,263.6 573.6,263.6 580.1,263.6 586.5,263.6 593.0,263.6 599.4,263.6 605.9,263.6 612.3,263.6 618.8,263.6 625.2,263.6 631.7,263.6 638.1,263.6 644.6,263.6 651.0,263.6 657.5,263.6 663.9,263.6 670.4,263.6 676.8,263.6 683.3,263.6 689.7,263.6 696.2,263.6 702.6,263.6 709.1,263.6 715.5,263.6 722.0,263.6 728.4,263.6 734.9,263.6 741.3,263.6 747.8,263.6 754.2,263.6 760.7,263.6 767.1,263.6 773.6,258.4 780.0,253.2 780.0,340.0" fill="url(#delGrad)" class="anim" style="animation-delay:300ms;"/>
<polyline points="90.0,326.4 96.4,327.8 102.9,326.4 109.3,327.8 115.8,333.6 122.2,324.8 128.7,324.7 135.1,323.8 141.6,323.4 148.0,323.2 154.5,323.1 160.9,307.1 167.4,307.1 173.8,307.1 180.3,288.9 186.7,288.8 193.2,288.8 199.6,288.8 206.1,288.8 212.5,288.8 219.0,288.8 225.4,279.3 231.9,264.8 238.3,264.7 244.8,264.7 251.2,264.7 257.7,264.7 264.1,264.7 270.6,264.6 277.0,264.5 283.5,264.5 289.9,264.5 296.4,264.5 302.8,264.5 309.3,264.6 315.7,264.5 322.1,264.5 328.6,264.5 335.0,264.5 341.5,264.5 347.9,264.5 354.4,264.5 360.8,264.6 367.3,264.1 373.7,264.1 380.2,264.1 386.6,264.1 393.1,264.1 399.5,264.1 406.0,264.1 412.4,264.1 418.9,264.1 425.3,264.1 431.8,264.1 438.2,264.2 444.7,265.0 451.1,264.5 457.6,263.7 464.0,263.6 470.5,263.6 476.9,263.6 483.4,263.6 489.8,263.6 496.3,263.6 502.7,263.6 509.2,263.6 515.6,263.6 522.1,263.6 528.5,263.6 535.0,263.6 541.4,263.6 547.9,263.6 554.3,263.6 560.7,263.6 567.2,263.6 573.6,263.6 580.1,263.6 586.5,263.6 593.0,263.6 599.4,263.6 605.9,263.6 612.3,263.6 618.8,263.6 625.2,263.6 631.7,263.6 638.1,263.6 644.6,263.6 651.0,263.6 657.5,263.6 663.9,263.6 670.4,263.6 676.8,263.6 683.3,263.6 689.7,263.6 696.2,263.6 702.6,263.6 709.1,263.6 715.5,263.6 722.0,263.6 728.4,263.6 734.9,263.6 741.3,263.6 747.8,263.6 754.2,263.6 760.7,263.6 767.1,263.6" fill="none" stroke="#f85149" stroke-width="1.5" stroke-linejoin="round" class="anim" style="animation-delay:350ms;"/>
<polyline points="767.1,263.6 773.6,258.4 780.0,253.2" fill="none" stroke="#f85149" stroke-width="1" stroke-dasharray="5,4" stroke-linejoin="round" opacity="0.6" class="anim" style="animation-delay:350ms;"/>
<polyline points="90.0,340.0 96.4,340.0 102.9,340.0 109.3,340.0 115.8,340.0 122.2,340.0 128.7,340.0 135.1,340.0 141.6,308.0 148.0,308.0 154.5,308.0 160.9,308.0 167.4,308.0 173.8,308.0 180.3,308.0 186.7,308.0 193.2,308.0 199.6,308.0 206.1,308.0 212.5,308.0 219.0,308.0 225.4,308.0 231.9,308.0 238.3,308.0 244.8,308.0 251.2,308.0 257.7,308.0 264.1,308.0 270.6,308.0 277.0,308.0 283.5,308.0 289.9,308.0 296.4,308.0 302.8,308.0 309.3,276.0 315.7,276.0 322.1,276.0 328.6,276.0 335.0,276.0 341.5,276.0 347.9,276.0 354.4,276.0 360.8,244.0 367.3,244.0 373.7,244.0 380.2,244.0 386.6,244.0 393.1,244.0 399.5,244.0 406.0,244.0 412.4,244.0 418.9,244.0 425.3,244.0 431.8,244.0 438.2,244.0 444.7,244.0 451.1,244.0 457.6,244.0 464.0,180.0 470.5,180.0 476.9,180.0 483.4,180.0 489.8,180.0 496.3,180.0 502.7,180.0 509.2,180.0 515.6,180.0 522.1,180.0 528.5,180.0 535.0,180.0 541.4,180.0 547.9,180.0 554.3,180.0 560.7,180.0 567.2,180.0 573.6,180.0 580.1,180.0 586.5,180.0 593.0,180.0 599.4,180.0 605.9,180.0 612.3,180.0 618.8,180.0 625.2,180.0 631.7,180.0 638.1,180.0 644.6,180.0 651.0,180.0 657.5,180.0 663.9,180.0 670.4,180.0 676.8,180.0 683.3,180.0 689.7,180.0 696.2,180.0 702.6,180.0 709.1,180.0 715.5,180.0 722.0,180.0 728.4,180.0 734.9,180.0 741.3,180.0 747.8,180.0 754.2,180.0 760.7,180.0 767.1,180.0" fill="none" stroke="#e3b341" stroke-width="1.5" stroke-dasharray="4,3" stroke-linejoin="round" class="anim" style="animation-delay:400ms;"/>
<polyline points="767.1,180.0 773.6,180.0 780.0,148.0" fill="none" stroke="#e3b341" stroke-width="1" stroke-dasharray="3,5" stroke-linejoin="round" opacity="0.5" class="anim" style="animation-delay:400ms;"/>
<text x="90" y="90" class="subtitle">Lines Added vs Deleted (per snapshot)</text>
<text x="90" y="400" class="subtitle">Programming Language Development (%)</text>
<line x1="90" y1="650.0" x2="780" y2="650.0" stroke="#21262d" stroke-width="1"/>
<text x="82" y="654.0" text-anchor="end" class="axis-label">0%</text>
<line x1="90" y1="590.0" x2="780" y2="590.0" stroke="#21262d" stroke-width="1"/>
<text x="82" y="594.0" text-anchor="end" class="axis-label">25%</text>
<line x1="90" y1="530.0" x2="780" y2="530.0" stroke="#21262d" stroke-width="1"/>
<text x="82" y="534.0" text-anchor="end" class="axis-label">50%</text>
<line x1="90" y1="470.0" x2="780" y2="470.0" stroke="#21262d" stroke-width="1"/>
<text x="82" y="474.0" text-anchor="end" class="axis-label">75%</text>
<line x1="90" y1="410.0" x2="780" y2="410.0" stroke="#21262d" stroke-width="1"/>
<text x="82" y="414.0" text-anchor="end" class="axis-label">100%</text>
<polygon points="90.0,650.0 96.4,650.0 102.9,650.0 109.3,650.0 115.8,650.0 122.2,650.0 128.7,650.0 135.1,650.0 141.6,528.2 148.0,528.5 154.5,529.7 160.9,499.3 167.4,499.3 173.8,502.9 180.3,485.0 186.7,485.1 193.2,485.4 199.6,485.4 206.1,485.4 212.5,485.4 219.0,485.4 225.4,496.4 231.9,496.7 238.3,491.0 244.8,491.0 251.2,491.0 257.7,491.7 264.1,491.8 270.6,494.0 277.0,494.0 283.5,494.4 289.9,494.4 296.4,494.4 302.8,494.4 309.3,507.6 315.7,507.6 322.1,507.9 328.6,507.9 335.0,507.9 341.5,506.3 347.9,506.4 354.4,506.8 360.8,506.9 367.3,506.8 373.7,507.5 380.2,507.5 386.6,507.5 393.1,507.5 399.5,507.5 406.0,507.5 412.4,507.5 418.9,507.5 425.3,507.5 431.8,507.5 438.2,507.5 444.7,507.5 451.1,507.5 457.6,508.6 464.0,508.6 470.5,508.6 476.9,508.6 483.4,508.6 489.8,509.5 496.3,509.8 502.7,509.8 509.2,509.8 515.6,509.8 522.1,509.8 528.5,509.8 535.0,509.8 541.4,509.8 547.9,510.9 554.3,510.9 560.7,510.9 567.2,510.9 573.6,510.9 580.1,510.9 586.5,510.9 593.0,510.9 599.4,510.9 605.9,510.9 612.3,510.9 618.8,510.9 625.2,510.9 631.7,510.9 638.1,510.9 644.6,510.9 651.0,510.9 657.5,510.9 663.9,510.9 670.4,510.9 676.8,510.9 683.3,510.9 689.7,510.9 696.2,510.9 702.6,510.9 709.1,510.9 715.5,510.9 722.0,510.9 728.4,510.9 734.9,510.9 741.3,510.9 747.8,510.9 754.2,510.9 760.7,510.9 767.1,510.9 773.6,513.0 780.0,515.0 780.0,650.0 773.6,650.0 767.1,650.0 760.7,650.0 754.2,650.0 747.8,650.0 741.3,650.0 734.9,650.0 728.4,650.0 722.0,650.0 715.5,650.0 709.1,650.0 702.6,650.0 696.2,650.0 689.7,650.0 683.3,650.0 676.8,650.0 670.4,650.0 663.9,650.0 657.5,650.0 651.0,650.0 644.6,650.0 638.1,650.0 631.7,650.0 625.2,650.0 618.8,650.0 612.3,650.0 605.9,650.0 599.4,650.0 593.0,650.0 586.5,650.0 580.1,650.0 573.6,650.0 567.2,650.0 560.7,650.0 554.3,650.0 547.9,650.0 541.4,650.0 535.0,650.0 528.5,650.0 522.1,650.0 515.6,650.0 509.2,650.0 502.7,650.0 496.3,650.0 489.8,650.0 483.4,650.0 476.9,650.0 470.5,650.0 464.0,650.0 457.6,650.0 451.1,650.0 444.7,650.0 438.2,650.0 431.8,650.0 425.3,650.0 418.9,650.0 412.4,650.0 406.0,650.0 399.5,650.0 393.1,650.0 386.6,650.0 380.2,650.0 373.7,650.0 367.3,650.0 360.8,650.0 354.4,650.0 347.9,650.0 341.5,650.0 335.0,650.0 328.6,650.0 322.1,650.0 315.7,650.0 309.3,650.0 302.8,650.0 296.4,650.0 289.9,650.0 283.5,650.0 277.0,650.0 270.6,650.0 264.1,650.0 257.7,650.0 251.2,650.0 244.8,650.0 238.3,650.0 231.9,650.0 225.4,650.0 219.0,650.0 212.5,650.0 206.1,650.0 199.6,650.0 193.2,650.0 186.7,650.0 180.3,650.0 173.8,650.0 167.4,650.0 160.9,650.0 154.5,650.0 148.0,650.0 141.6,650.0 135.1,650.0 128.7,650.0 122.2,650.0 115.8,650.0 109.3,650.0 102.9,650.0 96.4,650.0 90.0,650.0" fill="#e34c26" opacity="0.6" class="anim" style="animation-delay:500ms;"/>
<polygon points="90.0,650.0 96.4,650.0 102.9,650.0 109.3,650.0 115.8,650.0 122.2,650.0 128.7,650.0 135.1,650.0 141.6,488.4 148.0,488.0 154.5,489.0 160.9,476.0 167.4,476.0 173.8,477.2 180.3,460.1 186.7,460.2 193.2,460.6 199.6,460.6 206.1,460.6 212.5,460.6 219.0,460.6 225.4,473.0 231.9,473.5 238.3,469.5 244.8,469.5 251.2,469.5 257.7,469.7 264.1,469.7 270.6,469.7 277.0,469.7 283.5,469.7 289.9,469.7 296.4,469.7 302.8,469.7 309.3,455.6 315.7,455.6 322.1,455.4 328.6,455.4 335.0,455.4 341.5,454.3 347.9,454.3 354.4,455.0 360.8,455.1 367.3,454.9 373.7,455.9 380.2,455.9 386.6,455.9 393.1,455.9 399.5,455.9 406.0,455.9 412.4,455.9 418.9,455.9 425.3,455.9 431.8,455.9 438.2,455.9 444.7,455.9 451.1,455.9 457.6,455.8 464.0,455.8 470.5,455.8 476.9,455.8 483.4,455.8 489.8,457.0 496.3,457.4 502.7,457.4 509.2,457.4 515.6,457.4 522.1,457.4 528.5,457.4 535.0,457.4 541.4,457.4 547.9,458.2 554.3,458.2 560.7,458.2 567.2,458.2 573.6,458.2 580.1,458.2 586.5,458.2 593.0,458.2 599.4,458.2 605.9,458.2 612.3,458.2 618.8,458.2 625.2,458.2 631.7,458.2 638.1,458.2 644.6,458.2 651.0,458.2 657.5,458.2 663.9,458.2 670.4,458.2 676.8,458.2 683.3,458.2 689.7,458.2 696.2,458.2 702.6,458.2 709.1,458.2 715.5,458.2 722.0,458.2 728.4,458.2 734.9,458.2 741.3,458.2 747.8,458.2 754.2,458.2 760.7,458.2 767.1,458.2 773.6,456.7 780.0,455.2 780.0,515.0 773.6,513.0 767.1,510.9 760.7,510.9 754.2,510.9 747.8,510.9 741.3,510.9 734.9,510.9 728.4,510.9 722.0,510.9 715.5,510.9 709.1,510.9 702.6,510.9 696.2,510.9 689.7,510.9 683.3,510.9 676.8,510.9 670.4,510.9 663.9,510.9 657.5,510.9 651.0,510.9 644.6,510.9 638.1,510.9 631.7,510.9 625.2,510.9 618.8,510.9 612.3,510.9 605.9,510.9 599.4,510.9 593.0,510.9 586.5,510.9 580.1,510.9 573.6,510.9 567.2,510.9 560.7,510.9 554.3,510.9 547.9,510.9 541.4,509.8 535.0,509.8 528.5,509.8 522.1,509.8 515.6,509.8 509.2,509.8 502.7,509.8 496.3,509.8 489.8,509.5 483.4,508.6 476.9,508.6 470.5,508.6 464.0,508.6 457.6,508.6 451.1,507.5 444.7,507.5 438.2,507.5 431.8,507.5 425.3,507.5 418.9,507.5 412.4,507.5 406.0,507.5 399.5,507.5 393.1,507.5 386.6,507.5 380.2,507.5 373.7,507.5 367.3,506.8 360.8,506.9 354.4,506.8 347.9,506.4 341.5,506.3 335.0,507.9 328.6,507.9 322.1,507.9 315.7,507.6 309.3,507.6 302.8,494.4 296.4,494.4 289.9,494.4 283.5,494.4 277.0,494.0 270.6,494.0 264.1,491.8 257.7,491.7 251.2,491.0 244.8,491.0 238.3,491.0 231.9,496.7 225.4,496.4 219.0,485.4 212.5,485.4 206.1,485.4 199.6,485.4 193.2,485.4 186.7,485.1 180.3,485.0 173.8,502.9 167.4,499.3 160.9,499.3 154.5,529.7 148.0,528.5 141.6,528.2 135.1,650.0 128.7,650.0 122.2,650.0 115.8,650.0 109.3,650.0 102.9,650.0 96.4,650.0 90.0,650.0" fill="#f1e05a" opacity="0.6" class="anim" style="animation-delay:600ms;"/>
<polygon points="90.0,650.0 96.4,650.0 102.9,650.0 109.3,650.0 115.8,650.0 122.2,650.0 128.7,650.0 135.1,650.0 141.6,455.5 148.0,455.4 154.5,455.1 160.9,447.0 167.4,447.0 173.8,448.2 180.3,438.9 186.7,439.0 193.2,439.6 199.6,439.6 206.1,439.6 212.5,439.6 219.0,439.6 225.4,445.6 231.9,445.6 238.3,443.3 244.8,443.3 251.2,443.3 257.7,443.6 264.1,443.6 270.6,444.1 277.0,444.1 283.5,444.1 289.9,444.1 296.4,444.1 302.8,444.1 309.3,437.5 315.7,437.5 322.1,437.5 328.6,437.5 335.0,437.5 341.5,437.5 347.9,437.5 354.4,438.4 360.8,438.5 367.3,438.3 373.7,439.3 380.2,439.3 386.6,439.3 393.1,439.3 399.5,439.3 406.0,439.3 412.4,439.3 418.9,439.3 425.3,439.3 431.8,439.3 438.2,439.3 444.7,439.3 451.1,439.3 457.6,439.4 464.0,439.4 470.5,439.4 476.9,439.4 483.4,439.4 489.8,440.7 496.3,441.1 502.7,441.1 509.2,441.1 515.6,441.1 522.1,441.1 528.5,441.1 535.0,441.1 541.4,441.1 547.9,442.0 554.3,442.0 560.7,442.0 567.2,442.0 573.6,442.0 580.1,442.0 586.5,442.0 593.0,442.0 599.4,442.0 605.9,442.0 612.3,442.0 618.8,442.0 625.2,442.0 631.7,442.0 638.1,442.0 644.6,442.0 651.0,442.0 657.5,442.0 663.9,442.0 670.4,442.0 676.8,442.0 683.3,442.0 689.7,442.0 696.2,442.0 702.6,442.0 709.1,442.0 715.5,442.0 722.0,442.0 728.4,442.0 734.9,442.0 741.3,442.0 747.8,442.0 754.2,442.0 760.7,442.0 767.1,442.0 773.6,441.9 780.0,441.8 780.0,455.2 773.6,456.7 767.1,458.2 760.7,458.2 754.2,458.2 747.8,458.2 741.3,458.2 734.9,458.2 728.4,458.2 722.0,458.2 715.5,458.2 709.1,458.2 702.6,458.2 696.2,458.2 689.7,458.2 683.3,458.2 676.8,458.2 670.4,458.2 663.9,458.2 657.5,458.2 651.0,458.2 644.6,458.2 638.1,458.2 631.7,458.2 625.2,458.2 618.8,458.2 612.3,458.2 605.9,458.2 599.4,458.2 593.0,458.2 586.5,458.2 580.1,458.2 573.6,458.2 567.2,458.2 560.7,458.2 554.3,458.2 547.9,458.2 541.4,457.4 535.0,457.4 528.5,457.4 522.1,457.4 515.6,457.4 509.2,457.4 502.7,457.4 496.3,457.4 489.8,457.0 483.4,455.8 476.9,455.8 470.5,455.8 464.0,455.8 457.6,455.8 451.1,455.9 444.7,455.9 438.2,455.9 431.8,455.9 425.3,455.9 418.9,455.9 412.4,455.9 406.0,455.9 399.5,455.9 393.1,455.9 386.6,455.9 380.2,455.9 373.7,455.9 367.3,454.9 360.8,455.1 354.4,455.0 347.9,454.3 341.5,454.3 335.0,455.4 328.6,455.4 322.1,455.4 315.7,455.6 309.3,455.6 302.8,469.7 296.4,469.7 289.9,469.7 283.5,469.7 277.0,469.7 270.6,469.7 264.1,469.7 257.7,469.7 251.2,469.5 244.8,469.5 238.3,469.5 231.9,473.5 225.4,473.0 219.0,460.6 212.5,460.6 206.1,460.6 199.6,460.6 193.2,460.6 186.7,460.2 180.3,460.1 173.8,477.2 167.4,476.0 160.9,476.0 154.5,489.0 148.0,488.0 141.6,488.4 135.1,650.0 128.7,650.0 122.2,650.0 115.8,650.0 109.3,650.0 102.9,650.0 96.4,650.0 90.0,650.0" fill="#3572A5" opacity="0.6" class="anim" style="animation-delay:700ms;"/>
<polygon points="90.0,650.0 96.4,650.0 102.9,650.0 109.3,650.0 115.8,650.0 122.2,650.0 128.7,650.0 135.1,650.0 141.6,442.3 148.0,442.0 154.5,441.6 160.9,439.5 167.4,439.5 173.8,439.4 180.3,432.3 186.7,432.2 193.2,432.6 199.6,432.6 206.1,432.6 212.5,432.6 219.0,432.6 225.4,439.3 231.9,439.3 238.3,437.4 244.8,437.4 251.2,437.4 257.7,437.3 264.1,437.3 270.6,437.1 277.0,437.1 283.5,437.1 289.9,437.1 296.4,437.1 302.8,437.1 309.3,428.7 315.7,428.6 322.1,428.5 328.6,428.5 335.0,428.5 341.5,427.3 347.9,427.3 354.4,427.1 360.8,427.1 367.3,427.1 373.7,427.0 380.2,427.0 386.6,427.0 393.1,427.0 399.5,427.0 406.0,427.0 412.4,427.0 418.9,427.0 425.3,427.0 431.8,427.0 438.2,427.0 444.7,427.0 451.1,427.0 457.6,427.0 464.0,427.1 470.5,427.1 476.9,427.1 483.4,427.1 489.8,428.4 496.3,428.9 502.7,428.9 509.2,428.9 515.6,428.9 522.1,428.9 528.5,428.9 535.0,428.9 541.4,428.9 547.9,428.7 554.3,428.7 560.7,428.7 567.2,428.7 573.6,428.7 580.1,428.7 586.5,428.7 593.0,428.7 599.4,428.7 605.9,428.7 612.3,428.7 618.8,428.7 625.2,428.7 631.7,428.7 638.1,428.7 644.6,428.7 651.0,428.7 657.5,428.7 663.9,428.7 670.4,428.7 676.8,428.7 683.3,428.7 689.7,428.7 696.2,428.7 702.6,428.7 709.1,428.7 715.5,428.7 722.0,428.7 728.4,428.7 734.9,428.7 741.3,428.7 747.8,428.7 754.2,428.7 760.7,428.7 767.1,428.7 773.6,427.8 780.0,426.9 780.0,441.8 773.6,441.9 767.1,442.0 760.7,442.0 754.2,442.0 747.8,442.0 741.3,442.0 734.9,442.0 728.4,442.0 722.0,442.0 715.5,442.0 709.1,442.0 702.6,442.0 696.2,442.0 689.7,442.0 683.3,442.0 676.8,442.0 670.4,442.0 663.9,442.0 657.5,442.0 651.0,442.0 644.6,442.0 638.1,442.0 631.7,442.0 625.2,442.0 618.8,442.0 612.3,442.0 605.9,442.0 599.4,442.0 593.0,442.0 586.5,442.0 580.1,442.0 573.6,442.0 567.2,442.0 560.7,442.0 554.3,442.0 547.9,442.0 541.4,441.1 535.0,441.1 528.5,441.1 522.1,441.1 515.6,441.1 509.2,441.1 502.7,441.1 496.3,441.1 489.8,440.7 483.4,439.4 476.9,439.4 470.5,439.4 464.0,439.4 457.6,439.4 451.1,439.3 444.7,439.3 438.2,439.3 431.8,439.3 425.3,439.3 418.9,439.3 412.4,439.3 406.0,439.3 399.5,439.3 393.1,439.3 386.6,439.3 380.2,439.3 373.7,439.3 367.3,438.3 360.8,438.5 354.4,438.4 347.9,437.5 341.5,437.5 335.0,437.5 328.6,437.5 322.1,437.5 315.7,437.5 309.3,437.5 302.8,444.1 296.4,444.1 289.9,444.1 283.5,444.1 277.0,444.1 270.6,444.1 264.1,443.6 257.7,443.6 251.2,443.3 244.8,443.3 238.3,443.3 231.9,445.6 225.4,445.6 219.0,439.6 212.5,439.6 206.1,439.6 199.6,439.6 193.2,439.6 186.7,439.0 180.3,438.9 173.8,448.2 167.4,447.0 160.9,447.0 154.5,455.1 148.0,455.4 141.6,455.5 135.1,650.0 128.7,650.0 122.2,650.0 115.8,650.0 109.3,650.0 102.9,650.0 96.4,650.0 90.0,650.0" fill="#663399" opacity="0.6" class="anim" style="animation-delay:800ms;"/>
<polygon points="90.0,650.0 96.4,650.0 102.9,650.0 109.3,650.0 115.8,650.0 122.2,650.0 128.7,650.0 135.1,650.0 141.6,436.6 148.0,436.3 154.5,435.9 160.9,432.2 167.4,432.2 173.8,432.2 180.3,426.2 186.7,426.1 193.2,426.0 199.6,426.0 206.1,426.0 212.5,426.0 219.0,426.0 225.4,430.8 231.9,430.7 238.3,429.3 244.8,429.3 251.2,429.3 257.7,429.2 264.1,429.2 270.6,428.9 277.0,428.9 283.5,428.8 289.9,428.8 296.4,428.8 302.8,428.8 309.3,423.0 315.7,422.9 322.1,422.9 328.6,422.9 335.0,422.9 341.5,422.0 347.9,422.0 354.4,421.9 360.8,421.9 367.3,421.9 373.7,421.8 380.2,421.8 386.6,421.8 393.1,421.8 399.5,421.8 406.0,421.8 412.4,421.8 418.9,421.8 425.3,421.8 431.8,421.8 438.2,421.8 444.7,421.8 451.1,421.8 457.6,421.7 464.0,421.8 470.5,421.8 476.9,421.8 483.4,421.8 489.8,423.2 496.3,423.6 502.7,423.6 509.2,423.6 515.6,423.6 522.1,423.6 528.5,423.6 535.0,423.6 541.4,423.6 547.9,423.5 554.3,423.5 560.7,423.5 567.2,423.5 573.6,423.5 580.1,423.5 586.5,423.5 593.0,423.5 599.4,423.5 605.9,423.5 612.3,423.5 618.8,423.5 625.2,423.5 631.7,423.5 638.1,423.5 644.6,423.5 651.0,423.5 657.5,423.5 663.9,423.5 670.4,423.5 676.8,423.5 683.3,423.5 689.7,423.5 696.2,423.5 702.6,423.5 709.1,423.5 715.5,423.5 722.0,423.5 728.4,423.5 734.9,423.5 741.3,423.5 747.8,423.5 754.2,423.5 760.7,423.5 767.1,423.5 773.6,422.9 780.0,422.3 780.0,426.9 773.6,427.8 767.1,428.7 760.7,428.7 754.2,428.7 747.8,428.7 741.3,428.7 734.9,428.7 728.4,428.7 722.0,428.7 715.5,428.7 709.1,428.7 702.6,428.7 696.2,428.7 689.7,428.7 683.3,428.7 676.8,428.7 670.4,428.7 663.9,428.7 657.5,428.7 651.0,428.7 644.6,428.7 638.1,428.7 631.7,428.7 625.2,428.7 618.8,428.7 612.3,428.7 605.9,428.7 599.4,428.7 593.0,428.7 586.5,428.7 580.1,428.7 573.6,428.7 567.2,428.7 560.7,428.7 554.3,428.7 547.9,428.7 541.4,428.9 535.0,428.9 528.5,428.9 522.1,428.9 515.6,428.9 509.2,428.9 502.7,428.9 496.3,428.9 489.8,428.4 483.4,427.1 476.9,427.1 470.5,427.1 464.0,427.1 457.6,427.0 451.1,427.0 444.7,427.0 438.2,427.0 431.8,427.0 425.3,427.0 418.9,427.0 412.4,427.0 406.0,427.0 399.5,427.0 393.1,427.0 386.6,427.0 380.2,427.0 373.7,427.0 367.3,427.1 360.8,427.1 354.4,427.1 347.9,427.3 341.5,427.3 335.0,428.5 328.6,428.5 322.1,428.5 315.7,428.6 309.3,428.7 302.8,437.1 296.4,437.1 289.9,437.1 283.5,437.1 277.0,437.1 270.6,437.1 264.1,437.3 257.7,437.3 251.2,437.4 244.8,437.4 238.3,437.4 231.9,439.3 225.4,439.3 219.0,432.6 212.5,432.6 206.1,432.6 199.6,432.6 193.2,432.6 186.7,432.2 180.3,432.3 173.8,439.4 167.4,439.5 160.9,439.5 154.5,441.6 148.0,442.0 141.6,442.3 135.1,650.0 128.7,650.0 122.2,650.0 115.8,650.0 109.3,650.0 102.9,650.0 96.4,650.0 90.0,650.0" fill="#083fa1" opacity="0.6" class="anim" style="animation-delay:900ms;"/>
<polygon points="90.0,650.0 96.4,650.0 102.9,650.0 109.3,650.0 115.8,650.0 122.2,650.0 128.7,650.0 135.1,650.0 141.6,428.3 148.0,428.1 154.5,427.8 160.9,425.3 167.4,425.3 173.8,425.2 180.3,421.1 186.7,421.1 193.2,421.0 199.6,421.0 206.1,421.0 212.5,421.0 219.0,421.0 225.4,424.3 231.9,424.2 238.3,423.3 244.8,423.3 251.2,423.3 257.7,423.2 264.1,423.2 270.6,423.0 277.0,423.0 283.5,422.9 289.9,422.9 296.4,422.9 302.8,422.9 309.3,418.9 315.7,418.9 322.1,418.8 328.6,418.8 335.0,418.8 341.5,418.3 347.9,418.3 354.4,418.2 360.8,418.2 367.3,418.2 373.7,418.1 380.2,418.1 386.6,418.1 393.1,418.1 399.5,418.1 406.0,418.1 412.4,418.1 418.9,418.1 425.3,418.1 431.8,418.1 438.2,418.1 444.7,418.1 451.1,418.1 457.6,418.1 464.0,418.1 470.5,418.1 476.9,418.1 483.4,418.1 489.8,418.0 496.3,418.0 502.7,418.0 509.2,418.0 515.6,418.0 522.1,418.0 528.5,418.0 535.0,418.0 541.4,418.0 547.9,417.9 554.3,417.9 560.7,417.9 567.2,417.9 573.6,417.9 580.1,417.9 586.5,417.9 593.0,417.9 599.4,417.9 605.9,417.9 612.3,417.9 618.8,417.9 625.2,417.9 631.7,417.9 638.1,417.9 644.6,417.9 651.0,417.9 657.5,417.9 663.9,417.9 670.4,417.9 676.8,417.9 683.3,417.9 689.7,417.9 696.2,417.9 702.6,417.9 709.1,417.9 715.5,417.9 722.0,417.9 728.4,417.9 734.9,417.9 741.3,417.9 747.8,417.9 754.2,417.9 760.7,417.9 767.1,417.9 773.6,417.3 780.0,416.7 780.0,422.3 773.6,422.9 767.1,423.5 760.7,423.5 754.2,423.5 747.8,423.5 741.3,423.5 734.9,423.5 728.4,423.5 722.0,423.5 715.5,423.5 709.1,423.5 702.6,423.5 696.2,423.5 689.7,423.5 683.3,423.5 676.8,423.5 670.4,423.5 663.9,423.5 657.5,423.5 651.0,423.5 644.6,423.5 638.1,423.5 631.7,423.5 625.2,423.5 618.8,423.5 612.3,423.5 605.9,423.5 599.4,423.5 593.0,423.5 586.5,423.5 580.1,423.5 573.6,423.5 567.2,423.5 560.7,423.5 554.3,423.5 547.9,423.5 541.4,423.6 535.0,423.6 528.5,423.6 522.1,423.6 515.6,423.6 509.2,423.6 502.7,423.6 496.3,423.6 489.8,423.2 483.4,421.8 476.9,421.8 470.5,421.8 464.0,421.8 457.6,421.7 451.1,421.8 444.7,421.8 438.2,421.8 431.8,421.8 425.3,421.8 418.9,421.8 412.4,421.8 406.0,421.8 399.5,421.8 393.1,421.8 386.6,421.8 380.2,421.8 373.7,421.8 367.3,421.9 360.8,421.9 354.4,421.9 347.9,422.0 341.5,422.0 335.0,422.9 328.6,422.9 322.1,422.9 315.7,422.9 309.3,423.0 302.8,428.8 296.4,428.8 289.9,428.8 283.5,428.8 277.0,428.9 270.6,428.9 264.1,429.2 257.7,429.2 251.2,429.3 244.8,429.3 238.3,429.3 231.9,430.7 225.4,430.8 219.0,426.0 212.5,426.0 206.1,426.0 199.6,426.0 193.2,426.0 186.7,426.1 180.3,426.2 173.8,432.2 167.4,432.2 160.9,432.2 154.5,435.9 148.0,436.3 141.6,436.6 135.1,650.0 128.7,650.0 122.2,650.0 115.8,650.0 109.3,650.0 102.9,650.0 96.4,650.0 90.0,650.0" fill="#F05138" opacity="0.6" class="anim" style="animation-delay:1000ms;"/>
<polygon points="90.0,650.0 96.4,650.0 102.9,650.0 109.3,650.0 115.8,650.0 122.2,650.0 128.7,650.0 135.1,650.0 141.6,418.7 148.0,418.6 154.5,418.5 160.9,417.3 167.4,417.3 173.8,417.2 180.3,415.3 186.7,415.3 193.2,415.2 199.6,415.2 206.1,415.2 212.5,415.2 219.0,415.2 225.4,416.8 231.9,416.8 238.3,416.3 244.8,416.3 251.2,416.3 257.7,416.3 264.1,416.3 270.6,416.2 277.0,416.2 283.5,416.2 289.9,416.2 296.4,416.2 302.8,416.2 309.3,414.2 315.7,414.2 322.1,414.2 328.6,414.2 335.0,414.2 341.5,413.9 347.9,413.9 354.4,413.9 360.8,413.9 367.3,413.9 373.7,413.9 380.2,413.9 386.6,413.9 393.1,413.9 399.5,413.9 406.0,413.9 412.4,413.9 418.9,413.9 425.3,413.9 431.8,413.9 438.2,413.9 444.7,413.9 451.1,413.9 457.6,413.8 464.0,413.8 470.5,413.8 476.9,413.8 483.4,413.8 489.8,413.8 496.3,413.8 502.7,413.8 509.2,413.8 515.6,413.8 522.1,413.8 528.5,413.8 535.0,413.8 541.4,413.8 547.9,413.8 554.3,413.8 560.7,413.8 567.2,413.8 573.6,413.8 580.1,413.8 586.5,413.8 593.0,413.8 599.4,413.8 605.9,413.8 612.3,413.8 618.8,413.8 625.2,413.8 631.7,413.8 638.1,413.8 644.6,413.8 651.0,413.8 657.5,413.8 663.9,413.8 670.4,413.8 676.8,413.8 683.3,413.8 689.7,413.8 696.2,413.8 702.6,413.8 709.1,413.8 715.5,413.8 722.0,413.8 728.4,413.8 734.9,413.8 741.3,413.8 747.8,413.8 754.2,413.8 760.7,413.8 767.1,413.8 773.6,413.6 780.0,413.4 780.0,416.7 773.6,417.3 767.1,417.9 760.7,417.9 754.2,417.9 747.8,417.9 741.3,417.9 734.9,417.9 728.4,417.9 722.0,417.9 715.5,417.9 709.1,417.9 702.6,417.9 696.2,417.9 689.7,417.9 683.3,417.9 676.8,417.9 670.4,417.9 663.9,417.9 657.5,417.9 651.0,417.9 644.6,417.9 638.1,417.9 631.7,417.9 625.2,417.9 618.8,417.9 612.3,417.9 605.9,417.9 599.4,417.9 593.0,417.9 586.5,417.9 580.1,417.9 573.6,417.9 567.2,417.9 560.7,417.9 554.3,417.9 547.9,417.9 541.4,418.0 535.0,418.0 528.5,418.0 522.1,418.0 515.6,418.0 509.2,418.0 502.7,418.0 496.3,418.0 489.8,418.0 483.4,418.1 476.9,418.1 470.5,418.1 464.0,418.1 457.6,418.1 451.1,418.1 444.7,418.1 438.2,418.1 431.8,418.1 425.3,418.1 418.9,418.1 412.4,418.1 406.0,418.1 399.5,418.1 393.1,418.1 386.6,418.1 380.2,418.1 373.7,418.1 367.3,418.2 360.8,418.2 354.4,418.2 347.9,418.3 341.5,418.3 335.0,418.8 328.6,418.8 322.1,418.8 315.7,418.9 309.3,418.9 302.8,422.9 296.4,422.9 289.9,422.9 283.5,422.9 277.0,423.0 270.6,423.0 264.1,423.2 257.7,423.2 251.2,423.3 244.8,423.3 238.3,423.3 231.9,424.2 225.4,424.3 219.0,421.0 212.5,421.0 206.1,421.0 199.6,421.0 193.2,421.0 186.7,421.1 180.3,421.1 173.8,425.2 167.4,425.3 160.9,425.3 154.5,427.8 148.0,428.1 141.6,428.3 135.1,650.0 128.7,650.0 122.2,650.0 115.8,650.0 109.3,650.0 102.9,650.0 96.4,650.0 90.0,650.0" fill="#6E4C13" opacity="0.6" class="anim" style="animation-delay:1100ms;"/>
<polygon points="90.0,650.0 96.4,650.0 102.9,650.0 109.3,650.0 115.8,650.0 122.2,650.0 128.7,650.0 135.1,650.0 141.6,414.4 148.0,414.4 154.5,414.3 160.9,413.7 167.4,413.7 173.8,413.7 180.3,412.7 186.7,412.7 193.2,412.7 199.6,412.7 206.1,412.7 212.5,412.7 219.0,412.7 225.4,413.5 231.9,413.4 238.3,413.2 244.8,413.2 251.2,413.2 257.7,413.2 264.1,413.2 270.6,413.1 277.0,413.1 283.5,413.1 289.9,413.1 296.4,413.1 302.8,413.1 309.3,412.2 315.7,412.1 322.1,412.1 328.6,412.1 335.0,412.1 341.5,412.0 347.9,412.0 354.4,412.0 360.8,412.0 367.3,412.0 373.7,412.0 380.2,412.0 386.6,412.0 393.1,412.0 399.5,412.0 406.0,412.0 412.4,412.0 418.9,412.0 425.3,412.0 431.8,412.0 438.2,412.0 444.7,412.0 451.1,412.0 457.6,411.9 464.0,411.9 470.5,411.9 476.9,411.9 483.4,411.9 489.8,411.9 496.3,411.9 502.7,411.9 509.2,411.9 515.6,411.9 522.1,411.9 528.5,411.9 535.0,411.9 541.4,411.9 547.9,411.9 554.3,411.9 560.7,411.9 567.2,411.9 573.6,411.9 580.1,411.9 586.5,411.9 593.0,411.9 599.4,411.9 605.9,411.9 612.3,411.9 618.8,411.9 625.2,411.9 631.7,411.9 638.1,411.9 644.6,411.9 651.0,411.9 657.5,411.9 663.9,411.9 670.4,411.9 676.8,411.9 683.3,411.9 689.7,411.9 696.2,411.9 702.6,411.9 709.1,411.9 715.5,411.9 722.0,411.9 728.4,411.9 734.9,411.9 741.3,411.9 747.8,411.9 754.2,411.9 760.7,411.9 767.1,411.9 773.6,411.9 780.0,411.9 780.0,413.4 773.6,413.6 767.1,413.8 760.7,413.8 754.2,413.8 747.8,413.8 741.3,413.8 734.9,413.8 728.4,413.8 722.0,413.8 715.5,413.8 709.1,413.8 702.6,413.8 696.2,413.8 689.7,413.8 683.3,413.8 676.8,413.8 670.4,413.8 663.9,413.8 657.5,413.8 651.0,413.8 644.6,413.8 638.1,413.8 631.7,413.8 625.2,413.8 618.8,413.8 612.3,413.8 605.9,413.8 599.4,413.8 593.0,413.8 586.5,413.8 580.1,413.8 573.6,413.8 567.2,413.8 560.7,413.8 554.3,413.8 547.9,413.8 541.4,413.8 535.0,413.8 528.5,413.8 522.1,413.8 515.6,413.8 509.2,413.8 502.7,413.8 496.3,413.8 489.8,413.8 483.4,413.8 476.9,413.8 470.5,413.8 464.0,413.8 457.6,413.8 451.1,413.9 444.7,413.9 438.2,413.9 431.8,413.9 425.3,413.9 418.9,413.9 412.4,413.9 406.0,413.9 399.5,413.9 393.1,413.9 386.6,413.9 380.2,413.9 373.7,413.9 367.3,413.9 360.8,413.9 354.4,413.9 347.9,413.9 341.5,413.9 335.0,414.2 328.6,414.2 322.1,414.2 315.7,414.2 309.3,414.2 302.8,416.2 296.4,416.2 289.9,416.2 283.5,416.2 277.0,416.2 270.6,416.2 264.1,416.3 257.7,416.3 251.2,416.3 244.8,416.3 238.3,416.3 231.9,416.8 225.4,416.8 219.0,415.2 212.5,415.2 206.1,415.2 199.6,415.2 193.2,415.2 186.7,415.3 180.3,415.3 173.8,417.2 167.4,417.3 160.9,417.3 154.5,418.5 148.0,418.6 141.6,418.7 135.1,650.0 128.7,650.0 122.2,650.0 115.8,650.0 109.3,650.0 102.9,650.0 96.4,650.0 90.0,650.0" fill="#b07219" opacity="0.6" class="anim" style="animation-delay:1200ms;"/>
<line x1="767.1" y1="100" x2="767.1" y2="650" stroke="#c9d1d9" stroke-width="1" stroke-dasharray="4,3" opacity="0.35"/>
<text x="773.6" y="112" text-anchor="middle" class="axis-label" opacity="0.6">Aug 10, 2026</text>
<text x="90.0" y="668" text-anchor="middle" class="axis-label" transform="rotate(-35 90.0 668)">2026-02</text>
<text x="302.8" y="668" text-anchor="middle" class="axis-label" transform="rotate(-35 302.8 668)">2026-03</text>
<text x="444.7" y="668" text-anchor="middle" class="axis-label" transform="rotate(-35 444.7 668)">2026-04</text>
<text x="515.6" y="668" text-anchor="middle" class="axis-label" transform="rotate(-35 515.6 668)">2026-06</text>
<text x="657.5" y="668" text-anchor="middle" class="axis-label" transform="rotate(-35 657.5 668)">2026-07</text>
<text x="773.6" y="668" text-anchor="middle" class="axis-label" transform="rotate(-35 773.6 668)">Aug 10, 2026</text>
<line x1="796" y1="110" x2="824" y2="110" stroke="#3fb950" stroke-width="2"/>
<text x="832" y="116" class="legend-text">Lines Added</text>
<line x1="796" y1="140" x2="824" y2="140" stroke="#f85149" stroke-width="1.5"/>
<text x="832" y="146" class="legend-text">Lines Deleted</text>
<line x1="796" y1="170" x2="824" y2="170" stroke="#e3b341" stroke-width="1.5" stroke-dasharray="4,3"/>
<text x="832" y="176" class="legend-text">&#x2605; Stars</text>
<text x="796" y="200" class="subtitle">Languages</text>
<rect x="796" y="212" width="12" height="12" rx="2" fill="#e34c26" opacity="0.8" class="anim" style="animation-delay:800ms;"/>
<text x="814" y="223" class="legend-text">HTML (58%→56%)</text>
<rect x="796" y="234" width="12" height="12" rx="2" fill="#f1e05a" opacity="0.8" class="anim" style="animation-delay:880ms;"/>
<text x="814" y="245" class="legend-text">JavaScript (22%→25%)</text>
<rect x="796" y="256" width="12" height="12" rx="2" fill="#3572A5" opacity="0.8" class="anim" style="animation-delay:960ms;"/>
<text x="814" y="267" class="legend-text">Python (7%→6%)</text>
<rect x="796" y="278" width="12" height="12" rx="2" fill="#663399" opacity="0.8" class="anim" style="animation-delay:1040ms;"/>
<text x="814" y="289" class="legend-text">CSS (6%→6%)</text>
<rect x="796" y="300" width="12" height="12" rx="2" fill="#083fa1" opacity="0.8" class="anim" style="animation-delay:1120ms;"/>
<text x="814" y="311" class="legend-text">Markdown (2%→2%)</text>
<rect x="796" y="322" width="12" height="12" rx="2" fill="#F05138" opacity="0.8" class="anim" style="animation-delay:1200ms;"/>
<text x="814" y="333" class="legend-text">Swift (2%)</text>
<rect x="796" y="344" width="12" height="12" rx="2" fill="#6E4C13" opacity="0.8" class="anim" style="animation-delay:1280ms;"/>
<text x="814" y="355" class="legend-text">Assembly (2%→1%)</text>
<rect x="796" y="366" width="12" height="12" rx="2" fill="#b07219" opacity="0.8" class="anim" style="animation-delay:1360ms;"/>
<text x="814" y="377" class="legend-text">Java (1%→1%)</text>
<text x="796" y="412" class="subtitle">Contributions</text>
<text x="796" y="432" class="axis-label">2023: 39</text>
<text x="796" y="452" class="axis-label">2024: 646</text>
<text x="796" y="472" class="axis-label">2025: 1,780</text>
<text x="796" y="492" class="axis-label">2026: 491</text>
<text x="796" y="522" class="subtitle">Statistics</text>
<text x="796" y="542" class="axis-label">Active weeks: 88</text>
<text x="796" y="562" class="axis-label">Add/Del ratio: 1.8x</text>
<text x="796" y="582" class="axis-label">Avg lines/wk: 18K</text>
<text x="796" y="602" class="axis-label">Peak: 2026-02-15</text>
<text x="796" y="622" class="axis-label">  (543K lines)</text>
<text x="90" y="742" class="axis-label">Total: +1,040,332 / -576,819 lines &#xb7; 2,956 contributions &#xb7; 80 repos &#xb7; &#x2605; 37</text>
</svg>