<svg xmlns="http://www.w3.org/2000/svg" width="1000" height="760" style="max-width: 100%;" viewBox="0 0 1000 760">

<defs>
  <linearGradient id="areaGrad" x1="0" y1="0" x2="0" y2="1">
    <stop offset="0%" stop-color="#58a6ff" stop-opacity="0.35"/>
    <stop offset="100%" stop-color="#58a6ff" stop-opacity="0.02"/>
  </linearGradient>
  <linearGradient id="addGrad" x1="0" y1="0" x2="0" y2="1">
    <stop offset="0%" stop-color="#3fb950" stop-opacity="0.35"/>
    <stop offset="100%" stop-color="#3fb950" stop-opacity="0.02"/>
  </linearGradient>
  <linearGradient id="delGrad" x1="0" y1="0" x2="0" y2="1">
    <stop offset="0%" stop-color="#f85149" stop-opacity="0.25"/>
    <stop offset="100%" stop-color="#f85149" stop-opacity="0.02"/>
  </linearGradient>
</defs>
<style>
  .title { font: bold 28px 'Segoe UI', Ubuntu, Sans-Serif; fill: #c9d1d9; }
  .subtitle { font: 600 20px 'Segoe UI', Ubuntu, Sans-Serif; fill: #c9d1d9; opacity: 0.8; }
  .axis-label { font: 18px 'Segoe UI', Ubuntu, Sans-Serif; fill: #c9d1d9; opacity: 0.7; }
  .legend-text { font: 14px 'Segoe UI', Ubuntu, Sans-Serif; fill: #c9d1d9; }
  .value-text { font: bold 18px 'Segoe UI', Ubuntu, Sans-Serif; fill: #c9d1d9; }
  .stat-value { font: bold 22px 'Segoe UI', Ubuntu, Sans-Serif; fill: #c9d1d9; }
  .stat-label { font: 18px 'Segoe UI', Ubuntu, Sans-Serif; fill: #c9d1d9; opacity: 0.7; }
  @keyframes fadeIn { from { opacity: 0; } to { opacity: 1; } }
  .anim { animation: fadeIn 0.6s ease-in-out forwards; opacity: 0; }
</style>

<rect x="0.5" y="0.5" rx="4.5" width="999" height="759" fill="#161b22" stroke="#21262d"/>
<text x="90" y="45" class="title">Activity History</text>
<text x="90" y="72" class="subtitle">Lines added vs deleted &amp; activity trends over time</text>
<line x1="90" y1="340.0" x2="780" y2="340.0" stroke="#21262d" stroke-width="1"/>
<text x="82" y="344.0" text-anchor="end" class="axis-label">0</text>
<line x1="90" y1="280.0" x2="780" y2="280.0" stroke="#21262d" stroke-width="1"/>
<text x="82" y="284.0" text-anchor="end" class="axis-label">690K</text>
<line x1="90" y1="220.0" x2="780" y2="220.0" stroke="#21262d" stroke-width="1"/>
<text x="82" y="224.0" text-anchor="end" class="axis-label">1.4M</text>
<line x1="90" y1="160.0" x2="780" y2="160.0" stroke="#21262d" stroke-width="1"/>
<text x="82" y="164.0" text-anchor="end" class="axis-label">2.1M</text>
<line x1="90" y1="100.0" x2="780" y2="100.0" stroke="#21262d" stroke-width="1"/>
<text x="82" y="104.0" text-anchor="end" class="axis-label">2.8M</text>
<polygon points="90.0,340.0 90.0,308.2 113.0,309.4 136.0,308.3 159.0,309.4 182.0,316.7 205.0,302.2 228.0,302.2 251.0,296.7 274.0,296.5 297.0,296.1 320.0,296.1 343.0,286.3 366.0,286.3 389.0,286.3 412.0,271.8 435.0,271.6 458.0,271.4 481.0,271.4 504.0,271.4 527.0,271.4 550.0,271.4 573.0,271.1 596.0,261.4 619.0,261.4 642.0,261.4 665.0,261.4 688.0,261.1 711.0,261.1 734.0,260.7 757.0,231.2 780.0,201.7 780.0,340.0" fill="url(#addGrad)" class="anim" style="animation-delay:200ms;"/>
<polyline points="90.0,308.2 113.0,309.4 136.0,308.3 159.0,309.4 182.0,316.7 205.0,302.2 228.0,302.2 251.0,296.7 274.0,296.5 297.0,296.1 320.0,296.1 343.0,286.3 366.0,286.3 389.0,286.3 412.0,271.8 435.0,271.6 458.0,271.4 481.0,271.4 504.0,271.4 527.0,271.4 550.0,271.4 573.0,271.1 596.0,261.4 619.0,261.4 642.0,261.4 665.0,261.4 688.0,261.1 711.0,261.1 734.0,260.7" fill="none" stroke="#3fb950" stroke-width="2" stroke-linejoin="round" class="anim" style="animation-delay:250ms;"/>
<polyline points="734.0,260.7 757.0,231.2 780.0,201.7" fill="none" stroke="#3fb950" stroke-width="1.5" stroke-dasharray="5,4" stroke-linejoin="round" opacity="0.6" class="anim" style="animation-delay:250ms;"/>
<polygon points="90.0,340.0 90.0,331.1 113.0,332.0 136.0,331.1 159.0,332.0 182.0,335.8 205.0,330.0 228.0,330.0 251.0,329.3 274.0,329.1 297.0,328.9 320.0,328.9 343.0,318.4 366.0,318.4 389.0,318.4 412.0,306.5 435.0,306.4 458.0,306.4 481.0,306.4 504.0,306.4 527.0,306.4 550.0,306.4 573.0,300.1 596.0,290.6 619.0,290.6 642.0,290.6 665.0,290.6 688.0,290.5 711.0,290.5 734.0,290.5 757.0,264.4 780.0,238.3 780.0,340.0" fill="url(#delGrad)" class="anim" style="animation-delay:300ms;"/>
<polyline points="90.0,331.1 113.0,332.0 136.0,331.1 159.0,332.0 182.0,335.8 205.0,330.0 228.0,330.0 251.0,329.3 274.0,329.1 297.0,328.9 320.0,328.9 343.0,318.4 366.0,318.4 389.0,318.4 412.0,306.5 435.0,306.4 458.0,306.4 481.0,306.4 504.0,306.4 527.0,306.4 550.0,306.4 573.0,300.1 596.0,290.6 619.0,290.6 642.0,290.6 665.0,290.6 688.0,290.5 711.0,290.5 734.0,290.5" fill="none" stroke="#f85149" stroke-width="1.5" stroke-linejoin="round" class="anim" style="animation-delay:350ms;"/>
<polyline points="734.0,290.5 757.0,264.4 780.0,238.3" fill="none" stroke="#f85149" stroke-width="1" stroke-dasharray="5,4" stroke-linejoin="round" opacity="0.6" class="anim" style="animation-delay:350ms;"/>
<polyline points="90.0,340.0 113.0,340.0 136.0,340.0 159.0,340.0 182.0,340.0 205.0,340.0 228.0,340.0 251.0,340.0 274.0,244.0 297.0,244.0 320.0,244.0 343.0,244.0 366.0,244.0 389.0,244.0 412.0,244.0 435.0,244.0 458.0,244.0 481.0,244.0 504.0,244.0 527.0,244.0 550.0,244.0 573.0,244.0 596.0,244.0 619.0,244.0 642.0,244.0 665.0,244.0 688.0,244.0 711.0,244.0 734.0,244.0" fill="none" stroke="#e3b341" stroke-width="1.5" stroke-dasharray="4,3" stroke-linejoin="round" class="anim" style="animation-delay:400ms;"/>
<polyline points="734.0,244.0 757.0,244.0 780.0,148.0" fill="none" stroke="#e3b341" stroke-width="1" stroke-dasharray="3,5" stroke-linejoin="round" opacity="0.5" class="anim" style="animation-delay:400ms;"/>
<text x="90" y="90" class="subtitle">Lines Added vs Deleted (per snapshot)</text>
<text x="90" y="400" class="subtitle">Programming Language Development (%)</text>
<line x1="90" y1="650.0" x2="780" y2="650.0" stroke="#21262d" stroke-width="1"/>
<text x="82" y="654.0" text-anchor="end" class="axis-label">0%</text>
<line x1="90" y1="590.0" x2="780" y2="590.0" stroke="#21262d" stroke-width="1"/>
<text x="82" y="594.0" text-anchor="end" class="axis-label">25%</text>
<line x1="90" y1="530.0" x2="780" y2="530.0" stroke="#21262d" stroke-width="1"/>
<text x="82" y="534.0" text-anchor="end" class="axis-label">50%</text>
<line x1="90" y1="470.0" x2="780" y2="470.0" stroke="#21262d" stroke-width="1"/>
<text x="82" y="474.0" text-anchor="end" class="axis-label">75%</text>
<line x1="90" y1="410.0" x2="780" y2="410.0" stroke="#21262d" stroke-width="1"/>
<text x="82" y="414.0" text-anchor="end" class="axis-label">100%</text>
<polygon points="90.0,650.0 113.0,650.0 136.0,650.0 159.0,650.0 182.0,650.0 205.0,650.0 228.0,650.0 251.0,650.0 274.0,528.2 297.0,528.5 320.0,529.7 343.0,499.3 366.0,499.3 389.0,502.9 412.0,485.0 435.0,485.1 458.0,485.4 481.0,485.4 504.0,485.4 527.0,485.4 550.0,485.4 573.0,496.4 596.0,496.7 619.0,491.0 642.0,491.0 665.0,491.0 688.0,491.7 711.0,491.8 734.0,494.0 757.0,475.2 780.0,457.3 780.0,650.0 757.0,650.0 734.0,650.0 711.0,650.0 688.0,650.0 665.0,650.0 642.0,650.0 619.0,650.0 596.0,650.0 573.0,650.0 550.0,650.0 527.0,650.0 504.0,650.0 481.0,650.0 458.0,650.0 435.0,650.0 412.0,650.0 389.0,650.0 366.0,650.0 343.0,650.0 320.0,650.0 297.0,650.0 274.0,650.0 251.0,650.0 228.0,650.0 205.0,650.0 182.0,650.0 159.0,650.0 136.0,650.0 113.0,650.0 90.0,650.0" fill="#e34c26" opacity="0.6" class="anim" style="animation-delay:500ms;"/>
<polygon points="90.0,650.0 113.0,650.0 136.0,650.0 159.0,650.0 182.0,650.0 205.0,650.0 228.0,650.0 251.0,650.0 274.0,488.4 297.0,488.0 320.0,489.0 343.0,476.0 366.0,476.0 389.0,477.2 412.0,460.1 435.0,460.2 458.0,460.6 481.0,460.6 504.0,460.6 527.0,460.6 550.0,460.6 573.0,473.0 596.0,473.5 619.0,469.5 642.0,469.5 665.0,469.5 688.0,469.7 711.0,469.7 734.0,469.7 757.0,460.5 780.0,452.2 780.0,457.3 757.0,475.2 734.0,494.0 711.0,491.8 688.0,491.7 665.0,491.0 642.0,491.0 619.0,491.0 596.0,496.7 573.0,496.4 550.0,485.4 527.0,485.4 504.0,485.4 481.0,485.4 458.0,485.4 435.0,485.1 412.0,485.0 389.0,502.9 366.0,499.3 343.0,499.3 320.0,529.7 297.0,528.5 274.0,528.2 251.0,650.0 228.0,650.0 205.0,650.0 182.0,650.0 159.0,650.0 136.0,650.0 113.0,650.0 90.0,650.0" fill="#f1e05a" opacity="0.6" class="anim" style="animation-delay:600ms;"/>
<polygon points="90.0,650.0 113.0,650.0 136.0,650.0 159.0,650.0 182.0,650.0 205.0,650.0 228.0,650.0 251.0,650.0 274.0,455.5 297.0,455.4 320.0,455.1 343.0,447.0 366.0,447.0 389.0,448.2 412.0,438.9 435.0,439.0 458.0,439.6 481.0,439.6 504.0,439.6 527.0,439.6 550.0,439.6 573.0,445.6 596.0,445.6 619.0,443.3 642.0,443.3 665.0,443.3 688.0,443.6 711.0,443.6 734.0,444.1 757.0,438.5 780.0,434.0 780.0,452.2 757.0,460.5 734.0,469.7 711.0,469.7 688.0,469.7 665.0,469.5 642.0,469.5 619.0,469.5 596.0,473.5 573.0,473.0 550.0,460.6 527.0,460.6 504.0,460.6 481.0,460.6 458.0,460.6 435.0,460.2 412.0,460.1 389.0,477.2 366.0,476.0 343.0,476.0 320.0,489.0 297.0,488.0 274.0,488.4 251.0,650.0 228.0,650.0 205.0,650.0 182.0,650.0 159.0,650.0 136.0,650.0 113.0,650.0 90.0,650.0" fill="#3572A5" opacity="0.6" class="anim" style="animation-delay:700ms;"/>
<polygon points="90.0,650.0 113.0,650.0 136.0,650.0 159.0,650.0 182.0,650.0 205.0,650.0 228.0,650.0 251.0,650.0 274.0,442.3 297.0,442.0 320.0,441.6 343.0,439.5 366.0,439.5 389.0,439.4 412.0,432.3 435.0,432.2 458.0,432.6 481.0,432.6 504.0,432.6 527.0,432.6 550.0,432.6 573.0,439.3 596.0,439.3 619.0,437.4 642.0,437.4 665.0,437.4 688.0,437.3 711.0,437.3 734.0,437.1 757.0,435.6 780.0,434.0 780.0,434.0 757.0,438.5 734.0,444.1 711.0,443.6 688.0,443.6 665.0,443.3 642.0,443.3 619.0,443.3 596.0,445.6 573.0,445.6 550.0,439.6 527.0,439.6 504.0,439.6 481.0,439.6 458.0,439.6 435.0,439.0 412.0,438.9 389.0,448.2 366.0,447.0 343.0,447.0 320.0,455.1 297.0,455.4 274.0,455.5 251.0,650.0 228.0,650.0 205.0,650.0 182.0,650.0 159.0,650.0 136.0,650.0 113.0,650.0 90.0,650.0" fill="#663399" opacity="0.6" class="anim" style="animation-delay:800ms;"/>
<polygon points="90.0,650.0 113.0,650.0 136.0,650.0 159.0,650.0 182.0,650.0 205.0,650.0 228.0,650.0 251.0,650.0 274.0,436.6 297.0,436.3 320.0,435.9 343.0,432.2 366.0,432.2 389.0,432.2 412.0,426.2 435.0,426.1 458.0,426.0 481.0,426.0 504.0,426.0 527.0,426.0 550.0,426.0 573.0,430.8 596.0,430.7 619.0,429.3 642.0,429.3 665.0,429.3 688.0,429.2 711.0,429.2 734.0,428.9 757.0,425.6 780.0,422.3 780.0,434.0 757.0,435.6 734.0,437.1 711.0,437.3 688.0,437.3 665.0,437.4 642.0,437.4 619.0,437.4 596.0,439.3 573.0,439.3 550.0,432.6 527.0,432.6 504.0,432.6 481.0,432.6 458.0,432.6 435.0,432.2 412.0,432.3 389.0,439.4 366.0,439.5 343.0,439.5 320.0,441.6 297.0,442.0 274.0,442.3 251.0,650.0 228.0,650.0 205.0,650.0 182.0,650.0 159.0,650.0 136.0,650.0 113.0,650.0 90.0,650.0" fill="#083fa1" opacity="0.6" class="anim" style="animation-delay:900ms;"/>
<polygon points="90.0,650.0 113.0,650.0 136.0,650.0 159.0,650.0 182.0,650.0 205.0,650.0 228.0,650.0 251.0,650.0 274.0,427.0 297.0,426.8 320.0,426.6 343.0,424.2 366.0,424.2 389.0,424.2 412.0,420.4 435.0,420.3 458.0,420.3 481.0,420.3 504.0,420.3 527.0,420.3 550.0,420.3 573.0,423.3 596.0,423.2 619.0,422.4 642.0,422.4 665.0,422.4 688.0,422.3 711.0,422.3 734.0,422.1 757.0,420.2 780.0,418.3 780.0,422.3 757.0,425.6 734.0,428.9 711.0,429.2 688.0,429.2 665.0,429.3 642.0,429.3 619.0,429.3 596.0,430.7 573.0,430.8 550.0,426.0 527.0,426.0 504.0,426.0 481.0,426.0 458.0,426.0 435.0,426.1 412.0,426.2 389.0,432.2 366.0,432.2 343.0,432.2 320.0,435.9 297.0,436.3 274.0,436.6 251.0,650.0 228.0,650.0 205.0,650.0 182.0,650.0 159.0,650.0 136.0,650.0 113.0,650.0 90.0,650.0" fill="#6E4C13" opacity="0.6" class="anim" style="animation-delay:1000ms;"/>
<polygon points="90.0,650.0 113.0,650.0 136.0,650.0 159.0,650.0 182.0,650.0 205.0,650.0 228.0,650.0 251.0,650.0 274.0,418.7 297.0,418.6 320.0,418.5 343.0,417.3 366.0,417.3 389.0,417.2 412.0,415.3 435.0,415.3 458.0,415.2 481.0,415.2 504.0,415.2 527.0,415.2 550.0,415.2 573.0,416.8 596.0,416.8 619.0,416.3 642.0,416.3 665.0,416.3 688.0,416.3 711.0,416.3 734.0,416.2 757.0,415.5 780.0,414.9 780.0,418.3 757.0,420.2 734.0,422.1 711.0,422.3 688.0,422.3 665.0,422.4 642.0,422.4 619.0,422.4 596.0,423.2 573.0,423.3 550.0,420.3 527.0,420.3 504.0,420.3 481.0,420.3 458.0,420.3 435.0,420.3 412.0,420.4 389.0,424.2 366.0,424.2 343.0,424.2 320.0,426.6 297.0,426.8 274.0,427.0 251.0,650.0 228.0,650.0 205.0,650.0 182.0,650.0 159.0,650.0 136.0,650.0 113.0,650.0 90.0,650.0" fill="#F05138" opacity="0.6" class="anim" style="animation-delay:1100ms;"/>
<polygon points="90.0,650.0 113.0,650.0 136.0,650.0 159.0,650.0 182.0,650.0 205.0,650.0 228.0,650.0 251.0,650.0 274.0,414.4 297.0,414.4 320.0,414.3 343.0,413.7 366.0,413.7 389.0,413.7 412.0,412.7 435.0,412.7 458.0,412.7 481.0,412.7 504.0,412.7 527.0,412.7 550.0,412.7 573.0,413.5 596.0,413.4 619.0,413.2 642.0,413.2 665.0,413.2 688.0,413.2 711.0,413.2 734.0,413.1 757.0,413.1 780.0,413.1 780.0,414.9 757.0,415.5 734.0,416.2 711.0,416.3 688.0,416.3 665.0,416.3 642.0,416.3 619.0,416.3 596.0,416.8 573.0,416.8 550.0,415.2 527.0,415.2 504.0,415.2 481.0,415.2 458.0,415.2 435.0,415.3 412.0,415.3 389.0,417.2 366.0,417.3 343.0,417.3 320.0,418.5 297.0,418.6 274.0,418.7 251.0,650.0 228.0,650.0 205.0,650.0 182.0,650.0 159.0,650.0 136.0,650.0 113.0,650.0 90.0,650.0" fill="#b07219" opacity="0.6" class="anim" style="animation-delay:1200ms;"/>
<line x1="734.0" y1="100" x2="734.0" y2="650" stroke="#c9d1d9" stroke-width="1" stroke-dasharray="4,3" opacity="0.35"/>
<text x="757.0" y="112" text-anchor="middle" class="axis-label" opacity="0.6">Mar 20, 2026</text>
<text x="90.0" y="668" text-anchor="middle" class="axis-label" transform="rotate(-35 90.0 668)">2026-02</text>
<text x="642.0" y="668" text-anchor="middle" class="axis-label" transform="rotate(-35 642.0 668)">2026-03</text>
<text x="757.0" y="668" text-anchor="middle" class="axis-label" transform="rotate(-35 757.0 668)">Mar 20, 2026</text>
<line x1="796" y1="110" x2="824" y2="110" stroke="#3fb950" stroke-width="2"/>
<text x="832" y="116" class="legend-text">Lines Added</text>
<line x1="796" y1="140" x2="824" y2="140" stroke="#f85149" stroke-width="1.5"/>
<text x="832" y="146" class="legend-text">Lines Deleted</text>
<line x1="796" y1="170" x2="824" y2="170" stroke="#e3b341" stroke-width="1.5" stroke-dasharray="4,3"/>
<text x="832" y="176" class="legend-text">&#x2605; Stars</text>
<text x="796" y="200" class="subtitle">Languages</text>
<rect x="796" y="212" width="12" height="12" rx="2" fill="#e34c26" opacity="0.8" class="anim" style="animation-delay:800ms;"/>
<text x="814" y="223" class="legend-text">HTML (65%→80%)</text>
<rect x="796" y="234" width="12" height="12" rx="2" fill="#f1e05a" opacity="0.8" class="anim" style="animation-delay:880ms;"/>
<text x="814" y="245" class="legend-text">JavaScript (10%→2%)</text>
<rect x="796" y="256" width="12" height="12" rx="2" fill="#3572A5" opacity="0.8" class="anim" style="animation-delay:960ms;"/>
<text x="814" y="267" class="legend-text">Python (11%→8%)</text>
<rect x="796" y="278" width="12" height="12" rx="2" fill="#663399" opacity="0.8" class="anim" style="animation-delay:1040ms;"/>
<text x="814" y="289" class="legend-text">CSS (3%→0%)</text>
<rect x="796" y="300" width="12" height="12" rx="2" fill="#083fa1" opacity="0.8" class="anim" style="animation-delay:1120ms;"/>
<text x="814" y="311" class="legend-text">Markdown (3%→5%)</text>
<rect x="796" y="322" width="12" height="12" rx="2" fill="#6E4C13" opacity="0.8" class="anim" style="animation-delay:1200ms;"/>
<text x="814" y="333" class="legend-text">Assembly (3%→2%)</text>
<rect x="796" y="344" width="12" height="12" rx="2" fill="#F05138" opacity="0.8" class="anim" style="animation-delay:1280ms;"/>
<text x="814" y="355" class="legend-text">Swift (2%→1%)</text>
<rect x="796" y="366" width="12" height="12" rx="2" fill="#b07219" opacity="0.8" class="anim" style="animation-delay:1360ms;"/>
<text x="814" y="377" class="legend-text">Java (1%→1%)</text>
<text x="796" y="412" class="subtitle">Contributions</text>
<text x="796" y="432" class="axis-label">2023: 39</text>
<text x="796" y="452" class="axis-label">2024: 646</text>
<text x="796" y="472" class="axis-label">2025: 1,780</text>
<text x="796" y="492" class="axis-label">2026: 352</text>
<text x="796" y="522" class="subtitle">Statistics</text>
<text x="796" y="542" class="axis-label">Active weeks: 77</text>
<text x="796" y="562" class="axis-label">Add/Del ratio: 1.6x</text>
<text x="796" y="582" class="axis-label">Avg lines/wk: 19K</text>
<text x="796" y="602" class="axis-label">Peak: 2026-02-15</text>
<text x="796" y="622" class="axis-label">  (543K lines)</text>
<text x="90" y="742" class="axis-label">Total: +911,488 / -569,081 lines &#xb7; 2,817 contributions &#xb7; 74 repos &#xb7; &#x2605; 33</text>
</svg>