<svg xmlns="http://www.w3.org/2000/svg" width="900" height="620" viewBox="0 0 900 620">

<defs>
  <linearGradient id="areaGrad" x1="0" y1="0" x2="0" y2="1">
    <stop offset="0%" stop-color="#58a6ff" stop-opacity="0.35"/>
    <stop offset="100%" stop-color="#58a6ff" stop-opacity="0.02"/>
  </linearGradient>
</defs>
<style>
  .title { font: bold 16px 'Segoe UI', Ubuntu, Sans-Serif; fill: #c9d1d9; }
  .subtitle { font: 600 12px 'Segoe UI', Ubuntu, Sans-Serif; fill: #c9d1d9; opacity: 0.8; }
  .axis-label { font: 11px 'Segoe UI', Ubuntu, Sans-Serif; fill: #c9d1d9; opacity: 0.7; }
  .legend-text { font: 12px 'Segoe UI', Ubuntu, Sans-Serif; fill: #c9d1d9; }
  .value-text { font: bold 11px 'Segoe UI', Ubuntu, Sans-Serif; fill: #c9d1d9; }
  @keyframes fadeIn { from { opacity: 0; } to { opacity: 1; } }
  .anim { animation: fadeIn 0.6s ease-in-out forwards; opacity: 0; }
</style>

<rect x="0.5" y="0.5" rx="4.5" width="899" height="619" fill="#161b22" stroke="#21262d"/>
<text x="65" y="30" class="title">Activity History</text>
<text x="65" y="48" class="subtitle">Lines changed per month &amp; language trends over time</text>
<line x1="65" y1="240.0" x2="720" y2="240.0" stroke="#21262d" stroke-width="1"/>
<text x="57" y="244.0" text-anchor="end" class="axis-label">0</text>
<line x1="65" y1="195.0" x2="720" y2="195.0" stroke="#21262d" stroke-width="1"/>
<text x="57" y="199.0" text-anchor="end" class="axis-label">116,918</text>
<line x1="65" y1="150.0" x2="720" y2="150.0" stroke="#21262d" stroke-width="1"/>
<text x="57" y="154.0" text-anchor="end" class="axis-label">233,837</text>
<line x1="65" y1="105.0" x2="720" y2="105.0" stroke="#21262d" stroke-width="1"/>
<text x="57" y="109.0" text-anchor="end" class="axis-label">350,756</text>
<line x1="65" y1="60.0" x2="720" y2="60.0" stroke="#21262d" stroke-width="1"/>
<text x="57" y="64.0" text-anchor="end" class="axis-label">467,674</text>
<polygon points="65.0,240.0 65.0,60.0 392.5,240.0 720.0,230.9 720.0,240.0" fill="url(#areaGrad)" class="anim" style="animation-delay:200ms;"/>
<polyline points="65.0,60.0 392.5,240.0 720.0,230.9" fill="none" stroke="#58a6ff" stroke-width="2" stroke-linejoin="round" class="anim" style="animation-delay:300ms;"/>
<polyline points="65.0,60.0 392.5,60.0 720.0,60.0" fill="none" stroke="#e3b341" stroke-width="1.5" stroke-dasharray="4,3" stroke-linejoin="round" class="anim" style="animation-delay:400ms;"/>
<text x="65" y="54" class="subtitle">Lines Changed / Month</text>
<text x="65" y="294" class="subtitle">Top Language Proportions (%)</text>
<line x1="65" y1="480.0" x2="720" y2="480.0" stroke="#21262d" stroke-width="1"/>
<text x="57" y="484.0" text-anchor="end" class="axis-label">0%</text>
<line x1="65" y1="435.0" x2="720" y2="435.0" stroke="#21262d" stroke-width="1"/>
<text x="57" y="439.0" text-anchor="end" class="axis-label">25%</text>
<line x1="65" y1="390.0" x2="720" y2="390.0" stroke="#21262d" stroke-width="1"/>
<text x="57" y="394.0" text-anchor="end" class="axis-label">50%</text>
<line x1="65" y1="345.0" x2="720" y2="345.0" stroke="#21262d" stroke-width="1"/>
<text x="57" y="349.0" text-anchor="end" class="axis-label">75%</text>
<line x1="65" y1="300.0" x2="720" y2="300.0" stroke="#21262d" stroke-width="1"/>
<text x="57" y="304.0" text-anchor="end" class="axis-label">100%</text>
<text x="65.0" y="498" text-anchor="middle" class="axis-label" transform="rotate(-35 65.0 498)">2026-02</text>
<text x="392.5" y="498" text-anchor="middle" class="axis-label" transform="rotate(-35 392.5 498)">2026-02</text>
<text x="720.0" y="498" text-anchor="middle" class="axis-label" transform="rotate(-35 720.0 498)">2026-02</text>
<line x1="736" y1="70" x2="756" y2="70" stroke="#58a6ff" stroke-width="2"/>
<text x="762" y="74" class="legend-text">Lines Changed</text>
<line x1="736" y1="92" x2="756" y2="92" stroke="#e3b341" stroke-width="1.5" stroke-dasharray="4,3"/>
<text x="762" y="96" class="legend-text">Stars</text>
<text x="736" y="130" class="subtitle">Languages</text>
<text x="736" y="170" class="subtitle">Contributions</text>
<text x="736" y="188" class="axis-label">2023: 39</text>
<text x="736" y="204" class="axis-label">2024: 646</text>
<text x="736" y="220" class="axis-label">2025: 1,723</text>
<text x="736" y="236" class="axis-label">2026: 109</text>
<text x="65" y="606" class="axis-label">Total: 467,421 lines changed · 2,517 contributions · 67 repos · ★ 32</text>
</svg>