<svg xmlns="http://www.w3.org/2000/svg" width="1000" height="760" style="max-width: 100%;" viewBox="0 0 1000 760">

<defs>
  <linearGradient id="areaGrad" x1="0" y1="0" x2="0" y2="1">
    <stop offset="0%" stop-color="#58a6ff" stop-opacity="0.35"/>
    <stop offset="100%" stop-color="#58a6ff" stop-opacity="0.02"/>
  </linearGradient>
  <linearGradient id="addGrad" x1="0" y1="0" x2="0" y2="1">
    <stop offset="0%" stop-color="#3fb950" stop-opacity="0.35"/>
    <stop offset="100%" stop-color="#3fb950" stop-opacity="0.02"/>
  </linearGradient>
  <linearGradient id="delGrad" x1="0" y1="0" x2="0" y2="1">
    <stop offset="0%" stop-color="#f85149" stop-opacity="0.25"/>
    <stop offset="100%" stop-color="#f85149" stop-opacity="0.02"/>
  </linearGradient>
</defs>
<style>
  .title { font: bold 28px 'Segoe UI', Ubuntu, Sans-Serif; fill: #c9d1d9; }
  .subtitle { font: 600 20px 'Segoe UI', Ubuntu, Sans-Serif; fill: #c9d1d9; opacity: 0.8; }
  .axis-label { font: 18px 'Segoe UI', Ubuntu, Sans-Serif; fill: #c9d1d9; opacity: 0.7; }
  .legend-text { font: 14px 'Segoe UI', Ubuntu, Sans-Serif; fill: #c9d1d9; }
  .value-text { font: bold 18px 'Segoe UI', Ubuntu, Sans-Serif; fill: #c9d1d9; }
  .stat-value { font: bold 22px 'Segoe UI', Ubuntu, Sans-Serif; fill: #c9d1d9; }
  .stat-label { font: 18px 'Segoe UI', Ubuntu, Sans-Serif; fill: #c9d1d9; opacity: 0.7; }
  @keyframes fadeIn { from { opacity: 0; } to { opacity: 1; } }
  .anim { animation: fadeIn 0.6s ease-in-out forwards; opacity: 0; }
</style>

<rect x="0.5" y="0.5" rx="4.5" width="999" height="759" fill="#161b22" stroke="#21262d"/>
<text x="90" y="45" class="title">Activity History</text>
<text x="90" y="72" class="subtitle">Lines added vs deleted &amp; activity trends over time</text>
<line x1="90" y1="340.0" x2="780" y2="340.0" stroke="#21262d" stroke-width="1"/>
<text x="82" y="344.0" text-anchor="end" class="axis-label">0</text>
<line x1="90" y1="280.0" x2="780" y2="280.0" stroke="#21262d" stroke-width="1"/>
<text x="82" y="284.0" text-anchor="end" class="axis-label">460K</text>
<line x1="90" y1="220.0" x2="780" y2="220.0" stroke="#21262d" stroke-width="1"/>
<text x="82" y="224.0" text-anchor="end" class="axis-label">919K</text>
<line x1="90" y1="160.0" x2="780" y2="160.0" stroke="#21262d" stroke-width="1"/>
<text x="82" y="164.0" text-anchor="end" class="axis-label">1.4M</text>
<line x1="90" y1="100.0" x2="780" y2="100.0" stroke="#21262d" stroke-width="1"/>
<text x="82" y="104.0" text-anchor="end" class="axis-label">1.8M</text>
<polygon points="90.0,340.0 90.0,292.3 99.6,294.1 109.2,292.4 118.8,294.1 128.3,305.1 137.9,283.2 147.5,283.2 157.1,275.0 166.7,274.7 176.2,274.1 185.8,274.1 195.4,259.4 205.0,259.4 214.6,259.4 224.2,237.6 233.8,237.3 243.3,237.1 252.9,237.1 262.5,237.1 272.1,237.1 281.7,237.1 291.2,236.5 300.8,222.0 310.4,222.0 320.0,222.0 329.6,222.0 339.2,221.6 348.8,221.6 358.3,221.0 367.9,221.0 377.5,220.9 387.1,220.9 396.7,220.9 406.2,220.9 415.8,221.0 425.4,220.9 435.0,220.9 444.6,220.9 454.2,220.9 463.8,220.9 473.3,220.9 482.9,220.3 492.5,220.5 502.1,219.9 511.7,219.6 521.2,219.6 530.8,219.6 540.4,219.6 550.0,219.6 559.6,219.6 569.2,219.5 578.8,219.5 588.3,219.5 597.9,219.6 607.5,219.9 617.1,221.3 626.7,219.9 636.2,218.6 645.8,218.5 655.4,218.5 665.0,218.5 674.6,218.5 684.2,211.1 693.8,204.3 703.3,204.3 712.9,204.3 722.5,204.3 732.1,204.3 741.7,204.3 751.2,204.3 760.8,204.3 770.4,196.4 780.0,188.5 780.0,340.0" fill="url(#addGrad)" class="anim" style="animation-delay:200ms;"/>
<polyline points="90.0,292.3 99.6,294.1 109.2,292.4 118.8,294.1 128.3,305.1 137.9,283.2 147.5,283.2 157.1,275.0 166.7,274.7 176.2,274.1 185.8,274.1 195.4,259.4 205.0,259.4 214.6,259.4 224.2,237.6 233.8,237.3 243.3,237.1 252.9,237.1 262.5,237.1 272.1,237.1 281.7,237.1 291.2,236.5 300.8,222.0 310.4,222.0 320.0,222.0 329.6,222.0 339.2,221.6 348.8,221.6 358.3,221.0 367.9,221.0 377.5,220.9 387.1,220.9 396.7,220.9 406.2,220.9 415.8,221.0 425.4,220.9 435.0,220.9 444.6,220.9 454.2,220.9 463.8,220.9 473.3,220.9 482.9,220.3 492.5,220.5 502.1,219.9 511.7,219.6 521.2,219.6 530.8,219.6 540.4,219.6 550.0,219.6 559.6,219.6 569.2,219.5 578.8,219.5 588.3,219.5 597.9,219.6 607.5,219.9 617.1,221.3 626.7,219.9 636.2,218.6 645.8,218.5 655.4,218.5 665.0,218.5 674.6,218.5 684.2,211.1 693.8,204.3 703.3,204.3 712.9,204.3 722.5,204.3 732.1,204.3 741.7,204.3 751.2,204.3 760.8,204.3" fill="none" stroke="#3fb950" stroke-width="2" stroke-linejoin="round" class="anim" style="animation-delay:250ms;"/>
<polyline points="760.8,204.3 770.4,196.4 780.0,188.5" fill="none" stroke="#3fb950" stroke-width="1.5" stroke-dasharray="5,4" stroke-linejoin="round" opacity="0.6" class="anim" style="animation-delay:250ms;"/>
<polygon points="90.0,340.0 90.0,326.6 99.6,328.0 109.2,326.6 118.8,328.0 128.3,333.7 137.9,325.0 147.5,325.0 157.1,324.0 166.7,323.7 176.2,323.4 185.8,323.4 195.4,307.6 205.0,307.6 214.6,307.5 224.2,289.6 233.8,289.5 243.3,289.5 252.9,289.5 262.5,289.5 272.1,289.5 281.7,289.5 291.2,280.1 300.8,265.9 310.4,265.8 320.0,265.8 329.6,265.8 339.2,265.8 348.8,265.8 358.3,265.7 367.9,265.6 377.5,265.6 387.1,265.6 396.7,265.6 406.2,265.6 415.8,265.7 425.4,265.6 435.0,265.6 444.6,265.6 454.2,265.6 463.8,265.6 473.3,265.6 482.9,265.6 492.5,265.7 502.1,265.2 511.7,265.2 521.2,265.2 530.8,265.2 540.4,265.2 550.0,265.2 559.6,265.2 569.2,265.2 578.8,265.2 588.3,265.2 597.9,265.2 607.5,265.3 617.1,266.1 626.7,265.6 636.2,264.8 645.8,264.7 655.4,264.7 665.0,264.7 674.6,264.7 684.2,264.7 693.8,264.7 703.3,264.7 712.9,264.7 722.5,264.7 732.1,264.7 741.7,264.7 751.2,264.7 760.8,264.7 770.4,258.1 780.0,251.5 780.0,340.0" fill="url(#delGrad)" class="anim" style="animation-delay:300ms;"/>
<polyline points="90.0,326.6 99.6,328.0 109.2,326.6 118.8,328.0 128.3,333.7 137.9,325.0 147.5,325.0 157.1,324.0 166.7,323.7 176.2,323.4 185.8,323.4 195.4,307.6 205.0,307.6 214.6,307.5 224.2,289.6 233.8,289.5 243.3,289.5 252.9,289.5 262.5,289.5 272.1,289.5 281.7,289.5 291.2,280.1 300.8,265.9 310.4,265.8 320.0,265.8 329.6,265.8 339.2,265.8 348.8,265.8 358.3,265.7 367.9,265.6 377.5,265.6 387.1,265.6 396.7,265.6 406.2,265.6 415.8,265.7 425.4,265.6 435.0,265.6 444.6,265.6 454.2,265.6 463.8,265.6 473.3,265.6 482.9,265.6 492.5,265.7 502.1,265.2 511.7,265.2 521.2,265.2 530.8,265.2 540.4,265.2 550.0,265.2 559.6,265.2 569.2,265.2 578.8,265.2 588.3,265.2 597.9,265.2 607.5,265.3 617.1,266.1 626.7,265.6 636.2,264.8 645.8,264.7 655.4,264.7 665.0,264.7 674.6,264.7 684.2,264.7 693.8,264.7 703.3,264.7 712.9,264.7 722.5,264.7 732.1,264.7 741.7,264.7 751.2,264.7 760.8,264.7" fill="none" stroke="#f85149" stroke-width="1.5" stroke-linejoin="round" class="anim" style="animation-delay:350ms;"/>
<polyline points="760.8,264.7 770.4,258.1 780.0,251.5" fill="none" stroke="#f85149" stroke-width="1" stroke-dasharray="5,4" stroke-linejoin="round" opacity="0.6" class="anim" style="animation-delay:350ms;"/>
<polyline points="90.0,340.0 99.6,340.0 109.2,340.0 118.8,340.0 128.3,340.0 137.9,340.0 147.5,340.0 157.1,340.0 166.7,308.0 176.2,308.0 185.8,308.0 195.4,308.0 205.0,308.0 214.6,308.0 224.2,308.0 233.8,308.0 243.3,308.0 252.9,308.0 262.5,308.0 272.1,308.0 281.7,308.0 291.2,308.0 300.8,308.0 310.4,308.0 320.0,308.0 329.6,308.0 339.2,308.0 348.8,308.0 358.3,308.0 367.9,308.0 377.5,308.0 387.1,308.0 396.7,308.0 406.2,308.0 415.8,276.0 425.4,276.0 435.0,276.0 444.6,276.0 454.2,276.0 463.8,276.0 473.3,276.0 482.9,276.0 492.5,244.0 502.1,244.0 511.7,244.0 521.2,244.0 530.8,244.0 540.4,244.0 550.0,244.0 559.6,244.0 569.2,244.0 578.8,244.0 588.3,244.0 597.9,244.0 607.5,244.0 617.1,244.0 626.7,244.0 636.2,244.0 645.8,180.0 655.4,180.0 665.0,180.0 674.6,180.0 684.2,180.0 693.8,180.0 703.3,180.0 712.9,180.0 722.5,180.0 732.1,180.0 741.7,180.0 751.2,180.0 760.8,180.0" fill="none" stroke="#e3b341" stroke-width="1.5" stroke-dasharray="4,3" stroke-linejoin="round" class="anim" style="animation-delay:400ms;"/>
<polyline points="760.8,180.0 770.4,180.0 780.0,148.0" fill="none" stroke="#e3b341" stroke-width="1" stroke-dasharray="3,5" stroke-linejoin="round" opacity="0.5" class="anim" style="animation-delay:400ms;"/>
<text x="90" y="90" class="subtitle">Lines Added vs Deleted (per snapshot)</text>
<text x="90" y="400" class="subtitle">Programming Language Development (%)</text>
<line x1="90" y1="650.0" x2="780" y2="650.0" stroke="#21262d" stroke-width="1"/>
<text x="82" y="654.0" text-anchor="end" class="axis-label">0%</text>
<line x1="90" y1="590.0" x2="780" y2="590.0" stroke="#21262d" stroke-width="1"/>
<text x="82" y="594.0" text-anchor="end" class="axis-label">25%</text>
<line x1="90" y1="530.0" x2="780" y2="530.0" stroke="#21262d" stroke-width="1"/>
<text x="82" y="534.0" text-anchor="end" class="axis-label">50%</text>
<line x1="90" y1="470.0" x2="780" y2="470.0" stroke="#21262d" stroke-width="1"/>
<text x="82" y="474.0" text-anchor="end" class="axis-label">75%</text>
<line x1="90" y1="410.0" x2="780" y2="410.0" stroke="#21262d" stroke-width="1"/>
<text x="82" y="414.0" text-anchor="end" class="axis-label">100%</text>
<polygon points="90.0,650.0 99.6,650.0 109.2,650.0 118.8,650.0 128.3,650.0 137.9,650.0 147.5,650.0 157.1,650.0 166.7,528.2 176.2,528.5 185.8,529.7 195.4,499.3 205.0,499.3 214.6,502.9 224.2,485.0 233.8,485.1 243.3,485.4 252.9,485.4 262.5,485.4 272.1,485.4 281.7,485.4 291.2,496.4 300.8,496.7 310.4,491.0 320.0,491.0 329.6,491.0 339.2,491.7 348.8,491.8 358.3,494.0 367.9,494.0 377.5,494.4 387.1,494.4 396.7,494.4 406.2,494.4 415.8,507.6 425.4,507.6 435.0,507.9 444.6,507.9 454.2,507.9 463.8,506.3 473.3,506.4 482.9,506.8 492.5,506.9 502.1,506.8 511.7,507.5 521.2,507.5 530.8,507.5 540.4,507.5 550.0,507.5 559.6,507.5 569.2,507.5 578.8,507.5 588.3,507.5 597.9,507.5 607.5,507.5 617.1,507.5 626.7,507.5 636.2,508.6 645.8,508.6 655.4,508.6 665.0,508.6 674.6,508.6 684.2,509.5 693.8,509.8 703.3,509.8 712.9,509.8 722.5,509.8 732.1,509.8 741.7,509.8 751.2,509.8 760.8,509.8 770.4,511.7 780.0,513.6 780.0,650.0 770.4,650.0 760.8,650.0 751.2,650.0 741.7,650.0 732.1,650.0 722.5,650.0 712.9,650.0 703.3,650.0 693.8,650.0 684.2,650.0 674.6,650.0 665.0,650.0 655.4,650.0 645.8,650.0 636.2,650.0 626.7,650.0 617.1,650.0 607.5,650.0 597.9,650.0 588.3,650.0 578.8,650.0 569.2,650.0 559.6,650.0 550.0,650.0 540.4,650.0 530.8,650.0 521.2,650.0 511.7,650.0 502.1,650.0 492.5,650.0 482.9,650.0 473.3,650.0 463.8,650.0 454.2,650.0 444.6,650.0 435.0,650.0 425.4,650.0 415.8,650.0 406.2,650.0 396.7,650.0 387.1,650.0 377.5,650.0 367.9,650.0 358.3,650.0 348.8,650.0 339.2,650.0 329.6,650.0 320.0,650.0 310.4,650.0 300.8,650.0 291.2,650.0 281.7,650.0 272.1,650.0 262.5,650.0 252.9,650.0 243.3,650.0 233.8,650.0 224.2,650.0 214.6,650.0 205.0,650.0 195.4,650.0 185.8,650.0 176.2,650.0 166.7,650.0 157.1,650.0 147.5,650.0 137.9,650.0 128.3,650.0 118.8,650.0 109.2,650.0 99.6,650.0 90.0,650.0" fill="#e34c26" opacity="0.6" class="anim" style="animation-delay:500ms;"/>
<polygon points="90.0,650.0 99.6,650.0 109.2,650.0 118.8,650.0 128.3,650.0 137.9,650.0 147.5,650.0 157.1,650.0 166.7,488.4 176.2,488.0 185.8,489.0 195.4,476.0 205.0,476.0 214.6,477.2 224.2,460.1 233.8,460.2 243.3,460.6 252.9,460.6 262.5,460.6 272.1,460.6 281.7,460.6 291.2,473.0 300.8,473.5 310.4,469.5 320.0,469.5 329.6,469.5 339.2,469.7 348.8,469.7 358.3,469.7 367.9,469.7 377.5,469.7 387.1,469.7 396.7,469.7 406.2,469.7 415.8,455.6 425.4,455.6 435.0,455.4 444.6,455.4 454.2,455.4 463.8,454.3 473.3,454.3 482.9,455.0 492.5,455.1 502.1,454.9 511.7,455.9 521.2,455.9 530.8,455.9 540.4,455.9 550.0,455.9 559.6,455.9 569.2,455.9 578.8,455.9 588.3,455.9 597.9,455.9 607.5,455.9 617.1,455.9 626.7,455.9 636.2,455.8 645.8,455.8 655.4,455.8 665.0,455.8 674.6,455.8 684.2,457.0 693.8,457.4 703.3,457.4 712.9,457.4 722.5,457.4 732.1,457.4 741.7,457.4 751.2,457.4 760.8,457.4 770.4,455.0 780.0,452.7 780.0,513.6 770.4,511.7 760.8,509.8 751.2,509.8 741.7,509.8 732.1,509.8 722.5,509.8 712.9,509.8 703.3,509.8 693.8,509.8 684.2,509.5 674.6,508.6 665.0,508.6 655.4,508.6 645.8,508.6 636.2,508.6 626.7,507.5 617.1,507.5 607.5,507.5 597.9,507.5 588.3,507.5 578.8,507.5 569.2,507.5 559.6,507.5 550.0,507.5 540.4,507.5 530.8,507.5 521.2,507.5 511.7,507.5 502.1,506.8 492.5,506.9 482.9,506.8 473.3,506.4 463.8,506.3 454.2,507.9 444.6,507.9 435.0,507.9 425.4,507.6 415.8,507.6 406.2,494.4 396.7,494.4 387.1,494.4 377.5,494.4 367.9,494.0 358.3,494.0 348.8,491.8 339.2,491.7 329.6,491.0 320.0,491.0 310.4,491.0 300.8,496.7 291.2,496.4 281.7,485.4 272.1,485.4 262.5,485.4 252.9,485.4 243.3,485.4 233.8,485.1 224.2,485.0 214.6,502.9 205.0,499.3 195.4,499.3 185.8,529.7 176.2,528.5 166.7,528.2 157.1,650.0 147.5,650.0 137.9,650.0 128.3,650.0 118.8,650.0 109.2,650.0 99.6,650.0 90.0,650.0" fill="#f1e05a" opacity="0.6" class="anim" style="animation-delay:600ms;"/>
<polygon points="90.0,650.0 99.6,650.0 109.2,650.0 118.8,650.0 128.3,650.0 137.9,650.0 147.5,650.0 157.1,650.0 166.7,455.5 176.2,455.4 185.8,455.1 195.4,447.0 205.0,447.0 214.6,448.2 224.2,438.9 233.8,439.0 243.3,439.6 252.9,439.6 262.5,439.6 272.1,439.6 281.7,439.6 291.2,445.6 300.8,445.6 310.4,443.3 320.0,443.3 329.6,443.3 339.2,443.6 348.8,443.6 358.3,444.1 367.9,444.1 377.5,444.1 387.1,444.1 396.7,444.1 406.2,444.1 415.8,437.5 425.4,437.5 435.0,437.5 444.6,437.5 454.2,437.5 463.8,437.5 473.3,437.5 482.9,438.4 492.5,438.5 502.1,438.3 511.7,439.3 521.2,439.3 530.8,439.3 540.4,439.3 550.0,439.3 559.6,439.3 569.2,439.3 578.8,439.3 588.3,439.3 597.9,439.3 607.5,439.3 617.1,439.3 626.7,439.3 636.2,439.4 645.8,439.4 655.4,439.4 665.0,439.4 674.6,439.4 684.2,440.7 693.8,441.1 703.3,441.1 712.9,441.1 722.5,441.1 732.1,441.1 741.7,441.1 751.2,441.1 760.8,441.1 770.4,440.5 780.0,439.9 780.0,452.7 770.4,455.0 760.8,457.4 751.2,457.4 741.7,457.4 732.1,457.4 722.5,457.4 712.9,457.4 703.3,457.4 693.8,457.4 684.2,457.0 674.6,455.8 665.0,455.8 655.4,455.8 645.8,455.8 636.2,455.8 626.7,455.9 617.1,455.9 607.5,455.9 597.9,455.9 588.3,455.9 578.8,455.9 569.2,455.9 559.6,455.9 550.0,455.9 540.4,455.9 530.8,455.9 521.2,455.9 511.7,455.9 502.1,454.9 492.5,455.1 482.9,455.0 473.3,454.3 463.8,454.3 454.2,455.4 444.6,455.4 435.0,455.4 425.4,455.6 415.8,455.6 406.2,469.7 396.7,469.7 387.1,469.7 377.5,469.7 367.9,469.7 358.3,469.7 348.8,469.7 339.2,469.7 329.6,469.5 320.0,469.5 310.4,469.5 300.8,473.5 291.2,473.0 281.7,460.6 272.1,460.6 262.5,460.6 252.9,460.6 243.3,460.6 233.8,460.2 224.2,460.1 214.6,477.2 205.0,476.0 195.4,476.0 185.8,489.0 176.2,488.0 166.7,488.4 157.1,650.0 147.5,650.0 137.9,650.0 128.3,650.0 118.8,650.0 109.2,650.0 99.6,650.0 90.0,650.0" fill="#3572A5" opacity="0.6" class="anim" style="animation-delay:700ms;"/>
<polygon points="90.0,650.0 99.6,650.0 109.2,650.0 118.8,650.0 128.3,650.0 137.9,650.0 147.5,650.0 157.1,650.0 166.7,442.3 176.2,442.0 185.8,441.6 195.4,439.5 205.0,439.5 214.6,439.4 224.2,432.3 233.8,432.2 243.3,432.6 252.9,432.6 262.5,432.6 272.1,432.6 281.7,432.6 291.2,439.3 300.8,439.3 310.4,437.4 320.0,437.4 329.6,437.4 339.2,437.3 348.8,437.3 358.3,437.1 367.9,437.1 377.5,437.1 387.1,437.1 396.7,437.1 406.2,437.1 415.8,428.7 425.4,428.6 435.0,428.5 444.6,428.5 454.2,428.5 463.8,427.3 473.3,427.3 482.9,427.1 492.5,427.1 502.1,427.1 511.7,427.0 521.2,427.0 530.8,427.0 540.4,427.0 550.0,427.0 559.6,427.0 569.2,427.0 578.8,427.0 588.3,427.0 597.9,427.0 607.5,427.0 617.1,427.0 626.7,427.0 636.2,427.0 645.8,427.1 655.4,427.1 665.0,427.1 674.6,427.1 684.2,428.4 693.8,428.9 703.3,428.9 712.9,428.9 722.5,428.9 732.1,428.9 741.7,428.9 751.2,428.9 760.8,428.9 770.4,427.5 780.0,426.2 780.0,439.9 770.4,440.5 760.8,441.1 751.2,441.1 741.7,441.1 732.1,441.1 722.5,441.1 712.9,441.1 703.3,441.1 693.8,441.1 684.2,440.7 674.6,439.4 665.0,439.4 655.4,439.4 645.8,439.4 636.2,439.4 626.7,439.3 617.1,439.3 607.5,439.3 597.9,439.3 588.3,439.3 578.8,439.3 569.2,439.3 559.6,439.3 550.0,439.3 540.4,439.3 530.8,439.3 521.2,439.3 511.7,439.3 502.1,438.3 492.5,438.5 482.9,438.4 473.3,437.5 463.8,437.5 454.2,437.5 444.6,437.5 435.0,437.5 425.4,437.5 415.8,437.5 406.2,444.1 396.7,444.1 387.1,444.1 377.5,444.1 367.9,444.1 358.3,444.1 348.8,443.6 339.2,443.6 329.6,443.3 320.0,443.3 310.4,443.3 300.8,445.6 291.2,445.6 281.7,439.6 272.1,439.6 262.5,439.6 252.9,439.6 243.3,439.6 233.8,439.0 224.2,438.9 214.6,448.2 205.0,447.0 195.4,447.0 185.8,455.1 176.2,455.4 166.7,455.5 157.1,650.0 147.5,650.0 137.9,650.0 128.3,650.0 118.8,650.0 109.2,650.0 99.6,650.0 90.0,650.0" fill="#663399" opacity="0.6" class="anim" style="animation-delay:800ms;"/>
<polygon points="90.0,650.0 99.6,650.0 109.2,650.0 118.8,650.0 128.3,650.0 137.9,650.0 147.5,650.0 157.1,650.0 166.7,436.6 176.2,436.3 185.8,435.9 195.4,432.2 205.0,432.2 214.6,432.2 224.2,426.2 233.8,426.1 243.3,426.0 252.9,426.0 262.5,426.0 272.1,426.0 281.7,426.0 291.2,430.8 300.8,430.7 310.4,429.3 320.0,429.3 329.6,429.3 339.2,429.2 348.8,429.2 358.3,428.9 367.9,428.9 377.5,428.8 387.1,428.8 396.7,428.8 406.2,428.8 415.8,423.0 425.4,422.9 435.0,422.9 444.6,422.9 454.2,422.9 463.8,422.0 473.3,422.0 482.9,421.9 492.5,421.9 502.1,421.9 511.7,421.8 521.2,421.8 530.8,421.8 540.4,421.8 550.0,421.8 559.6,421.8 569.2,421.8 578.8,421.8 588.3,421.8 597.9,421.8 607.5,421.8 617.1,421.8 626.7,421.8 636.2,421.7 645.8,421.8 655.4,421.8 665.0,421.8 674.6,421.8 684.2,423.2 693.8,423.6 703.3,423.6 712.9,423.6 722.5,423.6 732.1,423.6 741.7,423.6 751.2,423.6 760.8,423.6 770.4,422.6 780.0,421.6 780.0,426.2 770.4,427.5 760.8,428.9 751.2,428.9 741.7,428.9 732.1,428.9 722.5,428.9 712.9,428.9 703.3,428.9 693.8,428.9 684.2,428.4 674.6,427.1 665.0,427.1 655.4,427.1 645.8,427.1 636.2,427.0 626.7,427.0 617.1,427.0 607.5,427.0 597.9,427.0 588.3,427.0 578.8,427.0 569.2,427.0 559.6,427.0 550.0,427.0 540.4,427.0 530.8,427.0 521.2,427.0 511.7,427.0 502.1,427.1 492.5,427.1 482.9,427.1 473.3,427.3 463.8,427.3 454.2,428.5 444.6,428.5 435.0,428.5 425.4,428.6 415.8,428.7 406.2,437.1 396.7,437.1 387.1,437.1 377.5,437.1 367.9,437.1 358.3,437.1 348.8,437.3 339.2,437.3 329.6,437.4 320.0,437.4 310.4,437.4 300.8,439.3 291.2,439.3 281.7,432.6 272.1,432.6 262.5,432.6 252.9,432.6 243.3,432.6 233.8,432.2 224.2,432.3 214.6,439.4 205.0,439.5 195.4,439.5 185.8,441.6 176.2,442.0 166.7,442.3 157.1,650.0 147.5,650.0 137.9,650.0 128.3,650.0 118.8,650.0 109.2,650.0 99.6,650.0 90.0,650.0" fill="#083fa1" opacity="0.6" class="anim" style="animation-delay:900ms;"/>
<polygon points="90.0,650.0 99.6,650.0 109.2,650.0 118.8,650.0 128.3,650.0 137.9,650.0 147.5,650.0 157.1,650.0 166.7,427.0 176.2,426.8 185.8,426.6 195.4,424.2 205.0,424.2 214.6,424.2 224.2,420.4 233.8,420.3 243.3,420.3 252.9,420.3 262.5,420.3 272.1,420.3 281.7,420.3 291.2,423.3 300.8,423.2 310.4,422.4 320.0,422.4 329.6,422.4 339.2,422.3 348.8,422.3 358.3,422.1 367.9,422.1 377.5,422.1 387.1,422.1 396.7,422.1 406.2,422.1 415.8,418.3 425.4,418.3 435.0,418.2 444.6,418.2 454.2,418.2 463.8,417.7 473.3,417.7 482.9,417.6 492.5,417.6 502.1,417.6 511.7,417.6 521.2,417.6 530.8,417.6 540.4,417.6 550.0,417.6 559.6,417.6 569.2,417.6 578.8,417.6 588.3,417.6 597.9,417.6 607.5,417.6 617.1,417.6 626.7,417.6 636.2,417.5 645.8,417.6 655.4,417.6 665.0,417.6 674.6,417.6 684.2,419.0 693.8,419.5 703.3,419.5 712.9,419.5 722.5,419.5 732.1,419.5 741.7,419.5 751.2,419.5 760.8,419.5 770.4,418.9 780.0,418.4 780.0,421.6 770.4,422.6 760.8,423.6 751.2,423.6 741.7,423.6 732.1,423.6 722.5,423.6 712.9,423.6 703.3,423.6 693.8,423.6 684.2,423.2 674.6,421.8 665.0,421.8 655.4,421.8 645.8,421.8 636.2,421.7 626.7,421.8 617.1,421.8 607.5,421.8 597.9,421.8 588.3,421.8 578.8,421.8 569.2,421.8 559.6,421.8 550.0,421.8 540.4,421.8 530.8,421.8 521.2,421.8 511.7,421.8 502.1,421.9 492.5,421.9 482.9,421.9 473.3,422.0 463.8,422.0 454.2,422.9 444.6,422.9 435.0,422.9 425.4,422.9 415.8,423.0 406.2,428.8 396.7,428.8 387.1,428.8 377.5,428.8 367.9,428.9 358.3,428.9 348.8,429.2 339.2,429.2 329.6,429.3 320.0,429.3 310.4,429.3 300.8,430.7 291.2,430.8 281.7,426.0 272.1,426.0 262.5,426.0 252.9,426.0 243.3,426.0 233.8,426.1 224.2,426.2 214.6,432.2 205.0,432.2 195.4,432.2 185.8,435.9 176.2,436.3 166.7,436.6 157.1,650.0 147.5,650.0 137.9,650.0 128.3,650.0 118.8,650.0 109.2,650.0 99.6,650.0 90.0,650.0" fill="#6E4C13" opacity="0.6" class="anim" style="animation-delay:1000ms;"/>
<polygon points="90.0,650.0 99.6,650.0 109.2,650.0 118.8,650.0 128.3,650.0 137.9,650.0 147.5,650.0 157.1,650.0 166.7,418.7 176.2,418.6 185.8,418.5 195.4,417.3 205.0,417.3 214.6,417.2 224.2,415.3 233.8,415.3 243.3,415.2 252.9,415.2 262.5,415.2 272.1,415.2 281.7,415.2 291.2,416.8 300.8,416.8 310.4,416.3 320.0,416.3 329.6,416.3 339.2,416.3 348.8,416.3 358.3,416.2 367.9,416.2 377.5,416.2 387.1,416.2 396.7,416.2 406.2,416.2 415.8,414.2 425.4,414.2 435.0,414.2 444.6,414.2 454.2,414.2 463.8,413.9 473.3,413.9 482.9,413.9 492.5,413.9 502.1,413.9 511.7,413.9 521.2,413.9 530.8,413.9 540.4,413.9 550.0,413.9 559.6,413.9 569.2,413.9 578.8,413.9 588.3,413.9 597.9,413.9 607.5,413.9 617.1,413.9 626.7,413.9 636.2,413.8 645.8,413.8 655.4,413.8 665.0,413.8 674.6,413.8 684.2,413.8 693.8,413.8 703.3,413.8 712.9,413.8 722.5,413.8 732.1,413.8 741.7,413.8 751.2,413.8 760.8,413.8 770.4,413.6 780.0,413.3 780.0,418.4 770.4,418.9 760.8,419.5 751.2,419.5 741.7,419.5 732.1,419.5 722.5,419.5 712.9,419.5 703.3,419.5 693.8,419.5 684.2,419.0 674.6,417.6 665.0,417.6 655.4,417.6 645.8,417.6 636.2,417.5 626.7,417.6 617.1,417.6 607.5,417.6 597.9,417.6 588.3,417.6 578.8,417.6 569.2,417.6 559.6,417.6 550.0,417.6 540.4,417.6 530.8,417.6 521.2,417.6 511.7,417.6 502.1,417.6 492.5,417.6 482.9,417.6 473.3,417.7 463.8,417.7 454.2,418.2 444.6,418.2 435.0,418.2 425.4,418.3 415.8,418.3 406.2,422.1 396.7,422.1 387.1,422.1 377.5,422.1 367.9,422.1 358.3,422.1 348.8,422.3 339.2,422.3 329.6,422.4 320.0,422.4 310.4,422.4 300.8,423.2 291.2,423.3 281.7,420.3 272.1,420.3 262.5,420.3 252.9,420.3 243.3,420.3 233.8,420.3 224.2,420.4 214.6,424.2 205.0,424.2 195.4,424.2 185.8,426.6 176.2,426.8 166.7,427.0 157.1,650.0 147.5,650.0 137.9,650.0 128.3,650.0 118.8,650.0 109.2,650.0 99.6,650.0 90.0,650.0" fill="#F05138" opacity="0.6" class="anim" style="animation-delay:1100ms;"/>
<polygon points="90.0,650.0 99.6,650.0 109.2,650.0 118.8,650.0 128.3,650.0 137.9,650.0 147.5,650.0 157.1,650.0 166.7,414.4 176.2,414.4 185.8,414.3 195.4,413.7 205.0,413.7 214.6,413.7 224.2,412.7 233.8,412.7 243.3,412.7 252.9,412.7 262.5,412.7 272.1,412.7 281.7,412.7 291.2,413.5 300.8,413.4 310.4,413.2 320.0,413.2 329.6,413.2 339.2,413.2 348.8,413.2 358.3,413.1 367.9,413.1 377.5,413.1 387.1,413.1 396.7,413.1 406.2,413.1 415.8,412.2 425.4,412.1 435.0,412.1 444.6,412.1 454.2,412.1 463.8,412.0 473.3,412.0 482.9,412.0 492.5,412.0 502.1,412.0 511.7,412.0 521.2,412.0 530.8,412.0 540.4,412.0 550.0,412.0 559.6,412.0 569.2,412.0 578.8,412.0 588.3,412.0 597.9,412.0 607.5,412.0 617.1,412.0 626.7,412.0 636.2,411.9 645.8,411.9 655.4,411.9 665.0,411.9 674.6,411.9 684.2,411.9 693.8,411.9 703.3,411.9 712.9,411.9 722.5,411.9 732.1,411.9 741.7,411.9 751.2,411.9 760.8,411.9 770.4,411.9 780.0,411.9 780.0,413.3 770.4,413.6 760.8,413.8 751.2,413.8 741.7,413.8 732.1,413.8 722.5,413.8 712.9,413.8 703.3,413.8 693.8,413.8 684.2,413.8 674.6,413.8 665.0,413.8 655.4,413.8 645.8,413.8 636.2,413.8 626.7,413.9 617.1,413.9 607.5,413.9 597.9,413.9 588.3,413.9 578.8,413.9 569.2,413.9 559.6,413.9 550.0,413.9 540.4,413.9 530.8,413.9 521.2,413.9 511.7,413.9 502.1,413.9 492.5,413.9 482.9,413.9 473.3,413.9 463.8,413.9 454.2,414.2 444.6,414.2 435.0,414.2 425.4,414.2 415.8,414.2 406.2,416.2 396.7,416.2 387.1,416.2 377.5,416.2 367.9,416.2 358.3,416.2 348.8,416.3 339.2,416.3 329.6,416.3 320.0,416.3 310.4,416.3 300.8,416.8 291.2,416.8 281.7,415.2 272.1,415.2 262.5,415.2 252.9,415.2 243.3,415.2 233.8,415.3 224.2,415.3 214.6,417.2 205.0,417.3 195.4,417.3 185.8,418.5 176.2,418.6 166.7,418.7 157.1,650.0 147.5,650.0 137.9,650.0 128.3,650.0 118.8,650.0 109.2,650.0 99.6,650.0 90.0,650.0" fill="#b07219" opacity="0.6" class="anim" style="animation-delay:1200ms;"/>
<line x1="760.8" y1="100" x2="760.8" y2="650" stroke="#c9d1d9" stroke-width="1" stroke-dasharray="4,3" opacity="0.35"/>
<text x="770.4" y="112" text-anchor="middle" class="axis-label" opacity="0.6">Jul 02, 2026</text>
<text x="90.0" y="668" text-anchor="middle" class="axis-label" transform="rotate(-35 90.0 668)">2026-02</text>
<text x="320.0" y="668" text-anchor="middle" class="axis-label" transform="rotate(-35 320.0 668)">2026-03</text>
<text x="626.7" y="668" text-anchor="middle" class="axis-label" transform="rotate(-35 626.7 668)">2026-04</text>
<text x="703.3" y="668" text-anchor="middle" class="axis-label" transform="rotate(-35 703.3 668)">2026-06</text>
<text x="780.0" y="668" text-anchor="middle" class="axis-label" transform="rotate(-35 780.0 668)">Jul 16, 2026</text>
<line x1="796" y1="110" x2="824" y2="110" stroke="#3fb950" stroke-width="2"/>
<text x="832" y="116" class="legend-text">Lines Added</text>
<line x1="796" y1="140" x2="824" y2="140" stroke="#f85149" stroke-width="1.5"/>
<text x="832" y="146" class="legend-text">Lines Deleted</text>
<line x1="796" y1="170" x2="824" y2="170" stroke="#e3b341" stroke-width="1.5" stroke-dasharray="4,3"/>
<text x="832" y="176" class="legend-text">&#x2605; Stars</text>
<text x="796" y="200" class="subtitle">Languages</text>
<rect x="796" y="212" width="12" height="12" rx="2" fill="#e34c26" opacity="0.8" class="anim" style="animation-delay:800ms;"/>
<text x="814" y="223" class="legend-text">HTML (58%→57%)</text>
<rect x="796" y="234" width="12" height="12" rx="2" fill="#f1e05a" opacity="0.8" class="anim" style="animation-delay:880ms;"/>
<text x="814" y="245" class="legend-text">JavaScript (22%→25%)</text>
<rect x="796" y="256" width="12" height="12" rx="2" fill="#3572A5" opacity="0.8" class="anim" style="animation-delay:960ms;"/>
<text x="814" y="267" class="legend-text">Python (7%→5%)</text>
<rect x="796" y="278" width="12" height="12" rx="2" fill="#663399" opacity="0.8" class="anim" style="animation-delay:1040ms;"/>
<text x="814" y="289" class="legend-text">CSS (5%→6%)</text>
<rect x="796" y="300" width="12" height="12" rx="2" fill="#083fa1" opacity="0.8" class="anim" style="animation-delay:1120ms;"/>
<text x="814" y="311" class="legend-text">Markdown (2%→2%)</text>
<rect x="796" y="322" width="12" height="12" rx="2" fill="#6E4C13" opacity="0.8" class="anim" style="animation-delay:1200ms;"/>
<text x="814" y="333" class="legend-text">Assembly (2%→1%)</text>
<rect x="796" y="344" width="12" height="12" rx="2" fill="#F05138" opacity="0.8" class="anim" style="animation-delay:1280ms;"/>
<text x="814" y="355" class="legend-text">Swift (2%→2%)</text>
<rect x="796" y="366" width="12" height="12" rx="2" fill="#b07219" opacity="0.8" class="anim" style="animation-delay:1360ms;"/>
<text x="814" y="377" class="legend-text">Java (1%→1%)</text>
<text x="796" y="412" class="subtitle">Contributions</text>
<text x="796" y="432" class="axis-label">2023: 39</text>
<text x="796" y="452" class="axis-label">2024: 646</text>
<text x="796" y="472" class="axis-label">2025: 1,780</text>
<text x="796" y="492" class="axis-label">2026: 483</text>
<text x="796" y="522" class="subtitle">Statistics</text>
<text x="796" y="542" class="axis-label">Active weeks: 87</text>
<text x="796" y="562" class="axis-label">Add/Del ratio: 1.8x</text>
<text x="796" y="582" class="axis-label">Avg lines/wk: 19K</text>
<text x="796" y="602" class="axis-label">Peak: 2026-02-15</text>
<text x="796" y="622" class="axis-label">  (543K lines)</text>
<text x="90" y="742" class="axis-label">Total: +1,039,435 / -576,819 lines &#xb7; 2,948 contributions &#xb7; 79 repos &#xb7; &#x2605; 37</text>
</svg>