<svg xmlns="http://www.w3.org/2000/svg" width="1000" height="760" style="max-width: 100%;" viewBox="0 0 1000 760">

<defs>
  <linearGradient id="areaGrad" x1="0" y1="0" x2="0" y2="1">
    <stop offset="0%" stop-color="#58a6ff" stop-opacity="0.35"/>
    <stop offset="100%" stop-color="#58a6ff" stop-opacity="0.02"/>
  </linearGradient>
  <linearGradient id="addGrad" x1="0" y1="0" x2="0" y2="1">
    <stop offset="0%" stop-color="#3fb950" stop-opacity="0.35"/>
    <stop offset="100%" stop-color="#3fb950" stop-opacity="0.02"/>
  </linearGradient>
  <linearGradient id="delGrad" x1="0" y1="0" x2="0" y2="1">
    <stop offset="0%" stop-color="#f85149" stop-opacity="0.25"/>
    <stop offset="100%" stop-color="#f85149" stop-opacity="0.02"/>
  </linearGradient>
</defs>
<style>
  .title { font: bold 28px 'Segoe UI', Ubuntu, Sans-Serif; fill: #c9d1d9; }
  .subtitle { font: 600 20px 'Segoe UI', Ubuntu, Sans-Serif; fill: #c9d1d9; opacity: 0.8; }
  .axis-label { font: 18px 'Segoe UI', Ubuntu, Sans-Serif; fill: #c9d1d9; opacity: 0.7; }
  .legend-text { font: 14px 'Segoe UI', Ubuntu, Sans-Serif; fill: #c9d1d9; }
  .value-text { font: bold 18px 'Segoe UI', Ubuntu, Sans-Serif; fill: #c9d1d9; }
  .stat-value { font: bold 22px 'Segoe UI', Ubuntu, Sans-Serif; fill: #c9d1d9; }
  .stat-label { font: 18px 'Segoe UI', Ubuntu, Sans-Serif; fill: #c9d1d9; opacity: 0.7; }
  @keyframes fadeIn { from { opacity: 0; } to { opacity: 1; } }
  .anim { animation: fadeIn 0.6s ease-in-out forwards; opacity: 0; }
</style>

<rect x="0.5" y="0.5" rx="4.5" width="999" height="759" fill="#161b22" stroke="#21262d"/>
<text x="90" y="45" class="title">Activity History</text>
<text x="90" y="72" class="subtitle">Lines added vs deleted &amp; activity trends over time</text>
<line x1="90" y1="340.0" x2="780" y2="340.0" stroke="#21262d" stroke-width="1"/>
<text x="82" y="344.0" text-anchor="end" class="axis-label">0</text>
<line x1="90" y1="280.0" x2="780" y2="280.0" stroke="#21262d" stroke-width="1"/>
<text x="82" y="284.0" text-anchor="end" class="axis-label">453K</text>
<line x1="90" y1="220.0" x2="780" y2="220.0" stroke="#21262d" stroke-width="1"/>
<text x="82" y="224.0" text-anchor="end" class="axis-label">905K</text>
<line x1="90" y1="160.0" x2="780" y2="160.0" stroke="#21262d" stroke-width="1"/>
<text x="82" y="164.0" text-anchor="end" class="axis-label">1.4M</text>
<line x1="90" y1="100.0" x2="780" y2="100.0" stroke="#21262d" stroke-width="1"/>
<text x="82" y="104.0" text-anchor="end" class="axis-label">1.8M</text>
<polygon points="90.0,340.0 90.0,291.6 96.6,293.4 103.3,291.6 109.9,293.4 116.5,304.5 123.2,282.3 129.8,282.3 136.4,274.0 143.1,273.7 149.7,273.1 156.3,273.1 163.0,258.2 169.6,258.2 176.2,258.1 182.9,236.1 189.5,235.8 196.2,235.5 202.8,235.5 209.4,235.5 216.1,235.5 222.7,235.5 229.3,234.9 236.0,220.2 242.6,220.1 249.2,220.1 255.9,220.1 262.5,219.8 269.1,219.8 275.8,219.2 282.4,219.2 289.0,219.1 295.7,219.1 302.3,219.1 308.9,219.1 315.6,219.2 322.2,219.1 328.8,219.1 335.5,219.1 342.1,219.1 348.8,219.1 355.4,219.1 362.0,218.5 368.7,218.7 375.3,218.1 381.9,217.7 388.6,217.7 395.2,217.7 401.8,217.7 408.5,217.7 415.1,217.7 421.7,217.7 428.4,217.7 435.0,217.7 441.6,217.7 448.3,218.0 454.9,219.5 461.5,218.0 468.2,216.8 474.8,216.7 481.4,216.7 488.1,216.7 494.7,216.7 501.3,209.1 508.0,202.2 514.6,202.2 521.2,202.2 527.9,202.2 534.5,202.2 541.2,202.2 547.8,202.2 554.4,202.2 561.1,202.1 567.7,202.1 574.3,202.1 581.0,202.1 587.6,202.1 594.2,202.1 600.9,202.1 607.5,202.1 614.1,202.1 620.8,202.1 627.4,202.1 634.0,202.1 640.7,202.1 647.3,202.1 653.9,202.1 660.6,202.1 667.2,202.1 673.8,202.1 680.5,202.1 687.1,202.1 693.8,202.1 700.4,202.1 707.0,202.1 713.7,202.1 720.3,202.1 726.9,202.1 733.6,202.1 740.2,202.1 746.8,202.1 753.5,202.1 760.1,202.1 766.7,202.1 773.4,194.5 780.0,186.8 780.0,340.0" fill="url(#addGrad)" class="anim" style="animation-delay:200ms;"/>
<polyline points="90.0,291.6 96.6,293.4 103.3,291.6 109.9,293.4 116.5,304.5 123.2,282.3 129.8,282.3 136.4,274.0 143.1,273.7 149.7,273.1 156.3,273.1 163.0,258.2 169.6,258.2 176.2,258.1 182.9,236.1 189.5,235.8 196.2,235.5 202.8,235.5 209.4,235.5 216.1,235.5 222.7,235.5 229.3,234.9 236.0,220.2 242.6,220.1 249.2,220.1 255.9,220.1 262.5,219.8 269.1,219.8 275.8,219.2 282.4,219.2 289.0,219.1 295.7,219.1 302.3,219.1 308.9,219.1 315.6,219.2 322.2,219.1 328.8,219.1 335.5,219.1 342.1,219.1 348.8,219.1 355.4,219.1 362.0,218.5 368.7,218.7 375.3,218.1 381.9,217.7 388.6,217.7 395.2,217.7 401.8,217.7 408.5,217.7 415.1,217.7 421.7,217.7 428.4,217.7 435.0,217.7 441.6,217.7 448.3,218.0 454.9,219.5 461.5,218.0 468.2,216.8 474.8,216.7 481.4,216.7 488.1,216.7 494.7,216.7 501.3,209.1 508.0,202.2 514.6,202.2 521.2,202.2 527.9,202.2 534.5,202.2 541.2,202.2 547.8,202.2 554.4,202.2 561.1,202.1 567.7,202.1 574.3,202.1 581.0,202.1 587.6,202.1 594.2,202.1 600.9,202.1 607.5,202.1 614.1,202.1 620.8,202.1 627.4,202.1 634.0,202.1 640.7,202.1 647.3,202.1 653.9,202.1 660.6,202.1 667.2,202.1 673.8,202.1 680.5,202.1 687.1,202.1 693.8,202.1 700.4,202.1 707.0,202.1 713.7,202.1 720.3,202.1 726.9,202.1 733.6,202.1 740.2,202.1 746.8,202.1 753.5,202.1 760.1,202.1 766.7,202.1" fill="none" stroke="#3fb950" stroke-width="2" stroke-linejoin="round" class="anim" style="animation-delay:250ms;"/>
<polyline points="766.7,202.1 773.4,194.5 780.0,186.8" fill="none" stroke="#3fb950" stroke-width="1.5" stroke-dasharray="5,4" stroke-linejoin="round" opacity="0.6" class="anim" style="animation-delay:250ms;"/>
<polygon points="90.0,340.0 90.0,326.4 96.6,327.8 103.3,326.4 109.9,327.8 116.5,333.6 123.2,324.7 129.8,324.7 136.4,323.8 143.1,323.4 149.7,323.2 156.3,323.1 163.0,307.1 169.6,307.1 176.2,307.0 182.9,288.9 189.5,288.7 196.2,288.7 202.8,288.7 209.4,288.7 216.1,288.7 222.7,288.7 229.3,279.2 236.0,264.7 242.6,264.7 249.2,264.7 255.9,264.7 262.5,264.6 269.1,264.6 275.8,264.6 282.4,264.5 289.0,264.5 295.7,264.5 302.3,264.5 308.9,264.5 315.6,264.5 322.2,264.5 328.8,264.5 335.5,264.5 342.1,264.5 348.8,264.5 355.4,264.5 362.0,264.5 368.7,264.6 375.3,264.1 381.9,264.1 388.6,264.1 395.2,264.1 401.8,264.1 408.5,264.1 415.1,264.1 421.7,264.1 428.4,264.1 435.0,264.1 441.6,264.1 448.3,264.2 454.9,265.0 461.5,264.5 468.2,263.6 474.8,263.6 481.4,263.6 488.1,263.6 494.7,263.6 501.3,263.5 508.0,263.5 514.6,263.5 521.2,263.5 527.9,263.5 534.5,263.5 541.2,263.5 547.8,263.5 554.4,263.5 561.1,263.5 567.7,263.5 574.3,263.5 581.0,263.5 587.6,263.5 594.2,263.5 600.9,263.5 607.5,263.5 614.1,263.5 620.8,263.5 627.4,263.5 634.0,263.5 640.7,263.5 647.3,263.5 653.9,263.5 660.6,263.5 667.2,263.5 673.8,263.5 680.5,263.5 687.1,263.5 693.8,263.5 700.4,263.5 707.0,263.5 713.7,263.5 720.3,263.5 726.9,263.5 733.6,263.5 740.2,263.5 746.8,263.5 753.5,263.5 760.1,263.5 766.7,263.5 773.4,258.4 780.0,253.2 780.0,340.0" fill="url(#delGrad)" class="anim" style="animation-delay:300ms;"/>
<polyline points="90.0,326.4 96.6,327.8 103.3,326.4 109.9,327.8 116.5,333.6 123.2,324.7 129.8,324.7 136.4,323.8 143.1,323.4 149.7,323.2 156.3,323.1 163.0,307.1 169.6,307.1 176.2,307.0 182.9,288.9 189.5,288.7 196.2,288.7 202.8,288.7 209.4,288.7 216.1,288.7 222.7,288.7 229.3,279.2 236.0,264.7 242.6,264.7 249.2,264.7 255.9,264.7 262.5,264.6 269.1,264.6 275.8,264.6 282.4,264.5 289.0,264.5 295.7,264.5 302.3,264.5 308.9,264.5 315.6,264.5 322.2,264.5 328.8,264.5 335.5,264.5 342.1,264.5 348.8,264.5 355.4,264.5 362.0,264.5 368.7,264.6 375.3,264.1 381.9,264.1 388.6,264.1 395.2,264.1 401.8,264.1 408.5,264.1 415.1,264.1 421.7,264.1 428.4,264.1 435.0,264.1 441.6,264.1 448.3,264.2 454.9,265.0 461.5,264.5 468.2,263.6 474.8,263.6 481.4,263.6 488.1,263.6 494.7,263.6 501.3,263.5 508.0,263.5 514.6,263.5 521.2,263.5 527.9,263.5 534.5,263.5 541.2,263.5 547.8,263.5 554.4,263.5 561.1,263.5 567.7,263.5 574.3,263.5 581.0,263.5 587.6,263.5 594.2,263.5 600.9,263.5 607.5,263.5 614.1,263.5 620.8,263.5 627.4,263.5 634.0,263.5 640.7,263.5 647.3,263.5 653.9,263.5 660.6,263.5 667.2,263.5 673.8,263.5 680.5,263.5 687.1,263.5 693.8,263.5 700.4,263.5 707.0,263.5 713.7,263.5 720.3,263.5 726.9,263.5 733.6,263.5 740.2,263.5 746.8,263.5 753.5,263.5 760.1,263.5 766.7,263.5" fill="none" stroke="#f85149" stroke-width="1.5" stroke-linejoin="round" class="anim" style="animation-delay:350ms;"/>
<polyline points="766.7,263.5 773.4,258.4 780.0,253.2" fill="none" stroke="#f85149" stroke-width="1" stroke-dasharray="5,4" stroke-linejoin="round" opacity="0.6" class="anim" style="animation-delay:350ms;"/>
<polyline points="90.0,340.0 96.6,340.0 103.3,340.0 109.9,340.0 116.5,340.0 123.2,340.0 129.8,340.0 136.4,340.0 143.1,308.0 149.7,308.0 156.3,308.0 163.0,308.0 169.6,308.0 176.2,308.0 182.9,308.0 189.5,308.0 196.2,308.0 202.8,308.0 209.4,308.0 216.1,308.0 222.7,308.0 229.3,308.0 236.0,308.0 242.6,308.0 249.2,308.0 255.9,308.0 262.5,308.0 269.1,308.0 275.8,308.0 282.4,308.0 289.0,308.0 295.7,308.0 302.3,308.0 308.9,308.0 315.6,276.0 322.2,276.0 328.8,276.0 335.5,276.0 342.1,276.0 348.8,276.0 355.4,276.0 362.0,276.0 368.7,244.0 375.3,244.0 381.9,244.0 388.6,244.0 395.2,244.0 401.8,244.0 408.5,244.0 415.1,244.0 421.7,244.0 428.4,244.0 435.0,244.0 441.6,244.0 448.3,244.0 454.9,244.0 461.5,244.0 468.2,244.0 474.8,180.0 481.4,180.0 488.1,180.0 494.7,180.0 501.3,180.0 508.0,180.0 514.6,180.0 521.2,180.0 527.9,180.0 534.5,180.0 541.2,180.0 547.8,180.0 554.4,180.0 561.1,180.0 567.7,180.0 574.3,180.0 581.0,180.0 587.6,180.0 594.2,180.0 600.9,180.0 607.5,180.0 614.1,180.0 620.8,180.0 627.4,180.0 634.0,180.0 640.7,180.0 647.3,180.0 653.9,180.0 660.6,180.0 667.2,180.0 673.8,180.0 680.5,180.0 687.1,180.0 693.8,180.0 700.4,180.0 707.0,180.0 713.7,180.0 720.3,180.0 726.9,180.0 733.6,180.0 740.2,180.0 746.8,180.0 753.5,180.0 760.1,180.0 766.7,180.0" fill="none" stroke="#e3b341" stroke-width="1.5" stroke-dasharray="4,3" stroke-linejoin="round" class="anim" style="animation-delay:400ms;"/>
<polyline points="766.7,180.0 773.4,180.0 780.0,148.0" fill="none" stroke="#e3b341" stroke-width="1" stroke-dasharray="3,5" stroke-linejoin="round" opacity="0.5" class="anim" style="animation-delay:400ms;"/>
<text x="90" y="90" class="subtitle">Lines Added vs Deleted (per snapshot)</text>
<text x="90" y="400" class="subtitle">Programming Language Development (%)</text>
<line x1="90" y1="650.0" x2="780" y2="650.0" stroke="#21262d" stroke-width="1"/>
<text x="82" y="654.0" text-anchor="end" class="axis-label">0%</text>
<line x1="90" y1="590.0" x2="780" y2="590.0" stroke="#21262d" stroke-width="1"/>
<text x="82" y="594.0" text-anchor="end" class="axis-label">25%</text>
<line x1="90" y1="530.0" x2="780" y2="530.0" stroke="#21262d" stroke-width="1"/>
<text x="82" y="534.0" text-anchor="end" class="axis-label">50%</text>
<line x1="90" y1="470.0" x2="780" y2="470.0" stroke="#21262d" stroke-width="1"/>
<text x="82" y="474.0" text-anchor="end" class="axis-label">75%</text>
<line x1="90" y1="410.0" x2="780" y2="410.0" stroke="#21262d" stroke-width="1"/>
<text x="82" y="414.0" text-anchor="end" class="axis-label">100%</text>
<polygon points="90.0,650.0 96.6,650.0 103.3,650.0 109.9,650.0 116.5,650.0 123.2,650.0 129.8,650.0 136.4,650.0 143.1,528.2 149.7,528.5 156.3,529.7 163.0,499.3 169.6,499.3 176.2,502.9 182.9,485.0 189.5,485.1 196.2,485.4 202.8,485.4 209.4,485.4 216.1,485.4 222.7,485.4 229.3,496.4 236.0,496.7 242.6,491.0 249.2,491.0 255.9,491.0 262.5,491.7 269.1,491.8 275.8,494.0 282.4,494.0 289.0,494.4 295.7,494.4 302.3,494.4 308.9,494.4 315.6,507.6 322.2,507.6 328.8,507.9 335.5,507.9 342.1,507.9 348.8,506.3 355.4,506.4 362.0,506.8 368.7,506.9 375.3,506.8 381.9,507.5 388.6,507.5 395.2,507.5 401.8,507.5 408.5,507.5 415.1,507.5 421.7,507.5 428.4,507.5 435.0,507.5 441.6,507.5 448.3,507.5 454.9,507.5 461.5,507.5 468.2,508.6 474.8,508.6 481.4,508.6 488.1,508.6 494.7,508.6 501.3,509.5 508.0,509.8 514.6,509.8 521.2,509.8 527.9,509.8 534.5,509.8 541.2,509.8 547.8,509.8 554.4,509.8 561.1,510.9 567.7,510.9 574.3,510.9 581.0,510.9 587.6,510.9 594.2,510.9 600.9,510.9 607.5,510.9 614.1,510.9 620.8,510.9 627.4,510.9 634.0,510.9 640.7,510.9 647.3,510.9 653.9,510.9 660.6,510.9 667.2,510.9 673.8,510.9 680.5,510.9 687.1,510.9 693.8,510.9 700.4,510.9 707.0,510.9 713.7,510.9 720.3,510.9 726.9,510.9 733.6,510.9 740.2,510.9 746.8,510.9 753.5,510.9 760.1,510.9 766.7,510.9 773.4,513.0 780.0,515.0 780.0,650.0 773.4,650.0 766.7,650.0 760.1,650.0 753.5,650.0 746.8,650.0 740.2,650.0 733.6,650.0 726.9,650.0 720.3,650.0 713.7,650.0 707.0,650.0 700.4,650.0 693.8,650.0 687.1,650.0 680.5,650.0 673.8,650.0 667.2,650.0 660.6,650.0 653.9,650.0 647.3,650.0 640.7,650.0 634.0,650.0 627.4,650.0 620.8,650.0 614.1,650.0 607.5,650.0 600.9,650.0 594.2,650.0 587.6,650.0 581.0,650.0 574.3,650.0 567.7,650.0 561.1,650.0 554.4,650.0 547.8,650.0 541.2,650.0 534.5,650.0 527.9,650.0 521.2,650.0 514.6,650.0 508.0,650.0 501.3,650.0 494.7,650.0 488.1,650.0 481.4,650.0 474.8,650.0 468.2,650.0 461.5,650.0 454.9,650.0 448.3,650.0 441.6,650.0 435.0,650.0 428.4,650.0 421.7,650.0 415.1,650.0 408.5,650.0 401.8,650.0 395.2,650.0 388.6,650.0 381.9,650.0 375.3,650.0 368.7,650.0 362.0,650.0 355.4,650.0 348.8,650.0 342.1,650.0 335.5,650.0 328.8,650.0 322.2,650.0 315.6,650.0 308.9,650.0 302.3,650.0 295.7,650.0 289.0,650.0 282.4,650.0 275.8,650.0 269.1,650.0 262.5,650.0 255.9,650.0 249.2,650.0 242.6,650.0 236.0,650.0 229.3,650.0 222.7,650.0 216.1,650.0 209.4,650.0 202.8,650.0 196.2,650.0 189.5,650.0 182.9,650.0 176.2,650.0 169.6,650.0 163.0,650.0 156.3,650.0 149.7,650.0 143.1,650.0 136.4,650.0 129.8,650.0 123.2,650.0 116.5,650.0 109.9,650.0 103.3,650.0 96.6,650.0 90.0,650.0" fill="#e34c26" opacity="0.6" class="anim" style="animation-delay:500ms;"/>
<polygon points="90.0,650.0 96.6,650.0 103.3,650.0 109.9,650.0 116.5,650.0 123.2,650.0 129.8,650.0 136.4,650.0 143.1,488.4 149.7,488.0 156.3,489.0 163.0,476.0 169.6,476.0 176.2,477.2 182.9,460.1 189.5,460.2 196.2,460.6 202.8,460.6 209.4,460.6 216.1,460.6 222.7,460.6 229.3,473.0 236.0,473.5 242.6,469.5 249.2,469.5 255.9,469.5 262.5,469.7 269.1,469.7 275.8,469.7 282.4,469.7 289.0,469.7 295.7,469.7 302.3,469.7 308.9,469.7 315.6,455.6 322.2,455.6 328.8,455.4 335.5,455.4 342.1,455.4 348.8,454.3 355.4,454.3 362.0,455.0 368.7,455.1 375.3,454.9 381.9,455.9 388.6,455.9 395.2,455.9 401.8,455.9 408.5,455.9 415.1,455.9 421.7,455.9 428.4,455.9 435.0,455.9 441.6,455.9 448.3,455.9 454.9,455.9 461.5,455.9 468.2,455.8 474.8,455.8 481.4,455.8 488.1,455.8 494.7,455.8 501.3,457.0 508.0,457.4 514.6,457.4 521.2,457.4 527.9,457.4 534.5,457.4 541.2,457.4 547.8,457.4 554.4,457.4 561.1,458.2 567.7,458.2 574.3,458.2 581.0,458.2 587.6,458.2 594.2,458.2 600.9,458.2 607.5,458.2 614.1,458.2 620.8,458.2 627.4,458.2 634.0,458.2 640.7,458.2 647.3,458.2 653.9,458.2 660.6,458.2 667.2,458.2 673.8,458.2 680.5,458.2 687.1,458.2 693.8,458.2 700.4,458.2 707.0,458.2 713.7,458.2 720.3,458.2 726.9,458.2 733.6,458.2 740.2,458.2 746.8,458.2 753.5,458.2 760.1,458.2 766.7,458.2 773.4,456.6 780.0,455.1 780.0,515.0 773.4,513.0 766.7,510.9 760.1,510.9 753.5,510.9 746.8,510.9 740.2,510.9 733.6,510.9 726.9,510.9 720.3,510.9 713.7,510.9 707.0,510.9 700.4,510.9 693.8,510.9 687.1,510.9 680.5,510.9 673.8,510.9 667.2,510.9 660.6,510.9 653.9,510.9 647.3,510.9 640.7,510.9 634.0,510.9 627.4,510.9 620.8,510.9 614.1,510.9 607.5,510.9 600.9,510.9 594.2,510.9 587.6,510.9 581.0,510.9 574.3,510.9 567.7,510.9 561.1,510.9 554.4,509.8 547.8,509.8 541.2,509.8 534.5,509.8 527.9,509.8 521.2,509.8 514.6,509.8 508.0,509.8 501.3,509.5 494.7,508.6 488.1,508.6 481.4,508.6 474.8,508.6 468.2,508.6 461.5,507.5 454.9,507.5 448.3,507.5 441.6,507.5 435.0,507.5 428.4,507.5 421.7,507.5 415.1,507.5 408.5,507.5 401.8,507.5 395.2,507.5 388.6,507.5 381.9,507.5 375.3,506.8 368.7,506.9 362.0,506.8 355.4,506.4 348.8,506.3 342.1,507.9 335.5,507.9 328.8,507.9 322.2,507.6 315.6,507.6 308.9,494.4 302.3,494.4 295.7,494.4 289.0,494.4 282.4,494.0 275.8,494.0 269.1,491.8 262.5,491.7 255.9,491.0 249.2,491.0 242.6,491.0 236.0,496.7 229.3,496.4 222.7,485.4 216.1,485.4 209.4,485.4 202.8,485.4 196.2,485.4 189.5,485.1 182.9,485.0 176.2,502.9 169.6,499.3 163.0,499.3 156.3,529.7 149.7,528.5 143.1,528.2 136.4,650.0 129.8,650.0 123.2,650.0 116.5,650.0 109.9,650.0 103.3,650.0 96.6,650.0 90.0,650.0" fill="#f1e05a" opacity="0.6" class="anim" style="animation-delay:600ms;"/>
<polygon points="90.0,650.0 96.6,650.0 103.3,650.0 109.9,650.0 116.5,650.0 123.2,650.0 129.8,650.0 136.4,650.0 143.1,455.5 149.7,455.4 156.3,455.1 163.0,447.0 169.6,447.0 176.2,448.2 182.9,438.9 189.5,439.0 196.2,439.6 202.8,439.6 209.4,439.6 216.1,439.6 222.7,439.6 229.3,445.6 236.0,445.6 242.6,443.3 249.2,443.3 255.9,443.3 262.5,443.6 269.1,443.6 275.8,444.1 282.4,444.1 289.0,444.1 295.7,444.1 302.3,444.1 308.9,444.1 315.6,437.5 322.2,437.5 328.8,437.5 335.5,437.5 342.1,437.5 348.8,437.5 355.4,437.5 362.0,438.4 368.7,438.5 375.3,438.3 381.9,439.3 388.6,439.3 395.2,439.3 401.8,439.3 408.5,439.3 415.1,439.3 421.7,439.3 428.4,439.3 435.0,439.3 441.6,439.3 448.3,439.3 454.9,439.3 461.5,439.3 468.2,439.4 474.8,439.4 481.4,439.4 488.1,439.4 494.7,439.4 501.3,440.7 508.0,441.1 514.6,441.1 521.2,441.1 527.9,441.1 534.5,441.1 541.2,441.1 547.8,441.1 554.4,441.1 561.1,442.0 567.7,442.0 574.3,442.0 581.0,442.0 587.6,442.0 594.2,442.0 600.9,442.0 607.5,442.0 614.1,442.0 620.8,442.0 627.4,442.0 634.0,442.0 640.7,442.0 647.3,442.0 653.9,442.0 660.6,442.0 667.2,442.0 673.8,442.0 680.5,442.0 687.1,442.0 693.8,442.0 700.4,442.0 707.0,442.0 713.7,442.0 720.3,442.0 726.9,442.0 733.6,442.0 740.2,442.0 746.8,442.0 753.5,442.0 760.1,442.0 766.7,442.0 773.4,441.9 780.0,441.8 780.0,455.1 773.4,456.6 766.7,458.2 760.1,458.2 753.5,458.2 746.8,458.2 740.2,458.2 733.6,458.2 726.9,458.2 720.3,458.2 713.7,458.2 707.0,458.2 700.4,458.2 693.8,458.2 687.1,458.2 680.5,458.2 673.8,458.2 667.2,458.2 660.6,458.2 653.9,458.2 647.3,458.2 640.7,458.2 634.0,458.2 627.4,458.2 620.8,458.2 614.1,458.2 607.5,458.2 600.9,458.2 594.2,458.2 587.6,458.2 581.0,458.2 574.3,458.2 567.7,458.2 561.1,458.2 554.4,457.4 547.8,457.4 541.2,457.4 534.5,457.4 527.9,457.4 521.2,457.4 514.6,457.4 508.0,457.4 501.3,457.0 494.7,455.8 488.1,455.8 481.4,455.8 474.8,455.8 468.2,455.8 461.5,455.9 454.9,455.9 448.3,455.9 441.6,455.9 435.0,455.9 428.4,455.9 421.7,455.9 415.1,455.9 408.5,455.9 401.8,455.9 395.2,455.9 388.6,455.9 381.9,455.9 375.3,454.9 368.7,455.1 362.0,455.0 355.4,454.3 348.8,454.3 342.1,455.4 335.5,455.4 328.8,455.4 322.2,455.6 315.6,455.6 308.9,469.7 302.3,469.7 295.7,469.7 289.0,469.7 282.4,469.7 275.8,469.7 269.1,469.7 262.5,469.7 255.9,469.5 249.2,469.5 242.6,469.5 236.0,473.5 229.3,473.0 222.7,460.6 216.1,460.6 209.4,460.6 202.8,460.6 196.2,460.6 189.5,460.2 182.9,460.1 176.2,477.2 169.6,476.0 163.0,476.0 156.3,489.0 149.7,488.0 143.1,488.4 136.4,650.0 129.8,650.0 123.2,650.0 116.5,650.0 109.9,650.0 103.3,650.0 96.6,650.0 90.0,650.0" fill="#3572A5" opacity="0.6" class="anim" style="animation-delay:700ms;"/>
<polygon points="90.0,650.0 96.6,650.0 103.3,650.0 109.9,650.0 116.5,650.0 123.2,650.0 129.8,650.0 136.4,650.0 143.1,442.3 149.7,442.0 156.3,441.6 163.0,439.5 169.6,439.5 176.2,439.4 182.9,432.3 189.5,432.2 196.2,432.6 202.8,432.6 209.4,432.6 216.1,432.6 222.7,432.6 229.3,439.3 236.0,439.3 242.6,437.4 249.2,437.4 255.9,437.4 262.5,437.3 269.1,437.3 275.8,437.1 282.4,437.1 289.0,437.1 295.7,437.1 302.3,437.1 308.9,437.1 315.6,428.7 322.2,428.6 328.8,428.5 335.5,428.5 342.1,428.5 348.8,427.3 355.4,427.3 362.0,427.1 368.7,427.1 375.3,427.1 381.9,427.0 388.6,427.0 395.2,427.0 401.8,427.0 408.5,427.0 415.1,427.0 421.7,427.0 428.4,427.0 435.0,427.0 441.6,427.0 448.3,427.0 454.9,427.0 461.5,427.0 468.2,427.0 474.8,427.1 481.4,427.1 488.1,427.1 494.7,427.1 501.3,428.4 508.0,428.9 514.6,428.9 521.2,428.9 527.9,428.9 534.5,428.9 541.2,428.9 547.8,428.9 554.4,428.9 561.1,428.7 567.7,428.7 574.3,428.7 581.0,428.7 587.6,428.7 594.2,428.7 600.9,428.7 607.5,428.7 614.1,428.7 620.8,428.7 627.4,428.7 634.0,428.7 640.7,428.7 647.3,428.7 653.9,428.7 660.6,428.7 667.2,428.7 673.8,428.7 680.5,428.7 687.1,428.7 693.8,428.7 700.4,428.7 707.0,428.7 713.7,428.7 720.3,428.7 726.9,428.7 733.6,428.7 740.2,428.7 746.8,428.7 753.5,428.7 760.1,428.7 766.7,428.7 773.4,427.8 780.0,426.9 780.0,441.8 773.4,441.9 766.7,442.0 760.1,442.0 753.5,442.0 746.8,442.0 740.2,442.0 733.6,442.0 726.9,442.0 720.3,442.0 713.7,442.0 707.0,442.0 700.4,442.0 693.8,442.0 687.1,442.0 680.5,442.0 673.8,442.0 667.2,442.0 660.6,442.0 653.9,442.0 647.3,442.0 640.7,442.0 634.0,442.0 627.4,442.0 620.8,442.0 614.1,442.0 607.5,442.0 600.9,442.0 594.2,442.0 587.6,442.0 581.0,442.0 574.3,442.0 567.7,442.0 561.1,442.0 554.4,441.1 547.8,441.1 541.2,441.1 534.5,441.1 527.9,441.1 521.2,441.1 514.6,441.1 508.0,441.1 501.3,440.7 494.7,439.4 488.1,439.4 481.4,439.4 474.8,439.4 468.2,439.4 461.5,439.3 454.9,439.3 448.3,439.3 441.6,439.3 435.0,439.3 428.4,439.3 421.7,439.3 415.1,439.3 408.5,439.3 401.8,439.3 395.2,439.3 388.6,439.3 381.9,439.3 375.3,438.3 368.7,438.5 362.0,438.4 355.4,437.5 348.8,437.5 342.1,437.5 335.5,437.5 328.8,437.5 322.2,437.5 315.6,437.5 308.9,444.1 302.3,444.1 295.7,444.1 289.0,444.1 282.4,444.1 275.8,444.1 269.1,443.6 262.5,443.6 255.9,443.3 249.2,443.3 242.6,443.3 236.0,445.6 229.3,445.6 222.7,439.6 216.1,439.6 209.4,439.6 202.8,439.6 196.2,439.6 189.5,439.0 182.9,438.9 176.2,448.2 169.6,447.0 163.0,447.0 156.3,455.1 149.7,455.4 143.1,455.5 136.4,650.0 129.8,650.0 123.2,650.0 116.5,650.0 109.9,650.0 103.3,650.0 96.6,650.0 90.0,650.0" fill="#663399" opacity="0.6" class="anim" style="animation-delay:800ms;"/>
<polygon points="90.0,650.0 96.6,650.0 103.3,650.0 109.9,650.0 116.5,650.0 123.2,650.0 129.8,650.0 136.4,650.0 143.1,436.6 149.7,436.3 156.3,435.9 163.0,432.2 169.6,432.2 176.2,432.2 182.9,426.2 189.5,426.1 196.2,426.0 202.8,426.0 209.4,426.0 216.1,426.0 222.7,426.0 229.3,430.8 236.0,430.7 242.6,429.3 249.2,429.3 255.9,429.3 262.5,429.2 269.1,429.2 275.8,428.9 282.4,428.9 289.0,428.8 295.7,428.8 302.3,428.8 308.9,428.8 315.6,423.0 322.2,422.9 328.8,422.9 335.5,422.9 342.1,422.9 348.8,422.0 355.4,422.0 362.0,421.9 368.7,421.9 375.3,421.9 381.9,421.8 388.6,421.8 395.2,421.8 401.8,421.8 408.5,421.8 415.1,421.8 421.7,421.8 428.4,421.8 435.0,421.8 441.6,421.8 448.3,421.8 454.9,421.8 461.5,421.8 468.2,421.7 474.8,421.8 481.4,421.8 488.1,421.8 494.7,421.8 501.3,423.2 508.0,423.6 514.6,423.6 521.2,423.6 527.9,423.6 534.5,423.6 541.2,423.6 547.8,423.6 554.4,423.6 561.1,423.5 567.7,423.5 574.3,423.5 581.0,423.5 587.6,423.5 594.2,423.5 600.9,423.5 607.5,423.5 614.1,423.5 620.8,423.5 627.4,423.5 634.0,423.5 640.7,423.5 647.3,423.5 653.9,423.5 660.6,423.5 667.2,423.5 673.8,423.5 680.5,423.5 687.1,423.5 693.8,423.5 700.4,423.5 707.0,423.5 713.7,423.5 720.3,423.5 726.9,423.5 733.6,423.5 740.2,423.5 746.8,423.5 753.5,423.5 760.1,423.5 766.7,423.5 773.4,422.9 780.0,422.3 780.0,426.9 773.4,427.8 766.7,428.7 760.1,428.7 753.5,428.7 746.8,428.7 740.2,428.7 733.6,428.7 726.9,428.7 720.3,428.7 713.7,428.7 707.0,428.7 700.4,428.7 693.8,428.7 687.1,428.7 680.5,428.7 673.8,428.7 667.2,428.7 660.6,428.7 653.9,428.7 647.3,428.7 640.7,428.7 634.0,428.7 627.4,428.7 620.8,428.7 614.1,428.7 607.5,428.7 600.9,428.7 594.2,428.7 587.6,428.7 581.0,428.7 574.3,428.7 567.7,428.7 561.1,428.7 554.4,428.9 547.8,428.9 541.2,428.9 534.5,428.9 527.9,428.9 521.2,428.9 514.6,428.9 508.0,428.9 501.3,428.4 494.7,427.1 488.1,427.1 481.4,427.1 474.8,427.1 468.2,427.0 461.5,427.0 454.9,427.0 448.3,427.0 441.6,427.0 435.0,427.0 428.4,427.0 421.7,427.0 415.1,427.0 408.5,427.0 401.8,427.0 395.2,427.0 388.6,427.0 381.9,427.0 375.3,427.1 368.7,427.1 362.0,427.1 355.4,427.3 348.8,427.3 342.1,428.5 335.5,428.5 328.8,428.5 322.2,428.6 315.6,428.7 308.9,437.1 302.3,437.1 295.7,437.1 289.0,437.1 282.4,437.1 275.8,437.1 269.1,437.3 262.5,437.3 255.9,437.4 249.2,437.4 242.6,437.4 236.0,439.3 229.3,439.3 222.7,432.6 216.1,432.6 209.4,432.6 202.8,432.6 196.2,432.6 189.5,432.2 182.9,432.3 176.2,439.4 169.6,439.5 163.0,439.5 156.3,441.6 149.7,442.0 143.1,442.3 136.4,650.0 129.8,650.0 123.2,650.0 116.5,650.0 109.9,650.0 103.3,650.0 96.6,650.0 90.0,650.0" fill="#083fa1" opacity="0.6" class="anim" style="animation-delay:900ms;"/>
<polygon points="90.0,650.0 96.6,650.0 103.3,650.0 109.9,650.0 116.5,650.0 123.2,650.0 129.8,650.0 136.4,650.0 143.1,428.3 149.7,428.1 156.3,427.8 163.0,425.3 169.6,425.3 176.2,425.2 182.9,421.1 189.5,421.1 196.2,421.0 202.8,421.0 209.4,421.0 216.1,421.0 222.7,421.0 229.3,424.3 236.0,424.2 242.6,423.3 249.2,423.3 255.9,423.3 262.5,423.2 269.1,423.2 275.8,423.0 282.4,423.0 289.0,422.9 295.7,422.9 302.3,422.9 308.9,422.9 315.6,418.9 322.2,418.9 328.8,418.8 335.5,418.8 342.1,418.8 348.8,418.3 355.4,418.3 362.0,418.2 368.7,418.2 375.3,418.2 381.9,418.1 388.6,418.1 395.2,418.1 401.8,418.1 408.5,418.1 415.1,418.1 421.7,418.1 428.4,418.1 435.0,418.1 441.6,418.1 448.3,418.1 454.9,418.1 461.5,418.1 468.2,418.1 474.8,418.1 481.4,418.1 488.1,418.1 494.7,418.1 501.3,418.0 508.0,418.0 514.6,418.0 521.2,418.0 527.9,418.0 534.5,418.0 541.2,418.0 547.8,418.0 554.4,418.0 561.1,417.9 567.7,417.9 574.3,417.9 581.0,417.9 587.6,417.9 594.2,417.9 600.9,417.9 607.5,417.9 614.1,417.9 620.8,417.9 627.4,417.9 634.0,417.9 640.7,417.9 647.3,417.9 653.9,417.9 660.6,417.9 667.2,417.9 673.8,417.9 680.5,417.9 687.1,417.9 693.8,417.9 700.4,417.9 707.0,417.9 713.7,417.9 720.3,417.9 726.9,417.9 733.6,417.9 740.2,417.9 746.8,417.9 753.5,417.9 760.1,417.9 766.7,417.9 773.4,417.3 780.0,416.7 780.0,422.3 773.4,422.9 766.7,423.5 760.1,423.5 753.5,423.5 746.8,423.5 740.2,423.5 733.6,423.5 726.9,423.5 720.3,423.5 713.7,423.5 707.0,423.5 700.4,423.5 693.8,423.5 687.1,423.5 680.5,423.5 673.8,423.5 667.2,423.5 660.6,423.5 653.9,423.5 647.3,423.5 640.7,423.5 634.0,423.5 627.4,423.5 620.8,423.5 614.1,423.5 607.5,423.5 600.9,423.5 594.2,423.5 587.6,423.5 581.0,423.5 574.3,423.5 567.7,423.5 561.1,423.5 554.4,423.6 547.8,423.6 541.2,423.6 534.5,423.6 527.9,423.6 521.2,423.6 514.6,423.6 508.0,423.6 501.3,423.2 494.7,421.8 488.1,421.8 481.4,421.8 474.8,421.8 468.2,421.7 461.5,421.8 454.9,421.8 448.3,421.8 441.6,421.8 435.0,421.8 428.4,421.8 421.7,421.8 415.1,421.8 408.5,421.8 401.8,421.8 395.2,421.8 388.6,421.8 381.9,421.8 375.3,421.9 368.7,421.9 362.0,421.9 355.4,422.0 348.8,422.0 342.1,422.9 335.5,422.9 328.8,422.9 322.2,422.9 315.6,423.0 308.9,428.8 302.3,428.8 295.7,428.8 289.0,428.8 282.4,428.9 275.8,428.9 269.1,429.2 262.5,429.2 255.9,429.3 249.2,429.3 242.6,429.3 236.0,430.7 229.3,430.8 222.7,426.0 216.1,426.0 209.4,426.0 202.8,426.0 196.2,426.0 189.5,426.1 182.9,426.2 176.2,432.2 169.6,432.2 163.0,432.2 156.3,435.9 149.7,436.3 143.1,436.6 136.4,650.0 129.8,650.0 123.2,650.0 116.5,650.0 109.9,650.0 103.3,650.0 96.6,650.0 90.0,650.0" fill="#F05138" opacity="0.6" class="anim" style="animation-delay:1000ms;"/>
<polygon points="90.0,650.0 96.6,650.0 103.3,650.0 109.9,650.0 116.5,650.0 123.2,650.0 129.8,650.0 136.4,650.0 143.1,418.7 149.7,418.6 156.3,418.5 163.0,417.3 169.6,417.3 176.2,417.2 182.9,415.3 189.5,415.3 196.2,415.2 202.8,415.2 209.4,415.2 216.1,415.2 222.7,415.2 229.3,416.8 236.0,416.8 242.6,416.3 249.2,416.3 255.9,416.3 262.5,416.3 269.1,416.3 275.8,416.2 282.4,416.2 289.0,416.2 295.7,416.2 302.3,416.2 308.9,416.2 315.6,414.2 322.2,414.2 328.8,414.2 335.5,414.2 342.1,414.2 348.8,413.9 355.4,413.9 362.0,413.9 368.7,413.9 375.3,413.9 381.9,413.9 388.6,413.9 395.2,413.9 401.8,413.9 408.5,413.9 415.1,413.9 421.7,413.9 428.4,413.9 435.0,413.9 441.6,413.9 448.3,413.9 454.9,413.9 461.5,413.9 468.2,413.8 474.8,413.8 481.4,413.8 488.1,413.8 494.7,413.8 501.3,413.8 508.0,413.8 514.6,413.8 521.2,413.8 527.9,413.8 534.5,413.8 541.2,413.8 547.8,413.8 554.4,413.8 561.1,413.8 567.7,413.8 574.3,413.8 581.0,413.8 587.6,413.8 594.2,413.8 600.9,413.8 607.5,413.8 614.1,413.8 620.8,413.8 627.4,413.8 634.0,413.8 640.7,413.8 647.3,413.8 653.9,413.8 660.6,413.8 667.2,413.8 673.8,413.8 680.5,413.8 687.1,413.8 693.8,413.8 700.4,413.8 707.0,413.8 713.7,413.8 720.3,413.8 726.9,413.8 733.6,413.8 740.2,413.8 746.8,413.8 753.5,413.8 760.1,413.8 766.7,413.8 773.4,413.6 780.0,413.4 780.0,416.7 773.4,417.3 766.7,417.9 760.1,417.9 753.5,417.9 746.8,417.9 740.2,417.9 733.6,417.9 726.9,417.9 720.3,417.9 713.7,417.9 707.0,417.9 700.4,417.9 693.8,417.9 687.1,417.9 680.5,417.9 673.8,417.9 667.2,417.9 660.6,417.9 653.9,417.9 647.3,417.9 640.7,417.9 634.0,417.9 627.4,417.9 620.8,417.9 614.1,417.9 607.5,417.9 600.9,417.9 594.2,417.9 587.6,417.9 581.0,417.9 574.3,417.9 567.7,417.9 561.1,417.9 554.4,418.0 547.8,418.0 541.2,418.0 534.5,418.0 527.9,418.0 521.2,418.0 514.6,418.0 508.0,418.0 501.3,418.0 494.7,418.1 488.1,418.1 481.4,418.1 474.8,418.1 468.2,418.1 461.5,418.1 454.9,418.1 448.3,418.1 441.6,418.1 435.0,418.1 428.4,418.1 421.7,418.1 415.1,418.1 408.5,418.1 401.8,418.1 395.2,418.1 388.6,418.1 381.9,418.1 375.3,418.2 368.7,418.2 362.0,418.2 355.4,418.3 348.8,418.3 342.1,418.8 335.5,418.8 328.8,418.8 322.2,418.9 315.6,418.9 308.9,422.9 302.3,422.9 295.7,422.9 289.0,422.9 282.4,423.0 275.8,423.0 269.1,423.2 262.5,423.2 255.9,423.3 249.2,423.3 242.6,423.3 236.0,424.2 229.3,424.3 222.7,421.0 216.1,421.0 209.4,421.0 202.8,421.0 196.2,421.0 189.5,421.1 182.9,421.1 176.2,425.2 169.6,425.3 163.0,425.3 156.3,427.8 149.7,428.1 143.1,428.3 136.4,650.0 129.8,650.0 123.2,650.0 116.5,650.0 109.9,650.0 103.3,650.0 96.6,650.0 90.0,650.0" fill="#6E4C13" opacity="0.6" class="anim" style="animation-delay:1100ms;"/>
<polygon points="90.0,650.0 96.6,650.0 103.3,650.0 109.9,650.0 116.5,650.0 123.2,650.0 129.8,650.0 136.4,650.0 143.1,414.4 149.7,414.4 156.3,414.3 163.0,413.7 169.6,413.7 176.2,413.7 182.9,412.7 189.5,412.7 196.2,412.7 202.8,412.7 209.4,412.7 216.1,412.7 222.7,412.7 229.3,413.5 236.0,413.4 242.6,413.2 249.2,413.2 255.9,413.2 262.5,413.2 269.1,413.2 275.8,413.1 282.4,413.1 289.0,413.1 295.7,413.1 302.3,413.1 308.9,413.1 315.6,412.2 322.2,412.1 328.8,412.1 335.5,412.1 342.1,412.1 348.8,412.0 355.4,412.0 362.0,412.0 368.7,412.0 375.3,412.0 381.9,412.0 388.6,412.0 395.2,412.0 401.8,412.0 408.5,412.0 415.1,412.0 421.7,412.0 428.4,412.0 435.0,412.0 441.6,412.0 448.3,412.0 454.9,412.0 461.5,412.0 468.2,411.9 474.8,411.9 481.4,411.9 488.1,411.9 494.7,411.9 501.3,411.9 508.0,411.9 514.6,411.9 521.2,411.9 527.9,411.9 534.5,411.9 541.2,411.9 547.8,411.9 554.4,411.9 561.1,411.9 567.7,411.9 574.3,411.9 581.0,411.9 587.6,411.9 594.2,411.9 600.9,411.9 607.5,411.9 614.1,411.9 620.8,411.9 627.4,411.9 634.0,411.9 640.7,411.9 647.3,411.9 653.9,411.9 660.6,411.9 667.2,411.9 673.8,411.9 680.5,411.9 687.1,411.9 693.8,411.9 700.4,411.9 707.0,411.9 713.7,411.9 720.3,411.9 726.9,411.9 733.6,411.9 740.2,411.9 746.8,411.9 753.5,411.9 760.1,411.9 766.7,411.9 773.4,411.9 780.0,411.9 780.0,413.4 773.4,413.6 766.7,413.8 760.1,413.8 753.5,413.8 746.8,413.8 740.2,413.8 733.6,413.8 726.9,413.8 720.3,413.8 713.7,413.8 707.0,413.8 700.4,413.8 693.8,413.8 687.1,413.8 680.5,413.8 673.8,413.8 667.2,413.8 660.6,413.8 653.9,413.8 647.3,413.8 640.7,413.8 634.0,413.8 627.4,413.8 620.8,413.8 614.1,413.8 607.5,413.8 600.9,413.8 594.2,413.8 587.6,413.8 581.0,413.8 574.3,413.8 567.7,413.8 561.1,413.8 554.4,413.8 547.8,413.8 541.2,413.8 534.5,413.8 527.9,413.8 521.2,413.8 514.6,413.8 508.0,413.8 501.3,413.8 494.7,413.8 488.1,413.8 481.4,413.8 474.8,413.8 468.2,413.8 461.5,413.9 454.9,413.9 448.3,413.9 441.6,413.9 435.0,413.9 428.4,413.9 421.7,413.9 415.1,413.9 408.5,413.9 401.8,413.9 395.2,413.9 388.6,413.9 381.9,413.9 375.3,413.9 368.7,413.9 362.0,413.9 355.4,413.9 348.8,413.9 342.1,414.2 335.5,414.2 328.8,414.2 322.2,414.2 315.6,414.2 308.9,416.2 302.3,416.2 295.7,416.2 289.0,416.2 282.4,416.2 275.8,416.2 269.1,416.3 262.5,416.3 255.9,416.3 249.2,416.3 242.6,416.3 236.0,416.8 229.3,416.8 222.7,415.2 216.1,415.2 209.4,415.2 202.8,415.2 196.2,415.2 189.5,415.3 182.9,415.3 176.2,417.2 169.6,417.3 163.0,417.3 156.3,418.5 149.7,418.6 143.1,418.7 136.4,650.0 129.8,650.0 123.2,650.0 116.5,650.0 109.9,650.0 103.3,650.0 96.6,650.0 90.0,650.0" fill="#b07219" opacity="0.6" class="anim" style="animation-delay:1200ms;"/>
<line x1="766.7" y1="100" x2="766.7" y2="650" stroke="#c9d1d9" stroke-width="1" stroke-dasharray="4,3" opacity="0.35"/>
<text x="773.4" y="112" text-anchor="middle" class="axis-label" opacity="0.6">Aug 06, 2026</text>
<text x="90.0" y="668" text-anchor="middle" class="axis-label" transform="rotate(-35 90.0 668)">2026-02</text>
<text x="308.9" y="668" text-anchor="middle" class="axis-label" transform="rotate(-35 308.9 668)">2026-03</text>
<text x="454.9" y="668" text-anchor="middle" class="axis-label" transform="rotate(-35 454.9 668)">2026-04</text>
<text x="527.9" y="668" text-anchor="middle" class="axis-label" transform="rotate(-35 527.9 668)">2026-06</text>
<text x="673.8" y="668" text-anchor="middle" class="axis-label" transform="rotate(-35 673.8 668)">2026-07</text>
<text x="773.4" y="668" text-anchor="middle" class="axis-label" transform="rotate(-35 773.4 668)">Aug 06, 2026</text>
<line x1="796" y1="110" x2="824" y2="110" stroke="#3fb950" stroke-width="2"/>
<text x="832" y="116" class="legend-text">Lines Added</text>
<line x1="796" y1="140" x2="824" y2="140" stroke="#f85149" stroke-width="1.5"/>
<text x="832" y="146" class="legend-text">Lines Deleted</text>
<line x1="796" y1="170" x2="824" y2="170" stroke="#e3b341" stroke-width="1.5" stroke-dasharray="4,3"/>
<text x="832" y="176" class="legend-text">&#x2605; Stars</text>
<text x="796" y="200" class="subtitle">Languages</text>
<rect x="796" y="212" width="12" height="12" rx="2" fill="#e34c26" opacity="0.8" class="anim" style="animation-delay:800ms;"/>
<text x="814" y="223" class="legend-text">HTML (58%→56%)</text>
<rect x="796" y="234" width="12" height="12" rx="2" fill="#f1e05a" opacity="0.8" class="anim" style="animation-delay:880ms;"/>
<text x="814" y="245" class="legend-text">JavaScript (22%→25%)</text>
<rect x="796" y="256" width="12" height="12" rx="2" fill="#3572A5" opacity="0.8" class="anim" style="animation-delay:960ms;"/>
<text x="814" y="267" class="legend-text">Python (7%→6%)</text>
<rect x="796" y="278" width="12" height="12" rx="2" fill="#663399" opacity="0.8" class="anim" style="animation-delay:1040ms;"/>
<text x="814" y="289" class="legend-text">CSS (6%→6%)</text>
<rect x="796" y="300" width="12" height="12" rx="2" fill="#083fa1" opacity="0.8" class="anim" style="animation-delay:1120ms;"/>
<text x="814" y="311" class="legend-text">Markdown (2%→2%)</text>
<rect x="796" y="322" width="12" height="12" rx="2" fill="#F05138" opacity="0.8" class="anim" style="animation-delay:1200ms;"/>
<text x="814" y="333" class="legend-text">Swift (2%)</text>
<rect x="796" y="344" width="12" height="12" rx="2" fill="#6E4C13" opacity="0.8" class="anim" style="animation-delay:1280ms;"/>
<text x="814" y="355" class="legend-text">Assembly (2%→1%)</text>
<rect x="796" y="366" width="12" height="12" rx="2" fill="#b07219" opacity="0.8" class="anim" style="animation-delay:1360ms;"/>
<text x="814" y="377" class="legend-text">Java (1%→1%)</text>
<text x="796" y="412" class="subtitle">Contributions</text>
<text x="796" y="432" class="axis-label">2023: 39</text>
<text x="796" y="452" class="axis-label">2024: 646</text>
<text x="796" y="472" class="axis-label">2025: 1,780</text>
<text x="796" y="492" class="axis-label">2026: 491</text>
<text x="796" y="522" class="subtitle">Statistics</text>
<text x="796" y="542" class="axis-label">Active weeks: 88</text>
<text x="796" y="562" class="axis-label">Add/Del ratio: 1.8x</text>
<text x="796" y="582" class="axis-label">Avg lines/wk: 18K</text>
<text x="796" y="602" class="axis-label">Peak: 2026-02-15</text>
<text x="796" y="622" class="axis-label">  (543K lines)</text>
<text x="90" y="742" class="axis-label">Total: +1,040,332 / -576,819 lines &#xb7; 2,956 contributions &#xb7; 80 repos &#xb7; &#x2605; 37</text>
</svg>