<svg xmlns="http://www.w3.org/2000/svg" width="1000" height="760" style="max-width: 100%;" viewBox="0 0 1000 760">

<defs>
  <linearGradient id="areaGrad" x1="0" y1="0" x2="0" y2="1">
    <stop offset="0%" stop-color="#58a6ff" stop-opacity="0.35"/>
    <stop offset="100%" stop-color="#58a6ff" stop-opacity="0.02"/>
  </linearGradient>
  <linearGradient id="addGrad" x1="0" y1="0" x2="0" y2="1">
    <stop offset="0%" stop-color="#3fb950" stop-opacity="0.35"/>
    <stop offset="100%" stop-color="#3fb950" stop-opacity="0.02"/>
  </linearGradient>
  <linearGradient id="delGrad" x1="0" y1="0" x2="0" y2="1">
    <stop offset="0%" stop-color="#f85149" stop-opacity="0.25"/>
    <stop offset="100%" stop-color="#f85149" stop-opacity="0.02"/>
  </linearGradient>
</defs>
<style>
  .title { font: bold 28px 'Segoe UI', Ubuntu, Sans-Serif; fill: #c9d1d9; }
  .subtitle { font: 600 20px 'Segoe UI', Ubuntu, Sans-Serif; fill: #c9d1d9; opacity: 0.8; }
  .axis-label { font: 18px 'Segoe UI', Ubuntu, Sans-Serif; fill: #c9d1d9; opacity: 0.7; }
  .legend-text { font: 14px 'Segoe UI', Ubuntu, Sans-Serif; fill: #c9d1d9; }
  .value-text { font: bold 18px 'Segoe UI', Ubuntu, Sans-Serif; fill: #c9d1d9; }
  .stat-value { font: bold 22px 'Segoe UI', Ubuntu, Sans-Serif; fill: #c9d1d9; }
  .stat-label { font: 18px 'Segoe UI', Ubuntu, Sans-Serif; fill: #c9d1d9; opacity: 0.7; }
  @keyframes fadeIn { from { opacity: 0; } to { opacity: 1; } }
  .anim { animation: fadeIn 0.6s ease-in-out forwards; opacity: 0; }
</style>

<rect x="0.5" y="0.5" rx="4.5" width="999" height="759" fill="#161b22" stroke="#21262d"/>
<text x="90" y="45" class="title">Activity History</text>
<text x="90" y="72" class="subtitle">Lines added vs deleted &amp; activity trends over time</text>
<line x1="90" y1="340.0" x2="780" y2="340.0" stroke="#21262d" stroke-width="1"/>
<text x="82" y="344.0" text-anchor="end" class="axis-label">0</text>
<line x1="90" y1="280.0" x2="780" y2="280.0" stroke="#21262d" stroke-width="1"/>
<text x="82" y="284.0" text-anchor="end" class="axis-label">453K</text>
<line x1="90" y1="220.0" x2="780" y2="220.0" stroke="#21262d" stroke-width="1"/>
<text x="82" y="224.0" text-anchor="end" class="axis-label">906K</text>
<line x1="90" y1="160.0" x2="780" y2="160.0" stroke="#21262d" stroke-width="1"/>
<text x="82" y="164.0" text-anchor="end" class="axis-label">1.4M</text>
<line x1="90" y1="100.0" x2="780" y2="100.0" stroke="#21262d" stroke-width="1"/>
<text x="82" y="104.0" text-anchor="end" class="axis-label">1.8M</text>
<polygon points="90.0,340.0 90.0,291.7 98.2,293.4 106.4,291.7 114.6,293.4 122.9,304.6 131.1,282.4 139.3,282.4 147.5,274.1 155.7,273.7 163.9,273.2 172.1,273.2 180.4,258.3 188.6,258.3 196.8,258.2 205.0,236.2 213.2,235.9 221.4,235.6 229.6,235.6 237.9,235.6 246.1,235.6 254.3,235.6 262.5,235.1 270.7,220.3 278.9,220.3 287.1,220.3 295.4,220.3 303.6,219.9 311.8,219.9 320.0,219.3 328.2,219.3 336.4,219.2 344.6,219.2 352.9,219.2 361.1,219.2 369.3,219.3 377.5,219.2 385.7,219.2 393.9,219.2 402.1,219.2 410.4,219.2 418.6,219.2 426.8,218.6 435.0,218.9 443.2,218.2 451.4,217.9 459.6,217.9 467.9,217.9 476.1,217.9 484.3,217.9 492.5,217.9 500.7,217.8 508.9,217.8 517.1,217.8 525.4,217.9 533.6,218.2 541.8,219.6 550.0,218.2 558.2,216.9 566.4,216.8 574.6,216.8 582.9,216.8 591.1,216.8 599.3,209.3 607.5,202.4 615.7,202.4 623.9,202.4 632.1,202.4 640.4,202.4 648.6,202.4 656.8,202.4 665.0,202.4 673.2,202.2 681.4,202.2 689.6,202.2 697.9,202.2 706.1,202.2 714.3,202.2 722.5,202.2 730.7,202.2 738.9,202.2 747.1,202.2 755.4,202.2 763.6,202.2 771.8,194.9 780.0,187.5 780.0,340.0" fill="url(#addGrad)" class="anim" style="animation-delay:200ms;"/>
<polyline points="90.0,291.7 98.2,293.4 106.4,291.7 114.6,293.4 122.9,304.6 131.1,282.4 139.3,282.4 147.5,274.1 155.7,273.7 163.9,273.2 172.1,273.2 180.4,258.3 188.6,258.3 196.8,258.2 205.0,236.2 213.2,235.9 221.4,235.6 229.6,235.6 237.9,235.6 246.1,235.6 254.3,235.6 262.5,235.1 270.7,220.3 278.9,220.3 287.1,220.3 295.4,220.3 303.6,219.9 311.8,219.9 320.0,219.3 328.2,219.3 336.4,219.2 344.6,219.2 352.9,219.2 361.1,219.2 369.3,219.3 377.5,219.2 385.7,219.2 393.9,219.2 402.1,219.2 410.4,219.2 418.6,219.2 426.8,218.6 435.0,218.9 443.2,218.2 451.4,217.9 459.6,217.9 467.9,217.9 476.1,217.9 484.3,217.9 492.5,217.9 500.7,217.8 508.9,217.8 517.1,217.8 525.4,217.9 533.6,218.2 541.8,219.6 550.0,218.2 558.2,216.9 566.4,216.8 574.6,216.8 582.9,216.8 591.1,216.8 599.3,209.3 607.5,202.4 615.7,202.4 623.9,202.4 632.1,202.4 640.4,202.4 648.6,202.4 656.8,202.4 665.0,202.4 673.2,202.2 681.4,202.2 689.6,202.2 697.9,202.2 706.1,202.2 714.3,202.2 722.5,202.2 730.7,202.2 738.9,202.2 747.1,202.2 755.4,202.2 763.6,202.2" fill="none" stroke="#3fb950" stroke-width="2" stroke-linejoin="round" class="anim" style="animation-delay:250ms;"/>
<polyline points="763.6,202.2 771.8,194.9 780.0,187.5" fill="none" stroke="#3fb950" stroke-width="1.5" stroke-dasharray="5,4" stroke-linejoin="round" opacity="0.6" class="anim" style="animation-delay:250ms;"/>
<polygon points="90.0,340.0 90.0,326.4 98.2,327.8 106.4,326.4 114.6,327.8 122.9,333.6 131.1,324.8 139.3,324.7 147.5,323.8 155.7,323.4 163.9,323.2 172.1,323.1 180.4,307.1 188.6,307.1 196.8,307.1 205.0,288.9 213.2,288.8 221.4,288.8 229.6,288.8 237.9,288.8 246.1,288.8 254.3,288.8 262.5,279.3 270.7,264.8 278.9,264.8 287.1,264.8 295.4,264.8 303.6,264.7 311.8,264.7 320.0,264.6 328.2,264.6 336.4,264.6 344.6,264.6 352.9,264.6 361.1,264.6 369.3,264.6 377.5,264.6 385.7,264.6 393.9,264.6 402.1,264.6 410.4,264.6 418.6,264.6 426.8,264.6 435.0,264.6 443.2,264.2 451.4,264.2 459.6,264.2 467.9,264.2 476.1,264.2 484.3,264.2 492.5,264.2 500.7,264.2 508.9,264.2 517.1,264.2 525.4,264.2 533.6,264.3 541.8,265.1 550.0,264.5 558.2,263.7 566.4,263.7 574.6,263.7 582.9,263.7 591.1,263.7 599.3,263.6 607.5,263.6 615.7,263.6 623.9,263.6 632.1,263.6 640.4,263.6 648.6,263.6 656.8,263.6 665.0,263.6 673.2,263.6 681.4,263.6 689.6,263.6 697.9,263.6 706.1,263.6 714.3,263.6 722.5,263.6 730.7,263.6 738.9,263.6 747.1,263.6 755.4,263.6 763.6,263.6 771.8,258.1 780.0,252.5 780.0,340.0" fill="url(#delGrad)" class="anim" style="animation-delay:300ms;"/>
<polyline points="90.0,326.4 98.2,327.8 106.4,326.4 114.6,327.8 122.9,333.6 131.1,324.8 139.3,324.7 147.5,323.8 155.7,323.4 163.9,323.2 172.1,323.1 180.4,307.1 188.6,307.1 196.8,307.1 205.0,288.9 213.2,288.8 221.4,288.8 229.6,288.8 237.9,288.8 246.1,288.8 254.3,288.8 262.5,279.3 270.7,264.8 278.9,264.8 287.1,264.8 295.4,264.8 303.6,264.7 311.8,264.7 320.0,264.6 328.2,264.6 336.4,264.6 344.6,264.6 352.9,264.6 361.1,264.6 369.3,264.6 377.5,264.6 385.7,264.6 393.9,264.6 402.1,264.6 410.4,264.6 418.6,264.6 426.8,264.6 435.0,264.6 443.2,264.2 451.4,264.2 459.6,264.2 467.9,264.2 476.1,264.2 484.3,264.2 492.5,264.2 500.7,264.2 508.9,264.2 517.1,264.2 525.4,264.2 533.6,264.3 541.8,265.1 550.0,264.5 558.2,263.7 566.4,263.7 574.6,263.7 582.9,263.7 591.1,263.7 599.3,263.6 607.5,263.6 615.7,263.6 623.9,263.6 632.1,263.6 640.4,263.6 648.6,263.6 656.8,263.6 665.0,263.6 673.2,263.6 681.4,263.6 689.6,263.6 697.9,263.6 706.1,263.6 714.3,263.6 722.5,263.6 730.7,263.6 738.9,263.6 747.1,263.6 755.4,263.6 763.6,263.6" fill="none" stroke="#f85149" stroke-width="1.5" stroke-linejoin="round" class="anim" style="animation-delay:350ms;"/>
<polyline points="763.6,263.6 771.8,258.1 780.0,252.5" fill="none" stroke="#f85149" stroke-width="1" stroke-dasharray="5,4" stroke-linejoin="round" opacity="0.6" class="anim" style="animation-delay:350ms;"/>
<polyline points="90.0,340.0 98.2,340.0 106.4,340.0 114.6,340.0 122.9,340.0 131.1,340.0 139.3,340.0 147.5,340.0 155.7,308.0 163.9,308.0 172.1,308.0 180.4,308.0 188.6,308.0 196.8,308.0 205.0,308.0 213.2,308.0 221.4,308.0 229.6,308.0 237.9,308.0 246.1,308.0 254.3,308.0 262.5,308.0 270.7,308.0 278.9,308.0 287.1,308.0 295.4,308.0 303.6,308.0 311.8,308.0 320.0,308.0 328.2,308.0 336.4,308.0 344.6,308.0 352.9,308.0 361.1,308.0 369.3,276.0 377.5,276.0 385.7,276.0 393.9,276.0 402.1,276.0 410.4,276.0 418.6,276.0 426.8,276.0 435.0,244.0 443.2,244.0 451.4,244.0 459.6,244.0 467.9,244.0 476.1,244.0 484.3,244.0 492.5,244.0 500.7,244.0 508.9,244.0 517.1,244.0 525.4,244.0 533.6,244.0 541.8,244.0 550.0,244.0 558.2,244.0 566.4,180.0 574.6,180.0 582.9,180.0 591.1,180.0 599.3,180.0 607.5,180.0 615.7,180.0 623.9,180.0 632.1,180.0 640.4,180.0 648.6,180.0 656.8,180.0 665.0,180.0 673.2,180.0 681.4,180.0 689.6,180.0 697.9,180.0 706.1,180.0 714.3,180.0 722.5,180.0 730.7,180.0 738.9,180.0 747.1,180.0 755.4,180.0 763.6,180.0" fill="none" stroke="#e3b341" stroke-width="1.5" stroke-dasharray="4,3" stroke-linejoin="round" class="anim" style="animation-delay:400ms;"/>
<polyline points="763.6,180.0 771.8,180.0 780.0,148.0" fill="none" stroke="#e3b341" stroke-width="1" stroke-dasharray="3,5" stroke-linejoin="round" opacity="0.5" class="anim" style="animation-delay:400ms;"/>
<text x="90" y="90" class="subtitle">Lines Added vs Deleted (per snapshot)</text>
<text x="90" y="400" class="subtitle">Programming Language Development (%)</text>
<line x1="90" y1="650.0" x2="780" y2="650.0" stroke="#21262d" stroke-width="1"/>
<text x="82" y="654.0" text-anchor="end" class="axis-label">0%</text>
<line x1="90" y1="590.0" x2="780" y2="590.0" stroke="#21262d" stroke-width="1"/>
<text x="82" y="594.0" text-anchor="end" class="axis-label">25%</text>
<line x1="90" y1="530.0" x2="780" y2="530.0" stroke="#21262d" stroke-width="1"/>
<text x="82" y="534.0" text-anchor="end" class="axis-label">50%</text>
<line x1="90" y1="470.0" x2="780" y2="470.0" stroke="#21262d" stroke-width="1"/>
<text x="82" y="474.0" text-anchor="end" class="axis-label">75%</text>
<line x1="90" y1="410.0" x2="780" y2="410.0" stroke="#21262d" stroke-width="1"/>
<text x="82" y="414.0" text-anchor="end" class="axis-label">100%</text>
<polygon points="90.0,650.0 98.2,650.0 106.4,650.0 114.6,650.0 122.9,650.0 131.1,650.0 139.3,650.0 147.5,650.0 155.7,528.2 163.9,528.5 172.1,529.7 180.4,499.3 188.6,499.3 196.8,502.9 205.0,485.0 213.2,485.1 221.4,485.4 229.6,485.4 237.9,485.4 246.1,485.4 254.3,485.4 262.5,496.4 270.7,496.7 278.9,491.0 287.1,491.0 295.4,491.0 303.6,491.7 311.8,491.8 320.0,494.0 328.2,494.0 336.4,494.4 344.6,494.4 352.9,494.4 361.1,494.4 369.3,507.6 377.5,507.6 385.7,507.9 393.9,507.9 402.1,507.9 410.4,506.3 418.6,506.4 426.8,506.8 435.0,506.9 443.2,506.8 451.4,507.5 459.6,507.5 467.9,507.5 476.1,507.5 484.3,507.5 492.5,507.5 500.7,507.5 508.9,507.5 517.1,507.5 525.4,507.5 533.6,507.5 541.8,507.5 550.0,507.5 558.2,508.6 566.4,508.6 574.6,508.6 582.9,508.6 591.1,508.6 599.3,509.5 607.5,509.8 615.7,509.8 623.9,509.8 632.1,509.8 640.4,509.8 648.6,509.8 656.8,509.8 665.0,509.8 673.2,510.9 681.4,510.9 689.6,510.9 697.9,510.9 706.1,510.9 714.3,510.9 722.5,510.9 730.7,510.9 738.9,510.9 747.1,510.9 755.4,510.9 763.6,510.9 771.8,512.8 780.0,514.7 780.0,650.0 771.8,650.0 763.6,650.0 755.4,650.0 747.1,650.0 738.9,650.0 730.7,650.0 722.5,650.0 714.3,650.0 706.1,650.0 697.9,650.0 689.6,650.0 681.4,650.0 673.2,650.0 665.0,650.0 656.8,650.0 648.6,650.0 640.4,650.0 632.1,650.0 623.9,650.0 615.7,650.0 607.5,650.0 599.3,650.0 591.1,650.0 582.9,650.0 574.6,650.0 566.4,650.0 558.2,650.0 550.0,650.0 541.8,650.0 533.6,650.0 525.4,650.0 517.1,650.0 508.9,650.0 500.7,650.0 492.5,650.0 484.3,650.0 476.1,650.0 467.9,650.0 459.6,650.0 451.4,650.0 443.2,650.0 435.0,650.0 426.8,650.0 418.6,650.0 410.4,650.0 402.1,650.0 393.9,650.0 385.7,650.0 377.5,650.0 369.3,650.0 361.1,650.0 352.9,650.0 344.6,650.0 336.4,650.0 328.2,650.0 320.0,650.0 311.8,650.0 303.6,650.0 295.4,650.0 287.1,650.0 278.9,650.0 270.7,650.0 262.5,650.0 254.3,650.0 246.1,650.0 237.9,650.0 229.6,650.0 221.4,650.0 213.2,650.0 205.0,650.0 196.8,650.0 188.6,650.0 180.4,650.0 172.1,650.0 163.9,650.0 155.7,650.0 147.5,650.0 139.3,650.0 131.1,650.0 122.9,650.0 114.6,650.0 106.4,650.0 98.2,650.0 90.0,650.0" fill="#e34c26" opacity="0.6" class="anim" style="animation-delay:500ms;"/>
<polygon points="90.0,650.0 98.2,650.0 106.4,650.0 114.6,650.0 122.9,650.0 131.1,650.0 139.3,650.0 147.5,650.0 155.7,488.4 163.9,488.0 172.1,489.0 180.4,476.0 188.6,476.0 196.8,477.2 205.0,460.1 213.2,460.2 221.4,460.6 229.6,460.6 237.9,460.6 246.1,460.6 254.3,460.6 262.5,473.0 270.7,473.5 278.9,469.5 287.1,469.5 295.4,469.5 303.6,469.7 311.8,469.7 320.0,469.7 328.2,469.7 336.4,469.7 344.6,469.7 352.9,469.7 361.1,469.7 369.3,455.6 377.5,455.6 385.7,455.4 393.9,455.4 402.1,455.4 410.4,454.3 418.6,454.3 426.8,455.0 435.0,455.1 443.2,454.9 451.4,455.9 459.6,455.9 467.9,455.9 476.1,455.9 484.3,455.9 492.5,455.9 500.7,455.9 508.9,455.9 517.1,455.9 525.4,455.9 533.6,455.9 541.8,455.9 550.0,455.9 558.2,455.8 566.4,455.8 574.6,455.8 582.9,455.8 591.1,455.8 599.3,457.0 607.5,457.4 615.7,457.4 623.9,457.4 632.1,457.4 640.4,457.4 648.6,457.4 656.8,457.4 665.0,457.4 673.2,458.2 681.4,458.2 689.6,458.2 697.9,458.2 706.1,458.2 714.3,458.2 722.5,458.2 730.7,458.2 738.9,458.2 747.1,458.2 755.4,458.2 763.6,458.2 771.8,456.4 780.0,454.6 780.0,514.7 771.8,512.8 763.6,510.9 755.4,510.9 747.1,510.9 738.9,510.9 730.7,510.9 722.5,510.9 714.3,510.9 706.1,510.9 697.9,510.9 689.6,510.9 681.4,510.9 673.2,510.9 665.0,509.8 656.8,509.8 648.6,509.8 640.4,509.8 632.1,509.8 623.9,509.8 615.7,509.8 607.5,509.8 599.3,509.5 591.1,508.6 582.9,508.6 574.6,508.6 566.4,508.6 558.2,508.6 550.0,507.5 541.8,507.5 533.6,507.5 525.4,507.5 517.1,507.5 508.9,507.5 500.7,507.5 492.5,507.5 484.3,507.5 476.1,507.5 467.9,507.5 459.6,507.5 451.4,507.5 443.2,506.8 435.0,506.9 426.8,506.8 418.6,506.4 410.4,506.3 402.1,507.9 393.9,507.9 385.7,507.9 377.5,507.6 369.3,507.6 361.1,494.4 352.9,494.4 344.6,494.4 336.4,494.4 328.2,494.0 320.0,494.0 311.8,491.8 303.6,491.7 295.4,491.0 287.1,491.0 278.9,491.0 270.7,496.7 262.5,496.4 254.3,485.4 246.1,485.4 237.9,485.4 229.6,485.4 221.4,485.4 213.2,485.1 205.0,485.0 196.8,502.9 188.6,499.3 180.4,499.3 172.1,529.7 163.9,528.5 155.7,528.2 147.5,650.0 139.3,650.0 131.1,650.0 122.9,650.0 114.6,650.0 106.4,650.0 98.2,650.0 90.0,650.0" fill="#f1e05a" opacity="0.6" class="anim" style="animation-delay:600ms;"/>
<polygon points="90.0,650.0 98.2,650.0 106.4,650.0 114.6,650.0 122.9,650.0 131.1,650.0 139.3,650.0 147.5,650.0 155.7,455.5 163.9,455.4 172.1,455.1 180.4,447.0 188.6,447.0 196.8,448.2 205.0,438.9 213.2,439.0 221.4,439.6 229.6,439.6 237.9,439.6 246.1,439.6 254.3,439.6 262.5,445.6 270.7,445.6 278.9,443.3 287.1,443.3 295.4,443.3 303.6,443.6 311.8,443.6 320.0,444.1 328.2,444.1 336.4,444.1 344.6,444.1 352.9,444.1 361.1,444.1 369.3,437.5 377.5,437.5 385.7,437.5 393.9,437.5 402.1,437.5 410.4,437.5 418.6,437.5 426.8,438.4 435.0,438.5 443.2,438.3 451.4,439.3 459.6,439.3 467.9,439.3 476.1,439.3 484.3,439.3 492.5,439.3 500.7,439.3 508.9,439.3 517.1,439.3 525.4,439.3 533.6,439.3 541.8,439.3 550.0,439.3 558.2,439.4 566.4,439.4 574.6,439.4 582.9,439.4 591.1,439.4 599.3,440.7 607.5,441.1 615.7,441.1 623.9,441.1 632.1,441.1 640.4,441.1 648.6,441.1 656.8,441.1 665.0,441.1 673.2,442.0 681.4,442.0 689.6,442.0 697.9,442.0 706.1,442.0 714.3,442.0 722.5,442.0 730.7,442.0 738.9,442.0 747.1,442.0 755.4,442.0 763.6,442.0 771.8,441.7 780.0,441.4 780.0,454.6 771.8,456.4 763.6,458.2 755.4,458.2 747.1,458.2 738.9,458.2 730.7,458.2 722.5,458.2 714.3,458.2 706.1,458.2 697.9,458.2 689.6,458.2 681.4,458.2 673.2,458.2 665.0,457.4 656.8,457.4 648.6,457.4 640.4,457.4 632.1,457.4 623.9,457.4 615.7,457.4 607.5,457.4 599.3,457.0 591.1,455.8 582.9,455.8 574.6,455.8 566.4,455.8 558.2,455.8 550.0,455.9 541.8,455.9 533.6,455.9 525.4,455.9 517.1,455.9 508.9,455.9 500.7,455.9 492.5,455.9 484.3,455.9 476.1,455.9 467.9,455.9 459.6,455.9 451.4,455.9 443.2,454.9 435.0,455.1 426.8,455.0 418.6,454.3 410.4,454.3 402.1,455.4 393.9,455.4 385.7,455.4 377.5,455.6 369.3,455.6 361.1,469.7 352.9,469.7 344.6,469.7 336.4,469.7 328.2,469.7 320.0,469.7 311.8,469.7 303.6,469.7 295.4,469.5 287.1,469.5 278.9,469.5 270.7,473.5 262.5,473.0 254.3,460.6 246.1,460.6 237.9,460.6 229.6,460.6 221.4,460.6 213.2,460.2 205.0,460.1 196.8,477.2 188.6,476.0 180.4,476.0 172.1,489.0 163.9,488.0 155.7,488.4 147.5,650.0 139.3,650.0 131.1,650.0 122.9,650.0 114.6,650.0 106.4,650.0 98.2,650.0 90.0,650.0" fill="#3572A5" opacity="0.6" class="anim" style="animation-delay:700ms;"/>
<polygon points="90.0,650.0 98.2,650.0 106.4,650.0 114.6,650.0 122.9,650.0 131.1,650.0 139.3,650.0 147.5,650.0 155.7,442.3 163.9,442.0 172.1,441.6 180.4,439.5 188.6,439.5 196.8,439.4 205.0,432.3 213.2,432.2 221.4,432.6 229.6,432.6 237.9,432.6 246.1,432.6 254.3,432.6 262.5,439.3 270.7,439.3 278.9,437.4 287.1,437.4 295.4,437.4 303.6,437.3 311.8,437.3 320.0,437.1 328.2,437.1 336.4,437.1 344.6,437.1 352.9,437.1 361.1,437.1 369.3,428.7 377.5,428.6 385.7,428.5 393.9,428.5 402.1,428.5 410.4,427.3 418.6,427.3 426.8,427.1 435.0,427.1 443.2,427.1 451.4,427.0 459.6,427.0 467.9,427.0 476.1,427.0 484.3,427.0 492.5,427.0 500.7,427.0 508.9,427.0 517.1,427.0 525.4,427.0 533.6,427.0 541.8,427.0 550.0,427.0 558.2,427.0 566.4,427.1 574.6,427.1 582.9,427.1 591.1,427.1 599.3,428.4 607.5,428.9 615.7,428.9 623.9,428.9 632.1,428.9 640.4,428.9 648.6,428.9 656.8,428.9 665.0,428.9 673.2,428.7 681.4,428.7 689.6,428.7 697.9,428.7 706.1,428.7 714.3,428.7 722.5,428.7 730.7,428.7 738.9,428.7 747.1,428.7 755.4,428.7 763.6,428.7 771.8,427.7 780.0,426.6 780.0,441.4 771.8,441.7 763.6,442.0 755.4,442.0 747.1,442.0 738.9,442.0 730.7,442.0 722.5,442.0 714.3,442.0 706.1,442.0 697.9,442.0 689.6,442.0 681.4,442.0 673.2,442.0 665.0,441.1 656.8,441.1 648.6,441.1 640.4,441.1 632.1,441.1 623.9,441.1 615.7,441.1 607.5,441.1 599.3,440.7 591.1,439.4 582.9,439.4 574.6,439.4 566.4,439.4 558.2,439.4 550.0,439.3 541.8,439.3 533.6,439.3 525.4,439.3 517.1,439.3 508.9,439.3 500.7,439.3 492.5,439.3 484.3,439.3 476.1,439.3 467.9,439.3 459.6,439.3 451.4,439.3 443.2,438.3 435.0,438.5 426.8,438.4 418.6,437.5 410.4,437.5 402.1,437.5 393.9,437.5 385.7,437.5 377.5,437.5 369.3,437.5 361.1,444.1 352.9,444.1 344.6,444.1 336.4,444.1 328.2,444.1 320.0,444.1 311.8,443.6 303.6,443.6 295.4,443.3 287.1,443.3 278.9,443.3 270.7,445.6 262.5,445.6 254.3,439.6 246.1,439.6 237.9,439.6 229.6,439.6 221.4,439.6 213.2,439.0 205.0,438.9 196.8,448.2 188.6,447.0 180.4,447.0 172.1,455.1 163.9,455.4 155.7,455.5 147.5,650.0 139.3,650.0 131.1,650.0 122.9,650.0 114.6,650.0 106.4,650.0 98.2,650.0 90.0,650.0" fill="#663399" opacity="0.6" class="anim" style="animation-delay:800ms;"/>
<polygon points="90.0,650.0 98.2,650.0 106.4,650.0 114.6,650.0 122.9,650.0 131.1,650.0 139.3,650.0 147.5,650.0 155.7,436.6 163.9,436.3 172.1,435.9 180.4,432.2 188.6,432.2 196.8,432.2 205.0,426.2 213.2,426.1 221.4,426.0 229.6,426.0 237.9,426.0 246.1,426.0 254.3,426.0 262.5,430.8 270.7,430.7 278.9,429.3 287.1,429.3 295.4,429.3 303.6,429.2 311.8,429.2 320.0,428.9 328.2,428.9 336.4,428.8 344.6,428.8 352.9,428.8 361.1,428.8 369.3,423.0 377.5,422.9 385.7,422.9 393.9,422.9 402.1,422.9 410.4,422.0 418.6,422.0 426.8,421.9 435.0,421.9 443.2,421.9 451.4,421.8 459.6,421.8 467.9,421.8 476.1,421.8 484.3,421.8 492.5,421.8 500.7,421.8 508.9,421.8 517.1,421.8 525.4,421.8 533.6,421.8 541.8,421.8 550.0,421.8 558.2,421.7 566.4,421.8 574.6,421.8 582.9,421.8 591.1,421.8 599.3,423.2 607.5,423.6 615.7,423.6 623.9,423.6 632.1,423.6 640.4,423.6 648.6,423.6 656.8,423.6 665.0,423.6 673.2,423.5 681.4,423.5 689.6,423.5 697.9,423.5 706.1,423.5 714.3,423.5 722.5,423.5 730.7,423.5 738.9,423.5 747.1,423.5 755.4,423.5 763.6,423.5 771.8,422.8 780.0,422.0 780.0,426.6 771.8,427.7 763.6,428.7 755.4,428.7 747.1,428.7 738.9,428.7 730.7,428.7 722.5,428.7 714.3,428.7 706.1,428.7 697.9,428.7 689.6,428.7 681.4,428.7 673.2,428.7 665.0,428.9 656.8,428.9 648.6,428.9 640.4,428.9 632.1,428.9 623.9,428.9 615.7,428.9 607.5,428.9 599.3,428.4 591.1,427.1 582.9,427.1 574.6,427.1 566.4,427.1 558.2,427.0 550.0,427.0 541.8,427.0 533.6,427.0 525.4,427.0 517.1,427.0 508.9,427.0 500.7,427.0 492.5,427.0 484.3,427.0 476.1,427.0 467.9,427.0 459.6,427.0 451.4,427.0 443.2,427.1 435.0,427.1 426.8,427.1 418.6,427.3 410.4,427.3 402.1,428.5 393.9,428.5 385.7,428.5 377.5,428.6 369.3,428.7 361.1,437.1 352.9,437.1 344.6,437.1 336.4,437.1 328.2,437.1 320.0,437.1 311.8,437.3 303.6,437.3 295.4,437.4 287.1,437.4 278.9,437.4 270.7,439.3 262.5,439.3 254.3,432.6 246.1,432.6 237.9,432.6 229.6,432.6 221.4,432.6 213.2,432.2 205.0,432.3 196.8,439.4 188.6,439.5 180.4,439.5 172.1,441.6 163.9,442.0 155.7,442.3 147.5,650.0 139.3,650.0 131.1,650.0 122.9,650.0 114.6,650.0 106.4,650.0 98.2,650.0 90.0,650.0" fill="#083fa1" opacity="0.6" class="anim" style="animation-delay:900ms;"/>
<polygon points="90.0,650.0 98.2,650.0 106.4,650.0 114.6,650.0 122.9,650.0 131.1,650.0 139.3,650.0 147.5,650.0 155.7,428.3 163.9,428.1 172.1,427.8 180.4,425.3 188.6,425.3 196.8,425.2 205.0,421.1 213.2,421.1 221.4,421.0 229.6,421.0 237.9,421.0 246.1,421.0 254.3,421.0 262.5,424.3 270.7,424.2 278.9,423.3 287.1,423.3 295.4,423.3 303.6,423.2 311.8,423.2 320.0,423.0 328.2,423.0 336.4,422.9 344.6,422.9 352.9,422.9 361.1,422.9 369.3,418.9 377.5,418.9 385.7,418.8 393.9,418.8 402.1,418.8 410.4,418.3 418.6,418.3 426.8,418.2 435.0,418.2 443.2,418.2 451.4,418.1 459.6,418.1 467.9,418.1 476.1,418.1 484.3,418.1 492.5,418.1 500.7,418.1 508.9,418.1 517.1,418.1 525.4,418.1 533.6,418.1 541.8,418.1 550.0,418.1 558.2,418.1 566.4,418.1 574.6,418.1 582.9,418.1 591.1,418.1 599.3,418.0 607.5,418.0 615.7,418.0 623.9,418.0 632.1,418.0 640.4,418.0 648.6,418.0 656.8,418.0 665.0,418.0 673.2,417.9 681.4,417.9 689.6,417.9 697.9,417.9 706.1,417.9 714.3,417.9 722.5,417.9 730.7,417.9 738.9,417.9 747.1,417.9 755.4,417.9 763.6,417.9 771.8,417.3 780.0,416.6 780.0,422.0 771.8,422.8 763.6,423.5 755.4,423.5 747.1,423.5 738.9,423.5 730.7,423.5 722.5,423.5 714.3,423.5 706.1,423.5 697.9,423.5 689.6,423.5 681.4,423.5 673.2,423.5 665.0,423.6 656.8,423.6 648.6,423.6 640.4,423.6 632.1,423.6 623.9,423.6 615.7,423.6 607.5,423.6 599.3,423.2 591.1,421.8 582.9,421.8 574.6,421.8 566.4,421.8 558.2,421.7 550.0,421.8 541.8,421.8 533.6,421.8 525.4,421.8 517.1,421.8 508.9,421.8 500.7,421.8 492.5,421.8 484.3,421.8 476.1,421.8 467.9,421.8 459.6,421.8 451.4,421.8 443.2,421.9 435.0,421.9 426.8,421.9 418.6,422.0 410.4,422.0 402.1,422.9 393.9,422.9 385.7,422.9 377.5,422.9 369.3,423.0 361.1,428.8 352.9,428.8 344.6,428.8 336.4,428.8 328.2,428.9 320.0,428.9 311.8,429.2 303.6,429.2 295.4,429.3 287.1,429.3 278.9,429.3 270.7,430.7 262.5,430.8 254.3,426.0 246.1,426.0 237.9,426.0 229.6,426.0 221.4,426.0 213.2,426.1 205.0,426.2 196.8,432.2 188.6,432.2 180.4,432.2 172.1,435.9 163.9,436.3 155.7,436.6 147.5,650.0 139.3,650.0 131.1,650.0 122.9,650.0 114.6,650.0 106.4,650.0 98.2,650.0 90.0,650.0" fill="#F05138" opacity="0.6" class="anim" style="animation-delay:1000ms;"/>
<polygon points="90.0,650.0 98.2,650.0 106.4,650.0 114.6,650.0 122.9,650.0 131.1,650.0 139.3,650.0 147.5,650.0 155.7,418.7 163.9,418.6 172.1,418.5 180.4,417.3 188.6,417.3 196.8,417.2 205.0,415.3 213.2,415.3 221.4,415.2 229.6,415.2 237.9,415.2 246.1,415.2 254.3,415.2 262.5,416.8 270.7,416.8 278.9,416.3 287.1,416.3 295.4,416.3 303.6,416.3 311.8,416.3 320.0,416.2 328.2,416.2 336.4,416.2 344.6,416.2 352.9,416.2 361.1,416.2 369.3,414.2 377.5,414.2 385.7,414.2 393.9,414.2 402.1,414.2 410.4,413.9 418.6,413.9 426.8,413.9 435.0,413.9 443.2,413.9 451.4,413.9 459.6,413.9 467.9,413.9 476.1,413.9 484.3,413.9 492.5,413.9 500.7,413.9 508.9,413.9 517.1,413.9 525.4,413.9 533.6,413.9 541.8,413.9 550.0,413.9 558.2,413.8 566.4,413.8 574.6,413.8 582.9,413.8 591.1,413.8 599.3,413.8 607.5,413.8 615.7,413.8 623.9,413.8 632.1,413.8 640.4,413.8 648.6,413.8 656.8,413.8 665.0,413.8 673.2,413.8 681.4,413.8 689.6,413.8 697.9,413.8 706.1,413.8 714.3,413.8 722.5,413.8 730.7,413.8 738.9,413.8 747.1,413.8 755.4,413.8 763.6,413.8 771.8,413.6 780.0,413.4 780.0,416.6 771.8,417.3 763.6,417.9 755.4,417.9 747.1,417.9 738.9,417.9 730.7,417.9 722.5,417.9 714.3,417.9 706.1,417.9 697.9,417.9 689.6,417.9 681.4,417.9 673.2,417.9 665.0,418.0 656.8,418.0 648.6,418.0 640.4,418.0 632.1,418.0 623.9,418.0 615.7,418.0 607.5,418.0 599.3,418.0 591.1,418.1 582.9,418.1 574.6,418.1 566.4,418.1 558.2,418.1 550.0,418.1 541.8,418.1 533.6,418.1 525.4,418.1 517.1,418.1 508.9,418.1 500.7,418.1 492.5,418.1 484.3,418.1 476.1,418.1 467.9,418.1 459.6,418.1 451.4,418.1 443.2,418.2 435.0,418.2 426.8,418.2 418.6,418.3 410.4,418.3 402.1,418.8 393.9,418.8 385.7,418.8 377.5,418.9 369.3,418.9 361.1,422.9 352.9,422.9 344.6,422.9 336.4,422.9 328.2,423.0 320.0,423.0 311.8,423.2 303.6,423.2 295.4,423.3 287.1,423.3 278.9,423.3 270.7,424.2 262.5,424.3 254.3,421.0 246.1,421.0 237.9,421.0 229.6,421.0 221.4,421.0 213.2,421.1 205.0,421.1 196.8,425.2 188.6,425.3 180.4,425.3 172.1,427.8 163.9,428.1 155.7,428.3 147.5,650.0 139.3,650.0 131.1,650.0 122.9,650.0 114.6,650.0 106.4,650.0 98.2,650.0 90.0,650.0" fill="#6E4C13" opacity="0.6" class="anim" style="animation-delay:1100ms;"/>
<polygon points="90.0,650.0 98.2,650.0 106.4,650.0 114.6,650.0 122.9,650.0 131.1,650.0 139.3,650.0 147.5,650.0 155.7,414.4 163.9,414.4 172.1,414.3 180.4,413.7 188.6,413.7 196.8,413.7 205.0,412.7 213.2,412.7 221.4,412.7 229.6,412.7 237.9,412.7 246.1,412.7 254.3,412.7 262.5,413.5 270.7,413.4 278.9,413.2 287.1,413.2 295.4,413.2 303.6,413.2 311.8,413.2 320.0,413.1 328.2,413.1 336.4,413.1 344.6,413.1 352.9,413.1 361.1,413.1 369.3,412.2 377.5,412.1 385.7,412.1 393.9,412.1 402.1,412.1 410.4,412.0 418.6,412.0 426.8,412.0 435.0,412.0 443.2,412.0 451.4,412.0 459.6,412.0 467.9,412.0 476.1,412.0 484.3,412.0 492.5,412.0 500.7,412.0 508.9,412.0 517.1,412.0 525.4,412.0 533.6,412.0 541.8,412.0 550.0,412.0 558.2,411.9 566.4,411.9 574.6,411.9 582.9,411.9 591.1,411.9 599.3,411.9 607.5,411.9 615.7,411.9 623.9,411.9 632.1,411.9 640.4,411.9 648.6,411.9 656.8,411.9 665.0,411.9 673.2,411.9 681.4,411.9 689.6,411.9 697.9,411.9 706.1,411.9 714.3,411.9 722.5,411.9 730.7,411.9 738.9,411.9 747.1,411.9 755.4,411.9 763.6,411.9 771.8,411.9 780.0,411.9 780.0,413.4 771.8,413.6 763.6,413.8 755.4,413.8 747.1,413.8 738.9,413.8 730.7,413.8 722.5,413.8 714.3,413.8 706.1,413.8 697.9,413.8 689.6,413.8 681.4,413.8 673.2,413.8 665.0,413.8 656.8,413.8 648.6,413.8 640.4,413.8 632.1,413.8 623.9,413.8 615.7,413.8 607.5,413.8 599.3,413.8 591.1,413.8 582.9,413.8 574.6,413.8 566.4,413.8 558.2,413.8 550.0,413.9 541.8,413.9 533.6,413.9 525.4,413.9 517.1,413.9 508.9,413.9 500.7,413.9 492.5,413.9 484.3,413.9 476.1,413.9 467.9,413.9 459.6,413.9 451.4,413.9 443.2,413.9 435.0,413.9 426.8,413.9 418.6,413.9 410.4,413.9 402.1,414.2 393.9,414.2 385.7,414.2 377.5,414.2 369.3,414.2 361.1,416.2 352.9,416.2 344.6,416.2 336.4,416.2 328.2,416.2 320.0,416.2 311.8,416.3 303.6,416.3 295.4,416.3 287.1,416.3 278.9,416.3 270.7,416.8 262.5,416.8 254.3,415.2 246.1,415.2 237.9,415.2 229.6,415.2 221.4,415.2 213.2,415.3 205.0,415.3 196.8,417.2 188.6,417.3 180.4,417.3 172.1,418.5 163.9,418.6 155.7,418.7 147.5,650.0 139.3,650.0 131.1,650.0 122.9,650.0 114.6,650.0 106.4,650.0 98.2,650.0 90.0,650.0" fill="#b07219" opacity="0.6" class="anim" style="animation-delay:1200ms;"/>
<line x1="763.6" y1="100" x2="763.6" y2="650" stroke="#c9d1d9" stroke-width="1" stroke-dasharray="4,3" opacity="0.35"/>
<text x="771.8" y="112" text-anchor="middle" class="axis-label" opacity="0.6">Jul 14, 2026</text>
<text x="90.0" y="668" text-anchor="middle" class="axis-label" transform="rotate(-35 90.0 668)">2026-02</text>
<text x="311.8" y="668" text-anchor="middle" class="axis-label" transform="rotate(-35 311.8 668)">2026-03</text>
<text x="533.6" y="668" text-anchor="middle" class="axis-label" transform="rotate(-35 533.6 668)">2026-04</text>
<text x="607.5" y="668" text-anchor="middle" class="axis-label" transform="rotate(-35 607.5 668)">2026-06</text>
<text x="771.8" y="668" text-anchor="middle" class="axis-label" transform="rotate(-35 771.8 668)">Jul 14, 2026</text>
<line x1="796" y1="110" x2="824" y2="110" stroke="#3fb950" stroke-width="2"/>
<text x="832" y="116" class="legend-text">Lines Added</text>
<line x1="796" y1="140" x2="824" y2="140" stroke="#f85149" stroke-width="1.5"/>
<text x="832" y="146" class="legend-text">Lines Deleted</text>
<line x1="796" y1="170" x2="824" y2="170" stroke="#e3b341" stroke-width="1.5" stroke-dasharray="4,3"/>
<text x="832" y="176" class="legend-text">&#x2605; Stars</text>
<text x="796" y="200" class="subtitle">Languages</text>
<rect x="796" y="212" width="12" height="12" rx="2" fill="#e34c26" opacity="0.8" class="anim" style="animation-delay:800ms;"/>
<text x="814" y="223" class="legend-text">HTML (58%→56%)</text>
<rect x="796" y="234" width="12" height="12" rx="2" fill="#f1e05a" opacity="0.8" class="anim" style="animation-delay:880ms;"/>
<text x="814" y="245" class="legend-text">JavaScript (22%→25%)</text>
<rect x="796" y="256" width="12" height="12" rx="2" fill="#3572A5" opacity="0.8" class="anim" style="animation-delay:960ms;"/>
<text x="814" y="267" class="legend-text">Python (7%→5%)</text>
<rect x="796" y="278" width="12" height="12" rx="2" fill="#663399" opacity="0.8" class="anim" style="animation-delay:1040ms;"/>
<text x="814" y="289" class="legend-text">CSS (6%→6%)</text>
<rect x="796" y="300" width="12" height="12" rx="2" fill="#083fa1" opacity="0.8" class="anim" style="animation-delay:1120ms;"/>
<text x="814" y="311" class="legend-text">Markdown (2%→2%)</text>
<rect x="796" y="322" width="12" height="12" rx="2" fill="#F05138" opacity="0.8" class="anim" style="animation-delay:1200ms;"/>
<text x="814" y="333" class="legend-text">Swift (2%→2%)</text>
<rect x="796" y="344" width="12" height="12" rx="2" fill="#6E4C13" opacity="0.8" class="anim" style="animation-delay:1280ms;"/>
<text x="814" y="355" class="legend-text">Assembly (2%→1%)</text>
<rect x="796" y="366" width="12" height="12" rx="2" fill="#b07219" opacity="0.8" class="anim" style="animation-delay:1360ms;"/>
<text x="814" y="377" class="legend-text">Java (1%→1%)</text>
<text x="796" y="412" class="subtitle">Contributions</text>
<text x="796" y="432" class="axis-label">2023: 39</text>
<text x="796" y="452" class="axis-label">2024: 646</text>
<text x="796" y="472" class="axis-label">2025: 1,780</text>
<text x="796" y="492" class="axis-label">2026: 491</text>
<text x="796" y="522" class="subtitle">Statistics</text>
<text x="796" y="542" class="axis-label">Active weeks: 88</text>
<text x="796" y="562" class="axis-label">Add/Del ratio: 1.8x</text>
<text x="796" y="582" class="axis-label">Avg lines/wk: 18K</text>
<text x="796" y="602" class="axis-label">Peak: 2026-02-15</text>
<text x="796" y="622" class="axis-label">  (543K lines)</text>
<text x="90" y="742" class="axis-label">Total: +1,040,332 / -576,819 lines &#xb7; 2,956 contributions &#xb7; 80 repos &#xb7; &#x2605; 37</text>
</svg>