<svg xmlns="http://www.w3.org/2000/svg" width="1000" height="760" style="max-width: 100%;" viewBox="0 0 1000 760">

<defs>
  <linearGradient id="areaGrad" x1="0" y1="0" x2="0" y2="1">
    <stop offset="0%" stop-color="#58a6ff" stop-opacity="0.35"/>
    <stop offset="100%" stop-color="#58a6ff" stop-opacity="0.02"/>
  </linearGradient>
  <linearGradient id="addGrad" x1="0" y1="0" x2="0" y2="1">
    <stop offset="0%" stop-color="#3fb950" stop-opacity="0.35"/>
    <stop offset="100%" stop-color="#3fb950" stop-opacity="0.02"/>
  </linearGradient>
  <linearGradient id="delGrad" x1="0" y1="0" x2="0" y2="1">
    <stop offset="0%" stop-color="#f85149" stop-opacity="0.25"/>
    <stop offset="100%" stop-color="#f85149" stop-opacity="0.02"/>
  </linearGradient>
</defs>
<style>
  .title { font: bold 28px 'Segoe UI', Ubuntu, Sans-Serif; fill: #c9d1d9; }
  .subtitle { font: 600 20px 'Segoe UI', Ubuntu, Sans-Serif; fill: #c9d1d9; opacity: 0.8; }
  .axis-label { font: 18px 'Segoe UI', Ubuntu, Sans-Serif; fill: #c9d1d9; opacity: 0.7; }
  .legend-text { font: 14px 'Segoe UI', Ubuntu, Sans-Serif; fill: #c9d1d9; }
  .value-text { font: bold 18px 'Segoe UI', Ubuntu, Sans-Serif; fill: #c9d1d9; }
  .stat-value { font: bold 22px 'Segoe UI', Ubuntu, Sans-Serif; fill: #c9d1d9; }
  .stat-label { font: 18px 'Segoe UI', Ubuntu, Sans-Serif; fill: #c9d1d9; opacity: 0.7; }
  @keyframes fadeIn { from { opacity: 0; } to { opacity: 1; } }
  .anim { animation: fadeIn 0.6s ease-in-out forwards; opacity: 0; }
</style>

<rect x="0.5" y="0.5" rx="4.5" width="999" height="759" fill="#161b22" stroke="#21262d"/>
<text x="90" y="45" class="title">Activity History</text>
<text x="90" y="72" class="subtitle">Lines added vs deleted &amp; activity trends over time</text>
<line x1="90" y1="340.0" x2="780" y2="340.0" stroke="#21262d" stroke-width="1"/>
<text x="82" y="344.0" text-anchor="end" class="axis-label">0</text>
<line x1="90" y1="280.0" x2="780" y2="280.0" stroke="#21262d" stroke-width="1"/>
<text x="82" y="284.0" text-anchor="end" class="axis-label">552K</text>
<line x1="90" y1="220.0" x2="780" y2="220.0" stroke="#21262d" stroke-width="1"/>
<text x="82" y="224.0" text-anchor="end" class="axis-label">1.1M</text>
<line x1="90" y1="160.0" x2="780" y2="160.0" stroke="#21262d" stroke-width="1"/>
<text x="82" y="164.0" text-anchor="end" class="axis-label">1.7M</text>
<line x1="90" y1="100.0" x2="780" y2="100.0" stroke="#21262d" stroke-width="1"/>
<text x="82" y="104.0" text-anchor="end" class="axis-label">2.2M</text>
<polygon points="90.0,340.0 90.0,300.4 104.1,301.8 118.2,300.4 132.2,301.8 146.3,310.9 160.4,292.8 174.5,292.8 188.6,285.9 202.7,285.6 216.7,285.2 230.8,285.2 244.9,273.0 259.0,273.0 273.1,272.9 287.1,254.8 301.2,254.6 315.3,254.4 329.4,254.4 343.5,254.4 357.6,254.4 371.6,254.4 385.7,253.9 399.8,241.9 413.9,241.8 428.0,241.8 442.0,241.8 456.1,241.5 470.2,241.5 484.3,241.0 498.4,241.0 512.4,241.0 526.5,241.0 540.6,241.0 554.7,240.9 568.8,241.0 582.9,240.9 596.9,240.9 611.0,240.9 625.1,240.9 639.2,240.9 653.3,240.9 667.3,240.4 681.4,240.6 695.5,240.1 709.6,239.8 723.7,239.8 737.8,239.8 751.8,239.8 765.9,220.0 780.0,200.1 780.0,340.0" fill="url(#addGrad)" class="anim" style="animation-delay:200ms;"/>
<polyline points="90.0,300.4 104.1,301.8 118.2,300.4 132.2,301.8 146.3,310.9 160.4,292.8 174.5,292.8 188.6,285.9 202.7,285.6 216.7,285.2 230.8,285.2 244.9,273.0 259.0,273.0 273.1,272.9 287.1,254.8 301.2,254.6 315.3,254.4 329.4,254.4 343.5,254.4 357.6,254.4 371.6,254.4 385.7,253.9 399.8,241.9 413.9,241.8 428.0,241.8 442.0,241.8 456.1,241.5 470.2,241.5 484.3,241.0 498.4,241.0 512.4,241.0 526.5,241.0 540.6,241.0 554.7,240.9 568.8,241.0 582.9,240.9 596.9,240.9 611.0,240.9 625.1,240.9 639.2,240.9 653.3,240.9 667.3,240.4 681.4,240.6 695.5,240.1 709.6,239.8 723.7,239.8 737.8,239.8 751.8,239.8" fill="none" stroke="#3fb950" stroke-width="2" stroke-linejoin="round" class="anim" style="animation-delay:250ms;"/>
<polyline points="751.8,239.8 765.9,220.0 780.0,200.1" fill="none" stroke="#3fb950" stroke-width="1.5" stroke-dasharray="5,4" stroke-linejoin="round" opacity="0.6" class="anim" style="animation-delay:250ms;"/>
<polygon points="90.0,340.0 90.0,328.9 104.1,330.0 118.2,328.9 132.2,330.0 146.3,334.8 160.4,327.5 174.5,327.5 188.6,326.7 202.7,326.4 216.7,326.2 230.8,326.2 244.9,313.0 259.0,313.0 273.1,313.0 287.1,298.1 301.2,298.0 315.3,298.0 329.4,298.0 343.5,298.0 357.6,298.0 371.6,298.0 385.7,290.2 399.8,278.3 413.9,278.3 428.0,278.3 442.0,278.3 456.1,278.2 470.2,278.2 484.3,278.2 498.4,278.1 512.4,278.1 526.5,278.1 540.6,278.1 554.7,278.1 568.8,278.2 582.9,278.1 596.9,278.1 611.0,278.1 625.1,278.1 639.2,278.1 653.3,278.1 667.3,278.1 681.4,278.2 695.5,277.8 709.6,277.8 723.7,277.8 737.8,277.8 751.8,277.8 765.9,258.9 780.0,239.9 780.0,340.0" fill="url(#delGrad)" class="anim" style="animation-delay:300ms;"/>
<polyline points="90.0,328.9 104.1,330.0 118.2,328.9 132.2,330.0 146.3,334.8 160.4,327.5 174.5,327.5 188.6,326.7 202.7,326.4 216.7,326.2 230.8,326.2 244.9,313.0 259.0,313.0 273.1,313.0 287.1,298.1 301.2,298.0 315.3,298.0 329.4,298.0 343.5,298.0 357.6,298.0 371.6,298.0 385.7,290.2 399.8,278.3 413.9,278.3 428.0,278.3 442.0,278.3 456.1,278.2 470.2,278.2 484.3,278.2 498.4,278.1 512.4,278.1 526.5,278.1 540.6,278.1 554.7,278.1 568.8,278.2 582.9,278.1 596.9,278.1 611.0,278.1 625.1,278.1 639.2,278.1 653.3,278.1 667.3,278.1 681.4,278.2 695.5,277.8 709.6,277.8 723.7,277.8 737.8,277.8 751.8,277.8" fill="none" stroke="#f85149" stroke-width="1.5" stroke-linejoin="round" class="anim" style="animation-delay:350ms;"/>
<polyline points="751.8,277.8 765.9,258.9 780.0,239.9" fill="none" stroke="#f85149" stroke-width="1" stroke-dasharray="5,4" stroke-linejoin="round" opacity="0.6" class="anim" style="animation-delay:350ms;"/>
<polyline points="90.0,340.0 104.1,340.0 118.2,340.0 132.2,340.0 146.3,340.0 160.4,340.0 174.5,340.0 188.6,340.0 202.7,292.0 216.7,292.0 230.8,292.0 244.9,292.0 259.0,292.0 273.1,292.0 287.1,292.0 301.2,292.0 315.3,292.0 329.4,292.0 343.5,292.0 357.6,292.0 371.6,292.0 385.7,292.0 399.8,292.0 413.9,292.0 428.0,292.0 442.0,292.0 456.1,292.0 470.2,292.0 484.3,292.0 498.4,292.0 512.4,292.0 526.5,292.0 540.6,292.0 554.7,292.0 568.8,244.0 582.9,244.0 596.9,244.0 611.0,244.0 625.1,244.0 639.2,244.0 653.3,244.0 667.3,244.0 681.4,196.0 695.5,196.0 709.6,196.0 723.7,196.0 737.8,196.0 751.8,196.0" fill="none" stroke="#e3b341" stroke-width="1.5" stroke-dasharray="4,3" stroke-linejoin="round" class="anim" style="animation-delay:400ms;"/>
<polyline points="751.8,196.0 765.9,196.0 780.0,148.0" fill="none" stroke="#e3b341" stroke-width="1" stroke-dasharray="3,5" stroke-linejoin="round" opacity="0.5" class="anim" style="animation-delay:400ms;"/>
<text x="90" y="90" class="subtitle">Lines Added vs Deleted (per snapshot)</text>
<text x="90" y="400" class="subtitle">Programming Language Development (%)</text>
<line x1="90" y1="650.0" x2="780" y2="650.0" stroke="#21262d" stroke-width="1"/>
<text x="82" y="654.0" text-anchor="end" class="axis-label">0%</text>
<line x1="90" y1="590.0" x2="780" y2="590.0" stroke="#21262d" stroke-width="1"/>
<text x="82" y="594.0" text-anchor="end" class="axis-label">25%</text>
<line x1="90" y1="530.0" x2="780" y2="530.0" stroke="#21262d" stroke-width="1"/>
<text x="82" y="534.0" text-anchor="end" class="axis-label">50%</text>
<line x1="90" y1="470.0" x2="780" y2="470.0" stroke="#21262d" stroke-width="1"/>
<text x="82" y="474.0" text-anchor="end" class="axis-label">75%</text>
<line x1="90" y1="410.0" x2="780" y2="410.0" stroke="#21262d" stroke-width="1"/>
<text x="82" y="414.0" text-anchor="end" class="axis-label">100%</text>
<polygon points="90.0,650.0 104.1,650.0 118.2,650.0 132.2,650.0 146.3,650.0 160.4,650.0 174.5,650.0 188.6,650.0 202.7,528.2 216.7,528.5 230.8,529.7 244.9,499.3 259.0,499.3 273.1,502.9 287.1,485.0 301.2,485.1 315.3,485.4 329.4,485.4 343.5,485.4 357.6,485.4 371.6,485.4 385.7,496.4 399.8,496.7 413.9,491.0 428.0,491.0 442.0,491.0 456.1,491.7 470.2,491.8 484.3,494.0 498.4,494.0 512.4,494.4 526.5,494.4 540.6,494.4 554.7,494.4 568.8,507.6 582.9,507.6 596.9,507.9 611.0,507.9 625.1,507.9 639.2,506.3 653.3,506.4 667.3,506.8 681.4,506.9 695.5,506.8 709.6,507.5 723.7,507.5 737.8,507.5 751.8,507.5 765.9,510.1 780.0,512.7 780.0,650.0 765.9,650.0 751.8,650.0 737.8,650.0 723.7,650.0 709.6,650.0 695.5,650.0 681.4,650.0 667.3,650.0 653.3,650.0 639.2,650.0 625.1,650.0 611.0,650.0 596.9,650.0 582.9,650.0 568.8,650.0 554.7,650.0 540.6,650.0 526.5,650.0 512.4,650.0 498.4,650.0 484.3,650.0 470.2,650.0 456.1,650.0 442.0,650.0 428.0,650.0 413.9,650.0 399.8,650.0 385.7,650.0 371.6,650.0 357.6,650.0 343.5,650.0 329.4,650.0 315.3,650.0 301.2,650.0 287.1,650.0 273.1,650.0 259.0,650.0 244.9,650.0 230.8,650.0 216.7,650.0 202.7,650.0 188.6,650.0 174.5,650.0 160.4,650.0 146.3,650.0 132.2,650.0 118.2,650.0 104.1,650.0 90.0,650.0" fill="#e34c26" opacity="0.6" class="anim" style="animation-delay:500ms;"/>
<polygon points="90.0,650.0 104.1,650.0 118.2,650.0 132.2,650.0 146.3,650.0 160.4,650.0 174.5,650.0 188.6,650.0 202.7,488.4 216.7,488.0 230.8,489.0 244.9,476.0 259.0,476.0 273.1,477.2 287.1,460.1 301.2,460.2 315.3,460.6 329.4,460.6 343.5,460.6 357.6,460.6 371.6,460.6 385.7,473.0 399.8,473.5 413.9,469.5 428.0,469.5 442.0,469.5 456.1,469.7 470.2,469.7 484.3,469.7 498.4,469.7 512.4,469.7 526.5,469.7 540.6,469.7 554.7,469.7 568.8,455.6 582.9,455.6 596.9,455.4 611.0,455.4 625.1,455.4 639.2,454.3 653.3,454.3 667.3,455.0 681.4,455.1 695.5,454.9 709.6,455.9 723.7,455.9 737.8,455.9 751.8,455.9 765.9,447.7 780.0,439.6 780.0,512.7 765.9,510.1 751.8,507.5 737.8,507.5 723.7,507.5 709.6,507.5 695.5,506.8 681.4,506.9 667.3,506.8 653.3,506.4 639.2,506.3 625.1,507.9 611.0,507.9 596.9,507.9 582.9,507.6 568.8,507.6 554.7,494.4 540.6,494.4 526.5,494.4 512.4,494.4 498.4,494.0 484.3,494.0 470.2,491.8 456.1,491.7 442.0,491.0 428.0,491.0 413.9,491.0 399.8,496.7 385.7,496.4 371.6,485.4 357.6,485.4 343.5,485.4 329.4,485.4 315.3,485.4 301.2,485.1 287.1,485.0 273.1,502.9 259.0,499.3 244.9,499.3 230.8,529.7 216.7,528.5 202.7,528.2 188.6,650.0 174.5,650.0 160.4,650.0 146.3,650.0 132.2,650.0 118.2,650.0 104.1,650.0 90.0,650.0" fill="#f1e05a" opacity="0.6" class="anim" style="animation-delay:600ms;"/>
<polygon points="90.0,650.0 104.1,650.0 118.2,650.0 132.2,650.0 146.3,650.0 160.4,650.0 174.5,650.0 188.6,650.0 202.7,455.5 216.7,455.4 230.8,455.1 244.9,447.0 259.0,447.0 273.1,448.2 287.1,438.9 301.2,439.0 315.3,439.6 329.4,439.6 343.5,439.6 357.6,439.6 371.6,439.6 385.7,445.6 399.8,445.6 413.9,443.3 428.0,443.3 442.0,443.3 456.1,443.6 470.2,443.6 484.3,444.1 498.4,444.1 512.4,444.1 526.5,444.1 540.6,444.1 554.7,444.1 568.8,437.5 582.9,437.5 596.9,437.5 611.0,437.5 625.1,437.5 639.2,437.5 653.3,437.5 667.3,438.4 681.4,438.5 695.5,438.3 709.6,439.3 723.7,439.3 737.8,439.3 751.8,439.3 765.9,436.1 780.0,432.9 780.0,439.6 765.9,447.7 751.8,455.9 737.8,455.9 723.7,455.9 709.6,455.9 695.5,454.9 681.4,455.1 667.3,455.0 653.3,454.3 639.2,454.3 625.1,455.4 611.0,455.4 596.9,455.4 582.9,455.6 568.8,455.6 554.7,469.7 540.6,469.7 526.5,469.7 512.4,469.7 498.4,469.7 484.3,469.7 470.2,469.7 456.1,469.7 442.0,469.5 428.0,469.5 413.9,469.5 399.8,473.5 385.7,473.0 371.6,460.6 357.6,460.6 343.5,460.6 329.4,460.6 315.3,460.6 301.2,460.2 287.1,460.1 273.1,477.2 259.0,476.0 244.9,476.0 230.8,489.0 216.7,488.0 202.7,488.4 188.6,650.0 174.5,650.0 160.4,650.0 146.3,650.0 132.2,650.0 118.2,650.0 104.1,650.0 90.0,650.0" fill="#3572A5" opacity="0.6" class="anim" style="animation-delay:700ms;"/>
<polygon points="90.0,650.0 104.1,650.0 118.2,650.0 132.2,650.0 146.3,650.0 160.4,650.0 174.5,650.0 188.6,650.0 202.7,442.3 216.7,442.0 230.8,441.6 244.9,439.5 259.0,439.5 273.1,439.4 287.1,432.3 301.2,432.2 315.3,432.6 329.4,432.6 343.5,432.6 357.6,432.6 371.6,432.6 385.7,439.3 399.8,439.3 413.9,437.4 428.0,437.4 442.0,437.4 456.1,437.3 470.2,437.3 484.3,437.1 498.4,437.1 512.4,437.1 526.5,437.1 540.6,437.1 554.7,437.1 568.8,428.7 582.9,428.6 596.9,428.5 611.0,428.5 625.1,428.5 639.2,427.3 653.3,427.3 667.3,427.1 681.4,427.1 695.5,427.1 709.6,427.0 723.7,427.0 737.8,427.0 751.8,427.0 765.9,422.9 780.0,418.8 780.0,432.9 765.9,436.1 751.8,439.3 737.8,439.3 723.7,439.3 709.6,439.3 695.5,438.3 681.4,438.5 667.3,438.4 653.3,437.5 639.2,437.5 625.1,437.5 611.0,437.5 596.9,437.5 582.9,437.5 568.8,437.5 554.7,444.1 540.6,444.1 526.5,444.1 512.4,444.1 498.4,444.1 484.3,444.1 470.2,443.6 456.1,443.6 442.0,443.3 428.0,443.3 413.9,443.3 399.8,445.6 385.7,445.6 371.6,439.6 357.6,439.6 343.5,439.6 329.4,439.6 315.3,439.6 301.2,439.0 287.1,438.9 273.1,448.2 259.0,447.0 244.9,447.0 230.8,455.1 216.7,455.4 202.7,455.5 188.6,650.0 174.5,650.0 160.4,650.0 146.3,650.0 132.2,650.0 118.2,650.0 104.1,650.0 90.0,650.0" fill="#663399" opacity="0.6" class="anim" style="animation-delay:800ms;"/>
<polygon points="90.0,650.0 104.1,650.0 118.2,650.0 132.2,650.0 146.3,650.0 160.4,650.0 174.5,650.0 188.6,650.0 202.7,436.6 216.7,436.3 230.8,435.9 244.9,432.2 259.0,432.2 273.1,432.2 287.1,426.2 301.2,426.1 315.3,426.0 329.4,426.0 343.5,426.0 357.6,426.0 371.6,426.0 385.7,430.8 399.8,430.7 413.9,429.3 428.0,429.3 442.0,429.3 456.1,429.2 470.2,429.2 484.3,428.9 498.4,428.9 512.4,428.8 526.5,428.8 540.6,428.8 554.7,428.8 568.8,423.0 582.9,422.9 596.9,422.9 611.0,422.9 625.1,422.9 639.2,422.0 653.3,422.0 667.3,421.9 681.4,421.9 695.5,421.9 709.6,421.8 723.7,421.8 737.8,421.8 751.8,421.8 765.9,418.3 780.0,414.8 780.0,418.8 765.9,422.9 751.8,427.0 737.8,427.0 723.7,427.0 709.6,427.0 695.5,427.1 681.4,427.1 667.3,427.1 653.3,427.3 639.2,427.3 625.1,428.5 611.0,428.5 596.9,428.5 582.9,428.6 568.8,428.7 554.7,437.1 540.6,437.1 526.5,437.1 512.4,437.1 498.4,437.1 484.3,437.1 470.2,437.3 456.1,437.3 442.0,437.4 428.0,437.4 413.9,437.4 399.8,439.3 385.7,439.3 371.6,432.6 357.6,432.6 343.5,432.6 329.4,432.6 315.3,432.6 301.2,432.2 287.1,432.3 273.1,439.4 259.0,439.5 244.9,439.5 230.8,441.6 216.7,442.0 202.7,442.3 188.6,650.0 174.5,650.0 160.4,650.0 146.3,650.0 132.2,650.0 118.2,650.0 104.1,650.0 90.0,650.0" fill="#083fa1" opacity="0.6" class="anim" style="animation-delay:900ms;"/>
<polygon points="90.0,650.0 104.1,650.0 118.2,650.0 132.2,650.0 146.3,650.0 160.4,650.0 174.5,650.0 188.6,650.0 202.7,427.0 216.7,426.8 230.8,426.6 244.9,424.2 259.0,424.2 273.1,424.2 287.1,420.4 301.2,420.3 315.3,420.3 329.4,420.3 343.5,420.3 357.6,420.3 371.6,420.3 385.7,423.3 399.8,423.2 413.9,422.4 428.0,422.4 442.0,422.4 456.1,422.3 470.2,422.3 484.3,422.1 498.4,422.1 512.4,422.1 526.5,422.1 540.6,422.1 554.7,422.1 568.8,418.3 582.9,418.3 596.9,418.2 611.0,418.2 625.1,418.2 639.2,417.7 653.3,417.7 667.3,417.6 681.4,417.6 695.5,417.6 709.6,417.6 723.7,417.6 737.8,417.6 751.8,417.6 765.9,415.6 780.0,413.5 780.0,414.8 765.9,418.3 751.8,421.8 737.8,421.8 723.7,421.8 709.6,421.8 695.5,421.9 681.4,421.9 667.3,421.9 653.3,422.0 639.2,422.0 625.1,422.9 611.0,422.9 596.9,422.9 582.9,422.9 568.8,423.0 554.7,428.8 540.6,428.8 526.5,428.8 512.4,428.8 498.4,428.9 484.3,428.9 470.2,429.2 456.1,429.2 442.0,429.3 428.0,429.3 413.9,429.3 399.8,430.7 385.7,430.8 371.6,426.0 357.6,426.0 343.5,426.0 329.4,426.0 315.3,426.0 301.2,426.1 287.1,426.2 273.1,432.2 259.0,432.2 244.9,432.2 230.8,435.9 216.7,436.3 202.7,436.6 188.6,650.0 174.5,650.0 160.4,650.0 146.3,650.0 132.2,650.0 118.2,650.0 104.1,650.0 90.0,650.0" fill="#6E4C13" opacity="0.6" class="anim" style="animation-delay:1000ms;"/>
<polygon points="90.0,650.0 104.1,650.0 118.2,650.0 132.2,650.0 146.3,650.0 160.4,650.0 174.5,650.0 188.6,650.0 202.7,418.7 216.7,418.6 230.8,418.5 244.9,417.3 259.0,417.3 273.1,417.2 287.1,415.3 301.2,415.3 315.3,415.2 329.4,415.2 343.5,415.2 357.6,415.2 371.6,415.2 385.7,416.8 399.8,416.8 413.9,416.3 428.0,416.3 442.0,416.3 456.1,416.3 470.2,416.3 484.3,416.2 498.4,416.2 512.4,416.2 526.5,416.2 540.6,416.2 554.7,416.2 568.8,414.2 582.9,414.2 596.9,414.2 611.0,414.2 625.1,414.2 639.2,413.9 653.3,413.9 667.3,413.9 681.4,413.9 695.5,413.9 709.6,413.9 723.7,413.9 737.8,413.9 751.8,413.9 765.9,413.2 780.0,412.5 780.0,413.5 765.9,415.6 751.8,417.6 737.8,417.6 723.7,417.6 709.6,417.6 695.5,417.6 681.4,417.6 667.3,417.6 653.3,417.7 639.2,417.7 625.1,418.2 611.0,418.2 596.9,418.2 582.9,418.3 568.8,418.3 554.7,422.1 540.6,422.1 526.5,422.1 512.4,422.1 498.4,422.1 484.3,422.1 470.2,422.3 456.1,422.3 442.0,422.4 428.0,422.4 413.9,422.4 399.8,423.2 385.7,423.3 371.6,420.3 357.6,420.3 343.5,420.3 329.4,420.3 315.3,420.3 301.2,420.3 287.1,420.4 273.1,424.2 259.0,424.2 244.9,424.2 230.8,426.6 216.7,426.8 202.7,427.0 188.6,650.0 174.5,650.0 160.4,650.0 146.3,650.0 132.2,650.0 118.2,650.0 104.1,650.0 90.0,650.0" fill="#F05138" opacity="0.6" class="anim" style="animation-delay:1100ms;"/>
<polygon points="90.0,650.0 104.1,650.0 118.2,650.0 132.2,650.0 146.3,650.0 160.4,650.0 174.5,650.0 188.6,650.0 202.7,414.4 216.7,414.4 230.8,414.3 244.9,413.7 259.0,413.7 273.1,413.7 287.1,412.7 301.2,412.7 315.3,412.7 329.4,412.7 343.5,412.7 357.6,412.7 371.6,412.7 385.7,413.5 399.8,413.4 413.9,413.2 428.0,413.2 442.0,413.2 456.1,413.2 470.2,413.2 484.3,413.1 498.4,413.1 512.4,413.1 526.5,413.1 540.6,413.1 554.7,413.1 568.8,412.2 582.9,412.1 596.9,412.1 611.0,412.1 625.1,412.1 639.2,412.0 653.3,412.0 667.3,412.0 681.4,412.0 695.5,412.0 709.6,412.0 723.7,412.0 737.8,412.0 751.8,412.0 765.9,412.0 780.0,412.0 780.0,412.5 765.9,413.2 751.8,413.9 737.8,413.9 723.7,413.9 709.6,413.9 695.5,413.9 681.4,413.9 667.3,413.9 653.3,413.9 639.2,413.9 625.1,414.2 611.0,414.2 596.9,414.2 582.9,414.2 568.8,414.2 554.7,416.2 540.6,416.2 526.5,416.2 512.4,416.2 498.4,416.2 484.3,416.2 470.2,416.3 456.1,416.3 442.0,416.3 428.0,416.3 413.9,416.3 399.8,416.8 385.7,416.8 371.6,415.2 357.6,415.2 343.5,415.2 329.4,415.2 315.3,415.2 301.2,415.3 287.1,415.3 273.1,417.2 259.0,417.3 244.9,417.3 230.8,418.5 216.7,418.6 202.7,418.7 188.6,650.0 174.5,650.0 160.4,650.0 146.3,650.0 132.2,650.0 118.2,650.0 104.1,650.0 90.0,650.0" fill="#b07219" opacity="0.6" class="anim" style="animation-delay:1200ms;"/>
<line x1="751.8" y1="100" x2="751.8" y2="650" stroke="#c9d1d9" stroke-width="1" stroke-dasharray="4,3" opacity="0.35"/>
<text x="765.9" y="112" text-anchor="middle" class="axis-label" opacity="0.6">Apr 08, 2026</text>
<text x="90.0" y="668" text-anchor="middle" class="axis-label" transform="rotate(-35 90.0 668)">2026-02</text>
<text x="442.0" y="668" text-anchor="middle" class="axis-label" transform="rotate(-35 442.0 668)">2026-03</text>
<text x="765.9" y="668" text-anchor="middle" class="axis-label" transform="rotate(-35 765.9 668)">Apr 08, 2026</text>
<line x1="796" y1="110" x2="824" y2="110" stroke="#3fb950" stroke-width="2"/>
<text x="832" y="116" class="legend-text">Lines Added</text>
<line x1="796" y1="140" x2="824" y2="140" stroke="#f85149" stroke-width="1.5"/>
<text x="832" y="146" class="legend-text">Lines Deleted</text>
<line x1="796" y1="170" x2="824" y2="170" stroke="#e3b341" stroke-width="1.5" stroke-dasharray="4,3"/>
<text x="832" y="176" class="legend-text">&#x2605; Stars</text>
<text x="796" y="200" class="subtitle">Languages</text>
<rect x="796" y="212" width="12" height="12" rx="2" fill="#e34c26" opacity="0.8" class="anim" style="animation-delay:800ms;"/>
<text x="814" y="223" class="legend-text">HTML (59%→57%)</text>
<rect x="796" y="234" width="12" height="12" rx="2" fill="#f1e05a" opacity="0.8" class="anim" style="animation-delay:880ms;"/>
<text x="814" y="245" class="legend-text">JavaScript (22%→30%)</text>
<rect x="796" y="256" width="12" height="12" rx="2" fill="#3572A5" opacity="0.8" class="anim" style="animation-delay:960ms;"/>
<text x="814" y="267" class="legend-text">Python (7%→3%)</text>
<rect x="796" y="278" width="12" height="12" rx="2" fill="#663399" opacity="0.8" class="anim" style="animation-delay:1040ms;"/>
<text x="814" y="289" class="legend-text">CSS (5%→6%)</text>
<rect x="796" y="300" width="12" height="12" rx="2" fill="#083fa1" opacity="0.8" class="anim" style="animation-delay:1120ms;"/>
<text x="814" y="311" class="legend-text">Markdown (2%→2%)</text>
<rect x="796" y="322" width="12" height="12" rx="2" fill="#6E4C13" opacity="0.8" class="anim" style="animation-delay:1200ms;"/>
<text x="814" y="333" class="legend-text">Assembly (2%→1%)</text>
<rect x="796" y="344" width="12" height="12" rx="2" fill="#F05138" opacity="0.8" class="anim" style="animation-delay:1280ms;"/>
<text x="814" y="355" class="legend-text">Swift (2%→0%)</text>
<rect x="796" y="366" width="12" height="12" rx="2" fill="#b07219" opacity="0.8" class="anim" style="animation-delay:1360ms;"/>
<text x="814" y="377" class="legend-text">Java (1%→0%)</text>
<text x="796" y="412" class="subtitle">Contributions</text>
<text x="796" y="432" class="axis-label">2023: 39</text>
<text x="796" y="452" class="axis-label">2024: 646</text>
<text x="796" y="472" class="axis-label">2025: 1,780</text>
<text x="796" y="492" class="axis-label">2026: 397</text>
<text x="796" y="522" class="subtitle">Statistics</text>
<text x="796" y="542" class="axis-label">Active weeks: 79</text>
<text x="796" y="562" class="axis-label">Add/Del ratio: 1.6x</text>
<text x="796" y="582" class="axis-label">Avg lines/wk: 19K</text>
<text x="796" y="602" class="axis-label">Peak: 2026-02-15</text>
<text x="796" y="622" class="axis-label">  (543K lines)</text>
<text x="90" y="742" class="axis-label">Total: +922,355 / -572,795 lines &#xb7; 2,862 contributions &#xb7; 76 repos &#xb7; &#x2605; 35</text>
</svg>