<svg xmlns="http://www.w3.org/2000/svg" width="1000" height="760" style="max-width: 100%;" viewBox="0 0 1000 760">

<defs>
  <linearGradient id="areaGrad" x1="0" y1="0" x2="0" y2="1">
    <stop offset="0%" stop-color="#58a6ff" stop-opacity="0.35"/>
    <stop offset="100%" stop-color="#58a6ff" stop-opacity="0.02"/>
  </linearGradient>
  <linearGradient id="addGrad" x1="0" y1="0" x2="0" y2="1">
    <stop offset="0%" stop-color="#3fb950" stop-opacity="0.35"/>
    <stop offset="100%" stop-color="#3fb950" stop-opacity="0.02"/>
  </linearGradient>
  <linearGradient id="delGrad" x1="0" y1="0" x2="0" y2="1">
    <stop offset="0%" stop-color="#f85149" stop-opacity="0.25"/>
    <stop offset="100%" stop-color="#f85149" stop-opacity="0.02"/>
  </linearGradient>
</defs>
<style>
  .title { font: bold 28px 'Segoe UI', Ubuntu, Sans-Serif; fill: #c9d1d9; }
  .subtitle { font: 600 20px 'Segoe UI', Ubuntu, Sans-Serif; fill: #c9d1d9; opacity: 0.8; }
  .axis-label { font: 18px 'Segoe UI', Ubuntu, Sans-Serif; fill: #c9d1d9; opacity: 0.7; }
  .legend-text { font: 14px 'Segoe UI', Ubuntu, Sans-Serif; fill: #c9d1d9; }
  .value-text { font: bold 18px 'Segoe UI', Ubuntu, Sans-Serif; fill: #c9d1d9; }
  .stat-value { font: bold 22px 'Segoe UI', Ubuntu, Sans-Serif; fill: #c9d1d9; }
  .stat-label { font: 18px 'Segoe UI', Ubuntu, Sans-Serif; fill: #c9d1d9; opacity: 0.7; }
  @keyframes fadeIn { from { opacity: 0; } to { opacity: 1; } }
  .anim { animation: fadeIn 0.6s ease-in-out forwards; opacity: 0; }
</style>

<rect x="0.5" y="0.5" rx="4.5" width="999" height="759" fill="#161b22" stroke="#21262d"/>
<text x="90" y="45" class="title">Activity History</text>
<text x="90" y="72" class="subtitle">Lines added vs deleted &amp; activity trends over time</text>
<line x1="90" y1="340.0" x2="780" y2="340.0" stroke="#21262d" stroke-width="1"/>
<text x="82" y="344.0" text-anchor="end" class="axis-label">0</text>
<line x1="90" y1="280.0" x2="780" y2="280.0" stroke="#21262d" stroke-width="1"/>
<text x="82" y="284.0" text-anchor="end" class="axis-label">451K</text>
<line x1="90" y1="220.0" x2="780" y2="220.0" stroke="#21262d" stroke-width="1"/>
<text x="82" y="224.0" text-anchor="end" class="axis-label">902K</text>
<line x1="90" y1="160.0" x2="780" y2="160.0" stroke="#21262d" stroke-width="1"/>
<text x="82" y="164.0" text-anchor="end" class="axis-label">1.4M</text>
<line x1="90" y1="100.0" x2="780" y2="100.0" stroke="#21262d" stroke-width="1"/>
<text x="82" y="104.0" text-anchor="end" class="axis-label">1.8M</text>
<polygon points="90.0,340.0 90.0,291.4 97.8,293.2 105.5,291.5 113.3,293.2 121.0,304.4 128.8,282.1 136.5,282.1 144.3,273.7 152.0,273.4 159.8,272.9 167.5,272.8 175.3,257.9 183.0,257.9 190.8,257.8 198.5,235.7 206.3,235.4 214.0,235.1 221.8,235.1 229.6,235.1 237.3,235.1 245.1,235.1 252.8,234.6 260.6,219.8 268.3,219.7 276.1,219.7 283.8,219.7 291.6,219.4 299.3,219.4 307.1,218.7 314.8,218.7 322.6,218.7 330.3,218.7 338.1,218.7 345.8,218.7 353.6,218.7 361.3,218.7 369.1,218.7 376.9,218.7 384.6,218.7 392.4,218.7 400.1,218.7 407.9,218.0 415.6,218.3 423.4,217.6 431.1,217.3 438.9,217.3 446.6,217.3 454.4,217.3 462.1,217.3 469.9,217.3 477.6,217.2 485.4,217.2 493.1,217.2 500.9,217.3 508.7,217.6 516.4,219.0 524.2,217.6 531.9,216.3 539.7,216.3 547.4,216.3 555.2,216.3 562.9,216.3 570.7,208.6 578.4,201.7 586.2,201.7 593.9,201.7 601.7,201.7 609.4,201.7 617.2,201.7 624.9,201.7 632.7,201.7 640.4,201.6 648.2,201.6 656.0,201.6 663.7,201.6 671.5,201.6 679.2,201.6 687.0,201.6 694.7,201.6 702.5,201.6 710.2,201.6 718.0,201.6 725.7,201.6 733.5,201.6 741.2,201.6 749.0,201.6 756.7,201.6 764.5,201.6 772.2,194.4 780.0,187.2 780.0,340.0" fill="url(#addGrad)" class="anim" style="animation-delay:200ms;"/>
<polyline points="90.0,291.4 97.8,293.2 105.5,291.5 113.3,293.2 121.0,304.4 128.8,282.1 136.5,282.1 144.3,273.7 152.0,273.4 159.8,272.9 167.5,272.8 175.3,257.9 183.0,257.9 190.8,257.8 198.5,235.7 206.3,235.4 214.0,235.1 221.8,235.1 229.6,235.1 237.3,235.1 245.1,235.1 252.8,234.6 260.6,219.8 268.3,219.7 276.1,219.7 283.8,219.7 291.6,219.4 299.3,219.4 307.1,218.7 314.8,218.7 322.6,218.7 330.3,218.7 338.1,218.7 345.8,218.7 353.6,218.7 361.3,218.7 369.1,218.7 376.9,218.7 384.6,218.7 392.4,218.7 400.1,218.7 407.9,218.0 415.6,218.3 423.4,217.6 431.1,217.3 438.9,217.3 446.6,217.3 454.4,217.3 462.1,217.3 469.9,217.3 477.6,217.2 485.4,217.2 493.1,217.2 500.9,217.3 508.7,217.6 516.4,219.0 524.2,217.6 531.9,216.3 539.7,216.3 547.4,216.3 555.2,216.3 562.9,216.3 570.7,208.6 578.4,201.7 586.2,201.7 593.9,201.7 601.7,201.7 609.4,201.7 617.2,201.7 624.9,201.7 632.7,201.7 640.4,201.6 648.2,201.6 656.0,201.6 663.7,201.6 671.5,201.6 679.2,201.6 687.0,201.6 694.7,201.6 702.5,201.6 710.2,201.6 718.0,201.6 725.7,201.6 733.5,201.6 741.2,201.6 749.0,201.6 756.7,201.6 764.5,201.6" fill="none" stroke="#3fb950" stroke-width="2" stroke-linejoin="round" class="anim" style="animation-delay:250ms;"/>
<polyline points="764.5,201.6 772.2,194.4 780.0,187.2" fill="none" stroke="#3fb950" stroke-width="1.5" stroke-dasharray="5,4" stroke-linejoin="round" opacity="0.6" class="anim" style="animation-delay:250ms;"/>
<polygon points="90.0,340.0 90.0,326.3 97.8,327.8 105.5,326.4 113.3,327.7 121.0,333.6 128.8,324.7 136.5,324.7 144.3,323.7 152.0,323.4 159.8,323.1 167.5,323.1 175.3,307.0 183.0,307.0 190.8,306.9 198.5,288.7 206.3,288.6 214.0,288.5 221.8,288.5 229.6,288.5 237.3,288.5 245.1,288.5 252.8,279.0 260.6,264.5 268.3,264.4 276.1,264.4 283.8,264.4 291.6,264.4 299.3,264.4 307.1,264.3 314.8,264.2 322.6,264.2 330.3,264.2 338.1,264.2 345.8,264.2 353.6,264.3 361.3,264.2 369.1,264.2 376.9,264.2 384.6,264.2 392.4,264.2 400.1,264.2 407.9,264.2 415.6,264.3 423.4,263.8 431.1,263.8 438.9,263.8 446.6,263.8 454.4,263.8 462.1,263.8 469.9,263.8 477.6,263.8 485.4,263.8 493.1,263.8 500.9,263.8 508.7,263.9 516.4,264.7 524.2,264.2 531.9,263.4 539.7,263.3 547.4,263.3 555.2,263.3 562.9,263.3 570.7,263.3 578.4,263.3 586.2,263.3 593.9,263.3 601.7,263.3 609.4,263.3 617.2,263.3 624.9,263.3 632.7,263.3 640.4,263.3 648.2,263.3 656.0,263.3 663.7,263.3 671.5,263.3 679.2,263.3 687.0,263.3 694.7,263.3 702.5,263.3 710.2,263.3 718.0,263.3 725.7,263.3 733.5,263.3 741.2,263.3 749.0,263.3 756.7,263.3 764.5,263.3 772.2,258.0 780.0,252.8 780.0,340.0" fill="url(#delGrad)" class="anim" style="animation-delay:300ms;"/>
<polyline points="90.0,326.3 97.8,327.8 105.5,326.4 113.3,327.7 121.0,333.6 128.8,324.7 136.5,324.7 144.3,323.7 152.0,323.4 159.8,323.1 167.5,323.1 175.3,307.0 183.0,307.0 190.8,306.9 198.5,288.7 206.3,288.6 214.0,288.5 221.8,288.5 229.6,288.5 237.3,288.5 245.1,288.5 252.8,279.0 260.6,264.5 268.3,264.4 276.1,264.4 283.8,264.4 291.6,264.4 299.3,264.4 307.1,264.3 314.8,264.2 322.6,264.2 330.3,264.2 338.1,264.2 345.8,264.2 353.6,264.3 361.3,264.2 369.1,264.2 376.9,264.2 384.6,264.2 392.4,264.2 400.1,264.2 407.9,264.2 415.6,264.3 423.4,263.8 431.1,263.8 438.9,263.8 446.6,263.8 454.4,263.8 462.1,263.8 469.9,263.8 477.6,263.8 485.4,263.8 493.1,263.8 500.9,263.8 508.7,263.9 516.4,264.7 524.2,264.2 531.9,263.4 539.7,263.3 547.4,263.3 555.2,263.3 562.9,263.3 570.7,263.3 578.4,263.3 586.2,263.3 593.9,263.3 601.7,263.3 609.4,263.3 617.2,263.3 624.9,263.3 632.7,263.3 640.4,263.3 648.2,263.3 656.0,263.3 663.7,263.3 671.5,263.3 679.2,263.3 687.0,263.3 694.7,263.3 702.5,263.3 710.2,263.3 718.0,263.3 725.7,263.3 733.5,263.3 741.2,263.3 749.0,263.3 756.7,263.3 764.5,263.3" fill="none" stroke="#f85149" stroke-width="1.5" stroke-linejoin="round" class="anim" style="animation-delay:350ms;"/>
<polyline points="764.5,263.3 772.2,258.0 780.0,252.8" fill="none" stroke="#f85149" stroke-width="1" stroke-dasharray="5,4" stroke-linejoin="round" opacity="0.6" class="anim" style="animation-delay:350ms;"/>
<polyline points="90.0,340.0 97.8,340.0 105.5,340.0 113.3,340.0 121.0,340.0 128.8,340.0 136.5,340.0 144.3,340.0 152.0,308.0 159.8,308.0 167.5,308.0 175.3,308.0 183.0,308.0 190.8,308.0 198.5,308.0 206.3,308.0 214.0,308.0 221.8,308.0 229.6,308.0 237.3,308.0 245.1,308.0 252.8,308.0 260.6,308.0 268.3,308.0 276.1,308.0 283.8,308.0 291.6,308.0 299.3,308.0 307.1,308.0 314.8,308.0 322.6,308.0 330.3,308.0 338.1,308.0 345.8,308.0 353.6,276.0 361.3,276.0 369.1,276.0 376.9,276.0 384.6,276.0 392.4,276.0 400.1,276.0 407.9,276.0 415.6,244.0 423.4,244.0 431.1,244.0 438.9,244.0 446.6,244.0 454.4,244.0 462.1,244.0 469.9,244.0 477.6,244.0 485.4,244.0 493.1,244.0 500.9,244.0 508.7,244.0 516.4,244.0 524.2,244.0 531.9,244.0 539.7,180.0 547.4,180.0 555.2,180.0 562.9,180.0 570.7,180.0 578.4,180.0 586.2,180.0 593.9,180.0 601.7,180.0 609.4,180.0 617.2,180.0 624.9,180.0 632.7,180.0 640.4,180.0 648.2,180.0 656.0,180.0 663.7,180.0 671.5,180.0 679.2,180.0 687.0,180.0 694.7,180.0 702.5,180.0 710.2,180.0 718.0,180.0 725.7,180.0 733.5,180.0 741.2,180.0 749.0,180.0 756.7,180.0 764.5,180.0" fill="none" stroke="#e3b341" stroke-width="1.5" stroke-dasharray="4,3" stroke-linejoin="round" class="anim" style="animation-delay:400ms;"/>
<polyline points="764.5,180.0 772.2,180.0 780.0,148.0" fill="none" stroke="#e3b341" stroke-width="1" stroke-dasharray="3,5" stroke-linejoin="round" opacity="0.5" class="anim" style="animation-delay:400ms;"/>
<text x="90" y="90" class="subtitle">Lines Added vs Deleted (per snapshot)</text>
<text x="90" y="400" class="subtitle">Programming Language Development (%)</text>
<line x1="90" y1="650.0" x2="780" y2="650.0" stroke="#21262d" stroke-width="1"/>
<text x="82" y="654.0" text-anchor="end" class="axis-label">0%</text>
<line x1="90" y1="590.0" x2="780" y2="590.0" stroke="#21262d" stroke-width="1"/>
<text x="82" y="594.0" text-anchor="end" class="axis-label">25%</text>
<line x1="90" y1="530.0" x2="780" y2="530.0" stroke="#21262d" stroke-width="1"/>
<text x="82" y="534.0" text-anchor="end" class="axis-label">50%</text>
<line x1="90" y1="470.0" x2="780" y2="470.0" stroke="#21262d" stroke-width="1"/>
<text x="82" y="474.0" text-anchor="end" class="axis-label">75%</text>
<line x1="90" y1="410.0" x2="780" y2="410.0" stroke="#21262d" stroke-width="1"/>
<text x="82" y="414.0" text-anchor="end" class="axis-label">100%</text>
<polygon points="90.0,650.0 97.8,650.0 105.5,650.0 113.3,650.0 121.0,650.0 128.8,650.0 136.5,650.0 144.3,650.0 152.0,528.2 159.8,528.5 167.5,529.7 175.3,499.3 183.0,499.3 190.8,502.9 198.5,485.0 206.3,485.1 214.0,485.4 221.8,485.4 229.6,485.4 237.3,485.4 245.1,485.4 252.8,496.4 260.6,496.7 268.3,491.0 276.1,491.0 283.8,491.0 291.6,491.7 299.3,491.8 307.1,494.0 314.8,494.0 322.6,494.4 330.3,494.4 338.1,494.4 345.8,494.4 353.6,507.6 361.3,507.6 369.1,507.9 376.9,507.9 384.6,507.9 392.4,506.3 400.1,506.4 407.9,506.8 415.6,506.9 423.4,506.8 431.1,507.5 438.9,507.5 446.6,507.5 454.4,507.5 462.1,507.5 469.9,507.5 477.6,507.5 485.4,507.5 493.1,507.5 500.9,507.5 508.7,507.5 516.4,507.5 524.2,507.5 531.9,508.6 539.7,508.6 547.4,508.6 555.2,508.6 562.9,508.6 570.7,509.5 578.4,509.8 586.2,509.8 593.9,509.8 601.7,509.8 609.4,509.8 617.2,509.8 624.9,509.8 632.7,509.8 640.4,510.9 648.2,510.9 656.0,510.9 663.7,510.9 671.5,510.9 679.2,510.9 687.0,510.9 694.7,510.9 702.5,510.9 710.2,510.9 718.0,510.9 725.7,510.9 733.5,510.9 741.2,510.9 749.0,510.9 756.7,510.9 764.5,510.9 772.2,512.8 780.0,514.7 780.0,650.0 772.2,650.0 764.5,650.0 756.7,650.0 749.0,650.0 741.2,650.0 733.5,650.0 725.7,650.0 718.0,650.0 710.2,650.0 702.5,650.0 694.7,650.0 687.0,650.0 679.2,650.0 671.5,650.0 663.7,650.0 656.0,650.0 648.2,650.0 640.4,650.0 632.7,650.0 624.9,650.0 617.2,650.0 609.4,650.0 601.7,650.0 593.9,650.0 586.2,650.0 578.4,650.0 570.7,650.0 562.9,650.0 555.2,650.0 547.4,650.0 539.7,650.0 531.9,650.0 524.2,650.0 516.4,650.0 508.7,650.0 500.9,650.0 493.1,650.0 485.4,650.0 477.6,650.0 469.9,650.0 462.1,650.0 454.4,650.0 446.6,650.0 438.9,650.0 431.1,650.0 423.4,650.0 415.6,650.0 407.9,650.0 400.1,650.0 392.4,650.0 384.6,650.0 376.9,650.0 369.1,650.0 361.3,650.0 353.6,650.0 345.8,650.0 338.1,650.0 330.3,650.0 322.6,650.0 314.8,650.0 307.1,650.0 299.3,650.0 291.6,650.0 283.8,650.0 276.1,650.0 268.3,650.0 260.6,650.0 252.8,650.0 245.1,650.0 237.3,650.0 229.6,650.0 221.8,650.0 214.0,650.0 206.3,650.0 198.5,650.0 190.8,650.0 183.0,650.0 175.3,650.0 167.5,650.0 159.8,650.0 152.0,650.0 144.3,650.0 136.5,650.0 128.8,650.0 121.0,650.0 113.3,650.0 105.5,650.0 97.8,650.0 90.0,650.0" fill="#e34c26" opacity="0.6" class="anim" style="animation-delay:500ms;"/>
<polygon points="90.0,650.0 97.8,650.0 105.5,650.0 113.3,650.0 121.0,650.0 128.8,650.0 136.5,650.0 144.3,650.0 152.0,488.4 159.8,488.0 167.5,489.0 175.3,476.0 183.0,476.0 190.8,477.2 198.5,460.1 206.3,460.2 214.0,460.6 221.8,460.6 229.6,460.6 237.3,460.6 245.1,460.6 252.8,473.0 260.6,473.5 268.3,469.5 276.1,469.5 283.8,469.5 291.6,469.7 299.3,469.7 307.1,469.7 314.8,469.7 322.6,469.7 330.3,469.7 338.1,469.7 345.8,469.7 353.6,455.6 361.3,455.6 369.1,455.4 376.9,455.4 384.6,455.4 392.4,454.3 400.1,454.3 407.9,455.0 415.6,455.1 423.4,454.9 431.1,455.9 438.9,455.9 446.6,455.9 454.4,455.9 462.1,455.9 469.9,455.9 477.6,455.9 485.4,455.9 493.1,455.9 500.9,455.9 508.7,455.9 516.4,455.9 524.2,455.9 531.9,455.8 539.7,455.8 547.4,455.8 555.2,455.8 562.9,455.8 570.7,457.0 578.4,457.4 586.2,457.4 593.9,457.4 601.7,457.4 609.4,457.4 617.2,457.4 624.9,457.4 632.7,457.4 640.4,458.2 648.2,458.2 656.0,458.2 663.7,458.2 671.5,458.2 679.2,458.2 687.0,458.2 694.7,458.2 702.5,458.2 710.2,458.2 718.0,458.2 725.7,458.2 733.5,458.2 741.2,458.2 749.0,458.2 756.7,458.2 764.5,458.2 772.2,456.5 780.0,454.9 780.0,514.7 772.2,512.8 764.5,510.9 756.7,510.9 749.0,510.9 741.2,510.9 733.5,510.9 725.7,510.9 718.0,510.9 710.2,510.9 702.5,510.9 694.7,510.9 687.0,510.9 679.2,510.9 671.5,510.9 663.7,510.9 656.0,510.9 648.2,510.9 640.4,510.9 632.7,509.8 624.9,509.8 617.2,509.8 609.4,509.8 601.7,509.8 593.9,509.8 586.2,509.8 578.4,509.8 570.7,509.5 562.9,508.6 555.2,508.6 547.4,508.6 539.7,508.6 531.9,508.6 524.2,507.5 516.4,507.5 508.7,507.5 500.9,507.5 493.1,507.5 485.4,507.5 477.6,507.5 469.9,507.5 462.1,507.5 454.4,507.5 446.6,507.5 438.9,507.5 431.1,507.5 423.4,506.8 415.6,506.9 407.9,506.8 400.1,506.4 392.4,506.3 384.6,507.9 376.9,507.9 369.1,507.9 361.3,507.6 353.6,507.6 345.8,494.4 338.1,494.4 330.3,494.4 322.6,494.4 314.8,494.0 307.1,494.0 299.3,491.8 291.6,491.7 283.8,491.0 276.1,491.0 268.3,491.0 260.6,496.7 252.8,496.4 245.1,485.4 237.3,485.4 229.6,485.4 221.8,485.4 214.0,485.4 206.3,485.1 198.5,485.0 190.8,502.9 183.0,499.3 175.3,499.3 167.5,529.7 159.8,528.5 152.0,528.2 144.3,650.0 136.5,650.0 128.8,650.0 121.0,650.0 113.3,650.0 105.5,650.0 97.8,650.0 90.0,650.0" fill="#f1e05a" opacity="0.6" class="anim" style="animation-delay:600ms;"/>
<polygon points="90.0,650.0 97.8,650.0 105.5,650.0 113.3,650.0 121.0,650.0 128.8,650.0 136.5,650.0 144.3,650.0 152.0,455.5 159.8,455.4 167.5,455.1 175.3,447.0 183.0,447.0 190.8,448.2 198.5,438.9 206.3,439.0 214.0,439.6 221.8,439.6 229.6,439.6 237.3,439.6 245.1,439.6 252.8,445.6 260.6,445.6 268.3,443.3 276.1,443.3 283.8,443.3 291.6,443.6 299.3,443.6 307.1,444.1 314.8,444.1 322.6,444.1 330.3,444.1 338.1,444.1 345.8,444.1 353.6,437.5 361.3,437.5 369.1,437.5 376.9,437.5 384.6,437.5 392.4,437.5 400.1,437.5 407.9,438.4 415.6,438.5 423.4,438.3 431.1,439.3 438.9,439.3 446.6,439.3 454.4,439.3 462.1,439.3 469.9,439.3 477.6,439.3 485.4,439.3 493.1,439.3 500.9,439.3 508.7,439.3 516.4,439.3 524.2,439.3 531.9,439.4 539.7,439.4 547.4,439.4 555.2,439.4 562.9,439.4 570.7,440.7 578.4,441.1 586.2,441.1 593.9,441.1 601.7,441.1 609.4,441.1 617.2,441.1 624.9,441.1 632.7,441.1 640.4,442.0 648.2,442.0 656.0,442.0 663.7,442.0 671.5,442.0 679.2,442.0 687.0,442.0 694.7,442.0 702.5,442.0 710.2,442.0 718.0,442.0 725.7,442.0 733.5,442.0 741.2,442.0 749.0,442.0 756.7,442.0 764.5,442.0 772.2,441.8 780.0,441.5 780.0,454.9 772.2,456.5 764.5,458.2 756.7,458.2 749.0,458.2 741.2,458.2 733.5,458.2 725.7,458.2 718.0,458.2 710.2,458.2 702.5,458.2 694.7,458.2 687.0,458.2 679.2,458.2 671.5,458.2 663.7,458.2 656.0,458.2 648.2,458.2 640.4,458.2 632.7,457.4 624.9,457.4 617.2,457.4 609.4,457.4 601.7,457.4 593.9,457.4 586.2,457.4 578.4,457.4 570.7,457.0 562.9,455.8 555.2,455.8 547.4,455.8 539.7,455.8 531.9,455.8 524.2,455.9 516.4,455.9 508.7,455.9 500.9,455.9 493.1,455.9 485.4,455.9 477.6,455.9 469.9,455.9 462.1,455.9 454.4,455.9 446.6,455.9 438.9,455.9 431.1,455.9 423.4,454.9 415.6,455.1 407.9,455.0 400.1,454.3 392.4,454.3 384.6,455.4 376.9,455.4 369.1,455.4 361.3,455.6 353.6,455.6 345.8,469.7 338.1,469.7 330.3,469.7 322.6,469.7 314.8,469.7 307.1,469.7 299.3,469.7 291.6,469.7 283.8,469.5 276.1,469.5 268.3,469.5 260.6,473.5 252.8,473.0 245.1,460.6 237.3,460.6 229.6,460.6 221.8,460.6 214.0,460.6 206.3,460.2 198.5,460.1 190.8,477.2 183.0,476.0 175.3,476.0 167.5,489.0 159.8,488.0 152.0,488.4 144.3,650.0 136.5,650.0 128.8,650.0 121.0,650.0 113.3,650.0 105.5,650.0 97.8,650.0 90.0,650.0" fill="#3572A5" opacity="0.6" class="anim" style="animation-delay:700ms;"/>
<polygon points="90.0,650.0 97.8,650.0 105.5,650.0 113.3,650.0 121.0,650.0 128.8,650.0 136.5,650.0 144.3,650.0 152.0,442.3 159.8,442.0 167.5,441.6 175.3,439.5 183.0,439.5 190.8,439.4 198.5,432.3 206.3,432.2 214.0,432.6 221.8,432.6 229.6,432.6 237.3,432.6 245.1,432.6 252.8,439.3 260.6,439.3 268.3,437.4 276.1,437.4 283.8,437.4 291.6,437.3 299.3,437.3 307.1,437.1 314.8,437.1 322.6,437.1 330.3,437.1 338.1,437.1 345.8,437.1 353.6,428.7 361.3,428.6 369.1,428.5 376.9,428.5 384.6,428.5 392.4,427.3 400.1,427.3 407.9,427.1 415.6,427.1 423.4,427.1 431.1,427.0 438.9,427.0 446.6,427.0 454.4,427.0 462.1,427.0 469.9,427.0 477.6,427.0 485.4,427.0 493.1,427.0 500.9,427.0 508.7,427.0 516.4,427.0 524.2,427.0 531.9,427.0 539.7,427.1 547.4,427.1 555.2,427.1 562.9,427.1 570.7,428.4 578.4,428.9 586.2,428.9 593.9,428.9 601.7,428.9 609.4,428.9 617.2,428.9 624.9,428.9 632.7,428.9 640.4,428.7 648.2,428.7 656.0,428.7 663.7,428.7 671.5,428.7 679.2,428.7 687.0,428.7 694.7,428.7 702.5,428.7 710.2,428.7 718.0,428.7 725.7,428.7 733.5,428.7 741.2,428.7 749.0,428.7 756.7,428.7 764.5,428.7 772.2,427.8 780.0,426.8 780.0,441.5 772.2,441.8 764.5,442.0 756.7,442.0 749.0,442.0 741.2,442.0 733.5,442.0 725.7,442.0 718.0,442.0 710.2,442.0 702.5,442.0 694.7,442.0 687.0,442.0 679.2,442.0 671.5,442.0 663.7,442.0 656.0,442.0 648.2,442.0 640.4,442.0 632.7,441.1 624.9,441.1 617.2,441.1 609.4,441.1 601.7,441.1 593.9,441.1 586.2,441.1 578.4,441.1 570.7,440.7 562.9,439.4 555.2,439.4 547.4,439.4 539.7,439.4 531.9,439.4 524.2,439.3 516.4,439.3 508.7,439.3 500.9,439.3 493.1,439.3 485.4,439.3 477.6,439.3 469.9,439.3 462.1,439.3 454.4,439.3 446.6,439.3 438.9,439.3 431.1,439.3 423.4,438.3 415.6,438.5 407.9,438.4 400.1,437.5 392.4,437.5 384.6,437.5 376.9,437.5 369.1,437.5 361.3,437.5 353.6,437.5 345.8,444.1 338.1,444.1 330.3,444.1 322.6,444.1 314.8,444.1 307.1,444.1 299.3,443.6 291.6,443.6 283.8,443.3 276.1,443.3 268.3,443.3 260.6,445.6 252.8,445.6 245.1,439.6 237.3,439.6 229.6,439.6 221.8,439.6 214.0,439.6 206.3,439.0 198.5,438.9 190.8,448.2 183.0,447.0 175.3,447.0 167.5,455.1 159.8,455.4 152.0,455.5 144.3,650.0 136.5,650.0 128.8,650.0 121.0,650.0 113.3,650.0 105.5,650.0 97.8,650.0 90.0,650.0" fill="#663399" opacity="0.6" class="anim" style="animation-delay:800ms;"/>
<polygon points="90.0,650.0 97.8,650.0 105.5,650.0 113.3,650.0 121.0,650.0 128.8,650.0 136.5,650.0 144.3,650.0 152.0,436.6 159.8,436.3 167.5,435.9 175.3,432.2 183.0,432.2 190.8,432.2 198.5,426.2 206.3,426.1 214.0,426.0 221.8,426.0 229.6,426.0 237.3,426.0 245.1,426.0 252.8,430.8 260.6,430.7 268.3,429.3 276.1,429.3 283.8,429.3 291.6,429.2 299.3,429.2 307.1,428.9 314.8,428.9 322.6,428.8 330.3,428.8 338.1,428.8 345.8,428.8 353.6,423.0 361.3,422.9 369.1,422.9 376.9,422.9 384.6,422.9 392.4,422.0 400.1,422.0 407.9,421.9 415.6,421.9 423.4,421.9 431.1,421.8 438.9,421.8 446.6,421.8 454.4,421.8 462.1,421.8 469.9,421.8 477.6,421.8 485.4,421.8 493.1,421.8 500.9,421.8 508.7,421.8 516.4,421.8 524.2,421.8 531.9,421.7 539.7,421.8 547.4,421.8 555.2,421.8 562.9,421.8 570.7,423.2 578.4,423.6 586.2,423.6 593.9,423.6 601.7,423.6 609.4,423.6 617.2,423.6 624.9,423.6 632.7,423.6 640.4,423.5 648.2,423.5 656.0,423.5 663.7,423.5 671.5,423.5 679.2,423.5 687.0,423.5 694.7,423.5 702.5,423.5 710.2,423.5 718.0,423.5 725.7,423.5 733.5,423.5 741.2,423.5 749.0,423.5 756.7,423.5 764.5,423.5 772.2,422.8 780.0,422.1 780.0,426.8 772.2,427.8 764.5,428.7 756.7,428.7 749.0,428.7 741.2,428.7 733.5,428.7 725.7,428.7 718.0,428.7 710.2,428.7 702.5,428.7 694.7,428.7 687.0,428.7 679.2,428.7 671.5,428.7 663.7,428.7 656.0,428.7 648.2,428.7 640.4,428.7 632.7,428.9 624.9,428.9 617.2,428.9 609.4,428.9 601.7,428.9 593.9,428.9 586.2,428.9 578.4,428.9 570.7,428.4 562.9,427.1 555.2,427.1 547.4,427.1 539.7,427.1 531.9,427.0 524.2,427.0 516.4,427.0 508.7,427.0 500.9,427.0 493.1,427.0 485.4,427.0 477.6,427.0 469.9,427.0 462.1,427.0 454.4,427.0 446.6,427.0 438.9,427.0 431.1,427.0 423.4,427.1 415.6,427.1 407.9,427.1 400.1,427.3 392.4,427.3 384.6,428.5 376.9,428.5 369.1,428.5 361.3,428.6 353.6,428.7 345.8,437.1 338.1,437.1 330.3,437.1 322.6,437.1 314.8,437.1 307.1,437.1 299.3,437.3 291.6,437.3 283.8,437.4 276.1,437.4 268.3,437.4 260.6,439.3 252.8,439.3 245.1,432.6 237.3,432.6 229.6,432.6 221.8,432.6 214.0,432.6 206.3,432.2 198.5,432.3 190.8,439.4 183.0,439.5 175.3,439.5 167.5,441.6 159.8,442.0 152.0,442.3 144.3,650.0 136.5,650.0 128.8,650.0 121.0,650.0 113.3,650.0 105.5,650.0 97.8,650.0 90.0,650.0" fill="#083fa1" opacity="0.6" class="anim" style="animation-delay:900ms;"/>
<polygon points="90.0,650.0 97.8,650.0 105.5,650.0 113.3,650.0 121.0,650.0 128.8,650.0 136.5,650.0 144.3,650.0 152.0,428.3 159.8,428.1 167.5,427.8 175.3,425.3 183.0,425.3 190.8,425.2 198.5,421.1 206.3,421.1 214.0,421.0 221.8,421.0 229.6,421.0 237.3,421.0 245.1,421.0 252.8,424.3 260.6,424.2 268.3,423.3 276.1,423.3 283.8,423.3 291.6,423.2 299.3,423.2 307.1,423.0 314.8,423.0 322.6,422.9 330.3,422.9 338.1,422.9 345.8,422.9 353.6,418.9 361.3,418.9 369.1,418.8 376.9,418.8 384.6,418.8 392.4,418.3 400.1,418.3 407.9,418.2 415.6,418.2 423.4,418.2 431.1,418.1 438.9,418.1 446.6,418.1 454.4,418.1 462.1,418.1 469.9,418.1 477.6,418.1 485.4,418.1 493.1,418.1 500.9,418.1 508.7,418.1 516.4,418.1 524.2,418.1 531.9,418.1 539.7,418.1 547.4,418.1 555.2,418.1 562.9,418.1 570.7,418.0 578.4,418.0 586.2,418.0 593.9,418.0 601.7,418.0 609.4,418.0 617.2,418.0 624.9,418.0 632.7,418.0 640.4,417.9 648.2,417.9 656.0,417.9 663.7,417.9 671.5,417.9 679.2,417.9 687.0,417.9 694.7,417.9 702.5,417.9 710.2,417.9 718.0,417.9 725.7,417.9 733.5,417.9 741.2,417.9 749.0,417.9 756.7,417.9 764.5,417.9 772.2,417.3 780.0,416.7 780.0,422.1 772.2,422.8 764.5,423.5 756.7,423.5 749.0,423.5 741.2,423.5 733.5,423.5 725.7,423.5 718.0,423.5 710.2,423.5 702.5,423.5 694.7,423.5 687.0,423.5 679.2,423.5 671.5,423.5 663.7,423.5 656.0,423.5 648.2,423.5 640.4,423.5 632.7,423.6 624.9,423.6 617.2,423.6 609.4,423.6 601.7,423.6 593.9,423.6 586.2,423.6 578.4,423.6 570.7,423.2 562.9,421.8 555.2,421.8 547.4,421.8 539.7,421.8 531.9,421.7 524.2,421.8 516.4,421.8 508.7,421.8 500.9,421.8 493.1,421.8 485.4,421.8 477.6,421.8 469.9,421.8 462.1,421.8 454.4,421.8 446.6,421.8 438.9,421.8 431.1,421.8 423.4,421.9 415.6,421.9 407.9,421.9 400.1,422.0 392.4,422.0 384.6,422.9 376.9,422.9 369.1,422.9 361.3,422.9 353.6,423.0 345.8,428.8 338.1,428.8 330.3,428.8 322.6,428.8 314.8,428.9 307.1,428.9 299.3,429.2 291.6,429.2 283.8,429.3 276.1,429.3 268.3,429.3 260.6,430.7 252.8,430.8 245.1,426.0 237.3,426.0 229.6,426.0 221.8,426.0 214.0,426.0 206.3,426.1 198.5,426.2 190.8,432.2 183.0,432.2 175.3,432.2 167.5,435.9 159.8,436.3 152.0,436.6 144.3,650.0 136.5,650.0 128.8,650.0 121.0,650.0 113.3,650.0 105.5,650.0 97.8,650.0 90.0,650.0" fill="#F05138" opacity="0.6" class="anim" style="animation-delay:1000ms;"/>
<polygon points="90.0,650.0 97.8,650.0 105.5,650.0 113.3,650.0 121.0,650.0 128.8,650.0 136.5,650.0 144.3,650.0 152.0,418.7 159.8,418.6 167.5,418.5 175.3,417.3 183.0,417.3 190.8,417.2 198.5,415.3 206.3,415.3 214.0,415.2 221.8,415.2 229.6,415.2 237.3,415.2 245.1,415.2 252.8,416.8 260.6,416.8 268.3,416.3 276.1,416.3 283.8,416.3 291.6,416.3 299.3,416.3 307.1,416.2 314.8,416.2 322.6,416.2 330.3,416.2 338.1,416.2 345.8,416.2 353.6,414.2 361.3,414.2 369.1,414.2 376.9,414.2 384.6,414.2 392.4,413.9 400.1,413.9 407.9,413.9 415.6,413.9 423.4,413.9 431.1,413.9 438.9,413.9 446.6,413.9 454.4,413.9 462.1,413.9 469.9,413.9 477.6,413.9 485.4,413.9 493.1,413.9 500.9,413.9 508.7,413.9 516.4,413.9 524.2,413.9 531.9,413.8 539.7,413.8 547.4,413.8 555.2,413.8 562.9,413.8 570.7,413.8 578.4,413.8 586.2,413.8 593.9,413.8 601.7,413.8 609.4,413.8 617.2,413.8 624.9,413.8 632.7,413.8 640.4,413.8 648.2,413.8 656.0,413.8 663.7,413.8 671.5,413.8 679.2,413.8 687.0,413.8 694.7,413.8 702.5,413.8 710.2,413.8 718.0,413.8 725.7,413.8 733.5,413.8 741.2,413.8 749.0,413.8 756.7,413.8 764.5,413.8 772.2,413.6 780.0,413.4 780.0,416.7 772.2,417.3 764.5,417.9 756.7,417.9 749.0,417.9 741.2,417.9 733.5,417.9 725.7,417.9 718.0,417.9 710.2,417.9 702.5,417.9 694.7,417.9 687.0,417.9 679.2,417.9 671.5,417.9 663.7,417.9 656.0,417.9 648.2,417.9 640.4,417.9 632.7,418.0 624.9,418.0 617.2,418.0 609.4,418.0 601.7,418.0 593.9,418.0 586.2,418.0 578.4,418.0 570.7,418.0 562.9,418.1 555.2,418.1 547.4,418.1 539.7,418.1 531.9,418.1 524.2,418.1 516.4,418.1 508.7,418.1 500.9,418.1 493.1,418.1 485.4,418.1 477.6,418.1 469.9,418.1 462.1,418.1 454.4,418.1 446.6,418.1 438.9,418.1 431.1,418.1 423.4,418.2 415.6,418.2 407.9,418.2 400.1,418.3 392.4,418.3 384.6,418.8 376.9,418.8 369.1,418.8 361.3,418.9 353.6,418.9 345.8,422.9 338.1,422.9 330.3,422.9 322.6,422.9 314.8,423.0 307.1,423.0 299.3,423.2 291.6,423.2 283.8,423.3 276.1,423.3 268.3,423.3 260.6,424.2 252.8,424.3 245.1,421.0 237.3,421.0 229.6,421.0 221.8,421.0 214.0,421.0 206.3,421.1 198.5,421.1 190.8,425.2 183.0,425.3 175.3,425.3 167.5,427.8 159.8,428.1 152.0,428.3 144.3,650.0 136.5,650.0 128.8,650.0 121.0,650.0 113.3,650.0 105.5,650.0 97.8,650.0 90.0,650.0" fill="#6E4C13" opacity="0.6" class="anim" style="animation-delay:1100ms;"/>
<polygon points="90.0,650.0 97.8,650.0 105.5,650.0 113.3,650.0 121.0,650.0 128.8,650.0 136.5,650.0 144.3,650.0 152.0,414.4 159.8,414.4 167.5,414.3 175.3,413.7 183.0,413.7 190.8,413.7 198.5,412.7 206.3,412.7 214.0,412.7 221.8,412.7 229.6,412.7 237.3,412.7 245.1,412.7 252.8,413.5 260.6,413.4 268.3,413.2 276.1,413.2 283.8,413.2 291.6,413.2 299.3,413.2 307.1,413.1 314.8,413.1 322.6,413.1 330.3,413.1 338.1,413.1 345.8,413.1 353.6,412.2 361.3,412.1 369.1,412.1 376.9,412.1 384.6,412.1 392.4,412.0 400.1,412.0 407.9,412.0 415.6,412.0 423.4,412.0 431.1,412.0 438.9,412.0 446.6,412.0 454.4,412.0 462.1,412.0 469.9,412.0 477.6,412.0 485.4,412.0 493.1,412.0 500.9,412.0 508.7,412.0 516.4,412.0 524.2,412.0 531.9,411.9 539.7,411.9 547.4,411.9 555.2,411.9 562.9,411.9 570.7,411.9 578.4,411.9 586.2,411.9 593.9,411.9 601.7,411.9 609.4,411.9 617.2,411.9 624.9,411.9 632.7,411.9 640.4,411.9 648.2,411.9 656.0,411.9 663.7,411.9 671.5,411.9 679.2,411.9 687.0,411.9 694.7,411.9 702.5,411.9 710.2,411.9 718.0,411.9 725.7,411.9 733.5,411.9 741.2,411.9 749.0,411.9 756.7,411.9 764.5,411.9 772.2,411.9 780.0,411.9 780.0,413.4 772.2,413.6 764.5,413.8 756.7,413.8 749.0,413.8 741.2,413.8 733.5,413.8 725.7,413.8 718.0,413.8 710.2,413.8 702.5,413.8 694.7,413.8 687.0,413.8 679.2,413.8 671.5,413.8 663.7,413.8 656.0,413.8 648.2,413.8 640.4,413.8 632.7,413.8 624.9,413.8 617.2,413.8 609.4,413.8 601.7,413.8 593.9,413.8 586.2,413.8 578.4,413.8 570.7,413.8 562.9,413.8 555.2,413.8 547.4,413.8 539.7,413.8 531.9,413.8 524.2,413.9 516.4,413.9 508.7,413.9 500.9,413.9 493.1,413.9 485.4,413.9 477.6,413.9 469.9,413.9 462.1,413.9 454.4,413.9 446.6,413.9 438.9,413.9 431.1,413.9 423.4,413.9 415.6,413.9 407.9,413.9 400.1,413.9 392.4,413.9 384.6,414.2 376.9,414.2 369.1,414.2 361.3,414.2 353.6,414.2 345.8,416.2 338.1,416.2 330.3,416.2 322.6,416.2 314.8,416.2 307.1,416.2 299.3,416.3 291.6,416.3 283.8,416.3 276.1,416.3 268.3,416.3 260.6,416.8 252.8,416.8 245.1,415.2 237.3,415.2 229.6,415.2 221.8,415.2 214.0,415.2 206.3,415.3 198.5,415.3 190.8,417.2 183.0,417.3 175.3,417.3 167.5,418.5 159.8,418.6 152.0,418.7 144.3,650.0 136.5,650.0 128.8,650.0 121.0,650.0 113.3,650.0 105.5,650.0 97.8,650.0 90.0,650.0" fill="#b07219" opacity="0.6" class="anim" style="animation-delay:1200ms;"/>
<line x1="764.5" y1="100" x2="764.5" y2="650" stroke="#c9d1d9" stroke-width="1" stroke-dasharray="4,3" opacity="0.35"/>
<text x="772.2" y="112" text-anchor="middle" class="axis-label" opacity="0.6">Jul 19, 2026</text>
<text x="90.0" y="668" text-anchor="middle" class="axis-label" transform="rotate(-35 90.0 668)">2026-02</text>
<text x="322.6" y="668" text-anchor="middle" class="axis-label" transform="rotate(-35 322.6 668)">2026-03</text>
<text x="555.2" y="668" text-anchor="middle" class="axis-label" transform="rotate(-35 555.2 668)">2026-06</text>
<text x="764.5" y="668" text-anchor="middle" class="axis-label" transform="rotate(-35 764.5 668)">2026-07</text>
<line x1="796" y1="110" x2="824" y2="110" stroke="#3fb950" stroke-width="2"/>
<text x="832" y="116" class="legend-text">Lines Added</text>
<line x1="796" y1="140" x2="824" y2="140" stroke="#f85149" stroke-width="1.5"/>
<text x="832" y="146" class="legend-text">Lines Deleted</text>
<line x1="796" y1="170" x2="824" y2="170" stroke="#e3b341" stroke-width="1.5" stroke-dasharray="4,3"/>
<text x="832" y="176" class="legend-text">&#x2605; Stars</text>
<text x="796" y="200" class="subtitle">Languages</text>
<rect x="796" y="212" width="12" height="12" rx="2" fill="#e34c26" opacity="0.8" class="anim" style="animation-delay:800ms;"/>
<text x="814" y="223" class="legend-text">HTML (58%→56%)</text>
<rect x="796" y="234" width="12" height="12" rx="2" fill="#f1e05a" opacity="0.8" class="anim" style="animation-delay:880ms;"/>
<text x="814" y="245" class="legend-text">JavaScript (22%→25%)</text>
<rect x="796" y="256" width="12" height="12" rx="2" fill="#3572A5" opacity="0.8" class="anim" style="animation-delay:960ms;"/>
<text x="814" y="267" class="legend-text">Python (7%→6%)</text>
<rect x="796" y="278" width="12" height="12" rx="2" fill="#663399" opacity="0.8" class="anim" style="animation-delay:1040ms;"/>
<text x="814" y="289" class="legend-text">CSS (6%→6%)</text>
<rect x="796" y="300" width="12" height="12" rx="2" fill="#083fa1" opacity="0.8" class="anim" style="animation-delay:1120ms;"/>
<text x="814" y="311" class="legend-text">Markdown (2%→2%)</text>
<rect x="796" y="322" width="12" height="12" rx="2" fill="#F05138" opacity="0.8" class="anim" style="animation-delay:1200ms;"/>
<text x="814" y="333" class="legend-text">Swift (2%→2%)</text>
<rect x="796" y="344" width="12" height="12" rx="2" fill="#6E4C13" opacity="0.8" class="anim" style="animation-delay:1280ms;"/>
<text x="814" y="355" class="legend-text">Assembly (2%→1%)</text>
<rect x="796" y="366" width="12" height="12" rx="2" fill="#b07219" opacity="0.8" class="anim" style="animation-delay:1360ms;"/>
<text x="814" y="377" class="legend-text">Java (1%→1%)</text>
<text x="796" y="412" class="subtitle">Contributions</text>
<text x="796" y="432" class="axis-label">2023: 39</text>
<text x="796" y="452" class="axis-label">2024: 646</text>
<text x="796" y="472" class="axis-label">2025: 1,780</text>
<text x="796" y="492" class="axis-label">2026: 491</text>
<text x="796" y="522" class="subtitle">Statistics</text>
<text x="796" y="542" class="axis-label">Active weeks: 88</text>
<text x="796" y="562" class="axis-label">Add/Del ratio: 1.8x</text>
<text x="796" y="582" class="axis-label">Avg lines/wk: 18K</text>
<text x="796" y="602" class="axis-label">Peak: 2026-02-15</text>
<text x="796" y="622" class="axis-label">  (543K lines)</text>
<text x="90" y="742" class="axis-label">Total: +1,040,332 / -576,819 lines &#xb7; 2,956 contributions &#xb7; 80 repos &#xb7; &#x2605; 37</text>
</svg>