<svg xmlns="http://www.w3.org/2000/svg" width="1000" height="760" style="max-width: 100%;" viewBox="0 0 1000 760">

<defs>
  <linearGradient id="areaGrad" x1="0" y1="0" x2="0" y2="1">
    <stop offset="0%" stop-color="#58a6ff" stop-opacity="0.35"/>
    <stop offset="100%" stop-color="#58a6ff" stop-opacity="0.02"/>
  </linearGradient>
  <linearGradient id="addGrad" x1="0" y1="0" x2="0" y2="1">
    <stop offset="0%" stop-color="#3fb950" stop-opacity="0.35"/>
    <stop offset="100%" stop-color="#3fb950" stop-opacity="0.02"/>
  </linearGradient>
  <linearGradient id="delGrad" x1="0" y1="0" x2="0" y2="1">
    <stop offset="0%" stop-color="#f85149" stop-opacity="0.25"/>
    <stop offset="100%" stop-color="#f85149" stop-opacity="0.02"/>
  </linearGradient>
</defs>
<style>
  .title { font: bold 28px 'Segoe UI', Ubuntu, Sans-Serif; fill: #c9d1d9; }
  .subtitle { font: 600 20px 'Segoe UI', Ubuntu, Sans-Serif; fill: #c9d1d9; opacity: 0.8; }
  .axis-label { font: 18px 'Segoe UI', Ubuntu, Sans-Serif; fill: #c9d1d9; opacity: 0.7; }
  .legend-text { font: 14px 'Segoe UI', Ubuntu, Sans-Serif; fill: #c9d1d9; }
  .value-text { font: bold 18px 'Segoe UI', Ubuntu, Sans-Serif; fill: #c9d1d9; }
  .stat-value { font: bold 22px 'Segoe UI', Ubuntu, Sans-Serif; fill: #c9d1d9; }
  .stat-label { font: 18px 'Segoe UI', Ubuntu, Sans-Serif; fill: #c9d1d9; opacity: 0.7; }
  @keyframes fadeIn { from { opacity: 0; } to { opacity: 1; } }
  .anim { animation: fadeIn 0.6s ease-in-out forwards; opacity: 0; }
</style>

<rect x="0.5" y="0.5" rx="4.5" width="999" height="759" fill="#161b22" stroke="#21262d"/>
<text x="90" y="45" class="title">Activity History</text>
<text x="90" y="72" class="subtitle">Lines added vs deleted &amp; activity trends over time</text>
<line x1="90" y1="340.0" x2="780" y2="340.0" stroke="#21262d" stroke-width="1"/>
<text x="82" y="344.0" text-anchor="end" class="axis-label">0</text>
<line x1="90" y1="280.0" x2="780" y2="280.0" stroke="#21262d" stroke-width="1"/>
<text x="82" y="284.0" text-anchor="end" class="axis-label">452K</text>
<line x1="90" y1="220.0" x2="780" y2="220.0" stroke="#21262d" stroke-width="1"/>
<text x="82" y="224.0" text-anchor="end" class="axis-label">904K</text>
<line x1="90" y1="160.0" x2="780" y2="160.0" stroke="#21262d" stroke-width="1"/>
<text x="82" y="164.0" text-anchor="end" class="axis-label">1.4M</text>
<line x1="90" y1="100.0" x2="780" y2="100.0" stroke="#21262d" stroke-width="1"/>
<text x="82" y="104.0" text-anchor="end" class="axis-label">1.8M</text>
<polygon points="90.0,340.0 90.0,291.6 97.0,293.3 103.9,291.6 110.9,293.3 117.9,304.5 124.8,282.3 131.8,282.3 138.8,273.9 145.8,273.6 152.7,273.1 159.7,273.0 166.7,258.1 173.6,258.1 180.6,258.0 187.6,235.9 194.5,235.7 201.5,235.4 208.5,235.4 215.5,235.4 222.4,235.4 229.4,235.4 236.4,234.8 243.3,220.1 250.3,220.0 257.3,220.0 264.2,220.0 271.2,219.7 278.2,219.7 285.2,219.0 292.1,219.0 299.1,219.0 306.1,219.0 313.0,219.0 320.0,219.0 327.0,219.0 333.9,219.0 340.9,219.0 347.9,219.0 354.8,219.0 361.8,219.0 368.8,219.0 375.8,218.3 382.7,218.6 389.7,217.9 396.7,217.6 403.6,217.6 410.6,217.6 417.6,217.6 424.5,217.6 431.5,217.6 438.5,217.5 445.5,217.5 452.4,217.5 459.4,217.6 466.4,217.9 473.3,219.3 480.3,217.9 487.3,216.6 494.2,216.6 501.2,216.6 508.2,216.6 515.2,216.6 522.1,209.0 529.1,202.1 536.1,202.1 543.0,202.1 550.0,202.1 557.0,202.1 563.9,202.1 570.9,202.1 577.9,202.1 584.8,201.9 591.8,201.9 598.8,201.9 605.8,201.9 612.7,201.9 619.7,201.9 626.7,201.9 633.6,201.9 640.6,201.9 647.6,201.9 654.5,201.9 661.5,201.9 668.5,201.9 675.5,201.9 682.4,201.9 689.4,201.9 696.4,201.9 703.3,201.9 710.3,201.9 717.3,201.9 724.2,201.9 731.2,201.9 738.2,201.9 745.2,201.9 752.1,201.9 759.1,201.9 766.1,201.9 773.0,194.4 780.0,186.9 780.0,340.0" fill="url(#addGrad)" class="anim" style="animation-delay:200ms;"/>
<polyline points="90.0,291.6 97.0,293.3 103.9,291.6 110.9,293.3 117.9,304.5 124.8,282.3 131.8,282.3 138.8,273.9 145.8,273.6 152.7,273.1 159.7,273.0 166.7,258.1 173.6,258.1 180.6,258.0 187.6,235.9 194.5,235.7 201.5,235.4 208.5,235.4 215.5,235.4 222.4,235.4 229.4,235.4 236.4,234.8 243.3,220.1 250.3,220.0 257.3,220.0 264.2,220.0 271.2,219.7 278.2,219.7 285.2,219.0 292.1,219.0 299.1,219.0 306.1,219.0 313.0,219.0 320.0,219.0 327.0,219.0 333.9,219.0 340.9,219.0 347.9,219.0 354.8,219.0 361.8,219.0 368.8,219.0 375.8,218.3 382.7,218.6 389.7,217.9 396.7,217.6 403.6,217.6 410.6,217.6 417.6,217.6 424.5,217.6 431.5,217.6 438.5,217.5 445.5,217.5 452.4,217.5 459.4,217.6 466.4,217.9 473.3,219.3 480.3,217.9 487.3,216.6 494.2,216.6 501.2,216.6 508.2,216.6 515.2,216.6 522.1,209.0 529.1,202.1 536.1,202.1 543.0,202.1 550.0,202.1 557.0,202.1 563.9,202.1 570.9,202.1 577.9,202.1 584.8,201.9 591.8,201.9 598.8,201.9 605.8,201.9 612.7,201.9 619.7,201.9 626.7,201.9 633.6,201.9 640.6,201.9 647.6,201.9 654.5,201.9 661.5,201.9 668.5,201.9 675.5,201.9 682.4,201.9 689.4,201.9 696.4,201.9 703.3,201.9 710.3,201.9 717.3,201.9 724.2,201.9 731.2,201.9 738.2,201.9 745.2,201.9 752.1,201.9 759.1,201.9 766.1,201.9" fill="none" stroke="#3fb950" stroke-width="2" stroke-linejoin="round" class="anim" style="animation-delay:250ms;"/>
<polyline points="766.1,201.9 773.0,194.4 780.0,186.9" fill="none" stroke="#3fb950" stroke-width="1.5" stroke-dasharray="5,4" stroke-linejoin="round" opacity="0.6" class="anim" style="animation-delay:250ms;"/>
<polygon points="90.0,340.0 90.0,326.4 97.0,327.8 103.9,326.4 110.9,327.8 117.9,333.6 124.8,324.7 131.8,324.7 138.8,323.7 145.8,323.4 152.7,323.1 159.7,323.1 166.7,307.0 173.6,307.0 180.6,307.0 187.6,288.8 194.5,288.7 201.5,288.7 208.5,288.7 215.5,288.7 222.4,288.7 229.4,288.7 236.4,279.2 243.3,264.7 250.3,264.6 257.3,264.6 264.2,264.6 271.2,264.5 278.2,264.5 285.2,264.5 292.1,264.4 299.1,264.4 306.1,264.4 313.0,264.4 320.0,264.4 327.0,264.4 333.9,264.4 340.9,264.4 347.9,264.4 354.8,264.4 361.8,264.4 368.8,264.4 375.8,264.4 382.7,264.5 389.7,264.0 396.7,264.0 403.6,264.0 410.6,264.0 417.6,264.0 424.5,264.0 431.5,264.0 438.5,264.0 445.5,264.0 452.4,264.0 459.4,264.0 466.4,264.1 473.3,264.9 480.3,264.4 487.3,263.6 494.2,263.5 501.2,263.5 508.2,263.5 515.2,263.5 522.1,263.4 529.1,263.4 536.1,263.4 543.0,263.4 550.0,263.4 557.0,263.4 563.9,263.4 570.9,263.4 577.9,263.4 584.8,263.4 591.8,263.4 598.8,263.4 605.8,263.4 612.7,263.4 619.7,263.4 626.7,263.4 633.6,263.4 640.6,263.4 647.6,263.4 654.5,263.4 661.5,263.4 668.5,263.4 675.5,263.4 682.4,263.4 689.4,263.4 696.4,263.4 703.3,263.4 710.3,263.4 717.3,263.4 724.2,263.4 731.2,263.4 738.2,263.4 745.2,263.4 752.1,263.4 759.1,263.4 766.1,263.4 773.0,258.3 780.0,253.1 780.0,340.0" fill="url(#delGrad)" class="anim" style="animation-delay:300ms;"/>
<polyline points="90.0,326.4 97.0,327.8 103.9,326.4 110.9,327.8 117.9,333.6 124.8,324.7 131.8,324.7 138.8,323.7 145.8,323.4 152.7,323.1 159.7,323.1 166.7,307.0 173.6,307.0 180.6,307.0 187.6,288.8 194.5,288.7 201.5,288.7 208.5,288.7 215.5,288.7 222.4,288.7 229.4,288.7 236.4,279.2 243.3,264.7 250.3,264.6 257.3,264.6 264.2,264.6 271.2,264.5 278.2,264.5 285.2,264.5 292.1,264.4 299.1,264.4 306.1,264.4 313.0,264.4 320.0,264.4 327.0,264.4 333.9,264.4 340.9,264.4 347.9,264.4 354.8,264.4 361.8,264.4 368.8,264.4 375.8,264.4 382.7,264.5 389.7,264.0 396.7,264.0 403.6,264.0 410.6,264.0 417.6,264.0 424.5,264.0 431.5,264.0 438.5,264.0 445.5,264.0 452.4,264.0 459.4,264.0 466.4,264.1 473.3,264.9 480.3,264.4 487.3,263.6 494.2,263.5 501.2,263.5 508.2,263.5 515.2,263.5 522.1,263.4 529.1,263.4 536.1,263.4 543.0,263.4 550.0,263.4 557.0,263.4 563.9,263.4 570.9,263.4 577.9,263.4 584.8,263.4 591.8,263.4 598.8,263.4 605.8,263.4 612.7,263.4 619.7,263.4 626.7,263.4 633.6,263.4 640.6,263.4 647.6,263.4 654.5,263.4 661.5,263.4 668.5,263.4 675.5,263.4 682.4,263.4 689.4,263.4 696.4,263.4 703.3,263.4 710.3,263.4 717.3,263.4 724.2,263.4 731.2,263.4 738.2,263.4 745.2,263.4 752.1,263.4 759.1,263.4 766.1,263.4" fill="none" stroke="#f85149" stroke-width="1.5" stroke-linejoin="round" class="anim" style="animation-delay:350ms;"/>
<polyline points="766.1,263.4 773.0,258.3 780.0,253.1" fill="none" stroke="#f85149" stroke-width="1" stroke-dasharray="5,4" stroke-linejoin="round" opacity="0.6" class="anim" style="animation-delay:350ms;"/>
<polyline points="90.0,340.0 97.0,340.0 103.9,340.0 110.9,340.0 117.9,340.0 124.8,340.0 131.8,340.0 138.8,340.0 145.8,308.0 152.7,308.0 159.7,308.0 166.7,308.0 173.6,308.0 180.6,308.0 187.6,308.0 194.5,308.0 201.5,308.0 208.5,308.0 215.5,308.0 222.4,308.0 229.4,308.0 236.4,308.0 243.3,308.0 250.3,308.0 257.3,308.0 264.2,308.0 271.2,308.0 278.2,308.0 285.2,308.0 292.1,308.0 299.1,308.0 306.1,308.0 313.0,308.0 320.0,308.0 327.0,276.0 333.9,276.0 340.9,276.0 347.9,276.0 354.8,276.0 361.8,276.0 368.8,276.0 375.8,276.0 382.7,244.0 389.7,244.0 396.7,244.0 403.6,244.0 410.6,244.0 417.6,244.0 424.5,244.0 431.5,244.0 438.5,244.0 445.5,244.0 452.4,244.0 459.4,244.0 466.4,244.0 473.3,244.0 480.3,244.0 487.3,244.0 494.2,180.0 501.2,180.0 508.2,180.0 515.2,180.0 522.1,180.0 529.1,180.0 536.1,180.0 543.0,180.0 550.0,180.0 557.0,180.0 563.9,180.0 570.9,180.0 577.9,180.0 584.8,180.0 591.8,180.0 598.8,180.0 605.8,180.0 612.7,180.0 619.7,180.0 626.7,180.0 633.6,180.0 640.6,180.0 647.6,180.0 654.5,180.0 661.5,180.0 668.5,180.0 675.5,180.0 682.4,180.0 689.4,180.0 696.4,180.0 703.3,180.0 710.3,180.0 717.3,180.0 724.2,180.0 731.2,180.0 738.2,180.0 745.2,180.0 752.1,180.0 759.1,180.0 766.1,180.0" fill="none" stroke="#e3b341" stroke-width="1.5" stroke-dasharray="4,3" stroke-linejoin="round" class="anim" style="animation-delay:400ms;"/>
<polyline points="766.1,180.0 773.0,180.0 780.0,148.0" fill="none" stroke="#e3b341" stroke-width="1" stroke-dasharray="3,5" stroke-linejoin="round" opacity="0.5" class="anim" style="animation-delay:400ms;"/>
<text x="90" y="90" class="subtitle">Lines Added vs Deleted (per snapshot)</text>
<text x="90" y="400" class="subtitle">Programming Language Development (%)</text>
<line x1="90" y1="650.0" x2="780" y2="650.0" stroke="#21262d" stroke-width="1"/>
<text x="82" y="654.0" text-anchor="end" class="axis-label">0%</text>
<line x1="90" y1="590.0" x2="780" y2="590.0" stroke="#21262d" stroke-width="1"/>
<text x="82" y="594.0" text-anchor="end" class="axis-label">25%</text>
<line x1="90" y1="530.0" x2="780" y2="530.0" stroke="#21262d" stroke-width="1"/>
<text x="82" y="534.0" text-anchor="end" class="axis-label">50%</text>
<line x1="90" y1="470.0" x2="780" y2="470.0" stroke="#21262d" stroke-width="1"/>
<text x="82" y="474.0" text-anchor="end" class="axis-label">75%</text>
<line x1="90" y1="410.0" x2="780" y2="410.0" stroke="#21262d" stroke-width="1"/>
<text x="82" y="414.0" text-anchor="end" class="axis-label">100%</text>
<polygon points="90.0,650.0 97.0,650.0 103.9,650.0 110.9,650.0 117.9,650.0 124.8,650.0 131.8,650.0 138.8,650.0 145.8,528.2 152.7,528.5 159.7,529.7 166.7,499.3 173.6,499.3 180.6,502.9 187.6,485.0 194.5,485.1 201.5,485.4 208.5,485.4 215.5,485.4 222.4,485.4 229.4,485.4 236.4,496.4 243.3,496.7 250.3,491.0 257.3,491.0 264.2,491.0 271.2,491.7 278.2,491.8 285.2,494.0 292.1,494.0 299.1,494.4 306.1,494.4 313.0,494.4 320.0,494.4 327.0,507.6 333.9,507.6 340.9,507.9 347.9,507.9 354.8,507.9 361.8,506.3 368.8,506.4 375.8,506.8 382.7,506.9 389.7,506.8 396.7,507.5 403.6,507.5 410.6,507.5 417.6,507.5 424.5,507.5 431.5,507.5 438.5,507.5 445.5,507.5 452.4,507.5 459.4,507.5 466.4,507.5 473.3,507.5 480.3,507.5 487.3,508.6 494.2,508.6 501.2,508.6 508.2,508.6 515.2,508.6 522.1,509.5 529.1,509.8 536.1,509.8 543.0,509.8 550.0,509.8 557.0,509.8 563.9,509.8 570.9,509.8 577.9,509.8 584.8,510.9 591.8,510.9 598.8,510.9 605.8,510.9 612.7,510.9 619.7,510.9 626.7,510.9 633.6,510.9 640.6,510.9 647.6,510.9 654.5,510.9 661.5,510.9 668.5,510.9 675.5,510.9 682.4,510.9 689.4,510.9 696.4,510.9 703.3,510.9 710.3,510.9 717.3,510.9 724.2,510.9 731.2,510.9 738.2,510.9 745.2,510.9 752.1,510.9 759.1,510.9 766.1,510.9 773.0,512.9 780.0,514.9 780.0,650.0 773.0,650.0 766.1,650.0 759.1,650.0 752.1,650.0 745.2,650.0 738.2,650.0 731.2,650.0 724.2,650.0 717.3,650.0 710.3,650.0 703.3,650.0 696.4,650.0 689.4,650.0 682.4,650.0 675.5,650.0 668.5,650.0 661.5,650.0 654.5,650.0 647.6,650.0 640.6,650.0 633.6,650.0 626.7,650.0 619.7,650.0 612.7,650.0 605.8,650.0 598.8,650.0 591.8,650.0 584.8,650.0 577.9,650.0 570.9,650.0 563.9,650.0 557.0,650.0 550.0,650.0 543.0,650.0 536.1,650.0 529.1,650.0 522.1,650.0 515.2,650.0 508.2,650.0 501.2,650.0 494.2,650.0 487.3,650.0 480.3,650.0 473.3,650.0 466.4,650.0 459.4,650.0 452.4,650.0 445.5,650.0 438.5,650.0 431.5,650.0 424.5,650.0 417.6,650.0 410.6,650.0 403.6,650.0 396.7,650.0 389.7,650.0 382.7,650.0 375.8,650.0 368.8,650.0 361.8,650.0 354.8,650.0 347.9,650.0 340.9,650.0 333.9,650.0 327.0,650.0 320.0,650.0 313.0,650.0 306.1,650.0 299.1,650.0 292.1,650.0 285.2,650.0 278.2,650.0 271.2,650.0 264.2,650.0 257.3,650.0 250.3,650.0 243.3,650.0 236.4,650.0 229.4,650.0 222.4,650.0 215.5,650.0 208.5,650.0 201.5,650.0 194.5,650.0 187.6,650.0 180.6,650.0 173.6,650.0 166.7,650.0 159.7,650.0 152.7,650.0 145.8,650.0 138.8,650.0 131.8,650.0 124.8,650.0 117.9,650.0 110.9,650.0 103.9,650.0 97.0,650.0 90.0,650.0" fill="#e34c26" opacity="0.6" class="anim" style="animation-delay:500ms;"/>
<polygon points="90.0,650.0 97.0,650.0 103.9,650.0 110.9,650.0 117.9,650.0 124.8,650.0 131.8,650.0 138.8,650.0 145.8,488.4 152.7,488.0 159.7,489.0 166.7,476.0 173.6,476.0 180.6,477.2 187.6,460.1 194.5,460.2 201.5,460.6 208.5,460.6 215.5,460.6 222.4,460.6 229.4,460.6 236.4,473.0 243.3,473.5 250.3,469.5 257.3,469.5 264.2,469.5 271.2,469.7 278.2,469.7 285.2,469.7 292.1,469.7 299.1,469.7 306.1,469.7 313.0,469.7 320.0,469.7 327.0,455.6 333.9,455.6 340.9,455.4 347.9,455.4 354.8,455.4 361.8,454.3 368.8,454.3 375.8,455.0 382.7,455.1 389.7,454.9 396.7,455.9 403.6,455.9 410.6,455.9 417.6,455.9 424.5,455.9 431.5,455.9 438.5,455.9 445.5,455.9 452.4,455.9 459.4,455.9 466.4,455.9 473.3,455.9 480.3,455.9 487.3,455.8 494.2,455.8 501.2,455.8 508.2,455.8 515.2,455.8 522.1,457.0 529.1,457.4 536.1,457.4 543.0,457.4 550.0,457.4 557.0,457.4 563.9,457.4 570.9,457.4 577.9,457.4 584.8,458.2 591.8,458.2 598.8,458.2 605.8,458.2 612.7,458.2 619.7,458.2 626.7,458.2 633.6,458.2 640.6,458.2 647.6,458.2 654.5,458.2 661.5,458.2 668.5,458.2 675.5,458.2 682.4,458.2 689.4,458.2 696.4,458.2 703.3,458.2 710.3,458.2 717.3,458.2 724.2,458.2 731.2,458.2 738.2,458.2 745.2,458.2 752.1,458.2 759.1,458.2 766.1,458.2 773.0,456.6 780.0,455.1 780.0,514.9 773.0,512.9 766.1,510.9 759.1,510.9 752.1,510.9 745.2,510.9 738.2,510.9 731.2,510.9 724.2,510.9 717.3,510.9 710.3,510.9 703.3,510.9 696.4,510.9 689.4,510.9 682.4,510.9 675.5,510.9 668.5,510.9 661.5,510.9 654.5,510.9 647.6,510.9 640.6,510.9 633.6,510.9 626.7,510.9 619.7,510.9 612.7,510.9 605.8,510.9 598.8,510.9 591.8,510.9 584.8,510.9 577.9,509.8 570.9,509.8 563.9,509.8 557.0,509.8 550.0,509.8 543.0,509.8 536.1,509.8 529.1,509.8 522.1,509.5 515.2,508.6 508.2,508.6 501.2,508.6 494.2,508.6 487.3,508.6 480.3,507.5 473.3,507.5 466.4,507.5 459.4,507.5 452.4,507.5 445.5,507.5 438.5,507.5 431.5,507.5 424.5,507.5 417.6,507.5 410.6,507.5 403.6,507.5 396.7,507.5 389.7,506.8 382.7,506.9 375.8,506.8 368.8,506.4 361.8,506.3 354.8,507.9 347.9,507.9 340.9,507.9 333.9,507.6 327.0,507.6 320.0,494.4 313.0,494.4 306.1,494.4 299.1,494.4 292.1,494.0 285.2,494.0 278.2,491.8 271.2,491.7 264.2,491.0 257.3,491.0 250.3,491.0 243.3,496.7 236.4,496.4 229.4,485.4 222.4,485.4 215.5,485.4 208.5,485.4 201.5,485.4 194.5,485.1 187.6,485.0 180.6,502.9 173.6,499.3 166.7,499.3 159.7,529.7 152.7,528.5 145.8,528.2 138.8,650.0 131.8,650.0 124.8,650.0 117.9,650.0 110.9,650.0 103.9,650.0 97.0,650.0 90.0,650.0" fill="#f1e05a" opacity="0.6" class="anim" style="animation-delay:600ms;"/>
<polygon points="90.0,650.0 97.0,650.0 103.9,650.0 110.9,650.0 117.9,650.0 124.8,650.0 131.8,650.0 138.8,650.0 145.8,455.5 152.7,455.4 159.7,455.1 166.7,447.0 173.6,447.0 180.6,448.2 187.6,438.9 194.5,439.0 201.5,439.6 208.5,439.6 215.5,439.6 222.4,439.6 229.4,439.6 236.4,445.6 243.3,445.6 250.3,443.3 257.3,443.3 264.2,443.3 271.2,443.6 278.2,443.6 285.2,444.1 292.1,444.1 299.1,444.1 306.1,444.1 313.0,444.1 320.0,444.1 327.0,437.5 333.9,437.5 340.9,437.5 347.9,437.5 354.8,437.5 361.8,437.5 368.8,437.5 375.8,438.4 382.7,438.5 389.7,438.3 396.7,439.3 403.6,439.3 410.6,439.3 417.6,439.3 424.5,439.3 431.5,439.3 438.5,439.3 445.5,439.3 452.4,439.3 459.4,439.3 466.4,439.3 473.3,439.3 480.3,439.3 487.3,439.4 494.2,439.4 501.2,439.4 508.2,439.4 515.2,439.4 522.1,440.7 529.1,441.1 536.1,441.1 543.0,441.1 550.0,441.1 557.0,441.1 563.9,441.1 570.9,441.1 577.9,441.1 584.8,442.0 591.8,442.0 598.8,442.0 605.8,442.0 612.7,442.0 619.7,442.0 626.7,442.0 633.6,442.0 640.6,442.0 647.6,442.0 654.5,442.0 661.5,442.0 668.5,442.0 675.5,442.0 682.4,442.0 689.4,442.0 696.4,442.0 703.3,442.0 710.3,442.0 717.3,442.0 724.2,442.0 731.2,442.0 738.2,442.0 745.2,442.0 752.1,442.0 759.1,442.0 766.1,442.0 773.0,441.9 780.0,441.7 780.0,455.1 773.0,456.6 766.1,458.2 759.1,458.2 752.1,458.2 745.2,458.2 738.2,458.2 731.2,458.2 724.2,458.2 717.3,458.2 710.3,458.2 703.3,458.2 696.4,458.2 689.4,458.2 682.4,458.2 675.5,458.2 668.5,458.2 661.5,458.2 654.5,458.2 647.6,458.2 640.6,458.2 633.6,458.2 626.7,458.2 619.7,458.2 612.7,458.2 605.8,458.2 598.8,458.2 591.8,458.2 584.8,458.2 577.9,457.4 570.9,457.4 563.9,457.4 557.0,457.4 550.0,457.4 543.0,457.4 536.1,457.4 529.1,457.4 522.1,457.0 515.2,455.8 508.2,455.8 501.2,455.8 494.2,455.8 487.3,455.8 480.3,455.9 473.3,455.9 466.4,455.9 459.4,455.9 452.4,455.9 445.5,455.9 438.5,455.9 431.5,455.9 424.5,455.9 417.6,455.9 410.6,455.9 403.6,455.9 396.7,455.9 389.7,454.9 382.7,455.1 375.8,455.0 368.8,454.3 361.8,454.3 354.8,455.4 347.9,455.4 340.9,455.4 333.9,455.6 327.0,455.6 320.0,469.7 313.0,469.7 306.1,469.7 299.1,469.7 292.1,469.7 285.2,469.7 278.2,469.7 271.2,469.7 264.2,469.5 257.3,469.5 250.3,469.5 243.3,473.5 236.4,473.0 229.4,460.6 222.4,460.6 215.5,460.6 208.5,460.6 201.5,460.6 194.5,460.2 187.6,460.1 180.6,477.2 173.6,476.0 166.7,476.0 159.7,489.0 152.7,488.0 145.8,488.4 138.8,650.0 131.8,650.0 124.8,650.0 117.9,650.0 110.9,650.0 103.9,650.0 97.0,650.0 90.0,650.0" fill="#3572A5" opacity="0.6" class="anim" style="animation-delay:700ms;"/>
<polygon points="90.0,650.0 97.0,650.0 103.9,650.0 110.9,650.0 117.9,650.0 124.8,650.0 131.8,650.0 138.8,650.0 145.8,442.3 152.7,442.0 159.7,441.6 166.7,439.5 173.6,439.5 180.6,439.4 187.6,432.3 194.5,432.2 201.5,432.6 208.5,432.6 215.5,432.6 222.4,432.6 229.4,432.6 236.4,439.3 243.3,439.3 250.3,437.4 257.3,437.4 264.2,437.4 271.2,437.3 278.2,437.3 285.2,437.1 292.1,437.1 299.1,437.1 306.1,437.1 313.0,437.1 320.0,437.1 327.0,428.7 333.9,428.6 340.9,428.5 347.9,428.5 354.8,428.5 361.8,427.3 368.8,427.3 375.8,427.1 382.7,427.1 389.7,427.1 396.7,427.0 403.6,427.0 410.6,427.0 417.6,427.0 424.5,427.0 431.5,427.0 438.5,427.0 445.5,427.0 452.4,427.0 459.4,427.0 466.4,427.0 473.3,427.0 480.3,427.0 487.3,427.0 494.2,427.1 501.2,427.1 508.2,427.1 515.2,427.1 522.1,428.4 529.1,428.9 536.1,428.9 543.0,428.9 550.0,428.9 557.0,428.9 563.9,428.9 570.9,428.9 577.9,428.9 584.8,428.7 591.8,428.7 598.8,428.7 605.8,428.7 612.7,428.7 619.7,428.7 626.7,428.7 633.6,428.7 640.6,428.7 647.6,428.7 654.5,428.7 661.5,428.7 668.5,428.7 675.5,428.7 682.4,428.7 689.4,428.7 696.4,428.7 703.3,428.7 710.3,428.7 717.3,428.7 724.2,428.7 731.2,428.7 738.2,428.7 745.2,428.7 752.1,428.7 759.1,428.7 766.1,428.7 773.0,427.8 780.0,426.9 780.0,441.7 773.0,441.9 766.1,442.0 759.1,442.0 752.1,442.0 745.2,442.0 738.2,442.0 731.2,442.0 724.2,442.0 717.3,442.0 710.3,442.0 703.3,442.0 696.4,442.0 689.4,442.0 682.4,442.0 675.5,442.0 668.5,442.0 661.5,442.0 654.5,442.0 647.6,442.0 640.6,442.0 633.6,442.0 626.7,442.0 619.7,442.0 612.7,442.0 605.8,442.0 598.8,442.0 591.8,442.0 584.8,442.0 577.9,441.1 570.9,441.1 563.9,441.1 557.0,441.1 550.0,441.1 543.0,441.1 536.1,441.1 529.1,441.1 522.1,440.7 515.2,439.4 508.2,439.4 501.2,439.4 494.2,439.4 487.3,439.4 480.3,439.3 473.3,439.3 466.4,439.3 459.4,439.3 452.4,439.3 445.5,439.3 438.5,439.3 431.5,439.3 424.5,439.3 417.6,439.3 410.6,439.3 403.6,439.3 396.7,439.3 389.7,438.3 382.7,438.5 375.8,438.4 368.8,437.5 361.8,437.5 354.8,437.5 347.9,437.5 340.9,437.5 333.9,437.5 327.0,437.5 320.0,444.1 313.0,444.1 306.1,444.1 299.1,444.1 292.1,444.1 285.2,444.1 278.2,443.6 271.2,443.6 264.2,443.3 257.3,443.3 250.3,443.3 243.3,445.6 236.4,445.6 229.4,439.6 222.4,439.6 215.5,439.6 208.5,439.6 201.5,439.6 194.5,439.0 187.6,438.9 180.6,448.2 173.6,447.0 166.7,447.0 159.7,455.1 152.7,455.4 145.8,455.5 138.8,650.0 131.8,650.0 124.8,650.0 117.9,650.0 110.9,650.0 103.9,650.0 97.0,650.0 90.0,650.0" fill="#663399" opacity="0.6" class="anim" style="animation-delay:800ms;"/>
<polygon points="90.0,650.0 97.0,650.0 103.9,650.0 110.9,650.0 117.9,650.0 124.8,650.0 131.8,650.0 138.8,650.0 145.8,436.6 152.7,436.3 159.7,435.9 166.7,432.2 173.6,432.2 180.6,432.2 187.6,426.2 194.5,426.1 201.5,426.0 208.5,426.0 215.5,426.0 222.4,426.0 229.4,426.0 236.4,430.8 243.3,430.7 250.3,429.3 257.3,429.3 264.2,429.3 271.2,429.2 278.2,429.2 285.2,428.9 292.1,428.9 299.1,428.8 306.1,428.8 313.0,428.8 320.0,428.8 327.0,423.0 333.9,422.9 340.9,422.9 347.9,422.9 354.8,422.9 361.8,422.0 368.8,422.0 375.8,421.9 382.7,421.9 389.7,421.9 396.7,421.8 403.6,421.8 410.6,421.8 417.6,421.8 424.5,421.8 431.5,421.8 438.5,421.8 445.5,421.8 452.4,421.8 459.4,421.8 466.4,421.8 473.3,421.8 480.3,421.8 487.3,421.7 494.2,421.8 501.2,421.8 508.2,421.8 515.2,421.8 522.1,423.2 529.1,423.6 536.1,423.6 543.0,423.6 550.0,423.6 557.0,423.6 563.9,423.6 570.9,423.6 577.9,423.6 584.8,423.5 591.8,423.5 598.8,423.5 605.8,423.5 612.7,423.5 619.7,423.5 626.7,423.5 633.6,423.5 640.6,423.5 647.6,423.5 654.5,423.5 661.5,423.5 668.5,423.5 675.5,423.5 682.4,423.5 689.4,423.5 696.4,423.5 703.3,423.5 710.3,423.5 717.3,423.5 724.2,423.5 731.2,423.5 738.2,423.5 745.2,423.5 752.1,423.5 759.1,423.5 766.1,423.5 773.0,422.9 780.0,422.2 780.0,426.9 773.0,427.8 766.1,428.7 759.1,428.7 752.1,428.7 745.2,428.7 738.2,428.7 731.2,428.7 724.2,428.7 717.3,428.7 710.3,428.7 703.3,428.7 696.4,428.7 689.4,428.7 682.4,428.7 675.5,428.7 668.5,428.7 661.5,428.7 654.5,428.7 647.6,428.7 640.6,428.7 633.6,428.7 626.7,428.7 619.7,428.7 612.7,428.7 605.8,428.7 598.8,428.7 591.8,428.7 584.8,428.7 577.9,428.9 570.9,428.9 563.9,428.9 557.0,428.9 550.0,428.9 543.0,428.9 536.1,428.9 529.1,428.9 522.1,428.4 515.2,427.1 508.2,427.1 501.2,427.1 494.2,427.1 487.3,427.0 480.3,427.0 473.3,427.0 466.4,427.0 459.4,427.0 452.4,427.0 445.5,427.0 438.5,427.0 431.5,427.0 424.5,427.0 417.6,427.0 410.6,427.0 403.6,427.0 396.7,427.0 389.7,427.1 382.7,427.1 375.8,427.1 368.8,427.3 361.8,427.3 354.8,428.5 347.9,428.5 340.9,428.5 333.9,428.6 327.0,428.7 320.0,437.1 313.0,437.1 306.1,437.1 299.1,437.1 292.1,437.1 285.2,437.1 278.2,437.3 271.2,437.3 264.2,437.4 257.3,437.4 250.3,437.4 243.3,439.3 236.4,439.3 229.4,432.6 222.4,432.6 215.5,432.6 208.5,432.6 201.5,432.6 194.5,432.2 187.6,432.3 180.6,439.4 173.6,439.5 166.7,439.5 159.7,441.6 152.7,442.0 145.8,442.3 138.8,650.0 131.8,650.0 124.8,650.0 117.9,650.0 110.9,650.0 103.9,650.0 97.0,650.0 90.0,650.0" fill="#083fa1" opacity="0.6" class="anim" style="animation-delay:900ms;"/>
<polygon points="90.0,650.0 97.0,650.0 103.9,650.0 110.9,650.0 117.9,650.0 124.8,650.0 131.8,650.0 138.8,650.0 145.8,428.3 152.7,428.1 159.7,427.8 166.7,425.3 173.6,425.3 180.6,425.2 187.6,421.1 194.5,421.1 201.5,421.0 208.5,421.0 215.5,421.0 222.4,421.0 229.4,421.0 236.4,424.3 243.3,424.2 250.3,423.3 257.3,423.3 264.2,423.3 271.2,423.2 278.2,423.2 285.2,423.0 292.1,423.0 299.1,422.9 306.1,422.9 313.0,422.9 320.0,422.9 327.0,418.9 333.9,418.9 340.9,418.8 347.9,418.8 354.8,418.8 361.8,418.3 368.8,418.3 375.8,418.2 382.7,418.2 389.7,418.2 396.7,418.1 403.6,418.1 410.6,418.1 417.6,418.1 424.5,418.1 431.5,418.1 438.5,418.1 445.5,418.1 452.4,418.1 459.4,418.1 466.4,418.1 473.3,418.1 480.3,418.1 487.3,418.1 494.2,418.1 501.2,418.1 508.2,418.1 515.2,418.1 522.1,418.0 529.1,418.0 536.1,418.0 543.0,418.0 550.0,418.0 557.0,418.0 563.9,418.0 570.9,418.0 577.9,418.0 584.8,417.9 591.8,417.9 598.8,417.9 605.8,417.9 612.7,417.9 619.7,417.9 626.7,417.9 633.6,417.9 640.6,417.9 647.6,417.9 654.5,417.9 661.5,417.9 668.5,417.9 675.5,417.9 682.4,417.9 689.4,417.9 696.4,417.9 703.3,417.9 710.3,417.9 717.3,417.9 724.2,417.9 731.2,417.9 738.2,417.9 745.2,417.9 752.1,417.9 759.1,417.9 766.1,417.9 773.0,417.3 780.0,416.7 780.0,422.2 773.0,422.9 766.1,423.5 759.1,423.5 752.1,423.5 745.2,423.5 738.2,423.5 731.2,423.5 724.2,423.5 717.3,423.5 710.3,423.5 703.3,423.5 696.4,423.5 689.4,423.5 682.4,423.5 675.5,423.5 668.5,423.5 661.5,423.5 654.5,423.5 647.6,423.5 640.6,423.5 633.6,423.5 626.7,423.5 619.7,423.5 612.7,423.5 605.8,423.5 598.8,423.5 591.8,423.5 584.8,423.5 577.9,423.6 570.9,423.6 563.9,423.6 557.0,423.6 550.0,423.6 543.0,423.6 536.1,423.6 529.1,423.6 522.1,423.2 515.2,421.8 508.2,421.8 501.2,421.8 494.2,421.8 487.3,421.7 480.3,421.8 473.3,421.8 466.4,421.8 459.4,421.8 452.4,421.8 445.5,421.8 438.5,421.8 431.5,421.8 424.5,421.8 417.6,421.8 410.6,421.8 403.6,421.8 396.7,421.8 389.7,421.9 382.7,421.9 375.8,421.9 368.8,422.0 361.8,422.0 354.8,422.9 347.9,422.9 340.9,422.9 333.9,422.9 327.0,423.0 320.0,428.8 313.0,428.8 306.1,428.8 299.1,428.8 292.1,428.9 285.2,428.9 278.2,429.2 271.2,429.2 264.2,429.3 257.3,429.3 250.3,429.3 243.3,430.7 236.4,430.8 229.4,426.0 222.4,426.0 215.5,426.0 208.5,426.0 201.5,426.0 194.5,426.1 187.6,426.2 180.6,432.2 173.6,432.2 166.7,432.2 159.7,435.9 152.7,436.3 145.8,436.6 138.8,650.0 131.8,650.0 124.8,650.0 117.9,650.0 110.9,650.0 103.9,650.0 97.0,650.0 90.0,650.0" fill="#F05138" opacity="0.6" class="anim" style="animation-delay:1000ms;"/>
<polygon points="90.0,650.0 97.0,650.0 103.9,650.0 110.9,650.0 117.9,650.0 124.8,650.0 131.8,650.0 138.8,650.0 145.8,418.7 152.7,418.6 159.7,418.5 166.7,417.3 173.6,417.3 180.6,417.2 187.6,415.3 194.5,415.3 201.5,415.2 208.5,415.2 215.5,415.2 222.4,415.2 229.4,415.2 236.4,416.8 243.3,416.8 250.3,416.3 257.3,416.3 264.2,416.3 271.2,416.3 278.2,416.3 285.2,416.2 292.1,416.2 299.1,416.2 306.1,416.2 313.0,416.2 320.0,416.2 327.0,414.2 333.9,414.2 340.9,414.2 347.9,414.2 354.8,414.2 361.8,413.9 368.8,413.9 375.8,413.9 382.7,413.9 389.7,413.9 396.7,413.9 403.6,413.9 410.6,413.9 417.6,413.9 424.5,413.9 431.5,413.9 438.5,413.9 445.5,413.9 452.4,413.9 459.4,413.9 466.4,413.9 473.3,413.9 480.3,413.9 487.3,413.8 494.2,413.8 501.2,413.8 508.2,413.8 515.2,413.8 522.1,413.8 529.1,413.8 536.1,413.8 543.0,413.8 550.0,413.8 557.0,413.8 563.9,413.8 570.9,413.8 577.9,413.8 584.8,413.8 591.8,413.8 598.8,413.8 605.8,413.8 612.7,413.8 619.7,413.8 626.7,413.8 633.6,413.8 640.6,413.8 647.6,413.8 654.5,413.8 661.5,413.8 668.5,413.8 675.5,413.8 682.4,413.8 689.4,413.8 696.4,413.8 703.3,413.8 710.3,413.8 717.3,413.8 724.2,413.8 731.2,413.8 738.2,413.8 745.2,413.8 752.1,413.8 759.1,413.8 766.1,413.8 773.0,413.6 780.0,413.4 780.0,416.7 773.0,417.3 766.1,417.9 759.1,417.9 752.1,417.9 745.2,417.9 738.2,417.9 731.2,417.9 724.2,417.9 717.3,417.9 710.3,417.9 703.3,417.9 696.4,417.9 689.4,417.9 682.4,417.9 675.5,417.9 668.5,417.9 661.5,417.9 654.5,417.9 647.6,417.9 640.6,417.9 633.6,417.9 626.7,417.9 619.7,417.9 612.7,417.9 605.8,417.9 598.8,417.9 591.8,417.9 584.8,417.9 577.9,418.0 570.9,418.0 563.9,418.0 557.0,418.0 550.0,418.0 543.0,418.0 536.1,418.0 529.1,418.0 522.1,418.0 515.2,418.1 508.2,418.1 501.2,418.1 494.2,418.1 487.3,418.1 480.3,418.1 473.3,418.1 466.4,418.1 459.4,418.1 452.4,418.1 445.5,418.1 438.5,418.1 431.5,418.1 424.5,418.1 417.6,418.1 410.6,418.1 403.6,418.1 396.7,418.1 389.7,418.2 382.7,418.2 375.8,418.2 368.8,418.3 361.8,418.3 354.8,418.8 347.9,418.8 340.9,418.8 333.9,418.9 327.0,418.9 320.0,422.9 313.0,422.9 306.1,422.9 299.1,422.9 292.1,423.0 285.2,423.0 278.2,423.2 271.2,423.2 264.2,423.3 257.3,423.3 250.3,423.3 243.3,424.2 236.4,424.3 229.4,421.0 222.4,421.0 215.5,421.0 208.5,421.0 201.5,421.0 194.5,421.1 187.6,421.1 180.6,425.2 173.6,425.3 166.7,425.3 159.7,427.8 152.7,428.1 145.8,428.3 138.8,650.0 131.8,650.0 124.8,650.0 117.9,650.0 110.9,650.0 103.9,650.0 97.0,650.0 90.0,650.0" fill="#6E4C13" opacity="0.6" class="anim" style="animation-delay:1100ms;"/>
<polygon points="90.0,650.0 97.0,650.0 103.9,650.0 110.9,650.0 117.9,650.0 124.8,650.0 131.8,650.0 138.8,650.0 145.8,414.4 152.7,414.4 159.7,414.3 166.7,413.7 173.6,413.7 180.6,413.7 187.6,412.7 194.5,412.7 201.5,412.7 208.5,412.7 215.5,412.7 222.4,412.7 229.4,412.7 236.4,413.5 243.3,413.4 250.3,413.2 257.3,413.2 264.2,413.2 271.2,413.2 278.2,413.2 285.2,413.1 292.1,413.1 299.1,413.1 306.1,413.1 313.0,413.1 320.0,413.1 327.0,412.2 333.9,412.1 340.9,412.1 347.9,412.1 354.8,412.1 361.8,412.0 368.8,412.0 375.8,412.0 382.7,412.0 389.7,412.0 396.7,412.0 403.6,412.0 410.6,412.0 417.6,412.0 424.5,412.0 431.5,412.0 438.5,412.0 445.5,412.0 452.4,412.0 459.4,412.0 466.4,412.0 473.3,412.0 480.3,412.0 487.3,411.9 494.2,411.9 501.2,411.9 508.2,411.9 515.2,411.9 522.1,411.9 529.1,411.9 536.1,411.9 543.0,411.9 550.0,411.9 557.0,411.9 563.9,411.9 570.9,411.9 577.9,411.9 584.8,411.9 591.8,411.9 598.8,411.9 605.8,411.9 612.7,411.9 619.7,411.9 626.7,411.9 633.6,411.9 640.6,411.9 647.6,411.9 654.5,411.9 661.5,411.9 668.5,411.9 675.5,411.9 682.4,411.9 689.4,411.9 696.4,411.9 703.3,411.9 710.3,411.9 717.3,411.9 724.2,411.9 731.2,411.9 738.2,411.9 745.2,411.9 752.1,411.9 759.1,411.9 766.1,411.9 773.0,411.9 780.0,411.9 780.0,413.4 773.0,413.6 766.1,413.8 759.1,413.8 752.1,413.8 745.2,413.8 738.2,413.8 731.2,413.8 724.2,413.8 717.3,413.8 710.3,413.8 703.3,413.8 696.4,413.8 689.4,413.8 682.4,413.8 675.5,413.8 668.5,413.8 661.5,413.8 654.5,413.8 647.6,413.8 640.6,413.8 633.6,413.8 626.7,413.8 619.7,413.8 612.7,413.8 605.8,413.8 598.8,413.8 591.8,413.8 584.8,413.8 577.9,413.8 570.9,413.8 563.9,413.8 557.0,413.8 550.0,413.8 543.0,413.8 536.1,413.8 529.1,413.8 522.1,413.8 515.2,413.8 508.2,413.8 501.2,413.8 494.2,413.8 487.3,413.8 480.3,413.9 473.3,413.9 466.4,413.9 459.4,413.9 452.4,413.9 445.5,413.9 438.5,413.9 431.5,413.9 424.5,413.9 417.6,413.9 410.6,413.9 403.6,413.9 396.7,413.9 389.7,413.9 382.7,413.9 375.8,413.9 368.8,413.9 361.8,413.9 354.8,414.2 347.9,414.2 340.9,414.2 333.9,414.2 327.0,414.2 320.0,416.2 313.0,416.2 306.1,416.2 299.1,416.2 292.1,416.2 285.2,416.2 278.2,416.3 271.2,416.3 264.2,416.3 257.3,416.3 250.3,416.3 243.3,416.8 236.4,416.8 229.4,415.2 222.4,415.2 215.5,415.2 208.5,415.2 201.5,415.2 194.5,415.3 187.6,415.3 180.6,417.2 173.6,417.3 166.7,417.3 159.7,418.5 152.7,418.6 145.8,418.7 138.8,650.0 131.8,650.0 124.8,650.0 117.9,650.0 110.9,650.0 103.9,650.0 97.0,650.0 90.0,650.0" fill="#b07219" opacity="0.6" class="anim" style="animation-delay:1200ms;"/>
<line x1="766.1" y1="100" x2="766.1" y2="650" stroke="#c9d1d9" stroke-width="1" stroke-dasharray="4,3" opacity="0.35"/>
<text x="773.0" y="112" text-anchor="middle" class="axis-label" opacity="0.6">Jul 31, 2026</text>
<text x="90.0" y="668" text-anchor="middle" class="axis-label" transform="rotate(-35 90.0 668)">2026-02</text>
<text x="320.0" y="668" text-anchor="middle" class="axis-label" transform="rotate(-35 320.0 668)">2026-03</text>
<text x="473.3" y="668" text-anchor="middle" class="axis-label" transform="rotate(-35 473.3 668)">2026-04</text>
<text x="550.0" y="668" text-anchor="middle" class="axis-label" transform="rotate(-35 550.0 668)">2026-06</text>
<text x="703.3" y="668" text-anchor="middle" class="axis-label" transform="rotate(-35 703.3 668)">2026-07</text>
<text x="780.0" y="668" text-anchor="middle" class="axis-label" transform="rotate(-35 780.0 668)">Aug 16, 2026</text>
<line x1="796" y1="110" x2="824" y2="110" stroke="#3fb950" stroke-width="2"/>
<text x="832" y="116" class="legend-text">Lines Added</text>
<line x1="796" y1="140" x2="824" y2="140" stroke="#f85149" stroke-width="1.5"/>
<text x="832" y="146" class="legend-text">Lines Deleted</text>
<line x1="796" y1="170" x2="824" y2="170" stroke="#e3b341" stroke-width="1.5" stroke-dasharray="4,3"/>
<text x="832" y="176" class="legend-text">&#x2605; Stars</text>
<text x="796" y="200" class="subtitle">Languages</text>
<rect x="796" y="212" width="12" height="12" rx="2" fill="#e34c26" opacity="0.8" class="anim" style="animation-delay:800ms;"/>
<text x="814" y="223" class="legend-text">HTML (58%→56%)</text>
<rect x="796" y="234" width="12" height="12" rx="2" fill="#f1e05a" opacity="0.8" class="anim" style="animation-delay:880ms;"/>
<text x="814" y="245" class="legend-text">JavaScript (22%→25%)</text>
<rect x="796" y="256" width="12" height="12" rx="2" fill="#3572A5" opacity="0.8" class="anim" style="animation-delay:960ms;"/>
<text x="814" y="267" class="legend-text">Python (7%→6%)</text>
<rect x="796" y="278" width="12" height="12" rx="2" fill="#663399" opacity="0.8" class="anim" style="animation-delay:1040ms;"/>
<text x="814" y="289" class="legend-text">CSS (6%→6%)</text>
<rect x="796" y="300" width="12" height="12" rx="2" fill="#083fa1" opacity="0.8" class="anim" style="animation-delay:1120ms;"/>
<text x="814" y="311" class="legend-text">Markdown (2%→2%)</text>
<rect x="796" y="322" width="12" height="12" rx="2" fill="#F05138" opacity="0.8" class="anim" style="animation-delay:1200ms;"/>
<text x="814" y="333" class="legend-text">Swift (2%)</text>
<rect x="796" y="344" width="12" height="12" rx="2" fill="#6E4C13" opacity="0.8" class="anim" style="animation-delay:1280ms;"/>
<text x="814" y="355" class="legend-text">Assembly (2%→1%)</text>
<rect x="796" y="366" width="12" height="12" rx="2" fill="#b07219" opacity="0.8" class="anim" style="animation-delay:1360ms;"/>
<text x="814" y="377" class="legend-text">Java (1%→1%)</text>
<text x="796" y="412" class="subtitle">Contributions</text>
<text x="796" y="432" class="axis-label">2023: 39</text>
<text x="796" y="452" class="axis-label">2024: 646</text>
<text x="796" y="472" class="axis-label">2025: 1,780</text>
<text x="796" y="492" class="axis-label">2026: 491</text>
<text x="796" y="522" class="subtitle">Statistics</text>
<text x="796" y="542" class="axis-label">Active weeks: 88</text>
<text x="796" y="562" class="axis-label">Add/Del ratio: 1.8x</text>
<text x="796" y="582" class="axis-label">Avg lines/wk: 18K</text>
<text x="796" y="602" class="axis-label">Peak: 2026-02-15</text>
<text x="796" y="622" class="axis-label">  (543K lines)</text>
<text x="90" y="742" class="axis-label">Total: +1,040,332 / -576,819 lines &#xb7; 2,956 contributions &#xb7; 80 repos &#xb7; &#x2605; 37</text>
</svg>