<svg xmlns="http://www.w3.org/2000/svg" width="1000" height="760" style="max-width: 100%;" viewBox="0 0 1000 760">

<defs>
  <linearGradient id="areaGrad" x1="0" y1="0" x2="0" y2="1">
    <stop offset="0%" stop-color="#58a6ff" stop-opacity="0.35"/>
    <stop offset="100%" stop-color="#58a6ff" stop-opacity="0.02"/>
  </linearGradient>
  <linearGradient id="addGrad" x1="0" y1="0" x2="0" y2="1">
    <stop offset="0%" stop-color="#3fb950" stop-opacity="0.35"/>
    <stop offset="100%" stop-color="#3fb950" stop-opacity="0.02"/>
  </linearGradient>
  <linearGradient id="delGrad" x1="0" y1="0" x2="0" y2="1">
    <stop offset="0%" stop-color="#f85149" stop-opacity="0.25"/>
    <stop offset="100%" stop-color="#f85149" stop-opacity="0.02"/>
  </linearGradient>
</defs>
<style>
  .title { font: bold 28px 'Segoe UI', Ubuntu, Sans-Serif; fill: #c9d1d9; }
  .subtitle { font: 600 20px 'Segoe UI', Ubuntu, Sans-Serif; fill: #c9d1d9; opacity: 0.8; }
  .axis-label { font: 18px 'Segoe UI', Ubuntu, Sans-Serif; fill: #c9d1d9; opacity: 0.7; }
  .legend-text { font: 14px 'Segoe UI', Ubuntu, Sans-Serif; fill: #c9d1d9; }
  .value-text { font: bold 18px 'Segoe UI', Ubuntu, Sans-Serif; fill: #c9d1d9; }
  .stat-value { font: bold 22px 'Segoe UI', Ubuntu, Sans-Serif; fill: #c9d1d9; }
  .stat-label { font: 18px 'Segoe UI', Ubuntu, Sans-Serif; fill: #c9d1d9; opacity: 0.7; }
  @keyframes fadeIn { from { opacity: 0; } to { opacity: 1; } }
  .anim { animation: fadeIn 0.6s ease-in-out forwards; opacity: 0; }
</style>

<rect x="0.5" y="0.5" rx="4.5" width="999" height="759" fill="#161b22" stroke="#21262d"/>
<text x="90" y="45" class="title">Activity History</text>
<text x="90" y="72" class="subtitle">Lines added vs deleted &amp; activity trends over time</text>
<line x1="90" y1="340.0" x2="780" y2="340.0" stroke="#21262d" stroke-width="1"/>
<text x="82" y="344.0" text-anchor="end" class="axis-label">0</text>
<line x1="90" y1="280.0" x2="780" y2="280.0" stroke="#21262d" stroke-width="1"/>
<text x="82" y="284.0" text-anchor="end" class="axis-label">453K</text>
<line x1="90" y1="220.0" x2="780" y2="220.0" stroke="#21262d" stroke-width="1"/>
<text x="82" y="224.0" text-anchor="end" class="axis-label">905K</text>
<line x1="90" y1="160.0" x2="780" y2="160.0" stroke="#21262d" stroke-width="1"/>
<text x="82" y="164.0" text-anchor="end" class="axis-label">1.4M</text>
<line x1="90" y1="100.0" x2="780" y2="100.0" stroke="#21262d" stroke-width="1"/>
<text x="82" y="104.0" text-anchor="end" class="axis-label">1.8M</text>
<polygon points="90.0,340.0 90.0,291.6 96.7,293.3 103.4,291.6 110.1,293.4 116.8,304.5 123.5,282.3 130.2,282.3 136.9,274.0 143.6,273.6 150.3,273.1 157.0,273.1 163.7,258.2 170.4,258.2 177.1,258.1 183.8,236.0 190.5,235.8 197.2,235.5 203.9,235.5 210.6,235.5 217.3,235.5 224.0,235.5 230.7,234.9 237.4,220.2 244.1,220.1 250.8,220.1 257.5,220.1 264.2,219.8 270.9,219.8 277.6,219.1 284.3,219.1 291.0,219.1 297.7,219.1 304.4,219.1 311.1,219.1 317.8,219.1 324.5,219.1 331.2,219.1 337.9,219.1 344.6,219.1 351.3,219.1 358.0,219.1 364.7,218.4 371.4,218.7 378.1,218.0 384.8,217.7 391.5,217.7 398.2,217.7 404.9,217.7 411.6,217.7 418.3,217.7 425.0,217.6 431.7,217.6 438.3,217.6 445.0,217.7 451.7,218.0 458.4,219.4 465.1,218.0 471.8,216.7 478.5,216.7 485.2,216.7 491.9,216.7 498.6,216.7 505.3,209.1 512.0,202.2 518.7,202.2 525.4,202.2 532.1,202.2 538.8,202.2 545.5,202.2 552.2,202.2 558.9,202.2 565.6,202.1 572.3,202.1 579.0,202.1 585.7,202.1 592.4,202.1 599.1,202.1 605.8,202.1 612.5,202.1 619.2,202.1 625.9,202.1 632.6,202.1 639.3,202.1 646.0,202.1 652.7,202.1 659.4,202.1 666.1,202.1 672.8,202.1 679.5,202.1 686.2,202.1 692.9,202.1 699.6,202.1 706.3,202.1 713.0,202.1 719.7,202.1 726.4,202.1 733.1,202.1 739.8,202.1 746.5,202.1 753.2,202.1 759.9,202.1 766.6,202.1 773.3,194.5 780.0,186.8 780.0,340.0" fill="url(#addGrad)" class="anim" style="animation-delay:200ms;"/>
<polyline points="90.0,291.6 96.7,293.3 103.4,291.6 110.1,293.4 116.8,304.5 123.5,282.3 130.2,282.3 136.9,274.0 143.6,273.6 150.3,273.1 157.0,273.1 163.7,258.2 170.4,258.2 177.1,258.1 183.8,236.0 190.5,235.8 197.2,235.5 203.9,235.5 210.6,235.5 217.3,235.5 224.0,235.5 230.7,234.9 237.4,220.2 244.1,220.1 250.8,220.1 257.5,220.1 264.2,219.8 270.9,219.8 277.6,219.1 284.3,219.1 291.0,219.1 297.7,219.1 304.4,219.1 311.1,219.1 317.8,219.1 324.5,219.1 331.2,219.1 337.9,219.1 344.6,219.1 351.3,219.1 358.0,219.1 364.7,218.4 371.4,218.7 378.1,218.0 384.8,217.7 391.5,217.7 398.2,217.7 404.9,217.7 411.6,217.7 418.3,217.7 425.0,217.6 431.7,217.6 438.3,217.6 445.0,217.7 451.7,218.0 458.4,219.4 465.1,218.0 471.8,216.7 478.5,216.7 485.2,216.7 491.9,216.7 498.6,216.7 505.3,209.1 512.0,202.2 518.7,202.2 525.4,202.2 532.1,202.2 538.8,202.2 545.5,202.2 552.2,202.2 558.9,202.2 565.6,202.1 572.3,202.1 579.0,202.1 585.7,202.1 592.4,202.1 599.1,202.1 605.8,202.1 612.5,202.1 619.2,202.1 625.9,202.1 632.6,202.1 639.3,202.1 646.0,202.1 652.7,202.1 659.4,202.1 666.1,202.1 672.8,202.1 679.5,202.1 686.2,202.1 692.9,202.1 699.6,202.1 706.3,202.1 713.0,202.1 719.7,202.1 726.4,202.1 733.1,202.1 739.8,202.1 746.5,202.1 753.2,202.1 759.9,202.1 766.6,202.1" fill="none" stroke="#3fb950" stroke-width="2" stroke-linejoin="round" class="anim" style="animation-delay:250ms;"/>
<polyline points="766.6,202.1 773.3,194.5 780.0,186.8" fill="none" stroke="#3fb950" stroke-width="1.5" stroke-dasharray="5,4" stroke-linejoin="round" opacity="0.6" class="anim" style="animation-delay:250ms;"/>
<polygon points="90.0,340.0 90.0,326.4 96.7,327.8 103.4,326.4 110.1,327.8 116.8,333.6 123.5,324.7 130.2,324.7 136.9,323.7 143.6,323.4 150.3,323.2 157.0,323.1 163.7,307.1 170.4,307.1 177.1,307.0 183.8,288.9 190.5,288.7 197.2,288.7 203.9,288.7 210.6,288.7 217.3,288.7 224.0,288.7 230.7,279.2 237.4,264.7 244.1,264.7 250.8,264.7 257.5,264.7 264.2,264.6 270.9,264.6 277.6,264.5 284.3,264.5 291.0,264.5 297.7,264.5 304.4,264.5 311.1,264.5 317.8,264.5 324.5,264.5 331.2,264.5 337.9,264.5 344.6,264.5 351.3,264.5 358.0,264.5 364.7,264.5 371.4,264.5 378.1,264.1 384.8,264.0 391.5,264.0 398.2,264.0 404.9,264.0 411.6,264.0 418.3,264.0 425.0,264.0 431.7,264.0 438.3,264.0 445.0,264.1 451.7,264.2 458.4,265.0 465.1,264.4 471.8,263.6 478.5,263.6 485.2,263.6 491.9,263.6 498.6,263.6 505.3,263.5 512.0,263.5 518.7,263.5 525.4,263.5 532.1,263.5 538.8,263.5 545.5,263.5 552.2,263.5 558.9,263.5 565.6,263.5 572.3,263.5 579.0,263.5 585.7,263.5 592.4,263.5 599.1,263.5 605.8,263.5 612.5,263.5 619.2,263.5 625.9,263.5 632.6,263.5 639.3,263.5 646.0,263.5 652.7,263.5 659.4,263.5 666.1,263.5 672.8,263.5 679.5,263.5 686.2,263.5 692.9,263.5 699.6,263.5 706.3,263.5 713.0,263.5 719.7,263.5 726.4,263.5 733.1,263.5 739.8,263.5 746.5,263.5 753.2,263.5 759.9,263.5 766.6,263.5 773.3,258.3 780.0,253.2 780.0,340.0" fill="url(#delGrad)" class="anim" style="animation-delay:300ms;"/>
<polyline points="90.0,326.4 96.7,327.8 103.4,326.4 110.1,327.8 116.8,333.6 123.5,324.7 130.2,324.7 136.9,323.7 143.6,323.4 150.3,323.2 157.0,323.1 163.7,307.1 170.4,307.1 177.1,307.0 183.8,288.9 190.5,288.7 197.2,288.7 203.9,288.7 210.6,288.7 217.3,288.7 224.0,288.7 230.7,279.2 237.4,264.7 244.1,264.7 250.8,264.7 257.5,264.7 264.2,264.6 270.9,264.6 277.6,264.5 284.3,264.5 291.0,264.5 297.7,264.5 304.4,264.5 311.1,264.5 317.8,264.5 324.5,264.5 331.2,264.5 337.9,264.5 344.6,264.5 351.3,264.5 358.0,264.5 364.7,264.5 371.4,264.5 378.1,264.1 384.8,264.0 391.5,264.0 398.2,264.0 404.9,264.0 411.6,264.0 418.3,264.0 425.0,264.0 431.7,264.0 438.3,264.0 445.0,264.1 451.7,264.2 458.4,265.0 465.1,264.4 471.8,263.6 478.5,263.6 485.2,263.6 491.9,263.6 498.6,263.6 505.3,263.5 512.0,263.5 518.7,263.5 525.4,263.5 532.1,263.5 538.8,263.5 545.5,263.5 552.2,263.5 558.9,263.5 565.6,263.5 572.3,263.5 579.0,263.5 585.7,263.5 592.4,263.5 599.1,263.5 605.8,263.5 612.5,263.5 619.2,263.5 625.9,263.5 632.6,263.5 639.3,263.5 646.0,263.5 652.7,263.5 659.4,263.5 666.1,263.5 672.8,263.5 679.5,263.5 686.2,263.5 692.9,263.5 699.6,263.5 706.3,263.5 713.0,263.5 719.7,263.5 726.4,263.5 733.1,263.5 739.8,263.5 746.5,263.5 753.2,263.5 759.9,263.5 766.6,263.5" fill="none" stroke="#f85149" stroke-width="1.5" stroke-linejoin="round" class="anim" style="animation-delay:350ms;"/>
<polyline points="766.6,263.5 773.3,258.3 780.0,253.2" fill="none" stroke="#f85149" stroke-width="1" stroke-dasharray="5,4" stroke-linejoin="round" opacity="0.6" class="anim" style="animation-delay:350ms;"/>
<polyline points="90.0,340.0 96.7,340.0 103.4,340.0 110.1,340.0 116.8,340.0 123.5,340.0 130.2,340.0 136.9,340.0 143.6,308.0 150.3,308.0 157.0,308.0 163.7,308.0 170.4,308.0 177.1,308.0 183.8,308.0 190.5,308.0 197.2,308.0 203.9,308.0 210.6,308.0 217.3,308.0 224.0,308.0 230.7,308.0 237.4,308.0 244.1,308.0 250.8,308.0 257.5,308.0 264.2,308.0 270.9,308.0 277.6,308.0 284.3,308.0 291.0,308.0 297.7,308.0 304.4,308.0 311.1,308.0 317.8,276.0 324.5,276.0 331.2,276.0 337.9,276.0 344.6,276.0 351.3,276.0 358.0,276.0 364.7,276.0 371.4,244.0 378.1,244.0 384.8,244.0 391.5,244.0 398.2,244.0 404.9,244.0 411.6,244.0 418.3,244.0 425.0,244.0 431.7,244.0 438.3,244.0 445.0,244.0 451.7,244.0 458.4,244.0 465.1,244.0 471.8,244.0 478.5,180.0 485.2,180.0 491.9,180.0 498.6,180.0 505.3,180.0 512.0,180.0 518.7,180.0 525.4,180.0 532.1,180.0 538.8,180.0 545.5,180.0 552.2,180.0 558.9,180.0 565.6,180.0 572.3,180.0 579.0,180.0 585.7,180.0 592.4,180.0 599.1,180.0 605.8,180.0 612.5,180.0 619.2,180.0 625.9,180.0 632.6,180.0 639.3,180.0 646.0,180.0 652.7,180.0 659.4,180.0 666.1,180.0 672.8,180.0 679.5,180.0 686.2,180.0 692.9,180.0 699.6,180.0 706.3,180.0 713.0,180.0 719.7,180.0 726.4,180.0 733.1,180.0 739.8,180.0 746.5,180.0 753.2,180.0 759.9,180.0 766.6,180.0" fill="none" stroke="#e3b341" stroke-width="1.5" stroke-dasharray="4,3" stroke-linejoin="round" class="anim" style="animation-delay:400ms;"/>
<polyline points="766.6,180.0 773.3,180.0 780.0,148.0" fill="none" stroke="#e3b341" stroke-width="1" stroke-dasharray="3,5" stroke-linejoin="round" opacity="0.5" class="anim" style="animation-delay:400ms;"/>
<text x="90" y="90" class="subtitle">Lines Added vs Deleted (per snapshot)</text>
<text x="90" y="400" class="subtitle">Programming Language Development (%)</text>
<line x1="90" y1="650.0" x2="780" y2="650.0" stroke="#21262d" stroke-width="1"/>
<text x="82" y="654.0" text-anchor="end" class="axis-label">0%</text>
<line x1="90" y1="590.0" x2="780" y2="590.0" stroke="#21262d" stroke-width="1"/>
<text x="82" y="594.0" text-anchor="end" class="axis-label">25%</text>
<line x1="90" y1="530.0" x2="780" y2="530.0" stroke="#21262d" stroke-width="1"/>
<text x="82" y="534.0" text-anchor="end" class="axis-label">50%</text>
<line x1="90" y1="470.0" x2="780" y2="470.0" stroke="#21262d" stroke-width="1"/>
<text x="82" y="474.0" text-anchor="end" class="axis-label">75%</text>
<line x1="90" y1="410.0" x2="780" y2="410.0" stroke="#21262d" stroke-width="1"/>
<text x="82" y="414.0" text-anchor="end" class="axis-label">100%</text>
<polygon points="90.0,650.0 96.7,650.0 103.4,650.0 110.1,650.0 116.8,650.0 123.5,650.0 130.2,650.0 136.9,650.0 143.6,528.2 150.3,528.5 157.0,529.7 163.7,499.3 170.4,499.3 177.1,502.9 183.8,485.0 190.5,485.1 197.2,485.4 203.9,485.4 210.6,485.4 217.3,485.4 224.0,485.4 230.7,496.4 237.4,496.7 244.1,491.0 250.8,491.0 257.5,491.0 264.2,491.7 270.9,491.8 277.6,494.0 284.3,494.0 291.0,494.4 297.7,494.4 304.4,494.4 311.1,494.4 317.8,507.6 324.5,507.6 331.2,507.9 337.9,507.9 344.6,507.9 351.3,506.3 358.0,506.4 364.7,506.8 371.4,506.9 378.1,506.8 384.8,507.5 391.5,507.5 398.2,507.5 404.9,507.5 411.6,507.5 418.3,507.5 425.0,507.5 431.7,507.5 438.3,507.5 445.0,507.5 451.7,507.5 458.4,507.5 465.1,507.5 471.8,508.6 478.5,508.6 485.2,508.6 491.9,508.6 498.6,508.6 505.3,509.5 512.0,509.8 518.7,509.8 525.4,509.8 532.1,509.8 538.8,509.8 545.5,509.8 552.2,509.8 558.9,509.8 565.6,510.9 572.3,510.9 579.0,510.9 585.7,510.9 592.4,510.9 599.1,510.9 605.8,510.9 612.5,510.9 619.2,510.9 625.9,510.9 632.6,510.9 639.3,510.9 646.0,510.9 652.7,510.9 659.4,510.9 666.1,510.9 672.8,510.9 679.5,510.9 686.2,510.9 692.9,510.9 699.6,510.9 706.3,510.9 713.0,510.9 719.7,510.9 726.4,510.9 733.1,510.9 739.8,510.9 746.5,510.9 753.2,510.9 759.9,510.9 766.6,510.9 773.3,512.9 780.0,515.0 780.0,650.0 773.3,650.0 766.6,650.0 759.9,650.0 753.2,650.0 746.5,650.0 739.8,650.0 733.1,650.0 726.4,650.0 719.7,650.0 713.0,650.0 706.3,650.0 699.6,650.0 692.9,650.0 686.2,650.0 679.5,650.0 672.8,650.0 666.1,650.0 659.4,650.0 652.7,650.0 646.0,650.0 639.3,650.0 632.6,650.0 625.9,650.0 619.2,650.0 612.5,650.0 605.8,650.0 599.1,650.0 592.4,650.0 585.7,650.0 579.0,650.0 572.3,650.0 565.6,650.0 558.9,650.0 552.2,650.0 545.5,650.0 538.8,650.0 532.1,650.0 525.4,650.0 518.7,650.0 512.0,650.0 505.3,650.0 498.6,650.0 491.9,650.0 485.2,650.0 478.5,650.0 471.8,650.0 465.1,650.0 458.4,650.0 451.7,650.0 445.0,650.0 438.3,650.0 431.7,650.0 425.0,650.0 418.3,650.0 411.6,650.0 404.9,650.0 398.2,650.0 391.5,650.0 384.8,650.0 378.1,650.0 371.4,650.0 364.7,650.0 358.0,650.0 351.3,650.0 344.6,650.0 337.9,650.0 331.2,650.0 324.5,650.0 317.8,650.0 311.1,650.0 304.4,650.0 297.7,650.0 291.0,650.0 284.3,650.0 277.6,650.0 270.9,650.0 264.2,650.0 257.5,650.0 250.8,650.0 244.1,650.0 237.4,650.0 230.7,650.0 224.0,650.0 217.3,650.0 210.6,650.0 203.9,650.0 197.2,650.0 190.5,650.0 183.8,650.0 177.1,650.0 170.4,650.0 163.7,650.0 157.0,650.0 150.3,650.0 143.6,650.0 136.9,650.0 130.2,650.0 123.5,650.0 116.8,650.0 110.1,650.0 103.4,650.0 96.7,650.0 90.0,650.0" fill="#e34c26" opacity="0.6" class="anim" style="animation-delay:500ms;"/>
<polygon points="90.0,650.0 96.7,650.0 103.4,650.0 110.1,650.0 116.8,650.0 123.5,650.0 130.2,650.0 136.9,650.0 143.6,488.4 150.3,488.0 157.0,489.0 163.7,476.0 170.4,476.0 177.1,477.2 183.8,460.1 190.5,460.2 197.2,460.6 203.9,460.6 210.6,460.6 217.3,460.6 224.0,460.6 230.7,473.0 237.4,473.5 244.1,469.5 250.8,469.5 257.5,469.5 264.2,469.7 270.9,469.7 277.6,469.7 284.3,469.7 291.0,469.7 297.7,469.7 304.4,469.7 311.1,469.7 317.8,455.6 324.5,455.6 331.2,455.4 337.9,455.4 344.6,455.4 351.3,454.3 358.0,454.3 364.7,455.0 371.4,455.1 378.1,454.9 384.8,455.9 391.5,455.9 398.2,455.9 404.9,455.9 411.6,455.9 418.3,455.9 425.0,455.9 431.7,455.9 438.3,455.9 445.0,455.9 451.7,455.9 458.4,455.9 465.1,455.9 471.8,455.8 478.5,455.8 485.2,455.8 491.9,455.8 498.6,455.8 505.3,457.0 512.0,457.4 518.7,457.4 525.4,457.4 532.1,457.4 538.8,457.4 545.5,457.4 552.2,457.4 558.9,457.4 565.6,458.2 572.3,458.2 579.0,458.2 585.7,458.2 592.4,458.2 599.1,458.2 605.8,458.2 612.5,458.2 619.2,458.2 625.9,458.2 632.6,458.2 639.3,458.2 646.0,458.2 652.7,458.2 659.4,458.2 666.1,458.2 672.8,458.2 679.5,458.2 686.2,458.2 692.9,458.2 699.6,458.2 706.3,458.2 713.0,458.2 719.7,458.2 726.4,458.2 733.1,458.2 739.8,458.2 746.5,458.2 753.2,458.2 759.9,458.2 766.6,458.2 773.3,456.6 780.0,455.1 780.0,515.0 773.3,512.9 766.6,510.9 759.9,510.9 753.2,510.9 746.5,510.9 739.8,510.9 733.1,510.9 726.4,510.9 719.7,510.9 713.0,510.9 706.3,510.9 699.6,510.9 692.9,510.9 686.2,510.9 679.5,510.9 672.8,510.9 666.1,510.9 659.4,510.9 652.7,510.9 646.0,510.9 639.3,510.9 632.6,510.9 625.9,510.9 619.2,510.9 612.5,510.9 605.8,510.9 599.1,510.9 592.4,510.9 585.7,510.9 579.0,510.9 572.3,510.9 565.6,510.9 558.9,509.8 552.2,509.8 545.5,509.8 538.8,509.8 532.1,509.8 525.4,509.8 518.7,509.8 512.0,509.8 505.3,509.5 498.6,508.6 491.9,508.6 485.2,508.6 478.5,508.6 471.8,508.6 465.1,507.5 458.4,507.5 451.7,507.5 445.0,507.5 438.3,507.5 431.7,507.5 425.0,507.5 418.3,507.5 411.6,507.5 404.9,507.5 398.2,507.5 391.5,507.5 384.8,507.5 378.1,506.8 371.4,506.9 364.7,506.8 358.0,506.4 351.3,506.3 344.6,507.9 337.9,507.9 331.2,507.9 324.5,507.6 317.8,507.6 311.1,494.4 304.4,494.4 297.7,494.4 291.0,494.4 284.3,494.0 277.6,494.0 270.9,491.8 264.2,491.7 257.5,491.0 250.8,491.0 244.1,491.0 237.4,496.7 230.7,496.4 224.0,485.4 217.3,485.4 210.6,485.4 203.9,485.4 197.2,485.4 190.5,485.1 183.8,485.0 177.1,502.9 170.4,499.3 163.7,499.3 157.0,529.7 150.3,528.5 143.6,528.2 136.9,650.0 130.2,650.0 123.5,650.0 116.8,650.0 110.1,650.0 103.4,650.0 96.7,650.0 90.0,650.0" fill="#f1e05a" opacity="0.6" class="anim" style="animation-delay:600ms;"/>
<polygon points="90.0,650.0 96.7,650.0 103.4,650.0 110.1,650.0 116.8,650.0 123.5,650.0 130.2,650.0 136.9,650.0 143.6,455.5 150.3,455.4 157.0,455.1 163.7,447.0 170.4,447.0 177.1,448.2 183.8,438.9 190.5,439.0 197.2,439.6 203.9,439.6 210.6,439.6 217.3,439.6 224.0,439.6 230.7,445.6 237.4,445.6 244.1,443.3 250.8,443.3 257.5,443.3 264.2,443.6 270.9,443.6 277.6,444.1 284.3,444.1 291.0,444.1 297.7,444.1 304.4,444.1 311.1,444.1 317.8,437.5 324.5,437.5 331.2,437.5 337.9,437.5 344.6,437.5 351.3,437.5 358.0,437.5 364.7,438.4 371.4,438.5 378.1,438.3 384.8,439.3 391.5,439.3 398.2,439.3 404.9,439.3 411.6,439.3 418.3,439.3 425.0,439.3 431.7,439.3 438.3,439.3 445.0,439.3 451.7,439.3 458.4,439.3 465.1,439.3 471.8,439.4 478.5,439.4 485.2,439.4 491.9,439.4 498.6,439.4 505.3,440.7 512.0,441.1 518.7,441.1 525.4,441.1 532.1,441.1 538.8,441.1 545.5,441.1 552.2,441.1 558.9,441.1 565.6,442.0 572.3,442.0 579.0,442.0 585.7,442.0 592.4,442.0 599.1,442.0 605.8,442.0 612.5,442.0 619.2,442.0 625.9,442.0 632.6,442.0 639.3,442.0 646.0,442.0 652.7,442.0 659.4,442.0 666.1,442.0 672.8,442.0 679.5,442.0 686.2,442.0 692.9,442.0 699.6,442.0 706.3,442.0 713.0,442.0 719.7,442.0 726.4,442.0 733.1,442.0 739.8,442.0 746.5,442.0 753.2,442.0 759.9,442.0 766.6,442.0 773.3,441.9 780.0,441.8 780.0,455.1 773.3,456.6 766.6,458.2 759.9,458.2 753.2,458.2 746.5,458.2 739.8,458.2 733.1,458.2 726.4,458.2 719.7,458.2 713.0,458.2 706.3,458.2 699.6,458.2 692.9,458.2 686.2,458.2 679.5,458.2 672.8,458.2 666.1,458.2 659.4,458.2 652.7,458.2 646.0,458.2 639.3,458.2 632.6,458.2 625.9,458.2 619.2,458.2 612.5,458.2 605.8,458.2 599.1,458.2 592.4,458.2 585.7,458.2 579.0,458.2 572.3,458.2 565.6,458.2 558.9,457.4 552.2,457.4 545.5,457.4 538.8,457.4 532.1,457.4 525.4,457.4 518.7,457.4 512.0,457.4 505.3,457.0 498.6,455.8 491.9,455.8 485.2,455.8 478.5,455.8 471.8,455.8 465.1,455.9 458.4,455.9 451.7,455.9 445.0,455.9 438.3,455.9 431.7,455.9 425.0,455.9 418.3,455.9 411.6,455.9 404.9,455.9 398.2,455.9 391.5,455.9 384.8,455.9 378.1,454.9 371.4,455.1 364.7,455.0 358.0,454.3 351.3,454.3 344.6,455.4 337.9,455.4 331.2,455.4 324.5,455.6 317.8,455.6 311.1,469.7 304.4,469.7 297.7,469.7 291.0,469.7 284.3,469.7 277.6,469.7 270.9,469.7 264.2,469.7 257.5,469.5 250.8,469.5 244.1,469.5 237.4,473.5 230.7,473.0 224.0,460.6 217.3,460.6 210.6,460.6 203.9,460.6 197.2,460.6 190.5,460.2 183.8,460.1 177.1,477.2 170.4,476.0 163.7,476.0 157.0,489.0 150.3,488.0 143.6,488.4 136.9,650.0 130.2,650.0 123.5,650.0 116.8,650.0 110.1,650.0 103.4,650.0 96.7,650.0 90.0,650.0" fill="#3572A5" opacity="0.6" class="anim" style="animation-delay:700ms;"/>
<polygon points="90.0,650.0 96.7,650.0 103.4,650.0 110.1,650.0 116.8,650.0 123.5,650.0 130.2,650.0 136.9,650.0 143.6,442.3 150.3,442.0 157.0,441.6 163.7,439.5 170.4,439.5 177.1,439.4 183.8,432.3 190.5,432.2 197.2,432.6 203.9,432.6 210.6,432.6 217.3,432.6 224.0,432.6 230.7,439.3 237.4,439.3 244.1,437.4 250.8,437.4 257.5,437.4 264.2,437.3 270.9,437.3 277.6,437.1 284.3,437.1 291.0,437.1 297.7,437.1 304.4,437.1 311.1,437.1 317.8,428.7 324.5,428.6 331.2,428.5 337.9,428.5 344.6,428.5 351.3,427.3 358.0,427.3 364.7,427.1 371.4,427.1 378.1,427.1 384.8,427.0 391.5,427.0 398.2,427.0 404.9,427.0 411.6,427.0 418.3,427.0 425.0,427.0 431.7,427.0 438.3,427.0 445.0,427.0 451.7,427.0 458.4,427.0 465.1,427.0 471.8,427.0 478.5,427.1 485.2,427.1 491.9,427.1 498.6,427.1 505.3,428.4 512.0,428.9 518.7,428.9 525.4,428.9 532.1,428.9 538.8,428.9 545.5,428.9 552.2,428.9 558.9,428.9 565.6,428.7 572.3,428.7 579.0,428.7 585.7,428.7 592.4,428.7 599.1,428.7 605.8,428.7 612.5,428.7 619.2,428.7 625.9,428.7 632.6,428.7 639.3,428.7 646.0,428.7 652.7,428.7 659.4,428.7 666.1,428.7 672.8,428.7 679.5,428.7 686.2,428.7 692.9,428.7 699.6,428.7 706.3,428.7 713.0,428.7 719.7,428.7 726.4,428.7 733.1,428.7 739.8,428.7 746.5,428.7 753.2,428.7 759.9,428.7 766.6,428.7 773.3,427.8 780.0,426.9 780.0,441.8 773.3,441.9 766.6,442.0 759.9,442.0 753.2,442.0 746.5,442.0 739.8,442.0 733.1,442.0 726.4,442.0 719.7,442.0 713.0,442.0 706.3,442.0 699.6,442.0 692.9,442.0 686.2,442.0 679.5,442.0 672.8,442.0 666.1,442.0 659.4,442.0 652.7,442.0 646.0,442.0 639.3,442.0 632.6,442.0 625.9,442.0 619.2,442.0 612.5,442.0 605.8,442.0 599.1,442.0 592.4,442.0 585.7,442.0 579.0,442.0 572.3,442.0 565.6,442.0 558.9,441.1 552.2,441.1 545.5,441.1 538.8,441.1 532.1,441.1 525.4,441.1 518.7,441.1 512.0,441.1 505.3,440.7 498.6,439.4 491.9,439.4 485.2,439.4 478.5,439.4 471.8,439.4 465.1,439.3 458.4,439.3 451.7,439.3 445.0,439.3 438.3,439.3 431.7,439.3 425.0,439.3 418.3,439.3 411.6,439.3 404.9,439.3 398.2,439.3 391.5,439.3 384.8,439.3 378.1,438.3 371.4,438.5 364.7,438.4 358.0,437.5 351.3,437.5 344.6,437.5 337.9,437.5 331.2,437.5 324.5,437.5 317.8,437.5 311.1,444.1 304.4,444.1 297.7,444.1 291.0,444.1 284.3,444.1 277.6,444.1 270.9,443.6 264.2,443.6 257.5,443.3 250.8,443.3 244.1,443.3 237.4,445.6 230.7,445.6 224.0,439.6 217.3,439.6 210.6,439.6 203.9,439.6 197.2,439.6 190.5,439.0 183.8,438.9 177.1,448.2 170.4,447.0 163.7,447.0 157.0,455.1 150.3,455.4 143.6,455.5 136.9,650.0 130.2,650.0 123.5,650.0 116.8,650.0 110.1,650.0 103.4,650.0 96.7,650.0 90.0,650.0" fill="#663399" opacity="0.6" class="anim" style="animation-delay:800ms;"/>
<polygon points="90.0,650.0 96.7,650.0 103.4,650.0 110.1,650.0 116.8,650.0 123.5,650.0 130.2,650.0 136.9,650.0 143.6,436.6 150.3,436.3 157.0,435.9 163.7,432.2 170.4,432.2 177.1,432.2 183.8,426.2 190.5,426.1 197.2,426.0 203.9,426.0 210.6,426.0 217.3,426.0 224.0,426.0 230.7,430.8 237.4,430.7 244.1,429.3 250.8,429.3 257.5,429.3 264.2,429.2 270.9,429.2 277.6,428.9 284.3,428.9 291.0,428.8 297.7,428.8 304.4,428.8 311.1,428.8 317.8,423.0 324.5,422.9 331.2,422.9 337.9,422.9 344.6,422.9 351.3,422.0 358.0,422.0 364.7,421.9 371.4,421.9 378.1,421.9 384.8,421.8 391.5,421.8 398.2,421.8 404.9,421.8 411.6,421.8 418.3,421.8 425.0,421.8 431.7,421.8 438.3,421.8 445.0,421.8 451.7,421.8 458.4,421.8 465.1,421.8 471.8,421.7 478.5,421.8 485.2,421.8 491.9,421.8 498.6,421.8 505.3,423.2 512.0,423.6 518.7,423.6 525.4,423.6 532.1,423.6 538.8,423.6 545.5,423.6 552.2,423.6 558.9,423.6 565.6,423.5 572.3,423.5 579.0,423.5 585.7,423.5 592.4,423.5 599.1,423.5 605.8,423.5 612.5,423.5 619.2,423.5 625.9,423.5 632.6,423.5 639.3,423.5 646.0,423.5 652.7,423.5 659.4,423.5 666.1,423.5 672.8,423.5 679.5,423.5 686.2,423.5 692.9,423.5 699.6,423.5 706.3,423.5 713.0,423.5 719.7,423.5 726.4,423.5 733.1,423.5 739.8,423.5 746.5,423.5 753.2,423.5 759.9,423.5 766.6,423.5 773.3,422.9 780.0,422.2 780.0,426.9 773.3,427.8 766.6,428.7 759.9,428.7 753.2,428.7 746.5,428.7 739.8,428.7 733.1,428.7 726.4,428.7 719.7,428.7 713.0,428.7 706.3,428.7 699.6,428.7 692.9,428.7 686.2,428.7 679.5,428.7 672.8,428.7 666.1,428.7 659.4,428.7 652.7,428.7 646.0,428.7 639.3,428.7 632.6,428.7 625.9,428.7 619.2,428.7 612.5,428.7 605.8,428.7 599.1,428.7 592.4,428.7 585.7,428.7 579.0,428.7 572.3,428.7 565.6,428.7 558.9,428.9 552.2,428.9 545.5,428.9 538.8,428.9 532.1,428.9 525.4,428.9 518.7,428.9 512.0,428.9 505.3,428.4 498.6,427.1 491.9,427.1 485.2,427.1 478.5,427.1 471.8,427.0 465.1,427.0 458.4,427.0 451.7,427.0 445.0,427.0 438.3,427.0 431.7,427.0 425.0,427.0 418.3,427.0 411.6,427.0 404.9,427.0 398.2,427.0 391.5,427.0 384.8,427.0 378.1,427.1 371.4,427.1 364.7,427.1 358.0,427.3 351.3,427.3 344.6,428.5 337.9,428.5 331.2,428.5 324.5,428.6 317.8,428.7 311.1,437.1 304.4,437.1 297.7,437.1 291.0,437.1 284.3,437.1 277.6,437.1 270.9,437.3 264.2,437.3 257.5,437.4 250.8,437.4 244.1,437.4 237.4,439.3 230.7,439.3 224.0,432.6 217.3,432.6 210.6,432.6 203.9,432.6 197.2,432.6 190.5,432.2 183.8,432.3 177.1,439.4 170.4,439.5 163.7,439.5 157.0,441.6 150.3,442.0 143.6,442.3 136.9,650.0 130.2,650.0 123.5,650.0 116.8,650.0 110.1,650.0 103.4,650.0 96.7,650.0 90.0,650.0" fill="#083fa1" opacity="0.6" class="anim" style="animation-delay:900ms;"/>
<polygon points="90.0,650.0 96.7,650.0 103.4,650.0 110.1,650.0 116.8,650.0 123.5,650.0 130.2,650.0 136.9,650.0 143.6,428.3 150.3,428.1 157.0,427.8 163.7,425.3 170.4,425.3 177.1,425.2 183.8,421.1 190.5,421.1 197.2,421.0 203.9,421.0 210.6,421.0 217.3,421.0 224.0,421.0 230.7,424.3 237.4,424.2 244.1,423.3 250.8,423.3 257.5,423.3 264.2,423.2 270.9,423.2 277.6,423.0 284.3,423.0 291.0,422.9 297.7,422.9 304.4,422.9 311.1,422.9 317.8,418.9 324.5,418.9 331.2,418.8 337.9,418.8 344.6,418.8 351.3,418.3 358.0,418.3 364.7,418.2 371.4,418.2 378.1,418.2 384.8,418.1 391.5,418.1 398.2,418.1 404.9,418.1 411.6,418.1 418.3,418.1 425.0,418.1 431.7,418.1 438.3,418.1 445.0,418.1 451.7,418.1 458.4,418.1 465.1,418.1 471.8,418.1 478.5,418.1 485.2,418.1 491.9,418.1 498.6,418.1 505.3,418.0 512.0,418.0 518.7,418.0 525.4,418.0 532.1,418.0 538.8,418.0 545.5,418.0 552.2,418.0 558.9,418.0 565.6,417.9 572.3,417.9 579.0,417.9 585.7,417.9 592.4,417.9 599.1,417.9 605.8,417.9 612.5,417.9 619.2,417.9 625.9,417.9 632.6,417.9 639.3,417.9 646.0,417.9 652.7,417.9 659.4,417.9 666.1,417.9 672.8,417.9 679.5,417.9 686.2,417.9 692.9,417.9 699.6,417.9 706.3,417.9 713.0,417.9 719.7,417.9 726.4,417.9 733.1,417.9 739.8,417.9 746.5,417.9 753.2,417.9 759.9,417.9 766.6,417.9 773.3,417.3 780.0,416.7 780.0,422.2 773.3,422.9 766.6,423.5 759.9,423.5 753.2,423.5 746.5,423.5 739.8,423.5 733.1,423.5 726.4,423.5 719.7,423.5 713.0,423.5 706.3,423.5 699.6,423.5 692.9,423.5 686.2,423.5 679.5,423.5 672.8,423.5 666.1,423.5 659.4,423.5 652.7,423.5 646.0,423.5 639.3,423.5 632.6,423.5 625.9,423.5 619.2,423.5 612.5,423.5 605.8,423.5 599.1,423.5 592.4,423.5 585.7,423.5 579.0,423.5 572.3,423.5 565.6,423.5 558.9,423.6 552.2,423.6 545.5,423.6 538.8,423.6 532.1,423.6 525.4,423.6 518.7,423.6 512.0,423.6 505.3,423.2 498.6,421.8 491.9,421.8 485.2,421.8 478.5,421.8 471.8,421.7 465.1,421.8 458.4,421.8 451.7,421.8 445.0,421.8 438.3,421.8 431.7,421.8 425.0,421.8 418.3,421.8 411.6,421.8 404.9,421.8 398.2,421.8 391.5,421.8 384.8,421.8 378.1,421.9 371.4,421.9 364.7,421.9 358.0,422.0 351.3,422.0 344.6,422.9 337.9,422.9 331.2,422.9 324.5,422.9 317.8,423.0 311.1,428.8 304.4,428.8 297.7,428.8 291.0,428.8 284.3,428.9 277.6,428.9 270.9,429.2 264.2,429.2 257.5,429.3 250.8,429.3 244.1,429.3 237.4,430.7 230.7,430.8 224.0,426.0 217.3,426.0 210.6,426.0 203.9,426.0 197.2,426.0 190.5,426.1 183.8,426.2 177.1,432.2 170.4,432.2 163.7,432.2 157.0,435.9 150.3,436.3 143.6,436.6 136.9,650.0 130.2,650.0 123.5,650.0 116.8,650.0 110.1,650.0 103.4,650.0 96.7,650.0 90.0,650.0" fill="#F05138" opacity="0.6" class="anim" style="animation-delay:1000ms;"/>
<polygon points="90.0,650.0 96.7,650.0 103.4,650.0 110.1,650.0 116.8,650.0 123.5,650.0 130.2,650.0 136.9,650.0 143.6,418.7 150.3,418.6 157.0,418.5 163.7,417.3 170.4,417.3 177.1,417.2 183.8,415.3 190.5,415.3 197.2,415.2 203.9,415.2 210.6,415.2 217.3,415.2 224.0,415.2 230.7,416.8 237.4,416.8 244.1,416.3 250.8,416.3 257.5,416.3 264.2,416.3 270.9,416.3 277.6,416.2 284.3,416.2 291.0,416.2 297.7,416.2 304.4,416.2 311.1,416.2 317.8,414.2 324.5,414.2 331.2,414.2 337.9,414.2 344.6,414.2 351.3,413.9 358.0,413.9 364.7,413.9 371.4,413.9 378.1,413.9 384.8,413.9 391.5,413.9 398.2,413.9 404.9,413.9 411.6,413.9 418.3,413.9 425.0,413.9 431.7,413.9 438.3,413.9 445.0,413.9 451.7,413.9 458.4,413.9 465.1,413.9 471.8,413.8 478.5,413.8 485.2,413.8 491.9,413.8 498.6,413.8 505.3,413.8 512.0,413.8 518.7,413.8 525.4,413.8 532.1,413.8 538.8,413.8 545.5,413.8 552.2,413.8 558.9,413.8 565.6,413.8 572.3,413.8 579.0,413.8 585.7,413.8 592.4,413.8 599.1,413.8 605.8,413.8 612.5,413.8 619.2,413.8 625.9,413.8 632.6,413.8 639.3,413.8 646.0,413.8 652.7,413.8 659.4,413.8 666.1,413.8 672.8,413.8 679.5,413.8 686.2,413.8 692.9,413.8 699.6,413.8 706.3,413.8 713.0,413.8 719.7,413.8 726.4,413.8 733.1,413.8 739.8,413.8 746.5,413.8 753.2,413.8 759.9,413.8 766.6,413.8 773.3,413.6 780.0,413.4 780.0,416.7 773.3,417.3 766.6,417.9 759.9,417.9 753.2,417.9 746.5,417.9 739.8,417.9 733.1,417.9 726.4,417.9 719.7,417.9 713.0,417.9 706.3,417.9 699.6,417.9 692.9,417.9 686.2,417.9 679.5,417.9 672.8,417.9 666.1,417.9 659.4,417.9 652.7,417.9 646.0,417.9 639.3,417.9 632.6,417.9 625.9,417.9 619.2,417.9 612.5,417.9 605.8,417.9 599.1,417.9 592.4,417.9 585.7,417.9 579.0,417.9 572.3,417.9 565.6,417.9 558.9,418.0 552.2,418.0 545.5,418.0 538.8,418.0 532.1,418.0 525.4,418.0 518.7,418.0 512.0,418.0 505.3,418.0 498.6,418.1 491.9,418.1 485.2,418.1 478.5,418.1 471.8,418.1 465.1,418.1 458.4,418.1 451.7,418.1 445.0,418.1 438.3,418.1 431.7,418.1 425.0,418.1 418.3,418.1 411.6,418.1 404.9,418.1 398.2,418.1 391.5,418.1 384.8,418.1 378.1,418.2 371.4,418.2 364.7,418.2 358.0,418.3 351.3,418.3 344.6,418.8 337.9,418.8 331.2,418.8 324.5,418.9 317.8,418.9 311.1,422.9 304.4,422.9 297.7,422.9 291.0,422.9 284.3,423.0 277.6,423.0 270.9,423.2 264.2,423.2 257.5,423.3 250.8,423.3 244.1,423.3 237.4,424.2 230.7,424.3 224.0,421.0 217.3,421.0 210.6,421.0 203.9,421.0 197.2,421.0 190.5,421.1 183.8,421.1 177.1,425.2 170.4,425.3 163.7,425.3 157.0,427.8 150.3,428.1 143.6,428.3 136.9,650.0 130.2,650.0 123.5,650.0 116.8,650.0 110.1,650.0 103.4,650.0 96.7,650.0 90.0,650.0" fill="#6E4C13" opacity="0.6" class="anim" style="animation-delay:1100ms;"/>
<polygon points="90.0,650.0 96.7,650.0 103.4,650.0 110.1,650.0 116.8,650.0 123.5,650.0 130.2,650.0 136.9,650.0 143.6,414.4 150.3,414.4 157.0,414.3 163.7,413.7 170.4,413.7 177.1,413.7 183.8,412.7 190.5,412.7 197.2,412.7 203.9,412.7 210.6,412.7 217.3,412.7 224.0,412.7 230.7,413.5 237.4,413.4 244.1,413.2 250.8,413.2 257.5,413.2 264.2,413.2 270.9,413.2 277.6,413.1 284.3,413.1 291.0,413.1 297.7,413.1 304.4,413.1 311.1,413.1 317.8,412.2 324.5,412.1 331.2,412.1 337.9,412.1 344.6,412.1 351.3,412.0 358.0,412.0 364.7,412.0 371.4,412.0 378.1,412.0 384.8,412.0 391.5,412.0 398.2,412.0 404.9,412.0 411.6,412.0 418.3,412.0 425.0,412.0 431.7,412.0 438.3,412.0 445.0,412.0 451.7,412.0 458.4,412.0 465.1,412.0 471.8,411.9 478.5,411.9 485.2,411.9 491.9,411.9 498.6,411.9 505.3,411.9 512.0,411.9 518.7,411.9 525.4,411.9 532.1,411.9 538.8,411.9 545.5,411.9 552.2,411.9 558.9,411.9 565.6,411.9 572.3,411.9 579.0,411.9 585.7,411.9 592.4,411.9 599.1,411.9 605.8,411.9 612.5,411.9 619.2,411.9 625.9,411.9 632.6,411.9 639.3,411.9 646.0,411.9 652.7,411.9 659.4,411.9 666.1,411.9 672.8,411.9 679.5,411.9 686.2,411.9 692.9,411.9 699.6,411.9 706.3,411.9 713.0,411.9 719.7,411.9 726.4,411.9 733.1,411.9 739.8,411.9 746.5,411.9 753.2,411.9 759.9,411.9 766.6,411.9 773.3,411.9 780.0,411.9 780.0,413.4 773.3,413.6 766.6,413.8 759.9,413.8 753.2,413.8 746.5,413.8 739.8,413.8 733.1,413.8 726.4,413.8 719.7,413.8 713.0,413.8 706.3,413.8 699.6,413.8 692.9,413.8 686.2,413.8 679.5,413.8 672.8,413.8 666.1,413.8 659.4,413.8 652.7,413.8 646.0,413.8 639.3,413.8 632.6,413.8 625.9,413.8 619.2,413.8 612.5,413.8 605.8,413.8 599.1,413.8 592.4,413.8 585.7,413.8 579.0,413.8 572.3,413.8 565.6,413.8 558.9,413.8 552.2,413.8 545.5,413.8 538.8,413.8 532.1,413.8 525.4,413.8 518.7,413.8 512.0,413.8 505.3,413.8 498.6,413.8 491.9,413.8 485.2,413.8 478.5,413.8 471.8,413.8 465.1,413.9 458.4,413.9 451.7,413.9 445.0,413.9 438.3,413.9 431.7,413.9 425.0,413.9 418.3,413.9 411.6,413.9 404.9,413.9 398.2,413.9 391.5,413.9 384.8,413.9 378.1,413.9 371.4,413.9 364.7,413.9 358.0,413.9 351.3,413.9 344.6,414.2 337.9,414.2 331.2,414.2 324.5,414.2 317.8,414.2 311.1,416.2 304.4,416.2 297.7,416.2 291.0,416.2 284.3,416.2 277.6,416.2 270.9,416.3 264.2,416.3 257.5,416.3 250.8,416.3 244.1,416.3 237.4,416.8 230.7,416.8 224.0,415.2 217.3,415.2 210.6,415.2 203.9,415.2 197.2,415.2 190.5,415.3 183.8,415.3 177.1,417.2 170.4,417.3 163.7,417.3 157.0,418.5 150.3,418.6 143.6,418.7 136.9,650.0 130.2,650.0 123.5,650.0 116.8,650.0 110.1,650.0 103.4,650.0 96.7,650.0 90.0,650.0" fill="#b07219" opacity="0.6" class="anim" style="animation-delay:1200ms;"/>
<line x1="766.6" y1="100" x2="766.6" y2="650" stroke="#c9d1d9" stroke-width="1" stroke-dasharray="4,3" opacity="0.35"/>
<text x="773.3" y="112" text-anchor="middle" class="axis-label" opacity="0.6">Aug 05, 2026</text>
<text x="90.0" y="668" text-anchor="middle" class="axis-label" transform="rotate(-35 90.0 668)">2026-02</text>
<text x="311.1" y="668" text-anchor="middle" class="axis-label" transform="rotate(-35 311.1 668)">2026-03</text>
<text x="458.4" y="668" text-anchor="middle" class="axis-label" transform="rotate(-35 458.4 668)">2026-04</text>
<text x="532.1" y="668" text-anchor="middle" class="axis-label" transform="rotate(-35 532.1 668)">2026-06</text>
<text x="679.5" y="668" text-anchor="middle" class="axis-label" transform="rotate(-35 679.5 668)">2026-07</text>
<text x="773.3" y="668" text-anchor="middle" class="axis-label" transform="rotate(-35 773.3 668)">Aug 05, 2026</text>
<line x1="796" y1="110" x2="824" y2="110" stroke="#3fb950" stroke-width="2"/>
<text x="832" y="116" class="legend-text">Lines Added</text>
<line x1="796" y1="140" x2="824" y2="140" stroke="#f85149" stroke-width="1.5"/>
<text x="832" y="146" class="legend-text">Lines Deleted</text>
<line x1="796" y1="170" x2="824" y2="170" stroke="#e3b341" stroke-width="1.5" stroke-dasharray="4,3"/>
<text x="832" y="176" class="legend-text">&#x2605; Stars</text>
<text x="796" y="200" class="subtitle">Languages</text>
<rect x="796" y="212" width="12" height="12" rx="2" fill="#e34c26" opacity="0.8" class="anim" style="animation-delay:800ms;"/>
<text x="814" y="223" class="legend-text">HTML (58%→56%)</text>
<rect x="796" y="234" width="12" height="12" rx="2" fill="#f1e05a" opacity="0.8" class="anim" style="animation-delay:880ms;"/>
<text x="814" y="245" class="legend-text">JavaScript (22%→25%)</text>
<rect x="796" y="256" width="12" height="12" rx="2" fill="#3572A5" opacity="0.8" class="anim" style="animation-delay:960ms;"/>
<text x="814" y="267" class="legend-text">Python (7%→6%)</text>
<rect x="796" y="278" width="12" height="12" rx="2" fill="#663399" opacity="0.8" class="anim" style="animation-delay:1040ms;"/>
<text x="814" y="289" class="legend-text">CSS (6%→6%)</text>
<rect x="796" y="300" width="12" height="12" rx="2" fill="#083fa1" opacity="0.8" class="anim" style="animation-delay:1120ms;"/>
<text x="814" y="311" class="legend-text">Markdown (2%→2%)</text>
<rect x="796" y="322" width="12" height="12" rx="2" fill="#F05138" opacity="0.8" class="anim" style="animation-delay:1200ms;"/>
<text x="814" y="333" class="legend-text">Swift (2%)</text>
<rect x="796" y="344" width="12" height="12" rx="2" fill="#6E4C13" opacity="0.8" class="anim" style="animation-delay:1280ms;"/>
<text x="814" y="355" class="legend-text">Assembly (2%→1%)</text>
<rect x="796" y="366" width="12" height="12" rx="2" fill="#b07219" opacity="0.8" class="anim" style="animation-delay:1360ms;"/>
<text x="814" y="377" class="legend-text">Java (1%→1%)</text>
<text x="796" y="412" class="subtitle">Contributions</text>
<text x="796" y="432" class="axis-label">2023: 39</text>
<text x="796" y="452" class="axis-label">2024: 646</text>
<text x="796" y="472" class="axis-label">2025: 1,780</text>
<text x="796" y="492" class="axis-label">2026: 491</text>
<text x="796" y="522" class="subtitle">Statistics</text>
<text x="796" y="542" class="axis-label">Active weeks: 88</text>
<text x="796" y="562" class="axis-label">Add/Del ratio: 1.8x</text>
<text x="796" y="582" class="axis-label">Avg lines/wk: 18K</text>
<text x="796" y="602" class="axis-label">Peak: 2026-02-15</text>
<text x="796" y="622" class="axis-label">  (543K lines)</text>
<text x="90" y="742" class="axis-label">Total: +1,040,332 / -576,819 lines &#xb7; 2,956 contributions &#xb7; 80 repos &#xb7; &#x2605; 37</text>
</svg>