<svg xmlns="http://www.w3.org/2000/svg" width="1000" height="760" style="max-width: 100%;" viewBox="0 0 1000 760">

<defs>
  <linearGradient id="areaGrad" x1="0" y1="0" x2="0" y2="1">
    <stop offset="0%" stop-color="#58a6ff" stop-opacity="0.35"/>
    <stop offset="100%" stop-color="#58a6ff" stop-opacity="0.02"/>
  </linearGradient>
  <linearGradient id="addGrad" x1="0" y1="0" x2="0" y2="1">
    <stop offset="0%" stop-color="#3fb950" stop-opacity="0.35"/>
    <stop offset="100%" stop-color="#3fb950" stop-opacity="0.02"/>
  </linearGradient>
  <linearGradient id="delGrad" x1="0" y1="0" x2="0" y2="1">
    <stop offset="0%" stop-color="#f85149" stop-opacity="0.25"/>
    <stop offset="100%" stop-color="#f85149" stop-opacity="0.02"/>
  </linearGradient>
</defs>
<style>
  .title { font: bold 28px 'Segoe UI', Ubuntu, Sans-Serif; fill: #c9d1d9; }
  .subtitle { font: 600 20px 'Segoe UI', Ubuntu, Sans-Serif; fill: #c9d1d9; opacity: 0.8; }
  .axis-label { font: 18px 'Segoe UI', Ubuntu, Sans-Serif; fill: #c9d1d9; opacity: 0.7; }
  .legend-text { font: 14px 'Segoe UI', Ubuntu, Sans-Serif; fill: #c9d1d9; }
  .value-text { font: bold 18px 'Segoe UI', Ubuntu, Sans-Serif; fill: #c9d1d9; }
  .stat-value { font: bold 22px 'Segoe UI', Ubuntu, Sans-Serif; fill: #c9d1d9; }
  .stat-label { font: 18px 'Segoe UI', Ubuntu, Sans-Serif; fill: #c9d1d9; opacity: 0.7; }
  @keyframes fadeIn { from { opacity: 0; } to { opacity: 1; } }
  .anim { animation: fadeIn 0.6s ease-in-out forwards; opacity: 0; }
</style>

<rect x="0.5" y="0.5" rx="4.5" width="999" height="759" fill="#161b22" stroke="#21262d"/>
<text x="90" y="45" class="title">Activity History</text>
<text x="90" y="72" class="subtitle">Lines added vs deleted &amp; activity trends over time</text>
<line x1="90" y1="340.0" x2="780" y2="340.0" stroke="#21262d" stroke-width="1"/>
<text x="82" y="344.0" text-anchor="end" class="axis-label">0</text>
<line x1="90" y1="280.0" x2="780" y2="280.0" stroke="#21262d" stroke-width="1"/>
<text x="82" y="284.0" text-anchor="end" class="axis-label">459K</text>
<line x1="90" y1="220.0" x2="780" y2="220.0" stroke="#21262d" stroke-width="1"/>
<text x="82" y="224.0" text-anchor="end" class="axis-label">917K</text>
<line x1="90" y1="160.0" x2="780" y2="160.0" stroke="#21262d" stroke-width="1"/>
<text x="82" y="164.0" text-anchor="end" class="axis-label">1.4M</text>
<line x1="90" y1="100.0" x2="780" y2="100.0" stroke="#21262d" stroke-width="1"/>
<text x="82" y="104.0" text-anchor="end" class="axis-label">1.8M</text>
<polygon points="90.0,340.0 90.0,292.2 99.3,294.0 108.6,292.3 118.0,294.0 127.3,305.0 136.6,283.1 145.9,283.1 155.3,274.8 164.6,274.5 173.9,274.0 183.2,274.0 192.6,259.3 201.9,259.3 211.2,259.2 220.5,237.4 229.9,237.2 239.2,236.9 248.5,236.9 257.8,236.9 267.2,236.9 276.5,236.9 285.8,236.3 295.1,221.8 304.5,221.7 313.8,221.7 323.1,221.7 332.4,221.4 341.8,221.4 351.1,220.8 360.4,220.8 369.7,220.7 379.1,220.7 388.4,220.7 397.7,220.7 407.0,220.7 416.4,220.7 425.7,220.7 435.0,220.7 444.3,220.7 453.6,220.7 463.0,220.7 472.3,220.1 481.6,220.3 490.9,219.7 500.3,219.3 509.6,219.3 518.9,219.3 528.2,219.3 537.6,219.3 546.9,219.3 556.2,219.3 565.5,219.3 574.9,219.3 584.2,219.3 593.5,219.6 602.8,221.1 612.2,219.6 621.5,218.4 630.8,218.3 640.1,218.3 649.5,218.3 658.8,218.3 668.1,210.8 677.4,204.0 686.8,204.0 696.1,204.0 705.4,204.0 714.7,204.0 724.1,204.0 733.4,204.0 742.7,204.0 752.0,203.9 761.4,203.9 770.7,196.1 780.0,188.3 780.0,340.0" fill="url(#addGrad)" class="anim" style="animation-delay:200ms;"/>
<polyline points="90.0,292.2 99.3,294.0 108.6,292.3 118.0,294.0 127.3,305.0 136.6,283.1 145.9,283.1 155.3,274.8 164.6,274.5 173.9,274.0 183.2,274.0 192.6,259.3 201.9,259.3 211.2,259.2 220.5,237.4 229.9,237.2 239.2,236.9 248.5,236.9 257.8,236.9 267.2,236.9 276.5,236.9 285.8,236.3 295.1,221.8 304.5,221.7 313.8,221.7 323.1,221.7 332.4,221.4 341.8,221.4 351.1,220.8 360.4,220.8 369.7,220.7 379.1,220.7 388.4,220.7 397.7,220.7 407.0,220.7 416.4,220.7 425.7,220.7 435.0,220.7 444.3,220.7 453.6,220.7 463.0,220.7 472.3,220.1 481.6,220.3 490.9,219.7 500.3,219.3 509.6,219.3 518.9,219.3 528.2,219.3 537.6,219.3 546.9,219.3 556.2,219.3 565.5,219.3 574.9,219.3 584.2,219.3 593.5,219.6 602.8,221.1 612.2,219.6 621.5,218.4 630.8,218.3 640.1,218.3 649.5,218.3 658.8,218.3 668.1,210.8 677.4,204.0 686.8,204.0 696.1,204.0 705.4,204.0 714.7,204.0 724.1,204.0 733.4,204.0 742.7,204.0 752.0,203.9 761.4,203.9" fill="none" stroke="#3fb950" stroke-width="2" stroke-linejoin="round" class="anim" style="animation-delay:250ms;"/>
<polyline points="761.4,203.9 770.7,196.1 780.0,188.3" fill="none" stroke="#3fb950" stroke-width="1.5" stroke-dasharray="5,4" stroke-linejoin="round" opacity="0.6" class="anim" style="animation-delay:250ms;"/>
<polygon points="90.0,340.0 90.0,326.6 99.3,328.0 108.6,326.6 118.0,327.9 127.3,333.7 136.6,324.9 145.9,324.9 155.3,324.0 164.6,323.6 173.9,323.4 183.2,323.3 192.6,307.5 201.9,307.5 211.2,307.5 220.5,289.6 229.9,289.4 239.2,289.4 248.5,289.4 257.8,289.4 267.2,289.4 276.5,289.4 285.8,280.0 295.1,265.7 304.5,265.7 313.8,265.7 323.1,265.7 332.4,265.6 341.8,265.6 351.1,265.6 360.4,265.5 369.7,265.5 379.1,265.5 388.4,265.5 397.7,265.5 407.0,265.5 416.4,265.5 425.7,265.5 435.0,265.5 444.3,265.5 453.6,265.5 463.0,265.5 472.3,265.5 481.6,265.6 490.9,265.1 500.3,265.1 509.6,265.1 518.9,265.1 528.2,265.1 537.6,265.1 546.9,265.1 556.2,265.1 565.5,265.1 574.9,265.1 584.2,265.1 593.5,265.2 602.8,266.0 612.2,265.5 621.5,264.7 630.8,264.6 640.1,264.6 649.5,264.6 658.8,264.6 668.1,264.5 677.4,264.5 686.8,264.5 696.1,264.5 705.4,264.5 714.7,264.5 724.1,264.5 733.4,264.5 742.7,264.5 752.0,264.5 761.4,264.5 770.7,258.1 780.0,251.7 780.0,340.0" fill="url(#delGrad)" class="anim" style="animation-delay:300ms;"/>
<polyline points="90.0,326.6 99.3,328.0 108.6,326.6 118.0,327.9 127.3,333.7 136.6,324.9 145.9,324.9 155.3,324.0 164.6,323.6 173.9,323.4 183.2,323.3 192.6,307.5 201.9,307.5 211.2,307.5 220.5,289.6 229.9,289.4 239.2,289.4 248.5,289.4 257.8,289.4 267.2,289.4 276.5,289.4 285.8,280.0 295.1,265.7 304.5,265.7 313.8,265.7 323.1,265.7 332.4,265.6 341.8,265.6 351.1,265.6 360.4,265.5 369.7,265.5 379.1,265.5 388.4,265.5 397.7,265.5 407.0,265.5 416.4,265.5 425.7,265.5 435.0,265.5 444.3,265.5 453.6,265.5 463.0,265.5 472.3,265.5 481.6,265.6 490.9,265.1 500.3,265.1 509.6,265.1 518.9,265.1 528.2,265.1 537.6,265.1 546.9,265.1 556.2,265.1 565.5,265.1 574.9,265.1 584.2,265.1 593.5,265.2 602.8,266.0 612.2,265.5 621.5,264.7 630.8,264.6 640.1,264.6 649.5,264.6 658.8,264.6 668.1,264.5 677.4,264.5 686.8,264.5 696.1,264.5 705.4,264.5 714.7,264.5 724.1,264.5 733.4,264.5 742.7,264.5 752.0,264.5 761.4,264.5" fill="none" stroke="#f85149" stroke-width="1.5" stroke-linejoin="round" class="anim" style="animation-delay:350ms;"/>
<polyline points="761.4,264.5 770.7,258.1 780.0,251.7" fill="none" stroke="#f85149" stroke-width="1" stroke-dasharray="5,4" stroke-linejoin="round" opacity="0.6" class="anim" style="animation-delay:350ms;"/>
<polyline points="90.0,340.0 99.3,340.0 108.6,340.0 118.0,340.0 127.3,340.0 136.6,340.0 145.9,340.0 155.3,340.0 164.6,308.0 173.9,308.0 183.2,308.0 192.6,308.0 201.9,308.0 211.2,308.0 220.5,308.0 229.9,308.0 239.2,308.0 248.5,308.0 257.8,308.0 267.2,308.0 276.5,308.0 285.8,308.0 295.1,308.0 304.5,308.0 313.8,308.0 323.1,308.0 332.4,308.0 341.8,308.0 351.1,308.0 360.4,308.0 369.7,308.0 379.1,308.0 388.4,308.0 397.7,308.0 407.0,276.0 416.4,276.0 425.7,276.0 435.0,276.0 444.3,276.0 453.6,276.0 463.0,276.0 472.3,276.0 481.6,244.0 490.9,244.0 500.3,244.0 509.6,244.0 518.9,244.0 528.2,244.0 537.6,244.0 546.9,244.0 556.2,244.0 565.5,244.0 574.9,244.0 584.2,244.0 593.5,244.0 602.8,244.0 612.2,244.0 621.5,244.0 630.8,180.0 640.1,180.0 649.5,180.0 658.8,180.0 668.1,180.0 677.4,180.0 686.8,180.0 696.1,180.0 705.4,180.0 714.7,180.0 724.1,180.0 733.4,180.0 742.7,180.0 752.0,180.0 761.4,180.0" fill="none" stroke="#e3b341" stroke-width="1.5" stroke-dasharray="4,3" stroke-linejoin="round" class="anim" style="animation-delay:400ms;"/>
<polyline points="761.4,180.0 770.7,180.0 780.0,148.0" fill="none" stroke="#e3b341" stroke-width="1" stroke-dasharray="3,5" stroke-linejoin="round" opacity="0.5" class="anim" style="animation-delay:400ms;"/>
<text x="90" y="90" class="subtitle">Lines Added vs Deleted (per snapshot)</text>
<text x="90" y="400" class="subtitle">Programming Language Development (%)</text>
<line x1="90" y1="650.0" x2="780" y2="650.0" stroke="#21262d" stroke-width="1"/>
<text x="82" y="654.0" text-anchor="end" class="axis-label">0%</text>
<line x1="90" y1="590.0" x2="780" y2="590.0" stroke="#21262d" stroke-width="1"/>
<text x="82" y="594.0" text-anchor="end" class="axis-label">25%</text>
<line x1="90" y1="530.0" x2="780" y2="530.0" stroke="#21262d" stroke-width="1"/>
<text x="82" y="534.0" text-anchor="end" class="axis-label">50%</text>
<line x1="90" y1="470.0" x2="780" y2="470.0" stroke="#21262d" stroke-width="1"/>
<text x="82" y="474.0" text-anchor="end" class="axis-label">75%</text>
<line x1="90" y1="410.0" x2="780" y2="410.0" stroke="#21262d" stroke-width="1"/>
<text x="82" y="414.0" text-anchor="end" class="axis-label">100%</text>
<polygon points="90.0,650.0 99.3,650.0 108.6,650.0 118.0,650.0 127.3,650.0 136.6,650.0 145.9,650.0 155.3,650.0 164.6,528.2 173.9,528.5 183.2,529.7 192.6,499.3 201.9,499.3 211.2,502.9 220.5,485.0 229.9,485.1 239.2,485.4 248.5,485.4 257.8,485.4 267.2,485.4 276.5,485.4 285.8,496.4 295.1,496.7 304.5,491.0 313.8,491.0 323.1,491.0 332.4,491.7 341.8,491.8 351.1,494.0 360.4,494.0 369.7,494.4 379.1,494.4 388.4,494.4 397.7,494.4 407.0,507.6 416.4,507.6 425.7,507.9 435.0,507.9 444.3,507.9 453.6,506.3 463.0,506.4 472.3,506.8 481.6,506.9 490.9,506.8 500.3,507.5 509.6,507.5 518.9,507.5 528.2,507.5 537.6,507.5 546.9,507.5 556.2,507.5 565.5,507.5 574.9,507.5 584.2,507.5 593.5,507.5 602.8,507.5 612.2,507.5 621.5,508.6 630.8,508.6 640.1,508.6 649.5,508.6 658.8,508.6 668.1,509.5 677.4,509.8 686.8,509.8 696.1,509.8 705.4,509.8 714.7,509.8 724.1,509.8 733.4,509.8 742.7,509.8 752.0,510.9 761.4,510.9 770.7,512.8 780.0,514.7 780.0,650.0 770.7,650.0 761.4,650.0 752.0,650.0 742.7,650.0 733.4,650.0 724.1,650.0 714.7,650.0 705.4,650.0 696.1,650.0 686.8,650.0 677.4,650.0 668.1,650.0 658.8,650.0 649.5,650.0 640.1,650.0 630.8,650.0 621.5,650.0 612.2,650.0 602.8,650.0 593.5,650.0 584.2,650.0 574.9,650.0 565.5,650.0 556.2,650.0 546.9,650.0 537.6,650.0 528.2,650.0 518.9,650.0 509.6,650.0 500.3,650.0 490.9,650.0 481.6,650.0 472.3,650.0 463.0,650.0 453.6,650.0 444.3,650.0 435.0,650.0 425.7,650.0 416.4,650.0 407.0,650.0 397.7,650.0 388.4,650.0 379.1,650.0 369.7,650.0 360.4,650.0 351.1,650.0 341.8,650.0 332.4,650.0 323.1,650.0 313.8,650.0 304.5,650.0 295.1,650.0 285.8,650.0 276.5,650.0 267.2,650.0 257.8,650.0 248.5,650.0 239.2,650.0 229.9,650.0 220.5,650.0 211.2,650.0 201.9,650.0 192.6,650.0 183.2,650.0 173.9,650.0 164.6,650.0 155.3,650.0 145.9,650.0 136.6,650.0 127.3,650.0 118.0,650.0 108.6,650.0 99.3,650.0 90.0,650.0" fill="#e34c26" opacity="0.6" class="anim" style="animation-delay:500ms;"/>
<polygon points="90.0,650.0 99.3,650.0 108.6,650.0 118.0,650.0 127.3,650.0 136.6,650.0 145.9,650.0 155.3,650.0 164.6,488.4 173.9,488.0 183.2,489.0 192.6,476.0 201.9,476.0 211.2,477.2 220.5,460.1 229.9,460.2 239.2,460.6 248.5,460.6 257.8,460.6 267.2,460.6 276.5,460.6 285.8,473.0 295.1,473.5 304.5,469.5 313.8,469.5 323.1,469.5 332.4,469.7 341.8,469.7 351.1,469.7 360.4,469.7 369.7,469.7 379.1,469.7 388.4,469.7 397.7,469.7 407.0,455.6 416.4,455.6 425.7,455.4 435.0,455.4 444.3,455.4 453.6,454.3 463.0,454.3 472.3,455.0 481.6,455.1 490.9,454.9 500.3,455.9 509.6,455.9 518.9,455.9 528.2,455.9 537.6,455.9 546.9,455.9 556.2,455.9 565.5,455.9 574.9,455.9 584.2,455.9 593.5,455.9 602.8,455.9 612.2,455.9 621.5,455.8 630.8,455.8 640.1,455.8 649.5,455.8 658.8,455.8 668.1,457.0 677.4,457.4 686.8,457.4 696.1,457.4 705.4,457.4 714.7,457.4 724.1,457.4 733.4,457.4 742.7,457.4 752.0,458.2 761.4,458.2 770.7,455.9 780.0,453.6 780.0,514.7 770.7,512.8 761.4,510.9 752.0,510.9 742.7,509.8 733.4,509.8 724.1,509.8 714.7,509.8 705.4,509.8 696.1,509.8 686.8,509.8 677.4,509.8 668.1,509.5 658.8,508.6 649.5,508.6 640.1,508.6 630.8,508.6 621.5,508.6 612.2,507.5 602.8,507.5 593.5,507.5 584.2,507.5 574.9,507.5 565.5,507.5 556.2,507.5 546.9,507.5 537.6,507.5 528.2,507.5 518.9,507.5 509.6,507.5 500.3,507.5 490.9,506.8 481.6,506.9 472.3,506.8 463.0,506.4 453.6,506.3 444.3,507.9 435.0,507.9 425.7,507.9 416.4,507.6 407.0,507.6 397.7,494.4 388.4,494.4 379.1,494.4 369.7,494.4 360.4,494.0 351.1,494.0 341.8,491.8 332.4,491.7 323.1,491.0 313.8,491.0 304.5,491.0 295.1,496.7 285.8,496.4 276.5,485.4 267.2,485.4 257.8,485.4 248.5,485.4 239.2,485.4 229.9,485.1 220.5,485.0 211.2,502.9 201.9,499.3 192.6,499.3 183.2,529.7 173.9,528.5 164.6,528.2 155.3,650.0 145.9,650.0 136.6,650.0 127.3,650.0 118.0,650.0 108.6,650.0 99.3,650.0 90.0,650.0" fill="#f1e05a" opacity="0.6" class="anim" style="animation-delay:600ms;"/>
<polygon points="90.0,650.0 99.3,650.0 108.6,650.0 118.0,650.0 127.3,650.0 136.6,650.0 145.9,650.0 155.3,650.0 164.6,455.5 173.9,455.4 183.2,455.1 192.6,447.0 201.9,447.0 211.2,448.2 220.5,438.9 229.9,439.0 239.2,439.6 248.5,439.6 257.8,439.6 267.2,439.6 276.5,439.6 285.8,445.6 295.1,445.6 304.5,443.3 313.8,443.3 323.1,443.3 332.4,443.6 341.8,443.6 351.1,444.1 360.4,444.1 369.7,444.1 379.1,444.1 388.4,444.1 397.7,444.1 407.0,437.5 416.4,437.5 425.7,437.5 435.0,437.5 444.3,437.5 453.6,437.5 463.0,437.5 472.3,438.4 481.6,438.5 490.9,438.3 500.3,439.3 509.6,439.3 518.9,439.3 528.2,439.3 537.6,439.3 546.9,439.3 556.2,439.3 565.5,439.3 574.9,439.3 584.2,439.3 593.5,439.3 602.8,439.3 612.2,439.3 621.5,439.4 630.8,439.4 640.1,439.4 649.5,439.4 658.8,439.4 668.1,440.7 677.4,441.1 686.8,441.1 696.1,441.1 705.4,441.1 714.7,441.1 724.1,441.1 733.4,441.1 742.7,441.1 752.0,442.0 761.4,442.0 770.7,441.4 780.0,440.9 780.0,453.6 770.7,455.9 761.4,458.2 752.0,458.2 742.7,457.4 733.4,457.4 724.1,457.4 714.7,457.4 705.4,457.4 696.1,457.4 686.8,457.4 677.4,457.4 668.1,457.0 658.8,455.8 649.5,455.8 640.1,455.8 630.8,455.8 621.5,455.8 612.2,455.9 602.8,455.9 593.5,455.9 584.2,455.9 574.9,455.9 565.5,455.9 556.2,455.9 546.9,455.9 537.6,455.9 528.2,455.9 518.9,455.9 509.6,455.9 500.3,455.9 490.9,454.9 481.6,455.1 472.3,455.0 463.0,454.3 453.6,454.3 444.3,455.4 435.0,455.4 425.7,455.4 416.4,455.6 407.0,455.6 397.7,469.7 388.4,469.7 379.1,469.7 369.7,469.7 360.4,469.7 351.1,469.7 341.8,469.7 332.4,469.7 323.1,469.5 313.8,469.5 304.5,469.5 295.1,473.5 285.8,473.0 276.5,460.6 267.2,460.6 257.8,460.6 248.5,460.6 239.2,460.6 229.9,460.2 220.5,460.1 211.2,477.2 201.9,476.0 192.6,476.0 183.2,489.0 173.9,488.0 164.6,488.4 155.3,650.0 145.9,650.0 136.6,650.0 127.3,650.0 118.0,650.0 108.6,650.0 99.3,650.0 90.0,650.0" fill="#3572A5" opacity="0.6" class="anim" style="animation-delay:700ms;"/>
<polygon points="90.0,650.0 99.3,650.0 108.6,650.0 118.0,650.0 127.3,650.0 136.6,650.0 145.9,650.0 155.3,650.0 164.6,442.3 173.9,442.0 183.2,441.6 192.6,439.5 201.9,439.5 211.2,439.4 220.5,432.3 229.9,432.2 239.2,432.6 248.5,432.6 257.8,432.6 267.2,432.6 276.5,432.6 285.8,439.3 295.1,439.3 304.5,437.4 313.8,437.4 323.1,437.4 332.4,437.3 341.8,437.3 351.1,437.1 360.4,437.1 369.7,437.1 379.1,437.1 388.4,437.1 397.7,437.1 407.0,428.7 416.4,428.6 425.7,428.5 435.0,428.5 444.3,428.5 453.6,427.3 463.0,427.3 472.3,427.1 481.6,427.1 490.9,427.1 500.3,427.0 509.6,427.0 518.9,427.0 528.2,427.0 537.6,427.0 546.9,427.0 556.2,427.0 565.5,427.0 574.9,427.0 584.2,427.0 593.5,427.0 602.8,427.0 612.2,427.0 621.5,427.0 630.8,427.1 640.1,427.1 649.5,427.1 658.8,427.1 668.1,428.4 677.4,428.9 686.8,428.9 696.1,428.9 705.4,428.9 714.7,428.9 724.1,428.9 733.4,428.9 742.7,428.9 752.0,428.7 761.4,428.7 770.7,427.4 780.0,426.1 780.0,440.9 770.7,441.4 761.4,442.0 752.0,442.0 742.7,441.1 733.4,441.1 724.1,441.1 714.7,441.1 705.4,441.1 696.1,441.1 686.8,441.1 677.4,441.1 668.1,440.7 658.8,439.4 649.5,439.4 640.1,439.4 630.8,439.4 621.5,439.4 612.2,439.3 602.8,439.3 593.5,439.3 584.2,439.3 574.9,439.3 565.5,439.3 556.2,439.3 546.9,439.3 537.6,439.3 528.2,439.3 518.9,439.3 509.6,439.3 500.3,439.3 490.9,438.3 481.6,438.5 472.3,438.4 463.0,437.5 453.6,437.5 444.3,437.5 435.0,437.5 425.7,437.5 416.4,437.5 407.0,437.5 397.7,444.1 388.4,444.1 379.1,444.1 369.7,444.1 360.4,444.1 351.1,444.1 341.8,443.6 332.4,443.6 323.1,443.3 313.8,443.3 304.5,443.3 295.1,445.6 285.8,445.6 276.5,439.6 267.2,439.6 257.8,439.6 248.5,439.6 239.2,439.6 229.9,439.0 220.5,438.9 211.2,448.2 201.9,447.0 192.6,447.0 183.2,455.1 173.9,455.4 164.6,455.5 155.3,650.0 145.9,650.0 136.6,650.0 127.3,650.0 118.0,650.0 108.6,650.0 99.3,650.0 90.0,650.0" fill="#663399" opacity="0.6" class="anim" style="animation-delay:800ms;"/>
<polygon points="90.0,650.0 99.3,650.0 108.6,650.0 118.0,650.0 127.3,650.0 136.6,650.0 145.9,650.0 155.3,650.0 164.6,436.6 173.9,436.3 183.2,435.9 192.6,432.2 201.9,432.2 211.2,432.2 220.5,426.2 229.9,426.1 239.2,426.0 248.5,426.0 257.8,426.0 267.2,426.0 276.5,426.0 285.8,430.8 295.1,430.7 304.5,429.3 313.8,429.3 323.1,429.3 332.4,429.2 341.8,429.2 351.1,428.9 360.4,428.9 369.7,428.8 379.1,428.8 388.4,428.8 397.7,428.8 407.0,423.0 416.4,422.9 425.7,422.9 435.0,422.9 444.3,422.9 453.6,422.0 463.0,422.0 472.3,421.9 481.6,421.9 490.9,421.9 500.3,421.8 509.6,421.8 518.9,421.8 528.2,421.8 537.6,421.8 546.9,421.8 556.2,421.8 565.5,421.8 574.9,421.8 584.2,421.8 593.5,421.8 602.8,421.8 612.2,421.8 621.5,421.7 630.8,421.8 640.1,421.8 649.5,421.8 658.8,421.8 668.1,423.2 677.4,423.6 686.8,423.6 696.1,423.6 705.4,423.6 714.7,423.6 724.1,423.6 733.4,423.6 742.7,423.6 752.0,423.5 761.4,423.5 770.7,422.5 780.0,421.6 780.0,426.1 770.7,427.4 761.4,428.7 752.0,428.7 742.7,428.9 733.4,428.9 724.1,428.9 714.7,428.9 705.4,428.9 696.1,428.9 686.8,428.9 677.4,428.9 668.1,428.4 658.8,427.1 649.5,427.1 640.1,427.1 630.8,427.1 621.5,427.0 612.2,427.0 602.8,427.0 593.5,427.0 584.2,427.0 574.9,427.0 565.5,427.0 556.2,427.0 546.9,427.0 537.6,427.0 528.2,427.0 518.9,427.0 509.6,427.0 500.3,427.0 490.9,427.1 481.6,427.1 472.3,427.1 463.0,427.3 453.6,427.3 444.3,428.5 435.0,428.5 425.7,428.5 416.4,428.6 407.0,428.7 397.7,437.1 388.4,437.1 379.1,437.1 369.7,437.1 360.4,437.1 351.1,437.1 341.8,437.3 332.4,437.3 323.1,437.4 313.8,437.4 304.5,437.4 295.1,439.3 285.8,439.3 276.5,432.6 267.2,432.6 257.8,432.6 248.5,432.6 239.2,432.6 229.9,432.2 220.5,432.3 211.2,439.4 201.9,439.5 192.6,439.5 183.2,441.6 173.9,442.0 164.6,442.3 155.3,650.0 145.9,650.0 136.6,650.0 127.3,650.0 118.0,650.0 108.6,650.0 99.3,650.0 90.0,650.0" fill="#083fa1" opacity="0.6" class="anim" style="animation-delay:900ms;"/>
<polygon points="90.0,650.0 99.3,650.0 108.6,650.0 118.0,650.0 127.3,650.0 136.6,650.0 145.9,650.0 155.3,650.0 164.6,427.0 173.9,426.8 183.2,426.6 192.6,424.2 201.9,424.2 211.2,424.2 220.5,420.4 229.9,420.3 239.2,420.3 248.5,420.3 257.8,420.3 267.2,420.3 276.5,420.3 285.8,423.3 295.1,423.2 304.5,422.4 313.8,422.4 323.1,422.4 332.4,422.3 341.8,422.3 351.1,422.1 360.4,422.1 369.7,422.1 379.1,422.1 388.4,422.1 397.7,422.1 407.0,418.3 416.4,418.3 425.7,418.2 435.0,418.2 444.3,418.2 453.6,417.7 463.0,417.7 472.3,417.6 481.6,417.6 490.9,417.6 500.3,417.6 509.6,417.6 518.9,417.6 528.2,417.6 537.6,417.6 546.9,417.6 556.2,417.6 565.5,417.6 574.9,417.6 584.2,417.6 593.5,417.6 602.8,417.6 612.2,417.6 621.5,417.5 630.8,417.6 640.1,417.6 649.5,417.6 658.8,417.6 668.1,419.0 677.4,419.5 686.8,419.5 696.1,419.5 705.4,419.5 714.7,419.5 724.1,419.5 733.4,419.5 742.7,419.5 752.0,419.4 761.4,419.4 770.7,418.9 780.0,418.4 780.0,421.6 770.7,422.5 761.4,423.5 752.0,423.5 742.7,423.6 733.4,423.6 724.1,423.6 714.7,423.6 705.4,423.6 696.1,423.6 686.8,423.6 677.4,423.6 668.1,423.2 658.8,421.8 649.5,421.8 640.1,421.8 630.8,421.8 621.5,421.7 612.2,421.8 602.8,421.8 593.5,421.8 584.2,421.8 574.9,421.8 565.5,421.8 556.2,421.8 546.9,421.8 537.6,421.8 528.2,421.8 518.9,421.8 509.6,421.8 500.3,421.8 490.9,421.9 481.6,421.9 472.3,421.9 463.0,422.0 453.6,422.0 444.3,422.9 435.0,422.9 425.7,422.9 416.4,422.9 407.0,423.0 397.7,428.8 388.4,428.8 379.1,428.8 369.7,428.8 360.4,428.9 351.1,428.9 341.8,429.2 332.4,429.2 323.1,429.3 313.8,429.3 304.5,429.3 295.1,430.7 285.8,430.8 276.5,426.0 267.2,426.0 257.8,426.0 248.5,426.0 239.2,426.0 229.9,426.1 220.5,426.2 211.2,432.2 201.9,432.2 192.6,432.2 183.2,435.9 173.9,436.3 164.6,436.6 155.3,650.0 145.9,650.0 136.6,650.0 127.3,650.0 118.0,650.0 108.6,650.0 99.3,650.0 90.0,650.0" fill="#6E4C13" opacity="0.6" class="anim" style="animation-delay:1000ms;"/>
<polygon points="90.0,650.0 99.3,650.0 108.6,650.0 118.0,650.0 127.3,650.0 136.6,650.0 145.9,650.0 155.3,650.0 164.6,418.7 173.9,418.6 183.2,418.5 192.6,417.3 201.9,417.3 211.2,417.2 220.5,415.3 229.9,415.3 239.2,415.2 248.5,415.2 257.8,415.2 267.2,415.2 276.5,415.2 285.8,416.8 295.1,416.8 304.5,416.3 313.8,416.3 323.1,416.3 332.4,416.3 341.8,416.3 351.1,416.2 360.4,416.2 369.7,416.2 379.1,416.2 388.4,416.2 397.7,416.2 407.0,414.2 416.4,414.2 425.7,414.2 435.0,414.2 444.3,414.2 453.6,413.9 463.0,413.9 472.3,413.9 481.6,413.9 490.9,413.9 500.3,413.9 509.6,413.9 518.9,413.9 528.2,413.9 537.6,413.9 546.9,413.9 556.2,413.9 565.5,413.9 574.9,413.9 584.2,413.9 593.5,413.9 602.8,413.9 612.2,413.9 621.5,413.8 630.8,413.8 640.1,413.8 649.5,413.8 658.8,413.8 668.1,413.8 677.4,413.8 686.8,413.8 696.1,413.8 705.4,413.8 714.7,413.8 724.1,413.8 733.4,413.8 742.7,413.8 752.0,413.8 761.4,413.8 770.7,413.5 780.0,413.3 780.0,418.4 770.7,418.9 761.4,419.4 752.0,419.4 742.7,419.5 733.4,419.5 724.1,419.5 714.7,419.5 705.4,419.5 696.1,419.5 686.8,419.5 677.4,419.5 668.1,419.0 658.8,417.6 649.5,417.6 640.1,417.6 630.8,417.6 621.5,417.5 612.2,417.6 602.8,417.6 593.5,417.6 584.2,417.6 574.9,417.6 565.5,417.6 556.2,417.6 546.9,417.6 537.6,417.6 528.2,417.6 518.9,417.6 509.6,417.6 500.3,417.6 490.9,417.6 481.6,417.6 472.3,417.6 463.0,417.7 453.6,417.7 444.3,418.2 435.0,418.2 425.7,418.2 416.4,418.3 407.0,418.3 397.7,422.1 388.4,422.1 379.1,422.1 369.7,422.1 360.4,422.1 351.1,422.1 341.8,422.3 332.4,422.3 323.1,422.4 313.8,422.4 304.5,422.4 295.1,423.2 285.8,423.3 276.5,420.3 267.2,420.3 257.8,420.3 248.5,420.3 239.2,420.3 229.9,420.3 220.5,420.4 211.2,424.2 201.9,424.2 192.6,424.2 183.2,426.6 173.9,426.8 164.6,427.0 155.3,650.0 145.9,650.0 136.6,650.0 127.3,650.0 118.0,650.0 108.6,650.0 99.3,650.0 90.0,650.0" fill="#F05138" opacity="0.6" class="anim" style="animation-delay:1100ms;"/>
<polygon points="90.0,650.0 99.3,650.0 108.6,650.0 118.0,650.0 127.3,650.0 136.6,650.0 145.9,650.0 155.3,650.0 164.6,414.4 173.9,414.4 183.2,414.3 192.6,413.7 201.9,413.7 211.2,413.7 220.5,412.7 229.9,412.7 239.2,412.7 248.5,412.7 257.8,412.7 267.2,412.7 276.5,412.7 285.8,413.5 295.1,413.4 304.5,413.2 313.8,413.2 323.1,413.2 332.4,413.2 341.8,413.2 351.1,413.1 360.4,413.1 369.7,413.1 379.1,413.1 388.4,413.1 397.7,413.1 407.0,412.2 416.4,412.1 425.7,412.1 435.0,412.1 444.3,412.1 453.6,412.0 463.0,412.0 472.3,412.0 481.6,412.0 490.9,412.0 500.3,412.0 509.6,412.0 518.9,412.0 528.2,412.0 537.6,412.0 546.9,412.0 556.2,412.0 565.5,412.0 574.9,412.0 584.2,412.0 593.5,412.0 602.8,412.0 612.2,412.0 621.5,411.9 630.8,411.9 640.1,411.9 649.5,411.9 658.8,411.9 668.1,411.9 677.4,411.9 686.8,411.9 696.1,411.9 705.4,411.9 714.7,411.9 724.1,411.9 733.4,411.9 742.7,411.9 752.0,411.9 761.4,411.9 770.7,411.9 780.0,411.9 780.0,413.3 770.7,413.5 761.4,413.8 752.0,413.8 742.7,413.8 733.4,413.8 724.1,413.8 714.7,413.8 705.4,413.8 696.1,413.8 686.8,413.8 677.4,413.8 668.1,413.8 658.8,413.8 649.5,413.8 640.1,413.8 630.8,413.8 621.5,413.8 612.2,413.9 602.8,413.9 593.5,413.9 584.2,413.9 574.9,413.9 565.5,413.9 556.2,413.9 546.9,413.9 537.6,413.9 528.2,413.9 518.9,413.9 509.6,413.9 500.3,413.9 490.9,413.9 481.6,413.9 472.3,413.9 463.0,413.9 453.6,413.9 444.3,414.2 435.0,414.2 425.7,414.2 416.4,414.2 407.0,414.2 397.7,416.2 388.4,416.2 379.1,416.2 369.7,416.2 360.4,416.2 351.1,416.2 341.8,416.3 332.4,416.3 323.1,416.3 313.8,416.3 304.5,416.3 295.1,416.8 285.8,416.8 276.5,415.2 267.2,415.2 257.8,415.2 248.5,415.2 239.2,415.2 229.9,415.3 220.5,415.3 211.2,417.2 201.9,417.3 192.6,417.3 183.2,418.5 173.9,418.6 164.6,418.7 155.3,650.0 145.9,650.0 136.6,650.0 127.3,650.0 118.0,650.0 108.6,650.0 99.3,650.0 90.0,650.0" fill="#b07219" opacity="0.6" class="anim" style="animation-delay:1200ms;"/>
<line x1="761.4" y1="100" x2="761.4" y2="650" stroke="#c9d1d9" stroke-width="1" stroke-dasharray="4,3" opacity="0.35"/>
<text x="770.7" y="112" text-anchor="middle" class="axis-label" opacity="0.6">Jul 04, 2026</text>
<text x="90.0" y="668" text-anchor="middle" class="axis-label" transform="rotate(-35 90.0 668)">2026-02</text>
<text x="313.8" y="668" text-anchor="middle" class="axis-label" transform="rotate(-35 313.8 668)">2026-03</text>
<text x="612.2" y="668" text-anchor="middle" class="axis-label" transform="rotate(-35 612.2 668)">2026-04</text>
<text x="686.8" y="668" text-anchor="middle" class="axis-label" transform="rotate(-35 686.8 668)">2026-06</text>
<text x="770.7" y="668" text-anchor="middle" class="axis-label" transform="rotate(-35 770.7 668)">Jul 04, 2026</text>
<line x1="796" y1="110" x2="824" y2="110" stroke="#3fb950" stroke-width="2"/>
<text x="832" y="116" class="legend-text">Lines Added</text>
<line x1="796" y1="140" x2="824" y2="140" stroke="#f85149" stroke-width="1.5"/>
<text x="832" y="146" class="legend-text">Lines Deleted</text>
<line x1="796" y1="170" x2="824" y2="170" stroke="#e3b341" stroke-width="1.5" stroke-dasharray="4,3"/>
<text x="832" y="176" class="legend-text">&#x2605; Stars</text>
<text x="796" y="200" class="subtitle">Languages</text>
<rect x="796" y="212" width="12" height="12" rx="2" fill="#e34c26" opacity="0.8" class="anim" style="animation-delay:800ms;"/>
<text x="814" y="223" class="legend-text">HTML (58%→56%)</text>
<rect x="796" y="234" width="12" height="12" rx="2" fill="#f1e05a" opacity="0.8" class="anim" style="animation-delay:880ms;"/>
<text x="814" y="245" class="legend-text">JavaScript (22%→25%)</text>
<rect x="796" y="256" width="12" height="12" rx="2" fill="#3572A5" opacity="0.8" class="anim" style="animation-delay:960ms;"/>
<text x="814" y="267" class="legend-text">Python (7%→5%)</text>
<rect x="796" y="278" width="12" height="12" rx="2" fill="#663399" opacity="0.8" class="anim" style="animation-delay:1040ms;"/>
<text x="814" y="289" class="legend-text">CSS (6%→6%)</text>
<rect x="796" y="300" width="12" height="12" rx="2" fill="#083fa1" opacity="0.8" class="anim" style="animation-delay:1120ms;"/>
<text x="814" y="311" class="legend-text">Markdown (2%→2%)</text>
<rect x="796" y="322" width="12" height="12" rx="2" fill="#6E4C13" opacity="0.8" class="anim" style="animation-delay:1200ms;"/>
<text x="814" y="333" class="legend-text">Assembly (2%→1%)</text>
<rect x="796" y="344" width="12" height="12" rx="2" fill="#F05138" opacity="0.8" class="anim" style="animation-delay:1280ms;"/>
<text x="814" y="355" class="legend-text">Swift (2%→2%)</text>
<rect x="796" y="366" width="12" height="12" rx="2" fill="#b07219" opacity="0.8" class="anim" style="animation-delay:1360ms;"/>
<text x="814" y="377" class="legend-text">Java (1%→1%)</text>
<text x="796" y="412" class="subtitle">Contributions</text>
<text x="796" y="432" class="axis-label">2023: 39</text>
<text x="796" y="452" class="axis-label">2024: 646</text>
<text x="796" y="472" class="axis-label">2025: 1,780</text>
<text x="796" y="492" class="axis-label">2026: 491</text>
<text x="796" y="522" class="subtitle">Statistics</text>
<text x="796" y="542" class="axis-label">Active weeks: 88</text>
<text x="796" y="562" class="axis-label">Add/Del ratio: 1.8x</text>
<text x="796" y="582" class="axis-label">Avg lines/wk: 18K</text>
<text x="796" y="602" class="axis-label">Peak: 2026-02-15</text>
<text x="796" y="622" class="axis-label">  (543K lines)</text>
<text x="90" y="742" class="axis-label">Total: +1,040,332 / -576,819 lines &#xb7; 2,956 contributions &#xb7; 80 repos &#xb7; &#x2605; 37</text>
</svg>