<svg xmlns="http://www.w3.org/2000/svg" width="1000" height="760" style="max-width: 100%;" viewBox="0 0 1000 760">

<defs>
  <linearGradient id="areaGrad" x1="0" y1="0" x2="0" y2="1">
    <stop offset="0%" stop-color="#58a6ff" stop-opacity="0.35"/>
    <stop offset="100%" stop-color="#58a6ff" stop-opacity="0.02"/>
  </linearGradient>
  <linearGradient id="addGrad" x1="0" y1="0" x2="0" y2="1">
    <stop offset="0%" stop-color="#3fb950" stop-opacity="0.35"/>
    <stop offset="100%" stop-color="#3fb950" stop-opacity="0.02"/>
  </linearGradient>
  <linearGradient id="delGrad" x1="0" y1="0" x2="0" y2="1">
    <stop offset="0%" stop-color="#f85149" stop-opacity="0.25"/>
    <stop offset="100%" stop-color="#f85149" stop-opacity="0.02"/>
  </linearGradient>
</defs>
<style>
  .title { font: bold 28px 'Segoe UI', Ubuntu, Sans-Serif; fill: #c9d1d9; }
  .subtitle { font: 600 20px 'Segoe UI', Ubuntu, Sans-Serif; fill: #c9d1d9; opacity: 0.8; }
  .axis-label { font: 18px 'Segoe UI', Ubuntu, Sans-Serif; fill: #c9d1d9; opacity: 0.7; }
  .legend-text { font: 14px 'Segoe UI', Ubuntu, Sans-Serif; fill: #c9d1d9; }
  .value-text { font: bold 18px 'Segoe UI', Ubuntu, Sans-Serif; fill: #c9d1d9; }
  .stat-value { font: bold 22px 'Segoe UI', Ubuntu, Sans-Serif; fill: #c9d1d9; }
  .stat-label { font: 18px 'Segoe UI', Ubuntu, Sans-Serif; fill: #c9d1d9; opacity: 0.7; }
  @keyframes fadeIn { from { opacity: 0; } to { opacity: 1; } }
  .anim { animation: fadeIn 0.6s ease-in-out forwards; opacity: 0; }
</style>

<rect x="0.5" y="0.5" rx="4.5" width="999" height="759" fill="#161b22" stroke="#21262d"/>
<text x="90" y="45" class="title">Activity History</text>
<text x="90" y="72" class="subtitle">Lines added vs deleted &amp; activity trends over time</text>
<line x1="90" y1="340.0" x2="780" y2="340.0" stroke="#21262d" stroke-width="1"/>
<text x="82" y="344.0" text-anchor="end" class="axis-label">0</text>
<line x1="90" y1="280.0" x2="780" y2="280.0" stroke="#21262d" stroke-width="1"/>
<text x="82" y="284.0" text-anchor="end" class="axis-label">450K</text>
<line x1="90" y1="220.0" x2="780" y2="220.0" stroke="#21262d" stroke-width="1"/>
<text x="82" y="224.0" text-anchor="end" class="axis-label">901K</text>
<line x1="90" y1="160.0" x2="780" y2="160.0" stroke="#21262d" stroke-width="1"/>
<text x="82" y="164.0" text-anchor="end" class="axis-label">1.4M</text>
<line x1="90" y1="100.0" x2="780" y2="100.0" stroke="#21262d" stroke-width="1"/>
<text x="82" y="104.0" text-anchor="end" class="axis-label">1.8M</text>
<polygon points="90.0,340.0 90.0,291.4 100.8,293.1 111.6,291.4 122.3,293.1 133.1,304.4 143.9,282.1 154.7,282.1 165.5,273.7 176.2,273.3 187.0,272.8 197.8,272.8 208.6,257.8 219.4,257.8 230.2,257.7 240.9,235.6 251.7,235.3 262.5,235.0 273.3,235.0 284.1,235.0 294.8,235.0 305.6,235.0 316.4,234.5 327.2,219.6 338.0,219.6 348.8,219.6 359.5,219.6 370.3,219.2 381.1,219.2 391.9,218.6 402.7,218.6 413.4,218.5 424.2,218.5 435.0,218.5 445.8,218.5 456.6,218.6 467.3,218.5 478.1,218.5 488.9,218.5 499.7,218.5 510.5,218.5 521.2,218.5 532.0,217.9 542.8,218.2 553.6,217.5 564.4,217.2 575.2,217.2 585.9,217.2 596.7,217.2 607.5,217.2 618.3,217.2 629.1,217.1 639.8,217.1 650.6,217.1 661.4,217.1 672.2,217.4 683.0,218.9 693.8,217.5 704.5,216.2 715.3,216.1 726.1,216.1 736.9,216.1 747.7,216.1 758.4,208.5 769.2,200.4 780.0,192.2 780.0,340.0" fill="url(#addGrad)" class="anim" style="animation-delay:200ms;"/>
<polyline points="90.0,291.4 100.8,293.1 111.6,291.4 122.3,293.1 133.1,304.4 143.9,282.1 154.7,282.1 165.5,273.7 176.2,273.3 187.0,272.8 197.8,272.8 208.6,257.8 219.4,257.8 230.2,257.7 240.9,235.6 251.7,235.3 262.5,235.0 273.3,235.0 284.1,235.0 294.8,235.0 305.6,235.0 316.4,234.5 327.2,219.6 338.0,219.6 348.8,219.6 359.5,219.6 370.3,219.2 381.1,219.2 391.9,218.6 402.7,218.6 413.4,218.5 424.2,218.5 435.0,218.5 445.8,218.5 456.6,218.6 467.3,218.5 478.1,218.5 488.9,218.5 499.7,218.5 510.5,218.5 521.2,218.5 532.0,217.9 542.8,218.2 553.6,217.5 564.4,217.2 575.2,217.2 585.9,217.2 596.7,217.2 607.5,217.2 618.3,217.2 629.1,217.1 639.8,217.1 650.6,217.1 661.4,217.1 672.2,217.4 683.0,218.9 693.8,217.5 704.5,216.2 715.3,216.1 726.1,216.1 736.9,216.1 747.7,216.1 758.4,208.5" fill="none" stroke="#3fb950" stroke-width="2" stroke-linejoin="round" class="anim" style="animation-delay:250ms;"/>
<polyline points="758.4,208.5 769.2,200.4 780.0,192.2" fill="none" stroke="#3fb950" stroke-width="1.5" stroke-dasharray="5,4" stroke-linejoin="round" opacity="0.6" class="anim" style="animation-delay:250ms;"/>
<polygon points="90.0,340.0 90.0,326.3 100.8,327.8 111.6,326.3 122.3,327.7 133.1,333.6 143.9,324.7 154.7,324.7 165.5,323.7 176.2,323.4 187.0,323.1 197.8,323.0 208.6,306.9 219.4,306.9 230.2,306.9 240.9,288.6 251.7,288.5 262.5,288.5 273.3,288.5 284.1,288.5 294.8,288.5 305.6,288.5 316.4,278.9 327.2,264.4 338.0,264.3 348.8,264.3 359.5,264.3 370.3,264.3 381.1,264.3 391.9,264.2 402.7,264.1 413.4,264.1 424.2,264.1 435.0,264.1 445.8,264.1 456.6,264.2 467.3,264.1 478.1,264.1 488.9,264.1 499.7,264.1 510.5,264.1 521.2,264.1 532.0,264.1 542.8,264.2 553.6,263.7 564.4,263.7 575.2,263.7 585.9,263.7 596.7,263.7 607.5,263.7 618.3,263.7 629.1,263.7 639.8,263.7 650.6,263.7 661.4,263.7 672.2,263.8 683.0,264.6 693.8,264.1 704.5,263.3 715.3,263.2 726.1,263.2 736.9,263.2 747.7,263.2 758.4,263.2 769.2,255.5 780.0,247.8 780.0,340.0" fill="url(#delGrad)" class="anim" style="animation-delay:300ms;"/>
<polyline points="90.0,326.3 100.8,327.8 111.6,326.3 122.3,327.7 133.1,333.6 143.9,324.7 154.7,324.7 165.5,323.7 176.2,323.4 187.0,323.1 197.8,323.0 208.6,306.9 219.4,306.9 230.2,306.9 240.9,288.6 251.7,288.5 262.5,288.5 273.3,288.5 284.1,288.5 294.8,288.5 305.6,288.5 316.4,278.9 327.2,264.4 338.0,264.3 348.8,264.3 359.5,264.3 370.3,264.3 381.1,264.3 391.9,264.2 402.7,264.1 413.4,264.1 424.2,264.1 435.0,264.1 445.8,264.1 456.6,264.2 467.3,264.1 478.1,264.1 488.9,264.1 499.7,264.1 510.5,264.1 521.2,264.1 532.0,264.1 542.8,264.2 553.6,263.7 564.4,263.7 575.2,263.7 585.9,263.7 596.7,263.7 607.5,263.7 618.3,263.7 629.1,263.7 639.8,263.7 650.6,263.7 661.4,263.7 672.2,263.8 683.0,264.6 693.8,264.1 704.5,263.3 715.3,263.2 726.1,263.2 736.9,263.2 747.7,263.2 758.4,263.2" fill="none" stroke="#f85149" stroke-width="1.5" stroke-linejoin="round" class="anim" style="animation-delay:350ms;"/>
<polyline points="758.4,263.2 769.2,255.5 780.0,247.8" fill="none" stroke="#f85149" stroke-width="1" stroke-dasharray="5,4" stroke-linejoin="round" opacity="0.6" class="anim" style="animation-delay:350ms;"/>
<polyline points="90.0,340.0 100.8,340.0 111.6,340.0 122.3,340.0 133.1,340.0 143.9,340.0 154.7,340.0 165.5,340.0 176.2,301.6 187.0,301.6 197.8,301.6 208.6,301.6 219.4,301.6 230.2,301.6 240.9,301.6 251.7,301.6 262.5,301.6 273.3,301.6 284.1,301.6 294.8,301.6 305.6,301.6 316.4,301.6 327.2,301.6 338.0,301.6 348.8,301.6 359.5,301.6 370.3,301.6 381.1,301.6 391.9,301.6 402.7,301.6 413.4,301.6 424.2,301.6 435.0,301.6 445.8,301.6 456.6,263.2 467.3,263.2 478.1,263.2 488.9,263.2 499.7,263.2 510.5,263.2 521.2,263.2 532.0,263.2 542.8,224.8 553.6,224.8 564.4,224.8 575.2,224.8 585.9,224.8 596.7,224.8 607.5,224.8 618.3,224.8 629.1,224.8 639.8,224.8 650.6,224.8 661.4,224.8 672.2,224.8 683.0,224.8 693.8,224.8 704.5,224.8 715.3,148.0 726.1,148.0 736.9,148.0 747.7,148.0 758.4,148.0" fill="none" stroke="#e3b341" stroke-width="1.5" stroke-dasharray="4,3" stroke-linejoin="round" class="anim" style="animation-delay:400ms;"/>
<polyline points="758.4,148.0 769.2,148.0 780.0,148.0" fill="none" stroke="#e3b341" stroke-width="1" stroke-dasharray="3,5" stroke-linejoin="round" opacity="0.5" class="anim" style="animation-delay:400ms;"/>
<text x="90" y="90" class="subtitle">Lines Added vs Deleted (per snapshot)</text>
<text x="90" y="400" class="subtitle">Programming Language Development (%)</text>
<line x1="90" y1="650.0" x2="780" y2="650.0" stroke="#21262d" stroke-width="1"/>
<text x="82" y="654.0" text-anchor="end" class="axis-label">0%</text>
<line x1="90" y1="590.0" x2="780" y2="590.0" stroke="#21262d" stroke-width="1"/>
<text x="82" y="594.0" text-anchor="end" class="axis-label">25%</text>
<line x1="90" y1="530.0" x2="780" y2="530.0" stroke="#21262d" stroke-width="1"/>
<text x="82" y="534.0" text-anchor="end" class="axis-label">50%</text>
<line x1="90" y1="470.0" x2="780" y2="470.0" stroke="#21262d" stroke-width="1"/>
<text x="82" y="474.0" text-anchor="end" class="axis-label">75%</text>
<line x1="90" y1="410.0" x2="780" y2="410.0" stroke="#21262d" stroke-width="1"/>
<text x="82" y="414.0" text-anchor="end" class="axis-label">100%</text>
<polygon points="90.0,650.0 100.8,650.0 111.6,650.0 122.3,650.0 133.1,650.0 143.9,650.0 154.7,650.0 165.5,650.0 176.2,528.2 187.0,528.5 197.8,529.7 208.6,499.3 219.4,499.3 230.2,502.9 240.9,485.0 251.7,485.1 262.5,485.4 273.3,485.4 284.1,485.4 294.8,485.4 305.6,485.4 316.4,496.4 327.2,496.7 338.0,491.0 348.8,491.0 359.5,491.0 370.3,491.7 381.1,491.8 391.9,494.0 402.7,494.0 413.4,494.4 424.2,494.4 435.0,494.4 445.8,494.4 456.6,507.6 467.3,507.6 478.1,507.9 488.9,507.9 499.7,507.9 510.5,506.3 521.2,506.4 532.0,506.8 542.8,506.9 553.6,506.8 564.4,507.5 575.2,507.5 585.9,507.5 596.7,507.5 607.5,507.5 618.3,507.5 629.1,507.5 639.8,507.5 650.6,507.5 661.4,507.5 672.2,507.5 683.0,507.5 693.8,507.5 704.5,508.6 715.3,508.6 726.1,508.6 736.9,508.6 747.7,508.6 758.4,509.5 769.2,511.3 780.0,513.1 780.0,650.0 769.2,650.0 758.4,650.0 747.7,650.0 736.9,650.0 726.1,650.0 715.3,650.0 704.5,650.0 693.8,650.0 683.0,650.0 672.2,650.0 661.4,650.0 650.6,650.0 639.8,650.0 629.1,650.0 618.3,650.0 607.5,650.0 596.7,650.0 585.9,650.0 575.2,650.0 564.4,650.0 553.6,650.0 542.8,650.0 532.0,650.0 521.2,650.0 510.5,650.0 499.7,650.0 488.9,650.0 478.1,650.0 467.3,650.0 456.6,650.0 445.8,650.0 435.0,650.0 424.2,650.0 413.4,650.0 402.7,650.0 391.9,650.0 381.1,650.0 370.3,650.0 359.5,650.0 348.8,650.0 338.0,650.0 327.2,650.0 316.4,650.0 305.6,650.0 294.8,650.0 284.1,650.0 273.3,650.0 262.5,650.0 251.7,650.0 240.9,650.0 230.2,650.0 219.4,650.0 208.6,650.0 197.8,650.0 187.0,650.0 176.2,650.0 165.5,650.0 154.7,650.0 143.9,650.0 133.1,650.0 122.3,650.0 111.6,650.0 100.8,650.0 90.0,650.0" fill="#e34c26" opacity="0.6" class="anim" style="animation-delay:500ms;"/>
<polygon points="90.0,650.0 100.8,650.0 111.6,650.0 122.3,650.0 133.1,650.0 143.9,650.0 154.7,650.0 165.5,650.0 176.2,488.4 187.0,488.0 197.8,489.0 208.6,476.0 219.4,476.0 230.2,477.2 240.9,460.1 251.7,460.2 262.5,460.6 273.3,460.6 284.1,460.6 294.8,460.6 305.6,460.6 316.4,473.0 327.2,473.5 338.0,469.5 348.8,469.5 359.5,469.5 370.3,469.7 381.1,469.7 391.9,469.7 402.7,469.7 413.4,469.7 424.2,469.7 435.0,469.7 445.8,469.7 456.6,455.6 467.3,455.6 478.1,455.4 488.9,455.4 499.7,455.4 510.5,454.3 521.2,454.3 532.0,455.0 542.8,455.1 553.6,454.9 564.4,455.9 575.2,455.9 585.9,455.9 596.7,455.9 607.5,455.9 618.3,455.9 629.1,455.9 639.8,455.9 650.6,455.9 661.4,455.9 672.2,455.9 683.0,455.9 693.8,455.9 704.5,455.8 715.3,455.8 726.1,455.8 736.9,455.8 747.7,455.8 758.4,457.0 769.2,454.2 780.0,451.3 780.0,513.1 769.2,511.3 758.4,509.5 747.7,508.6 736.9,508.6 726.1,508.6 715.3,508.6 704.5,508.6 693.8,507.5 683.0,507.5 672.2,507.5 661.4,507.5 650.6,507.5 639.8,507.5 629.1,507.5 618.3,507.5 607.5,507.5 596.7,507.5 585.9,507.5 575.2,507.5 564.4,507.5 553.6,506.8 542.8,506.9 532.0,506.8 521.2,506.4 510.5,506.3 499.7,507.9 488.9,507.9 478.1,507.9 467.3,507.6 456.6,507.6 445.8,494.4 435.0,494.4 424.2,494.4 413.4,494.4 402.7,494.0 391.9,494.0 381.1,491.8 370.3,491.7 359.5,491.0 348.8,491.0 338.0,491.0 327.2,496.7 316.4,496.4 305.6,485.4 294.8,485.4 284.1,485.4 273.3,485.4 262.5,485.4 251.7,485.1 240.9,485.0 230.2,502.9 219.4,499.3 208.6,499.3 197.8,529.7 187.0,528.5 176.2,528.2 165.5,650.0 154.7,650.0 143.9,650.0 133.1,650.0 122.3,650.0 111.6,650.0 100.8,650.0 90.0,650.0" fill="#f1e05a" opacity="0.6" class="anim" style="animation-delay:600ms;"/>
<polygon points="90.0,650.0 100.8,650.0 111.6,650.0 122.3,650.0 133.1,650.0 143.9,650.0 154.7,650.0 165.5,650.0 176.2,455.5 187.0,455.4 197.8,455.1 208.6,447.0 219.4,447.0 230.2,448.2 240.9,438.9 251.7,439.0 262.5,439.6 273.3,439.6 284.1,439.6 294.8,439.6 305.6,439.6 316.4,445.6 327.2,445.6 338.0,443.3 348.8,443.3 359.5,443.3 370.3,443.6 381.1,443.6 391.9,444.1 402.7,444.1 413.4,444.1 424.2,444.1 435.0,444.1 445.8,444.1 456.6,437.5 467.3,437.5 478.1,437.5 488.9,437.5 499.7,437.5 510.5,437.5 521.2,437.5 532.0,438.4 542.8,438.5 553.6,438.3 564.4,439.3 575.2,439.3 585.9,439.3 596.7,439.3 607.5,439.3 618.3,439.3 629.1,439.3 639.8,439.3 650.6,439.3 661.4,439.3 672.2,439.3 683.0,439.3 693.8,439.3 704.5,439.4 715.3,439.4 726.1,439.4 736.9,439.4 747.7,439.4 758.4,440.7 769.2,439.8 780.0,438.9 780.0,451.3 769.2,454.2 758.4,457.0 747.7,455.8 736.9,455.8 726.1,455.8 715.3,455.8 704.5,455.8 693.8,455.9 683.0,455.9 672.2,455.9 661.4,455.9 650.6,455.9 639.8,455.9 629.1,455.9 618.3,455.9 607.5,455.9 596.7,455.9 585.9,455.9 575.2,455.9 564.4,455.9 553.6,454.9 542.8,455.1 532.0,455.0 521.2,454.3 510.5,454.3 499.7,455.4 488.9,455.4 478.1,455.4 467.3,455.6 456.6,455.6 445.8,469.7 435.0,469.7 424.2,469.7 413.4,469.7 402.7,469.7 391.9,469.7 381.1,469.7 370.3,469.7 359.5,469.5 348.8,469.5 338.0,469.5 327.2,473.5 316.4,473.0 305.6,460.6 294.8,460.6 284.1,460.6 273.3,460.6 262.5,460.6 251.7,460.2 240.9,460.1 230.2,477.2 219.4,476.0 208.6,476.0 197.8,489.0 187.0,488.0 176.2,488.4 165.5,650.0 154.7,650.0 143.9,650.0 133.1,650.0 122.3,650.0 111.6,650.0 100.8,650.0 90.0,650.0" fill="#3572A5" opacity="0.6" class="anim" style="animation-delay:700ms;"/>
<polygon points="90.0,650.0 100.8,650.0 111.6,650.0 122.3,650.0 133.1,650.0 143.9,650.0 154.7,650.0 165.5,650.0 176.2,442.3 187.0,442.0 197.8,441.6 208.6,439.5 219.4,439.5 230.2,439.4 240.9,432.3 251.7,432.2 262.5,432.6 273.3,432.6 284.1,432.6 294.8,432.6 305.6,432.6 316.4,439.3 327.2,439.3 338.0,437.4 348.8,437.4 359.5,437.4 370.3,437.3 381.1,437.3 391.9,437.1 402.7,437.1 413.4,437.1 424.2,437.1 435.0,437.1 445.8,437.1 456.6,428.7 467.3,428.6 478.1,428.5 488.9,428.5 499.7,428.5 510.5,427.3 521.2,427.3 532.0,427.1 542.8,427.1 553.6,427.1 564.4,427.0 575.2,427.0 585.9,427.0 596.7,427.0 607.5,427.0 618.3,427.0 629.1,427.0 639.8,427.0 650.6,427.0 661.4,427.0 672.2,427.0 683.0,427.0 693.8,427.0 704.5,427.0 715.3,427.1 726.1,427.1 736.9,427.1 747.7,427.1 758.4,428.4 769.2,426.8 780.0,425.1 780.0,438.9 769.2,439.8 758.4,440.7 747.7,439.4 736.9,439.4 726.1,439.4 715.3,439.4 704.5,439.4 693.8,439.3 683.0,439.3 672.2,439.3 661.4,439.3 650.6,439.3 639.8,439.3 629.1,439.3 618.3,439.3 607.5,439.3 596.7,439.3 585.9,439.3 575.2,439.3 564.4,439.3 553.6,438.3 542.8,438.5 532.0,438.4 521.2,437.5 510.5,437.5 499.7,437.5 488.9,437.5 478.1,437.5 467.3,437.5 456.6,437.5 445.8,444.1 435.0,444.1 424.2,444.1 413.4,444.1 402.7,444.1 391.9,444.1 381.1,443.6 370.3,443.6 359.5,443.3 348.8,443.3 338.0,443.3 327.2,445.6 316.4,445.6 305.6,439.6 294.8,439.6 284.1,439.6 273.3,439.6 262.5,439.6 251.7,439.0 240.9,438.9 230.2,448.2 219.4,447.0 208.6,447.0 197.8,455.1 187.0,455.4 176.2,455.5 165.5,650.0 154.7,650.0 143.9,650.0 133.1,650.0 122.3,650.0 111.6,650.0 100.8,650.0 90.0,650.0" fill="#663399" opacity="0.6" class="anim" style="animation-delay:800ms;"/>
<polygon points="90.0,650.0 100.8,650.0 111.6,650.0 122.3,650.0 133.1,650.0 143.9,650.0 154.7,650.0 165.5,650.0 176.2,436.6 187.0,436.3 197.8,435.9 208.6,432.2 219.4,432.2 230.2,432.2 240.9,426.2 251.7,426.1 262.5,426.0 273.3,426.0 284.1,426.0 294.8,426.0 305.6,426.0 316.4,430.8 327.2,430.7 338.0,429.3 348.8,429.3 359.5,429.3 370.3,429.2 381.1,429.2 391.9,428.9 402.7,428.9 413.4,428.8 424.2,428.8 435.0,428.8 445.8,428.8 456.6,423.0 467.3,422.9 478.1,422.9 488.9,422.9 499.7,422.9 510.5,422.0 521.2,422.0 532.0,421.9 542.8,421.9 553.6,421.9 564.4,421.8 575.2,421.8 585.9,421.8 596.7,421.8 607.5,421.8 618.3,421.8 629.1,421.8 639.8,421.8 650.6,421.8 661.4,421.8 672.2,421.8 683.0,421.8 693.8,421.8 704.5,421.7 715.3,421.8 726.1,421.8 736.9,421.8 747.7,421.8 758.4,423.2 769.2,421.9 780.0,420.5 780.0,425.1 769.2,426.8 758.4,428.4 747.7,427.1 736.9,427.1 726.1,427.1 715.3,427.1 704.5,427.0 693.8,427.0 683.0,427.0 672.2,427.0 661.4,427.0 650.6,427.0 639.8,427.0 629.1,427.0 618.3,427.0 607.5,427.0 596.7,427.0 585.9,427.0 575.2,427.0 564.4,427.0 553.6,427.1 542.8,427.1 532.0,427.1 521.2,427.3 510.5,427.3 499.7,428.5 488.9,428.5 478.1,428.5 467.3,428.6 456.6,428.7 445.8,437.1 435.0,437.1 424.2,437.1 413.4,437.1 402.7,437.1 391.9,437.1 381.1,437.3 370.3,437.3 359.5,437.4 348.8,437.4 338.0,437.4 327.2,439.3 316.4,439.3 305.6,432.6 294.8,432.6 284.1,432.6 273.3,432.6 262.5,432.6 251.7,432.2 240.9,432.3 230.2,439.4 219.4,439.5 208.6,439.5 197.8,441.6 187.0,442.0 176.2,442.3 165.5,650.0 154.7,650.0 143.9,650.0 133.1,650.0 122.3,650.0 111.6,650.0 100.8,650.0 90.0,650.0" fill="#083fa1" opacity="0.6" class="anim" style="animation-delay:900ms;"/>
<polygon points="90.0,650.0 100.8,650.0 111.6,650.0 122.3,650.0 133.1,650.0 143.9,650.0 154.7,650.0 165.5,650.0 176.2,427.0 187.0,426.8 197.8,426.6 208.6,424.2 219.4,424.2 230.2,424.2 240.9,420.4 251.7,420.3 262.5,420.3 273.3,420.3 284.1,420.3 294.8,420.3 305.6,420.3 316.4,423.3 327.2,423.2 338.0,422.4 348.8,422.4 359.5,422.4 370.3,422.3 381.1,422.3 391.9,422.1 402.7,422.1 413.4,422.1 424.2,422.1 435.0,422.1 445.8,422.1 456.6,418.3 467.3,418.3 478.1,418.2 488.9,418.2 499.7,418.2 510.5,417.7 521.2,417.7 532.0,417.6 542.8,417.6 553.6,417.6 564.4,417.6 575.2,417.6 585.9,417.6 596.7,417.6 607.5,417.6 618.3,417.6 629.1,417.6 639.8,417.6 650.6,417.6 661.4,417.6 672.2,417.6 683.0,417.6 693.8,417.6 704.5,417.5 715.3,417.6 726.1,417.6 736.9,417.6 747.7,417.6 758.4,419.0 769.2,418.2 780.0,417.5 780.0,420.5 769.2,421.9 758.4,423.2 747.7,421.8 736.9,421.8 726.1,421.8 715.3,421.8 704.5,421.7 693.8,421.8 683.0,421.8 672.2,421.8 661.4,421.8 650.6,421.8 639.8,421.8 629.1,421.8 618.3,421.8 607.5,421.8 596.7,421.8 585.9,421.8 575.2,421.8 564.4,421.8 553.6,421.9 542.8,421.9 532.0,421.9 521.2,422.0 510.5,422.0 499.7,422.9 488.9,422.9 478.1,422.9 467.3,422.9 456.6,423.0 445.8,428.8 435.0,428.8 424.2,428.8 413.4,428.8 402.7,428.9 391.9,428.9 381.1,429.2 370.3,429.2 359.5,429.3 348.8,429.3 338.0,429.3 327.2,430.7 316.4,430.8 305.6,426.0 294.8,426.0 284.1,426.0 273.3,426.0 262.5,426.0 251.7,426.1 240.9,426.2 230.2,432.2 219.4,432.2 208.6,432.2 197.8,435.9 187.0,436.3 176.2,436.6 165.5,650.0 154.7,650.0 143.9,650.0 133.1,650.0 122.3,650.0 111.6,650.0 100.8,650.0 90.0,650.0" fill="#6E4C13" opacity="0.6" class="anim" style="animation-delay:1000ms;"/>
<polygon points="90.0,650.0 100.8,650.0 111.6,650.0 122.3,650.0 133.1,650.0 143.9,650.0 154.7,650.0 165.5,650.0 176.2,418.7 187.0,418.6 197.8,418.5 208.6,417.3 219.4,417.3 230.2,417.2 240.9,415.3 251.7,415.3 262.5,415.2 273.3,415.2 284.1,415.2 294.8,415.2 305.6,415.2 316.4,416.8 327.2,416.8 338.0,416.3 348.8,416.3 359.5,416.3 370.3,416.3 381.1,416.3 391.9,416.2 402.7,416.2 413.4,416.2 424.2,416.2 435.0,416.2 445.8,416.2 456.6,414.2 467.3,414.2 478.1,414.2 488.9,414.2 499.7,414.2 510.5,413.9 521.2,413.9 532.0,413.9 542.8,413.9 553.6,413.9 564.4,413.9 575.2,413.9 585.9,413.9 596.7,413.9 607.5,413.9 618.3,413.9 629.1,413.9 639.8,413.9 650.6,413.9 661.4,413.9 672.2,413.9 683.0,413.9 693.8,413.9 704.5,413.8 715.3,413.8 726.1,413.8 736.9,413.8 747.7,413.8 758.4,413.8 769.2,413.6 780.0,413.3 780.0,417.5 769.2,418.2 758.4,419.0 747.7,417.6 736.9,417.6 726.1,417.6 715.3,417.6 704.5,417.5 693.8,417.6 683.0,417.6 672.2,417.6 661.4,417.6 650.6,417.6 639.8,417.6 629.1,417.6 618.3,417.6 607.5,417.6 596.7,417.6 585.9,417.6 575.2,417.6 564.4,417.6 553.6,417.6 542.8,417.6 532.0,417.6 521.2,417.7 510.5,417.7 499.7,418.2 488.9,418.2 478.1,418.2 467.3,418.3 456.6,418.3 445.8,422.1 435.0,422.1 424.2,422.1 413.4,422.1 402.7,422.1 391.9,422.1 381.1,422.3 370.3,422.3 359.5,422.4 348.8,422.4 338.0,422.4 327.2,423.2 316.4,423.3 305.6,420.3 294.8,420.3 284.1,420.3 273.3,420.3 262.5,420.3 251.7,420.3 240.9,420.4 230.2,424.2 219.4,424.2 208.6,424.2 197.8,426.6 187.0,426.8 176.2,427.0 165.5,650.0 154.7,650.0 143.9,650.0 133.1,650.0 122.3,650.0 111.6,650.0 100.8,650.0 90.0,650.0" fill="#F05138" opacity="0.6" class="anim" style="animation-delay:1100ms;"/>
<polygon points="90.0,650.0 100.8,650.0 111.6,650.0 122.3,650.0 133.1,650.0 143.9,650.0 154.7,650.0 165.5,650.0 176.2,414.4 187.0,414.4 197.8,414.3 208.6,413.7 219.4,413.7 230.2,413.7 240.9,412.7 251.7,412.7 262.5,412.7 273.3,412.7 284.1,412.7 294.8,412.7 305.6,412.7 316.4,413.5 327.2,413.4 338.0,413.2 348.8,413.2 359.5,413.2 370.3,413.2 381.1,413.2 391.9,413.1 402.7,413.1 413.4,413.1 424.2,413.1 435.0,413.1 445.8,413.1 456.6,412.2 467.3,412.1 478.1,412.1 488.9,412.1 499.7,412.1 510.5,412.0 521.2,412.0 532.0,412.0 542.8,412.0 553.6,412.0 564.4,412.0 575.2,412.0 585.9,412.0 596.7,412.0 607.5,412.0 618.3,412.0 629.1,412.0 639.8,412.0 650.6,412.0 661.4,412.0 672.2,412.0 683.0,412.0 693.8,412.0 704.5,411.9 715.3,411.9 726.1,411.9 736.9,411.9 747.7,411.9 758.4,411.9 769.2,411.9 780.0,411.9 780.0,413.3 769.2,413.6 758.4,413.8 747.7,413.8 736.9,413.8 726.1,413.8 715.3,413.8 704.5,413.8 693.8,413.9 683.0,413.9 672.2,413.9 661.4,413.9 650.6,413.9 639.8,413.9 629.1,413.9 618.3,413.9 607.5,413.9 596.7,413.9 585.9,413.9 575.2,413.9 564.4,413.9 553.6,413.9 542.8,413.9 532.0,413.9 521.2,413.9 510.5,413.9 499.7,414.2 488.9,414.2 478.1,414.2 467.3,414.2 456.6,414.2 445.8,416.2 435.0,416.2 424.2,416.2 413.4,416.2 402.7,416.2 391.9,416.2 381.1,416.3 370.3,416.3 359.5,416.3 348.8,416.3 338.0,416.3 327.2,416.8 316.4,416.8 305.6,415.2 294.8,415.2 284.1,415.2 273.3,415.2 262.5,415.2 251.7,415.3 240.9,415.3 230.2,417.2 219.4,417.3 208.6,417.3 197.8,418.5 187.0,418.6 176.2,418.7 165.5,650.0 154.7,650.0 143.9,650.0 133.1,650.0 122.3,650.0 111.6,650.0 100.8,650.0 90.0,650.0" fill="#b07219" opacity="0.6" class="anim" style="animation-delay:1200ms;"/>
<line x1="758.4" y1="100" x2="758.4" y2="650" stroke="#c9d1d9" stroke-width="1" stroke-dasharray="4,3" opacity="0.35"/>
<text x="769.2" y="112" text-anchor="middle" class="axis-label" opacity="0.6">Jun 24, 2026</text>
<text x="90.0" y="668" text-anchor="middle" class="axis-label" transform="rotate(-35 90.0 668)">2026-02</text>
<text x="391.9" y="668" text-anchor="middle" class="axis-label" transform="rotate(-35 391.9 668)">2026-03</text>
<text x="693.8" y="668" text-anchor="middle" class="axis-label" transform="rotate(-35 693.8 668)">2026-04</text>
<text x="769.2" y="668" text-anchor="middle" class="axis-label" transform="rotate(-35 769.2 668)">Jun 24, 2026</text>
<line x1="796" y1="110" x2="824" y2="110" stroke="#3fb950" stroke-width="2"/>
<text x="832" y="116" class="legend-text">Lines Added</text>
<line x1="796" y1="140" x2="824" y2="140" stroke="#f85149" stroke-width="1.5"/>
<text x="832" y="146" class="legend-text">Lines Deleted</text>
<line x1="796" y1="170" x2="824" y2="170" stroke="#e3b341" stroke-width="1.5" stroke-dasharray="4,3"/>
<text x="832" y="176" class="legend-text">&#x2605; Stars</text>
<text x="796" y="200" class="subtitle">Languages</text>
<rect x="796" y="212" width="12" height="12" rx="2" fill="#e34c26" opacity="0.8" class="anim" style="animation-delay:800ms;"/>
<text x="814" y="223" class="legend-text">HTML (59%→57%)</text>
<rect x="796" y="234" width="12" height="12" rx="2" fill="#f1e05a" opacity="0.8" class="anim" style="animation-delay:880ms;"/>
<text x="814" y="245" class="legend-text">JavaScript (22%→26%)</text>
<rect x="796" y="256" width="12" height="12" rx="2" fill="#3572A5" opacity="0.8" class="anim" style="animation-delay:960ms;"/>
<text x="814" y="267" class="legend-text">Python (7%→5%)</text>
<rect x="796" y="278" width="12" height="12" rx="2" fill="#663399" opacity="0.8" class="anim" style="animation-delay:1040ms;"/>
<text x="814" y="289" class="legend-text">CSS (5%→6%)</text>
<rect x="796" y="300" width="12" height="12" rx="2" fill="#083fa1" opacity="0.8" class="anim" style="animation-delay:1120ms;"/>
<text x="814" y="311" class="legend-text">Markdown (2%→2%)</text>
<rect x="796" y="322" width="12" height="12" rx="2" fill="#6E4C13" opacity="0.8" class="anim" style="animation-delay:1200ms;"/>
<text x="814" y="333" class="legend-text">Assembly (2%→1%)</text>
<rect x="796" y="344" width="12" height="12" rx="2" fill="#F05138" opacity="0.8" class="anim" style="animation-delay:1280ms;"/>
<text x="814" y="355" class="legend-text">Swift (2%→2%)</text>
<rect x="796" y="366" width="12" height="12" rx="2" fill="#b07219" opacity="0.8" class="anim" style="animation-delay:1360ms;"/>
<text x="814" y="377" class="legend-text">Java (1%→1%)</text>
<text x="796" y="412" class="subtitle">Contributions</text>
<text x="796" y="432" class="axis-label">2023: 39</text>
<text x="796" y="452" class="axis-label">2024: 646</text>
<text x="796" y="472" class="axis-label">2025: 1,780</text>
<text x="796" y="492" class="axis-label">2026: 482</text>
<text x="796" y="522" class="subtitle">Statistics</text>
<text x="796" y="542" class="axis-label">Active weeks: 87</text>
<text x="796" y="562" class="axis-label">Add/Del ratio: 1.7x</text>
<text x="796" y="582" class="axis-label">Avg lines/wk: 18K</text>
<text x="796" y="602" class="axis-label">Peak: 2026-02-15</text>
<text x="796" y="622" class="axis-label">  (543K lines)</text>
<text x="90" y="742" class="axis-label">Total: +987,364 / -576,819 lines &#xb7; 2,947 contributions &#xb7; 79 repos &#xb7; &#x2605; 37</text>
</svg>