<svg xmlns="http://www.w3.org/2000/svg" width="1000" height="760" style="max-width: 100%;" viewBox="0 0 1000 760">

<defs>
  <linearGradient id="areaGrad" x1="0" y1="0" x2="0" y2="1">
    <stop offset="0%" stop-color="#58a6ff" stop-opacity="0.35"/>
    <stop offset="100%" stop-color="#58a6ff" stop-opacity="0.02"/>
  </linearGradient>
  <linearGradient id="addGrad" x1="0" y1="0" x2="0" y2="1">
    <stop offset="0%" stop-color="#3fb950" stop-opacity="0.35"/>
    <stop offset="100%" stop-color="#3fb950" stop-opacity="0.02"/>
  </linearGradient>
  <linearGradient id="delGrad" x1="0" y1="0" x2="0" y2="1">
    <stop offset="0%" stop-color="#f85149" stop-opacity="0.25"/>
    <stop offset="100%" stop-color="#f85149" stop-opacity="0.02"/>
  </linearGradient>
</defs>
<style>
  .title { font: bold 28px 'Segoe UI', Ubuntu, Sans-Serif; fill: #c9d1d9; }
  .subtitle { font: 600 20px 'Segoe UI', Ubuntu, Sans-Serif; fill: #c9d1d9; opacity: 0.8; }
  .axis-label { font: 18px 'Segoe UI', Ubuntu, Sans-Serif; fill: #c9d1d9; opacity: 0.7; }
  .legend-text { font: 14px 'Segoe UI', Ubuntu, Sans-Serif; fill: #c9d1d9; }
  .value-text { font: bold 18px 'Segoe UI', Ubuntu, Sans-Serif; fill: #c9d1d9; }
  .stat-value { font: bold 22px 'Segoe UI', Ubuntu, Sans-Serif; fill: #c9d1d9; }
  .stat-label { font: 18px 'Segoe UI', Ubuntu, Sans-Serif; fill: #c9d1d9; opacity: 0.7; }
  @keyframes fadeIn { from { opacity: 0; } to { opacity: 1; } }
  .anim { animation: fadeIn 0.6s ease-in-out forwards; opacity: 0; }
</style>

<rect x="0.5" y="0.5" rx="4.5" width="999" height="759" fill="#161b22" stroke="#21262d"/>
<text x="90" y="45" class="title">Activity History</text>
<text x="90" y="72" class="subtitle">Lines added vs deleted &amp; activity trends over time</text>
<line x1="90" y1="340.0" x2="780" y2="340.0" stroke="#21262d" stroke-width="1"/>
<text x="82" y="344.0" text-anchor="end" class="axis-label">0</text>
<line x1="90" y1="280.0" x2="780" y2="280.0" stroke="#21262d" stroke-width="1"/>
<text x="82" y="284.0" text-anchor="end" class="axis-label">452K</text>
<line x1="90" y1="220.0" x2="780" y2="220.0" stroke="#21262d" stroke-width="1"/>
<text x="82" y="224.0" text-anchor="end" class="axis-label">904K</text>
<line x1="90" y1="160.0" x2="780" y2="160.0" stroke="#21262d" stroke-width="1"/>
<text x="82" y="164.0" text-anchor="end" class="axis-label">1.4M</text>
<line x1="90" y1="100.0" x2="780" y2="100.0" stroke="#21262d" stroke-width="1"/>
<text x="82" y="104.0" text-anchor="end" class="axis-label">1.8M</text>
<polygon points="90.0,340.0 90.0,291.5 97.2,293.3 104.4,291.5 111.6,293.3 118.8,304.5 125.9,282.2 133.1,282.2 140.3,273.9 147.5,273.5 154.7,273.0 161.9,273.0 169.1,258.0 176.2,258.0 183.4,258.0 190.6,235.9 197.8,235.6 205.0,235.3 212.2,235.3 219.4,235.3 226.6,235.3 233.8,235.3 240.9,234.8 248.1,220.0 255.3,219.9 262.5,219.9 269.7,219.9 276.9,219.6 284.1,219.6 291.2,219.0 298.4,219.0 305.6,218.9 312.8,218.9 320.0,218.9 327.2,218.9 334.4,218.9 341.6,218.9 348.8,218.9 355.9,218.9 363.1,218.9 370.3,218.9 377.5,218.9 384.7,218.2 391.9,218.5 399.1,217.8 406.2,217.5 413.4,217.5 420.6,217.5 427.8,217.5 435.0,217.5 442.2,217.5 449.4,217.4 456.6,217.4 463.8,217.4 470.9,217.5 478.1,217.8 485.3,219.2 492.5,217.8 499.7,216.5 506.9,216.5 514.1,216.5 521.2,216.5 528.4,216.5 535.6,208.9 542.8,202.0 550.0,202.0 557.2,202.0 564.4,202.0 571.6,202.0 578.8,202.0 585.9,202.0 593.1,202.0 600.3,201.8 607.5,201.8 614.7,201.8 621.9,201.8 629.1,201.8 636.2,201.8 643.4,201.8 650.6,201.8 657.8,201.8 665.0,201.8 672.2,201.8 679.4,201.8 686.6,201.8 693.8,201.8 700.9,201.8 708.1,201.8 715.3,201.8 722.5,201.8 729.7,201.8 736.9,201.8 744.1,201.8 751.2,201.8 758.4,201.8 765.6,201.8 772.8,194.4 780.0,187.0 780.0,340.0" fill="url(#addGrad)" class="anim" style="animation-delay:200ms;"/>
<polyline points="90.0,291.5 97.2,293.3 104.4,291.5 111.6,293.3 118.8,304.5 125.9,282.2 133.1,282.2 140.3,273.9 147.5,273.5 154.7,273.0 161.9,273.0 169.1,258.0 176.2,258.0 183.4,258.0 190.6,235.9 197.8,235.6 205.0,235.3 212.2,235.3 219.4,235.3 226.6,235.3 233.8,235.3 240.9,234.8 248.1,220.0 255.3,219.9 262.5,219.9 269.7,219.9 276.9,219.6 284.1,219.6 291.2,219.0 298.4,219.0 305.6,218.9 312.8,218.9 320.0,218.9 327.2,218.9 334.4,218.9 341.6,218.9 348.8,218.9 355.9,218.9 363.1,218.9 370.3,218.9 377.5,218.9 384.7,218.2 391.9,218.5 399.1,217.8 406.2,217.5 413.4,217.5 420.6,217.5 427.8,217.5 435.0,217.5 442.2,217.5 449.4,217.4 456.6,217.4 463.8,217.4 470.9,217.5 478.1,217.8 485.3,219.2 492.5,217.8 499.7,216.5 506.9,216.5 514.1,216.5 521.2,216.5 528.4,216.5 535.6,208.9 542.8,202.0 550.0,202.0 557.2,202.0 564.4,202.0 571.6,202.0 578.8,202.0 585.9,202.0 593.1,202.0 600.3,201.8 607.5,201.8 614.7,201.8 621.9,201.8 629.1,201.8 636.2,201.8 643.4,201.8 650.6,201.8 657.8,201.8 665.0,201.8 672.2,201.8 679.4,201.8 686.6,201.8 693.8,201.8 700.9,201.8 708.1,201.8 715.3,201.8 722.5,201.8 729.7,201.8 736.9,201.8 744.1,201.8 751.2,201.8 758.4,201.8 765.6,201.8" fill="none" stroke="#3fb950" stroke-width="2" stroke-linejoin="round" class="anim" style="animation-delay:250ms;"/>
<polyline points="765.6,201.8 772.8,194.4 780.0,187.0" fill="none" stroke="#3fb950" stroke-width="1.5" stroke-dasharray="5,4" stroke-linejoin="round" opacity="0.6" class="anim" style="animation-delay:250ms;"/>
<polygon points="90.0,340.0 90.0,326.4 97.2,327.8 104.4,326.4 111.6,327.8 118.8,333.6 125.9,324.7 133.1,324.7 140.3,323.7 147.5,323.4 154.7,323.1 161.9,323.1 169.1,307.0 176.2,307.0 183.4,307.0 190.6,288.8 197.8,288.7 205.0,288.6 212.2,288.6 219.4,288.6 226.6,288.6 233.8,288.6 240.9,279.1 248.1,264.6 255.3,264.6 262.5,264.6 269.7,264.6 276.9,264.5 284.1,264.5 291.2,264.4 298.4,264.4 305.6,264.4 312.8,264.4 320.0,264.4 327.2,264.4 334.4,264.4 341.6,264.4 348.8,264.4 355.9,264.4 363.1,264.4 370.3,264.4 377.5,264.4 384.7,264.4 391.9,264.4 399.1,263.9 406.2,263.9 413.4,263.9 420.6,263.9 427.8,263.9 435.0,263.9 442.2,263.9 449.4,263.9 456.6,263.9 463.8,263.9 470.9,264.0 478.1,264.0 485.3,264.9 492.5,264.3 499.7,263.5 506.9,263.5 514.1,263.5 521.2,263.5 528.4,263.5 535.6,263.4 542.8,263.4 550.0,263.4 557.2,263.4 564.4,263.4 571.6,263.4 578.8,263.4 585.9,263.4 593.1,263.4 600.3,263.4 607.5,263.4 614.7,263.4 621.9,263.4 629.1,263.4 636.2,263.4 643.4,263.4 650.6,263.4 657.8,263.4 665.0,263.4 672.2,263.4 679.4,263.4 686.6,263.4 693.8,263.4 700.9,263.4 708.1,263.4 715.3,263.4 722.5,263.4 729.7,263.4 736.9,263.4 744.1,263.4 751.2,263.4 758.4,263.4 765.6,263.4 772.8,258.2 780.0,253.0 780.0,340.0" fill="url(#delGrad)" class="anim" style="animation-delay:300ms;"/>
<polyline points="90.0,326.4 97.2,327.8 104.4,326.4 111.6,327.8 118.8,333.6 125.9,324.7 133.1,324.7 140.3,323.7 147.5,323.4 154.7,323.1 161.9,323.1 169.1,307.0 176.2,307.0 183.4,307.0 190.6,288.8 197.8,288.7 205.0,288.6 212.2,288.6 219.4,288.6 226.6,288.6 233.8,288.6 240.9,279.1 248.1,264.6 255.3,264.6 262.5,264.6 269.7,264.6 276.9,264.5 284.1,264.5 291.2,264.4 298.4,264.4 305.6,264.4 312.8,264.4 320.0,264.4 327.2,264.4 334.4,264.4 341.6,264.4 348.8,264.4 355.9,264.4 363.1,264.4 370.3,264.4 377.5,264.4 384.7,264.4 391.9,264.4 399.1,263.9 406.2,263.9 413.4,263.9 420.6,263.9 427.8,263.9 435.0,263.9 442.2,263.9 449.4,263.9 456.6,263.9 463.8,263.9 470.9,264.0 478.1,264.0 485.3,264.9 492.5,264.3 499.7,263.5 506.9,263.5 514.1,263.5 521.2,263.5 528.4,263.5 535.6,263.4 542.8,263.4 550.0,263.4 557.2,263.4 564.4,263.4 571.6,263.4 578.8,263.4 585.9,263.4 593.1,263.4 600.3,263.4 607.5,263.4 614.7,263.4 621.9,263.4 629.1,263.4 636.2,263.4 643.4,263.4 650.6,263.4 657.8,263.4 665.0,263.4 672.2,263.4 679.4,263.4 686.6,263.4 693.8,263.4 700.9,263.4 708.1,263.4 715.3,263.4 722.5,263.4 729.7,263.4 736.9,263.4 744.1,263.4 751.2,263.4 758.4,263.4 765.6,263.4" fill="none" stroke="#f85149" stroke-width="1.5" stroke-linejoin="round" class="anim" style="animation-delay:350ms;"/>
<polyline points="765.6,263.4 772.8,258.2 780.0,253.0" fill="none" stroke="#f85149" stroke-width="1" stroke-dasharray="5,4" stroke-linejoin="round" opacity="0.6" class="anim" style="animation-delay:350ms;"/>
<polyline points="90.0,340.0 97.2,340.0 104.4,340.0 111.6,340.0 118.8,340.0 125.9,340.0 133.1,340.0 140.3,340.0 147.5,308.0 154.7,308.0 161.9,308.0 169.1,308.0 176.2,308.0 183.4,308.0 190.6,308.0 197.8,308.0 205.0,308.0 212.2,308.0 219.4,308.0 226.6,308.0 233.8,308.0 240.9,308.0 248.1,308.0 255.3,308.0 262.5,308.0 269.7,308.0 276.9,308.0 284.1,308.0 291.2,308.0 298.4,308.0 305.6,308.0 312.8,308.0 320.0,308.0 327.2,308.0 334.4,276.0 341.6,276.0 348.8,276.0 355.9,276.0 363.1,276.0 370.3,276.0 377.5,276.0 384.7,276.0 391.9,244.0 399.1,244.0 406.2,244.0 413.4,244.0 420.6,244.0 427.8,244.0 435.0,244.0 442.2,244.0 449.4,244.0 456.6,244.0 463.8,244.0 470.9,244.0 478.1,244.0 485.3,244.0 492.5,244.0 499.7,244.0 506.9,180.0 514.1,180.0 521.2,180.0 528.4,180.0 535.6,180.0 542.8,180.0 550.0,180.0 557.2,180.0 564.4,180.0 571.6,180.0 578.8,180.0 585.9,180.0 593.1,180.0 600.3,180.0 607.5,180.0 614.7,180.0 621.9,180.0 629.1,180.0 636.2,180.0 643.4,180.0 650.6,180.0 657.8,180.0 665.0,180.0 672.2,180.0 679.4,180.0 686.6,180.0 693.8,180.0 700.9,180.0 708.1,180.0 715.3,180.0 722.5,180.0 729.7,180.0 736.9,180.0 744.1,180.0 751.2,180.0 758.4,180.0 765.6,180.0" fill="none" stroke="#e3b341" stroke-width="1.5" stroke-dasharray="4,3" stroke-linejoin="round" class="anim" style="animation-delay:400ms;"/>
<polyline points="765.6,180.0 772.8,180.0 780.0,148.0" fill="none" stroke="#e3b341" stroke-width="1" stroke-dasharray="3,5" stroke-linejoin="round" opacity="0.5" class="anim" style="animation-delay:400ms;"/>
<text x="90" y="90" class="subtitle">Lines Added vs Deleted (per snapshot)</text>
<text x="90" y="400" class="subtitle">Programming Language Development (%)</text>
<line x1="90" y1="650.0" x2="780" y2="650.0" stroke="#21262d" stroke-width="1"/>
<text x="82" y="654.0" text-anchor="end" class="axis-label">0%</text>
<line x1="90" y1="590.0" x2="780" y2="590.0" stroke="#21262d" stroke-width="1"/>
<text x="82" y="594.0" text-anchor="end" class="axis-label">25%</text>
<line x1="90" y1="530.0" x2="780" y2="530.0" stroke="#21262d" stroke-width="1"/>
<text x="82" y="534.0" text-anchor="end" class="axis-label">50%</text>
<line x1="90" y1="470.0" x2="780" y2="470.0" stroke="#21262d" stroke-width="1"/>
<text x="82" y="474.0" text-anchor="end" class="axis-label">75%</text>
<line x1="90" y1="410.0" x2="780" y2="410.0" stroke="#21262d" stroke-width="1"/>
<text x="82" y="414.0" text-anchor="end" class="axis-label">100%</text>
<polygon points="90.0,650.0 97.2,650.0 104.4,650.0 111.6,650.0 118.8,650.0 125.9,650.0 133.1,650.0 140.3,650.0 147.5,528.2 154.7,528.5 161.9,529.7 169.1,499.3 176.2,499.3 183.4,502.9 190.6,485.0 197.8,485.1 205.0,485.4 212.2,485.4 219.4,485.4 226.6,485.4 233.8,485.4 240.9,496.4 248.1,496.7 255.3,491.0 262.5,491.0 269.7,491.0 276.9,491.7 284.1,491.8 291.2,494.0 298.4,494.0 305.6,494.4 312.8,494.4 320.0,494.4 327.2,494.4 334.4,507.6 341.6,507.6 348.8,507.9 355.9,507.9 363.1,507.9 370.3,506.3 377.5,506.4 384.7,506.8 391.9,506.9 399.1,506.8 406.2,507.5 413.4,507.5 420.6,507.5 427.8,507.5 435.0,507.5 442.2,507.5 449.4,507.5 456.6,507.5 463.8,507.5 470.9,507.5 478.1,507.5 485.3,507.5 492.5,507.5 499.7,508.6 506.9,508.6 514.1,508.6 521.2,508.6 528.4,508.6 535.6,509.5 542.8,509.8 550.0,509.8 557.2,509.8 564.4,509.8 571.6,509.8 578.8,509.8 585.9,509.8 593.1,509.8 600.3,510.9 607.5,510.9 614.7,510.9 621.9,510.9 629.1,510.9 636.2,510.9 643.4,510.9 650.6,510.9 657.8,510.9 665.0,510.9 672.2,510.9 679.4,510.9 686.6,510.9 693.8,510.9 700.9,510.9 708.1,510.9 715.3,510.9 722.5,510.9 729.7,510.9 736.9,510.9 744.1,510.9 751.2,510.9 758.4,510.9 765.6,510.9 772.8,512.9 780.0,514.8 780.0,650.0 772.8,650.0 765.6,650.0 758.4,650.0 751.2,650.0 744.1,650.0 736.9,650.0 729.7,650.0 722.5,650.0 715.3,650.0 708.1,650.0 700.9,650.0 693.8,650.0 686.6,650.0 679.4,650.0 672.2,650.0 665.0,650.0 657.8,650.0 650.6,650.0 643.4,650.0 636.2,650.0 629.1,650.0 621.9,650.0 614.7,650.0 607.5,650.0 600.3,650.0 593.1,650.0 585.9,650.0 578.8,650.0 571.6,650.0 564.4,650.0 557.2,650.0 550.0,650.0 542.8,650.0 535.6,650.0 528.4,650.0 521.2,650.0 514.1,650.0 506.9,650.0 499.7,650.0 492.5,650.0 485.3,650.0 478.1,650.0 470.9,650.0 463.8,650.0 456.6,650.0 449.4,650.0 442.2,650.0 435.0,650.0 427.8,650.0 420.6,650.0 413.4,650.0 406.2,650.0 399.1,650.0 391.9,650.0 384.7,650.0 377.5,650.0 370.3,650.0 363.1,650.0 355.9,650.0 348.8,650.0 341.6,650.0 334.4,650.0 327.2,650.0 320.0,650.0 312.8,650.0 305.6,650.0 298.4,650.0 291.2,650.0 284.1,650.0 276.9,650.0 269.7,650.0 262.5,650.0 255.3,650.0 248.1,650.0 240.9,650.0 233.8,650.0 226.6,650.0 219.4,650.0 212.2,650.0 205.0,650.0 197.8,650.0 190.6,650.0 183.4,650.0 176.2,650.0 169.1,650.0 161.9,650.0 154.7,650.0 147.5,650.0 140.3,650.0 133.1,650.0 125.9,650.0 118.8,650.0 111.6,650.0 104.4,650.0 97.2,650.0 90.0,650.0" fill="#e34c26" opacity="0.6" class="anim" style="animation-delay:500ms;"/>
<polygon points="90.0,650.0 97.2,650.0 104.4,650.0 111.6,650.0 118.8,650.0 125.9,650.0 133.1,650.0 140.3,650.0 147.5,488.4 154.7,488.0 161.9,489.0 169.1,476.0 176.2,476.0 183.4,477.2 190.6,460.1 197.8,460.2 205.0,460.6 212.2,460.6 219.4,460.6 226.6,460.6 233.8,460.6 240.9,473.0 248.1,473.5 255.3,469.5 262.5,469.5 269.7,469.5 276.9,469.7 284.1,469.7 291.2,469.7 298.4,469.7 305.6,469.7 312.8,469.7 320.0,469.7 327.2,469.7 334.4,455.6 341.6,455.6 348.8,455.4 355.9,455.4 363.1,455.4 370.3,454.3 377.5,454.3 384.7,455.0 391.9,455.1 399.1,454.9 406.2,455.9 413.4,455.9 420.6,455.9 427.8,455.9 435.0,455.9 442.2,455.9 449.4,455.9 456.6,455.9 463.8,455.9 470.9,455.9 478.1,455.9 485.3,455.9 492.5,455.9 499.7,455.8 506.9,455.8 514.1,455.8 521.2,455.8 528.4,455.8 535.6,457.0 542.8,457.4 550.0,457.4 557.2,457.4 564.4,457.4 571.6,457.4 578.8,457.4 585.9,457.4 593.1,457.4 600.3,458.2 607.5,458.2 614.7,458.2 621.9,458.2 629.1,458.2 636.2,458.2 643.4,458.2 650.6,458.2 657.8,458.2 665.0,458.2 672.2,458.2 679.4,458.2 686.6,458.2 693.8,458.2 700.9,458.2 708.1,458.2 715.3,458.2 722.5,458.2 729.7,458.2 736.9,458.2 744.1,458.2 751.2,458.2 758.4,458.2 765.6,458.2 772.8,456.6 780.0,455.0 780.0,514.8 772.8,512.9 765.6,510.9 758.4,510.9 751.2,510.9 744.1,510.9 736.9,510.9 729.7,510.9 722.5,510.9 715.3,510.9 708.1,510.9 700.9,510.9 693.8,510.9 686.6,510.9 679.4,510.9 672.2,510.9 665.0,510.9 657.8,510.9 650.6,510.9 643.4,510.9 636.2,510.9 629.1,510.9 621.9,510.9 614.7,510.9 607.5,510.9 600.3,510.9 593.1,509.8 585.9,509.8 578.8,509.8 571.6,509.8 564.4,509.8 557.2,509.8 550.0,509.8 542.8,509.8 535.6,509.5 528.4,508.6 521.2,508.6 514.1,508.6 506.9,508.6 499.7,508.6 492.5,507.5 485.3,507.5 478.1,507.5 470.9,507.5 463.8,507.5 456.6,507.5 449.4,507.5 442.2,507.5 435.0,507.5 427.8,507.5 420.6,507.5 413.4,507.5 406.2,507.5 399.1,506.8 391.9,506.9 384.7,506.8 377.5,506.4 370.3,506.3 363.1,507.9 355.9,507.9 348.8,507.9 341.6,507.6 334.4,507.6 327.2,494.4 320.0,494.4 312.8,494.4 305.6,494.4 298.4,494.0 291.2,494.0 284.1,491.8 276.9,491.7 269.7,491.0 262.5,491.0 255.3,491.0 248.1,496.7 240.9,496.4 233.8,485.4 226.6,485.4 219.4,485.4 212.2,485.4 205.0,485.4 197.8,485.1 190.6,485.0 183.4,502.9 176.2,499.3 169.1,499.3 161.9,529.7 154.7,528.5 147.5,528.2 140.3,650.0 133.1,650.0 125.9,650.0 118.8,650.0 111.6,650.0 104.4,650.0 97.2,650.0 90.0,650.0" fill="#f1e05a" opacity="0.6" class="anim" style="animation-delay:600ms;"/>
<polygon points="90.0,650.0 97.2,650.0 104.4,650.0 111.6,650.0 118.8,650.0 125.9,650.0 133.1,650.0 140.3,650.0 147.5,455.5 154.7,455.4 161.9,455.1 169.1,447.0 176.2,447.0 183.4,448.2 190.6,438.9 197.8,439.0 205.0,439.6 212.2,439.6 219.4,439.6 226.6,439.6 233.8,439.6 240.9,445.6 248.1,445.6 255.3,443.3 262.5,443.3 269.7,443.3 276.9,443.6 284.1,443.6 291.2,444.1 298.4,444.1 305.6,444.1 312.8,444.1 320.0,444.1 327.2,444.1 334.4,437.5 341.6,437.5 348.8,437.5 355.9,437.5 363.1,437.5 370.3,437.5 377.5,437.5 384.7,438.4 391.9,438.5 399.1,438.3 406.2,439.3 413.4,439.3 420.6,439.3 427.8,439.3 435.0,439.3 442.2,439.3 449.4,439.3 456.6,439.3 463.8,439.3 470.9,439.3 478.1,439.3 485.3,439.3 492.5,439.3 499.7,439.4 506.9,439.4 514.1,439.4 521.2,439.4 528.4,439.4 535.6,440.7 542.8,441.1 550.0,441.1 557.2,441.1 564.4,441.1 571.6,441.1 578.8,441.1 585.9,441.1 593.1,441.1 600.3,442.0 607.5,442.0 614.7,442.0 621.9,442.0 629.1,442.0 636.2,442.0 643.4,442.0 650.6,442.0 657.8,442.0 665.0,442.0 672.2,442.0 679.4,442.0 686.6,442.0 693.8,442.0 700.9,442.0 708.1,442.0 715.3,442.0 722.5,442.0 729.7,442.0 736.9,442.0 744.1,442.0 751.2,442.0 758.4,442.0 765.6,442.0 772.8,441.8 780.0,441.7 780.0,455.0 772.8,456.6 765.6,458.2 758.4,458.2 751.2,458.2 744.1,458.2 736.9,458.2 729.7,458.2 722.5,458.2 715.3,458.2 708.1,458.2 700.9,458.2 693.8,458.2 686.6,458.2 679.4,458.2 672.2,458.2 665.0,458.2 657.8,458.2 650.6,458.2 643.4,458.2 636.2,458.2 629.1,458.2 621.9,458.2 614.7,458.2 607.5,458.2 600.3,458.2 593.1,457.4 585.9,457.4 578.8,457.4 571.6,457.4 564.4,457.4 557.2,457.4 550.0,457.4 542.8,457.4 535.6,457.0 528.4,455.8 521.2,455.8 514.1,455.8 506.9,455.8 499.7,455.8 492.5,455.9 485.3,455.9 478.1,455.9 470.9,455.9 463.8,455.9 456.6,455.9 449.4,455.9 442.2,455.9 435.0,455.9 427.8,455.9 420.6,455.9 413.4,455.9 406.2,455.9 399.1,454.9 391.9,455.1 384.7,455.0 377.5,454.3 370.3,454.3 363.1,455.4 355.9,455.4 348.8,455.4 341.6,455.6 334.4,455.6 327.2,469.7 320.0,469.7 312.8,469.7 305.6,469.7 298.4,469.7 291.2,469.7 284.1,469.7 276.9,469.7 269.7,469.5 262.5,469.5 255.3,469.5 248.1,473.5 240.9,473.0 233.8,460.6 226.6,460.6 219.4,460.6 212.2,460.6 205.0,460.6 197.8,460.2 190.6,460.1 183.4,477.2 176.2,476.0 169.1,476.0 161.9,489.0 154.7,488.0 147.5,488.4 140.3,650.0 133.1,650.0 125.9,650.0 118.8,650.0 111.6,650.0 104.4,650.0 97.2,650.0 90.0,650.0" fill="#3572A5" opacity="0.6" class="anim" style="animation-delay:700ms;"/>
<polygon points="90.0,650.0 97.2,650.0 104.4,650.0 111.6,650.0 118.8,650.0 125.9,650.0 133.1,650.0 140.3,650.0 147.5,442.3 154.7,442.0 161.9,441.6 169.1,439.5 176.2,439.5 183.4,439.4 190.6,432.3 197.8,432.2 205.0,432.6 212.2,432.6 219.4,432.6 226.6,432.6 233.8,432.6 240.9,439.3 248.1,439.3 255.3,437.4 262.5,437.4 269.7,437.4 276.9,437.3 284.1,437.3 291.2,437.1 298.4,437.1 305.6,437.1 312.8,437.1 320.0,437.1 327.2,437.1 334.4,428.7 341.6,428.6 348.8,428.5 355.9,428.5 363.1,428.5 370.3,427.3 377.5,427.3 384.7,427.1 391.9,427.1 399.1,427.1 406.2,427.0 413.4,427.0 420.6,427.0 427.8,427.0 435.0,427.0 442.2,427.0 449.4,427.0 456.6,427.0 463.8,427.0 470.9,427.0 478.1,427.0 485.3,427.0 492.5,427.0 499.7,427.0 506.9,427.1 514.1,427.1 521.2,427.1 528.4,427.1 535.6,428.4 542.8,428.9 550.0,428.9 557.2,428.9 564.4,428.9 571.6,428.9 578.8,428.9 585.9,428.9 593.1,428.9 600.3,428.7 607.5,428.7 614.7,428.7 621.9,428.7 629.1,428.7 636.2,428.7 643.4,428.7 650.6,428.7 657.8,428.7 665.0,428.7 672.2,428.7 679.4,428.7 686.6,428.7 693.8,428.7 700.9,428.7 708.1,428.7 715.3,428.7 722.5,428.7 729.7,428.7 736.9,428.7 744.1,428.7 751.2,428.7 758.4,428.7 765.6,428.7 772.8,427.8 780.0,426.9 780.0,441.7 772.8,441.8 765.6,442.0 758.4,442.0 751.2,442.0 744.1,442.0 736.9,442.0 729.7,442.0 722.5,442.0 715.3,442.0 708.1,442.0 700.9,442.0 693.8,442.0 686.6,442.0 679.4,442.0 672.2,442.0 665.0,442.0 657.8,442.0 650.6,442.0 643.4,442.0 636.2,442.0 629.1,442.0 621.9,442.0 614.7,442.0 607.5,442.0 600.3,442.0 593.1,441.1 585.9,441.1 578.8,441.1 571.6,441.1 564.4,441.1 557.2,441.1 550.0,441.1 542.8,441.1 535.6,440.7 528.4,439.4 521.2,439.4 514.1,439.4 506.9,439.4 499.7,439.4 492.5,439.3 485.3,439.3 478.1,439.3 470.9,439.3 463.8,439.3 456.6,439.3 449.4,439.3 442.2,439.3 435.0,439.3 427.8,439.3 420.6,439.3 413.4,439.3 406.2,439.3 399.1,438.3 391.9,438.5 384.7,438.4 377.5,437.5 370.3,437.5 363.1,437.5 355.9,437.5 348.8,437.5 341.6,437.5 334.4,437.5 327.2,444.1 320.0,444.1 312.8,444.1 305.6,444.1 298.4,444.1 291.2,444.1 284.1,443.6 276.9,443.6 269.7,443.3 262.5,443.3 255.3,443.3 248.1,445.6 240.9,445.6 233.8,439.6 226.6,439.6 219.4,439.6 212.2,439.6 205.0,439.6 197.8,439.0 190.6,438.9 183.4,448.2 176.2,447.0 169.1,447.0 161.9,455.1 154.7,455.4 147.5,455.5 140.3,650.0 133.1,650.0 125.9,650.0 118.8,650.0 111.6,650.0 104.4,650.0 97.2,650.0 90.0,650.0" fill="#663399" opacity="0.6" class="anim" style="animation-delay:800ms;"/>
<polygon points="90.0,650.0 97.2,650.0 104.4,650.0 111.6,650.0 118.8,650.0 125.9,650.0 133.1,650.0 140.3,650.0 147.5,436.6 154.7,436.3 161.9,435.9 169.1,432.2 176.2,432.2 183.4,432.2 190.6,426.2 197.8,426.1 205.0,426.0 212.2,426.0 219.4,426.0 226.6,426.0 233.8,426.0 240.9,430.8 248.1,430.7 255.3,429.3 262.5,429.3 269.7,429.3 276.9,429.2 284.1,429.2 291.2,428.9 298.4,428.9 305.6,428.8 312.8,428.8 320.0,428.8 327.2,428.8 334.4,423.0 341.6,422.9 348.8,422.9 355.9,422.9 363.1,422.9 370.3,422.0 377.5,422.0 384.7,421.9 391.9,421.9 399.1,421.9 406.2,421.8 413.4,421.8 420.6,421.8 427.8,421.8 435.0,421.8 442.2,421.8 449.4,421.8 456.6,421.8 463.8,421.8 470.9,421.8 478.1,421.8 485.3,421.8 492.5,421.8 499.7,421.7 506.9,421.8 514.1,421.8 521.2,421.8 528.4,421.8 535.6,423.2 542.8,423.6 550.0,423.6 557.2,423.6 564.4,423.6 571.6,423.6 578.8,423.6 585.9,423.6 593.1,423.6 600.3,423.5 607.5,423.5 614.7,423.5 621.9,423.5 629.1,423.5 636.2,423.5 643.4,423.5 650.6,423.5 657.8,423.5 665.0,423.5 672.2,423.5 679.4,423.5 686.6,423.5 693.8,423.5 700.9,423.5 708.1,423.5 715.3,423.5 722.5,423.5 729.7,423.5 736.9,423.5 744.1,423.5 751.2,423.5 758.4,423.5 765.6,423.5 772.8,422.9 780.0,422.2 780.0,426.9 772.8,427.8 765.6,428.7 758.4,428.7 751.2,428.7 744.1,428.7 736.9,428.7 729.7,428.7 722.5,428.7 715.3,428.7 708.1,428.7 700.9,428.7 693.8,428.7 686.6,428.7 679.4,428.7 672.2,428.7 665.0,428.7 657.8,428.7 650.6,428.7 643.4,428.7 636.2,428.7 629.1,428.7 621.9,428.7 614.7,428.7 607.5,428.7 600.3,428.7 593.1,428.9 585.9,428.9 578.8,428.9 571.6,428.9 564.4,428.9 557.2,428.9 550.0,428.9 542.8,428.9 535.6,428.4 528.4,427.1 521.2,427.1 514.1,427.1 506.9,427.1 499.7,427.0 492.5,427.0 485.3,427.0 478.1,427.0 470.9,427.0 463.8,427.0 456.6,427.0 449.4,427.0 442.2,427.0 435.0,427.0 427.8,427.0 420.6,427.0 413.4,427.0 406.2,427.0 399.1,427.1 391.9,427.1 384.7,427.1 377.5,427.3 370.3,427.3 363.1,428.5 355.9,428.5 348.8,428.5 341.6,428.6 334.4,428.7 327.2,437.1 320.0,437.1 312.8,437.1 305.6,437.1 298.4,437.1 291.2,437.1 284.1,437.3 276.9,437.3 269.7,437.4 262.5,437.4 255.3,437.4 248.1,439.3 240.9,439.3 233.8,432.6 226.6,432.6 219.4,432.6 212.2,432.6 205.0,432.6 197.8,432.2 190.6,432.3 183.4,439.4 176.2,439.5 169.1,439.5 161.9,441.6 154.7,442.0 147.5,442.3 140.3,650.0 133.1,650.0 125.9,650.0 118.8,650.0 111.6,650.0 104.4,650.0 97.2,650.0 90.0,650.0" fill="#083fa1" opacity="0.6" class="anim" style="animation-delay:900ms;"/>
<polygon points="90.0,650.0 97.2,650.0 104.4,650.0 111.6,650.0 118.8,650.0 125.9,650.0 133.1,650.0 140.3,650.0 147.5,428.3 154.7,428.1 161.9,427.8 169.1,425.3 176.2,425.3 183.4,425.2 190.6,421.1 197.8,421.1 205.0,421.0 212.2,421.0 219.4,421.0 226.6,421.0 233.8,421.0 240.9,424.3 248.1,424.2 255.3,423.3 262.5,423.3 269.7,423.3 276.9,423.2 284.1,423.2 291.2,423.0 298.4,423.0 305.6,422.9 312.8,422.9 320.0,422.9 327.2,422.9 334.4,418.9 341.6,418.9 348.8,418.8 355.9,418.8 363.1,418.8 370.3,418.3 377.5,418.3 384.7,418.2 391.9,418.2 399.1,418.2 406.2,418.1 413.4,418.1 420.6,418.1 427.8,418.1 435.0,418.1 442.2,418.1 449.4,418.1 456.6,418.1 463.8,418.1 470.9,418.1 478.1,418.1 485.3,418.1 492.5,418.1 499.7,418.1 506.9,418.1 514.1,418.1 521.2,418.1 528.4,418.1 535.6,418.0 542.8,418.0 550.0,418.0 557.2,418.0 564.4,418.0 571.6,418.0 578.8,418.0 585.9,418.0 593.1,418.0 600.3,417.9 607.5,417.9 614.7,417.9 621.9,417.9 629.1,417.9 636.2,417.9 643.4,417.9 650.6,417.9 657.8,417.9 665.0,417.9 672.2,417.9 679.4,417.9 686.6,417.9 693.8,417.9 700.9,417.9 708.1,417.9 715.3,417.9 722.5,417.9 729.7,417.9 736.9,417.9 744.1,417.9 751.2,417.9 758.4,417.9 765.6,417.9 772.8,417.3 780.0,416.7 780.0,422.2 772.8,422.9 765.6,423.5 758.4,423.5 751.2,423.5 744.1,423.5 736.9,423.5 729.7,423.5 722.5,423.5 715.3,423.5 708.1,423.5 700.9,423.5 693.8,423.5 686.6,423.5 679.4,423.5 672.2,423.5 665.0,423.5 657.8,423.5 650.6,423.5 643.4,423.5 636.2,423.5 629.1,423.5 621.9,423.5 614.7,423.5 607.5,423.5 600.3,423.5 593.1,423.6 585.9,423.6 578.8,423.6 571.6,423.6 564.4,423.6 557.2,423.6 550.0,423.6 542.8,423.6 535.6,423.2 528.4,421.8 521.2,421.8 514.1,421.8 506.9,421.8 499.7,421.7 492.5,421.8 485.3,421.8 478.1,421.8 470.9,421.8 463.8,421.8 456.6,421.8 449.4,421.8 442.2,421.8 435.0,421.8 427.8,421.8 420.6,421.8 413.4,421.8 406.2,421.8 399.1,421.9 391.9,421.9 384.7,421.9 377.5,422.0 370.3,422.0 363.1,422.9 355.9,422.9 348.8,422.9 341.6,422.9 334.4,423.0 327.2,428.8 320.0,428.8 312.8,428.8 305.6,428.8 298.4,428.9 291.2,428.9 284.1,429.2 276.9,429.2 269.7,429.3 262.5,429.3 255.3,429.3 248.1,430.7 240.9,430.8 233.8,426.0 226.6,426.0 219.4,426.0 212.2,426.0 205.0,426.0 197.8,426.1 190.6,426.2 183.4,432.2 176.2,432.2 169.1,432.2 161.9,435.9 154.7,436.3 147.5,436.6 140.3,650.0 133.1,650.0 125.9,650.0 118.8,650.0 111.6,650.0 104.4,650.0 97.2,650.0 90.0,650.0" fill="#F05138" opacity="0.6" class="anim" style="animation-delay:1000ms;"/>
<polygon points="90.0,650.0 97.2,650.0 104.4,650.0 111.6,650.0 118.8,650.0 125.9,650.0 133.1,650.0 140.3,650.0 147.5,418.7 154.7,418.6 161.9,418.5 169.1,417.3 176.2,417.3 183.4,417.2 190.6,415.3 197.8,415.3 205.0,415.2 212.2,415.2 219.4,415.2 226.6,415.2 233.8,415.2 240.9,416.8 248.1,416.8 255.3,416.3 262.5,416.3 269.7,416.3 276.9,416.3 284.1,416.3 291.2,416.2 298.4,416.2 305.6,416.2 312.8,416.2 320.0,416.2 327.2,416.2 334.4,414.2 341.6,414.2 348.8,414.2 355.9,414.2 363.1,414.2 370.3,413.9 377.5,413.9 384.7,413.9 391.9,413.9 399.1,413.9 406.2,413.9 413.4,413.9 420.6,413.9 427.8,413.9 435.0,413.9 442.2,413.9 449.4,413.9 456.6,413.9 463.8,413.9 470.9,413.9 478.1,413.9 485.3,413.9 492.5,413.9 499.7,413.8 506.9,413.8 514.1,413.8 521.2,413.8 528.4,413.8 535.6,413.8 542.8,413.8 550.0,413.8 557.2,413.8 564.4,413.8 571.6,413.8 578.8,413.8 585.9,413.8 593.1,413.8 600.3,413.8 607.5,413.8 614.7,413.8 621.9,413.8 629.1,413.8 636.2,413.8 643.4,413.8 650.6,413.8 657.8,413.8 665.0,413.8 672.2,413.8 679.4,413.8 686.6,413.8 693.8,413.8 700.9,413.8 708.1,413.8 715.3,413.8 722.5,413.8 729.7,413.8 736.9,413.8 744.1,413.8 751.2,413.8 758.4,413.8 765.6,413.8 772.8,413.6 780.0,413.4 780.0,416.7 772.8,417.3 765.6,417.9 758.4,417.9 751.2,417.9 744.1,417.9 736.9,417.9 729.7,417.9 722.5,417.9 715.3,417.9 708.1,417.9 700.9,417.9 693.8,417.9 686.6,417.9 679.4,417.9 672.2,417.9 665.0,417.9 657.8,417.9 650.6,417.9 643.4,417.9 636.2,417.9 629.1,417.9 621.9,417.9 614.7,417.9 607.5,417.9 600.3,417.9 593.1,418.0 585.9,418.0 578.8,418.0 571.6,418.0 564.4,418.0 557.2,418.0 550.0,418.0 542.8,418.0 535.6,418.0 528.4,418.1 521.2,418.1 514.1,418.1 506.9,418.1 499.7,418.1 492.5,418.1 485.3,418.1 478.1,418.1 470.9,418.1 463.8,418.1 456.6,418.1 449.4,418.1 442.2,418.1 435.0,418.1 427.8,418.1 420.6,418.1 413.4,418.1 406.2,418.1 399.1,418.2 391.9,418.2 384.7,418.2 377.5,418.3 370.3,418.3 363.1,418.8 355.9,418.8 348.8,418.8 341.6,418.9 334.4,418.9 327.2,422.9 320.0,422.9 312.8,422.9 305.6,422.9 298.4,423.0 291.2,423.0 284.1,423.2 276.9,423.2 269.7,423.3 262.5,423.3 255.3,423.3 248.1,424.2 240.9,424.3 233.8,421.0 226.6,421.0 219.4,421.0 212.2,421.0 205.0,421.0 197.8,421.1 190.6,421.1 183.4,425.2 176.2,425.3 169.1,425.3 161.9,427.8 154.7,428.1 147.5,428.3 140.3,650.0 133.1,650.0 125.9,650.0 118.8,650.0 111.6,650.0 104.4,650.0 97.2,650.0 90.0,650.0" fill="#6E4C13" opacity="0.6" class="anim" style="animation-delay:1100ms;"/>
<polygon points="90.0,650.0 97.2,650.0 104.4,650.0 111.6,650.0 118.8,650.0 125.9,650.0 133.1,650.0 140.3,650.0 147.5,414.4 154.7,414.4 161.9,414.3 169.1,413.7 176.2,413.7 183.4,413.7 190.6,412.7 197.8,412.7 205.0,412.7 212.2,412.7 219.4,412.7 226.6,412.7 233.8,412.7 240.9,413.5 248.1,413.4 255.3,413.2 262.5,413.2 269.7,413.2 276.9,413.2 284.1,413.2 291.2,413.1 298.4,413.1 305.6,413.1 312.8,413.1 320.0,413.1 327.2,413.1 334.4,412.2 341.6,412.1 348.8,412.1 355.9,412.1 363.1,412.1 370.3,412.0 377.5,412.0 384.7,412.0 391.9,412.0 399.1,412.0 406.2,412.0 413.4,412.0 420.6,412.0 427.8,412.0 435.0,412.0 442.2,412.0 449.4,412.0 456.6,412.0 463.8,412.0 470.9,412.0 478.1,412.0 485.3,412.0 492.5,412.0 499.7,411.9 506.9,411.9 514.1,411.9 521.2,411.9 528.4,411.9 535.6,411.9 542.8,411.9 550.0,411.9 557.2,411.9 564.4,411.9 571.6,411.9 578.8,411.9 585.9,411.9 593.1,411.9 600.3,411.9 607.5,411.9 614.7,411.9 621.9,411.9 629.1,411.9 636.2,411.9 643.4,411.9 650.6,411.9 657.8,411.9 665.0,411.9 672.2,411.9 679.4,411.9 686.6,411.9 693.8,411.9 700.9,411.9 708.1,411.9 715.3,411.9 722.5,411.9 729.7,411.9 736.9,411.9 744.1,411.9 751.2,411.9 758.4,411.9 765.6,411.9 772.8,411.9 780.0,411.9 780.0,413.4 772.8,413.6 765.6,413.8 758.4,413.8 751.2,413.8 744.1,413.8 736.9,413.8 729.7,413.8 722.5,413.8 715.3,413.8 708.1,413.8 700.9,413.8 693.8,413.8 686.6,413.8 679.4,413.8 672.2,413.8 665.0,413.8 657.8,413.8 650.6,413.8 643.4,413.8 636.2,413.8 629.1,413.8 621.9,413.8 614.7,413.8 607.5,413.8 600.3,413.8 593.1,413.8 585.9,413.8 578.8,413.8 571.6,413.8 564.4,413.8 557.2,413.8 550.0,413.8 542.8,413.8 535.6,413.8 528.4,413.8 521.2,413.8 514.1,413.8 506.9,413.8 499.7,413.8 492.5,413.9 485.3,413.9 478.1,413.9 470.9,413.9 463.8,413.9 456.6,413.9 449.4,413.9 442.2,413.9 435.0,413.9 427.8,413.9 420.6,413.9 413.4,413.9 406.2,413.9 399.1,413.9 391.9,413.9 384.7,413.9 377.5,413.9 370.3,413.9 363.1,414.2 355.9,414.2 348.8,414.2 341.6,414.2 334.4,414.2 327.2,416.2 320.0,416.2 312.8,416.2 305.6,416.2 298.4,416.2 291.2,416.2 284.1,416.3 276.9,416.3 269.7,416.3 262.5,416.3 255.3,416.3 248.1,416.8 240.9,416.8 233.8,415.2 226.6,415.2 219.4,415.2 212.2,415.2 205.0,415.2 197.8,415.3 190.6,415.3 183.4,417.2 176.2,417.3 169.1,417.3 161.9,418.5 154.7,418.6 147.5,418.7 140.3,650.0 133.1,650.0 125.9,650.0 118.8,650.0 111.6,650.0 104.4,650.0 97.2,650.0 90.0,650.0" fill="#b07219" opacity="0.6" class="anim" style="animation-delay:1200ms;"/>
<line x1="765.6" y1="100" x2="765.6" y2="650" stroke="#c9d1d9" stroke-width="1" stroke-dasharray="4,3" opacity="0.35"/>
<text x="772.8" y="112" text-anchor="middle" class="axis-label" opacity="0.6">Jul 27, 2026</text>
<text x="90.0" y="668" text-anchor="middle" class="axis-label" transform="rotate(-35 90.0 668)">2026-02</text>
<text x="305.6" y="668" text-anchor="middle" class="axis-label" transform="rotate(-35 305.6 668)">2026-03</text>
<text x="521.2" y="668" text-anchor="middle" class="axis-label" transform="rotate(-35 521.2 668)">2026-06</text>
<text x="736.9" y="668" text-anchor="middle" class="axis-label" transform="rotate(-35 736.9 668)">2026-07</text>
<line x1="796" y1="110" x2="824" y2="110" stroke="#3fb950" stroke-width="2"/>
<text x="832" y="116" class="legend-text">Lines Added</text>
<line x1="796" y1="140" x2="824" y2="140" stroke="#f85149" stroke-width="1.5"/>
<text x="832" y="146" class="legend-text">Lines Deleted</text>
<line x1="796" y1="170" x2="824" y2="170" stroke="#e3b341" stroke-width="1.5" stroke-dasharray="4,3"/>
<text x="832" y="176" class="legend-text">&#x2605; Stars</text>
<text x="796" y="200" class="subtitle">Languages</text>
<rect x="796" y="212" width="12" height="12" rx="2" fill="#e34c26" opacity="0.8" class="anim" style="animation-delay:800ms;"/>
<text x="814" y="223" class="legend-text">HTML (58%→56%)</text>
<rect x="796" y="234" width="12" height="12" rx="2" fill="#f1e05a" opacity="0.8" class="anim" style="animation-delay:880ms;"/>
<text x="814" y="245" class="legend-text">JavaScript (22%→25%)</text>
<rect x="796" y="256" width="12" height="12" rx="2" fill="#3572A5" opacity="0.8" class="anim" style="animation-delay:960ms;"/>
<text x="814" y="267" class="legend-text">Python (7%→6%)</text>
<rect x="796" y="278" width="12" height="12" rx="2" fill="#663399" opacity="0.8" class="anim" style="animation-delay:1040ms;"/>
<text x="814" y="289" class="legend-text">CSS (6%→6%)</text>
<rect x="796" y="300" width="12" height="12" rx="2" fill="#083fa1" opacity="0.8" class="anim" style="animation-delay:1120ms;"/>
<text x="814" y="311" class="legend-text">Markdown (2%→2%)</text>
<rect x="796" y="322" width="12" height="12" rx="2" fill="#F05138" opacity="0.8" class="anim" style="animation-delay:1200ms;"/>
<text x="814" y="333" class="legend-text">Swift (2%→2%)</text>
<rect x="796" y="344" width="12" height="12" rx="2" fill="#6E4C13" opacity="0.8" class="anim" style="animation-delay:1280ms;"/>
<text x="814" y="355" class="legend-text">Assembly (2%→1%)</text>
<rect x="796" y="366" width="12" height="12" rx="2" fill="#b07219" opacity="0.8" class="anim" style="animation-delay:1360ms;"/>
<text x="814" y="377" class="legend-text">Java (1%→1%)</text>
<text x="796" y="412" class="subtitle">Contributions</text>
<text x="796" y="432" class="axis-label">2023: 39</text>
<text x="796" y="452" class="axis-label">2024: 646</text>
<text x="796" y="472" class="axis-label">2025: 1,780</text>
<text x="796" y="492" class="axis-label">2026: 491</text>
<text x="796" y="522" class="subtitle">Statistics</text>
<text x="796" y="542" class="axis-label">Active weeks: 88</text>
<text x="796" y="562" class="axis-label">Add/Del ratio: 1.8x</text>
<text x="796" y="582" class="axis-label">Avg lines/wk: 18K</text>
<text x="796" y="602" class="axis-label">Peak: 2026-02-15</text>
<text x="796" y="622" class="axis-label">  (543K lines)</text>
<text x="90" y="742" class="axis-label">Total: +1,040,332 / -576,819 lines &#xb7; 2,956 contributions &#xb7; 80 repos &#xb7; &#x2605; 37</text>
</svg>