<svg xmlns="http://www.w3.org/2000/svg" width="1000" height="760" style="max-width: 100%;" viewBox="0 0 1000 760">

<defs>
  <linearGradient id="areaGrad" x1="0" y1="0" x2="0" y2="1">
    <stop offset="0%" stop-color="#58a6ff" stop-opacity="0.35"/>
    <stop offset="100%" stop-color="#58a6ff" stop-opacity="0.02"/>
  </linearGradient>
  <linearGradient id="addGrad" x1="0" y1="0" x2="0" y2="1">
    <stop offset="0%" stop-color="#3fb950" stop-opacity="0.35"/>
    <stop offset="100%" stop-color="#3fb950" stop-opacity="0.02"/>
  </linearGradient>
  <linearGradient id="delGrad" x1="0" y1="0" x2="0" y2="1">
    <stop offset="0%" stop-color="#f85149" stop-opacity="0.25"/>
    <stop offset="100%" stop-color="#f85149" stop-opacity="0.02"/>
  </linearGradient>
</defs>
<style>
  .title { font: bold 28px 'Segoe UI', Ubuntu, Sans-Serif; fill: #c9d1d9; }
  .subtitle { font: 600 20px 'Segoe UI', Ubuntu, Sans-Serif; fill: #c9d1d9; opacity: 0.8; }
  .axis-label { font: 18px 'Segoe UI', Ubuntu, Sans-Serif; fill: #c9d1d9; opacity: 0.7; }
  .legend-text { font: 14px 'Segoe UI', Ubuntu, Sans-Serif; fill: #c9d1d9; }
  .value-text { font: bold 18px 'Segoe UI', Ubuntu, Sans-Serif; fill: #c9d1d9; }
  .stat-value { font: bold 22px 'Segoe UI', Ubuntu, Sans-Serif; fill: #c9d1d9; }
  .stat-label { font: 18px 'Segoe UI', Ubuntu, Sans-Serif; fill: #c9d1d9; opacity: 0.7; }
  @keyframes fadeIn { from { opacity: 0; } to { opacity: 1; } }
  .anim { animation: fadeIn 0.6s ease-in-out forwards; opacity: 0; }
</style>

<rect x="0.5" y="0.5" rx="4.5" width="999" height="759" fill="#161b22" stroke="#21262d"/>
<text x="90" y="45" class="title">Activity History</text>
<text x="90" y="72" class="subtitle">Lines added vs deleted &amp; activity trends over time</text>
<line x1="90" y1="340.0" x2="780" y2="340.0" stroke="#21262d" stroke-width="1"/>
<text x="82" y="344.0" text-anchor="end" class="axis-label">0</text>
<line x1="90" y1="280.0" x2="780" y2="280.0" stroke="#21262d" stroke-width="1"/>
<text x="82" y="284.0" text-anchor="end" class="axis-label">451K</text>
<line x1="90" y1="220.0" x2="780" y2="220.0" stroke="#21262d" stroke-width="1"/>
<text x="82" y="224.0" text-anchor="end" class="axis-label">902K</text>
<line x1="90" y1="160.0" x2="780" y2="160.0" stroke="#21262d" stroke-width="1"/>
<text x="82" y="164.0" text-anchor="end" class="axis-label">1.4M</text>
<line x1="90" y1="100.0" x2="780" y2="100.0" stroke="#21262d" stroke-width="1"/>
<text x="82" y="104.0" text-anchor="end" class="axis-label">1.8M</text>
<polygon points="90.0,340.0 90.0,291.5 97.6,293.2 105.2,291.5 112.7,293.2 120.3,304.4 127.9,282.2 135.5,282.2 143.1,273.8 150.7,273.5 158.2,272.9 165.8,272.9 173.4,257.9 181.0,257.9 188.6,257.9 196.2,235.7 203.7,235.5 211.3,235.2 218.9,235.2 226.5,235.2 234.1,235.2 241.6,235.2 249.2,234.6 256.8,219.8 264.4,219.8 272.0,219.8 279.6,219.8 287.1,219.4 294.7,219.4 302.3,218.8 309.9,218.8 317.5,218.7 325.1,218.7 332.6,218.7 340.2,218.7 347.8,218.8 355.4,218.7 363.0,218.7 370.5,218.7 378.1,218.7 385.7,218.7 393.3,218.7 400.9,218.1 408.5,218.4 416.0,217.7 423.6,217.4 431.2,217.4 438.8,217.4 446.4,217.4 454.0,217.4 461.5,217.4 469.1,217.3 476.7,217.3 484.3,217.3 491.9,217.4 499.5,217.6 507.0,219.1 514.6,217.7 522.2,216.4 529.8,216.3 537.4,216.3 544.9,216.3 552.5,216.3 560.1,208.7 567.7,201.8 575.3,201.8 582.9,201.8 590.4,201.8 598.0,201.8 605.6,201.8 613.2,201.8 620.8,201.8 628.4,201.7 635.9,201.7 643.5,201.7 651.1,201.7 658.7,201.7 666.3,201.7 673.8,201.7 681.4,201.7 689.0,201.7 696.6,201.7 704.2,201.7 711.8,201.7 719.3,201.7 726.9,201.7 734.5,201.7 742.1,201.7 749.7,201.7 757.3,201.7 764.8,201.7 772.4,194.4 780.0,187.1 780.0,340.0" fill="url(#addGrad)" class="anim" style="animation-delay:200ms;"/>
<polyline points="90.0,291.5 97.6,293.2 105.2,291.5 112.7,293.2 120.3,304.4 127.9,282.2 135.5,282.2 143.1,273.8 150.7,273.5 158.2,272.9 165.8,272.9 173.4,257.9 181.0,257.9 188.6,257.9 196.2,235.7 203.7,235.5 211.3,235.2 218.9,235.2 226.5,235.2 234.1,235.2 241.6,235.2 249.2,234.6 256.8,219.8 264.4,219.8 272.0,219.8 279.6,219.8 287.1,219.4 294.7,219.4 302.3,218.8 309.9,218.8 317.5,218.7 325.1,218.7 332.6,218.7 340.2,218.7 347.8,218.8 355.4,218.7 363.0,218.7 370.5,218.7 378.1,218.7 385.7,218.7 393.3,218.7 400.9,218.1 408.5,218.4 416.0,217.7 423.6,217.4 431.2,217.4 438.8,217.4 446.4,217.4 454.0,217.4 461.5,217.4 469.1,217.3 476.7,217.3 484.3,217.3 491.9,217.4 499.5,217.6 507.0,219.1 514.6,217.7 522.2,216.4 529.8,216.3 537.4,216.3 544.9,216.3 552.5,216.3 560.1,208.7 567.7,201.8 575.3,201.8 582.9,201.8 590.4,201.8 598.0,201.8 605.6,201.8 613.2,201.8 620.8,201.8 628.4,201.7 635.9,201.7 643.5,201.7 651.1,201.7 658.7,201.7 666.3,201.7 673.8,201.7 681.4,201.7 689.0,201.7 696.6,201.7 704.2,201.7 711.8,201.7 719.3,201.7 726.9,201.7 734.5,201.7 742.1,201.7 749.7,201.7 757.3,201.7 764.8,201.7" fill="none" stroke="#3fb950" stroke-width="2" stroke-linejoin="round" class="anim" style="animation-delay:250ms;"/>
<polyline points="764.8,201.7 772.4,194.4 780.0,187.1" fill="none" stroke="#3fb950" stroke-width="1.5" stroke-dasharray="5,4" stroke-linejoin="round" opacity="0.6" class="anim" style="animation-delay:250ms;"/>
<polygon points="90.0,340.0 90.0,326.4 97.6,327.8 105.2,326.4 112.7,327.7 120.3,333.6 127.9,324.7 135.5,324.7 143.1,323.7 150.7,323.4 158.2,323.1 165.8,323.1 173.4,307.0 181.0,307.0 188.6,306.9 196.2,288.7 203.7,288.6 211.3,288.6 218.9,288.6 226.5,288.6 234.1,288.6 241.6,288.6 249.2,279.0 256.8,264.5 264.4,264.5 272.0,264.5 279.6,264.5 287.1,264.4 294.7,264.4 302.3,264.3 309.9,264.3 317.5,264.3 325.1,264.3 332.6,264.3 340.2,264.3 347.8,264.3 355.4,264.3 363.0,264.3 370.5,264.3 378.1,264.3 385.7,264.3 393.3,264.3 400.9,264.3 408.5,264.3 416.0,263.8 423.6,263.8 431.2,263.8 438.8,263.8 446.4,263.8 454.0,263.8 461.5,263.8 469.1,263.8 476.7,263.8 484.3,263.8 491.9,263.9 499.5,263.9 507.0,264.8 514.6,264.2 522.2,263.4 529.8,263.4 537.4,263.4 544.9,263.4 552.5,263.4 560.1,263.3 567.7,263.3 575.3,263.3 582.9,263.3 590.4,263.3 598.0,263.3 605.6,263.3 613.2,263.3 620.8,263.3 628.4,263.3 635.9,263.3 643.5,263.3 651.1,263.3 658.7,263.3 666.3,263.3 673.8,263.3 681.4,263.3 689.0,263.3 696.6,263.3 704.2,263.3 711.8,263.3 719.3,263.3 726.9,263.3 734.5,263.3 742.1,263.3 749.7,263.3 757.3,263.3 764.8,263.3 772.4,258.1 780.0,252.9 780.0,340.0" fill="url(#delGrad)" class="anim" style="animation-delay:300ms;"/>
<polyline points="90.0,326.4 97.6,327.8 105.2,326.4 112.7,327.7 120.3,333.6 127.9,324.7 135.5,324.7 143.1,323.7 150.7,323.4 158.2,323.1 165.8,323.1 173.4,307.0 181.0,307.0 188.6,306.9 196.2,288.7 203.7,288.6 211.3,288.6 218.9,288.6 226.5,288.6 234.1,288.6 241.6,288.6 249.2,279.0 256.8,264.5 264.4,264.5 272.0,264.5 279.6,264.5 287.1,264.4 294.7,264.4 302.3,264.3 309.9,264.3 317.5,264.3 325.1,264.3 332.6,264.3 340.2,264.3 347.8,264.3 355.4,264.3 363.0,264.3 370.5,264.3 378.1,264.3 385.7,264.3 393.3,264.3 400.9,264.3 408.5,264.3 416.0,263.8 423.6,263.8 431.2,263.8 438.8,263.8 446.4,263.8 454.0,263.8 461.5,263.8 469.1,263.8 476.7,263.8 484.3,263.8 491.9,263.9 499.5,263.9 507.0,264.8 514.6,264.2 522.2,263.4 529.8,263.4 537.4,263.4 544.9,263.4 552.5,263.4 560.1,263.3 567.7,263.3 575.3,263.3 582.9,263.3 590.4,263.3 598.0,263.3 605.6,263.3 613.2,263.3 620.8,263.3 628.4,263.3 635.9,263.3 643.5,263.3 651.1,263.3 658.7,263.3 666.3,263.3 673.8,263.3 681.4,263.3 689.0,263.3 696.6,263.3 704.2,263.3 711.8,263.3 719.3,263.3 726.9,263.3 734.5,263.3 742.1,263.3 749.7,263.3 757.3,263.3 764.8,263.3" fill="none" stroke="#f85149" stroke-width="1.5" stroke-linejoin="round" class="anim" style="animation-delay:350ms;"/>
<polyline points="764.8,263.3 772.4,258.1 780.0,252.9" fill="none" stroke="#f85149" stroke-width="1" stroke-dasharray="5,4" stroke-linejoin="round" opacity="0.6" class="anim" style="animation-delay:350ms;"/>
<polyline points="90.0,340.0 97.6,340.0 105.2,340.0 112.7,340.0 120.3,340.0 127.9,340.0 135.5,340.0 143.1,340.0 150.7,308.0 158.2,308.0 165.8,308.0 173.4,308.0 181.0,308.0 188.6,308.0 196.2,308.0 203.7,308.0 211.3,308.0 218.9,308.0 226.5,308.0 234.1,308.0 241.6,308.0 249.2,308.0 256.8,308.0 264.4,308.0 272.0,308.0 279.6,308.0 287.1,308.0 294.7,308.0 302.3,308.0 309.9,308.0 317.5,308.0 325.1,308.0 332.6,308.0 340.2,308.0 347.8,276.0 355.4,276.0 363.0,276.0 370.5,276.0 378.1,276.0 385.7,276.0 393.3,276.0 400.9,276.0 408.5,244.0 416.0,244.0 423.6,244.0 431.2,244.0 438.8,244.0 446.4,244.0 454.0,244.0 461.5,244.0 469.1,244.0 476.7,244.0 484.3,244.0 491.9,244.0 499.5,244.0 507.0,244.0 514.6,244.0 522.2,244.0 529.8,180.0 537.4,180.0 544.9,180.0 552.5,180.0 560.1,180.0 567.7,180.0 575.3,180.0 582.9,180.0 590.4,180.0 598.0,180.0 605.6,180.0 613.2,180.0 620.8,180.0 628.4,180.0 635.9,180.0 643.5,180.0 651.1,180.0 658.7,180.0 666.3,180.0 673.8,180.0 681.4,180.0 689.0,180.0 696.6,180.0 704.2,180.0 711.8,180.0 719.3,180.0 726.9,180.0 734.5,180.0 742.1,180.0 749.7,180.0 757.3,180.0 764.8,180.0" fill="none" stroke="#e3b341" stroke-width="1.5" stroke-dasharray="4,3" stroke-linejoin="round" class="anim" style="animation-delay:400ms;"/>
<polyline points="764.8,180.0 772.4,180.0 780.0,148.0" fill="none" stroke="#e3b341" stroke-width="1" stroke-dasharray="3,5" stroke-linejoin="round" opacity="0.5" class="anim" style="animation-delay:400ms;"/>
<text x="90" y="90" class="subtitle">Lines Added vs Deleted (per snapshot)</text>
<text x="90" y="400" class="subtitle">Programming Language Development (%)</text>
<line x1="90" y1="650.0" x2="780" y2="650.0" stroke="#21262d" stroke-width="1"/>
<text x="82" y="654.0" text-anchor="end" class="axis-label">0%</text>
<line x1="90" y1="590.0" x2="780" y2="590.0" stroke="#21262d" stroke-width="1"/>
<text x="82" y="594.0" text-anchor="end" class="axis-label">25%</text>
<line x1="90" y1="530.0" x2="780" y2="530.0" stroke="#21262d" stroke-width="1"/>
<text x="82" y="534.0" text-anchor="end" class="axis-label">50%</text>
<line x1="90" y1="470.0" x2="780" y2="470.0" stroke="#21262d" stroke-width="1"/>
<text x="82" y="474.0" text-anchor="end" class="axis-label">75%</text>
<line x1="90" y1="410.0" x2="780" y2="410.0" stroke="#21262d" stroke-width="1"/>
<text x="82" y="414.0" text-anchor="end" class="axis-label">100%</text>
<polygon points="90.0,650.0 97.6,650.0 105.2,650.0 112.7,650.0 120.3,650.0 127.9,650.0 135.5,650.0 143.1,650.0 150.7,528.2 158.2,528.5 165.8,529.7 173.4,499.3 181.0,499.3 188.6,502.9 196.2,485.0 203.7,485.1 211.3,485.4 218.9,485.4 226.5,485.4 234.1,485.4 241.6,485.4 249.2,496.4 256.8,496.7 264.4,491.0 272.0,491.0 279.6,491.0 287.1,491.7 294.7,491.8 302.3,494.0 309.9,494.0 317.5,494.4 325.1,494.4 332.6,494.4 340.2,494.4 347.8,507.6 355.4,507.6 363.0,507.9 370.5,507.9 378.1,507.9 385.7,506.3 393.3,506.4 400.9,506.8 408.5,506.9 416.0,506.8 423.6,507.5 431.2,507.5 438.8,507.5 446.4,507.5 454.0,507.5 461.5,507.5 469.1,507.5 476.7,507.5 484.3,507.5 491.9,507.5 499.5,507.5 507.0,507.5 514.6,507.5 522.2,508.6 529.8,508.6 537.4,508.6 544.9,508.6 552.5,508.6 560.1,509.5 567.7,509.8 575.3,509.8 582.9,509.8 590.4,509.8 598.0,509.8 605.6,509.8 613.2,509.8 620.8,509.8 628.4,510.9 635.9,510.9 643.5,510.9 651.1,510.9 658.7,510.9 666.3,510.9 673.8,510.9 681.4,510.9 689.0,510.9 696.6,510.9 704.2,510.9 711.8,510.9 719.3,510.9 726.9,510.9 734.5,510.9 742.1,510.9 749.7,510.9 757.3,510.9 764.8,510.9 772.4,512.8 780.0,514.7 780.0,650.0 772.4,650.0 764.8,650.0 757.3,650.0 749.7,650.0 742.1,650.0 734.5,650.0 726.9,650.0 719.3,650.0 711.8,650.0 704.2,650.0 696.6,650.0 689.0,650.0 681.4,650.0 673.8,650.0 666.3,650.0 658.7,650.0 651.1,650.0 643.5,650.0 635.9,650.0 628.4,650.0 620.8,650.0 613.2,650.0 605.6,650.0 598.0,650.0 590.4,650.0 582.9,650.0 575.3,650.0 567.7,650.0 560.1,650.0 552.5,650.0 544.9,650.0 537.4,650.0 529.8,650.0 522.2,650.0 514.6,650.0 507.0,650.0 499.5,650.0 491.9,650.0 484.3,650.0 476.7,650.0 469.1,650.0 461.5,650.0 454.0,650.0 446.4,650.0 438.8,650.0 431.2,650.0 423.6,650.0 416.0,650.0 408.5,650.0 400.9,650.0 393.3,650.0 385.7,650.0 378.1,650.0 370.5,650.0 363.0,650.0 355.4,650.0 347.8,650.0 340.2,650.0 332.6,650.0 325.1,650.0 317.5,650.0 309.9,650.0 302.3,650.0 294.7,650.0 287.1,650.0 279.6,650.0 272.0,650.0 264.4,650.0 256.8,650.0 249.2,650.0 241.6,650.0 234.1,650.0 226.5,650.0 218.9,650.0 211.3,650.0 203.7,650.0 196.2,650.0 188.6,650.0 181.0,650.0 173.4,650.0 165.8,650.0 158.2,650.0 150.7,650.0 143.1,650.0 135.5,650.0 127.9,650.0 120.3,650.0 112.7,650.0 105.2,650.0 97.6,650.0 90.0,650.0" fill="#e34c26" opacity="0.6" class="anim" style="animation-delay:500ms;"/>
<polygon points="90.0,650.0 97.6,650.0 105.2,650.0 112.7,650.0 120.3,650.0 127.9,650.0 135.5,650.0 143.1,650.0 150.7,488.4 158.2,488.0 165.8,489.0 173.4,476.0 181.0,476.0 188.6,477.2 196.2,460.1 203.7,460.2 211.3,460.6 218.9,460.6 226.5,460.6 234.1,460.6 241.6,460.6 249.2,473.0 256.8,473.5 264.4,469.5 272.0,469.5 279.6,469.5 287.1,469.7 294.7,469.7 302.3,469.7 309.9,469.7 317.5,469.7 325.1,469.7 332.6,469.7 340.2,469.7 347.8,455.6 355.4,455.6 363.0,455.4 370.5,455.4 378.1,455.4 385.7,454.3 393.3,454.3 400.9,455.0 408.5,455.1 416.0,454.9 423.6,455.9 431.2,455.9 438.8,455.9 446.4,455.9 454.0,455.9 461.5,455.9 469.1,455.9 476.7,455.9 484.3,455.9 491.9,455.9 499.5,455.9 507.0,455.9 514.6,455.9 522.2,455.8 529.8,455.8 537.4,455.8 544.9,455.8 552.5,455.8 560.1,457.0 567.7,457.4 575.3,457.4 582.9,457.4 590.4,457.4 598.0,457.4 605.6,457.4 613.2,457.4 620.8,457.4 628.4,458.2 635.9,458.2 643.5,458.2 651.1,458.2 658.7,458.2 666.3,458.2 673.8,458.2 681.4,458.2 689.0,458.2 696.6,458.2 704.2,458.2 711.8,458.2 719.3,458.2 726.9,458.2 734.5,458.2 742.1,458.2 749.7,458.2 757.3,458.2 764.8,458.2 772.4,456.5 780.0,454.9 780.0,514.7 772.4,512.8 764.8,510.9 757.3,510.9 749.7,510.9 742.1,510.9 734.5,510.9 726.9,510.9 719.3,510.9 711.8,510.9 704.2,510.9 696.6,510.9 689.0,510.9 681.4,510.9 673.8,510.9 666.3,510.9 658.7,510.9 651.1,510.9 643.5,510.9 635.9,510.9 628.4,510.9 620.8,509.8 613.2,509.8 605.6,509.8 598.0,509.8 590.4,509.8 582.9,509.8 575.3,509.8 567.7,509.8 560.1,509.5 552.5,508.6 544.9,508.6 537.4,508.6 529.8,508.6 522.2,508.6 514.6,507.5 507.0,507.5 499.5,507.5 491.9,507.5 484.3,507.5 476.7,507.5 469.1,507.5 461.5,507.5 454.0,507.5 446.4,507.5 438.8,507.5 431.2,507.5 423.6,507.5 416.0,506.8 408.5,506.9 400.9,506.8 393.3,506.4 385.7,506.3 378.1,507.9 370.5,507.9 363.0,507.9 355.4,507.6 347.8,507.6 340.2,494.4 332.6,494.4 325.1,494.4 317.5,494.4 309.9,494.0 302.3,494.0 294.7,491.8 287.1,491.7 279.6,491.0 272.0,491.0 264.4,491.0 256.8,496.7 249.2,496.4 241.6,485.4 234.1,485.4 226.5,485.4 218.9,485.4 211.3,485.4 203.7,485.1 196.2,485.0 188.6,502.9 181.0,499.3 173.4,499.3 165.8,529.7 158.2,528.5 150.7,528.2 143.1,650.0 135.5,650.0 127.9,650.0 120.3,650.0 112.7,650.0 105.2,650.0 97.6,650.0 90.0,650.0" fill="#f1e05a" opacity="0.6" class="anim" style="animation-delay:600ms;"/>
<polygon points="90.0,650.0 97.6,650.0 105.2,650.0 112.7,650.0 120.3,650.0 127.9,650.0 135.5,650.0 143.1,650.0 150.7,455.5 158.2,455.4 165.8,455.1 173.4,447.0 181.0,447.0 188.6,448.2 196.2,438.9 203.7,439.0 211.3,439.6 218.9,439.6 226.5,439.6 234.1,439.6 241.6,439.6 249.2,445.6 256.8,445.6 264.4,443.3 272.0,443.3 279.6,443.3 287.1,443.6 294.7,443.6 302.3,444.1 309.9,444.1 317.5,444.1 325.1,444.1 332.6,444.1 340.2,444.1 347.8,437.5 355.4,437.5 363.0,437.5 370.5,437.5 378.1,437.5 385.7,437.5 393.3,437.5 400.9,438.4 408.5,438.5 416.0,438.3 423.6,439.3 431.2,439.3 438.8,439.3 446.4,439.3 454.0,439.3 461.5,439.3 469.1,439.3 476.7,439.3 484.3,439.3 491.9,439.3 499.5,439.3 507.0,439.3 514.6,439.3 522.2,439.4 529.8,439.4 537.4,439.4 544.9,439.4 552.5,439.4 560.1,440.7 567.7,441.1 575.3,441.1 582.9,441.1 590.4,441.1 598.0,441.1 605.6,441.1 613.2,441.1 620.8,441.1 628.4,442.0 635.9,442.0 643.5,442.0 651.1,442.0 658.7,442.0 666.3,442.0 673.8,442.0 681.4,442.0 689.0,442.0 696.6,442.0 704.2,442.0 711.8,442.0 719.3,442.0 726.9,442.0 734.5,442.0 742.1,442.0 749.7,442.0 757.3,442.0 764.8,442.0 772.4,441.8 780.0,441.6 780.0,454.9 772.4,456.5 764.8,458.2 757.3,458.2 749.7,458.2 742.1,458.2 734.5,458.2 726.9,458.2 719.3,458.2 711.8,458.2 704.2,458.2 696.6,458.2 689.0,458.2 681.4,458.2 673.8,458.2 666.3,458.2 658.7,458.2 651.1,458.2 643.5,458.2 635.9,458.2 628.4,458.2 620.8,457.4 613.2,457.4 605.6,457.4 598.0,457.4 590.4,457.4 582.9,457.4 575.3,457.4 567.7,457.4 560.1,457.0 552.5,455.8 544.9,455.8 537.4,455.8 529.8,455.8 522.2,455.8 514.6,455.9 507.0,455.9 499.5,455.9 491.9,455.9 484.3,455.9 476.7,455.9 469.1,455.9 461.5,455.9 454.0,455.9 446.4,455.9 438.8,455.9 431.2,455.9 423.6,455.9 416.0,454.9 408.5,455.1 400.9,455.0 393.3,454.3 385.7,454.3 378.1,455.4 370.5,455.4 363.0,455.4 355.4,455.6 347.8,455.6 340.2,469.7 332.6,469.7 325.1,469.7 317.5,469.7 309.9,469.7 302.3,469.7 294.7,469.7 287.1,469.7 279.6,469.5 272.0,469.5 264.4,469.5 256.8,473.5 249.2,473.0 241.6,460.6 234.1,460.6 226.5,460.6 218.9,460.6 211.3,460.6 203.7,460.2 196.2,460.1 188.6,477.2 181.0,476.0 173.4,476.0 165.8,489.0 158.2,488.0 150.7,488.4 143.1,650.0 135.5,650.0 127.9,650.0 120.3,650.0 112.7,650.0 105.2,650.0 97.6,650.0 90.0,650.0" fill="#3572A5" opacity="0.6" class="anim" style="animation-delay:700ms;"/>
<polygon points="90.0,650.0 97.6,650.0 105.2,650.0 112.7,650.0 120.3,650.0 127.9,650.0 135.5,650.0 143.1,650.0 150.7,442.3 158.2,442.0 165.8,441.6 173.4,439.5 181.0,439.5 188.6,439.4 196.2,432.3 203.7,432.2 211.3,432.6 218.9,432.6 226.5,432.6 234.1,432.6 241.6,432.6 249.2,439.3 256.8,439.3 264.4,437.4 272.0,437.4 279.6,437.4 287.1,437.3 294.7,437.3 302.3,437.1 309.9,437.1 317.5,437.1 325.1,437.1 332.6,437.1 340.2,437.1 347.8,428.7 355.4,428.6 363.0,428.5 370.5,428.5 378.1,428.5 385.7,427.3 393.3,427.3 400.9,427.1 408.5,427.1 416.0,427.1 423.6,427.0 431.2,427.0 438.8,427.0 446.4,427.0 454.0,427.0 461.5,427.0 469.1,427.0 476.7,427.0 484.3,427.0 491.9,427.0 499.5,427.0 507.0,427.0 514.6,427.0 522.2,427.0 529.8,427.1 537.4,427.1 544.9,427.1 552.5,427.1 560.1,428.4 567.7,428.9 575.3,428.9 582.9,428.9 590.4,428.9 598.0,428.9 605.6,428.9 613.2,428.9 620.8,428.9 628.4,428.7 635.9,428.7 643.5,428.7 651.1,428.7 658.7,428.7 666.3,428.7 673.8,428.7 681.4,428.7 689.0,428.7 696.6,428.7 704.2,428.7 711.8,428.7 719.3,428.7 726.9,428.7 734.5,428.7 742.1,428.7 749.7,428.7 757.3,428.7 764.8,428.7 772.4,427.8 780.0,426.8 780.0,441.6 772.4,441.8 764.8,442.0 757.3,442.0 749.7,442.0 742.1,442.0 734.5,442.0 726.9,442.0 719.3,442.0 711.8,442.0 704.2,442.0 696.6,442.0 689.0,442.0 681.4,442.0 673.8,442.0 666.3,442.0 658.7,442.0 651.1,442.0 643.5,442.0 635.9,442.0 628.4,442.0 620.8,441.1 613.2,441.1 605.6,441.1 598.0,441.1 590.4,441.1 582.9,441.1 575.3,441.1 567.7,441.1 560.1,440.7 552.5,439.4 544.9,439.4 537.4,439.4 529.8,439.4 522.2,439.4 514.6,439.3 507.0,439.3 499.5,439.3 491.9,439.3 484.3,439.3 476.7,439.3 469.1,439.3 461.5,439.3 454.0,439.3 446.4,439.3 438.8,439.3 431.2,439.3 423.6,439.3 416.0,438.3 408.5,438.5 400.9,438.4 393.3,437.5 385.7,437.5 378.1,437.5 370.5,437.5 363.0,437.5 355.4,437.5 347.8,437.5 340.2,444.1 332.6,444.1 325.1,444.1 317.5,444.1 309.9,444.1 302.3,444.1 294.7,443.6 287.1,443.6 279.6,443.3 272.0,443.3 264.4,443.3 256.8,445.6 249.2,445.6 241.6,439.6 234.1,439.6 226.5,439.6 218.9,439.6 211.3,439.6 203.7,439.0 196.2,438.9 188.6,448.2 181.0,447.0 173.4,447.0 165.8,455.1 158.2,455.4 150.7,455.5 143.1,650.0 135.5,650.0 127.9,650.0 120.3,650.0 112.7,650.0 105.2,650.0 97.6,650.0 90.0,650.0" fill="#663399" opacity="0.6" class="anim" style="animation-delay:800ms;"/>
<polygon points="90.0,650.0 97.6,650.0 105.2,650.0 112.7,650.0 120.3,650.0 127.9,650.0 135.5,650.0 143.1,650.0 150.7,436.6 158.2,436.3 165.8,435.9 173.4,432.2 181.0,432.2 188.6,432.2 196.2,426.2 203.7,426.1 211.3,426.0 218.9,426.0 226.5,426.0 234.1,426.0 241.6,426.0 249.2,430.8 256.8,430.7 264.4,429.3 272.0,429.3 279.6,429.3 287.1,429.2 294.7,429.2 302.3,428.9 309.9,428.9 317.5,428.8 325.1,428.8 332.6,428.8 340.2,428.8 347.8,423.0 355.4,422.9 363.0,422.9 370.5,422.9 378.1,422.9 385.7,422.0 393.3,422.0 400.9,421.9 408.5,421.9 416.0,421.9 423.6,421.8 431.2,421.8 438.8,421.8 446.4,421.8 454.0,421.8 461.5,421.8 469.1,421.8 476.7,421.8 484.3,421.8 491.9,421.8 499.5,421.8 507.0,421.8 514.6,421.8 522.2,421.7 529.8,421.8 537.4,421.8 544.9,421.8 552.5,421.8 560.1,423.2 567.7,423.6 575.3,423.6 582.9,423.6 590.4,423.6 598.0,423.6 605.6,423.6 613.2,423.6 620.8,423.6 628.4,423.5 635.9,423.5 643.5,423.5 651.1,423.5 658.7,423.5 666.3,423.5 673.8,423.5 681.4,423.5 689.0,423.5 696.6,423.5 704.2,423.5 711.8,423.5 719.3,423.5 726.9,423.5 734.5,423.5 742.1,423.5 749.7,423.5 757.3,423.5 764.8,423.5 772.4,422.8 780.0,422.1 780.0,426.8 772.4,427.8 764.8,428.7 757.3,428.7 749.7,428.7 742.1,428.7 734.5,428.7 726.9,428.7 719.3,428.7 711.8,428.7 704.2,428.7 696.6,428.7 689.0,428.7 681.4,428.7 673.8,428.7 666.3,428.7 658.7,428.7 651.1,428.7 643.5,428.7 635.9,428.7 628.4,428.7 620.8,428.9 613.2,428.9 605.6,428.9 598.0,428.9 590.4,428.9 582.9,428.9 575.3,428.9 567.7,428.9 560.1,428.4 552.5,427.1 544.9,427.1 537.4,427.1 529.8,427.1 522.2,427.0 514.6,427.0 507.0,427.0 499.5,427.0 491.9,427.0 484.3,427.0 476.7,427.0 469.1,427.0 461.5,427.0 454.0,427.0 446.4,427.0 438.8,427.0 431.2,427.0 423.6,427.0 416.0,427.1 408.5,427.1 400.9,427.1 393.3,427.3 385.7,427.3 378.1,428.5 370.5,428.5 363.0,428.5 355.4,428.6 347.8,428.7 340.2,437.1 332.6,437.1 325.1,437.1 317.5,437.1 309.9,437.1 302.3,437.1 294.7,437.3 287.1,437.3 279.6,437.4 272.0,437.4 264.4,437.4 256.8,439.3 249.2,439.3 241.6,432.6 234.1,432.6 226.5,432.6 218.9,432.6 211.3,432.6 203.7,432.2 196.2,432.3 188.6,439.4 181.0,439.5 173.4,439.5 165.8,441.6 158.2,442.0 150.7,442.3 143.1,650.0 135.5,650.0 127.9,650.0 120.3,650.0 112.7,650.0 105.2,650.0 97.6,650.0 90.0,650.0" fill="#083fa1" opacity="0.6" class="anim" style="animation-delay:900ms;"/>
<polygon points="90.0,650.0 97.6,650.0 105.2,650.0 112.7,650.0 120.3,650.0 127.9,650.0 135.5,650.0 143.1,650.0 150.7,428.3 158.2,428.1 165.8,427.8 173.4,425.3 181.0,425.3 188.6,425.2 196.2,421.1 203.7,421.1 211.3,421.0 218.9,421.0 226.5,421.0 234.1,421.0 241.6,421.0 249.2,424.3 256.8,424.2 264.4,423.3 272.0,423.3 279.6,423.3 287.1,423.2 294.7,423.2 302.3,423.0 309.9,423.0 317.5,422.9 325.1,422.9 332.6,422.9 340.2,422.9 347.8,418.9 355.4,418.9 363.0,418.8 370.5,418.8 378.1,418.8 385.7,418.3 393.3,418.3 400.9,418.2 408.5,418.2 416.0,418.2 423.6,418.1 431.2,418.1 438.8,418.1 446.4,418.1 454.0,418.1 461.5,418.1 469.1,418.1 476.7,418.1 484.3,418.1 491.9,418.1 499.5,418.1 507.0,418.1 514.6,418.1 522.2,418.1 529.8,418.1 537.4,418.1 544.9,418.1 552.5,418.1 560.1,418.0 567.7,418.0 575.3,418.0 582.9,418.0 590.4,418.0 598.0,418.0 605.6,418.0 613.2,418.0 620.8,418.0 628.4,417.9 635.9,417.9 643.5,417.9 651.1,417.9 658.7,417.9 666.3,417.9 673.8,417.9 681.4,417.9 689.0,417.9 696.6,417.9 704.2,417.9 711.8,417.9 719.3,417.9 726.9,417.9 734.5,417.9 742.1,417.9 749.7,417.9 757.3,417.9 764.8,417.9 772.4,417.3 780.0,416.7 780.0,422.1 772.4,422.8 764.8,423.5 757.3,423.5 749.7,423.5 742.1,423.5 734.5,423.5 726.9,423.5 719.3,423.5 711.8,423.5 704.2,423.5 696.6,423.5 689.0,423.5 681.4,423.5 673.8,423.5 666.3,423.5 658.7,423.5 651.1,423.5 643.5,423.5 635.9,423.5 628.4,423.5 620.8,423.6 613.2,423.6 605.6,423.6 598.0,423.6 590.4,423.6 582.9,423.6 575.3,423.6 567.7,423.6 560.1,423.2 552.5,421.8 544.9,421.8 537.4,421.8 529.8,421.8 522.2,421.7 514.6,421.8 507.0,421.8 499.5,421.8 491.9,421.8 484.3,421.8 476.7,421.8 469.1,421.8 461.5,421.8 454.0,421.8 446.4,421.8 438.8,421.8 431.2,421.8 423.6,421.8 416.0,421.9 408.5,421.9 400.9,421.9 393.3,422.0 385.7,422.0 378.1,422.9 370.5,422.9 363.0,422.9 355.4,422.9 347.8,423.0 340.2,428.8 332.6,428.8 325.1,428.8 317.5,428.8 309.9,428.9 302.3,428.9 294.7,429.2 287.1,429.2 279.6,429.3 272.0,429.3 264.4,429.3 256.8,430.7 249.2,430.8 241.6,426.0 234.1,426.0 226.5,426.0 218.9,426.0 211.3,426.0 203.7,426.1 196.2,426.2 188.6,432.2 181.0,432.2 173.4,432.2 165.8,435.9 158.2,436.3 150.7,436.6 143.1,650.0 135.5,650.0 127.9,650.0 120.3,650.0 112.7,650.0 105.2,650.0 97.6,650.0 90.0,650.0" fill="#F05138" opacity="0.6" class="anim" style="animation-delay:1000ms;"/>
<polygon points="90.0,650.0 97.6,650.0 105.2,650.0 112.7,650.0 120.3,650.0 127.9,650.0 135.5,650.0 143.1,650.0 150.7,418.7 158.2,418.6 165.8,418.5 173.4,417.3 181.0,417.3 188.6,417.2 196.2,415.3 203.7,415.3 211.3,415.2 218.9,415.2 226.5,415.2 234.1,415.2 241.6,415.2 249.2,416.8 256.8,416.8 264.4,416.3 272.0,416.3 279.6,416.3 287.1,416.3 294.7,416.3 302.3,416.2 309.9,416.2 317.5,416.2 325.1,416.2 332.6,416.2 340.2,416.2 347.8,414.2 355.4,414.2 363.0,414.2 370.5,414.2 378.1,414.2 385.7,413.9 393.3,413.9 400.9,413.9 408.5,413.9 416.0,413.9 423.6,413.9 431.2,413.9 438.8,413.9 446.4,413.9 454.0,413.9 461.5,413.9 469.1,413.9 476.7,413.9 484.3,413.9 491.9,413.9 499.5,413.9 507.0,413.9 514.6,413.9 522.2,413.8 529.8,413.8 537.4,413.8 544.9,413.8 552.5,413.8 560.1,413.8 567.7,413.8 575.3,413.8 582.9,413.8 590.4,413.8 598.0,413.8 605.6,413.8 613.2,413.8 620.8,413.8 628.4,413.8 635.9,413.8 643.5,413.8 651.1,413.8 658.7,413.8 666.3,413.8 673.8,413.8 681.4,413.8 689.0,413.8 696.6,413.8 704.2,413.8 711.8,413.8 719.3,413.8 726.9,413.8 734.5,413.8 742.1,413.8 749.7,413.8 757.3,413.8 764.8,413.8 772.4,413.6 780.0,413.4 780.0,416.7 772.4,417.3 764.8,417.9 757.3,417.9 749.7,417.9 742.1,417.9 734.5,417.9 726.9,417.9 719.3,417.9 711.8,417.9 704.2,417.9 696.6,417.9 689.0,417.9 681.4,417.9 673.8,417.9 666.3,417.9 658.7,417.9 651.1,417.9 643.5,417.9 635.9,417.9 628.4,417.9 620.8,418.0 613.2,418.0 605.6,418.0 598.0,418.0 590.4,418.0 582.9,418.0 575.3,418.0 567.7,418.0 560.1,418.0 552.5,418.1 544.9,418.1 537.4,418.1 529.8,418.1 522.2,418.1 514.6,418.1 507.0,418.1 499.5,418.1 491.9,418.1 484.3,418.1 476.7,418.1 469.1,418.1 461.5,418.1 454.0,418.1 446.4,418.1 438.8,418.1 431.2,418.1 423.6,418.1 416.0,418.2 408.5,418.2 400.9,418.2 393.3,418.3 385.7,418.3 378.1,418.8 370.5,418.8 363.0,418.8 355.4,418.9 347.8,418.9 340.2,422.9 332.6,422.9 325.1,422.9 317.5,422.9 309.9,423.0 302.3,423.0 294.7,423.2 287.1,423.2 279.6,423.3 272.0,423.3 264.4,423.3 256.8,424.2 249.2,424.3 241.6,421.0 234.1,421.0 226.5,421.0 218.9,421.0 211.3,421.0 203.7,421.1 196.2,421.1 188.6,425.2 181.0,425.3 173.4,425.3 165.8,427.8 158.2,428.1 150.7,428.3 143.1,650.0 135.5,650.0 127.9,650.0 120.3,650.0 112.7,650.0 105.2,650.0 97.6,650.0 90.0,650.0" fill="#6E4C13" opacity="0.6" class="anim" style="animation-delay:1100ms;"/>
<polygon points="90.0,650.0 97.6,650.0 105.2,650.0 112.7,650.0 120.3,650.0 127.9,650.0 135.5,650.0 143.1,650.0 150.7,414.4 158.2,414.4 165.8,414.3 173.4,413.7 181.0,413.7 188.6,413.7 196.2,412.7 203.7,412.7 211.3,412.7 218.9,412.7 226.5,412.7 234.1,412.7 241.6,412.7 249.2,413.5 256.8,413.4 264.4,413.2 272.0,413.2 279.6,413.2 287.1,413.2 294.7,413.2 302.3,413.1 309.9,413.1 317.5,413.1 325.1,413.1 332.6,413.1 340.2,413.1 347.8,412.2 355.4,412.1 363.0,412.1 370.5,412.1 378.1,412.1 385.7,412.0 393.3,412.0 400.9,412.0 408.5,412.0 416.0,412.0 423.6,412.0 431.2,412.0 438.8,412.0 446.4,412.0 454.0,412.0 461.5,412.0 469.1,412.0 476.7,412.0 484.3,412.0 491.9,412.0 499.5,412.0 507.0,412.0 514.6,412.0 522.2,411.9 529.8,411.9 537.4,411.9 544.9,411.9 552.5,411.9 560.1,411.9 567.7,411.9 575.3,411.9 582.9,411.9 590.4,411.9 598.0,411.9 605.6,411.9 613.2,411.9 620.8,411.9 628.4,411.9 635.9,411.9 643.5,411.9 651.1,411.9 658.7,411.9 666.3,411.9 673.8,411.9 681.4,411.9 689.0,411.9 696.6,411.9 704.2,411.9 711.8,411.9 719.3,411.9 726.9,411.9 734.5,411.9 742.1,411.9 749.7,411.9 757.3,411.9 764.8,411.9 772.4,411.9 780.0,411.9 780.0,413.4 772.4,413.6 764.8,413.8 757.3,413.8 749.7,413.8 742.1,413.8 734.5,413.8 726.9,413.8 719.3,413.8 711.8,413.8 704.2,413.8 696.6,413.8 689.0,413.8 681.4,413.8 673.8,413.8 666.3,413.8 658.7,413.8 651.1,413.8 643.5,413.8 635.9,413.8 628.4,413.8 620.8,413.8 613.2,413.8 605.6,413.8 598.0,413.8 590.4,413.8 582.9,413.8 575.3,413.8 567.7,413.8 560.1,413.8 552.5,413.8 544.9,413.8 537.4,413.8 529.8,413.8 522.2,413.8 514.6,413.9 507.0,413.9 499.5,413.9 491.9,413.9 484.3,413.9 476.7,413.9 469.1,413.9 461.5,413.9 454.0,413.9 446.4,413.9 438.8,413.9 431.2,413.9 423.6,413.9 416.0,413.9 408.5,413.9 400.9,413.9 393.3,413.9 385.7,413.9 378.1,414.2 370.5,414.2 363.0,414.2 355.4,414.2 347.8,414.2 340.2,416.2 332.6,416.2 325.1,416.2 317.5,416.2 309.9,416.2 302.3,416.2 294.7,416.3 287.1,416.3 279.6,416.3 272.0,416.3 264.4,416.3 256.8,416.8 249.2,416.8 241.6,415.2 234.1,415.2 226.5,415.2 218.9,415.2 211.3,415.2 203.7,415.3 196.2,415.3 188.6,417.2 181.0,417.3 173.4,417.3 165.8,418.5 158.2,418.6 150.7,418.7 143.1,650.0 135.5,650.0 127.9,650.0 120.3,650.0 112.7,650.0 105.2,650.0 97.6,650.0 90.0,650.0" fill="#b07219" opacity="0.6" class="anim" style="animation-delay:1200ms;"/>
<line x1="764.8" y1="100" x2="764.8" y2="650" stroke="#c9d1d9" stroke-width="1" stroke-dasharray="4,3" opacity="0.35"/>
<text x="772.4" y="112" text-anchor="middle" class="axis-label" opacity="0.6">Jul 21, 2026</text>
<text x="90.0" y="668" text-anchor="middle" class="axis-label" transform="rotate(-35 90.0 668)">2026-02</text>
<text x="317.5" y="668" text-anchor="middle" class="axis-label" transform="rotate(-35 317.5 668)">2026-03</text>
<text x="544.9" y="668" text-anchor="middle" class="axis-label" transform="rotate(-35 544.9 668)">2026-06</text>
<text x="764.8" y="668" text-anchor="middle" class="axis-label" transform="rotate(-35 764.8 668)">2026-07</text>
<line x1="796" y1="110" x2="824" y2="110" stroke="#3fb950" stroke-width="2"/>
<text x="832" y="116" class="legend-text">Lines Added</text>
<line x1="796" y1="140" x2="824" y2="140" stroke="#f85149" stroke-width="1.5"/>
<text x="832" y="146" class="legend-text">Lines Deleted</text>
<line x1="796" y1="170" x2="824" y2="170" stroke="#e3b341" stroke-width="1.5" stroke-dasharray="4,3"/>
<text x="832" y="176" class="legend-text">&#x2605; Stars</text>
<text x="796" y="200" class="subtitle">Languages</text>
<rect x="796" y="212" width="12" height="12" rx="2" fill="#e34c26" opacity="0.8" class="anim" style="animation-delay:800ms;"/>
<text x="814" y="223" class="legend-text">HTML (58%→56%)</text>
<rect x="796" y="234" width="12" height="12" rx="2" fill="#f1e05a" opacity="0.8" class="anim" style="animation-delay:880ms;"/>
<text x="814" y="245" class="legend-text">JavaScript (22%→25%)</text>
<rect x="796" y="256" width="12" height="12" rx="2" fill="#3572A5" opacity="0.8" class="anim" style="animation-delay:960ms;"/>
<text x="814" y="267" class="legend-text">Python (7%→6%)</text>
<rect x="796" y="278" width="12" height="12" rx="2" fill="#663399" opacity="0.8" class="anim" style="animation-delay:1040ms;"/>
<text x="814" y="289" class="legend-text">CSS (6%→6%)</text>
<rect x="796" y="300" width="12" height="12" rx="2" fill="#083fa1" opacity="0.8" class="anim" style="animation-delay:1120ms;"/>
<text x="814" y="311" class="legend-text">Markdown (2%→2%)</text>
<rect x="796" y="322" width="12" height="12" rx="2" fill="#F05138" opacity="0.8" class="anim" style="animation-delay:1200ms;"/>
<text x="814" y="333" class="legend-text">Swift (2%→2%)</text>
<rect x="796" y="344" width="12" height="12" rx="2" fill="#6E4C13" opacity="0.8" class="anim" style="animation-delay:1280ms;"/>
<text x="814" y="355" class="legend-text">Assembly (2%→1%)</text>
<rect x="796" y="366" width="12" height="12" rx="2" fill="#b07219" opacity="0.8" class="anim" style="animation-delay:1360ms;"/>
<text x="814" y="377" class="legend-text">Java (1%→1%)</text>
<text x="796" y="412" class="subtitle">Contributions</text>
<text x="796" y="432" class="axis-label">2023: 39</text>
<text x="796" y="452" class="axis-label">2024: 646</text>
<text x="796" y="472" class="axis-label">2025: 1,780</text>
<text x="796" y="492" class="axis-label">2026: 491</text>
<text x="796" y="522" class="subtitle">Statistics</text>
<text x="796" y="542" class="axis-label">Active weeks: 88</text>
<text x="796" y="562" class="axis-label">Add/Del ratio: 1.8x</text>
<text x="796" y="582" class="axis-label">Avg lines/wk: 18K</text>
<text x="796" y="602" class="axis-label">Peak: 2026-02-15</text>
<text x="796" y="622" class="axis-label">  (543K lines)</text>
<text x="90" y="742" class="axis-label">Total: +1,040,332 / -576,819 lines &#xb7; 2,956 contributions &#xb7; 80 repos &#xb7; &#x2605; 37</text>
</svg>