<svg xmlns="http://www.w3.org/2000/svg" width="1000" height="760" style="max-width: 100%;" viewBox="0 0 1000 760">

<defs>
  <linearGradient id="areaGrad" x1="0" y1="0" x2="0" y2="1">
    <stop offset="0%" stop-color="#58a6ff" stop-opacity="0.35"/>
    <stop offset="100%" stop-color="#58a6ff" stop-opacity="0.02"/>
  </linearGradient>
  <linearGradient id="addGrad" x1="0" y1="0" x2="0" y2="1">
    <stop offset="0%" stop-color="#3fb950" stop-opacity="0.35"/>
    <stop offset="100%" stop-color="#3fb950" stop-opacity="0.02"/>
  </linearGradient>
  <linearGradient id="delGrad" x1="0" y1="0" x2="0" y2="1">
    <stop offset="0%" stop-color="#f85149" stop-opacity="0.25"/>
    <stop offset="100%" stop-color="#f85149" stop-opacity="0.02"/>
  </linearGradient>
</defs>
<style>
  .title { font: bold 28px 'Segoe UI', Ubuntu, Sans-Serif; fill: #c9d1d9; }
  .subtitle { font: 600 20px 'Segoe UI', Ubuntu, Sans-Serif; fill: #c9d1d9; opacity: 0.8; }
  .axis-label { font: 18px 'Segoe UI', Ubuntu, Sans-Serif; fill: #c9d1d9; opacity: 0.7; }
  .legend-text { font: 14px 'Segoe UI', Ubuntu, Sans-Serif; fill: #c9d1d9; }
  .value-text { font: bold 18px 'Segoe UI', Ubuntu, Sans-Serif; fill: #c9d1d9; }
  .stat-value { font: bold 22px 'Segoe UI', Ubuntu, Sans-Serif; fill: #c9d1d9; }
  .stat-label { font: 18px 'Segoe UI', Ubuntu, Sans-Serif; fill: #c9d1d9; opacity: 0.7; }
  @keyframes fadeIn { from { opacity: 0; } to { opacity: 1; } }
  .anim { animation: fadeIn 0.6s ease-in-out forwards; opacity: 0; }
</style>

<rect x="0.5" y="0.5" rx="4.5" width="999" height="759" fill="#161b22" stroke="#21262d"/>
<text x="90" y="45" class="title">Activity History</text>
<text x="90" y="72" class="subtitle">Lines added vs deleted &amp; activity trends over time</text>
<line x1="90" y1="340.0" x2="780" y2="340.0" stroke="#21262d" stroke-width="1"/>
<text x="82" y="344.0" text-anchor="end" class="axis-label">0</text>
<line x1="90" y1="280.0" x2="780" y2="280.0" stroke="#21262d" stroke-width="1"/>
<text x="82" y="284.0" text-anchor="end" class="axis-label">701K</text>
<line x1="90" y1="220.0" x2="780" y2="220.0" stroke="#21262d" stroke-width="1"/>
<text x="82" y="224.0" text-anchor="end" class="axis-label">1.4M</text>
<line x1="90" y1="160.0" x2="780" y2="160.0" stroke="#21262d" stroke-width="1"/>
<text x="82" y="164.0" text-anchor="end" class="axis-label">2.1M</text>
<line x1="90" y1="100.0" x2="780" y2="100.0" stroke="#21262d" stroke-width="1"/>
<text x="82" y="104.0" text-anchor="end" class="axis-label">2.8M</text>
<polygon points="90.0,340.0 90.0,308.8 114.6,309.9 139.3,308.8 163.9,309.9 188.6,317.1 213.2,302.8 237.9,302.8 262.5,297.4 287.1,297.2 311.8,296.8 336.4,296.8 361.1,287.2 385.7,287.2 410.4,287.1 435.0,272.9 459.6,272.7 484.3,272.5 508.9,272.5 533.6,272.5 558.2,272.5 582.9,272.5 607.5,272.2 632.1,262.7 656.8,262.6 681.4,262.6 706.1,262.6 730.7,262.6 755.4,232.0 780.0,201.4 780.0,340.0" fill="url(#addGrad)" class="anim" style="animation-delay:200ms;"/>
<polyline points="90.0,308.8 114.6,309.9 139.3,308.8 163.9,309.9 188.6,317.1 213.2,302.8 237.9,302.8 262.5,297.4 287.1,297.2 311.8,296.8 336.4,296.8 361.1,287.2 385.7,287.2 410.4,287.1 435.0,272.9 459.6,272.7 484.3,272.5 508.9,272.5 533.6,272.5 558.2,272.5 582.9,272.5 607.5,272.2 632.1,262.7 656.8,262.6 681.4,262.6 706.1,262.6 730.7,262.6" fill="none" stroke="#3fb950" stroke-width="2" stroke-linejoin="round" class="anim" style="animation-delay:250ms;"/>
<polyline points="730.7,262.6 755.4,232.0 780.0,201.4" fill="none" stroke="#3fb950" stroke-width="1.5" stroke-dasharray="5,4" stroke-linejoin="round" opacity="0.6" class="anim" style="animation-delay:250ms;"/>
<polygon points="90.0,340.0 90.0,331.2 114.6,332.1 139.3,331.2 163.9,332.1 188.6,335.9 213.2,330.1 237.9,330.1 262.5,329.5 287.1,329.3 311.8,329.1 336.4,329.1 361.1,318.7 385.7,318.7 410.4,318.7 435.0,307.0 459.6,306.9 484.3,306.9 508.9,306.9 533.6,306.9 558.2,306.9 582.9,306.9 607.5,300.8 632.1,291.4 656.8,291.4 681.4,291.4 706.1,291.4 730.7,291.4 755.4,265.0 780.0,238.6 780.0,340.0" fill="url(#delGrad)" class="anim" style="animation-delay:300ms;"/>
<polyline points="90.0,331.2 114.6,332.1 139.3,331.2 163.9,332.1 188.6,335.9 213.2,330.1 237.9,330.1 262.5,329.5 287.1,329.3 311.8,329.1 336.4,329.1 361.1,318.7 385.7,318.7 410.4,318.7 435.0,307.0 459.6,306.9 484.3,306.9 508.9,306.9 533.6,306.9 558.2,306.9 582.9,306.9 607.5,300.8 632.1,291.4 656.8,291.4 681.4,291.4 706.1,291.4 730.7,291.4" fill="none" stroke="#f85149" stroke-width="1.5" stroke-linejoin="round" class="anim" style="animation-delay:350ms;"/>
<polyline points="730.7,291.4 755.4,265.0 780.0,238.6" fill="none" stroke="#f85149" stroke-width="1" stroke-dasharray="5,4" stroke-linejoin="round" opacity="0.6" class="anim" style="animation-delay:350ms;"/>
<polyline points="90.0,340.0 114.6,340.0 139.3,340.0 163.9,340.0 188.6,340.0 213.2,340.0 237.9,340.0 262.5,340.0 287.1,244.0 311.8,244.0 336.4,244.0 361.1,244.0 385.7,244.0 410.4,244.0 435.0,244.0 459.6,244.0 484.3,244.0 508.9,244.0 533.6,244.0 558.2,244.0 582.9,244.0 607.5,244.0 632.1,244.0 656.8,244.0 681.4,244.0 706.1,244.0 730.7,244.0" fill="none" stroke="#e3b341" stroke-width="1.5" stroke-dasharray="4,3" stroke-linejoin="round" class="anim" style="animation-delay:400ms;"/>
<polyline points="730.7,244.0 755.4,244.0 780.0,148.0" fill="none" stroke="#e3b341" stroke-width="1" stroke-dasharray="3,5" stroke-linejoin="round" opacity="0.5" class="anim" style="animation-delay:400ms;"/>
<text x="90" y="90" class="subtitle">Lines Added vs Deleted (per snapshot)</text>
<text x="90" y="400" class="subtitle">Programming Language Development (%)</text>
<line x1="90" y1="650.0" x2="780" y2="650.0" stroke="#21262d" stroke-width="1"/>
<text x="82" y="654.0" text-anchor="end" class="axis-label">0%</text>
<line x1="90" y1="590.0" x2="780" y2="590.0" stroke="#21262d" stroke-width="1"/>
<text x="82" y="594.0" text-anchor="end" class="axis-label">25%</text>
<line x1="90" y1="530.0" x2="780" y2="530.0" stroke="#21262d" stroke-width="1"/>
<text x="82" y="534.0" text-anchor="end" class="axis-label">50%</text>
<line x1="90" y1="470.0" x2="780" y2="470.0" stroke="#21262d" stroke-width="1"/>
<text x="82" y="474.0" text-anchor="end" class="axis-label">75%</text>
<line x1="90" y1="410.0" x2="780" y2="410.0" stroke="#21262d" stroke-width="1"/>
<text x="82" y="414.0" text-anchor="end" class="axis-label">100%</text>
<polygon points="90.0,650.0 114.6,650.0 139.3,650.0 163.9,650.0 188.6,650.0 213.2,650.0 237.9,650.0 262.5,650.0 287.1,528.2 311.8,528.5 336.4,529.7 361.1,499.3 385.7,499.3 410.4,502.9 435.0,485.0 459.6,485.1 484.3,485.4 508.9,485.4 533.6,485.4 558.2,485.4 582.9,485.4 607.5,496.4 632.1,496.7 656.8,491.0 681.4,491.0 706.1,491.0 730.7,491.0 755.4,467.2 780.0,448.5 780.0,650.0 755.4,650.0 730.7,650.0 706.1,650.0 681.4,650.0 656.8,650.0 632.1,650.0 607.5,650.0 582.9,650.0 558.2,650.0 533.6,650.0 508.9,650.0 484.3,650.0 459.6,650.0 435.0,650.0 410.4,650.0 385.7,650.0 361.1,650.0 336.4,650.0 311.8,650.0 287.1,650.0 262.5,650.0 237.9,650.0 213.2,650.0 188.6,650.0 163.9,650.0 139.3,650.0 114.6,650.0 90.0,650.0" fill="#e34c26" opacity="0.6" class="anim" style="animation-delay:500ms;"/>
<polygon points="90.0,650.0 114.6,650.0 139.3,650.0 163.9,650.0 188.6,650.0 213.2,650.0 237.9,650.0 262.5,650.0 287.1,488.4 311.8,488.0 336.4,489.0 361.1,476.0 385.7,476.0 410.4,477.2 435.0,460.1 459.6,460.2 484.3,460.6 508.9,460.6 533.6,460.6 558.2,460.6 582.9,460.6 607.5,473.0 632.1,473.5 656.8,469.5 681.4,469.5 706.1,469.5 730.7,469.5 755.4,457.3 780.0,448.5 780.0,448.5 755.4,467.2 730.7,491.0 706.1,491.0 681.4,491.0 656.8,491.0 632.1,496.7 607.5,496.4 582.9,485.4 558.2,485.4 533.6,485.4 508.9,485.4 484.3,485.4 459.6,485.1 435.0,485.0 410.4,502.9 385.7,499.3 361.1,499.3 336.4,529.7 311.8,528.5 287.1,528.2 262.5,650.0 237.9,650.0 213.2,650.0 188.6,650.0 163.9,650.0 139.3,650.0 114.6,650.0 90.0,650.0" fill="#f1e05a" opacity="0.6" class="anim" style="animation-delay:600ms;"/>
<polygon points="90.0,650.0 114.6,650.0 139.3,650.0 163.9,650.0 188.6,650.0 213.2,650.0 237.9,650.0 262.5,650.0 287.1,455.5 311.8,455.4 336.4,455.1 361.1,447.0 385.7,447.0 410.4,448.2 435.0,438.9 459.6,439.0 484.3,439.6 508.9,439.6 533.6,439.6 558.2,439.6 582.9,439.6 607.5,445.6 632.1,445.6 656.8,443.3 681.4,443.3 706.1,443.3 730.7,443.3 755.4,436.0 780.0,432.4 780.0,448.5 755.4,457.3 730.7,469.5 706.1,469.5 681.4,469.5 656.8,469.5 632.1,473.5 607.5,473.0 582.9,460.6 558.2,460.6 533.6,460.6 508.9,460.6 484.3,460.6 459.6,460.2 435.0,460.1 410.4,477.2 385.7,476.0 361.1,476.0 336.4,489.0 311.8,488.0 287.1,488.4 262.5,650.0 237.9,650.0 213.2,650.0 188.6,650.0 163.9,650.0 139.3,650.0 114.6,650.0 90.0,650.0" fill="#3572A5" opacity="0.6" class="anim" style="animation-delay:700ms;"/>
<polygon points="90.0,650.0 114.6,650.0 139.3,650.0 163.9,650.0 188.6,650.0 213.2,650.0 237.9,650.0 262.5,650.0 287.1,442.3 311.8,442.0 336.4,441.6 361.1,439.5 385.7,439.5 410.4,439.4 435.0,432.3 459.6,432.2 484.3,432.6 508.9,432.6 533.6,432.6 558.2,432.6 582.9,432.6 607.5,439.3 632.1,439.3 656.8,437.4 681.4,437.4 706.1,437.4 730.7,437.4 755.4,435.1 780.0,432.4 780.0,432.4 755.4,436.0 730.7,443.3 706.1,443.3 681.4,443.3 656.8,443.3 632.1,445.6 607.5,445.6 582.9,439.6 558.2,439.6 533.6,439.6 508.9,439.6 484.3,439.6 459.6,439.0 435.0,438.9 410.4,448.2 385.7,447.0 361.1,447.0 336.4,455.1 311.8,455.4 287.1,455.5 262.5,650.0 237.9,650.0 213.2,650.0 188.6,650.0 163.9,650.0 139.3,650.0 114.6,650.0 90.0,650.0" fill="#663399" opacity="0.6" class="anim" style="animation-delay:800ms;"/>
<polygon points="90.0,650.0 114.6,650.0 139.3,650.0 163.9,650.0 188.6,650.0 213.2,650.0 237.9,650.0 262.5,650.0 287.1,436.6 311.8,436.3 336.4,435.9 361.1,432.2 385.7,432.2 410.4,432.2 435.0,426.2 459.6,426.1 484.3,426.0 508.9,426.0 533.6,426.0 558.2,426.0 582.9,426.0 607.5,430.8 632.1,430.7 656.8,429.3 681.4,429.3 706.1,429.3 730.7,429.3 755.4,425.2 780.0,421.0 780.0,432.4 755.4,435.1 730.7,437.4 706.1,437.4 681.4,437.4 656.8,437.4 632.1,439.3 607.5,439.3 582.9,432.6 558.2,432.6 533.6,432.6 508.9,432.6 484.3,432.6 459.6,432.2 435.0,432.3 410.4,439.4 385.7,439.5 361.1,439.5 336.4,441.6 311.8,442.0 287.1,442.3 262.5,650.0 237.9,650.0 213.2,650.0 188.6,650.0 163.9,650.0 139.3,650.0 114.6,650.0 90.0,650.0" fill="#083fa1" opacity="0.6" class="anim" style="animation-delay:900ms;"/>
<polygon points="90.0,650.0 114.6,650.0 139.3,650.0 163.9,650.0 188.6,650.0 213.2,650.0 237.9,650.0 262.5,650.0 287.1,427.0 311.8,426.8 336.4,426.6 361.1,424.2 385.7,424.2 410.4,424.2 435.0,420.4 459.6,420.3 484.3,420.3 508.9,420.3 533.6,420.3 558.2,420.3 582.9,420.3 607.5,423.3 632.1,423.2 656.8,422.4 681.4,422.4 706.1,422.4 730.7,422.4 755.4,420.0 780.0,417.6 780.0,421.0 755.4,425.2 730.7,429.3 706.1,429.3 681.4,429.3 656.8,429.3 632.1,430.7 607.5,430.8 582.9,426.0 558.2,426.0 533.6,426.0 508.9,426.0 484.3,426.0 459.6,426.1 435.0,426.2 410.4,432.2 385.7,432.2 361.1,432.2 336.4,435.9 311.8,436.3 287.1,436.6 262.5,650.0 237.9,650.0 213.2,650.0 188.6,650.0 163.9,650.0 139.3,650.0 114.6,650.0 90.0,650.0" fill="#6E4C13" opacity="0.6" class="anim" style="animation-delay:1000ms;"/>
<polygon points="90.0,650.0 114.6,650.0 139.3,650.0 163.9,650.0 188.6,650.0 213.2,650.0 237.9,650.0 262.5,650.0 287.1,418.7 311.8,418.6 336.4,418.5 361.1,417.3 385.7,417.3 410.4,417.2 435.0,415.3 459.6,415.3 484.3,415.2 508.9,415.2 533.6,415.2 558.2,415.2 582.9,415.2 607.5,416.8 632.1,416.8 656.8,416.3 681.4,416.3 706.1,416.3 730.7,416.3 755.4,415.5 780.0,414.7 780.0,417.6 755.4,420.0 730.7,422.4 706.1,422.4 681.4,422.4 656.8,422.4 632.1,423.2 607.5,423.3 582.9,420.3 558.2,420.3 533.6,420.3 508.9,420.3 484.3,420.3 459.6,420.3 435.0,420.4 410.4,424.2 385.7,424.2 361.1,424.2 336.4,426.6 311.8,426.8 287.1,427.0 262.5,650.0 237.9,650.0 213.2,650.0 188.6,650.0 163.9,650.0 139.3,650.0 114.6,650.0 90.0,650.0" fill="#F05138" opacity="0.6" class="anim" style="animation-delay:1100ms;"/>
<polygon points="90.0,650.0 114.6,650.0 139.3,650.0 163.9,650.0 188.6,650.0 213.2,650.0 237.9,650.0 262.5,650.0 287.1,414.4 311.8,414.4 336.4,414.3 361.1,413.7 385.7,413.7 410.4,413.7 435.0,412.7 459.6,412.7 484.3,412.7 508.9,412.7 533.6,412.7 558.2,412.7 582.9,412.7 607.5,413.5 632.1,413.4 656.8,413.2 681.4,413.2 706.1,413.2 730.7,413.2 755.4,413.2 780.0,413.2 780.0,414.7 755.4,415.5 730.7,416.3 706.1,416.3 681.4,416.3 656.8,416.3 632.1,416.8 607.5,416.8 582.9,415.2 558.2,415.2 533.6,415.2 508.9,415.2 484.3,415.2 459.6,415.3 435.0,415.3 410.4,417.2 385.7,417.3 361.1,417.3 336.4,418.5 311.8,418.6 287.1,418.7 262.5,650.0 237.9,650.0 213.2,650.0 188.6,650.0 163.9,650.0 139.3,650.0 114.6,650.0 90.0,650.0" fill="#b07219" opacity="0.6" class="anim" style="animation-delay:1200ms;"/>
<line x1="730.7" y1="100" x2="730.7" y2="650" stroke="#c9d1d9" stroke-width="1" stroke-dasharray="4,3" opacity="0.35"/>
<text x="755.4" y="112" text-anchor="middle" class="axis-label" opacity="0.6">Mar 18, 2026</text>
<text x="90.0" y="668" text-anchor="middle" class="axis-label" transform="rotate(-35 90.0 668)">2026-02</text>
<text x="681.4" y="668" text-anchor="middle" class="axis-label" transform="rotate(-35 681.4 668)">2026-03</text>
<text x="755.4" y="668" text-anchor="middle" class="axis-label" transform="rotate(-35 755.4 668)">Mar 18, 2026</text>
<line x1="796" y1="110" x2="824" y2="110" stroke="#3fb950" stroke-width="2"/>
<text x="832" y="116" class="legend-text">Lines Added</text>
<line x1="796" y1="140" x2="824" y2="140" stroke="#f85149" stroke-width="1.5"/>
<text x="832" y="146" class="legend-text">Lines Deleted</text>
<line x1="796" y1="170" x2="824" y2="170" stroke="#e3b341" stroke-width="1.5" stroke-dasharray="4,3"/>
<text x="832" y="176" class="legend-text">&#x2605; Stars</text>
<text x="796" y="200" class="subtitle">Languages</text>
<rect x="796" y="212" width="12" height="12" rx="2" fill="#e34c26" opacity="0.8" class="anim" style="animation-delay:800ms;"/>
<text x="814" y="223" class="legend-text">HTML (66%→84%)</text>
<rect x="796" y="234" width="12" height="12" rx="2" fill="#f1e05a" opacity="0.8" class="anim" style="animation-delay:880ms;"/>
<text x="814" y="245" class="legend-text">JavaScript (9%→0%)</text>
<rect x="796" y="256" width="12" height="12" rx="2" fill="#3572A5" opacity="0.8" class="anim" style="animation-delay:960ms;"/>
<text x="814" y="267" class="legend-text">Python (11%→7%)</text>
<rect x="796" y="278" width="12" height="12" rx="2" fill="#663399" opacity="0.8" class="anim" style="animation-delay:1040ms;"/>
<text x="814" y="289" class="legend-text">CSS (2%→0%)</text>
<rect x="796" y="300" width="12" height="12" rx="2" fill="#083fa1" opacity="0.8" class="anim" style="animation-delay:1120ms;"/>
<text x="814" y="311" class="legend-text">Markdown (3%→5%)</text>
<rect x="796" y="322" width="12" height="12" rx="2" fill="#6E4C13" opacity="0.8" class="anim" style="animation-delay:1200ms;"/>
<text x="814" y="333" class="legend-text">Assembly (3%→1%)</text>
<rect x="796" y="344" width="12" height="12" rx="2" fill="#F05138" opacity="0.8" class="anim" style="animation-delay:1280ms;"/>
<text x="814" y="355" class="legend-text">Swift (3%→1%)</text>
<rect x="796" y="366" width="12" height="12" rx="2" fill="#b07219" opacity="0.8" class="anim" style="animation-delay:1360ms;"/>
<text x="814" y="377" class="legend-text">Java (1%→1%)</text>
<text x="796" y="412" class="subtitle">Contributions</text>
<text x="796" y="432" class="axis-label">2023: 39</text>
<text x="796" y="452" class="axis-label">2024: 646</text>
<text x="796" y="472" class="axis-label">2025: 1,780</text>
<text x="796" y="492" class="axis-label">2026: 326</text>
<text x="796" y="522" class="subtitle">Statistics</text>
<text x="796" y="542" class="axis-label">Active weeks: 77</text>
<text x="796" y="562" class="axis-label">Add/Del ratio: 1.6x</text>
<text x="796" y="582" class="axis-label">Avg lines/wk: 19K</text>
<text x="796" y="602" class="axis-label">Peak: 2026-02-15</text>
<text x="796" y="622" class="axis-label">  (543K lines)</text>
<text x="90" y="742" class="axis-label">Total: +904,099 / -568,078 lines &#xb7; 2,791 contributions &#xb7; 71 repos &#xb7; &#x2605; 33</text>
</svg>