<svg xmlns="http://www.w3.org/2000/svg" width="1000" height="760" style="max-width: 100%;" viewBox="0 0 1000 760">

<defs>
  <linearGradient id="areaGrad" x1="0" y1="0" x2="0" y2="1">
    <stop offset="0%" stop-color="#58a6ff" stop-opacity="0.35"/>
    <stop offset="100%" stop-color="#58a6ff" stop-opacity="0.02"/>
  </linearGradient>
  <linearGradient id="addGrad" x1="0" y1="0" x2="0" y2="1">
    <stop offset="0%" stop-color="#3fb950" stop-opacity="0.35"/>
    <stop offset="100%" stop-color="#3fb950" stop-opacity="0.02"/>
  </linearGradient>
  <linearGradient id="delGrad" x1="0" y1="0" x2="0" y2="1">
    <stop offset="0%" stop-color="#f85149" stop-opacity="0.25"/>
    <stop offset="100%" stop-color="#f85149" stop-opacity="0.02"/>
  </linearGradient>
</defs>
<style>
  .title { font: bold 28px 'Segoe UI', Ubuntu, Sans-Serif; fill: #c9d1d9; }
  .subtitle { font: 600 20px 'Segoe UI', Ubuntu, Sans-Serif; fill: #c9d1d9; opacity: 0.8; }
  .axis-label { font: 18px 'Segoe UI', Ubuntu, Sans-Serif; fill: #c9d1d9; opacity: 0.7; }
  .legend-text { font: 14px 'Segoe UI', Ubuntu, Sans-Serif; fill: #c9d1d9; }
  .value-text { font: bold 18px 'Segoe UI', Ubuntu, Sans-Serif; fill: #c9d1d9; }
  .stat-value { font: bold 22px 'Segoe UI', Ubuntu, Sans-Serif; fill: #c9d1d9; }
  .stat-label { font: 18px 'Segoe UI', Ubuntu, Sans-Serif; fill: #c9d1d9; opacity: 0.7; }
  @keyframes fadeIn { from { opacity: 0; } to { opacity: 1; } }
  .anim { animation: fadeIn 0.6s ease-in-out forwards; opacity: 0; }
</style>

<rect x="0.5" y="0.5" rx="4.5" width="999" height="759" fill="#161b22" stroke="#21262d"/>
<text x="90" y="45" class="title">Activity History</text>
<text x="90" y="72" class="subtitle">Lines added vs deleted &amp; activity trends over time</text>
<line x1="90" y1="340.0" x2="780" y2="340.0" stroke="#21262d" stroke-width="1"/>
<text x="82" y="344.0" text-anchor="end" class="axis-label">0</text>
<line x1="90" y1="280.0" x2="780" y2="280.0" stroke="#21262d" stroke-width="1"/>
<text x="82" y="284.0" text-anchor="end" class="axis-label">599K</text>
<line x1="90" y1="220.0" x2="780" y2="220.0" stroke="#21262d" stroke-width="1"/>
<text x="82" y="224.0" text-anchor="end" class="axis-label">1.2M</text>
<line x1="90" y1="160.0" x2="780" y2="160.0" stroke="#21262d" stroke-width="1"/>
<text x="82" y="164.0" text-anchor="end" class="axis-label">1.8M</text>
<line x1="90" y1="100.0" x2="780" y2="100.0" stroke="#21262d" stroke-width="1"/>
<text x="82" y="104.0" text-anchor="end" class="axis-label">2.4M</text>
<polygon points="90.0,340.0 90.0,303.4 106.8,304.8 123.7,303.5 140.5,304.8 157.3,313.2 174.1,296.5 191.0,296.4 207.8,290.1 224.6,289.9 241.5,289.5 258.3,289.5 275.1,278.2 292.0,278.2 308.8,278.2 325.6,261.5 342.4,261.3 359.3,261.1 376.1,261.1 392.9,261.1 409.8,261.1 426.6,261.1 443.4,260.7 460.2,249.5 477.1,249.5 493.9,249.5 510.7,249.5 527.6,249.2 544.4,249.2 561.2,248.7 578.0,248.7 594.9,248.7 611.7,248.7 628.5,248.7 645.4,248.7 662.2,248.7 679.0,248.7 695.9,248.7 712.7,248.7 729.5,248.7 746.3,248.7 763.2,225.1 780.0,201.5 780.0,340.0" fill="url(#addGrad)" class="anim" style="animation-delay:200ms;"/>
<polyline points="90.0,303.4 106.8,304.8 123.7,303.5 140.5,304.8 157.3,313.2 174.1,296.5 191.0,296.4 207.8,290.1 224.6,289.9 241.5,289.5 258.3,289.5 275.1,278.2 292.0,278.2 308.8,278.2 325.6,261.5 342.4,261.3 359.3,261.1 376.1,261.1 392.9,261.1 409.8,261.1 426.6,261.1 443.4,260.7 460.2,249.5 477.1,249.5 493.9,249.5 510.7,249.5 527.6,249.2 544.4,249.2 561.2,248.7 578.0,248.7 594.9,248.7 611.7,248.7 628.5,248.7 645.4,248.7 662.2,248.7 679.0,248.7 695.9,248.7 712.7,248.7 729.5,248.7 746.3,248.7" fill="none" stroke="#3fb950" stroke-width="2" stroke-linejoin="round" class="anim" style="animation-delay:250ms;"/>
<polyline points="746.3,248.7 763.2,225.1 780.0,201.5" fill="none" stroke="#3fb950" stroke-width="1.5" stroke-dasharray="5,4" stroke-linejoin="round" opacity="0.6" class="anim" style="animation-delay:250ms;"/>
<polygon points="90.0,340.0 90.0,329.7 106.8,330.8 123.7,329.7 140.5,330.8 157.3,335.2 174.1,328.5 191.0,328.5 207.8,327.7 224.6,327.5 241.5,327.3 258.3,327.3 275.1,315.1 292.0,315.1 308.8,315.1 325.6,301.4 342.4,301.3 359.3,301.3 376.1,301.3 392.9,301.3 409.8,301.3 426.6,301.3 443.4,294.1 460.2,283.2 477.1,283.1 493.9,283.1 510.7,283.1 527.6,283.1 544.4,283.1 561.2,283.0 578.0,283.0 594.9,283.0 611.7,283.0 628.5,283.0 645.4,283.0 662.2,283.0 679.0,283.0 695.9,283.0 712.7,283.0 729.5,283.0 746.3,283.0 763.2,260.7 780.0,238.5 780.0,340.0" fill="url(#delGrad)" class="anim" style="animation-delay:300ms;"/>
<polyline points="90.0,329.7 106.8,330.8 123.7,329.7 140.5,330.8 157.3,335.2 174.1,328.5 191.0,328.5 207.8,327.7 224.6,327.5 241.5,327.3 258.3,327.3 275.1,315.1 292.0,315.1 308.8,315.1 325.6,301.4 342.4,301.3 359.3,301.3 376.1,301.3 392.9,301.3 409.8,301.3 426.6,301.3 443.4,294.1 460.2,283.2 477.1,283.1 493.9,283.1 510.7,283.1 527.6,283.1 544.4,283.1 561.2,283.0 578.0,283.0 594.9,283.0 611.7,283.0 628.5,283.0 645.4,283.0 662.2,283.0 679.0,283.0 695.9,283.0 712.7,283.0 729.5,283.0 746.3,283.0" fill="none" stroke="#f85149" stroke-width="1.5" stroke-linejoin="round" class="anim" style="animation-delay:350ms;"/>
<polyline points="746.3,283.0 763.2,260.7 780.0,238.5" fill="none" stroke="#f85149" stroke-width="1" stroke-dasharray="5,4" stroke-linejoin="round" opacity="0.6" class="anim" style="animation-delay:350ms;"/>
<polyline points="90.0,340.0 106.8,340.0 123.7,340.0 140.5,340.0 157.3,340.0 174.1,340.0 191.0,340.0 207.8,340.0 224.6,276.0 241.5,276.0 258.3,276.0 275.1,276.0 292.0,276.0 308.8,276.0 325.6,276.0 342.4,276.0 359.3,276.0 376.1,276.0 392.9,276.0 409.8,276.0 426.6,276.0 443.4,276.0 460.2,276.0 477.1,276.0 493.9,276.0 510.7,276.0 527.6,276.0 544.4,276.0 561.2,276.0 578.0,276.0 594.9,276.0 611.7,276.0 628.5,276.0 645.4,276.0 662.2,212.0 679.0,212.0 695.9,212.0 712.7,212.0 729.5,212.0 746.3,212.0" fill="none" stroke="#e3b341" stroke-width="1.5" stroke-dasharray="4,3" stroke-linejoin="round" class="anim" style="animation-delay:400ms;"/>
<polyline points="746.3,212.0 763.2,212.0 780.0,148.0" fill="none" stroke="#e3b341" stroke-width="1" stroke-dasharray="3,5" stroke-linejoin="round" opacity="0.5" class="anim" style="animation-delay:400ms;"/>
<text x="90" y="90" class="subtitle">Lines Added vs Deleted (per snapshot)</text>
<text x="90" y="400" class="subtitle">Programming Language Development (%)</text>
<line x1="90" y1="650.0" x2="780" y2="650.0" stroke="#21262d" stroke-width="1"/>
<text x="82" y="654.0" text-anchor="end" class="axis-label">0%</text>
<line x1="90" y1="590.0" x2="780" y2="590.0" stroke="#21262d" stroke-width="1"/>
<text x="82" y="594.0" text-anchor="end" class="axis-label">25%</text>
<line x1="90" y1="530.0" x2="780" y2="530.0" stroke="#21262d" stroke-width="1"/>
<text x="82" y="534.0" text-anchor="end" class="axis-label">50%</text>
<line x1="90" y1="470.0" x2="780" y2="470.0" stroke="#21262d" stroke-width="1"/>
<text x="82" y="474.0" text-anchor="end" class="axis-label">75%</text>
<line x1="90" y1="410.0" x2="780" y2="410.0" stroke="#21262d" stroke-width="1"/>
<text x="82" y="414.0" text-anchor="end" class="axis-label">100%</text>
<polygon points="90.0,650.0 106.8,650.0 123.7,650.0 140.5,650.0 157.3,650.0 174.1,650.0 191.0,650.0 207.8,650.0 224.6,528.2 241.5,528.5 258.3,529.7 275.1,499.3 292.0,499.3 308.8,502.9 325.6,485.0 342.4,485.1 359.3,485.4 376.1,485.4 392.9,485.4 409.8,485.4 426.6,485.4 443.4,496.4 460.2,496.7 477.1,491.0 493.9,491.0 510.7,491.0 527.6,491.7 544.4,491.8 561.2,494.0 578.0,494.0 594.9,494.4 611.7,494.4 628.5,494.4 645.4,494.4 662.2,507.6 679.0,507.6 695.9,507.9 712.7,507.9 729.5,507.9 746.3,506.3 763.2,505.2 780.0,504.1 780.0,650.0 763.2,650.0 746.3,650.0 729.5,650.0 712.7,650.0 695.9,650.0 679.0,650.0 662.2,650.0 645.4,650.0 628.5,650.0 611.7,650.0 594.9,650.0 578.0,650.0 561.2,650.0 544.4,650.0 527.6,650.0 510.7,650.0 493.9,650.0 477.1,650.0 460.2,650.0 443.4,650.0 426.6,650.0 409.8,650.0 392.9,650.0 376.1,650.0 359.3,650.0 342.4,650.0 325.6,650.0 308.8,650.0 292.0,650.0 275.1,650.0 258.3,650.0 241.5,650.0 224.6,650.0 207.8,650.0 191.0,650.0 174.1,650.0 157.3,650.0 140.5,650.0 123.7,650.0 106.8,650.0 90.0,650.0" fill="#e34c26" opacity="0.6" class="anim" style="animation-delay:500ms;"/>
<polygon points="90.0,650.0 106.8,650.0 123.7,650.0 140.5,650.0 157.3,650.0 174.1,650.0 191.0,650.0 207.8,650.0 224.6,488.4 241.5,488.0 258.3,489.0 275.1,476.0 292.0,476.0 308.8,477.2 325.6,460.1 342.4,460.2 359.3,460.6 376.1,460.6 392.9,460.6 409.8,460.6 426.6,460.6 443.4,473.0 460.2,473.5 477.1,469.5 493.9,469.5 510.7,469.5 527.6,469.7 544.4,469.7 561.2,469.7 578.0,469.7 594.9,469.7 611.7,469.7 628.5,469.7 645.4,469.7 662.2,455.6 679.0,455.6 695.9,455.4 712.7,455.4 729.5,455.4 746.3,454.3 763.2,445.8 780.0,437.4 780.0,504.1 763.2,505.2 746.3,506.3 729.5,507.9 712.7,507.9 695.9,507.9 679.0,507.6 662.2,507.6 645.4,494.4 628.5,494.4 611.7,494.4 594.9,494.4 578.0,494.0 561.2,494.0 544.4,491.8 527.6,491.7 510.7,491.0 493.9,491.0 477.1,491.0 460.2,496.7 443.4,496.4 426.6,485.4 409.8,485.4 392.9,485.4 376.1,485.4 359.3,485.4 342.4,485.1 325.6,485.0 308.8,502.9 292.0,499.3 275.1,499.3 258.3,529.7 241.5,528.5 224.6,528.2 207.8,650.0 191.0,650.0 174.1,650.0 157.3,650.0 140.5,650.0 123.7,650.0 106.8,650.0 90.0,650.0" fill="#f1e05a" opacity="0.6" class="anim" style="animation-delay:600ms;"/>
<polygon points="90.0,650.0 106.8,650.0 123.7,650.0 140.5,650.0 157.3,650.0 174.1,650.0 191.0,650.0 207.8,650.0 224.6,455.5 241.5,455.4 258.3,455.1 275.1,447.0 292.0,447.0 308.8,448.2 325.6,438.9 342.4,439.0 359.3,439.6 376.1,439.6 392.9,439.6 409.8,439.6 426.6,439.6 443.4,445.6 460.2,445.6 477.1,443.3 493.9,443.3 510.7,443.3 527.6,443.6 544.4,443.6 561.2,444.1 578.0,444.1 594.9,444.1 611.7,444.1 628.5,444.1 645.4,444.1 662.2,437.5 679.0,437.5 695.9,437.5 712.7,437.5 729.5,437.5 746.3,437.5 763.2,433.5 780.0,429.5 780.0,437.4 763.2,445.8 746.3,454.3 729.5,455.4 712.7,455.4 695.9,455.4 679.0,455.6 662.2,455.6 645.4,469.7 628.5,469.7 611.7,469.7 594.9,469.7 578.0,469.7 561.2,469.7 544.4,469.7 527.6,469.7 510.7,469.5 493.9,469.5 477.1,469.5 460.2,473.5 443.4,473.0 426.6,460.6 409.8,460.6 392.9,460.6 376.1,460.6 359.3,460.6 342.4,460.2 325.6,460.1 308.8,477.2 292.0,476.0 275.1,476.0 258.3,489.0 241.5,488.0 224.6,488.4 207.8,650.0 191.0,650.0 174.1,650.0 157.3,650.0 140.5,650.0 123.7,650.0 106.8,650.0 90.0,650.0" fill="#3572A5" opacity="0.6" class="anim" style="animation-delay:700ms;"/>
<polygon points="90.0,650.0 106.8,650.0 123.7,650.0 140.5,650.0 157.3,650.0 174.1,650.0 191.0,650.0 207.8,650.0 224.6,442.3 241.5,442.0 258.3,441.6 275.1,439.5 292.0,439.5 308.8,439.4 325.6,432.3 342.4,432.2 359.3,432.6 376.1,432.6 392.9,432.6 409.8,432.6 426.6,432.6 443.4,439.3 460.2,439.3 477.1,437.4 493.9,437.4 510.7,437.4 527.6,437.3 544.4,437.3 561.2,437.1 578.0,437.1 594.9,437.1 611.7,437.1 628.5,437.1 645.4,437.1 662.2,428.7 679.0,428.6 695.9,428.5 712.7,428.5 729.5,428.5 746.3,427.3 763.2,423.9 780.0,420.6 780.0,429.5 763.2,433.5 746.3,437.5 729.5,437.5 712.7,437.5 695.9,437.5 679.0,437.5 662.2,437.5 645.4,444.1 628.5,444.1 611.7,444.1 594.9,444.1 578.0,444.1 561.2,444.1 544.4,443.6 527.6,443.6 510.7,443.3 493.9,443.3 477.1,443.3 460.2,445.6 443.4,445.6 426.6,439.6 409.8,439.6 392.9,439.6 376.1,439.6 359.3,439.6 342.4,439.0 325.6,438.9 308.8,448.2 292.0,447.0 275.1,447.0 258.3,455.1 241.5,455.4 224.6,455.5 207.8,650.0 191.0,650.0 174.1,650.0 157.3,650.0 140.5,650.0 123.7,650.0 106.8,650.0 90.0,650.0" fill="#663399" opacity="0.6" class="anim" style="animation-delay:800ms;"/>
<polygon points="90.0,650.0 106.8,650.0 123.7,650.0 140.5,650.0 157.3,650.0 174.1,650.0 191.0,650.0 207.8,650.0 224.6,436.6 241.5,436.3 258.3,435.9 275.1,432.2 292.0,432.2 308.8,432.2 325.6,426.2 342.4,426.1 359.3,426.0 376.1,426.0 392.9,426.0 409.8,426.0 426.6,426.0 443.4,430.8 460.2,430.7 477.1,429.3 493.9,429.3 510.7,429.3 527.6,429.2 544.4,429.2 561.2,428.9 578.0,428.9 594.9,428.8 611.7,428.8 628.5,428.8 645.4,428.8 662.2,423.0 679.0,422.9 695.9,422.9 712.7,422.9 729.5,422.9 746.3,422.0 763.2,418.6 780.0,415.2 780.0,420.6 763.2,423.9 746.3,427.3 729.5,428.5 712.7,428.5 695.9,428.5 679.0,428.6 662.2,428.7 645.4,437.1 628.5,437.1 611.7,437.1 594.9,437.1 578.0,437.1 561.2,437.1 544.4,437.3 527.6,437.3 510.7,437.4 493.9,437.4 477.1,437.4 460.2,439.3 443.4,439.3 426.6,432.6 409.8,432.6 392.9,432.6 376.1,432.6 359.3,432.6 342.4,432.2 325.6,432.3 308.8,439.4 292.0,439.5 275.1,439.5 258.3,441.6 241.5,442.0 224.6,442.3 207.8,650.0 191.0,650.0 174.1,650.0 157.3,650.0 140.5,650.0 123.7,650.0 106.8,650.0 90.0,650.0" fill="#083fa1" opacity="0.6" class="anim" style="animation-delay:900ms;"/>
<polygon points="90.0,650.0 106.8,650.0 123.7,650.0 140.5,650.0 157.3,650.0 174.1,650.0 191.0,650.0 207.8,650.0 224.6,427.0 241.5,426.8 258.3,426.6 275.1,424.2 292.0,424.2 308.8,424.2 325.6,420.4 342.4,420.3 359.3,420.3 376.1,420.3 392.9,420.3 409.8,420.3 426.6,420.3 443.4,423.3 460.2,423.2 477.1,422.4 493.9,422.4 510.7,422.4 527.6,422.3 544.4,422.3 561.2,422.1 578.0,422.1 594.9,422.1 611.7,422.1 628.5,422.1 645.4,422.1 662.2,418.3 679.0,418.3 695.9,418.2 712.7,418.2 729.5,418.2 746.3,417.7 763.2,415.8 780.0,413.8 780.0,415.2 763.2,418.6 746.3,422.0 729.5,422.9 712.7,422.9 695.9,422.9 679.0,422.9 662.2,423.0 645.4,428.8 628.5,428.8 611.7,428.8 594.9,428.8 578.0,428.9 561.2,428.9 544.4,429.2 527.6,429.2 510.7,429.3 493.9,429.3 477.1,429.3 460.2,430.7 443.4,430.8 426.6,426.0 409.8,426.0 392.9,426.0 376.1,426.0 359.3,426.0 342.4,426.1 325.6,426.2 308.8,432.2 292.0,432.2 275.1,432.2 258.3,435.9 241.5,436.3 224.6,436.6 207.8,650.0 191.0,650.0 174.1,650.0 157.3,650.0 140.5,650.0 123.7,650.0 106.8,650.0 90.0,650.0" fill="#6E4C13" opacity="0.6" class="anim" style="animation-delay:1000ms;"/>
<polygon points="90.0,650.0 106.8,650.0 123.7,650.0 140.5,650.0 157.3,650.0 174.1,650.0 191.0,650.0 207.8,650.0 224.6,418.7 241.5,418.6 258.3,418.5 275.1,417.3 292.0,417.3 308.8,417.2 325.6,415.3 342.4,415.3 359.3,415.2 376.1,415.2 392.9,415.2 409.8,415.2 426.6,415.2 443.4,416.8 460.2,416.8 477.1,416.3 493.9,416.3 510.7,416.3 527.6,416.3 544.4,416.3 561.2,416.2 578.0,416.2 594.9,416.2 611.7,416.2 628.5,416.2 645.4,416.2 662.2,414.2 679.0,414.2 695.9,414.2 712.7,414.2 729.5,414.2 746.3,413.9 763.2,413.3 780.0,412.6 780.0,413.8 763.2,415.8 746.3,417.7 729.5,418.2 712.7,418.2 695.9,418.2 679.0,418.3 662.2,418.3 645.4,422.1 628.5,422.1 611.7,422.1 594.9,422.1 578.0,422.1 561.2,422.1 544.4,422.3 527.6,422.3 510.7,422.4 493.9,422.4 477.1,422.4 460.2,423.2 443.4,423.3 426.6,420.3 409.8,420.3 392.9,420.3 376.1,420.3 359.3,420.3 342.4,420.3 325.6,420.4 308.8,424.2 292.0,424.2 275.1,424.2 258.3,426.6 241.5,426.8 224.6,427.0 207.8,650.0 191.0,650.0 174.1,650.0 157.3,650.0 140.5,650.0 123.7,650.0 106.8,650.0 90.0,650.0" fill="#F05138" opacity="0.6" class="anim" style="animation-delay:1100ms;"/>
<polygon points="90.0,650.0 106.8,650.0 123.7,650.0 140.5,650.0 157.3,650.0 174.1,650.0 191.0,650.0 207.8,650.0 224.6,414.4 241.5,414.4 258.3,414.3 275.1,413.7 292.0,413.7 308.8,413.7 325.6,412.7 342.4,412.7 359.3,412.7 376.1,412.7 392.9,412.7 409.8,412.7 426.6,412.7 443.4,413.5 460.2,413.4 477.1,413.2 493.9,413.2 510.7,413.2 527.6,413.2 544.4,413.2 561.2,413.1 578.0,413.1 594.9,413.1 611.7,413.1 628.5,413.1 645.4,413.1 662.2,412.2 679.0,412.1 695.9,412.1 712.7,412.1 729.5,412.1 746.3,412.0 763.2,412.0 780.0,412.0 780.0,412.6 763.2,413.3 746.3,413.9 729.5,414.2 712.7,414.2 695.9,414.2 679.0,414.2 662.2,414.2 645.4,416.2 628.5,416.2 611.7,416.2 594.9,416.2 578.0,416.2 561.2,416.2 544.4,416.3 527.6,416.3 510.7,416.3 493.9,416.3 477.1,416.3 460.2,416.8 443.4,416.8 426.6,415.2 409.8,415.2 392.9,415.2 376.1,415.2 359.3,415.2 342.4,415.3 325.6,415.3 308.8,417.2 292.0,417.3 275.1,417.3 258.3,418.5 241.5,418.6 224.6,418.7 207.8,650.0 191.0,650.0 174.1,650.0 157.3,650.0 140.5,650.0 123.7,650.0 106.8,650.0 90.0,650.0" fill="#b07219" opacity="0.6" class="anim" style="animation-delay:1200ms;"/>
<line x1="746.3" y1="100" x2="746.3" y2="650" stroke="#c9d1d9" stroke-width="1" stroke-dasharray="4,3" opacity="0.35"/>
<text x="763.2" y="112" text-anchor="middle" class="axis-label" opacity="0.6">Mar 31, 2026</text>
<text x="90.0" y="668" text-anchor="middle" class="axis-label" transform="rotate(-35 90.0 668)">2026-02</text>
<text x="510.7" y="668" text-anchor="middle" class="axis-label" transform="rotate(-35 510.7 668)">2026-03</text>
<text x="763.2" y="668" text-anchor="middle" class="axis-label" transform="rotate(-35 763.2 668)">Mar 31, 2026</text>
<line x1="796" y1="110" x2="824" y2="110" stroke="#3fb950" stroke-width="2"/>
<text x="832" y="116" class="legend-text">Lines Added</text>
<line x1="796" y1="140" x2="824" y2="140" stroke="#f85149" stroke-width="1.5"/>
<text x="832" y="146" class="legend-text">Lines Deleted</text>
<line x1="796" y1="170" x2="824" y2="170" stroke="#e3b341" stroke-width="1.5" stroke-dasharray="4,3"/>
<text x="832" y="176" class="legend-text">&#x2605; Stars</text>
<text x="796" y="200" class="subtitle">Languages</text>
<rect x="796" y="212" width="12" height="12" rx="2" fill="#e34c26" opacity="0.8" class="anim" style="animation-delay:800ms;"/>
<text x="814" y="223" class="legend-text">HTML (60%→61%)</text>
<rect x="796" y="234" width="12" height="12" rx="2" fill="#f1e05a" opacity="0.8" class="anim" style="animation-delay:880ms;"/>
<text x="814" y="245" class="legend-text">JavaScript (22%→28%)</text>
<rect x="796" y="256" width="12" height="12" rx="2" fill="#3572A5" opacity="0.8" class="anim" style="animation-delay:960ms;"/>
<text x="814" y="267" class="legend-text">Python (7%→3%)</text>
<rect x="796" y="278" width="12" height="12" rx="2" fill="#663399" opacity="0.8" class="anim" style="animation-delay:1040ms;"/>
<text x="814" y="289" class="legend-text">CSS (4%→4%)</text>
<rect x="796" y="300" width="12" height="12" rx="2" fill="#083fa1" opacity="0.8" class="anim" style="animation-delay:1120ms;"/>
<text x="814" y="311" class="legend-text">Markdown (2%→2%)</text>
<rect x="796" y="322" width="12" height="12" rx="2" fill="#6E4C13" opacity="0.8" class="anim" style="animation-delay:1200ms;"/>
<text x="814" y="333" class="legend-text">Assembly (2%→1%)</text>
<rect x="796" y="344" width="12" height="12" rx="2" fill="#F05138" opacity="0.8" class="anim" style="animation-delay:1280ms;"/>
<text x="814" y="355" class="legend-text">Swift (2%→1%)</text>
<rect x="796" y="366" width="12" height="12" rx="2" fill="#b07219" opacity="0.8" class="anim" style="animation-delay:1360ms;"/>
<text x="814" y="377" class="legend-text">Java (1%→0%)</text>
<text x="796" y="412" class="subtitle">Contributions</text>
<text x="796" y="432" class="axis-label">2023: 39</text>
<text x="796" y="452" class="axis-label">2024: 646</text>
<text x="796" y="472" class="axis-label">2025: 1,780</text>
<text x="796" y="492" class="axis-label">2026: 378</text>
<text x="796" y="522" class="subtitle">Statistics</text>
<text x="796" y="542" class="axis-label">Active weeks: 78</text>
<text x="796" y="562" class="axis-label">Add/Del ratio: 1.6x</text>
<text x="796" y="582" class="axis-label">Avg lines/wk: 19K</text>
<text x="796" y="602" class="axis-label">Peak: 2026-02-15</text>
<text x="796" y="622" class="axis-label">  (543K lines)</text>
<text x="90" y="742" class="axis-label">Total: +912,015 / -569,548 lines &#xb7; 2,843 contributions &#xb7; 75 repos &#xb7; &#x2605; 34</text>
</svg>