<svg xmlns="http://www.w3.org/2000/svg" width="1000" height="760" style="max-width: 100%;" viewBox="0 0 1000 760">

<defs>
  <linearGradient id="areaGrad" x1="0" y1="0" x2="0" y2="1">
    <stop offset="0%" stop-color="#58a6ff" stop-opacity="0.35"/>
    <stop offset="100%" stop-color="#58a6ff" stop-opacity="0.02"/>
  </linearGradient>
  <linearGradient id="addGrad" x1="0" y1="0" x2="0" y2="1">
    <stop offset="0%" stop-color="#3fb950" stop-opacity="0.35"/>
    <stop offset="100%" stop-color="#3fb950" stop-opacity="0.02"/>
  </linearGradient>
  <linearGradient id="delGrad" x1="0" y1="0" x2="0" y2="1">
    <stop offset="0%" stop-color="#f85149" stop-opacity="0.25"/>
    <stop offset="100%" stop-color="#f85149" stop-opacity="0.02"/>
  </linearGradient>
</defs>
<style>
  .title { font: bold 28px 'Segoe UI', Ubuntu, Sans-Serif; fill: #c9d1d9; }
  .subtitle { font: 600 20px 'Segoe UI', Ubuntu, Sans-Serif; fill: #c9d1d9; opacity: 0.8; }
  .axis-label { font: 18px 'Segoe UI', Ubuntu, Sans-Serif; fill: #c9d1d9; opacity: 0.7; }
  .legend-text { font: 14px 'Segoe UI', Ubuntu, Sans-Serif; fill: #c9d1d9; }
  .value-text { font: bold 18px 'Segoe UI', Ubuntu, Sans-Serif; fill: #c9d1d9; }
  .stat-value { font: bold 22px 'Segoe UI', Ubuntu, Sans-Serif; fill: #c9d1d9; }
  .stat-label { font: 18px 'Segoe UI', Ubuntu, Sans-Serif; fill: #c9d1d9; opacity: 0.7; }
  @keyframes fadeIn { from { opacity: 0; } to { opacity: 1; } }
  .anim { animation: fadeIn 0.6s ease-in-out forwards; opacity: 0; }
</style>

<rect x="0.5" y="0.5" rx="4.5" width="999" height="759" fill="#161b22" stroke="#21262d"/>
<text x="90" y="45" class="title">Activity History</text>
<text x="90" y="72" class="subtitle">Lines added vs deleted &amp; activity trends over time</text>
<line x1="90" y1="340.0" x2="780" y2="340.0" stroke="#21262d" stroke-width="1"/>
<text x="82" y="344.0" text-anchor="end" class="axis-label">0</text>
<line x1="90" y1="280.0" x2="780" y2="280.0" stroke="#21262d" stroke-width="1"/>
<text x="82" y="284.0" text-anchor="end" class="axis-label">452K</text>
<line x1="90" y1="220.0" x2="780" y2="220.0" stroke="#21262d" stroke-width="1"/>
<text x="82" y="224.0" text-anchor="end" class="axis-label">904K</text>
<line x1="90" y1="160.0" x2="780" y2="160.0" stroke="#21262d" stroke-width="1"/>
<text x="82" y="164.0" text-anchor="end" class="axis-label">1.4M</text>
<line x1="90" y1="100.0" x2="780" y2="100.0" stroke="#21262d" stroke-width="1"/>
<text x="82" y="104.0" text-anchor="end" class="axis-label">1.8M</text>
<polygon points="90.0,340.0 90.0,291.5 97.1,293.3 104.2,291.6 111.3,293.3 118.5,304.5 125.6,282.3 132.7,282.2 139.8,273.9 146.9,273.6 154.0,273.0 161.1,273.0 168.2,258.1 175.4,258.0 182.5,258.0 189.6,235.9 196.7,235.6 203.8,235.3 210.9,235.3 218.0,235.3 225.2,235.3 232.3,235.3 239.4,234.8 246.5,220.0 253.6,220.0 260.7,220.0 267.8,220.0 274.9,219.6 282.1,219.6 289.2,219.0 296.3,219.0 303.4,218.9 310.5,218.9 317.6,218.9 324.7,218.9 331.9,219.0 339.0,218.9 346.1,218.9 353.2,218.9 360.3,218.9 367.4,218.9 374.5,218.9 381.6,218.3 388.8,218.5 395.9,217.9 403.0,217.5 410.1,217.5 417.2,217.5 424.3,217.5 431.4,217.5 438.6,217.5 445.7,217.5 452.8,217.5 459.9,217.5 467.0,217.5 474.1,217.8 481.2,219.3 488.4,217.8 495.5,216.6 502.6,216.5 509.7,216.5 516.8,216.5 523.9,216.5 531.0,208.9 538.1,202.0 545.3,202.0 552.4,202.0 559.5,202.0 566.6,202.0 573.7,202.0 580.8,202.0 587.9,202.0 595.1,201.9 602.2,201.9 609.3,201.9 616.4,201.9 623.5,201.9 630.6,201.9 637.7,201.9 644.8,201.9 652.0,201.9 659.1,201.9 666.2,201.9 673.3,201.9 680.4,201.9 687.5,201.9 694.6,201.9 701.8,201.9 708.9,201.9 716.0,201.9 723.1,201.9 730.2,201.9 737.3,201.9 744.4,201.9 751.5,201.9 758.7,201.9 765.8,201.9 772.9,194.4 780.0,187.0 780.0,340.0" fill="url(#addGrad)" class="anim" style="animation-delay:200ms;"/>
<polyline points="90.0,291.5 97.1,293.3 104.2,291.6 111.3,293.3 118.5,304.5 125.6,282.3 132.7,282.2 139.8,273.9 146.9,273.6 154.0,273.0 161.1,273.0 168.2,258.1 175.4,258.0 182.5,258.0 189.6,235.9 196.7,235.6 203.8,235.3 210.9,235.3 218.0,235.3 225.2,235.3 232.3,235.3 239.4,234.8 246.5,220.0 253.6,220.0 260.7,220.0 267.8,220.0 274.9,219.6 282.1,219.6 289.2,219.0 296.3,219.0 303.4,218.9 310.5,218.9 317.6,218.9 324.7,218.9 331.9,219.0 339.0,218.9 346.1,218.9 353.2,218.9 360.3,218.9 367.4,218.9 374.5,218.9 381.6,218.3 388.8,218.5 395.9,217.9 403.0,217.5 410.1,217.5 417.2,217.5 424.3,217.5 431.4,217.5 438.6,217.5 445.7,217.5 452.8,217.5 459.9,217.5 467.0,217.5 474.1,217.8 481.2,219.3 488.4,217.8 495.5,216.6 502.6,216.5 509.7,216.5 516.8,216.5 523.9,216.5 531.0,208.9 538.1,202.0 545.3,202.0 552.4,202.0 559.5,202.0 566.6,202.0 573.7,202.0 580.8,202.0 587.9,202.0 595.1,201.9 602.2,201.9 609.3,201.9 616.4,201.9 623.5,201.9 630.6,201.9 637.7,201.9 644.8,201.9 652.0,201.9 659.1,201.9 666.2,201.9 673.3,201.9 680.4,201.9 687.5,201.9 694.6,201.9 701.8,201.9 708.9,201.9 716.0,201.9 723.1,201.9 730.2,201.9 737.3,201.9 744.4,201.9 751.5,201.9 758.7,201.9 765.8,201.9" fill="none" stroke="#3fb950" stroke-width="2" stroke-linejoin="round" class="anim" style="animation-delay:250ms;"/>
<polyline points="765.8,201.9 772.9,194.4 780.0,187.0" fill="none" stroke="#3fb950" stroke-width="1.5" stroke-dasharray="5,4" stroke-linejoin="round" opacity="0.6" class="anim" style="animation-delay:250ms;"/>
<polygon points="90.0,340.0 90.0,326.4 97.1,327.8 104.2,326.4 111.3,327.8 118.5,333.6 125.6,324.7 132.7,324.7 139.8,323.7 146.9,323.4 154.0,323.1 161.1,323.1 168.2,307.0 175.4,307.0 182.5,307.0 189.6,288.8 196.7,288.7 203.8,288.6 210.9,288.6 218.0,288.6 225.2,288.6 232.3,288.6 239.4,279.1 246.5,264.6 253.6,264.6 260.7,264.6 267.8,264.6 274.9,264.5 282.1,264.5 289.2,264.4 296.3,264.4 303.4,264.4 310.5,264.4 317.6,264.4 324.7,264.4 331.9,264.4 339.0,264.4 346.1,264.4 353.2,264.4 360.3,264.4 367.4,264.4 374.5,264.4 381.6,264.4 388.8,264.4 395.9,264.0 403.0,263.9 410.1,263.9 417.2,263.9 424.3,263.9 431.4,263.9 438.6,263.9 445.7,263.9 452.8,263.9 459.9,263.9 467.0,264.0 474.1,264.1 481.2,264.9 488.4,264.3 495.5,263.5 502.6,263.5 509.7,263.5 516.8,263.5 523.9,263.5 531.0,263.4 538.1,263.4 545.3,263.4 552.4,263.4 559.5,263.4 566.6,263.4 573.7,263.4 580.8,263.4 587.9,263.4 595.1,263.4 602.2,263.4 609.3,263.4 616.4,263.4 623.5,263.4 630.6,263.4 637.7,263.4 644.8,263.4 652.0,263.4 659.1,263.4 666.2,263.4 673.3,263.4 680.4,263.4 687.5,263.4 694.6,263.4 701.8,263.4 708.9,263.4 716.0,263.4 723.1,263.4 730.2,263.4 737.3,263.4 744.4,263.4 751.5,263.4 758.7,263.4 765.8,263.4 772.9,258.2 780.0,253.0 780.0,340.0" fill="url(#delGrad)" class="anim" style="animation-delay:300ms;"/>
<polyline points="90.0,326.4 97.1,327.8 104.2,326.4 111.3,327.8 118.5,333.6 125.6,324.7 132.7,324.7 139.8,323.7 146.9,323.4 154.0,323.1 161.1,323.1 168.2,307.0 175.4,307.0 182.5,307.0 189.6,288.8 196.7,288.7 203.8,288.6 210.9,288.6 218.0,288.6 225.2,288.6 232.3,288.6 239.4,279.1 246.5,264.6 253.6,264.6 260.7,264.6 267.8,264.6 274.9,264.5 282.1,264.5 289.2,264.4 296.3,264.4 303.4,264.4 310.5,264.4 317.6,264.4 324.7,264.4 331.9,264.4 339.0,264.4 346.1,264.4 353.2,264.4 360.3,264.4 367.4,264.4 374.5,264.4 381.6,264.4 388.8,264.4 395.9,264.0 403.0,263.9 410.1,263.9 417.2,263.9 424.3,263.9 431.4,263.9 438.6,263.9 445.7,263.9 452.8,263.9 459.9,263.9 467.0,264.0 474.1,264.1 481.2,264.9 488.4,264.3 495.5,263.5 502.6,263.5 509.7,263.5 516.8,263.5 523.9,263.5 531.0,263.4 538.1,263.4 545.3,263.4 552.4,263.4 559.5,263.4 566.6,263.4 573.7,263.4 580.8,263.4 587.9,263.4 595.1,263.4 602.2,263.4 609.3,263.4 616.4,263.4 623.5,263.4 630.6,263.4 637.7,263.4 644.8,263.4 652.0,263.4 659.1,263.4 666.2,263.4 673.3,263.4 680.4,263.4 687.5,263.4 694.6,263.4 701.8,263.4 708.9,263.4 716.0,263.4 723.1,263.4 730.2,263.4 737.3,263.4 744.4,263.4 751.5,263.4 758.7,263.4 765.8,263.4" fill="none" stroke="#f85149" stroke-width="1.5" stroke-linejoin="round" class="anim" style="animation-delay:350ms;"/>
<polyline points="765.8,263.4 772.9,258.2 780.0,253.0" fill="none" stroke="#f85149" stroke-width="1" stroke-dasharray="5,4" stroke-linejoin="round" opacity="0.6" class="anim" style="animation-delay:350ms;"/>
<polyline points="90.0,340.0 97.1,340.0 104.2,340.0 111.3,340.0 118.5,340.0 125.6,340.0 132.7,340.0 139.8,340.0 146.9,308.0 154.0,308.0 161.1,308.0 168.2,308.0 175.4,308.0 182.5,308.0 189.6,308.0 196.7,308.0 203.8,308.0 210.9,308.0 218.0,308.0 225.2,308.0 232.3,308.0 239.4,308.0 246.5,308.0 253.6,308.0 260.7,308.0 267.8,308.0 274.9,308.0 282.1,308.0 289.2,308.0 296.3,308.0 303.4,308.0 310.5,308.0 317.6,308.0 324.7,308.0 331.9,276.0 339.0,276.0 346.1,276.0 353.2,276.0 360.3,276.0 367.4,276.0 374.5,276.0 381.6,276.0 388.8,244.0 395.9,244.0 403.0,244.0 410.1,244.0 417.2,244.0 424.3,244.0 431.4,244.0 438.6,244.0 445.7,244.0 452.8,244.0 459.9,244.0 467.0,244.0 474.1,244.0 481.2,244.0 488.4,244.0 495.5,244.0 502.6,180.0 509.7,180.0 516.8,180.0 523.9,180.0 531.0,180.0 538.1,180.0 545.3,180.0 552.4,180.0 559.5,180.0 566.6,180.0 573.7,180.0 580.8,180.0 587.9,180.0 595.1,180.0 602.2,180.0 609.3,180.0 616.4,180.0 623.5,180.0 630.6,180.0 637.7,180.0 644.8,180.0 652.0,180.0 659.1,180.0 666.2,180.0 673.3,180.0 680.4,180.0 687.5,180.0 694.6,180.0 701.8,180.0 708.9,180.0 716.0,180.0 723.1,180.0 730.2,180.0 737.3,180.0 744.4,180.0 751.5,180.0 758.7,180.0 765.8,180.0" fill="none" stroke="#e3b341" stroke-width="1.5" stroke-dasharray="4,3" stroke-linejoin="round" class="anim" style="animation-delay:400ms;"/>
<polyline points="765.8,180.0 772.9,180.0 780.0,148.0" fill="none" stroke="#e3b341" stroke-width="1" stroke-dasharray="3,5" stroke-linejoin="round" opacity="0.5" class="anim" style="animation-delay:400ms;"/>
<text x="90" y="90" class="subtitle">Lines Added vs Deleted (per snapshot)</text>
<text x="90" y="400" class="subtitle">Programming Language Development (%)</text>
<line x1="90" y1="650.0" x2="780" y2="650.0" stroke="#21262d" stroke-width="1"/>
<text x="82" y="654.0" text-anchor="end" class="axis-label">0%</text>
<line x1="90" y1="590.0" x2="780" y2="590.0" stroke="#21262d" stroke-width="1"/>
<text x="82" y="594.0" text-anchor="end" class="axis-label">25%</text>
<line x1="90" y1="530.0" x2="780" y2="530.0" stroke="#21262d" stroke-width="1"/>
<text x="82" y="534.0" text-anchor="end" class="axis-label">50%</text>
<line x1="90" y1="470.0" x2="780" y2="470.0" stroke="#21262d" stroke-width="1"/>
<text x="82" y="474.0" text-anchor="end" class="axis-label">75%</text>
<line x1="90" y1="410.0" x2="780" y2="410.0" stroke="#21262d" stroke-width="1"/>
<text x="82" y="414.0" text-anchor="end" class="axis-label">100%</text>
<polygon points="90.0,650.0 97.1,650.0 104.2,650.0 111.3,650.0 118.5,650.0 125.6,650.0 132.7,650.0 139.8,650.0 146.9,528.2 154.0,528.5 161.1,529.7 168.2,499.3 175.4,499.3 182.5,502.9 189.6,485.0 196.7,485.1 203.8,485.4 210.9,485.4 218.0,485.4 225.2,485.4 232.3,485.4 239.4,496.4 246.5,496.7 253.6,491.0 260.7,491.0 267.8,491.0 274.9,491.7 282.1,491.8 289.2,494.0 296.3,494.0 303.4,494.4 310.5,494.4 317.6,494.4 324.7,494.4 331.9,507.6 339.0,507.6 346.1,507.9 353.2,507.9 360.3,507.9 367.4,506.3 374.5,506.4 381.6,506.8 388.8,506.9 395.9,506.8 403.0,507.5 410.1,507.5 417.2,507.5 424.3,507.5 431.4,507.5 438.6,507.5 445.7,507.5 452.8,507.5 459.9,507.5 467.0,507.5 474.1,507.5 481.2,507.5 488.4,507.5 495.5,508.6 502.6,508.6 509.7,508.6 516.8,508.6 523.9,508.6 531.0,509.5 538.1,509.8 545.3,509.8 552.4,509.8 559.5,509.8 566.6,509.8 573.7,509.8 580.8,509.8 587.9,509.8 595.1,510.9 602.2,510.9 609.3,510.9 616.4,510.9 623.5,510.9 630.6,510.9 637.7,510.9 644.8,510.9 652.0,510.9 659.1,510.9 666.2,510.9 673.3,510.9 680.4,510.9 687.5,510.9 694.6,510.9 701.8,510.9 708.9,510.9 716.0,510.9 723.1,510.9 730.2,510.9 737.3,510.9 744.4,510.9 751.5,510.9 758.7,510.9 765.8,510.9 772.9,512.9 780.0,514.9 780.0,650.0 772.9,650.0 765.8,650.0 758.7,650.0 751.5,650.0 744.4,650.0 737.3,650.0 730.2,650.0 723.1,650.0 716.0,650.0 708.9,650.0 701.8,650.0 694.6,650.0 687.5,650.0 680.4,650.0 673.3,650.0 666.2,650.0 659.1,650.0 652.0,650.0 644.8,650.0 637.7,650.0 630.6,650.0 623.5,650.0 616.4,650.0 609.3,650.0 602.2,650.0 595.1,650.0 587.9,650.0 580.8,650.0 573.7,650.0 566.6,650.0 559.5,650.0 552.4,650.0 545.3,650.0 538.1,650.0 531.0,650.0 523.9,650.0 516.8,650.0 509.7,650.0 502.6,650.0 495.5,650.0 488.4,650.0 481.2,650.0 474.1,650.0 467.0,650.0 459.9,650.0 452.8,650.0 445.7,650.0 438.6,650.0 431.4,650.0 424.3,650.0 417.2,650.0 410.1,650.0 403.0,650.0 395.9,650.0 388.8,650.0 381.6,650.0 374.5,650.0 367.4,650.0 360.3,650.0 353.2,650.0 346.1,650.0 339.0,650.0 331.9,650.0 324.7,650.0 317.6,650.0 310.5,650.0 303.4,650.0 296.3,650.0 289.2,650.0 282.1,650.0 274.9,650.0 267.8,650.0 260.7,650.0 253.6,650.0 246.5,650.0 239.4,650.0 232.3,650.0 225.2,650.0 218.0,650.0 210.9,650.0 203.8,650.0 196.7,650.0 189.6,650.0 182.5,650.0 175.4,650.0 168.2,650.0 161.1,650.0 154.0,650.0 146.9,650.0 139.8,650.0 132.7,650.0 125.6,650.0 118.5,650.0 111.3,650.0 104.2,650.0 97.1,650.0 90.0,650.0" fill="#e34c26" opacity="0.6" class="anim" style="animation-delay:500ms;"/>
<polygon points="90.0,650.0 97.1,650.0 104.2,650.0 111.3,650.0 118.5,650.0 125.6,650.0 132.7,650.0 139.8,650.0 146.9,488.4 154.0,488.0 161.1,489.0 168.2,476.0 175.4,476.0 182.5,477.2 189.6,460.1 196.7,460.2 203.8,460.6 210.9,460.6 218.0,460.6 225.2,460.6 232.3,460.6 239.4,473.0 246.5,473.5 253.6,469.5 260.7,469.5 267.8,469.5 274.9,469.7 282.1,469.7 289.2,469.7 296.3,469.7 303.4,469.7 310.5,469.7 317.6,469.7 324.7,469.7 331.9,455.6 339.0,455.6 346.1,455.4 353.2,455.4 360.3,455.4 367.4,454.3 374.5,454.3 381.6,455.0 388.8,455.1 395.9,454.9 403.0,455.9 410.1,455.9 417.2,455.9 424.3,455.9 431.4,455.9 438.6,455.9 445.7,455.9 452.8,455.9 459.9,455.9 467.0,455.9 474.1,455.9 481.2,455.9 488.4,455.9 495.5,455.8 502.6,455.8 509.7,455.8 516.8,455.8 523.9,455.8 531.0,457.0 538.1,457.4 545.3,457.4 552.4,457.4 559.5,457.4 566.6,457.4 573.7,457.4 580.8,457.4 587.9,457.4 595.1,458.2 602.2,458.2 609.3,458.2 616.4,458.2 623.5,458.2 630.6,458.2 637.7,458.2 644.8,458.2 652.0,458.2 659.1,458.2 666.2,458.2 673.3,458.2 680.4,458.2 687.5,458.2 694.6,458.2 701.8,458.2 708.9,458.2 716.0,458.2 723.1,458.2 730.2,458.2 737.3,458.2 744.4,458.2 751.5,458.2 758.7,458.2 765.8,458.2 772.9,456.6 780.0,455.0 780.0,514.9 772.9,512.9 765.8,510.9 758.7,510.9 751.5,510.9 744.4,510.9 737.3,510.9 730.2,510.9 723.1,510.9 716.0,510.9 708.9,510.9 701.8,510.9 694.6,510.9 687.5,510.9 680.4,510.9 673.3,510.9 666.2,510.9 659.1,510.9 652.0,510.9 644.8,510.9 637.7,510.9 630.6,510.9 623.5,510.9 616.4,510.9 609.3,510.9 602.2,510.9 595.1,510.9 587.9,509.8 580.8,509.8 573.7,509.8 566.6,509.8 559.5,509.8 552.4,509.8 545.3,509.8 538.1,509.8 531.0,509.5 523.9,508.6 516.8,508.6 509.7,508.6 502.6,508.6 495.5,508.6 488.4,507.5 481.2,507.5 474.1,507.5 467.0,507.5 459.9,507.5 452.8,507.5 445.7,507.5 438.6,507.5 431.4,507.5 424.3,507.5 417.2,507.5 410.1,507.5 403.0,507.5 395.9,506.8 388.8,506.9 381.6,506.8 374.5,506.4 367.4,506.3 360.3,507.9 353.2,507.9 346.1,507.9 339.0,507.6 331.9,507.6 324.7,494.4 317.6,494.4 310.5,494.4 303.4,494.4 296.3,494.0 289.2,494.0 282.1,491.8 274.9,491.7 267.8,491.0 260.7,491.0 253.6,491.0 246.5,496.7 239.4,496.4 232.3,485.4 225.2,485.4 218.0,485.4 210.9,485.4 203.8,485.4 196.7,485.1 189.6,485.0 182.5,502.9 175.4,499.3 168.2,499.3 161.1,529.7 154.0,528.5 146.9,528.2 139.8,650.0 132.7,650.0 125.6,650.0 118.5,650.0 111.3,650.0 104.2,650.0 97.1,650.0 90.0,650.0" fill="#f1e05a" opacity="0.6" class="anim" style="animation-delay:600ms;"/>
<polygon points="90.0,650.0 97.1,650.0 104.2,650.0 111.3,650.0 118.5,650.0 125.6,650.0 132.7,650.0 139.8,650.0 146.9,455.5 154.0,455.4 161.1,455.1 168.2,447.0 175.4,447.0 182.5,448.2 189.6,438.9 196.7,439.0 203.8,439.6 210.9,439.6 218.0,439.6 225.2,439.6 232.3,439.6 239.4,445.6 246.5,445.6 253.6,443.3 260.7,443.3 267.8,443.3 274.9,443.6 282.1,443.6 289.2,444.1 296.3,444.1 303.4,444.1 310.5,444.1 317.6,444.1 324.7,444.1 331.9,437.5 339.0,437.5 346.1,437.5 353.2,437.5 360.3,437.5 367.4,437.5 374.5,437.5 381.6,438.4 388.8,438.5 395.9,438.3 403.0,439.3 410.1,439.3 417.2,439.3 424.3,439.3 431.4,439.3 438.6,439.3 445.7,439.3 452.8,439.3 459.9,439.3 467.0,439.3 474.1,439.3 481.2,439.3 488.4,439.3 495.5,439.4 502.6,439.4 509.7,439.4 516.8,439.4 523.9,439.4 531.0,440.7 538.1,441.1 545.3,441.1 552.4,441.1 559.5,441.1 566.6,441.1 573.7,441.1 580.8,441.1 587.9,441.1 595.1,442.0 602.2,442.0 609.3,442.0 616.4,442.0 623.5,442.0 630.6,442.0 637.7,442.0 644.8,442.0 652.0,442.0 659.1,442.0 666.2,442.0 673.3,442.0 680.4,442.0 687.5,442.0 694.6,442.0 701.8,442.0 708.9,442.0 716.0,442.0 723.1,442.0 730.2,442.0 737.3,442.0 744.4,442.0 751.5,442.0 758.7,442.0 765.8,442.0 772.9,441.9 780.0,441.7 780.0,455.0 772.9,456.6 765.8,458.2 758.7,458.2 751.5,458.2 744.4,458.2 737.3,458.2 730.2,458.2 723.1,458.2 716.0,458.2 708.9,458.2 701.8,458.2 694.6,458.2 687.5,458.2 680.4,458.2 673.3,458.2 666.2,458.2 659.1,458.2 652.0,458.2 644.8,458.2 637.7,458.2 630.6,458.2 623.5,458.2 616.4,458.2 609.3,458.2 602.2,458.2 595.1,458.2 587.9,457.4 580.8,457.4 573.7,457.4 566.6,457.4 559.5,457.4 552.4,457.4 545.3,457.4 538.1,457.4 531.0,457.0 523.9,455.8 516.8,455.8 509.7,455.8 502.6,455.8 495.5,455.8 488.4,455.9 481.2,455.9 474.1,455.9 467.0,455.9 459.9,455.9 452.8,455.9 445.7,455.9 438.6,455.9 431.4,455.9 424.3,455.9 417.2,455.9 410.1,455.9 403.0,455.9 395.9,454.9 388.8,455.1 381.6,455.0 374.5,454.3 367.4,454.3 360.3,455.4 353.2,455.4 346.1,455.4 339.0,455.6 331.9,455.6 324.7,469.7 317.6,469.7 310.5,469.7 303.4,469.7 296.3,469.7 289.2,469.7 282.1,469.7 274.9,469.7 267.8,469.5 260.7,469.5 253.6,469.5 246.5,473.5 239.4,473.0 232.3,460.6 225.2,460.6 218.0,460.6 210.9,460.6 203.8,460.6 196.7,460.2 189.6,460.1 182.5,477.2 175.4,476.0 168.2,476.0 161.1,489.0 154.0,488.0 146.9,488.4 139.8,650.0 132.7,650.0 125.6,650.0 118.5,650.0 111.3,650.0 104.2,650.0 97.1,650.0 90.0,650.0" fill="#3572A5" opacity="0.6" class="anim" style="animation-delay:700ms;"/>
<polygon points="90.0,650.0 97.1,650.0 104.2,650.0 111.3,650.0 118.5,650.0 125.6,650.0 132.7,650.0 139.8,650.0 146.9,442.3 154.0,442.0 161.1,441.6 168.2,439.5 175.4,439.5 182.5,439.4 189.6,432.3 196.7,432.2 203.8,432.6 210.9,432.6 218.0,432.6 225.2,432.6 232.3,432.6 239.4,439.3 246.5,439.3 253.6,437.4 260.7,437.4 267.8,437.4 274.9,437.3 282.1,437.3 289.2,437.1 296.3,437.1 303.4,437.1 310.5,437.1 317.6,437.1 324.7,437.1 331.9,428.7 339.0,428.6 346.1,428.5 353.2,428.5 360.3,428.5 367.4,427.3 374.5,427.3 381.6,427.1 388.8,427.1 395.9,427.1 403.0,427.0 410.1,427.0 417.2,427.0 424.3,427.0 431.4,427.0 438.6,427.0 445.7,427.0 452.8,427.0 459.9,427.0 467.0,427.0 474.1,427.0 481.2,427.0 488.4,427.0 495.5,427.0 502.6,427.1 509.7,427.1 516.8,427.1 523.9,427.1 531.0,428.4 538.1,428.9 545.3,428.9 552.4,428.9 559.5,428.9 566.6,428.9 573.7,428.9 580.8,428.9 587.9,428.9 595.1,428.7 602.2,428.7 609.3,428.7 616.4,428.7 623.5,428.7 630.6,428.7 637.7,428.7 644.8,428.7 652.0,428.7 659.1,428.7 666.2,428.7 673.3,428.7 680.4,428.7 687.5,428.7 694.6,428.7 701.8,428.7 708.9,428.7 716.0,428.7 723.1,428.7 730.2,428.7 737.3,428.7 744.4,428.7 751.5,428.7 758.7,428.7 765.8,428.7 772.9,427.8 780.0,426.9 780.0,441.7 772.9,441.9 765.8,442.0 758.7,442.0 751.5,442.0 744.4,442.0 737.3,442.0 730.2,442.0 723.1,442.0 716.0,442.0 708.9,442.0 701.8,442.0 694.6,442.0 687.5,442.0 680.4,442.0 673.3,442.0 666.2,442.0 659.1,442.0 652.0,442.0 644.8,442.0 637.7,442.0 630.6,442.0 623.5,442.0 616.4,442.0 609.3,442.0 602.2,442.0 595.1,442.0 587.9,441.1 580.8,441.1 573.7,441.1 566.6,441.1 559.5,441.1 552.4,441.1 545.3,441.1 538.1,441.1 531.0,440.7 523.9,439.4 516.8,439.4 509.7,439.4 502.6,439.4 495.5,439.4 488.4,439.3 481.2,439.3 474.1,439.3 467.0,439.3 459.9,439.3 452.8,439.3 445.7,439.3 438.6,439.3 431.4,439.3 424.3,439.3 417.2,439.3 410.1,439.3 403.0,439.3 395.9,438.3 388.8,438.5 381.6,438.4 374.5,437.5 367.4,437.5 360.3,437.5 353.2,437.5 346.1,437.5 339.0,437.5 331.9,437.5 324.7,444.1 317.6,444.1 310.5,444.1 303.4,444.1 296.3,444.1 289.2,444.1 282.1,443.6 274.9,443.6 267.8,443.3 260.7,443.3 253.6,443.3 246.5,445.6 239.4,445.6 232.3,439.6 225.2,439.6 218.0,439.6 210.9,439.6 203.8,439.6 196.7,439.0 189.6,438.9 182.5,448.2 175.4,447.0 168.2,447.0 161.1,455.1 154.0,455.4 146.9,455.5 139.8,650.0 132.7,650.0 125.6,650.0 118.5,650.0 111.3,650.0 104.2,650.0 97.1,650.0 90.0,650.0" fill="#663399" opacity="0.6" class="anim" style="animation-delay:800ms;"/>
<polygon points="90.0,650.0 97.1,650.0 104.2,650.0 111.3,650.0 118.5,650.0 125.6,650.0 132.7,650.0 139.8,650.0 146.9,436.6 154.0,436.3 161.1,435.9 168.2,432.2 175.4,432.2 182.5,432.2 189.6,426.2 196.7,426.1 203.8,426.0 210.9,426.0 218.0,426.0 225.2,426.0 232.3,426.0 239.4,430.8 246.5,430.7 253.6,429.3 260.7,429.3 267.8,429.3 274.9,429.2 282.1,429.2 289.2,428.9 296.3,428.9 303.4,428.8 310.5,428.8 317.6,428.8 324.7,428.8 331.9,423.0 339.0,422.9 346.1,422.9 353.2,422.9 360.3,422.9 367.4,422.0 374.5,422.0 381.6,421.9 388.8,421.9 395.9,421.9 403.0,421.8 410.1,421.8 417.2,421.8 424.3,421.8 431.4,421.8 438.6,421.8 445.7,421.8 452.8,421.8 459.9,421.8 467.0,421.8 474.1,421.8 481.2,421.8 488.4,421.8 495.5,421.7 502.6,421.8 509.7,421.8 516.8,421.8 523.9,421.8 531.0,423.2 538.1,423.6 545.3,423.6 552.4,423.6 559.5,423.6 566.6,423.6 573.7,423.6 580.8,423.6 587.9,423.6 595.1,423.5 602.2,423.5 609.3,423.5 616.4,423.5 623.5,423.5 630.6,423.5 637.7,423.5 644.8,423.5 652.0,423.5 659.1,423.5 666.2,423.5 673.3,423.5 680.4,423.5 687.5,423.5 694.6,423.5 701.8,423.5 708.9,423.5 716.0,423.5 723.1,423.5 730.2,423.5 737.3,423.5 744.4,423.5 751.5,423.5 758.7,423.5 765.8,423.5 772.9,422.9 780.0,422.2 780.0,426.9 772.9,427.8 765.8,428.7 758.7,428.7 751.5,428.7 744.4,428.7 737.3,428.7 730.2,428.7 723.1,428.7 716.0,428.7 708.9,428.7 701.8,428.7 694.6,428.7 687.5,428.7 680.4,428.7 673.3,428.7 666.2,428.7 659.1,428.7 652.0,428.7 644.8,428.7 637.7,428.7 630.6,428.7 623.5,428.7 616.4,428.7 609.3,428.7 602.2,428.7 595.1,428.7 587.9,428.9 580.8,428.9 573.7,428.9 566.6,428.9 559.5,428.9 552.4,428.9 545.3,428.9 538.1,428.9 531.0,428.4 523.9,427.1 516.8,427.1 509.7,427.1 502.6,427.1 495.5,427.0 488.4,427.0 481.2,427.0 474.1,427.0 467.0,427.0 459.9,427.0 452.8,427.0 445.7,427.0 438.6,427.0 431.4,427.0 424.3,427.0 417.2,427.0 410.1,427.0 403.0,427.0 395.9,427.1 388.8,427.1 381.6,427.1 374.5,427.3 367.4,427.3 360.3,428.5 353.2,428.5 346.1,428.5 339.0,428.6 331.9,428.7 324.7,437.1 317.6,437.1 310.5,437.1 303.4,437.1 296.3,437.1 289.2,437.1 282.1,437.3 274.9,437.3 267.8,437.4 260.7,437.4 253.6,437.4 246.5,439.3 239.4,439.3 232.3,432.6 225.2,432.6 218.0,432.6 210.9,432.6 203.8,432.6 196.7,432.2 189.6,432.3 182.5,439.4 175.4,439.5 168.2,439.5 161.1,441.6 154.0,442.0 146.9,442.3 139.8,650.0 132.7,650.0 125.6,650.0 118.5,650.0 111.3,650.0 104.2,650.0 97.1,650.0 90.0,650.0" fill="#083fa1" opacity="0.6" class="anim" style="animation-delay:900ms;"/>
<polygon points="90.0,650.0 97.1,650.0 104.2,650.0 111.3,650.0 118.5,650.0 125.6,650.0 132.7,650.0 139.8,650.0 146.9,428.3 154.0,428.1 161.1,427.8 168.2,425.3 175.4,425.3 182.5,425.2 189.6,421.1 196.7,421.1 203.8,421.0 210.9,421.0 218.0,421.0 225.2,421.0 232.3,421.0 239.4,424.3 246.5,424.2 253.6,423.3 260.7,423.3 267.8,423.3 274.9,423.2 282.1,423.2 289.2,423.0 296.3,423.0 303.4,422.9 310.5,422.9 317.6,422.9 324.7,422.9 331.9,418.9 339.0,418.9 346.1,418.8 353.2,418.8 360.3,418.8 367.4,418.3 374.5,418.3 381.6,418.2 388.8,418.2 395.9,418.2 403.0,418.1 410.1,418.1 417.2,418.1 424.3,418.1 431.4,418.1 438.6,418.1 445.7,418.1 452.8,418.1 459.9,418.1 467.0,418.1 474.1,418.1 481.2,418.1 488.4,418.1 495.5,418.1 502.6,418.1 509.7,418.1 516.8,418.1 523.9,418.1 531.0,418.0 538.1,418.0 545.3,418.0 552.4,418.0 559.5,418.0 566.6,418.0 573.7,418.0 580.8,418.0 587.9,418.0 595.1,417.9 602.2,417.9 609.3,417.9 616.4,417.9 623.5,417.9 630.6,417.9 637.7,417.9 644.8,417.9 652.0,417.9 659.1,417.9 666.2,417.9 673.3,417.9 680.4,417.9 687.5,417.9 694.6,417.9 701.8,417.9 708.9,417.9 716.0,417.9 723.1,417.9 730.2,417.9 737.3,417.9 744.4,417.9 751.5,417.9 758.7,417.9 765.8,417.9 772.9,417.3 780.0,416.7 780.0,422.2 772.9,422.9 765.8,423.5 758.7,423.5 751.5,423.5 744.4,423.5 737.3,423.5 730.2,423.5 723.1,423.5 716.0,423.5 708.9,423.5 701.8,423.5 694.6,423.5 687.5,423.5 680.4,423.5 673.3,423.5 666.2,423.5 659.1,423.5 652.0,423.5 644.8,423.5 637.7,423.5 630.6,423.5 623.5,423.5 616.4,423.5 609.3,423.5 602.2,423.5 595.1,423.5 587.9,423.6 580.8,423.6 573.7,423.6 566.6,423.6 559.5,423.6 552.4,423.6 545.3,423.6 538.1,423.6 531.0,423.2 523.9,421.8 516.8,421.8 509.7,421.8 502.6,421.8 495.5,421.7 488.4,421.8 481.2,421.8 474.1,421.8 467.0,421.8 459.9,421.8 452.8,421.8 445.7,421.8 438.6,421.8 431.4,421.8 424.3,421.8 417.2,421.8 410.1,421.8 403.0,421.8 395.9,421.9 388.8,421.9 381.6,421.9 374.5,422.0 367.4,422.0 360.3,422.9 353.2,422.9 346.1,422.9 339.0,422.9 331.9,423.0 324.7,428.8 317.6,428.8 310.5,428.8 303.4,428.8 296.3,428.9 289.2,428.9 282.1,429.2 274.9,429.2 267.8,429.3 260.7,429.3 253.6,429.3 246.5,430.7 239.4,430.8 232.3,426.0 225.2,426.0 218.0,426.0 210.9,426.0 203.8,426.0 196.7,426.1 189.6,426.2 182.5,432.2 175.4,432.2 168.2,432.2 161.1,435.9 154.0,436.3 146.9,436.6 139.8,650.0 132.7,650.0 125.6,650.0 118.5,650.0 111.3,650.0 104.2,650.0 97.1,650.0 90.0,650.0" fill="#F05138" opacity="0.6" class="anim" style="animation-delay:1000ms;"/>
<polygon points="90.0,650.0 97.1,650.0 104.2,650.0 111.3,650.0 118.5,650.0 125.6,650.0 132.7,650.0 139.8,650.0 146.9,418.7 154.0,418.6 161.1,418.5 168.2,417.3 175.4,417.3 182.5,417.2 189.6,415.3 196.7,415.3 203.8,415.2 210.9,415.2 218.0,415.2 225.2,415.2 232.3,415.2 239.4,416.8 246.5,416.8 253.6,416.3 260.7,416.3 267.8,416.3 274.9,416.3 282.1,416.3 289.2,416.2 296.3,416.2 303.4,416.2 310.5,416.2 317.6,416.2 324.7,416.2 331.9,414.2 339.0,414.2 346.1,414.2 353.2,414.2 360.3,414.2 367.4,413.9 374.5,413.9 381.6,413.9 388.8,413.9 395.9,413.9 403.0,413.9 410.1,413.9 417.2,413.9 424.3,413.9 431.4,413.9 438.6,413.9 445.7,413.9 452.8,413.9 459.9,413.9 467.0,413.9 474.1,413.9 481.2,413.9 488.4,413.9 495.5,413.8 502.6,413.8 509.7,413.8 516.8,413.8 523.9,413.8 531.0,413.8 538.1,413.8 545.3,413.8 552.4,413.8 559.5,413.8 566.6,413.8 573.7,413.8 580.8,413.8 587.9,413.8 595.1,413.8 602.2,413.8 609.3,413.8 616.4,413.8 623.5,413.8 630.6,413.8 637.7,413.8 644.8,413.8 652.0,413.8 659.1,413.8 666.2,413.8 673.3,413.8 680.4,413.8 687.5,413.8 694.6,413.8 701.8,413.8 708.9,413.8 716.0,413.8 723.1,413.8 730.2,413.8 737.3,413.8 744.4,413.8 751.5,413.8 758.7,413.8 765.8,413.8 772.9,413.6 780.0,413.4 780.0,416.7 772.9,417.3 765.8,417.9 758.7,417.9 751.5,417.9 744.4,417.9 737.3,417.9 730.2,417.9 723.1,417.9 716.0,417.9 708.9,417.9 701.8,417.9 694.6,417.9 687.5,417.9 680.4,417.9 673.3,417.9 666.2,417.9 659.1,417.9 652.0,417.9 644.8,417.9 637.7,417.9 630.6,417.9 623.5,417.9 616.4,417.9 609.3,417.9 602.2,417.9 595.1,417.9 587.9,418.0 580.8,418.0 573.7,418.0 566.6,418.0 559.5,418.0 552.4,418.0 545.3,418.0 538.1,418.0 531.0,418.0 523.9,418.1 516.8,418.1 509.7,418.1 502.6,418.1 495.5,418.1 488.4,418.1 481.2,418.1 474.1,418.1 467.0,418.1 459.9,418.1 452.8,418.1 445.7,418.1 438.6,418.1 431.4,418.1 424.3,418.1 417.2,418.1 410.1,418.1 403.0,418.1 395.9,418.2 388.8,418.2 381.6,418.2 374.5,418.3 367.4,418.3 360.3,418.8 353.2,418.8 346.1,418.8 339.0,418.9 331.9,418.9 324.7,422.9 317.6,422.9 310.5,422.9 303.4,422.9 296.3,423.0 289.2,423.0 282.1,423.2 274.9,423.2 267.8,423.3 260.7,423.3 253.6,423.3 246.5,424.2 239.4,424.3 232.3,421.0 225.2,421.0 218.0,421.0 210.9,421.0 203.8,421.0 196.7,421.1 189.6,421.1 182.5,425.2 175.4,425.3 168.2,425.3 161.1,427.8 154.0,428.1 146.9,428.3 139.8,650.0 132.7,650.0 125.6,650.0 118.5,650.0 111.3,650.0 104.2,650.0 97.1,650.0 90.0,650.0" fill="#6E4C13" opacity="0.6" class="anim" style="animation-delay:1100ms;"/>
<polygon points="90.0,650.0 97.1,650.0 104.2,650.0 111.3,650.0 118.5,650.0 125.6,650.0 132.7,650.0 139.8,650.0 146.9,414.4 154.0,414.4 161.1,414.3 168.2,413.7 175.4,413.7 182.5,413.7 189.6,412.7 196.7,412.7 203.8,412.7 210.9,412.7 218.0,412.7 225.2,412.7 232.3,412.7 239.4,413.5 246.5,413.4 253.6,413.2 260.7,413.2 267.8,413.2 274.9,413.2 282.1,413.2 289.2,413.1 296.3,413.1 303.4,413.1 310.5,413.1 317.6,413.1 324.7,413.1 331.9,412.2 339.0,412.1 346.1,412.1 353.2,412.1 360.3,412.1 367.4,412.0 374.5,412.0 381.6,412.0 388.8,412.0 395.9,412.0 403.0,412.0 410.1,412.0 417.2,412.0 424.3,412.0 431.4,412.0 438.6,412.0 445.7,412.0 452.8,412.0 459.9,412.0 467.0,412.0 474.1,412.0 481.2,412.0 488.4,412.0 495.5,411.9 502.6,411.9 509.7,411.9 516.8,411.9 523.9,411.9 531.0,411.9 538.1,411.9 545.3,411.9 552.4,411.9 559.5,411.9 566.6,411.9 573.7,411.9 580.8,411.9 587.9,411.9 595.1,411.9 602.2,411.9 609.3,411.9 616.4,411.9 623.5,411.9 630.6,411.9 637.7,411.9 644.8,411.9 652.0,411.9 659.1,411.9 666.2,411.9 673.3,411.9 680.4,411.9 687.5,411.9 694.6,411.9 701.8,411.9 708.9,411.9 716.0,411.9 723.1,411.9 730.2,411.9 737.3,411.9 744.4,411.9 751.5,411.9 758.7,411.9 765.8,411.9 772.9,411.9 780.0,411.9 780.0,413.4 772.9,413.6 765.8,413.8 758.7,413.8 751.5,413.8 744.4,413.8 737.3,413.8 730.2,413.8 723.1,413.8 716.0,413.8 708.9,413.8 701.8,413.8 694.6,413.8 687.5,413.8 680.4,413.8 673.3,413.8 666.2,413.8 659.1,413.8 652.0,413.8 644.8,413.8 637.7,413.8 630.6,413.8 623.5,413.8 616.4,413.8 609.3,413.8 602.2,413.8 595.1,413.8 587.9,413.8 580.8,413.8 573.7,413.8 566.6,413.8 559.5,413.8 552.4,413.8 545.3,413.8 538.1,413.8 531.0,413.8 523.9,413.8 516.8,413.8 509.7,413.8 502.6,413.8 495.5,413.8 488.4,413.9 481.2,413.9 474.1,413.9 467.0,413.9 459.9,413.9 452.8,413.9 445.7,413.9 438.6,413.9 431.4,413.9 424.3,413.9 417.2,413.9 410.1,413.9 403.0,413.9 395.9,413.9 388.8,413.9 381.6,413.9 374.5,413.9 367.4,413.9 360.3,414.2 353.2,414.2 346.1,414.2 339.0,414.2 331.9,414.2 324.7,416.2 317.6,416.2 310.5,416.2 303.4,416.2 296.3,416.2 289.2,416.2 282.1,416.3 274.9,416.3 267.8,416.3 260.7,416.3 253.6,416.3 246.5,416.8 239.4,416.8 232.3,415.2 225.2,415.2 218.0,415.2 210.9,415.2 203.8,415.2 196.7,415.3 189.6,415.3 182.5,417.2 175.4,417.3 168.2,417.3 161.1,418.5 154.0,418.6 146.9,418.7 139.8,650.0 132.7,650.0 125.6,650.0 118.5,650.0 111.3,650.0 104.2,650.0 97.1,650.0 90.0,650.0" fill="#b07219" opacity="0.6" class="anim" style="animation-delay:1200ms;"/>
<line x1="765.8" y1="100" x2="765.8" y2="650" stroke="#c9d1d9" stroke-width="1" stroke-dasharray="4,3" opacity="0.35"/>
<text x="772.9" y="112" text-anchor="middle" class="axis-label" opacity="0.6">Jul 28, 2026</text>
<text x="90.0" y="668" text-anchor="middle" class="axis-label" transform="rotate(-35 90.0 668)">2026-02</text>
<text x="303.4" y="668" text-anchor="middle" class="axis-label" transform="rotate(-35 303.4 668)">2026-03</text>
<text x="516.8" y="668" text-anchor="middle" class="axis-label" transform="rotate(-35 516.8 668)">2026-06</text>
<text x="730.2" y="668" text-anchor="middle" class="axis-label" transform="rotate(-35 730.2 668)">2026-07</text>
<line x1="796" y1="110" x2="824" y2="110" stroke="#3fb950" stroke-width="2"/>
<text x="832" y="116" class="legend-text">Lines Added</text>
<line x1="796" y1="140" x2="824" y2="140" stroke="#f85149" stroke-width="1.5"/>
<text x="832" y="146" class="legend-text">Lines Deleted</text>
<line x1="796" y1="170" x2="824" y2="170" stroke="#e3b341" stroke-width="1.5" stroke-dasharray="4,3"/>
<text x="832" y="176" class="legend-text">&#x2605; Stars</text>
<text x="796" y="200" class="subtitle">Languages</text>
<rect x="796" y="212" width="12" height="12" rx="2" fill="#e34c26" opacity="0.8" class="anim" style="animation-delay:800ms;"/>
<text x="814" y="223" class="legend-text">HTML (58%→56%)</text>
<rect x="796" y="234" width="12" height="12" rx="2" fill="#f1e05a" opacity="0.8" class="anim" style="animation-delay:880ms;"/>
<text x="814" y="245" class="legend-text">JavaScript (22%→25%)</text>
<rect x="796" y="256" width="12" height="12" rx="2" fill="#3572A5" opacity="0.8" class="anim" style="animation-delay:960ms;"/>
<text x="814" y="267" class="legend-text">Python (7%→6%)</text>
<rect x="796" y="278" width="12" height="12" rx="2" fill="#663399" opacity="0.8" class="anim" style="animation-delay:1040ms;"/>
<text x="814" y="289" class="legend-text">CSS (6%→6%)</text>
<rect x="796" y="300" width="12" height="12" rx="2" fill="#083fa1" opacity="0.8" class="anim" style="animation-delay:1120ms;"/>
<text x="814" y="311" class="legend-text">Markdown (2%→2%)</text>
<rect x="796" y="322" width="12" height="12" rx="2" fill="#F05138" opacity="0.8" class="anim" style="animation-delay:1200ms;"/>
<text x="814" y="333" class="legend-text">Swift (2%)</text>
<rect x="796" y="344" width="12" height="12" rx="2" fill="#6E4C13" opacity="0.8" class="anim" style="animation-delay:1280ms;"/>
<text x="814" y="355" class="legend-text">Assembly (2%→1%)</text>
<rect x="796" y="366" width="12" height="12" rx="2" fill="#b07219" opacity="0.8" class="anim" style="animation-delay:1360ms;"/>
<text x="814" y="377" class="legend-text">Java (1%→1%)</text>
<text x="796" y="412" class="subtitle">Contributions</text>
<text x="796" y="432" class="axis-label">2023: 39</text>
<text x="796" y="452" class="axis-label">2024: 646</text>
<text x="796" y="472" class="axis-label">2025: 1,780</text>
<text x="796" y="492" class="axis-label">2026: 491</text>
<text x="796" y="522" class="subtitle">Statistics</text>
<text x="796" y="542" class="axis-label">Active weeks: 88</text>
<text x="796" y="562" class="axis-label">Add/Del ratio: 1.8x</text>
<text x="796" y="582" class="axis-label">Avg lines/wk: 18K</text>
<text x="796" y="602" class="axis-label">Peak: 2026-02-15</text>
<text x="796" y="622" class="axis-label">  (543K lines)</text>
<text x="90" y="742" class="axis-label">Total: +1,040,332 / -576,819 lines &#xb7; 2,956 contributions &#xb7; 80 repos &#xb7; &#x2605; 37</text>
</svg>