<svg xmlns="http://www.w3.org/2000/svg" width="1000" height="760" viewBox="0 0 1000 760">

<defs>
  <linearGradient id="areaGrad" x1="0" y1="0" x2="0" y2="1">
    <stop offset="0%" stop-color="#58a6ff" stop-opacity="0.35"/>
    <stop offset="100%" stop-color="#58a6ff" stop-opacity="0.02"/>
  </linearGradient>
  <linearGradient id="addGrad" x1="0" y1="0" x2="0" y2="1">
    <stop offset="0%" stop-color="#3fb950" stop-opacity="0.35"/>
    <stop offset="100%" stop-color="#3fb950" stop-opacity="0.02"/>
  </linearGradient>
  <linearGradient id="delGrad" x1="0" y1="0" x2="0" y2="1">
    <stop offset="0%" stop-color="#f85149" stop-opacity="0.25"/>
    <stop offset="100%" stop-color="#f85149" stop-opacity="0.02"/>
  </linearGradient>
</defs>
<style>
  .title { font: bold 16px 'Segoe UI', Ubuntu, Sans-Serif; fill: #c9d1d9; }
  .subtitle { font: 600 12px 'Segoe UI', Ubuntu, Sans-Serif; fill: #c9d1d9; opacity: 0.8; }
  .axis-label { font: 11px 'Segoe UI', Ubuntu, Sans-Serif; fill: #c9d1d9; opacity: 0.7; }
  .legend-text { font: 12px 'Segoe UI', Ubuntu, Sans-Serif; fill: #c9d1d9; }
  .value-text { font: bold 11px 'Segoe UI', Ubuntu, Sans-Serif; fill: #c9d1d9; }
  .stat-value { font: bold 13px 'Segoe UI', Ubuntu, Sans-Serif; fill: #c9d1d9; }
  .stat-label { font: 11px 'Segoe UI', Ubuntu, Sans-Serif; fill: #c9d1d9; opacity: 0.7; }
  @keyframes fadeIn { from { opacity: 0; } to { opacity: 1; } }
  .anim { animation: fadeIn 0.6s ease-in-out forwards; opacity: 0; }
</style>

<rect x="0.5" y="0.5" rx="4.5" width="999" height="759" fill="#161b22" stroke="#21262d"/>
<text x="65" y="30" class="title">Activity History</text>
<text x="65" y="48" class="subtitle">Lines added vs deleted &amp; activity trends over time</text>
<line x1="65" y1="240.0" x2="820" y2="240.0" stroke="#21262d" stroke-width="1"/>
<text x="57" y="244.0" text-anchor="end" class="axis-label">0</text>
<line x1="65" y1="195.0" x2="820" y2="195.0" stroke="#21262d" stroke-width="1"/>
<text x="57" y="199.0" text-anchor="end" class="axis-label">293,761</text>
<line x1="65" y1="150.0" x2="820" y2="150.0" stroke="#21262d" stroke-width="1"/>
<text x="57" y="154.0" text-anchor="end" class="axis-label">587,522</text>
<line x1="65" y1="105.0" x2="820" y2="105.0" stroke="#21262d" stroke-width="1"/>
<text x="57" y="109.0" text-anchor="end" class="axis-label">881,283</text>
<line x1="65" y1="60.0" x2="820" y2="60.0" stroke="#21262d" stroke-width="1"/>
<text x="57" y="64.0" text-anchor="end" class="axis-label">1,175,044</text>
<polygon points="65.0,240.0 65.0,184.1 102.8,186.1 140.5,184.1 178.2,186.1 216.0,199.0 253.8,173.4 291.5,173.4 329.2,163.7 367.0,163.3 404.8,162.7 442.5,162.7 480.2,145.5 518.0,145.4 555.8,145.4 593.5,119.9 631.2,119.6 669.0,119.3 706.8,119.3 744.5,119.3 782.2,119.3 820.0,119.3 820.0,240.0" fill="url(#addGrad)" class="anim" style="animation-delay:200ms;"/>
<polyline points="65.0,184.1 102.8,186.1 140.5,184.1 178.2,186.1 216.0,199.0 253.8,173.4 291.5,173.4 329.2,163.7 367.0,163.3 404.8,162.7 442.5,162.7 480.2,145.5 518.0,145.4 555.8,145.4 593.5,119.9 631.2,119.6 669.0,119.3 706.8,119.3 744.5,119.3 782.2,119.3 820.0,119.3" fill="none" stroke="#3fb950" stroke-width="2" stroke-linejoin="round" class="anim" style="animation-delay:250ms;"/>
<polygon points="65.0,240.0 65.0,224.3 102.8,225.9 140.5,224.3 178.2,225.9 216.0,232.6 253.8,222.4 291.5,222.4 329.2,221.2 367.0,220.9 404.8,220.5 442.5,220.5 480.2,202.0 518.0,202.0 555.8,201.9 593.5,180.9 631.2,180.8 669.0,180.7 706.8,180.7 744.5,180.7 782.2,180.7 820.0,180.7 820.0,240.0" fill="url(#delGrad)" class="anim" style="animation-delay:300ms;"/>
<polyline points="65.0,224.3 102.8,225.9 140.5,224.3 178.2,225.9 216.0,232.6 253.8,222.4 291.5,222.4 329.2,221.2 367.0,220.9 404.8,220.5 442.5,220.5 480.2,202.0 518.0,202.0 555.8,201.9 593.5,180.9 631.2,180.8 669.0,180.7 706.8,180.7 744.5,180.7 782.2,180.7 820.0,180.7" fill="none" stroke="#f85149" stroke-width="1.5" stroke-linejoin="round" class="anim" style="animation-delay:350ms;"/>
<polyline points="65.0,240.0 102.8,240.0 140.5,240.0 178.2,240.0 216.0,240.0 253.8,240.0 291.5,240.0 329.2,240.0 367.0,96.0 404.8,96.0 442.5,96.0 480.2,96.0 518.0,96.0 555.8,96.0 593.5,96.0 631.2,96.0 669.0,96.0 706.8,96.0 744.5,96.0 782.2,96.0 820.0,96.0" fill="none" stroke="#e3b341" stroke-width="1.5" stroke-dasharray="4,3" stroke-linejoin="round" class="anim" style="animation-delay:400ms;"/>
<text x="65" y="54" class="subtitle">Lines Added vs Deleted (per snapshot)</text>
<text x="65" y="294" class="subtitle">Programming Language Development (%)</text>
<line x1="65" y1="480.0" x2="820" y2="480.0" stroke="#21262d" stroke-width="1"/>
<text x="57" y="484.0" text-anchor="end" class="axis-label">0%</text>
<line x1="65" y1="435.0" x2="820" y2="435.0" stroke="#21262d" stroke-width="1"/>
<text x="57" y="439.0" text-anchor="end" class="axis-label">25%</text>
<line x1="65" y1="390.0" x2="820" y2="390.0" stroke="#21262d" stroke-width="1"/>
<text x="57" y="394.0" text-anchor="end" class="axis-label">50%</text>
<line x1="65" y1="345.0" x2="820" y2="345.0" stroke="#21262d" stroke-width="1"/>
<text x="57" y="349.0" text-anchor="end" class="axis-label">75%</text>
<line x1="65" y1="300.0" x2="820" y2="300.0" stroke="#21262d" stroke-width="1"/>
<text x="57" y="304.0" text-anchor="end" class="axis-label">100%</text>
<polygon points="65.0,480.0 102.8,480.0 140.5,480.0 178.2,480.0 216.0,480.0 253.8,480.0 291.5,480.0 329.2,480.0 367.0,388.6 404.8,388.8 442.5,389.8 480.2,366.9 518.0,366.9 555.8,369.6 593.5,356.3 631.2,356.3 669.0,356.5 706.8,356.5 744.5,356.5 782.2,356.5 820.0,356.5 820.0,480.0 782.2,480.0 744.5,480.0 706.8,480.0 669.0,480.0 631.2,480.0 593.5,480.0 555.8,480.0 518.0,480.0 480.2,480.0 442.5,480.0 404.8,480.0 367.0,480.0 329.2,480.0 291.5,480.0 253.8,480.0 216.0,480.0 178.2,480.0 140.5,480.0 102.8,480.0 65.0,480.0" fill="#e34c26" opacity="0.6" class="anim" style="animation-delay:500ms;"/>
<polygon points="65.0,480.0 102.8,480.0 140.5,480.0 178.2,480.0 216.0,480.0 253.8,480.0 291.5,480.0 329.2,480.0 367.0,358.8 404.8,358.5 442.5,359.2 480.2,349.5 518.0,349.5 555.8,350.4 593.5,337.6 631.2,337.6 669.0,338.0 706.8,338.0 744.5,338.0 782.2,338.0 820.0,338.0 820.0,356.5 782.2,356.5 744.5,356.5 706.8,356.5 669.0,356.5 631.2,356.3 593.5,356.3 555.8,369.6 518.0,366.9 480.2,366.9 442.5,389.8 404.8,388.8 367.0,388.6 329.2,480.0 291.5,480.0 253.8,480.0 216.0,480.0 178.2,480.0 140.5,480.0 102.8,480.0 65.0,480.0" fill="#f1e05a" opacity="0.6" class="anim" style="animation-delay:600ms;"/>
<polygon points="65.0,480.0 102.8,480.0 140.5,480.0 178.2,480.0 216.0,480.0 253.8,480.0 291.5,480.0 329.2,480.0 367.0,334.2 404.8,334.0 442.5,333.9 480.2,327.7 518.0,327.7 555.8,328.6 593.5,321.7 631.2,321.7 669.0,322.2 706.8,322.2 744.5,322.2 782.2,322.2 820.0,322.2 820.0,338.0 782.2,338.0 744.5,338.0 706.8,338.0 669.0,338.0 631.2,337.6 593.5,337.6 555.8,350.4 518.0,349.5 480.2,349.5 442.5,359.2 404.8,358.5 367.0,358.8 329.2,480.0 291.5,480.0 253.8,480.0 216.0,480.0 178.2,480.0 140.5,480.0 102.8,480.0 65.0,480.0" fill="#3572A5" opacity="0.6" class="anim" style="animation-delay:700ms;"/>
<polygon points="65.0,480.0 102.8,480.0 140.5,480.0 178.2,480.0 216.0,480.0 253.8,480.0 291.5,480.0 329.2,480.0 367.0,324.2 404.8,324.0 442.5,323.7 480.2,322.1 518.0,322.1 555.8,322.1 593.5,316.7 631.2,316.6 669.0,316.9 706.8,316.9 744.5,316.9 782.2,316.9 820.0,316.9 820.0,322.2 782.2,322.2 744.5,322.2 706.8,322.2 669.0,322.2 631.2,321.7 593.5,321.7 555.8,328.6 518.0,327.7 480.2,327.7 442.5,333.9 404.8,334.0 367.0,334.2 329.2,480.0 291.5,480.0 253.8,480.0 216.0,480.0 178.2,480.0 140.5,480.0 102.8,480.0 65.0,480.0" fill="#663399" opacity="0.6" class="anim" style="animation-delay:800ms;"/>
<polygon points="65.0,480.0 102.8,480.0 140.5,480.0 178.2,480.0 216.0,480.0 253.8,480.0 291.5,480.0 329.2,480.0 367.0,317.0 404.8,316.9 442.5,316.7 480.2,316.1 518.0,316.1 555.8,316.1 593.5,312.3 631.2,312.3 669.0,312.6 706.8,312.6 744.5,312.6 782.2,312.6 820.0,312.6 820.0,316.9 782.2,316.9 744.5,316.9 706.8,316.9 669.0,316.9 631.2,316.6 593.5,316.7 555.8,322.1 518.0,322.1 480.2,322.1 442.5,323.7 404.8,324.0 367.0,324.2 329.2,480.0 291.5,480.0 253.8,480.0 216.0,480.0 178.2,480.0 140.5,480.0 102.8,480.0 65.0,480.0" fill="#6E4C13" opacity="0.6" class="anim" style="animation-delay:900ms;"/>
<polygon points="65.0,480.0 102.8,480.0 140.5,480.0 178.2,480.0 216.0,480.0 253.8,480.0 291.5,480.0 329.2,480.0 367.0,312.7 404.8,312.6 442.5,312.4 480.2,310.7 518.0,310.7 555.8,310.6 593.5,307.8 631.2,307.7 669.0,307.7 706.8,307.7 744.5,307.7 782.2,307.7 820.0,307.7 820.0,312.6 782.2,312.6 744.5,312.6 706.8,312.6 669.0,312.6 631.2,312.3 593.5,312.3 555.8,316.1 518.0,316.1 480.2,316.1 442.5,316.7 404.8,316.9 367.0,317.0 329.2,480.0 291.5,480.0 253.8,480.0 216.0,480.0 178.2,480.0 140.5,480.0 102.8,480.0 65.0,480.0" fill="#083fa1" opacity="0.6" class="anim" style="animation-delay:1000ms;"/>
<polygon points="65.0,480.0 102.8,480.0 140.5,480.0 178.2,480.0 216.0,480.0 253.8,480.0 291.5,480.0 329.2,480.0 367.0,306.5 404.8,306.5 442.5,306.4 480.2,305.4 518.0,305.4 555.8,305.4 593.5,304.0 631.2,304.0 669.0,303.9 706.8,303.9 744.5,303.9 782.2,303.9 820.0,303.9 820.0,307.7 782.2,307.7 744.5,307.7 706.8,307.7 669.0,307.7 631.2,307.7 593.5,307.8 555.8,310.6 518.0,310.7 480.2,310.7 442.5,312.4 404.8,312.6 367.0,312.7 329.2,480.0 291.5,480.0 253.8,480.0 216.0,480.0 178.2,480.0 140.5,480.0 102.8,480.0 65.0,480.0" fill="#F05138" opacity="0.6" class="anim" style="animation-delay:1100ms;"/>
<polygon points="65.0,480.0 102.8,480.0 140.5,480.0 178.2,480.0 216.0,480.0 253.8,480.0 291.5,480.0 329.2,480.0 367.0,303.3 404.8,303.3 442.5,303.2 480.2,302.8 518.0,302.8 555.8,302.8 593.5,302.0 631.2,302.0 669.0,302.0 706.8,302.0 744.5,302.0 782.2,302.0 820.0,302.0 820.0,303.9 782.2,303.9 744.5,303.9 706.8,303.9 669.0,303.9 631.2,304.0 593.5,304.0 555.8,305.4 518.0,305.4 480.2,305.4 442.5,306.4 404.8,306.5 367.0,306.5 329.2,480.0 291.5,480.0 253.8,480.0 216.0,480.0 178.2,480.0 140.5,480.0 102.8,480.0 65.0,480.0" fill="#b07219" opacity="0.6" class="anim" style="animation-delay:1200ms;"/>
<text x="65.0" y="498" text-anchor="middle" class="axis-label" transform="rotate(-35 65.0 498)">2026-02-06</text>
<text x="140.5" y="498" text-anchor="middle" class="axis-label" transform="rotate(-35 140.5 498)">2026-02-08</text>
<text x="216.0" y="498" text-anchor="middle" class="axis-label" transform="rotate(-35 216.0 498)">2026-02-10</text>
<text x="291.5" y="498" text-anchor="middle" class="axis-label" transform="rotate(-35 291.5 498)">2026-02-12</text>
<text x="367.0" y="498" text-anchor="middle" class="axis-label" transform="rotate(-35 367.0 498)">2026-02-14</text>
<text x="442.5" y="498" text-anchor="middle" class="axis-label" transform="rotate(-35 442.5 498)">2026-02-16</text>
<text x="518.0" y="498" text-anchor="middle" class="axis-label" transform="rotate(-35 518.0 498)">2026-02-18</text>
<text x="593.5" y="498" text-anchor="middle" class="axis-label" transform="rotate(-35 593.5 498)">2026-02-20</text>
<text x="669.0" y="498" text-anchor="middle" class="axis-label" transform="rotate(-35 669.0 498)">2026-02-22</text>
<text x="744.5" y="498" text-anchor="middle" class="axis-label" transform="rotate(-35 744.5 498)">2026-02-24</text>
<text x="820.0" y="498" text-anchor="middle" class="axis-label" transform="rotate(-35 820.0 498)">2026-02-26</text>
<line x1="836" y1="70" x2="856" y2="70" stroke="#3fb950" stroke-width="2"/>
<text x="862" y="74" class="legend-text">Lines Added</text>
<line x1="836" y1="88" x2="856" y2="88" stroke="#f85149" stroke-width="1.5"/>
<text x="862" y="92" class="legend-text">Lines Deleted</text>
<line x1="836" y1="108" x2="856" y2="108" stroke="#e3b341" stroke-width="1.5" stroke-dasharray="4,3"/>
<text x="862" y="112" class="legend-text">&#x2605; Stars</text>
<text x="836" y="142" class="subtitle">Languages</text>
<rect x="836" y="153" width="12" height="12" rx="2" fill="#e34c26" opacity="0.8" class="anim" style="animation-delay:800ms;"/>
<text x="854" y="163" class="legend-text">HTML (68.6%)</text>
<rect x="836" y="175" width="12" height="12" rx="2" fill="#f1e05a" opacity="0.8" class="anim" style="animation-delay:880ms;"/>
<text x="854" y="185" class="legend-text">JavaScript (10.3%)</text>
<rect x="836" y="197" width="12" height="12" rx="2" fill="#3572A5" opacity="0.8" class="anim" style="animation-delay:960ms;"/>
<text x="854" y="207" class="legend-text">Python (8.8%)</text>
<rect x="836" y="219" width="12" height="12" rx="2" fill="#663399" opacity="0.8" class="anim" style="animation-delay:1040ms;"/>
<text x="854" y="229" class="legend-text">CSS (2.9%)</text>
<rect x="836" y="241" width="12" height="12" rx="2" fill="#6E4C13" opacity="0.8" class="anim" style="animation-delay:1120ms;"/>
<text x="854" y="251" class="legend-text">Assembly (2.4%)</text>
<rect x="836" y="263" width="12" height="12" rx="2" fill="#083fa1" opacity="0.8" class="anim" style="animation-delay:1200ms;"/>
<text x="854" y="273" class="legend-text">Markdown (2.7%)</text>
<rect x="836" y="285" width="12" height="12" rx="2" fill="#F05138" opacity="0.8" class="anim" style="animation-delay:1280ms;"/>
<text x="854" y="295" class="legend-text">Swift (2.1%)</text>
<rect x="836" y="307" width="12" height="12" rx="2" fill="#b07219" opacity="0.8" class="anim" style="animation-delay:1360ms;"/>
<text x="854" y="317" class="legend-text">Java (1.1%)</text>
<text x="836" y="358" class="subtitle">Contributions</text>
<text x="836" y="376" class="axis-label">2023: 39</text>
<text x="836" y="392" class="axis-label">2024: 646</text>
<text x="836" y="408" class="axis-label">2025: 1,780</text>
<text x="836" y="424" class="axis-label">2026: 292</text>
<text x="836" y="450" class="subtitle">Statistics</text>
<text x="836" y="468" class="axis-label">Active weeks: 75</text>
<text x="836" y="483" class="axis-label">Add/Del ratio: 2.0x</text>
<text x="836" y="498" class="axis-label">Avg lines/week: 15,667</text>
<text x="836" y="513" class="axis-label">Peak: 2026-02-15</text>
<text x="836" y="528" class="axis-label">  (542,929 lines)</text>
<text x="65" y="746" class="axis-label">Total: +788,255 / -386,789 lines &#xb7; 2,757 contributions &#xb7; 71 repos &#xb7; &#x2605; 33</text>
</svg>