<svg xmlns="http://www.w3.org/2000/svg" width="1000" height="760" style="max-width: 100%;" viewBox="0 0 1000 760">

<defs>
  <linearGradient id="areaGrad" x1="0" y1="0" x2="0" y2="1">
    <stop offset="0%" stop-color="#58a6ff" stop-opacity="0.35"/>
    <stop offset="100%" stop-color="#58a6ff" stop-opacity="0.02"/>
  </linearGradient>
  <linearGradient id="addGrad" x1="0" y1="0" x2="0" y2="1">
    <stop offset="0%" stop-color="#3fb950" stop-opacity="0.35"/>
    <stop offset="100%" stop-color="#3fb950" stop-opacity="0.02"/>
  </linearGradient>
  <linearGradient id="delGrad" x1="0" y1="0" x2="0" y2="1">
    <stop offset="0%" stop-color="#f85149" stop-opacity="0.25"/>
    <stop offset="100%" stop-color="#f85149" stop-opacity="0.02"/>
  </linearGradient>
</defs>
<style>
  .title { font: bold 28px 'Segoe UI', Ubuntu, Sans-Serif; fill: #c9d1d9; }
  .subtitle { font: 600 20px 'Segoe UI', Ubuntu, Sans-Serif; fill: #c9d1d9; opacity: 0.8; }
  .axis-label { font: 18px 'Segoe UI', Ubuntu, Sans-Serif; fill: #c9d1d9; opacity: 0.7; }
  .legend-text { font: 14px 'Segoe UI', Ubuntu, Sans-Serif; fill: #c9d1d9; }
  .value-text { font: bold 18px 'Segoe UI', Ubuntu, Sans-Serif; fill: #c9d1d9; }
  .stat-value { font: bold 22px 'Segoe UI', Ubuntu, Sans-Serif; fill: #c9d1d9; }
  .stat-label { font: 18px 'Segoe UI', Ubuntu, Sans-Serif; fill: #c9d1d9; opacity: 0.7; }
  @keyframes fadeIn { from { opacity: 0; } to { opacity: 1; } }
  .anim { animation: fadeIn 0.6s ease-in-out forwards; opacity: 0; }
</style>

<rect x="0.5" y="0.5" rx="4.5" width="999" height="759" fill="#161b22" stroke="#21262d"/>
<text x="90" y="45" class="title">Activity History</text>
<text x="90" y="72" class="subtitle">Lines added vs deleted &amp; activity trends over time</text>
<line x1="90" y1="340.0" x2="780" y2="340.0" stroke="#21262d" stroke-width="1"/>
<text x="82" y="344.0" text-anchor="end" class="axis-label">0</text>
<line x1="90" y1="280.0" x2="780" y2="280.0" stroke="#21262d" stroke-width="1"/>
<text x="82" y="284.0" text-anchor="end" class="axis-label">440K</text>
<line x1="90" y1="220.0" x2="780" y2="220.0" stroke="#21262d" stroke-width="1"/>
<text x="82" y="224.0" text-anchor="end" class="axis-label">880K</text>
<line x1="90" y1="160.0" x2="780" y2="160.0" stroke="#21262d" stroke-width="1"/>
<text x="82" y="164.0" text-anchor="end" class="axis-label">1.3M</text>
<line x1="90" y1="100.0" x2="780" y2="100.0" stroke="#21262d" stroke-width="1"/>
<text x="82" y="104.0" text-anchor="end" class="axis-label">1.8M</text>
<polygon points="90.0,340.0 90.0,290.2 101.5,292.0 113.0,290.2 124.5,292.0 136.0,303.5 147.5,280.7 159.0,280.7 170.5,272.1 182.0,271.7 193.5,271.2 205.0,271.1 216.5,255.8 228.0,255.8 239.5,255.8 251.0,233.0 262.5,232.8 274.0,232.5 285.5,232.5 297.0,232.5 308.5,232.5 320.0,232.5 331.5,231.9 343.0,216.7 354.5,216.7 366.0,216.7 377.5,216.7 389.0,216.3 400.5,216.3 412.0,215.7 423.5,215.7 435.0,215.6 446.5,215.6 458.0,215.6 469.5,215.6 481.0,215.7 492.5,215.6 504.0,215.6 515.5,215.6 527.0,215.6 538.5,215.6 550.0,215.6 561.5,214.9 573.0,215.2 584.5,214.5 596.0,214.2 607.5,214.2 619.0,214.2 630.5,214.2 642.0,214.2 653.5,214.2 665.0,214.1 676.5,214.1 688.0,214.1 699.5,214.2 711.0,214.5 722.5,216.0 734.0,214.5 745.5,213.2 757.0,213.1 768.5,204.3 780.0,195.5 780.0,340.0" fill="url(#addGrad)" class="anim" style="animation-delay:200ms;"/>
<polyline points="90.0,290.2 101.5,292.0 113.0,290.2 124.5,292.0 136.0,303.5 147.5,280.7 159.0,280.7 170.5,272.1 182.0,271.7 193.5,271.2 205.0,271.1 216.5,255.8 228.0,255.8 239.5,255.8 251.0,233.0 262.5,232.8 274.0,232.5 285.5,232.5 297.0,232.5 308.5,232.5 320.0,232.5 331.5,231.9 343.0,216.7 354.5,216.7 366.0,216.7 377.5,216.7 389.0,216.3 400.5,216.3 412.0,215.7 423.5,215.7 435.0,215.6 446.5,215.6 458.0,215.6 469.5,215.6 481.0,215.7 492.5,215.6 504.0,215.6 515.5,215.6 527.0,215.6 538.5,215.6 550.0,215.6 561.5,214.9 573.0,215.2 584.5,214.5 596.0,214.2 607.5,214.2 619.0,214.2 630.5,214.2 642.0,214.2 653.5,214.2 665.0,214.1 676.5,214.1 688.0,214.1 699.5,214.2 711.0,214.5 722.5,216.0 734.0,214.5 745.5,213.2 757.0,213.1" fill="none" stroke="#3fb950" stroke-width="2" stroke-linejoin="round" class="anim" style="animation-delay:250ms;"/>
<polyline points="757.0,213.1 768.5,204.3 780.0,195.5" fill="none" stroke="#3fb950" stroke-width="1.5" stroke-dasharray="5,4" stroke-linejoin="round" opacity="0.6" class="anim" style="animation-delay:250ms;"/>
<polygon points="90.0,340.0 90.0,326.0 101.5,327.5 113.0,326.0 124.5,327.4 136.0,333.4 147.5,324.3 159.0,324.3 170.5,323.3 182.0,323.0 193.5,322.7 205.0,322.6 216.5,306.1 228.0,306.1 239.5,306.1 251.0,287.4 262.5,287.3 274.0,287.2 285.5,287.2 297.0,287.2 308.5,287.2 320.0,287.2 331.5,277.5 343.0,262.6 354.5,262.5 366.0,262.5 377.5,262.5 389.0,262.4 400.5,262.4 412.0,262.4 423.5,262.3 435.0,262.3 446.5,262.3 458.0,262.3 469.5,262.3 481.0,262.3 492.5,262.3 504.0,262.3 515.5,262.3 527.0,262.3 538.5,262.3 550.0,262.3 561.5,262.3 573.0,262.4 584.5,261.9 596.0,261.9 607.5,261.9 619.0,261.9 630.5,261.9 642.0,261.9 653.5,261.9 665.0,261.9 676.5,261.9 688.0,261.9 699.5,261.9 711.0,262.0 722.5,262.8 734.0,262.3 745.5,261.4 757.0,261.4 768.5,252.9 780.0,244.5 780.0,340.0" fill="url(#delGrad)" class="anim" style="animation-delay:300ms;"/>
<polyline points="90.0,326.0 101.5,327.5 113.0,326.0 124.5,327.4 136.0,333.4 147.5,324.3 159.0,324.3 170.5,323.3 182.0,323.0 193.5,322.7 205.0,322.6 216.5,306.1 228.0,306.1 239.5,306.1 251.0,287.4 262.5,287.3 274.0,287.2 285.5,287.2 297.0,287.2 308.5,287.2 320.0,287.2 331.5,277.5 343.0,262.6 354.5,262.5 366.0,262.5 377.5,262.5 389.0,262.4 400.5,262.4 412.0,262.4 423.5,262.3 435.0,262.3 446.5,262.3 458.0,262.3 469.5,262.3 481.0,262.3 492.5,262.3 504.0,262.3 515.5,262.3 527.0,262.3 538.5,262.3 550.0,262.3 561.5,262.3 573.0,262.4 584.5,261.9 596.0,261.9 607.5,261.9 619.0,261.9 630.5,261.9 642.0,261.9 653.5,261.9 665.0,261.9 676.5,261.9 688.0,261.9 699.5,261.9 711.0,262.0 722.5,262.8 734.0,262.3 745.5,261.4 757.0,261.4" fill="none" stroke="#f85149" stroke-width="1.5" stroke-linejoin="round" class="anim" style="animation-delay:350ms;"/>
<polyline points="757.0,261.4 768.5,252.9 780.0,244.5" fill="none" stroke="#f85149" stroke-width="1" stroke-dasharray="5,4" stroke-linejoin="round" opacity="0.6" class="anim" style="animation-delay:350ms;"/>
<polyline points="90.0,340.0 101.5,340.0 113.0,340.0 124.5,340.0 136.0,340.0 147.5,340.0 159.0,340.0 170.5,340.0 182.0,301.6 193.5,301.6 205.0,301.6 216.5,301.6 228.0,301.6 239.5,301.6 251.0,301.6 262.5,301.6 274.0,301.6 285.5,301.6 297.0,301.6 308.5,301.6 320.0,301.6 331.5,301.6 343.0,301.6 354.5,301.6 366.0,301.6 377.5,301.6 389.0,301.6 400.5,301.6 412.0,301.6 423.5,301.6 435.0,301.6 446.5,301.6 458.0,301.6 469.5,301.6 481.0,263.2 492.5,263.2 504.0,263.2 515.5,263.2 527.0,263.2 538.5,263.2 550.0,263.2 561.5,263.2 573.0,224.8 584.5,224.8 596.0,224.8 607.5,224.8 619.0,224.8 630.5,224.8 642.0,224.8 653.5,224.8 665.0,224.8 676.5,224.8 688.0,224.8 699.5,224.8 711.0,224.8 722.5,224.8 734.0,224.8 745.5,224.8 757.0,148.0" fill="none" stroke="#e3b341" stroke-width="1.5" stroke-dasharray="4,3" stroke-linejoin="round" class="anim" style="animation-delay:400ms;"/>
<polyline points="757.0,148.0 768.5,148.0 780.0,148.0" fill="none" stroke="#e3b341" stroke-width="1" stroke-dasharray="3,5" stroke-linejoin="round" opacity="0.5" class="anim" style="animation-delay:400ms;"/>
<text x="90" y="90" class="subtitle">Lines Added vs Deleted (per snapshot)</text>
<text x="90" y="400" class="subtitle">Programming Language Development (%)</text>
<line x1="90" y1="650.0" x2="780" y2="650.0" stroke="#21262d" stroke-width="1"/>
<text x="82" y="654.0" text-anchor="end" class="axis-label">0%</text>
<line x1="90" y1="590.0" x2="780" y2="590.0" stroke="#21262d" stroke-width="1"/>
<text x="82" y="594.0" text-anchor="end" class="axis-label">25%</text>
<line x1="90" y1="530.0" x2="780" y2="530.0" stroke="#21262d" stroke-width="1"/>
<text x="82" y="534.0" text-anchor="end" class="axis-label">50%</text>
<line x1="90" y1="470.0" x2="780" y2="470.0" stroke="#21262d" stroke-width="1"/>
<text x="82" y="474.0" text-anchor="end" class="axis-label">75%</text>
<line x1="90" y1="410.0" x2="780" y2="410.0" stroke="#21262d" stroke-width="1"/>
<text x="82" y="414.0" text-anchor="end" class="axis-label">100%</text>
<polygon points="90.0,650.0 101.5,650.0 113.0,650.0 124.5,650.0 136.0,650.0 147.5,650.0 159.0,650.0 170.5,650.0 182.0,528.2 193.5,528.5 205.0,529.7 216.5,499.3 228.0,499.3 239.5,502.9 251.0,485.0 262.5,485.1 274.0,485.4 285.5,485.4 297.0,485.4 308.5,485.4 320.0,485.4 331.5,496.4 343.0,496.7 354.5,491.0 366.0,491.0 377.5,491.0 389.0,491.7 400.5,491.8 412.0,494.0 423.5,494.0 435.0,494.4 446.5,494.4 458.0,494.4 469.5,494.4 481.0,507.6 492.5,507.6 504.0,507.9 515.5,507.9 527.0,507.9 538.5,506.3 550.0,506.4 561.5,506.8 573.0,506.9 584.5,506.8 596.0,507.5 607.5,507.5 619.0,507.5 630.5,507.5 642.0,507.5 653.5,507.5 665.0,507.5 676.5,507.5 688.0,507.5 699.5,507.5 711.0,507.5 722.5,507.5 734.0,507.5 745.5,508.6 757.0,508.6 768.5,510.3 780.0,512.0 780.0,650.0 768.5,650.0 757.0,650.0 745.5,650.0 734.0,650.0 722.5,650.0 711.0,650.0 699.5,650.0 688.0,650.0 676.5,650.0 665.0,650.0 653.5,650.0 642.0,650.0 630.5,650.0 619.0,650.0 607.5,650.0 596.0,650.0 584.5,650.0 573.0,650.0 561.5,650.0 550.0,650.0 538.5,650.0 527.0,650.0 515.5,650.0 504.0,650.0 492.5,650.0 481.0,650.0 469.5,650.0 458.0,650.0 446.5,650.0 435.0,650.0 423.5,650.0 412.0,650.0 400.5,650.0 389.0,650.0 377.5,650.0 366.0,650.0 354.5,650.0 343.0,650.0 331.5,650.0 320.0,650.0 308.5,650.0 297.0,650.0 285.5,650.0 274.0,650.0 262.5,650.0 251.0,650.0 239.5,650.0 228.0,650.0 216.5,650.0 205.0,650.0 193.5,650.0 182.0,650.0 170.5,650.0 159.0,650.0 147.5,650.0 136.0,650.0 124.5,650.0 113.0,650.0 101.5,650.0 90.0,650.0" fill="#e34c26" opacity="0.6" class="anim" style="animation-delay:500ms;"/>
<polygon points="90.0,650.0 101.5,650.0 113.0,650.0 124.5,650.0 136.0,650.0 147.5,650.0 159.0,650.0 170.5,650.0 182.0,488.4 193.5,488.0 205.0,489.0 216.5,476.0 228.0,476.0 239.5,477.2 251.0,460.1 262.5,460.2 274.0,460.6 285.5,460.6 297.0,460.6 308.5,460.6 320.0,460.6 331.5,473.0 343.0,473.5 354.5,469.5 366.0,469.5 377.5,469.5 389.0,469.7 400.5,469.7 412.0,469.7 423.5,469.7 435.0,469.7 446.5,469.7 458.0,469.7 469.5,469.7 481.0,455.6 492.5,455.6 504.0,455.4 515.5,455.4 527.0,455.4 538.5,454.3 550.0,454.3 561.5,455.0 573.0,455.1 584.5,454.9 596.0,455.9 607.5,455.9 619.0,455.9 630.5,455.9 642.0,455.9 653.5,455.9 665.0,455.9 676.5,455.9 688.0,455.9 699.5,455.9 711.0,455.9 722.5,455.9 734.0,455.9 745.5,455.8 757.0,455.8 768.5,452.8 780.0,449.7 780.0,512.0 768.5,510.3 757.0,508.6 745.5,508.6 734.0,507.5 722.5,507.5 711.0,507.5 699.5,507.5 688.0,507.5 676.5,507.5 665.0,507.5 653.5,507.5 642.0,507.5 630.5,507.5 619.0,507.5 607.5,507.5 596.0,507.5 584.5,506.8 573.0,506.9 561.5,506.8 550.0,506.4 538.5,506.3 527.0,507.9 515.5,507.9 504.0,507.9 492.5,507.6 481.0,507.6 469.5,494.4 458.0,494.4 446.5,494.4 435.0,494.4 423.5,494.0 412.0,494.0 400.5,491.8 389.0,491.7 377.5,491.0 366.0,491.0 354.5,491.0 343.0,496.7 331.5,496.4 320.0,485.4 308.5,485.4 297.0,485.4 285.5,485.4 274.0,485.4 262.5,485.1 251.0,485.0 239.5,502.9 228.0,499.3 216.5,499.3 205.0,529.7 193.5,528.5 182.0,528.2 170.5,650.0 159.0,650.0 147.5,650.0 136.0,650.0 124.5,650.0 113.0,650.0 101.5,650.0 90.0,650.0" fill="#f1e05a" opacity="0.6" class="anim" style="animation-delay:600ms;"/>
<polygon points="90.0,650.0 101.5,650.0 113.0,650.0 124.5,650.0 136.0,650.0 147.5,650.0 159.0,650.0 170.5,650.0 182.0,455.5 193.5,455.4 205.0,455.1 216.5,447.0 228.0,447.0 239.5,448.2 251.0,438.9 262.5,439.0 274.0,439.6 285.5,439.6 297.0,439.6 308.5,439.6 320.0,439.6 331.5,445.6 343.0,445.6 354.5,443.3 366.0,443.3 377.5,443.3 389.0,443.6 400.5,443.6 412.0,444.1 423.5,444.1 435.0,444.1 446.5,444.1 458.0,444.1 469.5,444.1 481.0,437.5 492.5,437.5 504.0,437.5 515.5,437.5 527.0,437.5 538.5,437.5 550.0,437.5 561.5,438.4 573.0,438.5 584.5,438.3 596.0,439.3 607.5,439.3 619.0,439.3 630.5,439.3 642.0,439.3 653.5,439.3 665.0,439.3 676.5,439.3 688.0,439.3 699.5,439.3 711.0,439.3 722.5,439.3 734.0,439.3 745.5,439.4 757.0,439.4 768.5,438.4 780.0,437.3 780.0,449.7 768.5,452.8 757.0,455.8 745.5,455.8 734.0,455.9 722.5,455.9 711.0,455.9 699.5,455.9 688.0,455.9 676.5,455.9 665.0,455.9 653.5,455.9 642.0,455.9 630.5,455.9 619.0,455.9 607.5,455.9 596.0,455.9 584.5,454.9 573.0,455.1 561.5,455.0 550.0,454.3 538.5,454.3 527.0,455.4 515.5,455.4 504.0,455.4 492.5,455.6 481.0,455.6 469.5,469.7 458.0,469.7 446.5,469.7 435.0,469.7 423.5,469.7 412.0,469.7 400.5,469.7 389.0,469.7 377.5,469.5 366.0,469.5 354.5,469.5 343.0,473.5 331.5,473.0 320.0,460.6 308.5,460.6 297.0,460.6 285.5,460.6 274.0,460.6 262.5,460.2 251.0,460.1 239.5,477.2 228.0,476.0 216.5,476.0 205.0,489.0 193.5,488.0 182.0,488.4 170.5,650.0 159.0,650.0 147.5,650.0 136.0,650.0 124.5,650.0 113.0,650.0 101.5,650.0 90.0,650.0" fill="#3572A5" opacity="0.6" class="anim" style="animation-delay:700ms;"/>
<polygon points="90.0,650.0 101.5,650.0 113.0,650.0 124.5,650.0 136.0,650.0 147.5,650.0 159.0,650.0 170.5,650.0 182.0,442.3 193.5,442.0 205.0,441.6 216.5,439.5 228.0,439.5 239.5,439.4 251.0,432.3 262.5,432.2 274.0,432.6 285.5,432.6 297.0,432.6 308.5,432.6 320.0,432.6 331.5,439.3 343.0,439.3 354.5,437.4 366.0,437.4 377.5,437.4 389.0,437.3 400.5,437.3 412.0,437.1 423.5,437.1 435.0,437.1 446.5,437.1 458.0,437.1 469.5,437.1 481.0,428.7 492.5,428.6 504.0,428.5 515.5,428.5 527.0,428.5 538.5,427.3 550.0,427.3 561.5,427.1 573.0,427.1 584.5,427.1 596.0,427.0 607.5,427.0 619.0,427.0 630.5,427.0 642.0,427.0 653.5,427.0 665.0,427.0 676.5,427.0 688.0,427.0 699.5,427.0 711.0,427.0 722.5,427.0 734.0,427.0 745.5,427.0 757.0,427.1 768.5,425.3 780.0,423.6 780.0,437.3 768.5,438.4 757.0,439.4 745.5,439.4 734.0,439.3 722.5,439.3 711.0,439.3 699.5,439.3 688.0,439.3 676.5,439.3 665.0,439.3 653.5,439.3 642.0,439.3 630.5,439.3 619.0,439.3 607.5,439.3 596.0,439.3 584.5,438.3 573.0,438.5 561.5,438.4 550.0,437.5 538.5,437.5 527.0,437.5 515.5,437.5 504.0,437.5 492.5,437.5 481.0,437.5 469.5,444.1 458.0,444.1 446.5,444.1 435.0,444.1 423.5,444.1 412.0,444.1 400.5,443.6 389.0,443.6 377.5,443.3 366.0,443.3 354.5,443.3 343.0,445.6 331.5,445.6 320.0,439.6 308.5,439.6 297.0,439.6 285.5,439.6 274.0,439.6 262.5,439.0 251.0,438.9 239.5,448.2 228.0,447.0 216.5,447.0 205.0,455.1 193.5,455.4 182.0,455.5 170.5,650.0 159.0,650.0 147.5,650.0 136.0,650.0 124.5,650.0 113.0,650.0 101.5,650.0 90.0,650.0" fill="#663399" opacity="0.6" class="anim" style="animation-delay:800ms;"/>
<polygon points="90.0,650.0 101.5,650.0 113.0,650.0 124.5,650.0 136.0,650.0 147.5,650.0 159.0,650.0 170.5,650.0 182.0,436.6 193.5,436.3 205.0,435.9 216.5,432.2 228.0,432.2 239.5,432.2 251.0,426.2 262.5,426.1 274.0,426.0 285.5,426.0 297.0,426.0 308.5,426.0 320.0,426.0 331.5,430.8 343.0,430.7 354.5,429.3 366.0,429.3 377.5,429.3 389.0,429.2 400.5,429.2 412.0,428.9 423.5,428.9 435.0,428.8 446.5,428.8 458.0,428.8 469.5,428.8 481.0,423.0 492.5,422.9 504.0,422.9 515.5,422.9 527.0,422.9 538.5,422.0 550.0,422.0 561.5,421.9 573.0,421.9 584.5,421.9 596.0,421.8 607.5,421.8 619.0,421.8 630.5,421.8 642.0,421.8 653.5,421.8 665.0,421.8 676.5,421.8 688.0,421.8 699.5,421.8 711.0,421.8 722.5,421.8 734.0,421.8 745.5,421.7 757.0,421.8 768.5,420.4 780.0,419.0 780.0,423.6 768.5,425.3 757.0,427.1 745.5,427.0 734.0,427.0 722.5,427.0 711.0,427.0 699.5,427.0 688.0,427.0 676.5,427.0 665.0,427.0 653.5,427.0 642.0,427.0 630.5,427.0 619.0,427.0 607.5,427.0 596.0,427.0 584.5,427.1 573.0,427.1 561.5,427.1 550.0,427.3 538.5,427.3 527.0,428.5 515.5,428.5 504.0,428.5 492.5,428.6 481.0,428.7 469.5,437.1 458.0,437.1 446.5,437.1 435.0,437.1 423.5,437.1 412.0,437.1 400.5,437.3 389.0,437.3 377.5,437.4 366.0,437.4 354.5,437.4 343.0,439.3 331.5,439.3 320.0,432.6 308.5,432.6 297.0,432.6 285.5,432.6 274.0,432.6 262.5,432.2 251.0,432.3 239.5,439.4 228.0,439.5 216.5,439.5 205.0,441.6 193.5,442.0 182.0,442.3 170.5,650.0 159.0,650.0 147.5,650.0 136.0,650.0 124.5,650.0 113.0,650.0 101.5,650.0 90.0,650.0" fill="#083fa1" opacity="0.6" class="anim" style="animation-delay:900ms;"/>
<polygon points="90.0,650.0 101.5,650.0 113.0,650.0 124.5,650.0 136.0,650.0 147.5,650.0 159.0,650.0 170.5,650.0 182.0,427.0 193.5,426.8 205.0,426.6 216.5,424.2 228.0,424.2 239.5,424.2 251.0,420.4 262.5,420.3 274.0,420.3 285.5,420.3 297.0,420.3 308.5,420.3 320.0,420.3 331.5,423.3 343.0,423.2 354.5,422.4 366.0,422.4 377.5,422.4 389.0,422.3 400.5,422.3 412.0,422.1 423.5,422.1 435.0,422.1 446.5,422.1 458.0,422.1 469.5,422.1 481.0,418.3 492.5,418.3 504.0,418.2 515.5,418.2 527.0,418.2 538.5,417.7 550.0,417.7 561.5,417.6 573.0,417.6 584.5,417.6 596.0,417.6 607.5,417.6 619.0,417.6 630.5,417.6 642.0,417.6 653.5,417.6 665.0,417.6 676.5,417.6 688.0,417.6 699.5,417.6 711.0,417.6 722.5,417.6 734.0,417.6 745.5,417.5 757.0,417.6 768.5,416.8 780.0,416.0 780.0,419.0 768.5,420.4 757.0,421.8 745.5,421.7 734.0,421.8 722.5,421.8 711.0,421.8 699.5,421.8 688.0,421.8 676.5,421.8 665.0,421.8 653.5,421.8 642.0,421.8 630.5,421.8 619.0,421.8 607.5,421.8 596.0,421.8 584.5,421.9 573.0,421.9 561.5,421.9 550.0,422.0 538.5,422.0 527.0,422.9 515.5,422.9 504.0,422.9 492.5,422.9 481.0,423.0 469.5,428.8 458.0,428.8 446.5,428.8 435.0,428.8 423.5,428.9 412.0,428.9 400.5,429.2 389.0,429.2 377.5,429.3 366.0,429.3 354.5,429.3 343.0,430.7 331.5,430.8 320.0,426.0 308.5,426.0 297.0,426.0 285.5,426.0 274.0,426.0 262.5,426.1 251.0,426.2 239.5,432.2 228.0,432.2 216.5,432.2 205.0,435.9 193.5,436.3 182.0,436.6 170.5,650.0 159.0,650.0 147.5,650.0 136.0,650.0 124.5,650.0 113.0,650.0 101.5,650.0 90.0,650.0" fill="#6E4C13" opacity="0.6" class="anim" style="animation-delay:1000ms;"/>
<polygon points="90.0,650.0 101.5,650.0 113.0,650.0 124.5,650.0 136.0,650.0 147.5,650.0 159.0,650.0 170.5,650.0 182.0,418.7 193.5,418.6 205.0,418.5 216.5,417.3 228.0,417.3 239.5,417.2 251.0,415.3 262.5,415.3 274.0,415.2 285.5,415.2 297.0,415.2 308.5,415.2 320.0,415.2 331.5,416.8 343.0,416.8 354.5,416.3 366.0,416.3 377.5,416.3 389.0,416.3 400.5,416.3 412.0,416.2 423.5,416.2 435.0,416.2 446.5,416.2 458.0,416.2 469.5,416.2 481.0,414.2 492.5,414.2 504.0,414.2 515.5,414.2 527.0,414.2 538.5,413.9 550.0,413.9 561.5,413.9 573.0,413.9 584.5,413.9 596.0,413.9 607.5,413.9 619.0,413.9 630.5,413.9 642.0,413.9 653.5,413.9 665.0,413.9 676.5,413.9 688.0,413.9 699.5,413.9 711.0,413.9 722.5,413.9 734.0,413.9 745.5,413.8 757.0,413.8 768.5,413.6 780.0,413.3 780.0,416.0 768.5,416.8 757.0,417.6 745.5,417.5 734.0,417.6 722.5,417.6 711.0,417.6 699.5,417.6 688.0,417.6 676.5,417.6 665.0,417.6 653.5,417.6 642.0,417.6 630.5,417.6 619.0,417.6 607.5,417.6 596.0,417.6 584.5,417.6 573.0,417.6 561.5,417.6 550.0,417.7 538.5,417.7 527.0,418.2 515.5,418.2 504.0,418.2 492.5,418.3 481.0,418.3 469.5,422.1 458.0,422.1 446.5,422.1 435.0,422.1 423.5,422.1 412.0,422.1 400.5,422.3 389.0,422.3 377.5,422.4 366.0,422.4 354.5,422.4 343.0,423.2 331.5,423.3 320.0,420.3 308.5,420.3 297.0,420.3 285.5,420.3 274.0,420.3 262.5,420.3 251.0,420.4 239.5,424.2 228.0,424.2 216.5,424.2 205.0,426.6 193.5,426.8 182.0,427.0 170.5,650.0 159.0,650.0 147.5,650.0 136.0,650.0 124.5,650.0 113.0,650.0 101.5,650.0 90.0,650.0" fill="#F05138" opacity="0.6" class="anim" style="animation-delay:1100ms;"/>
<polygon points="90.0,650.0 101.5,650.0 113.0,650.0 124.5,650.0 136.0,650.0 147.5,650.0 159.0,650.0 170.5,650.0 182.0,414.4 193.5,414.4 205.0,414.3 216.5,413.7 228.0,413.7 239.5,413.7 251.0,412.7 262.5,412.7 274.0,412.7 285.5,412.7 297.0,412.7 308.5,412.7 320.0,412.7 331.5,413.5 343.0,413.4 354.5,413.2 366.0,413.2 377.5,413.2 389.0,413.2 400.5,413.2 412.0,413.1 423.5,413.1 435.0,413.1 446.5,413.1 458.0,413.1 469.5,413.1 481.0,412.2 492.5,412.1 504.0,412.1 515.5,412.1 527.0,412.1 538.5,412.0 550.0,412.0 561.5,412.0 573.0,412.0 584.5,412.0 596.0,412.0 607.5,412.0 619.0,412.0 630.5,412.0 642.0,412.0 653.5,412.0 665.0,412.0 676.5,412.0 688.0,412.0 699.5,412.0 711.0,412.0 722.5,412.0 734.0,412.0 745.5,411.9 757.0,411.9 768.5,411.9 780.0,411.9 780.0,413.3 768.5,413.6 757.0,413.8 745.5,413.8 734.0,413.9 722.5,413.9 711.0,413.9 699.5,413.9 688.0,413.9 676.5,413.9 665.0,413.9 653.5,413.9 642.0,413.9 630.5,413.9 619.0,413.9 607.5,413.9 596.0,413.9 584.5,413.9 573.0,413.9 561.5,413.9 550.0,413.9 538.5,413.9 527.0,414.2 515.5,414.2 504.0,414.2 492.5,414.2 481.0,414.2 469.5,416.2 458.0,416.2 446.5,416.2 435.0,416.2 423.5,416.2 412.0,416.2 400.5,416.3 389.0,416.3 377.5,416.3 366.0,416.3 354.5,416.3 343.0,416.8 331.5,416.8 320.0,415.2 308.5,415.2 297.0,415.2 285.5,415.2 274.0,415.2 262.5,415.3 251.0,415.3 239.5,417.2 228.0,417.3 216.5,417.3 205.0,418.5 193.5,418.6 182.0,418.7 170.5,650.0 159.0,650.0 147.5,650.0 136.0,650.0 124.5,650.0 113.0,650.0 101.5,650.0 90.0,650.0" fill="#b07219" opacity="0.6" class="anim" style="animation-delay:1200ms;"/>
<line x1="757.0" y1="100" x2="757.0" y2="650" stroke="#c9d1d9" stroke-width="1" stroke-dasharray="4,3" opacity="0.35"/>
<text x="768.5" y="112" text-anchor="middle" class="axis-label" opacity="0.6">Jun 20, 2026</text>
<text x="90.0" y="668" text-anchor="middle" class="axis-label" transform="rotate(-35 90.0 668)">2026-02</text>
<text x="412.0" y="668" text-anchor="middle" class="axis-label" transform="rotate(-35 412.0 668)">2026-03</text>
<text x="734.0" y="668" text-anchor="middle" class="axis-label" transform="rotate(-35 734.0 668)">2026-04</text>
<line x1="796" y1="110" x2="824" y2="110" stroke="#3fb950" stroke-width="2"/>
<text x="832" y="116" class="legend-text">Lines Added</text>
<line x1="796" y1="140" x2="824" y2="140" stroke="#f85149" stroke-width="1.5"/>
<text x="832" y="146" class="legend-text">Lines Deleted</text>
<line x1="796" y1="170" x2="824" y2="170" stroke="#e3b341" stroke-width="1.5" stroke-dasharray="4,3"/>
<text x="832" y="176" class="legend-text">&#x2605; Stars</text>
<text x="796" y="200" class="subtitle">Languages</text>
<rect x="796" y="212" width="12" height="12" rx="2" fill="#e34c26" opacity="0.8" class="anim" style="animation-delay:800ms;"/>
<text x="814" y="223" class="legend-text">HTML (59%→57%)</text>
<rect x="796" y="234" width="12" height="12" rx="2" fill="#f1e05a" opacity="0.8" class="anim" style="animation-delay:880ms;"/>
<text x="814" y="245" class="legend-text">JavaScript (22%→26%)</text>
<rect x="796" y="256" width="12" height="12" rx="2" fill="#3572A5" opacity="0.8" class="anim" style="animation-delay:960ms;"/>
<text x="814" y="267" class="legend-text">Python (7%→5%)</text>
<rect x="796" y="278" width="12" height="12" rx="2" fill="#663399" opacity="0.8" class="anim" style="animation-delay:1040ms;"/>
<text x="814" y="289" class="legend-text">CSS (5%→6%)</text>
<rect x="796" y="300" width="12" height="12" rx="2" fill="#083fa1" opacity="0.8" class="anim" style="animation-delay:1120ms;"/>
<text x="814" y="311" class="legend-text">Markdown (2%→2%)</text>
<rect x="796" y="322" width="12" height="12" rx="2" fill="#6E4C13" opacity="0.8" class="anim" style="animation-delay:1200ms;"/>
<text x="814" y="333" class="legend-text">Assembly (2%→1%)</text>
<rect x="796" y="344" width="12" height="12" rx="2" fill="#F05138" opacity="0.8" class="anim" style="animation-delay:1280ms;"/>
<text x="814" y="355" class="legend-text">Swift (2%→1%)</text>
<rect x="796" y="366" width="12" height="12" rx="2" fill="#b07219" opacity="0.8" class="anim" style="animation-delay:1360ms;"/>
<text x="814" y="377" class="legend-text">Java (1%→1%)</text>
<text x="796" y="412" class="subtitle">Contributions</text>
<text x="796" y="432" class="axis-label">2023: 39</text>
<text x="796" y="452" class="axis-label">2024: 646</text>
<text x="796" y="472" class="axis-label">2025: 1,780</text>
<text x="796" y="492" class="axis-label">2026: 479</text>
<text x="796" y="522" class="subtitle">Statistics</text>
<text x="796" y="542" class="axis-label">Active weeks: 86</text>
<text x="796" y="562" class="axis-label">Add/Del ratio: 1.6x</text>
<text x="796" y="582" class="axis-label">Avg lines/wk: 18K</text>
<text x="796" y="602" class="axis-label">Peak: 2026-02-15</text>
<text x="796" y="622" class="axis-label">  (543K lines)</text>
<text x="90" y="742" class="axis-label">Total: +930,187 / -576,375 lines &#xb7; 2,944 contributions &#xb7; 79 repos &#xb7; &#x2605; 37</text>
</svg>