<svg xmlns="http://www.w3.org/2000/svg" width="1000" height="760" style="max-width: 100%;" viewBox="0 0 1000 760">

<defs>
  <linearGradient id="areaGrad" x1="0" y1="0" x2="0" y2="1">
    <stop offset="0%" stop-color="#58a6ff" stop-opacity="0.35"/>
    <stop offset="100%" stop-color="#58a6ff" stop-opacity="0.02"/>
  </linearGradient>
  <linearGradient id="addGrad" x1="0" y1="0" x2="0" y2="1">
    <stop offset="0%" stop-color="#3fb950" stop-opacity="0.35"/>
    <stop offset="100%" stop-color="#3fb950" stop-opacity="0.02"/>
  </linearGradient>
  <linearGradient id="delGrad" x1="0" y1="0" x2="0" y2="1">
    <stop offset="0%" stop-color="#f85149" stop-opacity="0.25"/>
    <stop offset="100%" stop-color="#f85149" stop-opacity="0.02"/>
  </linearGradient>
</defs>
<style>
  .title { font: bold 28px 'Segoe UI', Ubuntu, Sans-Serif; fill: #c9d1d9; }
  .subtitle { font: 600 20px 'Segoe UI', Ubuntu, Sans-Serif; fill: #c9d1d9; opacity: 0.8; }
  .axis-label { font: 18px 'Segoe UI', Ubuntu, Sans-Serif; fill: #c9d1d9; opacity: 0.7; }
  .legend-text { font: 14px 'Segoe UI', Ubuntu, Sans-Serif; fill: #c9d1d9; }
  .value-text { font: bold 18px 'Segoe UI', Ubuntu, Sans-Serif; fill: #c9d1d9; }
  .stat-value { font: bold 22px 'Segoe UI', Ubuntu, Sans-Serif; fill: #c9d1d9; }
  .stat-label { font: 18px 'Segoe UI', Ubuntu, Sans-Serif; fill: #c9d1d9; opacity: 0.7; }
  @keyframes fadeIn { from { opacity: 0; } to { opacity: 1; } }
  .anim { animation: fadeIn 0.6s ease-in-out forwards; opacity: 0; }
</style>

<rect x="0.5" y="0.5" rx="4.5" width="999" height="759" fill="#161b22" stroke="#21262d"/>
<text x="90" y="45" class="title">Activity History</text>
<text x="90" y="72" class="subtitle">Lines added vs deleted &amp; activity trends over time</text>
<line x1="90" y1="340.0" x2="780" y2="340.0" stroke="#21262d" stroke-width="1"/>
<text x="82" y="344.0" text-anchor="end" class="axis-label">0</text>
<line x1="90" y1="280.0" x2="780" y2="280.0" stroke="#21262d" stroke-width="1"/>
<text x="82" y="284.0" text-anchor="end" class="axis-label">563K</text>
<line x1="90" y1="220.0" x2="780" y2="220.0" stroke="#21262d" stroke-width="1"/>
<text x="82" y="224.0" text-anchor="end" class="axis-label">1.1M</text>
<line x1="90" y1="160.0" x2="780" y2="160.0" stroke="#21262d" stroke-width="1"/>
<text x="82" y="164.0" text-anchor="end" class="axis-label">1.7M</text>
<line x1="90" y1="100.0" x2="780" y2="100.0" stroke="#21262d" stroke-width="1"/>
<text x="82" y="104.0" text-anchor="end" class="axis-label">2.3M</text>
<polygon points="90.0,340.0 90.0,301.1 104.7,302.5 119.4,301.1 134.0,302.5 148.7,311.5 163.4,293.7 178.1,293.7 192.8,287.0 207.4,286.7 222.1,286.3 236.8,286.2 251.5,274.3 266.2,274.3 280.9,274.2 295.5,256.5 310.2,256.3 324.9,256.1 339.6,256.1 354.3,256.1 368.9,256.1 383.6,256.1 398.3,255.6 413.0,243.8 427.7,243.7 442.3,243.7 457.0,243.7 471.7,243.5 486.4,243.5 501.1,242.9 515.7,242.9 530.4,242.9 545.1,242.9 559.8,242.9 574.5,242.9 589.1,242.9 603.8,242.9 618.5,242.9 633.2,242.9 647.9,242.9 662.6,242.9 677.2,242.9 691.9,242.4 706.6,242.6 721.3,242.0 736.0,241.8 750.6,241.8 765.3,221.1 780.0,200.4 780.0,340.0" fill="url(#addGrad)" class="anim" style="animation-delay:200ms;"/>
<polyline points="90.0,301.1 104.7,302.5 119.4,301.1 134.0,302.5 148.7,311.5 163.4,293.7 178.1,293.7 192.8,287.0 207.4,286.7 222.1,286.3 236.8,286.2 251.5,274.3 266.2,274.3 280.9,274.2 295.5,256.5 310.2,256.3 324.9,256.1 339.6,256.1 354.3,256.1 368.9,256.1 383.6,256.1 398.3,255.6 413.0,243.8 427.7,243.7 442.3,243.7 457.0,243.7 471.7,243.5 486.4,243.5 501.1,242.9 515.7,242.9 530.4,242.9 545.1,242.9 559.8,242.9 574.5,242.9 589.1,242.9 603.8,242.9 618.5,242.9 633.2,242.9 647.9,242.9 662.6,242.9 677.2,242.9 691.9,242.4 706.6,242.6 721.3,242.0 736.0,241.8 750.6,241.8" fill="none" stroke="#3fb950" stroke-width="2" stroke-linejoin="round" class="anim" style="animation-delay:250ms;"/>
<polyline points="750.6,241.8 765.3,221.1 780.0,200.4" fill="none" stroke="#3fb950" stroke-width="1.5" stroke-dasharray="5,4" stroke-linejoin="round" opacity="0.6" class="anim" style="animation-delay:250ms;"/>
<polygon points="90.0,340.0 90.0,329.1 104.7,330.2 119.4,329.1 134.0,330.2 148.7,334.9 163.4,327.7 178.1,327.7 192.8,326.9 207.4,326.7 222.1,326.5 236.8,326.4 251.5,313.6 266.2,313.6 280.9,313.5 295.5,298.9 310.2,298.8 324.9,298.8 339.6,298.8 354.3,298.8 368.9,298.8 383.6,298.8 398.3,291.2 413.0,279.5 427.7,279.5 442.3,279.5 457.0,279.5 471.7,279.5 486.4,279.5 501.1,279.4 515.7,279.4 530.4,279.4 545.1,279.4 559.8,279.4 574.5,279.4 589.1,279.4 603.8,279.4 618.5,279.4 633.2,279.4 647.9,279.4 662.6,279.4 677.2,279.4 691.9,279.4 706.6,279.4 721.3,279.0 736.0,279.0 750.6,279.0 765.3,259.3 780.0,239.6 780.0,340.0" fill="url(#delGrad)" class="anim" style="animation-delay:300ms;"/>
<polyline points="90.0,329.1 104.7,330.2 119.4,329.1 134.0,330.2 148.7,334.9 163.4,327.7 178.1,327.7 192.8,326.9 207.4,326.7 222.1,326.5 236.8,326.4 251.5,313.6 266.2,313.6 280.9,313.5 295.5,298.9 310.2,298.8 324.9,298.8 339.6,298.8 354.3,298.8 368.9,298.8 383.6,298.8 398.3,291.2 413.0,279.5 427.7,279.5 442.3,279.5 457.0,279.5 471.7,279.5 486.4,279.5 501.1,279.4 515.7,279.4 530.4,279.4 545.1,279.4 559.8,279.4 574.5,279.4 589.1,279.4 603.8,279.4 618.5,279.4 633.2,279.4 647.9,279.4 662.6,279.4 677.2,279.4 691.9,279.4 706.6,279.4 721.3,279.0 736.0,279.0 750.6,279.0" fill="none" stroke="#f85149" stroke-width="1.5" stroke-linejoin="round" class="anim" style="animation-delay:350ms;"/>
<polyline points="750.6,279.0 765.3,259.3 780.0,239.6" fill="none" stroke="#f85149" stroke-width="1" stroke-dasharray="5,4" stroke-linejoin="round" opacity="0.6" class="anim" style="animation-delay:350ms;"/>
<polyline points="90.0,340.0 104.7,340.0 119.4,340.0 134.0,340.0 148.7,340.0 163.4,340.0 178.1,340.0 192.8,340.0 207.4,292.0 222.1,292.0 236.8,292.0 251.5,292.0 266.2,292.0 280.9,292.0 295.5,292.0 310.2,292.0 324.9,292.0 339.6,292.0 354.3,292.0 368.9,292.0 383.6,292.0 398.3,292.0 413.0,292.0 427.7,292.0 442.3,292.0 457.0,292.0 471.7,292.0 486.4,292.0 501.1,292.0 515.7,292.0 530.4,292.0 545.1,292.0 559.8,292.0 574.5,292.0 589.1,244.0 603.8,244.0 618.5,244.0 633.2,244.0 647.9,244.0 662.6,244.0 677.2,244.0 691.9,244.0 706.6,196.0 721.3,196.0 736.0,196.0 750.6,196.0" fill="none" stroke="#e3b341" stroke-width="1.5" stroke-dasharray="4,3" stroke-linejoin="round" class="anim" style="animation-delay:400ms;"/>
<polyline points="750.6,196.0 765.3,196.0 780.0,148.0" fill="none" stroke="#e3b341" stroke-width="1" stroke-dasharray="3,5" stroke-linejoin="round" opacity="0.5" class="anim" style="animation-delay:400ms;"/>
<text x="90" y="90" class="subtitle">Lines Added vs Deleted (per snapshot)</text>
<text x="90" y="400" class="subtitle">Programming Language Development (%)</text>
<line x1="90" y1="650.0" x2="780" y2="650.0" stroke="#21262d" stroke-width="1"/>
<text x="82" y="654.0" text-anchor="end" class="axis-label">0%</text>
<line x1="90" y1="590.0" x2="780" y2="590.0" stroke="#21262d" stroke-width="1"/>
<text x="82" y="594.0" text-anchor="end" class="axis-label">25%</text>
<line x1="90" y1="530.0" x2="780" y2="530.0" stroke="#21262d" stroke-width="1"/>
<text x="82" y="534.0" text-anchor="end" class="axis-label">50%</text>
<line x1="90" y1="470.0" x2="780" y2="470.0" stroke="#21262d" stroke-width="1"/>
<text x="82" y="474.0" text-anchor="end" class="axis-label">75%</text>
<line x1="90" y1="410.0" x2="780" y2="410.0" stroke="#21262d" stroke-width="1"/>
<text x="82" y="414.0" text-anchor="end" class="axis-label">100%</text>
<polygon points="90.0,650.0 104.7,650.0 119.4,650.0 134.0,650.0 148.7,650.0 163.4,650.0 178.1,650.0 192.8,650.0 207.4,528.2 222.1,528.5 236.8,529.7 251.5,499.3 266.2,499.3 280.9,502.9 295.5,485.0 310.2,485.1 324.9,485.4 339.6,485.4 354.3,485.4 368.9,485.4 383.6,485.4 398.3,496.4 413.0,496.7 427.7,491.0 442.3,491.0 457.0,491.0 471.7,491.7 486.4,491.8 501.1,494.0 515.7,494.0 530.4,494.4 545.1,494.4 559.8,494.4 574.5,494.4 589.1,507.6 603.8,507.6 618.5,507.9 633.2,507.9 647.9,507.9 662.6,506.3 677.2,506.4 691.9,506.8 706.6,506.9 721.3,506.8 736.0,507.5 750.6,507.5 765.3,509.6 780.0,511.6 780.0,650.0 765.3,650.0 750.6,650.0 736.0,650.0 721.3,650.0 706.6,650.0 691.9,650.0 677.2,650.0 662.6,650.0 647.9,650.0 633.2,650.0 618.5,650.0 603.8,650.0 589.1,650.0 574.5,650.0 559.8,650.0 545.1,650.0 530.4,650.0 515.7,650.0 501.1,650.0 486.4,650.0 471.7,650.0 457.0,650.0 442.3,650.0 427.7,650.0 413.0,650.0 398.3,650.0 383.6,650.0 368.9,650.0 354.3,650.0 339.6,650.0 324.9,650.0 310.2,650.0 295.5,650.0 280.9,650.0 266.2,650.0 251.5,650.0 236.8,650.0 222.1,650.0 207.4,650.0 192.8,650.0 178.1,650.0 163.4,650.0 148.7,650.0 134.0,650.0 119.4,650.0 104.7,650.0 90.0,650.0" fill="#e34c26" opacity="0.6" class="anim" style="animation-delay:500ms;"/>
<polygon points="90.0,650.0 104.7,650.0 119.4,650.0 134.0,650.0 148.7,650.0 163.4,650.0 178.1,650.0 192.8,650.0 207.4,488.4 222.1,488.0 236.8,489.0 251.5,476.0 266.2,476.0 280.9,477.2 295.5,460.1 310.2,460.2 324.9,460.6 339.6,460.6 354.3,460.6 368.9,460.6 383.6,460.6 398.3,473.0 413.0,473.5 427.7,469.5 442.3,469.5 457.0,469.5 471.7,469.7 486.4,469.7 501.1,469.7 515.7,469.7 530.4,469.7 545.1,469.7 559.8,469.7 574.5,469.7 589.1,455.6 603.8,455.6 618.5,455.4 633.2,455.4 647.9,455.4 662.6,454.3 677.2,454.3 691.9,455.0 706.6,455.1 721.3,454.9 736.0,455.9 750.6,455.9 765.3,447.4 780.0,439.0 780.0,511.6 765.3,509.6 750.6,507.5 736.0,507.5 721.3,506.8 706.6,506.9 691.9,506.8 677.2,506.4 662.6,506.3 647.9,507.9 633.2,507.9 618.5,507.9 603.8,507.6 589.1,507.6 574.5,494.4 559.8,494.4 545.1,494.4 530.4,494.4 515.7,494.0 501.1,494.0 486.4,491.8 471.7,491.7 457.0,491.0 442.3,491.0 427.7,491.0 413.0,496.7 398.3,496.4 383.6,485.4 368.9,485.4 354.3,485.4 339.6,485.4 324.9,485.4 310.2,485.1 295.5,485.0 280.9,502.9 266.2,499.3 251.5,499.3 236.8,529.7 222.1,528.5 207.4,528.2 192.8,650.0 178.1,650.0 163.4,650.0 148.7,650.0 134.0,650.0 119.4,650.0 104.7,650.0 90.0,650.0" fill="#f1e05a" opacity="0.6" class="anim" style="animation-delay:600ms;"/>
<polygon points="90.0,650.0 104.7,650.0 119.4,650.0 134.0,650.0 148.7,650.0 163.4,650.0 178.1,650.0 192.8,650.0 207.4,455.5 222.1,455.4 236.8,455.1 251.5,447.0 266.2,447.0 280.9,448.2 295.5,438.9 310.2,439.0 324.9,439.6 339.6,439.6 354.3,439.6 368.9,439.6 383.6,439.6 398.3,445.6 413.0,445.6 427.7,443.3 442.3,443.3 457.0,443.3 471.7,443.6 486.4,443.6 501.1,444.1 515.7,444.1 530.4,444.1 545.1,444.1 559.8,444.1 574.5,444.1 589.1,437.5 603.8,437.5 618.5,437.5 633.2,437.5 647.9,437.5 662.6,437.5 677.2,437.5 691.9,438.4 706.6,438.5 721.3,438.3 736.0,439.3 750.6,439.3 765.3,435.8 780.0,432.4 780.0,439.0 765.3,447.4 750.6,455.9 736.0,455.9 721.3,454.9 706.6,455.1 691.9,455.0 677.2,454.3 662.6,454.3 647.9,455.4 633.2,455.4 618.5,455.4 603.8,455.6 589.1,455.6 574.5,469.7 559.8,469.7 545.1,469.7 530.4,469.7 515.7,469.7 501.1,469.7 486.4,469.7 471.7,469.7 457.0,469.5 442.3,469.5 427.7,469.5 413.0,473.5 398.3,473.0 383.6,460.6 368.9,460.6 354.3,460.6 339.6,460.6 324.9,460.6 310.2,460.2 295.5,460.1 280.9,477.2 266.2,476.0 251.5,476.0 236.8,489.0 222.1,488.0 207.4,488.4 192.8,650.0 178.1,650.0 163.4,650.0 148.7,650.0 134.0,650.0 119.4,650.0 104.7,650.0 90.0,650.0" fill="#3572A5" opacity="0.6" class="anim" style="animation-delay:700ms;"/>
<polygon points="90.0,650.0 104.7,650.0 119.4,650.0 134.0,650.0 148.7,650.0 163.4,650.0 178.1,650.0 192.8,650.0 207.4,442.3 222.1,442.0 236.8,441.6 251.5,439.5 266.2,439.5 280.9,439.4 295.5,432.3 310.2,432.2 324.9,432.6 339.6,432.6 354.3,432.6 368.9,432.6 383.6,432.6 398.3,439.3 413.0,439.3 427.7,437.4 442.3,437.4 457.0,437.4 471.7,437.3 486.4,437.3 501.1,437.1 515.7,437.1 530.4,437.1 545.1,437.1 559.8,437.1 574.5,437.1 589.1,428.7 603.8,428.6 618.5,428.5 633.2,428.5 647.9,428.5 662.6,427.3 677.2,427.3 691.9,427.1 706.6,427.1 721.3,427.1 736.0,427.0 750.6,427.0 765.3,422.9 780.0,418.8 780.0,432.4 765.3,435.8 750.6,439.3 736.0,439.3 721.3,438.3 706.6,438.5 691.9,438.4 677.2,437.5 662.6,437.5 647.9,437.5 633.2,437.5 618.5,437.5 603.8,437.5 589.1,437.5 574.5,444.1 559.8,444.1 545.1,444.1 530.4,444.1 515.7,444.1 501.1,444.1 486.4,443.6 471.7,443.6 457.0,443.3 442.3,443.3 427.7,443.3 413.0,445.6 398.3,445.6 383.6,439.6 368.9,439.6 354.3,439.6 339.6,439.6 324.9,439.6 310.2,439.0 295.5,438.9 280.9,448.2 266.2,447.0 251.5,447.0 236.8,455.1 222.1,455.4 207.4,455.5 192.8,650.0 178.1,650.0 163.4,650.0 148.7,650.0 134.0,650.0 119.4,650.0 104.7,650.0 90.0,650.0" fill="#663399" opacity="0.6" class="anim" style="animation-delay:800ms;"/>
<polygon points="90.0,650.0 104.7,650.0 119.4,650.0 134.0,650.0 148.7,650.0 163.4,650.0 178.1,650.0 192.8,650.0 207.4,436.6 222.1,436.3 236.8,435.9 251.5,432.2 266.2,432.2 280.9,432.2 295.5,426.2 310.2,426.1 324.9,426.0 339.6,426.0 354.3,426.0 368.9,426.0 383.6,426.0 398.3,430.8 413.0,430.7 427.7,429.3 442.3,429.3 457.0,429.3 471.7,429.2 486.4,429.2 501.1,428.9 515.7,428.9 530.4,428.8 545.1,428.8 559.8,428.8 574.5,428.8 589.1,423.0 603.8,422.9 618.5,422.9 633.2,422.9 647.9,422.9 662.6,422.0 677.2,422.0 691.9,421.9 706.6,421.9 721.3,421.9 736.0,421.8 750.6,421.8 765.3,418.2 780.0,414.6 780.0,418.8 765.3,422.9 750.6,427.0 736.0,427.0 721.3,427.1 706.6,427.1 691.9,427.1 677.2,427.3 662.6,427.3 647.9,428.5 633.2,428.5 618.5,428.5 603.8,428.6 589.1,428.7 574.5,437.1 559.8,437.1 545.1,437.1 530.4,437.1 515.7,437.1 501.1,437.1 486.4,437.3 471.7,437.3 457.0,437.4 442.3,437.4 427.7,437.4 413.0,439.3 398.3,439.3 383.6,432.6 368.9,432.6 354.3,432.6 339.6,432.6 324.9,432.6 310.2,432.2 295.5,432.3 280.9,439.4 266.2,439.5 251.5,439.5 236.8,441.6 222.1,442.0 207.4,442.3 192.8,650.0 178.1,650.0 163.4,650.0 148.7,650.0 134.0,650.0 119.4,650.0 104.7,650.0 90.0,650.0" fill="#083fa1" opacity="0.6" class="anim" style="animation-delay:900ms;"/>
<polygon points="90.0,650.0 104.7,650.0 119.4,650.0 134.0,650.0 148.7,650.0 163.4,650.0 178.1,650.0 192.8,650.0 207.4,427.0 222.1,426.8 236.8,426.6 251.5,424.2 266.2,424.2 280.9,424.2 295.5,420.4 310.2,420.3 324.9,420.3 339.6,420.3 354.3,420.3 368.9,420.3 383.6,420.3 398.3,423.3 413.0,423.2 427.7,422.4 442.3,422.4 457.0,422.4 471.7,422.3 486.4,422.3 501.1,422.1 515.7,422.1 530.4,422.1 545.1,422.1 559.8,422.1 574.5,422.1 589.1,418.3 603.8,418.3 618.5,418.2 633.2,418.2 647.9,418.2 662.6,417.7 677.2,417.7 691.9,417.6 706.6,417.6 721.3,417.6 736.0,417.6 750.6,417.6 765.3,415.5 780.0,413.5 780.0,414.6 765.3,418.2 750.6,421.8 736.0,421.8 721.3,421.9 706.6,421.9 691.9,421.9 677.2,422.0 662.6,422.0 647.9,422.9 633.2,422.9 618.5,422.9 603.8,422.9 589.1,423.0 574.5,428.8 559.8,428.8 545.1,428.8 530.4,428.8 515.7,428.9 501.1,428.9 486.4,429.2 471.7,429.2 457.0,429.3 442.3,429.3 427.7,429.3 413.0,430.7 398.3,430.8 383.6,426.0 368.9,426.0 354.3,426.0 339.6,426.0 324.9,426.0 310.2,426.1 295.5,426.2 280.9,432.2 266.2,432.2 251.5,432.2 236.8,435.9 222.1,436.3 207.4,436.6 192.8,650.0 178.1,650.0 163.4,650.0 148.7,650.0 134.0,650.0 119.4,650.0 104.7,650.0 90.0,650.0" fill="#6E4C13" opacity="0.6" class="anim" style="animation-delay:1000ms;"/>
<polygon points="90.0,650.0 104.7,650.0 119.4,650.0 134.0,650.0 148.7,650.0 163.4,650.0 178.1,650.0 192.8,650.0 207.4,418.7 222.1,418.6 236.8,418.5 251.5,417.3 266.2,417.3 280.9,417.2 295.5,415.3 310.2,415.3 324.9,415.2 339.6,415.2 354.3,415.2 368.9,415.2 383.6,415.2 398.3,416.8 413.0,416.8 427.7,416.3 442.3,416.3 457.0,416.3 471.7,416.3 486.4,416.3 501.1,416.2 515.7,416.2 530.4,416.2 545.1,416.2 559.8,416.2 574.5,416.2 589.1,414.2 603.8,414.2 618.5,414.2 633.2,414.2 647.9,414.2 662.6,413.9 677.2,413.9 691.9,413.9 706.6,413.9 721.3,413.9 736.0,413.9 750.6,413.9 765.3,413.2 780.0,412.5 780.0,413.5 765.3,415.5 750.6,417.6 736.0,417.6 721.3,417.6 706.6,417.6 691.9,417.6 677.2,417.7 662.6,417.7 647.9,418.2 633.2,418.2 618.5,418.2 603.8,418.3 589.1,418.3 574.5,422.1 559.8,422.1 545.1,422.1 530.4,422.1 515.7,422.1 501.1,422.1 486.4,422.3 471.7,422.3 457.0,422.4 442.3,422.4 427.7,422.4 413.0,423.2 398.3,423.3 383.6,420.3 368.9,420.3 354.3,420.3 339.6,420.3 324.9,420.3 310.2,420.3 295.5,420.4 280.9,424.2 266.2,424.2 251.5,424.2 236.8,426.6 222.1,426.8 207.4,427.0 192.8,650.0 178.1,650.0 163.4,650.0 148.7,650.0 134.0,650.0 119.4,650.0 104.7,650.0 90.0,650.0" fill="#F05138" opacity="0.6" class="anim" style="animation-delay:1100ms;"/>
<polygon points="90.0,650.0 104.7,650.0 119.4,650.0 134.0,650.0 148.7,650.0 163.4,650.0 178.1,650.0 192.8,650.0 207.4,414.4 222.1,414.4 236.8,414.3 251.5,413.7 266.2,413.7 280.9,413.7 295.5,412.7 310.2,412.7 324.9,412.7 339.6,412.7 354.3,412.7 368.9,412.7 383.6,412.7 398.3,413.5 413.0,413.4 427.7,413.2 442.3,413.2 457.0,413.2 471.7,413.2 486.4,413.2 501.1,413.1 515.7,413.1 530.4,413.1 545.1,413.1 559.8,413.1 574.5,413.1 589.1,412.2 603.8,412.1 618.5,412.1 633.2,412.1 647.9,412.1 662.6,412.0 677.2,412.0 691.9,412.0 706.6,412.0 721.3,412.0 736.0,412.0 750.6,412.0 765.3,412.0 780.0,412.0 780.0,412.5 765.3,413.2 750.6,413.9 736.0,413.9 721.3,413.9 706.6,413.9 691.9,413.9 677.2,413.9 662.6,413.9 647.9,414.2 633.2,414.2 618.5,414.2 603.8,414.2 589.1,414.2 574.5,416.2 559.8,416.2 545.1,416.2 530.4,416.2 515.7,416.2 501.1,416.2 486.4,416.3 471.7,416.3 457.0,416.3 442.3,416.3 427.7,416.3 413.0,416.8 398.3,416.8 383.6,415.2 368.9,415.2 354.3,415.2 339.6,415.2 324.9,415.2 310.2,415.3 295.5,415.3 280.9,417.2 266.2,417.3 251.5,417.3 236.8,418.5 222.1,418.6 207.4,418.7 192.8,650.0 178.1,650.0 163.4,650.0 148.7,650.0 134.0,650.0 119.4,650.0 104.7,650.0 90.0,650.0" fill="#b07219" opacity="0.6" class="anim" style="animation-delay:1200ms;"/>
<line x1="750.6" y1="100" x2="750.6" y2="650" stroke="#c9d1d9" stroke-width="1" stroke-dasharray="4,3" opacity="0.35"/>
<text x="765.3" y="112" text-anchor="middle" class="axis-label" opacity="0.6">Apr 06, 2026</text>
<text x="90.0" y="668" text-anchor="middle" class="axis-label" transform="rotate(-35 90.0 668)">2026-02</text>
<text x="457.0" y="668" text-anchor="middle" class="axis-label" transform="rotate(-35 457.0 668)">2026-03</text>
<text x="765.3" y="668" text-anchor="middle" class="axis-label" transform="rotate(-35 765.3 668)">Apr 06, 2026</text>
<line x1="796" y1="110" x2="824" y2="110" stroke="#3fb950" stroke-width="2"/>
<text x="832" y="116" class="legend-text">Lines Added</text>
<line x1="796" y1="140" x2="824" y2="140" stroke="#f85149" stroke-width="1.5"/>
<text x="832" y="146" class="legend-text">Lines Deleted</text>
<line x1="796" y1="170" x2="824" y2="170" stroke="#e3b341" stroke-width="1.5" stroke-dasharray="4,3"/>
<text x="832" y="176" class="legend-text">&#x2605; Stars</text>
<text x="796" y="200" class="subtitle">Languages</text>
<rect x="796" y="212" width="12" height="12" rx="2" fill="#e34c26" opacity="0.8" class="anim" style="animation-delay:800ms;"/>
<text x="814" y="223" class="legend-text">HTML (59%→58%)</text>
<rect x="796" y="234" width="12" height="12" rx="2" fill="#f1e05a" opacity="0.8" class="anim" style="animation-delay:880ms;"/>
<text x="814" y="245" class="legend-text">JavaScript (22%→30%)</text>
<rect x="796" y="256" width="12" height="12" rx="2" fill="#3572A5" opacity="0.8" class="anim" style="animation-delay:960ms;"/>
<text x="814" y="267" class="legend-text">Python (7%→3%)</text>
<rect x="796" y="278" width="12" height="12" rx="2" fill="#663399" opacity="0.8" class="anim" style="animation-delay:1040ms;"/>
<text x="814" y="289" class="legend-text">CSS (5%→6%)</text>
<rect x="796" y="300" width="12" height="12" rx="2" fill="#083fa1" opacity="0.8" class="anim" style="animation-delay:1120ms;"/>
<text x="814" y="311" class="legend-text">Markdown (2%→2%)</text>
<rect x="796" y="322" width="12" height="12" rx="2" fill="#6E4C13" opacity="0.8" class="anim" style="animation-delay:1200ms;"/>
<text x="814" y="333" class="legend-text">Assembly (2%→0%)</text>
<rect x="796" y="344" width="12" height="12" rx="2" fill="#F05138" opacity="0.8" class="anim" style="animation-delay:1280ms;"/>
<text x="814" y="355" class="legend-text">Swift (2%→0%)</text>
<rect x="796" y="366" width="12" height="12" rx="2" fill="#b07219" opacity="0.8" class="anim" style="animation-delay:1360ms;"/>
<text x="814" y="377" class="legend-text">Java (1%→0%)</text>
<text x="796" y="412" class="subtitle">Contributions</text>
<text x="796" y="432" class="axis-label">2023: 39</text>
<text x="796" y="452" class="axis-label">2024: 646</text>
<text x="796" y="472" class="axis-label">2025: 1,780</text>
<text x="796" y="492" class="axis-label">2026: 397</text>
<text x="796" y="522" class="subtitle">Statistics</text>
<text x="796" y="542" class="axis-label">Active weeks: 79</text>
<text x="796" y="562" class="axis-label">Add/Del ratio: 1.6x</text>
<text x="796" y="582" class="axis-label">Avg lines/wk: 19K</text>
<text x="796" y="602" class="axis-label">Peak: 2026-02-15</text>
<text x="796" y="622" class="axis-label">  (543K lines)</text>
<text x="90" y="742" class="axis-label">Total: +922,355 / -572,795 lines &#xb7; 2,862 contributions &#xb7; 76 repos &#xb7; &#x2605; 35</text>
</svg>