<svg xmlns="http://www.w3.org/2000/svg" width="1000" height="760" style="max-width: 100%;" viewBox="0 0 1000 760">

<defs>
  <linearGradient id="areaGrad" x1="0" y1="0" x2="0" y2="1">
    <stop offset="0%" stop-color="#58a6ff" stop-opacity="0.35"/>
    <stop offset="100%" stop-color="#58a6ff" stop-opacity="0.02"/>
  </linearGradient>
  <linearGradient id="addGrad" x1="0" y1="0" x2="0" y2="1">
    <stop offset="0%" stop-color="#3fb950" stop-opacity="0.35"/>
    <stop offset="100%" stop-color="#3fb950" stop-opacity="0.02"/>
  </linearGradient>
  <linearGradient id="delGrad" x1="0" y1="0" x2="0" y2="1">
    <stop offset="0%" stop-color="#f85149" stop-opacity="0.25"/>
    <stop offset="100%" stop-color="#f85149" stop-opacity="0.02"/>
  </linearGradient>
</defs>
<style>
  .title { font: bold 28px 'Segoe UI', Ubuntu, Sans-Serif; fill: #c9d1d9; }
  .subtitle { font: 600 20px 'Segoe UI', Ubuntu, Sans-Serif; fill: #c9d1d9; opacity: 0.8; }
  .axis-label { font: 18px 'Segoe UI', Ubuntu, Sans-Serif; fill: #c9d1d9; opacity: 0.7; }
  .legend-text { font: 14px 'Segoe UI', Ubuntu, Sans-Serif; fill: #c9d1d9; }
  .value-text { font: bold 18px 'Segoe UI', Ubuntu, Sans-Serif; fill: #c9d1d9; }
  .stat-value { font: bold 22px 'Segoe UI', Ubuntu, Sans-Serif; fill: #c9d1d9; }
  .stat-label { font: 18px 'Segoe UI', Ubuntu, Sans-Serif; fill: #c9d1d9; opacity: 0.7; }
  @keyframes fadeIn { from { opacity: 0; } to { opacity: 1; } }
  .anim { animation: fadeIn 0.6s ease-in-out forwards; opacity: 0; }
</style>

<rect x="0.5" y="0.5" rx="4.5" width="999" height="759" fill="#161b22" stroke="#21262d"/>
<text x="90" y="45" class="title">Activity History</text>
<text x="90" y="72" class="subtitle">Lines added vs deleted &amp; activity trends over time</text>
<line x1="90" y1="340.0" x2="780" y2="340.0" stroke="#21262d" stroke-width="1"/>
<text x="82" y="344.0" text-anchor="end" class="axis-label">0</text>
<line x1="90" y1="280.0" x2="780" y2="280.0" stroke="#21262d" stroke-width="1"/>
<text x="82" y="284.0" text-anchor="end" class="axis-label">453K</text>
<line x1="90" y1="220.0" x2="780" y2="220.0" stroke="#21262d" stroke-width="1"/>
<text x="82" y="224.0" text-anchor="end" class="axis-label">905K</text>
<line x1="90" y1="160.0" x2="780" y2="160.0" stroke="#21262d" stroke-width="1"/>
<text x="82" y="164.0" text-anchor="end" class="axis-label">1.4M</text>
<line x1="90" y1="100.0" x2="780" y2="100.0" stroke="#21262d" stroke-width="1"/>
<text x="82" y="104.0" text-anchor="end" class="axis-label">1.8M</text>
<polygon points="90.0,340.0 90.0,291.6 98.1,293.4 106.2,291.6 114.4,293.4 122.5,304.5 130.6,282.3 138.7,282.3 146.8,274.0 154.9,273.7 163.1,273.1 171.2,273.1 179.3,258.2 187.4,258.2 195.5,258.1 203.6,236.0 211.8,235.8 219.9,235.5 228.0,235.5 236.1,235.5 244.2,235.5 252.4,235.5 260.5,234.9 268.6,220.2 276.7,220.1 284.8,220.1 292.9,220.1 301.1,219.8 309.2,219.8 317.3,219.2 325.4,219.2 333.5,219.1 341.6,219.1 349.8,219.1 357.9,219.1 366.0,219.1 374.1,219.1 382.2,219.1 390.4,219.1 398.5,219.1 406.6,219.1 414.7,219.1 422.8,218.5 430.9,218.7 439.1,218.0 447.2,217.7 455.3,217.7 463.4,217.7 471.5,217.7 479.6,217.7 487.8,217.7 495.9,217.7 504.0,217.7 512.1,217.7 520.2,217.7 528.4,218.0 536.5,219.5 544.6,218.0 552.7,216.8 560.8,216.7 568.9,216.7 577.1,216.7 585.2,216.7 593.3,209.1 601.4,202.2 609.5,202.2 617.6,202.2 625.8,202.2 633.9,202.2 642.0,202.2 650.1,202.2 658.2,202.2 666.4,202.1 674.5,202.1 682.6,202.1 690.7,202.1 698.8,202.1 706.9,202.1 715.1,202.1 723.2,202.1 731.3,202.1 739.4,202.1 747.5,202.1 755.6,202.1 763.8,202.1 771.9,194.7 780.0,187.4 780.0,340.0" fill="url(#addGrad)" class="anim" style="animation-delay:200ms;"/>
<polyline points="90.0,291.6 98.1,293.4 106.2,291.6 114.4,293.4 122.5,304.5 130.6,282.3 138.7,282.3 146.8,274.0 154.9,273.7 163.1,273.1 171.2,273.1 179.3,258.2 187.4,258.2 195.5,258.1 203.6,236.0 211.8,235.8 219.9,235.5 228.0,235.5 236.1,235.5 244.2,235.5 252.4,235.5 260.5,234.9 268.6,220.2 276.7,220.1 284.8,220.1 292.9,220.1 301.1,219.8 309.2,219.8 317.3,219.2 325.4,219.2 333.5,219.1 341.6,219.1 349.8,219.1 357.9,219.1 366.0,219.1 374.1,219.1 382.2,219.1 390.4,219.1 398.5,219.1 406.6,219.1 414.7,219.1 422.8,218.5 430.9,218.7 439.1,218.0 447.2,217.7 455.3,217.7 463.4,217.7 471.5,217.7 479.6,217.7 487.8,217.7 495.9,217.7 504.0,217.7 512.1,217.7 520.2,217.7 528.4,218.0 536.5,219.5 544.6,218.0 552.7,216.8 560.8,216.7 568.9,216.7 577.1,216.7 585.2,216.7 593.3,209.1 601.4,202.2 609.5,202.2 617.6,202.2 625.8,202.2 633.9,202.2 642.0,202.2 650.1,202.2 658.2,202.2 666.4,202.1 674.5,202.1 682.6,202.1 690.7,202.1 698.8,202.1 706.9,202.1 715.1,202.1 723.2,202.1 731.3,202.1 739.4,202.1 747.5,202.1 755.6,202.1 763.8,202.1" fill="none" stroke="#3fb950" stroke-width="2" stroke-linejoin="round" class="anim" style="animation-delay:250ms;"/>
<polyline points="763.8,202.1 771.9,194.7 780.0,187.4" fill="none" stroke="#3fb950" stroke-width="1.5" stroke-dasharray="5,4" stroke-linejoin="round" opacity="0.6" class="anim" style="animation-delay:250ms;"/>
<polygon points="90.0,340.0 90.0,326.4 98.1,327.8 106.2,326.4 114.4,327.8 122.5,333.6 130.6,324.7 138.7,324.7 146.8,323.8 154.9,323.4 163.1,323.2 171.2,323.1 179.3,307.1 187.4,307.1 195.5,307.0 203.6,288.9 211.8,288.7 219.9,288.7 228.0,288.7 236.1,288.7 244.2,288.7 252.4,288.7 260.5,279.2 268.6,264.7 276.7,264.7 284.8,264.7 292.9,264.7 301.1,264.6 309.2,264.6 317.3,264.6 325.4,264.5 333.5,264.5 341.6,264.5 349.8,264.5 357.9,264.5 366.0,264.5 374.1,264.5 382.2,264.5 390.4,264.5 398.5,264.5 406.6,264.5 414.7,264.5 422.8,264.5 430.9,264.6 439.1,264.1 447.2,264.1 455.3,264.1 463.4,264.1 471.5,264.1 479.6,264.1 487.8,264.1 495.9,264.1 504.0,264.1 512.1,264.1 520.2,264.1 528.4,264.2 536.5,265.0 544.6,264.5 552.7,263.6 560.8,263.6 568.9,263.6 577.1,263.6 585.2,263.6 593.3,263.5 601.4,263.5 609.5,263.5 617.6,263.5 625.8,263.5 633.9,263.5 642.0,263.5 650.1,263.5 658.2,263.5 666.4,263.5 674.5,263.5 682.6,263.5 690.7,263.5 698.8,263.5 706.9,263.5 715.1,263.5 723.2,263.5 731.3,263.5 739.4,263.5 747.5,263.5 755.6,263.5 763.8,263.5 771.9,258.1 780.0,252.6 780.0,340.0" fill="url(#delGrad)" class="anim" style="animation-delay:300ms;"/>
<polyline points="90.0,326.4 98.1,327.8 106.2,326.4 114.4,327.8 122.5,333.6 130.6,324.7 138.7,324.7 146.8,323.8 154.9,323.4 163.1,323.2 171.2,323.1 179.3,307.1 187.4,307.1 195.5,307.0 203.6,288.9 211.8,288.7 219.9,288.7 228.0,288.7 236.1,288.7 244.2,288.7 252.4,288.7 260.5,279.2 268.6,264.7 276.7,264.7 284.8,264.7 292.9,264.7 301.1,264.6 309.2,264.6 317.3,264.6 325.4,264.5 333.5,264.5 341.6,264.5 349.8,264.5 357.9,264.5 366.0,264.5 374.1,264.5 382.2,264.5 390.4,264.5 398.5,264.5 406.6,264.5 414.7,264.5 422.8,264.5 430.9,264.6 439.1,264.1 447.2,264.1 455.3,264.1 463.4,264.1 471.5,264.1 479.6,264.1 487.8,264.1 495.9,264.1 504.0,264.1 512.1,264.1 520.2,264.1 528.4,264.2 536.5,265.0 544.6,264.5 552.7,263.6 560.8,263.6 568.9,263.6 577.1,263.6 585.2,263.6 593.3,263.5 601.4,263.5 609.5,263.5 617.6,263.5 625.8,263.5 633.9,263.5 642.0,263.5 650.1,263.5 658.2,263.5 666.4,263.5 674.5,263.5 682.6,263.5 690.7,263.5 698.8,263.5 706.9,263.5 715.1,263.5 723.2,263.5 731.3,263.5 739.4,263.5 747.5,263.5 755.6,263.5 763.8,263.5" fill="none" stroke="#f85149" stroke-width="1.5" stroke-linejoin="round" class="anim" style="animation-delay:350ms;"/>
<polyline points="763.8,263.5 771.9,258.1 780.0,252.6" fill="none" stroke="#f85149" stroke-width="1" stroke-dasharray="5,4" stroke-linejoin="round" opacity="0.6" class="anim" style="animation-delay:350ms;"/>
<polyline points="90.0,340.0 98.1,340.0 106.2,340.0 114.4,340.0 122.5,340.0 130.6,340.0 138.7,340.0 146.8,340.0 154.9,308.0 163.1,308.0 171.2,308.0 179.3,308.0 187.4,308.0 195.5,308.0 203.6,308.0 211.8,308.0 219.9,308.0 228.0,308.0 236.1,308.0 244.2,308.0 252.4,308.0 260.5,308.0 268.6,308.0 276.7,308.0 284.8,308.0 292.9,308.0 301.1,308.0 309.2,308.0 317.3,308.0 325.4,308.0 333.5,308.0 341.6,308.0 349.8,308.0 357.9,308.0 366.0,276.0 374.1,276.0 382.2,276.0 390.4,276.0 398.5,276.0 406.6,276.0 414.7,276.0 422.8,276.0 430.9,244.0 439.1,244.0 447.2,244.0 455.3,244.0 463.4,244.0 471.5,244.0 479.6,244.0 487.8,244.0 495.9,244.0 504.0,244.0 512.1,244.0 520.2,244.0 528.4,244.0 536.5,244.0 544.6,244.0 552.7,244.0 560.8,180.0 568.9,180.0 577.1,180.0 585.2,180.0 593.3,180.0 601.4,180.0 609.5,180.0 617.6,180.0 625.8,180.0 633.9,180.0 642.0,180.0 650.1,180.0 658.2,180.0 666.4,180.0 674.5,180.0 682.6,180.0 690.7,180.0 698.8,180.0 706.9,180.0 715.1,180.0 723.2,180.0 731.3,180.0 739.4,180.0 747.5,180.0 755.6,180.0 763.8,180.0" fill="none" stroke="#e3b341" stroke-width="1.5" stroke-dasharray="4,3" stroke-linejoin="round" class="anim" style="animation-delay:400ms;"/>
<polyline points="763.8,180.0 771.9,180.0 780.0,148.0" fill="none" stroke="#e3b341" stroke-width="1" stroke-dasharray="3,5" stroke-linejoin="round" opacity="0.5" class="anim" style="animation-delay:400ms;"/>
<text x="90" y="90" class="subtitle">Lines Added vs Deleted (per snapshot)</text>
<text x="90" y="400" class="subtitle">Programming Language Development (%)</text>
<line x1="90" y1="650.0" x2="780" y2="650.0" stroke="#21262d" stroke-width="1"/>
<text x="82" y="654.0" text-anchor="end" class="axis-label">0%</text>
<line x1="90" y1="590.0" x2="780" y2="590.0" stroke="#21262d" stroke-width="1"/>
<text x="82" y="594.0" text-anchor="end" class="axis-label">25%</text>
<line x1="90" y1="530.0" x2="780" y2="530.0" stroke="#21262d" stroke-width="1"/>
<text x="82" y="534.0" text-anchor="end" class="axis-label">50%</text>
<line x1="90" y1="470.0" x2="780" y2="470.0" stroke="#21262d" stroke-width="1"/>
<text x="82" y="474.0" text-anchor="end" class="axis-label">75%</text>
<line x1="90" y1="410.0" x2="780" y2="410.0" stroke="#21262d" stroke-width="1"/>
<text x="82" y="414.0" text-anchor="end" class="axis-label">100%</text>
<polygon points="90.0,650.0 98.1,650.0 106.2,650.0 114.4,650.0 122.5,650.0 130.6,650.0 138.7,650.0 146.8,650.0 154.9,528.2 163.1,528.5 171.2,529.7 179.3,499.3 187.4,499.3 195.5,502.9 203.6,485.0 211.8,485.1 219.9,485.4 228.0,485.4 236.1,485.4 244.2,485.4 252.4,485.4 260.5,496.4 268.6,496.7 276.7,491.0 284.8,491.0 292.9,491.0 301.1,491.7 309.2,491.8 317.3,494.0 325.4,494.0 333.5,494.4 341.6,494.4 349.8,494.4 357.9,494.4 366.0,507.6 374.1,507.6 382.2,507.9 390.4,507.9 398.5,507.9 406.6,506.3 414.7,506.4 422.8,506.8 430.9,506.9 439.1,506.8 447.2,507.5 455.3,507.5 463.4,507.5 471.5,507.5 479.6,507.5 487.8,507.5 495.9,507.5 504.0,507.5 512.1,507.5 520.2,507.5 528.4,507.5 536.5,507.5 544.6,507.5 552.7,508.6 560.8,508.6 568.9,508.6 577.1,508.6 585.2,508.6 593.3,509.5 601.4,509.8 609.5,509.8 617.6,509.8 625.8,509.8 633.9,509.8 642.0,509.8 650.1,509.8 658.2,509.8 666.4,510.9 674.5,510.9 682.6,510.9 690.7,510.9 698.8,510.9 706.9,510.9 715.1,510.9 723.2,510.9 731.3,510.9 739.4,510.9 747.5,510.9 755.6,510.9 763.8,510.9 771.9,512.8 780.0,514.7 780.0,650.0 771.9,650.0 763.8,650.0 755.6,650.0 747.5,650.0 739.4,650.0 731.3,650.0 723.2,650.0 715.1,650.0 706.9,650.0 698.8,650.0 690.7,650.0 682.6,650.0 674.5,650.0 666.4,650.0 658.2,650.0 650.1,650.0 642.0,650.0 633.9,650.0 625.8,650.0 617.6,650.0 609.5,650.0 601.4,650.0 593.3,650.0 585.2,650.0 577.1,650.0 568.9,650.0 560.8,650.0 552.7,650.0 544.6,650.0 536.5,650.0 528.4,650.0 520.2,650.0 512.1,650.0 504.0,650.0 495.9,650.0 487.8,650.0 479.6,650.0 471.5,650.0 463.4,650.0 455.3,650.0 447.2,650.0 439.1,650.0 430.9,650.0 422.8,650.0 414.7,650.0 406.6,650.0 398.5,650.0 390.4,650.0 382.2,650.0 374.1,650.0 366.0,650.0 357.9,650.0 349.8,650.0 341.6,650.0 333.5,650.0 325.4,650.0 317.3,650.0 309.2,650.0 301.1,650.0 292.9,650.0 284.8,650.0 276.7,650.0 268.6,650.0 260.5,650.0 252.4,650.0 244.2,650.0 236.1,650.0 228.0,650.0 219.9,650.0 211.8,650.0 203.6,650.0 195.5,650.0 187.4,650.0 179.3,650.0 171.2,650.0 163.1,650.0 154.9,650.0 146.8,650.0 138.7,650.0 130.6,650.0 122.5,650.0 114.4,650.0 106.2,650.0 98.1,650.0 90.0,650.0" fill="#e34c26" opacity="0.6" class="anim" style="animation-delay:500ms;"/>
<polygon points="90.0,650.0 98.1,650.0 106.2,650.0 114.4,650.0 122.5,650.0 130.6,650.0 138.7,650.0 146.8,650.0 154.9,488.4 163.1,488.0 171.2,489.0 179.3,476.0 187.4,476.0 195.5,477.2 203.6,460.1 211.8,460.2 219.9,460.6 228.0,460.6 236.1,460.6 244.2,460.6 252.4,460.6 260.5,473.0 268.6,473.5 276.7,469.5 284.8,469.5 292.9,469.5 301.1,469.7 309.2,469.7 317.3,469.7 325.4,469.7 333.5,469.7 341.6,469.7 349.8,469.7 357.9,469.7 366.0,455.6 374.1,455.6 382.2,455.4 390.4,455.4 398.5,455.4 406.6,454.3 414.7,454.3 422.8,455.0 430.9,455.1 439.1,454.9 447.2,455.9 455.3,455.9 463.4,455.9 471.5,455.9 479.6,455.9 487.8,455.9 495.9,455.9 504.0,455.9 512.1,455.9 520.2,455.9 528.4,455.9 536.5,455.9 544.6,455.9 552.7,455.8 560.8,455.8 568.9,455.8 577.1,455.8 585.2,455.8 593.3,457.0 601.4,457.4 609.5,457.4 617.6,457.4 625.8,457.4 633.9,457.4 642.0,457.4 650.1,457.4 658.2,457.4 666.4,458.2 674.5,458.2 682.6,458.2 690.7,458.2 698.8,458.2 706.9,458.2 715.1,458.2 723.2,458.2 731.3,458.2 739.4,458.2 747.5,458.2 755.6,458.2 763.8,458.2 771.9,456.4 780.0,454.6 780.0,514.7 771.9,512.8 763.8,510.9 755.6,510.9 747.5,510.9 739.4,510.9 731.3,510.9 723.2,510.9 715.1,510.9 706.9,510.9 698.8,510.9 690.7,510.9 682.6,510.9 674.5,510.9 666.4,510.9 658.2,509.8 650.1,509.8 642.0,509.8 633.9,509.8 625.8,509.8 617.6,509.8 609.5,509.8 601.4,509.8 593.3,509.5 585.2,508.6 577.1,508.6 568.9,508.6 560.8,508.6 552.7,508.6 544.6,507.5 536.5,507.5 528.4,507.5 520.2,507.5 512.1,507.5 504.0,507.5 495.9,507.5 487.8,507.5 479.6,507.5 471.5,507.5 463.4,507.5 455.3,507.5 447.2,507.5 439.1,506.8 430.9,506.9 422.8,506.8 414.7,506.4 406.6,506.3 398.5,507.9 390.4,507.9 382.2,507.9 374.1,507.6 366.0,507.6 357.9,494.4 349.8,494.4 341.6,494.4 333.5,494.4 325.4,494.0 317.3,494.0 309.2,491.8 301.1,491.7 292.9,491.0 284.8,491.0 276.7,491.0 268.6,496.7 260.5,496.4 252.4,485.4 244.2,485.4 236.1,485.4 228.0,485.4 219.9,485.4 211.8,485.1 203.6,485.0 195.5,502.9 187.4,499.3 179.3,499.3 171.2,529.7 163.1,528.5 154.9,528.2 146.8,650.0 138.7,650.0 130.6,650.0 122.5,650.0 114.4,650.0 106.2,650.0 98.1,650.0 90.0,650.0" fill="#f1e05a" opacity="0.6" class="anim" style="animation-delay:600ms;"/>
<polygon points="90.0,650.0 98.1,650.0 106.2,650.0 114.4,650.0 122.5,650.0 130.6,650.0 138.7,650.0 146.8,650.0 154.9,455.5 163.1,455.4 171.2,455.1 179.3,447.0 187.4,447.0 195.5,448.2 203.6,438.9 211.8,439.0 219.9,439.6 228.0,439.6 236.1,439.6 244.2,439.6 252.4,439.6 260.5,445.6 268.6,445.6 276.7,443.3 284.8,443.3 292.9,443.3 301.1,443.6 309.2,443.6 317.3,444.1 325.4,444.1 333.5,444.1 341.6,444.1 349.8,444.1 357.9,444.1 366.0,437.5 374.1,437.5 382.2,437.5 390.4,437.5 398.5,437.5 406.6,437.5 414.7,437.5 422.8,438.4 430.9,438.5 439.1,438.3 447.2,439.3 455.3,439.3 463.4,439.3 471.5,439.3 479.6,439.3 487.8,439.3 495.9,439.3 504.0,439.3 512.1,439.3 520.2,439.3 528.4,439.3 536.5,439.3 544.6,439.3 552.7,439.4 560.8,439.4 568.9,439.4 577.1,439.4 585.2,439.4 593.3,440.7 601.4,441.1 609.5,441.1 617.6,441.1 625.8,441.1 633.9,441.1 642.0,441.1 650.1,441.1 658.2,441.1 666.4,442.0 674.5,442.0 682.6,442.0 690.7,442.0 698.8,442.0 706.9,442.0 715.1,442.0 723.2,442.0 731.3,442.0 739.4,442.0 747.5,442.0 755.6,442.0 763.8,442.0 771.9,441.7 780.0,441.4 780.0,454.6 771.9,456.4 763.8,458.2 755.6,458.2 747.5,458.2 739.4,458.2 731.3,458.2 723.2,458.2 715.1,458.2 706.9,458.2 698.8,458.2 690.7,458.2 682.6,458.2 674.5,458.2 666.4,458.2 658.2,457.4 650.1,457.4 642.0,457.4 633.9,457.4 625.8,457.4 617.6,457.4 609.5,457.4 601.4,457.4 593.3,457.0 585.2,455.8 577.1,455.8 568.9,455.8 560.8,455.8 552.7,455.8 544.6,455.9 536.5,455.9 528.4,455.9 520.2,455.9 512.1,455.9 504.0,455.9 495.9,455.9 487.8,455.9 479.6,455.9 471.5,455.9 463.4,455.9 455.3,455.9 447.2,455.9 439.1,454.9 430.9,455.1 422.8,455.0 414.7,454.3 406.6,454.3 398.5,455.4 390.4,455.4 382.2,455.4 374.1,455.6 366.0,455.6 357.9,469.7 349.8,469.7 341.6,469.7 333.5,469.7 325.4,469.7 317.3,469.7 309.2,469.7 301.1,469.7 292.9,469.5 284.8,469.5 276.7,469.5 268.6,473.5 260.5,473.0 252.4,460.6 244.2,460.6 236.1,460.6 228.0,460.6 219.9,460.6 211.8,460.2 203.6,460.1 195.5,477.2 187.4,476.0 179.3,476.0 171.2,489.0 163.1,488.0 154.9,488.4 146.8,650.0 138.7,650.0 130.6,650.0 122.5,650.0 114.4,650.0 106.2,650.0 98.1,650.0 90.0,650.0" fill="#3572A5" opacity="0.6" class="anim" style="animation-delay:700ms;"/>
<polygon points="90.0,650.0 98.1,650.0 106.2,650.0 114.4,650.0 122.5,650.0 130.6,650.0 138.7,650.0 146.8,650.0 154.9,442.3 163.1,442.0 171.2,441.6 179.3,439.5 187.4,439.5 195.5,439.4 203.6,432.3 211.8,432.2 219.9,432.6 228.0,432.6 236.1,432.6 244.2,432.6 252.4,432.6 260.5,439.3 268.6,439.3 276.7,437.4 284.8,437.4 292.9,437.4 301.1,437.3 309.2,437.3 317.3,437.1 325.4,437.1 333.5,437.1 341.6,437.1 349.8,437.1 357.9,437.1 366.0,428.7 374.1,428.6 382.2,428.5 390.4,428.5 398.5,428.5 406.6,427.3 414.7,427.3 422.8,427.1 430.9,427.1 439.1,427.1 447.2,427.0 455.3,427.0 463.4,427.0 471.5,427.0 479.6,427.0 487.8,427.0 495.9,427.0 504.0,427.0 512.1,427.0 520.2,427.0 528.4,427.0 536.5,427.0 544.6,427.0 552.7,427.0 560.8,427.1 568.9,427.1 577.1,427.1 585.2,427.1 593.3,428.4 601.4,428.9 609.5,428.9 617.6,428.9 625.8,428.9 633.9,428.9 642.0,428.9 650.1,428.9 658.2,428.9 666.4,428.7 674.5,428.7 682.6,428.7 690.7,428.7 698.8,428.7 706.9,428.7 715.1,428.7 723.2,428.7 731.3,428.7 739.4,428.7 747.5,428.7 755.6,428.7 763.8,428.7 771.9,427.7 780.0,426.7 780.0,441.4 771.9,441.7 763.8,442.0 755.6,442.0 747.5,442.0 739.4,442.0 731.3,442.0 723.2,442.0 715.1,442.0 706.9,442.0 698.8,442.0 690.7,442.0 682.6,442.0 674.5,442.0 666.4,442.0 658.2,441.1 650.1,441.1 642.0,441.1 633.9,441.1 625.8,441.1 617.6,441.1 609.5,441.1 601.4,441.1 593.3,440.7 585.2,439.4 577.1,439.4 568.9,439.4 560.8,439.4 552.7,439.4 544.6,439.3 536.5,439.3 528.4,439.3 520.2,439.3 512.1,439.3 504.0,439.3 495.9,439.3 487.8,439.3 479.6,439.3 471.5,439.3 463.4,439.3 455.3,439.3 447.2,439.3 439.1,438.3 430.9,438.5 422.8,438.4 414.7,437.5 406.6,437.5 398.5,437.5 390.4,437.5 382.2,437.5 374.1,437.5 366.0,437.5 357.9,444.1 349.8,444.1 341.6,444.1 333.5,444.1 325.4,444.1 317.3,444.1 309.2,443.6 301.1,443.6 292.9,443.3 284.8,443.3 276.7,443.3 268.6,445.6 260.5,445.6 252.4,439.6 244.2,439.6 236.1,439.6 228.0,439.6 219.9,439.6 211.8,439.0 203.6,438.9 195.5,448.2 187.4,447.0 179.3,447.0 171.2,455.1 163.1,455.4 154.9,455.5 146.8,650.0 138.7,650.0 130.6,650.0 122.5,650.0 114.4,650.0 106.2,650.0 98.1,650.0 90.0,650.0" fill="#663399" opacity="0.6" class="anim" style="animation-delay:800ms;"/>
<polygon points="90.0,650.0 98.1,650.0 106.2,650.0 114.4,650.0 122.5,650.0 130.6,650.0 138.7,650.0 146.8,650.0 154.9,436.6 163.1,436.3 171.2,435.9 179.3,432.2 187.4,432.2 195.5,432.2 203.6,426.2 211.8,426.1 219.9,426.0 228.0,426.0 236.1,426.0 244.2,426.0 252.4,426.0 260.5,430.8 268.6,430.7 276.7,429.3 284.8,429.3 292.9,429.3 301.1,429.2 309.2,429.2 317.3,428.9 325.4,428.9 333.5,428.8 341.6,428.8 349.8,428.8 357.9,428.8 366.0,423.0 374.1,422.9 382.2,422.9 390.4,422.9 398.5,422.9 406.6,422.0 414.7,422.0 422.8,421.9 430.9,421.9 439.1,421.9 447.2,421.8 455.3,421.8 463.4,421.8 471.5,421.8 479.6,421.8 487.8,421.8 495.9,421.8 504.0,421.8 512.1,421.8 520.2,421.8 528.4,421.8 536.5,421.8 544.6,421.8 552.7,421.7 560.8,421.8 568.9,421.8 577.1,421.8 585.2,421.8 593.3,423.2 601.4,423.6 609.5,423.6 617.6,423.6 625.8,423.6 633.9,423.6 642.0,423.6 650.1,423.6 658.2,423.6 666.4,423.5 674.5,423.5 682.6,423.5 690.7,423.5 698.8,423.5 706.9,423.5 715.1,423.5 723.2,423.5 731.3,423.5 739.4,423.5 747.5,423.5 755.6,423.5 763.8,423.5 771.9,422.8 780.0,422.0 780.0,426.7 771.9,427.7 763.8,428.7 755.6,428.7 747.5,428.7 739.4,428.7 731.3,428.7 723.2,428.7 715.1,428.7 706.9,428.7 698.8,428.7 690.7,428.7 682.6,428.7 674.5,428.7 666.4,428.7 658.2,428.9 650.1,428.9 642.0,428.9 633.9,428.9 625.8,428.9 617.6,428.9 609.5,428.9 601.4,428.9 593.3,428.4 585.2,427.1 577.1,427.1 568.9,427.1 560.8,427.1 552.7,427.0 544.6,427.0 536.5,427.0 528.4,427.0 520.2,427.0 512.1,427.0 504.0,427.0 495.9,427.0 487.8,427.0 479.6,427.0 471.5,427.0 463.4,427.0 455.3,427.0 447.2,427.0 439.1,427.1 430.9,427.1 422.8,427.1 414.7,427.3 406.6,427.3 398.5,428.5 390.4,428.5 382.2,428.5 374.1,428.6 366.0,428.7 357.9,437.1 349.8,437.1 341.6,437.1 333.5,437.1 325.4,437.1 317.3,437.1 309.2,437.3 301.1,437.3 292.9,437.4 284.8,437.4 276.7,437.4 268.6,439.3 260.5,439.3 252.4,432.6 244.2,432.6 236.1,432.6 228.0,432.6 219.9,432.6 211.8,432.2 203.6,432.3 195.5,439.4 187.4,439.5 179.3,439.5 171.2,441.6 163.1,442.0 154.9,442.3 146.8,650.0 138.7,650.0 130.6,650.0 122.5,650.0 114.4,650.0 106.2,650.0 98.1,650.0 90.0,650.0" fill="#083fa1" opacity="0.6" class="anim" style="animation-delay:900ms;"/>
<polygon points="90.0,650.0 98.1,650.0 106.2,650.0 114.4,650.0 122.5,650.0 130.6,650.0 138.7,650.0 146.8,650.0 154.9,428.3 163.1,428.1 171.2,427.8 179.3,425.3 187.4,425.3 195.5,425.2 203.6,421.1 211.8,421.1 219.9,421.0 228.0,421.0 236.1,421.0 244.2,421.0 252.4,421.0 260.5,424.3 268.6,424.2 276.7,423.3 284.8,423.3 292.9,423.3 301.1,423.2 309.2,423.2 317.3,423.0 325.4,423.0 333.5,422.9 341.6,422.9 349.8,422.9 357.9,422.9 366.0,418.9 374.1,418.9 382.2,418.8 390.4,418.8 398.5,418.8 406.6,418.3 414.7,418.3 422.8,418.2 430.9,418.2 439.1,418.2 447.2,418.1 455.3,418.1 463.4,418.1 471.5,418.1 479.6,418.1 487.8,418.1 495.9,418.1 504.0,418.1 512.1,418.1 520.2,418.1 528.4,418.1 536.5,418.1 544.6,418.1 552.7,418.1 560.8,418.1 568.9,418.1 577.1,418.1 585.2,418.1 593.3,418.0 601.4,418.0 609.5,418.0 617.6,418.0 625.8,418.0 633.9,418.0 642.0,418.0 650.1,418.0 658.2,418.0 666.4,417.9 674.5,417.9 682.6,417.9 690.7,417.9 698.8,417.9 706.9,417.9 715.1,417.9 723.2,417.9 731.3,417.9 739.4,417.9 747.5,417.9 755.6,417.9 763.8,417.9 771.9,417.3 780.0,416.7 780.0,422.0 771.9,422.8 763.8,423.5 755.6,423.5 747.5,423.5 739.4,423.5 731.3,423.5 723.2,423.5 715.1,423.5 706.9,423.5 698.8,423.5 690.7,423.5 682.6,423.5 674.5,423.5 666.4,423.5 658.2,423.6 650.1,423.6 642.0,423.6 633.9,423.6 625.8,423.6 617.6,423.6 609.5,423.6 601.4,423.6 593.3,423.2 585.2,421.8 577.1,421.8 568.9,421.8 560.8,421.8 552.7,421.7 544.6,421.8 536.5,421.8 528.4,421.8 520.2,421.8 512.1,421.8 504.0,421.8 495.9,421.8 487.8,421.8 479.6,421.8 471.5,421.8 463.4,421.8 455.3,421.8 447.2,421.8 439.1,421.9 430.9,421.9 422.8,421.9 414.7,422.0 406.6,422.0 398.5,422.9 390.4,422.9 382.2,422.9 374.1,422.9 366.0,423.0 357.9,428.8 349.8,428.8 341.6,428.8 333.5,428.8 325.4,428.9 317.3,428.9 309.2,429.2 301.1,429.2 292.9,429.3 284.8,429.3 276.7,429.3 268.6,430.7 260.5,430.8 252.4,426.0 244.2,426.0 236.1,426.0 228.0,426.0 219.9,426.0 211.8,426.1 203.6,426.2 195.5,432.2 187.4,432.2 179.3,432.2 171.2,435.9 163.1,436.3 154.9,436.6 146.8,650.0 138.7,650.0 130.6,650.0 122.5,650.0 114.4,650.0 106.2,650.0 98.1,650.0 90.0,650.0" fill="#F05138" opacity="0.6" class="anim" style="animation-delay:1000ms;"/>
<polygon points="90.0,650.0 98.1,650.0 106.2,650.0 114.4,650.0 122.5,650.0 130.6,650.0 138.7,650.0 146.8,650.0 154.9,418.7 163.1,418.6 171.2,418.5 179.3,417.3 187.4,417.3 195.5,417.2 203.6,415.3 211.8,415.3 219.9,415.2 228.0,415.2 236.1,415.2 244.2,415.2 252.4,415.2 260.5,416.8 268.6,416.8 276.7,416.3 284.8,416.3 292.9,416.3 301.1,416.3 309.2,416.3 317.3,416.2 325.4,416.2 333.5,416.2 341.6,416.2 349.8,416.2 357.9,416.2 366.0,414.2 374.1,414.2 382.2,414.2 390.4,414.2 398.5,414.2 406.6,413.9 414.7,413.9 422.8,413.9 430.9,413.9 439.1,413.9 447.2,413.9 455.3,413.9 463.4,413.9 471.5,413.9 479.6,413.9 487.8,413.9 495.9,413.9 504.0,413.9 512.1,413.9 520.2,413.9 528.4,413.9 536.5,413.9 544.6,413.9 552.7,413.8 560.8,413.8 568.9,413.8 577.1,413.8 585.2,413.8 593.3,413.8 601.4,413.8 609.5,413.8 617.6,413.8 625.8,413.8 633.9,413.8 642.0,413.8 650.1,413.8 658.2,413.8 666.4,413.8 674.5,413.8 682.6,413.8 690.7,413.8 698.8,413.8 706.9,413.8 715.1,413.8 723.2,413.8 731.3,413.8 739.4,413.8 747.5,413.8 755.6,413.8 763.8,413.8 771.9,413.6 780.0,413.4 780.0,416.7 771.9,417.3 763.8,417.9 755.6,417.9 747.5,417.9 739.4,417.9 731.3,417.9 723.2,417.9 715.1,417.9 706.9,417.9 698.8,417.9 690.7,417.9 682.6,417.9 674.5,417.9 666.4,417.9 658.2,418.0 650.1,418.0 642.0,418.0 633.9,418.0 625.8,418.0 617.6,418.0 609.5,418.0 601.4,418.0 593.3,418.0 585.2,418.1 577.1,418.1 568.9,418.1 560.8,418.1 552.7,418.1 544.6,418.1 536.5,418.1 528.4,418.1 520.2,418.1 512.1,418.1 504.0,418.1 495.9,418.1 487.8,418.1 479.6,418.1 471.5,418.1 463.4,418.1 455.3,418.1 447.2,418.1 439.1,418.2 430.9,418.2 422.8,418.2 414.7,418.3 406.6,418.3 398.5,418.8 390.4,418.8 382.2,418.8 374.1,418.9 366.0,418.9 357.9,422.9 349.8,422.9 341.6,422.9 333.5,422.9 325.4,423.0 317.3,423.0 309.2,423.2 301.1,423.2 292.9,423.3 284.8,423.3 276.7,423.3 268.6,424.2 260.5,424.3 252.4,421.0 244.2,421.0 236.1,421.0 228.0,421.0 219.9,421.0 211.8,421.1 203.6,421.1 195.5,425.2 187.4,425.3 179.3,425.3 171.2,427.8 163.1,428.1 154.9,428.3 146.8,650.0 138.7,650.0 130.6,650.0 122.5,650.0 114.4,650.0 106.2,650.0 98.1,650.0 90.0,650.0" fill="#6E4C13" opacity="0.6" class="anim" style="animation-delay:1100ms;"/>
<polygon points="90.0,650.0 98.1,650.0 106.2,650.0 114.4,650.0 122.5,650.0 130.6,650.0 138.7,650.0 146.8,650.0 154.9,414.4 163.1,414.4 171.2,414.3 179.3,413.7 187.4,413.7 195.5,413.7 203.6,412.7 211.8,412.7 219.9,412.7 228.0,412.7 236.1,412.7 244.2,412.7 252.4,412.7 260.5,413.5 268.6,413.4 276.7,413.2 284.8,413.2 292.9,413.2 301.1,413.2 309.2,413.2 317.3,413.1 325.4,413.1 333.5,413.1 341.6,413.1 349.8,413.1 357.9,413.1 366.0,412.2 374.1,412.1 382.2,412.1 390.4,412.1 398.5,412.1 406.6,412.0 414.7,412.0 422.8,412.0 430.9,412.0 439.1,412.0 447.2,412.0 455.3,412.0 463.4,412.0 471.5,412.0 479.6,412.0 487.8,412.0 495.9,412.0 504.0,412.0 512.1,412.0 520.2,412.0 528.4,412.0 536.5,412.0 544.6,412.0 552.7,411.9 560.8,411.9 568.9,411.9 577.1,411.9 585.2,411.9 593.3,411.9 601.4,411.9 609.5,411.9 617.6,411.9 625.8,411.9 633.9,411.9 642.0,411.9 650.1,411.9 658.2,411.9 666.4,411.9 674.5,411.9 682.6,411.9 690.7,411.9 698.8,411.9 706.9,411.9 715.1,411.9 723.2,411.9 731.3,411.9 739.4,411.9 747.5,411.9 755.6,411.9 763.8,411.9 771.9,411.9 780.0,411.9 780.0,413.4 771.9,413.6 763.8,413.8 755.6,413.8 747.5,413.8 739.4,413.8 731.3,413.8 723.2,413.8 715.1,413.8 706.9,413.8 698.8,413.8 690.7,413.8 682.6,413.8 674.5,413.8 666.4,413.8 658.2,413.8 650.1,413.8 642.0,413.8 633.9,413.8 625.8,413.8 617.6,413.8 609.5,413.8 601.4,413.8 593.3,413.8 585.2,413.8 577.1,413.8 568.9,413.8 560.8,413.8 552.7,413.8 544.6,413.9 536.5,413.9 528.4,413.9 520.2,413.9 512.1,413.9 504.0,413.9 495.9,413.9 487.8,413.9 479.6,413.9 471.5,413.9 463.4,413.9 455.3,413.9 447.2,413.9 439.1,413.9 430.9,413.9 422.8,413.9 414.7,413.9 406.6,413.9 398.5,414.2 390.4,414.2 382.2,414.2 374.1,414.2 366.0,414.2 357.9,416.2 349.8,416.2 341.6,416.2 333.5,416.2 325.4,416.2 317.3,416.2 309.2,416.3 301.1,416.3 292.9,416.3 284.8,416.3 276.7,416.3 268.6,416.8 260.5,416.8 252.4,415.2 244.2,415.2 236.1,415.2 228.0,415.2 219.9,415.2 211.8,415.3 203.6,415.3 195.5,417.2 187.4,417.3 179.3,417.3 171.2,418.5 163.1,418.6 154.9,418.7 146.8,650.0 138.7,650.0 130.6,650.0 122.5,650.0 114.4,650.0 106.2,650.0 98.1,650.0 90.0,650.0" fill="#b07219" opacity="0.6" class="anim" style="animation-delay:1200ms;"/>
<line x1="763.8" y1="100" x2="763.8" y2="650" stroke="#c9d1d9" stroke-width="1" stroke-dasharray="4,3" opacity="0.35"/>
<text x="771.9" y="112" text-anchor="middle" class="axis-label" opacity="0.6">Jul 15, 2026</text>
<text x="90.0" y="668" text-anchor="middle" class="axis-label" transform="rotate(-35 90.0 668)">2026-02</text>
<text x="309.2" y="668" text-anchor="middle" class="axis-label" transform="rotate(-35 309.2 668)">2026-03</text>
<text x="528.4" y="668" text-anchor="middle" class="axis-label" transform="rotate(-35 528.4 668)">2026-04</text>
<text x="601.4" y="668" text-anchor="middle" class="axis-label" transform="rotate(-35 601.4 668)">2026-06</text>
<text x="763.8" y="668" text-anchor="middle" class="axis-label" transform="rotate(-35 763.8 668)">2026-07</text>
<line x1="796" y1="110" x2="824" y2="110" stroke="#3fb950" stroke-width="2"/>
<text x="832" y="116" class="legend-text">Lines Added</text>
<line x1="796" y1="140" x2="824" y2="140" stroke="#f85149" stroke-width="1.5"/>
<text x="832" y="146" class="legend-text">Lines Deleted</text>
<line x1="796" y1="170" x2="824" y2="170" stroke="#e3b341" stroke-width="1.5" stroke-dasharray="4,3"/>
<text x="832" y="176" class="legend-text">&#x2605; Stars</text>
<text x="796" y="200" class="subtitle">Languages</text>
<rect x="796" y="212" width="12" height="12" rx="2" fill="#e34c26" opacity="0.8" class="anim" style="animation-delay:800ms;"/>
<text x="814" y="223" class="legend-text">HTML (58%→56%)</text>
<rect x="796" y="234" width="12" height="12" rx="2" fill="#f1e05a" opacity="0.8" class="anim" style="animation-delay:880ms;"/>
<text x="814" y="245" class="legend-text">JavaScript (22%→25%)</text>
<rect x="796" y="256" width="12" height="12" rx="2" fill="#3572A5" opacity="0.8" class="anim" style="animation-delay:960ms;"/>
<text x="814" y="267" class="legend-text">Python (7%→6%)</text>
<rect x="796" y="278" width="12" height="12" rx="2" fill="#663399" opacity="0.8" class="anim" style="animation-delay:1040ms;"/>
<text x="814" y="289" class="legend-text">CSS (6%→6%)</text>
<rect x="796" y="300" width="12" height="12" rx="2" fill="#083fa1" opacity="0.8" class="anim" style="animation-delay:1120ms;"/>
<text x="814" y="311" class="legend-text">Markdown (2%→2%)</text>
<rect x="796" y="322" width="12" height="12" rx="2" fill="#F05138" opacity="0.8" class="anim" style="animation-delay:1200ms;"/>
<text x="814" y="333" class="legend-text">Swift (2%→2%)</text>
<rect x="796" y="344" width="12" height="12" rx="2" fill="#6E4C13" opacity="0.8" class="anim" style="animation-delay:1280ms;"/>
<text x="814" y="355" class="legend-text">Assembly (2%→1%)</text>
<rect x="796" y="366" width="12" height="12" rx="2" fill="#b07219" opacity="0.8" class="anim" style="animation-delay:1360ms;"/>
<text x="814" y="377" class="legend-text">Java (1%→1%)</text>
<text x="796" y="412" class="subtitle">Contributions</text>
<text x="796" y="432" class="axis-label">2023: 39</text>
<text x="796" y="452" class="axis-label">2024: 646</text>
<text x="796" y="472" class="axis-label">2025: 1,780</text>
<text x="796" y="492" class="axis-label">2026: 491</text>
<text x="796" y="522" class="subtitle">Statistics</text>
<text x="796" y="542" class="axis-label">Active weeks: 88</text>
<text x="796" y="562" class="axis-label">Add/Del ratio: 1.8x</text>
<text x="796" y="582" class="axis-label">Avg lines/wk: 18K</text>
<text x="796" y="602" class="axis-label">Peak: 2026-02-15</text>
<text x="796" y="622" class="axis-label">  (543K lines)</text>
<text x="90" y="742" class="axis-label">Total: +1,040,332 / -576,819 lines &#xb7; 2,956 contributions &#xb7; 80 repos &#xb7; &#x2605; 37</text>
</svg>