<svg xmlns="http://www.w3.org/2000/svg" width="1000" height="760" style="max-width: 100%;" viewBox="0 0 1000 760">

<defs>
  <linearGradient id="areaGrad" x1="0" y1="0" x2="0" y2="1">
    <stop offset="0%" stop-color="#58a6ff" stop-opacity="0.35"/>
    <stop offset="100%" stop-color="#58a6ff" stop-opacity="0.02"/>
  </linearGradient>
  <linearGradient id="addGrad" x1="0" y1="0" x2="0" y2="1">
    <stop offset="0%" stop-color="#3fb950" stop-opacity="0.35"/>
    <stop offset="100%" stop-color="#3fb950" stop-opacity="0.02"/>
  </linearGradient>
  <linearGradient id="delGrad" x1="0" y1="0" x2="0" y2="1">
    <stop offset="0%" stop-color="#f85149" stop-opacity="0.25"/>
    <stop offset="100%" stop-color="#f85149" stop-opacity="0.02"/>
  </linearGradient>
</defs>
<style>
  .title { font: bold 28px 'Segoe UI', Ubuntu, Sans-Serif; fill: #c9d1d9; }
  .subtitle { font: 600 20px 'Segoe UI', Ubuntu, Sans-Serif; fill: #c9d1d9; opacity: 0.8; }
  .axis-label { font: 18px 'Segoe UI', Ubuntu, Sans-Serif; fill: #c9d1d9; opacity: 0.7; }
  .legend-text { font: 14px 'Segoe UI', Ubuntu, Sans-Serif; fill: #c9d1d9; }
  .value-text { font: bold 18px 'Segoe UI', Ubuntu, Sans-Serif; fill: #c9d1d9; }
  .stat-value { font: bold 22px 'Segoe UI', Ubuntu, Sans-Serif; fill: #c9d1d9; }
  .stat-label { font: 18px 'Segoe UI', Ubuntu, Sans-Serif; fill: #c9d1d9; opacity: 0.7; }
  @keyframes fadeIn { from { opacity: 0; } to { opacity: 1; } }
  .anim { animation: fadeIn 0.6s ease-in-out forwards; opacity: 0; }
</style>

<rect x="0.5" y="0.5" rx="4.5" width="999" height="759" fill="#161b22" stroke="#21262d"/>
<text x="90" y="45" class="title">Activity History</text>
<text x="90" y="72" class="subtitle">Lines added vs deleted &amp; activity trends over time</text>
<line x1="90" y1="340.0" x2="780" y2="340.0" stroke="#21262d" stroke-width="1"/>
<text x="82" y="344.0" text-anchor="end" class="axis-label">0</text>
<line x1="90" y1="280.0" x2="780" y2="280.0" stroke="#21262d" stroke-width="1"/>
<text x="82" y="284.0" text-anchor="end" class="axis-label">452K</text>
<line x1="90" y1="220.0" x2="780" y2="220.0" stroke="#21262d" stroke-width="1"/>
<text x="82" y="224.0" text-anchor="end" class="axis-label">903K</text>
<line x1="90" y1="160.0" x2="780" y2="160.0" stroke="#21262d" stroke-width="1"/>
<text x="82" y="164.0" text-anchor="end" class="axis-label">1.4M</text>
<line x1="90" y1="100.0" x2="780" y2="100.0" stroke="#21262d" stroke-width="1"/>
<text x="82" y="104.0" text-anchor="end" class="axis-label">1.8M</text>
<polygon points="90.0,340.0 90.0,291.5 97.3,293.3 104.7,291.5 112.0,293.3 119.4,304.4 126.7,282.2 134.0,282.2 141.4,273.8 148.7,273.5 156.1,273.0 163.4,272.9 170.7,258.0 178.1,258.0 185.4,257.9 192.8,235.8 200.1,235.5 207.4,235.3 214.8,235.3 222.1,235.3 229.5,235.3 236.8,235.3 244.1,234.7 251.5,219.9 258.8,219.9 266.2,219.9 273.5,219.9 280.9,219.5 288.2,219.5 295.5,218.9 302.9,218.9 310.2,218.8 317.6,218.8 324.9,218.8 332.2,218.8 339.6,218.9 346.9,218.8 354.3,218.8 361.6,218.8 368.9,218.8 376.3,218.8 383.6,218.8 391.0,218.2 398.3,218.4 405.6,217.8 413.0,217.4 420.3,217.4 427.7,217.4 435.0,217.4 442.3,217.4 449.7,217.4 457.0,217.4 464.4,217.4 471.7,217.4 479.0,217.4 486.4,217.7 493.7,219.2 501.1,217.8 508.4,216.5 515.7,216.4 523.1,216.4 530.4,216.4 537.8,216.4 545.1,208.8 552.4,201.9 559.8,201.9 567.1,201.9 574.5,201.9 581.8,201.9 589.1,201.9 596.5,201.9 603.8,201.9 611.2,201.8 618.5,201.8 625.9,201.8 633.2,201.8 640.5,201.8 647.9,201.8 655.2,201.8 662.6,201.8 669.9,201.8 677.2,201.8 684.6,201.8 691.9,201.8 699.3,201.8 706.6,201.8 713.9,201.8 721.3,201.8 728.6,201.8 736.0,201.8 743.3,201.8 750.6,201.8 758.0,201.8 765.3,201.8 772.7,194.4 780.0,187.1 780.0,340.0" fill="url(#addGrad)" class="anim" style="animation-delay:200ms;"/>
<polyline points="90.0,291.5 97.3,293.3 104.7,291.5 112.0,293.3 119.4,304.4 126.7,282.2 134.0,282.2 141.4,273.8 148.7,273.5 156.1,273.0 163.4,272.9 170.7,258.0 178.1,258.0 185.4,257.9 192.8,235.8 200.1,235.5 207.4,235.3 214.8,235.3 222.1,235.3 229.5,235.3 236.8,235.3 244.1,234.7 251.5,219.9 258.8,219.9 266.2,219.9 273.5,219.9 280.9,219.5 288.2,219.5 295.5,218.9 302.9,218.9 310.2,218.8 317.6,218.8 324.9,218.8 332.2,218.8 339.6,218.9 346.9,218.8 354.3,218.8 361.6,218.8 368.9,218.8 376.3,218.8 383.6,218.8 391.0,218.2 398.3,218.4 405.6,217.8 413.0,217.4 420.3,217.4 427.7,217.4 435.0,217.4 442.3,217.4 449.7,217.4 457.0,217.4 464.4,217.4 471.7,217.4 479.0,217.4 486.4,217.7 493.7,219.2 501.1,217.8 508.4,216.5 515.7,216.4 523.1,216.4 530.4,216.4 537.8,216.4 545.1,208.8 552.4,201.9 559.8,201.9 567.1,201.9 574.5,201.9 581.8,201.9 589.1,201.9 596.5,201.9 603.8,201.9 611.2,201.8 618.5,201.8 625.9,201.8 633.2,201.8 640.5,201.8 647.9,201.8 655.2,201.8 662.6,201.8 669.9,201.8 677.2,201.8 684.6,201.8 691.9,201.8 699.3,201.8 706.6,201.8 713.9,201.8 721.3,201.8 728.6,201.8 736.0,201.8 743.3,201.8 750.6,201.8 758.0,201.8 765.3,201.8" fill="none" stroke="#3fb950" stroke-width="2" stroke-linejoin="round" class="anim" style="animation-delay:250ms;"/>
<polyline points="765.3,201.8 772.7,194.4 780.0,187.1" fill="none" stroke="#3fb950" stroke-width="1.5" stroke-dasharray="5,4" stroke-linejoin="round" opacity="0.6" class="anim" style="animation-delay:250ms;"/>
<polygon points="90.0,340.0 90.0,326.4 97.3,327.8 104.7,326.4 112.0,327.8 119.4,333.6 126.7,324.7 134.0,324.7 141.4,323.7 148.7,323.4 156.1,323.1 163.4,323.1 170.7,307.0 178.1,307.0 185.4,307.0 192.8,288.8 200.1,288.6 207.4,288.6 214.8,288.6 222.1,288.6 229.5,288.6 236.8,288.6 244.1,279.1 251.5,264.6 258.8,264.5 266.2,264.5 273.5,264.5 280.9,264.4 288.2,264.4 295.5,264.4 302.9,264.3 310.2,264.3 317.6,264.3 324.9,264.3 332.2,264.3 339.6,264.4 346.9,264.3 354.3,264.3 361.6,264.3 368.9,264.3 376.3,264.3 383.6,264.3 391.0,264.3 398.3,264.4 405.6,263.9 413.0,263.9 420.3,263.9 427.7,263.9 435.0,263.9 442.3,263.9 449.7,263.9 457.0,263.9 464.4,263.9 471.7,263.9 479.0,263.9 486.4,264.0 493.7,264.8 501.1,264.3 508.4,263.5 515.7,263.4 523.1,263.4 530.4,263.4 537.8,263.4 545.1,263.4 552.4,263.4 559.8,263.4 567.1,263.4 574.5,263.4 581.8,263.4 589.1,263.4 596.5,263.4 603.8,263.4 611.2,263.4 618.5,263.4 625.9,263.4 633.2,263.4 640.5,263.4 647.9,263.4 655.2,263.4 662.6,263.4 669.9,263.4 677.2,263.4 684.6,263.4 691.9,263.4 699.3,263.4 706.6,263.4 713.9,263.4 721.3,263.4 728.6,263.4 736.0,263.4 743.3,263.4 750.6,263.4 758.0,263.4 765.3,263.4 772.7,258.1 780.0,252.9 780.0,340.0" fill="url(#delGrad)" class="anim" style="animation-delay:300ms;"/>
<polyline points="90.0,326.4 97.3,327.8 104.7,326.4 112.0,327.8 119.4,333.6 126.7,324.7 134.0,324.7 141.4,323.7 148.7,323.4 156.1,323.1 163.4,323.1 170.7,307.0 178.1,307.0 185.4,307.0 192.8,288.8 200.1,288.6 207.4,288.6 214.8,288.6 222.1,288.6 229.5,288.6 236.8,288.6 244.1,279.1 251.5,264.6 258.8,264.5 266.2,264.5 273.5,264.5 280.9,264.4 288.2,264.4 295.5,264.4 302.9,264.3 310.2,264.3 317.6,264.3 324.9,264.3 332.2,264.3 339.6,264.4 346.9,264.3 354.3,264.3 361.6,264.3 368.9,264.3 376.3,264.3 383.6,264.3 391.0,264.3 398.3,264.4 405.6,263.9 413.0,263.9 420.3,263.9 427.7,263.9 435.0,263.9 442.3,263.9 449.7,263.9 457.0,263.9 464.4,263.9 471.7,263.9 479.0,263.9 486.4,264.0 493.7,264.8 501.1,264.3 508.4,263.5 515.7,263.4 523.1,263.4 530.4,263.4 537.8,263.4 545.1,263.4 552.4,263.4 559.8,263.4 567.1,263.4 574.5,263.4 581.8,263.4 589.1,263.4 596.5,263.4 603.8,263.4 611.2,263.4 618.5,263.4 625.9,263.4 633.2,263.4 640.5,263.4 647.9,263.4 655.2,263.4 662.6,263.4 669.9,263.4 677.2,263.4 684.6,263.4 691.9,263.4 699.3,263.4 706.6,263.4 713.9,263.4 721.3,263.4 728.6,263.4 736.0,263.4 743.3,263.4 750.6,263.4 758.0,263.4 765.3,263.4" fill="none" stroke="#f85149" stroke-width="1.5" stroke-linejoin="round" class="anim" style="animation-delay:350ms;"/>
<polyline points="765.3,263.4 772.7,258.1 780.0,252.9" fill="none" stroke="#f85149" stroke-width="1" stroke-dasharray="5,4" stroke-linejoin="round" opacity="0.6" class="anim" style="animation-delay:350ms;"/>
<polyline points="90.0,340.0 97.3,340.0 104.7,340.0 112.0,340.0 119.4,340.0 126.7,340.0 134.0,340.0 141.4,340.0 148.7,308.0 156.1,308.0 163.4,308.0 170.7,308.0 178.1,308.0 185.4,308.0 192.8,308.0 200.1,308.0 207.4,308.0 214.8,308.0 222.1,308.0 229.5,308.0 236.8,308.0 244.1,308.0 251.5,308.0 258.8,308.0 266.2,308.0 273.5,308.0 280.9,308.0 288.2,308.0 295.5,308.0 302.9,308.0 310.2,308.0 317.6,308.0 324.9,308.0 332.2,308.0 339.6,276.0 346.9,276.0 354.3,276.0 361.6,276.0 368.9,276.0 376.3,276.0 383.6,276.0 391.0,276.0 398.3,244.0 405.6,244.0 413.0,244.0 420.3,244.0 427.7,244.0 435.0,244.0 442.3,244.0 449.7,244.0 457.0,244.0 464.4,244.0 471.7,244.0 479.0,244.0 486.4,244.0 493.7,244.0 501.1,244.0 508.4,244.0 515.7,180.0 523.1,180.0 530.4,180.0 537.8,180.0 545.1,180.0 552.4,180.0 559.8,180.0 567.1,180.0 574.5,180.0 581.8,180.0 589.1,180.0 596.5,180.0 603.8,180.0 611.2,180.0 618.5,180.0 625.9,180.0 633.2,180.0 640.5,180.0 647.9,180.0 655.2,180.0 662.6,180.0 669.9,180.0 677.2,180.0 684.6,180.0 691.9,180.0 699.3,180.0 706.6,180.0 713.9,180.0 721.3,180.0 728.6,180.0 736.0,180.0 743.3,180.0 750.6,180.0 758.0,180.0 765.3,180.0" fill="none" stroke="#e3b341" stroke-width="1.5" stroke-dasharray="4,3" stroke-linejoin="round" class="anim" style="animation-delay:400ms;"/>
<polyline points="765.3,180.0 772.7,180.0 780.0,148.0" fill="none" stroke="#e3b341" stroke-width="1" stroke-dasharray="3,5" stroke-linejoin="round" opacity="0.5" class="anim" style="animation-delay:400ms;"/>
<text x="90" y="90" class="subtitle">Lines Added vs Deleted (per snapshot)</text>
<text x="90" y="400" class="subtitle">Programming Language Development (%)</text>
<line x1="90" y1="650.0" x2="780" y2="650.0" stroke="#21262d" stroke-width="1"/>
<text x="82" y="654.0" text-anchor="end" class="axis-label">0%</text>
<line x1="90" y1="590.0" x2="780" y2="590.0" stroke="#21262d" stroke-width="1"/>
<text x="82" y="594.0" text-anchor="end" class="axis-label">25%</text>
<line x1="90" y1="530.0" x2="780" y2="530.0" stroke="#21262d" stroke-width="1"/>
<text x="82" y="534.0" text-anchor="end" class="axis-label">50%</text>
<line x1="90" y1="470.0" x2="780" y2="470.0" stroke="#21262d" stroke-width="1"/>
<text x="82" y="474.0" text-anchor="end" class="axis-label">75%</text>
<line x1="90" y1="410.0" x2="780" y2="410.0" stroke="#21262d" stroke-width="1"/>
<text x="82" y="414.0" text-anchor="end" class="axis-label">100%</text>
<polygon points="90.0,650.0 97.3,650.0 104.7,650.0 112.0,650.0 119.4,650.0 126.7,650.0 134.0,650.0 141.4,650.0 148.7,528.2 156.1,528.5 163.4,529.7 170.7,499.3 178.1,499.3 185.4,502.9 192.8,485.0 200.1,485.1 207.4,485.4 214.8,485.4 222.1,485.4 229.5,485.4 236.8,485.4 244.1,496.4 251.5,496.7 258.8,491.0 266.2,491.0 273.5,491.0 280.9,491.7 288.2,491.8 295.5,494.0 302.9,494.0 310.2,494.4 317.6,494.4 324.9,494.4 332.2,494.4 339.6,507.6 346.9,507.6 354.3,507.9 361.6,507.9 368.9,507.9 376.3,506.3 383.6,506.4 391.0,506.8 398.3,506.9 405.6,506.8 413.0,507.5 420.3,507.5 427.7,507.5 435.0,507.5 442.3,507.5 449.7,507.5 457.0,507.5 464.4,507.5 471.7,507.5 479.0,507.5 486.4,507.5 493.7,507.5 501.1,507.5 508.4,508.6 515.7,508.6 523.1,508.6 530.4,508.6 537.8,508.6 545.1,509.5 552.4,509.8 559.8,509.8 567.1,509.8 574.5,509.8 581.8,509.8 589.1,509.8 596.5,509.8 603.8,509.8 611.2,510.9 618.5,510.9 625.9,510.9 633.2,510.9 640.5,510.9 647.9,510.9 655.2,510.9 662.6,510.9 669.9,510.9 677.2,510.9 684.6,510.9 691.9,510.9 699.3,510.9 706.6,510.9 713.9,510.9 721.3,510.9 728.6,510.9 736.0,510.9 743.3,510.9 750.6,510.9 758.0,510.9 765.3,510.9 772.7,512.9 780.0,514.8 780.0,650.0 772.7,650.0 765.3,650.0 758.0,650.0 750.6,650.0 743.3,650.0 736.0,650.0 728.6,650.0 721.3,650.0 713.9,650.0 706.6,650.0 699.3,650.0 691.9,650.0 684.6,650.0 677.2,650.0 669.9,650.0 662.6,650.0 655.2,650.0 647.9,650.0 640.5,650.0 633.2,650.0 625.9,650.0 618.5,650.0 611.2,650.0 603.8,650.0 596.5,650.0 589.1,650.0 581.8,650.0 574.5,650.0 567.1,650.0 559.8,650.0 552.4,650.0 545.1,650.0 537.8,650.0 530.4,650.0 523.1,650.0 515.7,650.0 508.4,650.0 501.1,650.0 493.7,650.0 486.4,650.0 479.0,650.0 471.7,650.0 464.4,650.0 457.0,650.0 449.7,650.0 442.3,650.0 435.0,650.0 427.7,650.0 420.3,650.0 413.0,650.0 405.6,650.0 398.3,650.0 391.0,650.0 383.6,650.0 376.3,650.0 368.9,650.0 361.6,650.0 354.3,650.0 346.9,650.0 339.6,650.0 332.2,650.0 324.9,650.0 317.6,650.0 310.2,650.0 302.9,650.0 295.5,650.0 288.2,650.0 280.9,650.0 273.5,650.0 266.2,650.0 258.8,650.0 251.5,650.0 244.1,650.0 236.8,650.0 229.5,650.0 222.1,650.0 214.8,650.0 207.4,650.0 200.1,650.0 192.8,650.0 185.4,650.0 178.1,650.0 170.7,650.0 163.4,650.0 156.1,650.0 148.7,650.0 141.4,650.0 134.0,650.0 126.7,650.0 119.4,650.0 112.0,650.0 104.7,650.0 97.3,650.0 90.0,650.0" fill="#e34c26" opacity="0.6" class="anim" style="animation-delay:500ms;"/>
<polygon points="90.0,650.0 97.3,650.0 104.7,650.0 112.0,650.0 119.4,650.0 126.7,650.0 134.0,650.0 141.4,650.0 148.7,488.4 156.1,488.0 163.4,489.0 170.7,476.0 178.1,476.0 185.4,477.2 192.8,460.1 200.1,460.2 207.4,460.6 214.8,460.6 222.1,460.6 229.5,460.6 236.8,460.6 244.1,473.0 251.5,473.5 258.8,469.5 266.2,469.5 273.5,469.5 280.9,469.7 288.2,469.7 295.5,469.7 302.9,469.7 310.2,469.7 317.6,469.7 324.9,469.7 332.2,469.7 339.6,455.6 346.9,455.6 354.3,455.4 361.6,455.4 368.9,455.4 376.3,454.3 383.6,454.3 391.0,455.0 398.3,455.1 405.6,454.9 413.0,455.9 420.3,455.9 427.7,455.9 435.0,455.9 442.3,455.9 449.7,455.9 457.0,455.9 464.4,455.9 471.7,455.9 479.0,455.9 486.4,455.9 493.7,455.9 501.1,455.9 508.4,455.8 515.7,455.8 523.1,455.8 530.4,455.8 537.8,455.8 545.1,457.0 552.4,457.4 559.8,457.4 567.1,457.4 574.5,457.4 581.8,457.4 589.1,457.4 596.5,457.4 603.8,457.4 611.2,458.2 618.5,458.2 625.9,458.2 633.2,458.2 640.5,458.2 647.9,458.2 655.2,458.2 662.6,458.2 669.9,458.2 677.2,458.2 684.6,458.2 691.9,458.2 699.3,458.2 706.6,458.2 713.9,458.2 721.3,458.2 728.6,458.2 736.0,458.2 743.3,458.2 750.6,458.2 758.0,458.2 765.3,458.2 772.7,456.6 780.0,455.0 780.0,514.8 772.7,512.9 765.3,510.9 758.0,510.9 750.6,510.9 743.3,510.9 736.0,510.9 728.6,510.9 721.3,510.9 713.9,510.9 706.6,510.9 699.3,510.9 691.9,510.9 684.6,510.9 677.2,510.9 669.9,510.9 662.6,510.9 655.2,510.9 647.9,510.9 640.5,510.9 633.2,510.9 625.9,510.9 618.5,510.9 611.2,510.9 603.8,509.8 596.5,509.8 589.1,509.8 581.8,509.8 574.5,509.8 567.1,509.8 559.8,509.8 552.4,509.8 545.1,509.5 537.8,508.6 530.4,508.6 523.1,508.6 515.7,508.6 508.4,508.6 501.1,507.5 493.7,507.5 486.4,507.5 479.0,507.5 471.7,507.5 464.4,507.5 457.0,507.5 449.7,507.5 442.3,507.5 435.0,507.5 427.7,507.5 420.3,507.5 413.0,507.5 405.6,506.8 398.3,506.9 391.0,506.8 383.6,506.4 376.3,506.3 368.9,507.9 361.6,507.9 354.3,507.9 346.9,507.6 339.6,507.6 332.2,494.4 324.9,494.4 317.6,494.4 310.2,494.4 302.9,494.0 295.5,494.0 288.2,491.8 280.9,491.7 273.5,491.0 266.2,491.0 258.8,491.0 251.5,496.7 244.1,496.4 236.8,485.4 229.5,485.4 222.1,485.4 214.8,485.4 207.4,485.4 200.1,485.1 192.8,485.0 185.4,502.9 178.1,499.3 170.7,499.3 163.4,529.7 156.1,528.5 148.7,528.2 141.4,650.0 134.0,650.0 126.7,650.0 119.4,650.0 112.0,650.0 104.7,650.0 97.3,650.0 90.0,650.0" fill="#f1e05a" opacity="0.6" class="anim" style="animation-delay:600ms;"/>
<polygon points="90.0,650.0 97.3,650.0 104.7,650.0 112.0,650.0 119.4,650.0 126.7,650.0 134.0,650.0 141.4,650.0 148.7,455.5 156.1,455.4 163.4,455.1 170.7,447.0 178.1,447.0 185.4,448.2 192.8,438.9 200.1,439.0 207.4,439.6 214.8,439.6 222.1,439.6 229.5,439.6 236.8,439.6 244.1,445.6 251.5,445.6 258.8,443.3 266.2,443.3 273.5,443.3 280.9,443.6 288.2,443.6 295.5,444.1 302.9,444.1 310.2,444.1 317.6,444.1 324.9,444.1 332.2,444.1 339.6,437.5 346.9,437.5 354.3,437.5 361.6,437.5 368.9,437.5 376.3,437.5 383.6,437.5 391.0,438.4 398.3,438.5 405.6,438.3 413.0,439.3 420.3,439.3 427.7,439.3 435.0,439.3 442.3,439.3 449.7,439.3 457.0,439.3 464.4,439.3 471.7,439.3 479.0,439.3 486.4,439.3 493.7,439.3 501.1,439.3 508.4,439.4 515.7,439.4 523.1,439.4 530.4,439.4 537.8,439.4 545.1,440.7 552.4,441.1 559.8,441.1 567.1,441.1 574.5,441.1 581.8,441.1 589.1,441.1 596.5,441.1 603.8,441.1 611.2,442.0 618.5,442.0 625.9,442.0 633.2,442.0 640.5,442.0 647.9,442.0 655.2,442.0 662.6,442.0 669.9,442.0 677.2,442.0 684.6,442.0 691.9,442.0 699.3,442.0 706.6,442.0 713.9,442.0 721.3,442.0 728.6,442.0 736.0,442.0 743.3,442.0 750.6,442.0 758.0,442.0 765.3,442.0 772.7,441.8 780.0,441.6 780.0,455.0 772.7,456.6 765.3,458.2 758.0,458.2 750.6,458.2 743.3,458.2 736.0,458.2 728.6,458.2 721.3,458.2 713.9,458.2 706.6,458.2 699.3,458.2 691.9,458.2 684.6,458.2 677.2,458.2 669.9,458.2 662.6,458.2 655.2,458.2 647.9,458.2 640.5,458.2 633.2,458.2 625.9,458.2 618.5,458.2 611.2,458.2 603.8,457.4 596.5,457.4 589.1,457.4 581.8,457.4 574.5,457.4 567.1,457.4 559.8,457.4 552.4,457.4 545.1,457.0 537.8,455.8 530.4,455.8 523.1,455.8 515.7,455.8 508.4,455.8 501.1,455.9 493.7,455.9 486.4,455.9 479.0,455.9 471.7,455.9 464.4,455.9 457.0,455.9 449.7,455.9 442.3,455.9 435.0,455.9 427.7,455.9 420.3,455.9 413.0,455.9 405.6,454.9 398.3,455.1 391.0,455.0 383.6,454.3 376.3,454.3 368.9,455.4 361.6,455.4 354.3,455.4 346.9,455.6 339.6,455.6 332.2,469.7 324.9,469.7 317.6,469.7 310.2,469.7 302.9,469.7 295.5,469.7 288.2,469.7 280.9,469.7 273.5,469.5 266.2,469.5 258.8,469.5 251.5,473.5 244.1,473.0 236.8,460.6 229.5,460.6 222.1,460.6 214.8,460.6 207.4,460.6 200.1,460.2 192.8,460.1 185.4,477.2 178.1,476.0 170.7,476.0 163.4,489.0 156.1,488.0 148.7,488.4 141.4,650.0 134.0,650.0 126.7,650.0 119.4,650.0 112.0,650.0 104.7,650.0 97.3,650.0 90.0,650.0" fill="#3572A5" opacity="0.6" class="anim" style="animation-delay:700ms;"/>
<polygon points="90.0,650.0 97.3,650.0 104.7,650.0 112.0,650.0 119.4,650.0 126.7,650.0 134.0,650.0 141.4,650.0 148.7,442.3 156.1,442.0 163.4,441.6 170.7,439.5 178.1,439.5 185.4,439.4 192.8,432.3 200.1,432.2 207.4,432.6 214.8,432.6 222.1,432.6 229.5,432.6 236.8,432.6 244.1,439.3 251.5,439.3 258.8,437.4 266.2,437.4 273.5,437.4 280.9,437.3 288.2,437.3 295.5,437.1 302.9,437.1 310.2,437.1 317.6,437.1 324.9,437.1 332.2,437.1 339.6,428.7 346.9,428.6 354.3,428.5 361.6,428.5 368.9,428.5 376.3,427.3 383.6,427.3 391.0,427.1 398.3,427.1 405.6,427.1 413.0,427.0 420.3,427.0 427.7,427.0 435.0,427.0 442.3,427.0 449.7,427.0 457.0,427.0 464.4,427.0 471.7,427.0 479.0,427.0 486.4,427.0 493.7,427.0 501.1,427.0 508.4,427.0 515.7,427.1 523.1,427.1 530.4,427.1 537.8,427.1 545.1,428.4 552.4,428.9 559.8,428.9 567.1,428.9 574.5,428.9 581.8,428.9 589.1,428.9 596.5,428.9 603.8,428.9 611.2,428.7 618.5,428.7 625.9,428.7 633.2,428.7 640.5,428.7 647.9,428.7 655.2,428.7 662.6,428.7 669.9,428.7 677.2,428.7 684.6,428.7 691.9,428.7 699.3,428.7 706.6,428.7 713.9,428.7 721.3,428.7 728.6,428.7 736.0,428.7 743.3,428.7 750.6,428.7 758.0,428.7 765.3,428.7 772.7,427.8 780.0,426.8 780.0,441.6 772.7,441.8 765.3,442.0 758.0,442.0 750.6,442.0 743.3,442.0 736.0,442.0 728.6,442.0 721.3,442.0 713.9,442.0 706.6,442.0 699.3,442.0 691.9,442.0 684.6,442.0 677.2,442.0 669.9,442.0 662.6,442.0 655.2,442.0 647.9,442.0 640.5,442.0 633.2,442.0 625.9,442.0 618.5,442.0 611.2,442.0 603.8,441.1 596.5,441.1 589.1,441.1 581.8,441.1 574.5,441.1 567.1,441.1 559.8,441.1 552.4,441.1 545.1,440.7 537.8,439.4 530.4,439.4 523.1,439.4 515.7,439.4 508.4,439.4 501.1,439.3 493.7,439.3 486.4,439.3 479.0,439.3 471.7,439.3 464.4,439.3 457.0,439.3 449.7,439.3 442.3,439.3 435.0,439.3 427.7,439.3 420.3,439.3 413.0,439.3 405.6,438.3 398.3,438.5 391.0,438.4 383.6,437.5 376.3,437.5 368.9,437.5 361.6,437.5 354.3,437.5 346.9,437.5 339.6,437.5 332.2,444.1 324.9,444.1 317.6,444.1 310.2,444.1 302.9,444.1 295.5,444.1 288.2,443.6 280.9,443.6 273.5,443.3 266.2,443.3 258.8,443.3 251.5,445.6 244.1,445.6 236.8,439.6 229.5,439.6 222.1,439.6 214.8,439.6 207.4,439.6 200.1,439.0 192.8,438.9 185.4,448.2 178.1,447.0 170.7,447.0 163.4,455.1 156.1,455.4 148.7,455.5 141.4,650.0 134.0,650.0 126.7,650.0 119.4,650.0 112.0,650.0 104.7,650.0 97.3,650.0 90.0,650.0" fill="#663399" opacity="0.6" class="anim" style="animation-delay:800ms;"/>
<polygon points="90.0,650.0 97.3,650.0 104.7,650.0 112.0,650.0 119.4,650.0 126.7,650.0 134.0,650.0 141.4,650.0 148.7,436.6 156.1,436.3 163.4,435.9 170.7,432.2 178.1,432.2 185.4,432.2 192.8,426.2 200.1,426.1 207.4,426.0 214.8,426.0 222.1,426.0 229.5,426.0 236.8,426.0 244.1,430.8 251.5,430.7 258.8,429.3 266.2,429.3 273.5,429.3 280.9,429.2 288.2,429.2 295.5,428.9 302.9,428.9 310.2,428.8 317.6,428.8 324.9,428.8 332.2,428.8 339.6,423.0 346.9,422.9 354.3,422.9 361.6,422.9 368.9,422.9 376.3,422.0 383.6,422.0 391.0,421.9 398.3,421.9 405.6,421.9 413.0,421.8 420.3,421.8 427.7,421.8 435.0,421.8 442.3,421.8 449.7,421.8 457.0,421.8 464.4,421.8 471.7,421.8 479.0,421.8 486.4,421.8 493.7,421.8 501.1,421.8 508.4,421.7 515.7,421.8 523.1,421.8 530.4,421.8 537.8,421.8 545.1,423.2 552.4,423.6 559.8,423.6 567.1,423.6 574.5,423.6 581.8,423.6 589.1,423.6 596.5,423.6 603.8,423.6 611.2,423.5 618.5,423.5 625.9,423.5 633.2,423.5 640.5,423.5 647.9,423.5 655.2,423.5 662.6,423.5 669.9,423.5 677.2,423.5 684.6,423.5 691.9,423.5 699.3,423.5 706.6,423.5 713.9,423.5 721.3,423.5 728.6,423.5 736.0,423.5 743.3,423.5 750.6,423.5 758.0,423.5 765.3,423.5 772.7,422.9 780.0,422.2 780.0,426.8 772.7,427.8 765.3,428.7 758.0,428.7 750.6,428.7 743.3,428.7 736.0,428.7 728.6,428.7 721.3,428.7 713.9,428.7 706.6,428.7 699.3,428.7 691.9,428.7 684.6,428.7 677.2,428.7 669.9,428.7 662.6,428.7 655.2,428.7 647.9,428.7 640.5,428.7 633.2,428.7 625.9,428.7 618.5,428.7 611.2,428.7 603.8,428.9 596.5,428.9 589.1,428.9 581.8,428.9 574.5,428.9 567.1,428.9 559.8,428.9 552.4,428.9 545.1,428.4 537.8,427.1 530.4,427.1 523.1,427.1 515.7,427.1 508.4,427.0 501.1,427.0 493.7,427.0 486.4,427.0 479.0,427.0 471.7,427.0 464.4,427.0 457.0,427.0 449.7,427.0 442.3,427.0 435.0,427.0 427.7,427.0 420.3,427.0 413.0,427.0 405.6,427.1 398.3,427.1 391.0,427.1 383.6,427.3 376.3,427.3 368.9,428.5 361.6,428.5 354.3,428.5 346.9,428.6 339.6,428.7 332.2,437.1 324.9,437.1 317.6,437.1 310.2,437.1 302.9,437.1 295.5,437.1 288.2,437.3 280.9,437.3 273.5,437.4 266.2,437.4 258.8,437.4 251.5,439.3 244.1,439.3 236.8,432.6 229.5,432.6 222.1,432.6 214.8,432.6 207.4,432.6 200.1,432.2 192.8,432.3 185.4,439.4 178.1,439.5 170.7,439.5 163.4,441.6 156.1,442.0 148.7,442.3 141.4,650.0 134.0,650.0 126.7,650.0 119.4,650.0 112.0,650.0 104.7,650.0 97.3,650.0 90.0,650.0" fill="#083fa1" opacity="0.6" class="anim" style="animation-delay:900ms;"/>
<polygon points="90.0,650.0 97.3,650.0 104.7,650.0 112.0,650.0 119.4,650.0 126.7,650.0 134.0,650.0 141.4,650.0 148.7,428.3 156.1,428.1 163.4,427.8 170.7,425.3 178.1,425.3 185.4,425.2 192.8,421.1 200.1,421.1 207.4,421.0 214.8,421.0 222.1,421.0 229.5,421.0 236.8,421.0 244.1,424.3 251.5,424.2 258.8,423.3 266.2,423.3 273.5,423.3 280.9,423.2 288.2,423.2 295.5,423.0 302.9,423.0 310.2,422.9 317.6,422.9 324.9,422.9 332.2,422.9 339.6,418.9 346.9,418.9 354.3,418.8 361.6,418.8 368.9,418.8 376.3,418.3 383.6,418.3 391.0,418.2 398.3,418.2 405.6,418.2 413.0,418.1 420.3,418.1 427.7,418.1 435.0,418.1 442.3,418.1 449.7,418.1 457.0,418.1 464.4,418.1 471.7,418.1 479.0,418.1 486.4,418.1 493.7,418.1 501.1,418.1 508.4,418.1 515.7,418.1 523.1,418.1 530.4,418.1 537.8,418.1 545.1,418.0 552.4,418.0 559.8,418.0 567.1,418.0 574.5,418.0 581.8,418.0 589.1,418.0 596.5,418.0 603.8,418.0 611.2,417.9 618.5,417.9 625.9,417.9 633.2,417.9 640.5,417.9 647.9,417.9 655.2,417.9 662.6,417.9 669.9,417.9 677.2,417.9 684.6,417.9 691.9,417.9 699.3,417.9 706.6,417.9 713.9,417.9 721.3,417.9 728.6,417.9 736.0,417.9 743.3,417.9 750.6,417.9 758.0,417.9 765.3,417.9 772.7,417.3 780.0,416.7 780.0,422.2 772.7,422.9 765.3,423.5 758.0,423.5 750.6,423.5 743.3,423.5 736.0,423.5 728.6,423.5 721.3,423.5 713.9,423.5 706.6,423.5 699.3,423.5 691.9,423.5 684.6,423.5 677.2,423.5 669.9,423.5 662.6,423.5 655.2,423.5 647.9,423.5 640.5,423.5 633.2,423.5 625.9,423.5 618.5,423.5 611.2,423.5 603.8,423.6 596.5,423.6 589.1,423.6 581.8,423.6 574.5,423.6 567.1,423.6 559.8,423.6 552.4,423.6 545.1,423.2 537.8,421.8 530.4,421.8 523.1,421.8 515.7,421.8 508.4,421.7 501.1,421.8 493.7,421.8 486.4,421.8 479.0,421.8 471.7,421.8 464.4,421.8 457.0,421.8 449.7,421.8 442.3,421.8 435.0,421.8 427.7,421.8 420.3,421.8 413.0,421.8 405.6,421.9 398.3,421.9 391.0,421.9 383.6,422.0 376.3,422.0 368.9,422.9 361.6,422.9 354.3,422.9 346.9,422.9 339.6,423.0 332.2,428.8 324.9,428.8 317.6,428.8 310.2,428.8 302.9,428.9 295.5,428.9 288.2,429.2 280.9,429.2 273.5,429.3 266.2,429.3 258.8,429.3 251.5,430.7 244.1,430.8 236.8,426.0 229.5,426.0 222.1,426.0 214.8,426.0 207.4,426.0 200.1,426.1 192.8,426.2 185.4,432.2 178.1,432.2 170.7,432.2 163.4,435.9 156.1,436.3 148.7,436.6 141.4,650.0 134.0,650.0 126.7,650.0 119.4,650.0 112.0,650.0 104.7,650.0 97.3,650.0 90.0,650.0" fill="#F05138" opacity="0.6" class="anim" style="animation-delay:1000ms;"/>
<polygon points="90.0,650.0 97.3,650.0 104.7,650.0 112.0,650.0 119.4,650.0 126.7,650.0 134.0,650.0 141.4,650.0 148.7,418.7 156.1,418.6 163.4,418.5 170.7,417.3 178.1,417.3 185.4,417.2 192.8,415.3 200.1,415.3 207.4,415.2 214.8,415.2 222.1,415.2 229.5,415.2 236.8,415.2 244.1,416.8 251.5,416.8 258.8,416.3 266.2,416.3 273.5,416.3 280.9,416.3 288.2,416.3 295.5,416.2 302.9,416.2 310.2,416.2 317.6,416.2 324.9,416.2 332.2,416.2 339.6,414.2 346.9,414.2 354.3,414.2 361.6,414.2 368.9,414.2 376.3,413.9 383.6,413.9 391.0,413.9 398.3,413.9 405.6,413.9 413.0,413.9 420.3,413.9 427.7,413.9 435.0,413.9 442.3,413.9 449.7,413.9 457.0,413.9 464.4,413.9 471.7,413.9 479.0,413.9 486.4,413.9 493.7,413.9 501.1,413.9 508.4,413.8 515.7,413.8 523.1,413.8 530.4,413.8 537.8,413.8 545.1,413.8 552.4,413.8 559.8,413.8 567.1,413.8 574.5,413.8 581.8,413.8 589.1,413.8 596.5,413.8 603.8,413.8 611.2,413.8 618.5,413.8 625.9,413.8 633.2,413.8 640.5,413.8 647.9,413.8 655.2,413.8 662.6,413.8 669.9,413.8 677.2,413.8 684.6,413.8 691.9,413.8 699.3,413.8 706.6,413.8 713.9,413.8 721.3,413.8 728.6,413.8 736.0,413.8 743.3,413.8 750.6,413.8 758.0,413.8 765.3,413.8 772.7,413.6 780.0,413.4 780.0,416.7 772.7,417.3 765.3,417.9 758.0,417.9 750.6,417.9 743.3,417.9 736.0,417.9 728.6,417.9 721.3,417.9 713.9,417.9 706.6,417.9 699.3,417.9 691.9,417.9 684.6,417.9 677.2,417.9 669.9,417.9 662.6,417.9 655.2,417.9 647.9,417.9 640.5,417.9 633.2,417.9 625.9,417.9 618.5,417.9 611.2,417.9 603.8,418.0 596.5,418.0 589.1,418.0 581.8,418.0 574.5,418.0 567.1,418.0 559.8,418.0 552.4,418.0 545.1,418.0 537.8,418.1 530.4,418.1 523.1,418.1 515.7,418.1 508.4,418.1 501.1,418.1 493.7,418.1 486.4,418.1 479.0,418.1 471.7,418.1 464.4,418.1 457.0,418.1 449.7,418.1 442.3,418.1 435.0,418.1 427.7,418.1 420.3,418.1 413.0,418.1 405.6,418.2 398.3,418.2 391.0,418.2 383.6,418.3 376.3,418.3 368.9,418.8 361.6,418.8 354.3,418.8 346.9,418.9 339.6,418.9 332.2,422.9 324.9,422.9 317.6,422.9 310.2,422.9 302.9,423.0 295.5,423.0 288.2,423.2 280.9,423.2 273.5,423.3 266.2,423.3 258.8,423.3 251.5,424.2 244.1,424.3 236.8,421.0 229.5,421.0 222.1,421.0 214.8,421.0 207.4,421.0 200.1,421.1 192.8,421.1 185.4,425.2 178.1,425.3 170.7,425.3 163.4,427.8 156.1,428.1 148.7,428.3 141.4,650.0 134.0,650.0 126.7,650.0 119.4,650.0 112.0,650.0 104.7,650.0 97.3,650.0 90.0,650.0" fill="#6E4C13" opacity="0.6" class="anim" style="animation-delay:1100ms;"/>
<polygon points="90.0,650.0 97.3,650.0 104.7,650.0 112.0,650.0 119.4,650.0 126.7,650.0 134.0,650.0 141.4,650.0 148.7,414.4 156.1,414.4 163.4,414.3 170.7,413.7 178.1,413.7 185.4,413.7 192.8,412.7 200.1,412.7 207.4,412.7 214.8,412.7 222.1,412.7 229.5,412.7 236.8,412.7 244.1,413.5 251.5,413.4 258.8,413.2 266.2,413.2 273.5,413.2 280.9,413.2 288.2,413.2 295.5,413.1 302.9,413.1 310.2,413.1 317.6,413.1 324.9,413.1 332.2,413.1 339.6,412.2 346.9,412.1 354.3,412.1 361.6,412.1 368.9,412.1 376.3,412.0 383.6,412.0 391.0,412.0 398.3,412.0 405.6,412.0 413.0,412.0 420.3,412.0 427.7,412.0 435.0,412.0 442.3,412.0 449.7,412.0 457.0,412.0 464.4,412.0 471.7,412.0 479.0,412.0 486.4,412.0 493.7,412.0 501.1,412.0 508.4,411.9 515.7,411.9 523.1,411.9 530.4,411.9 537.8,411.9 545.1,411.9 552.4,411.9 559.8,411.9 567.1,411.9 574.5,411.9 581.8,411.9 589.1,411.9 596.5,411.9 603.8,411.9 611.2,411.9 618.5,411.9 625.9,411.9 633.2,411.9 640.5,411.9 647.9,411.9 655.2,411.9 662.6,411.9 669.9,411.9 677.2,411.9 684.6,411.9 691.9,411.9 699.3,411.9 706.6,411.9 713.9,411.9 721.3,411.9 728.6,411.9 736.0,411.9 743.3,411.9 750.6,411.9 758.0,411.9 765.3,411.9 772.7,411.9 780.0,411.9 780.0,413.4 772.7,413.6 765.3,413.8 758.0,413.8 750.6,413.8 743.3,413.8 736.0,413.8 728.6,413.8 721.3,413.8 713.9,413.8 706.6,413.8 699.3,413.8 691.9,413.8 684.6,413.8 677.2,413.8 669.9,413.8 662.6,413.8 655.2,413.8 647.9,413.8 640.5,413.8 633.2,413.8 625.9,413.8 618.5,413.8 611.2,413.8 603.8,413.8 596.5,413.8 589.1,413.8 581.8,413.8 574.5,413.8 567.1,413.8 559.8,413.8 552.4,413.8 545.1,413.8 537.8,413.8 530.4,413.8 523.1,413.8 515.7,413.8 508.4,413.8 501.1,413.9 493.7,413.9 486.4,413.9 479.0,413.9 471.7,413.9 464.4,413.9 457.0,413.9 449.7,413.9 442.3,413.9 435.0,413.9 427.7,413.9 420.3,413.9 413.0,413.9 405.6,413.9 398.3,413.9 391.0,413.9 383.6,413.9 376.3,413.9 368.9,414.2 361.6,414.2 354.3,414.2 346.9,414.2 339.6,414.2 332.2,416.2 324.9,416.2 317.6,416.2 310.2,416.2 302.9,416.2 295.5,416.2 288.2,416.3 280.9,416.3 273.5,416.3 266.2,416.3 258.8,416.3 251.5,416.8 244.1,416.8 236.8,415.2 229.5,415.2 222.1,415.2 214.8,415.2 207.4,415.2 200.1,415.3 192.8,415.3 185.4,417.2 178.1,417.3 170.7,417.3 163.4,418.5 156.1,418.6 148.7,418.7 141.4,650.0 134.0,650.0 126.7,650.0 119.4,650.0 112.0,650.0 104.7,650.0 97.3,650.0 90.0,650.0" fill="#b07219" opacity="0.6" class="anim" style="animation-delay:1200ms;"/>
<line x1="765.3" y1="100" x2="765.3" y2="650" stroke="#c9d1d9" stroke-width="1" stroke-dasharray="4,3" opacity="0.35"/>
<text x="772.7" y="112" text-anchor="middle" class="axis-label" opacity="0.6">Jul 25, 2026</text>
<text x="90.0" y="668" text-anchor="middle" class="axis-label" transform="rotate(-35 90.0 668)">2026-02</text>
<text x="310.2" y="668" text-anchor="middle" class="axis-label" transform="rotate(-35 310.2 668)">2026-03</text>
<text x="530.4" y="668" text-anchor="middle" class="axis-label" transform="rotate(-35 530.4 668)">2026-06</text>
<text x="750.6" y="668" text-anchor="middle" class="axis-label" transform="rotate(-35 750.6 668)">2026-07</text>
<line x1="796" y1="110" x2="824" y2="110" stroke="#3fb950" stroke-width="2"/>
<text x="832" y="116" class="legend-text">Lines Added</text>
<line x1="796" y1="140" x2="824" y2="140" stroke="#f85149" stroke-width="1.5"/>
<text x="832" y="146" class="legend-text">Lines Deleted</text>
<line x1="796" y1="170" x2="824" y2="170" stroke="#e3b341" stroke-width="1.5" stroke-dasharray="4,3"/>
<text x="832" y="176" class="legend-text">&#x2605; Stars</text>
<text x="796" y="200" class="subtitle">Languages</text>
<rect x="796" y="212" width="12" height="12" rx="2" fill="#e34c26" opacity="0.8" class="anim" style="animation-delay:800ms;"/>
<text x="814" y="223" class="legend-text">HTML (58%→56%)</text>
<rect x="796" y="234" width="12" height="12" rx="2" fill="#f1e05a" opacity="0.8" class="anim" style="animation-delay:880ms;"/>
<text x="814" y="245" class="legend-text">JavaScript (22%→25%)</text>
<rect x="796" y="256" width="12" height="12" rx="2" fill="#3572A5" opacity="0.8" class="anim" style="animation-delay:960ms;"/>
<text x="814" y="267" class="legend-text">Python (7%→6%)</text>
<rect x="796" y="278" width="12" height="12" rx="2" fill="#663399" opacity="0.8" class="anim" style="animation-delay:1040ms;"/>
<text x="814" y="289" class="legend-text">CSS (6%→6%)</text>
<rect x="796" y="300" width="12" height="12" rx="2" fill="#083fa1" opacity="0.8" class="anim" style="animation-delay:1120ms;"/>
<text x="814" y="311" class="legend-text">Markdown (2%→2%)</text>
<rect x="796" y="322" width="12" height="12" rx="2" fill="#F05138" opacity="0.8" class="anim" style="animation-delay:1200ms;"/>
<text x="814" y="333" class="legend-text">Swift (2%→2%)</text>
<rect x="796" y="344" width="12" height="12" rx="2" fill="#6E4C13" opacity="0.8" class="anim" style="animation-delay:1280ms;"/>
<text x="814" y="355" class="legend-text">Assembly (2%→1%)</text>
<rect x="796" y="366" width="12" height="12" rx="2" fill="#b07219" opacity="0.8" class="anim" style="animation-delay:1360ms;"/>
<text x="814" y="377" class="legend-text">Java (1%→1%)</text>
<text x="796" y="412" class="subtitle">Contributions</text>
<text x="796" y="432" class="axis-label">2023: 39</text>
<text x="796" y="452" class="axis-label">2024: 646</text>
<text x="796" y="472" class="axis-label">2025: 1,780</text>
<text x="796" y="492" class="axis-label">2026: 491</text>
<text x="796" y="522" class="subtitle">Statistics</text>
<text x="796" y="542" class="axis-label">Active weeks: 88</text>
<text x="796" y="562" class="axis-label">Add/Del ratio: 1.8x</text>
<text x="796" y="582" class="axis-label">Avg lines/wk: 18K</text>
<text x="796" y="602" class="axis-label">Peak: 2026-02-15</text>
<text x="796" y="622" class="axis-label">  (543K lines)</text>
<text x="90" y="742" class="axis-label">Total: +1,040,332 / -576,819 lines &#xb7; 2,956 contributions &#xb7; 80 repos &#xb7; &#x2605; 37</text>
</svg>