<svg xmlns="http://www.w3.org/2000/svg" width="1000" height="760" style="max-width: 100%;" viewBox="0 0 1000 760">

<defs>
  <linearGradient id="areaGrad" x1="0" y1="0" x2="0" y2="1">
    <stop offset="0%" stop-color="#58a6ff" stop-opacity="0.35"/>
    <stop offset="100%" stop-color="#58a6ff" stop-opacity="0.02"/>
  </linearGradient>
  <linearGradient id="addGrad" x1="0" y1="0" x2="0" y2="1">
    <stop offset="0%" stop-color="#3fb950" stop-opacity="0.35"/>
    <stop offset="100%" stop-color="#3fb950" stop-opacity="0.02"/>
  </linearGradient>
  <linearGradient id="delGrad" x1="0" y1="0" x2="0" y2="1">
    <stop offset="0%" stop-color="#f85149" stop-opacity="0.25"/>
    <stop offset="100%" stop-color="#f85149" stop-opacity="0.02"/>
  </linearGradient>
</defs>
<style>
  .title { font: bold 28px 'Segoe UI', Ubuntu, Sans-Serif; fill: #c9d1d9; }
  .subtitle { font: 600 20px 'Segoe UI', Ubuntu, Sans-Serif; fill: #c9d1d9; opacity: 0.8; }
  .axis-label { font: 18px 'Segoe UI', Ubuntu, Sans-Serif; fill: #c9d1d9; opacity: 0.7; }
  .legend-text { font: 14px 'Segoe UI', Ubuntu, Sans-Serif; fill: #c9d1d9; }
  .value-text { font: bold 18px 'Segoe UI', Ubuntu, Sans-Serif; fill: #c9d1d9; }
  .stat-value { font: bold 22px 'Segoe UI', Ubuntu, Sans-Serif; fill: #c9d1d9; }
  .stat-label { font: 18px 'Segoe UI', Ubuntu, Sans-Serif; fill: #c9d1d9; opacity: 0.7; }
  @keyframes fadeIn { from { opacity: 0; } to { opacity: 1; } }
  .anim { animation: fadeIn 0.6s ease-in-out forwards; opacity: 0; }
</style>

<rect x="0.5" y="0.5" rx="4.5" width="999" height="759" fill="#161b22" stroke="#21262d"/>
<text x="90" y="45" class="title">Activity History</text>
<text x="90" y="72" class="subtitle">Lines added vs deleted &amp; activity trends over time</text>
<line x1="90" y1="340.0" x2="780" y2="340.0" stroke="#21262d" stroke-width="1"/>
<text x="82" y="344.0" text-anchor="end" class="axis-label">0</text>
<line x1="90" y1="280.0" x2="780" y2="280.0" stroke="#21262d" stroke-width="1"/>
<text x="82" y="284.0" text-anchor="end" class="axis-label">674K</text>
<line x1="90" y1="220.0" x2="780" y2="220.0" stroke="#21262d" stroke-width="1"/>
<text x="82" y="224.0" text-anchor="end" class="axis-label">1.3M</text>
<line x1="90" y1="160.0" x2="780" y2="160.0" stroke="#21262d" stroke-width="1"/>
<text x="82" y="164.0" text-anchor="end" class="axis-label">2.0M</text>
<line x1="90" y1="100.0" x2="780" y2="100.0" stroke="#21262d" stroke-width="1"/>
<text x="82" y="104.0" text-anchor="end" class="axis-label">2.7M</text>
<polygon points="90.0,340.0 90.0,307.5 111.6,308.7 133.1,307.5 154.7,308.7 176.2,316.2 197.8,301.3 219.4,301.3 240.9,295.7 262.5,295.4 284.1,295.1 305.6,295.0 327.2,285.0 348.8,285.0 370.3,285.0 391.9,270.2 413.4,270.0 435.0,269.8 456.6,269.8 478.1,269.8 499.7,269.8 521.2,269.8 542.8,269.4 564.4,259.5 585.9,259.5 607.5,259.5 629.1,259.5 650.6,259.3 672.2,259.3 693.8,258.8 715.3,258.8 736.9,258.8 758.4,230.4 780.0,202.0 780.0,340.0" fill="url(#addGrad)" class="anim" style="animation-delay:200ms;"/>
<polyline points="90.0,307.5 111.6,308.7 133.1,307.5 154.7,308.7 176.2,316.2 197.8,301.3 219.4,301.3 240.9,295.7 262.5,295.4 284.1,295.1 305.6,295.0 327.2,285.0 348.8,285.0 370.3,285.0 391.9,270.2 413.4,270.0 435.0,269.8 456.6,269.8 478.1,269.8 499.7,269.8 521.2,269.8 542.8,269.4 564.4,259.5 585.9,259.5 607.5,259.5 629.1,259.5 650.6,259.3 672.2,259.3 693.8,258.8 715.3,258.8 736.9,258.8" fill="none" stroke="#3fb950" stroke-width="2" stroke-linejoin="round" class="anim" style="animation-delay:250ms;"/>
<polyline points="736.9,258.8 758.4,230.4 780.0,202.0" fill="none" stroke="#3fb950" stroke-width="1.5" stroke-dasharray="5,4" stroke-linejoin="round" opacity="0.6" class="anim" style="animation-delay:250ms;"/>
<polygon points="90.0,340.0 90.0,330.9 111.6,331.8 133.1,330.9 154.7,331.8 176.2,335.7 197.8,329.8 219.4,329.7 240.9,329.1 262.5,328.9 284.1,328.7 305.6,328.7 327.2,317.9 348.8,317.9 370.3,317.9 391.9,305.7 413.4,305.6 435.0,305.6 456.6,305.6 478.1,305.6 499.7,305.6 521.2,305.6 542.8,299.2 564.4,289.4 585.9,289.4 607.5,289.4 629.1,289.4 650.6,289.4 672.2,289.4 693.8,289.3 715.3,289.3 736.9,289.3 758.4,263.7 780.0,238.0 780.0,340.0" fill="url(#delGrad)" class="anim" style="animation-delay:300ms;"/>
<polyline points="90.0,330.9 111.6,331.8 133.1,330.9 154.7,331.8 176.2,335.7 197.8,329.8 219.4,329.7 240.9,329.1 262.5,328.9 284.1,328.7 305.6,328.7 327.2,317.9 348.8,317.9 370.3,317.9 391.9,305.7 413.4,305.6 435.0,305.6 456.6,305.6 478.1,305.6 499.7,305.6 521.2,305.6 542.8,299.2 564.4,289.4 585.9,289.4 607.5,289.4 629.1,289.4 650.6,289.4 672.2,289.4 693.8,289.3 715.3,289.3 736.9,289.3" fill="none" stroke="#f85149" stroke-width="1.5" stroke-linejoin="round" class="anim" style="animation-delay:350ms;"/>
<polyline points="736.9,289.3 758.4,263.7 780.0,238.0" fill="none" stroke="#f85149" stroke-width="1" stroke-dasharray="5,4" stroke-linejoin="round" opacity="0.6" class="anim" style="animation-delay:350ms;"/>
<polyline points="90.0,340.0 111.6,340.0 133.1,340.0 154.7,340.0 176.2,340.0 197.8,340.0 219.4,340.0 240.9,340.0 262.5,244.0 284.1,244.0 305.6,244.0 327.2,244.0 348.8,244.0 370.3,244.0 391.9,244.0 413.4,244.0 435.0,244.0 456.6,244.0 478.1,244.0 499.7,244.0 521.2,244.0 542.8,244.0 564.4,244.0 585.9,244.0 607.5,244.0 629.1,244.0 650.6,244.0 672.2,244.0 693.8,244.0 715.3,244.0 736.9,244.0" fill="none" stroke="#e3b341" stroke-width="1.5" stroke-dasharray="4,3" stroke-linejoin="round" class="anim" style="animation-delay:400ms;"/>
<polyline points="736.9,244.0 758.4,244.0 780.0,148.0" fill="none" stroke="#e3b341" stroke-width="1" stroke-dasharray="3,5" stroke-linejoin="round" opacity="0.5" class="anim" style="animation-delay:400ms;"/>
<text x="90" y="90" class="subtitle">Lines Added vs Deleted (per snapshot)</text>
<text x="90" y="400" class="subtitle">Programming Language Development (%)</text>
<line x1="90" y1="650.0" x2="780" y2="650.0" stroke="#21262d" stroke-width="1"/>
<text x="82" y="654.0" text-anchor="end" class="axis-label">0%</text>
<line x1="90" y1="590.0" x2="780" y2="590.0" stroke="#21262d" stroke-width="1"/>
<text x="82" y="594.0" text-anchor="end" class="axis-label">25%</text>
<line x1="90" y1="530.0" x2="780" y2="530.0" stroke="#21262d" stroke-width="1"/>
<text x="82" y="534.0" text-anchor="end" class="axis-label">50%</text>
<line x1="90" y1="470.0" x2="780" y2="470.0" stroke="#21262d" stroke-width="1"/>
<text x="82" y="474.0" text-anchor="end" class="axis-label">75%</text>
<line x1="90" y1="410.0" x2="780" y2="410.0" stroke="#21262d" stroke-width="1"/>
<text x="82" y="414.0" text-anchor="end" class="axis-label">100%</text>
<polygon points="90.0,650.0 111.6,650.0 133.1,650.0 154.7,650.0 176.2,650.0 197.8,650.0 219.4,650.0 240.9,650.0 262.5,528.2 284.1,528.5 305.6,529.7 327.2,499.3 348.8,499.3 370.3,502.9 391.9,485.0 413.4,485.1 435.0,485.4 456.6,485.4 478.1,485.4 499.7,485.4 521.2,485.4 542.8,496.4 564.4,496.7 585.9,491.0 607.5,491.0 629.1,491.0 650.6,491.7 672.2,491.8 693.8,494.0 715.3,494.0 736.9,494.4 758.4,479.4 780.0,464.4 780.0,650.0 758.4,650.0 736.9,650.0 715.3,650.0 693.8,650.0 672.2,650.0 650.6,650.0 629.1,650.0 607.5,650.0 585.9,650.0 564.4,650.0 542.8,650.0 521.2,650.0 499.7,650.0 478.1,650.0 456.6,650.0 435.0,650.0 413.4,650.0 391.9,650.0 370.3,650.0 348.8,650.0 327.2,650.0 305.6,650.0 284.1,650.0 262.5,650.0 240.9,650.0 219.4,650.0 197.8,650.0 176.2,650.0 154.7,650.0 133.1,650.0 111.6,650.0 90.0,650.0" fill="#e34c26" opacity="0.6" class="anim" style="animation-delay:500ms;"/>
<polygon points="90.0,650.0 111.6,650.0 133.1,650.0 154.7,650.0 176.2,650.0 197.8,650.0 219.4,650.0 240.9,650.0 262.5,495.2 284.1,495.9 305.6,495.9 327.2,470.2 348.8,470.2 370.3,473.9 391.9,463.8 413.4,463.9 435.0,464.3 456.6,464.3 478.1,464.3 499.7,464.3 521.2,464.3 542.8,469.0 564.4,468.8 585.9,464.8 607.5,464.8 629.1,464.8 650.6,465.7 672.2,465.7 693.8,468.4 715.3,468.4 736.9,468.8 758.4,456.7 780.0,444.7 780.0,464.4 758.4,479.4 736.9,494.4 715.3,494.0 693.8,494.0 672.2,491.8 650.6,491.7 629.1,491.0 607.5,491.0 585.9,491.0 564.4,496.7 542.8,496.4 521.2,485.4 499.7,485.4 478.1,485.4 456.6,485.4 435.0,485.4 413.4,485.1 391.9,485.0 370.3,502.9 348.8,499.3 327.2,499.3 305.6,529.7 284.1,528.5 262.5,528.2 240.9,650.0 219.4,650.0 197.8,650.0 176.2,650.0 154.7,650.0 133.1,650.0 111.6,650.0 90.0,650.0" fill="#3572A5" opacity="0.6" class="anim" style="animation-delay:600ms;"/>
<polygon points="90.0,650.0 111.6,650.0 133.1,650.0 154.7,650.0 176.2,650.0 197.8,650.0 219.4,650.0 240.9,650.0 262.5,455.5 284.1,455.4 305.6,455.1 327.2,447.0 348.8,447.0 370.3,448.2 391.9,438.9 413.4,439.0 435.0,439.6 456.6,439.6 478.1,439.6 499.7,439.6 521.2,439.6 542.8,445.6 564.4,445.6 585.9,443.3 607.5,443.3 629.1,443.3 650.6,443.6 672.2,443.6 693.8,444.1 715.3,444.1 736.9,444.1 758.4,439.8 780.0,435.4 780.0,444.7 758.4,456.7 736.9,468.8 715.3,468.4 693.8,468.4 672.2,465.7 650.6,465.7 629.1,464.8 607.5,464.8 585.9,464.8 564.4,468.8 542.8,469.0 521.2,464.3 499.7,464.3 478.1,464.3 456.6,464.3 435.0,464.3 413.4,463.9 391.9,463.8 370.3,473.9 348.8,470.2 327.2,470.2 305.6,495.9 284.1,495.9 262.5,495.2 240.9,650.0 219.4,650.0 197.8,650.0 176.2,650.0 154.7,650.0 133.1,650.0 111.6,650.0 90.0,650.0" fill="#f1e05a" opacity="0.6" class="anim" style="animation-delay:700ms;"/>
<polygon points="90.0,650.0 111.6,650.0 133.1,650.0 154.7,650.0 176.2,650.0 197.8,650.0 219.4,650.0 240.9,650.0 262.5,442.3 284.1,442.0 305.6,441.6 327.2,439.5 348.8,439.5 370.3,439.4 391.9,432.3 413.4,432.2 435.0,432.6 456.6,432.6 478.1,432.6 499.7,432.6 521.2,432.6 542.8,439.3 564.4,439.3 585.9,437.4 607.5,437.4 629.1,437.4 650.6,437.3 672.2,437.3 693.8,437.1 715.3,437.1 736.9,437.1 758.4,436.0 780.0,435.0 780.0,435.4 758.4,439.8 736.9,444.1 715.3,444.1 693.8,444.1 672.2,443.6 650.6,443.6 629.1,443.3 607.5,443.3 585.9,443.3 564.4,445.6 542.8,445.6 521.2,439.6 499.7,439.6 478.1,439.6 456.6,439.6 435.0,439.6 413.4,439.0 391.9,438.9 370.3,448.2 348.8,447.0 327.2,447.0 305.6,455.1 284.1,455.4 262.5,455.5 240.9,650.0 219.4,650.0 197.8,650.0 176.2,650.0 154.7,650.0 133.1,650.0 111.6,650.0 90.0,650.0" fill="#663399" opacity="0.6" class="anim" style="animation-delay:800ms;"/>
<polygon points="90.0,650.0 111.6,650.0 133.1,650.0 154.7,650.0 176.2,650.0 197.8,650.0 219.4,650.0 240.9,650.0 262.5,436.6 284.1,436.3 305.6,435.9 327.2,432.2 348.8,432.2 370.3,432.2 391.9,426.2 413.4,426.1 435.0,426.0 456.6,426.0 478.1,426.0 499.7,426.0 521.2,426.0 542.8,430.8 564.4,430.7 585.9,429.3 607.5,429.3 629.1,429.3 650.6,429.2 672.2,429.2 693.8,428.9 715.3,428.9 736.9,428.8 758.4,426.1 780.0,423.4 780.0,435.0 758.4,436.0 736.9,437.1 715.3,437.1 693.8,437.1 672.2,437.3 650.6,437.3 629.1,437.4 607.5,437.4 585.9,437.4 564.4,439.3 542.8,439.3 521.2,432.6 499.7,432.6 478.1,432.6 456.6,432.6 435.0,432.6 413.4,432.2 391.9,432.3 370.3,439.4 348.8,439.5 327.2,439.5 305.6,441.6 284.1,442.0 262.5,442.3 240.9,650.0 219.4,650.0 197.8,650.0 176.2,650.0 154.7,650.0 133.1,650.0 111.6,650.0 90.0,650.0" fill="#083fa1" opacity="0.6" class="anim" style="animation-delay:900ms;"/>
<polygon points="90.0,650.0 111.6,650.0 133.1,650.0 154.7,650.0 176.2,650.0 197.8,650.0 219.4,650.0 240.9,650.0 262.5,427.0 284.1,426.8 305.6,426.6 327.2,424.2 348.8,424.2 370.3,424.2 391.9,420.4 413.4,420.3 435.0,420.3 456.6,420.3 478.1,420.3 499.7,420.3 521.2,420.3 542.8,423.3 564.4,423.2 585.9,422.4 607.5,422.4 629.1,422.4 650.6,422.3 672.2,422.3 693.8,422.1 715.3,422.1 736.9,422.1 758.4,420.5 780.0,419.0 780.0,423.4 758.4,426.1 736.9,428.8 715.3,428.9 693.8,428.9 672.2,429.2 650.6,429.2 629.1,429.3 607.5,429.3 585.9,429.3 564.4,430.7 542.8,430.8 521.2,426.0 499.7,426.0 478.1,426.0 456.6,426.0 435.0,426.0 413.4,426.1 391.9,426.2 370.3,432.2 348.8,432.2 327.2,432.2 305.6,435.9 284.1,436.3 262.5,436.6 240.9,650.0 219.4,650.0 197.8,650.0 176.2,650.0 154.7,650.0 133.1,650.0 111.6,650.0 90.0,650.0" fill="#6E4C13" opacity="0.6" class="anim" style="animation-delay:1000ms;"/>
<polygon points="90.0,650.0 111.6,650.0 133.1,650.0 154.7,650.0 176.2,650.0 197.8,650.0 219.4,650.0 240.9,650.0 262.5,418.7 284.1,418.6 305.6,418.5 327.2,417.3 348.8,417.3 370.3,417.2 391.9,415.3 413.4,415.3 435.0,415.2 456.6,415.2 478.1,415.2 499.7,415.2 521.2,415.2 542.8,416.8 564.4,416.8 585.9,416.3 607.5,416.3 629.1,416.3 650.6,416.3 672.2,416.3 693.8,416.2 715.3,416.2 736.9,416.2 758.4,415.6 780.0,415.1 780.0,419.0 758.4,420.5 736.9,422.1 715.3,422.1 693.8,422.1 672.2,422.3 650.6,422.3 629.1,422.4 607.5,422.4 585.9,422.4 564.4,423.2 542.8,423.3 521.2,420.3 499.7,420.3 478.1,420.3 456.6,420.3 435.0,420.3 413.4,420.3 391.9,420.4 370.3,424.2 348.8,424.2 327.2,424.2 305.6,426.6 284.1,426.8 262.5,427.0 240.9,650.0 219.4,650.0 197.8,650.0 176.2,650.0 154.7,650.0 133.1,650.0 111.6,650.0 90.0,650.0" fill="#F05138" opacity="0.6" class="anim" style="animation-delay:1100ms;"/>
<polygon points="90.0,650.0 111.6,650.0 133.1,650.0 154.7,650.0 176.2,650.0 197.8,650.0 219.4,650.0 240.9,650.0 262.5,414.4 284.1,414.4 305.6,414.3 327.2,413.7 348.8,413.7 370.3,413.7 391.9,412.7 413.4,412.7 435.0,412.7 456.6,412.7 478.1,412.7 499.7,412.7 521.2,412.7 542.8,413.5 564.4,413.4 585.9,413.2 607.5,413.2 629.1,413.2 650.6,413.2 672.2,413.2 693.8,413.1 715.3,413.1 736.9,413.1 758.4,413.1 780.0,413.1 780.0,415.1 758.4,415.6 736.9,416.2 715.3,416.2 693.8,416.2 672.2,416.3 650.6,416.3 629.1,416.3 607.5,416.3 585.9,416.3 564.4,416.8 542.8,416.8 521.2,415.2 499.7,415.2 478.1,415.2 456.6,415.2 435.0,415.2 413.4,415.3 391.9,415.3 370.3,417.2 348.8,417.3 327.2,417.3 305.6,418.5 284.1,418.6 262.5,418.7 240.9,650.0 219.4,650.0 197.8,650.0 176.2,650.0 154.7,650.0 133.1,650.0 111.6,650.0 90.0,650.0" fill="#b07219" opacity="0.6" class="anim" style="animation-delay:1200ms;"/>
<line x1="736.9" y1="100" x2="736.9" y2="650" stroke="#c9d1d9" stroke-width="1" stroke-dasharray="4,3" opacity="0.35"/>
<text x="758.4" y="112" text-anchor="middle" class="axis-label" opacity="0.6">Mar 22, 2026</text>
<text x="90.0" y="668" text-anchor="middle" class="axis-label" transform="rotate(-35 90.0 668)">2026-02</text>
<text x="607.5" y="668" text-anchor="middle" class="axis-label" transform="rotate(-35 607.5 668)">2026-03</text>
<text x="758.4" y="668" text-anchor="middle" class="axis-label" transform="rotate(-35 758.4 668)">Mar 22, 2026</text>
<line x1="796" y1="110" x2="824" y2="110" stroke="#3fb950" stroke-width="2"/>
<text x="832" y="116" class="legend-text">Lines Added</text>
<line x1="796" y1="140" x2="824" y2="140" stroke="#f85149" stroke-width="1.5"/>
<text x="832" y="146" class="legend-text">Lines Deleted</text>
<line x1="796" y1="170" x2="824" y2="170" stroke="#e3b341" stroke-width="1.5" stroke-dasharray="4,3"/>
<text x="832" y="176" class="legend-text">&#x2605; Stars</text>
<text x="796" y="200" class="subtitle">Languages</text>
<rect x="796" y="212" width="12" height="12" rx="2" fill="#e34c26" opacity="0.8" class="anim" style="animation-delay:800ms;"/>
<text x="814" y="223" class="legend-text">HTML (65%→77%)</text>
<rect x="796" y="234" width="12" height="12" rx="2" fill="#3572A5" opacity="0.8" class="anim" style="animation-delay:880ms;"/>
<text x="814" y="245" class="legend-text">Python (11%→8%)</text>
<rect x="796" y="256" width="12" height="12" rx="2" fill="#f1e05a" opacity="0.8" class="anim" style="animation-delay:960ms;"/>
<text x="814" y="267" class="legend-text">JavaScript (10%→4%)</text>
<rect x="796" y="278" width="12" height="12" rx="2" fill="#663399" opacity="0.8" class="anim" style="animation-delay:1040ms;"/>
<text x="814" y="289" class="legend-text">CSS (3%→0%)</text>
<rect x="796" y="300" width="12" height="12" rx="2" fill="#083fa1" opacity="0.8" class="anim" style="animation-delay:1120ms;"/>
<text x="814" y="311" class="legend-text">Markdown (3%→5%)</text>
<rect x="796" y="322" width="12" height="12" rx="2" fill="#6E4C13" opacity="0.8" class="anim" style="animation-delay:1200ms;"/>
<text x="814" y="333" class="legend-text">Assembly (3%→2%)</text>
<rect x="796" y="344" width="12" height="12" rx="2" fill="#F05138" opacity="0.8" class="anim" style="animation-delay:1280ms;"/>
<text x="814" y="355" class="legend-text">Swift (2%→2%)</text>
<rect x="796" y="366" width="12" height="12" rx="2" fill="#b07219" opacity="0.8" class="anim" style="animation-delay:1360ms;"/>
<text x="814" y="377" class="legend-text">Java (1%→1%)</text>
<text x="796" y="412" class="subtitle">Contributions</text>
<text x="796" y="432" class="axis-label">2023: 39</text>
<text x="796" y="452" class="axis-label">2024: 646</text>
<text x="796" y="472" class="axis-label">2025: 1,780</text>
<text x="796" y="492" class="axis-label">2026: 356</text>
<text x="796" y="522" class="subtitle">Statistics</text>
<text x="796" y="542" class="axis-label">Active weeks: 77</text>
<text x="796" y="562" class="axis-label">Add/Del ratio: 1.6x</text>
<text x="796" y="582" class="axis-label">Avg lines/wk: 19K</text>
<text x="796" y="602" class="axis-label">Peak: 2026-02-15</text>
<text x="796" y="622" class="axis-label">  (543K lines)</text>
<text x="90" y="742" class="axis-label">Total: +911,973 / -569,546 lines &#xb7; 2,821 contributions &#xb7; 74 repos &#xb7; &#x2605; 33</text>
</svg>