<svg xmlns="http://www.w3.org/2000/svg" width="1000" height="760" style="max-width: 100%;" viewBox="0 0 1000 760">

<defs>
  <linearGradient id="areaGrad" x1="0" y1="0" x2="0" y2="1">
    <stop offset="0%" stop-color="#58a6ff" stop-opacity="0.35"/>
    <stop offset="100%" stop-color="#58a6ff" stop-opacity="0.02"/>
  </linearGradient>
  <linearGradient id="addGrad" x1="0" y1="0" x2="0" y2="1">
    <stop offset="0%" stop-color="#3fb950" stop-opacity="0.35"/>
    <stop offset="100%" stop-color="#3fb950" stop-opacity="0.02"/>
  </linearGradient>
  <linearGradient id="delGrad" x1="0" y1="0" x2="0" y2="1">
    <stop offset="0%" stop-color="#f85149" stop-opacity="0.25"/>
    <stop offset="100%" stop-color="#f85149" stop-opacity="0.02"/>
  </linearGradient>
</defs>
<style>
  .title { font: bold 28px 'Segoe UI', Ubuntu, Sans-Serif; fill: #c9d1d9; }
  .subtitle { font: 600 20px 'Segoe UI', Ubuntu, Sans-Serif; fill: #c9d1d9; opacity: 0.8; }
  .axis-label { font: 18px 'Segoe UI', Ubuntu, Sans-Serif; fill: #c9d1d9; opacity: 0.7; }
  .legend-text { font: 14px 'Segoe UI', Ubuntu, Sans-Serif; fill: #c9d1d9; }
  .value-text { font: bold 18px 'Segoe UI', Ubuntu, Sans-Serif; fill: #c9d1d9; }
  .stat-value { font: bold 22px 'Segoe UI', Ubuntu, Sans-Serif; fill: #c9d1d9; }
  .stat-label { font: 18px 'Segoe UI', Ubuntu, Sans-Serif; fill: #c9d1d9; opacity: 0.7; }
  @keyframes fadeIn { from { opacity: 0; } to { opacity: 1; } }
  .anim { animation: fadeIn 0.6s ease-in-out forwards; opacity: 0; }
</style>

<rect x="0.5" y="0.5" rx="4.5" width="999" height="759" fill="#161b22" stroke="#21262d"/>
<text x="90" y="45" class="title">Activity History</text>
<text x="90" y="72" class="subtitle">Lines added vs deleted &amp; activity trends over time</text>
<line x1="90" y1="340.0" x2="780" y2="340.0" stroke="#21262d" stroke-width="1"/>
<text x="82" y="344.0" text-anchor="end" class="axis-label">0</text>
<line x1="90" y1="280.0" x2="780" y2="280.0" stroke="#21262d" stroke-width="1"/>
<text x="82" y="284.0" text-anchor="end" class="axis-label">451K</text>
<line x1="90" y1="220.0" x2="780" y2="220.0" stroke="#21262d" stroke-width="1"/>
<text x="82" y="224.0" text-anchor="end" class="axis-label">902K</text>
<line x1="90" y1="160.0" x2="780" y2="160.0" stroke="#21262d" stroke-width="1"/>
<text x="82" y="164.0" text-anchor="end" class="axis-label">1.4M</text>
<line x1="90" y1="100.0" x2="780" y2="100.0" stroke="#21262d" stroke-width="1"/>
<text x="82" y="104.0" text-anchor="end" class="axis-label">1.8M</text>
<polygon points="90.0,340.0 90.0,291.4 97.8,293.2 105.7,291.5 113.5,293.2 121.4,304.4 129.2,282.1 137.0,282.1 144.9,273.7 152.7,273.4 160.6,272.9 168.4,272.8 176.2,257.9 184.1,257.9 191.9,257.8 199.8,235.7 207.6,235.4 215.5,235.1 223.3,235.1 231.1,235.1 239.0,235.1 246.8,235.1 254.7,234.6 262.5,219.8 270.3,219.7 278.2,219.7 286.0,219.7 293.9,219.4 301.7,219.4 309.5,218.7 317.4,218.7 325.2,218.7 333.1,218.7 340.9,218.7 348.8,218.7 356.6,218.7 364.4,218.7 372.3,218.7 380.1,218.7 388.0,218.7 395.8,218.7 403.6,218.7 411.5,218.0 419.3,218.3 427.2,217.6 435.0,217.3 442.8,217.3 450.7,217.3 458.5,217.3 466.4,217.3 474.2,217.3 482.0,217.2 489.9,217.2 497.7,217.2 505.6,217.3 513.4,217.6 521.2,219.0 529.1,217.6 536.9,216.3 544.8,216.2 552.6,216.2 560.5,216.2 568.3,216.2 576.1,208.6 584.0,201.7 591.8,201.7 599.7,201.7 607.5,201.7 615.3,201.7 623.2,201.7 631.0,201.7 638.9,201.7 646.7,201.6 654.5,201.6 662.4,201.6 670.2,201.6 678.1,201.6 685.9,201.6 693.8,201.6 701.6,201.6 709.4,201.6 717.3,201.6 725.1,201.6 733.0,201.6 740.8,201.6 748.6,201.6 756.5,201.6 764.3,201.6 772.2,194.4 780.0,187.2 780.0,340.0" fill="url(#addGrad)" class="anim" style="animation-delay:200ms;"/>
<polyline points="90.0,291.4 97.8,293.2 105.7,291.5 113.5,293.2 121.4,304.4 129.2,282.1 137.0,282.1 144.9,273.7 152.7,273.4 160.6,272.9 168.4,272.8 176.2,257.9 184.1,257.9 191.9,257.8 199.8,235.7 207.6,235.4 215.5,235.1 223.3,235.1 231.1,235.1 239.0,235.1 246.8,235.1 254.7,234.6 262.5,219.8 270.3,219.7 278.2,219.7 286.0,219.7 293.9,219.4 301.7,219.4 309.5,218.7 317.4,218.7 325.2,218.7 333.1,218.7 340.9,218.7 348.8,218.7 356.6,218.7 364.4,218.7 372.3,218.7 380.1,218.7 388.0,218.7 395.8,218.7 403.6,218.7 411.5,218.0 419.3,218.3 427.2,217.6 435.0,217.3 442.8,217.3 450.7,217.3 458.5,217.3 466.4,217.3 474.2,217.3 482.0,217.2 489.9,217.2 497.7,217.2 505.6,217.3 513.4,217.6 521.2,219.0 529.1,217.6 536.9,216.3 544.8,216.2 552.6,216.2 560.5,216.2 568.3,216.2 576.1,208.6 584.0,201.7 591.8,201.7 599.7,201.7 607.5,201.7 615.3,201.7 623.2,201.7 631.0,201.7 638.9,201.7 646.7,201.6 654.5,201.6 662.4,201.6 670.2,201.6 678.1,201.6 685.9,201.6 693.8,201.6 701.6,201.6 709.4,201.6 717.3,201.6 725.1,201.6 733.0,201.6 740.8,201.6 748.6,201.6 756.5,201.6 764.3,201.6" fill="none" stroke="#3fb950" stroke-width="2" stroke-linejoin="round" class="anim" style="animation-delay:250ms;"/>
<polyline points="764.3,201.6 772.2,194.4 780.0,187.2" fill="none" stroke="#3fb950" stroke-width="1.5" stroke-dasharray="5,4" stroke-linejoin="round" opacity="0.6" class="anim" style="animation-delay:250ms;"/>
<polygon points="90.0,340.0 90.0,326.3 97.8,327.8 105.7,326.4 113.5,327.7 121.4,333.6 129.2,324.7 137.0,324.7 144.9,323.7 152.7,323.4 160.6,323.1 168.4,323.1 176.2,307.0 184.1,307.0 191.9,306.9 199.8,288.7 207.6,288.6 215.5,288.5 223.3,288.5 231.1,288.5 239.0,288.5 246.8,288.5 254.7,279.0 262.5,264.5 270.3,264.4 278.2,264.4 286.0,264.4 293.9,264.3 301.7,264.3 309.5,264.3 317.4,264.2 325.2,264.2 333.1,264.2 340.9,264.2 348.8,264.2 356.6,264.3 364.4,264.2 372.3,264.2 380.1,264.2 388.0,264.2 395.8,264.2 403.6,264.2 411.5,264.2 419.3,264.3 427.2,263.8 435.0,263.8 442.8,263.8 450.7,263.8 458.5,263.8 466.4,263.8 474.2,263.8 482.0,263.8 489.9,263.8 497.7,263.8 505.6,263.8 513.4,263.9 521.2,264.7 529.1,264.2 536.9,263.4 544.8,263.3 552.6,263.3 560.5,263.3 568.3,263.3 576.1,263.3 584.0,263.3 591.8,263.3 599.7,263.3 607.5,263.3 615.3,263.3 623.2,263.3 631.0,263.3 638.9,263.3 646.7,263.3 654.5,263.3 662.4,263.3 670.2,263.3 678.1,263.3 685.9,263.3 693.8,263.3 701.6,263.3 709.4,263.3 717.3,263.3 725.1,263.3 733.0,263.3 740.8,263.3 748.6,263.3 756.5,263.3 764.3,263.3 772.2,258.0 780.0,252.8 780.0,340.0" fill="url(#delGrad)" class="anim" style="animation-delay:300ms;"/>
<polyline points="90.0,326.3 97.8,327.8 105.7,326.4 113.5,327.7 121.4,333.6 129.2,324.7 137.0,324.7 144.9,323.7 152.7,323.4 160.6,323.1 168.4,323.1 176.2,307.0 184.1,307.0 191.9,306.9 199.8,288.7 207.6,288.6 215.5,288.5 223.3,288.5 231.1,288.5 239.0,288.5 246.8,288.5 254.7,279.0 262.5,264.5 270.3,264.4 278.2,264.4 286.0,264.4 293.9,264.3 301.7,264.3 309.5,264.3 317.4,264.2 325.2,264.2 333.1,264.2 340.9,264.2 348.8,264.2 356.6,264.3 364.4,264.2 372.3,264.2 380.1,264.2 388.0,264.2 395.8,264.2 403.6,264.2 411.5,264.2 419.3,264.3 427.2,263.8 435.0,263.8 442.8,263.8 450.7,263.8 458.5,263.8 466.4,263.8 474.2,263.8 482.0,263.8 489.9,263.8 497.7,263.8 505.6,263.8 513.4,263.9 521.2,264.7 529.1,264.2 536.9,263.4 544.8,263.3 552.6,263.3 560.5,263.3 568.3,263.3 576.1,263.3 584.0,263.3 591.8,263.3 599.7,263.3 607.5,263.3 615.3,263.3 623.2,263.3 631.0,263.3 638.9,263.3 646.7,263.3 654.5,263.3 662.4,263.3 670.2,263.3 678.1,263.3 685.9,263.3 693.8,263.3 701.6,263.3 709.4,263.3 717.3,263.3 725.1,263.3 733.0,263.3 740.8,263.3 748.6,263.3 756.5,263.3 764.3,263.3" fill="none" stroke="#f85149" stroke-width="1.5" stroke-linejoin="round" class="anim" style="animation-delay:350ms;"/>
<polyline points="764.3,263.3 772.2,258.0 780.0,252.8" fill="none" stroke="#f85149" stroke-width="1" stroke-dasharray="5,4" stroke-linejoin="round" opacity="0.6" class="anim" style="animation-delay:350ms;"/>
<polyline points="90.0,340.0 97.8,340.0 105.7,340.0 113.5,340.0 121.4,340.0 129.2,340.0 137.0,340.0 144.9,340.0 152.7,308.0 160.6,308.0 168.4,308.0 176.2,308.0 184.1,308.0 191.9,308.0 199.8,308.0 207.6,308.0 215.5,308.0 223.3,308.0 231.1,308.0 239.0,308.0 246.8,308.0 254.7,308.0 262.5,308.0 270.3,308.0 278.2,308.0 286.0,308.0 293.9,308.0 301.7,308.0 309.5,308.0 317.4,308.0 325.2,308.0 333.1,308.0 340.9,308.0 348.8,308.0 356.6,276.0 364.4,276.0 372.3,276.0 380.1,276.0 388.0,276.0 395.8,276.0 403.6,276.0 411.5,276.0 419.3,244.0 427.2,244.0 435.0,244.0 442.8,244.0 450.7,244.0 458.5,244.0 466.4,244.0 474.2,244.0 482.0,244.0 489.9,244.0 497.7,244.0 505.6,244.0 513.4,244.0 521.2,244.0 529.1,244.0 536.9,244.0 544.8,180.0 552.6,180.0 560.5,180.0 568.3,180.0 576.1,180.0 584.0,180.0 591.8,180.0 599.7,180.0 607.5,180.0 615.3,180.0 623.2,180.0 631.0,180.0 638.9,180.0 646.7,180.0 654.5,180.0 662.4,180.0 670.2,180.0 678.1,180.0 685.9,180.0 693.8,180.0 701.6,180.0 709.4,180.0 717.3,180.0 725.1,180.0 733.0,180.0 740.8,180.0 748.6,180.0 756.5,180.0 764.3,180.0" fill="none" stroke="#e3b341" stroke-width="1.5" stroke-dasharray="4,3" stroke-linejoin="round" class="anim" style="animation-delay:400ms;"/>
<polyline points="764.3,180.0 772.2,180.0 780.0,148.0" fill="none" stroke="#e3b341" stroke-width="1" stroke-dasharray="3,5" stroke-linejoin="round" opacity="0.5" class="anim" style="animation-delay:400ms;"/>
<text x="90" y="90" class="subtitle">Lines Added vs Deleted (per snapshot)</text>
<text x="90" y="400" class="subtitle">Programming Language Development (%)</text>
<line x1="90" y1="650.0" x2="780" y2="650.0" stroke="#21262d" stroke-width="1"/>
<text x="82" y="654.0" text-anchor="end" class="axis-label">0%</text>
<line x1="90" y1="590.0" x2="780" y2="590.0" stroke="#21262d" stroke-width="1"/>
<text x="82" y="594.0" text-anchor="end" class="axis-label">25%</text>
<line x1="90" y1="530.0" x2="780" y2="530.0" stroke="#21262d" stroke-width="1"/>
<text x="82" y="534.0" text-anchor="end" class="axis-label">50%</text>
<line x1="90" y1="470.0" x2="780" y2="470.0" stroke="#21262d" stroke-width="1"/>
<text x="82" y="474.0" text-anchor="end" class="axis-label">75%</text>
<line x1="90" y1="410.0" x2="780" y2="410.0" stroke="#21262d" stroke-width="1"/>
<text x="82" y="414.0" text-anchor="end" class="axis-label">100%</text>
<polygon points="90.0,650.0 97.8,650.0 105.7,650.0 113.5,650.0 121.4,650.0 129.2,650.0 137.0,650.0 144.9,650.0 152.7,528.2 160.6,528.5 168.4,529.7 176.2,499.3 184.1,499.3 191.9,502.9 199.8,485.0 207.6,485.1 215.5,485.4 223.3,485.4 231.1,485.4 239.0,485.4 246.8,485.4 254.7,496.4 262.5,496.7 270.3,491.0 278.2,491.0 286.0,491.0 293.9,491.7 301.7,491.8 309.5,494.0 317.4,494.0 325.2,494.4 333.1,494.4 340.9,494.4 348.8,494.4 356.6,507.6 364.4,507.6 372.3,507.9 380.1,507.9 388.0,507.9 395.8,506.3 403.6,506.4 411.5,506.8 419.3,506.9 427.2,506.8 435.0,507.5 442.8,507.5 450.7,507.5 458.5,507.5 466.4,507.5 474.2,507.5 482.0,507.5 489.9,507.5 497.7,507.5 505.6,507.5 513.4,507.5 521.2,507.5 529.1,507.5 536.9,508.6 544.8,508.6 552.6,508.6 560.5,508.6 568.3,508.6 576.1,509.5 584.0,509.8 591.8,509.8 599.7,509.8 607.5,509.8 615.3,509.8 623.2,509.8 631.0,509.8 638.9,509.8 646.7,510.9 654.5,510.9 662.4,510.9 670.2,510.9 678.1,510.9 685.9,510.9 693.8,510.9 701.6,510.9 709.4,510.9 717.3,510.9 725.1,510.9 733.0,510.9 740.8,510.9 748.6,510.9 756.5,510.9 764.3,510.9 772.2,512.8 780.0,514.6 780.0,650.0 772.2,650.0 764.3,650.0 756.5,650.0 748.6,650.0 740.8,650.0 733.0,650.0 725.1,650.0 717.3,650.0 709.4,650.0 701.6,650.0 693.8,650.0 685.9,650.0 678.1,650.0 670.2,650.0 662.4,650.0 654.5,650.0 646.7,650.0 638.9,650.0 631.0,650.0 623.2,650.0 615.3,650.0 607.5,650.0 599.7,650.0 591.8,650.0 584.0,650.0 576.1,650.0 568.3,650.0 560.5,650.0 552.6,650.0 544.8,650.0 536.9,650.0 529.1,650.0 521.2,650.0 513.4,650.0 505.6,650.0 497.7,650.0 489.9,650.0 482.0,650.0 474.2,650.0 466.4,650.0 458.5,650.0 450.7,650.0 442.8,650.0 435.0,650.0 427.2,650.0 419.3,650.0 411.5,650.0 403.6,650.0 395.8,650.0 388.0,650.0 380.1,650.0 372.3,650.0 364.4,650.0 356.6,650.0 348.8,650.0 340.9,650.0 333.1,650.0 325.2,650.0 317.4,650.0 309.5,650.0 301.7,650.0 293.9,650.0 286.0,650.0 278.2,650.0 270.3,650.0 262.5,650.0 254.7,650.0 246.8,650.0 239.0,650.0 231.1,650.0 223.3,650.0 215.5,650.0 207.6,650.0 199.8,650.0 191.9,650.0 184.1,650.0 176.2,650.0 168.4,650.0 160.6,650.0 152.7,650.0 144.9,650.0 137.0,650.0 129.2,650.0 121.4,650.0 113.5,650.0 105.7,650.0 97.8,650.0 90.0,650.0" fill="#e34c26" opacity="0.6" class="anim" style="animation-delay:500ms;"/>
<polygon points="90.0,650.0 97.8,650.0 105.7,650.0 113.5,650.0 121.4,650.0 129.2,650.0 137.0,650.0 144.9,650.0 152.7,488.4 160.6,488.0 168.4,489.0 176.2,476.0 184.1,476.0 191.9,477.2 199.8,460.1 207.6,460.2 215.5,460.6 223.3,460.6 231.1,460.6 239.0,460.6 246.8,460.6 254.7,473.0 262.5,473.5 270.3,469.5 278.2,469.5 286.0,469.5 293.9,469.7 301.7,469.7 309.5,469.7 317.4,469.7 325.2,469.7 333.1,469.7 340.9,469.7 348.8,469.7 356.6,455.6 364.4,455.6 372.3,455.4 380.1,455.4 388.0,455.4 395.8,454.3 403.6,454.3 411.5,455.0 419.3,455.1 427.2,454.9 435.0,455.9 442.8,455.9 450.7,455.9 458.5,455.9 466.4,455.9 474.2,455.9 482.0,455.9 489.9,455.9 497.7,455.9 505.6,455.9 513.4,455.9 521.2,455.9 529.1,455.9 536.9,455.8 544.8,455.8 552.6,455.8 560.5,455.8 568.3,455.8 576.1,457.0 584.0,457.4 591.8,457.4 599.7,457.4 607.5,457.4 615.3,457.4 623.2,457.4 631.0,457.4 638.9,457.4 646.7,458.2 654.5,458.2 662.4,458.2 670.2,458.2 678.1,458.2 685.9,458.2 693.8,458.2 701.6,458.2 709.4,458.2 717.3,458.2 725.1,458.2 733.0,458.2 740.8,458.2 748.6,458.2 756.5,458.2 764.3,458.2 772.2,456.5 780.0,454.8 780.0,514.6 772.2,512.8 764.3,510.9 756.5,510.9 748.6,510.9 740.8,510.9 733.0,510.9 725.1,510.9 717.3,510.9 709.4,510.9 701.6,510.9 693.8,510.9 685.9,510.9 678.1,510.9 670.2,510.9 662.4,510.9 654.5,510.9 646.7,510.9 638.9,509.8 631.0,509.8 623.2,509.8 615.3,509.8 607.5,509.8 599.7,509.8 591.8,509.8 584.0,509.8 576.1,509.5 568.3,508.6 560.5,508.6 552.6,508.6 544.8,508.6 536.9,508.6 529.1,507.5 521.2,507.5 513.4,507.5 505.6,507.5 497.7,507.5 489.9,507.5 482.0,507.5 474.2,507.5 466.4,507.5 458.5,507.5 450.7,507.5 442.8,507.5 435.0,507.5 427.2,506.8 419.3,506.9 411.5,506.8 403.6,506.4 395.8,506.3 388.0,507.9 380.1,507.9 372.3,507.9 364.4,507.6 356.6,507.6 348.8,494.4 340.9,494.4 333.1,494.4 325.2,494.4 317.4,494.0 309.5,494.0 301.7,491.8 293.9,491.7 286.0,491.0 278.2,491.0 270.3,491.0 262.5,496.7 254.7,496.4 246.8,485.4 239.0,485.4 231.1,485.4 223.3,485.4 215.5,485.4 207.6,485.1 199.8,485.0 191.9,502.9 184.1,499.3 176.2,499.3 168.4,529.7 160.6,528.5 152.7,528.2 144.9,650.0 137.0,650.0 129.2,650.0 121.4,650.0 113.5,650.0 105.7,650.0 97.8,650.0 90.0,650.0" fill="#f1e05a" opacity="0.6" class="anim" style="animation-delay:600ms;"/>
<polygon points="90.0,650.0 97.8,650.0 105.7,650.0 113.5,650.0 121.4,650.0 129.2,650.0 137.0,650.0 144.9,650.0 152.7,455.5 160.6,455.4 168.4,455.1 176.2,447.0 184.1,447.0 191.9,448.2 199.8,438.9 207.6,439.0 215.5,439.6 223.3,439.6 231.1,439.6 239.0,439.6 246.8,439.6 254.7,445.6 262.5,445.6 270.3,443.3 278.2,443.3 286.0,443.3 293.9,443.6 301.7,443.6 309.5,444.1 317.4,444.1 325.2,444.1 333.1,444.1 340.9,444.1 348.8,444.1 356.6,437.5 364.4,437.5 372.3,437.5 380.1,437.5 388.0,437.5 395.8,437.5 403.6,437.5 411.5,438.4 419.3,438.5 427.2,438.3 435.0,439.3 442.8,439.3 450.7,439.3 458.5,439.3 466.4,439.3 474.2,439.3 482.0,439.3 489.9,439.3 497.7,439.3 505.6,439.3 513.4,439.3 521.2,439.3 529.1,439.3 536.9,439.4 544.8,439.4 552.6,439.4 560.5,439.4 568.3,439.4 576.1,440.7 584.0,441.1 591.8,441.1 599.7,441.1 607.5,441.1 615.3,441.1 623.2,441.1 631.0,441.1 638.9,441.1 646.7,442.0 654.5,442.0 662.4,442.0 670.2,442.0 678.1,442.0 685.9,442.0 693.8,442.0 701.6,442.0 709.4,442.0 717.3,442.0 725.1,442.0 733.0,442.0 740.8,442.0 748.6,442.0 756.5,442.0 764.3,442.0 772.2,441.8 780.0,441.5 780.0,454.8 772.2,456.5 764.3,458.2 756.5,458.2 748.6,458.2 740.8,458.2 733.0,458.2 725.1,458.2 717.3,458.2 709.4,458.2 701.6,458.2 693.8,458.2 685.9,458.2 678.1,458.2 670.2,458.2 662.4,458.2 654.5,458.2 646.7,458.2 638.9,457.4 631.0,457.4 623.2,457.4 615.3,457.4 607.5,457.4 599.7,457.4 591.8,457.4 584.0,457.4 576.1,457.0 568.3,455.8 560.5,455.8 552.6,455.8 544.8,455.8 536.9,455.8 529.1,455.9 521.2,455.9 513.4,455.9 505.6,455.9 497.7,455.9 489.9,455.9 482.0,455.9 474.2,455.9 466.4,455.9 458.5,455.9 450.7,455.9 442.8,455.9 435.0,455.9 427.2,454.9 419.3,455.1 411.5,455.0 403.6,454.3 395.8,454.3 388.0,455.4 380.1,455.4 372.3,455.4 364.4,455.6 356.6,455.6 348.8,469.7 340.9,469.7 333.1,469.7 325.2,469.7 317.4,469.7 309.5,469.7 301.7,469.7 293.9,469.7 286.0,469.5 278.2,469.5 270.3,469.5 262.5,473.5 254.7,473.0 246.8,460.6 239.0,460.6 231.1,460.6 223.3,460.6 215.5,460.6 207.6,460.2 199.8,460.1 191.9,477.2 184.1,476.0 176.2,476.0 168.4,489.0 160.6,488.0 152.7,488.4 144.9,650.0 137.0,650.0 129.2,650.0 121.4,650.0 113.5,650.0 105.7,650.0 97.8,650.0 90.0,650.0" fill="#3572A5" opacity="0.6" class="anim" style="animation-delay:700ms;"/>
<polygon points="90.0,650.0 97.8,650.0 105.7,650.0 113.5,650.0 121.4,650.0 129.2,650.0 137.0,650.0 144.9,650.0 152.7,442.3 160.6,442.0 168.4,441.6 176.2,439.5 184.1,439.5 191.9,439.4 199.8,432.3 207.6,432.2 215.5,432.6 223.3,432.6 231.1,432.6 239.0,432.6 246.8,432.6 254.7,439.3 262.5,439.3 270.3,437.4 278.2,437.4 286.0,437.4 293.9,437.3 301.7,437.3 309.5,437.1 317.4,437.1 325.2,437.1 333.1,437.1 340.9,437.1 348.8,437.1 356.6,428.7 364.4,428.6 372.3,428.5 380.1,428.5 388.0,428.5 395.8,427.3 403.6,427.3 411.5,427.1 419.3,427.1 427.2,427.1 435.0,427.0 442.8,427.0 450.7,427.0 458.5,427.0 466.4,427.0 474.2,427.0 482.0,427.0 489.9,427.0 497.7,427.0 505.6,427.0 513.4,427.0 521.2,427.0 529.1,427.0 536.9,427.0 544.8,427.1 552.6,427.1 560.5,427.1 568.3,427.1 576.1,428.4 584.0,428.9 591.8,428.9 599.7,428.9 607.5,428.9 615.3,428.9 623.2,428.9 631.0,428.9 638.9,428.9 646.7,428.7 654.5,428.7 662.4,428.7 670.2,428.7 678.1,428.7 685.9,428.7 693.8,428.7 701.6,428.7 709.4,428.7 717.3,428.7 725.1,428.7 733.0,428.7 740.8,428.7 748.6,428.7 756.5,428.7 764.3,428.7 772.2,427.8 780.0,426.8 780.0,441.5 772.2,441.8 764.3,442.0 756.5,442.0 748.6,442.0 740.8,442.0 733.0,442.0 725.1,442.0 717.3,442.0 709.4,442.0 701.6,442.0 693.8,442.0 685.9,442.0 678.1,442.0 670.2,442.0 662.4,442.0 654.5,442.0 646.7,442.0 638.9,441.1 631.0,441.1 623.2,441.1 615.3,441.1 607.5,441.1 599.7,441.1 591.8,441.1 584.0,441.1 576.1,440.7 568.3,439.4 560.5,439.4 552.6,439.4 544.8,439.4 536.9,439.4 529.1,439.3 521.2,439.3 513.4,439.3 505.6,439.3 497.7,439.3 489.9,439.3 482.0,439.3 474.2,439.3 466.4,439.3 458.5,439.3 450.7,439.3 442.8,439.3 435.0,439.3 427.2,438.3 419.3,438.5 411.5,438.4 403.6,437.5 395.8,437.5 388.0,437.5 380.1,437.5 372.3,437.5 364.4,437.5 356.6,437.5 348.8,444.1 340.9,444.1 333.1,444.1 325.2,444.1 317.4,444.1 309.5,444.1 301.7,443.6 293.9,443.6 286.0,443.3 278.2,443.3 270.3,443.3 262.5,445.6 254.7,445.6 246.8,439.6 239.0,439.6 231.1,439.6 223.3,439.6 215.5,439.6 207.6,439.0 199.8,438.9 191.9,448.2 184.1,447.0 176.2,447.0 168.4,455.1 160.6,455.4 152.7,455.5 144.9,650.0 137.0,650.0 129.2,650.0 121.4,650.0 113.5,650.0 105.7,650.0 97.8,650.0 90.0,650.0" fill="#663399" opacity="0.6" class="anim" style="animation-delay:800ms;"/>
<polygon points="90.0,650.0 97.8,650.0 105.7,650.0 113.5,650.0 121.4,650.0 129.2,650.0 137.0,650.0 144.9,650.0 152.7,436.6 160.6,436.3 168.4,435.9 176.2,432.2 184.1,432.2 191.9,432.2 199.8,426.2 207.6,426.1 215.5,426.0 223.3,426.0 231.1,426.0 239.0,426.0 246.8,426.0 254.7,430.8 262.5,430.7 270.3,429.3 278.2,429.3 286.0,429.3 293.9,429.2 301.7,429.2 309.5,428.9 317.4,428.9 325.2,428.8 333.1,428.8 340.9,428.8 348.8,428.8 356.6,423.0 364.4,422.9 372.3,422.9 380.1,422.9 388.0,422.9 395.8,422.0 403.6,422.0 411.5,421.9 419.3,421.9 427.2,421.9 435.0,421.8 442.8,421.8 450.7,421.8 458.5,421.8 466.4,421.8 474.2,421.8 482.0,421.8 489.9,421.8 497.7,421.8 505.6,421.8 513.4,421.8 521.2,421.8 529.1,421.8 536.9,421.7 544.8,421.8 552.6,421.8 560.5,421.8 568.3,421.8 576.1,423.2 584.0,423.6 591.8,423.6 599.7,423.6 607.5,423.6 615.3,423.6 623.2,423.6 631.0,423.6 638.9,423.6 646.7,423.5 654.5,423.5 662.4,423.5 670.2,423.5 678.1,423.5 685.9,423.5 693.8,423.5 701.6,423.5 709.4,423.5 717.3,423.5 725.1,423.5 733.0,423.5 740.8,423.5 748.6,423.5 756.5,423.5 764.3,423.5 772.2,422.8 780.0,422.1 780.0,426.8 772.2,427.8 764.3,428.7 756.5,428.7 748.6,428.7 740.8,428.7 733.0,428.7 725.1,428.7 717.3,428.7 709.4,428.7 701.6,428.7 693.8,428.7 685.9,428.7 678.1,428.7 670.2,428.7 662.4,428.7 654.5,428.7 646.7,428.7 638.9,428.9 631.0,428.9 623.2,428.9 615.3,428.9 607.5,428.9 599.7,428.9 591.8,428.9 584.0,428.9 576.1,428.4 568.3,427.1 560.5,427.1 552.6,427.1 544.8,427.1 536.9,427.0 529.1,427.0 521.2,427.0 513.4,427.0 505.6,427.0 497.7,427.0 489.9,427.0 482.0,427.0 474.2,427.0 466.4,427.0 458.5,427.0 450.7,427.0 442.8,427.0 435.0,427.0 427.2,427.1 419.3,427.1 411.5,427.1 403.6,427.3 395.8,427.3 388.0,428.5 380.1,428.5 372.3,428.5 364.4,428.6 356.6,428.7 348.8,437.1 340.9,437.1 333.1,437.1 325.2,437.1 317.4,437.1 309.5,437.1 301.7,437.3 293.9,437.3 286.0,437.4 278.2,437.4 270.3,437.4 262.5,439.3 254.7,439.3 246.8,432.6 239.0,432.6 231.1,432.6 223.3,432.6 215.5,432.6 207.6,432.2 199.8,432.3 191.9,439.4 184.1,439.5 176.2,439.5 168.4,441.6 160.6,442.0 152.7,442.3 144.9,650.0 137.0,650.0 129.2,650.0 121.4,650.0 113.5,650.0 105.7,650.0 97.8,650.0 90.0,650.0" fill="#083fa1" opacity="0.6" class="anim" style="animation-delay:900ms;"/>
<polygon points="90.0,650.0 97.8,650.0 105.7,650.0 113.5,650.0 121.4,650.0 129.2,650.0 137.0,650.0 144.9,650.0 152.7,428.3 160.6,428.1 168.4,427.8 176.2,425.3 184.1,425.3 191.9,425.2 199.8,421.1 207.6,421.1 215.5,421.0 223.3,421.0 231.1,421.0 239.0,421.0 246.8,421.0 254.7,424.3 262.5,424.2 270.3,423.3 278.2,423.3 286.0,423.3 293.9,423.2 301.7,423.2 309.5,423.0 317.4,423.0 325.2,422.9 333.1,422.9 340.9,422.9 348.8,422.9 356.6,418.9 364.4,418.9 372.3,418.8 380.1,418.8 388.0,418.8 395.8,418.3 403.6,418.3 411.5,418.2 419.3,418.2 427.2,418.2 435.0,418.1 442.8,418.1 450.7,418.1 458.5,418.1 466.4,418.1 474.2,418.1 482.0,418.1 489.9,418.1 497.7,418.1 505.6,418.1 513.4,418.1 521.2,418.1 529.1,418.1 536.9,418.1 544.8,418.1 552.6,418.1 560.5,418.1 568.3,418.1 576.1,418.0 584.0,418.0 591.8,418.0 599.7,418.0 607.5,418.0 615.3,418.0 623.2,418.0 631.0,418.0 638.9,418.0 646.7,417.9 654.5,417.9 662.4,417.9 670.2,417.9 678.1,417.9 685.9,417.9 693.8,417.9 701.6,417.9 709.4,417.9 717.3,417.9 725.1,417.9 733.0,417.9 740.8,417.9 748.6,417.9 756.5,417.9 764.3,417.9 772.2,417.3 780.0,416.7 780.0,422.1 772.2,422.8 764.3,423.5 756.5,423.5 748.6,423.5 740.8,423.5 733.0,423.5 725.1,423.5 717.3,423.5 709.4,423.5 701.6,423.5 693.8,423.5 685.9,423.5 678.1,423.5 670.2,423.5 662.4,423.5 654.5,423.5 646.7,423.5 638.9,423.6 631.0,423.6 623.2,423.6 615.3,423.6 607.5,423.6 599.7,423.6 591.8,423.6 584.0,423.6 576.1,423.2 568.3,421.8 560.5,421.8 552.6,421.8 544.8,421.8 536.9,421.7 529.1,421.8 521.2,421.8 513.4,421.8 505.6,421.8 497.7,421.8 489.9,421.8 482.0,421.8 474.2,421.8 466.4,421.8 458.5,421.8 450.7,421.8 442.8,421.8 435.0,421.8 427.2,421.9 419.3,421.9 411.5,421.9 403.6,422.0 395.8,422.0 388.0,422.9 380.1,422.9 372.3,422.9 364.4,422.9 356.6,423.0 348.8,428.8 340.9,428.8 333.1,428.8 325.2,428.8 317.4,428.9 309.5,428.9 301.7,429.2 293.9,429.2 286.0,429.3 278.2,429.3 270.3,429.3 262.5,430.7 254.7,430.8 246.8,426.0 239.0,426.0 231.1,426.0 223.3,426.0 215.5,426.0 207.6,426.1 199.8,426.2 191.9,432.2 184.1,432.2 176.2,432.2 168.4,435.9 160.6,436.3 152.7,436.6 144.9,650.0 137.0,650.0 129.2,650.0 121.4,650.0 113.5,650.0 105.7,650.0 97.8,650.0 90.0,650.0" fill="#F05138" opacity="0.6" class="anim" style="animation-delay:1000ms;"/>
<polygon points="90.0,650.0 97.8,650.0 105.7,650.0 113.5,650.0 121.4,650.0 129.2,650.0 137.0,650.0 144.9,650.0 152.7,418.7 160.6,418.6 168.4,418.5 176.2,417.3 184.1,417.3 191.9,417.2 199.8,415.3 207.6,415.3 215.5,415.2 223.3,415.2 231.1,415.2 239.0,415.2 246.8,415.2 254.7,416.8 262.5,416.8 270.3,416.3 278.2,416.3 286.0,416.3 293.9,416.3 301.7,416.3 309.5,416.2 317.4,416.2 325.2,416.2 333.1,416.2 340.9,416.2 348.8,416.2 356.6,414.2 364.4,414.2 372.3,414.2 380.1,414.2 388.0,414.2 395.8,413.9 403.6,413.9 411.5,413.9 419.3,413.9 427.2,413.9 435.0,413.9 442.8,413.9 450.7,413.9 458.5,413.9 466.4,413.9 474.2,413.9 482.0,413.9 489.9,413.9 497.7,413.9 505.6,413.9 513.4,413.9 521.2,413.9 529.1,413.9 536.9,413.8 544.8,413.8 552.6,413.8 560.5,413.8 568.3,413.8 576.1,413.8 584.0,413.8 591.8,413.8 599.7,413.8 607.5,413.8 615.3,413.8 623.2,413.8 631.0,413.8 638.9,413.8 646.7,413.8 654.5,413.8 662.4,413.8 670.2,413.8 678.1,413.8 685.9,413.8 693.8,413.8 701.6,413.8 709.4,413.8 717.3,413.8 725.1,413.8 733.0,413.8 740.8,413.8 748.6,413.8 756.5,413.8 764.3,413.8 772.2,413.6 780.0,413.4 780.0,416.7 772.2,417.3 764.3,417.9 756.5,417.9 748.6,417.9 740.8,417.9 733.0,417.9 725.1,417.9 717.3,417.9 709.4,417.9 701.6,417.9 693.8,417.9 685.9,417.9 678.1,417.9 670.2,417.9 662.4,417.9 654.5,417.9 646.7,417.9 638.9,418.0 631.0,418.0 623.2,418.0 615.3,418.0 607.5,418.0 599.7,418.0 591.8,418.0 584.0,418.0 576.1,418.0 568.3,418.1 560.5,418.1 552.6,418.1 544.8,418.1 536.9,418.1 529.1,418.1 521.2,418.1 513.4,418.1 505.6,418.1 497.7,418.1 489.9,418.1 482.0,418.1 474.2,418.1 466.4,418.1 458.5,418.1 450.7,418.1 442.8,418.1 435.0,418.1 427.2,418.2 419.3,418.2 411.5,418.2 403.6,418.3 395.8,418.3 388.0,418.8 380.1,418.8 372.3,418.8 364.4,418.9 356.6,418.9 348.8,422.9 340.9,422.9 333.1,422.9 325.2,422.9 317.4,423.0 309.5,423.0 301.7,423.2 293.9,423.2 286.0,423.3 278.2,423.3 270.3,423.3 262.5,424.2 254.7,424.3 246.8,421.0 239.0,421.0 231.1,421.0 223.3,421.0 215.5,421.0 207.6,421.1 199.8,421.1 191.9,425.2 184.1,425.3 176.2,425.3 168.4,427.8 160.6,428.1 152.7,428.3 144.9,650.0 137.0,650.0 129.2,650.0 121.4,650.0 113.5,650.0 105.7,650.0 97.8,650.0 90.0,650.0" fill="#6E4C13" opacity="0.6" class="anim" style="animation-delay:1100ms;"/>
<polygon points="90.0,650.0 97.8,650.0 105.7,650.0 113.5,650.0 121.4,650.0 129.2,650.0 137.0,650.0 144.9,650.0 152.7,414.4 160.6,414.4 168.4,414.3 176.2,413.7 184.1,413.7 191.9,413.7 199.8,412.7 207.6,412.7 215.5,412.7 223.3,412.7 231.1,412.7 239.0,412.7 246.8,412.7 254.7,413.5 262.5,413.4 270.3,413.2 278.2,413.2 286.0,413.2 293.9,413.2 301.7,413.2 309.5,413.1 317.4,413.1 325.2,413.1 333.1,413.1 340.9,413.1 348.8,413.1 356.6,412.2 364.4,412.1 372.3,412.1 380.1,412.1 388.0,412.1 395.8,412.0 403.6,412.0 411.5,412.0 419.3,412.0 427.2,412.0 435.0,412.0 442.8,412.0 450.7,412.0 458.5,412.0 466.4,412.0 474.2,412.0 482.0,412.0 489.9,412.0 497.7,412.0 505.6,412.0 513.4,412.0 521.2,412.0 529.1,412.0 536.9,411.9 544.8,411.9 552.6,411.9 560.5,411.9 568.3,411.9 576.1,411.9 584.0,411.9 591.8,411.9 599.7,411.9 607.5,411.9 615.3,411.9 623.2,411.9 631.0,411.9 638.9,411.9 646.7,411.9 654.5,411.9 662.4,411.9 670.2,411.9 678.1,411.9 685.9,411.9 693.8,411.9 701.6,411.9 709.4,411.9 717.3,411.9 725.1,411.9 733.0,411.9 740.8,411.9 748.6,411.9 756.5,411.9 764.3,411.9 772.2,411.9 780.0,411.9 780.0,413.4 772.2,413.6 764.3,413.8 756.5,413.8 748.6,413.8 740.8,413.8 733.0,413.8 725.1,413.8 717.3,413.8 709.4,413.8 701.6,413.8 693.8,413.8 685.9,413.8 678.1,413.8 670.2,413.8 662.4,413.8 654.5,413.8 646.7,413.8 638.9,413.8 631.0,413.8 623.2,413.8 615.3,413.8 607.5,413.8 599.7,413.8 591.8,413.8 584.0,413.8 576.1,413.8 568.3,413.8 560.5,413.8 552.6,413.8 544.8,413.8 536.9,413.8 529.1,413.9 521.2,413.9 513.4,413.9 505.6,413.9 497.7,413.9 489.9,413.9 482.0,413.9 474.2,413.9 466.4,413.9 458.5,413.9 450.7,413.9 442.8,413.9 435.0,413.9 427.2,413.9 419.3,413.9 411.5,413.9 403.6,413.9 395.8,413.9 388.0,414.2 380.1,414.2 372.3,414.2 364.4,414.2 356.6,414.2 348.8,416.2 340.9,416.2 333.1,416.2 325.2,416.2 317.4,416.2 309.5,416.2 301.7,416.3 293.9,416.3 286.0,416.3 278.2,416.3 270.3,416.3 262.5,416.8 254.7,416.8 246.8,415.2 239.0,415.2 231.1,415.2 223.3,415.2 215.5,415.2 207.6,415.3 199.8,415.3 191.9,417.2 184.1,417.3 176.2,417.3 168.4,418.5 160.6,418.6 152.7,418.7 144.9,650.0 137.0,650.0 129.2,650.0 121.4,650.0 113.5,650.0 105.7,650.0 97.8,650.0 90.0,650.0" fill="#b07219" opacity="0.6" class="anim" style="animation-delay:1200ms;"/>
<line x1="764.3" y1="100" x2="764.3" y2="650" stroke="#c9d1d9" stroke-width="1" stroke-dasharray="4,3" opacity="0.35"/>
<text x="772.2" y="112" text-anchor="middle" class="axis-label" opacity="0.6">Jul 18, 2026</text>
<text x="90.0" y="668" text-anchor="middle" class="axis-label" transform="rotate(-35 90.0 668)">2026-02</text>
<text x="301.7" y="668" text-anchor="middle" class="axis-label" transform="rotate(-35 301.7 668)">2026-03</text>
<text x="513.4" y="668" text-anchor="middle" class="axis-label" transform="rotate(-35 513.4 668)">2026-04</text>
<text x="584.0" y="668" text-anchor="middle" class="axis-label" transform="rotate(-35 584.0 668)">2026-06</text>
<text x="764.3" y="668" text-anchor="middle" class="axis-label" transform="rotate(-35 764.3 668)">2026-07</text>
<line x1="796" y1="110" x2="824" y2="110" stroke="#3fb950" stroke-width="2"/>
<text x="832" y="116" class="legend-text">Lines Added</text>
<line x1="796" y1="140" x2="824" y2="140" stroke="#f85149" stroke-width="1.5"/>
<text x="832" y="146" class="legend-text">Lines Deleted</text>
<line x1="796" y1="170" x2="824" y2="170" stroke="#e3b341" stroke-width="1.5" stroke-dasharray="4,3"/>
<text x="832" y="176" class="legend-text">&#x2605; Stars</text>
<text x="796" y="200" class="subtitle">Languages</text>
<rect x="796" y="212" width="12" height="12" rx="2" fill="#e34c26" opacity="0.8" class="anim" style="animation-delay:800ms;"/>
<text x="814" y="223" class="legend-text">HTML (58%→56%)</text>
<rect x="796" y="234" width="12" height="12" rx="2" fill="#f1e05a" opacity="0.8" class="anim" style="animation-delay:880ms;"/>
<text x="814" y="245" class="legend-text">JavaScript (22%→25%)</text>
<rect x="796" y="256" width="12" height="12" rx="2" fill="#3572A5" opacity="0.8" class="anim" style="animation-delay:960ms;"/>
<text x="814" y="267" class="legend-text">Python (7%→6%)</text>
<rect x="796" y="278" width="12" height="12" rx="2" fill="#663399" opacity="0.8" class="anim" style="animation-delay:1040ms;"/>
<text x="814" y="289" class="legend-text">CSS (6%→6%)</text>
<rect x="796" y="300" width="12" height="12" rx="2" fill="#083fa1" opacity="0.8" class="anim" style="animation-delay:1120ms;"/>
<text x="814" y="311" class="legend-text">Markdown (2%→2%)</text>
<rect x="796" y="322" width="12" height="12" rx="2" fill="#F05138" opacity="0.8" class="anim" style="animation-delay:1200ms;"/>
<text x="814" y="333" class="legend-text">Swift (2%→2%)</text>
<rect x="796" y="344" width="12" height="12" rx="2" fill="#6E4C13" opacity="0.8" class="anim" style="animation-delay:1280ms;"/>
<text x="814" y="355" class="legend-text">Assembly (2%→1%)</text>
<rect x="796" y="366" width="12" height="12" rx="2" fill="#b07219" opacity="0.8" class="anim" style="animation-delay:1360ms;"/>
<text x="814" y="377" class="legend-text">Java (1%→1%)</text>
<text x="796" y="412" class="subtitle">Contributions</text>
<text x="796" y="432" class="axis-label">2023: 39</text>
<text x="796" y="452" class="axis-label">2024: 646</text>
<text x="796" y="472" class="axis-label">2025: 1,780</text>
<text x="796" y="492" class="axis-label">2026: 491</text>
<text x="796" y="522" class="subtitle">Statistics</text>
<text x="796" y="542" class="axis-label">Active weeks: 88</text>
<text x="796" y="562" class="axis-label">Add/Del ratio: 1.8x</text>
<text x="796" y="582" class="axis-label">Avg lines/wk: 18K</text>
<text x="796" y="602" class="axis-label">Peak: 2026-02-15</text>
<text x="796" y="622" class="axis-label">  (543K lines)</text>
<text x="90" y="742" class="axis-label">Total: +1,040,332 / -576,819 lines &#xb7; 2,956 contributions &#xb7; 80 repos &#xb7; &#x2605; 37</text>
</svg>