<svg xmlns="http://www.w3.org/2000/svg" width="1000" height="760" style="max-width: 100%;" viewBox="0 0 1000 760">

<defs>
  <linearGradient id="areaGrad" x1="0" y1="0" x2="0" y2="1">
    <stop offset="0%" stop-color="#58a6ff" stop-opacity="0.35"/>
    <stop offset="100%" stop-color="#58a6ff" stop-opacity="0.02"/>
  </linearGradient>
  <linearGradient id="addGrad" x1="0" y1="0" x2="0" y2="1">
    <stop offset="0%" stop-color="#3fb950" stop-opacity="0.35"/>
    <stop offset="100%" stop-color="#3fb950" stop-opacity="0.02"/>
  </linearGradient>
  <linearGradient id="delGrad" x1="0" y1="0" x2="0" y2="1">
    <stop offset="0%" stop-color="#f85149" stop-opacity="0.25"/>
    <stop offset="100%" stop-color="#f85149" stop-opacity="0.02"/>
  </linearGradient>
</defs>
<style>
  .title { font: bold 28px 'Segoe UI', Ubuntu, Sans-Serif; fill: #c9d1d9; }
  .subtitle { font: 600 20px 'Segoe UI', Ubuntu, Sans-Serif; fill: #c9d1d9; opacity: 0.8; }
  .axis-label { font: 18px 'Segoe UI', Ubuntu, Sans-Serif; fill: #c9d1d9; opacity: 0.7; }
  .legend-text { font: 14px 'Segoe UI', Ubuntu, Sans-Serif; fill: #c9d1d9; }
  .value-text { font: bold 18px 'Segoe UI', Ubuntu, Sans-Serif; fill: #c9d1d9; }
  .stat-value { font: bold 22px 'Segoe UI', Ubuntu, Sans-Serif; fill: #c9d1d9; }
  .stat-label { font: 18px 'Segoe UI', Ubuntu, Sans-Serif; fill: #c9d1d9; opacity: 0.7; }
  @keyframes fadeIn { from { opacity: 0; } to { opacity: 1; } }
  .anim { animation: fadeIn 0.6s ease-in-out forwards; opacity: 0; }
</style>

<rect x="0.5" y="0.5" rx="4.5" width="999" height="759" fill="#161b22" stroke="#21262d"/>
<text x="90" y="45" class="title">Activity History</text>
<text x="90" y="72" class="subtitle">Lines added vs deleted &amp; activity trends over time</text>
<line x1="90" y1="340.0" x2="780" y2="340.0" stroke="#21262d" stroke-width="1"/>
<text x="82" y="344.0" text-anchor="end" class="axis-label">0</text>
<line x1="90" y1="280.0" x2="780" y2="280.0" stroke="#21262d" stroke-width="1"/>
<text x="82" y="284.0" text-anchor="end" class="axis-label">592K</text>
<line x1="90" y1="220.0" x2="780" y2="220.0" stroke="#21262d" stroke-width="1"/>
<text x="82" y="224.0" text-anchor="end" class="axis-label">1.2M</text>
<line x1="90" y1="160.0" x2="780" y2="160.0" stroke="#21262d" stroke-width="1"/>
<text x="82" y="164.0" text-anchor="end" class="axis-label">1.8M</text>
<line x1="90" y1="100.0" x2="780" y2="100.0" stroke="#21262d" stroke-width="1"/>
<text x="82" y="104.0" text-anchor="end" class="axis-label">2.4M</text>
<polygon points="90.0,340.0 90.0,303.0 106.4,304.3 122.9,303.0 139.3,304.3 155.7,312.9 172.1,295.9 188.6,295.9 205.0,289.5 221.4,289.3 237.9,288.9 254.3,288.8 270.7,277.4 287.1,277.4 303.6,277.4 320.0,260.5 336.4,260.3 352.9,260.1 369.3,260.1 385.7,260.1 402.1,260.1 418.6,260.1 435.0,259.7 451.4,248.4 467.9,248.4 484.3,248.4 500.7,248.4 517.1,248.1 533.6,248.1 550.0,247.6 566.4,247.6 582.9,247.6 599.3,247.6 615.7,247.6 632.1,247.6 648.6,247.6 665.0,247.6 681.4,247.6 697.9,247.6 714.3,247.6 730.7,247.6 747.1,247.6 763.6,224.5 780.0,201.4 780.0,340.0" fill="url(#addGrad)" class="anim" style="animation-delay:200ms;"/>
<polyline points="90.0,303.0 106.4,304.3 122.9,303.0 139.3,304.3 155.7,312.9 172.1,295.9 188.6,295.9 205.0,289.5 221.4,289.3 237.9,288.9 254.3,288.8 270.7,277.4 287.1,277.4 303.6,277.4 320.0,260.5 336.4,260.3 352.9,260.1 369.3,260.1 385.7,260.1 402.1,260.1 418.6,260.1 435.0,259.7 451.4,248.4 467.9,248.4 484.3,248.4 500.7,248.4 517.1,248.1 533.6,248.1 550.0,247.6 566.4,247.6 582.9,247.6 599.3,247.6 615.7,247.6 632.1,247.6 648.6,247.6 665.0,247.6 681.4,247.6 697.9,247.6 714.3,247.6 730.7,247.6 747.1,247.6" fill="none" stroke="#3fb950" stroke-width="2" stroke-linejoin="round" class="anim" style="animation-delay:250ms;"/>
<polyline points="747.1,247.6 763.6,224.5 780.0,201.4" fill="none" stroke="#3fb950" stroke-width="1.5" stroke-dasharray="5,4" stroke-linejoin="round" opacity="0.6" class="anim" style="animation-delay:250ms;"/>
<polygon points="90.0,340.0 90.0,329.6 106.4,330.7 122.9,329.6 139.3,330.7 155.7,335.1 172.1,328.3 188.6,328.3 205.0,327.6 221.4,327.3 237.9,327.1 254.3,327.1 270.7,314.8 287.1,314.8 303.6,314.8 320.0,300.9 336.4,300.8 352.9,300.8 369.3,300.8 385.7,300.8 402.1,300.8 418.6,300.8 435.0,293.5 451.4,282.5 467.9,282.4 484.3,282.4 500.7,282.4 517.1,282.4 533.6,282.4 550.0,282.3 566.4,282.3 582.9,282.3 599.3,282.3 615.7,282.3 632.1,282.3 648.6,282.3 665.0,282.3 681.4,282.3 697.9,282.3 714.3,282.3 730.7,282.3 747.1,282.3 763.6,260.4 780.0,238.6 780.0,340.0" fill="url(#delGrad)" class="anim" style="animation-delay:300ms;"/>
<polyline points="90.0,329.6 106.4,330.7 122.9,329.6 139.3,330.7 155.7,335.1 172.1,328.3 188.6,328.3 205.0,327.6 221.4,327.3 237.9,327.1 254.3,327.1 270.7,314.8 287.1,314.8 303.6,314.8 320.0,300.9 336.4,300.8 352.9,300.8 369.3,300.8 385.7,300.8 402.1,300.8 418.6,300.8 435.0,293.5 451.4,282.5 467.9,282.4 484.3,282.4 500.7,282.4 517.1,282.4 533.6,282.4 550.0,282.3 566.4,282.3 582.9,282.3 599.3,282.3 615.7,282.3 632.1,282.3 648.6,282.3 665.0,282.3 681.4,282.3 697.9,282.3 714.3,282.3 730.7,282.3 747.1,282.3" fill="none" stroke="#f85149" stroke-width="1.5" stroke-linejoin="round" class="anim" style="animation-delay:350ms;"/>
<polyline points="747.1,282.3 763.6,260.4 780.0,238.6" fill="none" stroke="#f85149" stroke-width="1" stroke-dasharray="5,4" stroke-linejoin="round" opacity="0.6" class="anim" style="animation-delay:350ms;"/>
<polyline points="90.0,340.0 106.4,340.0 122.9,340.0 139.3,340.0 155.7,340.0 172.1,340.0 188.6,340.0 205.0,340.0 221.4,276.0 237.9,276.0 254.3,276.0 270.7,276.0 287.1,276.0 303.6,276.0 320.0,276.0 336.4,276.0 352.9,276.0 369.3,276.0 385.7,276.0 402.1,276.0 418.6,276.0 435.0,276.0 451.4,276.0 467.9,276.0 484.3,276.0 500.7,276.0 517.1,276.0 533.6,276.0 550.0,276.0 566.4,276.0 582.9,276.0 599.3,276.0 615.7,276.0 632.1,276.0 648.6,212.0 665.0,212.0 681.4,212.0 697.9,212.0 714.3,212.0 730.7,212.0 747.1,212.0" fill="none" stroke="#e3b341" stroke-width="1.5" stroke-dasharray="4,3" stroke-linejoin="round" class="anim" style="animation-delay:400ms;"/>
<polyline points="747.1,212.0 763.6,212.0 780.0,148.0" fill="none" stroke="#e3b341" stroke-width="1" stroke-dasharray="3,5" stroke-linejoin="round" opacity="0.5" class="anim" style="animation-delay:400ms;"/>
<text x="90" y="90" class="subtitle">Lines Added vs Deleted (per snapshot)</text>
<text x="90" y="400" class="subtitle">Programming Language Development (%)</text>
<line x1="90" y1="650.0" x2="780" y2="650.0" stroke="#21262d" stroke-width="1"/>
<text x="82" y="654.0" text-anchor="end" class="axis-label">0%</text>
<line x1="90" y1="590.0" x2="780" y2="590.0" stroke="#21262d" stroke-width="1"/>
<text x="82" y="594.0" text-anchor="end" class="axis-label">25%</text>
<line x1="90" y1="530.0" x2="780" y2="530.0" stroke="#21262d" stroke-width="1"/>
<text x="82" y="534.0" text-anchor="end" class="axis-label">50%</text>
<line x1="90" y1="470.0" x2="780" y2="470.0" stroke="#21262d" stroke-width="1"/>
<text x="82" y="474.0" text-anchor="end" class="axis-label">75%</text>
<line x1="90" y1="410.0" x2="780" y2="410.0" stroke="#21262d" stroke-width="1"/>
<text x="82" y="414.0" text-anchor="end" class="axis-label">100%</text>
<polygon points="90.0,650.0 106.4,650.0 122.9,650.0 139.3,650.0 155.7,650.0 172.1,650.0 188.6,650.0 205.0,650.0 221.4,528.2 237.9,528.5 254.3,529.7 270.7,499.3 287.1,499.3 303.6,502.9 320.0,485.0 336.4,485.1 352.9,485.4 369.3,485.4 385.7,485.4 402.1,485.4 418.6,485.4 435.0,496.4 451.4,496.7 467.9,491.0 484.3,491.0 500.7,491.0 517.1,491.7 533.6,491.8 550.0,494.0 566.4,494.0 582.9,494.4 599.3,494.4 615.7,494.4 632.1,494.4 648.6,507.6 665.0,507.6 681.4,507.9 697.9,507.9 714.3,507.9 730.7,506.3 747.1,506.4 763.6,506.0 780.0,505.6 780.0,650.0 763.6,650.0 747.1,650.0 730.7,650.0 714.3,650.0 697.9,650.0 681.4,650.0 665.0,650.0 648.6,650.0 632.1,650.0 615.7,650.0 599.3,650.0 582.9,650.0 566.4,650.0 550.0,650.0 533.6,650.0 517.1,650.0 500.7,650.0 484.3,650.0 467.9,650.0 451.4,650.0 435.0,650.0 418.6,650.0 402.1,650.0 385.7,650.0 369.3,650.0 352.9,650.0 336.4,650.0 320.0,650.0 303.6,650.0 287.1,650.0 270.7,650.0 254.3,650.0 237.9,650.0 221.4,650.0 205.0,650.0 188.6,650.0 172.1,650.0 155.7,650.0 139.3,650.0 122.9,650.0 106.4,650.0 90.0,650.0" fill="#e34c26" opacity="0.6" class="anim" style="animation-delay:500ms;"/>
<polygon points="90.0,650.0 106.4,650.0 122.9,650.0 139.3,650.0 155.7,650.0 172.1,650.0 188.6,650.0 205.0,650.0 221.4,488.4 237.9,488.0 254.3,489.0 270.7,476.0 287.1,476.0 303.6,477.2 320.0,460.1 336.4,460.2 352.9,460.6 369.3,460.6 385.7,460.6 402.1,460.6 418.6,460.6 435.0,473.0 451.4,473.5 467.9,469.5 484.3,469.5 500.7,469.5 517.1,469.7 533.6,469.7 550.0,469.7 566.4,469.7 582.9,469.7 599.3,469.7 615.7,469.7 632.1,469.7 648.6,455.6 665.0,455.6 681.4,455.4 697.9,455.4 714.3,455.4 730.7,454.3 747.1,454.3 763.6,445.7 780.0,437.1 780.0,505.6 763.6,506.0 747.1,506.4 730.7,506.3 714.3,507.9 697.9,507.9 681.4,507.9 665.0,507.6 648.6,507.6 632.1,494.4 615.7,494.4 599.3,494.4 582.9,494.4 566.4,494.0 550.0,494.0 533.6,491.8 517.1,491.7 500.7,491.0 484.3,491.0 467.9,491.0 451.4,496.7 435.0,496.4 418.6,485.4 402.1,485.4 385.7,485.4 369.3,485.4 352.9,485.4 336.4,485.1 320.0,485.0 303.6,502.9 287.1,499.3 270.7,499.3 254.3,529.7 237.9,528.5 221.4,528.2 205.0,650.0 188.6,650.0 172.1,650.0 155.7,650.0 139.3,650.0 122.9,650.0 106.4,650.0 90.0,650.0" fill="#f1e05a" opacity="0.6" class="anim" style="animation-delay:600ms;"/>
<polygon points="90.0,650.0 106.4,650.0 122.9,650.0 139.3,650.0 155.7,650.0 172.1,650.0 188.6,650.0 205.0,650.0 221.4,455.5 237.9,455.4 254.3,455.1 270.7,447.0 287.1,447.0 303.6,448.2 320.0,438.9 336.4,439.0 352.9,439.6 369.3,439.6 385.7,439.6 402.1,439.6 418.6,439.6 435.0,445.6 451.4,445.6 467.9,443.3 484.3,443.3 500.7,443.3 517.1,443.6 533.6,443.6 550.0,444.1 566.4,444.1 582.9,444.1 599.3,444.1 615.7,444.1 632.1,444.1 648.6,437.5 665.0,437.5 681.4,437.5 697.9,437.5 714.3,437.5 730.7,437.5 747.1,437.5 763.6,433.5 780.0,429.5 780.0,437.1 763.6,445.7 747.1,454.3 730.7,454.3 714.3,455.4 697.9,455.4 681.4,455.4 665.0,455.6 648.6,455.6 632.1,469.7 615.7,469.7 599.3,469.7 582.9,469.7 566.4,469.7 550.0,469.7 533.6,469.7 517.1,469.7 500.7,469.5 484.3,469.5 467.9,469.5 451.4,473.5 435.0,473.0 418.6,460.6 402.1,460.6 385.7,460.6 369.3,460.6 352.9,460.6 336.4,460.2 320.0,460.1 303.6,477.2 287.1,476.0 270.7,476.0 254.3,489.0 237.9,488.0 221.4,488.4 205.0,650.0 188.6,650.0 172.1,650.0 155.7,650.0 139.3,650.0 122.9,650.0 106.4,650.0 90.0,650.0" fill="#3572A5" opacity="0.6" class="anim" style="animation-delay:700ms;"/>
<polygon points="90.0,650.0 106.4,650.0 122.9,650.0 139.3,650.0 155.7,650.0 172.1,650.0 188.6,650.0 205.0,650.0 221.4,442.3 237.9,442.0 254.3,441.6 270.7,439.5 287.1,439.5 303.6,439.4 320.0,432.3 336.4,432.2 352.9,432.6 369.3,432.6 385.7,432.6 402.1,432.6 418.6,432.6 435.0,439.3 451.4,439.3 467.9,437.4 484.3,437.4 500.7,437.4 517.1,437.3 533.6,437.3 550.0,437.1 566.4,437.1 582.9,437.1 599.3,437.1 615.7,437.1 632.1,437.1 648.6,428.7 665.0,428.6 681.4,428.5 697.9,428.5 714.3,428.5 730.7,427.3 747.1,427.3 763.6,423.7 780.0,420.2 780.0,429.5 763.6,433.5 747.1,437.5 730.7,437.5 714.3,437.5 697.9,437.5 681.4,437.5 665.0,437.5 648.6,437.5 632.1,444.1 615.7,444.1 599.3,444.1 582.9,444.1 566.4,444.1 550.0,444.1 533.6,443.6 517.1,443.6 500.7,443.3 484.3,443.3 467.9,443.3 451.4,445.6 435.0,445.6 418.6,439.6 402.1,439.6 385.7,439.6 369.3,439.6 352.9,439.6 336.4,439.0 320.0,438.9 303.6,448.2 287.1,447.0 270.7,447.0 254.3,455.1 237.9,455.4 221.4,455.5 205.0,650.0 188.6,650.0 172.1,650.0 155.7,650.0 139.3,650.0 122.9,650.0 106.4,650.0 90.0,650.0" fill="#663399" opacity="0.6" class="anim" style="animation-delay:800ms;"/>
<polygon points="90.0,650.0 106.4,650.0 122.9,650.0 139.3,650.0 155.7,650.0 172.1,650.0 188.6,650.0 205.0,650.0 221.4,436.6 237.9,436.3 254.3,435.9 270.7,432.2 287.1,432.2 303.6,432.2 320.0,426.2 336.4,426.1 352.9,426.0 369.3,426.0 385.7,426.0 402.1,426.0 418.6,426.0 435.0,430.8 451.4,430.7 467.9,429.3 484.3,429.3 500.7,429.3 517.1,429.2 533.6,429.2 550.0,428.9 566.4,428.9 582.9,428.8 599.3,428.8 615.7,428.8 632.1,428.8 648.6,423.0 665.0,422.9 681.4,422.9 697.9,422.9 714.3,422.9 730.7,422.0 747.1,422.0 763.6,418.5 780.0,415.0 780.0,420.2 763.6,423.7 747.1,427.3 730.7,427.3 714.3,428.5 697.9,428.5 681.4,428.5 665.0,428.6 648.6,428.7 632.1,437.1 615.7,437.1 599.3,437.1 582.9,437.1 566.4,437.1 550.0,437.1 533.6,437.3 517.1,437.3 500.7,437.4 484.3,437.4 467.9,437.4 451.4,439.3 435.0,439.3 418.6,432.6 402.1,432.6 385.7,432.6 369.3,432.6 352.9,432.6 336.4,432.2 320.0,432.3 303.6,439.4 287.1,439.5 270.7,439.5 254.3,441.6 237.9,442.0 221.4,442.3 205.0,650.0 188.6,650.0 172.1,650.0 155.7,650.0 139.3,650.0 122.9,650.0 106.4,650.0 90.0,650.0" fill="#083fa1" opacity="0.6" class="anim" style="animation-delay:900ms;"/>
<polygon points="90.0,650.0 106.4,650.0 122.9,650.0 139.3,650.0 155.7,650.0 172.1,650.0 188.6,650.0 205.0,650.0 221.4,427.0 237.9,426.8 254.3,426.6 270.7,424.2 287.1,424.2 303.6,424.2 320.0,420.4 336.4,420.3 352.9,420.3 369.3,420.3 385.7,420.3 402.1,420.3 418.6,420.3 435.0,423.3 451.4,423.2 467.9,422.4 484.3,422.4 500.7,422.4 517.1,422.3 533.6,422.3 550.0,422.1 566.4,422.1 582.9,422.1 599.3,422.1 615.7,422.1 632.1,422.1 648.6,418.3 665.0,418.3 681.4,418.2 697.9,418.2 714.3,418.2 730.7,417.7 747.1,417.7 763.6,415.7 780.0,413.7 780.0,415.0 763.6,418.5 747.1,422.0 730.7,422.0 714.3,422.9 697.9,422.9 681.4,422.9 665.0,422.9 648.6,423.0 632.1,428.8 615.7,428.8 599.3,428.8 582.9,428.8 566.4,428.9 550.0,428.9 533.6,429.2 517.1,429.2 500.7,429.3 484.3,429.3 467.9,429.3 451.4,430.7 435.0,430.8 418.6,426.0 402.1,426.0 385.7,426.0 369.3,426.0 352.9,426.0 336.4,426.1 320.0,426.2 303.6,432.2 287.1,432.2 270.7,432.2 254.3,435.9 237.9,436.3 221.4,436.6 205.0,650.0 188.6,650.0 172.1,650.0 155.7,650.0 139.3,650.0 122.9,650.0 106.4,650.0 90.0,650.0" fill="#6E4C13" opacity="0.6" class="anim" style="animation-delay:1000ms;"/>
<polygon points="90.0,650.0 106.4,650.0 122.9,650.0 139.3,650.0 155.7,650.0 172.1,650.0 188.6,650.0 205.0,650.0 221.4,418.7 237.9,418.6 254.3,418.5 270.7,417.3 287.1,417.3 303.6,417.2 320.0,415.3 336.4,415.3 352.9,415.2 369.3,415.2 385.7,415.2 402.1,415.2 418.6,415.2 435.0,416.8 451.4,416.8 467.9,416.3 484.3,416.3 500.7,416.3 517.1,416.3 533.6,416.3 550.0,416.2 566.4,416.2 582.9,416.2 599.3,416.2 615.7,416.2 632.1,416.2 648.6,414.2 665.0,414.2 681.4,414.2 697.9,414.2 714.3,414.2 730.7,413.9 747.1,413.9 763.6,413.3 780.0,412.6 780.0,413.7 763.6,415.7 747.1,417.7 730.7,417.7 714.3,418.2 697.9,418.2 681.4,418.2 665.0,418.3 648.6,418.3 632.1,422.1 615.7,422.1 599.3,422.1 582.9,422.1 566.4,422.1 550.0,422.1 533.6,422.3 517.1,422.3 500.7,422.4 484.3,422.4 467.9,422.4 451.4,423.2 435.0,423.3 418.6,420.3 402.1,420.3 385.7,420.3 369.3,420.3 352.9,420.3 336.4,420.3 320.0,420.4 303.6,424.2 287.1,424.2 270.7,424.2 254.3,426.6 237.9,426.8 221.4,427.0 205.0,650.0 188.6,650.0 172.1,650.0 155.7,650.0 139.3,650.0 122.9,650.0 106.4,650.0 90.0,650.0" fill="#F05138" opacity="0.6" class="anim" style="animation-delay:1100ms;"/>
<polygon points="90.0,650.0 106.4,650.0 122.9,650.0 139.3,650.0 155.7,650.0 172.1,650.0 188.6,650.0 205.0,650.0 221.4,414.4 237.9,414.4 254.3,414.3 270.7,413.7 287.1,413.7 303.6,413.7 320.0,412.7 336.4,412.7 352.9,412.7 369.3,412.7 385.7,412.7 402.1,412.7 418.6,412.7 435.0,413.5 451.4,413.4 467.9,413.2 484.3,413.2 500.7,413.2 517.1,413.2 533.6,413.2 550.0,413.1 566.4,413.1 582.9,413.1 599.3,413.1 615.7,413.1 632.1,413.1 648.6,412.2 665.0,412.1 681.4,412.1 697.9,412.1 714.3,412.1 730.7,412.0 747.1,412.0 763.6,412.0 780.0,412.0 780.0,412.6 763.6,413.3 747.1,413.9 730.7,413.9 714.3,414.2 697.9,414.2 681.4,414.2 665.0,414.2 648.6,414.2 632.1,416.2 615.7,416.2 599.3,416.2 582.9,416.2 566.4,416.2 550.0,416.2 533.6,416.3 517.1,416.3 500.7,416.3 484.3,416.3 467.9,416.3 451.4,416.8 435.0,416.8 418.6,415.2 402.1,415.2 385.7,415.2 369.3,415.2 352.9,415.2 336.4,415.3 320.0,415.3 303.6,417.2 287.1,417.3 270.7,417.3 254.3,418.5 237.9,418.6 221.4,418.7 205.0,650.0 188.6,650.0 172.1,650.0 155.7,650.0 139.3,650.0 122.9,650.0 106.4,650.0 90.0,650.0" fill="#b07219" opacity="0.6" class="anim" style="animation-delay:1200ms;"/>
<line x1="747.1" y1="100" x2="747.1" y2="650" stroke="#c9d1d9" stroke-width="1" stroke-dasharray="4,3" opacity="0.35"/>
<text x="763.6" y="112" text-anchor="middle" class="axis-label" opacity="0.6">Apr 01, 2026</text>
<text x="90.0" y="668" text-anchor="middle" class="axis-label" transform="rotate(-35 90.0 668)">2026-02</text>
<text x="500.7" y="668" text-anchor="middle" class="axis-label" transform="rotate(-35 500.7 668)">2026-03</text>
<text x="763.6" y="668" text-anchor="middle" class="axis-label" transform="rotate(-35 763.6 668)">Apr 01, 2026</text>
<line x1="796" y1="110" x2="824" y2="110" stroke="#3fb950" stroke-width="2"/>
<text x="832" y="116" class="legend-text">Lines Added</text>
<line x1="796" y1="140" x2="824" y2="140" stroke="#f85149" stroke-width="1.5"/>
<text x="832" y="146" class="legend-text">Lines Deleted</text>
<line x1="796" y1="170" x2="824" y2="170" stroke="#e3b341" stroke-width="1.5" stroke-dasharray="4,3"/>
<text x="832" y="176" class="legend-text">&#x2605; Stars</text>
<text x="796" y="200" class="subtitle">Languages</text>
<rect x="796" y="212" width="12" height="12" rx="2" fill="#e34c26" opacity="0.8" class="anim" style="animation-delay:800ms;"/>
<text x="814" y="223" class="legend-text">HTML (60%→60%)</text>
<rect x="796" y="234" width="12" height="12" rx="2" fill="#f1e05a" opacity="0.8" class="anim" style="animation-delay:880ms;"/>
<text x="814" y="245" class="legend-text">JavaScript (22%→29%)</text>
<rect x="796" y="256" width="12" height="12" rx="2" fill="#3572A5" opacity="0.8" class="anim" style="animation-delay:960ms;"/>
<text x="814" y="267" class="legend-text">Python (7%→3%)</text>
<rect x="796" y="278" width="12" height="12" rx="2" fill="#663399" opacity="0.8" class="anim" style="animation-delay:1040ms;"/>
<text x="814" y="289" class="legend-text">CSS (4%→4%)</text>
<rect x="796" y="300" width="12" height="12" rx="2" fill="#083fa1" opacity="0.8" class="anim" style="animation-delay:1120ms;"/>
<text x="814" y="311" class="legend-text">Markdown (2%)</text>
<rect x="796" y="322" width="12" height="12" rx="2" fill="#6E4C13" opacity="0.8" class="anim" style="animation-delay:1200ms;"/>
<text x="814" y="333" class="legend-text">Assembly (2%→1%)</text>
<rect x="796" y="344" width="12" height="12" rx="2" fill="#F05138" opacity="0.8" class="anim" style="animation-delay:1280ms;"/>
<text x="814" y="355" class="legend-text">Swift (2%→0%)</text>
<rect x="796" y="366" width="12" height="12" rx="2" fill="#b07219" opacity="0.8" class="anim" style="animation-delay:1360ms;"/>
<text x="814" y="377" class="legend-text">Java (1%→0%)</text>
<text x="796" y="412" class="subtitle">Contributions</text>
<text x="796" y="432" class="axis-label">2023: 39</text>
<text x="796" y="452" class="axis-label">2024: 646</text>
<text x="796" y="472" class="axis-label">2025: 1,780</text>
<text x="796" y="492" class="axis-label">2026: 383</text>
<text x="796" y="522" class="subtitle">Statistics</text>
<text x="796" y="542" class="axis-label">Active weeks: 79</text>
<text x="796" y="562" class="axis-label">Add/Del ratio: 1.6x</text>
<text x="796" y="582" class="axis-label">Avg lines/wk: 19K</text>
<text x="796" y="602" class="axis-label">Peak: 2026-02-15</text>
<text x="796" y="622" class="axis-label">  (543K lines)</text>
<text x="90" y="742" class="axis-label">Total: +912,017 / -569,549 lines &#xb7; 2,848 contributions &#xb7; 75 repos &#xb7; &#x2605; 34</text>
</svg>