<svg xmlns="http://www.w3.org/2000/svg" width="1000" height="760" style="max-width: 100%;" viewBox="0 0 1000 760">

<defs>
  <linearGradient id="areaGrad" x1="0" y1="0" x2="0" y2="1">
    <stop offset="0%" stop-color="#58a6ff" stop-opacity="0.35"/>
    <stop offset="100%" stop-color="#58a6ff" stop-opacity="0.02"/>
  </linearGradient>
  <linearGradient id="addGrad" x1="0" y1="0" x2="0" y2="1">
    <stop offset="0%" stop-color="#3fb950" stop-opacity="0.35"/>
    <stop offset="100%" stop-color="#3fb950" stop-opacity="0.02"/>
  </linearGradient>
  <linearGradient id="delGrad" x1="0" y1="0" x2="0" y2="1">
    <stop offset="0%" stop-color="#f85149" stop-opacity="0.25"/>
    <stop offset="100%" stop-color="#f85149" stop-opacity="0.02"/>
  </linearGradient>
</defs>
<style>
  .title { font: bold 28px 'Segoe UI', Ubuntu, Sans-Serif; fill: #c9d1d9; }
  .subtitle { font: 600 20px 'Segoe UI', Ubuntu, Sans-Serif; fill: #c9d1d9; opacity: 0.8; }
  .axis-label { font: 18px 'Segoe UI', Ubuntu, Sans-Serif; fill: #c9d1d9; opacity: 0.7; }
  .legend-text { font: 14px 'Segoe UI', Ubuntu, Sans-Serif; fill: #c9d1d9; }
  .value-text { font: bold 18px 'Segoe UI', Ubuntu, Sans-Serif; fill: #c9d1d9; }
  .stat-value { font: bold 22px 'Segoe UI', Ubuntu, Sans-Serif; fill: #c9d1d9; }
  .stat-label { font: 18px 'Segoe UI', Ubuntu, Sans-Serif; fill: #c9d1d9; opacity: 0.7; }
  @keyframes fadeIn { from { opacity: 0; } to { opacity: 1; } }
  .anim { animation: fadeIn 0.6s ease-in-out forwards; opacity: 0; }
</style>

<rect x="0.5" y="0.5" rx="4.5" width="999" height="759" fill="#161b22" stroke="#21262d"/>
<text x="90" y="45" class="title">Activity History</text>
<text x="90" y="72" class="subtitle">Lines added vs deleted &amp; activity trends over time</text>
<line x1="90" y1="340.0" x2="780" y2="340.0" stroke="#21262d" stroke-width="1"/>
<text x="82" y="344.0" text-anchor="end" class="axis-label">0</text>
<line x1="90" y1="280.0" x2="780" y2="280.0" stroke="#21262d" stroke-width="1"/>
<text x="82" y="284.0" text-anchor="end" class="axis-label">709K</text>
<line x1="90" y1="220.0" x2="780" y2="220.0" stroke="#21262d" stroke-width="1"/>
<text x="82" y="224.0" text-anchor="end" class="axis-label">1.4M</text>
<line x1="90" y1="160.0" x2="780" y2="160.0" stroke="#21262d" stroke-width="1"/>
<text x="82" y="164.0" text-anchor="end" class="axis-label">2.1M</text>
<line x1="90" y1="100.0" x2="780" y2="100.0" stroke="#21262d" stroke-width="1"/>
<text x="82" y="104.0" text-anchor="end" class="axis-label">2.8M</text>
<polygon points="90.0,340.0 90.0,309.1 116.5,310.2 143.1,309.1 169.6,310.2 196.2,317.4 222.7,303.2 249.2,303.2 275.8,297.9 302.3,297.7 328.8,297.3 355.4,297.3 381.9,287.8 408.5,287.8 435.0,287.7 461.5,273.7 488.1,273.5 514.6,273.3 541.2,273.3 567.7,273.3 594.2,273.3 620.8,273.3 647.3,272.9 673.8,263.5 700.4,263.5 726.9,263.5 753.5,231.9 780.0,200.3 780.0,340.0" fill="url(#addGrad)" class="anim" style="animation-delay:200ms;"/>
<polyline points="90.0,309.1 116.5,310.2 143.1,309.1 169.6,310.2 196.2,317.4 222.7,303.2 249.2,303.2 275.8,297.9 302.3,297.7 328.8,297.3 355.4,297.3 381.9,287.8 408.5,287.8 435.0,287.7 461.5,273.7 488.1,273.5 514.6,273.3 541.2,273.3 567.7,273.3 594.2,273.3 620.8,273.3 647.3,272.9 673.8,263.5 700.4,263.5 726.9,263.5" fill="none" stroke="#3fb950" stroke-width="2" stroke-linejoin="round" class="anim" style="animation-delay:250ms;"/>
<polyline points="726.9,263.5 753.5,231.9 780.0,200.3" fill="none" stroke="#3fb950" stroke-width="1.5" stroke-dasharray="5,4" stroke-linejoin="round" opacity="0.6" class="anim" style="animation-delay:250ms;"/>
<polygon points="90.0,340.0 90.0,331.3 116.5,332.2 143.1,331.3 169.6,332.2 196.2,335.9 222.7,330.3 249.2,330.3 275.8,329.6 302.3,329.4 328.8,329.3 355.4,329.2 381.9,319.0 408.5,319.0 435.0,319.0 461.5,307.4 488.1,307.3 514.6,307.3 541.2,307.3 567.7,307.3 594.2,307.3 620.8,307.3 647.3,301.2 673.8,292.0 700.4,291.9 726.9,291.9 753.5,265.8 780.0,239.7 780.0,340.0" fill="url(#delGrad)" class="anim" style="animation-delay:300ms;"/>
<polyline points="90.0,331.3 116.5,332.2 143.1,331.3 169.6,332.2 196.2,335.9 222.7,330.3 249.2,330.3 275.8,329.6 302.3,329.4 328.8,329.3 355.4,329.2 381.9,319.0 408.5,319.0 435.0,319.0 461.5,307.4 488.1,307.3 514.6,307.3 541.2,307.3 567.7,307.3 594.2,307.3 620.8,307.3 647.3,301.2 673.8,292.0 700.4,291.9 726.9,291.9" fill="none" stroke="#f85149" stroke-width="1.5" stroke-linejoin="round" class="anim" style="animation-delay:350ms;"/>
<polyline points="726.9,291.9 753.5,265.8 780.0,239.7" fill="none" stroke="#f85149" stroke-width="1" stroke-dasharray="5,4" stroke-linejoin="round" opacity="0.6" class="anim" style="animation-delay:350ms;"/>
<polyline points="90.0,340.0 116.5,340.0 143.1,340.0 169.6,340.0 196.2,340.0 222.7,340.0 249.2,340.0 275.8,340.0 302.3,244.0 328.8,244.0 355.4,244.0 381.9,244.0 408.5,244.0 435.0,244.0 461.5,244.0 488.1,244.0 514.6,244.0 541.2,244.0 567.7,244.0 594.2,244.0 620.8,244.0 647.3,244.0 673.8,244.0 700.4,244.0 726.9,244.0" fill="none" stroke="#e3b341" stroke-width="1.5" stroke-dasharray="4,3" stroke-linejoin="round" class="anim" style="animation-delay:400ms;"/>
<polyline points="726.9,244.0 753.5,244.0 780.0,148.0" fill="none" stroke="#e3b341" stroke-width="1" stroke-dasharray="3,5" stroke-linejoin="round" opacity="0.5" class="anim" style="animation-delay:400ms;"/>
<text x="90" y="90" class="subtitle">Lines Added vs Deleted (per snapshot)</text>
<text x="90" y="400" class="subtitle">Programming Language Development (%)</text>
<line x1="90" y1="650.0" x2="780" y2="650.0" stroke="#21262d" stroke-width="1"/>
<text x="82" y="654.0" text-anchor="end" class="axis-label">0%</text>
<line x1="90" y1="590.0" x2="780" y2="590.0" stroke="#21262d" stroke-width="1"/>
<text x="82" y="594.0" text-anchor="end" class="axis-label">25%</text>
<line x1="90" y1="530.0" x2="780" y2="530.0" stroke="#21262d" stroke-width="1"/>
<text x="82" y="534.0" text-anchor="end" class="axis-label">50%</text>
<line x1="90" y1="470.0" x2="780" y2="470.0" stroke="#21262d" stroke-width="1"/>
<text x="82" y="474.0" text-anchor="end" class="axis-label">75%</text>
<line x1="90" y1="410.0" x2="780" y2="410.0" stroke="#21262d" stroke-width="1"/>
<text x="82" y="414.0" text-anchor="end" class="axis-label">100%</text>
<polygon points="90.0,650.0 116.5,650.0 143.1,650.0 169.6,650.0 196.2,650.0 222.7,650.0 249.2,650.0 275.8,650.0 302.3,528.2 328.8,528.5 355.4,529.7 381.9,499.3 408.5,499.3 435.0,502.9 461.5,485.0 488.1,485.1 514.6,485.4 541.2,485.4 567.7,485.4 594.2,485.4 620.8,485.4 647.3,496.4 673.8,496.7 700.4,491.0 726.9,491.0 753.5,461.7 780.0,441.5 780.0,650.0 753.5,650.0 726.9,650.0 700.4,650.0 673.8,650.0 647.3,650.0 620.8,650.0 594.2,650.0 567.7,650.0 541.2,650.0 514.6,650.0 488.1,650.0 461.5,650.0 435.0,650.0 408.5,650.0 381.9,650.0 355.4,650.0 328.8,650.0 302.3,650.0 275.8,650.0 249.2,650.0 222.7,650.0 196.2,650.0 169.6,650.0 143.1,650.0 116.5,650.0 90.0,650.0" fill="#e34c26" opacity="0.6" class="anim" style="animation-delay:500ms;"/>
<polygon points="90.0,650.0 116.5,650.0 143.1,650.0 169.6,650.0 196.2,650.0 222.7,650.0 249.2,650.0 275.8,650.0 302.3,488.4 328.8,488.0 355.4,489.0 381.9,476.0 408.5,476.0 435.0,477.2 461.5,460.1 488.1,460.2 514.6,460.6 541.2,460.6 567.7,460.6 594.2,460.6 620.8,460.6 647.3,473.0 673.8,473.5 700.4,469.5 726.9,469.5 753.5,453.3 780.0,441.5 780.0,441.5 753.5,461.7 726.9,491.0 700.4,491.0 673.8,496.7 647.3,496.4 620.8,485.4 594.2,485.4 567.7,485.4 541.2,485.4 514.6,485.4 488.1,485.1 461.5,485.0 435.0,502.9 408.5,499.3 381.9,499.3 355.4,529.7 328.8,528.5 302.3,528.2 275.8,650.0 249.2,650.0 222.7,650.0 196.2,650.0 169.6,650.0 143.1,650.0 116.5,650.0 90.0,650.0" fill="#f1e05a" opacity="0.6" class="anim" style="animation-delay:600ms;"/>
<polygon points="90.0,650.0 116.5,650.0 143.1,650.0 169.6,650.0 196.2,650.0 222.7,650.0 249.2,650.0 275.8,650.0 302.3,455.5 328.8,455.4 355.4,455.1 381.9,447.0 408.5,447.0 435.0,448.2 461.5,438.9 488.1,439.0 514.6,439.6 541.2,439.6 567.7,439.6 594.2,439.6 620.8,439.6 647.3,445.6 673.8,445.6 700.4,443.3 726.9,443.3 753.5,433.9 780.0,429.5 780.0,441.5 753.5,453.3 726.9,469.5 700.4,469.5 673.8,473.5 647.3,473.0 620.8,460.6 594.2,460.6 567.7,460.6 541.2,460.6 514.6,460.6 488.1,460.2 461.5,460.1 435.0,477.2 408.5,476.0 381.9,476.0 355.4,489.0 328.8,488.0 302.3,488.4 275.8,650.0 249.2,650.0 222.7,650.0 196.2,650.0 169.6,650.0 143.1,650.0 116.5,650.0 90.0,650.0" fill="#3572A5" opacity="0.6" class="anim" style="animation-delay:700ms;"/>
<polygon points="90.0,650.0 116.5,650.0 143.1,650.0 169.6,650.0 196.2,650.0 222.7,650.0 249.2,650.0 275.8,650.0 302.3,442.3 328.8,442.0 355.4,441.6 381.9,439.5 408.5,439.5 435.0,439.4 461.5,432.3 488.1,432.2 514.6,432.6 541.2,432.6 567.7,432.6 594.2,432.6 620.8,432.6 647.3,439.3 673.8,439.3 700.4,437.4 726.9,437.4 753.5,433.8 780.0,429.5 780.0,429.5 753.5,433.9 726.9,443.3 700.4,443.3 673.8,445.6 647.3,445.6 620.8,439.6 594.2,439.6 567.7,439.6 541.2,439.6 514.6,439.6 488.1,439.0 461.5,438.9 435.0,448.2 408.5,447.0 381.9,447.0 355.4,455.1 328.8,455.4 302.3,455.5 275.8,650.0 249.2,650.0 222.7,650.0 196.2,650.0 169.6,650.0 143.1,650.0 116.5,650.0 90.0,650.0" fill="#663399" opacity="0.6" class="anim" style="animation-delay:800ms;"/>
<polygon points="90.0,650.0 116.5,650.0 143.1,650.0 169.6,650.0 196.2,650.0 222.7,650.0 249.2,650.0 275.8,650.0 302.3,432.7 328.8,432.5 355.4,432.2 381.9,431.5 408.5,431.5 435.0,431.4 461.5,426.4 488.1,426.4 514.6,426.8 541.2,426.8 567.7,426.8 594.2,426.8 620.8,426.8 647.3,431.8 673.8,431.8 700.4,430.4 726.9,430.4 753.5,429.2 780.0,427.4 780.0,429.5 753.5,433.8 726.9,437.4 700.4,437.4 673.8,439.3 647.3,439.3 620.8,432.6 594.2,432.6 567.7,432.6 541.2,432.6 514.6,432.6 488.1,432.2 461.5,432.3 435.0,439.4 408.5,439.5 381.9,439.5 355.4,441.6 328.8,442.0 302.3,442.3 275.8,650.0 249.2,650.0 222.7,650.0 196.2,650.0 169.6,650.0 143.1,650.0 116.5,650.0 90.0,650.0" fill="#6E4C13" opacity="0.6" class="anim" style="animation-delay:900ms;"/>
<polygon points="90.0,650.0 116.5,650.0 143.1,650.0 169.6,650.0 196.2,650.0 222.7,650.0 249.2,650.0 275.8,650.0 302.3,427.0 328.8,426.8 355.4,426.6 381.9,424.2 408.5,424.2 435.0,424.2 461.5,420.4 488.1,420.3 514.6,420.3 541.2,420.3 567.7,420.3 594.2,420.3 620.8,420.3 647.3,423.3 673.8,423.2 700.4,422.4 726.9,422.4 753.5,419.3 780.0,416.1 780.0,427.4 753.5,429.2 726.9,430.4 700.4,430.4 673.8,431.8 647.3,431.8 620.8,426.8 594.2,426.8 567.7,426.8 541.2,426.8 514.6,426.8 488.1,426.4 461.5,426.4 435.0,431.4 408.5,431.5 381.9,431.5 355.4,432.2 328.8,432.5 302.3,432.7 275.8,650.0 249.2,650.0 222.7,650.0 196.2,650.0 169.6,650.0 143.1,650.0 116.5,650.0 90.0,650.0" fill="#083fa1" opacity="0.6" class="anim" style="animation-delay:1000ms;"/>
<polygon points="90.0,650.0 116.5,650.0 143.1,650.0 169.6,650.0 196.2,650.0 222.7,650.0 249.2,650.0 275.8,650.0 302.3,418.7 328.8,418.6 355.4,418.5 381.9,417.3 408.5,417.3 435.0,417.2 461.5,415.3 488.1,415.3 514.6,415.2 541.2,415.2 567.7,415.2 594.2,415.2 620.8,415.2 647.3,416.8 673.8,416.8 700.4,416.3 726.9,416.3 753.5,415.3 780.0,414.2 780.0,416.1 753.5,419.3 726.9,422.4 700.4,422.4 673.8,423.2 647.3,423.3 620.8,420.3 594.2,420.3 567.7,420.3 541.2,420.3 514.6,420.3 488.1,420.3 461.5,420.4 435.0,424.2 408.5,424.2 381.9,424.2 355.4,426.6 328.8,426.8 302.3,427.0 275.8,650.0 249.2,650.0 222.7,650.0 196.2,650.0 169.6,650.0 143.1,650.0 116.5,650.0 90.0,650.0" fill="#F05138" opacity="0.6" class="anim" style="animation-delay:1100ms;"/>
<polygon points="90.0,650.0 116.5,650.0 143.1,650.0 169.6,650.0 196.2,650.0 222.7,650.0 249.2,650.0 275.8,650.0 302.3,414.4 328.8,414.4 355.4,414.3 381.9,413.7 408.5,413.7 435.0,413.7 461.5,412.7 488.1,412.7 514.6,412.7 541.2,412.7 567.7,412.7 594.2,412.7 620.8,412.7 647.3,413.5 673.8,413.4 700.4,413.2 726.9,413.2 753.5,413.2 780.0,413.2 780.0,414.2 753.5,415.3 726.9,416.3 700.4,416.3 673.8,416.8 647.3,416.8 620.8,415.2 594.2,415.2 567.7,415.2 541.2,415.2 514.6,415.2 488.1,415.3 461.5,415.3 435.0,417.2 408.5,417.3 381.9,417.3 355.4,418.5 328.8,418.6 302.3,418.7 275.8,650.0 249.2,650.0 222.7,650.0 196.2,650.0 169.6,650.0 143.1,650.0 116.5,650.0 90.0,650.0" fill="#b07219" opacity="0.6" class="anim" style="animation-delay:1200ms;"/>
<line x1="726.9" y1="100" x2="726.9" y2="650" stroke="#c9d1d9" stroke-width="1" stroke-dasharray="4,3" opacity="0.35"/>
<text x="753.5" y="112" text-anchor="middle" class="axis-label" opacity="0.6">Mar 16, 2026</text>
<text x="90.0" y="668" text-anchor="middle" class="axis-label" transform="rotate(-35 90.0 668)">2026-02</text>
<text x="726.9" y="668" text-anchor="middle" class="axis-label" transform="rotate(-35 726.9 668)">2026-03</text>
<line x1="796" y1="110" x2="824" y2="110" stroke="#3fb950" stroke-width="2"/>
<text x="832" y="116" class="legend-text">Lines Added</text>
<line x1="796" y1="140" x2="824" y2="140" stroke="#f85149" stroke-width="1.5"/>
<text x="832" y="146" class="legend-text">Lines Deleted</text>
<line x1="796" y1="170" x2="824" y2="170" stroke="#e3b341" stroke-width="1.5" stroke-dasharray="4,3"/>
<text x="832" y="176" class="legend-text">&#x2605; Stars</text>
<text x="796" y="200" class="subtitle">Languages</text>
<rect x="796" y="212" width="12" height="12" rx="2" fill="#e34c26" opacity="0.8" class="anim" style="animation-delay:800ms;"/>
<text x="814" y="223" class="legend-text">HTML (66%→87%)</text>
<rect x="796" y="234" width="12" height="12" rx="2" fill="#f1e05a" opacity="0.8" class="anim" style="animation-delay:880ms;"/>
<text x="814" y="245" class="legend-text">JavaScript (9%→0%)</text>
<rect x="796" y="256" width="12" height="12" rx="2" fill="#3572A5" opacity="0.8" class="anim" style="animation-delay:960ms;"/>
<text x="814" y="267" class="legend-text">Python (11%→5%)</text>
<rect x="796" y="278" width="12" height="12" rx="2" fill="#663399" opacity="0.8" class="anim" style="animation-delay:1040ms;"/>
<text x="814" y="289" class="legend-text">CSS (2%→0%)</text>
<rect x="796" y="300" width="12" height="12" rx="2" fill="#6E4C13" opacity="0.8" class="anim" style="animation-delay:1120ms;"/>
<text x="814" y="311" class="legend-text">Assembly (3%→1%)</text>
<rect x="796" y="322" width="12" height="12" rx="2" fill="#083fa1" opacity="0.8" class="anim" style="animation-delay:1200ms;"/>
<text x="814" y="333" class="legend-text">Markdown (3%→5%)</text>
<rect x="796" y="344" width="12" height="12" rx="2" fill="#F05138" opacity="0.8" class="anim" style="animation-delay:1280ms;"/>
<text x="814" y="355" class="legend-text">Swift (3%→1%)</text>
<rect x="796" y="366" width="12" height="12" rx="2" fill="#b07219" opacity="0.8" class="anim" style="animation-delay:1360ms;"/>
<text x="814" y="377" class="legend-text">Java (1%→0%)</text>
<text x="796" y="412" class="subtitle">Contributions</text>
<text x="796" y="432" class="axis-label">2023: 39</text>
<text x="796" y="452" class="axis-label">2024: 646</text>
<text x="796" y="472" class="axis-label">2025: 1,780</text>
<text x="796" y="492" class="axis-label">2026: 326</text>
<text x="796" y="522" class="subtitle">Statistics</text>
<text x="796" y="542" class="axis-label">Active weeks: 77</text>
<text x="796" y="562" class="axis-label">Add/Del ratio: 1.6x</text>
<text x="796" y="582" class="axis-label">Avg lines/wk: 19K</text>
<text x="796" y="602" class="axis-label">Peak: 2026-02-15</text>
<text x="796" y="622" class="axis-label">  (543K lines)</text>
<text x="90" y="742" class="axis-label">Total: +904,099 / -568,078 lines &#xb7; 2,791 contributions &#xb7; 71 repos &#xb7; &#x2605; 33</text>
</svg>