<svg xmlns="http://www.w3.org/2000/svg" width="1000" height="760" viewBox="0 0 1000 760">

<defs>
  <linearGradient id="areaGrad" x1="0" y1="0" x2="0" y2="1">
    <stop offset="0%" stop-color="#58a6ff" stop-opacity="0.35"/>
    <stop offset="100%" stop-color="#58a6ff" stop-opacity="0.02"/>
  </linearGradient>
  <linearGradient id="addGrad" x1="0" y1="0" x2="0" y2="1">
    <stop offset="0%" stop-color="#3fb950" stop-opacity="0.35"/>
    <stop offset="100%" stop-color="#3fb950" stop-opacity="0.02"/>
  </linearGradient>
  <linearGradient id="delGrad" x1="0" y1="0" x2="0" y2="1">
    <stop offset="0%" stop-color="#f85149" stop-opacity="0.25"/>
    <stop offset="100%" stop-color="#f85149" stop-opacity="0.02"/>
  </linearGradient>
</defs>
<style>
  .title { font: bold 16px 'Segoe UI', Ubuntu, Sans-Serif; fill: #c9d1d9; }
  .subtitle { font: 600 12px 'Segoe UI', Ubuntu, Sans-Serif; fill: #c9d1d9; opacity: 0.8; }
  .axis-label { font: 11px 'Segoe UI', Ubuntu, Sans-Serif; fill: #c9d1d9; opacity: 0.7; }
  .legend-text { font: 12px 'Segoe UI', Ubuntu, Sans-Serif; fill: #c9d1d9; }
  .value-text { font: bold 11px 'Segoe UI', Ubuntu, Sans-Serif; fill: #c9d1d9; }
  .stat-value { font: bold 13px 'Segoe UI', Ubuntu, Sans-Serif; fill: #c9d1d9; }
  .stat-label { font: 11px 'Segoe UI', Ubuntu, Sans-Serif; fill: #c9d1d9; opacity: 0.7; }
  @keyframes fadeIn { from { opacity: 0; } to { opacity: 1; } }
  .anim { animation: fadeIn 0.6s ease-in-out forwards; opacity: 0; }
</style>

<rect x="0.5" y="0.5" rx="4.5" width="999" height="759" fill="#161b22" stroke="#21262d"/>
<text x="65" y="30" class="title">Activity History</text>
<text x="65" y="48" class="subtitle">Lines added vs deleted &amp; activity trends over time</text>
<line x1="65" y1="240.0" x2="820" y2="240.0" stroke="#21262d" stroke-width="1"/>
<text x="57" y="244.0" text-anchor="end" class="axis-label">0</text>
<line x1="65" y1="195.0" x2="820" y2="195.0" stroke="#21262d" stroke-width="1"/>
<text x="57" y="199.0" text-anchor="end" class="axis-label">312,716</text>
<line x1="65" y1="150.0" x2="820" y2="150.0" stroke="#21262d" stroke-width="1"/>
<text x="57" y="154.0" text-anchor="end" class="axis-label">625,432</text>
<line x1="65" y1="105.0" x2="820" y2="105.0" stroke="#21262d" stroke-width="1"/>
<text x="57" y="109.0" text-anchor="end" class="axis-label">938,148</text>
<line x1="65" y1="60.0" x2="820" y2="60.0" stroke="#21262d" stroke-width="1"/>
<text x="57" y="64.0" text-anchor="end" class="axis-label">1,250,864</text>
<polygon points="65.0,240.0 65.0,187.5 99.3,189.4 133.6,187.5 168.0,189.4 202.3,201.5 236.6,177.4 270.9,177.4 305.2,168.3 339.5,168.0 373.9,167.4 408.2,167.4 442.5,151.2 476.8,151.2 511.1,151.1 545.5,127.2 579.8,126.9 614.1,126.6 648.4,126.6 682.7,126.6 717.0,126.6 751.4,126.6 785.7,126.0 820.0,126.0 820.0,240.0" fill="url(#addGrad)" class="anim" style="animation-delay:200ms;"/>
<polyline points="65.0,187.5 99.3,189.4 133.6,187.5 168.0,189.4 202.3,201.5 236.6,177.4 270.9,177.4 305.2,168.3 339.5,168.0 373.9,167.4 408.2,167.4 442.5,151.2 476.8,151.2 511.1,151.1 545.5,127.2 579.8,126.9 614.1,126.6 648.4,126.6 682.7,126.6 717.0,126.6 751.4,126.6 785.7,126.0 820.0,126.0" fill="none" stroke="#3fb950" stroke-width="2" stroke-linejoin="round" class="anim" style="animation-delay:250ms;"/>
<polygon points="65.0,240.0 65.0,225.2 99.3,226.8 133.6,225.2 168.0,226.7 202.3,233.1 236.6,223.4 270.9,223.4 305.2,222.4 339.5,222.0 373.9,221.7 408.2,221.7 442.5,204.3 476.8,204.3 511.1,204.2 545.5,184.5 579.8,184.4 614.1,184.3 648.4,184.3 682.7,184.3 717.0,184.3 751.4,184.3 785.7,174.0 820.0,174.0 820.0,240.0" fill="url(#delGrad)" class="anim" style="animation-delay:300ms;"/>
<polyline points="65.0,225.2 99.3,226.8 133.6,225.2 168.0,226.7 202.3,233.1 236.6,223.4 270.9,223.4 305.2,222.4 339.5,222.0 373.9,221.7 408.2,221.7 442.5,204.3 476.8,204.3 511.1,204.2 545.5,184.5 579.8,184.4 614.1,184.3 648.4,184.3 682.7,184.3 717.0,184.3 751.4,184.3 785.7,174.0 820.0,174.0" fill="none" stroke="#f85149" stroke-width="1.5" stroke-linejoin="round" class="anim" style="animation-delay:350ms;"/>
<polyline points="65.0,240.0 99.3,240.0 133.6,240.0 168.0,240.0 202.3,240.0 236.6,240.0 270.9,240.0 305.2,240.0 339.5,96.0 373.9,96.0 408.2,96.0 442.5,96.0 476.8,96.0 511.1,96.0 545.5,96.0 579.8,96.0 614.1,96.0 648.4,96.0 682.7,96.0 717.0,96.0 751.4,96.0 785.7,96.0 820.0,96.0" fill="none" stroke="#e3b341" stroke-width="1.5" stroke-dasharray="4,3" stroke-linejoin="round" class="anim" style="animation-delay:400ms;"/>
<text x="65" y="54" class="subtitle">Lines Added vs Deleted (per snapshot)</text>
<text x="65" y="294" class="subtitle">Programming Language Development (%)</text>
<line x1="65" y1="480.0" x2="820" y2="480.0" stroke="#21262d" stroke-width="1"/>
<text x="57" y="484.0" text-anchor="end" class="axis-label">0%</text>
<line x1="65" y1="435.0" x2="820" y2="435.0" stroke="#21262d" stroke-width="1"/>
<text x="57" y="439.0" text-anchor="end" class="axis-label">25%</text>
<line x1="65" y1="390.0" x2="820" y2="390.0" stroke="#21262d" stroke-width="1"/>
<text x="57" y="394.0" text-anchor="end" class="axis-label">50%</text>
<line x1="65" y1="345.0" x2="820" y2="345.0" stroke="#21262d" stroke-width="1"/>
<text x="57" y="349.0" text-anchor="end" class="axis-label">75%</text>
<line x1="65" y1="300.0" x2="820" y2="300.0" stroke="#21262d" stroke-width="1"/>
<text x="57" y="304.0" text-anchor="end" class="axis-label">100%</text>
<polygon points="65.0,480.0 99.3,480.0 133.6,480.0 168.0,480.0 202.3,480.0 236.6,480.0 270.9,480.0 305.2,480.0 339.5,388.6 373.9,388.8 408.2,389.8 442.5,366.9 476.8,366.9 511.1,369.6 545.5,356.3 579.8,356.3 614.1,356.5 648.4,356.5 682.7,356.5 717.0,356.5 751.4,356.5 785.7,364.8 820.0,364.8 820.0,480.0 785.7,480.0 751.4,480.0 717.0,480.0 682.7,480.0 648.4,480.0 614.1,480.0 579.8,480.0 545.5,480.0 511.1,480.0 476.8,480.0 442.5,480.0 408.2,480.0 373.9,480.0 339.5,480.0 305.2,480.0 270.9,480.0 236.6,480.0 202.3,480.0 168.0,480.0 133.6,480.0 99.3,480.0 65.0,480.0" fill="#e34c26" opacity="0.6" class="anim" style="animation-delay:500ms;"/>
<polygon points="65.0,480.0 99.3,480.0 133.6,480.0 168.0,480.0 202.3,480.0 236.6,480.0 270.9,480.0 305.2,480.0 339.5,358.8 373.9,358.5 408.2,359.2 442.5,349.5 476.8,349.5 511.1,350.4 545.5,337.6 579.8,337.6 614.1,338.0 648.4,338.0 682.7,338.0 717.0,338.0 751.4,338.0 785.7,347.2 820.0,347.2 820.0,364.8 785.7,364.8 751.4,356.5 717.0,356.5 682.7,356.5 648.4,356.5 614.1,356.5 579.8,356.3 545.5,356.3 511.1,369.6 476.8,366.9 442.5,366.9 408.2,389.8 373.9,388.8 339.5,388.6 305.2,480.0 270.9,480.0 236.6,480.0 202.3,480.0 168.0,480.0 133.6,480.0 99.3,480.0 65.0,480.0" fill="#f1e05a" opacity="0.6" class="anim" style="animation-delay:600ms;"/>
<polygon points="65.0,480.0 99.3,480.0 133.6,480.0 168.0,480.0 202.3,480.0 236.6,480.0 270.9,480.0 305.2,480.0 339.5,334.2 373.9,334.0 408.2,333.9 442.5,327.7 476.8,327.7 511.1,328.6 545.5,321.7 579.8,321.7 614.1,322.2 648.4,322.2 682.7,322.2 717.0,322.2 751.4,322.2 785.7,326.7 820.0,326.7 820.0,347.2 785.7,347.2 751.4,338.0 717.0,338.0 682.7,338.0 648.4,338.0 614.1,338.0 579.8,337.6 545.5,337.6 511.1,350.4 476.8,349.5 442.5,349.5 408.2,359.2 373.9,358.5 339.5,358.8 305.2,480.0 270.9,480.0 236.6,480.0 202.3,480.0 168.0,480.0 133.6,480.0 99.3,480.0 65.0,480.0" fill="#3572A5" opacity="0.6" class="anim" style="animation-delay:700ms;"/>
<polygon points="65.0,480.0 99.3,480.0 133.6,480.0 168.0,480.0 202.3,480.0 236.6,480.0 270.9,480.0 305.2,480.0 339.5,324.2 373.9,324.0 408.2,323.7 442.5,322.1 476.8,322.1 511.1,322.1 545.5,316.7 579.8,316.6 614.1,316.9 648.4,316.9 682.7,316.9 717.0,316.9 751.4,316.9 785.7,322.0 820.0,322.0 820.0,326.7 785.7,326.7 751.4,322.2 717.0,322.2 682.7,322.2 648.4,322.2 614.1,322.2 579.8,321.7 545.5,321.7 511.1,328.6 476.8,327.7 442.5,327.7 408.2,333.9 373.9,334.0 339.5,334.2 305.2,480.0 270.9,480.0 236.6,480.0 202.3,480.0 168.0,480.0 133.6,480.0 99.3,480.0 65.0,480.0" fill="#663399" opacity="0.6" class="anim" style="animation-delay:800ms;"/>
<polygon points="65.0,480.0 99.3,480.0 133.6,480.0 168.0,480.0 202.3,480.0 236.6,480.0 270.9,480.0 305.2,480.0 339.5,317.0 373.9,316.9 408.2,316.7 442.5,316.1 476.8,316.1 511.1,316.1 545.5,312.3 579.8,312.3 614.1,312.6 648.4,312.6 682.7,312.6 717.0,312.6 751.4,312.6 785.7,316.4 820.0,316.4 820.0,322.0 785.7,322.0 751.4,316.9 717.0,316.9 682.7,316.9 648.4,316.9 614.1,316.9 579.8,316.6 545.5,316.7 511.1,322.1 476.8,322.1 442.5,322.1 408.2,323.7 373.9,324.0 339.5,324.2 305.2,480.0 270.9,480.0 236.6,480.0 202.3,480.0 168.0,480.0 133.6,480.0 99.3,480.0 65.0,480.0" fill="#6E4C13" opacity="0.6" class="anim" style="animation-delay:900ms;"/>
<polygon points="65.0,480.0 99.3,480.0 133.6,480.0 168.0,480.0 202.3,480.0 236.6,480.0 270.9,480.0 305.2,480.0 339.5,312.7 373.9,312.6 408.2,312.4 442.5,310.7 476.8,310.7 511.1,310.6 545.5,307.8 579.8,307.7 614.1,307.7 648.4,307.7 682.7,307.7 717.0,307.7 751.4,307.7 785.7,310.0 820.0,310.0 820.0,316.4 785.7,316.4 751.4,312.6 717.0,312.6 682.7,312.6 648.4,312.6 614.1,312.6 579.8,312.3 545.5,312.3 511.1,316.1 476.8,316.1 442.5,316.1 408.2,316.7 373.9,316.9 339.5,317.0 305.2,480.0 270.9,480.0 236.6,480.0 202.3,480.0 168.0,480.0 133.6,480.0 99.3,480.0 65.0,480.0" fill="#083fa1" opacity="0.6" class="anim" style="animation-delay:1000ms;"/>
<polygon points="65.0,480.0 99.3,480.0 133.6,480.0 168.0,480.0 202.3,480.0 236.6,480.0 270.9,480.0 305.2,480.0 339.5,306.5 373.9,306.5 408.2,306.4 442.5,305.4 476.8,305.4 511.1,305.4 545.5,304.0 579.8,304.0 614.1,303.9 648.4,303.9 682.7,303.9 717.0,303.9 751.4,303.9 785.7,305.1 820.0,305.1 820.0,310.0 785.7,310.0 751.4,307.7 717.0,307.7 682.7,307.7 648.4,307.7 614.1,307.7 579.8,307.7 545.5,307.8 511.1,310.6 476.8,310.7 442.5,310.7 408.2,312.4 373.9,312.6 339.5,312.7 305.2,480.0 270.9,480.0 236.6,480.0 202.3,480.0 168.0,480.0 133.6,480.0 99.3,480.0 65.0,480.0" fill="#F05138" opacity="0.6" class="anim" style="animation-delay:1100ms;"/>
<polygon points="65.0,480.0 99.3,480.0 133.6,480.0 168.0,480.0 202.3,480.0 236.6,480.0 270.9,480.0 305.2,480.0 339.5,303.3 373.9,303.3 408.2,303.2 442.5,302.8 476.8,302.8 511.1,302.8 545.5,302.0 579.8,302.0 614.1,302.0 648.4,302.0 682.7,302.0 717.0,302.0 751.4,302.0 785.7,302.6 820.0,302.6 820.0,305.1 785.7,305.1 751.4,303.9 717.0,303.9 682.7,303.9 648.4,303.9 614.1,303.9 579.8,304.0 545.5,304.0 511.1,305.4 476.8,305.4 442.5,305.4 408.2,306.4 373.9,306.5 339.5,306.5 305.2,480.0 270.9,480.0 236.6,480.0 202.3,480.0 168.0,480.0 133.6,480.0 99.3,480.0 65.0,480.0" fill="#b07219" opacity="0.6" class="anim" style="animation-delay:1200ms;"/>
<text x="65.0" y="498" text-anchor="middle" class="axis-label" transform="rotate(-35 65.0 498)">2026-02-06</text>
<text x="133.6" y="498" text-anchor="middle" class="axis-label" transform="rotate(-35 133.6 498)">2026-02-08</text>
<text x="202.3" y="498" text-anchor="middle" class="axis-label" transform="rotate(-35 202.3 498)">2026-02-10</text>
<text x="270.9" y="498" text-anchor="middle" class="axis-label" transform="rotate(-35 270.9 498)">2026-02-12</text>
<text x="339.5" y="498" text-anchor="middle" class="axis-label" transform="rotate(-35 339.5 498)">2026-02-14</text>
<text x="408.2" y="498" text-anchor="middle" class="axis-label" transform="rotate(-35 408.2 498)">2026-02-16</text>
<text x="476.8" y="498" text-anchor="middle" class="axis-label" transform="rotate(-35 476.8 498)">2026-02-18</text>
<text x="545.5" y="498" text-anchor="middle" class="axis-label" transform="rotate(-35 545.5 498)">2026-02-20</text>
<text x="614.1" y="498" text-anchor="middle" class="axis-label" transform="rotate(-35 614.1 498)">2026-02-22</text>
<text x="682.7" y="498" text-anchor="middle" class="axis-label" transform="rotate(-35 682.7 498)">2026-02-24</text>
<text x="751.4" y="498" text-anchor="middle" class="axis-label" transform="rotate(-35 751.4 498)">2026-02-26</text>
<text x="820.0" y="498" text-anchor="middle" class="axis-label" transform="rotate(-35 820.0 498)">2026-02-28</text>
<line x1="836" y1="70" x2="856" y2="70" stroke="#3fb950" stroke-width="2"/>
<text x="862" y="74" class="legend-text">Lines Added</text>
<line x1="836" y1="88" x2="856" y2="88" stroke="#f85149" stroke-width="1.5"/>
<text x="862" y="92" class="legend-text">Lines Deleted</text>
<line x1="836" y1="108" x2="856" y2="108" stroke="#e3b341" stroke-width="1.5" stroke-dasharray="4,3"/>
<text x="862" y="112" class="legend-text">&#x2605; Stars</text>
<text x="836" y="142" class="subtitle">Languages</text>
<rect x="836" y="153" width="12" height="12" rx="2" fill="#e34c26" opacity="0.8" class="anim" style="animation-delay:800ms;"/>
<text x="854" y="163" class="legend-text">HTML (64.0%)</text>
<rect x="836" y="175" width="12" height="12" rx="2" fill="#f1e05a" opacity="0.8" class="anim" style="animation-delay:880ms;"/>
<text x="854" y="185" class="legend-text">JavaScript (9.8%)</text>
<rect x="836" y="197" width="12" height="12" rx="2" fill="#3572A5" opacity="0.8" class="anim" style="animation-delay:960ms;"/>
<text x="854" y="207" class="legend-text">Python (11.4%)</text>
<rect x="836" y="219" width="12" height="12" rx="2" fill="#663399" opacity="0.8" class="anim" style="animation-delay:1040ms;"/>
<text x="854" y="229" class="legend-text">CSS (2.6%)</text>
<rect x="836" y="241" width="12" height="12" rx="2" fill="#6E4C13" opacity="0.8" class="anim" style="animation-delay:1120ms;"/>
<text x="854" y="251" class="legend-text">Assembly (3.1%)</text>
<rect x="836" y="263" width="12" height="12" rx="2" fill="#083fa1" opacity="0.8" class="anim" style="animation-delay:1200ms;"/>
<text x="854" y="273" class="legend-text">Markdown (3.5%)</text>
<rect x="836" y="285" width="12" height="12" rx="2" fill="#F05138" opacity="0.8" class="anim" style="animation-delay:1280ms;"/>
<text x="854" y="295" class="legend-text">Swift (2.7%)</text>
<rect x="836" y="307" width="12" height="12" rx="2" fill="#b07219" opacity="0.8" class="anim" style="animation-delay:1360ms;"/>
<text x="854" y="317" class="legend-text">Java (1.4%)</text>
<text x="836" y="358" class="subtitle">Contributions</text>
<text x="836" y="376" class="axis-label">2023: 39</text>
<text x="836" y="392" class="axis-label">2024: 646</text>
<text x="836" y="408" class="axis-label">2025: 1,780</text>
<text x="836" y="424" class="axis-label">2026: 297</text>
<text x="836" y="450" class="subtitle">Statistics</text>
<text x="836" y="468" class="axis-label">Active weeks: 76</text>
<text x="836" y="483" class="axis-label">Add/Del ratio: 1.7x</text>
<text x="836" y="498" class="axis-label">Avg lines/week: 16,459</text>
<text x="836" y="513" class="axis-label">Peak: 2026-02-15</text>
<text x="836" y="528" class="axis-label">  (542,929 lines)</text>
<text x="65" y="746" class="axis-label">Total: +792,460 / -458,404 lines &#xb7; 2,762 contributions &#xb7; 71 repos &#xb7; &#x2605; 33</text>
</svg>