<svg xmlns="http://www.w3.org/2000/svg" width="1000" height="760" style="max-width: 100%;" viewBox="0 0 1000 760">

<defs>
  <linearGradient id="areaGrad" x1="0" y1="0" x2="0" y2="1">
    <stop offset="0%" stop-color="#58a6ff" stop-opacity="0.35"/>
    <stop offset="100%" stop-color="#58a6ff" stop-opacity="0.02"/>
  </linearGradient>
  <linearGradient id="addGrad" x1="0" y1="0" x2="0" y2="1">
    <stop offset="0%" stop-color="#3fb950" stop-opacity="0.35"/>
    <stop offset="100%" stop-color="#3fb950" stop-opacity="0.02"/>
  </linearGradient>
  <linearGradient id="delGrad" x1="0" y1="0" x2="0" y2="1">
    <stop offset="0%" stop-color="#f85149" stop-opacity="0.25"/>
    <stop offset="100%" stop-color="#f85149" stop-opacity="0.02"/>
  </linearGradient>
</defs>
<style>
  .title { font: bold 28px 'Segoe UI', Ubuntu, Sans-Serif; fill: #c9d1d9; }
  .subtitle { font: 600 20px 'Segoe UI', Ubuntu, Sans-Serif; fill: #c9d1d9; opacity: 0.8; }
  .axis-label { font: 18px 'Segoe UI', Ubuntu, Sans-Serif; fill: #c9d1d9; opacity: 0.7; }
  .legend-text { font: 14px 'Segoe UI', Ubuntu, Sans-Serif; fill: #c9d1d9; }
  .value-text { font: bold 18px 'Segoe UI', Ubuntu, Sans-Serif; fill: #c9d1d9; }
  .stat-value { font: bold 22px 'Segoe UI', Ubuntu, Sans-Serif; fill: #c9d1d9; }
  .stat-label { font: 18px 'Segoe UI', Ubuntu, Sans-Serif; fill: #c9d1d9; opacity: 0.7; }
  @keyframes fadeIn { from { opacity: 0; } to { opacity: 1; } }
  .anim { animation: fadeIn 0.6s ease-in-out forwards; opacity: 0; }
</style>

<rect x="0.5" y="0.5" rx="4.5" width="999" height="759" fill="#161b22" stroke="#21262d"/>
<text x="90" y="45" class="title">Activity History</text>
<text x="90" y="72" class="subtitle">Lines added vs deleted &amp; activity trends over time</text>
<line x1="90" y1="340.0" x2="780" y2="340.0" stroke="#21262d" stroke-width="1"/>
<text x="82" y="344.0" text-anchor="end" class="axis-label">0</text>
<line x1="90" y1="280.0" x2="780" y2="280.0" stroke="#21262d" stroke-width="1"/>
<text x="82" y="284.0" text-anchor="end" class="axis-label">462K</text>
<line x1="90" y1="220.0" x2="780" y2="220.0" stroke="#21262d" stroke-width="1"/>
<text x="82" y="224.0" text-anchor="end" class="axis-label">924K</text>
<line x1="90" y1="160.0" x2="780" y2="160.0" stroke="#21262d" stroke-width="1"/>
<text x="82" y="164.0" text-anchor="end" class="axis-label">1.4M</text>
<line x1="90" y1="100.0" x2="780" y2="100.0" stroke="#21262d" stroke-width="1"/>
<text x="82" y="104.0" text-anchor="end" class="axis-label">1.8M</text>
<polygon points="90.0,340.0 90.0,292.6 100.3,294.3 110.6,292.6 120.9,294.3 131.2,305.3 141.5,283.5 151.8,283.5 162.1,275.3 172.4,275.0 182.7,274.5 193.0,274.5 203.3,259.9 213.6,259.9 223.9,259.8 234.2,238.2 244.5,237.9 254.8,237.7 265.1,237.7 275.4,237.7 285.7,237.7 296.0,237.7 306.3,237.1 316.6,222.7 326.9,222.6 337.2,222.6 347.5,222.6 357.8,222.3 368.1,222.3 378.4,221.7 388.7,221.7 399.0,221.6 409.3,221.6 419.6,221.6 429.9,221.6 440.1,221.6 450.4,221.6 460.7,221.6 471.0,221.6 481.3,221.6 491.6,221.6 501.9,221.6 512.2,221.0 522.5,221.2 532.8,220.6 543.1,220.2 553.4,220.2 563.7,220.2 574.0,220.2 584.3,220.2 594.6,220.2 604.9,220.2 615.2,220.2 625.5,220.2 635.8,220.2 646.1,220.5 656.4,221.9 666.7,220.5 677.0,219.3 687.3,219.2 697.6,219.2 707.9,219.2 718.2,219.2 728.5,211.8 738.8,205.0 749.1,205.0 759.4,205.0 769.7,197.1 780.0,189.2 780.0,340.0" fill="url(#addGrad)" class="anim" style="animation-delay:200ms;"/>
<polyline points="90.0,292.6 100.3,294.3 110.6,292.6 120.9,294.3 131.2,305.3 141.5,283.5 151.8,283.5 162.1,275.3 172.4,275.0 182.7,274.5 193.0,274.5 203.3,259.9 213.6,259.9 223.9,259.8 234.2,238.2 244.5,237.9 254.8,237.7 265.1,237.7 275.4,237.7 285.7,237.7 296.0,237.7 306.3,237.1 316.6,222.7 326.9,222.6 337.2,222.6 347.5,222.6 357.8,222.3 368.1,222.3 378.4,221.7 388.7,221.7 399.0,221.6 409.3,221.6 419.6,221.6 429.9,221.6 440.1,221.6 450.4,221.6 460.7,221.6 471.0,221.6 481.3,221.6 491.6,221.6 501.9,221.6 512.2,221.0 522.5,221.2 532.8,220.6 543.1,220.2 553.4,220.2 563.7,220.2 574.0,220.2 584.3,220.2 594.6,220.2 604.9,220.2 615.2,220.2 625.5,220.2 635.8,220.2 646.1,220.5 656.4,221.9 666.7,220.5 677.0,219.3 687.3,219.2 697.6,219.2 707.9,219.2 718.2,219.2 728.5,211.8 738.8,205.0 749.1,205.0 759.4,205.0" fill="none" stroke="#3fb950" stroke-width="2" stroke-linejoin="round" class="anim" style="animation-delay:250ms;"/>
<polyline points="759.4,205.0 769.7,197.1 780.0,189.2" fill="none" stroke="#3fb950" stroke-width="1.5" stroke-dasharray="5,4" stroke-linejoin="round" opacity="0.6" class="anim" style="animation-delay:250ms;"/>
<polygon points="90.0,340.0 90.0,326.7 100.3,328.1 110.6,326.7 120.9,328.0 131.2,333.7 141.5,325.1 151.8,325.0 162.1,324.1 172.4,323.8 182.7,323.5 193.0,323.5 203.3,307.8 213.6,307.8 223.9,307.7 234.2,289.9 244.5,289.8 254.8,289.8 265.1,289.8 275.4,289.8 285.7,289.8 296.0,289.8 306.3,280.5 316.6,266.3 326.9,266.2 337.2,266.2 347.5,266.2 357.8,266.2 368.1,266.2 378.4,266.1 388.7,266.1 399.0,266.1 409.3,266.1 419.6,266.1 429.9,266.1 440.1,266.1 450.4,266.1 460.7,266.1 471.0,266.1 481.3,266.1 491.6,266.1 501.9,266.1 512.2,266.1 522.5,266.1 532.8,265.6 543.1,265.6 553.4,265.6 563.7,265.6 574.0,265.6 584.3,265.6 594.6,265.6 604.9,265.6 615.2,265.6 625.5,265.6 635.8,265.7 646.1,265.7 656.4,266.5 666.7,266.0 677.0,265.2 687.3,265.2 697.6,265.2 707.9,265.2 718.2,265.2 728.5,265.1 738.8,265.1 749.1,265.1 759.4,265.1 769.7,258.0 780.0,250.8 780.0,340.0" fill="url(#delGrad)" class="anim" style="animation-delay:300ms;"/>
<polyline points="90.0,326.7 100.3,328.1 110.6,326.7 120.9,328.0 131.2,333.7 141.5,325.1 151.8,325.0 162.1,324.1 172.4,323.8 182.7,323.5 193.0,323.5 203.3,307.8 213.6,307.8 223.9,307.7 234.2,289.9 244.5,289.8 254.8,289.8 265.1,289.8 275.4,289.8 285.7,289.8 296.0,289.8 306.3,280.5 316.6,266.3 326.9,266.2 337.2,266.2 347.5,266.2 357.8,266.2 368.1,266.2 378.4,266.1 388.7,266.1 399.0,266.1 409.3,266.1 419.6,266.1 429.9,266.1 440.1,266.1 450.4,266.1 460.7,266.1 471.0,266.1 481.3,266.1 491.6,266.1 501.9,266.1 512.2,266.1 522.5,266.1 532.8,265.6 543.1,265.6 553.4,265.6 563.7,265.6 574.0,265.6 584.3,265.6 594.6,265.6 604.9,265.6 615.2,265.6 625.5,265.6 635.8,265.7 646.1,265.7 656.4,266.5 666.7,266.0 677.0,265.2 687.3,265.2 697.6,265.2 707.9,265.2 718.2,265.2 728.5,265.1 738.8,265.1 749.1,265.1 759.4,265.1" fill="none" stroke="#f85149" stroke-width="1.5" stroke-linejoin="round" class="anim" style="animation-delay:350ms;"/>
<polyline points="759.4,265.1 769.7,258.0 780.0,250.8" fill="none" stroke="#f85149" stroke-width="1" stroke-dasharray="5,4" stroke-linejoin="round" opacity="0.6" class="anim" style="animation-delay:350ms;"/>
<polyline points="90.0,340.0 100.3,340.0 110.6,340.0 120.9,340.0 131.2,340.0 141.5,340.0 151.8,340.0 162.1,340.0 172.4,308.0 182.7,308.0 193.0,308.0 203.3,308.0 213.6,308.0 223.9,308.0 234.2,308.0 244.5,308.0 254.8,308.0 265.1,308.0 275.4,308.0 285.7,308.0 296.0,308.0 306.3,308.0 316.6,308.0 326.9,308.0 337.2,308.0 347.5,308.0 357.8,308.0 368.1,308.0 378.4,308.0 388.7,308.0 399.0,308.0 409.3,308.0 419.6,308.0 429.9,308.0 440.1,276.0 450.4,276.0 460.7,276.0 471.0,276.0 481.3,276.0 491.6,276.0 501.9,276.0 512.2,276.0 522.5,244.0 532.8,244.0 543.1,244.0 553.4,244.0 563.7,244.0 574.0,244.0 584.3,244.0 594.6,244.0 604.9,244.0 615.2,244.0 625.5,244.0 635.8,244.0 646.1,244.0 656.4,244.0 666.7,244.0 677.0,244.0 687.3,180.0 697.6,180.0 707.9,180.0 718.2,180.0 728.5,180.0 738.8,180.0 749.1,180.0 759.4,180.0" fill="none" stroke="#e3b341" stroke-width="1.5" stroke-dasharray="4,3" stroke-linejoin="round" class="anim" style="animation-delay:400ms;"/>
<polyline points="759.4,180.0 769.7,180.0 780.0,148.0" fill="none" stroke="#e3b341" stroke-width="1" stroke-dasharray="3,5" stroke-linejoin="round" opacity="0.5" class="anim" style="animation-delay:400ms;"/>
<text x="90" y="90" class="subtitle">Lines Added vs Deleted (per snapshot)</text>
<text x="90" y="400" class="subtitle">Programming Language Development (%)</text>
<line x1="90" y1="650.0" x2="780" y2="650.0" stroke="#21262d" stroke-width="1"/>
<text x="82" y="654.0" text-anchor="end" class="axis-label">0%</text>
<line x1="90" y1="590.0" x2="780" y2="590.0" stroke="#21262d" stroke-width="1"/>
<text x="82" y="594.0" text-anchor="end" class="axis-label">25%</text>
<line x1="90" y1="530.0" x2="780" y2="530.0" stroke="#21262d" stroke-width="1"/>
<text x="82" y="534.0" text-anchor="end" class="axis-label">50%</text>
<line x1="90" y1="470.0" x2="780" y2="470.0" stroke="#21262d" stroke-width="1"/>
<text x="82" y="474.0" text-anchor="end" class="axis-label">75%</text>
<line x1="90" y1="410.0" x2="780" y2="410.0" stroke="#21262d" stroke-width="1"/>
<text x="82" y="414.0" text-anchor="end" class="axis-label">100%</text>
<polygon points="90.0,650.0 100.3,650.0 110.6,650.0 120.9,650.0 131.2,650.0 141.5,650.0 151.8,650.0 162.1,650.0 172.4,528.2 182.7,528.5 193.0,529.7 203.3,499.3 213.6,499.3 223.9,502.9 234.2,485.0 244.5,485.1 254.8,485.4 265.1,485.4 275.4,485.4 285.7,485.4 296.0,485.4 306.3,496.4 316.6,496.7 326.9,491.0 337.2,491.0 347.5,491.0 357.8,491.7 368.1,491.8 378.4,494.0 388.7,494.0 399.0,494.4 409.3,494.4 419.6,494.4 429.9,494.4 440.1,507.6 450.4,507.6 460.7,507.9 471.0,507.9 481.3,507.9 491.6,506.3 501.9,506.4 512.2,506.8 522.5,506.9 532.8,506.8 543.1,507.5 553.4,507.5 563.7,507.5 574.0,507.5 584.3,507.5 594.6,507.5 604.9,507.5 615.2,507.5 625.5,507.5 635.8,507.5 646.1,507.5 656.4,507.5 666.7,507.5 677.0,508.6 687.3,508.6 697.6,508.6 707.9,508.6 718.2,508.6 728.5,509.5 738.8,509.8 749.1,509.8 759.4,509.8 769.7,511.6 780.0,513.5 780.0,650.0 769.7,650.0 759.4,650.0 749.1,650.0 738.8,650.0 728.5,650.0 718.2,650.0 707.9,650.0 697.6,650.0 687.3,650.0 677.0,650.0 666.7,650.0 656.4,650.0 646.1,650.0 635.8,650.0 625.5,650.0 615.2,650.0 604.9,650.0 594.6,650.0 584.3,650.0 574.0,650.0 563.7,650.0 553.4,650.0 543.1,650.0 532.8,650.0 522.5,650.0 512.2,650.0 501.9,650.0 491.6,650.0 481.3,650.0 471.0,650.0 460.7,650.0 450.4,650.0 440.1,650.0 429.9,650.0 419.6,650.0 409.3,650.0 399.0,650.0 388.7,650.0 378.4,650.0 368.1,650.0 357.8,650.0 347.5,650.0 337.2,650.0 326.9,650.0 316.6,650.0 306.3,650.0 296.0,650.0 285.7,650.0 275.4,650.0 265.1,650.0 254.8,650.0 244.5,650.0 234.2,650.0 223.9,650.0 213.6,650.0 203.3,650.0 193.0,650.0 182.7,650.0 172.4,650.0 162.1,650.0 151.8,650.0 141.5,650.0 131.2,650.0 120.9,650.0 110.6,650.0 100.3,650.0 90.0,650.0" fill="#e34c26" opacity="0.6" class="anim" style="animation-delay:500ms;"/>
<polygon points="90.0,650.0 100.3,650.0 110.6,650.0 120.9,650.0 131.2,650.0 141.5,650.0 151.8,650.0 162.1,650.0 172.4,488.4 182.7,488.0 193.0,489.0 203.3,476.0 213.6,476.0 223.9,477.2 234.2,460.1 244.5,460.2 254.8,460.6 265.1,460.6 275.4,460.6 285.7,460.6 296.0,460.6 306.3,473.0 316.6,473.5 326.9,469.5 337.2,469.5 347.5,469.5 357.8,469.7 368.1,469.7 378.4,469.7 388.7,469.7 399.0,469.7 409.3,469.7 419.6,469.7 429.9,469.7 440.1,455.6 450.4,455.6 460.7,455.4 471.0,455.4 481.3,455.4 491.6,454.3 501.9,454.3 512.2,455.0 522.5,455.1 532.8,454.9 543.1,455.9 553.4,455.9 563.7,455.9 574.0,455.9 584.3,455.9 594.6,455.9 604.9,455.9 615.2,455.9 625.5,455.9 635.8,455.9 646.1,455.9 656.4,455.9 666.7,455.9 677.0,455.8 687.3,455.8 697.6,455.8 707.9,455.8 718.2,455.8 728.5,457.0 738.8,457.4 749.1,457.4 759.4,457.4 769.7,454.8 780.0,452.1 780.0,513.5 769.7,511.6 759.4,509.8 749.1,509.8 738.8,509.8 728.5,509.5 718.2,508.6 707.9,508.6 697.6,508.6 687.3,508.6 677.0,508.6 666.7,507.5 656.4,507.5 646.1,507.5 635.8,507.5 625.5,507.5 615.2,507.5 604.9,507.5 594.6,507.5 584.3,507.5 574.0,507.5 563.7,507.5 553.4,507.5 543.1,507.5 532.8,506.8 522.5,506.9 512.2,506.8 501.9,506.4 491.6,506.3 481.3,507.9 471.0,507.9 460.7,507.9 450.4,507.6 440.1,507.6 429.9,494.4 419.6,494.4 409.3,494.4 399.0,494.4 388.7,494.0 378.4,494.0 368.1,491.8 357.8,491.7 347.5,491.0 337.2,491.0 326.9,491.0 316.6,496.7 306.3,496.4 296.0,485.4 285.7,485.4 275.4,485.4 265.1,485.4 254.8,485.4 244.5,485.1 234.2,485.0 223.9,502.9 213.6,499.3 203.3,499.3 193.0,529.7 182.7,528.5 172.4,528.2 162.1,650.0 151.8,650.0 141.5,650.0 131.2,650.0 120.9,650.0 110.6,650.0 100.3,650.0 90.0,650.0" fill="#f1e05a" opacity="0.6" class="anim" style="animation-delay:600ms;"/>
<polygon points="90.0,650.0 100.3,650.0 110.6,650.0 120.9,650.0 131.2,650.0 141.5,650.0 151.8,650.0 162.1,650.0 172.4,455.5 182.7,455.4 193.0,455.1 203.3,447.0 213.6,447.0 223.9,448.2 234.2,438.9 244.5,439.0 254.8,439.6 265.1,439.6 275.4,439.6 285.7,439.6 296.0,439.6 306.3,445.6 316.6,445.6 326.9,443.3 337.2,443.3 347.5,443.3 357.8,443.6 368.1,443.6 378.4,444.1 388.7,444.1 399.0,444.1 409.3,444.1 419.6,444.1 429.9,444.1 440.1,437.5 450.4,437.5 460.7,437.5 471.0,437.5 481.3,437.5 491.6,437.5 501.9,437.5 512.2,438.4 522.5,438.5 532.8,438.3 543.1,439.3 553.4,439.3 563.7,439.3 574.0,439.3 584.3,439.3 594.6,439.3 604.9,439.3 615.2,439.3 625.5,439.3 635.8,439.3 646.1,439.3 656.4,439.3 666.7,439.3 677.0,439.4 687.3,439.4 697.6,439.4 707.9,439.4 718.2,439.4 728.5,440.7 738.8,441.1 749.1,441.1 759.4,441.1 769.7,440.3 780.0,439.5 780.0,452.1 769.7,454.8 759.4,457.4 749.1,457.4 738.8,457.4 728.5,457.0 718.2,455.8 707.9,455.8 697.6,455.8 687.3,455.8 677.0,455.8 666.7,455.9 656.4,455.9 646.1,455.9 635.8,455.9 625.5,455.9 615.2,455.9 604.9,455.9 594.6,455.9 584.3,455.9 574.0,455.9 563.7,455.9 553.4,455.9 543.1,455.9 532.8,454.9 522.5,455.1 512.2,455.0 501.9,454.3 491.6,454.3 481.3,455.4 471.0,455.4 460.7,455.4 450.4,455.6 440.1,455.6 429.9,469.7 419.6,469.7 409.3,469.7 399.0,469.7 388.7,469.7 378.4,469.7 368.1,469.7 357.8,469.7 347.5,469.5 337.2,469.5 326.9,469.5 316.6,473.5 306.3,473.0 296.0,460.6 285.7,460.6 275.4,460.6 265.1,460.6 254.8,460.6 244.5,460.2 234.2,460.1 223.9,477.2 213.6,476.0 203.3,476.0 193.0,489.0 182.7,488.0 172.4,488.4 162.1,650.0 151.8,650.0 141.5,650.0 131.2,650.0 120.9,650.0 110.6,650.0 100.3,650.0 90.0,650.0" fill="#3572A5" opacity="0.6" class="anim" style="animation-delay:700ms;"/>
<polygon points="90.0,650.0 100.3,650.0 110.6,650.0 120.9,650.0 131.2,650.0 141.5,650.0 151.8,650.0 162.1,650.0 172.4,442.3 182.7,442.0 193.0,441.6 203.3,439.5 213.6,439.5 223.9,439.4 234.2,432.3 244.5,432.2 254.8,432.6 265.1,432.6 275.4,432.6 285.7,432.6 296.0,432.6 306.3,439.3 316.6,439.3 326.9,437.4 337.2,437.4 347.5,437.4 357.8,437.3 368.1,437.3 378.4,437.1 388.7,437.1 399.0,437.1 409.3,437.1 419.6,437.1 429.9,437.1 440.1,428.7 450.4,428.6 460.7,428.5 471.0,428.5 481.3,428.5 491.6,427.3 501.9,427.3 512.2,427.1 522.5,427.1 532.8,427.1 543.1,427.0 553.4,427.0 563.7,427.0 574.0,427.0 584.3,427.0 594.6,427.0 604.9,427.0 615.2,427.0 625.5,427.0 635.8,427.0 646.1,427.0 656.4,427.0 666.7,427.0 677.0,427.0 687.3,427.1 697.6,427.1 707.9,427.1 718.2,427.1 728.5,428.4 738.8,428.9 749.1,428.9 759.4,428.9 769.7,427.4 780.0,425.8 780.0,439.5 769.7,440.3 759.4,441.1 749.1,441.1 738.8,441.1 728.5,440.7 718.2,439.4 707.9,439.4 697.6,439.4 687.3,439.4 677.0,439.4 666.7,439.3 656.4,439.3 646.1,439.3 635.8,439.3 625.5,439.3 615.2,439.3 604.9,439.3 594.6,439.3 584.3,439.3 574.0,439.3 563.7,439.3 553.4,439.3 543.1,439.3 532.8,438.3 522.5,438.5 512.2,438.4 501.9,437.5 491.6,437.5 481.3,437.5 471.0,437.5 460.7,437.5 450.4,437.5 440.1,437.5 429.9,444.1 419.6,444.1 409.3,444.1 399.0,444.1 388.7,444.1 378.4,444.1 368.1,443.6 357.8,443.6 347.5,443.3 337.2,443.3 326.9,443.3 316.6,445.6 306.3,445.6 296.0,439.6 285.7,439.6 275.4,439.6 265.1,439.6 254.8,439.6 244.5,439.0 234.2,438.9 223.9,448.2 213.6,447.0 203.3,447.0 193.0,455.1 182.7,455.4 172.4,455.5 162.1,650.0 151.8,650.0 141.5,650.0 131.2,650.0 120.9,650.0 110.6,650.0 100.3,650.0 90.0,650.0" fill="#663399" opacity="0.6" class="anim" style="animation-delay:800ms;"/>
<polygon points="90.0,650.0 100.3,650.0 110.6,650.0 120.9,650.0 131.2,650.0 141.5,650.0 151.8,650.0 162.1,650.0 172.4,436.6 182.7,436.3 193.0,435.9 203.3,432.2 213.6,432.2 223.9,432.2 234.2,426.2 244.5,426.1 254.8,426.0 265.1,426.0 275.4,426.0 285.7,426.0 296.0,426.0 306.3,430.8 316.6,430.7 326.9,429.3 337.2,429.3 347.5,429.3 357.8,429.2 368.1,429.2 378.4,428.9 388.7,428.9 399.0,428.8 409.3,428.8 419.6,428.8 429.9,428.8 440.1,423.0 450.4,422.9 460.7,422.9 471.0,422.9 481.3,422.9 491.6,422.0 501.9,422.0 512.2,421.9 522.5,421.9 532.8,421.9 543.1,421.8 553.4,421.8 563.7,421.8 574.0,421.8 584.3,421.8 594.6,421.8 604.9,421.8 615.2,421.8 625.5,421.8 635.8,421.8 646.1,421.8 656.4,421.8 666.7,421.8 677.0,421.7 687.3,421.8 697.6,421.8 707.9,421.8 718.2,421.8 728.5,423.2 738.8,423.6 749.1,423.6 759.4,423.6 769.7,422.4 780.0,421.2 780.0,425.8 769.7,427.4 759.4,428.9 749.1,428.9 738.8,428.9 728.5,428.4 718.2,427.1 707.9,427.1 697.6,427.1 687.3,427.1 677.0,427.0 666.7,427.0 656.4,427.0 646.1,427.0 635.8,427.0 625.5,427.0 615.2,427.0 604.9,427.0 594.6,427.0 584.3,427.0 574.0,427.0 563.7,427.0 553.4,427.0 543.1,427.0 532.8,427.1 522.5,427.1 512.2,427.1 501.9,427.3 491.6,427.3 481.3,428.5 471.0,428.5 460.7,428.5 450.4,428.6 440.1,428.7 429.9,437.1 419.6,437.1 409.3,437.1 399.0,437.1 388.7,437.1 378.4,437.1 368.1,437.3 357.8,437.3 347.5,437.4 337.2,437.4 326.9,437.4 316.6,439.3 306.3,439.3 296.0,432.6 285.7,432.6 275.4,432.6 265.1,432.6 254.8,432.6 244.5,432.2 234.2,432.3 223.9,439.4 213.6,439.5 203.3,439.5 193.0,441.6 182.7,442.0 172.4,442.3 162.1,650.0 151.8,650.0 141.5,650.0 131.2,650.0 120.9,650.0 110.6,650.0 100.3,650.0 90.0,650.0" fill="#083fa1" opacity="0.6" class="anim" style="animation-delay:900ms;"/>
<polygon points="90.0,650.0 100.3,650.0 110.6,650.0 120.9,650.0 131.2,650.0 141.5,650.0 151.8,650.0 162.1,650.0 172.4,427.0 182.7,426.8 193.0,426.6 203.3,424.2 213.6,424.2 223.9,424.2 234.2,420.4 244.5,420.3 254.8,420.3 265.1,420.3 275.4,420.3 285.7,420.3 296.0,420.3 306.3,423.3 316.6,423.2 326.9,422.4 337.2,422.4 347.5,422.4 357.8,422.3 368.1,422.3 378.4,422.1 388.7,422.1 399.0,422.1 409.3,422.1 419.6,422.1 429.9,422.1 440.1,418.3 450.4,418.3 460.7,418.2 471.0,418.2 481.3,418.2 491.6,417.7 501.9,417.7 512.2,417.6 522.5,417.6 532.8,417.6 543.1,417.6 553.4,417.6 563.7,417.6 574.0,417.6 584.3,417.6 594.6,417.6 604.9,417.6 615.2,417.6 625.5,417.6 635.8,417.6 646.1,417.6 656.4,417.6 666.7,417.6 677.0,417.5 687.3,417.6 697.6,417.6 707.9,417.6 718.2,417.6 728.5,419.0 738.8,419.5 749.1,419.5 759.4,419.5 769.7,418.8 780.0,418.2 780.0,421.2 769.7,422.4 759.4,423.6 749.1,423.6 738.8,423.6 728.5,423.2 718.2,421.8 707.9,421.8 697.6,421.8 687.3,421.8 677.0,421.7 666.7,421.8 656.4,421.8 646.1,421.8 635.8,421.8 625.5,421.8 615.2,421.8 604.9,421.8 594.6,421.8 584.3,421.8 574.0,421.8 563.7,421.8 553.4,421.8 543.1,421.8 532.8,421.9 522.5,421.9 512.2,421.9 501.9,422.0 491.6,422.0 481.3,422.9 471.0,422.9 460.7,422.9 450.4,422.9 440.1,423.0 429.9,428.8 419.6,428.8 409.3,428.8 399.0,428.8 388.7,428.9 378.4,428.9 368.1,429.2 357.8,429.2 347.5,429.3 337.2,429.3 326.9,429.3 316.6,430.7 306.3,430.8 296.0,426.0 285.7,426.0 275.4,426.0 265.1,426.0 254.8,426.0 244.5,426.1 234.2,426.2 223.9,432.2 213.6,432.2 203.3,432.2 193.0,435.9 182.7,436.3 172.4,436.6 162.1,650.0 151.8,650.0 141.5,650.0 131.2,650.0 120.9,650.0 110.6,650.0 100.3,650.0 90.0,650.0" fill="#6E4C13" opacity="0.6" class="anim" style="animation-delay:1000ms;"/>
<polygon points="90.0,650.0 100.3,650.0 110.6,650.0 120.9,650.0 131.2,650.0 141.5,650.0 151.8,650.0 162.1,650.0 172.4,418.7 182.7,418.6 193.0,418.5 203.3,417.3 213.6,417.3 223.9,417.2 234.2,415.3 244.5,415.3 254.8,415.2 265.1,415.2 275.4,415.2 285.7,415.2 296.0,415.2 306.3,416.8 316.6,416.8 326.9,416.3 337.2,416.3 347.5,416.3 357.8,416.3 368.1,416.3 378.4,416.2 388.7,416.2 399.0,416.2 409.3,416.2 419.6,416.2 429.9,416.2 440.1,414.2 450.4,414.2 460.7,414.2 471.0,414.2 481.3,414.2 491.6,413.9 501.9,413.9 512.2,413.9 522.5,413.9 532.8,413.9 543.1,413.9 553.4,413.9 563.7,413.9 574.0,413.9 584.3,413.9 594.6,413.9 604.9,413.9 615.2,413.9 625.5,413.9 635.8,413.9 646.1,413.9 656.4,413.9 666.7,413.9 677.0,413.8 687.3,413.8 697.6,413.8 707.9,413.8 718.2,413.8 728.5,413.8 738.8,413.8 749.1,413.8 759.4,413.8 769.7,413.6 780.0,413.3 780.0,418.2 769.7,418.8 759.4,419.5 749.1,419.5 738.8,419.5 728.5,419.0 718.2,417.6 707.9,417.6 697.6,417.6 687.3,417.6 677.0,417.5 666.7,417.6 656.4,417.6 646.1,417.6 635.8,417.6 625.5,417.6 615.2,417.6 604.9,417.6 594.6,417.6 584.3,417.6 574.0,417.6 563.7,417.6 553.4,417.6 543.1,417.6 532.8,417.6 522.5,417.6 512.2,417.6 501.9,417.7 491.6,417.7 481.3,418.2 471.0,418.2 460.7,418.2 450.4,418.3 440.1,418.3 429.9,422.1 419.6,422.1 409.3,422.1 399.0,422.1 388.7,422.1 378.4,422.1 368.1,422.3 357.8,422.3 347.5,422.4 337.2,422.4 326.9,422.4 316.6,423.2 306.3,423.3 296.0,420.3 285.7,420.3 275.4,420.3 265.1,420.3 254.8,420.3 244.5,420.3 234.2,420.4 223.9,424.2 213.6,424.2 203.3,424.2 193.0,426.6 182.7,426.8 172.4,427.0 162.1,650.0 151.8,650.0 141.5,650.0 131.2,650.0 120.9,650.0 110.6,650.0 100.3,650.0 90.0,650.0" fill="#F05138" opacity="0.6" class="anim" style="animation-delay:1100ms;"/>
<polygon points="90.0,650.0 100.3,650.0 110.6,650.0 120.9,650.0 131.2,650.0 141.5,650.0 151.8,650.0 162.1,650.0 172.4,414.4 182.7,414.4 193.0,414.3 203.3,413.7 213.6,413.7 223.9,413.7 234.2,412.7 244.5,412.7 254.8,412.7 265.1,412.7 275.4,412.7 285.7,412.7 296.0,412.7 306.3,413.5 316.6,413.4 326.9,413.2 337.2,413.2 347.5,413.2 357.8,413.2 368.1,413.2 378.4,413.1 388.7,413.1 399.0,413.1 409.3,413.1 419.6,413.1 429.9,413.1 440.1,412.2 450.4,412.1 460.7,412.1 471.0,412.1 481.3,412.1 491.6,412.0 501.9,412.0 512.2,412.0 522.5,412.0 532.8,412.0 543.1,412.0 553.4,412.0 563.7,412.0 574.0,412.0 584.3,412.0 594.6,412.0 604.9,412.0 615.2,412.0 625.5,412.0 635.8,412.0 646.1,412.0 656.4,412.0 666.7,412.0 677.0,411.9 687.3,411.9 697.6,411.9 707.9,411.9 718.2,411.9 728.5,411.9 738.8,411.9 749.1,411.9 759.4,411.9 769.7,411.9 780.0,411.9 780.0,413.3 769.7,413.6 759.4,413.8 749.1,413.8 738.8,413.8 728.5,413.8 718.2,413.8 707.9,413.8 697.6,413.8 687.3,413.8 677.0,413.8 666.7,413.9 656.4,413.9 646.1,413.9 635.8,413.9 625.5,413.9 615.2,413.9 604.9,413.9 594.6,413.9 584.3,413.9 574.0,413.9 563.7,413.9 553.4,413.9 543.1,413.9 532.8,413.9 522.5,413.9 512.2,413.9 501.9,413.9 491.6,413.9 481.3,414.2 471.0,414.2 460.7,414.2 450.4,414.2 440.1,414.2 429.9,416.2 419.6,416.2 409.3,416.2 399.0,416.2 388.7,416.2 378.4,416.2 368.1,416.3 357.8,416.3 347.5,416.3 337.2,416.3 326.9,416.3 316.6,416.8 306.3,416.8 296.0,415.2 285.7,415.2 275.4,415.2 265.1,415.2 254.8,415.2 244.5,415.3 234.2,415.3 223.9,417.2 213.6,417.3 203.3,417.3 193.0,418.5 182.7,418.6 172.4,418.7 162.1,650.0 151.8,650.0 141.5,650.0 131.2,650.0 120.9,650.0 110.6,650.0 100.3,650.0 90.0,650.0" fill="#b07219" opacity="0.6" class="anim" style="animation-delay:1200ms;"/>
<line x1="759.4" y1="100" x2="759.4" y2="650" stroke="#c9d1d9" stroke-width="1" stroke-dasharray="4,3" opacity="0.35"/>
<text x="769.7" y="112" text-anchor="middle" class="axis-label" opacity="0.6">Jun 27, 2026</text>
<text x="90.0" y="668" text-anchor="middle" class="axis-label" transform="rotate(-35 90.0 668)">2026-02</text>
<text x="378.4" y="668" text-anchor="middle" class="axis-label" transform="rotate(-35 378.4 668)">2026-03</text>
<text x="666.7" y="668" text-anchor="middle" class="axis-label" transform="rotate(-35 666.7 668)">2026-04</text>
<text x="738.8" y="668" text-anchor="middle" class="axis-label" transform="rotate(-35 738.8 668)">2026-06</text>
<line x1="796" y1="110" x2="824" y2="110" stroke="#3fb950" stroke-width="2"/>
<text x="832" y="116" class="legend-text">Lines Added</text>
<line x1="796" y1="140" x2="824" y2="140" stroke="#f85149" stroke-width="1.5"/>
<text x="832" y="146" class="legend-text">Lines Deleted</text>
<line x1="796" y1="170" x2="824" y2="170" stroke="#e3b341" stroke-width="1.5" stroke-dasharray="4,3"/>
<text x="832" y="176" class="legend-text">&#x2605; Stars</text>
<text x="796" y="200" class="subtitle">Languages</text>
<rect x="796" y="212" width="12" height="12" rx="2" fill="#e34c26" opacity="0.8" class="anim" style="animation-delay:800ms;"/>
<text x="814" y="223" class="legend-text">HTML (58%→57%)</text>
<rect x="796" y="234" width="12" height="12" rx="2" fill="#f1e05a" opacity="0.8" class="anim" style="animation-delay:880ms;"/>
<text x="814" y="245" class="legend-text">JavaScript (22%→26%)</text>
<rect x="796" y="256" width="12" height="12" rx="2" fill="#3572A5" opacity="0.8" class="anim" style="animation-delay:960ms;"/>
<text x="814" y="267" class="legend-text">Python (7%→5%)</text>
<rect x="796" y="278" width="12" height="12" rx="2" fill="#663399" opacity="0.8" class="anim" style="animation-delay:1040ms;"/>
<text x="814" y="289" class="legend-text">CSS (5%→6%)</text>
<rect x="796" y="300" width="12" height="12" rx="2" fill="#083fa1" opacity="0.8" class="anim" style="animation-delay:1120ms;"/>
<text x="814" y="311" class="legend-text">Markdown (2%→2%)</text>
<rect x="796" y="322" width="12" height="12" rx="2" fill="#6E4C13" opacity="0.8" class="anim" style="animation-delay:1200ms;"/>
<text x="814" y="333" class="legend-text">Assembly (2%→1%)</text>
<rect x="796" y="344" width="12" height="12" rx="2" fill="#F05138" opacity="0.8" class="anim" style="animation-delay:1280ms;"/>
<text x="814" y="355" class="legend-text">Swift (2%→2%)</text>
<rect x="796" y="366" width="12" height="12" rx="2" fill="#b07219" opacity="0.8" class="anim" style="animation-delay:1360ms;"/>
<text x="814" y="377" class="legend-text">Java (1%→1%)</text>
<text x="796" y="412" class="subtitle">Contributions</text>
<text x="796" y="432" class="axis-label">2023: 39</text>
<text x="796" y="452" class="axis-label">2024: 646</text>
<text x="796" y="472" class="axis-label">2025: 1,780</text>
<text x="796" y="492" class="axis-label">2026: 483</text>
<text x="796" y="522" class="subtitle">Statistics</text>
<text x="796" y="542" class="axis-label">Active weeks: 87</text>
<text x="796" y="562" class="axis-label">Add/Del ratio: 1.8x</text>
<text x="796" y="582" class="axis-label">Avg lines/wk: 19K</text>
<text x="796" y="602" class="axis-label">Peak: 2026-02-15</text>
<text x="796" y="622" class="axis-label">  (543K lines)</text>
<text x="90" y="742" class="axis-label">Total: +1,039,435 / -576,819 lines &#xb7; 2,948 contributions &#xb7; 79 repos &#xb7; &#x2605; 37</text>
</svg>