<svg xmlns="http://www.w3.org/2000/svg" width="1000" height="760" style="max-width: 100%;" viewBox="0 0 1000 760">

<defs>
  <linearGradient id="areaGrad" x1="0" y1="0" x2="0" y2="1">
    <stop offset="0%" stop-color="#58a6ff" stop-opacity="0.35"/>
    <stop offset="100%" stop-color="#58a6ff" stop-opacity="0.02"/>
  </linearGradient>
  <linearGradient id="addGrad" x1="0" y1="0" x2="0" y2="1">
    <stop offset="0%" stop-color="#3fb950" stop-opacity="0.35"/>
    <stop offset="100%" stop-color="#3fb950" stop-opacity="0.02"/>
  </linearGradient>
  <linearGradient id="delGrad" x1="0" y1="0" x2="0" y2="1">
    <stop offset="0%" stop-color="#f85149" stop-opacity="0.25"/>
    <stop offset="100%" stop-color="#f85149" stop-opacity="0.02"/>
  </linearGradient>
</defs>
<style>
  .title { font: bold 28px 'Segoe UI', Ubuntu, Sans-Serif; fill: #c9d1d9; }
  .subtitle { font: 600 20px 'Segoe UI', Ubuntu, Sans-Serif; fill: #c9d1d9; opacity: 0.8; }
  .axis-label { font: 18px 'Segoe UI', Ubuntu, Sans-Serif; fill: #c9d1d9; opacity: 0.7; }
  .legend-text { font: 14px 'Segoe UI', Ubuntu, Sans-Serif; fill: #c9d1d9; }
  .value-text { font: bold 18px 'Segoe UI', Ubuntu, Sans-Serif; fill: #c9d1d9; }
  .stat-value { font: bold 22px 'Segoe UI', Ubuntu, Sans-Serif; fill: #c9d1d9; }
  .stat-label { font: 18px 'Segoe UI', Ubuntu, Sans-Serif; fill: #c9d1d9; opacity: 0.7; }
  @keyframes fadeIn { from { opacity: 0; } to { opacity: 1; } }
  .anim { animation: fadeIn 0.6s ease-in-out forwards; opacity: 0; }
</style>

<rect x="0.5" y="0.5" rx="4.5" width="999" height="759" fill="#161b22" stroke="#21262d"/>
<text x="90" y="45" class="title">Activity History</text>
<text x="90" y="72" class="subtitle">Lines added vs deleted &amp; activity trends over time</text>
<line x1="90" y1="340.0" x2="780" y2="340.0" stroke="#21262d" stroke-width="1"/>
<text x="82" y="344.0" text-anchor="end" class="axis-label">0</text>
<line x1="90" y1="280.0" x2="780" y2="280.0" stroke="#21262d" stroke-width="1"/>
<text x="82" y="284.0" text-anchor="end" class="axis-label">453K</text>
<line x1="90" y1="220.0" x2="780" y2="220.0" stroke="#21262d" stroke-width="1"/>
<text x="82" y="224.0" text-anchor="end" class="axis-label">906K</text>
<line x1="90" y1="160.0" x2="780" y2="160.0" stroke="#21262d" stroke-width="1"/>
<text x="82" y="164.0" text-anchor="end" class="axis-label">1.4M</text>
<line x1="90" y1="100.0" x2="780" y2="100.0" stroke="#21262d" stroke-width="1"/>
<text x="82" y="104.0" text-anchor="end" class="axis-label">1.8M</text>
<polygon points="90.0,340.0 90.0,291.6 96.5,293.4 103.0,291.6 109.5,293.4 116.0,304.5 122.5,282.4 129.1,282.4 135.6,274.0 142.1,273.7 148.6,273.2 155.1,273.1 161.6,258.2 168.1,258.2 174.6,258.2 181.1,236.1 187.6,235.8 194.2,235.5 200.7,235.5 207.2,235.5 213.7,235.5 220.2,235.5 226.7,235.0 233.2,220.2 239.7,220.2 246.2,220.2 252.7,220.2 259.2,219.9 265.8,219.9 272.3,219.2 278.8,219.2 285.3,219.2 291.8,219.1 298.3,219.1 304.8,219.1 311.3,219.2 317.8,219.1 324.3,219.1 330.8,219.1 337.4,219.1 343.9,219.1 350.4,219.1 356.9,218.5 363.4,218.8 369.9,218.1 376.4,217.8 382.9,217.8 389.4,217.8 395.9,217.8 402.5,217.8 409.0,217.8 415.5,217.7 422.0,217.7 428.5,217.7 435.0,217.8 441.5,218.1 448.0,219.5 454.5,218.1 461.0,216.8 467.5,216.7 474.1,216.7 480.6,216.7 487.1,216.7 493.6,209.2 500.1,202.3 506.6,202.3 513.1,202.3 519.6,202.3 526.1,202.3 532.6,202.3 539.2,202.3 545.7,202.3 552.2,202.1 558.7,202.1 565.2,202.1 571.7,202.1 578.2,202.1 584.7,202.1 591.2,202.1 597.7,202.1 604.2,202.1 610.8,202.1 617.3,202.1 623.8,202.1 630.3,202.1 636.8,202.1 643.3,202.1 649.8,202.1 656.3,202.1 662.8,202.1 669.3,202.1 675.8,202.1 682.4,202.1 688.9,202.1 695.4,202.1 701.9,202.1 708.4,202.1 714.9,202.1 721.4,202.1 727.9,202.1 734.4,202.1 740.9,202.1 747.5,202.1 754.0,202.1 760.5,202.1 767.0,202.1 773.5,194.5 780.0,186.8 780.0,340.0" fill="url(#addGrad)" class="anim" style="animation-delay:200ms;"/>
<polyline points="90.0,291.6 96.5,293.4 103.0,291.6 109.5,293.4 116.0,304.5 122.5,282.4 129.1,282.4 135.6,274.0 142.1,273.7 148.6,273.2 155.1,273.1 161.6,258.2 168.1,258.2 174.6,258.2 181.1,236.1 187.6,235.8 194.2,235.5 200.7,235.5 207.2,235.5 213.7,235.5 220.2,235.5 226.7,235.0 233.2,220.2 239.7,220.2 246.2,220.2 252.7,220.2 259.2,219.9 265.8,219.9 272.3,219.2 278.8,219.2 285.3,219.2 291.8,219.1 298.3,219.1 304.8,219.1 311.3,219.2 317.8,219.1 324.3,219.1 330.8,219.1 337.4,219.1 343.9,219.1 350.4,219.1 356.9,218.5 363.4,218.8 369.9,218.1 376.4,217.8 382.9,217.8 389.4,217.8 395.9,217.8 402.5,217.8 409.0,217.8 415.5,217.7 422.0,217.7 428.5,217.7 435.0,217.8 441.5,218.1 448.0,219.5 454.5,218.1 461.0,216.8 467.5,216.7 474.1,216.7 480.6,216.7 487.1,216.7 493.6,209.2 500.1,202.3 506.6,202.3 513.1,202.3 519.6,202.3 526.1,202.3 532.6,202.3 539.2,202.3 545.7,202.3 552.2,202.1 558.7,202.1 565.2,202.1 571.7,202.1 578.2,202.1 584.7,202.1 591.2,202.1 597.7,202.1 604.2,202.1 610.8,202.1 617.3,202.1 623.8,202.1 630.3,202.1 636.8,202.1 643.3,202.1 649.8,202.1 656.3,202.1 662.8,202.1 669.3,202.1 675.8,202.1 682.4,202.1 688.9,202.1 695.4,202.1 701.9,202.1 708.4,202.1 714.9,202.1 721.4,202.1 727.9,202.1 734.4,202.1 740.9,202.1 747.5,202.1 754.0,202.1 760.5,202.1 767.0,202.1" fill="none" stroke="#3fb950" stroke-width="2" stroke-linejoin="round" class="anim" style="animation-delay:250ms;"/>
<polyline points="767.0,202.1 773.5,194.5 780.0,186.8" fill="none" stroke="#3fb950" stroke-width="1.5" stroke-dasharray="5,4" stroke-linejoin="round" opacity="0.6" class="anim" style="animation-delay:250ms;"/>
<polygon points="90.0,340.0 90.0,326.4 96.5,327.8 103.0,326.4 109.5,327.8 116.0,333.6 122.5,324.7 129.1,324.7 135.6,323.8 142.1,323.4 148.6,323.2 155.1,323.1 161.6,307.1 168.1,307.1 174.6,307.0 181.1,288.9 187.6,288.8 194.2,288.7 200.7,288.7 207.2,288.7 213.7,288.7 220.2,288.7 226.7,279.3 233.2,264.8 239.7,264.7 246.2,264.7 252.7,264.7 259.2,264.6 265.8,264.6 272.3,264.6 278.8,264.5 285.3,264.5 291.8,264.5 298.3,264.5 304.8,264.5 311.3,264.6 317.8,264.5 324.3,264.5 330.8,264.5 337.4,264.5 343.9,264.5 350.4,264.5 356.9,264.5 363.4,264.6 369.9,264.1 376.4,264.1 382.9,264.1 389.4,264.1 395.9,264.1 402.5,264.1 409.0,264.1 415.5,264.1 422.0,264.1 428.5,264.1 435.0,264.1 441.5,264.2 448.0,265.0 454.5,264.5 461.0,263.7 467.5,263.6 474.1,263.6 480.6,263.6 487.1,263.6 493.6,263.6 500.1,263.6 506.6,263.6 513.1,263.6 519.6,263.6 526.1,263.6 532.6,263.6 539.2,263.6 545.7,263.6 552.2,263.6 558.7,263.6 565.2,263.6 571.7,263.6 578.2,263.6 584.7,263.6 591.2,263.6 597.7,263.6 604.2,263.6 610.8,263.6 617.3,263.6 623.8,263.6 630.3,263.6 636.8,263.6 643.3,263.6 649.8,263.6 656.3,263.6 662.8,263.6 669.3,263.6 675.8,263.6 682.4,263.6 688.9,263.6 695.4,263.6 701.9,263.6 708.4,263.6 714.9,263.6 721.4,263.6 727.9,263.6 734.4,263.6 740.9,263.6 747.5,263.6 754.0,263.6 760.5,263.6 767.0,263.6 773.5,258.4 780.0,253.2 780.0,340.0" fill="url(#delGrad)" class="anim" style="animation-delay:300ms;"/>
<polyline points="90.0,326.4 96.5,327.8 103.0,326.4 109.5,327.8 116.0,333.6 122.5,324.7 129.1,324.7 135.6,323.8 142.1,323.4 148.6,323.2 155.1,323.1 161.6,307.1 168.1,307.1 174.6,307.0 181.1,288.9 187.6,288.8 194.2,288.7 200.7,288.7 207.2,288.7 213.7,288.7 220.2,288.7 226.7,279.3 233.2,264.8 239.7,264.7 246.2,264.7 252.7,264.7 259.2,264.6 265.8,264.6 272.3,264.6 278.8,264.5 285.3,264.5 291.8,264.5 298.3,264.5 304.8,264.5 311.3,264.6 317.8,264.5 324.3,264.5 330.8,264.5 337.4,264.5 343.9,264.5 350.4,264.5 356.9,264.5 363.4,264.6 369.9,264.1 376.4,264.1 382.9,264.1 389.4,264.1 395.9,264.1 402.5,264.1 409.0,264.1 415.5,264.1 422.0,264.1 428.5,264.1 435.0,264.1 441.5,264.2 448.0,265.0 454.5,264.5 461.0,263.7 467.5,263.6 474.1,263.6 480.6,263.6 487.1,263.6 493.6,263.6 500.1,263.6 506.6,263.6 513.1,263.6 519.6,263.6 526.1,263.6 532.6,263.6 539.2,263.6 545.7,263.6 552.2,263.6 558.7,263.6 565.2,263.6 571.7,263.6 578.2,263.6 584.7,263.6 591.2,263.6 597.7,263.6 604.2,263.6 610.8,263.6 617.3,263.6 623.8,263.6 630.3,263.6 636.8,263.6 643.3,263.6 649.8,263.6 656.3,263.6 662.8,263.6 669.3,263.6 675.8,263.6 682.4,263.6 688.9,263.6 695.4,263.6 701.9,263.6 708.4,263.6 714.9,263.6 721.4,263.6 727.9,263.6 734.4,263.6 740.9,263.6 747.5,263.6 754.0,263.6 760.5,263.6 767.0,263.6" fill="none" stroke="#f85149" stroke-width="1.5" stroke-linejoin="round" class="anim" style="animation-delay:350ms;"/>
<polyline points="767.0,263.6 773.5,258.4 780.0,253.2" fill="none" stroke="#f85149" stroke-width="1" stroke-dasharray="5,4" stroke-linejoin="round" opacity="0.6" class="anim" style="animation-delay:350ms;"/>
<polyline points="90.0,340.0 96.5,340.0 103.0,340.0 109.5,340.0 116.0,340.0 122.5,340.0 129.1,340.0 135.6,340.0 142.1,308.0 148.6,308.0 155.1,308.0 161.6,308.0 168.1,308.0 174.6,308.0 181.1,308.0 187.6,308.0 194.2,308.0 200.7,308.0 207.2,308.0 213.7,308.0 220.2,308.0 226.7,308.0 233.2,308.0 239.7,308.0 246.2,308.0 252.7,308.0 259.2,308.0 265.8,308.0 272.3,308.0 278.8,308.0 285.3,308.0 291.8,308.0 298.3,308.0 304.8,308.0 311.3,276.0 317.8,276.0 324.3,276.0 330.8,276.0 337.4,276.0 343.9,276.0 350.4,276.0 356.9,276.0 363.4,244.0 369.9,244.0 376.4,244.0 382.9,244.0 389.4,244.0 395.9,244.0 402.5,244.0 409.0,244.0 415.5,244.0 422.0,244.0 428.5,244.0 435.0,244.0 441.5,244.0 448.0,244.0 454.5,244.0 461.0,244.0 467.5,180.0 474.1,180.0 480.6,180.0 487.1,180.0 493.6,180.0 500.1,180.0 506.6,180.0 513.1,180.0 519.6,180.0 526.1,180.0 532.6,180.0 539.2,180.0 545.7,180.0 552.2,180.0 558.7,180.0 565.2,180.0 571.7,180.0 578.2,180.0 584.7,180.0 591.2,180.0 597.7,180.0 604.2,180.0 610.8,180.0 617.3,180.0 623.8,180.0 630.3,180.0 636.8,180.0 643.3,180.0 649.8,180.0 656.3,180.0 662.8,180.0 669.3,180.0 675.8,180.0 682.4,180.0 688.9,180.0 695.4,180.0 701.9,180.0 708.4,180.0 714.9,180.0 721.4,180.0 727.9,180.0 734.4,180.0 740.9,180.0 747.5,180.0 754.0,180.0 760.5,180.0 767.0,180.0" fill="none" stroke="#e3b341" stroke-width="1.5" stroke-dasharray="4,3" stroke-linejoin="round" class="anim" style="animation-delay:400ms;"/>
<polyline points="767.0,180.0 773.5,180.0 780.0,148.0" fill="none" stroke="#e3b341" stroke-width="1" stroke-dasharray="3,5" stroke-linejoin="round" opacity="0.5" class="anim" style="animation-delay:400ms;"/>
<text x="90" y="90" class="subtitle">Lines Added vs Deleted (per snapshot)</text>
<text x="90" y="400" class="subtitle">Programming Language Development (%)</text>
<line x1="90" y1="650.0" x2="780" y2="650.0" stroke="#21262d" stroke-width="1"/>
<text x="82" y="654.0" text-anchor="end" class="axis-label">0%</text>
<line x1="90" y1="590.0" x2="780" y2="590.0" stroke="#21262d" stroke-width="1"/>
<text x="82" y="594.0" text-anchor="end" class="axis-label">25%</text>
<line x1="90" y1="530.0" x2="780" y2="530.0" stroke="#21262d" stroke-width="1"/>
<text x="82" y="534.0" text-anchor="end" class="axis-label">50%</text>
<line x1="90" y1="470.0" x2="780" y2="470.0" stroke="#21262d" stroke-width="1"/>
<text x="82" y="474.0" text-anchor="end" class="axis-label">75%</text>
<line x1="90" y1="410.0" x2="780" y2="410.0" stroke="#21262d" stroke-width="1"/>
<text x="82" y="414.0" text-anchor="end" class="axis-label">100%</text>
<polygon points="90.0,650.0 96.5,650.0 103.0,650.0 109.5,650.0 116.0,650.0 122.5,650.0 129.1,650.0 135.6,650.0 142.1,528.2 148.6,528.5 155.1,529.7 161.6,499.3 168.1,499.3 174.6,502.9 181.1,485.0 187.6,485.1 194.2,485.4 200.7,485.4 207.2,485.4 213.7,485.4 220.2,485.4 226.7,496.4 233.2,496.7 239.7,491.0 246.2,491.0 252.7,491.0 259.2,491.7 265.8,491.8 272.3,494.0 278.8,494.0 285.3,494.4 291.8,494.4 298.3,494.4 304.8,494.4 311.3,507.6 317.8,507.6 324.3,507.9 330.8,507.9 337.4,507.9 343.9,506.3 350.4,506.4 356.9,506.8 363.4,506.9 369.9,506.8 376.4,507.5 382.9,507.5 389.4,507.5 395.9,507.5 402.5,507.5 409.0,507.5 415.5,507.5 422.0,507.5 428.5,507.5 435.0,507.5 441.5,507.5 448.0,507.5 454.5,507.5 461.0,508.6 467.5,508.6 474.1,508.6 480.6,508.6 487.1,508.6 493.6,509.5 500.1,509.8 506.6,509.8 513.1,509.8 519.6,509.8 526.1,509.8 532.6,509.8 539.2,509.8 545.7,509.8 552.2,510.9 558.7,510.9 565.2,510.9 571.7,510.9 578.2,510.9 584.7,510.9 591.2,510.9 597.7,510.9 604.2,510.9 610.8,510.9 617.3,510.9 623.8,510.9 630.3,510.9 636.8,510.9 643.3,510.9 649.8,510.9 656.3,510.9 662.8,510.9 669.3,510.9 675.8,510.9 682.4,510.9 688.9,510.9 695.4,510.9 701.9,510.9 708.4,510.9 714.9,510.9 721.4,510.9 727.9,510.9 734.4,510.9 740.9,510.9 747.5,510.9 754.0,510.9 760.5,510.9 767.0,510.9 773.5,513.0 780.0,515.0 780.0,650.0 773.5,650.0 767.0,650.0 760.5,650.0 754.0,650.0 747.5,650.0 740.9,650.0 734.4,650.0 727.9,650.0 721.4,650.0 714.9,650.0 708.4,650.0 701.9,650.0 695.4,650.0 688.9,650.0 682.4,650.0 675.8,650.0 669.3,650.0 662.8,650.0 656.3,650.0 649.8,650.0 643.3,650.0 636.8,650.0 630.3,650.0 623.8,650.0 617.3,650.0 610.8,650.0 604.2,650.0 597.7,650.0 591.2,650.0 584.7,650.0 578.2,650.0 571.7,650.0 565.2,650.0 558.7,650.0 552.2,650.0 545.7,650.0 539.2,650.0 532.6,650.0 526.1,650.0 519.6,650.0 513.1,650.0 506.6,650.0 500.1,650.0 493.6,650.0 487.1,650.0 480.6,650.0 474.1,650.0 467.5,650.0 461.0,650.0 454.5,650.0 448.0,650.0 441.5,650.0 435.0,650.0 428.5,650.0 422.0,650.0 415.5,650.0 409.0,650.0 402.5,650.0 395.9,650.0 389.4,650.0 382.9,650.0 376.4,650.0 369.9,650.0 363.4,650.0 356.9,650.0 350.4,650.0 343.9,650.0 337.4,650.0 330.8,650.0 324.3,650.0 317.8,650.0 311.3,650.0 304.8,650.0 298.3,650.0 291.8,650.0 285.3,650.0 278.8,650.0 272.3,650.0 265.8,650.0 259.2,650.0 252.7,650.0 246.2,650.0 239.7,650.0 233.2,650.0 226.7,650.0 220.2,650.0 213.7,650.0 207.2,650.0 200.7,650.0 194.2,650.0 187.6,650.0 181.1,650.0 174.6,650.0 168.1,650.0 161.6,650.0 155.1,650.0 148.6,650.0 142.1,650.0 135.6,650.0 129.1,650.0 122.5,650.0 116.0,650.0 109.5,650.0 103.0,650.0 96.5,650.0 90.0,650.0" fill="#e34c26" opacity="0.6" class="anim" style="animation-delay:500ms;"/>
<polygon points="90.0,650.0 96.5,650.0 103.0,650.0 109.5,650.0 116.0,650.0 122.5,650.0 129.1,650.0 135.6,650.0 142.1,488.4 148.6,488.0 155.1,489.0 161.6,476.0 168.1,476.0 174.6,477.2 181.1,460.1 187.6,460.2 194.2,460.6 200.7,460.6 207.2,460.6 213.7,460.6 220.2,460.6 226.7,473.0 233.2,473.5 239.7,469.5 246.2,469.5 252.7,469.5 259.2,469.7 265.8,469.7 272.3,469.7 278.8,469.7 285.3,469.7 291.8,469.7 298.3,469.7 304.8,469.7 311.3,455.6 317.8,455.6 324.3,455.4 330.8,455.4 337.4,455.4 343.9,454.3 350.4,454.3 356.9,455.0 363.4,455.1 369.9,454.9 376.4,455.9 382.9,455.9 389.4,455.9 395.9,455.9 402.5,455.9 409.0,455.9 415.5,455.9 422.0,455.9 428.5,455.9 435.0,455.9 441.5,455.9 448.0,455.9 454.5,455.9 461.0,455.8 467.5,455.8 474.1,455.8 480.6,455.8 487.1,455.8 493.6,457.0 500.1,457.4 506.6,457.4 513.1,457.4 519.6,457.4 526.1,457.4 532.6,457.4 539.2,457.4 545.7,457.4 552.2,458.2 558.7,458.2 565.2,458.2 571.7,458.2 578.2,458.2 584.7,458.2 591.2,458.2 597.7,458.2 604.2,458.2 610.8,458.2 617.3,458.2 623.8,458.2 630.3,458.2 636.8,458.2 643.3,458.2 649.8,458.2 656.3,458.2 662.8,458.2 669.3,458.2 675.8,458.2 682.4,458.2 688.9,458.2 695.4,458.2 701.9,458.2 708.4,458.2 714.9,458.2 721.4,458.2 727.9,458.2 734.4,458.2 740.9,458.2 747.5,458.2 754.0,458.2 760.5,458.2 767.0,458.2 773.5,456.6 780.0,455.1 780.0,515.0 773.5,513.0 767.0,510.9 760.5,510.9 754.0,510.9 747.5,510.9 740.9,510.9 734.4,510.9 727.9,510.9 721.4,510.9 714.9,510.9 708.4,510.9 701.9,510.9 695.4,510.9 688.9,510.9 682.4,510.9 675.8,510.9 669.3,510.9 662.8,510.9 656.3,510.9 649.8,510.9 643.3,510.9 636.8,510.9 630.3,510.9 623.8,510.9 617.3,510.9 610.8,510.9 604.2,510.9 597.7,510.9 591.2,510.9 584.7,510.9 578.2,510.9 571.7,510.9 565.2,510.9 558.7,510.9 552.2,510.9 545.7,509.8 539.2,509.8 532.6,509.8 526.1,509.8 519.6,509.8 513.1,509.8 506.6,509.8 500.1,509.8 493.6,509.5 487.1,508.6 480.6,508.6 474.1,508.6 467.5,508.6 461.0,508.6 454.5,507.5 448.0,507.5 441.5,507.5 435.0,507.5 428.5,507.5 422.0,507.5 415.5,507.5 409.0,507.5 402.5,507.5 395.9,507.5 389.4,507.5 382.9,507.5 376.4,507.5 369.9,506.8 363.4,506.9 356.9,506.8 350.4,506.4 343.9,506.3 337.4,507.9 330.8,507.9 324.3,507.9 317.8,507.6 311.3,507.6 304.8,494.4 298.3,494.4 291.8,494.4 285.3,494.4 278.8,494.0 272.3,494.0 265.8,491.8 259.2,491.7 252.7,491.0 246.2,491.0 239.7,491.0 233.2,496.7 226.7,496.4 220.2,485.4 213.7,485.4 207.2,485.4 200.7,485.4 194.2,485.4 187.6,485.1 181.1,485.0 174.6,502.9 168.1,499.3 161.6,499.3 155.1,529.7 148.6,528.5 142.1,528.2 135.6,650.0 129.1,650.0 122.5,650.0 116.0,650.0 109.5,650.0 103.0,650.0 96.5,650.0 90.0,650.0" fill="#f1e05a" opacity="0.6" class="anim" style="animation-delay:600ms;"/>
<polygon points="90.0,650.0 96.5,650.0 103.0,650.0 109.5,650.0 116.0,650.0 122.5,650.0 129.1,650.0 135.6,650.0 142.1,455.5 148.6,455.4 155.1,455.1 161.6,447.0 168.1,447.0 174.6,448.2 181.1,438.9 187.6,439.0 194.2,439.6 200.7,439.6 207.2,439.6 213.7,439.6 220.2,439.6 226.7,445.6 233.2,445.6 239.7,443.3 246.2,443.3 252.7,443.3 259.2,443.6 265.8,443.6 272.3,444.1 278.8,444.1 285.3,444.1 291.8,444.1 298.3,444.1 304.8,444.1 311.3,437.5 317.8,437.5 324.3,437.5 330.8,437.5 337.4,437.5 343.9,437.5 350.4,437.5 356.9,438.4 363.4,438.5 369.9,438.3 376.4,439.3 382.9,439.3 389.4,439.3 395.9,439.3 402.5,439.3 409.0,439.3 415.5,439.3 422.0,439.3 428.5,439.3 435.0,439.3 441.5,439.3 448.0,439.3 454.5,439.3 461.0,439.4 467.5,439.4 474.1,439.4 480.6,439.4 487.1,439.4 493.6,440.7 500.1,441.1 506.6,441.1 513.1,441.1 519.6,441.1 526.1,441.1 532.6,441.1 539.2,441.1 545.7,441.1 552.2,442.0 558.7,442.0 565.2,442.0 571.7,442.0 578.2,442.0 584.7,442.0 591.2,442.0 597.7,442.0 604.2,442.0 610.8,442.0 617.3,442.0 623.8,442.0 630.3,442.0 636.8,442.0 643.3,442.0 649.8,442.0 656.3,442.0 662.8,442.0 669.3,442.0 675.8,442.0 682.4,442.0 688.9,442.0 695.4,442.0 701.9,442.0 708.4,442.0 714.9,442.0 721.4,442.0 727.9,442.0 734.4,442.0 740.9,442.0 747.5,442.0 754.0,442.0 760.5,442.0 767.0,442.0 773.5,441.9 780.0,441.8 780.0,455.1 773.5,456.6 767.0,458.2 760.5,458.2 754.0,458.2 747.5,458.2 740.9,458.2 734.4,458.2 727.9,458.2 721.4,458.2 714.9,458.2 708.4,458.2 701.9,458.2 695.4,458.2 688.9,458.2 682.4,458.2 675.8,458.2 669.3,458.2 662.8,458.2 656.3,458.2 649.8,458.2 643.3,458.2 636.8,458.2 630.3,458.2 623.8,458.2 617.3,458.2 610.8,458.2 604.2,458.2 597.7,458.2 591.2,458.2 584.7,458.2 578.2,458.2 571.7,458.2 565.2,458.2 558.7,458.2 552.2,458.2 545.7,457.4 539.2,457.4 532.6,457.4 526.1,457.4 519.6,457.4 513.1,457.4 506.6,457.4 500.1,457.4 493.6,457.0 487.1,455.8 480.6,455.8 474.1,455.8 467.5,455.8 461.0,455.8 454.5,455.9 448.0,455.9 441.5,455.9 435.0,455.9 428.5,455.9 422.0,455.9 415.5,455.9 409.0,455.9 402.5,455.9 395.9,455.9 389.4,455.9 382.9,455.9 376.4,455.9 369.9,454.9 363.4,455.1 356.9,455.0 350.4,454.3 343.9,454.3 337.4,455.4 330.8,455.4 324.3,455.4 317.8,455.6 311.3,455.6 304.8,469.7 298.3,469.7 291.8,469.7 285.3,469.7 278.8,469.7 272.3,469.7 265.8,469.7 259.2,469.7 252.7,469.5 246.2,469.5 239.7,469.5 233.2,473.5 226.7,473.0 220.2,460.6 213.7,460.6 207.2,460.6 200.7,460.6 194.2,460.6 187.6,460.2 181.1,460.1 174.6,477.2 168.1,476.0 161.6,476.0 155.1,489.0 148.6,488.0 142.1,488.4 135.6,650.0 129.1,650.0 122.5,650.0 116.0,650.0 109.5,650.0 103.0,650.0 96.5,650.0 90.0,650.0" fill="#3572A5" opacity="0.6" class="anim" style="animation-delay:700ms;"/>
<polygon points="90.0,650.0 96.5,650.0 103.0,650.0 109.5,650.0 116.0,650.0 122.5,650.0 129.1,650.0 135.6,650.0 142.1,442.3 148.6,442.0 155.1,441.6 161.6,439.5 168.1,439.5 174.6,439.4 181.1,432.3 187.6,432.2 194.2,432.6 200.7,432.6 207.2,432.6 213.7,432.6 220.2,432.6 226.7,439.3 233.2,439.3 239.7,437.4 246.2,437.4 252.7,437.4 259.2,437.3 265.8,437.3 272.3,437.1 278.8,437.1 285.3,437.1 291.8,437.1 298.3,437.1 304.8,437.1 311.3,428.7 317.8,428.6 324.3,428.5 330.8,428.5 337.4,428.5 343.9,427.3 350.4,427.3 356.9,427.1 363.4,427.1 369.9,427.1 376.4,427.0 382.9,427.0 389.4,427.0 395.9,427.0 402.5,427.0 409.0,427.0 415.5,427.0 422.0,427.0 428.5,427.0 435.0,427.0 441.5,427.0 448.0,427.0 454.5,427.0 461.0,427.0 467.5,427.1 474.1,427.1 480.6,427.1 487.1,427.1 493.6,428.4 500.1,428.9 506.6,428.9 513.1,428.9 519.6,428.9 526.1,428.9 532.6,428.9 539.2,428.9 545.7,428.9 552.2,428.7 558.7,428.7 565.2,428.7 571.7,428.7 578.2,428.7 584.7,428.7 591.2,428.7 597.7,428.7 604.2,428.7 610.8,428.7 617.3,428.7 623.8,428.7 630.3,428.7 636.8,428.7 643.3,428.7 649.8,428.7 656.3,428.7 662.8,428.7 669.3,428.7 675.8,428.7 682.4,428.7 688.9,428.7 695.4,428.7 701.9,428.7 708.4,428.7 714.9,428.7 721.4,428.7 727.9,428.7 734.4,428.7 740.9,428.7 747.5,428.7 754.0,428.7 760.5,428.7 767.0,428.7 773.5,427.8 780.0,426.9 780.0,441.8 773.5,441.9 767.0,442.0 760.5,442.0 754.0,442.0 747.5,442.0 740.9,442.0 734.4,442.0 727.9,442.0 721.4,442.0 714.9,442.0 708.4,442.0 701.9,442.0 695.4,442.0 688.9,442.0 682.4,442.0 675.8,442.0 669.3,442.0 662.8,442.0 656.3,442.0 649.8,442.0 643.3,442.0 636.8,442.0 630.3,442.0 623.8,442.0 617.3,442.0 610.8,442.0 604.2,442.0 597.7,442.0 591.2,442.0 584.7,442.0 578.2,442.0 571.7,442.0 565.2,442.0 558.7,442.0 552.2,442.0 545.7,441.1 539.2,441.1 532.6,441.1 526.1,441.1 519.6,441.1 513.1,441.1 506.6,441.1 500.1,441.1 493.6,440.7 487.1,439.4 480.6,439.4 474.1,439.4 467.5,439.4 461.0,439.4 454.5,439.3 448.0,439.3 441.5,439.3 435.0,439.3 428.5,439.3 422.0,439.3 415.5,439.3 409.0,439.3 402.5,439.3 395.9,439.3 389.4,439.3 382.9,439.3 376.4,439.3 369.9,438.3 363.4,438.5 356.9,438.4 350.4,437.5 343.9,437.5 337.4,437.5 330.8,437.5 324.3,437.5 317.8,437.5 311.3,437.5 304.8,444.1 298.3,444.1 291.8,444.1 285.3,444.1 278.8,444.1 272.3,444.1 265.8,443.6 259.2,443.6 252.7,443.3 246.2,443.3 239.7,443.3 233.2,445.6 226.7,445.6 220.2,439.6 213.7,439.6 207.2,439.6 200.7,439.6 194.2,439.6 187.6,439.0 181.1,438.9 174.6,448.2 168.1,447.0 161.6,447.0 155.1,455.1 148.6,455.4 142.1,455.5 135.6,650.0 129.1,650.0 122.5,650.0 116.0,650.0 109.5,650.0 103.0,650.0 96.5,650.0 90.0,650.0" fill="#663399" opacity="0.6" class="anim" style="animation-delay:800ms;"/>
<polygon points="90.0,650.0 96.5,650.0 103.0,650.0 109.5,650.0 116.0,650.0 122.5,650.0 129.1,650.0 135.6,650.0 142.1,436.6 148.6,436.3 155.1,435.9 161.6,432.2 168.1,432.2 174.6,432.2 181.1,426.2 187.6,426.1 194.2,426.0 200.7,426.0 207.2,426.0 213.7,426.0 220.2,426.0 226.7,430.8 233.2,430.7 239.7,429.3 246.2,429.3 252.7,429.3 259.2,429.2 265.8,429.2 272.3,428.9 278.8,428.9 285.3,428.8 291.8,428.8 298.3,428.8 304.8,428.8 311.3,423.0 317.8,422.9 324.3,422.9 330.8,422.9 337.4,422.9 343.9,422.0 350.4,422.0 356.9,421.9 363.4,421.9 369.9,421.9 376.4,421.8 382.9,421.8 389.4,421.8 395.9,421.8 402.5,421.8 409.0,421.8 415.5,421.8 422.0,421.8 428.5,421.8 435.0,421.8 441.5,421.8 448.0,421.8 454.5,421.8 461.0,421.7 467.5,421.8 474.1,421.8 480.6,421.8 487.1,421.8 493.6,423.2 500.1,423.6 506.6,423.6 513.1,423.6 519.6,423.6 526.1,423.6 532.6,423.6 539.2,423.6 545.7,423.6 552.2,423.5 558.7,423.5 565.2,423.5 571.7,423.5 578.2,423.5 584.7,423.5 591.2,423.5 597.7,423.5 604.2,423.5 610.8,423.5 617.3,423.5 623.8,423.5 630.3,423.5 636.8,423.5 643.3,423.5 649.8,423.5 656.3,423.5 662.8,423.5 669.3,423.5 675.8,423.5 682.4,423.5 688.9,423.5 695.4,423.5 701.9,423.5 708.4,423.5 714.9,423.5 721.4,423.5 727.9,423.5 734.4,423.5 740.9,423.5 747.5,423.5 754.0,423.5 760.5,423.5 767.0,423.5 773.5,422.9 780.0,422.3 780.0,426.9 773.5,427.8 767.0,428.7 760.5,428.7 754.0,428.7 747.5,428.7 740.9,428.7 734.4,428.7 727.9,428.7 721.4,428.7 714.9,428.7 708.4,428.7 701.9,428.7 695.4,428.7 688.9,428.7 682.4,428.7 675.8,428.7 669.3,428.7 662.8,428.7 656.3,428.7 649.8,428.7 643.3,428.7 636.8,428.7 630.3,428.7 623.8,428.7 617.3,428.7 610.8,428.7 604.2,428.7 597.7,428.7 591.2,428.7 584.7,428.7 578.2,428.7 571.7,428.7 565.2,428.7 558.7,428.7 552.2,428.7 545.7,428.9 539.2,428.9 532.6,428.9 526.1,428.9 519.6,428.9 513.1,428.9 506.6,428.9 500.1,428.9 493.6,428.4 487.1,427.1 480.6,427.1 474.1,427.1 467.5,427.1 461.0,427.0 454.5,427.0 448.0,427.0 441.5,427.0 435.0,427.0 428.5,427.0 422.0,427.0 415.5,427.0 409.0,427.0 402.5,427.0 395.9,427.0 389.4,427.0 382.9,427.0 376.4,427.0 369.9,427.1 363.4,427.1 356.9,427.1 350.4,427.3 343.9,427.3 337.4,428.5 330.8,428.5 324.3,428.5 317.8,428.6 311.3,428.7 304.8,437.1 298.3,437.1 291.8,437.1 285.3,437.1 278.8,437.1 272.3,437.1 265.8,437.3 259.2,437.3 252.7,437.4 246.2,437.4 239.7,437.4 233.2,439.3 226.7,439.3 220.2,432.6 213.7,432.6 207.2,432.6 200.7,432.6 194.2,432.6 187.6,432.2 181.1,432.3 174.6,439.4 168.1,439.5 161.6,439.5 155.1,441.6 148.6,442.0 142.1,442.3 135.6,650.0 129.1,650.0 122.5,650.0 116.0,650.0 109.5,650.0 103.0,650.0 96.5,650.0 90.0,650.0" fill="#083fa1" opacity="0.6" class="anim" style="animation-delay:900ms;"/>
<polygon points="90.0,650.0 96.5,650.0 103.0,650.0 109.5,650.0 116.0,650.0 122.5,650.0 129.1,650.0 135.6,650.0 142.1,428.3 148.6,428.1 155.1,427.8 161.6,425.3 168.1,425.3 174.6,425.2 181.1,421.1 187.6,421.1 194.2,421.0 200.7,421.0 207.2,421.0 213.7,421.0 220.2,421.0 226.7,424.3 233.2,424.2 239.7,423.3 246.2,423.3 252.7,423.3 259.2,423.2 265.8,423.2 272.3,423.0 278.8,423.0 285.3,422.9 291.8,422.9 298.3,422.9 304.8,422.9 311.3,418.9 317.8,418.9 324.3,418.8 330.8,418.8 337.4,418.8 343.9,418.3 350.4,418.3 356.9,418.2 363.4,418.2 369.9,418.2 376.4,418.1 382.9,418.1 389.4,418.1 395.9,418.1 402.5,418.1 409.0,418.1 415.5,418.1 422.0,418.1 428.5,418.1 435.0,418.1 441.5,418.1 448.0,418.1 454.5,418.1 461.0,418.1 467.5,418.1 474.1,418.1 480.6,418.1 487.1,418.1 493.6,418.0 500.1,418.0 506.6,418.0 513.1,418.0 519.6,418.0 526.1,418.0 532.6,418.0 539.2,418.0 545.7,418.0 552.2,417.9 558.7,417.9 565.2,417.9 571.7,417.9 578.2,417.9 584.7,417.9 591.2,417.9 597.7,417.9 604.2,417.9 610.8,417.9 617.3,417.9 623.8,417.9 630.3,417.9 636.8,417.9 643.3,417.9 649.8,417.9 656.3,417.9 662.8,417.9 669.3,417.9 675.8,417.9 682.4,417.9 688.9,417.9 695.4,417.9 701.9,417.9 708.4,417.9 714.9,417.9 721.4,417.9 727.9,417.9 734.4,417.9 740.9,417.9 747.5,417.9 754.0,417.9 760.5,417.9 767.0,417.9 773.5,417.3 780.0,416.7 780.0,422.3 773.5,422.9 767.0,423.5 760.5,423.5 754.0,423.5 747.5,423.5 740.9,423.5 734.4,423.5 727.9,423.5 721.4,423.5 714.9,423.5 708.4,423.5 701.9,423.5 695.4,423.5 688.9,423.5 682.4,423.5 675.8,423.5 669.3,423.5 662.8,423.5 656.3,423.5 649.8,423.5 643.3,423.5 636.8,423.5 630.3,423.5 623.8,423.5 617.3,423.5 610.8,423.5 604.2,423.5 597.7,423.5 591.2,423.5 584.7,423.5 578.2,423.5 571.7,423.5 565.2,423.5 558.7,423.5 552.2,423.5 545.7,423.6 539.2,423.6 532.6,423.6 526.1,423.6 519.6,423.6 513.1,423.6 506.6,423.6 500.1,423.6 493.6,423.2 487.1,421.8 480.6,421.8 474.1,421.8 467.5,421.8 461.0,421.7 454.5,421.8 448.0,421.8 441.5,421.8 435.0,421.8 428.5,421.8 422.0,421.8 415.5,421.8 409.0,421.8 402.5,421.8 395.9,421.8 389.4,421.8 382.9,421.8 376.4,421.8 369.9,421.9 363.4,421.9 356.9,421.9 350.4,422.0 343.9,422.0 337.4,422.9 330.8,422.9 324.3,422.9 317.8,422.9 311.3,423.0 304.8,428.8 298.3,428.8 291.8,428.8 285.3,428.8 278.8,428.9 272.3,428.9 265.8,429.2 259.2,429.2 252.7,429.3 246.2,429.3 239.7,429.3 233.2,430.7 226.7,430.8 220.2,426.0 213.7,426.0 207.2,426.0 200.7,426.0 194.2,426.0 187.6,426.1 181.1,426.2 174.6,432.2 168.1,432.2 161.6,432.2 155.1,435.9 148.6,436.3 142.1,436.6 135.6,650.0 129.1,650.0 122.5,650.0 116.0,650.0 109.5,650.0 103.0,650.0 96.5,650.0 90.0,650.0" fill="#F05138" opacity="0.6" class="anim" style="animation-delay:1000ms;"/>
<polygon points="90.0,650.0 96.5,650.0 103.0,650.0 109.5,650.0 116.0,650.0 122.5,650.0 129.1,650.0 135.6,650.0 142.1,418.7 148.6,418.6 155.1,418.5 161.6,417.3 168.1,417.3 174.6,417.2 181.1,415.3 187.6,415.3 194.2,415.2 200.7,415.2 207.2,415.2 213.7,415.2 220.2,415.2 226.7,416.8 233.2,416.8 239.7,416.3 246.2,416.3 252.7,416.3 259.2,416.3 265.8,416.3 272.3,416.2 278.8,416.2 285.3,416.2 291.8,416.2 298.3,416.2 304.8,416.2 311.3,414.2 317.8,414.2 324.3,414.2 330.8,414.2 337.4,414.2 343.9,413.9 350.4,413.9 356.9,413.9 363.4,413.9 369.9,413.9 376.4,413.9 382.9,413.9 389.4,413.9 395.9,413.9 402.5,413.9 409.0,413.9 415.5,413.9 422.0,413.9 428.5,413.9 435.0,413.9 441.5,413.9 448.0,413.9 454.5,413.9 461.0,413.8 467.5,413.8 474.1,413.8 480.6,413.8 487.1,413.8 493.6,413.8 500.1,413.8 506.6,413.8 513.1,413.8 519.6,413.8 526.1,413.8 532.6,413.8 539.2,413.8 545.7,413.8 552.2,413.8 558.7,413.8 565.2,413.8 571.7,413.8 578.2,413.8 584.7,413.8 591.2,413.8 597.7,413.8 604.2,413.8 610.8,413.8 617.3,413.8 623.8,413.8 630.3,413.8 636.8,413.8 643.3,413.8 649.8,413.8 656.3,413.8 662.8,413.8 669.3,413.8 675.8,413.8 682.4,413.8 688.9,413.8 695.4,413.8 701.9,413.8 708.4,413.8 714.9,413.8 721.4,413.8 727.9,413.8 734.4,413.8 740.9,413.8 747.5,413.8 754.0,413.8 760.5,413.8 767.0,413.8 773.5,413.6 780.0,413.4 780.0,416.7 773.5,417.3 767.0,417.9 760.5,417.9 754.0,417.9 747.5,417.9 740.9,417.9 734.4,417.9 727.9,417.9 721.4,417.9 714.9,417.9 708.4,417.9 701.9,417.9 695.4,417.9 688.9,417.9 682.4,417.9 675.8,417.9 669.3,417.9 662.8,417.9 656.3,417.9 649.8,417.9 643.3,417.9 636.8,417.9 630.3,417.9 623.8,417.9 617.3,417.9 610.8,417.9 604.2,417.9 597.7,417.9 591.2,417.9 584.7,417.9 578.2,417.9 571.7,417.9 565.2,417.9 558.7,417.9 552.2,417.9 545.7,418.0 539.2,418.0 532.6,418.0 526.1,418.0 519.6,418.0 513.1,418.0 506.6,418.0 500.1,418.0 493.6,418.0 487.1,418.1 480.6,418.1 474.1,418.1 467.5,418.1 461.0,418.1 454.5,418.1 448.0,418.1 441.5,418.1 435.0,418.1 428.5,418.1 422.0,418.1 415.5,418.1 409.0,418.1 402.5,418.1 395.9,418.1 389.4,418.1 382.9,418.1 376.4,418.1 369.9,418.2 363.4,418.2 356.9,418.2 350.4,418.3 343.9,418.3 337.4,418.8 330.8,418.8 324.3,418.8 317.8,418.9 311.3,418.9 304.8,422.9 298.3,422.9 291.8,422.9 285.3,422.9 278.8,423.0 272.3,423.0 265.8,423.2 259.2,423.2 252.7,423.3 246.2,423.3 239.7,423.3 233.2,424.2 226.7,424.3 220.2,421.0 213.7,421.0 207.2,421.0 200.7,421.0 194.2,421.0 187.6,421.1 181.1,421.1 174.6,425.2 168.1,425.3 161.6,425.3 155.1,427.8 148.6,428.1 142.1,428.3 135.6,650.0 129.1,650.0 122.5,650.0 116.0,650.0 109.5,650.0 103.0,650.0 96.5,650.0 90.0,650.0" fill="#6E4C13" opacity="0.6" class="anim" style="animation-delay:1100ms;"/>
<polygon points="90.0,650.0 96.5,650.0 103.0,650.0 109.5,650.0 116.0,650.0 122.5,650.0 129.1,650.0 135.6,650.0 142.1,414.4 148.6,414.4 155.1,414.3 161.6,413.7 168.1,413.7 174.6,413.7 181.1,412.7 187.6,412.7 194.2,412.7 200.7,412.7 207.2,412.7 213.7,412.7 220.2,412.7 226.7,413.5 233.2,413.4 239.7,413.2 246.2,413.2 252.7,413.2 259.2,413.2 265.8,413.2 272.3,413.1 278.8,413.1 285.3,413.1 291.8,413.1 298.3,413.1 304.8,413.1 311.3,412.2 317.8,412.1 324.3,412.1 330.8,412.1 337.4,412.1 343.9,412.0 350.4,412.0 356.9,412.0 363.4,412.0 369.9,412.0 376.4,412.0 382.9,412.0 389.4,412.0 395.9,412.0 402.5,412.0 409.0,412.0 415.5,412.0 422.0,412.0 428.5,412.0 435.0,412.0 441.5,412.0 448.0,412.0 454.5,412.0 461.0,411.9 467.5,411.9 474.1,411.9 480.6,411.9 487.1,411.9 493.6,411.9 500.1,411.9 506.6,411.9 513.1,411.9 519.6,411.9 526.1,411.9 532.6,411.9 539.2,411.9 545.7,411.9 552.2,411.9 558.7,411.9 565.2,411.9 571.7,411.9 578.2,411.9 584.7,411.9 591.2,411.9 597.7,411.9 604.2,411.9 610.8,411.9 617.3,411.9 623.8,411.9 630.3,411.9 636.8,411.9 643.3,411.9 649.8,411.9 656.3,411.9 662.8,411.9 669.3,411.9 675.8,411.9 682.4,411.9 688.9,411.9 695.4,411.9 701.9,411.9 708.4,411.9 714.9,411.9 721.4,411.9 727.9,411.9 734.4,411.9 740.9,411.9 747.5,411.9 754.0,411.9 760.5,411.9 767.0,411.9 773.5,411.9 780.0,411.9 780.0,413.4 773.5,413.6 767.0,413.8 760.5,413.8 754.0,413.8 747.5,413.8 740.9,413.8 734.4,413.8 727.9,413.8 721.4,413.8 714.9,413.8 708.4,413.8 701.9,413.8 695.4,413.8 688.9,413.8 682.4,413.8 675.8,413.8 669.3,413.8 662.8,413.8 656.3,413.8 649.8,413.8 643.3,413.8 636.8,413.8 630.3,413.8 623.8,413.8 617.3,413.8 610.8,413.8 604.2,413.8 597.7,413.8 591.2,413.8 584.7,413.8 578.2,413.8 571.7,413.8 565.2,413.8 558.7,413.8 552.2,413.8 545.7,413.8 539.2,413.8 532.6,413.8 526.1,413.8 519.6,413.8 513.1,413.8 506.6,413.8 500.1,413.8 493.6,413.8 487.1,413.8 480.6,413.8 474.1,413.8 467.5,413.8 461.0,413.8 454.5,413.9 448.0,413.9 441.5,413.9 435.0,413.9 428.5,413.9 422.0,413.9 415.5,413.9 409.0,413.9 402.5,413.9 395.9,413.9 389.4,413.9 382.9,413.9 376.4,413.9 369.9,413.9 363.4,413.9 356.9,413.9 350.4,413.9 343.9,413.9 337.4,414.2 330.8,414.2 324.3,414.2 317.8,414.2 311.3,414.2 304.8,416.2 298.3,416.2 291.8,416.2 285.3,416.2 278.8,416.2 272.3,416.2 265.8,416.3 259.2,416.3 252.7,416.3 246.2,416.3 239.7,416.3 233.2,416.8 226.7,416.8 220.2,415.2 213.7,415.2 207.2,415.2 200.7,415.2 194.2,415.2 187.6,415.3 181.1,415.3 174.6,417.2 168.1,417.3 161.6,417.3 155.1,418.5 148.6,418.6 142.1,418.7 135.6,650.0 129.1,650.0 122.5,650.0 116.0,650.0 109.5,650.0 103.0,650.0 96.5,650.0 90.0,650.0" fill="#b07219" opacity="0.6" class="anim" style="animation-delay:1200ms;"/>
<line x1="767.0" y1="100" x2="767.0" y2="650" stroke="#c9d1d9" stroke-width="1" stroke-dasharray="4,3" opacity="0.35"/>
<text x="773.5" y="112" text-anchor="middle" class="axis-label" opacity="0.6">Aug 08, 2026</text>
<text x="90.0" y="668" text-anchor="middle" class="axis-label" transform="rotate(-35 90.0 668)">2026-02</text>
<text x="304.8" y="668" text-anchor="middle" class="axis-label" transform="rotate(-35 304.8 668)">2026-03</text>
<text x="448.0" y="668" text-anchor="middle" class="axis-label" transform="rotate(-35 448.0 668)">2026-04</text>
<text x="519.6" y="668" text-anchor="middle" class="axis-label" transform="rotate(-35 519.6 668)">2026-06</text>
<text x="662.8" y="668" text-anchor="middle" class="axis-label" transform="rotate(-35 662.8 668)">2026-07</text>
<text x="773.5" y="668" text-anchor="middle" class="axis-label" transform="rotate(-35 773.5 668)">Aug 08, 2026</text>
<line x1="796" y1="110" x2="824" y2="110" stroke="#3fb950" stroke-width="2"/>
<text x="832" y="116" class="legend-text">Lines Added</text>
<line x1="796" y1="140" x2="824" y2="140" stroke="#f85149" stroke-width="1.5"/>
<text x="832" y="146" class="legend-text">Lines Deleted</text>
<line x1="796" y1="170" x2="824" y2="170" stroke="#e3b341" stroke-width="1.5" stroke-dasharray="4,3"/>
<text x="832" y="176" class="legend-text">&#x2605; Stars</text>
<text x="796" y="200" class="subtitle">Languages</text>
<rect x="796" y="212" width="12" height="12" rx="2" fill="#e34c26" opacity="0.8" class="anim" style="animation-delay:800ms;"/>
<text x="814" y="223" class="legend-text">HTML (58%→56%)</text>
<rect x="796" y="234" width="12" height="12" rx="2" fill="#f1e05a" opacity="0.8" class="anim" style="animation-delay:880ms;"/>
<text x="814" y="245" class="legend-text">JavaScript (22%→25%)</text>
<rect x="796" y="256" width="12" height="12" rx="2" fill="#3572A5" opacity="0.8" class="anim" style="animation-delay:960ms;"/>
<text x="814" y="267" class="legend-text">Python (7%→6%)</text>
<rect x="796" y="278" width="12" height="12" rx="2" fill="#663399" opacity="0.8" class="anim" style="animation-delay:1040ms;"/>
<text x="814" y="289" class="legend-text">CSS (6%→6%)</text>
<rect x="796" y="300" width="12" height="12" rx="2" fill="#083fa1" opacity="0.8" class="anim" style="animation-delay:1120ms;"/>
<text x="814" y="311" class="legend-text">Markdown (2%→2%)</text>
<rect x="796" y="322" width="12" height="12" rx="2" fill="#F05138" opacity="0.8" class="anim" style="animation-delay:1200ms;"/>
<text x="814" y="333" class="legend-text">Swift (2%)</text>
<rect x="796" y="344" width="12" height="12" rx="2" fill="#6E4C13" opacity="0.8" class="anim" style="animation-delay:1280ms;"/>
<text x="814" y="355" class="legend-text">Assembly (2%→1%)</text>
<rect x="796" y="366" width="12" height="12" rx="2" fill="#b07219" opacity="0.8" class="anim" style="animation-delay:1360ms;"/>
<text x="814" y="377" class="legend-text">Java (1%→1%)</text>
<text x="796" y="412" class="subtitle">Contributions</text>
<text x="796" y="432" class="axis-label">2023: 39</text>
<text x="796" y="452" class="axis-label">2024: 646</text>
<text x="796" y="472" class="axis-label">2025: 1,780</text>
<text x="796" y="492" class="axis-label">2026: 491</text>
<text x="796" y="522" class="subtitle">Statistics</text>
<text x="796" y="542" class="axis-label">Active weeks: 88</text>
<text x="796" y="562" class="axis-label">Add/Del ratio: 1.8x</text>
<text x="796" y="582" class="axis-label">Avg lines/wk: 18K</text>
<text x="796" y="602" class="axis-label">Peak: 2026-02-15</text>
<text x="796" y="622" class="axis-label">  (543K lines)</text>
<text x="90" y="742" class="axis-label">Total: +1,040,332 / -576,819 lines &#xb7; 2,956 contributions &#xb7; 80 repos &#xb7; &#x2605; 37</text>
</svg>