<svg xmlns="http://www.w3.org/2000/svg" width="1000" height="760" style="max-width: 100%;" viewBox="0 0 1000 760">

<defs>
  <linearGradient id="areaGrad" x1="0" y1="0" x2="0" y2="1">
    <stop offset="0%" stop-color="#58a6ff" stop-opacity="0.35"/>
    <stop offset="100%" stop-color="#58a6ff" stop-opacity="0.02"/>
  </linearGradient>
  <linearGradient id="addGrad" x1="0" y1="0" x2="0" y2="1">
    <stop offset="0%" stop-color="#3fb950" stop-opacity="0.35"/>
    <stop offset="100%" stop-color="#3fb950" stop-opacity="0.02"/>
  </linearGradient>
  <linearGradient id="delGrad" x1="0" y1="0" x2="0" y2="1">
    <stop offset="0%" stop-color="#f85149" stop-opacity="0.25"/>
    <stop offset="100%" stop-color="#f85149" stop-opacity="0.02"/>
  </linearGradient>
</defs>
<style>
  .title { font: bold 28px 'Segoe UI', Ubuntu, Sans-Serif; fill: #c9d1d9; }
  .subtitle { font: 600 20px 'Segoe UI', Ubuntu, Sans-Serif; fill: #c9d1d9; opacity: 0.8; }
  .axis-label { font: 18px 'Segoe UI', Ubuntu, Sans-Serif; fill: #c9d1d9; opacity: 0.7; }
  .legend-text { font: 14px 'Segoe UI', Ubuntu, Sans-Serif; fill: #c9d1d9; }
  .value-text { font: bold 18px 'Segoe UI', Ubuntu, Sans-Serif; fill: #c9d1d9; }
  .stat-value { font: bold 22px 'Segoe UI', Ubuntu, Sans-Serif; fill: #c9d1d9; }
  .stat-label { font: 18px 'Segoe UI', Ubuntu, Sans-Serif; fill: #c9d1d9; opacity: 0.7; }
  @keyframes fadeIn { from { opacity: 0; } to { opacity: 1; } }
  .anim { animation: fadeIn 0.6s ease-in-out forwards; opacity: 0; }
</style>

<rect x="0.5" y="0.5" rx="4.5" width="999" height="759" fill="#161b22" stroke="#21262d"/>
<text x="90" y="45" class="title">Activity History</text>
<text x="90" y="72" class="subtitle">Lines added vs deleted &amp; activity trends over time</text>
<line x1="90" y1="340.0" x2="780" y2="340.0" stroke="#21262d" stroke-width="1"/>
<text x="82" y="344.0" text-anchor="end" class="axis-label">0</text>
<line x1="90" y1="280.0" x2="780" y2="280.0" stroke="#21262d" stroke-width="1"/>
<text x="82" y="284.0" text-anchor="end" class="axis-label">519K</text>
<line x1="90" y1="220.0" x2="780" y2="220.0" stroke="#21262d" stroke-width="1"/>
<text x="82" y="224.0" text-anchor="end" class="axis-label">1.0M</text>
<line x1="90" y1="160.0" x2="780" y2="160.0" stroke="#21262d" stroke-width="1"/>
<text x="82" y="164.0" text-anchor="end" class="axis-label">1.6M</text>
<line x1="90" y1="100.0" x2="780" y2="100.0" stroke="#21262d" stroke-width="1"/>
<text x="82" y="104.0" text-anchor="end" class="axis-label">2.1M</text>
<polygon points="90.0,340.0 90.0,297.8 102.3,299.3 114.6,297.8 127.0,299.3 139.3,309.1 151.6,289.7 163.9,289.7 176.2,282.4 188.6,282.1 200.9,281.7 213.2,281.6 225.5,268.6 237.9,268.6 250.2,268.6 262.5,249.4 274.8,249.1 287.1,248.9 299.5,248.9 311.8,248.9 324.1,248.9 336.4,248.9 348.8,248.4 361.1,235.5 373.4,235.5 385.7,235.5 398.0,235.5 410.4,235.2 422.7,235.2 435.0,234.6 447.3,234.6 459.6,234.6 472.0,234.6 484.3,234.6 496.6,234.6 508.9,234.6 521.2,234.6 533.6,234.6 545.9,234.6 558.2,234.6 570.5,234.6 582.9,234.6 595.2,234.0 607.5,234.2 619.8,233.7 632.1,233.4 644.5,233.4 656.8,233.4 669.1,233.4 681.4,233.4 693.8,233.4 706.1,233.3 718.4,233.3 730.7,233.3 743.0,233.4 755.4,233.6 767.7,216.4 780.0,199.1 780.0,340.0" fill="url(#addGrad)" class="anim" style="animation-delay:200ms;"/>
<polyline points="90.0,297.8 102.3,299.3 114.6,297.8 127.0,299.3 139.3,309.1 151.6,289.7 163.9,289.7 176.2,282.4 188.6,282.1 200.9,281.7 213.2,281.6 225.5,268.6 237.9,268.6 250.2,268.6 262.5,249.4 274.8,249.1 287.1,248.9 299.5,248.9 311.8,248.9 324.1,248.9 336.4,248.9 348.8,248.4 361.1,235.5 373.4,235.5 385.7,235.5 398.0,235.5 410.4,235.2 422.7,235.2 435.0,234.6 447.3,234.6 459.6,234.6 472.0,234.6 484.3,234.6 496.6,234.6 508.9,234.6 521.2,234.6 533.6,234.6 545.9,234.6 558.2,234.6 570.5,234.6 582.9,234.6 595.2,234.0 607.5,234.2 619.8,233.7 632.1,233.4 644.5,233.4 656.8,233.4 669.1,233.4 681.4,233.4 693.8,233.4 706.1,233.3 718.4,233.3 730.7,233.3 743.0,233.4 755.4,233.6" fill="none" stroke="#3fb950" stroke-width="2" stroke-linejoin="round" class="anim" style="animation-delay:250ms;"/>
<polyline points="755.4,233.6 767.7,216.4 780.0,199.1" fill="none" stroke="#3fb950" stroke-width="1.5" stroke-dasharray="5,4" stroke-linejoin="round" opacity="0.6" class="anim" style="animation-delay:250ms;"/>
<polygon points="90.0,340.0 90.0,328.1 102.3,329.4 114.6,328.1 127.0,329.3 139.3,334.4 151.6,326.7 163.9,326.7 176.2,325.8 188.6,325.6 200.9,325.3 213.2,325.3 225.5,311.3 237.9,311.3 250.2,311.3 262.5,295.4 274.8,295.3 287.1,295.3 299.5,295.3 311.8,295.3 324.1,295.3 336.4,295.3 348.8,287.0 361.1,274.4 373.4,274.3 385.7,274.3 398.0,274.3 410.4,274.3 422.7,274.3 435.0,274.2 447.3,274.2 459.6,274.2 472.0,274.2 484.3,274.2 496.6,274.2 508.9,274.2 521.2,274.2 533.6,274.2 545.9,274.2 558.2,274.2 570.5,274.2 582.9,274.2 595.2,274.2 607.5,274.2 619.8,273.8 632.1,273.8 644.5,273.8 656.8,273.8 669.1,273.8 681.4,273.8 693.8,273.8 706.1,273.8 718.4,273.8 730.7,273.8 743.0,273.8 755.4,273.9 767.7,257.4 780.0,240.9 780.0,340.0" fill="url(#delGrad)" class="anim" style="animation-delay:300ms;"/>
<polyline points="90.0,328.1 102.3,329.4 114.6,328.1 127.0,329.3 139.3,334.4 151.6,326.7 163.9,326.7 176.2,325.8 188.6,325.6 200.9,325.3 213.2,325.3 225.5,311.3 237.9,311.3 250.2,311.3 262.5,295.4 274.8,295.3 287.1,295.3 299.5,295.3 311.8,295.3 324.1,295.3 336.4,295.3 348.8,287.0 361.1,274.4 373.4,274.3 385.7,274.3 398.0,274.3 410.4,274.3 422.7,274.3 435.0,274.2 447.3,274.2 459.6,274.2 472.0,274.2 484.3,274.2 496.6,274.2 508.9,274.2 521.2,274.2 533.6,274.2 545.9,274.2 558.2,274.2 570.5,274.2 582.9,274.2 595.2,274.2 607.5,274.2 619.8,273.8 632.1,273.8 644.5,273.8 656.8,273.8 669.1,273.8 681.4,273.8 693.8,273.8 706.1,273.8 718.4,273.8 730.7,273.8 743.0,273.8 755.4,273.9" fill="none" stroke="#f85149" stroke-width="1.5" stroke-linejoin="round" class="anim" style="animation-delay:350ms;"/>
<polyline points="755.4,273.9 767.7,257.4 780.0,240.9" fill="none" stroke="#f85149" stroke-width="1" stroke-dasharray="5,4" stroke-linejoin="round" opacity="0.6" class="anim" style="animation-delay:350ms;"/>
<polyline points="90.0,340.0 102.3,340.0 114.6,340.0 127.0,340.0 139.3,340.0 151.6,340.0 163.9,340.0 176.2,340.0 188.6,292.0 200.9,292.0 213.2,292.0 225.5,292.0 237.9,292.0 250.2,292.0 262.5,292.0 274.8,292.0 287.1,292.0 299.5,292.0 311.8,292.0 324.1,292.0 336.4,292.0 348.8,292.0 361.1,292.0 373.4,292.0 385.7,292.0 398.0,292.0 410.4,292.0 422.7,292.0 435.0,292.0 447.3,292.0 459.6,292.0 472.0,292.0 484.3,292.0 496.6,292.0 508.9,244.0 521.2,244.0 533.6,244.0 545.9,244.0 558.2,244.0 570.5,244.0 582.9,244.0 595.2,244.0 607.5,196.0 619.8,196.0 632.1,196.0 644.5,196.0 656.8,196.0 669.1,196.0 681.4,196.0 693.8,196.0 706.1,196.0 718.4,196.0 730.7,196.0 743.0,196.0 755.4,196.0" fill="none" stroke="#e3b341" stroke-width="1.5" stroke-dasharray="4,3" stroke-linejoin="round" class="anim" style="animation-delay:400ms;"/>
<polyline points="755.4,196.0 767.7,196.0 780.0,148.0" fill="none" stroke="#e3b341" stroke-width="1" stroke-dasharray="3,5" stroke-linejoin="round" opacity="0.5" class="anim" style="animation-delay:400ms;"/>
<text x="90" y="90" class="subtitle">Lines Added vs Deleted (per snapshot)</text>
<text x="90" y="400" class="subtitle">Programming Language Development (%)</text>
<line x1="90" y1="650.0" x2="780" y2="650.0" stroke="#21262d" stroke-width="1"/>
<text x="82" y="654.0" text-anchor="end" class="axis-label">0%</text>
<line x1="90" y1="590.0" x2="780" y2="590.0" stroke="#21262d" stroke-width="1"/>
<text x="82" y="594.0" text-anchor="end" class="axis-label">25%</text>
<line x1="90" y1="530.0" x2="780" y2="530.0" stroke="#21262d" stroke-width="1"/>
<text x="82" y="534.0" text-anchor="end" class="axis-label">50%</text>
<line x1="90" y1="470.0" x2="780" y2="470.0" stroke="#21262d" stroke-width="1"/>
<text x="82" y="474.0" text-anchor="end" class="axis-label">75%</text>
<line x1="90" y1="410.0" x2="780" y2="410.0" stroke="#21262d" stroke-width="1"/>
<text x="82" y="414.0" text-anchor="end" class="axis-label">100%</text>
<polygon points="90.0,650.0 102.3,650.0 114.6,650.0 127.0,650.0 139.3,650.0 151.6,650.0 163.9,650.0 176.2,650.0 188.6,528.2 200.9,528.5 213.2,529.7 225.5,499.3 237.9,499.3 250.2,502.9 262.5,485.0 274.8,485.1 287.1,485.4 299.5,485.4 311.8,485.4 324.1,485.4 336.4,485.4 348.8,496.4 361.1,496.7 373.4,491.0 385.7,491.0 398.0,491.0 410.4,491.7 422.7,491.8 435.0,494.0 447.3,494.0 459.6,494.4 472.0,494.4 484.3,494.4 496.6,494.4 508.9,507.6 521.2,507.6 533.6,507.9 545.9,507.9 558.2,507.9 570.5,506.3 582.9,506.4 595.2,506.8 607.5,506.9 619.8,506.8 632.1,507.5 644.5,507.5 656.8,507.5 669.1,507.5 681.4,507.5 693.8,507.5 706.1,507.5 718.4,507.5 730.7,507.5 743.0,507.5 755.4,507.5 767.7,510.9 780.0,514.3 780.0,650.0 767.7,650.0 755.4,650.0 743.0,650.0 730.7,650.0 718.4,650.0 706.1,650.0 693.8,650.0 681.4,650.0 669.1,650.0 656.8,650.0 644.5,650.0 632.1,650.0 619.8,650.0 607.5,650.0 595.2,650.0 582.9,650.0 570.5,650.0 558.2,650.0 545.9,650.0 533.6,650.0 521.2,650.0 508.9,650.0 496.6,650.0 484.3,650.0 472.0,650.0 459.6,650.0 447.3,650.0 435.0,650.0 422.7,650.0 410.4,650.0 398.0,650.0 385.7,650.0 373.4,650.0 361.1,650.0 348.8,650.0 336.4,650.0 324.1,650.0 311.8,650.0 299.5,650.0 287.1,650.0 274.8,650.0 262.5,650.0 250.2,650.0 237.9,650.0 225.5,650.0 213.2,650.0 200.9,650.0 188.6,650.0 176.2,650.0 163.9,650.0 151.6,650.0 139.3,650.0 127.0,650.0 114.6,650.0 102.3,650.0 90.0,650.0" fill="#e34c26" opacity="0.6" class="anim" style="animation-delay:500ms;"/>
<polygon points="90.0,650.0 102.3,650.0 114.6,650.0 127.0,650.0 139.3,650.0 151.6,650.0 163.9,650.0 176.2,650.0 188.6,488.4 200.9,488.0 213.2,489.0 225.5,476.0 237.9,476.0 250.2,477.2 262.5,460.1 274.8,460.2 287.1,460.6 299.5,460.6 311.8,460.6 324.1,460.6 336.4,460.6 348.8,473.0 361.1,473.5 373.4,469.5 385.7,469.5 398.0,469.5 410.4,469.7 422.7,469.7 435.0,469.7 447.3,469.7 459.6,469.7 472.0,469.7 484.3,469.7 496.6,469.7 508.9,455.6 521.2,455.6 533.6,455.4 545.9,455.4 558.2,455.4 570.5,454.3 582.9,454.3 595.2,455.0 607.5,455.1 619.8,454.9 632.1,455.9 644.5,455.9 656.8,455.9 669.1,455.9 681.4,455.9 693.8,455.9 706.1,455.9 718.4,455.9 730.7,455.9 743.0,455.9 755.4,455.9 767.7,448.9 780.0,442.0 780.0,514.3 767.7,510.9 755.4,507.5 743.0,507.5 730.7,507.5 718.4,507.5 706.1,507.5 693.8,507.5 681.4,507.5 669.1,507.5 656.8,507.5 644.5,507.5 632.1,507.5 619.8,506.8 607.5,506.9 595.2,506.8 582.9,506.4 570.5,506.3 558.2,507.9 545.9,507.9 533.6,507.9 521.2,507.6 508.9,507.6 496.6,494.4 484.3,494.4 472.0,494.4 459.6,494.4 447.3,494.0 435.0,494.0 422.7,491.8 410.4,491.7 398.0,491.0 385.7,491.0 373.4,491.0 361.1,496.7 348.8,496.4 336.4,485.4 324.1,485.4 311.8,485.4 299.5,485.4 287.1,485.4 274.8,485.1 262.5,485.0 250.2,502.9 237.9,499.3 225.5,499.3 213.2,529.7 200.9,528.5 188.6,528.2 176.2,650.0 163.9,650.0 151.6,650.0 139.3,650.0 127.0,650.0 114.6,650.0 102.3,650.0 90.0,650.0" fill="#f1e05a" opacity="0.6" class="anim" style="animation-delay:600ms;"/>
<polygon points="90.0,650.0 102.3,650.0 114.6,650.0 127.0,650.0 139.3,650.0 151.6,650.0 163.9,650.0 176.2,650.0 188.6,455.5 200.9,455.4 213.2,455.1 225.5,447.0 237.9,447.0 250.2,448.2 262.5,438.9 274.8,439.0 287.1,439.6 299.5,439.6 311.8,439.6 324.1,439.6 336.4,439.6 348.8,445.6 361.1,445.6 373.4,443.3 385.7,443.3 398.0,443.3 410.4,443.6 422.7,443.6 435.0,444.1 447.3,444.1 459.6,444.1 472.0,444.1 484.3,444.1 496.6,444.1 508.9,437.5 521.2,437.5 533.6,437.5 545.9,437.5 558.2,437.5 570.5,437.5 582.9,437.5 595.2,438.4 607.5,438.5 619.8,438.3 632.1,439.3 644.5,439.3 656.8,439.3 669.1,439.3 681.4,439.3 693.8,439.3 706.1,439.3 718.4,439.3 730.7,439.3 743.0,439.3 755.4,439.3 767.7,436.8 780.0,434.4 780.0,442.0 767.7,448.9 755.4,455.9 743.0,455.9 730.7,455.9 718.4,455.9 706.1,455.9 693.8,455.9 681.4,455.9 669.1,455.9 656.8,455.9 644.5,455.9 632.1,455.9 619.8,454.9 607.5,455.1 595.2,455.0 582.9,454.3 570.5,454.3 558.2,455.4 545.9,455.4 533.6,455.4 521.2,455.6 508.9,455.6 496.6,469.7 484.3,469.7 472.0,469.7 459.6,469.7 447.3,469.7 435.0,469.7 422.7,469.7 410.4,469.7 398.0,469.5 385.7,469.5 373.4,469.5 361.1,473.5 348.8,473.0 336.4,460.6 324.1,460.6 311.8,460.6 299.5,460.6 287.1,460.6 274.8,460.2 262.5,460.1 250.2,477.2 237.9,476.0 225.5,476.0 213.2,489.0 200.9,488.0 188.6,488.4 176.2,650.0 163.9,650.0 151.6,650.0 139.3,650.0 127.0,650.0 114.6,650.0 102.3,650.0 90.0,650.0" fill="#3572A5" opacity="0.6" class="anim" style="animation-delay:700ms;"/>
<polygon points="90.0,650.0 102.3,650.0 114.6,650.0 127.0,650.0 139.3,650.0 151.6,650.0 163.9,650.0 176.2,650.0 188.6,442.3 200.9,442.0 213.2,441.6 225.5,439.5 237.9,439.5 250.2,439.4 262.5,432.3 274.8,432.2 287.1,432.6 299.5,432.6 311.8,432.6 324.1,432.6 336.4,432.6 348.8,439.3 361.1,439.3 373.4,437.4 385.7,437.4 398.0,437.4 410.4,437.3 422.7,437.3 435.0,437.1 447.3,437.1 459.6,437.1 472.0,437.1 484.3,437.1 496.6,437.1 508.9,428.7 521.2,428.6 533.6,428.5 545.9,428.5 558.2,428.5 570.5,427.3 582.9,427.3 595.2,427.1 607.5,427.1 619.8,427.1 632.1,427.0 644.5,427.0 656.8,427.0 669.1,427.0 681.4,427.0 693.8,427.0 706.1,427.0 718.4,427.0 730.7,427.0 743.0,427.0 755.4,427.0 767.7,423.2 780.0,419.3 780.0,434.4 767.7,436.8 755.4,439.3 743.0,439.3 730.7,439.3 718.4,439.3 706.1,439.3 693.8,439.3 681.4,439.3 669.1,439.3 656.8,439.3 644.5,439.3 632.1,439.3 619.8,438.3 607.5,438.5 595.2,438.4 582.9,437.5 570.5,437.5 558.2,437.5 545.9,437.5 533.6,437.5 521.2,437.5 508.9,437.5 496.6,444.1 484.3,444.1 472.0,444.1 459.6,444.1 447.3,444.1 435.0,444.1 422.7,443.6 410.4,443.6 398.0,443.3 385.7,443.3 373.4,443.3 361.1,445.6 348.8,445.6 336.4,439.6 324.1,439.6 311.8,439.6 299.5,439.6 287.1,439.6 274.8,439.0 262.5,438.9 250.2,448.2 237.9,447.0 225.5,447.0 213.2,455.1 200.9,455.4 188.6,455.5 176.2,650.0 163.9,650.0 151.6,650.0 139.3,650.0 127.0,650.0 114.6,650.0 102.3,650.0 90.0,650.0" fill="#663399" opacity="0.6" class="anim" style="animation-delay:800ms;"/>
<polygon points="90.0,650.0 102.3,650.0 114.6,650.0 127.0,650.0 139.3,650.0 151.6,650.0 163.9,650.0 176.2,650.0 188.6,436.6 200.9,436.3 213.2,435.9 225.5,432.2 237.9,432.2 250.2,432.2 262.5,426.2 274.8,426.1 287.1,426.0 299.5,426.0 311.8,426.0 324.1,426.0 336.4,426.0 348.8,430.8 361.1,430.7 373.4,429.3 385.7,429.3 398.0,429.3 410.4,429.2 422.7,429.2 435.0,428.9 447.3,428.9 459.6,428.8 472.0,428.8 484.3,428.8 496.6,428.8 508.9,423.0 521.2,422.9 533.6,422.9 545.9,422.9 558.2,422.9 570.5,422.0 582.9,422.0 595.2,421.9 607.5,421.9 619.8,421.9 632.1,421.8 644.5,421.8 656.8,421.8 669.1,421.8 681.4,421.8 693.8,421.8 706.1,421.8 718.4,421.8 730.7,421.8 743.0,421.8 755.4,421.8 767.7,418.7 780.0,415.5 780.0,419.3 767.7,423.2 755.4,427.0 743.0,427.0 730.7,427.0 718.4,427.0 706.1,427.0 693.8,427.0 681.4,427.0 669.1,427.0 656.8,427.0 644.5,427.0 632.1,427.0 619.8,427.1 607.5,427.1 595.2,427.1 582.9,427.3 570.5,427.3 558.2,428.5 545.9,428.5 533.6,428.5 521.2,428.6 508.9,428.7 496.6,437.1 484.3,437.1 472.0,437.1 459.6,437.1 447.3,437.1 435.0,437.1 422.7,437.3 410.4,437.3 398.0,437.4 385.7,437.4 373.4,437.4 361.1,439.3 348.8,439.3 336.4,432.6 324.1,432.6 311.8,432.6 299.5,432.6 287.1,432.6 274.8,432.2 262.5,432.3 250.2,439.4 237.9,439.5 225.5,439.5 213.2,441.6 200.9,442.0 188.6,442.3 176.2,650.0 163.9,650.0 151.6,650.0 139.3,650.0 127.0,650.0 114.6,650.0 102.3,650.0 90.0,650.0" fill="#083fa1" opacity="0.6" class="anim" style="animation-delay:900ms;"/>
<polygon points="90.0,650.0 102.3,650.0 114.6,650.0 127.0,650.0 139.3,650.0 151.6,650.0 163.9,650.0 176.2,650.0 188.6,427.0 200.9,426.8 213.2,426.6 225.5,424.2 237.9,424.2 250.2,424.2 262.5,420.4 274.8,420.3 287.1,420.3 299.5,420.3 311.8,420.3 324.1,420.3 336.4,420.3 348.8,423.3 361.1,423.2 373.4,422.4 385.7,422.4 398.0,422.4 410.4,422.3 422.7,422.3 435.0,422.1 447.3,422.1 459.6,422.1 472.0,422.1 484.3,422.1 496.6,422.1 508.9,418.3 521.2,418.3 533.6,418.2 545.9,418.2 558.2,418.2 570.5,417.7 582.9,417.7 595.2,417.6 607.5,417.6 619.8,417.6 632.1,417.6 644.5,417.6 656.8,417.6 669.1,417.6 681.4,417.6 693.8,417.6 706.1,417.6 718.4,417.6 730.7,417.6 743.0,417.6 755.4,417.6 767.7,415.8 780.0,414.0 780.0,415.5 767.7,418.7 755.4,421.8 743.0,421.8 730.7,421.8 718.4,421.8 706.1,421.8 693.8,421.8 681.4,421.8 669.1,421.8 656.8,421.8 644.5,421.8 632.1,421.8 619.8,421.9 607.5,421.9 595.2,421.9 582.9,422.0 570.5,422.0 558.2,422.9 545.9,422.9 533.6,422.9 521.2,422.9 508.9,423.0 496.6,428.8 484.3,428.8 472.0,428.8 459.6,428.8 447.3,428.9 435.0,428.9 422.7,429.2 410.4,429.2 398.0,429.3 385.7,429.3 373.4,429.3 361.1,430.7 348.8,430.8 336.4,426.0 324.1,426.0 311.8,426.0 299.5,426.0 287.1,426.0 274.8,426.1 262.5,426.2 250.2,432.2 237.9,432.2 225.5,432.2 213.2,435.9 200.9,436.3 188.6,436.6 176.2,650.0 163.9,650.0 151.6,650.0 139.3,650.0 127.0,650.0 114.6,650.0 102.3,650.0 90.0,650.0" fill="#6E4C13" opacity="0.6" class="anim" style="animation-delay:1000ms;"/>
<polygon points="90.0,650.0 102.3,650.0 114.6,650.0 127.0,650.0 139.3,650.0 151.6,650.0 163.9,650.0 176.2,650.0 188.6,418.7 200.9,418.6 213.2,418.5 225.5,417.3 237.9,417.3 250.2,417.2 262.5,415.3 274.8,415.3 287.1,415.2 299.5,415.2 311.8,415.2 324.1,415.2 336.4,415.2 348.8,416.8 361.1,416.8 373.4,416.3 385.7,416.3 398.0,416.3 410.4,416.3 422.7,416.3 435.0,416.2 447.3,416.2 459.6,416.2 472.0,416.2 484.3,416.2 496.6,416.2 508.9,414.2 521.2,414.2 533.6,414.2 545.9,414.2 558.2,414.2 570.5,413.9 582.9,413.9 595.2,413.9 607.5,413.9 619.8,413.9 632.1,413.9 644.5,413.9 656.8,413.9 669.1,413.9 681.4,413.9 693.8,413.9 706.1,413.9 718.4,413.9 730.7,413.9 743.0,413.9 755.4,413.9 767.7,413.3 780.0,412.7 780.0,414.0 767.7,415.8 755.4,417.6 743.0,417.6 730.7,417.6 718.4,417.6 706.1,417.6 693.8,417.6 681.4,417.6 669.1,417.6 656.8,417.6 644.5,417.6 632.1,417.6 619.8,417.6 607.5,417.6 595.2,417.6 582.9,417.7 570.5,417.7 558.2,418.2 545.9,418.2 533.6,418.2 521.2,418.3 508.9,418.3 496.6,422.1 484.3,422.1 472.0,422.1 459.6,422.1 447.3,422.1 435.0,422.1 422.7,422.3 410.4,422.3 398.0,422.4 385.7,422.4 373.4,422.4 361.1,423.2 348.8,423.3 336.4,420.3 324.1,420.3 311.8,420.3 299.5,420.3 287.1,420.3 274.8,420.3 262.5,420.4 250.2,424.2 237.9,424.2 225.5,424.2 213.2,426.6 200.9,426.8 188.6,427.0 176.2,650.0 163.9,650.0 151.6,650.0 139.3,650.0 127.0,650.0 114.6,650.0 102.3,650.0 90.0,650.0" fill="#F05138" opacity="0.6" class="anim" style="animation-delay:1100ms;"/>
<polygon points="90.0,650.0 102.3,650.0 114.6,650.0 127.0,650.0 139.3,650.0 151.6,650.0 163.9,650.0 176.2,650.0 188.6,414.4 200.9,414.4 213.2,414.3 225.5,413.7 237.9,413.7 250.2,413.7 262.5,412.7 274.8,412.7 287.1,412.7 299.5,412.7 311.8,412.7 324.1,412.7 336.4,412.7 348.8,413.5 361.1,413.4 373.4,413.2 385.7,413.2 398.0,413.2 410.4,413.2 422.7,413.2 435.0,413.1 447.3,413.1 459.6,413.1 472.0,413.1 484.3,413.1 496.6,413.1 508.9,412.2 521.2,412.1 533.6,412.1 545.9,412.1 558.2,412.1 570.5,412.0 582.9,412.0 595.2,412.0 607.5,412.0 619.8,412.0 632.1,412.0 644.5,412.0 656.8,412.0 669.1,412.0 681.4,412.0 693.8,412.0 706.1,412.0 718.4,412.0 730.7,412.0 743.0,412.0 755.4,412.0 767.7,412.0 780.0,412.0 780.0,412.7 767.7,413.3 755.4,413.9 743.0,413.9 730.7,413.9 718.4,413.9 706.1,413.9 693.8,413.9 681.4,413.9 669.1,413.9 656.8,413.9 644.5,413.9 632.1,413.9 619.8,413.9 607.5,413.9 595.2,413.9 582.9,413.9 570.5,413.9 558.2,414.2 545.9,414.2 533.6,414.2 521.2,414.2 508.9,414.2 496.6,416.2 484.3,416.2 472.0,416.2 459.6,416.2 447.3,416.2 435.0,416.2 422.7,416.3 410.4,416.3 398.0,416.3 385.7,416.3 373.4,416.3 361.1,416.8 348.8,416.8 336.4,415.2 324.1,415.2 311.8,415.2 299.5,415.2 287.1,415.2 274.8,415.3 262.5,415.3 250.2,417.2 237.9,417.3 225.5,417.3 213.2,418.5 200.9,418.6 188.6,418.7 176.2,650.0 163.9,650.0 151.6,650.0 139.3,650.0 127.0,650.0 114.6,650.0 102.3,650.0 90.0,650.0" fill="#b07219" opacity="0.6" class="anim" style="animation-delay:1200ms;"/>
<line x1="755.4" y1="100" x2="755.4" y2="650" stroke="#c9d1d9" stroke-width="1" stroke-dasharray="4,3" opacity="0.35"/>
<text x="767.7" y="112" text-anchor="middle" class="axis-label" opacity="0.6">Apr 15, 2026</text>
<text x="90.0" y="668" text-anchor="middle" class="axis-label" transform="rotate(-35 90.0 668)">2026-02</text>
<text x="385.7" y="668" text-anchor="middle" class="axis-label" transform="rotate(-35 385.7 668)">2026-03</text>
<text x="755.4" y="668" text-anchor="middle" class="axis-label" transform="rotate(-35 755.4 668)">2026-04</text>
<line x1="796" y1="110" x2="824" y2="110" stroke="#3fb950" stroke-width="2"/>
<text x="832" y="116" class="legend-text">Lines Added</text>
<line x1="796" y1="140" x2="824" y2="140" stroke="#f85149" stroke-width="1.5"/>
<text x="832" y="146" class="legend-text">Lines Deleted</text>
<line x1="796" y1="170" x2="824" y2="170" stroke="#e3b341" stroke-width="1.5" stroke-dasharray="4,3"/>
<text x="832" y="176" class="legend-text">&#x2605; Stars</text>
<text x="796" y="200" class="subtitle">Languages</text>
<rect x="796" y="212" width="12" height="12" rx="2" fill="#e34c26" opacity="0.8" class="anim" style="animation-delay:800ms;"/>
<text x="814" y="223" class="legend-text">HTML (59%→57%)</text>
<rect x="796" y="234" width="12" height="12" rx="2" fill="#f1e05a" opacity="0.8" class="anim" style="animation-delay:880ms;"/>
<text x="814" y="245" class="legend-text">JavaScript (22%→30%)</text>
<rect x="796" y="256" width="12" height="12" rx="2" fill="#3572A5" opacity="0.8" class="anim" style="animation-delay:960ms;"/>
<text x="814" y="267" class="legend-text">Python (7%→3%)</text>
<rect x="796" y="278" width="12" height="12" rx="2" fill="#663399" opacity="0.8" class="anim" style="animation-delay:1040ms;"/>
<text x="814" y="289" class="legend-text">CSS (5%→6%)</text>
<rect x="796" y="300" width="12" height="12" rx="2" fill="#083fa1" opacity="0.8" class="anim" style="animation-delay:1120ms;"/>
<text x="814" y="311" class="legend-text">Markdown (2%→2%)</text>
<rect x="796" y="322" width="12" height="12" rx="2" fill="#6E4C13" opacity="0.8" class="anim" style="animation-delay:1200ms;"/>
<text x="814" y="333" class="legend-text">Assembly (2%→1%)</text>
<rect x="796" y="344" width="12" height="12" rx="2" fill="#F05138" opacity="0.8" class="anim" style="animation-delay:1280ms;"/>
<text x="814" y="355" class="legend-text">Swift (2%→1%)</text>
<rect x="796" y="366" width="12" height="12" rx="2" fill="#b07219" opacity="0.8" class="anim" style="animation-delay:1360ms;"/>
<text x="814" y="377" class="legend-text">Java (1%→0%)</text>
<text x="796" y="412" class="subtitle">Contributions</text>
<text x="796" y="432" class="axis-label">2023: 39</text>
<text x="796" y="452" class="axis-label">2024: 646</text>
<text x="796" y="472" class="axis-label">2025: 1,780</text>
<text x="796" y="492" class="axis-label">2026: 400</text>
<text x="796" y="522" class="subtitle">Statistics</text>
<text x="796" y="542" class="axis-label">Active weeks: 80</text>
<text x="796" y="562" class="axis-label">Add/Del ratio: 1.6x</text>
<text x="796" y="582" class="axis-label">Avg lines/wk: 19K</text>
<text x="796" y="602" class="axis-label">Peak: 2026-02-15</text>
<text x="796" y="622" class="axis-label">  (542K lines)</text>
<text x="90" y="742" class="axis-label">Total: +920,149 / -572,023 lines &#xb7; 2,865 contributions &#xb7; 77 repos &#xb7; &#x2605; 35</text>
</svg>