<svg xmlns="http://www.w3.org/2000/svg" width="1000" height="760" style="max-width: 100%;" viewBox="0 0 1000 760">

<defs>
  <linearGradient id="areaGrad" x1="0" y1="0" x2="0" y2="1">
    <stop offset="0%" stop-color="#58a6ff" stop-opacity="0.35"/>
    <stop offset="100%" stop-color="#58a6ff" stop-opacity="0.02"/>
  </linearGradient>
  <linearGradient id="addGrad" x1="0" y1="0" x2="0" y2="1">
    <stop offset="0%" stop-color="#3fb950" stop-opacity="0.35"/>
    <stop offset="100%" stop-color="#3fb950" stop-opacity="0.02"/>
  </linearGradient>
  <linearGradient id="delGrad" x1="0" y1="0" x2="0" y2="1">
    <stop offset="0%" stop-color="#f85149" stop-opacity="0.25"/>
    <stop offset="100%" stop-color="#f85149" stop-opacity="0.02"/>
  </linearGradient>
</defs>
<style>
  .title { font: bold 28px 'Segoe UI', Ubuntu, Sans-Serif; fill: #c9d1d9; }
  .subtitle { font: 600 20px 'Segoe UI', Ubuntu, Sans-Serif; fill: #c9d1d9; opacity: 0.8; }
  .axis-label { font: 18px 'Segoe UI', Ubuntu, Sans-Serif; fill: #c9d1d9; opacity: 0.7; }
  .legend-text { font: 14px 'Segoe UI', Ubuntu, Sans-Serif; fill: #c9d1d9; }
  .value-text { font: bold 18px 'Segoe UI', Ubuntu, Sans-Serif; fill: #c9d1d9; }
  .stat-value { font: bold 22px 'Segoe UI', Ubuntu, Sans-Serif; fill: #c9d1d9; }
  .stat-label { font: 18px 'Segoe UI', Ubuntu, Sans-Serif; fill: #c9d1d9; opacity: 0.7; }
  @keyframes fadeIn { from { opacity: 0; } to { opacity: 1; } }
  .anim { animation: fadeIn 0.6s ease-in-out forwards; opacity: 0; }
</style>

<rect x="0.5" y="0.5" rx="4.5" width="999" height="759" fill="#161b22" stroke="#21262d"/>
<text x="90" y="45" class="title">Activity History</text>
<text x="90" y="72" class="subtitle">Lines added vs deleted &amp; activity trends over time</text>
<line x1="90" y1="340.0" x2="780" y2="340.0" stroke="#21262d" stroke-width="1"/>
<text x="82" y="344.0" text-anchor="end" class="axis-label">0</text>
<line x1="90" y1="280.0" x2="780" y2="280.0" stroke="#21262d" stroke-width="1"/>
<text x="82" y="284.0" text-anchor="end" class="axis-label">533K</text>
<line x1="90" y1="220.0" x2="780" y2="220.0" stroke="#21262d" stroke-width="1"/>
<text x="82" y="224.0" text-anchor="end" class="axis-label">1.1M</text>
<line x1="90" y1="160.0" x2="780" y2="160.0" stroke="#21262d" stroke-width="1"/>
<text x="82" y="164.0" text-anchor="end" class="axis-label">1.6M</text>
<line x1="90" y1="100.0" x2="780" y2="100.0" stroke="#21262d" stroke-width="1"/>
<text x="82" y="104.0" text-anchor="end" class="axis-label">2.1M</text>
<polygon points="90.0,340.0 90.0,298.9 103.0,300.4 116.0,298.9 129.1,300.4 142.1,309.9 155.1,291.0 168.1,291.0 181.1,283.9 194.2,283.6 207.2,283.2 220.2,283.2 233.2,270.5 246.2,270.5 259.2,270.5 272.3,251.7 285.3,251.5 298.3,251.2 311.3,251.2 324.3,251.2 337.4,251.2 350.4,251.2 363.4,250.8 376.4,238.2 389.4,238.2 402.5,238.2 415.5,238.2 428.5,237.9 441.5,237.9 454.5,237.4 467.5,237.4 480.6,237.3 493.6,237.3 506.6,237.3 519.6,237.3 532.6,237.4 545.7,237.3 558.7,237.3 571.7,237.3 584.7,237.3 597.7,237.3 610.8,237.3 623.8,236.8 636.8,237.0 649.8,236.4 662.8,236.1 675.8,236.1 688.9,236.1 701.9,236.1 714.9,236.1 727.9,236.1 740.9,236.1 754.0,236.1 767.0,217.8 780.0,199.5 780.0,340.0" fill="url(#addGrad)" class="anim" style="animation-delay:200ms;"/>
<polyline points="90.0,298.9 103.0,300.4 116.0,298.9 129.1,300.4 142.1,309.9 155.1,291.0 168.1,291.0 181.1,283.9 194.2,283.6 207.2,283.2 220.2,283.2 233.2,270.5 246.2,270.5 259.2,270.5 272.3,251.7 285.3,251.5 298.3,251.2 311.3,251.2 324.3,251.2 337.4,251.2 350.4,251.2 363.4,250.8 376.4,238.2 389.4,238.2 402.5,238.2 415.5,238.2 428.5,237.9 441.5,237.9 454.5,237.4 467.5,237.4 480.6,237.3 493.6,237.3 506.6,237.3 519.6,237.3 532.6,237.4 545.7,237.3 558.7,237.3 571.7,237.3 584.7,237.3 597.7,237.3 610.8,237.3 623.8,236.8 636.8,237.0 649.8,236.4 662.8,236.1 675.8,236.1 688.9,236.1 701.9,236.1 714.9,236.1 727.9,236.1 740.9,236.1 754.0,236.1" fill="none" stroke="#3fb950" stroke-width="2" stroke-linejoin="round" class="anim" style="animation-delay:250ms;"/>
<polyline points="754.0,236.1 767.0,217.8 780.0,199.5" fill="none" stroke="#3fb950" stroke-width="1.5" stroke-dasharray="5,4" stroke-linejoin="round" opacity="0.6" class="anim" style="animation-delay:250ms;"/>
<polygon points="90.0,340.0 90.0,328.4 103.0,329.6 116.0,328.5 129.1,329.6 142.1,334.6 155.1,327.0 168.1,327.0 181.1,326.2 194.2,325.9 207.2,325.7 220.2,325.7 233.2,312.0 246.2,312.0 259.2,312.0 272.3,296.6 285.3,296.5 298.3,296.4 311.3,296.4 324.3,296.4 337.4,296.4 350.4,296.4 363.4,288.4 376.4,276.1 389.4,276.0 402.5,276.0 415.5,276.0 428.5,276.0 441.5,276.0 454.5,275.9 467.5,275.9 480.6,275.9 493.6,275.9 506.6,275.9 519.6,275.9 532.6,275.9 545.7,275.9 558.7,275.9 571.7,275.9 584.7,275.9 597.7,275.9 610.8,275.9 623.8,275.9 636.8,275.9 649.8,275.5 662.8,275.5 675.8,275.5 688.9,275.5 701.9,275.5 714.9,275.5 727.9,275.5 740.9,275.5 754.0,275.5 767.0,258.0 780.0,240.5 780.0,340.0" fill="url(#delGrad)" class="anim" style="animation-delay:300ms;"/>
<polyline points="90.0,328.4 103.0,329.6 116.0,328.5 129.1,329.6 142.1,334.6 155.1,327.0 168.1,327.0 181.1,326.2 194.2,325.9 207.2,325.7 220.2,325.7 233.2,312.0 246.2,312.0 259.2,312.0 272.3,296.6 285.3,296.5 298.3,296.4 311.3,296.4 324.3,296.4 337.4,296.4 350.4,296.4 363.4,288.4 376.4,276.1 389.4,276.0 402.5,276.0 415.5,276.0 428.5,276.0 441.5,276.0 454.5,275.9 467.5,275.9 480.6,275.9 493.6,275.9 506.6,275.9 519.6,275.9 532.6,275.9 545.7,275.9 558.7,275.9 571.7,275.9 584.7,275.9 597.7,275.9 610.8,275.9 623.8,275.9 636.8,275.9 649.8,275.5 662.8,275.5 675.8,275.5 688.9,275.5 701.9,275.5 714.9,275.5 727.9,275.5 740.9,275.5 754.0,275.5" fill="none" stroke="#f85149" stroke-width="1.5" stroke-linejoin="round" class="anim" style="animation-delay:350ms;"/>
<polyline points="754.0,275.5 767.0,258.0 780.0,240.5" fill="none" stroke="#f85149" stroke-width="1" stroke-dasharray="5,4" stroke-linejoin="round" opacity="0.6" class="anim" style="animation-delay:350ms;"/>
<polyline points="90.0,340.0 103.0,340.0 116.0,340.0 129.1,340.0 142.1,340.0 155.1,340.0 168.1,340.0 181.1,340.0 194.2,292.0 207.2,292.0 220.2,292.0 233.2,292.0 246.2,292.0 259.2,292.0 272.3,292.0 285.3,292.0 298.3,292.0 311.3,292.0 324.3,292.0 337.4,292.0 350.4,292.0 363.4,292.0 376.4,292.0 389.4,292.0 402.5,292.0 415.5,292.0 428.5,292.0 441.5,292.0 454.5,292.0 467.5,292.0 480.6,292.0 493.6,292.0 506.6,292.0 519.6,292.0 532.6,244.0 545.7,244.0 558.7,244.0 571.7,244.0 584.7,244.0 597.7,244.0 610.8,244.0 623.8,244.0 636.8,196.0 649.8,196.0 662.8,196.0 675.8,196.0 688.9,196.0 701.9,196.0 714.9,196.0 727.9,196.0 740.9,196.0 754.0,196.0" fill="none" stroke="#e3b341" stroke-width="1.5" stroke-dasharray="4,3" stroke-linejoin="round" class="anim" style="animation-delay:400ms;"/>
<polyline points="754.0,196.0 767.0,196.0 780.0,148.0" fill="none" stroke="#e3b341" stroke-width="1" stroke-dasharray="3,5" stroke-linejoin="round" opacity="0.5" class="anim" style="animation-delay:400ms;"/>
<text x="90" y="90" class="subtitle">Lines Added vs Deleted (per snapshot)</text>
<text x="90" y="400" class="subtitle">Programming Language Development (%)</text>
<line x1="90" y1="650.0" x2="780" y2="650.0" stroke="#21262d" stroke-width="1"/>
<text x="82" y="654.0" text-anchor="end" class="axis-label">0%</text>
<line x1="90" y1="590.0" x2="780" y2="590.0" stroke="#21262d" stroke-width="1"/>
<text x="82" y="594.0" text-anchor="end" class="axis-label">25%</text>
<line x1="90" y1="530.0" x2="780" y2="530.0" stroke="#21262d" stroke-width="1"/>
<text x="82" y="534.0" text-anchor="end" class="axis-label">50%</text>
<line x1="90" y1="470.0" x2="780" y2="470.0" stroke="#21262d" stroke-width="1"/>
<text x="82" y="474.0" text-anchor="end" class="axis-label">75%</text>
<line x1="90" y1="410.0" x2="780" y2="410.0" stroke="#21262d" stroke-width="1"/>
<text x="82" y="414.0" text-anchor="end" class="axis-label">100%</text>
<polygon points="90.0,650.0 103.0,650.0 116.0,650.0 129.1,650.0 142.1,650.0 155.1,650.0 168.1,650.0 181.1,650.0 194.2,528.2 207.2,528.5 220.2,529.7 233.2,499.3 246.2,499.3 259.2,502.9 272.3,485.0 285.3,485.1 298.3,485.4 311.3,485.4 324.3,485.4 337.4,485.4 350.4,485.4 363.4,496.4 376.4,496.7 389.4,491.0 402.5,491.0 415.5,491.0 428.5,491.7 441.5,491.8 454.5,494.0 467.5,494.0 480.6,494.4 493.6,494.4 506.6,494.4 519.6,494.4 532.6,507.6 545.7,507.6 558.7,507.9 571.7,507.9 584.7,507.9 597.7,506.3 610.8,506.4 623.8,506.8 636.8,506.9 649.8,506.8 662.8,507.5 675.8,507.5 688.9,507.5 701.9,507.5 714.9,507.5 727.9,507.5 740.9,507.5 754.0,507.5 767.0,510.7 780.0,513.9 780.0,650.0 767.0,650.0 754.0,650.0 740.9,650.0 727.9,650.0 714.9,650.0 701.9,650.0 688.9,650.0 675.8,650.0 662.8,650.0 649.8,650.0 636.8,650.0 623.8,650.0 610.8,650.0 597.7,650.0 584.7,650.0 571.7,650.0 558.7,650.0 545.7,650.0 532.6,650.0 519.6,650.0 506.6,650.0 493.6,650.0 480.6,650.0 467.5,650.0 454.5,650.0 441.5,650.0 428.5,650.0 415.5,650.0 402.5,650.0 389.4,650.0 376.4,650.0 363.4,650.0 350.4,650.0 337.4,650.0 324.3,650.0 311.3,650.0 298.3,650.0 285.3,650.0 272.3,650.0 259.2,650.0 246.2,650.0 233.2,650.0 220.2,650.0 207.2,650.0 194.2,650.0 181.1,650.0 168.1,650.0 155.1,650.0 142.1,650.0 129.1,650.0 116.0,650.0 103.0,650.0 90.0,650.0" fill="#e34c26" opacity="0.6" class="anim" style="animation-delay:500ms;"/>
<polygon points="90.0,650.0 103.0,650.0 116.0,650.0 129.1,650.0 142.1,650.0 155.1,650.0 168.1,650.0 181.1,650.0 194.2,488.4 207.2,488.0 220.2,489.0 233.2,476.0 246.2,476.0 259.2,477.2 272.3,460.1 285.3,460.2 298.3,460.6 311.3,460.6 324.3,460.6 337.4,460.6 350.4,460.6 363.4,473.0 376.4,473.5 389.4,469.5 402.5,469.5 415.5,469.5 428.5,469.7 441.5,469.7 454.5,469.7 467.5,469.7 480.6,469.7 493.6,469.7 506.6,469.7 519.6,469.7 532.6,455.6 545.7,455.6 558.7,455.4 571.7,455.4 584.7,455.4 597.7,454.3 610.8,454.3 623.8,455.0 636.8,455.1 649.8,454.9 662.8,455.9 675.8,455.9 688.9,455.9 701.9,455.9 714.9,455.9 727.9,455.9 740.9,455.9 754.0,455.9 767.0,448.4 780.0,441.0 780.0,513.9 767.0,510.7 754.0,507.5 740.9,507.5 727.9,507.5 714.9,507.5 701.9,507.5 688.9,507.5 675.8,507.5 662.8,507.5 649.8,506.8 636.8,506.9 623.8,506.8 610.8,506.4 597.7,506.3 584.7,507.9 571.7,507.9 558.7,507.9 545.7,507.6 532.6,507.6 519.6,494.4 506.6,494.4 493.6,494.4 480.6,494.4 467.5,494.0 454.5,494.0 441.5,491.8 428.5,491.7 415.5,491.0 402.5,491.0 389.4,491.0 376.4,496.7 363.4,496.4 350.4,485.4 337.4,485.4 324.3,485.4 311.3,485.4 298.3,485.4 285.3,485.1 272.3,485.0 259.2,502.9 246.2,499.3 233.2,499.3 220.2,529.7 207.2,528.5 194.2,528.2 181.1,650.0 168.1,650.0 155.1,650.0 142.1,650.0 129.1,650.0 116.0,650.0 103.0,650.0 90.0,650.0" fill="#f1e05a" opacity="0.6" class="anim" style="animation-delay:600ms;"/>
<polygon points="90.0,650.0 103.0,650.0 116.0,650.0 129.1,650.0 142.1,650.0 155.1,650.0 168.1,650.0 181.1,650.0 194.2,455.5 207.2,455.4 220.2,455.1 233.2,447.0 246.2,447.0 259.2,448.2 272.3,438.9 285.3,439.0 298.3,439.6 311.3,439.6 324.3,439.6 337.4,439.6 350.4,439.6 363.4,445.6 376.4,445.6 389.4,443.3 402.5,443.3 415.5,443.3 428.5,443.6 441.5,443.6 454.5,444.1 467.5,444.1 480.6,444.1 493.6,444.1 506.6,444.1 519.6,444.1 532.6,437.5 545.7,437.5 558.7,437.5 571.7,437.5 584.7,437.5 597.7,437.5 610.8,437.5 623.8,438.4 636.8,438.5 649.8,438.3 662.8,439.3 675.8,439.3 688.9,439.3 701.9,439.3 714.9,439.3 727.9,439.3 740.9,439.3 754.0,439.3 767.0,436.6 780.0,433.8 780.0,441.0 767.0,448.4 754.0,455.9 740.9,455.9 727.9,455.9 714.9,455.9 701.9,455.9 688.9,455.9 675.8,455.9 662.8,455.9 649.8,454.9 636.8,455.1 623.8,455.0 610.8,454.3 597.7,454.3 584.7,455.4 571.7,455.4 558.7,455.4 545.7,455.6 532.6,455.6 519.6,469.7 506.6,469.7 493.6,469.7 480.6,469.7 467.5,469.7 454.5,469.7 441.5,469.7 428.5,469.7 415.5,469.5 402.5,469.5 389.4,469.5 376.4,473.5 363.4,473.0 350.4,460.6 337.4,460.6 324.3,460.6 311.3,460.6 298.3,460.6 285.3,460.2 272.3,460.1 259.2,477.2 246.2,476.0 233.2,476.0 220.2,489.0 207.2,488.0 194.2,488.4 181.1,650.0 168.1,650.0 155.1,650.0 142.1,650.0 129.1,650.0 116.0,650.0 103.0,650.0 90.0,650.0" fill="#3572A5" opacity="0.6" class="anim" style="animation-delay:700ms;"/>
<polygon points="90.0,650.0 103.0,650.0 116.0,650.0 129.1,650.0 142.1,650.0 155.1,650.0 168.1,650.0 181.1,650.0 194.2,442.3 207.2,442.0 220.2,441.6 233.2,439.5 246.2,439.5 259.2,439.4 272.3,432.3 285.3,432.2 298.3,432.6 311.3,432.6 324.3,432.6 337.4,432.6 350.4,432.6 363.4,439.3 376.4,439.3 389.4,437.4 402.5,437.4 415.5,437.4 428.5,437.3 441.5,437.3 454.5,437.1 467.5,437.1 480.6,437.1 493.6,437.1 506.6,437.1 519.6,437.1 532.6,428.7 545.7,428.6 558.7,428.5 571.7,428.5 584.7,428.5 597.7,427.3 610.8,427.3 623.8,427.1 636.8,427.1 649.8,427.1 662.8,427.0 675.8,427.0 688.9,427.0 701.9,427.0 714.9,427.0 727.9,427.0 740.9,427.0 754.0,427.0 767.0,423.0 780.0,419.0 780.0,433.8 767.0,436.6 754.0,439.3 740.9,439.3 727.9,439.3 714.9,439.3 701.9,439.3 688.9,439.3 675.8,439.3 662.8,439.3 649.8,438.3 636.8,438.5 623.8,438.4 610.8,437.5 597.7,437.5 584.7,437.5 571.7,437.5 558.7,437.5 545.7,437.5 532.6,437.5 519.6,444.1 506.6,444.1 493.6,444.1 480.6,444.1 467.5,444.1 454.5,444.1 441.5,443.6 428.5,443.6 415.5,443.3 402.5,443.3 389.4,443.3 376.4,445.6 363.4,445.6 350.4,439.6 337.4,439.6 324.3,439.6 311.3,439.6 298.3,439.6 285.3,439.0 272.3,438.9 259.2,448.2 246.2,447.0 233.2,447.0 220.2,455.1 207.2,455.4 194.2,455.5 181.1,650.0 168.1,650.0 155.1,650.0 142.1,650.0 129.1,650.0 116.0,650.0 103.0,650.0 90.0,650.0" fill="#663399" opacity="0.6" class="anim" style="animation-delay:800ms;"/>
<polygon points="90.0,650.0 103.0,650.0 116.0,650.0 129.1,650.0 142.1,650.0 155.1,650.0 168.1,650.0 181.1,650.0 194.2,436.6 207.2,436.3 220.2,435.9 233.2,432.2 246.2,432.2 259.2,432.2 272.3,426.2 285.3,426.1 298.3,426.0 311.3,426.0 324.3,426.0 337.4,426.0 350.4,426.0 363.4,430.8 376.4,430.7 389.4,429.3 402.5,429.3 415.5,429.3 428.5,429.2 441.5,429.2 454.5,428.9 467.5,428.9 480.6,428.8 493.6,428.8 506.6,428.8 519.6,428.8 532.6,423.0 545.7,422.9 558.7,422.9 571.7,422.9 584.7,422.9 597.7,422.0 610.8,422.0 623.8,421.9 636.8,421.9 649.8,421.9 662.8,421.8 675.8,421.8 688.9,421.8 701.9,421.8 714.9,421.8 727.9,421.8 740.9,421.8 754.0,421.8 767.0,418.5 780.0,415.2 780.0,419.0 767.0,423.0 754.0,427.0 740.9,427.0 727.9,427.0 714.9,427.0 701.9,427.0 688.9,427.0 675.8,427.0 662.8,427.0 649.8,427.1 636.8,427.1 623.8,427.1 610.8,427.3 597.7,427.3 584.7,428.5 571.7,428.5 558.7,428.5 545.7,428.6 532.6,428.7 519.6,437.1 506.6,437.1 493.6,437.1 480.6,437.1 467.5,437.1 454.5,437.1 441.5,437.3 428.5,437.3 415.5,437.4 402.5,437.4 389.4,437.4 376.4,439.3 363.4,439.3 350.4,432.6 337.4,432.6 324.3,432.6 311.3,432.6 298.3,432.6 285.3,432.2 272.3,432.3 259.2,439.4 246.2,439.5 233.2,439.5 220.2,441.6 207.2,442.0 194.2,442.3 181.1,650.0 168.1,650.0 155.1,650.0 142.1,650.0 129.1,650.0 116.0,650.0 103.0,650.0 90.0,650.0" fill="#083fa1" opacity="0.6" class="anim" style="animation-delay:900ms;"/>
<polygon points="90.0,650.0 103.0,650.0 116.0,650.0 129.1,650.0 142.1,650.0 155.1,650.0 168.1,650.0 181.1,650.0 194.2,427.0 207.2,426.8 220.2,426.6 233.2,424.2 246.2,424.2 259.2,424.2 272.3,420.4 285.3,420.3 298.3,420.3 311.3,420.3 324.3,420.3 337.4,420.3 350.4,420.3 363.4,423.3 376.4,423.2 389.4,422.4 402.5,422.4 415.5,422.4 428.5,422.3 441.5,422.3 454.5,422.1 467.5,422.1 480.6,422.1 493.6,422.1 506.6,422.1 519.6,422.1 532.6,418.3 545.7,418.3 558.7,418.2 571.7,418.2 584.7,418.2 597.7,417.7 610.8,417.7 623.8,417.6 636.8,417.6 649.8,417.6 662.8,417.6 675.8,417.6 688.9,417.6 701.9,417.6 714.9,417.6 727.9,417.6 740.9,417.6 754.0,417.6 767.0,415.7 780.0,413.8 780.0,415.2 767.0,418.5 754.0,421.8 740.9,421.8 727.9,421.8 714.9,421.8 701.9,421.8 688.9,421.8 675.8,421.8 662.8,421.8 649.8,421.9 636.8,421.9 623.8,421.9 610.8,422.0 597.7,422.0 584.7,422.9 571.7,422.9 558.7,422.9 545.7,422.9 532.6,423.0 519.6,428.8 506.6,428.8 493.6,428.8 480.6,428.8 467.5,428.9 454.5,428.9 441.5,429.2 428.5,429.2 415.5,429.3 402.5,429.3 389.4,429.3 376.4,430.7 363.4,430.8 350.4,426.0 337.4,426.0 324.3,426.0 311.3,426.0 298.3,426.0 285.3,426.1 272.3,426.2 259.2,432.2 246.2,432.2 233.2,432.2 220.2,435.9 207.2,436.3 194.2,436.6 181.1,650.0 168.1,650.0 155.1,650.0 142.1,650.0 129.1,650.0 116.0,650.0 103.0,650.0 90.0,650.0" fill="#6E4C13" opacity="0.6" class="anim" style="animation-delay:1000ms;"/>
<polygon points="90.0,650.0 103.0,650.0 116.0,650.0 129.1,650.0 142.1,650.0 155.1,650.0 168.1,650.0 181.1,650.0 194.2,418.7 207.2,418.6 220.2,418.5 233.2,417.3 246.2,417.3 259.2,417.2 272.3,415.3 285.3,415.3 298.3,415.2 311.3,415.2 324.3,415.2 337.4,415.2 350.4,415.2 363.4,416.8 376.4,416.8 389.4,416.3 402.5,416.3 415.5,416.3 428.5,416.3 441.5,416.3 454.5,416.2 467.5,416.2 480.6,416.2 493.6,416.2 506.6,416.2 519.6,416.2 532.6,414.2 545.7,414.2 558.7,414.2 571.7,414.2 584.7,414.2 597.7,413.9 610.8,413.9 623.8,413.9 636.8,413.9 649.8,413.9 662.8,413.9 675.8,413.9 688.9,413.9 701.9,413.9 714.9,413.9 727.9,413.9 740.9,413.9 754.0,413.9 767.0,413.2 780.0,412.6 780.0,413.8 767.0,415.7 754.0,417.6 740.9,417.6 727.9,417.6 714.9,417.6 701.9,417.6 688.9,417.6 675.8,417.6 662.8,417.6 649.8,417.6 636.8,417.6 623.8,417.6 610.8,417.7 597.7,417.7 584.7,418.2 571.7,418.2 558.7,418.2 545.7,418.3 532.6,418.3 519.6,422.1 506.6,422.1 493.6,422.1 480.6,422.1 467.5,422.1 454.5,422.1 441.5,422.3 428.5,422.3 415.5,422.4 402.5,422.4 389.4,422.4 376.4,423.2 363.4,423.3 350.4,420.3 337.4,420.3 324.3,420.3 311.3,420.3 298.3,420.3 285.3,420.3 272.3,420.4 259.2,424.2 246.2,424.2 233.2,424.2 220.2,426.6 207.2,426.8 194.2,427.0 181.1,650.0 168.1,650.0 155.1,650.0 142.1,650.0 129.1,650.0 116.0,650.0 103.0,650.0 90.0,650.0" fill="#F05138" opacity="0.6" class="anim" style="animation-delay:1100ms;"/>
<polygon points="90.0,650.0 103.0,650.0 116.0,650.0 129.1,650.0 142.1,650.0 155.1,650.0 168.1,650.0 181.1,650.0 194.2,414.4 207.2,414.4 220.2,414.3 233.2,413.7 246.2,413.7 259.2,413.7 272.3,412.7 285.3,412.7 298.3,412.7 311.3,412.7 324.3,412.7 337.4,412.7 350.4,412.7 363.4,413.5 376.4,413.4 389.4,413.2 402.5,413.2 415.5,413.2 428.5,413.2 441.5,413.2 454.5,413.1 467.5,413.1 480.6,413.1 493.6,413.1 506.6,413.1 519.6,413.1 532.6,412.2 545.7,412.1 558.7,412.1 571.7,412.1 584.7,412.1 597.7,412.0 610.8,412.0 623.8,412.0 636.8,412.0 649.8,412.0 662.8,412.0 675.8,412.0 688.9,412.0 701.9,412.0 714.9,412.0 727.9,412.0 740.9,412.0 754.0,412.0 767.0,412.0 780.0,412.0 780.0,412.6 767.0,413.2 754.0,413.9 740.9,413.9 727.9,413.9 714.9,413.9 701.9,413.9 688.9,413.9 675.8,413.9 662.8,413.9 649.8,413.9 636.8,413.9 623.8,413.9 610.8,413.9 597.7,413.9 584.7,414.2 571.7,414.2 558.7,414.2 545.7,414.2 532.6,414.2 519.6,416.2 506.6,416.2 493.6,416.2 480.6,416.2 467.5,416.2 454.5,416.2 441.5,416.3 428.5,416.3 415.5,416.3 402.5,416.3 389.4,416.3 376.4,416.8 363.4,416.8 350.4,415.2 337.4,415.2 324.3,415.2 311.3,415.2 298.3,415.2 285.3,415.3 272.3,415.3 259.2,417.2 246.2,417.3 233.2,417.3 220.2,418.5 207.2,418.6 194.2,418.7 181.1,650.0 168.1,650.0 155.1,650.0 142.1,650.0 129.1,650.0 116.0,650.0 103.0,650.0 90.0,650.0" fill="#b07219" opacity="0.6" class="anim" style="animation-delay:1200ms;"/>
<line x1="754.0" y1="100" x2="754.0" y2="650" stroke="#c9d1d9" stroke-width="1" stroke-dasharray="4,3" opacity="0.35"/>
<text x="767.0" y="112" text-anchor="middle" class="axis-label" opacity="0.6">Apr 12, 2026</text>
<text x="90.0" y="668" text-anchor="middle" class="axis-label" transform="rotate(-35 90.0 668)">2026-02</text>
<text x="402.5" y="668" text-anchor="middle" class="axis-label" transform="rotate(-35 402.5 668)">2026-03</text>
<text x="767.0" y="668" text-anchor="middle" class="axis-label" transform="rotate(-35 767.0 668)">Apr 12, 2026</text>
<line x1="796" y1="110" x2="824" y2="110" stroke="#3fb950" stroke-width="2"/>
<text x="832" y="116" class="legend-text">Lines Added</text>
<line x1="796" y1="140" x2="824" y2="140" stroke="#f85149" stroke-width="1.5"/>
<text x="832" y="146" class="legend-text">Lines Deleted</text>
<line x1="796" y1="170" x2="824" y2="170" stroke="#e3b341" stroke-width="1.5" stroke-dasharray="4,3"/>
<text x="832" y="176" class="legend-text">&#x2605; Stars</text>
<text x="796" y="200" class="subtitle">Languages</text>
<rect x="796" y="212" width="12" height="12" rx="2" fill="#e34c26" opacity="0.8" class="anim" style="animation-delay:800ms;"/>
<text x="814" y="223" class="legend-text">HTML (59%→57%)</text>
<rect x="796" y="234" width="12" height="12" rx="2" fill="#f1e05a" opacity="0.8" class="anim" style="animation-delay:880ms;"/>
<text x="814" y="245" class="legend-text">JavaScript (22%→30%)</text>
<rect x="796" y="256" width="12" height="12" rx="2" fill="#3572A5" opacity="0.8" class="anim" style="animation-delay:960ms;"/>
<text x="814" y="267" class="legend-text">Python (7%→3%)</text>
<rect x="796" y="278" width="12" height="12" rx="2" fill="#663399" opacity="0.8" class="anim" style="animation-delay:1040ms;"/>
<text x="814" y="289" class="legend-text">CSS (5%→6%)</text>
<rect x="796" y="300" width="12" height="12" rx="2" fill="#083fa1" opacity="0.8" class="anim" style="animation-delay:1120ms;"/>
<text x="814" y="311" class="legend-text">Markdown (2%→2%)</text>
<rect x="796" y="322" width="12" height="12" rx="2" fill="#6E4C13" opacity="0.8" class="anim" style="animation-delay:1200ms;"/>
<text x="814" y="333" class="legend-text">Assembly (2%→1%)</text>
<rect x="796" y="344" width="12" height="12" rx="2" fill="#F05138" opacity="0.8" class="anim" style="animation-delay:1280ms;"/>
<text x="814" y="355" class="legend-text">Swift (2%→0%)</text>
<rect x="796" y="366" width="12" height="12" rx="2" fill="#b07219" opacity="0.8" class="anim" style="animation-delay:1360ms;"/>
<text x="814" y="377" class="legend-text">Java (1%→0%)</text>
<text x="796" y="412" class="subtitle">Contributions</text>
<text x="796" y="432" class="axis-label">2023: 39</text>
<text x="796" y="452" class="axis-label">2024: 646</text>
<text x="796" y="472" class="axis-label">2025: 1,780</text>
<text x="796" y="492" class="axis-label">2026: 400</text>
<text x="796" y="522" class="subtitle">Statistics</text>
<text x="796" y="542" class="axis-label">Active weeks: 80</text>
<text x="796" y="562" class="axis-label">Add/Del ratio: 1.6x</text>
<text x="796" y="582" class="axis-label">Avg lines/wk: 19K</text>
<text x="796" y="602" class="axis-label">Peak: 2026-02-15</text>
<text x="796" y="622" class="axis-label">  (543K lines)</text>
<text x="90" y="742" class="axis-label">Total: +922,799 / -572,795 lines &#xb7; 2,865 contributions &#xb7; 77 repos &#xb7; &#x2605; 35</text>
</svg>