<svg xmlns="http://www.w3.org/2000/svg" width="1000" height="760" viewBox="0 0 1000 760">

<defs>
  <linearGradient id="areaGrad" x1="0" y1="0" x2="0" y2="1">
    <stop offset="0%" stop-color="#58a6ff" stop-opacity="0.35"/>
    <stop offset="100%" stop-color="#58a6ff" stop-opacity="0.02"/>
  </linearGradient>
  <linearGradient id="addGrad" x1="0" y1="0" x2="0" y2="1">
    <stop offset="0%" stop-color="#3fb950" stop-opacity="0.35"/>
    <stop offset="100%" stop-color="#3fb950" stop-opacity="0.02"/>
  </linearGradient>
  <linearGradient id="delGrad" x1="0" y1="0" x2="0" y2="1">
    <stop offset="0%" stop-color="#f85149" stop-opacity="0.25"/>
    <stop offset="100%" stop-color="#f85149" stop-opacity="0.02"/>
  </linearGradient>
</defs>
<style>
  .title { font: bold 16px 'Segoe UI', Ubuntu, Sans-Serif; fill: #c9d1d9; }
  .subtitle { font: 600 12px 'Segoe UI', Ubuntu, Sans-Serif; fill: #c9d1d9; opacity: 0.8; }
  .axis-label { font: 11px 'Segoe UI', Ubuntu, Sans-Serif; fill: #c9d1d9; opacity: 0.7; }
  .legend-text { font: 12px 'Segoe UI', Ubuntu, Sans-Serif; fill: #c9d1d9; }
  .value-text { font: bold 11px 'Segoe UI', Ubuntu, Sans-Serif; fill: #c9d1d9; }
  .stat-value { font: bold 13px 'Segoe UI', Ubuntu, Sans-Serif; fill: #c9d1d9; }
  .stat-label { font: 11px 'Segoe UI', Ubuntu, Sans-Serif; fill: #c9d1d9; opacity: 0.7; }
  @keyframes fadeIn { from { opacity: 0; } to { opacity: 1; } }
  .anim { animation: fadeIn 0.6s ease-in-out forwards; opacity: 0; }
</style>

<rect x="0.5" y="0.5" rx="4.5" width="999" height="759" fill="#161b22" stroke="#21262d"/>
<text x="65" y="30" class="title">Activity History</text>
<text x="65" y="48" class="subtitle">Lines added vs deleted &amp; activity trends over time</text>
<line x1="65" y1="240.0" x2="820" y2="240.0" stroke="#21262d" stroke-width="1"/>
<text x="57" y="244.0" text-anchor="end" class="axis-label">0</text>
<line x1="65" y1="195.0" x2="820" y2="195.0" stroke="#21262d" stroke-width="1"/>
<text x="57" y="199.0" text-anchor="end" class="axis-label">312,716</text>
<line x1="65" y1="150.0" x2="820" y2="150.0" stroke="#21262d" stroke-width="1"/>
<text x="57" y="154.0" text-anchor="end" class="axis-label">625,432</text>
<line x1="65" y1="105.0" x2="820" y2="105.0" stroke="#21262d" stroke-width="1"/>
<text x="57" y="109.0" text-anchor="end" class="axis-label">938,148</text>
<line x1="65" y1="60.0" x2="820" y2="60.0" stroke="#21262d" stroke-width="1"/>
<text x="57" y="64.0" text-anchor="end" class="axis-label">1,250,864</text>
<polygon points="65.0,240.0 65.0,187.5 101.0,189.4 136.9,187.5 172.9,189.4 208.8,201.5 244.8,177.4 280.7,177.4 316.7,168.3 352.6,168.0 388.6,167.4 424.5,167.4 460.5,151.2 496.4,151.2 532.4,151.1 568.3,127.2 604.3,126.9 640.2,126.6 676.2,126.6 712.1,126.6 748.1,126.6 784.0,126.6 820.0,126.0 820.0,240.0" fill="url(#addGrad)" class="anim" style="animation-delay:200ms;"/>
<polyline points="65.0,187.5 101.0,189.4 136.9,187.5 172.9,189.4 208.8,201.5 244.8,177.4 280.7,177.4 316.7,168.3 352.6,168.0 388.6,167.4 424.5,167.4 460.5,151.2 496.4,151.2 532.4,151.1 568.3,127.2 604.3,126.9 640.2,126.6 676.2,126.6 712.1,126.6 748.1,126.6 784.0,126.6 820.0,126.0" fill="none" stroke="#3fb950" stroke-width="2" stroke-linejoin="round" class="anim" style="animation-delay:250ms;"/>
<polygon points="65.0,240.0 65.0,225.2 101.0,226.8 136.9,225.2 172.9,226.7 208.8,233.1 244.8,223.4 280.7,223.4 316.7,222.4 352.6,222.0 388.6,221.7 424.5,221.7 460.5,204.3 496.4,204.3 532.4,204.2 568.3,184.5 604.3,184.4 640.2,184.3 676.2,184.3 712.1,184.3 748.1,184.3 784.0,184.3 820.0,174.0 820.0,240.0" fill="url(#delGrad)" class="anim" style="animation-delay:300ms;"/>
<polyline points="65.0,225.2 101.0,226.8 136.9,225.2 172.9,226.7 208.8,233.1 244.8,223.4 280.7,223.4 316.7,222.4 352.6,222.0 388.6,221.7 424.5,221.7 460.5,204.3 496.4,204.3 532.4,204.2 568.3,184.5 604.3,184.4 640.2,184.3 676.2,184.3 712.1,184.3 748.1,184.3 784.0,184.3 820.0,174.0" fill="none" stroke="#f85149" stroke-width="1.5" stroke-linejoin="round" class="anim" style="animation-delay:350ms;"/>
<polyline points="65.0,240.0 101.0,240.0 136.9,240.0 172.9,240.0 208.8,240.0 244.8,240.0 280.7,240.0 316.7,240.0 352.6,96.0 388.6,96.0 424.5,96.0 460.5,96.0 496.4,96.0 532.4,96.0 568.3,96.0 604.3,96.0 640.2,96.0 676.2,96.0 712.1,96.0 748.1,96.0 784.0,96.0 820.0,96.0" fill="none" stroke="#e3b341" stroke-width="1.5" stroke-dasharray="4,3" stroke-linejoin="round" class="anim" style="animation-delay:400ms;"/>
<text x="65" y="54" class="subtitle">Lines Added vs Deleted (per snapshot)</text>
<text x="65" y="294" class="subtitle">Programming Language Development (%)</text>
<line x1="65" y1="480.0" x2="820" y2="480.0" stroke="#21262d" stroke-width="1"/>
<text x="57" y="484.0" text-anchor="end" class="axis-label">0%</text>
<line x1="65" y1="435.0" x2="820" y2="435.0" stroke="#21262d" stroke-width="1"/>
<text x="57" y="439.0" text-anchor="end" class="axis-label">25%</text>
<line x1="65" y1="390.0" x2="820" y2="390.0" stroke="#21262d" stroke-width="1"/>
<text x="57" y="394.0" text-anchor="end" class="axis-label">50%</text>
<line x1="65" y1="345.0" x2="820" y2="345.0" stroke="#21262d" stroke-width="1"/>
<text x="57" y="349.0" text-anchor="end" class="axis-label">75%</text>
<line x1="65" y1="300.0" x2="820" y2="300.0" stroke="#21262d" stroke-width="1"/>
<text x="57" y="304.0" text-anchor="end" class="axis-label">100%</text>
<polygon points="65.0,480.0 101.0,480.0 136.9,480.0 172.9,480.0 208.8,480.0 244.8,480.0 280.7,480.0 316.7,480.0 352.6,388.6 388.6,388.8 424.5,389.8 460.5,366.9 496.4,366.9 532.4,369.6 568.3,356.3 604.3,356.3 640.2,356.5 676.2,356.5 712.1,356.5 748.1,356.5 784.0,356.5 820.0,364.8 820.0,480.0 784.0,480.0 748.1,480.0 712.1,480.0 676.2,480.0 640.2,480.0 604.3,480.0 568.3,480.0 532.4,480.0 496.4,480.0 460.5,480.0 424.5,480.0 388.6,480.0 352.6,480.0 316.7,480.0 280.7,480.0 244.8,480.0 208.8,480.0 172.9,480.0 136.9,480.0 101.0,480.0 65.0,480.0" fill="#e34c26" opacity="0.6" class="anim" style="animation-delay:500ms;"/>
<polygon points="65.0,480.0 101.0,480.0 136.9,480.0 172.9,480.0 208.8,480.0 244.8,480.0 280.7,480.0 316.7,480.0 352.6,358.8 388.6,358.5 424.5,359.2 460.5,349.5 496.4,349.5 532.4,350.4 568.3,337.6 604.3,337.6 640.2,338.0 676.2,338.0 712.1,338.0 748.1,338.0 784.0,338.0 820.0,347.2 820.0,364.8 784.0,356.5 748.1,356.5 712.1,356.5 676.2,356.5 640.2,356.5 604.3,356.3 568.3,356.3 532.4,369.6 496.4,366.9 460.5,366.9 424.5,389.8 388.6,388.8 352.6,388.6 316.7,480.0 280.7,480.0 244.8,480.0 208.8,480.0 172.9,480.0 136.9,480.0 101.0,480.0 65.0,480.0" fill="#f1e05a" opacity="0.6" class="anim" style="animation-delay:600ms;"/>
<polygon points="65.0,480.0 101.0,480.0 136.9,480.0 172.9,480.0 208.8,480.0 244.8,480.0 280.7,480.0 316.7,480.0 352.6,334.2 388.6,334.0 424.5,333.9 460.5,327.7 496.4,327.7 532.4,328.6 568.3,321.7 604.3,321.7 640.2,322.2 676.2,322.2 712.1,322.2 748.1,322.2 784.0,322.2 820.0,326.7 820.0,347.2 784.0,338.0 748.1,338.0 712.1,338.0 676.2,338.0 640.2,338.0 604.3,337.6 568.3,337.6 532.4,350.4 496.4,349.5 460.5,349.5 424.5,359.2 388.6,358.5 352.6,358.8 316.7,480.0 280.7,480.0 244.8,480.0 208.8,480.0 172.9,480.0 136.9,480.0 101.0,480.0 65.0,480.0" fill="#3572A5" opacity="0.6" class="anim" style="animation-delay:700ms;"/>
<polygon points="65.0,480.0 101.0,480.0 136.9,480.0 172.9,480.0 208.8,480.0 244.8,480.0 280.7,480.0 316.7,480.0 352.6,324.2 388.6,324.0 424.5,323.7 460.5,322.1 496.4,322.1 532.4,322.1 568.3,316.7 604.3,316.6 640.2,316.9 676.2,316.9 712.1,316.9 748.1,316.9 784.0,316.9 820.0,322.0 820.0,326.7 784.0,322.2 748.1,322.2 712.1,322.2 676.2,322.2 640.2,322.2 604.3,321.7 568.3,321.7 532.4,328.6 496.4,327.7 460.5,327.7 424.5,333.9 388.6,334.0 352.6,334.2 316.7,480.0 280.7,480.0 244.8,480.0 208.8,480.0 172.9,480.0 136.9,480.0 101.0,480.0 65.0,480.0" fill="#663399" opacity="0.6" class="anim" style="animation-delay:800ms;"/>
<polygon points="65.0,480.0 101.0,480.0 136.9,480.0 172.9,480.0 208.8,480.0 244.8,480.0 280.7,480.0 316.7,480.0 352.6,317.0 388.6,316.9 424.5,316.7 460.5,316.1 496.4,316.1 532.4,316.1 568.3,312.3 604.3,312.3 640.2,312.6 676.2,312.6 712.1,312.6 748.1,312.6 784.0,312.6 820.0,316.4 820.0,322.0 784.0,316.9 748.1,316.9 712.1,316.9 676.2,316.9 640.2,316.9 604.3,316.6 568.3,316.7 532.4,322.1 496.4,322.1 460.5,322.1 424.5,323.7 388.6,324.0 352.6,324.2 316.7,480.0 280.7,480.0 244.8,480.0 208.8,480.0 172.9,480.0 136.9,480.0 101.0,480.0 65.0,480.0" fill="#6E4C13" opacity="0.6" class="anim" style="animation-delay:900ms;"/>
<polygon points="65.0,480.0 101.0,480.0 136.9,480.0 172.9,480.0 208.8,480.0 244.8,480.0 280.7,480.0 316.7,480.0 352.6,312.7 388.6,312.6 424.5,312.4 460.5,310.7 496.4,310.7 532.4,310.6 568.3,307.8 604.3,307.7 640.2,307.7 676.2,307.7 712.1,307.7 748.1,307.7 784.0,307.7 820.0,310.0 820.0,316.4 784.0,312.6 748.1,312.6 712.1,312.6 676.2,312.6 640.2,312.6 604.3,312.3 568.3,312.3 532.4,316.1 496.4,316.1 460.5,316.1 424.5,316.7 388.6,316.9 352.6,317.0 316.7,480.0 280.7,480.0 244.8,480.0 208.8,480.0 172.9,480.0 136.9,480.0 101.0,480.0 65.0,480.0" fill="#083fa1" opacity="0.6" class="anim" style="animation-delay:1000ms;"/>
<polygon points="65.0,480.0 101.0,480.0 136.9,480.0 172.9,480.0 208.8,480.0 244.8,480.0 280.7,480.0 316.7,480.0 352.6,306.5 388.6,306.5 424.5,306.4 460.5,305.4 496.4,305.4 532.4,305.4 568.3,304.0 604.3,304.0 640.2,303.9 676.2,303.9 712.1,303.9 748.1,303.9 784.0,303.9 820.0,305.1 820.0,310.0 784.0,307.7 748.1,307.7 712.1,307.7 676.2,307.7 640.2,307.7 604.3,307.7 568.3,307.8 532.4,310.6 496.4,310.7 460.5,310.7 424.5,312.4 388.6,312.6 352.6,312.7 316.7,480.0 280.7,480.0 244.8,480.0 208.8,480.0 172.9,480.0 136.9,480.0 101.0,480.0 65.0,480.0" fill="#F05138" opacity="0.6" class="anim" style="animation-delay:1100ms;"/>
<polygon points="65.0,480.0 101.0,480.0 136.9,480.0 172.9,480.0 208.8,480.0 244.8,480.0 280.7,480.0 316.7,480.0 352.6,303.3 388.6,303.3 424.5,303.2 460.5,302.8 496.4,302.8 532.4,302.8 568.3,302.0 604.3,302.0 640.2,302.0 676.2,302.0 712.1,302.0 748.1,302.0 784.0,302.0 820.0,302.6 820.0,305.1 784.0,303.9 748.1,303.9 712.1,303.9 676.2,303.9 640.2,303.9 604.3,304.0 568.3,304.0 532.4,305.4 496.4,305.4 460.5,305.4 424.5,306.4 388.6,306.5 352.6,306.5 316.7,480.0 280.7,480.0 244.8,480.0 208.8,480.0 172.9,480.0 136.9,480.0 101.0,480.0 65.0,480.0" fill="#b07219" opacity="0.6" class="anim" style="animation-delay:1200ms;"/>
<text x="65.0" y="498" text-anchor="middle" class="axis-label" transform="rotate(-35 65.0 498)">2026-02-06</text>
<text x="136.9" y="498" text-anchor="middle" class="axis-label" transform="rotate(-35 136.9 498)">2026-02-08</text>
<text x="208.8" y="498" text-anchor="middle" class="axis-label" transform="rotate(-35 208.8 498)">2026-02-10</text>
<text x="280.7" y="498" text-anchor="middle" class="axis-label" transform="rotate(-35 280.7 498)">2026-02-12</text>
<text x="352.6" y="498" text-anchor="middle" class="axis-label" transform="rotate(-35 352.6 498)">2026-02-14</text>
<text x="424.5" y="498" text-anchor="middle" class="axis-label" transform="rotate(-35 424.5 498)">2026-02-16</text>
<text x="496.4" y="498" text-anchor="middle" class="axis-label" transform="rotate(-35 496.4 498)">2026-02-18</text>
<text x="568.3" y="498" text-anchor="middle" class="axis-label" transform="rotate(-35 568.3 498)">2026-02-20</text>
<text x="640.2" y="498" text-anchor="middle" class="axis-label" transform="rotate(-35 640.2 498)">2026-02-22</text>
<text x="712.1" y="498" text-anchor="middle" class="axis-label" transform="rotate(-35 712.1 498)">2026-02-24</text>
<text x="784.0" y="498" text-anchor="middle" class="axis-label" transform="rotate(-35 784.0 498)">2026-02-26</text>
<line x1="836" y1="70" x2="856" y2="70" stroke="#3fb950" stroke-width="2"/>
<text x="862" y="74" class="legend-text">Lines Added</text>
<line x1="836" y1="88" x2="856" y2="88" stroke="#f85149" stroke-width="1.5"/>
<text x="862" y="92" class="legend-text">Lines Deleted</text>
<line x1="836" y1="108" x2="856" y2="108" stroke="#e3b341" stroke-width="1.5" stroke-dasharray="4,3"/>
<text x="862" y="112" class="legend-text">&#x2605; Stars</text>
<text x="836" y="142" class="subtitle">Languages</text>
<rect x="836" y="153" width="12" height="12" rx="2" fill="#e34c26" opacity="0.8" class="anim" style="animation-delay:800ms;"/>
<text x="854" y="163" class="legend-text">HTML (64.0%)</text>
<rect x="836" y="175" width="12" height="12" rx="2" fill="#f1e05a" opacity="0.8" class="anim" style="animation-delay:880ms;"/>
<text x="854" y="185" class="legend-text">JavaScript (9.8%)</text>
<rect x="836" y="197" width="12" height="12" rx="2" fill="#3572A5" opacity="0.8" class="anim" style="animation-delay:960ms;"/>
<text x="854" y="207" class="legend-text">Python (11.4%)</text>
<rect x="836" y="219" width="12" height="12" rx="2" fill="#663399" opacity="0.8" class="anim" style="animation-delay:1040ms;"/>
<text x="854" y="229" class="legend-text">CSS (2.6%)</text>
<rect x="836" y="241" width="12" height="12" rx="2" fill="#6E4C13" opacity="0.8" class="anim" style="animation-delay:1120ms;"/>
<text x="854" y="251" class="legend-text">Assembly (3.1%)</text>
<rect x="836" y="263" width="12" height="12" rx="2" fill="#083fa1" opacity="0.8" class="anim" style="animation-delay:1200ms;"/>
<text x="854" y="273" class="legend-text">Markdown (3.5%)</text>
<rect x="836" y="285" width="12" height="12" rx="2" fill="#F05138" opacity="0.8" class="anim" style="animation-delay:1280ms;"/>
<text x="854" y="295" class="legend-text">Swift (2.7%)</text>
<rect x="836" y="307" width="12" height="12" rx="2" fill="#b07219" opacity="0.8" class="anim" style="animation-delay:1360ms;"/>
<text x="854" y="317" class="legend-text">Java (1.4%)</text>
<text x="836" y="358" class="subtitle">Contributions</text>
<text x="836" y="376" class="axis-label">2023: 39</text>
<text x="836" y="392" class="axis-label">2024: 646</text>
<text x="836" y="408" class="axis-label">2025: 1,780</text>
<text x="836" y="424" class="axis-label">2026: 297</text>
<text x="836" y="450" class="subtitle">Statistics</text>
<text x="836" y="468" class="axis-label">Active weeks: 76</text>
<text x="836" y="483" class="axis-label">Add/Del ratio: 1.7x</text>
<text x="836" y="498" class="axis-label">Avg lines/week: 16,459</text>
<text x="836" y="513" class="axis-label">Peak: 2026-02-15</text>
<text x="836" y="528" class="axis-label">  (542,929 lines)</text>
<text x="65" y="746" class="axis-label">Total: +792,460 / -458,404 lines &#xb7; 2,762 contributions &#xb7; 71 repos &#xb7; &#x2605; 33</text>
</svg>