<svg xmlns="http://www.w3.org/2000/svg" width="1000" height="760" style="max-width: 100%;" viewBox="0 0 1000 760">

<defs>
  <linearGradient id="areaGrad" x1="0" y1="0" x2="0" y2="1">
    <stop offset="0%" stop-color="#58a6ff" stop-opacity="0.35"/>
    <stop offset="100%" stop-color="#58a6ff" stop-opacity="0.02"/>
  </linearGradient>
  <linearGradient id="addGrad" x1="0" y1="0" x2="0" y2="1">
    <stop offset="0%" stop-color="#3fb950" stop-opacity="0.35"/>
    <stop offset="100%" stop-color="#3fb950" stop-opacity="0.02"/>
  </linearGradient>
  <linearGradient id="delGrad" x1="0" y1="0" x2="0" y2="1">
    <stop offset="0%" stop-color="#f85149" stop-opacity="0.25"/>
    <stop offset="100%" stop-color="#f85149" stop-opacity="0.02"/>
  </linearGradient>
</defs>
<style>
  .title { font: bold 28px 'Segoe UI', Ubuntu, Sans-Serif; fill: #c9d1d9; }
  .subtitle { font: 600 20px 'Segoe UI', Ubuntu, Sans-Serif; fill: #c9d1d9; opacity: 0.8; }
  .axis-label { font: 18px 'Segoe UI', Ubuntu, Sans-Serif; fill: #c9d1d9; opacity: 0.7; }
  .legend-text { font: 14px 'Segoe UI', Ubuntu, Sans-Serif; fill: #c9d1d9; }
  .value-text { font: bold 18px 'Segoe UI', Ubuntu, Sans-Serif; fill: #c9d1d9; }
  .stat-value { font: bold 22px 'Segoe UI', Ubuntu, Sans-Serif; fill: #c9d1d9; }
  .stat-label { font: 18px 'Segoe UI', Ubuntu, Sans-Serif; fill: #c9d1d9; opacity: 0.7; }
  @keyframes fadeIn { from { opacity: 0; } to { opacity: 1; } }
  .anim { animation: fadeIn 0.6s ease-in-out forwards; opacity: 0; }
</style>

<rect x="0.5" y="0.5" rx="4.5" width="999" height="759" fill="#161b22" stroke="#21262d"/>
<text x="90" y="45" class="title">Activity History</text>
<text x="90" y="72" class="subtitle">Lines added vs deleted &amp; activity trends over time</text>
<line x1="90" y1="340.0" x2="780" y2="340.0" stroke="#21262d" stroke-width="1"/>
<text x="82" y="344.0" text-anchor="end" class="axis-label">0</text>
<line x1="90" y1="280.0" x2="780" y2="280.0" stroke="#21262d" stroke-width="1"/>
<text x="82" y="284.0" text-anchor="end" class="axis-label">682K</text>
<line x1="90" y1="220.0" x2="780" y2="220.0" stroke="#21262d" stroke-width="1"/>
<text x="82" y="224.0" text-anchor="end" class="axis-label">1.4M</text>
<line x1="90" y1="160.0" x2="780" y2="160.0" stroke="#21262d" stroke-width="1"/>
<text x="82" y="164.0" text-anchor="end" class="axis-label">2.0M</text>
<line x1="90" y1="100.0" x2="780" y2="100.0" stroke="#21262d" stroke-width="1"/>
<text x="82" y="104.0" text-anchor="end" class="axis-label">2.7M</text>
<polygon points="90.0,340.0 90.0,307.9 112.3,309.0 134.5,307.9 156.8,309.1 179.0,316.5 201.3,301.7 223.5,301.7 245.8,296.2 268.1,296.0 290.3,295.6 312.6,295.6 334.8,285.7 357.1,285.7 379.4,285.7 401.6,271.0 423.9,270.8 446.1,270.7 468.4,270.7 490.6,270.7 512.9,270.7 535.2,270.7 557.4,270.3 579.7,260.5 601.9,260.5 624.2,260.5 646.5,260.5 668.7,260.2 691.0,260.2 713.2,259.8 735.5,259.8 757.7,230.9 780.0,201.9 780.0,340.0" fill="url(#addGrad)" class="anim" style="animation-delay:200ms;"/>
<polyline points="90.0,307.9 112.3,309.0 134.5,307.9 156.8,309.1 179.0,316.5 201.3,301.7 223.5,301.7 245.8,296.2 268.1,296.0 290.3,295.6 312.6,295.6 334.8,285.7 357.1,285.7 379.4,285.7 401.6,271.0 423.9,270.8 446.1,270.7 468.4,270.7 490.6,270.7 512.9,270.7 535.2,270.7 557.4,270.3 579.7,260.5 601.9,260.5 624.2,260.5 646.5,260.5 668.7,260.2 691.0,260.2 713.2,259.8 735.5,259.8" fill="none" stroke="#3fb950" stroke-width="2" stroke-linejoin="round" class="anim" style="animation-delay:250ms;"/>
<polyline points="735.5,259.8 757.7,230.9 780.0,201.9" fill="none" stroke="#3fb950" stroke-width="1.5" stroke-dasharray="5,4" stroke-linejoin="round" opacity="0.6" class="anim" style="animation-delay:250ms;"/>
<polygon points="90.0,340.0 90.0,331.0 112.3,331.9 134.5,331.0 156.8,331.9 179.0,335.8 201.3,329.9 223.5,329.9 245.8,329.2 268.1,329.0 290.3,328.8 312.6,328.8 334.8,318.2 357.1,318.2 379.4,318.1 401.6,306.1 423.9,306.0 446.1,306.0 468.4,306.0 490.6,306.0 512.9,306.0 535.2,306.0 557.4,299.7 579.7,290.1 601.9,290.0 624.2,290.0 646.5,290.0 668.7,290.0 691.0,290.0 713.2,289.9 735.5,289.9 757.7,264.0 780.0,238.1 780.0,340.0" fill="url(#delGrad)" class="anim" style="animation-delay:300ms;"/>
<polyline points="90.0,331.0 112.3,331.9 134.5,331.0 156.8,331.9 179.0,335.8 201.3,329.9 223.5,329.9 245.8,329.2 268.1,329.0 290.3,328.8 312.6,328.8 334.8,318.2 357.1,318.2 379.4,318.1 401.6,306.1 423.9,306.0 446.1,306.0 468.4,306.0 490.6,306.0 512.9,306.0 535.2,306.0 557.4,299.7 579.7,290.1 601.9,290.0 624.2,290.0 646.5,290.0 668.7,290.0 691.0,290.0 713.2,289.9 735.5,289.9" fill="none" stroke="#f85149" stroke-width="1.5" stroke-linejoin="round" class="anim" style="animation-delay:350ms;"/>
<polyline points="735.5,289.9 757.7,264.0 780.0,238.1" fill="none" stroke="#f85149" stroke-width="1" stroke-dasharray="5,4" stroke-linejoin="round" opacity="0.6" class="anim" style="animation-delay:350ms;"/>
<polyline points="90.0,340.0 112.3,340.0 134.5,340.0 156.8,340.0 179.0,340.0 201.3,340.0 223.5,340.0 245.8,340.0 268.1,244.0 290.3,244.0 312.6,244.0 334.8,244.0 357.1,244.0 379.4,244.0 401.6,244.0 423.9,244.0 446.1,244.0 468.4,244.0 490.6,244.0 512.9,244.0 535.2,244.0 557.4,244.0 579.7,244.0 601.9,244.0 624.2,244.0 646.5,244.0 668.7,244.0 691.0,244.0 713.2,244.0 735.5,244.0" fill="none" stroke="#e3b341" stroke-width="1.5" stroke-dasharray="4,3" stroke-linejoin="round" class="anim" style="animation-delay:400ms;"/>
<polyline points="735.5,244.0 757.7,244.0 780.0,148.0" fill="none" stroke="#e3b341" stroke-width="1" stroke-dasharray="3,5" stroke-linejoin="round" opacity="0.5" class="anim" style="animation-delay:400ms;"/>
<text x="90" y="90" class="subtitle">Lines Added vs Deleted (per snapshot)</text>
<text x="90" y="400" class="subtitle">Programming Language Development (%)</text>
<line x1="90" y1="650.0" x2="780" y2="650.0" stroke="#21262d" stroke-width="1"/>
<text x="82" y="654.0" text-anchor="end" class="axis-label">0%</text>
<line x1="90" y1="590.0" x2="780" y2="590.0" stroke="#21262d" stroke-width="1"/>
<text x="82" y="594.0" text-anchor="end" class="axis-label">25%</text>
<line x1="90" y1="530.0" x2="780" y2="530.0" stroke="#21262d" stroke-width="1"/>
<text x="82" y="534.0" text-anchor="end" class="axis-label">50%</text>
<line x1="90" y1="470.0" x2="780" y2="470.0" stroke="#21262d" stroke-width="1"/>
<text x="82" y="474.0" text-anchor="end" class="axis-label">75%</text>
<line x1="90" y1="410.0" x2="780" y2="410.0" stroke="#21262d" stroke-width="1"/>
<text x="82" y="414.0" text-anchor="end" class="axis-label">100%</text>
<polygon points="90.0,650.0 112.3,650.0 134.5,650.0 156.8,650.0 179.0,650.0 201.3,650.0 223.5,650.0 245.8,650.0 268.1,528.2 290.3,528.5 312.6,529.7 334.8,499.3 357.1,499.3 379.4,502.9 401.6,485.0 423.9,485.1 446.1,485.4 468.4,485.4 490.6,485.4 512.9,485.4 535.2,485.4 557.4,496.4 579.7,496.7 601.9,491.0 624.2,491.0 646.5,491.0 668.7,491.7 691.0,491.8 713.2,494.0 735.5,494.0 757.7,477.2 780.0,460.8 780.0,650.0 757.7,650.0 735.5,650.0 713.2,650.0 691.0,650.0 668.7,650.0 646.5,650.0 624.2,650.0 601.9,650.0 579.7,650.0 557.4,650.0 535.2,650.0 512.9,650.0 490.6,650.0 468.4,650.0 446.1,650.0 423.9,650.0 401.6,650.0 379.4,650.0 357.1,650.0 334.8,650.0 312.6,650.0 290.3,650.0 268.1,650.0 245.8,650.0 223.5,650.0 201.3,650.0 179.0,650.0 156.8,650.0 134.5,650.0 112.3,650.0 90.0,650.0" fill="#e34c26" opacity="0.6" class="anim" style="animation-delay:500ms;"/>
<polygon points="90.0,650.0 112.3,650.0 134.5,650.0 156.8,650.0 179.0,650.0 201.3,650.0 223.5,650.0 245.8,650.0 268.1,488.4 290.3,488.0 312.6,489.0 334.8,476.0 357.1,476.0 379.4,477.2 401.6,460.1 423.9,460.2 446.1,460.6 468.4,460.6 490.6,460.6 512.9,460.6 535.2,460.6 557.4,473.0 579.7,473.5 601.9,469.5 624.2,469.5 646.5,469.5 668.7,469.7 691.0,469.7 713.2,469.7 735.5,469.7 757.7,461.6 780.0,453.7 780.0,460.8 757.7,477.2 735.5,494.0 713.2,494.0 691.0,491.8 668.7,491.7 646.5,491.0 624.2,491.0 601.9,491.0 579.7,496.7 557.4,496.4 535.2,485.4 512.9,485.4 490.6,485.4 468.4,485.4 446.1,485.4 423.9,485.1 401.6,485.0 379.4,502.9 357.1,499.3 334.8,499.3 312.6,529.7 290.3,528.5 268.1,528.2 245.8,650.0 223.5,650.0 201.3,650.0 179.0,650.0 156.8,650.0 134.5,650.0 112.3,650.0 90.0,650.0" fill="#f1e05a" opacity="0.6" class="anim" style="animation-delay:600ms;"/>
<polygon points="90.0,650.0 112.3,650.0 134.5,650.0 156.8,650.0 179.0,650.0 201.3,650.0 223.5,650.0 245.8,650.0 268.1,455.5 290.3,455.4 312.6,455.1 334.8,447.0 357.1,447.0 379.4,448.2 401.6,438.9 423.9,439.0 446.1,439.6 468.4,439.6 490.6,439.6 512.9,439.6 535.2,439.6 557.4,445.6 579.7,445.6 601.9,443.3 624.2,443.3 646.5,443.3 668.7,443.6 691.0,443.6 713.2,444.1 735.5,444.1 757.7,439.2 780.0,434.6 780.0,453.7 757.7,461.6 735.5,469.7 713.2,469.7 691.0,469.7 668.7,469.7 646.5,469.5 624.2,469.5 601.9,469.5 579.7,473.5 557.4,473.0 535.2,460.6 512.9,460.6 490.6,460.6 468.4,460.6 446.1,460.6 423.9,460.2 401.6,460.1 379.4,477.2 357.1,476.0 334.8,476.0 312.6,489.0 290.3,488.0 268.1,488.4 245.8,650.0 223.5,650.0 201.3,650.0 179.0,650.0 156.8,650.0 134.5,650.0 112.3,650.0 90.0,650.0" fill="#3572A5" opacity="0.6" class="anim" style="animation-delay:700ms;"/>
<polygon points="90.0,650.0 112.3,650.0 134.5,650.0 156.8,650.0 179.0,650.0 201.3,650.0 223.5,650.0 245.8,650.0 268.1,442.3 290.3,442.0 312.6,441.6 334.8,439.5 357.1,439.5 379.4,439.4 401.6,432.3 423.9,432.2 446.1,432.6 468.4,432.6 490.6,432.6 512.9,432.6 535.2,432.6 557.4,439.3 579.7,439.3 601.9,437.4 624.2,437.4 646.5,437.4 668.7,437.3 691.0,437.3 713.2,437.1 735.5,437.1 757.7,435.9 780.0,434.6 780.0,434.6 757.7,439.2 735.5,444.1 713.2,444.1 691.0,443.6 668.7,443.6 646.5,443.3 624.2,443.3 601.9,443.3 579.7,445.6 557.4,445.6 535.2,439.6 512.9,439.6 490.6,439.6 468.4,439.6 446.1,439.6 423.9,439.0 401.6,438.9 379.4,448.2 357.1,447.0 334.8,447.0 312.6,455.1 290.3,455.4 268.1,455.5 245.8,650.0 223.5,650.0 201.3,650.0 179.0,650.0 156.8,650.0 134.5,650.0 112.3,650.0 90.0,650.0" fill="#663399" opacity="0.6" class="anim" style="animation-delay:800ms;"/>
<polygon points="90.0,650.0 112.3,650.0 134.5,650.0 156.8,650.0 179.0,650.0 201.3,650.0 223.5,650.0 245.8,650.0 268.1,436.6 290.3,436.3 312.6,435.9 334.8,432.2 357.1,432.2 379.4,432.2 401.6,426.2 423.9,426.1 446.1,426.0 468.4,426.0 490.6,426.0 512.9,426.0 535.2,426.0 557.4,430.8 579.7,430.7 601.9,429.3 624.2,429.3 646.5,429.3 668.7,429.2 691.0,429.2 713.2,428.9 735.5,428.9 757.7,425.9 780.0,422.9 780.0,434.6 757.7,435.9 735.5,437.1 713.2,437.1 691.0,437.3 668.7,437.3 646.5,437.4 624.2,437.4 601.9,437.4 579.7,439.3 557.4,439.3 535.2,432.6 512.9,432.6 490.6,432.6 468.4,432.6 446.1,432.6 423.9,432.2 401.6,432.3 379.4,439.4 357.1,439.5 334.8,439.5 312.6,441.6 290.3,442.0 268.1,442.3 245.8,650.0 223.5,650.0 201.3,650.0 179.0,650.0 156.8,650.0 134.5,650.0 112.3,650.0 90.0,650.0" fill="#083fa1" opacity="0.6" class="anim" style="animation-delay:900ms;"/>
<polygon points="90.0,650.0 112.3,650.0 134.5,650.0 156.8,650.0 179.0,650.0 201.3,650.0 223.5,650.0 245.8,650.0 268.1,427.0 290.3,426.8 312.6,426.6 334.8,424.2 357.1,424.2 379.4,424.2 401.6,420.4 423.9,420.3 446.1,420.3 468.4,420.3 490.6,420.3 512.9,420.3 535.2,420.3 557.4,423.3 579.7,423.2 601.9,422.4 624.2,422.4 646.5,422.4 668.7,422.3 691.0,422.3 713.2,422.1 735.5,422.1 757.7,420.4 780.0,418.7 780.0,422.9 757.7,425.9 735.5,428.9 713.2,428.9 691.0,429.2 668.7,429.2 646.5,429.3 624.2,429.3 601.9,429.3 579.7,430.7 557.4,430.8 535.2,426.0 512.9,426.0 490.6,426.0 468.4,426.0 446.1,426.0 423.9,426.1 401.6,426.2 379.4,432.2 357.1,432.2 334.8,432.2 312.6,435.9 290.3,436.3 268.1,436.6 245.8,650.0 223.5,650.0 201.3,650.0 179.0,650.0 156.8,650.0 134.5,650.0 112.3,650.0 90.0,650.0" fill="#6E4C13" opacity="0.6" class="anim" style="animation-delay:1000ms;"/>
<polygon points="90.0,650.0 112.3,650.0 134.5,650.0 156.8,650.0 179.0,650.0 201.3,650.0 223.5,650.0 245.8,650.0 268.1,418.7 290.3,418.6 312.6,418.5 334.8,417.3 357.1,417.3 379.4,417.2 401.6,415.3 423.9,415.3 446.1,415.2 468.4,415.2 490.6,415.2 512.9,415.2 535.2,415.2 557.4,416.8 579.7,416.8 601.9,416.3 624.2,416.3 646.5,416.3 668.7,416.3 691.0,416.3 713.2,416.2 735.5,416.2 757.7,415.6 780.0,415.0 780.0,418.7 757.7,420.4 735.5,422.1 713.2,422.1 691.0,422.3 668.7,422.3 646.5,422.4 624.2,422.4 601.9,422.4 579.7,423.2 557.4,423.3 535.2,420.3 512.9,420.3 490.6,420.3 468.4,420.3 446.1,420.3 423.9,420.3 401.6,420.4 379.4,424.2 357.1,424.2 334.8,424.2 312.6,426.6 290.3,426.8 268.1,427.0 245.8,650.0 223.5,650.0 201.3,650.0 179.0,650.0 156.8,650.0 134.5,650.0 112.3,650.0 90.0,650.0" fill="#F05138" opacity="0.6" class="anim" style="animation-delay:1100ms;"/>
<polygon points="90.0,650.0 112.3,650.0 134.5,650.0 156.8,650.0 179.0,650.0 201.3,650.0 223.5,650.0 245.8,650.0 268.1,414.4 290.3,414.4 312.6,414.3 334.8,413.7 357.1,413.7 379.4,413.7 401.6,412.7 423.9,412.7 446.1,412.7 468.4,412.7 490.6,412.7 512.9,412.7 535.2,412.7 557.4,413.5 579.7,413.4 601.9,413.2 624.2,413.2 646.5,413.2 668.7,413.2 691.0,413.2 713.2,413.1 735.5,413.1 757.7,413.1 780.0,413.1 780.0,415.0 757.7,415.6 735.5,416.2 713.2,416.2 691.0,416.3 668.7,416.3 646.5,416.3 624.2,416.3 601.9,416.3 579.7,416.8 557.4,416.8 535.2,415.2 512.9,415.2 490.6,415.2 468.4,415.2 446.1,415.2 423.9,415.3 401.6,415.3 379.4,417.2 357.1,417.3 334.8,417.3 312.6,418.5 290.3,418.6 268.1,418.7 245.8,650.0 223.5,650.0 201.3,650.0 179.0,650.0 156.8,650.0 134.5,650.0 112.3,650.0 90.0,650.0" fill="#b07219" opacity="0.6" class="anim" style="animation-delay:1200ms;"/>
<line x1="735.5" y1="100" x2="735.5" y2="650" stroke="#c9d1d9" stroke-width="1" stroke-dasharray="4,3" opacity="0.35"/>
<text x="757.7" y="112" text-anchor="middle" class="axis-label" opacity="0.6">Mar 21, 2026</text>
<text x="90.0" y="668" text-anchor="middle" class="axis-label" transform="rotate(-35 90.0 668)">2026-02</text>
<text x="624.2" y="668" text-anchor="middle" class="axis-label" transform="rotate(-35 624.2 668)">2026-03</text>
<text x="757.7" y="668" text-anchor="middle" class="axis-label" transform="rotate(-35 757.7 668)">Mar 21, 2026</text>
<line x1="796" y1="110" x2="824" y2="110" stroke="#3fb950" stroke-width="2"/>
<text x="832" y="116" class="legend-text">Lines Added</text>
<line x1="796" y1="140" x2="824" y2="140" stroke="#f85149" stroke-width="1.5"/>
<text x="832" y="146" class="legend-text">Lines Deleted</text>
<line x1="796" y1="170" x2="824" y2="170" stroke="#e3b341" stroke-width="1.5" stroke-dasharray="4,3"/>
<text x="832" y="176" class="legend-text">&#x2605; Stars</text>
<text x="796" y="200" class="subtitle">Languages</text>
<rect x="796" y="212" width="12" height="12" rx="2" fill="#e34c26" opacity="0.8" class="anim" style="animation-delay:800ms;"/>
<text x="814" y="223" class="legend-text">HTML (65%→79%)</text>
<rect x="796" y="234" width="12" height="12" rx="2" fill="#f1e05a" opacity="0.8" class="anim" style="animation-delay:880ms;"/>
<text x="814" y="245" class="legend-text">JavaScript (10%→3%)</text>
<rect x="796" y="256" width="12" height="12" rx="2" fill="#3572A5" opacity="0.8" class="anim" style="animation-delay:960ms;"/>
<text x="814" y="267" class="legend-text">Python (11%→8%)</text>
<rect x="796" y="278" width="12" height="12" rx="2" fill="#663399" opacity="0.8" class="anim" style="animation-delay:1040ms;"/>
<text x="814" y="289" class="legend-text">CSS (3%→0%)</text>
<rect x="796" y="300" width="12" height="12" rx="2" fill="#083fa1" opacity="0.8" class="anim" style="animation-delay:1120ms;"/>
<text x="814" y="311" class="legend-text">Markdown (3%→5%)</text>
<rect x="796" y="322" width="12" height="12" rx="2" fill="#6E4C13" opacity="0.8" class="anim" style="animation-delay:1200ms;"/>
<text x="814" y="333" class="legend-text">Assembly (3%→2%)</text>
<rect x="796" y="344" width="12" height="12" rx="2" fill="#F05138" opacity="0.8" class="anim" style="animation-delay:1280ms;"/>
<text x="814" y="355" class="legend-text">Swift (2%→2%)</text>
<rect x="796" y="366" width="12" height="12" rx="2" fill="#b07219" opacity="0.8" class="anim" style="animation-delay:1360ms;"/>
<text x="814" y="377" class="legend-text">Java (1%→1%)</text>
<text x="796" y="412" class="subtitle">Contributions</text>
<text x="796" y="432" class="axis-label">2023: 39</text>
<text x="796" y="452" class="axis-label">2024: 646</text>
<text x="796" y="472" class="axis-label">2025: 1,780</text>
<text x="796" y="492" class="axis-label">2026: 353</text>
<text x="796" y="522" class="subtitle">Statistics</text>
<text x="796" y="542" class="axis-label">Active weeks: 77</text>
<text x="796" y="562" class="axis-label">Add/Del ratio: 1.6x</text>
<text x="796" y="582" class="axis-label">Avg lines/wk: 19K</text>
<text x="796" y="602" class="axis-label">Peak: 2026-02-15</text>
<text x="796" y="622" class="axis-label">  (543K lines)</text>
<text x="90" y="742" class="axis-label">Total: +911,489 / -569,499 lines &#xb7; 2,818 contributions &#xb7; 74 repos &#xb7; &#x2605; 33</text>
</svg>